<svg xmlns="http://www.w3.org/2000/svg" xmlns:xlink="http://www.w3.org/1999/xlink" version="1.1" x="0px" y="0px" viewBox="0 0 89.767 62.30875" enable-background="new 0 0 89.767 49.847" xml:space="preserve"><path d="M30.624,0l-1.91,0.867c-1.421,0.099-2.773,0.443-4.109,1.049c-0.25,0.113-0.501,0.238-0.749,0.369  c-0.519,0.276-1.042,0.598-1.555,0.956c-0.994,0.694-1.98,1.542-3.015,2.59c-0.421,0.427-0.844,0.88-1.292,1.385  c-0.917,1.034-1.806,2.134-2.629,3.168c-0.199,0.251-0.398,0.501-0.597,0.752c-0.198,0.25-0.396,0.5-0.595,0.75  c-0.809,1.015-1.679,2.093-2.569,3.096c-0.427,0.481-0.829,0.912-1.229,1.317c-0.958,0.972-1.864,1.752-2.769,2.385  C7.15,19.002,6.688,19.287,6.23,19.53c-1.57,0.834-3.16,1.24-4.874,1.243L0,20.775l11.412,25.15l0.565-0.001  c1.708-0.002,3.371-0.366,4.944-1.079c0.25-0.113,0.501-0.237,0.75-0.369c0.519-0.275,1.042-0.598,1.555-0.955  c0.993-0.695,1.979-1.541,3.014-2.592c0.422-0.427,0.844-0.88,1.292-1.385c0.917-1.032,1.806-2.133,2.629-3.168  c0.197-0.248,0.394-0.496,0.591-0.745c0.2-0.253,0.4-0.505,0.601-0.757c0.808-1.015,1.677-2.092,2.569-3.096  c0.428-0.481,0.829-0.913,1.229-1.319c0.959-0.972,1.865-1.752,2.77-2.383c0.456-0.318,0.918-0.604,1.375-0.845  c1.474-0.784,2.963-1.188,4.557-1.239l10.824,23.854l2.128-0.965L30.624,0z M29.022,2.61c0.819,1.805,1.638,3.609,2.457,5.415  c-1.894,0.157-3.573,0.788-5.109,1.734c-0.818-1.805-1.638-3.609-2.457-5.415C25.449,3.398,27.128,2.768,29.022,2.61z M26.375,9.765  c0.819,1.806,1.638,3.61,2.457,5.415c-1.536,0.946-2.929,2.207-4.25,3.626c-0.819-1.805-1.638-3.609-2.457-5.414  C23.446,11.973,24.838,10.711,26.375,9.765z M19.665,7.968c0.819,1.805,1.638,3.61,2.457,5.415  c-1.322,1.419-2.571,2.996-3.822,4.573c-0.818-1.805-1.638-3.61-2.457-5.415C17.094,10.964,18.344,9.388,19.665,7.968z   M18.306,17.961c0.819,1.805,1.638,3.61,2.457,5.415c-1.25,1.577-2.5,3.154-3.822,4.573c-0.819-1.806-1.638-3.61-2.457-5.415  C15.805,21.115,17.056,19.539,18.306,17.961z M12.025,17.11c0.819,1.805,1.638,3.61,2.457,5.415  c-1.321,1.419-2.714,2.681-4.25,3.627c-0.819-1.805-1.638-3.61-2.457-5.415C9.311,19.791,10.704,18.53,12.025,17.11z M5.127,27.892  c1.894-0.157,3.573-0.787,5.109-1.734c0.819,1.806,1.638,3.609,2.457,5.415c-1.537,0.945-3.216,1.576-5.109,1.734  C6.765,31.501,5.946,29.697,5.127,27.892z M12.504,44.151c-0.819-1.806-1.638-3.609-2.457-5.415c1.895-0.157,3.574-0.788,5.11-1.734  c0.819,1.806,1.638,3.609,2.457,5.415C16.078,43.363,14.398,43.993,12.504,44.151z M15.152,36.996  c-0.819-1.806-1.639-3.609-2.458-5.415c1.536-0.945,2.93-2.207,4.251-3.627c0.818,1.806,1.638,3.61,2.457,5.415  C18.081,34.788,16.688,36.049,15.152,36.996z M21.861,38.792c-0.819-1.806-1.638-3.609-2.457-5.415  c1.322-1.419,2.572-2.995,3.822-4.572c0.819,1.806,1.638,3.609,2.457,5.415C24.433,35.796,23.183,37.374,21.861,38.792z   M23.221,28.8c-0.819-1.806-1.638-3.61-2.457-5.415c1.25-1.578,2.5-3.154,3.821-4.573c0.819,1.805,1.638,3.61,2.457,5.415  C25.721,25.646,24.471,27.222,23.221,28.8z M29.502,29.651c-0.819-1.806-1.639-3.609-2.458-5.415  c1.322-1.419,2.715-2.681,4.251-3.627c0.818,1.805,1.638,3.61,2.457,5.415C32.216,26.97,30.823,28.232,29.502,29.651z   M31.291,20.603c-0.819-1.805-1.638-3.609-2.457-5.415c1.536-0.946,3.215-1.577,5.109-1.734c0.819,1.805,1.638,3.61,2.457,5.415  C34.506,19.026,32.826,19.657,31.291,20.603z"/><path d="M88.043,20.773c-1.713-0.003-3.303-0.409-4.874-1.243c-0.456-0.244-0.919-0.528-1.373-0.845  c-0.906-0.633-1.812-1.413-2.771-2.385c-0.399-0.406-0.803-0.836-1.229-1.317c-0.892-1.003-1.762-2.081-2.569-3.096  c-0.199-0.25-0.396-0.5-0.596-0.75c-0.198-0.251-0.397-0.501-0.596-0.752c-0.824-1.034-1.714-2.134-2.631-3.168  c-0.447-0.505-0.87-0.958-1.292-1.385c-1.033-1.049-2.02-1.896-3.014-2.59c-0.514-0.358-1.036-0.68-1.556-0.956  c-0.247-0.131-0.5-0.255-0.749-0.369c-1.335-0.606-2.687-0.951-4.107-1.049L58.777,0L36.596,48.882l2.127,0.965l10.824-23.854  c1.594,0.051,3.082,0.455,4.557,1.239c0.457,0.241,0.919,0.526,1.375,0.845c0.904,0.631,1.811,1.411,2.77,2.383  c0.399,0.406,0.801,0.838,1.229,1.319c0.89,1.004,1.761,2.081,2.568,3.096c0.2,0.252,0.4,0.504,0.602,0.757  c0.196,0.249,0.393,0.497,0.591,0.745c0.822,1.035,1.712,2.136,2.629,3.168c0.447,0.505,0.871,0.958,1.292,1.385  c1.034,1.051,2.021,1.896,3.014,2.592c0.514,0.357,1.037,0.68,1.556,0.955c0.248,0.132,0.5,0.256,0.75,0.369  c1.571,0.713,3.235,1.077,4.943,1.079l0.565,0.001L89.4,20.775L88.043,20.773z M77.375,17.11c1.322,1.419,2.715,2.681,4.251,3.627  c-0.819,1.805-1.638,3.609-2.456,5.415c-1.537-0.946-2.931-2.208-4.252-3.627C75.737,20.72,76.556,18.916,77.375,17.11z   M74.917,22.534c-0.82,1.805-1.639,3.609-2.457,5.415c-1.321-1.419-2.571-2.996-3.822-4.573c0.819-1.805,1.638-3.61,2.458-5.415  C72.345,19.539,73.595,21.115,74.917,22.534z M69.734,7.968c1.322,1.419,2.572,2.996,3.822,4.573  c-0.819,1.805-1.638,3.609-2.457,5.415c-1.25-1.577-2.5-3.154-3.821-4.573C68.098,11.578,68.916,9.773,69.734,7.968z M67.275,13.392  c-0.818,1.805-1.637,3.609-2.456,5.414c-1.322-1.419-2.715-2.68-4.251-3.626c0.819-1.805,1.638-3.609,2.457-5.415  C64.562,10.711,65.954,11.973,67.275,13.392z M60.378,2.61c1.895,0.157,3.573,0.788,5.109,1.734  c-0.819,1.805-1.638,3.61-2.456,5.415c-1.537-0.946-3.216-1.577-5.11-1.734C58.74,6.22,59.559,4.415,60.378,2.61z M53.001,18.869  c0.818-1.805,1.637-3.609,2.457-5.415c1.894,0.157,3.572,0.789,5.109,1.734c-0.82,1.805-1.639,3.61-2.457,5.415  C56.573,19.657,54.895,19.026,53.001,18.869z M59.899,29.651c-1.322-1.419-2.715-2.681-4.251-3.627  c0.818-1.805,1.637-3.609,2.457-5.415c1.535,0.946,2.929,2.208,4.251,3.627C61.536,26.042,60.718,27.845,59.899,29.651z   M62.357,24.227c0.819-1.805,1.638-3.61,2.457-5.415c1.322,1.419,2.572,2.996,3.822,4.573c-0.82,1.805-1.639,3.609-2.457,5.415  C64.929,27.222,63.679,25.646,62.357,24.227z M67.539,38.792c-1.321-1.419-2.571-2.996-3.821-4.572  c0.818-1.806,1.637-3.609,2.457-5.415c1.25,1.577,2.499,3.153,3.821,4.572C69.177,35.183,68.357,36.987,67.539,38.792z   M69.998,33.369c0.818-1.805,1.637-3.609,2.457-5.415c1.321,1.42,2.714,2.682,4.251,3.627c-0.82,1.806-1.639,3.609-2.457,5.415  C72.712,36.049,71.319,34.788,69.998,33.369z M76.896,44.151c-1.895-0.158-3.574-0.788-5.109-1.734  c0.818-1.806,1.637-3.609,2.457-5.415c1.535,0.946,3.215,1.577,5.108,1.734C78.533,40.542,77.715,42.345,76.896,44.151z   M81.817,33.307c-1.895-0.158-3.574-0.789-5.11-1.734c0.819-1.806,1.638-3.609,2.456-5.415c1.537,0.947,3.217,1.577,5.11,1.734  C83.454,29.697,82.636,31.501,81.817,33.307z"/><text x="0" y="64.84700000000001" fill="#000000" font-size="5px" font-weight="bold" font-family="'Helvetica Neue', Helvetica, Arial-Unicode, Arial, Sans-serif">Created by Looo</text><text x="0" y="69.84700000000001" fill="#000000" font-size="5px" font-weight="bold" font-family="'Helvetica Neue', Helvetica, Arial-Unicode, Arial, Sans-serif">from the Noun Project</text></svg>