<svg xmlns="http://www.w3.org/2000/svg" width="1024" height="1024"><rect stroke="none" x="0" y="0" width="1024" height="1024" fill="white"/><path stroke="#000000" stroke-width="2" d="M 1024.0 196.4937860850623 L 1023.898437632015 196.49218764796387 L 1009.6640624640277 196.08203161595156 L 1005.8828124160646 196.08203161595156 L 995.8437498880667 195.87890585593414 L 991.8515630080365 195.7773434879491 L 988.3671879680478 195.67578111996409 L 978.9453127680463 195.3671874559368 L 968.6093752320157 195.26562508795178 L 959.79687526403 195.05859379196772 L 949.968749568041 194.85546905593947 L 945.2578129920294 194.85546905593947 L 936.0390625280561 194.75390668795444 L 928.2578124800348 194.5468753919704 L 923.1406254080357 194.44531199993799 L 896.5156249600113 194.03515596792568 L 890.5781248000567 193.83203123195563 L 883.4062499840511 193.62499993597157 L 877.8828124160646 193.42187519994332 L 871.8359377920278 193.21484390395926 L 866.1015623680432 193.11328153597424 L 862.3125002240413 193.011719167931 L 855.4531246080296 192.9101557759568 L 852.5859379200265 192.9101557759568 L 845.2109373440617 192.80859340797178 L 835.1796879360336 192.60156211192952 L 830.5703127040179 192.4999997439445 L 823.9140628480236 192.4999997439445 L 816.4374999040156 192.19140607997542 L 810.7031255040201 192.0898437119322 L 807.2187504640315 192.0898437119322 L 804.7656253440655 191.98828134394716 L 798.109375488013 191.98828134394716 L 791.7578127360321 191.88671897596214 L 784.390625280037 191.57812531193485 L 776.914062336029 191.47656294394983 L 772.921875456057 191.57812531193485 L 766.7734374400461 191.47656294394983 L 739.023437824042 191.16796825593337 L 730.0156252160668 191.06640588794835 L 723.4609377280576 190.96484351996332 L 718.7500001280569 190.8593745919643 L 710.1484369920217 190.65624985593604 L 703.6953128960449 190.554687487951 L 695.9140628480236 190.453125119966 L 686.9062502400484 190.453125119966 L 679.2265625600121 190.34765619196696 L 674.1015623680432 190.24609382392373 L 661.3046876160661 190.1445314559387 L 652.8046878720634 189.94140671996865 L 649.1171870720573 189.7343754239264 L 645.7343754240428 189.6328120319522 L 640.2109378560563 189.7343754239264 L 635.2968744960381 189.6328120319522 L 630.9921873920248 189.53124966396717 L 623.1093749760184 189.42578175995732 L 619.828124672058 189.42578175995732 L 615.5312496640254 189.3242183679249 L 609.6953128960449 189.2226559999399 L 604.0624998400453 189.01953126396984 L 600.8906250240398 188.81249996792758 L 593.6171878400492 188.81249996792758 L 589.828124672058 188.71093759994255 L 587.5781253120513 188.60937523195753 L 584.812499968044 188.71093759994255 L 580.6093752320157 188.5078128639725 L 567.6093747200212 188.19921919994522 L 564.4296878080349 188.09765580797102 L 560.7500001280569 187.99218790396117 L 546.4140625920263 187.89062451192876 L 540.5703127040179 187.89062451192876 L 526.6484377600136 187.6874997759587 L 520.3984373760177 187.5859374079737 L 512.2109378560563 187.17578137596138 L 507.9062497280538 187.07421900791815 L 489.06250035203993 187.07421900791815 L 486.9560924160178 187.07234815997072 L 484.66406297602225 187.07031244796235 L 467.4609377280576 186.96875007991912 L 453.9453122560517 186.96875007991912 L 448.21093785605626 187.17578137596138 L 436.2265620480175 186.76562534394907 L 425.7812500480213 186.66406297596404 L 419.2265625600121 186.55859404796502 L 401.92187494406244 186.3554682879476 L 394.7578122240375 186.25390591996256 L 387.898437632015 186.15234355191933 L 383.39062476804247 186.15234355191933 L 362.9062502400484 185.74218751996523 L 356.56249958404806 185.74218751996523 L 343.4531246080296 185.6367185919662 L 340.179687424039 185.640625151922 L 336.79687475203536 185.640625151922 L 333.0078126080334 185.53515622392297 L 327.2734371840488 185.43359385593794 L 314.3750000640284 185.33203148795292 L 306.281249792024 185.33203148795292 L 292.0468746240367 185.12500019196887 L 279.554688000062 185.12500019196887 L 272.9999994880636 185.02343782392563 L 260.921875456057 184.9218754559406 L 256.21093785605626 185.12500019196887 L 252.92968755203765 185.12500019196887 L 245.7656248320127 184.9218754559406 L 237.26562508800998 184.9218754559406 L 233.6796876800363 184.71874969592318 L 230.5078128640307 184.71874969592318 L 227.74218752002344 184.61328076792415 L 222.00781209603883 184.61328076792415 L 207.97656268801074 184.51171839993913 L 208.07812505605398 178.87890636792872 L 208.59375001606531 175.08984422392678 L 209.41406208003173 169.56250009592623 L 210.43749990401557 162.0859371519182 L 210.84375040006125 158.70703103992855 L 212.07031296001514 149.39062476792606 L 213.10156288003782 142.52734361594776 L 214.01562521606684 135.4609377279412 L 215.14843750401633 127.06640588794835 L 216.37500006402843 117.95312537596328 L 216.6796871680417 115.59765606396832 L 217.3984327680664 110.17187430395279 L 218.01562521606684 105.35546879994217 L 218.7265628160676 100.03125043195905 L 220.2656245760154 87.84765644796425 L 220.78124953602673 84.36328140797559 L 221.28906240005745 80.47265587194124 L 221.59374950401252 77.81250047992216 L 223.1328122880659 66.44531199993799 L 220.06249984004535 62.554687487951014 L 216.57812480005668 58.66406297596404 L 211.46093772805762 53.13281228794949 L 208.79687475203536 50.06249983992893 L 204.39843737601768 45.14453094394412 L 201.3203128320165 41.562500095926225 L 198.25000038405415 38.18359398393659 L 194.56249958404806 34.08593715191819 L 192.0000000000582 31.218750463973265 L 190.7734374400461 29.683594239933882 L 182.89062502403976 20.87890636792872 L 176.23437516804552 13.093749759951606 L 172.9609379840549 9.30468761594966 L 170.0859371520346 5.722655743942596 L 165.16767044301378 0.0" fill="none"/><path stroke="#000000" stroke-width="2" d="M 165.16767044311564 0.0 L 170.0859371520928 5.722655743884388 L 172.9609379840549 9.30468761594966 L 176.23437516804552 13.093749759893399 L 182.89062502409797 20.87890636792872 L 190.77343744010432 29.683594239933882 L 192.00000000011642 31.218750463973265 L 194.56249958410626 34.08593715191819 L 198.25000038411235 38.18359398387838 L 201.3203128320165 41.56250009580981 L 204.39843737601768 45.14453094394412 L 208.79687475209357 50.06249983992893 L 211.46093772805762 53.132812287891284 L 216.57812480005668 58.664062975905836 L 220.06249984004535 62.5546874878346 L 223.1328122880659 66.44531199993799 L 221.59374950407073 77.81250047986396 L 221.28906240005745 80.47265587188303 L 220.78124953602673 84.36328140791738 L 220.2656245760154 87.84765644790605 L 218.7265628161258 100.03125043184264 L 218.01562521606684 105.35546880000038 L 217.3984327680664 110.17187430383638 L 216.67968716809992 115.59765606396832 L 216.37500006408663 117.95312537596328 L 215.14843750401633 127.06640588783193 L 214.01562521606684 135.46093772782478 L 213.10156288009603 142.52734361594776 L 212.07031296007335 149.39062476786785 L 210.84375040006125 158.70703103987034 L 210.43749990401557 162.08593715180177 L 209.41406208003173 169.56250009586802 L 208.59375001612352 175.08984422381036 L 208.07812505611219 178.87890636792872 L 207.97656268806895 184.5117183998227 L 222.00781209603883 184.61328076786594 L 227.74218752002344 184.61328076786594 L 230.5078128640307 184.71874969580676 L 233.6796876800945 184.71874969580676 L 237.26562508800998 184.9218754559406 L 245.7656248320709 184.9218754559406 L 252.92968755203765 185.12500019185245 L 256.21093785611447 185.12500019185245 L 260.92187545611523 184.9218754559406 L 272.9999994880636 185.02343782380922 L 279.5546880001202 185.12500019185245 L 292.0468746240367 185.12500019185245 L 306.281249792024 185.33203148795292 L 314.3750000640284 185.33203148795292 L 327.2734371840488 185.43359385582153 L 333.0078126080334 185.53515622386476 L 336.79687475203536 185.640625151922 L 340.1796874240972 185.640625151922 L 343.4531246080878 185.636718591908 L 356.56249958410626 185.74218751996523 L 362.9062502400484 185.74218751996523 L 383.39062476804247 186.15234355180291 L 387.8984376320732 186.15234355180291 L 394.7578122240957 186.25390591984615 L 401.92187494412065 186.35546828788938 L 419.2265625600121 186.5585940478486 L 425.7812500480213 186.66406297596404 L 436.2265620480757 186.76562534400728 L 448.21093785605626 187.1757813760196 L 453.9453122561099 186.9687500798609 L 467.4609377280576 186.9687500798609 L 484.66406297602225 187.07031244790414 L 486.9560924160178 187.0723481599125 L 489.06250035203993 187.07421900797635 L 507.9062497280538 187.07421900797635 L 512.2109378560563 187.1757813760196 L 520.3984373760177 187.5859374080319 L 526.6484377600136 187.6874997758423 L 540.5703127040179 187.89062451192876 L 546.4140625920845 187.89062451192876 L 560.7500001280569 187.99218790390296 L 564.4296878080349 188.0976558078546 L 567.6093747200794 188.1992191998288 L 580.609375232074 188.5078128639725 L 584.812499968044 188.71093759988435 L 587.5781253121095 188.6093752318411 L 589.8281246721162 188.71093759988435 L 593.6171878401074 188.81249996792758 L 600.8906250240398 188.81249996792758 L 604.0624998400453 189.01953126385342 L 609.6953128961031 189.2226559999399 L 615.5312496640254 189.3242183679249 L 619.828124672058 189.4257817598991 L 623.1093749760184 189.4257817598991 L 630.992187392083 189.53124966390897 L 635.2968744960963 189.6328120319522 L 640.2109378560563 189.7343754238682 L 645.7343754240428 189.6328120319522 L 649.1171870720573 189.7343754238682 L 652.8046878720634 189.94140671996865 L 661.3046876161243 190.1445314558805 L 674.1015623681014 190.24609382392373 L 679.2265625600703 190.34765619196696 L 686.9062502401066 190.45312511984957 L 695.9140628480818 190.45312511984957 L 703.6953128960449 190.5546874878928 L 710.1484369920217 190.65624985593604 L 718.7500001280569 190.8593745920225 L 723.4609377281158 190.96484351990512 L 730.015625216125 191.06640588794835 L 739.0234378241003 191.16796825581696 L 766.7734374400461 191.47656294389162 L 772.921875456057 191.57812531187665 L 776.9140623360872 191.47656294389162 L 784.390625280037 191.57812531187665 L 791.7578127360903 191.88671897590393 L 798.109375488013 191.98828134388896 L 804.7656253441237 191.98828134388896 L 807.2187504640315 192.0898437119322 L 810.7031255040201 192.0898437119322 L 816.4374999040738 192.19140607997542 L 823.9140628480236 192.4999997439445 L 830.5703127040179 192.4999997439445 L 835.1796879360336 192.6015621118131 L 845.2109373441199 192.80859340791358 L 852.5859379200265 192.9101557759568 L 855.4531246080878 192.9101557759568 L 862.3125002240995 193.011719167931 L 866.1015623681014 193.11328153597424 L 871.835937792086 193.21484390401747 L 877.8828124161228 193.42187519994332 L 883.4062499841093 193.62499993602978 L 890.5781248000567 193.83203123195563 L 896.5156249600113 194.03515596780926 L 923.1406254080939 194.44531199982157 L 928.2578124800348 194.5468753919704 L 936.0390625281143 194.75390668789623 L 945.2578129920876 194.85546905593947 L 949.968749568041 194.85546905593947 L 959.79687526403 195.0585937918513 L 968.609375232074 195.26562508795178 L 978.9453127680463 195.36718745582039 L 988.367187968106 195.67578111996409 L 991.8515630080947 195.7773434878327 L 995.8437498880667 195.87890585587593 L 1005.8828124160646 196.08203161583515 L 1009.6640624640859 196.08203161583515 L 1023.898437632015 196.49218764784746 L 1024.0 196.4937860849459" fill="none"/><path stroke="#408040" stroke-width="3" d="M 1006.7217066666635 1024.0 L 1024.0 1003.2133122170344" fill="none"/></svg>