<svg xmlns="http://www.w3.org/2000/svg" width="1024" height="1024"><rect stroke="none" x="0" y="0" width="1024" height="1024" fill="white"/><path stroke="#000000" stroke-width="2" d="M 1024.0 865.3769113600501 L 1023.389081600064 866.5987481598859 L 1021.5458816001774 869.7731481599039 L 1016.2210816000588 872.128348159953 L 1014.8898816001602 876.3267481598887 L 1014.5826816001208 879.5011481599067 L 1014.173081600049 882.3683481599437 L 1012.3298816001625 882.4707481598598 L 1009.8722816000227 882.1635481598787 L 1008.9506816000794 884.5187481599278 L 1010.6914816000499 886.8739481598022 L 1008.7458816000144 889.9459481599042 L 1008.9506816000794 892.6083481598762 L 1008.0290816000197 895.5779481598292 L 1004.5474816000788 896.7043481598957 L 1001.0658816001378 898.2403481598594 L 997.993881600094 902.336348159879 L 995.9458816000842 904.1795481599402 L 993.795481600042 905.8179481598199 L 989.5970816001063 907.1491481599514 L 987.446681600064 908.0707481599529 L 988.8802816000534 915.1363481599255 L 990.7234816000564 917.4915481600328 L 988.6754816000466 920.6659481598181 L 983.9650816001231 924.3523481599404 L 979.3570816001156 925.9907481598202 L 976.0802816001233 925.7859481598134 L 973.2130816000863 922.9187481599511 L 970.5506816000561 921.4851481599035 L 968.093081600091 921.0755481598899 L 966.3522816001205 922.8163481598604 L 964.8162816000986 924.7619481598376 L 962.2562816001009 926.7075481598149 L 960.3106816000072 928.1411481598625 L 957.3410816000542 930.0867481598398 L 953.1426816000603 928.3459481598693 L 951.197081600083 928.6531481598504 L 945.9746816000552 930.2915481599048 L 943.9266816000454 932.9539481598767 L 942.6978816000628 934.6947481598472 L 943.4146816001739 937.8691481598653 L 945.5650816000416 942.6819481598795 L 945.4626816000091 945.6515481598326 L 944.2338816000265 947.9043481599656 L 940.9570816000341 950.25954815984 L 936.7586816000403 952.8195481599541 L 935.0178816000116 956.9155481599737 L 936.2466816001688 961.7283481598133 L 936.2466816001688 965.2099481599289 L 936.1442816000781 968.2819481600309 L 934.3010816000169 968.8963481599349 L 931.4338816000381 968.6915481598699 L 930.2050816000556 965.7219481599168 L 930.0002816000488 959.2707481598482 L 927.5426816000254 957.4275481599616 L 925.6994816000806 958.6563481599442 L 924.5730816000141 961.4211481598904 L 921.0914816000732 962.1379481598851 L 921.29628160008 965.2099481599289 L 921.29628160008 968.0771481599659 L 921.1938816000475 971.0467481599189 L 920.5794816000853 973.1971481599612 L 917.6098816000158 976.5763481598115 L 915.8690816000453 980.057948159927 L 915.1522816000506 984.3587481600116 L 915.6642816000385 986.9187481598929 L 916.8930816000211 989.1715481598512 L 918.6338816001662 991.0147481599124 L 921.9106816001004 993.4723481598776 L 923.2418816001737 996.9539481598185 L 921.7058816000354 1002.2787481598789 L 919.4530816000188 1006.0675481599174 L 917.5074816000997 1007.9107481598039 L 914.5378816000302 1009.1395481600193 L 911.8754816000583 1011.9043481599074 L 910.2370816000621 1014.5667481599376 L 907.881881600013 1018.1507481599692 L 904.2978816000978 1023.2707481599646 L 904.2978816000978 1024.0" fill="none"/><path stroke="#000000" stroke-width="2" d="M 730.9440317794943 1024.0 L 727.9650816000649 1021.1203481599223 L 723.3570816000574 1018.8675481599639 L 721.3090816000476 1017.2291481599677 L 718.9538816001732 1017.0243481599027 L 715.4722816000576 1017.4339481599745 L 711.376281600038 1018.2531481598853 L 708.3042816000525 1020.1987481599208 L 704.7202816000208 1018.4579481599503 L 702.0578816001071 1016.000348159927 L 700.6242816000595 1012.8259481599671 L 702.36508160003 1010.7779481598409 L 706.1538816000102 1008.0131481599528 L 709.2258816001122 1003.3027481599711 L 709.7378816001583 1000.1283481598366 L 708.3042816000525 998.5923481598729 L 705.2322816000087 997.3635481598903 L 700.8290816000081 998.28514815995 L 698.5762816000497 1000.8451481598313 L 694.6850816000369 1004.429148159863 L 691.9202816000325 1006.4771481598145 L 687.8242816000129 1007.2963481598999 L 684.4450816001045 1007.1939481598092 L 680.8610816000146 1006.0675481599174 L 678.3010816001333 1004.3267481599469 L 676.1506816000328 1001.4595481599099 L 674.8194816000178 998.5923481598729 L 674.8194816000178 995.315548159997 L 679.2226816000766 995.5203481598292 L 681.475481600035 995.315548159997 L 684.9570816001506 993.5747481600265 L 687.5170816001482 991.4243481598096 L 688.8482816000469 988.2499481599662 L 688.5410816000076 983.1299481599708 L 684.5474816000205 979.5459481599391 L 681.7826816000743 979.0339481599513 L 679.837081600097 979.2387481600163 L 675.638681600045 979.0339481599513 L 672.5666816000594 977.2931481598062 L 670.7234816000564 976.5763481598115 L 668.3682816000073 980.5699481599149 L 667.6514816000126 984.4611481599277 L 666.0130816000747 987.7379481598036 L 665.6034816001775 991.3219481598935 L 664.9890816000989 993.9843481598655 L 663.3506816000445 996.9539481598185 L 660.0738816000521 1001.4595481599099 L 656.4898816000205 1004.2243481598562 L 653.8274816001649 1004.633948159928 L 649.8338816000614 1003.6099481599522 L 643.7922816000646 1001.0499481598381 L 640.2082816000911 999.9235481600044 L 632.7330816000467 999.2067481599515 L 630.4802816000883 999.7187481599394 L 627.9202816000907 1000.3331481598434 L 627.5106816000189 996.4419481598306 L 626.6914816001081 991.0147481599124 L 623.2098816000507 988.5571481599472 L 619.9330816000584 990.4003481598338 L 616.5538816000335 991.4243481598096 L 613.5842816000222 992.0387481598882 L 611.0242816000246 989.8883481598459 L 610.0002816000488 986.509148159821 L 609.3858816000284 984.0515481598559 L 603.0370816000504 984.8707481599413 L 599.4530816000188 985.0755481598317 L 597.0978816000861 983.0275481598801 L 594.9474816000438 979.6483481598552 L 591.2610816001543 980.1603481598431 L 588.9058816001052 980.2627481599338 L 585.8338816001196 980.8771481598378 L 583.0690816001152 980.2627481599338 L 580.3042816001689 978.3171481599566 L 582.9666816000827 975.8595481598168 L 583.9906816000585 973.8115481598652 L 581.2258816001122 969.7155481598456 L 578.9730816000956 966.3363481598208 L 577.4370816001319 964.697948159941 L 573.4434816000285 963.8787481598556 L 569.1426816000603 962.445148159808 L 566.7874816000112 960.4995481598307 L 563.3058816000703 956.9155481599737 L 562.5890816000756 953.0243481599609 L 562.998681600031 949.7475481598522 L 556.4450816001045 949.8499481600011 L 553.5778816000675 949.5427481598454 L 551.3250816000509 950.361948159989 L 552.7586816000403 954.1507481598528 L 550.9154816001537 956.5059481599019 L 548.2530816000653 956.3011481598951 L 544.5666816001758 956.608348159818 L 540.7778816000209 955.4819481599261 L 538.9346816000179 952.8195481599541 L 540.1634816001169 949.5427481598454 L 541.6994816001388 946.7779481598991 L 542.6210816000821 941.2483481598902 L 542.2114816000103 937.1523481598706 L 537.3986816001707 934.4899481598404 L 535.3506816001609 931.8275481598102 L 532.8930816000211 929.4723481599358 L 528.8994816000923 927.8339481598814 L 525.4178816000349 923.9427481599269 L 523.4722816000576 921.2803481598967 L 520.9122816000599 918.1059481599368 L 518.8642816000502 915.0339481598348 L 516.3042816000525 912.5763481598697 L 511.69628160004504 915.1363481599255 L 506.6786816000822 913.0883481598576 L 506.0642816000618 910.5283481599181 L 510.36508160002995 907.3539481599582 L 510.77468160010176 904.5891481598374 L 508.726681600092 902.0291481599561 L 506.6786816000822 901.5171481599682 L 503.29948160005733 902.6435481598601 L 500.12508160003927 901.9267481598072 L 496.1314816000522 900.0835481599206 L 491.52348160004476 900.1859481598367 L 489.2706816000864 899.8787481599138 L 487.0178816000698 899.8787481599138 L 487.1202816000441 896.9091481599608 L 487.9394816000131 893.9395481600077 L 487.8370816001552 889.9459481599042 L 488.0418816001038 887.3859481599648 L 486.5058816000819 883.6995481598424 L 482.61468160006916 881.2419481598772 L 479.4402816001675 879.3987481599324 L 475.85628160001943 878.7843481598538 L 472.68188160005957 876.1219481598819 L 467.04988160007633 875.8147481599008 L 462.6466816000175 877.2483481599484 L 460.2914816000266 876.1219481598819 L 458.5506816000561 873.6643481598585 L 458.3458816000493 870.1827481599175 L 460.2914816000266 866.7011481599766 L 459.8818816000712 864.4483481598436 L 456.40028160013026 862.1955481599434 L 451.4850816000835 865.2675481598126 L 448.72028160007903 865.3699481599033 L 445.34108160005417 865.7795481599751 L 441.8594816001132 867.0083481599577 L 439.29948160011554 867.5203481599456 L 435.7154816000839 867.1107481598738 L 433.1554816000862 868.8515481598442 L 431.1074816000764 870.2851481598918 L 426.3970816000365 870.6947481599054 L 420.35548160009785 870.2851481598918 L 416.361881600169 869.87554815982 L 413.2898816000088 868.1347481598496 L 410.83228160004364 865.2675481598126 L 408.6818816001178 862.605148159957 L 406.0194816000876 861.3763481599744 L 402.74268160009524 859.3283481599065 L 401.10428160004085 856.6659481598763 L 399.56828160001896 854.515548159834 L 397.0082816000213 854.8227481598151 L 393.62908160011284 855.7443481598166 L 391.37628160003806 856.5635481599602 L 387.792281600181 856.973148160032 L 383.49148160003824 856.768348159967 L 380.82908160000807 856.973148160032 L 378.2690816000104 859.3283481599065 L 374.58268160006264 861.2739481598837 L 371.1010816001217 859.6355481598293 L 369.155481600028 859.1235481598414 L 365.05948160000844 860.0451481599011 L 362.60188160004327 861.0691481598769 L 359.837081600097 863.3219481600099 L 356.76508160005324 863.0147481598542 L 357.07228160009254 859.9427481599851 L 354.40988160006236 856.1539481598884 L 352.771481600008 853.2867481598514 L 350.4162816000753 850.1123481598916 L 347.95868160005193 848.9859481599997 L 343.453081600077 848.5763481599279 L 339.45948160008993 846.6307481599506 L 336.28508160007186 846.5283481599763 L 333.3154816001188 846.4259481598856 L 329.93628160009393 845.811548159807 L 325.3282816000865 843.8659481598297 L 322.2562816000427 843.7635481599136 L 318.0578816001653 841.5107481599553 L 311.9138816000195 842.6371481600218 L 307.8178816001164 841.4083481598063 L 306.0770816000295 839.0531481599319 L 304.6434816000401 836.6979481598828 L 302.28828160004923 834.7523481599055 L 298.90908160002436 835.0595481598284 L 292.86748160002753 835.0595481598284 L 289.18108160002157 838.4387481598533 L 286.1090816001524 835.2643481598934 L 283.65148160001263 830.8611481598928 L 281.29628160002176 827.3795481599518 L 277.405081600009 825.4339481599745 L 276.2786816000589 821.8499481599429 L 274.74268160003703 820.6211481599021 L 272.79708160011796 819.9043481599074 L 268.905881600047 816.8323481598636 L 265.83388160006143 812.633948159928 L 263.58108160010306 809.4595481599099 L 263.68348160001915 805.6707481598132 L 263.17148160003126 803.5203481598292 L 264.91228160011815 800.7555481598829 L 263.88828160014236 797.376348159858 L 260.8162816000986 797.2739481599419 L 254.97948160016676 799.3219481598353 L 250.4738816000172 799.1171481598285 L 248.52828160009813 798.0931481598527 L 248.42588160000741 795.4307481598807 L 250.7810816000565 793.6899481599103 L 251.0882816000958 790.925148159964 L 249.4498816000414 788.3651481598499 L 246.78748160001123 785.3955481598969 L 243.40828160010278 785.8051481599687 L 239.31228160008322 789.1843481598189 L 237.16188160004094 792.7683481598506 L 236.75228160008555 795.5331481599715 L 235.52348160010297 798.0931481598527 L 233.6802816001 797.7859481599298 L 230.81308160006301 797.9907481599366 L 228.66268160002073 798.0931481598527 L 226.51228160003666 794.406748159905 L 223.6450816000579 791.6419481599587 L 223.3378816000186 789.0819481599028 L 224.2594816000783 787.0339481599513 L 224.2594816000783 783.0403481598478 L 223.6450816000579 777.5107481600135 L 224.2594816000783 775.1555481599644 L 228.86748160008574 774.6435481599765 L 229.37948160007363 772.697948159941 L 229.99388160003582 770.649948159873 L 228.45788160001393 767.3731481599389 L 226.20508160005556 762.9699481599382 L 223.8498816001811 757.4403481599293 L 223.1330816000118 755.4947481598938 L 221.69948160008062 752.6275481598568 L 219.65148160007084 752.0131481599528 L 216.37468160013668 752.7299481600057 L 212.27868160011712 755.3923481598031 L 210.43548160005594 756.7235481599346 L 208.59228160005296 758.3619481599308 L 205.0082816000213 759.2835481598158 L 201.32188160001533 758.157148159924 L 198.55708160001086 756.6211481599603 L 196.5090816001175 752.7299481600057 L 196.61148160003358 748.1219481599983 L 195.1778816001024 745.1523481598124 L 191.28668160008965 743.9235481598298 L 188.52188160008518 744.2307481598109 L 186.3714816000429 745.5619481598842 L 182.78748160001123 747.2003481599386 L 177.155481600028 748.0195481598494 L 174.28828160016565 746.1763481599628 L 170.80668160005007 745.3571481598774 L 168.3490816000849 744.5379481599084 L 166.7106816000305 740.74914815987 L 165.27708160009934 738.9059481599834 L 162.71708160010166 739.0083481598995 L 160.66908160009189 738.3939481598209 L 156.26588160003303 737.3699481598451 L 153.19388160004746 736.9603481599479 L 150.0194816000294 735.9363481600303 L 146.53788160003023 735.5267481599585 L 143.26108160003787 736.9603481599479 L 139.5746816000319 737.4723481599358 L 137.83388160006143 735.6291481598746 L 134.96668160002446 736.0387481599464 L 131.3826816001092 735.4243481598678 L 127.59388160001254 733.3763481599162 L 125.6484382720082 732.9667911678553 L 122.5762816000497 732.2499481598497 L 117.66108160006115 733.8883481599041 L 116.43228160002036 736.9603481599479 L 114.48668160010129 738.1891481599305 L 111.20988160010893 737.3699481598451 L 108.64988160011126 735.2195481598028 L 103.8370816000388 730.4067481599632 L 99.33148160006385 729.9971481598914 L 95.95228160003899 731.225948159874 L 92.26588160009123 732.8643481599283 L 88.88668160006637 733.1715481599094 L 84.8930816000211 732.9667481598444 L 83.15228160005063 732.0451481598429 L 83.86908160010353 728.9731481599156 L 82.23068160004914 726.2083481600275 L 78.44188160006888 724.0579481598106 L 75.26748160005081 722.9315481599187 L 72.09308160009095 723.5459481598227 L 68.91868160001468 723.5459481598227 L 63.798681600019336 723.8531481599784 L 59.6002816001419 722.5219481598469 L 57.04028160008602 721.907548159943 L 53.968281600100454 721.907548159943 L 50.99868160003098 721.2931481598644 L 48.9506816000212 719.7571481599007 L 46.08348160010064 719.9619481599657 L 42.19228160008788 719.245148159971 L 39.222681600018404 718.4259481598274 L 35.22908160003135 718.2211481598206 L 32.87388160004048 717.4019481598516 L 29.49468160001561 720.2691481598886 L 24.989081600040663 720.7811481598765 L 22.531481600075494 719.65474815981 L 18.845081600011326 718.4259481598274 L 15.670681600109674 716.5827481599408 L 12.701081600040197 715.0467481598025 L 7.376281600038055 712.5891481598374 L 2.9730816000374034 711.9747481599334 L 0.0 711.3801318399164" fill="none"/></svg>