<svg xmlns="http://www.w3.org/2000/svg" width="1024" height="1024"><rect stroke="none" x="0" y="0" width="1024" height="1024" fill="white"/><path stroke="#000000" stroke-width="2" d="M 568.3185901032994 0.0 L 566.914062336029 1.2148439039592631 L 567.6328120320104 4.082031615951564 L 568.0390625280561 8.078125055937562 L 566.5859379200265 14.874999807972927 L 567.3984378880123 18.75000012794044 L 568.3359375360305 23.624999935971573 L 568.5234370560502 26.937499647960067 L 565.1484375040163 29.562500095926225 L 566.3984373760177 33.500000255939085 L 568.2109378560563 37.812500479922164 L 569.4609377280576 41.06250035192352 L 569.343750144064 41.26953164796578 L 569.3671874560532 41.35546879994217 L 569.1015628800378 41.70703155192314 L 567.3984378880123 44.75000012794044 L 565.8515630080365 46.082031615951564 L 565.7890621440602 46.17187532794196 L 565.6249999360298 46.27734425594099 L 564.2734376960434 47.437500415951945 L 560.3359375360305 49.06250035192352 L 556.7734374400461 49.06250239996007 L 552.9609379840549 49.249999871943146 L 548.8984371200204 52.4999997439445 L 548.0468746240367 52.66406297596404 L 547.1406254080357 53.33593702391954 L 544.9765621760162 53.261718527937774 L 544.3984373760177 53.374999551917426 L 540.5859379200265 53.374999551917426 L 536.710937600059 52.31250022392487 L 532.5234370560502 51.500000255939085 L 528.3984373760177 53.74999961594585 L 527.656250368047 53.87500031996751 L 527.3906247680425 54.05468774394831 L 526.382812160009 54.09375027194619 L 524.710937600059 54.37500006397022 L 518.8984371200204 53.125000191968866 L 515.2734371840488 55.99999999994179 L 515.0859376640292 59.312499711930286 L 516.3984373760177 64.43749990395736 L 516.8906250240398 67.640625151922 L 517.476562944008 69.58984396792948 L 520.3359375360305 71.99999999994179 L 521.023437824042 75.06250035192352 L 522.7734374400461 79.99999999994179 L 525.2109373440617 81.62499993597157 L 526.0000000000582 81.84374988795025 L 528.3046871040133 82.21484339196468 L 528.6718750720611 82.57812479994027 L 529.5234375680448 82.81249996792758 L 532.8359372800332 86.4999997439445 L 536.0859371520346 89.81250047992216 L 538.2265620480175 91.32421836792491 L 538.4453120000544 91.42968729592394 L 540.6953123840503 92.45312511996599 L 539.164062720025 94.70703103992855 L 538.2265620480175 97.2734371839324 L 537.8359377920278 99.43750041595194 L 537.023437824042 105.74999961594585 L 539.648437248019 109.43750041595194 L 545.8359377920278 111.93750015995465 L 545.9921879040194 112.03125043195905 L 546.7421870080288 112.21874995192047 L 547.7187502080342 113.05078169592889 L 548.5859379200265 113.56250009592623 L 551.335937024036 116.81249996792758 L 551.648437248019 122.18749951996142 L 554.0234373120475 125.43750041595194 L 554.5468753920286 126.4999997439445 L 555.648437248019 127.78125004796311 L 556.8749998080311 130.9570314239245 L 556.9843752960442 131.51562547194771 L 557.3984378880123 132.37500006397022 L 557.898437632015 136.06249983992893 L 561.898437632015 139.74999961594585 L 565.3984378880123 140.37500006397022 L 566.5937500160071 140.9492183039547 L 569.7812500480213 141.9140628479654 L 570.3593748480198 142.76562534394907 L 570.5859379200265 142.87499980797293 L 573.648437248019 147.12500019196887 L 576.5234370560502 148.18749951996142 L 580.390625280037 148.18749951996142 L 581.8515630080365 148.16015667194733 L 585.2421908480464 150.10547814395977 L 585.4687498240382 150.52734361594776 L 585.9609374720603 150.81249996792758 L 587.5859374080319 153.50000025593909 L 589.4609377280576 156.75000012794044 L 591.1484375040163 160.6875002879533 L 593.1484375040163 165.37499955191743 L 597.2109373440617 164.56249958393164 L 598.6328125440632 164.20312473597005 L 598.6953123840503 164.1796874239226 L 600.6015621120459 163.51953100797255 L 601.5312496640254 163.46874982392183 L 602.1484369920217 163.3124997119303 L 603.4375004160102 163.3124997119303 L 604.382812160009 163.21484390395926 L 604.7343749120482 163.3124997119303 L 605.7109370880062 163.3124997119303 L 609.8359377920278 164.37500006397022 L 612.8984381440096 164.93749247991946 L 616.1484380160109 165.3749934079242 L 619.8359377920278 166.62500044796616 L 623.6484382720082 166.1875036159181 L 627.3360220160102 166.1875036159181 L 631.6484382720082 166.62499635195127 L 634.5859379200265 167.43750041595194 L 637.7734379520407 169.50000025593909 L 638.7734374400461 172.56249958393164 L 642.7734374400461 175.187500031956 L 646.7734374400461 178.06249983992893 L 649.5234375680448 180.12499967997428 L 652.8359372800332 181.37499955191743 L 655.898437632015 182.56249958393164 L 659.1484375040163 184.18749951996142 L 661.023437824042 187.6874997759587 L 663.1484375040163 191.56250009592623 L 664.5859379200265 195.06250035192352 L 667.7734379520407 200.62500044796616 L 669.2109373440617 203.24999987194315 L 668.9687500800355 203.46484326396603 L 669.4140620800317 205.19531212793663 L 663.7812500480213 208.16796876792796 L 663.6328120320104 208.2265620479593 L 662.0234373120475 212.87499980797293 L 666.0234373120475 214.4999997439445 L 670.0234373120475 217.00000051193638 L 673.5859374080319 219.43750041595194 L 681.7734389760299 218.18750566395465 L 687.648437248019 215.93750015995465 L 689.1484375040163 215.1328122879495 L 689.898437632015 214.61718732793815 L 690.9765621760162 214.1367183359689 L 691.0859376640292 214.0898437119322 L 694.2734376960434 212.25000038393773 L 696.9609379840549 210.43749990395736 L 700.5234370560502 209.00000051193638 L 704.8360202240292 208.37499187194044 L 708.5234370560502 207.56250009592623 L 712.3984373760177 206.12499967997428 L 712.6171873280546 206.09765580797102 L 712.8359372800332 206.01562521595042 L 715.2890624000574 205.71093708794797 L 716.5859379200265 204.0039065599558 L 717.648437248019 202.43749990395736 L 720.8984371200204 200.81249996792758 L 720.9687500800355 200.78124953596853 L 721.0468751360313 200.7382814719458 L 721.1250001920271 200.69140582391992 L 724.0937502720626 199.35937535995618 L 724.9062502400484 198.97265663993312 L 725.0625003520399 198.89453158393735 L 726.7734374400461 197.93750015995465 L 728.8281251840526 197.29687449592166 L 728.9296875520376 197.25390643195715 L 732.4921876480221 195.87890585593414 L 733.3749995520338 195.28906239994103 L 733.7656248320127 195.03515647992026 L 736.2734376960434 193.24999987194315 L 736.9296875520376 192.9218754559406 L 737.4140620800317 192.60156211192952 L 738.1171875840519 192.3281254399335 L 740.3984373760177 191.187500031956 L 743.6406251520384 190.19140607991721 L 743.7578127360321 190.1445314559387 L 744.460937216063 189.93750015995465 L 747.648437248019 189.7500016639242 L 750.5234370560502 188.93749964796007 L 754.2109378560563 187.50000025593909 L 756.9609379840549 186.25000038393773 L 758.281249792024 185.46874982392183 L 759.9375001600129 184.4101560319541 L 761.6093747200212 184.28515635192161 L 763.0625003520399 184.02343731193105 L 763.6015626240405 183.75781273597386 L 763.7499996160623 183.67968767991988 L 765.9609374720603 182.37500006397022 L 771.3984471040312 181.3750077439472 L 776.0859371520346 185.43750041595194 L 777.0546872320119 186.60546867194353 L 777.7578127360321 187.17578137596138 L 778.382812160009 188.20703129592584 L 779.9375001600129 190.08203161595156 L 781.0625003520399 190.18749951996142 L 785.5234375680448 190.18749951996142 L 786.0000000000582 190.28515635192161 L 786.4531251200242 190.24609382392373 L 788.1640622080304 190.71484415995656 L 790.5234370560502 191.187500031956 L 793.7109370880062 192.43749990395736 L 797.2890624000574 194.03906252793968 L 797.5781253120513 194.04687667195685 L 801.2109455360333 193.81250355194788 L 804.460937216063 194.6875002879533 L 808.7734374400461 195.50000025593909 L 809.2187504640315 195.74999961594585 L 810.2187499520369 195.98046924796654 L 812.3125002240413 197.4921871359693 L 812.7734374400461 197.74999961594585 L 815.2109373440617 199.9999999999418 L 818.3984373760177 201.43750041595194 L 821.898437632015 202.25000038393773 L 825.898437632015 202.87499980797293 L 828.3437496320112 204.53125017596176 L 829.6718745600083 205.30078105593566 L 830.1562501120497 205.75781273597386 L 831.898437632015 206.93749964796007 L 834.710937600059 209.9999999999418 L 835.8671872000559 211.28515583992703 L 836.2265620480175 211.5468748799176 L 836.5781248000567 212.07421849592356 L 837.5234375680448 213.12500019196887 L 840.8359372800332 217.81250047992216 L 847.3984378880123 220.43749990395736 L 850.7734374400461 222.93749964796007 L 853.1562496000552 224.25781247991836 L 856.9062502400484 225.62890649592737 L 859.1484375040163 225.187500031956 L 862.0234373120475 224.37500006397022 L 865.898437632015 225.56250009592623 L 867.26562508801 225.84765644796425 L 870.1171875840519 226.18749951996142 L 870.5234370560502 226.53125017596176 L 870.9609379840549 226.62500044796616 L 874.710937600059 228.6875002879533 L 879.335937024036 228.4375019519357 L 880.1328128000605 228.7304683519178 L 880.562499584048 228.75000012794044 L 881.6718745600083 229.30078105593566 L 882.710937600059 229.6874997759587 L 885.4609377280576 230.6875002879533 L 886.6953123840503 231.34375014394755 L 887.7343754240428 231.71875020791776 L 888.1484369920217 232.10937548795482 L 888.6484377600136 232.37500006397022 L 888.6562498560525 232.58593791996827 L 889.476562944008 233.35546879994217 L 888.7578122240375 235.65625036793062 L 888.7734374400461 236.25000038393773 L 888.6406246400438 238.83593727991683 L 888.8593745920225 241.34375014394755 L 887.5937495040125 241.93359359994065 L 884.2734376960434 244.81249996792758 L 884.6484377600136 248.4999997439445 L 884.7265628160094 248.71874969592318 L 885.7890621440602 250.66406297596404 L 885.9296870400431 252.10156236792682 L 885.9609374720603 252.18749951996142 L 888.7734374400461 255.06250035192352 L 895.8359377920278 256.4999997439445 L 900.2109378560563 259.3749995519174 L 903.898437632015 266.93749964796007 L 903.9062497280538 267.3203128319583 L 904.3203123200219 268.17187532794196 L 904.0624998400453 272.7812495359685 L 904.0859371520346 273.5000002559391 L 909.2109373440617 273.31250073591946 L 912.7265628160094 274.7890626559383 L 919.476562944008 277.4921871359693 L 919.4296872960404 277.61328127991874 L 918.5234370560502 280.6875002879533 L 919.648437248019 284.56249958393164 L 920.5859379200265 288.6875002879533 L 920.8984371200204 293.187500031956 L 920.710937600059 297.0625003519235 L 921.8359377920278 300.93749964796007 L 922.9609379840549 304.8749998079729 L 923.898437632015 308.4999997439445 L 926.6484377600136 311.3749995519174 L 930.0234373120475 312.43749990395736 L 936.5859379200265 314.8749998079729 L 940.1484369920217 315.8750003199675 L 942.0234373120475 319.3749995519174 L 939.8359377920278 324.1249996799743 L 944.2734376960434 326.3750000639702 L 954.710937600059 328.1874995199614 L 954.5859379200265 335.5625000959262 L 952.8359372800332 342.4999997439445 L 953.898437632015 347.8750003199675 L 954.2578124800348 351.19531212793663 L 956.5703127040179 353.7812500479631 L 958.460937216063 355.81250047992216 L 958.4453120000544 355.8750003199675 L 958.4921876480221 355.92968703992665 L 958.3125002240413 356.30078156793024 L 957.5859374080319 358.6875002879533 L 960.2109378560563 362.62500044796616 L 963.3984378880123 365.0625003519235 L 970.460937216063 371.0000005119364 L 970.4921876480221 371.12109363195486 L 970.5703127040179 371.187500031956 L 973.4375004160102 379.48046847997466 L 972.4843745280523 381.07031244796235 L 971.5859374080319 382.8749998079729 L 969.335937024036 387.81250047992216 L 968.6406246400438 388.3554682879476 L 965.8671872000559 390.5390622719424 L 956.8515624960419 391.7695313919685 L 948.4531251200242 395.3554687999422 L 944.8593745920225 400.62109388795216 L 944.2734376960434 401.5000002559391 L 942.7031255040201 402.84765593596967 L 934.0937502720626 410.33984409592813 L 944.460937216063 414.1874995199614 L 953.2734371840488 419.12500019196887 L 959.2109373440617 423.43750041595194 L 955.0859376640292 430.8124999679276 L 962.2734376960434 434.25000038393773 L 970.7734374400461 438.1874995199614 L 979.5859374080319 441.8750003199675 L 983.4609377280576 443.5000002559391 L 986.460937216063 446.3750000639702 L 987.2734371840488 449.6249999359716 L 987.1171870720573 449.71093708794797 L 977.335937024036 455.25781299197115 L 977.2421877760207 455.78906214394374 L 976.2109378560563 462.1249996799743 L 977.5234375680448 467.0625003519235 L 983.4609377280576 469.93750015995465 L 990.6484377600136 473.9999999999418 L 995.4609387520468 474.43749580794247 L 1000.3750000640284 475.187500031956 L 1000.6796871680417 475.2304691199679 L 1000.7734374400461 475.24999987194315 L 1002.4374999040156 477.97656268795254 L 1003.0390620160615 478.9140623359708 L 1006.2109378560563 481.7812500479631 L 1007.968749568041 482.3085936639691 L 1012.6484377600136 483.6249999359716 L 1015.7109370880062 484.9960939519224 L 1016.8593745920225 485.46484326396603 L 1016.9843752960442 485.9999999999418 L 1017.7734379520407 488.75000012794044 L 1018.390625280037 492.2148433919647 L 1018.3984373760177 492.25000038393773 L 1012.7734374400461 494.31250022392487 L 1008.1484369920217 496.56249958393164 L 1008.9609379840549 502.25000038393773 L 1008.8281251840526 502.4999997439445 L 1009.0781245440594 504.61328076792415 L 1005.6328120320104 508.3554682879476 L 1005.5859374080319 508.43749990395736 L 1005.3828126720618 508.5859379199683 L 998.9374996480183 513.4218751999433 L 997.445312512049 515.4335938559379 L 996.7734374400461 516.3750000639702 L 997.3515622400446 517.8398433279363 L 997.9140628480236 518.7460935679264 L 998.0312504320173 519.5429683199618 L 998.0859371520346 519.6874997759587 L 1000.2734376960434 523.3749995519174 L 1001.898437632015 525.8125004799222 L 1004.7734374400461 529.3124997119303 L 1008.1484369920217 531.9375001599547 L 1008.2343751680455 532.019530751917 L 1008.6640629760223 532.2617190399324 L 1009.4609377280576 533.2265625599539 L 1011.335937024036 535.0625003519235 L 1014.8984371200204 538.7500001279404 L 1015.1562496000552 539.2617185279378 L 1016.7578122240375 540.8632811519201 L 1016.2421872640261 543.4257817599573 L 1015.0312499200227 546.5468753919704 L 1015.8359377920278 549.8125004799222 L 1016.3281254400499 552.1445314559387 L 1017.3671874560532 556.1210941439494 L 1019.0078126080334 560.0117186559364 L 1021.7734379520407 563.085937663971 L 1024.0 564.1326547401186" fill="none"/><path stroke="#000000" stroke-width="2" d="M 1024.0 564.1326547400822 L 1021.7734379520407 563.085937663971 L 1019.0078126080334 560.01171865582 L 1017.3671874561114 556.1210941438912 L 1016.3281254400499 552.1445314558805 L 1015.835937792086 549.8125004799222 L 1015.0312499200809 546.5468753919704 L 1016.2421872640261 543.4257817598991 L 1016.7578122240375 540.8632811518037 L 1015.1562496000552 539.2617185278796 L 1014.8984371200204 538.750000127824 L 1011.3359370240942 535.0625003518071 L 1009.4609377281158 533.2265625599539 L 1008.6640629760223 532.2617190399906 L 1008.2343751680455 532.019530751917 L 1008.1484369920217 531.9375001598964 L 1004.7734374401043 529.3124997119885 L 1001.898437632015 525.8125004799804 L 1000.2734376961016 523.374999551801 L 998.0859371520928 519.6874997759587 L 998.0312504320173 519.54296832002 L 997.9140628480818 518.7460935679264 L 997.3515622401028 517.839843327878 L 996.7734374401043 516.375000063912 L 997.4453125121072 515.4335938558797 L 998.9374996480765 513.4218751999433 L 1005.38281267212 508.58593791991007 L 1005.5859374080901 508.43749990389915 L 1005.6328120320686 508.3554682879476 L 1009.0781245441176 504.61328076786594 L 1008.8281251840526 502.4999997439445 L 1008.9609379840549 502.2500003838213 L 1008.1484369920217 496.56249958398985 L 1012.7734374400461 494.31250022380846 L 1018.3984373760177 492.25000038393773 L 1018.3906252800953 492.21484339184826 L 1017.7734379520407 488.750000127824 L 1016.9843752960442 485.9999999999418 L 1016.8593745920807 485.4648432639078 L 1015.7109370880062 484.9960939519224 L 1012.6484377600136 483.62499993591337 L 1007.9687495680992 482.30859366385266 L 1006.2109378560563 481.7812500478467 L 1003.0390620161197 478.9140623358544 L 1002.4374999040738 477.9765626878361 L 1000.7734374401043 475.24999987188494 L 1000.6796871680417 475.2304691200261 L 1000.3750000640284 475.1875000318978 L 995.460938752105 474.43749580788426 L 990.6484377600718 473.9999999998836 L 983.4609377281158 469.93750016001286 L 977.5234375680448 467.0625003519235 L 976.2109378560563 462.1249996799743 L 977.2421877760789 455.78906214388553 L 977.3359370240942 455.25781299191294 L 987.1171870721155 449.71093708783155 L 987.2734371840488 449.62499993591337 L 986.4609372161212 446.3750000640284 L 983.4609377281158 443.5000002559391 L 979.5859374080901 441.8750003199093 L 970.7734374400461 438.1874995199614 L 962.2734376961016 434.25000038393773 L 955.0859376640292 430.81249996786937 L 959.2109373440617 423.43750041589374 L 953.273437184107 419.12500019196887 L 944.4609372161212 414.1874995199614 L 934.0937502720626 410.33984409592813 L 942.7031255040201 402.84765593596967 L 944.2734376960434 401.5000002559391 L 944.8593745920807 400.62109388789395 L 948.4531251200242 395.35546879988397 L 956.8515624960419 391.76953139185207 L 965.8671872001141 390.5390622718842 L 968.6406246400438 388.3554682878312 L 969.3359370240942 387.81250047986396 L 971.5859374080901 382.8749998078565 L 972.4843745281105 381.07031244790414 L 973.4375004160102 379.48046847985825 L 970.5703127040761 371.1875000318396 L 970.4921876480803 371.12109363195486 L 970.4609372161212 371.00000051187817 L 963.3984378880123 365.0625003519235 L 960.2109378560563 362.62500044784974 L 957.5859374080319 358.6875002879533 L 958.3125002240413 356.30078156781383 L 958.4921876480803 355.92968703992665 L 958.4453120001126 355.8750003198511 L 958.460937216063 355.81250047986396 L 956.5703127040761 353.7812500479631 L 954.257812480093 351.19531212793663 L 953.8984376320732 347.8750003199093 L 952.8359372800332 342.4999997438863 L 954.5859379200265 335.56250009598443 L 954.7109376001172 328.1874995199032 L 944.2734376960434 326.375000063912 L 939.835937792086 324.12499967985786 L 942.0234373120475 319.3749995519174 L 940.14843699208 315.8750003199093 L 936.5859379200847 314.8749998078565 L 930.0234373120475 312.43749990395736 L 926.6484377600136 311.3749995519174 L 923.8984376320732 308.4999997438863 L 922.9609379840549 304.8749998079729 L 921.8359377920278 300.93749964790186 L 920.710937600059 297.0625003518653 L 920.8984371200204 293.187500031956 L 920.5859379200265 288.6875002878369 L 919.648437248019 284.56249958387343 L 918.5234370560502 280.6875002878951 L 919.4296872960404 277.61328127991874 L 919.476562944008 277.4921871358529 L 912.7265628160094 274.7890626559383 L 909.2109373440617 273.31250073591946 L 904.0859371520346 273.5000002558809 L 904.0624998401036 272.7812495359685 L 904.3203123200801 268.17187532788375 L 903.906249728112 267.3203128320165 L 903.8984376320732 266.93749964790186 L 900.2109378561145 259.3749995518592 L 895.8359377920278 256.4999997438281 L 888.7734374401043 255.0625003518653 L 885.9609374721185 252.1874995199032 L 885.9296870401013 252.1015623678104 L 885.7890621441184 250.66406297602225 L 884.7265628160676 248.71874969586497 L 884.6484377600136 248.49999974382808 L 884.2734376961016 244.8124999679858 L 887.5937495040707 241.93359359988244 L 888.8593745920225 241.34375014388934 L 888.640624640102 238.83593727997504 L 888.7734374401043 236.25000038382132 L 888.7578122240957 235.6562503678142 L 889.4765629440662 233.35546880000038 L 888.6562498560525 232.58593791985186 L 888.6484377600136 232.375000063912 L 888.1484369920217 232.1093754878384 L 887.7343754240428 231.71875020785956 L 886.6953123840503 231.34375014388934 L 885.4609377280576 230.6875002878951 L 882.710937600059 229.6874997759587 L 881.6718745600665 229.30078105593566 L 880.5624995841063 228.75000012782402 L 880.1328128001187 228.7304683518596 L 879.335937024036 228.4375019519939 L 874.710937600059 228.68750028783688 L 870.9609379841131 226.62500044796616 L 870.5234370561084 226.53125017596176 L 870.1171875840519 226.1874995199032 L 867.2656250880682 225.84765644796425 L 865.8984376320732 225.56250009592623 L 862.0234373120475 224.375000063912 L 859.1484375040163 225.1875000318978 L 856.9062502401066 225.62890649598558 L 853.1562496000552 224.25781247991836 L 850.7734374401043 222.93749964784365 L 847.3984378880705 220.43749990395736 L 840.8359372800332 217.81250047980575 L 837.523437568103 213.12500019185245 L 836.5781248000567 212.07421849586535 L 836.2265620480175 211.5468748798594 L 835.8671872001141 211.28515583992703 L 834.7109376001172 209.9999999999418 L 831.8984376320732 206.93749964784365 L 830.1562501120497 205.75781273591565 L 829.6718745600083 205.30078105593566 L 828.3437496320694 204.53125017584534 L 825.898437632015 202.87499980797293 L 821.898437632015 202.25000038382132 L 818.3984373760177 201.43750041595194 L 815.2109373441199 199.99999999988358 L 812.7734374400461 197.74999961582944 L 812.3125002240413 197.4921871359693 L 810.2187499520369 195.98046924790833 L 809.2187504640897 195.74999961594585 L 808.7734374401043 195.50000025582267 L 804.460937216063 194.6875002880115 L 801.2109455360915 193.81250355188968 L 797.5781253121095 194.04687667184044 L 797.2890624001157 194.03906252782326 L 793.7109370880062 192.43749990389915 L 790.5234370561084 191.1875000318978 L 788.1640622080886 190.71484415989835 L 786.4531251200242 190.24609382386552 L 786.0000000000582 190.28515635192161 L 785.5234375680448 190.187499519845 L 781.0625003520981 190.187499519845 L 779.9375001600711 190.08203161583515 L 778.382812160009 188.20703129592584 L 777.7578127360903 187.17578137590317 L 777.0546872320119 186.6054686718271 L 776.0859371520928 185.43750041601015 L 771.3984471040312 181.3750077438308 L 765.9609374720603 182.375000063912 L 763.7499996161205 183.67968767986167 L 763.6015626240987 183.75781273597386 L 763.0625003520981 184.02343731187284 L 761.6093747200794 184.28515635197982 L 759.9375001600711 184.4101560319541 L 758.281249792024 185.46874982392183 L 756.9609379841131 186.25000038382132 L 754.2109378561145 187.50000025582267 L 750.5234370560502 188.93749964801827 L 747.648437248019 189.75000166380778 L 744.4609372161212 189.93750015989644 L 743.7578127360321 190.1445314558223 L 743.6406251520966 190.191406079859 L 740.3984373760177 191.1875000318978 L 738.1171875841101 192.3281254398753 L 737.4140620800317 192.60156211192952 L 736.9296875520376 192.9218754558824 L 736.2734376960434 193.24999987194315 L 733.7656248320127 195.03515647986205 L 733.374999552092 195.28906239982462 L 732.4921876480803 195.87890585581772 L 728.9296875520959 197.25390643189894 L 728.8281251840526 197.29687449586345 L 726.7734374401043 197.93750015989644 L 725.0625003520399 198.89453158382094 L 724.9062502400484 198.97265663993312 L 724.0937502721208 199.35937535983976 L 721.1250001920271 200.69140582391992 L 721.0468751360313 200.7382814718876 L 720.9687500800355 200.7812495358521 L 720.8984371200204 200.81249996792758 L 717.6484372480772 202.43749990395736 L 716.5859379200265 204.00390655983938 L 715.2890624001157 205.71093708794797 L 712.8359372800332 206.01562521595042 L 712.6171873280546 206.0976558078546 L 712.3984373760759 206.1249996800325 L 708.5234370560502 207.56250009586802 L 704.8360202240874 208.37499187188223 L 700.5234370560502 209.00000051193638 L 696.9609379840549 210.43749990395736 L 694.2734376960434 212.25000038382132 L 691.0859376640874 214.08984371181577 L 690.9765621760162 214.1367183358525 L 689.8984376320732 214.61718732799636 L 689.1484375040163 215.13281228789128 L 687.6484372480772 215.93750015989644 L 681.7734389760881 218.18750566389645 L 673.5859374080319 219.43750041583553 L 670.0234373120475 217.00000051193638 L 666.0234373120475 214.49999974382808 L 662.0234373120475 212.87499980797293 L 663.6328120320686 208.2265620479011 L 663.7812500480795 208.16796876798617 L 669.4140620800899 205.19531212782022 L 668.9687500800937 203.46484326390782 L 669.2109373441199 203.24999987194315 L 667.7734379520407 200.62500044796616 L 664.5859379200847 195.0625003518071 L 663.1484375040163 191.56250009592623 L 661.023437824042 187.6874997759587 L 659.1484375040163 184.1874995199032 L 655.898437632015 182.56249958387343 L 652.8359372800332 181.374999551801 L 649.5234375680448 180.12499967997428 L 646.7734374401043 178.06249983992893 L 642.7734374401043 175.1875000318978 L 638.7734374401043 172.56249958381522 L 637.7734379520407 169.50000025582267 L 634.5859379200265 167.43750041595194 L 631.6484382720082 166.62499635195127 L 627.3360220160102 166.1875036158599 L 623.6484382720082 166.1875036158599 L 619.835937792086 166.62500044796616 L 616.1484380160109 165.37499340780778 L 612.8984381440678 164.93749247991946 L 609.8359377920278 164.3750000638538 L 605.7109370880644 163.31249971181387 L 604.7343749120482 163.31249971181387 L 604.3828121600673 163.21484390401747 L 603.4375004160684 163.31249971181387 L 602.14843699208 163.31249971181387 L 601.5312496640254 163.4687498238054 L 600.6015621120459 163.51953100791434 L 598.6953123840503 164.17968742380617 L 598.6328125440632 164.20312473591184 L 597.2109373440617 164.56249958381522 L 593.1484375040163 165.37499955185922 L 591.1484375040745 160.6875002879533 L 589.4609377280576 156.75000012788223 L 587.5859374080901 153.50000025582267 L 585.9609374721185 150.81249996792758 L 585.4687498240382 150.52734361588955 L 585.2421908480464 150.10547814390156 L 581.8515630080947 148.16015667194733 L 580.3906252800953 148.18749952001963 L 576.5234370560502 148.18749952001963 L 573.648437248019 147.12500019185245 L 570.5859379200265 142.87499980791472 L 570.3593748480198 142.76562534389086 L 569.7812500480213 141.9140628479654 L 566.5937500160071 140.9492183038965 L 565.3984378880705 140.3750000638538 L 561.8984376320732 139.74999961582944 L 557.8984376320732 136.06249983992893 L 557.3984378880123 132.375000063912 L 556.9843752960442 131.5156254718313 L 556.8749998080893 130.95703142380808 L 555.6484372480772 127.78125004796311 L 554.5468753920868 126.49999974388629 L 554.0234373120475 125.43750041595194 L 551.6484372480772 122.18749951996142 L 551.335937024036 116.81249996792758 L 548.5859379200847 113.56250009586802 L 547.7187502080924 113.05078169581247 L 546.7421870080288 112.21874995180406 L 545.9921879040194 112.03125043184264 L 545.8359377920278 111.93750016001286 L 539.648437248019 109.43750041595194 L 537.0234378241003 105.74999961582944 L 537.8359377920278 99.43750041595194 L 538.2265620480757 97.2734371839324 L 539.164062720025 94.70703103987034 L 540.6953123840503 92.45312511984957 L 538.4453120000544 91.42968729580753 L 538.2265620480757 91.32421836792491 L 536.0859371520928 89.81250047992216 L 532.8359372800332 86.4999997439445 L 529.523437568103 82.81249996786937 L 528.6718750721193 82.57812479994027 L 528.3046871040133 82.21484339202289 L 526.0000000000582 81.84374988783384 L 525.2109373440617 81.62499993585516 L 522.7734374401043 79.99999999982538 L 521.0234378241003 75.06250035192352 L 520.3359375360887 71.99999999982538 L 517.4765629440662 69.58984396798769 L 516.8906250240398 67.64062515186379 L 516.3984373760759 64.43749990384094 L 515.0859376640292 59.31249971187208 L 515.273437184107 55.99999999982538 L 518.8984371200786 53.125000191968866 L 524.710937600059 54.37500006402843 L 526.3828121600673 54.09375027182978 L 527.3906247680425 54.05468774394831 L 527.656250368047 53.8750003198511 L 528.3984373760177 53.74999961594585 L 532.5234370561084 51.500000255939085 L 536.710937600059 52.312500223808456 L 540.5859379200847 53.374999551917426 L 544.3984373760177 53.374999551917426 L 544.9765621760162 53.26171852782136 L 547.1406254080939 53.335937023861334 L 548.0468746240367 52.66406297584763 L 548.8984371200204 52.4999997439445 L 552.9609379841131 49.24999987188494 L 556.7734374400461 49.06250239990186 L 560.3359375360305 49.06250035192352 L 564.2734376960434 47.43750041589374 L 565.624999936088 46.27734425582457 L 565.7890621441184 46.17187532794196 L 565.8515630080947 46.082031615951564 L 567.3984378880123 44.750000127998646 L 569.101562880096 41.70703155186493 L 569.3671874560532 41.35546879994217 L 569.3437501441222 41.26953164784936 L 569.4609377280576 41.06250035192352 L 568.2109378560563 37.81250047986396 L 566.3984373760759 33.500000255939085 L 565.1484375040163 29.56250009580981 L 568.5234370560502 26.93749964790186 L 568.3359375360305 23.624999935855158 L 567.3984378880123 18.75000012794044 L 566.5859379200265 14.874999807856511 L 568.0390625281143 8.078125055821147 L 567.6328120320686 4.082031615951564 L 566.9140623360872 1.2148439039010555 L 568.3185901032994 0.0" fill="none"/></svg>