<svg xmlns="http://www.w3.org/2000/svg" width="1024" height="1024"><rect stroke="none" x="0" y="0" width="1024" height="1024" fill="white"/><path stroke="#000000" stroke-width="2" d="M 906.9894442952209 0.0 L 906.9752320000553 0.008191999921109527 L 906.5703127040179 0.46093721594661474 L 906.5461760000326 0.49049599992576987 L 905.5242240000516 0.928767999925185 L 904.005632000044 1.0465279999189079 L 903.0473943040124 1.3045483519672416 L 901.5625000960426 1.2812503039604053 L 897.7674240000197 0.5345279999310151 L 895.898437632015 0.5468753919703886 L 895.8501324800309 0.5622446079505607 L 893.7390080000623 1.1673599999630824 L 892.0546877440647 1.9375001599546522 L 890.8984371200204 2.3359375359723344 L 889.546874880034 2.2656245759571902 L 888.952832000039 2.3828479999210685 L 887.6656640000292 3.107839999953285 L 887.1406254080357 3.1992186879506335 L 886.7246807040647 3.1156223999569193 L 886.3457280000439 3.037183999957051 L 884.2656245760154 2.3320309759583324 L 882.1249996800325 1.769531391968485 L 879.2535040000221 1.2543999999179505 L 878.2968750080327 0.9257809919654392 L 878.0462080000434 0.7096319999545813 L 877.2421877760207 0.007812095922417939 L 875.3281249280553 0.007812095922417939 L 875.3025084963156 0.0" fill="none"/><path stroke="#000000" stroke-width="2" d="M 529.9476480000303 1024.0 L 529.9476480000303 1023.9959039999521 L 529.0703124480206 1022.7929692159523 L 528.4531251200242 1022.0664063999429 L 528.289062912052 1021.7851566079189 L 527.1875000320142 1020.453125119966 L 522.3147520000348 1014.5290239999304 L 521.3749995520338 1013.4062499839347 L 521.1796879360336 1013.1015628799214 L 518.4843745280523 1010.1523435519193 L 514.5507840000209 1006.3841279999469 L 513.6414720000466 1005.4481919999234 L 512.2375680000405 1003.5292159999372 L 511.9140628480236 1003.4453125119326 L 511.5074560000212 1003.1554559999495 L 510.22028800001135 1001.562111999956 L 509.7343754240428 1000.8359372799168 L 508.79687475203536 999.6874997759587 L 508.34374963201117 999.0312499199645 L 508.08357990405057 998.7137535999645 L 507.8865920000244 998.4696319999639 L 507.6275200000382 997.8839039999293 L 507.46874982403824 997.6484372479608 L 507.45036288001575 997.5620167679735 L 507.43296000006376 997.4630399999442 L 507.36571596801514 997.4141992959194 L 507.33593702403596 997.390624767926 L 507.33670400001574 997.3217279999517 L 507.20665600005304 997.1578879999579 L 507.1093760000658 996.9008639999665 L 506.9793280000449 996.7595519999741 L 506.68851200002246 996.2915839999332 L 506.68851200002246 996.1973759999382 L 506.4611840000143 995.9403519999469 L 506.1718753280584 995.3789061119314 L 505.0390620160615 993.714843647962 L 504.4848640000564 992.684031999961 L 504.0957440000493 992.2385919999215 L 502.9609379840549 990.4570316799218 L 502.2187499520369 988.8164065279416 L 501.07503718405496 986.5068922879291 L 500.40115200006403 985.1412479999708 L 500.13357670401456 984.6681712639402 L 499.8203125760192 984.1093754879548 L 499.688448000059 983.665663999971 L 499.23481600004015 982.8229119999451 L 499.2030720000621 982.5187839999562 L 499.10937497601844 982.4960962559562 L 499.0879006720497 982.3414814719581 L 499.0730240000412 982.21363199997 L 498.75000012805685 981.4414059519186 L 498.13401600002544 979.145727999974 L 497.8750003200257 978.3945308159455 L 497.5859374080319 977.4101565439487 L 497.46620723203523 977.0525429759291 L 497.2922880000551 976.522239999962 L 497.26054400001885 976.2181119999732 L 497.0546001920593 975.4736383999698 L 496.9062502400484 974.9296875519212 L 496.86577152000973 974.443948031927 L 496.80793600005563 973.7123839999549 L 496.72328089602524 973.3201858559623 L 496.6484377600136 972.9609379839385 L 496.52343705605017 966.7109375999426 L 496.57944576005684 966.3223787519382 L 496.65126400004374 965.8439679999719 L 496.586752000032 965.6565759999212 L 496.1328128000605 965.3515622399282 L 496.13312000001315 965.0237439999473 L 496.4921876480221 964.718748671934 L 496.94515200005844 964.4861439999659 L 497.2421877760207 963.9492188159493 L 497.35118438402424 963.605878783972 L 497.4008320000139 963.4559999999474 L 498.3125002240413 961.3242183679249 L 498.7668480000575 960.435199999949 L 501.43334400001913 956.4794879999245 L 503.02566400001524 954.4898559999419 L 506.21093785605626 950.8398438399308 L 510.24218726402614 947.6328120319522 L 511.53889894403983 946.5782579199295 L 512.2734376960434 946.5312501759618 L 513.2890624000574 945.8046873599524 L 514.1964800000424 945.1018239999539 L 514.3281254400499 945.078124543943 L 518.4163840000401 942.1260799999582 L 518.8382720000227 941.961215999967 L 519.7148160000215 941.3754879999324 L 521.5334400000283 940.4149759999709 L 521.9553280000109 940.1333759999252 L 522.1171200000099 940.0637439999264 L 522.2187499520369 939.9453122559353 L 522.4099840000272 939.8292479999363 L 522.6406246400438 939.640625151922 L 523.6756480000331 938.9619199999725 L 529.3926400000346 936.0322559999186 L 531.048448000045 935.2355839999509 L 532.1562501120497 934.6015621119295 L 533.6791040000389 933.8767359999474 L 539.1328122880659 930.8554690559395 L 542.3203123200219 929.1445309439441 L 544.3000320000574 928.2529279999435 L 545.7285120000597 927.4562559999176 L 547.9372800000128 926.074879999971 L 550.6334720000159 924.7160319999675 L 552.5836001280113 923.5443711999687 L 553.8181120000663 922.958847999922 L 555.1175680000451 922.1621759999543 L 556.119985152036 921.4941644799546 L 557.6874997760169 920.453125119966 L 561.0629120000522 918.4143359999289 L 562.3984373760177 917.7343754239264 L 564.8640000000596 916.4707839999464 L 566.390625280037 915.4882815999445 L 568.2442240000237 914.1524479999207 L 569.2190720000654 913.355775999953 L 569.868288000056 912.7239679999184 L 570.421248000057 912.2549759999383 L 571.4609377280576 911.6249999359716 L 572.3709440000239 910.9442559999297 L 573.4140620800317 910.0546877439483 L 574.8749998080311 908.6484377599554 L 576.2058240000624 907.6418559999438 L 577.9921879040194 906.2148433919647 L 580.1717790720286 904.4336670719204 L 581.3124997120467 903.4492190719466 L 582.3203123200219 902.6093752319575 L 583.8125004800386 901.3437501439475 L 584.0078120960388 901.1093749759602 L 584.3322880000342 900.7339519999223 L 584.7578122240375 900.4999997439445 L 584.7890626560547 900.2656245759572 L 585.0808320000651 899.938303999952 L 585.6327680000104 899.0955519999261 L 585.8928640000522 898.8610559999361 L 586.0547911680187 898.6288578559179 L 586.1562501120497 898.5820313599543 L 586.4140625920263 898.277344255941 L 587.2916480000131 897.3393919999362 L 587.4531246080296 897.1289067519247 L 587.5859374080319 897.0351564799203 L 588.3671879680478 896.3398440959281 L 588.4453048320138 895.9961251839413 L 590.3828121600673 893.5429683199618 L 590.8359372800332 893.1445309439441 L 592.7854080000543 891.4124799999408 L 593.8593751040171 889.9375001599547 L 594.1514240000397 889.8437119999435 L 594.1671802880592 889.7087959039491 L 594.1874995200196 889.5625000959262 L 594.4770560000325 889.1883519999683 L 594.7371520000161 888.8831999999238 L 594.898944000015 888.7429119999288 L 595.0312499200227 888.4609372159466 L 595.8750003200257 887.4335938559379 L 595.9403520000633 887.2447999999276 L 596.5578240000177 886.3549439999624 L 596.9162240000442 886.0508159999736 L 597.6637440000195 885.5121919999365 L 597.9566080000368 885.1845119999489 L 598.9999994880636 883.8945310719428 L 599.164062720025 883.5000002559391 L 599.6171878400492 882.9140623359708 L 599.9083520000568 882.6091519999318 L 599.9765626880107 882.4687503359746 L 600.4296878080349 882.0468746239203 L 600.8203120640246 881.437500415952 L 601.2426240000641 881.0403839999344 L 601.2753920000396 880.8765439999406 L 601.343750144064 880.8281251839362 L 601.4059079680592 880.6649610239547 L 602.3515627520392 879.3789061119314 L 602.4322897920501 879.1851622399408 L 602.5113600000623 879.0036479999544 L 602.641408000025 878.8162559999619 L 602.641408000025 878.7220479999669 L 602.9998080000514 878.1373439999297 L 603.0970880000386 878.0902399999322 L 603.7812500480213 877.1289067519247 L 603.7812500480213 877.0352158719325 L 604.109375488013 876.66015641595 L 604.1406248960411 876.5195315199671 L 604.3984373760177 876.1484369919635 L 604.53125017602 875.8437498879503 L 604.9238046720275 875.3354956799303 L 605.2771840000642 874.8820479999413 L 605.472768000036 874.6956799999462 L 606.4158720000414 873.3839359999401 L 607.5234375680448 872.167968767928 L 608.0468746240367 871.4179686399293 L 608.1413120000507 871.2304639999638 L 610.812499968044 867.5781253119349 L 611.4296872960404 866.664062975964 L 611.4296872960404 866.5705390079529 L 611.5584000000381 866.500607999973 L 611.5786516480148 866.3993518079515 L 611.5937495040125 866.3359375359723 L 612.2421872640261 865.4023434239207 L 612.2752000000328 865.2605439999606 L 612.5025280000409 865.0260479999706 L 612.5141821440193 864.9677783039515 L 612.5390622720588 864.8632811519201 L 612.6015621120459 864.8632811519201 L 612.8936960000428 864.3471359999385 L 613.7421875200234 863.3867192319594 L 613.9802337280125 863.0185789439711 L 614.9765621760162 861.4921871359693 L 615.0781245440594 861.4921871359693 L 615.335937024036 860.976562175958 L 615.4687498240382 860.8359372799168 L 615.5459420160623 860.6188328959397 L 615.5960320000304 860.4846079999697 L 615.790592000063 860.3207679999177 L 615.813142528059 860.1999083519331 L 615.8593751040171 859.9687495679245 L 616.1171875840519 859.640625151922 L 616.8359372800332 857.9570309119299 L 617.2890624000574 857.464843263966 L 617.8125004800386 856.7148441599566 L 617.8743879680405 856.5639925759169 L 617.9399680000497 856.4101119999541 L 618.1027840000461 856.269823999959 L 618.2031247360283 855.9648440319579 L 618.234348544036 855.7775052799261 L 618.3671879680478 855.5664066559402 L 618.493952000048 854.9355519999517 L 618.7890626560547 854.4687503359746 L 619.2109373440617 854.023437311931 L 619.2762880000519 853.8122239999357 L 619.3749995520338 853.6484372479608 L 619.4391040000482 853.4609919999493 L 619.6019200000446 853.250047999958 L 619.6346880000201 853.1558399999631 L 620.0248320000246 852.5711359999259 L 620.2531840000302 852.1963519999408 L 620.3203123200219 852.171875327942 L 620.3203123200219 852.0781250559376 L 620.710937600059 851.4687498239218 L 621.3281249280553 850.2539059199626 L 621.392896000063 849.9722239999683 L 621.4609377280576 849.92578150396 L 621.7367203840404 849.2051875839243 L 621.9468800000614 848.6615039999597 L 621.9796480000368 848.4976639999659 L 622.0779520000215 848.4505599999684 L 622.1424640000332 848.1699839999201 L 622.4374999040156 847.4453125119326 L 622.4689920000383 847.2807659519603 L 622.7292160000652 846.7650559999747 L 622.8281251840526 846.4843745279359 L 622.9921873920248 846.2500003839377 L 623.1562496000552 845.6874997759587 L 623.4142720000236 845.0324479999254 L 623.5115520000109 844.9617919999291 L 623.5780741120107 844.750154751935 L 623.6426240000292 844.7047679999378 L 623.7730088960379 844.3293378559174 L 624.0655360000674 843.7678079999168 L 624.1328128000605 843.6992184319533 L 624.1910026240512 843.5901112319552 L 624.2611200000392 843.463679999928 L 624.3593748480198 843.3242183679249 L 624.4921876480221 842.9960939519224 L 624.586752000032 842.9250559999491 L 624.9779200000339 842.1529599999194 L 625.6640624640277 841.2148439039593 L 625.6640624640277 841.0988851199509 L 625.79687526403 841.0742190079181 L 625.7789050880237 840.9604055039235 L 625.7604556800216 840.8201738239732 L 626.281249792024 840.7929692159523 L 626.8984371200204 838.6445311999414 L 627.015624704014 838.4648437759606 L 627.2921600000118 838.172671999957 L 627.8778880000464 837.3770239999285 L 628.1718753280584 836.8164065279416 L 628.2075688960613 836.6730854399502 L 628.7421870080288 835.8789058559341 L 632.7578122240375 831.7617182719405 L 633.4484480000101 831.1971839999314 L 634.8165120000485 829.9806719999178 L 636.3517388800392 828.4593428479275 L 637.4218752000597 827.4570311679272 L 637.5859374080319 827.3124997119303 L 637.7578127360321 827.1406254079193 L 638.2656245760154 826.664062975964 L 638.8984371200204 826.031250431959 L 639.019008000032 825.9553279999527 L 639.0312499200227 825.8945310719428 L 640.1249996800325 824.804687871947 L 640.3593748480198 824.6679685119307 L 640.873654272058 824.036233215942 L 642.4844544000225 822.3583160319249 L 643.1129600000568 821.7384959999472 L 645.3237760000629 819.3484799999278 L 645.6812380160554 818.9145456639235 L 645.9453122560517 818.5976565759629 L 645.968749568041 818.5664061439456 L 646.1484369920217 818.3671879679314 L 646.7578122240375 817.6171878399327 L 646.8203120640246 817.5468748799176 L 647.7343754240428 816.4414064639714 L 647.7615011840244 816.38715494395 L 647.7920143360388 816.3349698559614 L 647.8906245120452 816.2187499519205 L 648.4296878080349 815.5546879999456 L 648.4296878080349 815.4882815999445 L 649.0312499200227 814.664062975964 L 649.9082240000134 813.7502719999175 L 650.3671879680478 813.3749995519174 L 651.0469120000489 812.6259199999622 L 651.274240000057 812.3914239999722 L 651.5234375680448 812.0742184959236 L 652.4446720000124 810.8922879999736 L 652.9687500800355 810.023437311931 L 653.5178240000387 809.0879999999306 L 654.7537920000614 807.0973439999507 L 655.4857093120227 805.73728767992 L 655.9921879040194 804.800781311933 L 656.7191664640559 803.528809471929 L 657.5768299520132 802.0343326719594 L 657.6171878400492 801.9687495679245 L 658.1025628160569 800.9979996159673 L 658.5569280000636 800.0942079999368 L 658.9798400000436 799.2043519999715 L 659.5000002560555 797.3320314879529 L 660.4765624320135 795.4570311679272 L 660.9623040000442 794.3096319999313 L 662.7194880000316 791.5939839999191 L 663.9226880000206 789.0647039999603 L 664.6154045440489 787.4594529279275 L 665.4218752000597 785.5976560639683 L 665.4843750400469 785.1054684159462 L 665.7105920000467 784.7086079999572 L 665.9706880000303 783.8187519999337 L 666.2968750080327 782.9531248639687 L 666.8203120640246 781.7812500479631 L 667.2421877760207 780.4921876479639 L 667.2908093440346 780.4265482239425 L 667.4022400000249 780.2828799999552 L 668.5078128640307 778.6445311999414 L 668.7048202240258 778.1471487999661 L 669.1256320000393 776.6753279999248 L 669.648437248019 775.4570311679272 L 669.8437498880667 775.082031103957 L 670.0078120960388 774.6171873279382 L 670.0703129600151 774.1249996799743 L 670.2031247360283 773.8671871999395 L 670.4192409600364 772.9739089919603 L 670.5571840000339 772.4134399999748 L 670.5244160000584 772.0386559999315 L 670.3281254400499 771.0546872319537 L 670.0021760000382 770.8211199999205 L 669.7742407680489 770.726894591935 L 669.8393600000418 770.5640959999291 L 670.523392000061 770.189311999944 L 671.3702400000184 769.4868479999714 L 671.6958720000111 769.1345919999294 L 671.8906245120452 768.902343679918 L 671.955968000053 768.4014079999179 L 671.9806371840532 768.3610757119604 L 672.0234373120475 768.2968750079744 L 672.1015582720283 768.1297827839735 L 672.1658880000468 767.997951999947 L 672.6406246400438 767.535156223923 L 672.7656253440655 767.535156223923 L 672.76800000004 767.534079999954 L 672.8982302720542 767.3947504639509 L 672.9635840000119 767.3712639999576 L 673.3209600000409 766.9032959999167 L 673.7812500480213 766.5039063039585 L 675.656250368047 765.4101565439487 L 677.0703124480206 764.5820313599543 L 678.4374999040156 763.7421875199652 L 679.552786432032 762.9520291839726 L 683.7442560000345 759.9933439999586 L 685.2751360000111 758.6344959999551 L 685.6662343680509 758.1354117119336 L 685.9921879040194 757.7226557439426 L 686.9374996480183 756.7148441599566 L 687.656250368047 756.1289062399301 L 688.1740800000262 755.5194879999617 L 688.8593745920225 754.6289059839328 L 688.9226240000571 754.4197119999444 L 689.1571200000471 754.0940799999516 L 691.7898240000359 750.4148479999276 L 691.7898240000359 750.2745599999325 L 691.9218749440624 750.1562501119333 L 691.9218749440624 750.0859371519182 L 692.017152000044 750.0165119999438 L 692.2455040000496 749.3847039999673 L 692.3427840000368 749.3375999999698 L 692.3437496320112 749.3359370239195 L 692.7031255040201 748.5429688319564 L 692.7343749120482 748.3085936639691 L 693.0625003520399 747.535156223923 L 693.1578880000161 747.4872319999267 L 693.4531246080296 746.6210938879522 L 693.6171878400492 746.2929684479604 L 693.710848000017 745.9891199999256 L 693.8125004800386 745.917968383932 L 694.4296878080349 744.7695308799739 L 694.8203120640246 744.2578124799184 L 694.916096000059 743.9984639999457 L 695.2744960000273 743.3431039999705 L 695.5018240000354 742.8044799999334 L 695.6328960000537 742.2894079999533 L 696.3823841280537 740.5791016959702 L 696.4797440000111 740.5557759999647 L 696.4959559680428 740.4402657279279 L 696.5156249600113 740.3242188799195 L 696.7726080000284 739.8768639999325 L 696.7968747520354 739.7812500479631 L 696.8232642560615 739.6413859839668 L 696.8381440000376 739.5727359999437 L 696.9062502400484 739.4804684799747 L 696.9374996480183 739.3632808959228 L 697.0703124480206 739.1992186879506 L 697.1328122880659 738.9648435199633 L 697.196544000064 738.9173759999685 L 697.4921871360275 738.3554682879476 L 697.7187502080342 738.0742184959236 L 697.8828124160646 737.6992184319533 L 698.728448000038 736.1300479999627 L 698.8593745920225 735.9882813439472 L 698.8593745920225 735.8984376319568 L 698.8859709440148 735.8768281599623 L 698.9240320000099 735.8494719999726 L 699.2499998720596 735.0546872319537 L 699.445312512049 734.8437503999448 L 699.445312512049 734.7734374399297 L 699.6736000000383 734.4680959999678 L 699.9009280000464 733.9294719999307 L 700.0000000000582 733.6249999359716 L 700.0637440000428 733.5546879999456 L 700.2275840000366 733.2505599999567 L 700.2890608640155 733.1397079039598 L 700.3593748480198 733.0156247039558 L 700.390625280037 732.9687500799191 L 700.8788480000221 732.3135999999358 L 700.8788480000221 732.0791039999458 L 701.0416640000185 731.9859199999482 L 702.117888000037 730.4171519999509 L 702.1824000000488 730.1591039999621 L 702.3779840000207 730.018815999967 L 702.5746780160116 729.6601098239189 L 702.8046878720634 729.2460933119291 L 702.9002240000409 729.0583039999474 L 702.9329920000164 728.9886719999486 L 703.0958080000128 728.7777279999573 L 703.3241600000183 728.3097599999746 L 703.6213401600253 727.9801989119733 L 703.7499996160623 727.8398433279363 L 703.7187502080342 727.746094079921 L 703.8126080000657 727.7004799999413 L 704.3359375360305 726.7851560959243 L 704.4999997440609 726.554687487951 L 704.7265628160094 726.0624998399289 L 704.7679518720252 725.9590266879532 L 704.8232960000169 725.8275839999551 L 704.9531248640269 725.7812500479631 L 704.9533440000378 725.68729599996 L 705.4140620800317 724.9374996479601 L 705.7039360000635 724.3991039999528 L 706.390625280037 723.437500415952 L 706.390625280037 723.3437501439475 L 706.5190400000429 723.1815679999418 L 706.5190400000429 723.0873599999468 L 706.5859379200265 723.0625003519235 L 706.914062336029 722.3398440959281 L 707.0402560000657 722.2917119999183 L 707.0402560000657 722.1514239999233 L 708.3448320000316 720.2314239999396 L 709.2890624000574 718.9921873919666 L 709.4853580800118 718.5689006079338 L 710.9531248640269 716.4609372159466 L 711.2499998720596 716.1093754879548 L 711.7304135680315 715.4557900799555 L 712.9098240000312 713.8621439999552 L 712.9098240000312 713.7454079999588 L 714.5400320000481 711.3103359999368 L 715.0950400000438 710.4675839999691 L 716.53125017602 708.4062504959293 L 716.9863680000417 707.8676479999558 L 717.1502080000355 707.5399679999682 L 717.2812503040186 707.539062783937 L 717.7041920000338 706.9081599999336 L 717.9325440000393 706.6736639999435 L 718.0067737600184 706.5471754239406 L 718.0624998400453 706.4570316799218 L 718.0957593600615 706.3941765119671 L 718.2265620480175 706.3710935039562 L 718.3593748480198 706.1132810239214 L 719.2734371840488 704.9414062079741 L 719.6328120320104 704.378906623926 L 719.6948469760246 704.2160660479567 L 720.8046878720634 703.0234378239256 L 721.0312499200227 702.8124999679276 L 721.26562508801 702.5234370559338 L 722.1630945280194 701.3863290879526 L 722.7607040000148 700.6330879999441 L 722.9562880000449 700.3054079999565 L 723.8243461120292 699.4074890239281 L 724.6562498560525 698.550780927937 L 725.2280340480502 697.7898352639168 L 725.6975360000506 697.1688959999592 L 726.5156249600113 696.3242188799195 L 727.0703124480206 695.6015626239241 L 727.5243520000367 694.7809279999346 L 729.1893760000239 693.0943999999436 L 729.3194240000448 692.9080319999484 L 729.7761280000559 692.5567999999621 L 729.9717120000278 692.3223039999721 L 734.5397760000196 687.3835519999266 L 737.8688000000548 684.410879999923 L 738.9453127680463 683.4296872959239 L 739.3382400000119 683.0059519999195 L 739.6328120320104 682.7031255039619 L 740.9704960000236 681.156607999932 L 741.0703124480206 681.1093749759602 L 741.8828124160646 680.0585932799731 L 742.2109378560563 679.7304688639706 L 742.7983360000653 678.9335039999569 L 744.5937500160653 676.7109375999426 L 744.7265628160094 676.6875002879533 L 744.8976015360095 676.368535551941 L 745.0183680000482 676.1471999999485 L 745.1171870720573 676.1015623679268 L 745.4765629440662 675.4218751999433 L 747.5660800000187 672.331775999919 L 747.6328120320104 672.1210941439494 L 747.9609374720603 671.7226557439426 L 747.9609374720603 671.6523438079748 L 748.8437504000613 670.3867187199648 L 749.1018465280649 669.8746357759228 L 749.26562508801 669.6640624639695 L 749.26562508801 669.5937495039543 L 749.3984378880123 669.4765629439498 L 749.4296872960404 669.3593753599562 L 749.5625000960426 669.1484375039581 L 749.6117493760539 669.0228520959499 L 749.6997017600224 668.8133416959317 L 749.7578127360321 668.6796871679253 L 749.7998540800181 668.616624127957 L 749.8864640000393 668.492799999949 L 750.3125002240413 667.5781253119349 L 750.3125002240413 667.2734371839324 L 750.5078128640307 666.7851560959243 L 750.540800000017 666.4325119999703 L 750.6718750720611 666.0351559679257 L 750.7734374400461 665.5429683199618 L 750.8359372800332 665.4960936959251 L 750.8359372800332 665.3320314879529 L 750.9687500800355 665.0742190079181 L 751.2279040000285 664.161279999942 L 751.5234375680448 662.5468753919704 L 752.179687424039 660.2500003839377 L 752.2119680000469 657.8155519999564 L 752.1171875840519 657.535156223923 L 752.0743137280224 657.0921267199446 L 752.0491520000505 656.8089599999366 L 752.0821309440653 656.644065279921 L 752.1171875840519 656.4804689919692 L 752.281249792024 656.4101560319541 L 752.4765624320135 656.1992191999452 L 752.4765624320135 656.0351559679257 L 752.7024640000309 655.8259199999738 L 752.8990720000584 655.4511359999306 L 753.1274240000639 655.3108479999355 L 753.0629120000522 654.5612799999653 L 753.096610816021 654.4479713279288 L 753.164062720025 654.2343751679291 L 753.2265625600121 654.1874995199614 L 753.226752000046 654.0700856319745 L 753.4223360000178 653.8362879999331 L 753.4223360000178 653.7656319999369 L 753.7499996160623 653.2734371839324 L 753.7499996160623 653.1796879359172 L 753.8472960000508 653.086719999963 L 753.8668902400532 652.9887467519729 L 753.8828124160646 652.9218754559406 L 753.978368000011 652.8757759999717 L 753.978368000011 652.7825919999741 L 754.0143636480207 652.7308482559747 L 754.0468746240367 652.6875002879533 L 754.4062504960457 651.8906245119288 L 754.8281251840526 651.1210936319549 L 755.2890624000574 649.8320312319556 L 755.4218752000597 649.011719167931 L 755.548160000064 648.6620159999584 L 755.7120000000577 647.8653439999325 L 756.1052160000545 646.5075199999264 L 756.237312000012 645.5244799999637 L 756.4579553280491 644.4603340799222 L 756.6328125440632 643.6289064959274 L 757.1875000320142 639.9999999999418 L 757.3203128320165 639.3085941759637 L 757.3203128320165 638.8632811519201 L 757.3686016000574 638.664087551937 L 757.4487040000386 638.3493119999184 L 757.6125440000324 637.2249599999632 L 757.6486799360137 637.1086479359656 L 757.6796876800363 637.0156247039558 L 757.7446400000481 636.1477119999472 L 757.8757120000664 635.6326399999671 L 758.0078120960388 634.8593745919643 L 758.2689280000632 633.6665599999251 L 758.3305625600624 633.4597857279587 L 758.3984373760177 633.2421877759625 L 758.6953123840503 632.2382817279431 L 758.7604480000446 631.9103999999352 L 758.9425469440175 631.3450844159233 L 759.1562496000552 630.6914058239199 L 759.2330711040413 630.5320028159185 L 759.3164800000377 630.3651839999366 L 759.3828126720618 630.1796874239226 L 759.447552000056 630.1081599999452 L 760.3984373760177 628.0468746239203 L 760.5111746560433 627.6812400639174 L 760.6906880000606 627.1109119999455 L 761.3460480000358 624.5355519999284 L 761.4771200000541 624.4659199999296 L 761.4771200000541 624.3717119999346 L 762.1328128000605 623.5273441279423 L 762.5891840000404 622.6401279999409 L 762.5891840000404 622.3585279999534 L 762.7202560000587 622.3124479999533 L 762.8515624960419 621.9609374719439 L 762.9531248640269 621.4687498239218 L 763.015624704014 621.4453125119326 L 763.1134720000555 621.024255999946 L 763.2400721920421 620.8877137919189 L 763.3124997120467 620.8124999679276 L 763.3745920000365 620.5798399999621 L 763.4401280000457 620.5327359999646 L 763.4401280000457 620.4395519999671 L 763.5078123520361 620.3906252799206 L 763.7031249920256 619.7382809599512 L 763.8359377920278 619.6679690239253 L 763.8988800000516 619.0581759999623 L 764.1953126400476 617.9804692479665 L 764.5234370560502 616.9257809919654 L 764.7508480000542 616.3425279999501 L 764.9474560000235 616.0148479999625 L 765.0468751360313 615.7343754239264 L 765.1102720000199 615.6871679999167 L 765.2421877760207 615.289062399941 L 765.3396480000229 615.2417279999354 L 765.4379520000657 614.9611519999453 L 765.5034880000167 614.8669439999503 L 765.7890918400371 614.0636825599358 L 766.0312504320173 613.390624767926 L 766.7187496960396 610.3046871039551 L 767.3749995520338 608.1015623679268 L 767.3921566720237 607.9059681279468 L 767.4173440000159 607.6569599999348 L 767.5000002560555 607.1445309439441 L 767.564800000051 606.4168959999224 L 767.597541376017 605.7845882879337 L 767.9062497280538 605.7382809599512 L 768.2187499520369 605.644531711936 L 768.2519040000625 604.9873919999227 L 768.439296000055 603.2312319999328 L 768.6015621120459 601.9414067199687 L 768.7343749120482 601.4296872959239 L 768.7968747520354 600.5390622719424 L 768.9256960000494 599.9523839999456 L 769.0874880000483 598.5239039999433 L 769.2187504640315 598.031250431959 L 769.4765629440662 594.6367191039608 L 769.9630080000497 592.9512959999265 L 770.0937502720626 591.8046873599524 L 770.0937502720626 590.5156249599531 L 770.1565440000268 590.2817279999726 L 770.1562501120497 588.4999997439445 L 770.1249996800325 588.2929684479604 L 770.0551680000499 586.7694079999346 L 770.1874995200196 586.1835939839366 L 770.1831680000178 584.2165759999189 L 770.1085040640319 583.7499289599364 L 770.0546877440647 583.3984378879541 L 769.9531253760215 582.2265620479593 L 769.8906245120452 581.9687495679245 L 769.8835138560389 581.7518786559231 L 769.8524160000379 579.979263999965 L 769.7203200000222 578.8078079999541 L 769.4921871360275 578.1289062399301 L 769.4243840000127 577.0987519999617 L 769.2933120000525 576.2088959999382 L 769.2292679680395 575.3723975679604 L 769.195312128053 574.8984371199622 L 768.9951692800387 573.7785200639628 L 768.6676480000606 571.9244799999287 L 768.6015621120459 570.7773439999437 L 768.4374999040156 570.167968767928 L 768.4140625920263 569.7695313919685 L 768.3932293120306 569.7445314559736 L 768.378880000033 569.7239039999549 L 768.3461120000575 569.3020159999724 L 767.9078400000581 568.4828159999452 L 767.5859210240305 568.4369735679356 L 767.5703121920233 567.921874943946 L 767.4388520960347 567.2884766719653 L 767.315968000039 566.6805759999552 L 767.2170260480489 566.2639800319448 L 767.1250001920271 565.8632816639729 L 766.2109378560563 562.5351567359176 L 766.1729832960409 562.1585285119363 L 766.11276800005 561.5288319999236 L 766.0942243840545 558.7724083199282 L 766.0859371520346 557.2656250879518 L 765.9540480000433 556.4477439999464 L 765.8906245120452 554.8554690559395 L 766.0881920000538 553.9655679999269 L 766.0881920000538 553.4740479999455 L 766.1874995200196 553.1953121279366 L 766.2520320000476 552.748031999974 L 766.2945382400649 550.5660221439321 L 766.3593748480198 547.3867192319594 L 766.4220160000259 546.9880319999647 L 766.4921876480221 546.097655807971 L 766.5532262400375 545.6055275519611 L 766.6206720000482 545.0915839999216 L 766.784512000042 544.5529599999427 L 766.8828129280591 544.1093754879548 L 767.9068160000606 540.9116159999394 L 768.2187499520369 540.7812495359685 L 768.6015621120459 538.0664063999429 L 768.7280640000245 536.755199999956 L 768.8035123200389 536.4427141119377 L 768.9921873920248 535.6796876799199 L 769.0864640000509 535.0922239999636 L 769.1120640000445 529.4039039999479 L 769.569792000053 529.3332479999517 L 770.5180160000455 529.2861439999542 L 770.6490880000638 528.9113599999691 L 770.8774400000111 528.7935999999172 L 771.1406254080357 528.4414064639714 L 771.3679360000533 528.2549759999383 L 771.758433280047 527.6242503679241 L 772.3479040000238 526.9196799999336 L 772.6417920000385 526.4988159999484 L 772.7734374400461 526.1953126399312 L 772.8359372800332 526.171875327942 L 772.8373760000104 526.1701119999634 L 772.8373760000104 526.0769279999658 L 772.9062502400484 526.0078120959224 L 773.0326753280242 525.6323092479724 L 773.164062720025 525.5859374079737 L 773.1328122880659 525.4453125119326 L 773.656250368047 524.4374999039574 L 773.7929615360335 524.2674442239222 L 773.9801600000355 524.0391679999302 L 773.9990681600175 523.9310346239363 L 774.0156252160668 523.85156300792 L 774.4062504960457 523.3359370239195 L 774.4374210560345 523.14891161595 L 774.5351680000313 523.0786559999688 L 774.9921873920248 522.0742184959236 L 775.0574080000515 521.8846719999565 L 775.1250001920271 521.8359377919696 L 775.2529920000234 521.439231999917 L 775.3515622400446 521.3710940159508 L 775.4843750400469 520.902343679918 L 775.5796480000135 520.6671359999455 L 776.0390625280561 519.1210936319549 L 776.36096000002 516.8967679999187 L 776.9487360000494 515.2808959999238 L 777.015624704014 515.2343746559345 L 777.015624704014 515.1171870719409 L 777.2753920000396 514.5784319999511 L 777.9296870400431 513.1718748159474 L 778.0587520000408 512.6809599999688 L 778.3526400000555 512.3983359999256 L 778.6718750720611 512.171875327942 L 778.9066240000539 512.0010239999392 L 779.1022080000257 511.28524799994193 L 779.5312496640254 510.277344255941 L 779.7495326720527 508.8763279359555 L 779.9173120000632 507.8190079999622 L 780.472320000059 506.6014719999512 L 780.7647590400302 505.587015679921 L 780.9531248640269 504.94140620797407 L 781.0937497600098 504.445311999938 L 781.5168000000413 503.41683199995896 L 782.0390400000615 501.44972799991956 L 782.1015623680432 500.9179688959266 L 782.1967360000126 500.05503999994835 L 782.2031247360283 500.01953075191705 L 782.9531248640269 498.2187499519205 L 783.0781245440594 497.52343756792834 L 783.3436723200139 495.99264153593685 L 783.5719680000329 495.2207359999302 L 783.5078123520361 494.3085936639691 L 783.7031249920256 493.53515622392297 L 783.7031249920256 493.4769725439255 L 783.7071360000409 493.3693439999479 L 783.96108800004 491.8487039999454 L 784.1249996800325 489.43750041595194 L 784.4663592960569 488.3740323839593 L 784.9400320000132 486.9079039999633 L 785.2984320000396 485.87775999994483 L 785.8862080000108 483.93318399996497 L 786.4062167040538 482.70936063997215 L 786.8046878720634 481.7773434879491 L 786.8115978240385 481.7479751679348 L 786.8232878080453 481.71183308796026 L 787.2265625600121 480.4687503359746 L 787.3239040000481 479.7890559999505 L 787.7499996160623 479.1796879359172 L 787.7499996160623 478.5937500159489 L 787.8828124160646 478.2187499519205 L 788.6328125440632 476.53515673591755 L 788.7435304960236 476.07690854393877 L 788.891648000048 475.48006399994483 L 789.41388800001 474.07513599994127 L 790.7265628160094 471.7773434879491 L 792.8828129280591 466.7695308799739 L 793.6328120320104 464.80078131193295 L 794.1562501120497 463.1406254079193 L 794.8437504000613 461.7812500479631 L 794.9854218240362 461.18000947195105 L 795.1677440000349 460.4221439999528 L 795.2977920000558 459.39199999993434 L 795.6889600000577 457.70547199994326 L 795.8515630080365 457.1445309439441 L 795.9173120000632 456.16025599994464 L 796.2439680000534 455.13011199992616 L 796.2941102080513 454.5196103679482 L 796.3750000640284 453.6562503679306 L 796.4702720000641 450.75148799992166 L 796.3392000000458 450.07257599994773 L 796.6015621120459 449.83984332793625 L 797.2890624000574 447.4492190719466 L 797.6171878400492 445.92578150396 L 797.6991631360142 445.4368542719167 L 798.0078120960388 443.6562503679306 L 798.0078120960388 441.52343756792834 L 797.8750003200257 440.2851563519216 L 797.6427520000143 438.8331519999192 L 797.6099840000388 437.42822399997385 L 797.5106560000568 436.11647999996785 L 797.4768640000257 434.829311999958 L 797.1819520000136 433.9630079999333 L 797.2136960000498 433.0260479999706 L 796.9777592320461 432.06872063997434 L 796.7890626560547 431.29296895995503 L 796.7525949440314 430.9647626239457 L 796.7211520000128 430.6616319999448 L 796.6562498560525 429.7265623039566 L 796.4252160000615 428.92902399995364 L 796.3924480000278 427.8517759999377 L 796.0000000000582 426.79687475191895 L 795.8671360000153 426.0024319999502 L 795.4401280000457 424.8555519999354 L 795.4401280000457 424.3404799999553 L 795.402743808052 424.11866521596676 L 795.3515622400446 423.79296870395774 L 795.2821381120593 423.4029690879397 L 795.1059077120153 422.3595632639481 L 795.0468751360313 421.9999999999418 L 795.0188544000266 421.71045068796957 L 794.9793280000449 421.2725759999594 L 794.7500001280569 420.47656243195524 L 794.3593748480198 418.93359411193524 L 794.1566648320295 418.5725173759274 L 793.8631680000108 418.0428799999645 L 793.1406254080357 415.1406254079193 L 792.4531251200242 413.42968729592394 L 792.1249996800325 412.49609420791967 L 791.3676800000248 411.55788799992297 L 790.4481280000182 409.07673599995906 L 789.7735649280366 407.4863749119686 L 789.3671874560532 406.52343705593375 L 789.0904647680582 406.07859711995116 L 788.6438400000334 405.35449599992717 L 788.3193610240123 404.4450355199515 L 788.1874995200196 404.06640639994293 L 787.8079006720218 403.3949839359266 L 787.33107200003 402.54463999992004 L 786.6273218560382 400.3347548159654 L 786.6093752320157 400.273437695927 L 786.423899136018 399.94850508793024 L 786.3203123200219 399.75781273597386 L 785.8534400000353 398.93913599994266 L 785.2298240000382 398.21414399996866 L 783.3281249280553 394.56249958393164 L 782.7681280000252 393.508863999974 L 781.2265625600121 391.02734335995046 L 780.4702720000641 389.9504639999359 L 780.2109378560563 389.3203128319583 L 779.7812500480213 388.7343749119318 L 779.5496960000601 388.38271999993594 L 777.7116160000442 385.80735999991884 L 777.4484480000101 384.9175039999536 L 776.9241600000532 384.43519999994896 L 776.3984373760177 383.19140659197 L 775.9697920000181 382.6534399999655 L 775.5100160000147 381.81171199993696 L 775.1813120000297 381.53011199994944 L 774.6242560000392 381.4369279999519 L 774.2515200000489 381.2607999999309 L 774.1328128000605 381.20312524796464 L 774.1015623680432 380.57031270395964 L 774.1962240000139 380.009471999947 L 774.7061760000652 379.8722559999442 L 774.5239040000597 379.20153599994956 L 774.2438400000101 379.1897599999211 L 773.1466240000445 379.1902719999198 L 772.6223360000295 379.28345599991735 L 772.460937216063 379.2382812159485 L 772.4453120000544 379.1718748159474 L 772.3593748480198 378.7226562559372 L 772.2598400000134 378.13657599996077 L 772.292608000047 377.52831999992486 L 772.2305556480424 377.1872747519519 L 772.1640622080304 376.80078131193295 L 771.8414090240258 376.23376588796964 L 771.6352000000188 375.86636799992993 L 771.3710080000455 374.7420159999747 L 771.3515233280486 374.6795315199415 L 771.343750144064 374.6484377599554 L 770.5815040000598 372.2137599999551 L 769.925120000029 371.1836159999366 L 769.6495994880097 370.6390435839421 L 769.335937024036 370.0117186559364 L 768.9568757760571 369.38775859196903 L 768.6430720000644 368.8663039999665 L 768.339059712016 368.31378431996563 L 767.9062497280538 367.51953100797255 L 767.8517401600257 367.41829939192394 L 766.5100800000364 364.72319999994943 L 765.7890621440602 363.5976560639683 L 763.9552000000258 360.36607999994885 L 763.0499840000411 356.99097599997185 L 763.0078126080334 356.8281251839362 L 762.9609379840549 356.76562534394907 L 762.5154754560208 356.19842559995595 L 762.3724277760484 355.4355046399287 L 762.289062912052 354.98046873597195 L 761.6983040000196 353.9732479999657 L 760.8156160000362 350.67084799992153 L 760.2923520000186 349.1256319999229 L 760.0312504320173 348.84375039994484 L 759.6403138560127 348.1725255679339 L 759.4765629440662 347.88281241594814 L 759.2561653760495 347.3015685119317 L 759.0809600000503 346.83084799995413 L 758.7989299200126 344.7489628159674 L 758.7578122240375 344.4179691519239 L 758.921875456057 343.66796902392525 L 758.7265628160094 342.47656243195524 L 758.7584000000497 340.64895999996224 L 758.8359372800332 340.3203123199637 L 758.93789388804 339.8520668159472 L 759.1067064320669 339.1015526399715 L 759.1562496000552 338.89453158393735 L 759.2900741120102 338.243659775937 L 759.4843750400469 337.3242183679249 L 759.5156254720641 335.62109337595757 L 759.5182080000523 335.4050559999305 L 759.5345469440217 334.8272660479415 L 759.554688000062 334.21093785593985 L 759.6821872640285 333.5038986239233 L 759.8151680000592 332.7825919999741 L 759.7506560000475 332.0801279999432 L 759.898437632015 331.0625003519235 L 760.0476160000544 329.97273599996697 L 760.1807360000093 328.63948799995705 L 760.4140625920263 327.5625000959262 L 760.3785789440153 327.0893936639186 L 760.3466240000562 326.62527999992017 L 760.710937600059 323.44140595191857 L 761.0408960000495 320.74854399997275 L 761.633792000066 318.9227519999258 L 762.0945920000668 317.72876799997175 L 762.3281254400499 316.93359411193524 L 762.2109378560563 316.61718732793815 L 762.1867253760574 316.56011468794895 L 762.1601280000177 316.487679999962 L 762.2266880000243 315.9961599999224 L 762.8840960000525 315.4585599999409 L 765.0546872320119 313.25781299197115 L 766.8602880000253 310.70719999994617 L 767.900672000018 309.9228159999475 L 769.5626240000129 308.17689599993173 L 770.4483840000466 307.4979839999578 L 771.8256640000618 306.49036799994064 L 773.3515622400446 305.60937471996294 L 773.4877020160202 305.52854220796144 L 773.7292800000287 305.3885439999285 L 776.9453127680463 304.24218726396793 L 778.0618240000331 303.72454399993876 L 779.6695040000486 303.2084479999612 L 782.5254400000558 302.03699199995026 L 785.9384320000536 301.00479999993695 L 786.9235200000112 300.84095999994315 L 789.2213760000304 300.3719679999631 L 791.8828124160646 299.66796902392525 L 793.5222814720473 299.0824437759584 L 798.2489600000554 297.79353599995375 L 799.9221760000219 297.2313599999179 L 802.5159680000506 296.5043199999491 L 803.9608320000116 296.2001919999602 L 808.5234370560502 295.19921868795063 L 808.6558720000321 295.16902399994433 L 810.6577920000418 294.5126399999717 L 810.8828129280591 294.47265587194124 L 814.0072960000252 293.87980799993966 L 814.5078128640307 293.816406015947 L 816.6993920000386 293.5285759999533 L 820.6080000000657 292.52095999993617 L 822.1874995200196 292.2890629119356 L 825.6015626240405 291.53906278393697 L 826.460937216063 291.2617185279378 L 834.8593745920225 289.4531246079714 L 836.3359375360305 289.007812607917 L 838.1328128000605 288.4999997439445 L 838.7338240000536 288.3287039999268 L 840.5390622720588 287.917968383932 L 840.4745584640186 283.4200872959336 L 840.4398080000537 280.8350719999289 L 842.7734374400461 279.88281241594814 L 856.4623360000551 271.2616959999432 L 862.8295680000447 269.27103999996325 L 870.1061120000668 268.1692159999511 L 896.686080000014 274.4115199999651 L 917.0964480000548 267.33158399997046 L 932.7343749120482 256.0039065599558 L 938.7130880000186 256.0020479999366 L 939.6328120320104 254.6406246399274 L 940.2265620480175 253.35156223992817 L 940.8828129280591 252.46093721594661 L 941.1822233600542 251.79929292795714 L 941.7620480000624 250.5282559999614 L 941.7984000000288 250.48883199994452 L 942.9843752960442 249.34765670396155 L 943.4765629440662 248.48046899196925 L 944.1966080000275 247.56838399992557 L 944.68549222406 246.52480511995964 L 944.7578122240375 246.37500006397022 L 944.9082880000351 246.16038399992976 L 945.5781253120513 245.2265625599539 L 946.1022720000474 243.68127999996068 L 946.562499584048 242.39453081594547 L 947.409579008061 239.99934054393088 L 948.0396800000453 238.22643199993763 L 948.4374999040156 237.03124991996447 L 948.5871339520672 236.35385548794875 L 948.729856000049 235.72172799991677 L 948.8281600000337 234.57484799996018 L 948.8046878720634 234.46484377596062 L 948.2352640000172 232.0691199999419 L 948.2680320000509 231.24991999997292 L 948.3007815680467 229.8222581759328 L 948.3359375360305 228.39453081594547 L 948.2109378560563 227.21484390395926 L 948.179687424039 226.9218754559406 L 948.1098444800591 226.49893171194708 L 947.8203125760192 224.65234329592204 L 947.2925388800213 222.5058488319628 L 947.1815680000582 222.04825599992182 L 947.1317053440143 221.52033177594421 L 947.0312499200227 220.4179691519239 L 946.921875456057 219.26171852793777 L 946.6420582400169 218.72933990391903 L 946.1288960000384 217.74028799997177 L 945.8384302080376 216.8028764159535 L 945.7031249920256 216.3593748479616 L 945.448158208048 215.87710259197047 L 944.8785920000519 214.791167999967 L 944.8671877120505 214.35595161595847 L 944.8671877120505 214.24609382392373 L 944.853371904057 213.850046463951 L 944.8458240000182 213.57363199995598 L 944.6328125440632 213.08984422392678 L 944.0563200000324 211.79391999996733 L 943.9242240000167 210.55283199995756 L 943.9805890560383 210.38788607995957 L 944.0937502720626 210.06640639994293 L 944.2201600000262 209.68652799993288 L 945.4116679680301 208.0351037439541 L 945.898437632015 207.3632808959228 L 945.940361216024 207.30170572793577 L 947.0801920000231 205.70623999997042 L 947.7048320000176 204.58188799995696 L 947.9929784320411 204.1525258239708 L 948.0703129600151 204.04296908795368 L 948.1171875840519 203.92968703992665 L 948.4933120000642 203.0602239999571 L 949.0196480000159 202.33420799992746 L 949.6442880000104 201.44435199996224 L 950.0108800000162 200.83711999992374 L 950.6652528640116 199.74735462391982 L 951.0703124480206 199.07812454394298 L 951.2408401920111 198.78516633593244 L 952.1428480000468 197.27667199994903 L 953.7890621440602 193.48437503993046 L 954.2348380160402 192.0587233279366 L 954.289062912052 191.89062451192876 L 954.3454720000154 191.70508799992967 L 954.8311961600557 190.46497996791732 L 954.9062502400484 190.277344255941 L 955.0039040000411 189.50451199995587 L 955.38805555203 187.9996200959431 L 955.6640624640277 186.92968755192123 L 955.8917120000115 185.1965439999476 L 956.0337059840094 184.77960601594532 L 956.0546877440647 184.72265625593718 L 956.1562501120497 184.42578124796273 L 956.1613178880652 184.38903705595294 L 956.3373219840578 183.4002421759651 L 956.4531251200242 182.76171878393507 L 956.4319047680474 182.6290933759301 L 956.3413493760163 181.99758643197129 L 956.289062912052 181.61328127991874 L 956.187648000021 178.0090879999334 L 956.3281254400499 176.90625023993198 L 956.5855969280237 174.8241448959452 L 956.6171873280546 174.5898434559349 L 956.6171873280546 172.9531248639687 L 956.5444526080391 171.96063027193304 L 956.4950691840495 171.26411571196513 L 956.4795381760341 171.02256435196614 L 956.4539484160487 170.51434291194892 L 956.4453120000544 170.26171903993236 L 956.4003758080653 169.4360166399274 L 956.3842560000485 169.11155199992936 L 956.1210880000144 167.00518399995053 L 955.7923840000294 165.97503999993205 L 955.6343756800634 164.82672435196582 L 955.5312496640254 164.0546877439483 L 955.2977920000558 162.6030079999473 L 955.2343746560509 161.9960934399278 L 955.1914516480174 161.6355358719593 L 954.9374996480183 159.3242183679249 L 954.6406246400438 157.80468735995237 L 954.573824000021 156.74982399994042 L 954.1625262080343 155.16714291193057 L 953.8828124160646 154.07812505593756 L 953.8359377920278 153.89843763195677 L 953.8172794880229 153.83935385593213 L 953.7192048640572 153.46281574392924 L 953.6874997760169 153.33203148795292 L 953.5947663360275 153.00746342394268 L 953.1586560000433 151.43628799996804 L 953.1527905280236 151.14346803195076 L 953.1484375040163 150.7734374399297 L 953.1406254080357 150.5078128639725 L 953.1250001920271 149.65625036793062 L 951.968749568041 143.39843788795406 L 951.8437498880667 142.70312550396193 L 951.7109370880644 141.43750041595194 L 951.5889735680539 140.62362931197276 L 951.1813120000297 137.8099199999706 L 951.1484375040163 136.3593748479616 L 950.4921876480221 131.67578111996409 L 949.9140628480236 128.0039065599558 L 949.79687526403 127.10937497596024 L 950.0241920000408 124.43955199996708 L 950.189056000032 122.05158399994252 L 949.792768000043 117.97708799992688 L 950.1880320000346 115.75295999995433 L 950.1874995200196 113.31640627194429 L 950.9453127680463 109.5507814399316 L 951.3062400000636 106.62297599995509 L 952.6250004480244 102.36328140791738 L 953.3828126720618 100.86328115192009 L 954.2369280000567 98.896895999962 L 955.656250368047 96.57812479994027 L 957.2679680000292 94.91660799994133 L 959.3124997120467 93.41796863992931 L 962.1104640000267 91.9429119999404 L 962.5412505600252 91.76295833592303 L 963.2343746560509 91.47656294394983 L 963.7265623040148 91.12500019196887 L 964.9453127680463 90.75000012794044 L 967.9453122560517 90.30468710395508 L 969.4248960000114 89.92972799995914 L 971.5998720000498 89.41567999991821 L 974.1718753280584 88.66796851193067 L 975.648437248019 88.36328140791738 L 977.1366400000406 87.84691199992085 L 978.1249996800325 87.58984396792948 L 979.2450560000143 87.23865599994315 L 980.3325440000626 86.81779199995799 L 983.1562496000552 86.37890662392601 L 983.6249999360298 86.30468710395508 L 984.7500001280569 86.3281254399335 L 985.8359377920278 86.63281254394678 L 986.3984373760177 87.08984422392678 L 986.9219840000151 88.01279999996768 L 986.9843752960442 88.19531263993122 L 987.0262476800126 88.30929817596916 L 987.1328122880659 88.61718732793815 L 987.6787200000254 90.16729599994142 L 988.4687503360328 91.41015654394869 L 989.6867840000195 92.74265599995852 L 989.9062497280538 92.92968755192123 L 990.9687500800355 93.820312575961 L 991.7885798400384 94.61416140792426 L 992.0546877440647 94.87499980797293 L 992.2294261760544 95.00605337595334 L 992.7686440960388 95.41745459195226 L 992.9453127680463 95.5546879999456 L 994.1328128000605 95.83593779196963 L 996.6015621120459 96.93749964796007 L 998.0156252160668 97.71093708794797 L 1000.0295833600103 98.36664524796652 L 1000.8828129280591 99.08984422392678 L 1001.9706880000303 99.55942399991909 L 1003.1562496000552 100.0039065599558 L 1006.3513600000297 100.42675199994119 L 1006.7793920000549 100.75443199992878 L 1007.0763520000619 101.01247999991756 L 1008.9871360000107 101.55212799995206 L 1009.4062499840511 101.66015590395546 L 1010.0468746240367 101.82812467194162 L 1010.4360960000195 101.92691199993715 L 1012.8721920000389 102.6068479999667 L 1014.4218746880651 102.96093798393849 L 1016.2343751680455 103.07812454394298 L 1016.8678400000208 103.22739199997159 L 1017.023437824042 103.26562508795178 L 1018.5175040000468 103.27756799996132 L 1019.7893120000372 103.2898559999303 L 1021.238272000046 103.40761599992402 L 1022.9531248640269 103.38671923195943 L 1023.9057920000632 103.50079999992158 L 1024.0 103.49119711262028" fill="none"/></svg>