<svg xmlns="http://www.w3.org/2000/svg" width="1024" height="1024"><rect stroke="none" x="0" y="0" width="1024" height="1024" fill="white"/><path stroke="#000000" stroke-width="2" d="M 148.56249958404806 222.49804697593208 L 147.56250009604264 222.74804735992802 L 147.06317824003054 222.30919167993125 L 147.37499955203384 221.6874997759587 L 147.37499955203384 220.87499980797293 L 148.06249984004535 220.43554713594494 L 148.49999974406091 219.8750003199675 L 148.812499968044 219.06250035192352 L 149.3124997120467 218.43749990395736 L 149.68749977601692 217.99804723192938 L 150.49999974406091 216.74804735992802 L 151.74965452804463 216.74804735992802 L 151.56250009604264 217.80859391996637 L 151.06250035203993 218.1835939839366 L 150.62500044802437 219.43554662395036 L 150.62500044802437 220.24804659193614 L 149.81250048003858 220.6855464959517 L 149.1875000320142 221.68359423993388 L 148.56249958404806 222.49804697593208" fill="none"/><path stroke="#000000" stroke-width="2" d="M 123.87500032002572 186.06249983992893 L 123.99960883206222 186.6855464959517 L 123.37499955203384 186.6835937279393 L 123.31269529601559 186.06054707197472 L 123.87500032002572 186.06249983992893" fill="none"/><path stroke="#000000" stroke-width="2" d="M 120.00000000005821 180.4999997439445 L 120.00000000005821 181.55859353597043 L 119.50091878406238 180.93669580796268 L 120.00000000005821 180.4999997439445" fill="none"/><path stroke="#000000" stroke-width="2" d="M 126.06249984004535 176.96679628791753 L 125.74999961606227 177.06054655992193 L 124.62565376004204 176.62330060795648 L 124.93749964801827 175.81250047992216 L 125.93750016001286 175.99804723192938 L 126.3741532160202 176.8713523199549 L 126.06249984004535 176.96679628791753" fill="none"/><path stroke="#000000" stroke-width="2" d="M 120.43680665601278 175.62325503997272 L 119.81250048003858 175.81054668792058 L 119.06444595201174 175.18716927996138 L 120.18749952001963 174.9980467199348 L 120.43680665601278 175.62325503997272" fill="none"/><path stroke="#000000" stroke-width="2" d="M 126.74944204802159 167.18694195192074 L 126.25000038405415 168.43554713594494 L 125.24999987205956 168.62304665596457 L 124.00585216004401 169.8671943679219 L 122.87499980803113 169.8710937599535 L 122.06249984004535 169.6855470079463 L 121.12500019202707 169.87304652796593 L 119.37499955203384 169.6855470079463 L 118.87499980803113 170.06054707197472 L 119.06228531204397 171.12376319995383 L 118.87499980803113 171.74804684793344 L 118.18749952001963 171.31054694391787 L 118.03125043201726 171.08203110395698 L 117.74999961606227 170.6835937279393 L 117.24999987205956 170.49804697593208 L 116.12499968003249 170.6855464959517 L 115.37499955203384 171.30859417596366 L 115.62499993602978 172.12304691196186 L 116.12499968003249 172.31054643192329 L 116.812499968044 172.12499967997428 L 116.93557350401534 172.21877043193672 L 117.37499955203384 172.56054681591922 L 117.74999961606227 173.37499955191743 L 117.74999961606227 174.185546751949 L 116.62500044802437 174.3730472959578 L 115.68749977601692 173.99804723192938 L 115.3124997120467 173.56054732797202 L 114.56249958404806 174.1835939839366 L 115.5000002560555 175.81250047992216 L 115.93750016001286 176.24804659193614 L 116.4371118080453 177.43462502391776 L 116.12499968003249 178.25000038393773 L 116.34374963206938 178.88671846396755 L 116.62477209605277 179.68488959997194 L 116.43749990401557 180.74609356792644 L 116.43749990401557 181.37304678396322 L 116.00000000005821 181.74609407992102 L 115.5000002560555 181.93359359994065 L 114.812499968044 181.56054732797202 L 113.56250009604264 181.55859353597043 L 113.01562470401404 181.46874982392183 L 112.43749990401557 181.3710940159508 L 111.81250048003858 182.80859340797178 L 111.28006246406585 182.93341695994604 L 110.99999948806362 182.99609395192238 L 110.89749401604058 183.05955020792317 L 110.37500006402843 183.3710940159508 L 108.31250022404129 183.37304678396322 L 107.43750041606836 183.62109337595757 L 106.37500006402843 183.3710940159508 L 104.93749964801827 183.183593471942 L 103.93750016001286 182.9980467199348 L 103.31341721606441 182.5611888639396 L 103.74999961606227 181.93750015995465 L 103.93750016001286 181.37499955191743 L 104.56249958404806 181.37304678396322 L 105.12500019202707 181.16796825593337 L 105.74999961606227 180.93554687994765 L 105.96874956804095 180.53515673591755 L 106.18749952001963 180.12304691196186 L 107.12500019202707 179.50000025593909 L 107.18750003201421 178.5039063039585 L 107.1251722240122 177.874797567958 L 107.5000002560555 177.43554662395036 L 108.31250022404129 177.06054655992193 L 108.56249958404806 175.99804723192938 L 108.75000012805685 174.81249996792758 L 108.64843776001362 174.22265651193447 L 108.56273920001695 173.74742323195096 L 108.87499980803113 172.93554687994765 L 109.68749977601692 171.93554636795307 L 109.68749977601692 171.93359359994065 L 109.6093952000374 171.85744179197354 L 108.87550873606233 171.12160563195357 L 109.24999987205956 170.06054707197472 L 109.87500032002572 169.8750003199675 L 110.6875002880115 170.31054643192329 L 111.5000002560555 170.4999997439445 L 112.62500044802437 170.31250022392487 L 113.56250009604264 170.06054707197472 L 113.56025651202071 170.05920051195426 L 113.56250009604264 170.05859327997314 L 112.93749964801827 169.6855470079463 L 112.25000038405415 169.24609331192914 L 111.50030848005554 168.24845823994838 L 111.62499993602978 167.62499993597157 L 112.43749990401557 167.81054668792058 L 113.37499955203384 168.24804659193614 L 115.62499993602978 168.06054707197472 L 115.86718720005592 167.94140671996865 L 115.90234828804387 167.92187289596768 L 116.12499968003249 167.81054668792058 L 116.62500044802437 166.62500044796616 L 117.24999987205956 166.3730472959578 L 117.74999961606227 165.81054668792058 L 118.37500006402843 165.56054732797202 L 118.99999948806362 165.56250009592623 L 120.812499968044 165.9999999999418 L 121.24999987205956 166.3730472959578 L 121.74999961606227 166.81249996792758 L 122.6875002880115 167.187500031956 L 123.3124997120467 166.81249996792758 L 123.68749977601692 165.81054668792058 L 124.49999974406091 165.56054732797202 L 125.3124997120467 165.81054668792058 L 126.25000038405415 166.185546751949 L 126.37500006402843 166.81249996792758 L 126.74944204802159 167.18694195192074" fill="none"/><path stroke="#000000" stroke-width="2" d="M 120.59375001606531 163.84179711993784 L 120.43749990401557 164.12109414394945 L 119.62518528004875 163.7481328639551 L 119.68749977601692 163.12304639996728 L 120.62500044802437 162.93749964796007 L 120.74971340806223 163.5610644479748 L 120.59375001606531 163.84179711993784" fill="none"/><path stroke="#000000" stroke-width="2" d="M 118.93750067206565 158.31054643192329 L 118.6875002880115 158.43554713594494 L 117.87500032002572 158.1835939839366 L 117.06250035203993 157.80859391996637 L 116.12499968003249 156.9980467199348 L 115.5000002560555 156.74609356792644 L 114.50031616003253 155.9358033919707 L 114.6875002880115 154.93554687994765 L 115.5000002560555 154.31054643192329 L 116.31250022404129 154.4999997439445 L 117.74999961606227 155.12500019196887 L 117.93750016001286 155.74999961594585 L 118.49999974406091 155.93750015995465 L 119.3124997120467 156.18749951996142 L 119.62499993602978 156.75000012794044 L 120.4365076480317 157.1869655039627 L 120.00000000005821 157.81054668792058 L 119.18750003201421 158.1835939839366 L 118.93750067206565 158.31054643192329" fill="none"/><path stroke="#000000" stroke-width="2" d="M 123.99902412801748 144.49646079994272 L 123.5000002560555 144.6835937279393 L 123.5000002560555 143.6855470079463 L 123.99902412801748 144.49646079994272" fill="none"/><path stroke="#000000" stroke-width="2" d="M 191.06258124805754 143.46685439994326 L 191.37499955203384 143.6874997759587 L 191.5781242880621 143.58398463996127 L 191.87500032002572 143.43554662395036 L 192.18749952001963 142.62500044796616 L 193.43750041606836 142.8730470399605 L 193.93750016001286 143.87304652796593 L 194.37460070406087 144.87408435193356 L 194.06249984004535 145.68359423993388 L 193.43750041606836 145.93359359994065 L 192.812499968044 145.68359423993388 L 192.3125002240413 145.93359359994065 L 192.26172416005284 145.90820556791732 L 191.9292805120349 145.72919807996368 L 191.5000002560555 145.49609369592508 L 190.56249958404806 145.49609369592508 L 190.5643335680361 145.4980464639375 L 190.56249958404806 145.4980464639375 L 191.46874982403824 146.46093721594661 L 191.56202188803582 146.5619814399397 L 191.37499955203384 147.12109363195486 L 191.1875000320142 147.74804684793344 L 190.15625011204975 147.74804684793344 L 189.87500032002572 147.74609407992102 L 189.6790579200606 147.56610047991853 L 189.0000005120528 146.93554687994765 L 188.62500044802437 147.3710940159508 L 188.39062528003706 147.92187494394602 L 188.1249996800325 148.55859404796502 L 187.5000002560555 149.1855472639436 L 187.24218777602073 149.35546879994217 L 186.56249958404806 149.80859391996637 L 186.37500006402843 150.43554713594494 L 186.37500006402843 151.05859379196772 L 185.62499993602978 152.06054707197472 L 184.93749964801827 152.06054707197472 L 184.17187532805838 150.87890636792872 L 184.1249996800325 150.81054719997337 L 183.5000002560555 151.05859379196772 L 183.5000002560555 151.87304652796593 L 183.0000005120528 152.6835937279393 L 183.06237542402232 153.49814783997135 L 182.06249984004535 154.31054643192329 L 181.87500032002572 154.93554687994765 L 181.24999987205956 155.31054694391787 L 180.812499968044 156.1835939839366 L 180.25000038405415 156.74609356792644 L 179.5000002560555 156.74804735992802 L 178.87499980803113 156.185546751949 L 177.87574681604747 155.74837350397138 L 178.25000038405415 154.93554687994765 L 178.56249958404806 153.93554636795307 L 179.3124997120467 153.3124997119303 L 179.40623769606464 153.2636784639326 L 179.6562298880308 153.13868185592582 L 179.81250048003858 153.06250035192352 L 180.1249996800325 152.4999997439445 L 180.75000012805685 151.06250035192352 L 182.06249984004535 151.06054655992193 L 182.87499980803113 150.43749990395736 L 183.3124997120467 149.9999999999418 L 183.18762291205348 148.56196505593834 L 183.37499955203384 147.74999961594585 L 184.3125002240413 147.12500019196887 L 185.06250035203993 146.75000012794044 L 185.87500032002572 146.56054681591922 L 186.06249984004535 145.93554636795307 L 186.56249958404806 145.31054694391787 L 187.0000005120528 144.25000038393773 L 187.5000002560555 143.6855470079463 L 187.81250048003858 142.87499980797293 L 188.3125002240413 142.62500044796616 L 188.812499968044 141.9999999999418 L 189.93750016001286 141.9999999999418 L 190.56249958404806 142.43554713594494 L 190.75000012805685 143.24804710393073 L 191.06258124805754 143.46685439994326" fill="none"/><path stroke="#000000" stroke-width="2" d="M 122.43557785602752 143.19237427192274 L 122.25000038405415 143.24609331192914 L 121.87500032002572 142.87109324795892 L 121.85937510401709 142.74218700797064 L 121.74999961606227 141.9960934399278 L 121.56290252803592 141.43675289594103 L 122.25000038405415 140.185546751949 L 122.6875002880115 139.74804684793344 L 123.37499955203384 139.9999999999418 L 123.5000002560555 140.62304665596457 L 123.68723456002772 141.1847505919286 L 123.5000002560555 141.99804723192938 L 123.68710144003853 142.8731391999172 L 122.87499980803113 143.06054655992193 L 122.43557785602752 143.19237427192274" fill="none"/><path stroke="#000000" stroke-width="2" d="M 115.93750016001286 129.56250009592623 L 116.31224524806021 130.37249535997398 L 116.12499968003249 131.37304678396322 L 116.31250022404129 132.185546751949 L 116.93749964801827 132.3730472959578 L 117.35156224004459 132.37500006397022 L 117.87500032002572 132.37500006397022 L 118.06249984004535 132.9999994879472 L 118.87443251203513 133.43524147191783 L 118.25000038405415 135.24804710393073 L 119.05081651202636 135.24804710393073 L 119.18750003201421 135.24999987194315 L 119.99980544002028 135.24804710393073 L 119.81250048003858 137.12304639996728 L 118.87499980803113 136.6855464959517 L 118.14375014405232 137.0054686719668 L 117.87500032002572 137.12109363195486 L 116.812499968044 137.93554636795307 L 116.812499968044 137.93750015995465 L 116.93749964801827 138.56249958393164 L 117.56250009604264 138.75000012794044 L 118.87499980803113 138.93749964796007 L 118.99999948806362 139.9999999999418 L 119.16447539202636 140.12456652795663 L 119.81250048003858 140.62304665596457 L 120.31250022404129 140.9980467199348 L 120.812499968044 141.9999999999418 L 120.82812518405262 142.11718758393545 L 120.93720678403042 142.87099596793996 L 120.18749952001963 142.62109388795216 L 119.18750003201421 141.9960934399278 L 118.18749952001963 140.80859340797178 L 116.31250022404129 140.81054719997337 L 116.25000038405415 141.62499993597157 L 116.75000012805685 141.9999999999418 L 116.75000012805685 142.8730470399605 L 117.12500019202707 143.43554662395036 L 117.74999961606227 144.25000038393773 L 118.87499980803113 145.12304639996728 L 119.37437696004054 145.6848465919611 L 119.06250035203993 146.31054643192329 L 118.87499980803113 146.93554687994765 L 117.43750041606836 147.3710940159508 L 116.93749964801827 147.93359359994065 L 116.12499968003249 148.185546751949 L 115.62499993602978 147.93359359994065 L 115.24218777602073 147.70312499196734 L 114.6875002880115 147.37304678396322 L 112.75000012805685 147.37304678396322 L 112.43903590401169 147.44480767997447 L 111.98437478404958 147.5468748799176 L 111.9236597760464 147.56374118395615 L 111.12500019202707 147.74609407992102 L 110.812499968044 148.99609395192238 L 110.37500006402843 149.3710940159508 L 110.57031270401785 149.92968703992665 L 110.68713369604666 150.2489989119349 L 110.37500006402843 151.06054655992193 L 110.37500006402843 151.62109337595757 L 109.74999961606227 151.87304652796593 L 109.06250035203993 151.87304652796593 L 108.21874995203689 151.94140671996865 L 106.812499968044 152.05859327997314 L 105.74999961606227 152.87109324795892 L 105.33593702403596 153.74609407992102 L 105.24999987205956 153.93554636795307 L 105.24999987205956 153.93750015995465 L 105.68644812802086 154.30964531196514 L 105.24999987205956 154.74609356792644 L 104.06249984004535 154.93359411193524 L 103.12500019202707 154.74609356792644 L 102.62500044802437 154.49609420791967 L 101.68749977601692 154.30859366396908 L 100.43749990401557 154.49609420791967 L 100.18362060806248 154.5995991039672 L 99.81250048003858 154.74804735992802 L 99.12500019202707 154.93554687994765 L 98.49999974406091 154.93359411193524 L 97.37499955203384 154.74609356792644 L 96.43749990401557 154.93554687994765 L 96.06249984004535 154.49609420791967 L 95.12500019202707 154.30859366396908 L 94.12577894405695 153.93583820795175 L 94.62500044802437 152.8730470399605 L 94.93749964801827 152.25000038393773 L 95.62499993602978 151.62304716795916 L 96.19628953601932 151.1088865279453 L 96.25000038405415 151.06250035192352 L 96.56249958404806 150.43749990395736 L 96.6875002880115 149.81250047992216 L 96.93750067206565 149.31054694391787 L 97.18750003201421 148.81054719997337 L 97.68749977601692 148.185546751949 L 99.12500019202707 147.74999961594585 L 99.62499993602978 146.93554687994765 L 99.93750016001286 146.12499967997428 L 100.25000038405415 145.81054668792058 L 101.18750003201421 144.8730470399605 L 101.87500032002572 144.49804697593208 L 102.18749952001963 143.87304652796593 L 102.37500006402843 143.05859379196772 L 101.78906214406015 142.60937523195753 L 101.56250009604264 142.43359334394336 L 101.18863667204278 141.9993733119336 L 101.83203532802872 141.64648243197007 L 101.87500032002572 141.62499993597157 L 101.50062182405964 140.62277017591987 L 102.06249984004535 140.3730472959578 L 102.99999948806362 139.187500031956 L 103.93750016001286 138.93749964796007 L 104.56249958404806 138.12304691196186 L 104.56141824001679 138.12250623991713 L 104.56249958404806 138.12109414394945 L 103.81250048003858 137.74609407992102 L 102.812499968044 137.74804684793344 L 102.37500006402843 136.6855464959517 L 101.56250009604264 136.30859366396908 L 101.06250035203993 135.8710937599535 L 100.93749964801827 134.62304665596457 L 99.81360947206849 134.2484162559267 L 100.25000038405415 133.62499993597157 L 101.5000002560555 132.81054719997337 L 102.11718758405186 132.6796871679253 L 102.37500006402843 132.62304665596457 L 103.12500019202707 131.99804723192938 L 103.27343718404882 131.8710937599535 L 103.62499993602978 131.56054732797202 L 105.68749977601692 131.1855472639436 L 106.37500006402843 130.56054681591922 L 106.57031270401785 130.01171865593642 L 106.812499968044 129.3124997119303 L 107.62499993602978 128.93554687994765 L 108.45869568001945 129.29802342393668 L 109.06250035203993 129.56250009592623 L 110.00000000005821 129.3124997119303 L 110.56249958404806 129.12304639996728 L 110.66406297602225 128.92968755192123 L 111.18750003201421 127.87304652796593 L 111.81250048003858 127.31249971193029 L 112.62500044802437 127.4980464639375 L 113.43750041606836 127.50000025593909 L 113.56128358404385 128.11696230393136 L 113.59343820804497 128.12884787196526 L 114.3124367360142 128.2636595199583 L 114.56249958404806 128.31250022392487 L 115.3124997120467 128.93554687994765 L 115.7891010560561 129.41214822395705 L 115.93750016001286 129.56250009592623" fill="none"/><path stroke="#000000" stroke-width="2" d="M 125.28128307202132 127.99803187191719 L 124.99999948806362 128.12304691196186 L 124.81302528001834 127.49979852791876 L 125.3124997120467 127.31054694391787 L 125.56177715206286 127.87142041593324 L 125.28128307202132 127.99803187191719" fill="none"/><path stroke="#000000" stroke-width="2" d="M 132.46875033603283 120.43554611195577 L 132.0000000000582 120.93554687994765 L 131.5000002560555 120.49609420791967 L 130.87499980803113 120.49609420791967 L 130.4378818560508 119.68430387193803 L 130.6875002880115 118.87499980797293 L 131.37499955203384 117.43554662395036 L 131.25023641606094 116.81173094396945 L 131.5000002560555 115.99999999994179 L 132.3125002240413 115.99804723192938 L 132.6875002880115 116.62500044796616 L 133.5000002560555 117.24804710393073 L 134.93749964801827 117.87500031996751 L 134.93749964801827 118.49804697593208 L 133.87500032002572 118.66406297596404 L 133.74999961606227 118.68554649595171 L 133.1796879360336 119.55859353597043 L 132.93749964801827 119.93359359994065 L 132.46875033603283 120.43554611195577" fill="none"/><path stroke="#000000" stroke-width="2" d="M 272.812499968044 114.185546751949 L 271.8750003200257 114.37109350395622 L 270.62500044802437 114.81054719997337 L 269.5000002560555 114.3730472959578 L 268.0000000000582 114.99804671993479 L 266.25000038405415 115.62109337595757 L 265.46699161606375 115.93625087995315 L 265.3124997120467 115.99609343992779 L 265.06250035203993 116.84375039994484 L 265.0000005120528 117.06054655992193 L 264.9999994880636 117.68554803193547 L 264.3125002240413 118.06054707197472 L 264.06249984004535 118.68554649595171 L 264.3742904320243 119.31107942393282 L 263.8750003200257 119.68359423993388 L 263.06250035203993 119.93554636795307 L 261.1250001920271 120.12304691196186 L 260.3125002240413 119.93554636795307 L 259.56250009604264 119.4980464639375 L 258.87499980803113 119.31054694391787 L 258.6875002880115 118.68554649595171 L 257.8125004800386 118.24609382392373 L 257.1250001920271 118.24804659193614 L 256.62500044802437 118.68554649595171 L 255.68749977601692 119.6855470079463 L 255.0000005120528 119.4980464639375 L 255.0000005120528 118.87304703996051 L 254.56302387203323 118.05957222392317 L 255.0000005120528 117.24804710393073 L 255.68749977601692 116.81249996792758 L 257.6249999360298 116.81054719997337 L 258.25000038405415 117.06054655992193 L 258.87499980803113 117.43750041595194 L 259.1289425920695 117.51368294394342 L 259.6874997760169 117.6855470079463 L 260.6875002880115 117.43554662395036 L 262.1249996800325 117.43554662395036 L 262.4531251200242 116.96875007991912 L 262.56249958404806 116.81054719997337 L 263.14843238401227 116.63476735993754 L 263.1875000320142 116.62500044796616 L 263.20312524802284 116.5898434559349 L 263.6874997760169 115.37304678396322 L 264.3125002240413 115.18554726394359 L 264.6875002880115 114.56249958393164 L 265.3124997120467 114.185546751949 L 266.75000012805685 114.18749951996142 L 268.87499980803113 113.74804684793344 L 269.6249999360298 113.37499955191743 L 270.91330969601404 112.77363404794596 L 271.245753344032 112.62019891192904 L 271.37499955203384 112.56249958393164 L 272.1874995200196 111.93750015995465 L 272.1874995200196 111.12109363195486 L 272.06249984004535 110.49804697593208 L 271.87531571206637 109.43538892793003 L 272.9999994880636 108.87499980797293 L 273.8125004800386 109.06054655992193 L 274.4371343360399 109.06249830394518 L 274.25000038405415 110.06054707197472 L 273.93750016001286 111.31249971193029 L 274.38281216006726 111.87109375995351 L 274.43749990401557 111.93750015995465 L 275.06113945605466 112.30973030393943 L 272.812499968044 114.185546751949" fill="none"/></svg>