<svg xmlns="http://www.w3.org/2000/svg" width="1024" height="1024"><rect stroke="none" x="0" y="0" width="1024" height="1024" fill="white"/><path stroke="#000000" stroke-width="2" d="M 0.0 473.675980238615 L 5.335937024035957 475.52734412794234 L 8.195312640047632 474.20312473597005 L 12.195312640047632 473.79296870395774 L 16.593750016007107 474.097655807971 L 19.664062464027666 474.40625049592927 L 21.921874944062438 475.12109363195486 L 26.218749952036887 474.1015623679268 L 30.625000448024366 470.8242186239222 L 32.671875072061084 467.03515647992026 L 37.68749977601692 466.2148433919647 L 39.33593702403596 460.89062502392335 L 47.62499993602978 461.5039057919639 L 50.89843712002039 459.0468751359731 L 52.22656204801751 455.5664066559402 L 53.367187456053216 453.8242191359168 L 55.60937472002115 453.8242191359168 L 60.625000448024366 453.92578150396 L 64.7187496960396 452.902343679918 L 67.17968793603359 452.5976565759629 L 70.3593748480198 453.0039060479612 L 73.73437542404281 452.902343679918 L 75.98437478404958 453.21093734394526 L 78.96093798405491 452.902343679918 L 82.02343731204746 453.10937497596024 L 86.23437516804552 454.33593753597233 L 90.72656281600939 453.92578150396 L 93.4921871360275 453.7226557439426 L 96.15625011204975 453.5156254719477 L 99.33593702403596 453.3124997119303 L 101.68749977601692 452.6992189439479 L 105.6796876800363 451.2656250879518 L 107.92968704004306 448.1914060799172 L 110.60937523201574 446.0429690879537 L 114.38281216000905 446.453125119966 L 120.64062464004382 448.9101557759568 L 125.23437465605093 448.7031255039619 L 128.61718732805457 447.6796876799199 L 132.60937523201574 446.453125119966 L 134.65624985605245 445.6328120319522 L 136.71093760005897 448.3984373759595 L 137.3203128320165 452.39062527992064 L 139.16406272002496 458.6367191039608 L 142.75000012805685 460.48046899196925 L 146.74218700802885 462.42578124796273 L 147.96874956804095 465.70312499196734 L 151.75781273603207 468.26171903993236 L 154.3203123200219 471.2343746559345 L 156.06249984004535 474.3046871039551 L 158.7265628160094 479.11718707194086 L 160.46093721606303 483.10937497596024 L 162.30468710401328 485.7734379519243 L 165.89062451204518 487.5156254719477 L 172.24218726402614 491.19921868795063 L 173.36718745605322 494.88671846396755 L 176.33593753603054 498.3671879679314 L 180.32812544004992 500.62109388795216 L 183.41406208003173 502.3593748479616 L 189.74999961606227 501.1328122879495 L 196.4062504960457 498.47265587194124 L 197.9453122560517 495.70703155192314 L 196.20312473602826 492.94140620797407 L 196.82031206402462 490.5859379199683 L 199.68749977601692 486.8984371199622 L 203.57812531205127 485.46484326396603 L 207.99218790401937 485.16015615995275 L 210.94531276804628 485.3632808959228 L 214.53125017601997 486.79687475191895 L 219.35937536001438 487.61328127991874 L 223.85156300803646 487.0000005119364 L 226.10156236804323 486.38671871996485 L 228.14843699202174 485.16015615995275 L 231.12500019202707 482.49609420791967 L 235.82812467205804 481.98437478393316 L 240.5468753920286 483.7226557439426 L 244.02343731204746 483.4179686399293 L 245.96874956804095 478.29687500797445 L 249.65625036804704 476.0468746239203 L 254.7734374400461 472.9726566399331 L 259.0781245440594 470.51562495995313 L 261.9453122560517 470.0039065599558 L 265.6328120320104 469.082031103957 L 271.1718748160638 468.05859327997314 L 275.15624960005516 468.26171596796485 L 277.5078123520361 467.6484372479608 L 280.6875002880115 467.03515647992026 L 283.3593753600144 467.33984358393354 L 286.00781209603883 467.33984358393354 L 290.3125002240413 467.5429683199618 L 292.46093721606303 464.7812495359685 L 295.42968729604036 462.42578124796273 L 298.19531264004763 459.7617182719405 L 299.7265623040148 456.5898434559349 L 301.46874982403824 453.4140620799735 L 302.914062336029 450.34765619196696 L 317.2421877760207 454.43359334394336 L 324.51562496001134 448.71093759994255 L 326.8671877120505 451.0585937919677 L 330.34374963201117 452.5937500159489 L 333.2109373440617 453.21093734394526 L 337.4140620800317 454.33593753597233 L 342.7343749120482 455.0546872319537 L 346.8281251840526 456.5898434559349 L 350.42187468800694 457.60937471996294 L 355.02343782404205 455.8710937599535 L 359.32812492805533 455.0546872319537 L 363.3203128320165 455.97656268795254 L 367.4140620800317 457.4101565439487 L 370.8984371200204 457.816406015947 L 374.2734376960434 458.1249996799743 L 377.3515622400446 458.7382814719458 L 381.2421877760207 458.84375039994484 L 384.21093785605626 459.0468751359731 L 388.10156236804323 459.96874956792453 L 392.0937502720626 460.378906623926 L 395.1767910400522 461.7096867839573 L 395.1796879360336 461.71093708794797 L 399.2812503040186 460.7890626559383 L 402.66406297602225 459.0468751359731 L 405.1250001920271 457.4101565439487 L 407.9921879040194 456.7929692159523 L 410.0390625280561 455.25781299197115 L 418.02343731204746 449.011719167931 L 421.6015626240405 447.6796876799199 L 425.06250035203993 447.88671897596214 L 427.2187504640315 449.52343756792834 L 429.3671874560532 450.5468753919704 L 431.7187502080342 451.0585937919677 L 435.1015628800378 451.2656250879518 L 440.2187499520369 452.1874995199614 L 444.62500044802437 452.2890629119356 L 448.921875456057 455.4609377279412 L 454.06249984004535 456.1796874239226 L 458.78124953602673 454.33593753597233 L 463.57031219202327 453.4179686399293 L 466.84375040006125 455.7695313919685 L 470.9453127680463 457.816406015947 L 473.5000002560555 459.55859353597043 L 477.5937495040125 460.58203135995427 L 482.3046871040133 460.7890626559383 L 486.60937523201574 462.0156252159504 L 489.9843747840496 464.2695311359712 L 492.1406248960411 465.6015626239241 L 493.6718745600083 467.5468748799176 L 494.79687475203536 471.746094079921 L 496.84375040006125 474.3046871039551 L 502.4921876480221 475.2265625599539 L 506.4999997440609 474.20312473597005 L 508.6484377600136 472.4609372159466 L 511.8203125760192 469.79687526397174 L 514.2656245760154 468.98437529592775 L 516.710937600059 470.0039065599558 L 520.3125002240413 470.4140625919681 L 523.9062497280538 470.1054689279408 L 526.2500003840541 469.4921871359693 L 529.1171870720573 469.90234419197077 L 532.8046878720634 469.28906239994103 L 537.0937497600098 469.90234419197077 L 542.2109378560563 470.61718732793815 L 544.9921873920248 471.3320314879529 L 549.195312128053 469.5937495039543 L 547.3515622400446 467.9570309119299 L 545.5078123520361 464.6796871679253 L 544.7968747520354 461.4023434239207 L 544.382812160009 459.24999987194315 L 544.281249792024 456.4882810879499 L 543.6718745600083 453.8242191359168 L 538.6406246400438 453.7226557439426 L 535.8671872000559 456.277344255941 L 531.9921879040194 455.3593753599562 L 529.023437824042 453.92578150396 L 526.6718750720611 453.0039060479612 L 523.4921871360275 451.16406271996675 L 520.7343749120482 450.0351559679257 L 518.5781248000567 449.52343756792834 L 515.8125004800386 449.4218751999433 L 512.0234373120475 449.21484390395926 L 508.34374963201117 448.6015621119295 L 504.34374963201117 447.98828134394716 L 502.29687500803266 446.65624985593604 L 503.1171870720573 442.76562534394907 L 506.1874995200196 441.3320314879529 L 508.42968780803494 441.43359385593794 L 510.5937500160071 439.078124543943 L 509.16406272002496 436.1093754879548 L 504.7578122240375 433.65234380797483 L 501.1718748160638 431.80859391996637 L 496.3593748480198 429.35156223992817 L 492.4687503360328 427.0976563199656 L 492.2656245760154 423.61718783993274 L 490.92968755203765 419.21484390395926 L 487.8593751040171 415.21875046397327 L 488.2734376960434 410.3046871039551 L 491.85156300803646 407.33593702391954 L 489.39843788801227 406.20703129592584 L 485.60937472002115 404.57031270395964 L 489.8046873600106 399.6562503679306 L 490.8281251840526 396.9921873919666 L 495.84374988800846 387.87890585593414 L 499.9453122560517 386.34374963195296 L 504.34374963201117 383.88671897596214 L 509.05468723201193 382.453125119966 L 507.2109373440617 378.25390591996256 L 504.65624985605245 376.4101560319541 L 501.9921879040194 373.644531711936 L 499.42968729604036 370.16406220797217 L 497.0781245440594 368.93359411193524 L 494.8203120640246 366.06640639994293 L 503.6328120320104 363.4062499839347 L 506.28906291205203 362.1757808639668 L 509.7734379520407 360.6406246399274 L 512.109375488013 360.33593753597233 L 513.7421875200234 362.07421849592356 L 516.921875456057 364.12109414394945 L 520.7343749120482 365.4531246079714 L 520.3203123200219 362.378906623926 L 521.0390620160615 359.61718783993274 L 523.9062497280538 357.0546872319537 L 524.6250004480244 354.49609420791967 L 526.6718750720611 353.57421875192085 L 529.023437824042 352.8593745919643 L 532.3046871040133 350.0937502719462 L 534.2500003840541 346.9179688959266 L 536.6015621120459 344.4609372159466 L 539.5703121920233 341.79687526397174 L 538.4453120000544 339.44531251193257 L 536.1953126400476 338.0117186559364 L 537.015624704014 333.9140628479654 L 540.5937500160071 332.6835937279393 L 542.1328128000605 330.7382814719458 L 543.3593753600144 328.5898434559349 L 539.6718745600083 326.84765593596967 L 536.2968750080327 326.2343751679291 L 534.1484369920217 324.4921876479639 L 531.8906245120452 322.9570314239245 L 529.7421875200234 321.6249999359716 L 528.2031247360283 318.8593745919643 L 529.335937024036 315.89062451192876 L 527.6953128960449 312.7187496959232 L 524.2109378560563 309.44140595191857 L 522.5781248000567 304.8320317439502 L 523.7031249920256 301.35156223992817 L 526.2578124800348 298.9960939519224 L 530.6406246400438 299.4062499839347 L 534.53125017602 298.7890626559383 L 540.2656245760154 297.5625000959262 L 543.546874880034 295.71875020791776 L 545.0781245440594 294.4882810879499 L 547.3281249280553 293.0546872319537 L 554.3984373760177 291.10937497596024 L 557.7734379520407 290.5976565759629 L 560.7421870080288 289.98437478393316 L 565.6640624640277 289.3710940159508 L 568.0156252160086 288.24218726396793 L 570.6796871680417 286.5039063039585 L 574.6718750720611 286.1953126399312 L 578.0546877440065 285.99218790396117 L 583.0703124480206 286.29687500797445 L 586.1406248960411 288.1406248959247 L 587.7812500480213 289.98437478393316 L 589.1093749760184 292.33984409592813 L 592.179687424039 293.3632808959228 L 595.8671872000559 294.4882810879499 L 599.3515622400446 296.02734387194505 L 601.9140628480236 293.3632808959228 L 604.9843752960442 291.3164062719443 L 607.5390627840534 288.24218726396793 L 609.79687526403 285.6835942399339 L 612.9687500800355 284.66015641595004 L 616.2500003840541 282.61328076792415 L 616.6562498560525 278.20703129592584 L 615.4296872960404 273.29296895995503 L 615.5312496640254 270.7343749119318 L 617.1718748160638 268.17187532794196 L 619.1171870720573 265.921874943946 L 619.6249999360298 262.5429688319564 L 619.1171870720573 260.08203161595156 L 617.8828124160063 258.445311999938 L 619.6249999360298 255.7812500479631 L 621.4687498240382 253.12109363195486 L 624.4374999040156 252.30078156793024 L 626.6953123840503 251.5859374079737 L 629.7656248320127 250.8671877119341 L 632.9374996480183 252.09765580797102 L 637.2421877760207 254.24609382392373 L 640.1015623680432 256.8085934079718 L 642.3593748480198 259.16015615995275 L 644.6093752320157 261.10937497596024 L 646.9687500800355 262.84765593596967 L 648.6093752320157 264.2812497919658 L 648.812499968044 267.24999987194315 L 650.6562498560525 269.6054691839381 L 652.9062502400484 271.1445309439441 L 654.3359375360305 272.7812495359685 L 656.179687424039 275.33984358393354 L 659.0468751360313 278.20703129592584 L 663.3515622400446 280.3593748479616 L 667.343750144064 280.8710932479589 L 670.3125002240413 279.2304691199679 L 673.6953128960449 277.5937495039543 L 676.562499584048 275.44531251193257 L 679.8359377920278 273.80468735995237 L 684.1406248960411 275.03515647992026 L 688.0312504320173 275.5468748799176 L 691.1015628800378 276.57031270395964 L 693.2499998720596 278.7187496959232 L 692.8437504000613 282.20312473597005 L 693.3515622400446 285.7851566079189 L 694.6875002880115 288.8593745919643 L 696.9374996480183 290.29296844796045 L 698.6796871680417 292.2382817279431 L 701.343750144064 294.08203161595156 L 704.5156249600113 295.820312575961 L 708.2031247360283 298.38281215995084 L 711.2734371840488 299.816406015947 L 713.3203128320165 300.6328125439468 L 715.7812500480213 301.9648440319579 L 718.7500001280569 304.2187499519205 L 720.9999994880636 305.44531251193257 L 722.1249996800325 307.69921843195334 L 720.9999994880636 310.26171903993236 L 720.289062912052 312.20703129592584 L 719.7734379520407 314.0468746239203 L 720.9999994880636 317.12109363195486 L 724.5859379200265 320.29296844796045 L 728.1718753280584 321.4218751999433 L 732.2656245760154 323.0585937919677 L 736.1562501120497 324.2890629119356 L 738.6171873280546 326.02734387194505 L 740.6640629760223 328.6914058239199 L 740.8671877120505 332.07031295995694 L 742.5078128640307 334.3242188799195 L 744.4531251200242 336.2695311359712 L 747.0078126080334 338.0117186559364 L 748.7500001280569 339.6484372479608 L 750.6953123840503 341.90234419197077 L 748.3437496320112 344.7695308799739 L 745.2734371840488 345.89453107194277 L 743.8359377920278 348.14843699196354 L 741.8906245120452 350.6054686719435 L 739.9453122560517 352.8593745919643 L 737.4921871360275 353.88281241594814 L 739.3281249280553 357.2617185279378 L 740.6640629760223 358.79687475191895 L 743.015624704014 359.5156254719477 L 745.6796876800363 360.74218700797064 L 748.3437496320112 361.25390643195715 L 751.7187502080342 360.1289062399301 L 754.8984371200204 358.8984371199622 L 758.3750000640284 358.4882810879499 L 762.2656245760154 357.57031219196506 L 765.0312499200227 358.1835939839366 L 766.7734374400461 361.0507816959289 L 769.1328122880077 364.6328125439468 L 771.3828126720618 364.6328125439468 L 774.2500003840541 364.83984383993084 L 775.9921879040194 365.9648440319579 L 777.2187504640315 367.80859391996637 L 780.0859371520346 369.9570309119299 L 783.1562496000552 372.8242186239222 L 785.2031252480228 374.3632814079174 L 787.3593753600144 376.9218754559406 L 790.1249996800325 378.8671877119341 L 792.0703129600151 382.0429690879537 L 794.5234370560502 384.6015621119295 L 797.2890624000574 385.7265623039566 L 799.1328122880077 386.75390668795444 L 796.4687503360328 388.902343679918 L 791.3515622400446 391.0546872319537 L 786.6406246400438 391.97656268795254 L 782.1328128000605 393.20312524796464 L 777.9374950400088 394.6367303679581 L 776.1953126400476 396.89062502392335 L 778.7578122240375 398.2226565119345 L 780.7031255040201 399.6562503679306 L 781.3124997120467 402.62500044796616 L 783.5703121920233 405.39062476792606 L 783.4687498240382 408.66406297596404 L 786.3359375360305 412.0468746239203 L 786.8437504000613 415.21875046397327 L 784.8984371200204 418.1874995199614 L 785.8203125760192 420.1367183359689 L 787.2578129920294 423.10546841594623 L 788.4843745280523 426.6875002879533 L 788.179687424039 429.7617182719405 L 790.7343749120482 432.8320317439502 L 793.7031249920256 433.65234380797483 L 797.0859376640292 433.34375014394755 L 801.1796879360336 434.8789063679287 L 805.8906245120452 434.8789063679287 L 808.4531251200242 435.187500031956 L 811.5234375680448 435.187500031956 L 817.6640624640277 434.47265587194124 L 823.0937497600098 436.51953151996713 L 831.898437632015 439.1796879359172 L 838.8671877120505 441.3320314879529 L 839.3749995520338 445.42968729592394 L 839.3749995520338 450.6484377599554 L 839.1718748160638 453.8242191359168 L 839.2734371840488 456.5898434559349 L 843.6796876800363 460.277344255941 L 846.3359375360305 461.71093708794797 L 854.4296878080349 463.9609374719439 L 860.2656245760154 464.6796871679253 L 863.335937024036 467.85156300792005 L 869.0703124480206 476.25000038393773 L 874.1953126400476 475.94140671996865 L 880.1328128000605 475.7382809599512 L 889.0390620160615 478.6054686719435 L 882.7968747520354 490.89453158393735 L 881.8750003200257 494.88671846396755 L 885.968749568041 504.3085936639691 L 889.4531246080296 512.0898437119322 L 892.8281251840526 513.011719167931 L 895.1875000320142 515.4687498239218 L 897.8437498880085 517.6210933759576 L 901.1250001920271 518.1328127999441 L 903.6796876800363 518.2343751679291 L 906.5468753920286 518.8476559359697 L 914.2343751680455 525.6054691839381 L 916.5859379200265 526.1171875839354 L 918.8359372800332 525.5039057919639 L 922.4218746880069 524.9921873919666 L 926.7265628160094 526.6289059839328 L 926.7265853440622 526.631801855925 L 932.1506816000328 528.4739481599536 L 937.8850816000486 529.4979481599294 L 943.4146816000575 531.238748159958 L 945.8722816000227 531.238748159958 L 949.2514816000476 531.4435481599648 L 952.9378816000535 532.8771481599542 L 956.6242816000595 535.3347481599194 L 959.7986816000193 536.4611481599277 L 963.1778816000442 537.0755481599481 L 966.2498816000298 537.3827481599292 L 974.0322816000553 538.5091481599375 L 973.9329372160137 545.8606233599712 L 973.8274816000485 553.6643481599167 L 973.725081600016 576.3971481599729 L 973.5202816000092 584.6915481599281 L 973.5202816000092 593.907548159943 L 973.6226816000417 608.9603481599479 L 973.6226816000417 640.0899481599336 L 973.1106816000538 661.90114815993 L 973.1106816000538 687.7059481599717 L 973.2130816000281 698.2531481599435 L 973.3154816000606 747.6099481599522 L 973.3154816000606 750.6819481599377 L 973.5202816000092 753.2419481599354 L 973.5202816000092 767.8851481599268 L 973.725081600016 799.0147481599706 L 973.725081600016 891.4803896319354 L 973.7265623040148 891.4804684799747 L 973.7265623040148 896.0898437119322 L 974.3359375360305 907.0468751359731 L 974.3359375360305 915.4453125119326 L 974.2343751680455 928.550780927937 L 974.2343751680455 959.5781253119349 L 974.0312504320173 962.2382817279431 L 974.0312504320173 978.8281251839362 L 973.9296870400431 992.2421872639679 L 973.9296870400431 995.4179686399293 L 973.7265623040148 1003.4062499839347 L 975.4611822516017 1024.0" fill="none"/><path stroke="#000000" stroke-width="2" d="M 967.9136997951282 0.0 L 967.2738816000638 5.209948159870692 L 966.963647488039 29.594341375806835 L 966.7618816000759 45.45314815995516 L 966.6594816000434 48.62754815991502 L 966.5570816000691 57.74114815983921 L 966.4546816000366 65.01154815987684 L 967.0690816001152 68.3907481599017 L 966.9666816000245 71.25794815993868 L 966.7618816000759 75.96834815986222 L 966.4546816000366 93.78594815981342 L 966.3522816001205 99.00834815989947 L 966.3522816001205 102.18274815985933 L 966.249881600088 104.8451481598895 L 966.1474816000555 112.52514815994073 L 966.0450816000812 115.49474815989379 L 965.8402816000162 128.08994815993356 L 965.7378816001001 136.58914815995377 L 965.8402816000162 147.34114815993235 L 965.8402816000162 171.81474815995898 L 965.9426816000487 191.27074815996457 L 966.0450816000812 204.0707481598365 L 966.0450816000812 222.19554815994343 L 966.1474816000555 237.65794815996196 L 966.249881600088 255.57794815982925 L 967.1714816000313 281.2803481598967 L 967.2092559360899 298.5433333760011 L 967.2738816000638 328.0771481599659 L 967.7858816000517 341.6963481598068 L 974.0322816001135 538.509148159821 L 966.249881600088 537.3827481599292 L 963.1778816000442 537.0755481598317 L 959.7986816000193 536.4611481599277 L 956.6242816001177 535.3347481598612 L 952.9378816000535 532.877148159896 L 949.2514816001058 531.4435481598484 L 945.8722816000809 531.2387481598416 L 943.4146816000575 531.2387481598416 L 937.8850816000486 529.4979481598712 L 932.1506816000328 528.4739481598954 L 926.7265853441204 526.6318018558086 L 926.7265628160094 526.6289059839328 L 922.4218746880069 524.9921873918502 L 918.8359372800332 525.5039057919057 L 916.5859379200847 526.1171875838772 L 914.2343751680455 525.6054691838217 L 906.5468753920868 518.8476559359697 L 903.6796876800363 518.2343751678709 L 901.1250001920271 518.1328127998277 L 897.8437498880085 517.6210933758412 L 895.1875000320724 515.4687498238636 L 892.8281251841108 513.011719167931 L 889.4531246080878 512.0898437119322 L 885.9687495680992 504.3085936639691 L 881.8750003200839 494.88671846385114 L 882.7968747520354 490.89453158382094 L 889.0390620161197 478.6054686718853 L 880.1328128000605 475.7382809598348 L 874.1953126401058 475.94140671996865 L 869.0703124480788 476.25000038393773 L 863.3359370240942 467.85156300786184 L 860.2656245760736 464.6796871679835 L 854.4296878080349 463.9609374720021 L 846.3359375360305 461.71093708788976 L 843.6796876800945 460.277344255941 L 839.2734371840488 456.5898434558185 L 839.171874816122 453.8242191359168 L 839.374999552092 450.6484377598972 L 839.374999552092 445.42968729592394 L 838.8671877120505 441.3320314878365 L 831.898437632015 439.17968793585896 L 823.0937497600098 436.5195315199089 L 817.6640624640277 434.47265587194124 L 811.523437568103 435.187500031956 L 808.4531251200824 435.187500031956 L 805.8906245120452 434.87890636798693 L 801.1796879360918 434.87890636798693 L 797.0859376640874 433.34375014388934 L 793.7031249920256 433.6523438079166 L 790.7343749120482 432.832031743892 L 788.179687424039 429.76171827182407 L 788.4843745280523 426.6875002879533 L 787.2578129920876 423.105468415888 L 785.8203125760192 420.1367183360271 L 784.8984371200204 418.1874995199032 L 786.8437504001195 415.21875046391506 L 786.3359375360887 412.0468746238621 L 783.4687498240382 408.66406297602225 L 783.5703121920233 405.39062476792606 L 781.3124997121049 402.62500044802437 L 780.7031255040783 399.6562503679306 L 778.7578122240957 398.2226565119345 L 776.1953126400476 396.89062502392335 L 777.937495040067 394.6367303679581 L 782.1328128001187 393.2031252478482 L 786.6406246400438 391.97656268795254 L 791.3515622401028 391.0546872318373 L 796.4687503360328 388.90234367980156 L 799.1328122880077 386.753906687838 L 797.2890624000574 385.7265623039566 L 794.5234370560502 384.6015621119295 L 792.0703129600734 382.0429690879537 L 790.1249996800325 378.8671877119341 L 787.3593753600144 376.9218754558824 L 785.2031252480228 374.3632814078592 L 783.1562496000552 372.8242186239222 L 780.0859371520346 369.9570309118717 L 777.2187504640897 367.80859391990816 L 775.9921879040776 365.9648440318997 L 774.2500003841124 364.83984383987263 L 771.3828126720618 364.6328125438886 L 769.1328122880659 364.6328125438886 L 766.7734374400461 361.0507816959289 L 765.0312499200227 358.1835939838784 L 762.2656245760154 357.57031219190685 L 758.3750000640866 358.48828108783346 L 754.8984371200204 358.89843711984577 L 751.7187502080342 360.1289062399883 L 748.3437496320112 361.25390643184073 L 745.6796876800363 360.7421870078542 L 743.0156247040723 359.5156254718895 L 740.6640629760223 358.79687475180253 L 739.3281249281135 357.2617185279378 L 737.4921871360857 353.8828124158317 L 739.9453122560517 352.8593745918479 L 741.8906245120452 350.60546867200173 L 743.8359377920278 348.14843699196354 L 745.273437184107 345.89453107188456 L 748.3437496320112 344.7695308798575 L 750.6953123840503 341.90234419191256 L 748.7500001280569 339.6484372479608 L 747.0078126080916 338.0117186558782 L 744.4531251200824 336.269531135913 L 742.5078128640889 334.3242188798031 L 740.8671877120505 332.07031295995694 L 740.6640629760223 328.6914058238035 L 738.6171873280546 326.02734387188684 L 736.1562501120497 324.2890629119938 L 732.2656245760154 323.0585937918513 L 728.1718753280584 321.4218751999433 L 724.5859379200847 320.29296844784403 L 720.9999994881218 317.12109363189666 L 719.7734379520407 314.0468746239203 L 720.289062912052 312.20703129592584 L 720.9999994881218 310.26171903987415 L 722.1249996800907 307.69921843195334 L 720.9999994881218 305.44531251187436 L 718.7500001280569 304.21874995180406 L 715.7812500480795 301.9648440319579 L 713.3203128320747 300.6328125439468 L 711.2734371840488 299.8164060158888 L 708.2031247360283 298.38281215989264 L 704.5156249600695 295.8203125758446 L 701.3437501441222 294.08203161589336 L 698.6796871680417 292.2382817278849 L 696.9374996480765 290.29296844790224 L 694.6875002880697 288.8593745919061 L 693.3515622400446 285.7851566078025 L 692.8437504000613 282.20312473597005 L 693.2499998721178 278.7187496959814 L 691.1015628800378 276.57031270401785 L 688.0312504320173 275.5468748798012 L 684.1406248960993 275.03515647992026 L 679.835937792086 273.80468735983595 L 676.562499584048 275.44531251193257 L 673.6953128960449 277.5937495038961 L 670.3125002240995 279.2304691199097 L 667.3437501441222 280.8710932479589 L 663.3515622400446 280.3593748479034 L 659.0468751360313 278.20703129592584 L 656.179687424039 275.33984358387534 L 654.3359375360305 272.7812495359685 L 652.9062502400484 271.1445309438859 L 650.6562498560525 269.6054691838799 L 648.812499968044 267.24999987188494 L 648.609375232074 264.2812497918494 L 646.9687500800355 262.84765593596967 L 644.609375232074 261.1093749758438 L 642.359374848078 259.16015615995275 L 640.1015623681014 256.8085934079718 L 637.2421877760207 254.2460938238073 L 632.9374996480183 252.09765580791282 L 629.7656248320709 250.86718771187589 L 626.6953123840503 251.58593740785727 L 624.4374999040738 252.30078156793024 L 621.4687498240964 253.12109363195486 L 619.6249999360298 255.7812500478467 L 617.8828124160646 258.4453119998798 L 619.1171870720573 260.08203161589336 L 619.6249999360298 262.5429688318982 L 619.1171870720573 265.921874943946 L 617.1718748160638 268.17187532788375 L 615.5312496640254 270.7343749118736 L 615.4296872960986 273.29296895995503 L 616.6562498560525 278.20703129592584 L 616.2500003841124 282.61328076798236 L 612.9687500800937 284.66015641595004 L 609.79687526403 285.6835942399921 L 607.5390627840534 288.24218726396793 L 604.9843752960442 291.3164062719443 L 601.9140628480236 293.3632808958646 L 599.3515622401028 296.02734387200326 L 595.8671872001141 294.48828108789166 L 592.179687424039 293.3632808958646 L 589.1093749760184 292.33984409592813 L 587.7812500480795 289.98437478393316 L 586.1406248960411 288.1406248959247 L 583.0703124480206 286.29687500785803 L 578.0546877440065 285.99218790396117 L 574.6718750720611 286.1953126398148 L 570.6796871680999 286.5039063040167 L 568.0156252160086 288.24218726396793 L 565.6640624640859 289.3710940158344 L 560.7421870080288 289.98437478393316 L 557.7734379520407 290.5976565759047 L 554.3984373760177 291.10937497596024 L 547.3281249281135 293.0546872318373 L 545.0781245441176 294.48828108789166 L 543.546874880034 295.71875020780135 L 540.2656245760154 297.562500095868 L 534.53125017602 298.7890626559383 L 530.640624640102 299.4062499838765 L 526.2578124800348 298.99609395186417 L 523.7031249920256 301.35156223992817 L 522.5781248001149 304.8320317440084 L 524.2109378560563 309.44140595191857 L 527.6953128960449 312.71874969580676 L 529.3359370240942 315.89062451192876 L 528.2031247360283 318.8593745920225 L 529.7421875200234 321.6249999360298 L 531.8906245121034 322.9570314238081 L 534.1484369920217 324.49218764784746 L 536.2968750080327 326.2343751678709 L 539.6718745600083 326.84765593591146 L 543.3593753600726 328.5898434559349 L 542.1328128000605 330.738281472004 L 540.5937500160653 332.6835937278811 L 537.015624704014 333.9140628479654 L 536.1953126401058 338.0117186558782 L 538.4453120001126 339.44531251187436 L 539.5703121920233 341.7968752638553 L 536.6015621120459 344.4609372158884 L 534.2500003840541 346.9179688959266 L 532.3046871040715 350.0937502719462 L 529.023437824042 352.8593745918479 L 526.6718750721193 353.57421875186265 L 524.6250004480244 354.49609420786146 L 523.906249728112 357.05468723201193 L 521.0390620160615 359.61718783993274 L 520.3203123200219 362.3789066238678 L 520.7343749120482 365.4531246079132 L 516.9218754561152 364.12109414383303 L 513.7421875200816 362.07421849586535 L 512.109375488013 360.3359375359141 L 509.7734379520989 360.640624639811 L 506.28906291211024 362.1757808639086 L 503.6328120320686 363.40624998381827 L 494.8203120640828 366.06640639994293 L 497.0781245440594 368.93359411193524 L 499.42968729609856 370.16406220797217 L 501.9921879040194 373.6445317118196 L 504.65624985605245 376.4101560319541 L 507.2109373440617 378.25390591996256 L 509.05468723201193 382.453125119966 L 504.3437496320694 383.88671897602035 L 499.9453122561099 386.34374963195296 L 495.84374988806667 387.8789058558177 L 490.8281251840526 396.9921873919666 L 489.8046873600688 399.6562503679306 L 485.60937472002115 404.57031270390144 L 489.39843788801227 406.20703129580943 L 491.8515630080947 407.3359370238031 L 488.2734376960434 410.30468710383866 L 487.8593751040171 415.21875046391506 L 490.92968755203765 419.21484390395926 L 492.2656245760736 423.61718783987453 L 492.4687503360328 427.0976563199656 L 496.359374848078 429.35156223981176 L 501.1718748160638 431.80859391984995 L 504.7578122240375 433.6523438079166 L 509.16406272008317 436.1093754878966 L 510.5937500160071 439.07812454388477 L 508.42968780803494 441.43359385587974 L 506.18749952007784 441.3320314878365 L 503.1171870720573 442.76562534389086 L 502.29687500803266 446.6562498558196 L 504.3437496320694 447.9882813440054 L 508.3437496320694 448.6015621118713 L 512.0234373121057 449.21484390390106 L 515.8125004800968 449.4218751998269 L 518.5781248001149 449.52343756787013 L 520.7343749120482 450.0351559679257 L 523.4921871360275 451.16406271996675 L 526.6718750721193 453.0039060479612 L 529.023437824042 453.92578150396 L 531.9921879040194 455.3593753599562 L 535.8671872000559 456.2773442558828 L 538.6406246400438 453.7226557439426 L 543.6718745600083 453.8242191359168 L 544.281249792024 456.4882810879499 L 544.3828121600673 459.24999987188494 L 544.7968747520354 461.4023434239207 L 545.5078123520943 464.6796871679835 L 547.3515622400446 467.9570309118135 L 549.195312128053 469.5937495038961 L 544.992187392083 471.3320314879529 L 542.2109378560563 470.61718732793815 L 537.093749760068 469.90234419197077 L 532.8046878720634 469.2890623998246 L 529.1171870720573 469.90234419197077 L 526.2500003840541 469.4921871359111 L 523.906249728112 470.1054689278826 L 520.3125002240995 470.4140625918517 L 516.710937600059 470.0039065598394 L 514.2656245760736 468.98437529586954 L 511.8203125760192 469.79687526391353 L 508.64843776007183 472.4609372159466 L 506.4999997441191 474.20312473597005 L 502.4921876480221 475.2265625599539 L 496.84375040006125 474.3046871040133 L 494.79687475203536 471.7460940798628 L 493.6718745600083 467.5468748798012 L 492.1406248960993 465.6015626239241 L 489.9843747841078 464.2695311359712 L 486.60937523207394 462.0156252158922 L 482.3046871040715 460.7890626558219 L 477.5937495040125 460.58203135989606 L 473.5000002560555 459.5585935359122 L 470.9453127680463 457.8164060158888 L 466.84375040011946 455.7695313919685 L 463.57031219202327 453.4179686398711 L 458.78124953602673 454.33593753597233 L 454.06249984004535 456.1796874238062 L 448.92187545611523 455.4609377278248 L 444.6250004480826 452.2890629118774 L 440.2187499520369 452.1874995199032 L 435.101562880096 451.26562508783536 L 431.7187502080342 451.0585937919095 L 429.3671874561114 450.546875391854 L 427.2187504640897 449.52343756787013 L 425.06250035209814 447.88671897596214 L 421.6015626240405 447.67968767980346 L 418.02343731204746 449.0117191678146 L 410.0390625280561 455.25781299191294 L 407.9921879040776 456.7929692159523 L 405.1250001920271 457.4101565439487 L 402.66406297602225 459.0468751358567 L 399.2812503040768 460.7890626558219 L 395.1796879360336 461.71093708788976 L 395.1767910401104 461.7096867838991 L 392.0937502721208 460.3789066238096 L 388.10156236804323 459.96874956792453 L 384.21093785605626 459.0468751358567 L 381.2421877760207 458.84375039994484 L 377.3515622400446 458.7382814718876 L 374.2734376960434 458.12499967985786 L 370.8984371200786 457.8164060158888 L 367.41406208008993 457.4101565439487 L 363.3203128320747 455.97656268789433 L 359.32812492811354 455.0546872319537 L 355.02343782410026 455.8710937598371 L 350.42187468806515 457.60937471996294 L 346.82812518411083 456.5898434558185 L 342.73437491210643 455.0546872319537 L 337.41406208008993 454.33593753597233 L 333.2109373441199 453.21093734388705 L 330.3437496320694 452.5937500159489 L 326.8671877121087 451.0585937919095 L 324.51562496006954 448.71093759982614 L 317.24218777607894 454.43359334394336 L 302.9140623360872 450.34765619190875 L 301.46874982409645 453.4140620799735 L 299.7265623040148 456.5898434558185 L 298.19531264010584 459.7617182719405 L 295.42968729609856 462.4257812479045 L 292.46093721612124 464.78124953602673 L 290.3125002240413 467.5429683199618 L 286.00781209603883 467.33984358387534 L 283.3593753600144 467.33984358387534 L 280.6875002880697 467.03515647997847 L 277.50781235209433 467.6484372478444 L 275.15624960005516 468.26171596796485 L 271.1718748160638 468.0585932798567 L 265.6328120320686 469.08203110389877 L 261.9453122561099 470.0039065598394 L 259.0781245440594 470.5156249598949 L 254.7734374400461 472.9726566399331 L 249.65625036810525 476.0468746238039 L 245.96874956804095 478.29687500785803 L 244.02343731204746 483.4179686399875 L 240.5468753920868 483.7226557438844 L 235.82812467211625 481.98437478393316 L 231.12500019202707 482.49609420791967 L 228.14843699207995 485.16015615995275 L 226.10156236804323 486.38671871984843 L 223.85156300803646 487.00000051181996 L 219.3593753600726 487.61328127991874 L 214.53125017601997 486.79687475186074 L 210.9453127681045 485.3632808958646 L 207.99218790407758 485.16015615995275 L 203.57812531210948 485.4648432639078 L 199.68749977607513 486.898437119904 L 196.82031206402462 490.58593791985186 L 196.20312473608647 492.94140620797407 L 197.9453122560517 495.70703155192314 L 196.4062504960457 498.47265587188303 L 189.74999961606227 501.1328122879495 L 183.41406208008993 502.3593748478452 L 180.32812544004992 500.62109388789395 L 176.33593753608875 498.3671879678732 L 173.36718745605322 494.88671846385114 L 172.24218726402614 491.19921868795063 L 165.8906245121034 487.5156254719477 L 162.3046871040715 485.7734379519243 L 160.46093721606303 483.10937497596024 L 158.7265628160676 479.11718707188265 L 156.06249984010356 474.3046871040133 L 154.3203123200219 471.2343746558763 L 151.75781273609027 468.26171903987415 L 147.96874956809916 465.70312499196734 L 146.74218700808706 462.4257812479045 L 142.75000012811506 460.48046899185283 L 139.16406272008317 458.63671910384437 L 137.3203128320747 452.39062527986243 L 136.71093760011718 448.3984373760177 L 134.65624985611066 445.6328120320104 L 132.60937523207394 446.4531251199078 L 128.61718732811278 447.67968767980346 L 125.23437465605093 448.7031255038455 L 120.64062464004382 448.9101557758404 L 114.38281216006726 446.4531251199078 L 110.60937523207394 446.0429690878955 L 107.92968704004306 448.191406079859 L 105.6796876800945 451.26562508783536 L 101.68749977601692 452.6992189438897 L 99.33593702403596 453.3124997119303 L 96.15625011210795 453.5156254719477 L 93.4921871360275 453.7226557439426 L 90.72656281600939 453.92578150396 L 86.23437516804552 454.33593753597233 L 82.02343731204746 453.109374975902 L 78.96093798405491 452.902343679918 L 75.98437478404958 453.21093734388705 L 73.73437542410102 452.902343679918 L 70.359374848078 453.0039060479612 L 67.1796879360918 452.5976565758465 L 64.7187496960978 452.902343679918 L 60.625000448082574 453.92578150396 L 55.60937472007936 453.8242191359168 L 53.367187456111424 453.8242191359168 L 52.22656204801751 455.566406655882 L 50.89843712002039 459.0468751358567 L 47.62499993602978 461.5039057919639 L 39.33593702403596 460.89062502386514 L 37.68749977607513 466.21484339184826 L 32.671875072061084 467.03515647997847 L 30.625000448082574 470.824218623864 L 26.218749952095095 474.1015623679268 L 21.921874944120646 475.12109363189666 L 19.664062464085873 474.40625049592927 L 16.593750016065314 474.0976558078546 L 12.195312640047632 473.79296870395774 L 8.195312640047632 474.20312473597005 L 5.335937024094164 475.52734412794234 L 0.0 473.6759802386514" fill="none"/><path stroke="#000000" stroke-width="2" d="M 975.4611822516017 1024.0 L 973.7265623040148 1003.4062499839347 L 973.9296870400431 995.4179686399293 L 973.9296870400431 992.2421872639679 L 974.0312504320173 978.8281251839362 L 974.0312504320173 962.2382817279431 L 974.2343751680455 959.5781253119349 L 974.2343751680455 928.550780927937 L 974.3359375360305 915.4453125119326 L 974.3359375360305 907.0468751359731 L 973.7265623040148 896.0898437119322 L 973.7265623040148 891.4804684799747 L 973.725081600016 891.4803896319354 L 973.725081600016 799.0147481599706 L 973.5202816000092 767.8851481599268 L 973.5202816000092 753.2419481599354 L 973.3154816000606 750.6819481599377 L 973.3154816000606 747.6099481599522 L 973.2130816000281 698.2531481599435 L 973.1106816000538 687.7059481599717 L 973.1106816000538 661.90114815993 L 973.6226816000417 640.0899481599336 L 973.6226816000417 608.9603481599479 L 973.5202816000092 593.907548159943 L 973.5202816000092 584.6915481599281 L 973.725081600016 576.3971481599729 L 973.8274816000485 553.6643481599167 L 973.9329372160137 545.8606233599712 L 974.0322816000553 538.5091481599375 L 967.7858816000517 341.6963481599232 L 967.2738816000638 328.0771481599659 L 967.2092559360317 298.5433333759429 L 967.1714816000313 281.2803481599549 L 966.2498816000298 255.57794815994566 L 966.1474816000555 237.65794815996196 L 966.045081600023 222.19554815994343 L 966.045081600023 204.07074815995293 L 965.9426816000487 191.27074815996457 L 965.8402816000162 171.81474815995898 L 965.8402816000162 147.34114815993235 L 965.7378816000419 136.58914815995377 L 965.8402816000162 128.08994815993356 L 966.045081600023 115.494748159952 L 966.1474816000555 112.52514815994073 L 966.2498816000298 104.84514815994771 L 966.3522816000623 102.18274815991754 L 966.3522816000623 99.00834815995768 L 966.4546816000366 93.78594815992983 L 966.7618816000177 75.96834815992042 L 966.9666816000245 71.25794815993868 L 967.069081600057 68.39074815995991 L 966.4546816000366 65.01154815993505 L 966.5570816000109 57.74114815995563 L 966.6594816000434 48.62754815997323 L 966.7618816000177 45.45314815995516 L 966.963647488039 29.59434137592325 L 967.2738816000638 5.209948159928899 L 967.9136997951427 0.0" fill="none"/></svg>