<svg xmlns="http://www.w3.org/2000/svg" width="1024" height="1024"><rect stroke="none" x="0" y="0" width="1024" height="1024" fill="white"/><path stroke="#000000" stroke-width="2" d="M 478.92968755203765 0.0 L 478.92968755203765 0.8085934079717845 L 478.8281251840526 5.8242191359749995 L 478.7265628160094 12.992187391966581 L 478.51562496001134 22.31250022392487 L 478.51562496001134 25.691406335972715 L 478.4140625920263 30.29687500797445 L 478.4140625920263 53.234374655934516 L 478.51562496001134 64.4999997439445 L 478.3125002240413 77.60546918393811 L 478.3125002240413 82.52343705593375 L 478.21093785605626 88.25781247991836 L 478.21093785605626 91.83984332793625 L 478.10937548801303 97.16406271996675 L 478.10937548801303 108.01953075197525 L 478.00781209603883 113.85546854394488 L 478.00781209603883 119.69140633597272 L 477.9062497280538 127.98828134394716 L 477.9062497280538 131.05859379196772 L 478.00781209603883 134.2343751679291 L 478.00781209603883 150.10546892794082 L 478.10937548801303 171.40624998393469 L 478.10937548801303 223.52734412794234 L 478.21093785605626 231.10546841594623 L 478.21093785605626 260.5937500159489 L 478.3125002240413 274.4179691519239 L 478.3125002240413 293.8750003199675 L 478.4140625920263 299.30468761594966 L 478.4140625920263 321.6249999359716 L 478.51562496001134 333.5039057919639 L 478.51562496001134 345.89453107194277 L 478.61718732805457 353.4726563839358 L 478.62500044802437 357.57031219196506 L 478.8281251840526 362.6875002879533 L 478.8281251840526 365.1445309439441 L 478.92968755203765 372.62109388795216 L 478.92968755203765 376.1015623679268 L 479.0312499200227 383.98828134394716 L 478.92968755203765 387.2656250879518 L 479.0312499200227 391.25781299197115 L 479.64843724801904 402.11328102392145 L 479.1328122880659 416.8593745919643 L 479.1328122880659 432.11718758393545 L 479.23437465605093 438.97656217595795 L 479.23437465605093 462.3242188799195 L 479.33593702403596 464.98437529592775 L 479.33593702403596 476.14843699196354 L 479.23437465605093 483.8281246719416 L 479.33593702403596 487.820312575961 L 479.33593702403596 502.97656217595795 L 479.43750041601015 508.8124999679276 L 479.5390627840534 512.7031255039619 L 479.5390627840534 516.5937500159489 L 479.64843724801904 520.4882810879499 L 479.5390627840534 524.8906250239233 L 479.5390627840534 535.640625151922 L 479.64843724801904 539.4296872959239 L 479.64843724801904 546.5976565759629 L 479.74999961606227 563.289062399941 L 479.74999961606227 567.285155839927 L 479.85156300803646 575.9882813439472 L 479.85156300803646 639.3749995519174 L 479.5390627840534 644.0820316159516 L 479.5390627840534 658.5234370559338 L 478.92968755203765 667.3281249279389 L 474.42187468806515 663.8476564479643 L 471.554688000062 662.7187496959232 L 467.8671872000559 662.5156249599531 L 464.9999994880636 663.437500415952 L 462.6484377600136 665.6914063359727 L 461.10937497601844 669.1718748159474 L 459.6796876800363 673.3710940159508 L 456.29687500803266 675.3164062719443 L 452.921875456057 676.5429688319564 L 448.921875456057 676.9531248639687 L 444.3203123200219 676.1367183359689 L 438.89062502403976 674.3945308159455 L 435.3046876160661 674.4960942079197 L 431.8203125760192 675.5195310079725 L 425.06250035203993 678.5937500159489 L 421.48437504004687 681.5625000959262 L 418.7187496960396 684.8398438399308 L 412.98437529604416 694.2578124799184 L 408.89062502403976 697.8437498879503 L 405.60937472002115 702.7578122239211 L 403.56250009604264 705.4218751999433 L 401.51562547206413 706.445311999938 L 396.70312550402014 707.9804692479665 L 391.57812531205127 708.4921876479639 L 388.3046871040133 710.3359375359723 L 388.20312473602826 713.3046876159497 L 390.7656253440655 715.2499998719431 L 394.7578122240375 715.7617182719405 L 399.15624960005516 714.5351567359176 L 401.8203125760192 713.816406015947 L 404.78906265605474 713.714843647962 L 410.9374996480183 716.5820313599543 L 412.2656245760154 719.6562503679306 L 409.70312499202555 723.3398435839335 L 403.96874956804095 727.746094079921 L 400.078125056054 731.4296872959239 L 399.25781299202936 735.0156247039558 L 400.4921876480221 739.4179686399293 L 403.15624960005516 741.3632808959228 L 407.75781273603207 743.2070307839313 L 404.07031296001514 754.7773439999437 L 404.9921873920248 757.746094079921 L 409.0937497600098 761.7421875199652 L 411.546874880034 763.7890621439437 L 413.9062497280538 767.3749995519174 L 416.57031270401785 770.445311999938 L 419.1250001920271 770.6484377599554 L 421.9921879040194 769.011719167931 L 425.2734371840488 764.3007815679302 L 428.8515624960419 762.7656253439491 L 433.05468723201193 762.1523435519193 L 435.7187502080342 762.558594047965 L 438.2734376960434 764.5078128639725 L 438.78906265605474 767.4765629439498 L 437.96874956804095 769.7265623039566 L 435.7187502080342 771.7773434879491 L 432.2343751680455 772.902343679918 L 431.3124997120467 775.6679690239253 L 432.5390622720588 779.0468751359731 L 434.5859379200265 789.183593471942 L 435.60937472002115 794.7148441599566 L 435.61718784004916 800.347656191967 L 434.5859379200265 805.0546872319537 L 433.15624960005516 807.820312575961 L 429.7734379520407 810.5859379199683 L 427.1171870720573 812.3281254399335 L 424.9609379840549 813.7617182719405 L 424.1406248960411 815.8085939199664 L 424.25000038405415 818.7773439999437 L 421.2734371840488 821.4414059519186 L 415.5390627840534 824.4101560319541 L 408.78124953602673 826.3554682879476 L 406.2265620480175 829.1210936319549 L 403.7656248320127 834.0351559679257 L 400.4921876480221 835.2656250879518 L 396.1874995200196 835.3671874559368 L 392.914062336029 833.7265623039566 L 389.02343782404205 834.2421872639679 L 387.6874997760169 837.7226557439426 L 387.6874997760169 840.7929692159523 L 388.3046871040133 844.9921873919666 L 389.02343782404205 848.2695311359712 L 384.7187496960396 850.5234370559338 L 380.2187499520369 850.9296875519212 L 374.9921873920248 850.9296875519212 L 371.5078123520361 851.3398435839335 L 368.74218700802885 852.8789063679287 L 367.10937497601844 855.539062783937 L 366.4921876480221 858.20312473597 L 367.7187502080342 860.1484369919635 L 371.20312524802284 861.1718748159474 L 373.96874956804095 861.9921879039612 L 379.0859376640292 862.6054686719435 L 380.7265628160094 865.8828124159481 L 377.9609374720603 867.2148439039593 L 373.7656248320127 866.0859371519182 L 370.4843745280523 863.1171870719409 L 366.5937500160653 863.1171870719409 L 364.4453120000544 865.0625003519235 L 361.1718748160638 867.3164062719443 L 358.3046871040133 868.7500001279404 L 356.14843699202174 870.3867187199648 L 355.02343782404205 873.1523440639721 L 355.1250001920271 875.710937087948 L 354.20312473602826 877.8632816639729 L 349.5937495040125 883.4960936959251 L 351.74999961606227 887.285155839927 L 357.6874997760169 890.1523435519193 L 361.37499955203384 890.7656253439491 L 364.5468753920286 891.8906245119288 L 366.39062528003706 894.9648435199633 L 366.9062502400484 897.9335935999407 L 370.5859379200265 897.7265623039566 L 374.6875002880115 899.4687498239218 L 376.53125017601997 903.1562495999387 L 374.9921873920248 905.816406015947 L 372.42968780803494 906.9453127679299 L 369.3593753600144 906.9453127679299 L 363.92968704004306 906.023437311931 L 360.25000038405415 905.4101565439487 L 357.6874997760169 904.7929692159523 L 355.6406251520384 906.2265620479593 L 353.79687526402995 908.378906623926 L 353.4921871360275 911.3476567039615 L 355.1250001920271 914.1132810239214 L 357.1718748160638 915.6484372479608 L 360.3515627520392 916.8789063679287 L 363.92968704004306 917.082031103957 L 367.3124997120467 916.0585932799731 L 370.8984371200204 915.6484372479608 L 375.0937497600098 916.2617190399324 L 380.21093785605626 916.980468735972 L 384.8203120640246 917.082031103957 L 389.5312496640254 917.082031103957 L 393.93750016001286 918.5156249599531 L 395.3671874560532 921.2812503039604 L 394.34374963201117 924.8632811519201 L 390.8671877120505 928.0390625279397 L 388.60937523201574 930.906250239932 L 388.3046871040133 933.9765626879525 L 390.5546874880092 936.9492183039547 L 394.1406248960411 939.816406015947 L 398.03125043201726 940.8398438399308 L 402.33593753603054 940.8398438399308 L 406.01562521606684 940.5312501759618 L 408.47656243201345 940.6328125439468 L 412.6718750720611 942.167968767928 L 415.74999961606227 945.0390620159451 L 417.1796879360336 947.4960936959251 L 419.32812492805533 949.644531711936 L 423.2187504640315 951.8984376319568 L 426.4999997440609 954.4570316799218 L 429.06250035203993 957.5312496639672 L 432.33593753603054 961.5234375679283 L 435.92187494406244 964.0820316159516 L 437.96874956804095 966.2343751679291 L 438.3750000640284 970.023437311931 L 437.66406246402767 972.8906250239233 L 435.5078123520361 975.9609374719439 L 433.25781299202936 977.9062497279374 L 431.3124997120467 979.4453125119326 L 429.9843747840496 982.9257809919654 L 432.5390622720588 986.5078128639725 L 434.69531238405034 988.558594047965 L 439.60937472002115 998.3867187199648 L 440.7343749120482 1002.3828121599508 L 440.01562521606684 1006.273437695927 L 438.3750000640284 1011.187500031956 L 436.84375040006125 1014.2578124799184 L 434.4843745280523 1017.4335938559379 L 432.8515624960419 1019.5859374079737 L 431.2109373440617 1021.6328120319522 L 431.63785221891885 1024.0" fill="none"/><path stroke="#000000" stroke-width="2" d="M 431.63785221891885 1024.0 L 431.2109373440617 1021.6328120319522 L 432.8515624960419 1019.5859374079737 L 434.4843745280523 1017.4335938559379 L 436.84375040006125 1014.2578124799184 L 438.3750000640284 1011.187500031956 L 440.01562521606684 1006.273437695927 L 440.7343749120482 1002.3828121599508 L 439.60937472002115 998.3867187199648 L 434.69531238405034 988.558594047965 L 432.5390622720588 986.5078128639725 L 429.9843747840496 982.9257809919654 L 431.3124997120467 979.4453125119326 L 433.25781299202936 977.9062497279374 L 435.5078123520361 975.9609374719439 L 437.66406246402767 972.8906250239233 L 438.3750000640284 970.023437311931 L 437.96874956804095 966.2343751679291 L 435.92187494406244 964.0820316159516 L 432.33593753603054 961.5234375679283 L 429.06250035203993 957.5312496639672 L 426.4999997440609 954.4570316799218 L 423.2187504640315 951.8984376319568 L 419.32812492805533 949.644531711936 L 417.1796879360336 947.4960936959251 L 415.74999961606227 945.0390620159451 L 412.6718750720611 942.167968767928 L 408.47656243201345 940.6328125439468 L 406.01562521606684 940.5312501759618 L 402.33593753603054 940.8398438399308 L 398.03125043201726 940.8398438399308 L 394.1406248960411 939.816406015947 L 390.5546874880092 936.9492183039547 L 388.3046871040133 933.9765626879525 L 388.60937523201574 930.906250239932 L 390.8671877120505 928.0390625279397 L 394.34374963201117 924.8632811519201 L 395.3671874560532 921.2812503039604 L 393.93750016001286 918.5156249599531 L 389.5312496640254 917.082031103957 L 384.8203120640246 917.082031103957 L 380.21093785605626 916.980468735972 L 375.0937497600098 916.2617190399324 L 370.8984371200204 915.6484372479608 L 367.3124997120467 916.0585932799731 L 363.92968704004306 917.082031103957 L 360.3515627520392 916.8789063679287 L 357.1718748160638 915.6484372479608 L 355.1250001920271 914.1132810239214 L 353.4921871360275 911.3476567039615 L 353.79687526402995 908.378906623926 L 355.6406251520384 906.2265620479593 L 357.6874997760169 904.7929692159523 L 360.25000038405415 905.4101565439487 L 363.92968704004306 906.023437311931 L 369.3593753600144 906.9453127679299 L 372.42968780803494 906.9453127679299 L 374.9921873920248 905.816406015947 L 376.53125017601997 903.1562495999387 L 374.6875002880115 899.4687498239218 L 370.5859379200265 897.7265623039566 L 366.9062502400484 897.9335935999407 L 366.39062528003706 894.9648435199633 L 364.5468753920286 891.8906245119288 L 361.37499955203384 890.7656253439491 L 357.6874997760169 890.1523435519193 L 351.74999961606227 887.285155839927 L 349.5937495040125 883.4960936959251 L 354.20312473602826 877.8632816639729 L 355.1250001920271 875.710937087948 L 355.02343782404205 873.1523440639721 L 356.14843699202174 870.3867187199648 L 358.3046871040133 868.7500001279404 L 361.1718748160638 867.3164062719443 L 364.4453120000544 865.0625003519235 L 366.5937500160653 863.1171870719409 L 370.4843745280523 863.1171870719409 L 373.7656248320127 866.0859371519182 L 377.9609374720603 867.2148439039593 L 380.7265628160094 865.8828124159481 L 379.0859376640292 862.6054686719435 L 373.96874956804095 861.9921879039612 L 371.20312524802284 861.1718748159474 L 367.7187502080342 860.1484369919635 L 366.4921876480221 858.20312473597 L 367.10937497601844 855.539062783937 L 368.74218700802885 852.8789063679287 L 371.5078123520361 851.3398435839335 L 374.9921873920248 850.9296875519212 L 380.2187499520369 850.9296875519212 L 384.7187496960396 850.5234370559338 L 389.02343782404205 848.2695311359712 L 388.3046871040133 844.9921873919666 L 387.6874997760169 840.7929692159523 L 387.6874997760169 837.7226557439426 L 389.02343782404205 834.2421872639679 L 392.914062336029 833.7265623039566 L 396.1874995200196 835.3671874559368 L 400.4921876480221 835.2656250879518 L 403.7656248320127 834.0351559679257 L 406.2265620480175 829.1210936319549 L 408.78124953602673 826.3554682879476 L 415.5390627840534 824.4101560319541 L 421.2734371840488 821.4414059519186 L 424.25000038405415 818.7773439999437 L 424.1406248960411 815.8085939199664 L 424.9609379840549 813.7617182719405 L 427.1171870720573 812.3281254399335 L 429.7734379520407 810.5859379199683 L 433.15624960005516 807.820312575961 L 434.5859379200265 805.0546872319537 L 435.61718784004916 800.347656191967 L 435.60937472002115 794.7148441599566 L 434.5859379200265 789.183593471942 L 432.5390622720588 779.0468751359731 L 431.3124997120467 775.6679690239253 L 432.2343751680455 772.902343679918 L 435.7187502080342 771.7773434879491 L 437.96874956804095 769.7265623039566 L 438.78906265605474 767.4765629439498 L 438.2734376960434 764.5078128639725 L 435.7187502080342 762.558594047965 L 433.05468723201193 762.1523435519193 L 428.8515624960419 762.7656253439491 L 425.2734371840488 764.3007815679302 L 421.9921879040194 769.011719167931 L 419.1250001920271 770.6484377599554 L 416.57031270401785 770.445311999938 L 413.9062497280538 767.3749995519174 L 411.546874880034 763.7890621439437 L 409.0937497600098 761.7421875199652 L 404.9921873920248 757.746094079921 L 404.07031296001514 754.7773439999437 L 407.75781273603207 743.2070307839313 L 403.15624960005516 741.3632808959228 L 400.4921876480221 739.4179686399293 L 399.25781299202936 735.0156247039558 L 400.078125056054 731.4296872959239 L 403.96874956804095 727.746094079921 L 409.70312499202555 723.3398435839335 L 412.2656245760154 719.6562503679306 L 410.9374996480183 716.5820313599543 L 404.78906265605474 713.714843647962 L 401.8203125760192 713.816406015947 L 399.15624960005516 714.5351567359176 L 394.7578122240375 715.7617182719405 L 390.7656253440655 715.2499998719431 L 388.20312473602826 713.3046876159497 L 388.3046871040133 710.3359375359723 L 391.57812531205127 708.4921876479639 L 396.70312550402014 707.9804692479665 L 401.51562547206413 706.445311999938 L 403.56250009604264 705.4218751999433 L 405.60937472002115 702.7578122239211 L 408.89062502403976 697.8437498879503 L 412.98437529604416 694.2578124799184 L 418.7187496960396 684.8398438399308 L 421.48437504004687 681.5625000959262 L 425.06250035203993 678.5937500159489 L 431.8203125760192 675.5195310079725 L 435.3046876160661 674.4960942079197 L 438.89062502403976 674.3945308159455 L 444.3203123200219 676.1367183359689 L 448.921875456057 676.9531248639687 L 452.921875456057 676.5429688319564 L 456.29687500803266 675.3164062719443 L 459.6796876800363 673.3710940159508 L 461.10937497601844 669.1718748159474 L 462.6484377600136 665.6914063359727 L 464.9999994880636 663.437500415952 L 467.8671872000559 662.5156249599531 L 471.554688000062 662.7187496959232 L 474.42187468806515 663.8476564479643 L 478.92968755203765 667.3281249279389 L 479.5390627840534 658.5234370559338 L 479.5390627840534 644.0820316159516 L 479.85156300803646 639.3749995519174 L 479.85156300803646 575.9882813439472 L 479.74999961606227 567.285155839927 L 479.74999961606227 563.289062399941 L 479.64843724801904 546.5976565759629 L 479.64843724801904 539.4296872959239 L 479.5390627840534 535.640625151922 L 479.5390627840534 524.8906250239233 L 479.64843724801904 520.4882810879499 L 479.5390627840534 516.5937500159489 L 479.5390627840534 512.7031255039619 L 479.43750041601015 508.8124999679276 L 479.33593702403596 502.97656217595795 L 479.33593702403596 487.820312575961 L 479.23437465605093 483.8281246719416 L 479.33593702403596 476.14843699196354 L 479.33593702403596 464.98437529592775 L 479.23437465605093 462.3242188799195 L 479.23437465605093 438.97656217595795 L 479.1328122880659 432.11718758393545 L 479.1328122880659 416.8593745919643 L 479.64843724801904 402.11328102392145 L 479.0312499200227 391.25781299197115 L 478.92968755203765 387.2656250879518 L 479.0312499200227 383.98828134394716 L 478.92968755203765 376.1015623679268 L 478.92968755203765 372.62109388795216 L 478.8281251840526 365.1445309439441 L 478.8281251840526 362.6875002879533 L 478.62500044802437 357.57031219196506 L 478.61718732805457 353.4726563839358 L 478.51562496001134 345.89453107194277 L 478.51562496001134 333.5039057919639 L 478.4140625920263 321.6249999359716 L 478.4140625920263 299.30468761594966 L 478.3125002240413 293.8750003199675 L 478.3125002240413 274.4179691519239 L 478.21093785605626 260.5937500159489 L 478.21093785605626 231.10546841594623 L 478.10937548801303 223.52734412794234 L 478.10937548801303 171.40624998393469 L 478.00781209603883 150.10546892794082 L 478.00781209603883 134.2343751679291 L 477.9062497280538 131.05859379196772 L 477.9062497280538 127.98828134394716 L 478.00781209603883 119.69140633597272 L 478.00781209603883 113.85546854394488 L 478.10937548801303 108.01953075197525 L 478.10937548801303 97.16406271996675 L 478.21093785605626 91.83984332793625 L 478.21093785605626 88.25781247991836 L 478.3125002240413 82.52343705593375 L 478.3125002240413 77.60546918393811 L 478.51562496001134 64.4999997439445 L 478.4140625920263 53.234374655934516 L 478.4140625920263 30.29687500797445 L 478.51562496001134 25.691406335972715 L 478.51562496001134 22.31250022392487 L 478.7265628160094 12.992187391966581 L 478.8281251840526 5.8242191359749995 L 478.92968755203765 0.8085934079717845 L 478.92968755203765 0.0" fill="none"/><path stroke="#408040" stroke-width="3" d="M 1024.0 526.438217271665 L 994.8467200000014 541.7164800000028 L 967.0656000000017 546.7136000000028 L 940.1651200000051 552.2841600000029 L 917.8111999999965 559.9129600000015 L 908.072960000005 563.5379200000025 L 877.1584000000003 563.261440000002 L 846.3974400000006 562.4115200000015 L 836.761599999998 562.1555200000003 L 820.0703999999969 562.8415999999997 L 809.1443200000067 566.9375999999975 L 797.02016 567.3369600000005 L 766.9555200000032 567.3881600000022 L 748.2777599999972 569.5078399999984 L 735.4879999999976 574.1977600000027 L 717.7420799999963 582.4409599999999 L 702.7712000000029 583.1270399999994 L 667.1052800000034 582.8096000000005 L 623.6774399999995 582.1030400000018 L 602.593280000001 582.7481600000028 L 592.6092800000042 581.9187200000015 L 581.5910399999993 575.9283199999991 L 573.4502400000056 568.3097599999965 L 566.7839999999997 564.6848000000027 L 547.624960000001 564.5311999999976 L 532.5823999999993 565.6166400000002 L 518.1849599999987 568.678399999997 L 492.33920000000217 574.2079999999987 L 474.69568000000436 578.1913599999971 L 467.36384000000544 583.1679999999978 L 458.4959999999992 586.9055999999982 L 446.627840000001 584.5811200000026 L 437.534719999996 584.9907200000016 L 428.1753599999938 587.5507199999993 L 417.91487999999663 587.9705600000016 L 391.95647999999346 588.3289599999989 L 373.56544000000576 592.0563200000033 L 342.6611200000043 591.7695999999996 L 331.08991999999853 590.745600000002 L 321.607680000001 591.1859200000035 L 302.8275200000062 593.7459200000012 L 294.1849599999987 596.162559999997 L 279.7465599999996 604.784639999998 L 272.5068800000008 608.7679999999964 L 263.6697600000043 611.2563200000004 L 245.06368000000657 612.0652800000025 L 226.62144000000262 616.7244799999971 L 196.096000000005 625.1929600000003 L 187.49439999999595 627.5788800000009 L 167.8335999999981 634.6751999999979 L 159.82592000000295 638.7916800000021 L 135.81312000000617 651.1820799999987 L 95.59040000000095 663.9923199999976 L 67.28703999999561 672.4505599999975 L 44.60543999999936 681.2876800000013 L 32.58367999999609 689.8176000000021 L 9.738240000006044 697.0368000000017 L 0.0 700.7452064212484" fill="none"/></svg>