<svg xmlns="http://www.w3.org/2000/svg" width="1024" height="1024"><rect stroke="none" x="0" y="0" width="1024" height="1024" fill="white"/><path stroke="#000000" stroke-width="2" d="M 1024.0 996.9757749671262 L 1020.3203123200219 994.804687871947 L 1015.8125004800386 993.6757811199641 L 1011.9218749440624 993.3710940159508 L 1008.4374999040156 993.1640627199668 L 1003.7265623040148 993.3710940159508 L 999.5312496640254 994.1874995199614 L 996.460937216063 994.804687871947 L 993.5937495040125 995.6210933759576 L 989.8046873600106 996.8515624959255 L 986.4218746880651 998.4882810879499 L 984.2734376960434 1000.8437503999448 L 982.8359372800332 1003.0976563199656 L 981.4062499840511 1005.9648440319579 L 980.4843745280523 1009.7539061759599 L 978.6406246400438 1015.285155839927 L 978.0234373120475 1018.0468746239203 L 976.6953123840503 1021.0195312639698 L 974.9793894881004 1024.0" fill="none"/><path stroke="#000000" stroke-width="2" d="M 974.9793894881004 1024.0 L 976.6953123840503 1021.0195312639698 L 978.0234373120475 1018.0468746239203 L 978.6406246400438 1015.285155839927 L 980.4843745280523 1009.7539061759599 L 981.4062499840511 1005.9648440319579 L 982.8359372800332 1003.0976563199656 L 984.2734376960434 1000.8437503999448 L 986.4218746880651 998.4882810879499 L 989.8046873600106 996.8515624959255 L 993.5937495040125 995.6210933759576 L 996.460937216063 994.804687871947 L 999.5312496640254 994.1874995199614 L 1003.7265623040148 993.3710940159508 L 1008.4374999040156 993.1640627199668 L 1011.9218749440624 993.3710940159508 L 1015.8125004800386 993.6757811199641 L 1020.3203123200219 994.804687871947 L 1024.0 996.9757749671262" fill="none"/><path stroke="#408040" stroke-width="3" d="M 1024.0 54.87047365363105 L 1015.4496000000072 55.674879999998666 L 957.1635200000019 53.27872000000207 L 850.0019199999952 50.749439999999595 L 798.6073599999945 53.62688000000344 L 752.1177599999937 64.98303999999916 L 634.0198399999936 59.105280000003404 L 443.81183999999485 57.63072000000102 L 320.0512000000017 52.12159999999858 L 269.9571200000064 49.51039999999921 L 239.93343999999342 60.86656000000221 L 202.3423999999941 70.28736000000208 L 152.48384000000078 67.52255999999761 L 86.476800000004 69.83679999999731 L 64.1024000000034 62.92480000000069 L 53.23776000000362 48.02560000000085 L 0.0 47.89351822692697" fill="none"/><path stroke="#408040" stroke-width="3" d="M 2.355200000005425 39.72095999999874 L 3.1641600000002654 43.91935999999987 L 3.6864000000059605 46.66367999999784 L 3.72736000000441 47.38047999999981 L 3.491840000002412 47.472639999999956 L 2.785279999996419 47.656960000000254 L 1.2697599999955855 47.943679999996675 L 0.0 47.94922480349487" fill="none"/></svg>