<svg xmlns="http://www.w3.org/2000/svg" width="1024" height="1024"><rect stroke="none" x="0" y="0" width="1024" height="1024" fill="white"/><path stroke="#000000" stroke-width="2" d="M 0.0 356.6910334926506 L 15.87500032002572 359.9218749438878 L 18.94531276804628 359.71875020780135 L 22.531250176136382 359.10546841600444 L 48.03125043207547 351.52734412794234 L 57.34375014400575 351.8359377919696 L 86.1218816000619 367.29634815995814 L 88.57812480011489 368.628905983991 L 106.90625024016481 365.6562503679306 L 116.02343731210567 359.10546841600444 L 126.77343744016252 351.4257817599573 L 132.60937523201574 347.2265625598957 L 147.7656248320127 336.3710935039562 L 168.14843699202174 331.8671871998231 L 182.1718753281748 328.7929692159523 L 216.17187532811658 321.3203128319001 L 254.7734374400461 309.1328122879495 L 282.42187468812335 300.632812544005 L 297.7812500480213 296.43749990384094 L 314.6796871680417 291.8281246718252 L 318.0546877440065 291.0078126078006 L 338.43749990401557 276.7734374399297 L 355.0246440960909 269.3000652799383 L 357.78906214417657 267.66015590395546 L 373.66406246402767 260.2890629118774 L 382.7734374400461 259.87890585593414 L 418.61718732805457 259.57031219196506 L 451.0781245440594 267.96874956792453 L 457.42187520005973 272.6796871678089 L 485.07031244807877 293.67187455983367 L 489.6796876800363 297.1523440638557 L 505.9609374720603 307.1875000318978 L 510.7734374401043 308.31250022392487 L 530.0234373120475 312.9218754559988 L 549.5859374080319 311.6914063358563 L 552.1406248960411 311.48828159994446 L 565.3515622401028 310.66796851181425 L 611.023437824042 307.90234419191256 L 638.7734374400461 303.39843788801227 L 648.7109376001172 301.9648440319579 L 662.7343749121064 299.71093708783155 L 665.195312128053 299.4062499839347 L 669.4921871360857 298.7890626559383 L 672.6718750720611 298.2773442558828 L 676.0468746240949 297.7656248319545 L 678.3046871040715 297.4609377278248 L 681.2734371840488 296.84375039988663 L 684.2421872640261 296.33203097595833 L 688.0312504321337 295.8203125759028 L 692.53125017602 295.00000051187817 L 699.3984378880705 293.3632808958646 L 721.2031252480228 288.4492185598938 L 727.3515622400446 286.8085934079718 L 731.8593751040753 285.88671897590393 L 735.6484372480772 285.3749995519174 L 738.1015623680432 285.17187481583096 L 740.9687500800937 284.76171878381865 L 746.9062502400484 284.558594047965 L 751.7187502080342 284.25000038399594 L 754.4843745280523 284.1484369918471 L 757.7656248320709 283.83984332787804 L 761.3515622401028 283.6367185919662 L 765.2421877760207 283.42968729586573 L 802.3046871040715 280.9726566399331 L 807.8359377921443 280.66406297596404 L 828.3125002240995 262.6445311999414 L 835.5859374080901 256.191406079859 L 849.4140620800899 243.80078079988016 L 879.2109373441199 232.33203097601654 L 894.7734374401043 229.57031219184864 L 952.1171875841101 220.0468746238621 L 969.3203128320165 213.39062476792606 L 1023.6953128960449 192.29687500785803 L 1024.0 192.18941153008927" fill="none"/><path stroke="#000000" stroke-width="2" d="M 1024.0 192.18941153008927 L 1023.6953128960449 192.29687500785803 L 969.3203128320165 213.39062476792606 L 952.1171875841101 220.0468746238621 L 894.7734374401043 229.57031219184864 L 879.2109373441199 232.33203097601654 L 849.4140620800899 243.80078079988016 L 835.5859374080901 256.191406079859 L 828.3125002240995 262.6445311999414 L 807.8359377921443 280.66406297596404 L 802.3046871040715 280.9726566399331 L 765.2421877760207 283.42968729586573 L 761.3515622401028 283.6367185919662 L 757.7656248320709 283.83984332787804 L 754.4843745280523 284.1484369918471 L 751.7187502080342 284.25000038399594 L 746.9062502400484 284.558594047965 L 740.9687500800937 284.76171878381865 L 738.1015623680432 285.17187481583096 L 735.6484372480772 285.3749995519174 L 731.8593751040753 285.88671897590393 L 727.3515622400446 286.8085934079718 L 721.2031252480228 288.4492185598938 L 699.3984378880705 293.3632808958646 L 692.53125017602 295.00000051187817 L 688.0312504321337 295.8203125759028 L 684.2421872640261 296.33203097595833 L 681.2734371840488 296.84375039988663 L 678.3046871040715 297.4609377278248 L 676.0468746240949 297.7656248319545 L 672.6718750720611 298.2773442558828 L 669.4921871360857 298.7890626559383 L 665.195312128053 299.4062499839347 L 662.7343749121064 299.71093708783155 L 648.7109376001172 301.9648440319579 L 638.7734374400461 303.39843788801227 L 611.023437824042 307.90234419191256 L 565.3515622401028 310.66796851181425 L 552.1406248960411 311.48828159994446 L 549.5859374080319 311.6914063358563 L 530.0234373120475 312.9218754559988 L 510.7734374401043 308.31250022392487 L 505.9609374720603 307.1875000318978 L 489.6796876800363 297.1523440638557 L 485.07031244807877 293.67187455983367 L 457.42187520005973 272.6796871678089 L 451.0781245440594 267.96874956792453 L 418.61718732805457 259.57031219196506 L 382.7734374400461 259.87890585593414 L 373.66406246402767 260.2890629118774 L 357.78906214417657 267.66015590395546 L 355.0246440960909 269.3000652799383 L 338.43749990401557 276.7734374399297 L 318.0546877440065 291.0078126078006 L 314.6796871680417 291.8281246718252 L 297.7812500480213 296.43749990384094 L 282.42187468812335 300.632812544005 L 254.7734374400461 309.1328122879495 L 216.17187532811658 321.3203128319001 L 182.1718753281748 328.7929692159523 L 168.14843699202174 331.8671871998231 L 147.7656248320127 336.3710935039562 L 132.60937523201574 347.2265625598957 L 126.77343744016252 351.4257817599573 L 116.02343731210567 359.10546841600444 L 106.90625024016481 365.6562503679306 L 88.57812480011489 368.628905983991 L 86.1218816000619 367.29634815995814 L 57.34375014400575 351.8359377919696 L 48.03125043207547 351.52734412794234 L 22.531250176136382 359.10546841600444 L 18.94531276804628 359.71875020780135 L 15.87500032002572 359.9218749438878 L 0.0 356.6910334926506" fill="none"/><path stroke="#408040" stroke-width="3" d="M 0.0 363.34829031908885 L 17.059840000001714 364.8614400000006 L 31.23200000000361 363.2537599999996 L 39.731199999994715 359.7004799999995 L 48.762879999994766 355.4918400000024 L 57.937919999996666 354.8364799999981 L 77.81376000000455 370.47295999999915 L 88.93439999999828 373.49375999999756 L 109.9366399999999 368.5887999999977 L 139.65312000000267 349.09184000000096 L 165.03807999999844 338.0428800000009 L 169.2569599999988 336.0563200000033 L 168.1715200000035 332.9433599999975 L 166.60480000000098 327.9872000000032 L 168.386559999999 325.1302399999986 L 173.76256000000285 323.95264000000316 L 179.59935999999288 319.90783999999985 L 186.9721600000048 315.8220799999981 L 186.43967999999586 312.1664000000019 L 188.63103999999294 309.8726400000014 L 182.86591999999655 310.0364800000025 L 179.1487999999954 309.99551999999676 L 183.67488000000594 303.6160000000018 L 201.5743999999977 297.78944000000047 L 203.86815999999817 294.21568000000116 L 197.89823999999498 288.1024000000034 L 192.12287999999535 286.2387200000012 L 189.76768000000448 284.64128000000346 L 189.67552000000433 279.1833600000027 L 188.35456000000704 273.9814400000032 L 182.3436800000054 264.2841600000029 L 181.14560000000347 254.49472000000242 L 181.30943999999727 225.38240000000224 L 184.1664000000019 213.6166400000002 L 191.3139200000005 204.38016000000061 L 196.16767999999865 197.14048000000184 L 199.13727999999537 184.5862399999969 L 204.9638399999967 164.0755199999985 L 211.70175999999628 156.5798399999985 L 222.8940799999982 148.5619200000001 L 241.97119999999995 136.31487999999808 L 253.68575999999302 126.25920000000042 L 256.46080000000075 120.11520000000019 L 272.6604800000059 114.10431999999855 L 285.7062399999995 105.6255999999994 L 294.2873600000021 103.29088000000047 L 296.82687999999325 92.53888000000006 L 304.78336000000127 81.42848000000231 L 308.3878399999958 76.69759999999951 L 309.6166399999929 70.5433600000033 L 321.49503999999433 63.12960000000021 L 342.57919999999285 51.45599999999831 L 350.95552000000316 43.19232000000193 L 354.4473600000056 37.478399999999965 L 355.2051199999987 30.15679999999702 L 354.4166399999958 19.06687999999849 L 356.01407999999356 12.441599999998289 L 354.508799999996 3.512320000001637 L 358.06586292994325 0.0" fill="none"/><path stroke="#408040" stroke-width="3" d="M 1024.0 203.80896314341953 L 1009.0495999999985 206.78656000000046 L 989.0099199999968 215.9308799999999 L 968.0691200000001 224.66560000000027 L 956.9177599999966 230.14400000000023 L 903.2908800000005 238.5715199999977 L 890.3475199999957 241.9814400000032 L 874.0659199999936 248.59648000000016 L 849.1008000000002 257.93536000000313 L 834.3654399999941 269.37344000000303 L 821.2070399999939 281.48735999999917 L 814.3667200000054 285.2352000000028 L 805.7446400000044 287.3651200000022 L 781.9980800000048 290.50880000000325 L 760.1561599999986 294.6560000000027 L 721.0803199999937 301.0457600000009 L 677.4988799999992 305.7766399999964 L 662.5894399999961 306.851840000003 L 650.6291199999978 309.47327999999834 L 631.316479999994 313.9993600000016 L 619.3868800000055 314.91071999999986 L 587.0899199999985 316.0780799999993 L 530.9235199999966 320.1228800000026 L 516.1779200000019 317.9929600000032 L 499.47647999999754 312.4531199999983 L 478.33087999999407 300.4108800000031 L 465.3772800000006 288.7065599999987 L 454.7481600000028 279.35743999999977 L 434.3295999999973 270.98111999999674 L 409.82528000000457 266.0761599999969 L 390.9836800000048 266.00448000000324 L 379.3203199999989 266.23999999999796 L 367.1961600000068 268.89216000000306 L 356.43391999999585 276.7462400000004 L 346.101760000005 280.44288000000233 L 328.66303999999946 291.0515200000009 L 311.4086399999942 299.53024000000005 L 289.5257600000041 303.9539199999999 L 263.39328000000387 313.23135999999795 L 244.27520000000368 317.40927999999985 L 195.9731199999951 329.9123200000031 L 180.14208000000508 332.65664000000106 L 158.51519999999437 340.4492800000007 L 143.12447999999858 346.6649600000019 L 129.16736000000674 355.0720000000001 L 113.7971200000029 365.8342399999965 L 105.1443200000067 370.39104000000225 L 91.8732799999998 373.0022400000016 L 83.05663999999524 373.02272000000085 L 77.20960000000196 369.78687999999966 L 66.06848000000173 360.2636799999964 L 59.5865599999961 355.3382399999973 L 51.773440000004484 354.45760000000155 L 35.88095999999496 361.3900799999974 L 27.873279999999795 363.89888000000064 L 17.40799999999581 364.8102399999989 L 9.953280000001541 361.8099199999997 L 0.0 361.19787354838627" fill="none"/></svg>