<svg xmlns="http://www.w3.org/2000/svg" width="1024" height="1024"><rect stroke="none" x="0" y="0" width="1024" height="1024" fill="white"/><path stroke="#000000" stroke-width="2" d="M 536.7783676346007 1024.0 L 536.7812495360267 1023.8867189759621 L 537.3984378880123 1006.8867184639676 L 537.7031249920256 1003.917968383932 L 537.7031249920256 1001.2539064319571 L 537.6015626240405 999.0039060479612 L 538.4218746880651 968.4882810879499 L 538.5234370560502 963.1601561599527 L 538.8359372800332 958.1445314559387 L 539.2421877760207 950.7695308799739 L 539.7499996160623 933.8750003199675 L 539.9609374720603 918.5156249599531 L 539.9609374720603 912.0624998399289 L 540.6718750720611 895.8867189759621 L 540.8828129280591 889.6367185919662 L 540.9843752960442 884.1093754879548 L 541.0859376640292 879.0898442239268 L 541.3906247680425 866.4960942079197 L 541.5937495040125 860.8632811519201 L 541.7031249920256 855.3359370239195 L 541.9062497280538 849.292968959955 L 542.109375488013 840.8945315839374 L 542.4140625920263 829.5312496639672 L 542.6250004480244 821.2343746559345 L 542.9296875520376 808.7421870079706 L 543.1328122880659 801.6757811199641 L 543.648437248019 787.6484372479608 L 543.8515630080365 779.9687495679245 L 544.2578124800348 768.3984373759595 L 544.3593748480198 765.0195312639698 L 544.460937216063 757.4414059519186 L 544.7734374400461 746.1757808639668 L 544.8749998080311 740.031250431959 L 544.8749998080311 735.7304688639706 L 545.0781245440594 730.8164065279416 L 545.5937495040125 714.4335933439434 L 545.79687526403 707.6718745599501 L 546.1015623680432 698.3554682879476 L 546.2031247360283 695.9999999999418 L 546.3046871040133 690.8789063679287 L 546.3046871040133 687.7070315519231 L 546.4062504960457 682.7890626559383 L 546.5156249600113 678.4882810879499 L 546.8203120640246 665.5859374079737 L 546.921870336053 663.437500415952 L 547.2265625600121 661.082031103957 L 547.4375004160102 657.19140659197 L 547.3281249280553 653.7070315519231 L 547.3281249280553 651.2499998719431 L 547.5390627840534 648.6914058239199 L 547.5390627840534 644.5937500159489 L 547.8437498880085 638.347656191967 L 548.1484369920217 628.7226562559372 L 548.6640629760223 611.4179686399293 L 548.8671877120505 602.4062504959293 L 549.1718748160638 598.8242186239222 L 549.1718748160638 595.1367188479635 L 549.2734371840488 592.0664063999429 L 549.5859374080319 580.902343679918 L 549.7890621440602 573.5312496639672 L 550.0937502720626 566.5664061439456 L 550.5078128640307 553.3554687999422 L 550.6093752320157 549.8750003199675 L 550.914062336029 535.0273433599505 L 551.4296872960404 521.3046876159497 L 551.5312496640254 516.0820316159516 L 551.5312496640254 511.88671897596214 L 551.734351872059 503.59079935995396 L 552.1406248960411 492.2226565119345 L 552.4531251200242 481.88281241594814 L 552.5546874880092 476.453125119966 L 552.6562836480443 472.768348159967 L 552.8593745920225 466.0117186559364 L 552.9609379840549 461.70703155192314 L 553.4765629440662 442.15234355191933 L 553.7812500480213 431.0898442239268 L 554.0937502720626 422.08203161595156 L 554.2968750080327 415.52734412794234 L 554.4999997440609 408.4609372159466 L 554.8046878720634 394.94531276792986 L 555.3203128320165 383.88671897596214 L 555.4218752000597 377.53515622392297 L 555.5234375680448 373.85156300792005 L 555.7265623040148 371.4960936959251 L 555.6249999360298 366.273437695927 L 555.828124672058 361.66406246396946 L 556.1406248960411 352.550780927937 L 556.6484377600136 335.34765670396155 L 556.7500001280569 332.48046899196925 L 556.9609379840549 328.5898434559349 L 556.9609379840549 326.02734387194505 L 557.0625003520399 322.85546905593947 L 557.164062720025 319.7812500479631 L 557.3671874560532 313.12500019196887 L 557.7734379520407 300.2226565119345 L 558.390625280037 281.79296870395774 L 558.4921876480221 277.5937495039543 L 558.9062502400484 266.2265620479593 L 559.3124997120467 255.88671897596214 L 559.6171878400492 244.72265625593718 L 559.828124672058 239.39843788795406 L 559.9296870400431 232.9492183039547 L 560.4374999040156 218.9179688959266 L 560.6406246400438 215.33593702391954 L 560.8515624960419 209.6015626239241 L 560.9531248640269 206.52734361594776 L 561.5625000960426 189.7343754239264 L 561.7734379520407 186.66406297596404 L 561.9765626880107 180.8242186239222 L 562.078125056054 176.3203123199637 L 562.179687424039 173.35156223992817 L 562.5859379200265 163.51953100797255 L 562.8984371200204 150.71874969592318 L 562.9999994880636 147.44531251193257 L 563.1015628800378 143.34765670396155 L 563.3046876160661 136.69140582391992 L 563.4062499840511 131.26562508795178 L 563.5078123520361 128.39843737595947 L 563.9218749440624 117.85156300792005 L 564.1249996800325 112.52343705593375 L 564.0234373120475 107.19921868795063 L 564.2265620480175 99.92968703992665 L 564.9453127680463 80.16796876792796 L 565.1484375040163 75.76171827194048 L 566.7890626560547 67.57031219196506 L 565.7656248320127 59.48046847997466 L 566.8906250240398 30.5039063039585 L 567.195312128053 22.71874969592318 L 567.2968744960381 19.749999615945853 L 567.3984378880123 15.347656703961547 L 567.6093747200212 10.738281471945811 L 567.7109370880644 5.925781503960025 L 567.9140628480236 0.7031255039619282 L 567.9441844876274 0.0" fill="none"/><path stroke="#000000" stroke-width="2" d="M 567.9441844876274 0.0 L 567.9140628480236 0.7031255039619282 L 567.7109370880644 5.925781503960025 L 567.6093747200212 10.738281471945811 L 567.3984378880123 15.347656703961547 L 567.2968744960381 19.749999615945853 L 567.195312128053 22.71874969592318 L 566.8906250240398 30.5039063039585 L 565.7656248320127 59.48046847997466 L 566.7890626560547 67.57031219196506 L 565.1484375040163 75.76171827194048 L 564.9453127680463 80.16796876792796 L 564.2265620480175 99.92968703992665 L 564.0234373120475 107.19921868795063 L 564.1249996800325 112.52343705593375 L 563.9218749440624 117.85156300792005 L 563.5078123520361 128.39843737595947 L 563.4062499840511 131.26562508795178 L 563.3046876160661 136.69140582391992 L 563.1015628800378 143.34765670396155 L 562.9999994880636 147.44531251193257 L 562.8984371200204 150.71874969592318 L 562.5859379200265 163.51953100797255 L 562.179687424039 173.35156223992817 L 562.078125056054 176.3203123199637 L 561.9765626880107 180.8242186239222 L 561.7734379520407 186.66406297596404 L 561.5625000960426 189.7343754239264 L 560.9531248640269 206.52734361594776 L 560.8515624960419 209.6015626239241 L 560.6406246400438 215.33593702391954 L 560.4374999040156 218.9179688959266 L 559.9296870400431 232.9492183039547 L 559.828124672058 239.39843788795406 L 559.6171878400492 244.72265625593718 L 559.3124997120467 255.88671897596214 L 558.9062502400484 266.2265620479593 L 558.4921876480221 277.5937495039543 L 558.390625280037 281.79296870395774 L 557.7734379520407 300.2226565119345 L 557.3671874560532 313.12500019196887 L 557.164062720025 319.7812500479631 L 557.0625003520399 322.85546905593947 L 556.9609379840549 326.02734387194505 L 556.9609379840549 328.5898434559349 L 556.7500001280569 332.48046899196925 L 556.6484377600136 335.34765670396155 L 556.1406248960411 352.550780927937 L 555.828124672058 361.66406246396946 L 555.6249999360298 366.273437695927 L 555.7265623040148 371.4960936959251 L 555.5234375680448 373.85156300792005 L 555.4218752000597 377.53515622392297 L 555.3203128320165 383.88671897596214 L 554.8046878720634 394.94531276792986 L 554.4999997440609 408.4609372159466 L 554.2968750080327 415.52734412794234 L 554.0937502720626 422.08203161595156 L 553.7812500480213 431.0898442239268 L 553.4765629440662 442.15234355191933 L 552.9609379840549 461.70703155192314 L 552.8593745920225 466.0117186559364 L 552.6562836480443 472.768348159967 L 552.5546874880092 476.453125119966 L 552.4531251200242 481.88281241594814 L 552.1406248960411 492.2226565119345 L 551.734351872059 503.59079935995396 L 551.5312496640254 511.88671897596214 L 551.5312496640254 516.0820316159516 L 551.4296872960404 521.3046876159497 L 550.914062336029 535.0273433599505 L 550.6093752320157 549.8750003199675 L 550.5078128640307 553.3554687999422 L 550.0937502720626 566.5664061439456 L 549.7890621440602 573.5312496639672 L 549.5859374080319 580.902343679918 L 549.2734371840488 592.0664063999429 L 549.1718748160638 595.1367188479635 L 549.1718748160638 598.8242186239222 L 548.8671877120505 602.4062504959293 L 548.6640629760223 611.4179686399293 L 548.1484369920217 628.7226562559372 L 547.8437498880085 638.347656191967 L 547.5390627840534 644.5937500159489 L 547.5390627840534 648.6914058239199 L 547.3281249280553 651.2499998719431 L 547.3281249280553 653.7070315519231 L 547.4375004160102 657.19140659197 L 547.2265625600121 661.082031103957 L 546.921870336053 663.437500415952 L 546.8203120640246 665.5859374079737 L 546.5156249600113 678.4882810879499 L 546.4062504960457 682.7890626559383 L 546.3046871040133 687.7070315519231 L 546.3046871040133 690.8789063679287 L 546.2031247360283 695.9999999999418 L 546.1015623680432 698.3554682879476 L 545.79687526403 707.6718745599501 L 545.5937495040125 714.4335933439434 L 545.0781245440594 730.8164065279416 L 544.8749998080311 735.7304688639706 L 544.8749998080311 740.031250431959 L 544.7734374400461 746.1757808639668 L 544.460937216063 757.4414059519186 L 544.3593748480198 765.0195312639698 L 544.2578124800348 768.3984373759595 L 543.8515630080365 779.9687495679245 L 543.648437248019 787.6484372479608 L 543.1328122880659 801.6757811199641 L 542.9296875520376 808.7421870079706 L 542.6250004480244 821.2343746559345 L 542.4140625920263 829.5312496639672 L 542.109375488013 840.8945315839374 L 541.9062497280538 849.292968959955 L 541.7031249920256 855.3359370239195 L 541.5937495040125 860.8632811519201 L 541.3906247680425 866.4960942079197 L 541.0859376640292 879.0898442239268 L 540.9843752960442 884.1093754879548 L 540.8828129280591 889.6367185919662 L 540.6718750720611 895.8867189759621 L 539.9609374720603 912.0624998399289 L 539.9609374720603 918.5156249599531 L 539.7499996160623 933.8750003199675 L 539.2421877760207 950.7695308799739 L 538.8359372800332 958.1445314559387 L 538.5234370560502 963.1601561599527 L 538.4218746880651 968.4882810879499 L 537.6015626240405 999.0039060479612 L 537.7031249920256 1001.2539064319571 L 537.7031249920256 1003.917968383932 L 537.3984378880123 1006.8867184639676 L 536.7812495360267 1023.8867189759621 L 536.7783676346007 1024.0" fill="none"/></svg>