<svg xmlns="http://www.w3.org/2000/svg" width="1024" height="1024"><rect stroke="none" x="0" y="0" width="1024" height="1024" fill="white"/><path stroke="#000000" stroke-width="2" d="M 470.6207896205742 1024.0 L 470.1249996800907 1023.9882813439472 L 467.15624960011337 1023.9882813439472 L 462.33593753608875 1023.8867189759039 L 458.24218726414256 1023.8867189759039 L 452.10156236804323 1023.6796876798035 L 448.4140625921427 1023.7812500478467 L 437.4531246080878 1023.7812500478467 L 423.32812492817175 1023.6796876798035 L 420.25000038405415 1023.5781253119349 L 414.92968755203765 1023.5781253119349 L 403.8671872000559 1023.4765629438916 L 387.2812503040768 1023.4765629438916 L 383.4921871360275 1023.374999551801 L 375.5000002560555 1023.2695316479658 L 370.69531238405034 1023.2695316479658 L 367.2109373440617 1023.167968255817 L 360.55468748812564 1023.167968255817 L 343.0468751360895 1022.9648435199633 L 336.69531238405034 1022.9648435199633 L 320.4140625920845 1022.7578122238046 L 305.4609377280576 1022.6562498559942 L 300.6484377600136 1022.6562498559942 L 294.5078128640889 1022.554687487951 L 280.9921873920248 1022.4531251199078 L 277.3046876160661 1022.4531251199078 L 270.9531248640269 1022.3476561920252 L 264.19531264004763 1022.3476561920252 L 258.66406297602225 1022.2460938239819 L 256.6171873281128 1022.2460938239819 L 251.80468736001058 1022.3476561920252 L 241.66406246408587 1022.3476561920252 L 227.2265625601285 1022.2460938239819 L 221.80468736001058 1022.2460938239819 L 219.54687488009222 1022.3476561920252 L 191.69531289604492 1022.3476561920252 L 188.52343705605017 1022.2460938239819 L 183.19531212805305 1022.1445314559387 L 169.27343718410702 1022.1445314559387 L 133.2265625600121 1022.0429690878955 L 99.5390627841116 1022.1445314559387 L 79.97656268801074 1022.2460938239819 L 75.16406272002496 1022.7578122238046 L 68.8124999681022 1022.2460938239819 L 64.41406259202631 1022.2460938239819 L 58.781249536026735 1022.3476561920252 L 45.2656250881264 1022.554687487951 L 35.12500019208528 1022.6562498559942 L 0.31250022404128686 1023.0664058880066 L 0.0 1023.0701398013771" fill="none"/><path stroke="#000000" stroke-width="2" d="M 0.0 1023.0701398013261 L 0.31250022404128686 1023.0664058879483 L 35.12500019202707 1022.656249855936 L 45.26562508806819 1022.554687487951 L 58.781249536026735 1022.347656191967 L 64.41406259202631 1022.2460938239237 L 68.812499968044 1022.2460938239237 L 75.16406272002496 1022.7578122239211 L 79.97656268801074 1022.2460938239237 L 99.53906278405339 1022.1445314559387 L 133.2265625600121 1022.0429690879537 L 169.27343718404882 1022.1445314559387 L 183.19531212805305 1022.1445314559387 L 188.52343705605017 1022.2460938239237 L 191.69531289604492 1022.347656191967 L 219.546874880034 1022.347656191967 L 221.80468736001058 1022.2460938239237 L 227.2265625600121 1022.2460938239237 L 241.66406246402767 1022.347656191967 L 251.80468736001058 1022.347656191967 L 256.61718732805457 1022.2460938239237 L 258.66406297602225 1022.2460938239237 L 264.19531264004763 1022.347656191967 L 270.9531248640269 1022.347656191967 L 277.3046876160661 1022.453125119966 L 280.9921873920248 1022.453125119966 L 294.5078128640307 1022.554687487951 L 300.6484377600136 1022.656249855936 L 305.4609377280576 1022.656249855936 L 320.4140625920263 1022.7578122239211 L 336.69531238405034 1022.9648435199633 L 343.0468751360313 1022.9648435199633 L 360.55468748806743 1023.1679682559334 L 367.2109373440617 1023.1679682559334 L 370.69531238405034 1023.2695316479658 L 375.5000002560555 1023.2695316479658 L 383.4921871360275 1023.3749995519174 L 387.2812503040186 1023.4765629439498 L 403.8671872000559 1023.4765629439498 L 414.92968755203765 1023.5781253119349 L 420.25000038405415 1023.5781253119349 L 423.32812492805533 1023.6796876799199 L 437.4531246080296 1023.7812500479631 L 448.4140625920263 1023.7812500479631 L 452.10156236804323 1023.6796876799199 L 458.24218726402614 1023.8867189759621 L 462.33593753603054 1023.8867189759621 L 467.15624960005516 1023.9882813439472 L 470.1249996800325 1023.9882813439472 L 470.6207896199485 1024.0" fill="none"/><path stroke="#408040" stroke-width="3" d="M 0.0 45.97770358935668 L 13.66015999999945 46.254079999998794 L 32.19456000000355 46.28480000000127 L 38.42048000000068 45.37344000000303 L 44.77951999999641 43.560960000002524 L 51.21024000000034 41.728000000002794 L 55.224319999993895 41.236479999999574 L 66.60095999999612 42.21951999999874 L 78.55104000000574 43.069439999999304 L 92.95871999999508 42.444799999997485 L 122.63423999999941 36.659200000001874 L 134.22591999999713 35.594239999998535 L 144.88576000000467 34.46783999999752 L 155.6889599999995 33.16735999999946 L 166.09279999999853 32.808960000002116 L 175.54432000000088 31.057919999999285 L 195.56351999999606 26.521600000000035 L 201.03168000000005 23.818240000000515 L 208.17919999999867 19.927040000002307 L 211.83487999999488 18.544640000000072 L 228.4134400000039 16.035839999996824 L 234.99775999999838 14.551039999998466 L 259.06175999999687 7.116800000003423 L 275.7017599999963 2.32448000000295 L 284.705780229895 0.0" fill="none"/><path stroke="#408040" stroke-width="3" d="M 1024.0 623.9383360932989 L 1023.9487999999983 623.8617599999998 L 1013.9135999999999 612.7923200000005 L 1009.9404800000048 607.5391999999993 L 1008.0972800000018 601.6102400000018 L 1005.8137600000045 589.2812800000029 L 991.3753600000055 570.6240000000034 L 986.5113600000041 565.0227200000008 L 982.7430400000012 558.2848000000013 L 976.4556799999991 546.8774399999966 L 972.2880000000005 540.5081599999976 L 967.0860799999937 535.0604800000001 L 956.1702400000067 524.7795199999964 L 951.2140800000052 519.6390400000018 L 949.5142400000041 513.126400000001 L 945.3567999999941 507.69920000000275 L 943.3702400000038 501.0636799999993 L 943.1859200000035 494.98111999999674 L 939.9193599999999 488.9907200000016 L 935.6697600000043 483.22559999999794 L 935.2192000000068 476.6822400000019 L 932.4134400000039 470.8556800000006 L 928.3481599999941 464.78336000000127 L 924.0063999999984 459.130879999997 L 917.6780799999979 454.9427199999991 L 910.8787199999933 450.95936000000074 L 905.9430399999983 446.08512000000337 L 899.2563200000004 433.44896000000153 L 892.0268800000049 421.3145599999989 L 885.4937599999976 416.22527999999875 L 877.2710400000069 412.75392000000284 L 868.2188800000004 410.8697600000014 L 865.0444799999968 408.5657599999977 L 863.6928000000044 405.2992000000013 L 861.7779199999932 401.71519999999873 L 857.9891199999984 399.92319999999745 L 846.6841600000043 400.1382400000002 L 841.9635200000048 399.39072000000306 L 839.505919999996 397.4553599999999 L 838.7891200000013 393.8099199999997 L 839.4035200000071 389.50912000000244 L 840.7654400000029 386.0480000000025 L 843.7657599999948 382.77120000000286 L 846.0800000000017 379.893759999999 L 846.8172800000029 376.6067200000034 L 845.6499199999962 370.0940800000026 L 847.1449600000051 361.0009599999976 L 848.0665600000066 353.27999999999884 L 846.0185599999968 346.72639999999956 L 851.7119999999995 337.0393600000025 L 857.3439999999973 324.5670400000017 L 862.3411199999973 313.83552000000054 L 868.4646400000056 305.44896000000153 L 872.5503999999928 295.90527999999904 L 877.1379199999938 277.4835200000016 L 885.7497600000061 251.238400000002 L 890.7263999999996 238.9606399999975 L 892.846080000003 234.63936000000103 L 894.5254399999976 227.09247999999934 L 896.5632000000041 213.12511999999697 L 898.488320000004 205.4860800000024 L 899.5737599999993 198.43071999999665 L 897.6793599999946 192.12288000000262 L 895.6825600000011 184.6374399999986 L 896.5222400000057 177.60255999999936 L 897.8739199999982 170.8032000000021 L 898.0070399999968 163.98335999999836 L 901.0892800000001 150.62015999999858 L 906.3014399999956 138.5164799999984 L 909.1993599999987 133.06880000000092 L 911.1244799999986 126.88384000000224 L 911.8617599999998 115.26144000000204 L 911.4316799999942 109.9366399999999 L 909.1174400000018 103.84384000000136 L 904.0793600000034 91.46368000000075 L 899.1027199999953 80.08703999999852 L 896.4198400000023 73.94303999999829 L 892.7436799999996 68.13696000000346 L 882.442240000004 57.28255999999965 L 880.9983999999968 54.21055999999953 L 881.9199999999983 49.97119999999995 L 883.4764799999975 40.74496000000363 L 886.3846400000039 31.80543999999645 L 889.1801600000035 24.698880000003555 L 889.5180799999944 18.944000000003143 L 888.1049599999969 14.202879999997094 L 886.650880000001 7.741439999997965 L 886.0364799999952 1.2083199999979115 L 886.3047899540543 0.0" fill="none"/></svg>