<svg xmlns="http://www.w3.org/2000/svg" width="1024" height="1024"><rect stroke="none" x="0" y="0" width="1024" height="1024" fill="white"/><path stroke="#000000" stroke-width="2" d="M 1024.0 920.5024269616188 L 1023.898437632015 920.4609372159466 L 1005.5703121920233 913.19140659197 L 1000.8593745920225 911.2460933119291 L 996.562499584048 909.4023434239207 L 963.898437632015 896.0898437119322 L 958.3671879680478 893.7343754239264 L 954.6796871680417 892.3007815679302 L 942.1874995200196 887.078124543943 L 930.2031247360283 882.1640622079722 L 919.4531246080296 880.2187499519205 L 914.4374999040156 879.2968744959217 L 895.898437632015 876.019530751917 L 882.4843745280523 873.3554687999422 L 875.1171870720573 872.027343871945 L 863.8515630080365 869.6718745599501 L 858.3203123200219 868.4414064639714 L 853.1015628800378 867.4179686399293 L 842.5468753920286 865.5742187519209 L 839.1718748160638 864.9609379839385 L 835.898437632015 864.347656191967 L 823.9140628480236 861.9921879039612 L 818.7968747520354 860.9648435199633 L 814.5937500160653 859.9414067199687 L 808.4531251200242 858.7148441599566 L 801.4921871360275 857.2812503039604 L 798.109375488013 856.664062975964 L 782.3359375360305 853.6953128959285 L 777.3203128320165 852.6718750719447 L 769.0312499200227 851.1367188479635 L 740.7656253440655 845.8125004799222 L 732.2656245760154 844.0703129599569 L 722.2343751680455 842.1249996799743 L 670.6250004480244 832.0898437119322 L 639.4921871360275 825.9453122559353 L 628.8437504000613 824.1015623679268 L 623.9296870400431 823.1796879359172 L 615.6328120320104 821.746094079921 L 610.6171873280546 820.7226562559372 L 608.460937216063 820.3125002239249 L 605.4921871360275 819.6992184319533 L 590.0312504320173 816.7304683519178 L 577.8437498880667 814.3750000639702 L 569.2421877760207 812.7382814719458 L 564.53125017602 811.816406015947 L 549.3828126720618 808.9492183039547 L 544.0546877440647 807.820312575961 L 540.0624998400453 807.0000005119364 L 534.1249996800325 805.7734379519243 L 529.8203125760192 804.9531248639687 L 525.7265623040148 804.2382817279431 L 521.8359377920278 803.5195310079725 L 515.5859374080319 802.2929684479604 L 510.7734374400461 801.1640627199668 L 489.47656294406625 796.8632811519201 L 477.28906240005745 794.5078128639725 L 473.8046873600106 794.1015623679268 L 468.38281216000905 793.0742190079181 L 465.20312524802284 792.4609372159466 L 457.42187520005973 790.8242186239222 L 425.6796876800363 784.7812495359685 L 422.60937523201574 784.167968767928 L 417.898437632015 783.2460933119291 L 408.2734376960434 781.3007810559357 L 402.5390622720588 780.277344255941 L 383.79687526402995 776.7929692159523 L 374.9921873920248 775.2578129919712 L 370.281249792024 774.3359375359723 L 359.2265625600121 772.1874995199614 L 344.6796871680417 769.1132815359742 L 340.89062502403976 768.2968750079744 L 338.6406246400438 768.0898437119322 L 334.1328128000605 767.1679682559334 L 322.46093721606303 764.9140623359708 L 311.0937497600098 762.7656253439491 L 308.1249996800325 762.2539059199626 L 302.79687475203536 761.2304691199679 L 296.8593745920225 760.1015623679268 L 286.10937548801303 757.9531253759633 L 271.25781299202936 755.187500031956 L 264.812499968044 753.9570309119299 L 262.65624985605245 753.5507814399316 L 255.79687526402995 752.1171875839354 L 241.15624960005516 749.4531246079714 L 227.32812492805533 746.6875002879533 L 217.0937497600098 744.5390622719424 L 214.32812544004992 744.027343871945 L 210.02343731204746 743.2070307839313 L 199.47656294406625 741.2617185279378 L 146.94531276804628 731.2265625599539 L 132.5078128640307 728.4609372159466 L 127.79687526402995 727.2304691199679 L 124.42187468806515 726.6171873279382 L 113.87500032002572 724.980468735972 L 111.92968704004306 724.5703127039596 L 107.21875046403147 723.5468748799176 L 104.55468748800922 723.2382812159485 L 97.59374950401252 721.7031249919673 L 92.88281292805914 720.5742182399263 L 83.15624960005516 719.1445309439441 L 75.36718745605322 717.6054691839381 L 71.99218790401937 716.9921873919666 L 36.86718771205051 710.1328127999441 L 32.57031270401785 709.3124997119303 L 28.164062208030373 708.4921876479639 L 13.210937344061676 705.5234375679283 L 9.835937792027835 704.9101557759568 L 0.0 702.9243842002761" fill="none"/><path stroke="#000000" stroke-width="2" d="M 0.0 316.4627075088647 L 0.7997440000181086 315.9633919999469 L 3.1098880000645295 314.5820159999421 L 4.061184000049252 314.1375999999582 L 5.147648000041954 313.2712959999335 L 6.273437696043402 312.2187499519205 L 6.476562432013452 312.17187532794196 L 6.520853504014667 312.0744355839561 L 6.609920000017155 311.8909439999261 L 8.953124864026904 309.87890585593414 L 10.585937920026481 308.0507811839343 L 11.940864000061993 306.3910399999586 L 12.170945536054205 306.1873674239614 L 12.390625280037057 305.9960934399278 L 12.656249856052455 305.75781273597386 L 14.52343705605017 303.93359359994065 L 15.851563008036464 303.2304691199679 L 16.03728793602204 303.0243901439244 L 16.42598400003044 302.5991679999279 L 17.003520000027493 302.1076479999465 L 20.437499904015567 300.25781247991836 L 21.39062476804247 299.71875020791776 L 22.304687104013283 298.8789063679287 L 24.312500224041287 297.80078079993837 L 25.83961600001203 297.09823999996297 L 26.825728000025265 296.6302719999221 L 27.1002920960309 296.4189491199213 L 27.369472000049427 296.37222399993334 L 27.43808000005083 296.25548799993703 L 29.140625408035703 295.6015626239241 L 32.09375027206261 295.0625003519235 L 33.08593766402919 294.75781222392106 L 34.546875392028596 294.1953126399312 L 37.81250048003858 292.76562534394907 L 39.91654400003608 291.48057599994354 L 41.34502400003839 290.8477439999697 L 43.92857600003481 289.8647039999487 L 44.01562521606684 289.74999961594585 L 44.10156236804323 289.6328120319522 L 45.90080000006128 288.5550079999375 L 47.29446400003508 287.5955199999735 L 52.293632000044454 285.04473599995254 L 53.89312000002246 284.3197439999203 L 54.50781286403071 283.96874956792453 L 55.28780800005188 283.383807999955 L 55.491584000061266 283.3602559999563 L 55.601562624040525 283.21484390395926 L 55.663831040030345 283.12533299194183 L 57.6718745600665 281.83984332793625 L 57.838592000014614 281.8160639999551 L 57.90624972805381 281.6757811199641 L 58.635776000039186 281.34399999992456 L 59.810816000041086 281.0204159999266 L 60.12006912002107 280.8645038079703 L 60.179687424039 280.83593727991683 L 60.83174400002463 280.5063679999439 L 61.5000002560555 280.02343731193105 L 62.70259200001601 279.14956799993524 L 63.68870400002925 278.04979199991794 L 64.09728000004543 277.6514559999341 L 64.88281292805914 276.902343679918 L 65.00917555205524 276.79749017592985 L 65.25337600003695 276.5987839999725 L 65.45715200004634 276.5762559999712 L 65.45715200004634 276.57469132792903 L 65.46093772805762 276.57421823992627 L 65.45715200004634 276.5231155199581 L 65.45715200004634 276.4405606399523 L 65.46093772805762 276.4140625919681 L 66.29820518405177 275.68950374395354 L 66.68185600003926 275.3597439999576 L 67.80468736001058 274.47265587194124 L 68.179687424039 274.12109414394945 L 69.6796876800363 272.9492183039547 L 70.69531238405034 272.34374963195296 L 71.78906214406015 271.96874956792453 L 73.62499993602978 271.5000002559391 L 74.82277888001408 271.05484799994156 L 74.9531248640269 271.0546872319537 L 75.01562470401404 270.98046873597195 L 75.05468723201193 270.93749964796007 L 76.10675200005062 270.4701439999626 L 77.29687449603807 269.88671897596214 L 78.523392000061 269.1368959999527 L 82.2656245760154 266.61328076792415 L 82.35979059204692 266.50398207997205 L 82.64062464004382 266.2851563519216 L 83.4908160000341 265.9082239999552 L 84.24218726402614 265.34765670396155 L 84.419233792054 265.07591065595625 L 84.58035200001905 264.8330239999341 L 84.68275200005155 264.52889599994523 L 84.75000012805685 264.4140625919681 L 85.3626880000229 264.1080319999601 L 85.90624972805381 263.7343754239264 L 86.25000038405415 263.3124997119303 L 87.85156300803646 262.25781247991836 L 88.24123494402738 261.7850286079338 L 88.97126400005072 260.9039359999588 L 90.19531264004763 260.15625011193333 L 90.91406233602902 259.47656294394983 L 91.11718707205728 259.4531246079714 L 91.1406254080357 259.35156223992817 L 91.1493120000232 259.29011199995875 L 92.5468753920286 258.33203097595833 L 94.14843699202174 257.3242183679249 L 95.46093772805762 256.0546877439483 L 96.64062464004382 254.8281251839362 L 97.48437504004687 254.01171865593642 L 97.55852800002322 253.9376639999682 L 98.95424000005005 252.7692799999495 L 99.39843788801227 252.16015667194733 L 99.40302950405749 252.13949132792186 L 99.43142400000943 252.0442879999173 L 99.53280000004452 251.97465599991847 L 100.55915724806255 250.58130636793794 L 101.08593766402919 249.8710937599535 L 101.13433600001736 249.79967999993823 L 101.33310259203427 249.64126310392749 L 101.57812531205127 249.44921907194657 L 101.6365015040501 249.42799052793998 L 101.85156300803646 249.35546879994217 L 101.91769600001862 249.19142399996053 L 103.10963200003607 248.27903999993578 L 104.50781286403071 247.2265625599539 L 104.52736204804387 247.2009041919373 L 104.64153600001009 247.06355199991958 L 105.32352000003448 246.45529599994188 L 105.90208000002895 246.05798399995547 L 106.14477209601318 245.76060723193223 L 106.38281216000905 245.47265638393583 L 107.22803712001769 244.91355955193285 L 107.57031219202327 244.79687475191895 L 107.71093708806438 244.79687475191895 L 107.71093708806438 244.60937523195753 L 108.83072000002721 243.9772159999702 L 110.22848000004888 242.59788799996022 L 110.80806400004076 242.12991999991937 L 112.40857600001618 240.9840639999602 L 114.01011200004723 239.79212799994275 L 115.71302400005516 238.57663999992656 L 116.36019200005103 237.85164799995255 L 117.1435520000523 237.3836799999699 L 117.19475200003944 237.2669439999736 L 117.79174400004558 236.6597119999351 L 118.91609600005904 235.7708799999673 L 122.3229440000141 233.43308799993247 L 122.56845619203523 233.20102399995085 L 122.78124953602673 233.0507816959289 L 124.17187532805838 232.04296908795368 L 125.35937536001438 231.30468761594966 L 125.86718720005592 230.88671846396755 L 126.15625011204975 230.5976565759629 L 127.37499955203384 229.48437503993046 L 128.05017600004794 228.9879039999214 L 128.26931200001854 228.8312319999677 L 128.5078097920632 228.44922367995605 L 132.61148160003358 225.267548159929 L 134.61718732805457 223.7265623039566 L 135.30624000006355 223.25964799994836 L 136.55955558404094 222.47048396791797 L 137.7265623040148 221.73828095995123 L 137.8590914560482 221.63088691193843 L 137.95544473605696 221.55512934393482 L 138.24348160001682 221.37634815997444 L 141.10937497601844 219.6367185919662 L 142.96246169606457 218.3213813759503 L 143.5422720000497 217.92255999991903 L 144.93798400001833 217.00915199995507 L 146.11324006406358 216.13425049593206 L 148.14843699202174 214.74609356792644 L 148.44416000001365 214.57510399993043 L 149.4988800000283 213.849087999959 L 151.47656294406625 212.18749951996142 L 151.60147251206217 211.9571967999218 L 152.47708160005277 211.23874815995805 L 152.6328125440632 211.10937497596024 L 153.00608000002103 210.97062399995048 L 153.1796879360336 210.69140582391992 L 153.1796879360336 210.66742374392925 L 153.18163251201622 210.65528422396164 L 153.21875046403147 210.61718732793815 L 153.64565299201058 210.25468825595453 L 154.12808089604368 209.848432639963 L 154.26560000004247 209.80121599993436 L 154.5078128640307 209.61328127991874 L 154.51644518401008 209.57149593596114 L 154.60231065604603 209.50124236795818 L 155.92968704004306 208.7695308799739 L 156.24218726402614 208.63281254394678 L 157.89054054406006 207.72747366392286 L 158.47656243201345 207.4531246079714 L 161.0781245440594 206.47656243195524 L 161.75781273603207 206.10156236792682 L 162.22924800001783 205.7943039999227 L 162.74432000005618 205.63455999991857 L 162.88281292805914 205.44531251193257 L 162.8984371200204 205.37890611193143 L 163.25605785602238 205.08745318395086 L 163.42968729604036 204.97656217595795 L 163.4921871360275 204.9570314239245 L 163.5424788480159 204.90127974393545 L 166.39062528003706 203.0507816959289 L 167.10156288003782 202.78124953596853 L 168.5078128640307 202.10156236792682 L 168.79687475203536 201.98046924796654 L 171.02343782404205 201.1406254079193 L 171.9088189440663 200.72816332796356 L 174.39068160002353 199.87234815995907 L 176.7265628160094 199.0937497599516 L 178.17395200004103 198.63654399994994 L 179.16406272002496 198.378906623926 L 183.38713600003393 196.92748799995752 L 184.5468753920286 196.53125017596176 L 185.21093734406168 196.28515635192161 L 188.8001054720371 195.0382540799328 L 190.03125043201726 194.70703103992855 L 197.11718707205728 192.20312473597005 L 198.84109312004875 191.54084044793854 L 200.0476160000544 191.15007999993395 L 200.4550635520136 190.90146303991787 L 202.7734374400461 189.84765644796425 L 203.93750016001286 189.4179686399293 L 204.64844800002174 188.99763199995505 L 205.32910796802025 188.67160985595547 L 207.24218777602073 188.15625011193333 L 209.0106880000094 187.82924799993634 L 209.99884800001746 187.45446399995126 L 210.27174400002696 187.30239999992773 L 211.56250009604264 186.79687475191895 L 213.06572800001595 186.49599999992643 L 213.91769600001862 186.16831999993883 L 214.13962854404235 186.02796236792346 L 216.51562496001134 185.32812492793892 L 216.60937523201574 185.30468761594966 L 217.7677363200346 184.92967526393477 L 221.3478400000604 184.90675199992256 L 223.8361600000644 184.6497279999312 L 225.26562508800998 184.3242188799195 L 226.3054274560418 184.0260413439246 L 226.9062502400484 183.85546854394488 L 228.30080000002636 183.62163199996576 L 233.37881600001128 182.5239039999433 L 234.7265628160094 182.33203097595833 L 234.78906265605474 182.3242188799195 L 240.12697600002866 181.77740799996536 L 242.14062489604112 181.38281267194543 L 243.5000002560555 181.05468723195372 L 245.27564800000982 180.72678399994038 L 251.0390620160615 179.23437465593452 L 251.32812492805533 179.11718707194086 L 254.17216000001645 178.48524799995357 L 255.83820800005924 178.33574399992358 L 271.09990400006063 175.95494399993913 L 276.48409600002924 174.9698559999233 L 278.2218240000657 174.73535999993328 L 279.8233600000385 174.524415999942 L 283.0612480000127 174.26636799995322 L 286.4363520000479 173.6570879999199 L 287.9062497280538 173.53906278393697 L 290.6286080000573 173.1645439999411 L 295.6015626240405 173.1406254079193 L 295.99402496003313 173.10360063996632 L 296.62500044802437 173.0468751359731 L 296.7912744960631 172.98975641594734 L 297.5312496640254 172.80078131193295 L 298.4687503360328 172.92968755192123 L 299.82812467205804 172.92968755192123 L 302.0134400000097 172.9740799999563 L 303.0359040000476 173.24339199991664 L 303.3088000000571 173.3488639999414 L 306.3046871040133 173.55859353597043 L 307.1250001920271 173.69921843195334 L 308.7656253440655 173.88671897596214 L 311.92968704004306 173.79296870395774 L 314.01562521606684 173.62890649592737 L 319.8046873600106 173.3242183679249 L 321.07031244802056 173.08984422392678 L 323.48774400004186 172.45798399992054 L 324.5445120000513 172.08319999993546 L 326.3203123200219 171.57031219196506 L 329.5859374080319 171.14843750395812 L 331.08747161604697 170.86714572797064 L 333.38281267206185 170.80468787194695 L 334.4622653440456 170.77355110395 L 335.4603520000237 170.85951999993995 L 335.9531253760215 170.9179688959266 L 337.39571200002683 171.19539199996507 L 338.5859379200265 171.28906239994103 L 340.44979200005764 171.52716799994232 L 347.52343756804476 173.00000051193638 L 349.42873600003077 173.6304639999289 L 351.3026560000144 174.4967679999536 L 352.25702400004957 174.80089599994244 L 354.1995520000346 175.31596799992258 L 355.4609377280576 175.76171827194048 L 357.0937497600098 175.9960934399278 L 357.86342400003923 176.1776639999589 L 359.4336839680327 176.61213081591995 L 360.6718750720611 176.9570314239245 L 361.0016215040232 177.13025228795595 L 361.28768000006676 177.28307199996198 L 362.0710400000098 177.89132799993968 L 362.1817323520663 177.93852211197373 L 362.20312473602826 177.94921881594928 L 362.7868160000653 178.19545599992853 L 365.2265625600121 178.6484377599554 L 366.57031270401785 178.9492183039547 L 368.7495680000284 179.8123519999208 L 369.5049379840493 180.3482449919684 L 369.6049838080653 180.5905838079634 L 369.7343754240428 180.9140623359708 L 370.21093785605626 181.5546879999456 L 370.281249792024 181.7304688639706 L 370.7248640000471 182.05900799995288 L 371.0312499200227 182.65624985593604 L 371.06250035203993 182.87890636792872 L 371.1328122880659 183.3242183679249 L 371.30240000004414 183.65030399995157 L 371.84374988806667 184.0468746239203 L 372.5291520000319 184.35276799992425 L 373.8203125760192 184.84375039994484 L 374.7778560000588 185.0316799999564 L 377.8099200000288 185.54777599993395 L 380.43749990401557 185.83203123195563 L 383.8433280000463 185.7279999999446 L 386.7740160000394 185.5518719999236 L 389.8046873600106 185.4570311679272 L 392.2321930240141 185.27351705596084 L 393.8593751040171 185.15234406397212 L 397.3544960000436 184.5058559999452 L 397.4133934080601 184.50004172796616 L 397.47656294406625 184.49609420791967 L 400.3671879680478 183.5820308479597 L 400.812499968044 183.5117189119337 L 400.92968755203765 183.4531246079714 L 405.07031244802056 182.29296844796045 L 405.1406254080357 182.29296844796045 L 405.2202158080181 182.25068851193646 L 407.46874982403824 181.67578111996409 L 407.5264000000316 181.65964799997164 L 408.3125002240413 181.37890611193143 L 408.3517603840446 181.35273267194862 L 408.4589926400222 181.28658534394344 L 409.16480000002775 180.88038399996003 L 410.62604800006375 180.06732799991732 L 412.4999997440609 178.85156249592546 L 413.898437632015 177.9140628479654 L 414.6800640000147 177.6332799999509 L 416.52343705605017 177.16406271996675 L 417.6793600000092 176.9768959999201 L 419.485696000047 176.9297919999226 L 420.6484377600136 176.67187507194467 L 420.6901504000416 176.62181990395766 L 420.72985600004904 176.57804799993755 L 421.60937472002115 176.1796874239226 L 424.4971520000254 175.68870399997104 L 425.31430400005775 175.4071039999253 L 426.1640622080304 174.88281292794272 L 427.19531212805305 174.29687500797445 L 427.8671872000559 174.10937548795482 L 428.7578122240375 174.09765580797102 L 431.0717440000153 174.20799999992596 L 431.1796879360336 174.21484339196468 L 432.88281292805914 174.0039065599558 L 435.06250035203993 173.4179686399293 L 435.77364275202854 173.2150190079701 L 435.92187494406244 173.17578137596138 L 437.2812503040186 172.78515609592432 L 438.06208000006154 172.45798399992054 L 438.28906291205203 172.2656245759572 L 439.1802880000323 171.73073919996386 L 440.51660800003447 172.17638399993302 L 441.1328122880659 172.0859371519182 L 441.948160000029 172.1057279999368 L 443.51590400002897 172.08319999993546 L 444.9474560000235 171.73196799994912 L 445.9959910400212 171.43104307196336 L 447.23437465605093 171.07812454394298 L 448.10937548801303 170.75390668795444 L 448.19531264004763 170.7343749119318 L 448.2578124800348 170.72656281595118 L 452.1748480000533 169.83654399996158 L 454.8671877120505 168.97265663993312 L 456.5078128640307 168.5039063039585 L 457.7656248320127 167.9648440319579 L 459.75785369606456 166.93750067194924 L 460.8203120640246 166.96875007991912 L 461.3416407040204 167.1554959359346 L 462.2781440000399 167.76294399995822 L 462.5049600000493 167.9185919999727 L 465.46539520006627 168.56542822392657 L 466.0390625280561 168.70312550396193 L 466.11097804806195 168.71875891194213 L 466.39062528003706 168.78515609592432 L 467.68640000006417 168.69171199994162 L 468.43749990401557 168.76171878393507 L 469.5937495040125 168.78515609592432 L 470.3457280000439 168.55142399994656 L 471.14079846401 168.12114329595352 L 471.37499955203384 168.18749951996142 L 471.81107200001134 168.4111359999515 L 472.39168000005884 168.4111359999515 L 473.8918400000548 168.27084799995646 L 473.94304000004195 168.23603199992795 L 475.4609377280576 168.06249983992893 L 476.38281216000905 167.75781273597386 L 476.61421465605963 167.59696076792898 L 476.8281251840526 167.4531246079714 L 477.4156800000346 166.95705599995563 L 478.2909440000658 166.44710399996256 L 479.3124997120467 166.0507811839343 L 483.03001600003336 165.25516799994512 L 483.98028800002066 165.17375999991782 L 484.281249792024 165.187500031956 L 486.71093760005897 165.2812503039604 L 489.37499955203384 165.0937497599516 L 490.80468787206337 164.78906265593832 L 492.0000000000582 164.01953075191705 L 493.5000002560555 163.4570311679272 L 494.8657694720314 162.56732979195658 L 495.64843724801904 162.28906291193562 L 497.0455040000379 162.03161599993473 L 497.98348800005624 161.9614719999372 L 504.07031296001514 162.15234355191933 L 505.0936739840545 162.31639347196324 L 505.7343754240428 162.7773439999437 L 506.35264000005554 163.46214399993187 L 506.9660160000203 163.72019199992064 L 507.4769920000108 163.76729599991813 L 508.1927680000663 163.79084799991688 L 509.24999987205956 163.69921843195334 L 510.40972800005693 163.48774399992544 L 510.9555200000177 163.16006399993785 L 511.257810944051 162.83983974397415 L 512.1548124160618 162.21194444794673 L 513.195312128053 162.3203123199637 L 513.4531246080296 162.46093721594661 L 514.1698560000514 162.6726399999461 L 516.677625856013 162.8240936959628 L 517.6995840000454 163.44217599992407 L 518.0234373120475 164.12109414394945 L 518.2968750080327 164.51953151996713 L 518.4843745280523 164.66015641595004 L 518.6723840000341 164.79846399993403 L 519.3205760000274 165.03193599992665 L 520.9579520000261 165.42924799997127 L 525.6970240000519 165.8009599999641 L 527.7429760000668 165.56646399997408 L 529.6249999360298 165.47265638393583 L 529.7294336000341 165.46569318394177 L 530.0624998400453 165.44921907194657 L 531.2812503040186 164.92968755192123 L 532.2421872640261 164.85156249592546 L 533.0278400000534 165.2951039999607 L 533.1302400000277 165.424127999926 L 533.6760320000467 165.77433599997312 L 534.4921876480221 166.07812505593756 L 536.3359375360305 166.2656245759572 L 539.7442560000345 166.42764799995348 L 541.1430400000536 166.5443839999498 L 542.1312000000617 166.47372799995355 L 543.5627520000562 166.23923199996352 L 549.8359377920278 166.0039065599558 L 549.8906245120452 165.94531225593528 L 550.992188416014 165.72266086394666 L 552.0859371520346 165.67578111996409 L 553.9676160000381 165.69651199993677 L 555.1171870720573 165.79296870395774 L 556.9609379840549 165.69921843195334 L 559.9296870400431 165.44140595191857 L 561.4609377280576 165.2773437439464 L 564.1249996800325 165.1367188479635 L 564.2734376960434 165.08984422392678 L 567.0881280000322 164.97049599996535 L 567.8469120000373 164.93107199994847 L 568.8944640000118 164.97049599996535 L 571.0766080000321 164.9469439999666 L 573.5312496640254 164.6445311999414 L 576.4638720000512 164.3397119999281 L 578.9859840000281 163.82463999994798 L 580.657152000058 163.63724799995543 L 582.3621120000607 163.56761599995662 L 583.145472000062 163.40377599996282 L 585.9062497280538 162.93749964796007 L 586.6741760000587 162.76991999993334 L 589.0468751360313 162.25781247991836 L 593.4786560000503 161.15814399992814 L 593.9218749440624 161.16015615995275 L 593.9751495680539 161.0992711679428 L 596.3750000640284 160.5976565759629 L 597.8125004800386 160.19921919994522 L 597.96326400002 160.1361919999472 L 598.8697600000305 159.765759999922 L 601.6514519040356 158.7769087999477 L 602.6744739840506 158.41899110394297 L 602.8216320000356 158.39948799996637 L 602.8749998080311 158.35156275192276 L 605.2031252480228 157.56250009592623 L 605.4912225280423 157.46728140796768 L 608.6533120000386 156.4354559999192 L 610.6015621120459 155.9140628479654 L 613.3984378880123 155.26562508795178 L 614.179687424039 155.01953126396984 L 615.9395840000361 154.4729599999264 L 617.249792000046 154.1447679999401 L 617.4535680000554 154.12121599994134 L 617.5088220160105 154.05822668795008 L 619.8437498880667 153.21093734394526 L 620.6718750720611 152.83984383993084 L 622.3109120000154 152.11468799994327 L 623.8671872000559 151.52734412794234 L 626.9295831040363 150.5198274559225 L 627.1093749760184 150.4999997439445 L 627.1484375040163 150.449218559952 L 630.7921920000226 149.2613119999296 L 631.9531253760215 148.9101557759568 L 636.390625280037 147.5078123519197 L 637.7861120000598 147.15801599994302 L 639.8535680000205 146.84467199991923 L 643.0392320000101 146.0367359999218 L 646.5859379200265 145.1328122879495 L 646.7215360000264 145.12230399996042 L 646.8828129280591 145.06250035192352 L 647.3359360000468 144.8888319999678 L 648.9531248640269 144.51171839993913 L 650.7458560000523 144.09113599994453 L 651.7734379520407 143.73828095995123 L 652.6545920000644 143.3651199999731 L 656.6440960000618 142.47423999995226 L 659.4928640000289 141.5132159999339 L 664.0107520000311 140.06169599993154 L 666.2968750080327 139.14843750395812 L 670.7265628160094 137.183593471942 L 674.3777280000504 135.3789439999382 L 675.6093747200212 134.69921894394793 L 676.8670720000518 134.04467199993087 L 679.4936320000561 132.66431999992346 L 680.4776960000163 132.00895999994827 L 683.2117760000401 130.3705599999521 L 685.3601280000294 128.7321599999559 L 686.1475840000203 128.06041599996388 L 687.2268144640257 126.98425753595075 L 688.20866355201 126.52450201596366 L 688.3984373760177 126.69921894394793 L 688.6484377600136 126.92578099196544 L 688.8203120640246 127.07812454394298 L 688.9843752960442 127.22656255995389 L 688.9881600000663 127.2279039999703 L 689.9140628480236 127.0937497599516 L 690.3470080000116 127.02822399995057 L 690.4320000000298 127.00467199995182 L 695.2578129920294 126.21093785593985 L 697.648437248019 125.60156262392411 L 701.1624960000627 124.50099199992837 L 704.1640622080304 123.40234342392068 L 707.4078720000107 122.0904959999607 L 710.7512320000096 120.66406399995321 L 712.9354240000248 119.54073599993717 L 716.3484160000226 117.64633599994704 L 717.7109370880644 117.08593766397098 L 720.1388800000423 115.70411827194039 L 721.7734379520407 115.00390604796121 L 723.2768000000506 114.46579199994449 L 726.4531251200242 113.64843724796083 L 727.6796876800363 113.3671874559368 L 728.225792000012 113.43769599992083 L 728.6328125440632 113.57812531193485 L 728.9453127680463 113.60156262392411 L 729.0627440640237 113.42541516793426 L 729.182208000042 113.25030399992829 L 729.6942080000299 112.96972799993819 L 730.54720000003 112.75980799994431 L 732.7656253440655 112.5976565759629 L 735.2576000000117 111.918079999974 L 736.6574080000282 111.35692799993558 L 738.5390622720588 110.49218764796387 L 740.1738240000559 109.79020799993305 L 744.2343751680455 107.89843763195677 L 745.7421875200234 107.05468723195372 L 746.5922560000326 106.63423999992665 L 749.6328120320104 105.2773437439464 L 751.8203125760192 104.4140625919681 L 754.2109378560563 103.19921868795063 L 757.1783680000226 102.09894399996847 L 758.9921873920248 101.32812492793892 L 761.0378240000573 100.64998399995966 L 762.2343751680455 100.39453081594547 L 766.3281254400499 99.60937471996294 L 766.5703127040179 99.5546879999456 L 767.8586880000657 99.30956799996784 L 768.8775680000545 98.99417599994922 L 771.0937497600098 98.05859327997314 L 771.4062499840511 98.05859327997314 L 771.5004631040501 97.95606732793385 L 771.5616337920655 97.89274521596963 L 771.6093747200212 97.84765644796425 L 778.5703127040179 94.96484351996332 L 781.4687498240382 93.58593740797369 L 782.463254528062 93.07256934395991 L 784.4720640000305 92.03916799993021 L 786.5548800000106 91.19539199996507 L 790.6171873280546 89.1367188479635 L 792.7343749120482 87.84765644796425 L 794.3362560000387 86.84134399995673 L 794.8515624960419 86.58203135995427 L 797.546874880034 84.99218739196658 L 800.4454400000395 83.32902399991872 L 801.8828124160646 82.25390591996256 L 803.2300492800423 81.1089448959683 L 804.6438400000334 79.9119359999313 L 808.0916480000596 77.38470399996731 L 808.7734374400461 76.89453158393735 L 809.79687526403 76.56640614394564 L 810.382812160009 76.21484339196468 L 810.634361856035 76.02618163195439 L 810.8236800000304 75.88659199996619 L 810.8822292480618 75.76598015992204 L 810.9296875520376 75.67578111996409 L 811.9152640000102 74.66905599995516 L 817.656250368047 70.5039063039585 L 819.4327388160164 68.92912332795095 L 821.4097920000204 67.18054399994435 L 821.6145920000272 67.11091199994553 L 821.9217920000665 67.11091199994553 L 822.1839575040503 67.18910156795755 L 822.2109378560563 67.19921868795063 L 822.3984373760177 67.25390643195715 L 823.2202209280222 67.86048409593059 L 824.1080320000183 68.53836799995042 L 824.2421872640261 68.6796871679253 L 825.335937024036 69.35937535995618 L 825.5390627840534 69.40624998393469 L 825.7812500480213 69.35937535995618 L 826.6014720000094 69.28691199992318 L 826.7421870080288 69.07812454394298 L 826.7038720000419 68.88959999993676 L 826.5703127040179 68.7734374399297 L 825.5764480000362 68.86604799993802 L 825.1015628800378 68.63281254394678 L 824.2968750080327 67.97656268795254 L 824.2578124800348 67.94140671996865 L 822.6824366080109 66.7715061759227 L 822.6406246400438 66.73828147194581 L 822.6265866240137 66.72985907195834 L 822.6048000000301 66.71359999995911 L 822.4687503360328 66.29296844796045 L 822.710937600059 65.77734348794911 L 823.8671872000559 64.56249958393164 L 826.6718750720611 61.800780799938366 L 827.7964800000191 60.51327999995556 L 830.8705280000577 57.35423999995692 L 830.8783790080342 57.310704639938194 L 830.8906250240398 57.261718527937774 L 830.9062502400484 57.167968255933374 L 832.4680017920327 55.4594856959302 L 834.5262080000248 53.212159999937285 L 835.8593751040171 51.43359385593794 L 836.8148480000091 50.47500799992122 L 837.2592640000512 49.77356799994595 L 837.5000002560555 49.281250303960405 L 837.6012800000608 48.95436799991876 L 837.9765626880107 48.18359398393659 L 838.5239040000597 47.106047999928705 L 839.1406254080357 46.21874995192047 L 839.5489280000329 45.467647999932524 L 841.0183680000482 43.338751999952365 L 841.1893760000239 42.964991999964695 L 841.6010240000323 42.33318399993004 L 842.1484369920217 41.562500095926225 L 843.4462720000301 40.18073599995114 L 843.5859374080319 39.910156287951395 L 843.7196800000384 39.64211199997226 L 844.0954880000209 38.87001599994255 L 844.6093752320157 38.21484339196468 L 845.5997440000647 37.42003199993633 L 845.9446671360638 37.160639487963635 L 847.2063938560314 36.57728307193611 L 849.393664000032 36.01612799993018 L 851.7187502080342 35.29296895995503 L 853.8359377920278 34.49609420791967 L 855.580672000011 33.794047999952454 L 857.425920000067 33.16428799997084 L 858.5891840000404 32.602111999935005 L 861.4921871360275 31.878905855934136 L 862.4855040000402 31.410175999917556 L 864.748843008012 29.889515519957058 L 864.8828129280591 29.867187199939508 L 864.9107384320232 29.80934143991908 L 864.9659299840569 29.70889113593148 L 864.9843752960442 29.67968767991988 L 868.2649600000586 27.106303999957163 L 868.4697600000654 27.059199999959674 L 868.5721600000397 26.825727999967057 L 870.0088320000214 25.656319999950938 L 870.1484369920217 25.49218713596929 L 870.5234370560502 25.16406271996675 L 871.1034880000516 24.48691199993482 L 871.4140620800317 24.04296908795368 L 871.4421463040635 23.986800639948342 L 871.5156254720641 23.85546854394488 L 871.4843750400469 22.050781183934305 L 871.6185600000317 21.374975999933667 L 871.7578127360321 21.140625407919288 L 871.8919680000399 20.90700799995102 L 872.8842240000376 19.901439999928698 L 874.3219200000167 18.661375999916345 L 875.5875840000226 17.444863999960944 L 877.9843747840496 15.503905791963916 L 878.6015621120459 15.12890675192466 L 879.3203128320165 14.828125183936208 L 879.9296870400431 14.617187327938154 L 883.2968744960381 13.042968575959094 L 883.4517903360538 12.96837939193938 L 883.7265623040148 12.839843839930836 L 885.2031252480228 12.066406399942935 L 886.7421870080288 11.039062015945092 L 892.2132480000146 7.578623999957927 L 893.7890621440602 7.042968575959094 L 894.9531248640269 6.667968511930667 L 895.3281249280553 6.597656575962901 L 895.8627840000554 6.552575999929104 L 897.5234375680448 6.789062655938324 L 898.2046720000217 6.716415999922901 L 901.6953128960449 6.01171865593642 L 902.8208640000666 5.91871999995783 L 903.8828124160646 6.15234355191933 L 904.289062912052 6.316405759949703 L 904.8359372800332 6.8320317439502105 L 904.859518976009 6.914567167928908 L 904.8729600000661 6.9703679999220185 L 905.0449920000392 7.110655999917071 L 905.0161786880344 7.246246911934577 L 905.0078126080334 7.273437183932401 L 905.1136000000406 7.320575999969151 L 905.1136000000406 7.507967999961693 L 905.2660899840412 7.880069119972177 L 905.3515622400446 8.093750271946192 L 905.3857105920324 8.1150924799731 L 905.4308167680283 8.146216959925368 L 905.4531246080296 8.164062207972165 L 905.4843750400469 8.273437695926987 L 905.898437632015 8.937499647960067 L 906.7890626560547 9.941406719968654 L 908.1262080000597 10.899455999955535 L 909.4218752000597 11.4609377279412 L 911.9223121920368 12.324556799954735 L 912.6758400000399 12.909567999944557 L 913.4296872960404 13.332031487952918 L 915.1723520000232 13.844479999970645 L 918.8984371200204 14.406250495929271 L 923.4140620800317 14.84765593596967 L 931.8246400000644 14.914559999946505 L 934.0477440000395 15.054847999941558 L 935.1761920000426 15.054847999941558 L 940.3750000640284 14.777343999943696 L 940.6064640000113 14.763007999921683 L 941.7062400000286 14.703615999955218 L 941.9110400000354 14.703615999955218 L 942.0727879680344 14.65983590396354 L 947.2812503040186 13.999999999941792 L 950.048768000037 13.555711999943014 L 953.3655040000449 12.9464319999679 L 953.7413120000274 12.9464319999679 L 953.8437498880667 12.878906367928721 L 953.85416704003 12.869791743927635 L 953.8785280000302 12.853247999970336 L 959.3828126720618 11.753906175959855 L 961.3671874560532 11.003906047961209 L 962.4606720000156 10.559487999940757 L 963.898437632015 9.50781235191971 L 965.0933760000626 8.781823999946937 L 967.968749568041 7.519531007972546 L 969.8817873920198 6.441983999917284 L 970.0864000000292 6.441983999917284 L 970.1874995200196 6.308593663969077 L 970.2027816960472 6.281849855964538 L 970.2225920000346 6.254591999924742 L 971.453440000012 5.552127999952063 L 972.2031247360283 5.249999871943146 L 974.0859371520346 4.851562495925464 L 976.5836800000397 3.9854079999495298 L 978.4296878080349 3.5898439679294825 L 979.251200000057 3.1907839999184944 L 980.1410560000222 2.512895999941975 L 980.9609379840549 2.093750271946192 L 981.8859520000406 1.693695999972988 L 981.9921879040194 1.5781253119348548 L 982.775808000064 0.9922559999395162 L 983.5622400000575 0.5949439999531023 L 985.9962880000239 0.06758399994578212 L 986.2790117863478 0.0" fill="none"/><path stroke="#000000" stroke-width="2" d="M 995.6718745600665 0.0 L 995.6718745600665 0.06640639994293451 L 995.7343754240428 0.5546874879510142 L 996.319232000038 1.323007999919355 L 996.5546874880092 1.582030847959686 L 996.6949744640151 1.8225233919220045 L 996.9684480000287 2.306047999940347 L 997.4118400000152 2.75046399992425 L 997.4044774400536 2.770765823952388 L 997.3906247680425 2.800781311932951 L 997.3749995520338 2.843750399944838 L 997.9586560000316 3.4754559999564663 L 998.6764800000237 4.1543679999304 L 999.360512000043 4.622335999971256 L 1000.4541440000175 4.99711999995634 L 1002.7458560000523 5.419007999938913 L 1005.5147520000464 5.7241599999251775 L 1008.1484369920217 5.796875263971742 L 1008.7656253440655 5.867187199939508 L 1014.6457600000431 5.868543999968097 L 1019.8359377920278 5.277343743946403 L 1020.9730560000171 5.14559999993071 L 1023.2187504640315 4.984375295927748 L 1023.8671872000559 4.894531583937351 L 1024.0 4.8872565412311815" fill="none"/><path stroke="#000000" stroke-width="2" d="M 0.0 702.9243842002761 L 9.835937792027835 704.9101557759568 L 13.210937344061676 705.5234375679283 L 28.164062208030373 708.4921876479639 L 32.57031270401785 709.3124997119303 L 36.86718771205051 710.1328127999441 L 71.99218790401937 716.9921873919666 L 75.36718745605322 717.6054691839381 L 83.15624960005516 719.1445309439441 L 92.88281292805914 720.5742182399263 L 97.59374950401252 721.7031249919673 L 104.55468748800922 723.2382812159485 L 107.21875046403147 723.5468748799176 L 111.92968704004306 724.5703127039596 L 113.87500032002572 724.980468735972 L 124.42187468806515 726.6171873279382 L 127.79687526402995 727.2304691199679 L 132.5078128640307 728.4609372159466 L 146.94531276804628 731.2265625599539 L 199.47656294406625 741.2617185279378 L 210.02343731204746 743.2070307839313 L 214.32812544004992 744.027343871945 L 217.0937497600098 744.5390622719424 L 227.32812492805533 746.6875002879533 L 241.15624960005516 749.4531246079714 L 255.79687526402995 752.1171875839354 L 262.65624985605245 753.5507814399316 L 264.812499968044 753.9570309119299 L 271.25781299202936 755.187500031956 L 286.10937548801303 757.9531253759633 L 296.8593745920225 760.1015623679268 L 302.79687475203536 761.2304691199679 L 308.1249996800325 762.2539059199626 L 311.0937497600098 762.7656253439491 L 322.46093721606303 764.9140623359708 L 334.1328128000605 767.1679682559334 L 338.6406246400438 768.0898437119322 L 340.89062502403976 768.2968750079744 L 344.6796871680417 769.1132815359742 L 359.2265625600121 772.1874995199614 L 370.281249792024 774.3359375359723 L 374.9921873920248 775.2578129919712 L 383.79687526402995 776.7929692159523 L 402.5390622720588 780.277344255941 L 408.2734376960434 781.3007810559357 L 417.898437632015 783.2460933119291 L 422.60937523201574 784.167968767928 L 425.6796876800363 784.7812495359685 L 457.42187520005973 790.8242186239222 L 465.20312524802284 792.4609372159466 L 468.38281216000905 793.0742190079181 L 473.8046873600106 794.1015623679268 L 477.28906240005745 794.5078128639725 L 489.47656294406625 796.8632811519201 L 510.7734374400461 801.1640627199668 L 515.5859374080319 802.2929684479604 L 521.8359377920278 803.5195310079725 L 525.7265623040148 804.2382817279431 L 529.8203125760192 804.9531248639687 L 534.1249996800325 805.7734379519243 L 540.0624998400453 807.0000005119364 L 544.0546877440647 807.820312575961 L 549.3828126720618 808.9492183039547 L 564.53125017602 811.816406015947 L 569.2421877760207 812.7382814719458 L 577.8437498880667 814.3750000639702 L 590.0312504320173 816.7304683519178 L 605.4921871360275 819.6992184319533 L 608.460937216063 820.3125002239249 L 610.6171873280546 820.7226562559372 L 615.6328120320104 821.746094079921 L 623.9296870400431 823.1796879359172 L 628.8437504000613 824.1015623679268 L 639.4921871360275 825.9453122559353 L 670.6250004480244 832.0898437119322 L 722.2343751680455 842.1249996799743 L 732.2656245760154 844.0703129599569 L 740.7656253440655 845.8125004799222 L 769.0312499200227 851.1367188479635 L 777.3203128320165 852.6718750719447 L 782.3359375360305 853.6953128959285 L 798.109375488013 856.664062975964 L 801.4921871360275 857.2812503039604 L 808.4531251200242 858.7148441599566 L 814.5937500160653 859.9414067199687 L 818.7968747520354 860.9648435199633 L 823.9140628480236 861.9921879039612 L 835.898437632015 864.347656191967 L 839.1718748160638 864.9609379839385 L 842.5468753920286 865.5742187519209 L 853.1015628800378 867.4179686399293 L 858.3203123200219 868.4414064639714 L 863.8515630080365 869.6718745599501 L 875.1171870720573 872.027343871945 L 882.4843745280523 873.3554687999422 L 895.898437632015 876.019530751917 L 914.4374999040156 879.2968744959217 L 919.4531246080296 880.2187499519205 L 930.2031247360283 882.1640622079722 L 942.1874995200196 887.078124543943 L 954.6796871680417 892.3007815679302 L 958.3671879680478 893.7343754239264 L 963.898437632015 896.0898437119322 L 996.562499584048 909.4023434239207 L 1000.8593745920225 911.2460933119291 L 1005.5703121920233 913.19140659197 L 1023.898437632015 920.4609372159466 L 1024.0 920.5024269572386" fill="none"/></svg>