<svg xmlns="http://www.w3.org/2000/svg" width="1024" height="1024"><rect stroke="none" x="0" y="0" width="1024" height="1024" fill="white"/><path stroke="#000000" stroke-width="2" d="M 1024.0 1.7790030786200077 L 1023.3906247680425 1.726562303956598 L 1011.1015628800378 1.8320312319556251 L 1005.7734379520407 1.9335935999406502 L 996.9687500800355 1.9335935999406502 L 991.9531253760215 1.8320312319556251 L 987.445312512049 1.9335935999406502 L 973.3124997120467 2.035155967925675 L 969.1171870720573 2.035155967925675 L 955.8046873600106 1.9335935999406502 L 950.4765624320135 2.136718335968908 L 936.6562498560525 2.242187263967935 L 928.1562501120497 2.242187263967935 L 918.7343749120482 2.34374963195296 L 913.7187502080342 2.34374963195296 L 909.4140620800317 2.445311999937985 L 904.1953126400476 2.445311999937985 L 900.2031247360283 2.5468753919703886 L 876.4453120000544 2.5468753919703886 L 858.0156252160086 2.6484377599554136 L 844.390625280037 2.8554690559394658 L 816.7421870080288 2.8554690559394658 L 806.710937600059 2.957031423924491 L 804.3515627520392 3.0585937919677235 L 779.4687498240382 3.1601561599527486 L 766.5703127040179 3.1601561599527486 L 751.7187502080342 3.2656250879517756 L 734.0078120960388 3.3671874559368007 L 719.3671874560532 3.4687498239218257 L 694.6875002880115 3.5703121919650584 L 656.289062912052 3.7773434879491106 L 649.9375001600129 3.8789058559341356 L 640.2109378560563 3.980469247966539 L 636.3203123200219 3.8789058559341356 L 621.164062720025 3.980469247966539 L 617.476562944008 4.082031615951564 L 612.8671877120505 3.980469247966539 L 603.445312512049 3.980469247966539 L 599.656250368047 4.082031615951564 L 585.015624704014 4.1874995199614204 L 566.2734376960434 4.492187647963874 L 556.6484377600136 4.593750015948899 L 543.335937024036 4.492187647963874 L 511.28906240005745 4.492187647963874 L 506.78124953602673 4.593750015948899 L 500.2265620480175 4.492187647963874 L 497.15624960005516 4.492187647963874 L 492.4453120000544 4.593750015948899 L 473.9140628480236 4.593750015948899 L 470.2265620480175 4.699218943947926 L 455.47656294400804 4.699218943947926 L 450.97656217601616 4.800781311932951 L 446.2656245760154 4.699218943947926 L 436.84375040006125 4.902343679917976 L 417.5937495040125 4.902343679917976 L 414.51562496001134 5.109374975960236 L 411.2421877760207 5.003906047961209 L 408.78124953602673 5.003906047961209 L 405.30468761600787 5.109374975960236 L 395.46874982403824 5.109374975960236 L 383.5937495040125 5.312499711930286 L 381.34375014406396 5.312499711930286 L 377.34375014406396 5.210937343945261 L 362.9062502400484 5.210937343945261 L 358.60937523201574 5.312499711930286 L 325.6328120320104 5.312499711930286 L 321.6406251520384 5.414062079973519 L 312.42968780803494 5.515625471947715 L 306.9999994880636 5.414062079973519 L 303.4140620800317 5.515625471947715 L 284.98437529604416 5.515625471947715 L 270.03125043201726 5.722655743942596 L 251.5000002560555 5.722655743942596 L 247.50781235203613 5.8242191359749995 L 232.8593745920225 5.8242191359749995 L 229.07031244802056 5.925781503960025 L 219.75781273603207 5.925781503960025 L 211.86718720005592 6.02734387194505 L 195.89843763201497 6.132812799944077 L 192.0000000000582 6.02734387194505 L 186.88281292805914 6.02734387194505 L 183.29687449603807 6.132812799944077 L 174.18749952001963 6.132812799944077 L 171.11718707205728 6.234375167929102 L 155.546874880034 6.234375167929102 L 140.80468787206337 6.3359375359723344 L 135.99218790401937 6.3359375359723344 L 127.79687526402995 6.4374999039573595 L 100.96875008003553 6.4374999039573595 L 97.69531289604492 6.542968831956387 L 94.10937548801303 6.542968831956387 L 90.01562521600863 6.4374999039573595 L 84.78906265605474 6.4374999039573595 L 81.71875020803418 6.644531199941412 L 63.492187136027496 6.644531199941412 L 47.82812467205804 6.746093567926437 L 33.695312896044925 6.746093567926437 L 29.492187136027496 6.847655935969669 L 0.0 6.847655935969669" fill="none"/><path stroke="#000000" stroke-width="2" d="M 1024.0 512.4999997439445 L 978.2343751680455 512.4999997439445 L 969.9375001600129 512.3984373759595 L 964.0000000000582 512.4999997439445 L 960.6171873280546 512.6015621119295 L 937.3749995520338 512.8085934079718 L 930.4062504960457 512.8085934079718 L 922.6250004480244 512.9101557759568 L 895.5937495040125 512.4999997439445 L 876.0390625280561 512.4999997439445 L 851.0468751360313 512.6015621119295 L 803.7421875200234 512.6015621119295 L 799.4375004160102 512.4999997439445 L 696.53125017602 512.4999997439445 L 675.7421875200234 512.3984373759595 L 647.5781253120513 512.3984373759595 L 640.5156249600113 512.4999997439445 L 621.0625003520399 512.7031255039619 L 604.0624998400453 512.6015621119295 L 598.7343749120482 512.7031255039619 L 546.921875456057 512.6015621119295 L 515.4843750400469 512.6015621119295 L 511.5937495040125 512.3984373759595 L 503.7109370880644 512.4999997439445 L 384.51562496001134 512.4999997439445 L 366.69531238405034 512.3984373759595 L 354.61718732805457 512.3984373759595 L 340.38281216000905 512.4999997439445 L 315.70312499202555 512.4999997439445 L 308.42968780803494 512.3984373759595 L 297.6796876800363 512.2929684479604 L 288.2578124800348 512.2929684479604 L 275.8671872000559 512.1914060799754 L 262.14843699202174 512.1914060799754 L 254.87499980803113 512.2929684479604 L 198.04687462403672 512.2929684479604 L 189.9531253760215 512.3984373759595 L 169.27343718404882 512.3984373759595 L 165.5859374080319 512.0898437119322 L 162.61718732805457 511.98828134394716 L 127.79687526402995 511.98828134394716 L 123.80468736001058 511.88671897596214 L 107.42187520005973 511.6796876799199 L 103.01562470401404 511.57812531193485 L 87.14843750401633 511.47656294394983 L 53.76562483201269 511.47656294394983 L 40.656249856052455 511.57812531193485 L 26.625000448024366 511.47656294394983 L 12.499999744060915 511.47656294394983 L 6.765625344007276 511.6796876799199 L 0.0 511.6796876799199" fill="none"/><path stroke="#000000" stroke-width="2" d="M 0.0 6.847655935969669 L 29.492187136027496 6.847655935969669 L 33.695312896044925 6.746093567926437 L 47.82812467205804 6.746093567926437 L 63.492187136027496 6.644531199941412 L 81.71875020803418 6.644531199941412 L 84.78906265605474 6.4374999039573595 L 90.01562521600863 6.4374999039573595 L 94.10937548801303 6.542968831956387 L 97.69531289604492 6.542968831956387 L 100.96875008003553 6.4374999039573595 L 127.79687526402995 6.4374999039573595 L 135.99218790401937 6.3359375359723344 L 140.80468787206337 6.3359375359723344 L 155.546874880034 6.234375167929102 L 171.11718707205728 6.234375167929102 L 174.18749952001963 6.132812799944077 L 183.29687449603807 6.132812799944077 L 186.88281292805914 6.02734387194505 L 192.0000000000582 6.02734387194505 L 195.89843763201497 6.132812799944077 L 211.86718720005592 6.02734387194505 L 219.75781273603207 5.925781503960025 L 229.07031244802056 5.925781503960025 L 232.8593745920225 5.8242191359749995 L 247.50781235203613 5.8242191359749995 L 251.5000002560555 5.722655743942596 L 270.03125043201726 5.722655743942596 L 284.98437529604416 5.515625471947715 L 303.4140620800317 5.515625471947715 L 306.9999994880636 5.414062079973519 L 312.42968780803494 5.515625471947715 L 321.6406251520384 5.414062079973519 L 325.6328120320104 5.312499711930286 L 358.60937523201574 5.312499711930286 L 362.9062502400484 5.210937343945261 L 377.34375014406396 5.210937343945261 L 381.34375014406396 5.312499711930286 L 383.5937495040125 5.312499711930286 L 395.46874982403824 5.109374975960236 L 405.30468761600787 5.109374975960236 L 408.78124953602673 5.003906047961209 L 411.2421877760207 5.003906047961209 L 414.51562496001134 5.109374975960236 L 417.5937495040125 4.902343679917976 L 436.84375040006125 4.902343679917976 L 446.2656245760154 4.699218943947926 L 450.97656217601616 4.800781311932951 L 455.47656294400804 4.699218943947926 L 470.2265620480175 4.699218943947926 L 473.9140628480236 4.593750015948899 L 492.4453120000544 4.593750015948899 L 497.15624960005516 4.492187647963874 L 500.2265620480175 4.492187647963874 L 506.78124953602673 4.593750015948899 L 511.28906240005745 4.492187647963874 L 543.335937024036 4.492187647963874 L 556.6484377600136 4.593750015948899 L 566.2734376960434 4.492187647963874 L 585.015624704014 4.1874995199614204 L 599.656250368047 4.082031615951564 L 603.445312512049 3.980469247966539 L 612.8671877120505 3.980469247966539 L 617.476562944008 4.082031615951564 L 621.164062720025 3.980469247966539 L 636.3203123200219 3.8789058559341356 L 640.2109378560563 3.980469247966539 L 649.9375001600129 3.8789058559341356 L 656.289062912052 3.7773434879491106 L 694.6875002880115 3.5703121919650584 L 719.3671874560532 3.4687498239218257 L 734.0078120960388 3.3671874559368007 L 751.7187502080342 3.2656250879517756 L 766.5703127040179 3.1601561599527486 L 779.4687498240382 3.1601561599527486 L 804.3515627520392 3.0585937919677235 L 806.710937600059 2.957031423924491 L 816.7421870080288 2.8554690559394658 L 844.390625280037 2.8554690559394658 L 858.0156252160086 2.6484377599554136 L 876.4453120000544 2.5468753919703886 L 900.2031247360283 2.5468753919703886 L 904.1953126400476 2.445311999937985 L 909.4140620800317 2.445311999937985 L 913.7187502080342 2.34374963195296 L 918.7343749120482 2.34374963195296 L 928.1562501120497 2.242187263967935 L 936.6562498560525 2.242187263967935 L 950.4765624320135 2.136718335968908 L 955.8046873600106 1.9335935999406502 L 969.1171870720573 2.035155967925675 L 973.3124997120467 2.035155967925675 L 987.445312512049 1.9335935999406502 L 991.9531253760215 1.8320312319556251 L 996.9687500800355 1.9335935999406502 L 1005.7734379520407 1.9335935999406502 L 1011.1015628800378 1.8320312319556251 L 1023.3906247680425 1.726562303956598 L 1024.0 1.7790030786200077" fill="none"/><path stroke="#000000" stroke-width="2" d="M 0.0 511.6796876799781 L 6.765625344007276 511.6796876799781 L 12.499999744119123 511.4765629438916 L 26.625000448024366 511.4765629438916 L 40.65624985611066 511.57812531193485 L 53.76562483201269 511.4765629438916 L 87.14843750407454 511.4765629438916 L 103.01562470407225 511.57812531193485 L 107.42187520011794 511.6796876799781 L 123.80468736012699 511.88671897590393 L 127.79687526402995 511.98828134394716 L 162.61718732805457 511.98828134394716 L 165.5859374080319 512.0898437119904 L 169.27343718410702 512.3984373759595 L 189.9531253760215 512.3984373759595 L 198.04687462403672 512.292968447844 L 254.87499980803113 512.292968447844 L 262.14843699202174 512.1914060799754 L 275.8671872000559 512.1914060799754 L 288.257812480093 512.292968447844 L 297.6796876800363 512.292968447844 L 308.42968780803494 512.3984373759595 L 315.70312499202555 512.4999997440027 L 340.38281216000905 512.4999997440027 L 354.61718732805457 512.3984373759595 L 366.69531238405034 512.3984373759595 L 384.51562496006954 512.4999997440027 L 503.7109370881226 512.4999997440027 L 511.59374950407073 512.3984373759595 L 515.4843750401051 512.6015621118131 L 546.9218754561152 512.6015621118131 L 598.7343749121064 512.7031255039619 L 604.0624998401036 512.6015621118131 L 621.0625003521563 512.7031255039619 L 640.5156249600113 512.4999997440027 L 647.5781253121095 512.3984373759595 L 675.7421875200234 512.3984373759595 L 696.5312501760782 512.4999997440027 L 799.4375004160684 512.4999997440027 L 803.7421875200816 512.6015621118131 L 851.0468751360895 512.6015621118131 L 876.0390625281143 512.4999997440027 L 895.5937495040707 512.4999997440027 L 922.6250004480244 512.910155776015 L 930.4062504961039 512.8085934079718 L 937.374999552092 512.8085934079718 L 960.6171873281128 512.6015621118131 L 964.0000000000582 512.4999997440027 L 969.9375001600129 512.3984373759595 L 978.2343751680455 512.4999997440027 L 1024.0 512.4999997440027" fill="none"/></svg>