<svg xmlns="http://www.w3.org/2000/svg" width="1024" height="1024"><rect stroke="none" x="0" y="0" width="1024" height="1024" fill="white"/><path stroke="#000000" stroke-width="2" d="M 215.24828160001198 0.0 L 215.24828160001198 6.029148159956094 L 215.30468761606608 10.636719103960786 L 215.3124997120467 13.683594239933882 L 215.3124997120467 15.011719167931005 L 215.3272934400593 18.90987007995136 L 215.32812492805533 20.058593279973138 L 215.34375014406396 26.542968831956387 L 215.35068160004448 27.75932108797133 L 215.35068160004448 44.22434815997258 L 215.40348723204806 46.547786751936655 L 215.4062499840511 47.46665779192699 L 215.4062499840511 49.77343795192428 L 215.4140262400615 50.95546265592566 L 215.41830656002276 52.1471999999485 L 215.42684672004543 56.28587007994065 L 215.43537664005999 58.34524671995314 L 215.44009113602806 60.35458559996914 L 215.445312512049 64.40625049592927 L 215.45308160001878 65.59258214395959 L 215.45308160001878 76.07074815995293 L 215.51562547206413 79.820312575961 L 215.54531328001758 83.26065151992952 L 215.45308160001878 94.60514815995703 L 215.55468800006201 109.96484403195791 L 215.55468800006201 144.2695311359712 L 215.35068160004448 149.79874815995572 L 215.35068160004448 163.52034815994557 L 215.24828160001198 179.3923481599195 L 215.24828160001198 210.21474815992406 L 215.36754483205732 218.20540825591888 L 215.61718784004916 235.17578137596138 L 215.65625036804704 239.50390579196392 L 215.65625036804704 243.9062497279374 L 215.70312499202555 245.7343754239264 L 215.71875020803418 247.78906214394374 L 215.74045491206925 249.96769484796096 L 215.7532119040261 251.5135846399353 L 215.75781273603207 252.3554682879476 L 215.75781273603207 253.93750015995465 L 215.78125004802132 255.19531212793663 L 215.79940044804243 257.19868313596817 L 215.86268160003237 264.8438364159665 L 215.86268160003237 265.8192629759433 L 215.8593751040171 266.53515673591755 L 215.8593751040171 270.3242188799195 L 215.9453122560517 275.007812607917 L 215.97720473603113 278.6216959999292 L 216.00427008006955 281.94702335994225 L 216.01212620805018 282.965076991939 L 216.01562521606684 283.78906214394374 L 216.0430387200322 286.78890700795455 L 216.06748160003917 289.77499750396237 L 216.06748160003917 293.26114815997425 L 216.11596902401652 296.55827558395686 L 216.12942336004926 299.2611532799201 L 216.13694668805692 300.2436884479248 L 216.14062489604112 301.11718707194086 L 216.15735091204988 303.2183551999624 L 216.16988160001347 305.1431751679629 L 216.16988160001347 311.89794815995265 L 216.24762368004303 317.57315686391667 L 216.25000038405415 318.2265620479593 L 216.27228160004597 321.47907891194336 L 216.27228160004597 325.7219481599168 L 216.3203123200219 329.0039060479612 L 216.3427532800124 332.13724671996897 L 216.34374963206938 332.83593727991683 L 216.37468160002027 337.1400714239571 L 216.37468160002027 355.62274815991987 L 216.47656243201345 372.7226562559372 L 216.37468160002027 380.0963481599465 L 216.6796871680417 383.98828134394716 L 216.57812480005668 388.5937500159489 L 216.57812480005668 396.48046899196925 L 216.6796871680417 403.03515647992026 L 216.6796871680417 408.4609372159466 L 216.78124953602673 411.83984332793625 L 216.8289003520622 414.0266455039382 L 216.88668160006637 416.8579481599736 L 217.09148160001496 423.6163481599651 L 217.29628160002176 430.27234815992415 L 217.29628160002176 436.313948159921 L 217.5000002560555 441.640625151922 L 217.60156262404053 445.4257817599573 L 217.70312499202555 451.3671874559368 L 217.79804262402467 454.4080599039444 L 217.91068160004215 458.12514815991744 L 217.91068160004215 461.8115481599234 L 218.11548160004895 465.29314815992257 L 218.21788160002325 470.3107481599436 L 218.42187468806515 475.2265625599539 L 218.52343705605017 479.93750015995465 L 218.62500044802437 486.79687475191895 L 218.71102566405898 489.2199321599328 L 218.83228160004364 492.73634815996047 L 218.94605516805314 495.4289776639198 L 219.01562470401404 497.12890675192466 L 219.1328122880659 501.80468735995237 L 219.13948160002474 501.9421020159498 L 219.13948160002474 505.8435481599299 L 219.27794995205477 507.712873471959 L 219.29590374405961 508.5916415999527 L 219.30468761606608 509.11718707194086 L 219.39547443203628 513.3813227519277 L 219.5456000000122 520.6983065599343 L 219.62240000005113 524.3135999999358 L 219.6807454720256 527.1712153599365 L 219.74999961606227 530.7226562559372 L 219.76455372804776 531.2840273919282 L 219.85628160001943 538.7139481599443 L 220.06108160002623 546.291548159963 L 220.3671879680478 563.085937663971 L 220.42968780803494 565.4140620799735 L 220.4453120000544 566.3242188799195 L 220.4872079360648 568.4442695679609 L 220.6397706240532 576.714983423939 L 220.67187507206108 578.6171873279382 L 220.70448947203113 580.1724887039745 L 220.7316633600276 581.5985264639603 L 220.77788160002092 585.2035481599742 L 220.88028160005342 590.3235481599695 L 220.98268160002772 595.1363481599255 L 220.99976192001486 596.0416204799549 L 221.05884672002867 599.6003532799659 L 221.0929766400368 601.5544934399659 L 221.1718748160638 606.4179691519239 L 221.35629824001808 617.470050303964 L 221.37964953604387 619.9219261439284 L 221.39062476804247 621.2499998719431 L 221.48437504004687 625.3789061119314 L 221.4921871360275 625.9023441919708 L 221.4921871360275 630.5664061439456 L 221.59374950401252 634.4570316799218 L 221.64607795205666 637.0547363839578 L 221.69952051201835 639.8867240959662 L 221.7386362880352 641.4708879359532 L 221.7734379520407 643.0234378239256 L 221.82377164805075 645.8773534719367 L 221.87272499204846 648.8039475199184 L 221.96874956804095 654.7617187839351 L 222.0066816000617 656.9065902079456 L 222.0066816000617 658.8291481599445 L 222.0674621440121 660.6525593599654 L 222.10693529603304 663.3000509439735 L 222.109081600036 663.4574172159191 L 222.109081600036 666.5091481599375 L 222.21093785605626 671.3203128319583 L 222.2877706240397 676.8910499839694 L 222.39062528003706 684.804687871947 L 222.45058662403608 689.1454873599578 L 222.57031270401785 698.1874995199614 L 222.58347008004785 699.0705766399624 L 222.60622336005326 700.8881766399718 L 222.7234816000564 709.543106559955 L 222.7234816000564 710.9507481599576 L 222.8258816000307 718.221148159937 L 222.8490117120673 719.1926026239526 L 222.98169344005873 730.7178700799705 L 223.0306816000375 734.8149114879197 L 223.0306816000375 738.1891481599305 L 223.1328122880659 743.6171878399327 L 223.1328122880659 746.8945315839374 L 223.20195686403895 749.4415339519619 L 223.23437465605093 752.2812497919658 L 223.23437465605093 767.9882813439472 L 223.34317465603817 774.9337303039501 L 223.41404672001954 782.5123532799189 L 223.4339532800368 784.4750233599334 L 223.43750041606836 784.9070950399619 L 223.43750041606836 789.6953128959285 L 223.4921574400505 790.9413734399714 L 223.53906278405339 796.3320309759583 L 223.5426816000254 797.669253119966 L 223.5426816000254 800.3740590079688 L 223.53906278405339 801.3710940159508 L 223.60937472002115 804.2304686079733 L 223.6188149760128 805.3001748479437 L 223.6450816000579 808.8794460159261 L 223.6450816000579 814.3747481599567 L 223.72373708803207 820.1165854719584 L 223.7343754240428 821.8359377919696 L 223.7474816000322 823.4744002559455 L 223.7474816000322 829.2227481599548 L 223.80371456005378 832.0343756799703 L 223.81250048003858 834.3046871039551 L 223.83622963202652 838.5664972799714 L 223.8498816000647 841.3212692479719 L 223.8498816000647 850.5219481599634 L 223.92968704004306 858.554687487951 L 223.93750016001286 860.6132807679242 L 223.952281600039 863.0968821759452 L 223.952281600039 868.2371481599403 L 223.98437478404958 870.0937502719462 L 223.99660134402802 872.0174428159371 L 224.00569344003452 873.7820467199199 L 224.00569344003452 908.7061299199704 L 224.01562521606684 915.9237949439557 L 224.01562521606684 919.3242183679249 L 224.03125043201726 926.6679685119307 L 224.03760742401937 928.7659325439599 L 224.04687462403672 935.059466239938 L 224.04687462403672 936.1992191999452 L 224.049208320037 936.4803635199205 L 224.05120000004536 937.1391999999178 L 224.054684672039 939.4433802239364 L 224.05468774406472 945.5507814399316 L 224.0859371520346 947.9140628479654 L 224.15625011204975 957.6523438079166 L 224.15625011204975 963.7773434879491 L 224.21054259204539 966.3424583679298 L 224.2187499520369 968.7304683519178 L 224.23324672004674 971.545599999954 L 224.23324672004674 972.7203532799613 L 224.25781248003477 977.0390620159451 L 224.25781248003477 995.8527078399202 L 224.24343244801275 999.9324948479189 L 224.2187499520369 1006.0859371519182 L 224.21093785605626 1009.1562495999387 L 224.15625011204975 1012.6210938879522 L 224.15625011204975 1024.0" fill="none"/></svg>