<svg xmlns="http://www.w3.org/2000/svg" width="1024" height="1024"><rect stroke="none" x="0" y="0" width="1024" height="1024" fill="white"/><path stroke="#000000" stroke-width="2" d="M 0.0 1022.2556462995999 L 8.398437376017682 1022.453125119966 L 14.335937536030542 1022.453125119966 L 38.09375027206261 1022.2460938239237 L 43.3203128320165 1022.2460938239237 L 53.14843750401633 1022.1445314559387 L 60.32031232002191 1022.347656191967 L 71.27343718404882 1022.453125119966 L 95.53906278405339 1022.453125119966 L 106.9062502400484 1022.347656191967 L 112.03125043201726 1022.347656191967 L 117.86718720005592 1022.2460938239237 L 127.59374950401252 1022.2460938239237 L 133.84374988800846 1022.453125119966 L 171.82812467205804 1022.453125119966 L 187.39843788801227 1022.554687487951 L 190.05468774406472 1022.554687487951 L 205.92968704004306 1022.453125119966 L 224.67187507206108 1022.347656191967 L 230.4062504960457 1022.2460938239237 L 233.37499955203384 1022.1445314559387 L 248.93749964801827 1022.554687487951 L 255.59374950401252 1022.2460938239237 L 259.48437504004687 1022.1445314559387 L 264.71093760005897 1022.2460938239237 L 268.4999997440609 1022.2460938239237 L 271.97656268801074 1022.1445314559387 L 306.38281216000905 1022.1445314559387 L 321.74218752002344 1022.0429690879537 L 325.7343754240428 1022.1445314559387 L 364.9609379840549 1022.1445314559387 L 369.7734379520407 1022.0429690879537 L 380.62500044802437 1022.0429690879537 L 383.28906240005745 1022.554687487951 L 400.281249792024 1022.1445314559387 L 402.6406246400438 1022.1445314559387 L 412.2656245760154 1022.0429690879537 L 482.3046871040133 1022.0429690879537 L 495.51562547206413 1021.9414067199687 L 510.87499980803113 1021.9414067199687 L 513.7421875200234 1022.0429690879537 L 535.7578127360321 1022.0429690879537 L 541.4921871360275 1021.9414067199687 L 547.3281249280553 1021.9414067199687 L 551.015624704014 1021.8359377919696 L 567.6093747200212 1021.8359377919696 L 572.0078120960388 1021.7343754239264 L 584.710937600059 1021.7343754239264 L 590.2343751680455 1021.6328120319522 L 600.8906250240398 1022.0429690879537 L 606.109375488013 1021.9414067199687 L 629.6640624640277 1021.9414067199687 L 639.5937495040125 1021.8359377919696 L 642.562499584048 1022.1445314559387 L 648.4999997440609 1022.1445314559387 L 659.6640624640277 1022.0429690879537 L 668.6718750720611 1022.0429690879537 L 677.4843750400469 1022.1445314559387 L 699.9062497280538 1022.0429690879537 L 703.5937495040125 1022.1445314559387 L 706.3593748480198 1022.1445314559387 L 725.8125004800386 1022.0429690879537 L 730.4218746880651 1021.9414067199687 L 733.3906247680425 1022.0429690879537 L 744.5546874880092 1021.9414067199687 L 758.7890626560547 1021.9414067199687 L 764.4218746880651 1021.8359377919696 L 767.5937495040125 1022.0429690879537 L 774.9687500800355 1021.9414067199687 L 840.710937600059 1021.9414067199687 L 850.1249996800325 1022.0429690879537 L 857.3984378880123 1022.0429690879537 L 859.8593751040171 1021.9414067199687 L 888.4296878080349 1021.9414067199687 L 894.4687503360328 1021.8359377919696 L 898.0546877440647 1021.7343754239264 L 917.5078123520361 1021.7343754239264 L 932.9687500800355 1021.8359377919696 L 936.8593745920225 1021.7343754239264 L 941.8750003200257 1021.7343754239264 L 946.281249792024 1021.6328120319522 L 956.0078120960388 1021.6328120319522 L 962.9765621760162 1021.7343754239264 L 975.5703121920233 1021.7343754239264 L 988.0624998400453 1021.7343754239264 L 994.7187496960396 1021.6328120319522 L 1003.2187504640315 1021.6328120319522 L 1005.5703121920233 1021.7343754239264 L 1017.343750144064 1021.8359377919696 L 1020.7265628160094 1021.8359377919696 L 1024.0 1021.6328120319522" fill="none"/><path stroke="#000000" stroke-width="2" d="M 1024.0 1021.6328120319522 L 1020.7265628160094 1021.8359377919696 L 1017.343750144064 1021.8359377919696 L 1005.5703121920233 1021.7343754239264 L 1003.2187504640315 1021.6328120319522 L 994.7187496960396 1021.6328120319522 L 988.0624998400453 1021.7343754239264 L 975.5703121920233 1021.7343754239264 L 962.9765621760162 1021.7343754239264 L 956.0078120960388 1021.6328120319522 L 946.281249792024 1021.6328120319522 L 941.8750003200257 1021.7343754239264 L 936.8593745920225 1021.7343754239264 L 932.9687500800355 1021.8359377919696 L 917.5078123520361 1021.7343754239264 L 898.0546877440647 1021.7343754239264 L 894.4687503360328 1021.8359377919696 L 888.4296878080349 1021.9414067199687 L 859.8593751040171 1021.9414067199687 L 857.3984378880123 1022.0429690879537 L 850.1249996800325 1022.0429690879537 L 840.710937600059 1021.9414067199687 L 774.9687500800355 1021.9414067199687 L 767.5937495040125 1022.0429690879537 L 764.4218746880651 1021.8359377919696 L 758.7890626560547 1021.9414067199687 L 744.5546874880092 1021.9414067199687 L 733.3906247680425 1022.0429690879537 L 730.4218746880651 1021.9414067199687 L 725.8125004800386 1022.0429690879537 L 706.3593748480198 1022.1445314559387 L 703.5937495040125 1022.1445314559387 L 699.9062497280538 1022.0429690879537 L 677.4843750400469 1022.1445314559387 L 668.6718750720611 1022.0429690879537 L 659.6640624640277 1022.0429690879537 L 648.4999997440609 1022.1445314559387 L 642.562499584048 1022.1445314559387 L 639.5937495040125 1021.8359377919696 L 629.6640624640277 1021.9414067199687 L 606.109375488013 1021.9414067199687 L 600.8906250240398 1022.0429690879537 L 590.2343751680455 1021.6328120319522 L 584.710937600059 1021.7343754239264 L 572.0078120960388 1021.7343754239264 L 567.6093747200212 1021.8359377919696 L 551.015624704014 1021.8359377919696 L 547.3281249280553 1021.9414067199687 L 541.4921871360275 1021.9414067199687 L 535.7578127360321 1022.0429690879537 L 513.7421875200234 1022.0429690879537 L 510.87499980803113 1021.9414067199687 L 495.51562547206413 1021.9414067199687 L 482.3046871040133 1022.0429690879537 L 412.2656245760154 1022.0429690879537 L 402.6406246400438 1022.1445314559387 L 400.281249792024 1022.1445314559387 L 383.28906240005745 1022.554687487951 L 380.62500044802437 1022.0429690879537 L 369.7734379520407 1022.0429690879537 L 364.9609379840549 1022.1445314559387 L 325.7343754240428 1022.1445314559387 L 321.74218752002344 1022.0429690879537 L 306.38281216000905 1022.1445314559387 L 271.97656268801074 1022.1445314559387 L 268.4999997440609 1022.2460938239237 L 264.71093760005897 1022.2460938239237 L 259.48437504004687 1022.1445314559387 L 255.59374950401252 1022.2460938239237 L 248.93749964801827 1022.554687487951 L 233.37499955203384 1022.1445314559387 L 230.4062504960457 1022.2460938239237 L 224.67187507206108 1022.347656191967 L 205.92968704004306 1022.453125119966 L 190.05468774406472 1022.554687487951 L 187.39843788801227 1022.554687487951 L 171.82812467205804 1022.453125119966 L 133.84374988800846 1022.453125119966 L 127.59374950401252 1022.2460938239237 L 117.86718720005592 1022.2460938239237 L 112.03125043201726 1022.347656191967 L 106.9062502400484 1022.347656191967 L 95.53906278405339 1022.453125119966 L 71.27343718404882 1022.453125119966 L 60.32031232002191 1022.347656191967 L 53.14843750401633 1022.1445314559387 L 43.3203128320165 1022.2460938239237 L 38.09375027206261 1022.2460938239237 L 14.335937536030542 1022.453125119966 L 8.398437376017682 1022.453125119966 L 0.0 1022.2556462995999" fill="none"/><path stroke="#408040" stroke-width="3" d="M 0.0 152.66869046000647 L 54.6406399999978 175.6979199999987 L 95.4163200000039 191.22176000000036 L 128.74752000000444 208.50688000000082 L 180.08064000000013 236.01152000000002 L 238.284799999994 258.263039999998 L 280.23807999999553 268.03199999999924 L 298.56767999999283 276.15232000000105 L 327.8847999999998 293.6319999999978 L 368.83456000000297 304.1791999999987 L 408.72960000000603 309.22752000000037 L 445.5833600000042 316.43647999999666 L 476.63103999999294 315.9244800000015 L 505.0880000000034 313.8969599999982 L 558.6329600000026 312.91391999999905 L 636.0268800000049 317.4809600000008 L 672.0102400000033 316.91775999999663 L 700.3955200000055 323.0003199999992 L 798.9350399999967 335.5443200000009 L 952.3404799999989 338.2681599999996 L 991.119359999997 338.1759999999995 L 1009.5820799999929 337.31584000000294 L 1024.0 331.73152700730134" fill="none"/></svg>