<svg xmlns="http://www.w3.org/2000/svg" width="1024" height="1024"><rect stroke="none" x="0" y="0" width="1024" height="1024" fill="white"/><path stroke="#408040" stroke-width="3" d="M 89.51604455988854 0.0 L 91.1872000000003 2.263040000001638 L 103.71072000000277 18.739199999999983 L 109.148159999997 24.309760000000097 L 120.15615999999864 35.62496000000101 L 125.73695999999472 41.2569599999988 L 143.65695999999298 51.93727999999828 L 175.22688000000198 70.04160000000047 L 212.69504000000597 91.42271999999866 L 217.24159999999392 94.94527999999991 L 221.71648000000278 100.41344000000026 L 238.3359999999957 120.95488000000114 L 250.57279999999446 136.08959999999934 L 256.27648000000045 143.11423999999897 L 266.1580799999938 150.97855999999956 L 283.36127999999735 163.72736000000077 L 290.03776000000653 168.78591999999844 L 306.3500800000038 185.9379200000003 L 318.38207999999577 198.64575999999943 L 327.7823999999964 208.54783999999927 L 333.7216000000044 212.8895999999986 L 347.3408000000054 221.8188799999989 L 363.5814399999945 232.47871999999916 L 387.13344000000507 248.05375999999887 L 429.39392000000225 276.21375999999873 L 438.8761599999998 286.34112000000096 L 446.5459200000041 297.73823999999877 L 453.0176000000065 307.0566399999989 L 460.07296000000497 315.0643200000013 L 479.6518400000059 324.72063999999955 L 484.85375999999815 327.3113599999997 L 492.0422399999952 332.5747200000005 L 497.78687999999966 342.5075199999992 L 500.4083200000023 347.60703999999896 L 501.36063999999897 352.40959999999905 L 502.5075199999992 365.4246400000011 L 503.9820800000016 381.9315199999983 L 506.8492799999949 413.76768000000084 L 508.9075199999934 436.78719999999885 L 513.2492800000036 459.4995200000012 L 519.5673600000009 485.4988799999992 L 521.093120000005 494.09024000000136 L 520.8678400000063 499.5686400000013 L 520.0691200000001 511.16031999999905 L 518.133759999997 523.847679999999 L 515.5635199999961 541.4195199999995 L 516.8640000000014 580.3008000000009 L 520.6630399999995 594.3398400000005 L 523.8271999999997 604.7539199999992 L 525.2710400000069 613.5910399999993 L 526.0390400000033 636.9587199999987 L 527.4521600000007 653.3734399999994 L 528.4863999999943 666.1324800000002 L 530.9440000000031 673.9558399999987 L 537.9891199999984 692.6233600000014 L 542.8121600000013 706.9491200000011 L 548.587520000001 724.4492800000007 L 554.8851200000063 736.3993599999994 L 556.1651200000051 741.3760000000002 L 556.0524799999985 757.0944000000018 L 555.9500799999951 770.2118399999999 L 554.4243200000055 778.4243199999983 L 555.130879999997 794.23488 L 556.8000000000029 812.7488000000012 L 559.5852799999993 828.2623999999996 L 562.0633600000001 850.8313600000001 L 565.8009599999932 873.3593599999986 L 569.0163199999952 889.2825599999996 L 571.709440000006 901.7344000000012 L 574.4947200000024 905.8611200000014 L 577.4336000000039 912.4044800000011 L 577.9865600000048 928.8601600000002 L 576.3686400000006 940.3289599999989 L 582.4409600000072 973.4860799999988 L 584.151039999997 984.3712000000014 L 584.4275199999975 998.2873599999984 L 585.8406399999949 1013.3503999999994 L 587.7448248888832 1024.0" fill="none"/></svg>