<svg xmlns="http://www.w3.org/2000/svg" width="1024" height="1024"><rect stroke="none" x="0" y="0" width="1024" height="1024" fill="white"/><path stroke="#000000" stroke-width="2" d="M 814.2720860758709 0.0 L 814.390625280037 0.08984371193218976 L 832.0000000000582 12.992187391966581 L 836.6093752320157 16.472655871941242 L 846.7500001280569 24.050781183934305 L 849.6171878400492 26.20312473597005 L 854.0156252160086 29.582030847959686 L 854.0211701760418 29.58622617594665 L 869.1718748160056 41.05078169592889 L 875.9296870400431 46.066406399942935 L 883.1015628800378 51.28906239994103 L 888.3213025280274 55.07888025592547 L 888.3234816000331 55.07874815992545 L 892.2146816000459 58.04834815993672 L 895.0818816000246 60.1987481599208 L 910.5468753920286 71.97656268795254 L 935.3281249280553 90.81640652794158 L 954.7812495360267 105.35546879994217 L 957.9531253760215 107.816406015947 L 965.5312496640254 113.44531251193257 L 985.0937497600098 128.0898437119322 L 999.2187504640315 138.43359334394336 L 1010.7968747520354 147.1367188479635 L 1019.9062497280538 153.89453107194277 L 1023.898437632015 156.453125119966 L 1024.0 156.5339169455401" fill="none"/><path stroke="#000000" stroke-width="2" d="M 1024.0 156.53391694548918 L 1023.8984376320732 156.453125119966 L 1019.9062497280538 153.89453107188456 L 1010.7968747520354 147.13671884790529 L 999.2187504640315 138.43359334394336 L 985.093749760068 128.0898437119322 L 965.5312496640836 113.44531251187436 L 957.9531253760215 107.81640601588879 L 954.7812495360849 105.35546879994217 L 935.3281249280553 90.81640652794158 L 910.5468753920286 71.97656268789433 L 895.0818816000246 60.19874815986259 L 892.2146816000459 58.04834815982031 L 888.3234816000331 55.078748159867246 L 888.3213025280857 55.07888025592547 L 883.101562880096 51.28906239999924 L 875.9296870400431 46.06640639988473 L 869.1718748160638 41.05078169587068 L 854.0211701760418 29.586226176004857 L 854.0156252160668 29.58203084790148 L 849.6171878401074 26.203124736028258 L 846.7500001280569 24.05078118381789 L 836.6093752320157 16.472655871883035 L 832.0000000000582 12.992187391966581 L 814.3906252800953 0.0898437118739821 L 814.2720860760019 0.0" fill="none"/></svg>