<svg xmlns="http://www.w3.org/2000/svg" width="1024" height="1024"><rect stroke="none" x="0" y="0" width="1024" height="1024" fill="white"/><path stroke="#000000" stroke-width="2" d="M 476.75995545234764 1024.0 L 476.6718750720611 1023.5781253119349 L 476.2656245760154 1021.2226559999399 L 475.9609374720603 1018.9687500799191 L 475.445312512049 1015.9999999999418 L 473.9140628480236 1006.6835937279393 L 471.24999987205956 991.8320312319556 L 470.53125017601997 987.4296872959239 L 470.01562521600863 984.2578124799184 L 467.66406246402767 971.4570311679272 L 467.0468751360313 967.8710937599535 L 466.1249996800325 962.2421872639679 L 464.9999994880636 955.4804684799747 L 464.179687424039 950.7695308799739 L 463.05468723201193 944.2187499519205 L 461.7265623040148 936.9492183039547 L 460.9062502400484 932.4414064639714 L 459.9843747840496 927.3203128319583 L 459.06250035203993 921.7929687039577 L 458.65624985605245 919.1289067519247 L 456.60156211204594 908.378906623926 L 455.78906214406015 903.6679690239253 L 454.65624985605245 896.4999997439445 L 453.7343754240428 891.1757813759614 L 451.1796879360336 877.1445309439441 L 450.56249958404806 873.7656248319545 L 449.33593702403596 867.0078126079752 L 448.7187496960396 864.0390625279397 L 448.10937548801303 859.9414067199687 L 447.7636669440544 858.3172290559742 L 447.6953128960449 857.9960934399278 L 446.97656217601616 854.1054689279408 L 446.4687503360328 851.2382812159485 L 445.2421877760207 844.277344255941 L 444.62500044802437 840.5898434559349 L 444.21093785605626 838.3359375359723 L 443.9062497280538 836.2890629119356 L 443.1875000320142 832.6015621119295 L 442.88281292805914 830.2460938239237 L 442.2656245760154 827.0742190079181 L 441.554688000062 822.7734374399297 L 441.1406254080357 820.3125002239249 L 438.9921873920248 808.027343871945 L 438.47656243201345 805.1601561599527 L 437.24999987205956 797.2734371839324 L 436.42968780803494 792.0507811839343 L 435.8203125760192 788.3632814079756 L 435.20312524802284 784.7812495359685 L 434.179687424039 779.2499998719431 L 433.15624960005516 772.800781311933 L 432.2343751680455 768.1914060799754 L 431.61718784004916 763.9921879039612 L 430.9062502400484 759.3867192319594 L 430.0859371520346 754.6757816319587 L 429.26562508801 749.6562503679306 L 428.75000012805685 746.6875002879533 L 427.6249999360298 739.8281246719416 L 426.70312550402014 734.0937502719462 L 425.47656294406625 727.2304691199679 L 424.65624985605245 721.9062497279374 L 423.93750016001286 717.8125004799222 L 423.01562470401404 712.3828121599508 L 421.8906245120452 704.2929684479604 L 418.51562496001134 683.5078123519197 L 418.0000000000582 679.6171878399327 L 416.57031270401785 671.0156247039558 L 415.64843724801904 665.4843750399305 L 415.23437465605093 662.3125002239249 L 414.51562496001134 657.7031249919673 L 413.8046873600106 652.6835937279393 L 413.28906240005745 649.1015628799214 L 411.8593751040171 639.6796876799199 L 411.34375014406396 636.7109375999426 L 410.11718758405186 628.4179691519239 L 408.88281292805914 620.6328125439468 L 408.3750000640284 617.3554687999422 L 407.96874956804095 615.1054684159462 L 407.4531246080296 611.7265623039566 L 406.83593728003325 608.2421872639679 L 406.01562521600863 603.5312496639672 L 405.5078123520361 600.5624995839316 L 404.07031296001514 591.9609374719439 L 403.0468751360313 585.5117189119337 L 402.5390622720588 582.4374999039574 L 400.9999994880636 572.3007815679302 L 400.078125056054 566.4648437759606 L 399.57031219202327 562.8789063679287 L 399.05468723201193 559.9101562879514 L 397.82812467205804 551.921874943946 L 397.2109373440617 548.031250431959 L 396.4999997440609 544.0390625279397 L 395.46874982403824 536.3593748479616 L 394.5468753920286 530.7265628159512 L 393.7343754240428 525.9140628479654 L 391.37499955203384 512.3984373759595 L 404.4843745280523 512.4999997439445 L 414.4140625920263 512.4999997439445 L 452.20312473602826 512.6015621119295 L 461.52343756804476 512.6015621119295 L 468.78906265605474 512.7031255039619 L 477.0859376640292 512.7031255039619 L 483.02343782404205 512.8085934079718 L 487.6328120320104 512.9101557759568 L 492.0390625280561 512.8085934079718 L 505.75781273603207 512.9101557759568 L 513.1328122880659 513.011719167931 L 532.9921873920248 512.9101557759568 L 536.2734376960434 512.9101557759568 L 556.0390625280561 512.8085934079718 L 565.8671872000559 512.8085934079718 L 569.1406254080357 512.7031255039619 L 577.0312499200227 512.7031255039619 L 598.8359372800332 512.4999997439445 L 605.4921871360275 512.6015621119295 L 628.6406246400438 512.6015621119295 L 631.195312128053 512.4999997439445 L 636.5234370560502 512.3984373759595 L 654.1328128000605 512.3984373759595 L 661.7109370880644 512.4999997439445 L 682.2968750080327 512.4999997439445 L 686.9062502400484 512.6015621119295 L 703.2890624000574 512.6015621119295 L 726.4296878080349 512.7031255039619 L 740.562499584048 512.7031255039619 L 745.4765629440662 512.8085934079718 L 752.0312504320173 512.8085934079718 L 756.9453127680463 512.9101557759568 L 762.6796871680417 512.9101557759568 L 768.6171873280546 512.8085934079718 L 771.3828126720618 512.8085934079718 L 787.4609377280576 512.9101557759568 L 794.3203123200219 512.9101557759568 L 798.4140625920263 513.011719167931 L 813.164062720025 513.011719167931 L 823.0937497600098 513.1132815359742 L 832.6171873280546 513.1132815359742 L 838.2500003840541 513.2148439039593 L 845.828124672058 513.2148439039593 L 864.2578124800348 513.3203128319583 L 895.79687526403 513.3203128319583 L 906.2421872640261 513.4218751999433 L 910.6484377600136 513.4218751999433 L 920.4765624320135 513.3203128319583 L 944.6406246400438 513.3203128319583 L 949.1484375040163 513.2148439039593 L 1024.0 513.2148439039593" fill="none"/><path stroke="#000000" stroke-width="2" d="M 391.14137313040555 0.0 L 391.07031244802056 3.3671874559368007 L 383.79687526402995 1.3203128319582902 L 326.4531251200242 1.3203128319582902 L 321.23437465605093 1.2148439039592631 L 278.2265620480175 1.2148439039592631 L 274.2343751680455 1.3203128319582902 L 254.97656217601616 1.3203128319582902 L 245.3515622400446 1.4218751999433152 L 238.18749952001963 1.4218751999433152 L 231.83593779202783 1.3203128319582902 L 228.56249958404806 1.2148439039592631 L 222.82812518405262 1.3203128319582902 L 217.80468736001058 1.2148439039592631 L 184.2187499520369 1.2148439039592631 L 181.96874956804095 1.3203128319582902 L 177.46093772805762 1.2148439039592631 L 156.67187507206108 1.2148439039592631 L 153.80468736001058 1.113281535974238 L 117.14843750401633 1.113281535974238 L 112.64062464004382 1.0117191679310054 L 107.42187520005973 1.0117191679310054 L 97.69531289604492 0.8085934079717845 L 73.73437542404281 0.8085934079717845 L 69.84374988800846 0.7031255039619282 L 52.02343731204746 0.7031255039619282 L 43.726562304014806 0.49999974394449964 L 18.94531276804628 0.49999974394449964 L 16.179687424039003 0.3984373759594746 L 7.070312448020559 0.49999974394449964 L 0.0 0.49999974394449964" fill="none"/><path stroke="#000000" stroke-width="2" d="M 0.0 0.49999974394449964 L 7.070312448020559 0.49999974394449964 L 16.179687424039003 0.3984373759594746 L 18.94531276804628 0.49999974394449964 L 43.726562304014806 0.49999974394449964 L 52.02343731204746 0.7031255039619282 L 69.84374988800846 0.7031255039619282 L 73.73437542404281 0.8085934079717845 L 97.69531289604492 0.8085934079717845 L 107.42187520005973 1.0117191679310054 L 112.64062464004382 1.0117191679310054 L 117.14843750401633 1.113281535974238 L 153.80468736001058 1.113281535974238 L 156.67187507206108 1.2148439039592631 L 177.46093772805762 1.2148439039592631 L 181.96874956804095 1.3203128319582902 L 184.2187499520369 1.2148439039592631 L 217.80468736001058 1.2148439039592631 L 222.82812518405262 1.3203128319582902 L 228.56249958404806 1.2148439039592631 L 231.83593779202783 1.3203128319582902 L 238.18749952001963 1.4218751999433152 L 245.3515622400446 1.4218751999433152 L 254.97656217601616 1.3203128319582902 L 274.2343751680455 1.3203128319582902 L 278.2265620480175 1.2148439039592631 L 321.23437465605093 1.2148439039592631 L 326.4531251200242 1.3203128319582902 L 383.79687526402995 1.3203128319582902 L 391.07031244802056 3.3671874559368007 L 391.07031244802056 15.960937471943907 L 390.96875008003553 20.87890636792872 L 390.96875008003553 36.953124863968696 L 391.07031244802056 41.972656127938535 L 391.07031244802056 45.14453094394412 L 391.1718748160638 50.67578163195867 L 391.07031244802056 55.17968793597538 L 391.07031244802056 58.66406297596404 L 390.96875008003553 63.67968767991988 L 390.8671877120505 72.07812505593756 L 390.96875008003553 75.55859353597043 L 390.96875008003553 82.72656281595118 L 390.8671877120505 90.61328076792415 L 390.8671877120505 101.16015615995275 L 390.96875008003553 105.35546879994217 L 390.8671877120505 108.94140620797407 L 390.5546874880092 119.48828159994446 L 390.65624985605245 123.2773437439464 L 390.7656253440655 128.29296844796045 L 390.65624985605245 134.2343751679291 L 390.65624985605245 145.19140659197 L 390.7656253440655 150.10546892794082 L 390.8671877120505 153.79296870395774 L 390.7656253440655 156.35156275192276 L 390.7656253440655 164.33984409592813 L 390.8671877120505 168.43359334394336 L 390.8671877120505 172.22265651193447 L 390.7656253440655 181.03124991996447 L 390.65624985605245 188.09765580797102 L 390.7656253440655 201.00000051193638 L 390.8671877120505 209.6015626239241 L 390.96875008003553 224.34765619196696 L 390.96875008003553 227.21484390395926 L 390.8671877120505 233.97265612793854 L 390.8671877120505 239.50000025593909 L 390.7656253440655 249.12500019196887 L 390.65624985605245 255.88671897596214 L 390.8671877120505 268.58203135995427 L 390.8671877120505 273.6015626239241 L 390.96875008003553 290.0859371519182 L 390.96875008003553 298.6875002879533 L 391.07031244802056 301.7617182719405 L 391.07031244802056 333.81250047992216 L 390.96875008003553 339.6484372479608 L 391.1718748160638 347.3281249279389 L 391.1718748160638 360.02734387194505 L 391.2734371840488 369.75390617595986 L 391.37499955203384 375.28515583992703 L 391.37499955203384 396.6835937279393 L 391.2734371840488 402.62500044796616 L 391.2734371840488 407.84765644796425 L 391.37499955203384 411.01953126396984 L 391.37499955203384 432.42187468794873 L 391.1718748160638 441.640625151922 L 391.2734371840488 454.84765593596967 L 391.37499955203384 462.83593727997504 L 391.2734371840488 474.097655807971 L 391.1718748160638 477.5820308479597 L 391.2734371840488 487.71875020791776 L 391.37499955203384 492.7382814719458 L 391.37499955203384 495.9101562879514 L 391.2734371840488 499.39062476792606 L 391.37499955203384 503.1796879359754 L 391.37499955203384 512.3984373759595 L 393.7343754240428 525.9140628479654 L 394.5468753920286 530.7265628159512 L 395.46874982403824 536.3593748479616 L 396.4999997440609 544.0390625279397 L 397.2109373440617 548.031250431959 L 397.82812467205804 551.921874943946 L 399.05468723201193 559.9101562879514 L 399.57031219202327 562.8789063679287 L 400.078125056054 566.4648437759606 L 400.9999994880636 572.3007815679302 L 402.5390622720588 582.4374999039574 L 403.0468751360313 585.5117189119337 L 404.07031296001514 591.9609374719439 L 405.5078123520361 600.5624995839316 L 406.01562521600863 603.5312496639672 L 406.83593728003325 608.2421872639679 L 407.4531246080296 611.7265623039566 L 407.96874956804095 615.1054684159462 L 408.3750000640284 617.3554687999422 L 408.88281292805914 620.6328125439468 L 410.11718758405186 628.4179691519239 L 411.34375014406396 636.7109375999426 L 411.8593751040171 639.6796876799199 L 413.28906240005745 649.1015628799214 L 413.8046873600106 652.6835937279393 L 414.51562496001134 657.7031249919673 L 415.23437465605093 662.3125002239249 L 415.64843724801904 665.4843750399305 L 416.57031270401785 671.0156247039558 L 418.0000000000582 679.6171878399327 L 418.51562496001134 683.5078123519197 L 421.8906245120452 704.2929684479604 L 423.01562470401404 712.3828121599508 L 423.93750016001286 717.8125004799222 L 424.65624985605245 721.9062497279374 L 425.47656294406625 727.2304691199679 L 426.70312550402014 734.0937502719462 L 427.6249999360298 739.8281246719416 L 428.75000012805685 746.6875002879533 L 429.26562508801 749.6562503679306 L 430.0859371520346 754.6757816319587 L 430.9062502400484 759.3867192319594 L 431.61718784004916 763.9921879039612 L 432.2343751680455 768.1914060799754 L 433.15624960005516 772.800781311933 L 434.179687424039 779.2499998719431 L 435.20312524802284 784.7812495359685 L 435.8203125760192 788.3632814079756 L 436.42968780803494 792.0507811839343 L 437.24999987205956 797.2734371839324 L 438.47656243201345 805.1601561599527 L 438.9921873920248 808.027343871945 L 441.1406254080357 820.3125002239249 L 441.554688000062 822.7734374399297 L 442.2656245760154 827.0742190079181 L 442.88281292805914 830.2460938239237 L 443.1875000320142 832.6015621119295 L 443.9062497280538 836.2890629119356 L 444.21093785605626 838.3359375359723 L 444.62500044802437 840.5898434559349 L 445.2421877760207 844.277344255941 L 446.4687503360328 851.2382812159485 L 446.97656217601616 854.1054689279408 L 447.6953128960449 857.9960934399278 L 447.7636669440544 858.3172290559742 L 448.10937548801303 859.9414067199687 L 448.7187496960396 864.0390625279397 L 449.33593702403596 867.0078126079752 L 450.56249958404806 873.7656248319545 L 451.1796879360336 877.1445309439441 L 453.7343754240428 891.1757813759614 L 454.65624985605245 896.4999997439445 L 455.78906214406015 903.6679690239253 L 456.60156211204594 908.378906623926 L 458.65624985605245 919.1289067519247 L 459.06250035203993 921.7929687039577 L 459.9843747840496 927.3203128319583 L 460.9062502400484 932.4414064639714 L 461.7265623040148 936.9492183039547 L 463.05468723201193 944.2187499519205 L 464.179687424039 950.7695308799739 L 464.9999994880636 955.4804684799747 L 466.1249996800325 962.2421872639679 L 467.0468751360313 967.8710937599535 L 467.66406246402767 971.4570311679272 L 470.01562521600863 984.2578124799184 L 470.53125017601997 987.4296872959239 L 471.24999987205956 991.8320312319556 L 473.9140628480236 1006.6835937279393 L 475.445312512049 1015.9999999999418 L 475.9609374720603 1018.9687500799191 L 476.2656245760154 1021.2226559999399 L 476.6718750720611 1023.5781253119349 L 476.75995545234764 1024.0" fill="none"/><path stroke="#000000" stroke-width="2" d="M 1024.0 513.2148439039593 L 949.1484375040163 513.2148439039593 L 944.6406246400438 513.3203128319583 L 920.4765624320135 513.3203128319583 L 910.6484377600136 513.4218751999433 L 906.2421872640261 513.4218751999433 L 895.79687526403 513.3203128319583 L 864.2578124800348 513.3203128319583 L 845.828124672058 513.2148439039593 L 838.2500003840541 513.2148439039593 L 832.6171873280546 513.1132815359742 L 823.0937497600098 513.1132815359742 L 813.164062720025 513.011719167931 L 798.4140625920263 513.011719167931 L 794.3203123200219 512.9101557759568 L 787.4609377280576 512.9101557759568 L 771.3828126720618 512.8085934079718 L 768.6171873280546 512.8085934079718 L 762.6796871680417 512.9101557759568 L 756.9453127680463 512.9101557759568 L 752.0312504320173 512.8085934079718 L 745.4765629440662 512.8085934079718 L 740.562499584048 512.7031255039619 L 726.4296878080349 512.7031255039619 L 703.2890624000574 512.6015621119295 L 686.9062502400484 512.6015621119295 L 682.2968750080327 512.4999997439445 L 661.7109370880644 512.4999997439445 L 654.1328128000605 512.3984373759595 L 636.5234370560502 512.3984373759595 L 631.195312128053 512.4999997439445 L 628.6406246400438 512.6015621119295 L 605.4921871360275 512.6015621119295 L 598.8359372800332 512.4999997439445 L 577.0312499200227 512.7031255039619 L 569.1406254080357 512.7031255039619 L 565.8671872000559 512.8085934079718 L 556.0390625280561 512.8085934079718 L 536.2734376960434 512.9101557759568 L 532.9921873920248 512.9101557759568 L 513.1328122880659 513.011719167931 L 505.75781273603207 512.9101557759568 L 492.0390625280561 512.8085934079718 L 487.6328120320104 512.9101557759568 L 483.02343782404205 512.8085934079718 L 477.0859376640292 512.7031255039619 L 468.78906265605474 512.7031255039619 L 461.52343756804476 512.6015621119295 L 452.20312473602826 512.6015621119295 L 414.4140625920263 512.4999997439445 L 404.4843745280523 512.4999997439445 L 391.37499955203384 512.3984373759595 L 391.37499955203384 503.1796879359754 L 391.2734371840488 499.39062476792606 L 391.37499955203384 495.9101562879514 L 391.37499955203384 492.7382814719458 L 391.2734371840488 487.71875020791776 L 391.1718748160638 477.5820308479597 L 391.2734371840488 474.097655807971 L 391.37499955203384 462.83593727997504 L 391.2734371840488 454.84765593596967 L 391.1718748160638 441.640625151922 L 391.37499955203384 432.42187468794873 L 391.37499955203384 411.01953126396984 L 391.2734371840488 407.84765644796425 L 391.2734371840488 402.62500044796616 L 391.37499955203384 396.6835937279393 L 391.37499955203384 375.28515583992703 L 391.2734371840488 369.75390617595986 L 391.1718748160638 360.02734387194505 L 391.1718748160638 347.3281249279389 L 390.96875008003553 339.6484372479608 L 391.07031244802056 333.81250047992216 L 391.07031244802056 301.7617182719405 L 390.96875008003553 298.6875002879533 L 390.96875008003553 290.0859371519182 L 390.8671877120505 273.6015626239241 L 390.8671877120505 268.58203135995427 L 390.65624985605245 255.88671897596214 L 390.7656253440655 249.12500019196887 L 390.8671877120505 239.50000025593909 L 390.8671877120505 233.97265612793854 L 390.96875008003553 227.21484390395926 L 390.96875008003553 224.34765619196696 L 390.8671877120505 209.6015626239241 L 390.7656253440655 201.00000051193638 L 390.65624985605245 188.09765580797102 L 390.7656253440655 181.03124991996447 L 390.8671877120505 172.22265651193447 L 390.8671877120505 168.43359334394336 L 390.7656253440655 164.33984409592813 L 390.7656253440655 156.35156275192276 L 390.8671877120505 153.79296870395774 L 390.7656253440655 150.10546892794082 L 390.65624985605245 145.19140659197 L 390.65624985605245 134.2343751679291 L 390.7656253440655 128.29296844796045 L 390.65624985605245 123.2773437439464 L 390.5546874880092 119.48828159994446 L 390.8671877120505 108.94140620797407 L 390.96875008003553 105.35546879994217 L 390.8671877120505 101.16015615995275 L 390.8671877120505 90.61328076792415 L 390.96875008003553 82.72656281595118 L 390.96875008003553 75.55859353597043 L 390.8671877120505 72.07812505593756 L 390.96875008003553 63.67968767991988 L 391.07031244802056 58.66406297596404 L 391.07031244802056 55.17968793597538 L 391.1718748160638 50.67578163195867 L 391.07031244802056 45.14453094394412 L 391.07031244802056 41.972656127938535 L 390.96875008003553 36.953124863968696 L 390.96875008003553 20.87890636792872 L 391.07031244802056 15.960937471943907 L 391.07031244802056 3.3671874559368007 L 391.14137313040555 0.0" fill="none"/><path stroke="#408040" stroke-width="3" d="M 395.3373710091837 0.0 L 395.5609600000025 0.2867199999964214 L 395.78624000000127 0.7884800000028918 L 395.7555200000061 1.4950400000016089 L 395.345920000007 2.1196800000034273 L 394.700800000006 2.508800000003248 L 392.7347199999931 3.307520000002114 L 389.37600000000384 4.864000000001397 L 386.64191999999457 6.4409599999999045 L 384.75775999999314 7.680000000000291 L 382.80191999999806 9.13408000000345 L 380.86655999999493 10.782720000002882 L 376.41216000000713 15.11424000000261 L 373.6166399999929 17.838080000001355 L 370.67776000000595 20.52096000000165 L 367.1551999999938 23.377919999998994 L 358.0723200000066 30.423040000001492 L 340.0396800000017 44.44159999999829 L 332.2265599999955 50.5139199999976 L 328.9702399999951 53.04320000000007 L 325.5500800000009 55.69535999999789 L 321.7920000000013 58.17343999999866 L 318.83263999999326 59.75039999999717 L 316.28287999999884 60.86656000000221 L 313.5283199999976 61.88031999999657 L 297.9635200000048 66.34496000000217 L 281.4464000000007 71.06560000000172 L 271.60576000000583 73.87135999999737 L 260.1062399999937 77.15840000000026 L 247.68511999999464 80.70143999999709 L 238.36672000000544 83.40479999999661 L 235.63263999999617 84.31616000000213 L 230.94272000000637 86.10816000000341 L 224.6348799999978 88.69888000000356 L 196.2086399999971 100.42367999999988 L 182.17983999999706 106.20928000000276 L 177.7766399999964 108.0422400000025 L 174.8889599999966 109.4348800000007 L 171.32544000000053 111.5648000000001 L 168.9702399999951 113.27487999999721 L 166.97344000000157 114.97471999999834 L 165.37600000000384 116.5107199999984 L 163.71712000000116 118.36415999999736 L 162.36543999999412 120.09472000000096 L 161.0854399999953 122.00959999999759 L 159.7951999999932 124.32383999999729 L 157.37855999999738 129.5769599999985 L 153.98911999999837 137.00095999999758 L 148.29567999999563 149.45279999999912 L 146.00191999999515 154.5011200000008 L 143.21663999999873 160.2662399999972 L 136.74495999999635 173.37344000000303 L 126.81216000000131 194.57024000000092 L 114.2681600000069 221.4195200000031 L 95.9487999999983 260.6592000000019 L 93.88031999999657 265.0726399999985 L 92.68223999999464 267.356160000003 L 91.78111999999965 268.7590399999972 L 89.87648000000627 271.2473600000012 L 88.55551999999443 272.6912000000011 L 86.83520000000135 274.3193600000013 L 83.74271999999473 276.70528000000195 L 81.8278399999981 277.9340799999991 L 78.1209600000002 279.85919999999896 L 74.77247999999963 281.1903999999995 L 66.74431999999797 284.06784000000334 L 56.38143999999738 287.7849599999972 L 40.84735999999975 293.34528000000137 L 17.848320000004605 301.6806399999987 L 0.0 308.9977673563262" fill="none"/></svg>