<svg xmlns="http://www.w3.org/2000/svg" width="1024" height="1024"><rect stroke="none" x="0" y="0" width="1024" height="1024" fill="white"/><path stroke="#000000" stroke-width="2" d="M 969.6328120320104 1024.0 L 969.6328120320104 1023.2695316479658 L 973.0078126080334 1023.3749995519174 L 986.5234370560502 1023.0664058879483 L 989.3906247680425 1023.0664058879483 L 995.4375004160102 1022.8593745919643 L 1002.8046878720634 1022.7578122239211 L 1005.164062720025 1022.656249855936 L 1011.7187502080342 1022.554687487951 L 1018.7812495360267 1022.453125119966 L 1023.0781245440594 1022.347656191967 L 1024.0 1022.3381372364456" fill="none"/><path stroke="#000000" stroke-width="2" d="M 1024.0 1022.3381372363292 L 1023.0781245441176 1022.3476561918505 L 1018.7812495360267 1022.4531251199078 L 1011.7187502080342 1022.554687487951 L 1005.164062720025 1022.6562498558196 L 1002.8046878720634 1022.7578122238629 L 995.4375004160684 1022.8593745919061 L 989.3906247680425 1023.0664058878319 L 986.5234370561084 1023.0664058878319 L 973.0078126080334 1023.374999551801 L 969.6328120320104 1023.2695316479658 L 969.624999936088 1019.3789061119314 L 969.6328120320104 1009.1406254078611 L 969.5234375680448 1002.5859379199101 L 969.5234375680448 993.7812500479049 L 969.4218752001179 990.7070310399286 L 969.5234375680448 978.9296875519212 L 969.4218752001179 974.117187583819 L 969.4218752001179 949.2343746559345 L 969.5234375680448 938.5859379199683 L 969.5234375680448 934.4882810878335 L 969.4218752001179 919.7460940799792 L 969.4218752001179 904.8945315839374 L 969.2187504640315 895.988281343889 L 969.2187504640315 885.5429683199618 L 969.1171870720573 866.187499519845 L 969.1171870720573 855.0273433599505 L 969.015624704014 845.8125004798057 L 969.015624704014 828.4023439359735 L 968.9140623360872 820.4179691518657 L 968.9140623360872 811.7109370878898 L 968.812499968044 802.2929684479604 L 968.812499968044 788.5703127039014 L 968.7109376001172 779.1484375038999 L 968.7109376001172 772.800781311933 L 968.812499968044 768.6015621119295 L 968.812499968044 719.1445309438277 L 968.4999997441191 712.0781250558794 L 968.3984373760759 701.9414067199687 L 968.3984373760759 697.3320314879529 L 968.2968750080327 690.265624575899 L 968.2968750080327 679.617187839991 L 968.1953126401058 675.3164062718861 L 968.1953126401058 655.0390620158287 L 968.0937502720626 646.5429688318982 L 968.0937502720626 609.0625003519235 L 967.9921879040194 602.5078128640307 L 967.9921879040194 594.7265628158348 L 967.8906245121034 584.7929692158359 L 967.8906245121034 545.8828124158317 L 967.8906245121034 535.027343359834 L 967.8906245121034 508.81249996786937 L 967.8906245121034 477.8867189758457 L 967.6874997760169 453.1093749758438 L 967.6874997760169 444.9140623359708 L 967.6796876800945 433.9570309118135 L 967.8906245121034 430.6835937279975 L 967.7890621440602 425.97265612793854 L 967.7890621440602 383.98828134383075 L 967.6796876800945 370.7773439999437 L 967.6874997760169 362.2773442558246 L 967.6796876800945 357.3632808959228 L 967.6874997760169 349.88671897596214 L 967.6796876800945 338.3164057599497 L 967.6874997760169 319.7812500479631 L 967.5781253120513 308.929687551863 L 967.5781253120513 255.7812500478467 L 967.476562944008 243.90624972787919 L 967.476562944008 225.3710940158926 L 967.2734371840488 162.80468787194695 L 967.171874816122 155.12500019202707 L 967.0703124480788 150.10546892794082 L 967.2734371840488 141.81250047992216 L 967.2734371840488 127.98828134388896 L 967.374999552092 124.60937523195753 L 967.374999552092 106.07421849586535 L 967.476562944008 100.6484377598972 L 967.476562944008 89.89453107194277 L 967.5781253120513 76.89062502380693 L 967.6796876800945 64.80859340797178 L 967.6796876800945 57.84374988783384 L 967.7890621440602 48.32031231984729 L 967.7890621440602 31.320312831900083 L 967.8906245121034 27.019531263853423 L 967.8906245121034 11.45703116786899 L 967.9921879040194 5.4140620800317265 L 967.9921879040194 0.0" fill="none"/><path stroke="#000000" stroke-width="2" d="M 967.9921879040194 0.0 L 967.9921879040194 5.414062079973519 L 967.8906245120452 11.457031167927198 L 967.8906245120452 27.01953126396984 L 967.7890621440602 31.32031283195829 L 967.7890621440602 48.320312319963705 L 967.6796876800363 57.84374988795025 L 967.6796876800363 64.80859340797178 L 967.5781253120513 76.89062502392335 L 967.476562944008 89.89453107194277 L 967.476562944008 100.64843775995541 L 967.3749995520338 106.07421849592356 L 967.3749995520338 124.60937523195753 L 967.2734371840488 127.98828134394716 L 967.2734371840488 141.81250047992216 L 967.0703124480206 150.10546892794082 L 967.1718748160638 155.12500019196887 L 967.2734371840488 162.80468787194695 L 967.476562944008 225.3710940159508 L 967.476562944008 243.9062497279374 L 967.5781253120513 255.7812500479631 L 967.5781253120513 308.92968755192123 L 967.6874997760169 319.7812500479631 L 967.6796876800363 338.3164057599497 L 967.6874997760169 349.88671897596214 L 967.6796876800363 357.3632808959228 L 967.6874997760169 362.277344255941 L 967.6796876800363 370.7773439999437 L 967.7890621440602 383.98828134394716 L 967.7890621440602 425.97265612793854 L 967.8906245120452 430.6835937279393 L 967.6796876800363 433.9570309119299 L 967.6874997760169 444.9140623359708 L 967.6874997760169 453.10937497596024 L 967.8906245120452 477.88671897596214 L 967.8906245120452 508.8124999679276 L 967.8906245120452 535.0273433599505 L 967.8906245120452 545.8828124159481 L 967.8906245120452 584.7929692159523 L 967.9921879040194 594.7265628159512 L 967.9921879040194 602.5078128639725 L 968.0937502720626 609.0625003519235 L 968.0937502720626 646.5429688319564 L 968.1953126400476 655.0390620159451 L 968.1953126400476 675.3164062719443 L 968.2968750080327 679.6171878399327 L 968.2968750080327 690.2656245759572 L 968.3984373760177 697.3320314879529 L 968.3984373760177 701.9414067199687 L 968.4999997440609 712.0781250559376 L 968.812499968044 719.1445309439441 L 968.812499968044 768.6015621119295 L 968.710937600059 772.800781311933 L 968.710937600059 779.1484375039581 L 968.812499968044 788.5703127039596 L 968.812499968044 802.2929684479604 L 968.914062336029 811.710937087948 L 968.914062336029 820.4179691519239 L 969.015624704014 828.4023439359735 L 969.015624704014 845.8125004799222 L 969.1171870720573 855.0273433599505 L 969.1171870720573 866.1874995199614 L 969.2187504640315 885.5429683199618 L 969.2187504640315 895.9882813439472 L 969.4218752000597 904.8945315839374 L 969.4218752000597 919.746094079921 L 969.5234375680448 934.4882810879499 L 969.5234375680448 938.5859379199683 L 969.4218752000597 949.2343746559345 L 969.4218752000597 974.1171875839354 L 969.5234375680448 978.9296875519212 L 969.4218752000597 990.7070310399286 L 969.5234375680448 993.7812500479631 L 969.5234375680448 1002.5859379199683 L 969.6328120320104 1009.1406254079193 L 969.6249999360298 1019.3789061119314 L 969.6328120320104 1023.2695316479658 L 969.6328120320104 1024.0" fill="none"/></svg>