<svg xmlns="http://www.w3.org/2000/svg" width="1024" height="1024"><rect stroke="none" x="0" y="0" width="1024" height="1024" fill="white"/><path stroke="#000000" stroke-width="2" d="M 0.0 1.0117191679310054 L 28.164062208030373 1.0117191679310054 L 32.57031270401785 1.2148439039592631 L 35.64062515203841 1.113281535974238 L 37.48437504004687 0.9101557759568095 L 39.835937792027835 0.9101557759568095 L 41.57812531205127 0.8085934079717845 L 55.19531212805305 1.0117191679310054 L 64.41406259202631 1.0117191679310054 L 77.92968704004306 0.9101557759568095 L 80.89843712002039 0.9101557759568095 L 87.45312460802961 0.8085934079717845 L 93.18750003201421 0.7031255039619282 L 101.48437504004687 0.6015621119295247 L 114.58593792002648 0.6015621119295247 L 128.10937548801303 0.3984373759594746 L 137.42187520005973 0.3984373759594746 L 143.6718745600665 0.2929684479604475 L 150.53125017601997 0.2929684479604475 L 158.21093785605626 0.19140607997542247 L 161.69531289604492 0.08984371193218976 L 165.63461888523307 0.0" fill="none"/><path stroke="#000000" stroke-width="2" d="M 273.6907643813465 0.0 L 275.8671872000559 3.980469247966539 L 278.1249996800325 6.542968831956387 L 281.19531212805305 9.203125247964635 L 287.74999961606227 14.835937279975042 L 287.43750041601015 19.546874879975803 L 286.7265628160094 25.99609343992779 L 287.0312499200227 29.785156607918907 L 288.46093721606303 33.16406271996675 L 290.20312473602826 35.519531007972546 L 293.07031244802056 38.5937500159489 L 296.7578122240375 41.15234406397212 L 300.0390625280561 42.89453158393735 L 307.3046876160661 46.98828083195258 L 312.3203123200219 49.65234380797483 L 317.2421877760207 52.00781209592242 L 320.61718732805457 53.5429683199618 L 324.71093760005897 56.30859366396908 L 330.0390625280561 60.09765580797102 L 334.03125043201726 63.578125311934855 L 336.79687475203536 65.7265623039566 L 340.4843745280523 68.08203161595156 L 345.9140628480236 71.56640665594023 L 352.6718750720611 76.48046899196925 L 355.6406251520384 79.85937510395888 L 358.0937502720626 84.16015667194733 L 359.5312496640254 88.15234355191933 L 360.5546874880092 91.12500019196887 L 361.7812500480213 94.19531263993122 L 363.52343756804476 97.57421875192085 L 362.70312550402014 99.7265623039566 L 361.88281241606455 103.10546841594623 L 361.37499955203384 106.27734425594099 L 360.7578122240375 108.01953075197525 L 358.3046871040133 110.98828083195258 L 355.9453122560517 113.44531251193257 L 353.48437504004687 115.39062476792606 L 350.4140625920263 117.03124991996447 L 346.93733478401555 118.15629004791845 L 341.4062499840511 119.48828159994446 L 338.33593753603054 119.48828159994446 L 332.60156211204594 117.74609407992102 L 328.4999997440609 115.08593766397098 L 325.84374988806667 112.62890598393278 L 319.79687526402995 105.97265612793854 L 314.5781248000567 104.12890623993007 L 308.84375040006125 101.67187455995008 L 302.0859371520346 99.41796863992931 L 297.2734371840488 97.67578111996409 L 291.9453122560517 96.03906252793968 L 282.2187499520369 96.75390668795444 L 273.7187502080342 97.47265638393583 L 261.1250001920271 101.67187455995008 L 255.89843763201497 103.71875020791776 L 251.0859376640292 105.25390643195715 L 245.24999987205956 107.91796838393202 L 239.61718784004916 111.80859391996637 L 237.46874982403824 115.08593766397098 L 235.62499993602978 118.56640614394564 L 233.47656294406625 123.99218790396117 L 232.55468748800922 127.26953164796578 L 231.83593779202783 132.28906291193562 L 232.55468748800922 136.89453158393735 L 235.3203128320165 140.99218739196658 L 238.49218764802208 143.65625036793062 L 241.35937536001438 145.08984422392678 L 244.2265620480175 146.21484339196468 L 248.01562521606684 147.5468748799758 L 252.10937548801303 148.98046873597195 L 256.921875456057 150.61718732793815 L 260.60937523201574 151.84765644796425 L 264.812499968044 152.87109324795892 L 269.0078126080334 153.79296870395774 L 272.5937500160653 154.61328076792415 L 275.8671872000559 155.6367185919662 L 279.554688000062 157.07031244796235 L 282.42187468806515 158.29687500797445 L 292.8671877120505 162.69921894394793 L 297.6796876800363 164.9531248639687 L 301.6718745600665 167.4101565439487 L 304.6406246400438 170.58593791996827 L 305.8750003200257 173.5546879999456 L 306.179687424039 175.9101562879514 L 305.56250009604264 179.39062476792606 L 303.7187502080342 183.17968793597538 L 300.9531248640269 186.15234355191933 L 296.65624985605245 188.40234393597348 L 291.5390627840534 190.65624985593604 L 286.8281251840526 193.011719167931 L 284.2656245760154 194.5468753919704 L 277.4062499840511 197.10937497596024 L 272.39062528003706 198.43749990395736 L 269.82812467205804 198.6445311999414 L 267.46874982403824 198.74609356792644 L 263.37499955203384 198.84765593596967 L 259.0781245440594 197.7226557439426 L 256.51562496001134 196.80078131193295 L 247.9140628480236 194.1367183359689 L 244.32812544004992 193.7265623039566 L 240.23437516804552 194.03515596792568 L 232.0390625280561 197.3124997119303 L 223.85156300803646 199.35937535995618 L 217.29687449603807 204.78906265593832 L 214.83593728003325 206.83593727997504 L 210.94531276804628 210.11328102392145 L 209.10156288003782 211.64843724796083 L 205.92968704004306 216.0507811839343 L 207.25781299202936 220.55859404796502 L 207.6718745600665 223.93750015995465 L 206.33593753603054 228.44140646397136 L 204.49999974406091 230.79687475191895 L 201.01562470401404 233.0507816959289 L 199.37499955203384 234.6875002879533 L 197.84374988806667 237.65625036793062 L 195.89062451204518 240.52343705593375 L 193.84374988806667 242.67578163195867 L 190.7734374400461 245.23437465593452 L 187.70312499202555 246.87499980797293 L 184.2187499520369 248.61328076792415 L 179.30468761606608 250.15234355191933 L 174.18749952001963 250.66406297596404 L 170.29687500803266 250.96875007991912 L 167.01562470401404 250.96875007991912 L 163.02343782404205 250.55859404796502 L 156.98437529604416 250.3554682879476 L 154.3203123200219 251.37890611193143 L 151.55468800006201 252.9140623359708 L 148.9921873920248 254.24609382392373 L 146.64062464004382 255.47656294394983 L 139.36718745605322 258.445311999938 L 136.91406233602902 259.98046924796654 L 133.2265625600121 262.6445311999414 L 129.43750041601015 265.61328127991874 L 127.18750003201421 267.66015590395546 L 125.64843724801904 264.7929692159523 L 119.60937472002115 261.3124997119303 L 116.22656204801751 257.4218751999433 L 114.07812505605398 255.67968767991988 L 111.3124997120467 254.04296908795368 L 100.96875008003553 248.8203120639664 L 95.95312537602149 246.3632814079756 L 93.59374950401252 246.0546877439483 L 91.1406254080357 246.97656217595795 L 88.37500006402843 249.33203148795292 L 86.53125017601997 250.96875007991912 L 82.84375040006125 252.9140623359708 L 76.80468787206337 255.88671897596214 L 70.96875008003553 258.5468753919704 L 67.78906214406015 259.98046924796654 L 62.671875072061084 262.43749990395736 L 59.5000002560555 263.8710937599535 L 56.21874995203689 265.20312524796464 L 53.664062464027666 266.53515673597576 L 50.89843712002039 267.7617182719405 L 47.82812467205804 269.71093708794797 L 44.546875392028596 273.4960936959251 L 42.499999744060915 278.31250022392487 L 42.19531264004763 283.6367185919662 L 42.906250240048394 288.34765619196696 L 43.92968704004306 294.1835939839366 L 44.03906252805609 300.01953075197525 L 44.24218726402614 303.29687449592166 L 44.64843776001362 307.28906239994103 L 44.4453120000544 311.79687526397174 L 45.26562508800998 316.8124999679276 L 47.41406208003173 320.29296844796045 L 51.4062499840511 325.5156254719477 L 54.37500006402843 328.38281215995084 L 58.47656243201345 332.48046899196925 L 62.671875072061084 340.3632814079756 L 64.31250022404129 342.51562495995313 L 66.3593748480198 343.9492188159493 L 69.32812492805533 346.9179688959266 L 71.47656294406625 348.66015641595004 L 74.65624985605245 350.29687500797445 L 76.39062528003706 351.11718707194086 L 79.15624960005516 352.9609379839385 L 83.46093772805762 354.29296844796045 L 86.6328125440632 355.51953100797255 L 89.39843788801227 356.1367183359689 L 93.28906240005745 356.75000012794044 L 97.07812454405939 357.2617185279378 L 101.27343718404882 357.46484326396603 L 104.45312614401337 357.36328601592686 L 109.06250035203993 356.6484377599554 L 113.05468723201193 355.62109337595757 L 116.12499968003249 354.3945308159455 L 118.2734376960434 352.75390668795444 L 119.9140628480236 350.8085934079718 L 121.24218777602073 348.66015641595004 L 123.39843788801227 344.7695308799739 L 125.34375014406396 342.31250022392487 L 127.69531289604492 340.8789063679287 L 130.97656217601616 339.44531251193257 L 134.04687462403672 338.4179691519239 L 137.21875046403147 337.70312499196734 L 140.28906291205203 337.70312499196734 L 143.87500032002572 338.62500044796616 L 149.71093708806438 344.56249958393164 L 151.65625036804704 348.25000038393773 L 152.57812480005668 352.0390625279397 L 152.57812480005668 359.61718783993274 L 151.65625036804704 364.6328125439468 L 150.6328125440632 368.0117186559364 L 148.9921873920248 371.5976560639683 L 146.94531276804628 374.15625011193333 L 144.179687424039 375.9999999999418 L 139.36718745605322 378.0468746239203 L 133.84374988806667 379.99218790396117 L 131.5859374080319 380.71093759994255 L 128.7187496960396 381.5312496639672 L 125.74999961606227 382.65624985593604 L 123.39843788801227 383.88671897596214 L 108.85156249604188 393.4101565439487 L 105.06250035203993 394.3281254399335 L 102.60937523201574 394.2265620479593 L 97.89843763201497 393.4101565439487 L 95.53906278405339 392.89453158393735 L 90.83593728003325 391.8710937599535 L 87.96874956804095 393.4101565439487 L 82.84375040006125 396.7890626559383 L 80.79687475203536 397.71093708794797 L 78.03125043201726 398.6289059839328 L 74.65624985605245 399.6562503679306 L 71.89062451204518 400.47265587194124 L 68.40625049604569 401.80468735995237 L 61.648437248019036 405.39062476792606 L 55.914062848023605 407.9492188159493 L 53.45312460802961 409.48437503993046 L 50.796874752035365 411.6367185919662 L 48.74218700802885 413.48046847997466 L 47.00781260803342 415.4257817599573 L 45.6718745600665 417.2656250879518 L 44.34374963201117 419.3164062719443 L 43.11718707205728 423.5156254719477 L 43.726562304014806 426.38281215995084 L 44.64843776001362 429.24999987194315 L 46.906250240048394 434.06249983992893 L 48.33593753603054 436.7226562559372 L 50.687500288011506 440.5117183999391 L 52.02343731204746 442.25390591996256 L 53.45312460802961 445.12109363195486 L 54.37500006402843 446.8593745919643 L 56.32031232002191 449.8320312319556 L 58.47656243201345 452.6992189439479 L 61.74999961606227 454.84765593596967 L 66.86718771205051 456.5898434559349 L 70.35156275203917 457.921874943946 L 72.29687500803266 459.0468751359731 L 77.7265623040148 460.277344255941 L 80.07812505605398 460.378906623926 L 85.20312524802284 460.48046899196925 L 88.67968716804171 461.4023434239207 L 91.34375014406396 463.34765670396155 L 91.96093747206032 466.62500044796616 L 89.9140628480236 472.3593748479616 L 93.18750003201421 473.1796879359754 L 96.97656217601616 474.61328076792415 L 98.30468710401328 477.07031244796235 L 97.79687526402995 479.62890649592737 L 96.57031270401785 483.3164062719443 L 94.10937548801303 489.25390643195715 L 91.24218777602073 493.24999987194315 L 87.14843750401633 496.2187499519205 L 83.35937536001438 497.65234380797483 L 79.7734379520407 497.5507814399316 L 76.28906291205203 496.2187499519205 L 73.3203128320165 494.7851560959243 L 66.86718771205051 492.83984383993084 L 59.804687360010576 492.4296878079185 L 56.32031232002191 492.12109414394945 L 52.53125017601997 490.9960939519224 L 49.460937728057615 489.1523440639721 L 44.64843776001362 485.7734379519243 L 43.523437568044756 483.21484390395926 L 43.3203128320165 481.0625003519235 L 45.367187456053216 477.37499955197563 L 44.34374963201117 473.1796879359754 L 42.0859371520346 468.8789063679287 L 39.2265625600121 467.2382812159485 L 36.765625344065484 465.19140659197 L 34.718749696039595 463.8593751039589 L 32.3593748480198 462.42578124796273 L 29.70312499202555 460.58203135995427 L 26.52343705605017 458.43359334394336 L 24.273437696043402 456.7929692159523 L 20.281249792024028 454.74609356792644 L 15.671874560066499 452.4921876479639 L 11.679687680036295 450.75390668795444 L 7.1718748160637915 449.7265623039566 L 2.9765621760161594 449.4218751999433 L 0.8203120640246198 449.4218751999433 L 0.0 449.56327104343654" fill="none"/><path stroke="#000000" stroke-width="2" d="M 0.0 449.56327104343654 L 0.8203120640246198 449.4218751999433 L 2.9765621760161594 449.4218751999433 L 7.1718748160637915 449.7265623039566 L 11.679687680036295 450.75390668795444 L 15.671874560066499 452.4921876479639 L 20.281249792024028 454.74609356792644 L 24.273437696043402 456.7929692159523 L 26.52343705605017 458.43359334394336 L 29.70312499202555 460.58203135995427 L 32.3593748480198 462.42578124796273 L 34.718749696039595 463.8593751039589 L 36.765625344065484 465.19140659197 L 39.2265625600121 467.2382812159485 L 42.0859371520346 468.8789063679287 L 44.34374963201117 473.1796879359754 L 45.367187456053216 477.37499955197563 L 43.3203128320165 481.0625003519235 L 43.523437568044756 483.21484390395926 L 44.64843776001362 485.7734379519243 L 49.460937728057615 489.1523440639721 L 52.53125017601997 490.9960939519224 L 56.32031232002191 492.12109414394945 L 59.804687360010576 492.4296878079185 L 66.86718771205051 492.83984383993084 L 73.3203128320165 494.7851560959243 L 76.28906291205203 496.2187499519205 L 79.7734379520407 497.5507814399316 L 83.35937536001438 497.65234380797483 L 87.14843750401633 496.2187499519205 L 91.24218777602073 493.24999987194315 L 94.10937548801303 489.25390643195715 L 96.57031270401785 483.3164062719443 L 97.79687526402995 479.62890649592737 L 98.30468710401328 477.07031244796235 L 96.97656217601616 474.61328076792415 L 93.18750003201421 473.1796879359754 L 89.9140628480236 472.3593748479616 L 91.96093747206032 466.62500044796616 L 91.34375014406396 463.34765670396155 L 88.67968716804171 461.4023434239207 L 85.20312524802284 460.48046899196925 L 80.07812505605398 460.378906623926 L 77.7265623040148 460.277344255941 L 72.29687500803266 459.0468751359731 L 70.35156275203917 457.921874943946 L 66.86718771205051 456.5898434559349 L 61.74999961606227 454.84765593596967 L 58.47656243201345 452.6992189439479 L 56.32031232002191 449.8320312319556 L 54.37500006402843 446.8593745919643 L 53.45312460802961 445.12109363195486 L 52.02343731204746 442.25390591996256 L 50.687500288011506 440.5117183999391 L 48.33593753603054 436.7226562559372 L 46.906250240048394 434.06249983992893 L 44.64843776001362 429.24999987194315 L 43.726562304014806 426.38281215995084 L 43.11718707205728 423.5156254719477 L 44.34374963201117 419.3164062719443 L 45.6718745600665 417.2656250879518 L 47.00781260803342 415.4257817599573 L 48.74218700802885 413.48046847997466 L 50.796874752035365 411.6367185919662 L 53.45312460802961 409.48437503993046 L 55.914062848023605 407.9492188159493 L 61.648437248019036 405.39062476792606 L 68.40625049604569 401.80468735995237 L 71.89062451204518 400.47265587194124 L 74.65624985605245 399.6562503679306 L 78.03125043201726 398.6289059839328 L 80.79687475203536 397.71093708794797 L 82.84375040006125 396.7890626559383 L 87.96874956804095 393.4101565439487 L 90.83593728003325 391.8710937599535 L 95.53906278405339 392.89453158393735 L 97.89843763201497 393.4101565439487 L 102.60937523201574 394.2265620479593 L 105.06250035203993 394.3281254399335 L 108.85156249604188 393.4101565439487 L 123.39843788801227 383.88671897596214 L 125.74999961606227 382.65624985593604 L 128.7187496960396 381.5312496639672 L 131.5859374080319 380.71093759994255 L 133.84374988806667 379.99218790396117 L 139.36718745605322 378.0468746239203 L 144.179687424039 375.9999999999418 L 146.94531276804628 374.15625011193333 L 148.9921873920248 371.5976560639683 L 150.6328125440632 368.0117186559364 L 151.65625036804704 364.6328125439468 L 152.57812480005668 359.61718783993274 L 152.57812480005668 352.0390625279397 L 151.65625036804704 348.25000038393773 L 149.71093708806438 344.56249958393164 L 143.87500032002572 338.62500044796616 L 140.28906291205203 337.70312499196734 L 137.21875046403147 337.70312499196734 L 134.04687462403672 338.4179691519239 L 130.97656217601616 339.44531251193257 L 127.69531289604492 340.8789063679287 L 125.34375014406396 342.31250022392487 L 123.39843788801227 344.7695308799739 L 121.24218777602073 348.66015641595004 L 119.9140628480236 350.8085934079718 L 118.2734376960434 352.75390668795444 L 116.12499968003249 354.3945308159455 L 113.05468723201193 355.62109337595757 L 109.06250035203993 356.6484377599554 L 104.45312614401337 357.36328601592686 L 101.27343718404882 357.46484326396603 L 97.07812454405939 357.2617185279378 L 93.28906240005745 356.75000012794044 L 89.39843788801227 356.1367183359689 L 86.6328125440632 355.51953100797255 L 83.46093772805762 354.29296844796045 L 79.15624960005516 352.9609379839385 L 76.39062528003706 351.11718707194086 L 74.65624985605245 350.29687500797445 L 71.47656294406625 348.66015641595004 L 69.32812492805533 346.9179688959266 L 66.3593748480198 343.9492188159493 L 64.31250022404129 342.51562495995313 L 62.671875072061084 340.3632814079756 L 58.47656243201345 332.48046899196925 L 54.37500006402843 328.38281215995084 L 51.4062499840511 325.5156254719477 L 47.41406208003173 320.29296844796045 L 45.26562508800998 316.8124999679276 L 44.4453120000544 311.79687526397174 L 44.64843776001362 307.28906239994103 L 44.24218726402614 303.29687449592166 L 44.03906252805609 300.01953075197525 L 43.92968704004306 294.1835939839366 L 42.906250240048394 288.34765619196696 L 42.19531264004763 283.6367185919662 L 42.499999744060915 278.31250022392487 L 44.546875392028596 273.4960936959251 L 47.82812467205804 269.71093708794797 L 50.89843712002039 267.7617182719405 L 53.664062464027666 266.53515673597576 L 56.21874995203689 265.20312524796464 L 59.5000002560555 263.8710937599535 L 62.671875072061084 262.43749990395736 L 67.78906214406015 259.98046924796654 L 70.96875008003553 258.5468753919704 L 76.80468787206337 255.88671897596214 L 82.84375040006125 252.9140623359708 L 86.53125017601997 250.96875007991912 L 88.37500006402843 249.33203148795292 L 91.1406254080357 246.97656217595795 L 93.59374950401252 246.0546877439483 L 95.95312537602149 246.3632814079756 L 100.96875008003553 248.8203120639664 L 111.3124997120467 254.04296908795368 L 114.07812505605398 255.67968767991988 L 116.22656204801751 257.4218751999433 L 119.60937472002115 261.3124997119303 L 125.64843724801904 264.7929692159523 L 127.18750003201421 267.66015590395546 L 129.43750041601015 265.61328127991874 L 133.2265625600121 262.6445311999414 L 136.91406233602902 259.98046924796654 L 139.36718745605322 258.445311999938 L 146.64062464004382 255.47656294394983 L 148.9921873920248 254.24609382392373 L 151.55468800006201 252.9140623359708 L 154.3203123200219 251.37890611193143 L 156.98437529604416 250.3554682879476 L 163.02343782404205 250.55859404796502 L 167.01562470401404 250.96875007991912 L 170.29687500803266 250.96875007991912 L 174.18749952001963 250.66406297596404 L 179.30468761606608 250.15234355191933 L 184.2187499520369 248.61328076792415 L 187.70312499202555 246.87499980797293 L 190.7734374400461 245.23437465593452 L 193.84374988806667 242.67578163195867 L 195.89062451204518 240.52343705593375 L 197.84374988806667 237.65625036793062 L 199.37499955203384 234.6875002879533 L 201.01562470401404 233.0507816959289 L 204.49999974406091 230.79687475191895 L 206.33593753603054 228.44140646397136 L 207.6718745600665 223.93750015995465 L 207.25781299202936 220.55859404796502 L 205.92968704004306 216.0507811839343 L 209.10156288003782 211.64843724796083 L 210.94531276804628 210.11328102392145 L 214.83593728003325 206.83593727997504 L 217.29687449603807 204.78906265593832 L 223.85156300803646 199.35937535995618 L 232.0390625280561 197.3124997119303 L 240.23437516804552 194.03515596792568 L 244.32812544004992 193.7265623039566 L 247.9140628480236 194.1367183359689 L 256.51562496001134 196.80078131193295 L 259.0781245440594 197.7226557439426 L 263.37499955203384 198.84765593596967 L 267.46874982403824 198.74609356792644 L 269.82812467205804 198.6445311999414 L 272.39062528003706 198.43749990395736 L 277.4062499840511 197.10937497596024 L 284.2656245760154 194.5468753919704 L 286.8281251840526 193.011719167931 L 291.5390627840534 190.65624985593604 L 296.65624985605245 188.40234393597348 L 300.9531248640269 186.15234355191933 L 303.7187502080342 183.17968793597538 L 305.56250009604264 179.39062476792606 L 306.179687424039 175.9101562879514 L 305.8750003200257 173.5546879999456 L 304.6406246400438 170.58593791996827 L 301.6718745600665 167.4101565439487 L 297.6796876800363 164.9531248639687 L 292.8671877120505 162.69921894394793 L 282.42187468806515 158.29687500797445 L 279.554688000062 157.07031244796235 L 275.8671872000559 155.6367185919662 L 272.5937500160653 154.61328076792415 L 269.0078126080334 153.79296870395774 L 264.812499968044 152.87109324795892 L 260.60937523201574 151.84765644796425 L 256.921875456057 150.61718732793815 L 252.10937548801303 148.98046873597195 L 248.01562521606684 147.5468748799758 L 244.2265620480175 146.21484339196468 L 241.35937536001438 145.08984422392678 L 238.49218764802208 143.65625036793062 L 235.3203128320165 140.99218739196658 L 232.55468748800922 136.89453158393735 L 231.83593779202783 132.28906291193562 L 232.55468748800922 127.26953164796578 L 233.47656294406625 123.99218790396117 L 235.62499993602978 118.56640614394564 L 237.46874982403824 115.08593766397098 L 239.61718784004916 111.80859391996637 L 245.24999987205956 107.91796838393202 L 251.0859376640292 105.25390643195715 L 255.89843763201497 103.71875020791776 L 261.1250001920271 101.67187455995008 L 273.7187502080342 97.47265638393583 L 282.2187499520369 96.75390668795444 L 291.9453122560517 96.03906252793968 L 297.2734371840488 97.67578111996409 L 302.0859371520346 99.41796863992931 L 308.84375040006125 101.67187455995008 L 314.5781248000567 104.12890623993007 L 319.79687526402995 105.97265612793854 L 325.84374988806667 112.62890598393278 L 328.4999997440609 115.08593766397098 L 332.60156211204594 117.74609407992102 L 338.33593753603054 119.48828159994446 L 341.4062499840511 119.48828159994446 L 346.93733478401555 118.15629004791845 L 350.4140625920263 117.03124991996447 L 353.48437504004687 115.39062476792606 L 355.9453122560517 113.44531251193257 L 358.3046871040133 110.98828083195258 L 360.7578122240375 108.01953075197525 L 361.37499955203384 106.27734425594099 L 361.88281241606455 103.10546841594623 L 362.70312550402014 99.7265623039566 L 363.52343756804476 97.57421875192085 L 361.7812500480213 94.19531263993122 L 360.5546874880092 91.12500019196887 L 359.5312496640254 88.15234355191933 L 358.0937502720626 84.16015667194733 L 355.6406251520384 79.85937510395888 L 352.6718750720611 76.48046899196925 L 345.9140628480236 71.56640665594023 L 340.4843745280523 68.08203161595156 L 336.79687475203536 65.7265623039566 L 334.03125043201726 63.578125311934855 L 330.0390625280561 60.09765580797102 L 324.71093760005897 56.30859366396908 L 320.61718732805457 53.5429683199618 L 317.2421877760207 52.00781209592242 L 312.3203123200219 49.65234380797483 L 307.3046876160661 46.98828083195258 L 300.0390625280561 42.89453158393735 L 296.7578122240375 41.15234406397212 L 293.07031244802056 38.5937500159489 L 290.20312473602826 35.519531007972546 L 288.46093721606303 33.16406271996675 L 287.0312499200227 29.785156607918907 L 286.7265628160094 25.99609343992779 L 287.43750041601015 19.546874879975803 L 287.74999961606227 14.835937279975042 L 281.19531212805305 9.203125247964635 L 278.1249996800325 6.542968831956387 L 275.8671872000559 3.980469247966539 L 273.6907643813465 0.0" fill="none"/><path stroke="#000000" stroke-width="2" d="M 165.63461888523307 0.0 L 161.69531289604492 0.08984371193218976 L 158.21093785605626 0.19140607997542247 L 150.53125017601997 0.2929684479604475 L 143.6718745600665 0.2929684479604475 L 137.42187520005973 0.3984373759594746 L 128.10937548801303 0.3984373759594746 L 114.58593792002648 0.6015621119295247 L 101.48437504004687 0.6015621119295247 L 93.18750003201421 0.7031255039619282 L 87.45312460802961 0.8085934079717845 L 80.89843712002039 0.9101557759568095 L 77.92968704004306 0.9101557759568095 L 64.41406259202631 1.0117191679310054 L 55.19531212805305 1.0117191679310054 L 41.57812531205127 0.8085934079717845 L 39.835937792027835 0.9101557759568095 L 37.48437504004687 0.9101557759568095 L 35.64062515203841 1.113281535974238 L 32.57031270401785 1.2148439039592631 L 28.164062208030373 1.0117191679310054 L 0.0 1.0117191679310054" fill="none"/><path stroke="#408040" stroke-width="3" d="M 0.0 233.78714755344117 L 1.925119999999879 230.96319999999832 L 36.51583999999275 180.17280000000028 L 61.30688000000373 143.82080000000133 L 77.50655999999435 120.40191999999661 L 89.77408000000287 111.62623999999778 L 117.61663999999291 93.0815999999977 L 124.26240000000689 88.64768000000186 L 126.95552000000316 86.56895999999688 L 128.74752000000444 82.94400000000314 L 128.77823999999964 75.3868799999982 L 128.7372800000012 67.71712000000116 L 128.62463999999454 50.05311999999685 L 128.48128000000725 23.79776000000129 L 128.3669287773664 0.0" fill="none"/></svg>