<svg xmlns="http://www.w3.org/2000/svg" width="1024" height="1024"><rect stroke="none" x="0" y="0" width="1024" height="1024" fill="white"/><path stroke="#000000" stroke-width="2" d="M 880.2211121005384 0.0 L 880.0312504320173 4.0820316158933565 L 876.3437496320694 9.203125247964635 L 874.2968750080327 13.503905791905709 L 874.2968750080327 19.136718847963493 L 871.3281249280553 22.617187327879947 L 868.2500003840541 24.871093247958925 L 866.2031247360283 27.125000191910658 L 865.1796879360336 29.374999551917426 L 863.9531253760215 31.62890649586916 L 861.5937495040125 33.675781119964086 L 859.648437248019 36.85156249598367 L 858.0156252160668 39.61718783993274 L 855.9687495680992 44.83984383987263 L 855.1484375040745 52.41796915180748 L 856.0703129600151 55.691406335972715 L 859.445312512049 60.609375232015736 L 863.3359370240942 63.26953164790757 L 865.4843750400469 66.34374963195296 L 868.2500003840541 69.62109337584116 L 868.3515627520974 73.1015628798632 L 866.9218785280245 86.4140625919681 L 866.9218785280245 91.32812492793892 L 866.5156249600695 96.14062489580829 L 863.2343746560509 104.43359334388515 L 854.3281254401081 119.99999999988358 L 851.3593753600144 124.5078128639143 L 849.7187502080924 127.26953164784936 L 848.8984371200786 132.90234367980156 L 847.5703121920233 135.97656268795254 L 846.7500001281151 140.27734425582457 L 846.9531248640851 145.49609369586688 L 845.3124997120467 148.8789063678705 L 841.2187504640315 155.12500019196887 L 839.0703124480788 157.99218790401937 L 837.7343754240428 160.96093798388029 L 837.3281249280553 162.90625023993198 L 836.2031247360283 166.79687475191895 L 835.7890621440602 171.71093708788976 L 836.609375232074 174.37500006402843 L 837.7343754240428 176.42187468794873 L 837.8437498880667 178.7773439999437 L 837.9453122561099 181.644531711936 L 838.2500003841124 184.9218754558242 L 839.0703124480788 192.49999974382808 L 838.7656253441237 194.44531199987978 L 837.6328120320686 197.5156254718895 L 831.4921871360275 201.5117189119337 L 823.0937497600098 204.17187532788375 L 816.3359375360305 205.50390579196392 L 811.4218752000597 206.83593727991683 L 809.1718748160638 207.5507814399316 L 801.8984376320732 209.6015626239241 L 796.367187968106 211.85156300780363 L 775.7890621441184 222.1953126398148 L 771.3828126720618 224.44921855989378 L 768.6171873280546 225.7812500478467 L 758.6875002880115 230.48828108789166 L 755.3046876160661 232.84375039988663 L 752.3359375360887 234.07421849592356 L 748.1406248960411 235.0976563199074 L 738.7187496960978 238.273437695927 L 736.257812480093 239.80859391996637 L 732.8828129280591 242.16406220785575 L 728.8906250240398 245.44140595191857 L 722.5390622720588 249.84374988783384 L 713.0156247040723 256.7031255039619 L 711.0703124480788 258.5468753919704 L 708.2031247360283 261.4140620799153 L 704.921875456057 265.30468761594966 L 703.0781245441176 268.58203135983786 L 701.5468748800922 271.5507814398734 L 700.9296875520376 274.3164057600079 L 700.3203123200219 277.4921871359693 L 699.8046873600106 279.6406251518638 L 699.1875000320724 282.1015623678686 L 698.7812495360849 285.5820308479597 L 699.0859376640292 288.5507809278788 L 700.7265628160676 292.5429688319564 L 702.8749998080311 296.9492183039547 L 703.7968752640882 301.5546879998874 L 703.5937495040125 305.75390617595986 L 703.1875000320724 308.4179691519239 L 702.468750336091 310.7734374398133 L 701.0312499200809 313.43359385593794 L 699.5000002560555 315.378906111815 L 697.1406254080357 317.2226559998235 L 694.6875002880697 318.65624985587783 L 692.2265620480175 320.089843711874 L 688.1328128000605 322.445311999938 L 685.8750003200839 323.6757811199059 L 684.1406248960993 325.0039060478448 L 682.2968750080327 326.84765593585325 L 681.374999552092 328.89453158387914 L 680.8593745920807 331.4570311679272 L 680.5546874880674 334.0156252159504 L 680.2500003840541 337.4960936959251 L 679.1171870720573 343.7460940798628 L 677.6874997760169 348.0468746238621 L 676.0468746240367 351.52734412788413 L 674.1015623681014 356.2382817279431 L 672.7734374400461 359.8203125759028 L 672.3593748480198 364.01953075185884 L 672.7734374400461 369.1406254078611 L 673.2812503040768 374.4648437759606 L 673.4921871360275 377.9453122559353 L 673.7968752640882 381.4257817599573 L 673.898437632015 384.70312550402014 L 674.3046871040715 388.5937500159489 L 674.8203120640828 391.97656268789433 L 674.8203120640828 394.94531276781345 L 675.1250001920853 398.0156252158922 L 675.9453122561099 407.53906278387876 L 676.1484369920217 411.7382809598348 L 674.5156249600695 418.29296844790224 L 672.5703127040761 422.08203161589336 L 663.656250368047 425.562500095868 L 660.4843745280523 426.7890626559383 L 650.8593745920807 430.47656243201345 L 644.1015623680432 431.70703155192314 L 634.8828129281173 433.2421877760207 L 616.5546874880092 438.0546877438901 L 608.5703127040761 442.0468746239203 L 601.1953121281113 445.12109363189666 L 598.6328125440632 447.26953164790757 L 594.5390622720588 452.2890629119938 L 590.4453120000544 457.2031252479064 L 586.4453120000544 459.24999987182673 L 583.9921879040776 460.17187532782555 L 580.3046871040133 461.8125004799804 L 577.8437498881249 464.06249983992893 L 575.0781245441176 466.8281251839362 L 572.9296875520959 469.39062476798426 L 569.0390620161197 473.9960934399278 L 564.8437504000613 477.5820308479597 L 561.7734379520407 479.93750015995465 L 551.5312496640836 487.9218749438296 L 538.3203123200219 491.8164060158306 L 533.7109370880644 492.22265651187627 L 522.3437496320694 493.35156223986996 L 510.57031270401785 493.4531246079132 L 505.4531246080878 492.83984383987263 L 498.5859379200265 492.01953075191705 L 495.2109373440617 491.0976563198492 L 478.21093785605626 486.48828108783346 L 473.9140628480236 485.7734379518661 L 470.1249996800325 485.2617185279378 L 465.4140620800317 485.6718745599501 L 454.0468746240367 487.61718783993274 L 446.6718750721193 491.9179683838738 L 443.70312499202555 493.86328166385647 L 438.37500006408663 495.39843788789585 L 434.0781250561122 495.80859391990816 L 428.24218726408435 496.52343705587555 L 424.1406248960411 497.34375014394755 L 418.51562496001134 499.085937663971 L 414.8281251840526 500.51953151996713 L 407.4531246080296 505.84374988795025 L 406.1249996800907 511.6796876798617 L 405.101562880096 515.4687498238054 L 403.56247449608054 517.9257999358233 L 400.7968747520936 519.8710937598953 L 389.5312496640836 527.7578127359739 L 377.2421877760207 533.2851558398106 L 368.43749990401557 539.3281249278807 L 358.19531264004763 547.8281246718252 L 352.46093721606303 550.796874751919 L 340.4843745281105 552.3320309759583 L 331.3671874560532 552.1289062399301 L 326.25000038405415 553.6640624639695 L 320.3125002240995 555.4062499839347 L 316.42187468812335 556.4296878079767 L 305.97656268801074 558.3750000638538 L 299.1171870720573 559.3984378878376 L 295.734375424101 559.7070315518067 L 292.0468746240367 560.117187583819 L 288.46093721612124 560.3203123199055 L 284.4687503360328 560.832031743892 L 279.3515622401028 561.4453125119326 L 275.7656248320709 561.8554685439449 L 273.4140620800317 562.164062207914 L 269.82812467211625 562.8789063679869 L 260.20312473608647 563.4960936959251 L 254.57031270407606 563.4960936959251 L 251.5000002560555 563.3906247678096 L 247.39843788801227 563.0859376639128 L 243.10156288009603 562.6757816319005 L 238.9062502400484 562.4726558719412 L 235.62499993602978 562.4726558719412 L 232.9609379840549 562.3671879679314 L 229.78906214411836 562.0624998399289 L 226.92187545605702 561.7539061759016 L 222.92968755209586 561.0390620158869 L 219.34375014406396 560.3203123199055 L 215.24999987211777 559.7070315518067 L 210.84375040006125 559.3984378878376 L 206.75000012805685 559.0898442238686 L 200.71093760005897 558.7851560958661 L 198.04687462409493 558.6835937278229 L 194.15625011204975 558.476562431897 L 185.03906201611971 558.6835937278229 L 180.32812544004992 558.5781247999403 L 174.9062502401066 557.9648440318415 L 171.00781260803342 557.5546879998292 L 167.5312496640836 557.453124607855 L 163.2265625600703 557.453124607855 L 159.74999961606227 557.6562503678724 L 156.67187507206108 557.9648440318415 L 153.0937497600098 558.6835937278229 L 149.71093708806438 559.2968744959217 L 145.92187494406244 560.4218746879487 L 143.36718745605322 561.4453125119326 L 139.26562508800998 563.4960936959251 L 135.6796876800945 565.1328122878331 L 132.92187545611523 566.6679685118725 L 129.53906278405339 568.6132807679242 L 124.82812518411083 571.1757813759032 L 121.1406254080357 573.3242183678085 L 117.86718720011413 575.0664058878319 L 115.10156288003782 576.3984373760177 L 111.71875020809239 578.0351559679257 L 108.5468753920286 579.4687498239218 L 106.39843737607589 580.4921876479057 L 104.14062489604112 581.5156254719477 L 101.99218790401937 582.4374999040156 L 98.92187545611523 583.4609377278248 L 94.92968755209586 584.4882810879499 L 92.36718796810601 585.0000005119364 L 89.9140628480236 585.8164060158888 L 87.3515622401028 586.6367191038444 L 84.28124979208224 587.6601559038972 L 81.51562547206413 588.7890626558219 L 78.03125043207547 590.7343749118736 L 75.36718745611142 591.6562503678724 L 72.91406233602902 592.167968767928 L 70.65624985605245 592.4726558718248 L 67.28125030401861 591.7578127359156 L 63.07812454405939 590.9374996479601 L 59.80468736006878 590.5273436159478 L 57.03906201606151 590.2226565118763 L 53.664062464027666 589.812500479864 L 50.38281216000905 589.3007810558775 L 46.593750016065314 588.1718753278838 L 42.906250240048394 586.2265620479011 L 38.71093760005897 584.3828121598926 L 35.843749888124876 583.8710937598371 L 33.17968793603359 583.3593753599562 L 30.61718732805457 582.4374999040156 L 27.859375104075298 580.4921876479057 L 25.601562624040525 579.6757811198477 L 23.24999987211777 579.3671874558786 L 20.484374528110493 579.2656250878354 L 17.101562880096026 579.4687498239218 L 13.109374976076651 580.3906252798624 L 10.656249856110662 581.5156254719477 L 8.296875008090865 582.5429688318982 L 4.507812864088919 583.8710937598371 L 0.7187496960395947 585.1015628799796 L 0.0 585.329769112308" fill="none"/><path stroke="#000000" stroke-width="2" d="M 0.0 856.6681256231168 L 1.0312499200808816 857.0742190079181 L 5.125000192027073 859.5312496638508 L 7.890624512103386 861.8867189760203 L 10.546875392086804 864.5507809278788 L 12.390625280095264 867.1093749759602 L 14.851562496100087 870.8984371198458 L 16.796874752035365 874.3828121598344 L 19.148437504074536 877.9648440318997 L 21.40624998410931 880.8320317439502 L 24.171875328058377 883.5976560638519 L 27.34375014406396 887.4882815998862 L 30.109375488071237 891.1757813759614 L 31.749999616120476 894.8593745919643 L 34.92187545605702 901.6210933760158 L 40.25000038405415 906.4335933439434 L 43.828124672116246 910.2226565119345 L 48.85156249610009 916.7734374399879 L 50.99999948806362 919.746094079921 L 52.945312768104486 922.5078128638561 L 54.89062502409797 925.9921879038448 L 54.171875328116585 930.08593715186 L 53.24999987205956 934.4882810879499 L 53.046875136031304 936.8437503999448 L 52.74218700802885 942.2734376958106 L 51.82031257607741 949.0312499199645 L 52.22656204801751 951.8984376318404 L 54.78906265605474 957.7343754239264 L 55.71093708812259 961.5234375678701 L 55.39843788801227 965.6210933759576 L 56.734374912048224 970.5351567358011 L 57.65625036810525 974.2226565118763 L 57.554688000062015 978.8281251838198 L 58.781249536026735 983.4375004158937 L 59.08593766402919 988.4531251198496 L 58.16406220808858 993.6757811199641 L 57.45312460802961 997.1601561599527 L 56.01562521606684 1004.2226565119927 L 55.914062848023605 1008.1171875839937 L 56.21874995203689 1011.800780799822 L 55.29687449603807 1017.3320314880111 L 53.351562240102794 1022.4531251199078 L 52.8396870867291 1024.0" fill="none"/><path stroke="#000000" stroke-width="2" d="M 52.839687086699996 1024.0 L 53.351562240044586 1022.453125119966 L 55.29687449603807 1017.3320314879529 L 56.21874995203689 1011.8007807999384 L 55.914062848023605 1008.1171875839354 L 56.01562521600863 1004.2226565119345 L 57.45312460802961 997.1601561599527 L 58.16406220803037 993.6757811199641 L 59.08593766402919 988.453125119966 L 58.781249536026735 983.437500415952 L 57.554688000062015 978.8281251839362 L 57.65625036804704 974.2226565119345 L 56.734374912048224 970.5351567359176 L 55.39843788801227 965.6210933759576 L 55.710937088064384 961.5234375679283 L 54.78906265605474 957.7343754239264 L 52.22656204801751 951.8984376319568 L 51.820312576019205 949.0312499199645 L 52.74218700802885 942.273437695927 L 53.046875136031304 936.8437503999448 L 53.24999987205956 934.4882810879499 L 54.17187532805838 930.0859371519182 L 54.890625024039764 925.9921879039612 L 52.94531276804628 922.5078128639725 L 50.99999948806362 919.746094079921 L 48.85156249604188 916.7734374399297 L 43.82812467205804 910.2226565119345 L 40.25000038405415 906.4335933439434 L 34.92187545605702 901.6210933759576 L 31.74999961606227 894.8593745919643 L 30.10937548801303 891.1757813759614 L 27.34375014406396 887.4882815999445 L 24.171875328058377 883.5976560639683 L 21.4062499840511 880.8320317439502 L 19.14843750401633 877.9648440319579 L 16.796874752035365 874.3828121599508 L 14.851562496041879 870.8984371199622 L 12.390625280037057 867.1093749759602 L 10.546875392028596 864.550780927937 L 7.890624512045179 861.8867189759621 L 5.125000192027073 859.5312496639672 L 1.031249920022674 857.0742190079181 L 0.0 856.6681256231677" fill="none"/><path stroke="#000000" stroke-width="2" d="M 0.0 585.3297691122789 L 0.7187496960395947 585.1015628799214 L 4.507812864030711 583.8710937599535 L 8.296875008032657 582.5429688319564 L 10.656249856052455 581.5156254719477 L 13.109374976018444 580.3906252799206 L 17.101562880037818 579.4687498239218 L 20.484374528052285 579.2656250879518 L 23.24999987205956 579.3671874559368 L 25.601562624040525 579.6757811199641 L 27.85937510401709 580.4921876479639 L 30.61718732805457 582.4374999039574 L 33.17968793603359 583.3593753599562 L 35.84374988806667 583.8710937599535 L 38.71093760005897 584.3828121599508 L 42.906250240048394 586.2265620479593 L 46.593750016065314 588.171875327942 L 50.38281216000905 589.3007810559357 L 53.664062464027666 589.8125004799222 L 57.03906201606151 590.2226565119345 L 59.804687360010576 590.5273436159478 L 63.07812454405939 590.9374996479601 L 67.28125030401861 591.7578127359739 L 70.65624985605245 592.4726558719412 L 72.91406233602902 592.167968767928 L 75.36718745605322 591.6562503679306 L 78.03125043201726 590.7343749119318 L 81.51562547206413 588.7890626559383 L 84.28124979202403 587.6601559039555 L 87.35156224004459 586.6367191039608 L 89.9140628480236 585.816406015947 L 92.3671879680478 585.0000005119364 L 94.92968755203765 584.4882810879499 L 98.92187545605702 583.4609377279412 L 101.99218790401937 582.4374999039574 L 104.14062489604112 581.5156254719477 L 106.39843737601768 580.4921876479639 L 108.5468753920286 579.4687498239218 L 111.71875020803418 578.0351559679257 L 115.10156288003782 576.3984373759595 L 117.86718720005592 575.0664058879483 L 121.1406254080357 573.3242183679249 L 124.82812518405262 571.1757813759614 L 129.53906278405339 568.6132807679242 L 132.92187545605702 566.6679685119307 L 135.6796876800363 565.1328122879495 L 139.26562508800998 563.4960936959251 L 143.36718745605322 561.4453125119326 L 145.92187494406244 560.4218746879487 L 149.71093708806438 559.2968744959217 L 153.0937497600098 558.6835937279393 L 156.67187507206108 557.9648440319579 L 159.74999961606227 557.6562503679306 L 163.2265625600121 557.4531246079714 L 167.53124966402538 557.4531246079714 L 171.00781260803342 557.5546879999456 L 174.9062502400484 557.9648440319579 L 180.32812544004992 558.5781247999403 L 185.0390620160615 558.6835937279393 L 194.15625011204975 558.4765624319552 L 198.04687462403672 558.6835937279393 L 200.71093760005897 558.7851560959243 L 206.75000012805685 559.0898442239268 L 210.84375040006125 559.3984378879541 L 215.24999987205956 559.7070315519231 L 219.34375014406396 560.3203123199637 L 222.92968755203765 561.0390620159451 L 226.92187545605702 561.7539061759599 L 229.78906214406015 562.0624998399289 L 232.9609379840549 562.3671879679314 L 235.62499993602978 562.4726558719412 L 238.9062502400484 562.4726558719412 L 243.10156288003782 562.6757816319587 L 247.39843788801227 563.085937663971 L 251.5000002560555 563.390624767926 L 254.57031270401785 563.4960936959251 L 260.20312473602826 563.4960936959251 L 269.82812467205804 562.8789063679287 L 273.4140620800317 562.1640622079722 L 275.7656248320127 561.8554685439449 L 279.3515622400446 561.4453125119326 L 284.4687503360328 560.8320317439502 L 288.46093721606303 560.3203123199637 L 292.0468746240367 560.1171875839354 L 295.7343754240428 559.7070315519231 L 299.1171870720573 559.3984378879541 L 305.97656268801074 558.3750000639702 L 316.42187468806515 556.4296878079185 L 320.3125002240413 555.4062499839347 L 326.25000038405415 553.6640624639695 L 331.3671874560532 552.1289062399301 L 340.4843745280523 552.3320309759583 L 352.46093721606303 550.796874751919 L 358.19531264004763 547.8281246719416 L 368.43749990401557 539.3281249279389 L 377.2421877760207 533.285155839927 L 389.5312496640254 527.7578127359739 L 400.79687475203536 519.8710937599535 L 403.56247449602233 517.9257999359397 L 405.1015628800378 515.4687498239218 L 406.1249996800325 511.6796876799199 L 407.4531246080296 505.84374988795025 L 414.8281251840526 500.51953151996713 L 418.51562496001134 499.085937663971 L 424.1406248960411 497.34375014394755 L 428.24218726402614 496.52343705593375 L 434.078125056054 495.80859391996637 L 438.3750000640284 495.39843788795406 L 443.70312499202555 493.8632816639729 L 446.6718750720611 491.917968383932 L 454.0468746240367 487.61718783993274 L 465.4140620800317 485.6718745599501 L 470.1249996800325 485.2617185279378 L 473.9140628480236 485.7734379519243 L 478.21093785605626 486.4882810879499 L 495.2109373440617 491.0976563199656 L 498.5859379200265 492.01953075191705 L 505.4531246080296 492.83984383993084 L 510.57031270401785 493.4531246079714 L 522.3437496320112 493.35156223992817 L 533.7109370880644 492.2226565119345 L 538.3203123200219 491.816406015947 L 551.5312496640254 487.921874943946 L 561.7734379520407 479.93750015995465 L 564.8437504000613 477.5820308479597 L 569.0390620160615 473.9960934399278 L 572.9296875520376 469.39062476792606 L 575.0781245440594 466.8281251839362 L 577.8437498880667 464.06249983992893 L 580.3046871040133 461.81250047992216 L 583.9921879040194 460.17187532794196 L 586.4453120000544 459.24999987194315 L 590.4453120000544 457.20312524796464 L 594.5390622720588 452.2890629119356 L 598.6328125440632 447.2695316479658 L 601.195312128053 445.12109363195486 L 608.5703127040179 442.0468746239203 L 616.5546874880092 438.0546877439483 L 634.8828129280591 433.2421877759625 L 644.1015623680432 431.70703155192314 L 650.8593745920225 430.47656243195524 L 660.4843745280523 426.7890626559383 L 663.656250368047 425.5625000959262 L 672.5703127040179 422.08203161595156 L 674.5156249600113 418.29296844796045 L 676.1484369920217 411.7382809599512 L 675.9453122560517 407.53906278393697 L 675.1250001920271 398.0156252159504 L 674.8203120640246 394.94531276792986 L 674.8203120640246 391.97656268795254 L 674.3046871040133 388.5937500159489 L 673.898437632015 384.7031255039619 L 673.79687526403 381.4257817599573 L 673.4921871360275 377.9453122559353 L 673.2812503040186 374.4648437759606 L 672.7734374400461 369.1406254079193 L 672.3593748480198 364.01953075191705 L 672.7734374400461 359.820312575961 L 674.1015623680432 356.2382817279431 L 676.0468746240367 351.52734412794234 L 677.6874997760169 348.0468746239203 L 679.1171870720573 343.746094079921 L 680.2500003840541 337.4960936959251 L 680.5546874880092 334.0156252159504 L 680.8593745920225 331.4570311679272 L 681.3749995520338 328.89453158393735 L 682.2968750080327 326.84765593596967 L 684.1406248960411 325.0039060479612 L 685.8750003200257 323.6757811199641 L 688.1328128000605 322.445311999938 L 692.2265620480175 320.0898437119322 L 694.6875002880115 318.65624985593604 L 697.1406254080357 317.2226559999399 L 699.5000002560555 315.3789061119314 L 701.0312499200227 313.43359385593794 L 702.4687503360328 310.7734374399297 L 703.1875000320142 308.4179691519239 L 703.5937495040125 305.75390617595986 L 703.79687526403 301.5546879999456 L 702.8749998080311 296.9492183039547 L 700.7265628160094 292.5429688319564 L 699.0859376640292 288.550780927937 L 698.7812495360267 285.5820308479597 L 699.1875000320142 282.1015623679268 L 699.8046873600106 279.640625151922 L 700.3203123200219 277.4921871359693 L 700.9296875520376 274.3164057599497 L 701.546874880034 271.5507814399316 L 703.0781245440594 268.58203135995427 L 704.921875456057 265.30468761594966 L 708.2031247360283 261.4140620799735 L 711.0703124480206 258.5468753919704 L 713.015624704014 256.7031255039619 L 722.5390622720588 249.84374988795025 L 728.8906250240398 245.44140595191857 L 732.8828129280591 242.16406220797217 L 736.2578124800348 239.80859391996637 L 738.7187496960396 238.273437695927 L 748.1406248960411 235.0976563199656 L 752.3359375360305 234.07421849592356 L 755.3046876160661 232.84375039994484 L 758.6875002880115 230.48828108794987 L 768.6171873280546 225.7812500479631 L 771.3828126720618 224.449218559952 L 775.7890621440602 222.19531263993122 L 796.3671879680478 211.85156300792005 L 801.898437632015 209.6015626239241 L 809.1718748160638 207.5507814399316 L 811.4218752000597 206.83593727997504 L 816.3359375360305 205.50390579196392 L 823.0937497600098 204.17187532794196 L 831.4921871360275 201.5117189119337 L 837.6328120320104 197.51562547194771 L 838.7656253440655 194.44531199993799 L 839.0703124480206 192.4999997439445 L 838.2500003840541 184.9218754559406 L 837.9453122560517 181.644531711936 L 837.8437498880667 178.7773439999437 L 837.7343754240428 176.42187468794873 L 836.6093752320157 174.37500006397022 L 835.7890621440602 171.71093708794797 L 836.2031247360283 166.79687475191895 L 837.3281249280553 162.90625023993198 L 837.7343754240428 160.9609379839385 L 839.0703124480206 157.99218790396117 L 841.2187504640315 155.12500019196887 L 845.3124997120467 148.87890636792872 L 846.9531248640269 145.49609369592508 L 846.7500001280569 140.277344255941 L 847.5703121920233 135.97656268795254 L 848.8984371200204 132.90234367991798 L 849.7187502080342 127.26953164796578 L 851.3593753600144 124.5078128639725 L 854.3281254400499 119.99999999994179 L 863.2343746560509 104.43359334394336 L 866.5156249600113 96.1406248959247 L 866.9218785280245 91.32812492793892 L 866.9218785280245 86.4140625919681 L 868.3515627520392 73.1015628799214 L 868.2500003840541 69.62109337595757 L 865.4843750400469 66.34374963195296 L 863.335937024036 63.26953164796578 L 859.445312512049 60.60937523195753 L 856.0703129600151 55.691406335972715 L 855.1484375040163 52.4179691519239 L 855.968749568041 44.839843839930836 L 858.0156252160668 39.61718783993274 L 859.648437248019 36.851562495925464 L 861.5937495040125 33.675781119964086 L 863.9531253760215 31.628906495927367 L 865.1796879360336 29.374999551917426 L 866.2031247360283 27.125000191968866 L 868.2500003840541 24.871093247958925 L 871.3281249280553 22.617187327938154 L 874.2968750080327 19.136718847963493 L 874.2968750080327 13.503905791963916 L 876.3437496320112 9.203125247964635 L 880.0312504320173 4.082031615951564 L 880.2211121005384 0.0" fill="none"/><path stroke="#408040" stroke-width="3" d="M 1024.0 292.2430165249243 L 1020.2726399999956 293.14048000000184 L 1007.462400000004 296.22271999999793 L 983.203840000002 300.4313600000023 L 971.9193599999999 300.9945599999992 L 960.4608000000007 306.3500799999965 L 944.1996800000052 316.129280000001 L 925.7881599999964 318.33088000000134 L 907.0694400000066 318.41279999999824 L 898.3449600000022 321.03424000000086 L 891.0745599999937 325.69344000000274 L 884.6848000000027 331.76576000000205 L 880.2816000000021 338.94400000000314 L 866.0070399999968 356.3212799999965 L 853.1148799999937 367.2575999999972 L 841.5641599999944 373.9545599999983 L 830.4742399999959 380.38528000000224 L 824.7807999999932 386.5702400000009 L 824.1356800000067 392.5196799999976 L 827.2281599999988 407.78751999999804 L 823.316479999994 417.43359999999666 L 793.7228800000012 440.4838400000008 L 772.3110400000005 456.9702400000024 L 755.5583999999944 467.4047999999966 L 726.650880000001 471.30623999999807 L 708.096000000005 476.67199999999866 L 696.5452800000057 476.23167999999714 L 682.6496000000043 473.62047999999777 L 675.2768000000069 471.5622399999993 L 674.2630400000053 455.7516800000012 L 670.9964800000016 449.03424000000086 L 664.8217600000062 444.85631999999896 L 658.9337599999999 441.5795199999993 L 654.1721600000019 436.16255999999703 L 643.1027199999953 418.03775999999925 L 638.9964800000016 415.6108800000002 L 616.4787199999992 413.12256000000343 L 602.2451200000069 411.8220799999981 L 557.7728000000061 412.2931200000021 L 532.9612800000032 412.85631999999896 L 490.58815999999933 413.33759999999893 L 445.8188800000062 414.2694399999964 L 420.19839999999385 410.1632000000027 L 400.0563200000033 409.6102400000018 L 369.28512000000046 408.54527999999846 L 341.17631999999867 405.5859199999977 L 286.5971200000058 405.6678400000019 L 233.05216000000655 394.77247999999963 L 203.91935999999987 388.35199999999895 L 177.3567999999941 379.41247999999905 L 166.21567999999388 375.8694400000022 L 145.3260799999989 375.6953599999979 L 92.84608000000298 375.33696000000054 L 69.22239999999874 374.39487999999983 L 41.36960000000545 375.10143999999855 L 0.0 375.2406311559753" fill="none"/></svg>