<svg xmlns="http://www.w3.org/2000/svg" width="1024" height="1024"><rect stroke="none" x="0" y="0" width="1024" height="1024" fill="white"/><path stroke="#000000" stroke-width="2" d="M 1024.0 1.4903744369657943 L 1022.3671879680478 1.5234375679283403 L 1012.9453127680463 1.5234375679283403 L 1003.2187504640315 1.624999935971573 L 993.898437632015 1.726562303956598 L 987.648437248019 1.624999935971573 L 983.3515622400446 1.726562303956598 L 976.8984371200204 1.726562303956598 L 965.6328120320104 1.8320312319556251 L 928.8749998080311 1.8320312319556251 L 914.0234373120475 1.9335935999406502 L 910.6484377600136 1.9335935999406502 L 867.2265625600121 1.9335935999406502 L 863.8515630080365 2.035155967925675 L 859.445312512049 2.035155967925675 L 855.8593751040171 2.136718335968908 L 842.1406248960411 2.035155967925675 L 810.0937502720626 2.035155967925675 L 799.2343746560509 2.242187263967935 L 780.6015621120459 2.035155967925675 L 767.6953128960449 2.34374963195296 L 706.8671877120505 2.34374963195296 L 688.1328128000605 2.242187263967935 L 680.2500003840541 2.136718335968908 L 668.4687503360328 2.035155967925675 L 661.4062499840511 2.136718335968908 L 654.4453120000544 2.035155967925675 L 651.4687498240382 2.035155967925675 L 647.476562944008 1.9335935999406502 L 639.5937495040125 1.726562303956598 L 607.7499996160623 1.5234375679283403 L 594.7421870080288 1.5234375679283403 L 581.9453122560517 1.624999935971573 L 555.0078126080334 1.624999935971573 L 548.6640629760223 1.5234375679283403 L 542.8281251840526 1.5234375679283403 L 539.546874880034 1.624999935971573 L 536.7812495360267 1.5234375679283403 L 522.3437496320112 1.5234375679283403 L 510.97656217601616 1.4218751999433152 L 508.00781209603883 1.3203128319582902 L 500.84375040006125 1.3203128319582902 L 488.1406248960411 1.113281535974238 L 484.46093721606303 1.0117191679310054 L 466.02343731204746 1.0117191679310054 L 447.28906240005745 1.113281535974238 L 442.1640622080304 1.113281535974238 L 428.8515624960419 1.0117191679310054 L 422.914062336029 1.0117191679310054 L 411.64843724801904 1.113281535974238 L 405.7109370880644 1.0117191679310054 L 391.8906245120452 1.0117191679310054 L 386.7656253440655 1.113281535974238 L 336.5937500160653 1.113281535974238 L 323.2812503040186 1.0117191679310054 L 318.7734374400461 0.9101557759568095 L 312.9374996480183 0.9101557759568095 L 299.7265623040148 1.0117191679310054 L 292.46093721606303 1.0117191679310054 L 288.2578124800348 0.8085934079717845 L 284.3671879680478 0.9101557759568095 L 281.5000002560555 0.8085934079717845 L 262.8671877120505 0.8085934079717845 L 258.3593748480198 0.7031255039619282 L 255.79687526402995 0.7031255039619282 L 244.1249996800325 0.6015621119295247 L 233.88281241606455 0.6015621119295247 L 225.89843763201497 0.7031255039619282 L 212.179687424039 0.8085934079717845 L 207.36718745605322 0.8085934079717845 L 192.7187496960396 0.7031255039619282 L 187.60156262404053 0.7031255039619282 L 168.8593745920225 0.6015621119295247 L 152.47656243201345 0.6015621119295247 L 133.12500019202707 0.7031255039619282 L 127.59374950401252 0.8085934079717845 L 122.57812480005668 0.7031255039619282 L 95.95312537602149 0.49999974394449964 L 78.85156249604188 0.49999974394449964 L 67.68749977601692 0.3984373759594746 L 23.046875136031304 0.3984373759594746 L 10.960937984054908 0.49999974394449964 L 5.945312256051693 0.49999974394449964 L 0.0 0.32837576374731725" fill="none"/><path stroke="#000000" stroke-width="2" d="M 0.0 0.32837576374731725 L 5.945312256051693 0.49999974394449964 L 10.960937984054908 0.49999974394449964 L 23.046875136031304 0.3984373759594746 L 67.68749977601692 0.3984373759594746 L 78.85156249604188 0.49999974394449964 L 95.95312537602149 0.49999974394449964 L 122.57812480005668 0.7031255039619282 L 127.59374950401252 0.8085934079717845 L 133.12500019202707 0.7031255039619282 L 152.47656243201345 0.6015621119295247 L 168.8593745920225 0.6015621119295247 L 187.60156262404053 0.7031255039619282 L 192.7187496960396 0.7031255039619282 L 207.36718745605322 0.8085934079717845 L 212.179687424039 0.8085934079717845 L 225.89843763201497 0.7031255039619282 L 233.88281241606455 0.6015621119295247 L 244.1249996800325 0.6015621119295247 L 255.79687526402995 0.7031255039619282 L 258.3593748480198 0.7031255039619282 L 262.8671877120505 0.8085934079717845 L 281.5000002560555 0.8085934079717845 L 284.3671879680478 0.9101557759568095 L 288.2578124800348 0.8085934079717845 L 292.46093721606303 1.0117191679310054 L 299.7265623040148 1.0117191679310054 L 312.9374996480183 0.9101557759568095 L 318.7734374400461 0.9101557759568095 L 323.2812503040186 1.0117191679310054 L 336.5937500160653 1.113281535974238 L 386.7656253440655 1.113281535974238 L 391.8906245120452 1.0117191679310054 L 405.7109370880644 1.0117191679310054 L 411.64843724801904 1.113281535974238 L 422.914062336029 1.0117191679310054 L 428.8515624960419 1.0117191679310054 L 442.1640622080304 1.113281535974238 L 447.28906240005745 1.113281535974238 L 466.02343731204746 1.0117191679310054 L 484.46093721606303 1.0117191679310054 L 488.1406248960411 1.113281535974238 L 500.84375040006125 1.3203128319582902 L 508.00781209603883 1.3203128319582902 L 510.97656217601616 1.4218751999433152 L 522.3437496320112 1.5234375679283403 L 536.7812495360267 1.5234375679283403 L 539.546874880034 1.624999935971573 L 542.8281251840526 1.5234375679283403 L 548.6640629760223 1.5234375679283403 L 555.0078126080334 1.624999935971573 L 581.9453122560517 1.624999935971573 L 594.7421870080288 1.5234375679283403 L 607.7499996160623 1.5234375679283403 L 639.5937495040125 1.726562303956598 L 647.476562944008 1.9335935999406502 L 651.4687498240382 2.035155967925675 L 654.4453120000544 2.035155967925675 L 661.4062499840511 2.136718335968908 L 668.4687503360328 2.035155967925675 L 680.2500003840541 2.136718335968908 L 688.1328128000605 2.242187263967935 L 706.8671877120505 2.34374963195296 L 767.6953128960449 2.34374963195296 L 780.6015621120459 2.035155967925675 L 799.2343746560509 2.242187263967935 L 810.0937502720626 2.035155967925675 L 842.1406248960411 2.035155967925675 L 855.8593751040171 2.136718335968908 L 859.445312512049 2.035155967925675 L 863.8515630080365 2.035155967925675 L 867.2265625600121 1.9335935999406502 L 910.6484377600136 1.9335935999406502 L 914.0234373120475 1.9335935999406502 L 928.8749998080311 1.8320312319556251 L 965.6328120320104 1.8320312319556251 L 976.8984371200204 1.726562303956598 L 983.3515622400446 1.726562303956598 L 987.648437248019 1.624999935971573 L 993.898437632015 1.726562303956598 L 1003.2187504640315 1.624999935971573 L 1012.9453127680463 1.5234375679283403 L 1022.3671879680478 1.5234375679283403 L 1024.0 1.4903744369657943" fill="none"/></svg>