<svg xmlns="http://www.w3.org/2000/svg" width="1024" height="1024"><rect stroke="none" x="0" y="0" width="1024" height="1024" fill="white"/><path stroke="#000000" stroke-width="2" d="M 1024.0 423.2946784040687 L 1023.2890624000574 423.30859417596366 L 998.8124999681022 423.8203125758446 L 992.0546877441229 424.02734387194505 L 988.6718750720611 424.12890623981366 L 982.4296878080931 424.3320309759001 L 963.6874997760751 424.8437503998284 L 955.6015626240405 425.15234406403033 L 944.3359375360887 425.35546879988397 L 936.4531251200242 425.5625000958098 L 932.0468746240949 425.7656248318963 L 927.9531253760797 425.8710937600117 L 924.0624998401036 425.7656248318963 L 918.4296878080931 426.1757808639086 L 901.3281249280553 426.6875002878951 L 895.7968752640882 426.7890626559383 L 892.3203123200801 426.89453158382094 L 884.9453127680463 427.19921868795063 L 879.5156254721223 427.19921868795063 L 853.8125004800968 427.71093708794797 L 835.7890621441184 428.01953075197525 L 822.1718753281166 428.2226565119345 L 816.2343751680455 428.2226565119345 L 806.5078128640889 428.4296878078603 L 796.9843752961024 428.53125017590355 L 785.6171878401074 428.7382814718294 L 776.710937600059 428.83984383987263 L 767.2890624001157 429.1445309438277 L 757.1484375040745 429.24999987188494 L 737.6953128960449 429.35156223992817 L 732.7812495360849 429.35156223992817 L 728.7812495360849 429.24999987188494 L 712.1953126401058 429.35156223992817 L 698.7812495360849 429.35156223992817 L 688.3359375360305 429.5546879998874 L 682.0937502720626 429.6562503679306 L 673.6953128961031 429.6562503679306 L 669.8046873600688 429.5546879998874 L 652.6015621121041 429.7617182719405 L 645.1250001920271 429.8632816639147 L 640.3125002240413 429.8632816639147 L 637.9531253760797 429.7617182719405 L 634.6796871680999 429.8632816639147 L 628.640624640102 429.8632816639147 L 621.0625003520981 429.9648440318997 L 601.5000002561137 429.9648440318997 L 591.8750003200839 430.06640639994293 L 588.7031255040201 430.06640639994293 L 577.3359370240942 430.17187532788375 L 571.6015626240405 430.17187532788375 L 557.9843747841078 430.06640639994293 L 546.7187496960396 429.8632816639147 L 527.1562496000552 429.6562503679306 L 523.6796876800945 429.6562503679306 L 514.562499584048 429.7617182719405 L 507.2968744960963 429.7617182719405 L 502.3750000640284 429.6562503679306 L 498.0781250561122 429.6562503679306 L 495.61718784010736 429.5546879998874 L 487.6328120320686 429.5546879998874 L 484.359374848078 429.6562503679306 L 478.4140625920845 429.7617182719405 L 468.4843745280523 429.7617182719405 L 462.5468753920868 429.6562503679306 L 457.52343756810296 429.7617182719405 L 453.734375424101 429.8632816639147 L 450.8671877120505 429.7617182719405 L 444.7265628160094 429.9648440318997 L 441.554688000062 429.9648440318997 L 426.60156211210415 430.273437695927 L 412.2656245760154 430.57812479982385 L 398.8515624960419 430.88671846396755 L 394.0390625280561 430.98828083183616 L 385.1328122881241 431.19531212793663 L 377.8593751040171 431.39843788795406 L 371.50781235209433 431.5000002559973 L 361.57812531205127 431.6054691838799 L 352.0546877440647 431.80859391996637 L 347.1406254080357 431.70703155192314 L 340.07031296001514 431.9101562880096 L 336.9999994880636 431.9101562880096 L 331.3671874560532 432.01171865582 L 317.1328122880659 432.21874995180406 L 312.9374996480183 432.3203123200219 L 307.5078123520361 432.3203123200219 L 285.39062476804247 432.52343705587555 L 278.1249996800907 432.62890598381637 L 263.78906214406015 432.62890598381637 L 261.02343782410026 432.52343705587555 L 256.8203120640246 432.4218746878323 L 254.05468774412293 432.4218746878323 L 242.1796874240972 432.52343705587555 L 235.3203128320747 432.52343705587555 L 231.11718707211548 432.9335941118188 L 225.28125030407682 432.7304683518596 L 216.992187392083 432.7304683518596 L 202.96093798411312 432.8320317439502 L 188.82812518411083 432.8320317439502 L 185.34375014412217 433.0390620158287 L 179.4062499840511 433.1406254079193 L 172.96093798411312 433.2421877759625 L 162.92187545611523 433.34375014383113 L 149.8125004800968 433.5507814399316 L 141.41406208003173 433.65234380797483 L 126.77343744004611 433.75390617584344 L 113.56250009610085 433.9570309119299 L 108.34374963201117 434.0624998398125 L 104.0390625281143 434.16406220785575 L 101.48437504010508 434.265624575899 L 94.41406259208452 434.4726558718248 L 88.07031296007335 434.4726558718248 L 82.1249996800907 434.6757816320169 L 75.46874982403824 434.6757816320169 L 65.9453122560517 434.8789063678705 L 62.2656245760154 434.8789063678705 L 55.19531212805305 435.0859376640292 L 47.10937497607665 435.2890623998828 L 36.968750080035534 435.49609369580867 L 24.992187392082997 435.5976560638519 L 17.617187840049155 435.69921843189513 L 13.210937344119884 435.906249727821 L 0.0 435.906249727821" fill="none"/><path stroke="#000000" stroke-width="2" d="M 0.0 435.9062497279374 L 13.210937344061676 435.9062497279374 L 17.617187840049155 435.69921843195334 L 24.99218739202479 435.5976560639683 L 36.968750080035534 435.4960936959251 L 47.109374976018444 435.28906239994103 L 55.19531212805305 435.085937663971 L 62.2656245760154 434.8789063679287 L 65.9453122560517 434.8789063679287 L 75.46874982403824 434.67578163195867 L 82.12499968003249 434.67578163195867 L 88.07031296001514 434.47265587194124 L 94.41406259202631 434.47265587194124 L 101.48437504004687 434.2656245759572 L 104.03906252805609 434.16406220797217 L 108.34374963201117 434.06249983992893 L 113.56250009604264 433.9570309119299 L 126.77343744004611 433.75390617595986 L 141.41406208003173 433.65234380797483 L 149.81250048003858 433.5507814399316 L 162.92187545605702 433.34375014394755 L 172.9609379840549 433.2421877759625 L 179.4062499840511 433.1406254079193 L 185.34375014406396 433.0390620159451 L 188.82812518405262 432.8320317439502 L 202.9609379840549 432.8320317439502 L 216.9921873920248 432.7304683519178 L 225.2812503040186 432.7304683519178 L 231.11718707205728 432.93359411193524 L 235.3203128320165 432.52343705593375 L 242.179687424039 432.52343705593375 L 254.05468774406472 432.42187468794873 L 256.8203120640246 432.42187468794873 L 261.02343782404205 432.52343705593375 L 263.78906214406015 432.6289059839328 L 278.1249996800325 432.6289059839328 L 285.39062476804247 432.52343705593375 L 307.5078123520361 432.3203123199637 L 312.9374996480183 432.3203123199637 L 317.1328122880659 432.2187499519205 L 331.3671874560532 432.0117186559364 L 336.9999994880636 431.9101562879514 L 340.07031296001514 431.9101562879514 L 347.1406254080357 431.70703155192314 L 352.0546877440647 431.80859391996637 L 361.57812531205127 431.6054691839381 L 371.5078123520361 431.5000002559391 L 377.8593751040171 431.39843788795406 L 385.1328122880659 431.19531212793663 L 394.0390625280561 430.9882808319526 L 398.8515624960419 430.88671846396755 L 412.2656245760154 430.57812479994027 L 426.60156211204594 430.273437695927 L 441.554688000062 429.9648440319579 L 444.7265628160094 429.9648440319579 L 450.8671877120505 429.7617182719405 L 453.7343754240428 429.8632816639729 L 457.52343756804476 429.7617182719405 L 462.5468753920286 429.6562503679306 L 468.4843745280523 429.7617182719405 L 478.4140625920263 429.7617182719405 L 484.3593748480198 429.6562503679306 L 487.6328120320104 429.5546879999456 L 495.61718784004916 429.5546879999456 L 498.078125056054 429.6562503679306 L 502.3750000640284 429.6562503679306 L 507.2968744960381 429.7617182719405 L 514.562499584048 429.7617182719405 L 523.6796876800363 429.6562503679306 L 527.1562496000552 429.6562503679306 L 546.7187496960396 429.8632816639729 L 557.9843747840496 430.06640639994293 L 571.6015626240405 430.17187532794196 L 577.335937024036 430.17187532794196 L 588.7031255040201 430.06640639994293 L 591.8750003200257 430.06640639994293 L 601.5000002560555 429.9648440319579 L 621.0625003520399 429.9648440319579 L 628.6406246400438 429.8632816639729 L 634.6796871680417 429.8632816639729 L 637.9531253760215 429.7617182719405 L 640.3125002240413 429.8632816639729 L 645.1250001920271 429.8632816639729 L 652.6015621120459 429.7617182719405 L 669.8046873600106 429.5546879999456 L 673.6953128960449 429.6562503679306 L 682.0937502720626 429.6562503679306 L 688.3359375360305 429.5546879999456 L 698.7812495360267 429.35156223992817 L 712.1953126400476 429.35156223992817 L 728.7812495360267 429.24999987194315 L 732.7812495360267 429.35156223992817 L 737.6953128960449 429.35156223992817 L 757.1484375040163 429.24999987194315 L 767.2890624000574 429.1445309439441 L 776.710937600059 428.83984383993084 L 785.6171878400492 428.7382814719458 L 796.9843752960442 428.53125017596176 L 806.5078128640307 428.4296878079185 L 816.2343751680455 428.2226565119345 L 822.1718753280584 428.2226565119345 L 835.7890621440602 428.01953075197525 L 853.8125004800386 427.71093708794797 L 879.5156254720641 427.19921868795063 L 884.9453127680463 427.19921868795063 L 892.3203123200219 426.89453158393735 L 895.79687526403 426.7890626559383 L 901.3281249280553 426.6875002879533 L 918.4296878080349 426.1757808639668 L 924.0624998400453 425.7656248319545 L 927.9531253760215 425.8710937599535 L 932.0468746240367 425.7656248319545 L 936.4531251200242 425.5625000959262 L 944.3359375360305 425.3554687999422 L 955.6015626240405 425.1523440639721 L 963.6874997760169 424.84375039994484 L 982.4296878080349 424.33203097595833 L 988.6718750720611 424.1289062399301 L 992.0546877440647 424.02734387194505 L 998.812499968044 423.820312575961 L 1023.2890624000574 423.30859417596366 L 1024.0 423.29467840407597" fill="none"/></svg>