<svg xmlns="http://www.w3.org/2000/svg" width="1024" height="1024"><rect stroke="none" x="0" y="0" width="1024" height="1024" fill="white"/><path stroke="#408040" stroke-width="3" d="M 1024.0 110.22659996669245 L 1019.8118399999948 113.29535999999644 L 1014.3846400000039 116.26496000000043 L 1006.3462399999989 116.6643200000035 L 983.2243199999939 116.4800000000032 L 963.9833599999984 118.33344000000216 L 956.3852800000022 122.73664000000281 L 947.2204800000036 130.80576000000292 L 941.6601599999995 136.0998400000026 L 939.130879999997 141.6704000000027 L 934.4204800000007 158.08512000000337 L 924.3955200000055 193.06496000000334 L 921.0163199999952 197.9904000000024 L 914.8415999999997 203.02848000000085 L 899.7171200000012 215.18336000000272 L 861.6345600000059 245.9033599999966 L 850.1043199999986 256.2560000000012 L 836.6796800000011 271.03231999999844 L 827.2179199999955 281.41567999999825 L 818.636799999993 296.00768000000244 L 806.348800000007 319.27296000000206 L 805.6217599999945 324.5977599999969 L 806.6969600000011 329.0726399999985 L 808.878079999995 337.66399999999703 L 806.4102399999974 348.20096000000194 L 801.7407999999996 362.45504000000074 L 783.2883200000069 386.8364799999981 L 765.4195199999958 409.4054400000023 L 743.9667199999967 434.6675200000027 L 734.4640000000072 445.2966400000005 L 726.5791999999929 458.1171200000026 L 714.3833600000071 466.4934399999984 L 707.4611200000072 470.7635200000004 L 703.764479999998 476.1088000000018 L 695.9820800000016 493.8240000000005 L 692.2342400000052 507.7401600000012 L 675.5635199999961 534.3641599999974 L 657.735679999998 557.137920000001 L 598.4870400000073 632.1561599999986 L 570.0403200000001 664.0844799999977 L 563.1692800000019 669.1532799999986 L 558.755839999998 670.8223999999973 L 550.7584000000061 671.4572800000024 L 542.9759999999951 668.1088000000018 L 534.9785600000032 668.8972799999974 L 530.319359999994 673.7305600000036 L 529.8790399999998 679.7823999999964 L 530.7289599999931 695.6339200000002 L 534.4665600000008 701.9417600000015 L 543.7951999999932 710.0006399999984 L 550.6560000000027 713.349119999999 L 557.3017600000021 720.6195200000002 L 561.0905599999969 727.0809599999993 L 560.6502400000027 736.0102400000033 L 563.1692800000019 742.7379199999996 L 563.4355199999991 755.1283200000034 L 563.7119999999995 763.1564799999978 L 581.8675199999998 776.7756799999988 L 598.0160000000033 789.4220799999966 L 602.4089600000007 792.6476800000019 L 603.8732799999998 797.1942399999971 L 600.8934399999998 810.1888000000035 L 596.9817599999951 819.0566400000025 L 591.5750399999961 826.3884800000014 L 578.8262399999949 835.7990399999981 L 562.5856000000058 846.8684799999974 L 544.8601599999965 860.3443199999965 L 520.9088000000047 879.9334400000007 L 513.1571200000035 883.5993600000002 L 496.5887999999977 884.2444800000012 L 471.2140800000052 884.0601600000009 L 443.12575999999535 883.9782399999967 L 383.0271999999968 885.7804800000013 L 335.68768000000273 885.9443200000023 L 325.9699200000032 888.6476800000019 L 310.6918399999995 899.3996800000023 L 304.8755200000014 900.9254399999991 L 290.0275200000033 900.9049599999998 L 260.7820800000045 900.3929599999974 L 244.17280000000028 901.3248000000021 L 226.57024000000092 901.2838399999964 L 184.12544000000344 900.8127999999997 L 170.51648000000569 899.9731200000024 L 158.16704000000027 903.4649599999975 L 143.74911999999313 904.0076800000024 L 134.07232000000658 900.8742399999974 L 98.31424000000698 900.0755199999985 L 93.51167999999598 900.2598399999988 L 90.03007999999681 898.4883199999967 L 84.91008000000147 893.7062399999995 L 80.43520000000717 892.2419200000004 L 75.73503999999957 890.4396800000031 L 68.21888000000035 890.9004799999966 L 59.5251200000057 891.5455999999976 L 51.814400000002934 888.7808000000005 L 44.80000000000291 886.48704 L 38.911999999996624 892.2111999999979 L 28.856320000006235 901.7651199999964 L 21.411840000000666 908.0729599999977 L 15.267840000000433 921.702400000002 L 13.250560000000405 926.0544000000009 L 8.755199999999604 929.6281600000002 L 3.184640000006766 937.2569599999988 L 1.7920000000012806 944.7935999999972 L 0.0 950.8135050847559" fill="none"/><path stroke="#408040" stroke-width="3" d="M 23.255040000003646 881.2646400000012 L 23.224319999993895 881.2851200000005 L 23.214080000005197 881.4694400000008 L 23.193599999998696 881.8073599999989 L 22.9580799999967 881.8073599999989 L 22.9785600000032 881.2339199999988 L 22.98880000000645 881.0905599999969 L 22.98880000000645 880.9779199999975 L 22.609920000002603 880.9676800000016 L 22.179839999997057 880.9779199999975 L 21.463040000002366 880.9881600000008 L 20.06015999999363 880.9881600000008 L 19.834879999994882 880.9983999999968 L 19.476479999997537 880.9983999999968 L 19.36384000000544 880.9779199999975 L 18.882559999998193 880.9676800000016 L 18.595839999994496 880.9676800000016 L 17.561600000000908 880.9881600000008 L 16.803839999993215 880.9983999999968 L 15.48287999999593 881.0393600000025 L 15.022079999995185 881.0495999999985 L 14.63296000000264 881.0700799999977 L 14.049280000006547 881.0803200000009 L 13.680640000005951 881.0495999999985 L 13.312000000005355 881.00864 L 13.137919999993755 880.9779199999975 L 12.625920000005863 880.8447999999989 L 12.03200000000652 880.6502400000027 L 11.335680000003777 880.363519999999 L 10.762239999996382 880.1689600000027 L 10.434559999994235 880.0972800000018 L 10.10688000000664 880.0563200000033 L 9.758719999997993 880.0256000000008 L 8.837119999996503 880.0153599999976 L 5.744640000004438 880.0563200000033 L 1.8841600000014296 880.0972800000018 L 0.0 880.1173242553195" fill="none"/><path stroke="#408040" stroke-width="3" d="M 94.65855999999621 887.1935999999987 L 91.22815999999875 887.1833600000027 L 89.56927999999607 887.1833600000027 L 89.48735999999917 887.1833600000027 L 89.49760000000242 887.2755200000029 L 89.46688000000722 887.7568000000028 L 89.46688000000722 889.159679999997 L 88.37119999999413 889.149440000001 L 86.9785600000032 889.159679999997 L 86.26175999999396 889.149440000001 L 86.25152000000526 889.5180800000016 L 86.25152000000526 890.6240000000034 L 86.23103999999876 892.856319999999 L 86.21056000000681 892.9996800000008 L 86.20032000000356 893.4400000000023 L 86.21056000000681 893.7267199999987 L 86.14912000000186 893.7881599999964 L 86.01600000000326 893.8598399999973 L 85.90335999999661 893.8905599999998 L 85.84192000000621 893.8905599999998 L 85.75999999999476 893.8700800000006 L 85.60640000000421 893.7676799999972 L 85.41184000000067 893.6448000000019 L 85.22752000000037 893.5423999999985 L 84.75647999999637 893.3068799999965 L 84.17280000000028 893.0611199999985 L 83.82464000000618 892.9382400000031 L 83.17952000000514 892.7539200000028 L 83.05663999999524 892.7334400000036 L 82.8825599999982 892.7948800000013 L 82.7801599999948 892.7641599999988 L 82.4524800000072 892.6822400000019 L 81.715200000006 892.5286399999968 L 79.92320000000473 892.129280000001 L 78.92991999999504 891.8323200000013 L 78.49984000000404 891.6684800000003 L 77.9673599999951 891.4432000000015 L 76.80000000000291 890.9004799999966 L 76.04223999999522 890.5523200000025 L 75.40735999999742 890.3270399999965 L 74.87488000000303 890.1836800000019 L 74.55744000000414 890.122239999997 L 73.71775999999954 889.9993600000016 L 73.19551999999385 889.9788800000024 L 72.71424000000115 889.9788800000024 L 72.08960000000661 890.0198400000008 L 71.73119999999471 890.0710400000025 L 71.37279999999737 890.1427200000035 L 70.54335999999603 890.3270399999965 L 67.14367999999376 891.1564799999978 L 65.49503999999433 891.5558400000009 L 64.235520000002 891.8323200000013 L 63.95904000000155 891.8425599999973 L 63.569919999994454 891.893759999999 L 62.720000000001164 891.9551999999967 L 61.94176000000152 891.9449600000007 L 61.624320000002626 891.9244800000015 L 60.733439999996335 891.8220799999981 L 60.03711999999359 891.6787200000035 L 59.24864000000525 891.4534399999975 L 56.55551999999443 890.5011200000008 L 52.736000000004424 889.1187199999986 L 50.2783999999956 888.2176000000036 L 49.39776000000711 887.9104000000007 L 48.50688000000082 887.623679999997 L 47.53407999999763 887.367680000003 L 45.08672000000661 886.7430400000012 L 41.91232000000309 885.9238400000031 L 41.1033599999937 885.7190400000036 L 39.679999999993015 885.4118400000007 L 38.57408000000578 885.2377600000036 L 37.71391999999469 885.1456000000035 L 36.904959999999846 885.0944000000018 L 35.368960000007064 885.0739200000025 L 32.76799999999639 885.0841599999985 L 29.583360000004177 885.1046399999977 L 28.211200000005192 885.125119999997 L 27.678719999996247 885.1353600000002 L 27.43296000000555 885.0432000000001 L 26.40896000000066 885.0227200000008 L 25.69216000000597 885.0534400000033 L 25.159679999997024 885.0944000000018 L 24.63744000000588 885.125119999997 L 24.483840000000782 885.0841599999985 L 24.422399999995832 885.0329599999968 L 24.309760000003735 884.869120000003 L 24.248319999998785 884.7667199999996 L 23.80800000000454 884.7667199999996 L 23.234559999997145 884.7769600000029 L 23.060480000000098 884.7871999999988 L 23.050239999996847 884.5311999999976 L 23.0297600000049 884.3571200000006 L 23.009279999998398 884.2956800000029 L 22.96831999999995 884.2444800000012 L 22.9785600000032 883.9782399999967 L 22.9785600000032 883.7222400000028 L 22.9785600000032 883.4457600000023 L 22.9580799999967 883.0463999999993 L 22.9580799999967 881.8073599999989 L 23.193599999998696 881.8073599999989 L 23.203840000001946 881.663999999997 L 23.214080000005197 881.3568000000014 L 23.224319999993895 881.2851200000005 L 23.255040000003646 881.2646400000012" fill="none"/><path stroke="#408040" stroke-width="3" d="M 137.8918399999966 884.7257600000012 L 139.12063999999373 884.705280000002 L 140.14463999999862 884.6950399999987 L 141.81376000000455 884.705280000002 L 144.85503999999491 884.6950399999987 L 148.50048000000243 884.6745599999995 L 153.28256000000692 884.6643200000035 L 156.1907199999987 884.6540800000002 L 156.98944000000483 884.643839999997 L 157.35808000000543 884.643839999997 L 157.36831999999413 884.7564799999964 L 157.36831999999413 884.9407999999967 L 157.35808000000543 885.1967999999979 L 157.34784000000218 886.96832 L 157.33759999999893 889.3235199999981 L 157.30688000000373 892.0473599999968 L 157.29664000000048 892.1600000000035 L 157.39904000000388 892.1600000000035 L 158.52543999999762 892.1600000000035 L 160.7679999999964 892.1497600000002 L 163.26656000000366 892.129280000001 L 164.1574399999954 892.1190399999978 L 164.72063999999955 892.0780799999993 L 165.32480000000214 892.0268799999976 L 166.02112000000488 892.0166400000016 L 166.90175999999337 891.9551999999967 L 168.0896000000066 891.883520000003 L 169.3900799999974 891.8323200000013 L 170.11711999999534 891.8015999999989 L 170.69056000000273 891.8323200000013 L 171.43808000000718 891.8630399999965 L 172.11392000000342 891.9244800000015 L 172.7795199999964 892.0268799999976 L 173.4655999999959 892.1497600000002 L 174.1721600000019 892.2623999999996 L 175.69792000000598 892.5286399999968 L 177.65376000000106 892.8665600000022 L 179.24095999999554 893.1635200000019 L 180.86912000000302 893.4604800000016 L 181.56544000000576 893.5833599999969 L 182.28224000000046 893.6960000000036 L 183.49056000000564 893.911039999999 L 184.39168000000063 894.0748800000001 L 184.60671999999613 894.1158399999986 L 184.66816000000108 894.0851200000034 L 184.68863999999303 894.0646399999969 L 185.32352000000537 894.1772800000035 L 185.79455999999482 894.2592000000004 L 186.04032000000007 894.3001599999989 L 187.9244800000015 894.638079999997 L 190.8940799999982 895.1705599999987 L 191.13984000000346 895.1910399999979 L 191.334400000007 895.2729600000021 L 191.4675200000056 895.3343999999997 L 192.51200000000244 895.5084799999968 L 194.49856000000727 895.8566399999982 L 196.88447999999335 896.2764800000004 L 197.4476799999975 896.3788799999966 L 197.45792000000074 896.5324800000017 L 197.45792000000074 896.9011200000023 L 197.45792000000074 898.4678399999975 L 197.4476799999975 899.9219200000007 L 197.4169600000023 901.1814400000003 L 197.43743999999424 902.0415999999968 L 197.45792000000074 902.1644799999995 L 197.5295999999944 902.2156800000012 L 197.5295999999944 902.359040000003 L 197.5193600000057 902.7481600000028 L 197.5193600000057 902.778879999998 L 197.468160000004 902.840320000003 L 197.45792000000074 902.9017600000006 L 197.45792000000074 903.0553599999985 L 197.42720000000554 904.3046400000021 L 197.42720000000554 904.6630399999995 L 197.43743999999424 905.5436800000025 L 197.42720000000554 906.7929599999989 L 197.42720000000554 907.3459199999998 L 197.48863999999594 907.4380799999999 L 197.4988799999992 907.7043199999971 L 197.4988799999992 908.1855999999971 L 197.5193600000057 908.6873600000035 L 197.5295999999944 909.8956800000014 L 197.5193600000057 911.0016000000032 L 197.5193600000057 913.4284800000023 L 197.48863999999594 914.7699199999988 L 197.90847999999824 914.7699199999988" fill="none"/><path stroke="#408040" stroke-width="3" d="M 94.67904000000271 887.1935999999987 L 94.67904000000271 886.251519999998 L 94.70975999999791 885.6268800000034 L 94.73024000000441 885.4527999999991 L 94.72000000000116 884.9612800000032 L 94.72000000000116 883.6505600000019 L 94.70975999999791 883.4867200000008 L 94.96576000000641 883.4867200000008 L 95.6825600000011 883.4867200000008 L 96.69632000000274 883.4867200000008 L 102.53311999999278 883.5276799999992 L 104.01791999999841 883.5379200000025 L 104.9702399999951 883.5788800000009 L 105.6768000000011 883.6198399999994 L 108.13439999999537 883.7324799999988 L 109.4143999999942 883.7939199999964 L 109.4143999999942 882.8313599999965 L 109.4143999999942 882.7801600000021 L 109.4348800000007 882.7801600000021 L 109.4655999999959 882.7801600000021 L 109.5167999999976 882.7596800000028 L 109.55775999999605 882.7289600000004 L 109.5884800000058 882.6982399999979 L 109.8035200000013 882.6777599999987 L 112.45567999999912 882.6777599999987 L 112.60928000000422 882.6777599999987 L 112.60928000000422 882.9132800000007 L 112.61951999999292 883.1078399999969 L 112.63999999999942 883.6198399999994 L 112.65024000000267 884.387840000003 L 112.69120000000112 884.5619200000001 L 112.82431999999972 884.7667199999996 L 112.88576000000467 884.7462400000004 L 112.99839999999676 884.7155199999979 L 113.55135999999766 884.705280000002 L 116.87936000000627 884.7155199999979 L 118.68159999999625 884.7155199999979 L 119.2652800000069 884.7359999999971 L 119.4496000000072 884.7359999999971 L 120.49408000000403 884.7257600000012 L 121.31328000000212 884.7257600000012 L 122.67519999999786 884.705280000002 L 124.86655999999493 884.6950399999987 L 127.17055999999866 884.705280000002 L 127.8361600000062 884.7155199999979 L 129.0752000000066 884.7155199999979 L 131.4918400000024 884.7257600000012 L 133.00736000000325 884.7257600000012 L 135.94624000000476 884.7359999999971 L 137.8918399999966 884.7257600000012" fill="none"/><path stroke="#408040" stroke-width="3" d="M 1024.0 115.99846267553949 L 1022.8121600000013 115.85536000000138 L 1012.162559999997 116.44928000000073 L 990.9043200000015 116.54144000000088 L 970.9465599999967 117.21727999999712 L 963.0617599999969 118.52799999999843 L 954.1119999999937 124.72320000000036 L 940.8409600000014 137.31839999999647 L 936.7142400000012 150.12864000000263 L 925.276159999994 190.17728000000352 L 924.0268800000049 193.92511999999988 L 920.3404799999989 198.58432000000175 L 903.5673600000009 212.07039999999688 L 869.8880000000063 239.22688000000198 L 853.5449599999993 252.5798399999985 L 842.465280000004 264.66303999999946 L 830.5971200000058 277.6883200000011 L 822.5280000000057 288.6348799999978 L 808.0486399999936 315.85280000000057 L 806.0211200000049 320.245759999998 L 805.7958400000061 325.82656000000134 L 808.4684799999959 335.2575999999972 L 807.8847999999998 343.4495999999999 L 803.3177600000054 358.4716800000024 L 797.6140799999994 368.2406400000036 L 787.1999999999971 381.9008000000031 L 770.0889599999937 403.49695999999676 L 747.6326399999962 430.6227199999994 L 738.5395200000057 440.72959999999875 L 733.255680000002 446.6073600000018 L 728.8524800000014 453.8367999999973 L 725.9545599999983 458.9465599999967 L 719.4931199999992 463.39072000000306 L 706.6726400000043 471.4803200000024 L 697.6204799999978 488.1203200000018 L 693.5654400000058 503.0297599999976 L 691.732480000006 508.8665600000022 L 687.7798400000029 515.2767999999996 L 678.8607999999949 529.5411200000017 L 660.8588799999998 553.1545600000027 L 635.2793600000005 585.8406400000022 L 606.218240000002 622.3871999999974 L 573.0406400000065 661.8214399999997 L 565.8521599999949 666.8185599999997 L 562.380799999999 669.6140799999994 L 557.6601599999995 671.0681600000025 L 548.9254400000063 670.8838400000022 L 540.9075199999934 667.7913600000029 L 533.9033599999966 669.4911999999968 L 529.9609599999967 675.0412799999976 L 529.9814400000032 690.0121599999984 L 531.3945600000006 697.3542400000006 L 536.2892799999972 703.6927999999971 L 544.8089599999948 710.7583999999988 L 552.2739200000069 714.5267200000017 L 559.3600000000006 723.2102400000003 L 561.2748799999972 728.4326399999991 L 560.8652799999982 737.6793600000019 L 563.3536000000022 743.7209599999987 L 562.851840000003 760.0435199999993 L 564.2137599999987 763.9859199999992 L 567.7465599999996 767.0169600000008 L 575.9795199999935 771.4713600000032 L 594.1862399999955 786.5651199999993 L 602.8492799999949 792.5555200000017 L 613.6115200000058 797.4092799999999 L 626.851840000003 807.6287999999986 L 659.0156799999968 832.0102400000033 L 670.6073599999945 841.748480000002 L 679.1884799999971 851.6915200000003 L 685.9980800000048 859.5763200000001 L 695.1116800000018 873.0112000000008 L 701.2351999999955 882.9542399999991 L 712.5503999999928 891.3100800000029 L 714.0761599999969 894.7712000000029 L 714.1171199999953 899.0412799999976 L 713.6870400000043 912.8857599999974 L 727.2755199999956 913.0803200000009" fill="none"/><path stroke="#408040" stroke-width="3" d="M 727.2755199999956 913.0803200000009 L 717.322239999994 913.0700799999977 L 716.4313600000023 913.0700799999977 L 715.9910399999935 913.0700799999977 L 715.8886400000047 913.0188800000033 L 715.5712000000058 913.00864 L 715.3766400000022 912.9983999999968 L 714.8646399999998 912.9267200000031 L 714.6905600000027 912.9062399999966 L 714.6803199999995 912.8140799999965 L 714.6700799999962 912.7526399999988 L 714.6496000000043 912.353280000003 L 714.5472000000009 911.1244799999986 L 714.4550400000007 910.2335999999996 L 714.4243200000055 909.6908800000019 L 714.4345599999942 908.5132799999992 L 714.2912000000069 908.2982399999964 L 714.3014399999956 908.0422400000025 L 714.3116799999989 907.4688000000024 L 714.3219200000021 906.5472000000009 L 714.3423999999941 905.2569599999988 L 714.3526399999973 904.3046400000021 L 714.3833600000071 901.7548800000004 L 714.403839999999 899.9526400000032 L 714.4140800000023 899.215360000002 L 714.4140800000023 898.4678399999975 L 714.4345599999942 896.9625599999999 L 714.4345599999942 895.7337600000028 L 714.4243200000055 895.354879999999 L 714.3731200000038 894.9350399999967 L 714.2195199999987 894.0953599999993 L 714.0864000000001 893.6243200000026 L 713.9020799999998 893.091840000001 L 713.6665599999978 892.5798399999985 L 713.2979199999972 891.9040000000023 L 712.8166400000046 891.2179200000028 L 712.2739200000069 890.5728000000017 L 711.6595200000011 889.9788800000024 L 710.9222399999999 889.3747199999998 L 709.4476799999975 888.4019199999966 L 708.587520000001 887.8387199999997 L 705.3004800000053 885.6985599999971 L 703.8156799999997 884.7257600000012 L 703.3651200000022 884.4288000000015 L 702.9043200000015 884.0908800000034 L 702.5868800000026 883.8246399999989 L 702.156799999997 883.4355199999991 L 701.685759999993 882.9440000000031 L 701.3683199999941 882.5753600000025 L 701.3888000000006 882.4422399999967 L 701.2659200000053 882.2579199999964 L 700.8972800000047 881.663999999997 L 700.7436799999996 881.3875199999966 L 700.3443200000038 880.6604799999986 L 699.3203199999989 878.8172800000029 L 698.941439999995 878.1619199999986 L 698.7468800000061 877.793279999998 L 698.4601600000024 877.4041599999982 L 698.2758400000021 877.209600000002 L 697.886719999995 876.9126400000023 L 697.6614399999962 876.7795199999964 L 697.3235200000054 876.6259199999986 L 696.9753599999967 876.5030400000032 L 696.4326399999991 876.4006399999998 L 696.0639999999985 876.3801600000006 L 695.7670400000061 876.3903999999966 L 695.3881600000022 876.4415999999983 L 695.1116800000018 876.5030400000032 L 694.7020800000028 876.6259199999986 L 694.3539199999941 876.8000000000029 L 694.1081600000034 876.9433599999975 L 693.7599999999948 877.209600000002 L 693.534719999996 877.4553599999999 L 693.2172799999971 877.9161600000007 L 692.5823999999993 878.8070399999997 L 692.0191999999952 879.6160000000018 L 691.4150400000071 880.4044799999974 L 691.2102400000003 880.6502400000027 L 691.2102400000003 880.8243199999997 L 691.0566399999952 880.9881600000008 L 690.8928000000014 881.1724800000011 L 690.6265600000042 881.4694400000008 L 689.9916800000065 882.135040000001 L 689.500159999996 882.6572799999994 L 689.1827199999971 882.9542399999991 L 688.7424000000028 883.3228799999997 L 688.2713599999988 883.6710400000011 L 687.7491199999931 883.9987200000032 L 687.1859200000035 884.3161600000021 L 686.7148799999995 884.5516799999968 L 686.0800000000017 884.8486399999965 L 685.4143999999942 885.114880000001 L 684.738559999998 885.360639999999 L 684.0217600000033 885.5654399999985 L 683.2639999999956 885.7497599999988 L 682.8134399999981 885.8419199999989 L 682.3935999999958 885.9033599999966 L 681.6051199999929 886.00576 L 680.7142400000012 886.0774400000009 L 680.4889600000024 886.0774400000009 L 679.485440000004 886.0774400000009 L 678.7993600000045 886.0467199999985 L 675.8195200000046 885.8828799999974 L 673.546239999996 885.760000000002 L 672.6860799999995 885.7395200000028 L 671.4163200000039 885.7395200000028 L 670.0134399999952 885.770239999998 L 669.1737600000051 885.8214399999997 L 668.3033600000053 885.8931200000006 L 667.0745599999937 886.0467199999985 L 666.0608000000066 886.1696000000011 L 665.2415999999939 886.251519999998 L 664.5247999999992 886.2822400000005 L 663.9308799999999 886.2924799999964 L 662.6918399999995 886.251519999998 L 662.0569600000017 886.1900800000003 L 661.2787200000021 886.0979200000002 L 660.2854400000069 885.9135999999999 L 659.3024000000005 885.6780799999979 L 657.1315199999954 885.0739200000025 L 656.0051200000016 884.7974400000021 L 655.1756800000003 884.633600000001 L 654.284799999994 884.5107199999984 L 653.2403199999972 884.4083200000023 L 652.5337600000057 884.3673599999966 L 651.837440000003 884.3468799999973 L 650.9772800000064 884.3673599999966 L 650.2604799999972 884.398079999999 L 649.287679999994 884.4595199999967 L 647.3727999999974 884.5926400000026 L 645.9084799999982 884.6643200000035 L 644.2495999999956 884.705280000002 L 641.6383999999962 884.7257600000012 L 634.9209600000031 884.7769600000029 L 629.5244799999928 884.8179200000013 L 626.4934400000056 884.8281599999973 L 623.2678400000004 884.7564799999964 L 619.601920000001 884.6643200000035 L 616.212480000002 884.5721600000034 L 611.3484800000006 884.4595199999967 L 605.0304000000033 884.3059199999989 L 602.5625600000058 884.2444800000012 L 599.4598399999959 884.1830400000035 L 594.4524800000072 884.1728000000003 L 586.3116799999989 884.162559999997 L 582.307839999994 884.2137599999987 L 580.1881600000052 884.234239999998 L 577.1673600000067 884.2444800000012 L 574.6073599999945 884.234239999998 L 571.1667199999938 884.224000000002 L 564.3571200000006 884.2137599999987 L 556.7488000000012 884.1932799999995 L 555.4688000000024 884.162559999997 L 553.2160000000003 884.152320000001 L 551.1270400000067 884.0908800000034 L 548.3417599999957 884.0294399999984 L 545.4745600000024 883.9987200000032 L 539.1052800000034 884.0499199999977 L 533.5244799999928 884.1318400000018 L 528.7116799999931 884.162559999997 L 521.7177599999995 884.1932799999995 L 514.3859200000006 884.2137599999987 L 503.5929599999945 884.2444800000012 L 499.281919999994 884.2547199999972 L 495.58527999999933 884.234239999998 L 486.8095999999932 884.1728000000003 L 481.62815999999293 884.1420799999978 L 470.4051199999958 884.0499199999977 L 466.145279999997 884.0192000000025 L 463.7183999999979 883.9987200000032 L 461.13791999999376 883.9987200000032 L 456.2739200000069 884.0396800000017 L 453.42720000000554 884.0601600000009 L 452.23936000000685 884.0499199999977 L 451.03104000000167 884.0192000000025 L 447.8463999999949 883.9270400000023 L 446.69951999999466 883.9167999999991 L 444.85632000000624 883.9270400000023 L 442.62399999999616 883.98848 L 440.2176000000036 884.1318400000018 L 439.52128000000084 884.1830400000035 L 437.59616000000096 884.3366400000014 L 437.02271999999357 884.3775999999998 L 435.92703999999503 884.4492800000007 L 433.95071999999345 884.5721600000034 L 429.50655999999435 884.8281599999973 L 426.0147200000065 884.9510399999999 L 424.44800000000396 885.0022400000016 L 423.2294399999955 885.0739200000025 L 420.99712 885.2275200000004 L 418.82623999999487 885.3811199999982 L 416.93184000000474 885.4835200000016 L 414.75071999999636 885.5449599999993 L 404.2547199999972 885.6166400000002 L 391.720960000006 885.6985599999971 L 389.11999999999534 885.7190400000036 L 387.389439999999 885.7497599999988 L 386.0070399999968 885.760000000002 L 383.25247999999556 885.7804800000013 L 379.17695999999705 885.7907199999972 L 375.7670400000061 885.7804800000013 L 373.12511999999697 885.8009600000005 L 370.2988800000021 885.8111999999965 L 368.107520000005 885.8111999999965 L 365.82399999999325 885.831680000003 L 364.677119999993 885.8214399999997 L 362.5164800000057 885.8521600000022 L 357.9699200000032 885.9135999999999 L 355.03104000000167 885.9443200000023 L 351.20127999999386 885.9750399999975 L 341.57567999999446 885.9545599999983 L 338.28863999999885 885.9443200000023 L 336.1894400000019 885.9443200000023 L 335.06303999999363 885.9750399999975 L 334.325760000007 886.0262399999992 L 333.42463999999745 886.1388799999986 L 332.57472000000416 886.2617600000012 L 331.6326399999962 886.4460800000015 L 330.53695999999763 886.722560000002 L 329.4719999999943 887.0502399999968 L 328.84735999999975 887.2755200000029 L 328.24319999999716 887.5110399999976 L 327.2294399999955 887.9718399999983 L 326.22591999999713 888.50432 L 325.24288000000524 889.0982399999994 L 323.4611200000072 890.357759999999 L 320.2048000000068 892.6719999999987 L 317.5833600000042 894.5356800000009 L 312.37119999999413 898.252800000002 L 311.05023999999685 899.1846399999995 L 310.12863999999536 899.7068799999979 L 309.5859199999977 899.9628799999991 L 308.8281600000046 900.2598399999988 L 308.3878399999958 900.4032000000007 L 307.7734400000045 900.5772799999977 L 307.1487999999954 900.7001600000003 L 306.4115199999942 900.8127999999997 L 305.4079999999958 900.8947199999966 L 302.4896000000008 901.0278400000025 L 301.34272000000055 901.0380799999984 L 299.3254400000005 901.0175999999992 L 293.6319999999978 900.9356800000023 L 290.6726400000043 900.9152000000031 L 288.1024000000034 900.8947199999966 L 284.375039999999 900.8332799999989 L 277.57567999999446 900.7206399999995 L 275.15903999999864 900.6592000000019 L 268.00127999999677 900.4851199999976 L 266.8646399999998 900.4544000000024 L 264.2022399999987 900.3007999999973 L 263.4137599999958 900.270080000002 L 262.6150400000042 900.280319999998 L 261.0790399999969 900.3622400000022 L 260.3622400000022 900.4544000000024 L 259.71712000000116 900.5465600000025 L 258.9900800000032 900.6796800000011 L 257.2390400000004 901.0688000000009 L 256.35839999999735 901.242879999998 L 255.528959999996 901.3759999999966 L 254.72000000000116 901.4579200000007 L 253.87007999999332 901.5193599999984 L 252.7641600000061 901.5398399999976 L 251.1667199999938 901.4988799999992 L 247.2243199999939 901.3964800000031 L 244.57215999999607 901.3350399999981 L 243.0361600000033 901.3145599999989 L 239.39071999999578 901.2736000000004 L 238.6227199999994 901.2838399999964 L 238.37695999999414 901.2838399999964 L 237.71136000000115 901.2940799999997 L 236.75904000000446 901.3452800000014 L 236.49280000000726 901.3555199999973 L 236.19584000000032 901.3657600000006 L 235.63263999999617 901.3964800000031 L 233.23648000000685 901.4988799999992 L 231.32159999999567 901.5193599999984 L 229.90847999999824 901.4784 L 225.1059200000018 901.1916800000035 L 222.7916799999948 901.0483200000017 L 222.14655999999377 900.99712 L 221.92127999999502 900.9868799999967 L 221.78815999999642 900.8947199999966 L 221.77791999999317 900.8844800000006 L 220.91775999999663 900.7923200000005 L 220.18047999999544 900.7104000000036 L 219.94495999999344 900.6592000000019 L 219.67871999999625 900.5772799999977 L 219.46368000000075 900.4646399999983 L 218.8390400000062 900.0038399999976 L 218.6649599999946 899.9116799999974 L 218.46016000000236 899.870719999999 L 218.30655999999726 899.870719999999 L 218.10176000000502 899.9321599999967 L 217.92767999999342 900.03456 L 217.53856000000087 900.3827200000014 L 217.43615999999747 900.4646399999983 L 217.50784000000567 900.5363199999993 L 217.79455999999482 900.8127999999997 L 217.95840000000317 900.9459199999983 L 218.27584000000206 901.1916800000035 L 218.77760000000126 901.4784 L 219.1872000000003 901.6012800000026 L 219.56608000000415 901.6831999999995 L 219.8220799999981 901.713920000002 L 220.5081599999976 901.713920000002 L 220.89728000000468 901.6729600000035 L 221.27615999999398 901.6934400000027 L 221.60383999999613 901.7344000000012 L 221.84960000000137 901.7856000000029 L 221.70623999999953 902.1440000000002 L 221.61407999999938 902.359040000003 L 221.51167999999598 902.615039999997 L 221.16352000000188 903.5059200000032 L 220.5286400000041 905.1750400000019 L 219.69920000000275 907.3971200000015 L 218.9516799999983 909.3631999999998 L 218.6854400000011 910.0697599999985 L 218.42944000000716 910.7046400000036 L 217.97887999999512 911.7798400000029 L 217.29279999999562 913.5923200000034 L 216.77056000000448 915.0361600000033 L 216.04352000000654 914.851840000003 L 215.5622399999993 914.790399999998 L 214.5075199999992 914.7801600000021 L 212.33663999999408 914.790399999998 L 210.84159999999974 914.7699199999988 L 208.79360000000452 914.7596800000028 L 206.47935999999754 914.7801600000021 L 206.1209600000002 914.7801600000021 L 206.0390400000033 914.7699199999988 L 205.5987199999945 914.7699199999988 L 204.11392000000342 914.7699199999988 L 201.9737599999935 914.7494399999996 L 200.8064000000013 914.7494399999996 L 199.45471999999427 914.7596800000028 L 197.90847999999824 914.7699199999988" fill="none"/></svg>