<svg xmlns="http://www.w3.org/2000/svg" width="1024" height="1024"><rect stroke="none" x="0" y="0" width="1024" height="1024" fill="white"/><path stroke="#000000" stroke-width="2" d="M 534.7803538402513 0.0 L 539.546874880034 1.2148439039592631 L 543.8515630080365 2.035155967925675 L 576.109375488013 2.035155967925675 L 593.2031252480228 1.9335935999406502 L 640.7187496960396 1.9335935999406502 L 645.023437824042 1.8320312319556251 L 705.4375004160102 1.8320312319556251 L 741.4843750400469 1.726562303956598 L 807.7343754240428 1.726562303956598 L 819.5078123520361 1.624999935971573 L 882.179687424039 1.624999935971573 L 894.3671879680478 1.5234375679283403 L 965.9453122560517 1.5234375679283403 L 988.9843752960442 1.4218751999433152 L 1001.6796876800363 1.4218751999433152 L 1023.1842897920287 1.8319697919650935 L 1023.1875000320142 1.8320312319556251 L 1024.0 1.8520107129443204" fill="none"/><path stroke="#000000" stroke-width="2" d="M 1024.0 1.8520107129443204 L 1023.1875000320142 1.8320312319556251 L 1023.1842897920287 1.8319697919650935 L 1001.6796876800363 1.4218751999433152 L 988.9843752960442 1.4218751999433152 L 965.9453122560517 1.5234375679283403 L 894.3671879680478 1.5234375679283403 L 882.179687424039 1.624999935971573 L 819.5078123520361 1.624999935971573 L 807.7343754240428 1.726562303956598 L 741.4843750400469 1.726562303956598 L 705.4375004160102 1.8320312319556251 L 645.023437824042 1.8320312319556251 L 640.7187496960396 1.9335935999406502 L 593.2031252480228 1.9335935999406502 L 576.109375488013 2.035155967925675 L 543.8515630080365 2.035155967925675 L 539.546874880034 1.2148439039592631 L 534.7803538402513 0.0" fill="none"/></svg>