<svg xmlns="http://www.w3.org/2000/svg" width="1024" height="1024"><rect stroke="none" x="0" y="0" width="1024" height="1024" fill="white"/><path stroke="#408040" stroke-width="3" d="M 0.0 191.19541397206194 L 2.846720000001369 188.20096000000194 L 9.000960000004852 183.9513599999991 L 17.899520000006305 179.59936000000016 L 38.08255999999528 169.84064000000217 L 55.64415999999619 161.35167999999976 L 76.99456000000646 151.05023999999685 L 95.9487999999983 141.89568000000145 L 107.11040000000503 136.5196799999976 L 119.83871999999974 129.8943999999974 L 146.07360000000335 113.07007999999769 L 166.26687999999558 100.1267200000002 L 178.4524800000072 92.32383999999729 L 184.87295999999333 88.25856000000203 L 191.45728000000236 85.17631999999867 L 204.8614399999933 79.85151999999653 L 225.136639999997 71.86432000000059 L 249.50784000000567 62.238720000001194 L 268.2777599999972 54.814720000002126 L 288.6860799999995 46.76608000000124 L 294.1542400000035 44.60543999999936 L 299.95007999999507 41.94303999999829 L 302.23360000000685 40.192000000002736 L 304.7219199999963 37.41696000000229 L 307.9372799999983 33.372159999998985 L 318.4947200000024 20.142079999997804 L 321.66912000000593 16.179199999998673 L 324.63872000000265 11.642879999999423 L 326.0006399999984 6.90176000000065 L 327.69023999999627 0.18432000000029802 L 327.73642433207715 0.0" fill="none"/></svg>