<svg xmlns="http://www.w3.org/2000/svg" width="1024" height="1024"><rect stroke="none" x="0" y="0" width="1024" height="1024" fill="white"/><path stroke="#000000" stroke-width="2" d="M 237.9455005841446 0.0 L 237.36718745605322 0.49999974394449964 L 234.9062502400484 1.9335935999406502 L 232.55468748806743 4.390625279920641 L 230.812499968044 7.566406655940227 L 229.48437504004687 11.660155903955456 L 228.76562534406548 15.347656703961547 L 228.8671877120505 17.906249727937393 L 229.1718748160638 20.570312703959644 L 226.0000000000582 26.507812863972504 L 224.3593748480198 30.70703103992855 L 223.546874880034 37.261718527937774 L 224.97656217601616 42.58593791996827 L 226.51562496001134 45.14453094394412 L 228.76562534406548 47.19531212793663 L 232.4531251200242 50.164062207972165 L 236.85156249604188 53.44140595191857 L 240.5390622720588 57.23046911996789 L 243.10156288003782 60.710937599942554 L 244.42968780803494 63.06640588794835 L 246.17187532805838 63.988281343947165 L 248.11718758405186 64.29296844796045 L 249.65625036804704 67.16015615995275 L 248.11718758405186 71.4609377279412 L 246.58593792002648 74.84375039994484 L 242.99999948806362 77.71093708794797 L 239.51562547206413 78.83593727997504 L 235.7265623040148 79.14453094394412 L 231.32812492805533 78.83593727997504 L 227.6406251520384 78.01562521595042 L 224.05468774406472 76.99218739196658 L 219.445312512049 75.55859353597043 L 215.55468800006201 73.71484364796197 L 211.56250009604264 71.4609377279412 L 208.49218764802208 69.10937497596024 L 205.3124997120467 65.93359359994065 L 202.0390625280561 62.34765619196696 L 197.7343754240428 58.76562534394907 L 193.33593702403596 56.61328076792415 L 189.03124992002267 54.87499980797293 L 183.19531212805305 54.363281407917384 L 179.20312524802284 54.66796851193067 L 175.21093734406168 56.4101560319541 L 172.24218726402614 58.558594047965016 L 169.6796876800363 60.60937523195753 L 165.78906214406015 64.39843737595947 L 163.2265625600121 67.87890585593414 L 160.7734374400461 70.9492183039547 L 159.33593702403596 74.2265620479593 L 158.4140625920263 79.03906201594509 L 158.10937548801303 90.71484415995656 L 154.3203123200219 101.3632808959228 L 151.0468751360313 105.56250009592623 L 147.46093772805762 109.86328166397288 L 144.49218764802208 112.42187468794873 L 141.82812467205804 113.85546854394488 L 137.83593779202783 116.10937548795482 L 134.35156275203917 118.0546877439483 L 128.10156236804323 121.640625151922 L 113.97656268801074 128.39843737595947 L 108.64843776001362 129.011719167931 L 104.75781222403748 128.4999997439445 L 102.19531264004763 127.88671897596214 L 99.32812492805533 126.8593745919643 L 94.31250022404129 124.81249996792758 L 91.85937510401709 123.58593740797369 L 88.57812480005668 120.61328076792415 L 86.12499968003249 118.46484377596062 L 82.84375040006125 116.4179691519239 L 79.7734379520407 114.06249983992893 L 76.80468787206337 112.01171865593642 L 74.24218726402614 109.96484403195791 L 73.6328120320104 105.87109375995351 L 74.4453120000544 103.20703078393126 L 75.06250035203993 101.05468723195372 L 77.62499993602978 98.5976565759629 L 80.49218764802208 96.96093798393849 L 82.84375040006125 94.19531263993122 L 84.78906265605474 92.45312511996599 L 89.19531212805305 87.23046911996789 L 92.78124953602673 85.08203110395698 L 101.99218790401937 76.89062502392335 L 103.73437542404281 72.89453158393735 L 103.73437542404281 70.2343751679291 L 103.11718707205728 68.18749951996142 L 101.99218790401937 64.4999997439445 L 98.10156236804323 58.86718771193409 L 95.64843724801904 56.10156236792682 L 93.18750003201421 52.51953151996713 L 90.93749964801827 48.320312319963705 L 89.29687449603807 45.5546879999456 L 88.07031296001514 42.789062655938324 L 86.42968780803494 39.515625471947715 L 84.38281216006726 35.21484390395926 L 82.12499968003249 32.242187263967935 L 77.82812467205804 26.613280767924152 L 75.16406272002496 23.027343359950464 L 73.21875046403147 20.26171903993236 L 71.89062451204518 17.906249727937393 L 68.92187545605702 13.503905791963916 L 65.33593702403596 10.226562047959305 L 60.7265628160676 7.4609377279412 L 56.83593728003325 5.925781503960025 L 53.046875136031304 4.800781311932951 L 50.179687424039 4.1874995199614204 L 46.28906291205203 4.1874995199614204 L 40.96093798405491 5.312499711930286 L 36.04687462403672 6.644531199941412 L 32.97656217601616 7.25781299197115 L 30.007812096038833 7.4609377279412 L 26.117187584051862 7.769531391968485 L 21.710937088064384 7.0546872319537215 L 18.843750400061253 5.109374975960236 L 18.023437312047463 2.7539066879544407 L 17.828337923652725 0.0" fill="none"/><path stroke="#000000" stroke-width="2" d="M 17.828337923652725 0.0 L 18.023437312047463 2.7539066879544407 L 18.843750400061253 5.109374975960236 L 21.710937088064384 7.0546872319537215 L 26.117187584051862 7.769531391968485 L 30.007812096038833 7.4609377279412 L 32.97656217601616 7.25781299197115 L 36.04687462403672 6.644531199941412 L 40.96093798405491 5.312499711930286 L 46.28906291205203 4.1874995199614204 L 50.179687424039 4.1874995199614204 L 53.046875136031304 4.800781311932951 L 56.83593728003325 5.925781503960025 L 60.7265628160676 7.4609377279412 L 65.33593702403596 10.226562047959305 L 68.92187545605702 13.503905791963916 L 71.89062451204518 17.906249727937393 L 73.21875046403147 20.26171903993236 L 75.16406272002496 23.027343359950464 L 77.82812467205804 26.613280767924152 L 82.12499968003249 32.242187263967935 L 84.38281216006726 35.21484390395926 L 86.42968780803494 39.515625471947715 L 88.07031296001514 42.789062655938324 L 89.29687449603807 45.5546879999456 L 90.93749964801827 48.320312319963705 L 93.18750003201421 52.51953151996713 L 95.64843724801904 56.10156236792682 L 98.10156236804323 58.86718771193409 L 101.99218790401937 64.4999997439445 L 103.11718707205728 68.18749951996142 L 103.73437542404281 70.2343751679291 L 103.73437542404281 72.89453158393735 L 101.99218790401937 76.89062502392335 L 92.78124953602673 85.08203110395698 L 89.19531212805305 87.23046911996789 L 84.78906265605474 92.45312511996599 L 82.84375040006125 94.19531263993122 L 80.49218764802208 96.96093798393849 L 77.62499993602978 98.5976565759629 L 75.06250035203993 101.05468723195372 L 74.4453120000544 103.20703078393126 L 73.6328120320104 105.87109375995351 L 74.24218726402614 109.96484403195791 L 76.80468787206337 112.01171865593642 L 79.7734379520407 114.06249983992893 L 82.84375040006125 116.4179691519239 L 86.12499968003249 118.46484377596062 L 88.57812480005668 120.61328076792415 L 91.85937510401709 123.58593740797369 L 94.31250022404129 124.81249996792758 L 99.32812492805533 126.8593745919643 L 102.19531264004763 127.88671897596214 L 104.75781222403748 128.4999997439445 L 108.64843776001362 129.011719167931 L 113.97656268801074 128.39843737595947 L 128.10156236804323 121.640625151922 L 134.35156275203917 118.0546877439483 L 137.83593779202783 116.10937548795482 L 141.82812467205804 113.85546854394488 L 144.49218764802208 112.42187468794873 L 147.46093772805762 109.86328166397288 L 151.0468751360313 105.56250009592623 L 154.3203123200219 101.3632808959228 L 158.10937548801303 90.71484415995656 L 158.4140625920263 79.03906201594509 L 159.33593702403596 74.2265620479593 L 160.7734374400461 70.9492183039547 L 163.2265625600121 67.87890585593414 L 165.78906214406015 64.39843737595947 L 169.6796876800363 60.60937523195753 L 172.24218726402614 58.558594047965016 L 175.21093734406168 56.4101560319541 L 179.20312524802284 54.66796851193067 L 183.19531212805305 54.363281407917384 L 189.03124992002267 54.87499980797293 L 193.33593702403596 56.61328076792415 L 197.7343754240428 58.76562534394907 L 202.0390625280561 62.34765619196696 L 205.3124997120467 65.93359359994065 L 208.49218764802208 69.10937497596024 L 211.56250009604264 71.4609377279412 L 215.55468800006201 73.71484364796197 L 219.445312512049 75.55859353597043 L 224.05468774406472 76.99218739196658 L 227.6406251520384 78.01562521595042 L 231.32812492805533 78.83593727997504 L 235.7265623040148 79.14453094394412 L 239.51562547206413 78.83593727997504 L 242.99999948806362 77.71093708794797 L 246.58593792002648 74.84375039994484 L 248.11718758405186 71.4609377279412 L 249.65625036804704 67.16015615995275 L 248.11718758405186 64.29296844796045 L 246.17187532805838 63.988281343947165 L 244.42968780803494 63.06640588794835 L 243.10156288003782 60.710937599942554 L 240.5390622720588 57.23046911996789 L 236.85156249604188 53.44140595191857 L 232.4531251200242 50.164062207972165 L 228.76562534406548 47.19531212793663 L 226.51562496001134 45.14453094394412 L 224.97656217601616 42.58593791996827 L 223.546874880034 37.261718527937774 L 224.3593748480198 30.70703103992855 L 226.0000000000582 26.507812863972504 L 229.1718748160638 20.570312703959644 L 228.8671877120505 17.906249727937393 L 228.76562534406548 15.347656703961547 L 229.48437504004687 11.660155903955456 L 230.812499968044 7.566406655940227 L 232.55468748806743 4.390625279920641 L 234.9062502400484 1.9335935999406502 L 237.36718745605322 0.49999974394449964 L 237.9455005841446 0.0" fill="none"/></svg>