<svg xmlns="http://www.w3.org/2000/svg" width="1024" height="1024"><rect stroke="none" x="0" y="0" width="1024" height="1024" fill="white"/><path stroke="#408040" stroke-width="3" d="M 397.57710154938104 0.0 L 401.8995200000063 15.820800000001327 L 410.89023999999336 37.10975999999937 L 426.6803199999995 67.77855999999883 L 436.0089600000065 82.87232000000222 L 445.9417600000015 105.76896000000124 L 452.27008000000205 116.91008000000147 L 450.682879999993 126.07488000000012 L 443.8220799999981 140.65664000000106 L 438.5587200000009 146.49343999999837 L 441.6614399999962 153.46687999999995 L 433.60255999999936 164.1267200000002 L 429.86496000000625 174.8787200000006 L 437.69856000000436 195.39968000000226 L 428.8614399999933 200.6732800000027 L 426.1785600000003 207.92319999999745 L 420.88447999999335 213.8521600000022 L 425.328640000007 221.3990399999966 L 425.55392000000575 235.79647999999725 L 413.10207999999693 246.57920000000013 L 395.81695999999647 255.764479999998 L 378.94143999999505 268.65664000000106 L 367.9232000000047 293.05855999999767 L 365.42463999999745 301.32224000000133 L 368.89599999999336 312.67839999999705 L 376.36096000000543 325.16096000000107 L 385.54623999999603 332.1446399999986 L 412.846080000003 346.59328000000096 L 435.37407999999414 348.2111999999979 L 455.9052800000063 354.17087999999785 L 473.8150400000013 361.2262400000036 L 491.4176000000007 383.6313599999994 L 500.9305599999934 401.08032000000094 L 510.51519999999437 428.2777599999972 L 526.6432000000059 458.1478399999978 L 535.5417599999928 483.08224000000337 L 539.8118399999948 503.07072000000335 L 550.8607999999949 523.3254400000005 L 565.4527999999991 548.3315199999997 L 574.7200000000012 564.9715199999991 L 583.2908800000005 577.4233600000007 L 586.2707200000004 583.2089600000036 L 596.1830400000035 584.4684800000032 L 606.6687999999995 583.249920000002 L 614.8812800000014 586.9158400000015 L 630.6918399999995 595.1488000000027 L 634.8902399999934 603.7401600000012 L 631.8387199999997 611.2665599999964 L 637.1020799999969 620.3392000000022 L 639.1296000000002 633.6716799999995 L 642.6624000000011 644.9254399999991 L 649.502720000004 653.4758399999992 L 672.2048000000068 672.645120000001 L 689.5308800000057 694.6816000000035 L 699.6377599999978 713.0726399999985 L 708.0550400000066 727.9616000000024 L 730.9823999999935 741.887999999999 L 743.0553599999985 756.224000000002 L 759.6748800000059 770.6009600000034 L 752.8857600000047 779.8988800000006 L 742.2873600000021 788.0908800000034 L 742.9119999999966 802.2425599999988 L 741.1199999999953 810.8032000000021 L 732.1702400000067 827.0438399999985 L 721.5411199999944 843.6428799999994 L 719.4726400000072 857.9072000000015 L 722.0326400000049 865.9046400000007 L 711.3727999999974 868.7923200000005 L 700.0371199999936 872.1920000000027 L 697.3132800000021 880.2304000000004 L 690.2886399999988 897.9865599999976 L 689.4694400000008 908.4415999999983 L 676.5670399999944 918.8147200000021 L 666.828800000003 929.361920000003 L 662.6303999999946 932.7923200000005 L 663.2345599999971 938.0659200000009 L 655.3395199999941 953.0675199999969 L 642.2220800000068 964.7104000000036 L 634.5011200000008 971.5916799999977 L 624.4352000000072 976.2816000000021 L 618.168319999997 986.8799999999974 L 617.6665599999978 998.7174400000004 L 604.4057599999942 1012.4492800000007 L 603.0847999999969 1021.8700800000006 L 600.3629131335183 1024.0" fill="none"/></svg>