<svg xmlns="http://www.w3.org/2000/svg" width="1024" height="1024"><rect stroke="none" x="0" y="0" width="1024" height="1024" fill="white"/><path stroke="#000000" stroke-width="2" d="M 824.9142005760223 871.5663359998725 L 824.4725760000292 871.5663359998725 L 824.1328128000605 871.3554687999422 L 824.164044800098 871.0743726078072 L 824.5411840000888 870.8413439998985 L 825.0882437121472 870.8648181758472 L 825.2958720000461 871.0051840000087 L 825.3281249281717 871.3554687999422 L 824.9142005760223 871.5663359998725" fill="none"/><path stroke="#000000" stroke-width="2" d="M 732.9454080001451 721.5032319998136 L 732.1190400000778 721.5257599998731 L 731.9138703360222 721.3859184639296 L 731.7760000000708 720.8007679998991 L 731.8828124160063 720.6367191039608 L 732.2258585600066 720.5431603198522 L 733.3580810240237 720.7536650238908 L 733.4609377280576 720.8710932480171 L 733.3906790400506 721.2223846399575 L 732.9454080001451 721.5032319998136" fill="none"/><path stroke="#000000" stroke-width="2" d="M 652.6562498560525 607.9492188158329 L 652.0703129600151 608.0898437119322 L 651.7606400000514 607.880191999895 L 651.726650368073 607.5750768639264 L 651.8621839361149 607.4132469758624 L 652.3437496320112 607.2734371838742 L 652.6208071680157 607.0617702400195 L 653.1041280000936 606.9667839999893 L 653.4492160000955 607.0845439998666 L 653.4140620800899 607.457031167869 L 652.968750080152 607.6914063359727 L 652.6562498560525 607.9492188158329" fill="none"/><path stroke="#000000" stroke-width="2" d="M 660.3816079360549 604.2425948158489 L 659.9611975681037 604.2968412158662 L 659.7578127360903 604.1796874238062 L 659.7201920001535 603.8292479999363 L 659.8592583680293 603.2426751998719 L 659.9956480000401 603.1032319999067 L 660.3059200000716 603.0561279999674 L 661.3046876160079 603.406770175905 L 661.3046876160079 603.73437542381 L 661.0625003520981 603.9921879038448 L 660.6858240000438 604.203007999924 L 660.3816079360549 604.2425948158489" fill="none"/><path stroke="#000000" stroke-width="2" d="M 674.2099476480507 563.7383874558145 L 673.554688000062 563.8085939199082 L 673.1093749760184 563.6210933758412 L 673.1093749760184 563.175781375845 L 673.3490176000632 562.9902499838499 L 673.9333120000083 563.0597119999584 L 674.2784000000102 563.3177599998307 L 674.348032000009 563.527679999941 L 674.2099476480507 563.7383874558145" fill="none"/><path stroke="#000000" stroke-width="2" d="M 670.3881881600828 552.4117350399611 L 670.3749969920609 552.4140165118151 L 670.3390720001189 551.7352959999116 L 669.786112000118 551.501823999919 L 668.6484858880285 551.1744491519057 L 668.6812160001718 550.3078399999067 L 668.4765624320717 550.0039065598394 L 668.5081600000267 549.4896639998769 L 668.7498240000568 549.3022719998262 L 669.26694400009 549.1148799999501 L 670.7507200000691 549.1609599999501 L 671.234048000013 549.301247999887 L 672.0624998401036 550.027343871945 L 672.2343751680455 550.8945315839374 L 672.1328128001769 551.1953121278202 L 671.648437248019 551.7343754239264 L 670.7875840000343 552.3435519998893 L 670.3881881600828 552.4117350399611" fill="none"/><path stroke="#000000" stroke-width="2" d="M 669.0252800001763 548.2250239998102 L 668.7169802240678 548.2260418558726 L 667.9213680640678 547.9918428160017 L 667.4062499841093 547.6406251518638 L 667.2998400001088 547.4068479999551 L 667.4058967040619 547.0558238719241 L 667.8169600000838 547.0791679999675 L 668.7109376001754 547.4296872958657 L 669.1250001920853 547.804687359836 L 669.2654551040614 548.109006847837 L 669.0252800001763 548.2250239998102" fill="none"/><path stroke="#000000" stroke-width="2" d="M 522.5859379200265 334.21484339190647 L 521.5156254720641 334.6601564158336 L 520.9999994880636 334.5690101759392 L 520.9999994880636 334.3593748479034 L 522.5859379200265 333.914062847849 L 522.7265628160094 334.007812095806 L 522.5859379200265 334.21484339190647" fill="none"/><path stroke="#000000" stroke-width="2" d="M 522.6240000000107 333.116415999888 L 522.3818434560671 333.16341657587327 L 522.2430720000411 333.0703359998879 L 522.281249792024 332.8593745918479 L 524.3197440000367 331.61830399982864 L 525.220424704079 331.61830399982864 L 525.3589534721104 331.711386623967 L 525.1171870721155 331.96874956792453 L 524.0780800000648 332.3668479999178 L 523.8671872000559 332.57812479982385 L 522.6240000000107 333.116415999888" fill="none"/><path stroke="#000000" stroke-width="2" d="M 531.7656248320127 330.56249958387343 L 532.0448000000324 330.7960319998092 L 531.9761920000892 331.31110399984755 L 531.7345280001173 331.84972799988464 L 531.2491520000622 332.1538559999317 L 531.1796879360336 332.76171878381865 L 530.7265628160094 332.925780991849 L 530.0377600000356 333.0437119998969 L 530.0377600000356 333.4410239998251 L 529.4140620800899 333.5585935359122 L 529.4837760000373 334.05030399985844 L 529.3803520001238 334.21414399996866 L 529.0332753920811 334.4478679038584 L 528.5836800000397 334.5653759998968 L 527.579136000073 334.5182719998411 L 527.3689896960277 334.61247999983607 L 526.4363520001061 334.61247999983607 L 524.7733760001138 335.1050239998149 L 523.5949578240397 335.52691199997207 L 523.2148480000324 335.52691199997207 L 523.2499998721178 335.3632808959228 L 524.8081920000841 334.6606080000056 L 525.0156247040723 334.47265587199945 L 525.049856000056 334.21516799984965 L 524.4612485120306 334.07429324794794 L 524.6015621121041 333.65234380797483 L 524.3203123200219 333.62890649581095 L 523.8712320000632 333.7482239998062 L 523.3182412800379 333.7482239998062 L 523.2128000000375 333.65503999992507 L 523.4554880000069 333.3498879999388 L 524.3906252800953 332.67187507188646 L 526.5715200001141 331.5937279999489 L 526.8515624961001 331.28906239994103 L 526.7812495360849 330.49609420791967 L 526.916608000116 330.4007679998758 L 527.4375004160102 329.34765670396155 L 527.6790364160552 329.2541583359125 L 528.0234373121057 329.4179686399293 L 527.9907840000233 329.7218559999019 L 527.8180116480216 330.00197222386487 L 527.4375004160102 330.3281254398753 L 527.3681920000818 330.6106879999279 L 527.644672000024 330.6813439998077 L 528.33792000002 330.51647999999113 L 529.584128000075 330.072063999949 L 530.2109378561145 329.71875020791776 L 531.0078126080916 328.9726566399331 L 531.14265600004 328.5739519998897 L 530.6250004480826 328.22265651187627 L 530.6910720000742 328.0353279998526 L 530.898944000015 327.8714879999752 L 531.5225600000122 327.8714879999752 L 532.4584960001521 328.5493759998353 L 532.2168320000055 329.41567999986 L 531.7656248320127 330.56249958387343" fill="none"/><path stroke="#000000" stroke-width="2" d="M 526.0479365121573 327.8735523839132 L 525.598720000009 327.8970879999106 L 524.6279680000152 327.87455999985104 L 524.5245440001017 327.8039039999712 L 524.562499584048 327.6171878398163 L 525.2885626881034 327.35955251188716 L 526.390625280037 327.3828126718872 L 526.3943680000957 327.5694079998648 L 526.2187499520369 327.640625151922 L 526.0479365121573 327.8735523839132" fill="none"/><path stroke="#000000" stroke-width="2" d="M 528.8202240000828 327.1483985919622 L 528.8202240000828 327.45164799992926 L 528.1269760000287 327.3113599998178 L 527.5719680000329 327.0778879999416 L 527.5390627841116 326.89062502392335 L 528.0234373121057 326.79687475191895 L 528.8202240000828 327.1483985919622" fill="none"/><path stroke="#000000" stroke-width="2" d="M 526.1685258240323 327.0546872319537 L 525.7343754240428 327.0546872319537 L 524.9062502401066 326.9140623358544 L 524.9062502401066 326.727070719935 L 525.4584320001304 326.5402879998437 L 526.359552000009 326.5402879998437 L 526.632812544005 326.93749964796007 L 526.3913410560344 327.0543411198887 L 526.1685258240323 327.0546872319537" fill="none"/><path stroke="#000000" stroke-width="2" d="M 530.1341583360336 327.0064670719439 L 529.9630080000497 327.0297599999467 L 529.1319920641254 326.77288243192015 L 528.890625024098 326.60937523195753 L 528.890625024098 326.4687503358582 L 529.4062499841093 326.4687503358582 L 530.1714565120055 326.6795714558102 L 530.2733015040867 326.8669368318515 L 530.1341583360336 327.0064670719439" fill="none"/><path stroke="#000000" stroke-width="2" d="M 587.7959598080488 310.2428211199003 L 587.6929105920717 310.31236710381927 L 587.2745011200896 310.2891223038896 L 586.9639680000255 310.17267199984053 L 586.9998848001123 309.77461043180665 L 587.1386624000152 309.68099635187536 L 587.624858624069 309.63673087989446 L 588.0000000001164 309.89062451187056 L 587.8984376320732 310.17187532794196 L 587.7959598080488 310.2428211199003" fill="none"/><path stroke="#000000" stroke-width="2" d="M 593.1724666880327 292.9981450238847 L 592.8253440000699 293.0216959999525 L 591.648437248019 292.76171878387686 L 591.4388480000198 292.646911999851 L 591.7511680000462 292.2024959998089 L 591.3359370240942 292.1093754879548 L 590.9882880000514 291.827711999882 L 590.9921873920248 291.6406251518638 L 591.1265280000516 291.5942399998894 L 591.1961600000504 291.4303999999538 L 591.9242240000167 291.12627199990675 L 592.583680000098 291.0330880000256 L 592.9646080000675 291.05663999996614 L 593.4499840000062 291.33721599989804 L 593.8281246721162 291.80468735989416 L 593.8281246721162 292.1562501118169 L 593.310720000125 292.55372799996985 L 593.1724666880327 292.9981450238847" fill="none"/><path stroke="#000000" stroke-width="2" d="M 561.818624000065 259.84307199995965 L 561.6479057920515 259.84307199995965 L 561.335937024036 259.44531251187436 L 561.3671874561114 259.25781299191294 L 562.0937502721208 259.2343746558763 L 562.0937502721208 259.67968767980346 L 561.818624000065 259.84307199995965" fill="none"/><path stroke="#000000" stroke-width="2" d="M 537.4609377280576 257.53124966390897 L 536.562499584048 257.6484372479026 L 536.04049510404 257.3913303039735 L 536.078125056054 257.1835934718838 L 536.3515627520392 256.902343679918 L 537.0808320000069 256.71577599982265 L 537.3583360000048 256.78336000000127 L 537.6017080320744 257.063543807948 L 537.6368640000583 257.34451199986506 L 537.4609377280576 257.53124966390897" fill="none"/><path stroke="#000000" stroke-width="2" d="M 538.5234370561084 235.41015654389048 L 538.007812096097 235.48046847985825 L 537.4847733760253 235.20179711992387 L 537.554688000062 234.9687500798027 L 538.4218746880069 234.9687500798027 L 538.6635950080818 235.08312268782174 L 538.5234370561084 235.41015654389048" fill="none"/><path stroke="#000000" stroke-width="2" d="M 506.7714560001041 232.964095999836 L 506.2878812160343 233.0109265918145 L 505.6952320000273 232.61286399990786 L 505.31430400005775 232.49510399997234 L 505.24467200011713 232.28518399986206 L 505.69625600002473 231.91039999981876 L 506.0782080000499 231.84076799987815 L 506.4253440000466 231.9114239998744 L 507.28906240011565 232.51953151990892 L 507.15340800007107 232.77772799989907 L 506.7714560001041 232.964095999836" fill="none"/><path stroke="#000000" stroke-width="2" d="M 507.6328120320686 208.1367183359689 L 507.0390620160615 208.25390591996256 L 504.718749696156 207.5507814398734 L 503.74218752002344 207.08203110384056 L 502.84205568005564 206.96700825588778 L 502.70312550402014 206.8242186238058 L 502.632812544005 206.42968780791853 L 502.7734374401043 206.14843699184712 L 503.18815436802106 205.7966264319257 L 503.74451200006297 205.58643199980725 L 504.6824960000813 205.4461439998122 L 505.1688960000174 205.58745599986287 L 506.79687475203536 206.71093759988435 L 507.7708800000255 207.22585599991726 L 508.01356800011126 207.53100799990352 L 508.0468746240367 207.76562483183807 L 507.6328120320686 208.1367183359689" fill="none"/><path stroke="#000000" stroke-width="2" d="M 501.01657600008184 189.41644799994538 L 500.35609600006137 189.4871039999416 L 500.113408000092 189.41644799994538 L 500.18304000003263 188.80819200002588 L 500.5649920000578 188.59724799980177 L 501.0859663360752 188.50410700793145 L 501.1875000320142 189.20703078381484 L 501.01657600008184 189.41644799994538" fill="none"/><path stroke="#000000" stroke-width="2" d="M 500.2566215680563 184.88773631997174 L 500.0468746240367 184.89843711990397 L 499.7345259520225 184.82815897581168 L 499.56250009610085 184.52734361594776 L 499.6015626240405 184.3398440958117 L 499.66406246402767 184.29296844784403 L 500.1535180800711 184.36289126396878 L 500.42968780809315 184.57421823980985 L 500.42968780809315 184.8770641919691 L 500.2566215680563 184.88773631997174" fill="none"/><path stroke="#000000" stroke-width="2" d="M 515.5386142720236 185.38715750380652 L 515.2812503040768 185.4179686398711 L 515.1093749761349 185.30078105593566 L 515.1416320001008 184.6712319998769 L 515.351562240161 183.96874956792453 L 515.7974067200557 183.85196748783346 L 516.3203123200219 184.25000038382132 L 516.3203123200219 184.71874969580676 L 516.1850880000275 185.02143999992404 L 515.8379520000308 185.34911999991164 L 515.5386142720236 185.38715750380652" fill="none"/><path stroke="#000000" stroke-width="2" d="M 500.465664000134 184.10495999990962 L 500.1555712001282 184.10495999990962 L 499.87502796802437 183.89417676784797 L 499.91065600008005 183.4967039998155 L 500.15625011210795 182.93359411199344 L 500.67455897614127 182.6545039358898 L 500.9879040000378 182.91199999983655 L 500.98437529604416 183.63671859184979 L 500.7083520000451 184.05785599985393 L 500.465664000134 184.10495999990962" fill="none"/><path stroke="#000000" stroke-width="2" d="M 473.0558167040581 177.45203199988464 L 472.7439360001008 177.45203199988464 L 471.9790080001112 176.96051199996145 L 471.9800320001086 176.67993599985493 L 472.2917652480537 176.4693882878055 L 472.98437529604416 176.63281254388858 L 473.33478400006425 176.84377599996515 L 473.2968744960963 177.21875046385685 L 473.0558167040581 177.45203199988464" fill="none"/><path stroke="#000000" stroke-width="2" d="M 490.01412915205583 176.37903155188542 L 489.45517977600684 176.42561024002498 L 489.04088780801976 176.19243929581717 L 489.0078126080916 175.88671897590393 L 489.2845793281449 175.374388223805 L 489.6640624640859 175.30468761594966 L 490.1173626881209 175.7943490559701 L 490.1529600000358 176.09932799986564 L 490.01412915205583 176.37903155188542" fill="none"/><path stroke="#000000" stroke-width="2" d="M 475.5606487040641 174.38671871984843 L 475.3515622400446 174.38671871984843 L 474.9374996481347 174.01171865582 L 474.9374996481347 173.63848806393798 L 475.3883463680395 173.61728614394087 L 475.73299200000474 173.91923199989833 L 475.7656248320127 174.24609382392373 L 475.5606487040641 174.38671871984843" fill="none"/><path stroke="#000000" stroke-width="2" d="M 455.85848524805624 174.5236008958891 L 455.47656294400804 174.5937500159489 L 455.26572544005467 174.47661772783613 L 454.921875456057 173.44921907183016 L 455.7187502080342 173.02734335989226 L 456.2392657920136 172.91081011184724 L 456.65624985605245 173.47265638399404 L 456.7255040000309 173.82297599996673 L 456.6220800001174 174.05644799995935 L 455.85848524805624 174.5236008958891" fill="none"/><path stroke="#000000" stroke-width="2" d="M 465.86226176004857 172.457376767823 L 465.5859374080901 172.48828108783346 L 465.2734371840488 172.41796915180748 L 464.9999994880054 172.0468746239785 L 464.5806080000475 171.7176319998107 L 464.5806080000475 171.57764812780079 L 465.7970247680205 171.34389043180272 L 466.42176000005566 171.92957951989956 L 466.42176000005566 172.1395199999679 L 466.1780480000889 172.4200959998998 L 465.86226176004857 172.457376767823" fill="none"/><path stroke="#000000" stroke-width="2" d="M 445.4991155200405 154.90334003185853 L 445.1875000320724 154.9648435198469 L 445.01562470401404 154.94140620791586 L 444.7734374401043 154.6835937278811 L 444.7354880000348 154.3096319999313 L 444.979200000118 153.9819519999437 L 445.46874982403824 153.77343795186607 L 446.02163200004725 153.67782399983844 L 446.15625011210795 153.83984332781984 L 446.0546877440647 154.47265587188303 L 445.7779200000805 154.84825599991018 L 445.4991155200405 154.90334003185853" fill="none"/><path stroke="#000000" stroke-width="2" d="M 448.8743198720622 152.67187507194467 L 448.7343749120482 152.67187507194467 L 448.2119680000469 152.2739199999487 L 448.1423360001063 151.8991359998472 L 448.69836800015764 151.64211199985584 L 448.9374996480183 151.73828095989302 L 449.42848000017693 152.34457599994494 L 449.2187504640315 152.60156211187132 L 448.8743198720622 152.67187507194467" fill="none"/><path stroke="#000000" stroke-width="2" d="M 442.8718868480064 151.665663999971 L 442.6844160000328 151.665663999971 L 442.1640622080304 151.29252249584533 L 442.1640622080304 150.54296883189818 L 442.8203120640246 150.63671910390258 L 443.1328122880659 151.08203110389877 L 443.1011840000865 151.59603199985577 L 442.9999994880636 151.66406246385304 L 442.8718868480064 151.665663999971" fill="none"/><path stroke="#000000" stroke-width="2" d="M 442.45564416004345 149.12484249594854 L 442.2658099200926 149.136707583908 L 442.02393600007053 148.62438399990788 L 442.12736000010045 148.48409599997103 L 442.5781248001731 148.39062527986243 L 442.7186544640572 148.9527439358062 L 442.57917542400537 149.1159613438649 L 442.45564416004345 149.12484249594854" fill="none"/><path stroke="#000000" stroke-width="2" d="M 441.25781299208757 149.3242183678085 L 441.11783321603434 149.3242183678085 L 440.7029760000878 148.97561599989422 L 439.97656268801074 148.57812479982385 L 440.0077946880483 148.1799045118969 L 440.39027609606273 147.9689420799259 L 441.1197440000251 147.8758399998187 L 441.42968729609856 147.94531225593528 L 441.6406251520966 148.15625011193333 L 441.5365120000206 149.20908799994504 L 441.25781299208757 149.3242183678085" fill="none"/><path stroke="#000000" stroke-width="2" d="M 443.9853250560118 144.68158361595124 L 443.76166400004877 144.69324799987953 L 443.48448972805636 144.60051660786849 L 443.517952000082 144.31846400001086 L 443.82812467211625 144.20312473591184 L 444.52343705605017 144.2265620478429 L 444.6996480000089 144.36556799989194 L 444.52423372812336 144.55383859202266 L 444.21093785605626 144.66796851187246 L 443.9853250560118 144.68158361595124" fill="none"/><path stroke="#000000" stroke-width="2" d="M 446.38508646411356 144.08872857596725 L 445.7109370880062 144.36328140780097 L 445.4297600000282 144.3420159999514 L 445.29152000002796 144.27238399983617 L 445.29049907205626 143.9682488318649 L 446.1640622080304 143.66406246385304 L 446.6796871680417 143.66406246385304 L 446.78553600003943 143.7337599999737 L 446.6799902720377 143.96809932781616 L 446.38508646411356 144.08872857596725" fill="none"/><path stroke="#000000" stroke-width="2" d="M 397.2968744961545 131.76562483183807 L 397.15624960005516 131.81250047980575 L 396.9147340800264 131.78912665584357 L 396.3281254400499 131.3710940159508 L 396.3238400000264 131.18259199999738 L 396.4609372160048 131.11328153585782 L 397.15624960005516 131.50781235197792 L 397.2968744961545 131.76562483183807" fill="none"/><path stroke="#000000" stroke-width="2" d="M 404.21785600011935 131.1088639998925 L 403.87072000000626 131.13241599983303 L 403.6270080000395 131.03820799983805 L 403.38329600007273 130.75763199990615 L 403.38329600007273 130.4535039998591 L 403.93824563204544 130.24297062400728 L 404.25000038411235 130.57031270395964 L 404.21785600011935 131.1088639998925" fill="none"/><path stroke="#000000" stroke-width="2" d="M 395.80160000006435 130.62041599984514 L 395.5607664640411 130.64378777594538 L 395.4544640000677 130.59788799996022 L 396.0094720000634 129.70803199982038 L 396.3576320001157 129.68447999987984 L 396.39062528003706 129.8710937598953 L 395.80160000006435 130.62041599984514" fill="none"/><path stroke="#000000" stroke-width="2" d="M 399.3497600000119 126.7445759998518 L 399.001600000076 126.83775999990758 L 398.82752000010805 126.76812799996696 L 398.6186240001116 126.4639999999199 L 398.6186240001116 125.94892799988156 L 398.82804633607157 125.71493171196198 L 399.10891110403463 125.62124799983576 L 399.5217920001014 125.62124799983576 L 399.8003200000385 125.73798399989028 L 399.8351360000088 126.0892159998184 L 399.7317120000953 126.34623999980977 L 399.3497600000119 126.7445759998518" fill="none"/><path stroke="#000000" stroke-width="2" d="M 373.0061281280359 121.39152588782599 L 372.7656253440655 121.41015654394869 L 372.5937950720545 121.3201244159718 L 372.7656253440655 120.59375001589069 L 372.97656217607437 120.45312511996599 L 373.39062476804247 120.38281215989264 L 373.6328120320686 120.45312511996599 L 373.70312499214197 120.8281251838198 L 373.3207040000707 121.36550399987027 L 373.0061281280359 121.39152588782599" fill="none"/><path stroke="#000000" stroke-width="2" d="M 370.3877785600489 119.5673436158686 L 370.2962022401043 119.58571315184236 L 370.08691200008616 119.5151359999436 L 369.8780160000897 119.23455999983707 L 369.844224000175 118.74303999991389 L 370.0879360000836 118.55667199991876 L 370.4374999040738 118.46484377596062 L 370.9573120000423 118.88435199996457 L 370.8515624960419 119.28125030384399 L 370.6406246400438 119.51562547200592 L 370.3877785600489 119.5673436158686" fill="none"/><path stroke="#000000" stroke-width="2" d="M 372.4140625920845 119.79687526397174 L 372.1047736321343 119.82007193600293 L 371.7222400000319 119.63289599987911 L 371.51562547206413 119.02343782380922 L 371.5859374080319 118.51171839988092 L 371.92968704004306 118.34765619185055 L 372.2803916800185 118.37103615998058 L 372.4892160000163 118.5105919999769 L 372.7319040001021 119.02566399984062 L 372.73088000010466 119.63391999993473 L 372.4140625920845 119.79687526397174" fill="none"/><path stroke="#000000" stroke-width="2" d="M 378.05468774412293 116.92187545594061 L 377.8125004800968 116.92187545594061 L 377.39843788801227 116.5937500159489 L 377.15624960011337 116.28906291187741 L 377.187322880025 116.05606297595659 L 377.88281241600635 115.9179683838156 L 377.605120000022 115.5184639999643 L 377.60937472002115 115.09765631996561 L 378.19699200009927 114.74636799993459 L 378.4383139840211 114.74636799993459 L 379.1328122880077 114.98046873597195 L 380.179687424039 115.66015590395546 L 380.3176960001001 115.84716799983289 L 380.2480640001595 116.10419199982425 L 379.65625036804704 116.33593753591413 L 378.60937523201574 116.42968780791853 L 378.05468774412293 116.92187545594061" fill="none"/><path stroke="#000000" stroke-width="2" d="M 377.60937472002115 111.96093747182749 L 376.94560051203007 112.03121971187647 L 376.46093721606303 111.79687526397174 L 376.3558400000911 111.54022399982205 L 376.53030400007265 111.32923494384158 L 377.3306880000746 111.23609599994961 L 377.92153600003803 111.44909619196551 L 377.92153600003803 111.68153599987272 L 377.60937472002115 111.96093747182749" fill="none"/><path stroke="#000000" stroke-width="2" d="M 362.62500044802437 94.75781222386286 L 362.7656253440073 95.48437503998866 L 362.7968747521518 96.18359398387838 L 362.9374996480765 97.28515583986882 L 362.8671877120505 97.44921907183016 L 361.96454400004586 97.79916799993953 L 361.2656250880682 97.79687526385533 L 359.8069760000799 97.47148799995193 L 358.10156236804323 97.56250009592623 L 357.64843724801904 97.44531251193257 L 356.8844800000079 96.86220799991861 L 356.9538467840175 96.58168217592174 L 357.1957483520382 96.464866303897 L 357.64843724801904 96.48828108800808 L 358.450176000013 96.76902399986284 L 358.9374996480765 96.86328115180368 L 359.4609377280576 96.81640652794158 L 359.60156262409873 96.69921894400613 L 359.4946560000535 96.44134399981704 L 359.4250240001129 96.37171199987642 L 357.33811200008495 95.90271999983815 L 356.3984373760759 95.52734412788413 L 356.43749990401557 95.15234406385571 L 356.7820800000918 95.03641599981347 L 358.97656217601616 95.01562470389763 L 359.87500032014214 95.10937497596024 L 360.8872960000299 95.06201599992346 L 361.1015628800378 94.73437491193181 L 361.1277936641127 94.44654387183255 L 362.11718758405186 94.21874995186226 L 362.48883200006094 94.43020799988881 L 362.62500044802437 94.75781222386286" fill="none"/><path stroke="#000000" stroke-width="2" d="M 357.4435840000515 93.91411199991126 L 356.92134400003124 94.07795199984685 L 355.53121382405516 93.843706879823 L 355.3208320000558 93.58540799980983 L 355.3593753600726 93.25781299191294 L 355.7038080000784 93.11743999982718 L 356.0519680000725 93.09491200000048 L 357.026816000056 93.44614399992861 L 357.4435840000515 93.75027199980104 L 357.4435840000515 93.91411199991126" fill="none"/><path stroke="#000000" stroke-width="2" d="M 357.2023449600092 91.3634426878998 L 357.7265623040148 91.50390579196392 L 358.28019200015115 91.48108799994225 L 358.97656217601616 91.71484364796197 L 359.5328921601176 91.71558297582669 L 359.84374988800846 91.85546854382847 L 360.1244160000351 92.32383999985177 L 360.019968000066 92.46412800002145 L 359.3932800000184 92.60441599995829 L 358.5234370561084 92.48437452787766 L 357.68749977613334 92.74218700791243 L 356.15625011204975 92.57812479988206 L 355.77354649611516 92.48440115182893 L 355.4959360000794 92.11187199997948 L 355.60156262409873 91.99609343992779 L 356.15625011204975 91.83203123189742 L 356.75000012805685 91.45703116786899 L 357.2023449600092 91.3634426878998" fill="none"/><path stroke="#000000" stroke-width="2" d="M 323.44387584005017 70.3477247999981 L 322.9545031680609 70.37102796783438 L 322.1249996800907 70.2304686079151 L 321.3906247681589 69.6914063358563 L 321.25132800010033 69.50567628786666 L 321.25132800010033 69.1556802559644 L 321.6328120320104 68.99218739196658 L 322.2265620480175 69.06250035186531 L 323.54816000006394 69.38828799990006 L 323.930293248035 69.59876812796574 L 324.0701890560449 69.85586790391244 L 323.96595200005686 70.1839359998703 L 323.44387584005017 70.3477247999981" fill="none"/><path stroke="#000000" stroke-width="2" d="M 339.87958476808853 64.21918310387991 L 339.3593753600726 64.2890629118192 L 338.9062502400484 64.10156236792682 L 338.69531238405034 63.79687526385533 L 338.0702638080111 63.307347967871465 L 338.033664000046 62.32371199980844 L 338.66222387203015 62.184002559806686 L 339.1139840000542 62.32371199980844 L 339.9453122560517 63.05078169587068 L 340.12364800000796 63.40095999982441 L 340.05401600006735 63.93855999992229 L 339.87958476808853 64.21918310387991" fill="none"/><path stroke="#000000" stroke-width="2" d="M 336.7109376001172 50.39062527992064 L 336.5078128640307 50.41406259185169 L 336.26112000009743 50.27430399984587 L 336.0880640000687 49.5718399999314 L 336.26214400009485 49.19807999994373 L 336.47000166401267 49.05848934390815 L 336.75000012805685 49.035156479803845 L 336.9921873920248 49.246093311870936 L 336.9921873920248 50.13281279988587 L 336.7109376001172 50.39062527992064" fill="none"/><path stroke="#000000" stroke-width="2" d="M 335.9530301440973 44.9817640959518 L 335.88281241600635 45.007812607917 L 335.60156262409873 44.914062335912604 L 335.46240000001853 44.541951999941375 L 334.86950400011847 44.097535999899264 L 334.79987200006144 43.815935999911744 L 335.14843750407454 43.51171891193371 L 335.39124121604254 42.88232550385874 L 335.6354560001055 42.69363199995132 L 336.0546877440065 42.554687487951014 L 336.46875033609103 42.554687487951014 L 337.1694080000161 43.11449599987827 L 337.1694080000161 43.55891199992038 L 336.2265620480757 44.35546828788938 L 336.1239040000364 44.915711999929044 L 335.9530301440973 44.9817640959518" fill="none"/><path stroke="#000000" stroke-width="2" d="M 330.94238412805134 42.74658201588318 L 330.7591680000769 42.76428799983114 L 329.92358400003286 42.31987199996365 L 330.2734376961016 41.75781273585744 L 330.79409254406346 41.66456115193432 L 331.2109373440617 41.85156300786184 L 331.4565120001207 42.085375999857206 L 331.4531246080296 42.53125017601997 L 331.24909670406487 42.71493734390242 L 330.94238412805134 42.74658201588318" fill="none"/><path stroke="#000000" stroke-width="2" d="M 324.10726400010753 33.19398399995407 L 323.58297600003425 33.19398399995407 L 323.20298086403636 33.12489369598916 L 322.8203120640246 32.84375039982842 L 322.85184000001755 32.63283199991565 L 323.65260800003307 32.328703999868594 L 324.0714240000816 32.35225599980913 L 324.55987200001255 32.53964799985988 L 324.87321600009454 32.7731199998525 L 324.87321600009454 32.91340799984755 L 324.7339520000387 33.03014399984386 L 324.10726400010753 33.19398399995407" fill="none"/><path stroke="#000000" stroke-width="2" d="M 278.0290754560265 10.226975743891671 L 277.5390627841116 10.32031231984729 L 277.261312000046 10.13452799996594 L 277.261312000046 9.643007999868132 L 278.16652800003067 8.707071999902837 L 278.7265628160676 7.93359359994065 L 278.6878074880224 7.0231818238971755 L 278.96875008009374 6.789062655821908 L 279.6252026880975 6.648569855839014 L 279.8028800000902 6.76454399980139 L 279.52343756804476 7.39453132788185 L 279.52343756804476 7.722655743942596 L 280.2575360000483 7.910399999818765 L 280.2575360000483 8.190975999925286 L 279.97656268806895 8.589843455934897 L 279.2816640000674 9.05727999994997 L 278.0290754560265 10.226975743891671" fill="none"/><path stroke="#000000" stroke-width="2" d="M 315.0054799360223 5.684050943993498 L 314.9392906240537 5.702622207871173 L 314.65984000003664 5.609471999865491 L 314.65984000003664 5.141503999941051 L 315.00902400002815 4.720639999839477 L 315.5312640000484 4.369407999853138 L 315.9843747840496 4.371093503839802 L 316.33305600006133 4.486143999907654 L 316.40268800011836 4.860928000009153 L 316.29687500809086 5.14062540786108 L 316.01971200003754 5.398527999874204 L 315.0054799360223 5.684050943993498" fill="none"/><path stroke="#000000" stroke-width="2" d="M 314.65624985611066 3.1523440638557076 L 314.38131200009957 3.761151999933645 L 313.9276800000225 4.042751999979373 L 313.5466065920773 4.042751999979373 L 313.05468723201193 3.6445317118195817 L 311.8046873600106 3.4570311679854058 L 310.5781248001149 3.5273441278841347 L 310.1640622080304 3.6445317118195817 L 309.74341427208856 3.621161983930506 L 309.4302720000851 3.433945087948814 L 309.4302720000851 3.0136319999583066 L 309.7109370880062 2.6406246399274096 L 310.4062504961039 2.148436991905328 L 311.3124997120467 2.1015623678686097 L 312.7734374400461 2.2656245758989826 L 313.8203125760774 2.523437055933755 L 314.4843745281687 2.898437119962182 L 314.65624985611066 3.1523440638557076" fill="none"/><path stroke="#000000" stroke-width="2" d="M 1015.3440209181572 1024.0 L 1016.1562501121662 1023.359375359898 L 1017.1875000320142 1022.1171875838772 L 1017.5742259200779 1021.8118768639979 L 1017.631744000013 1021.7666559999925 L 1018.2819840000593 1021.4625279998872 L 1018.5768960000132 1021.3847039998509 L 1018.6260480000637 1019.9910399998189 L 1018.4921876480221 1019.9648440318415 L 1017.4296872960404 1019.4960936958087 L 1016.1640622080886 1018.7695308799157 L 1015.2739041281166 1018.4884285439621 L 1015.0703124480206 1018.3476561918505 L 1015.0390620160615 1017.8789058558177 L 1014.3518720000284 1017.1074559998815 L 1012.8515624960419 1016.2187499519787 L 1011.7529600000125 1015.7250559999375 L 1009.9742720000795 1015.3973759999499 L 1008.9482240000507 1015.490559999831 L 1008.0546877440647 1015.9570309118717 L 1007.648437248019 1016.0039065598394 L 1007.1015628800378 1015.839843327878 L 1006.789062656113 1015.6757811198477 L 1006.4152709121117 1015.605695487815 L 1006.2448640000075 1015.4424319998361 L 1006.1796874240972 1014.832031743892 L 1005.5953121280181 1014.504780799849 L 1005.39084800001 1014.0846079998882 L 1005.2890624000574 1013.5000002559391 L 1005.4607769600698 1012.8443627519882 L 1006.3841280000051 1012.2823679999565 L 1006.5561600000365 1012.00179199985 L 1006.5234370560502 1010.4335933439434 L 1006.5937500160653 1008.7968747518607 L 1005.6355840000906 1007.6252159998985 L 1005.6718745600083 1007.531249663909 L 1005.4307840000256 1007.2739839999122 L 1004.6791680000606 1005.705215999973 L 1003.7217280001496 1004.6289919998962 L 1003.3459200000507 1004.1610239999136 L 1002.9711360000074 1002.7796479998506 L 1002.289062912052 1001.984374783875 L 1001.195312128053 999.8515630078618 L 1001.1596800000989 999.3154559999239 L 1000.9921873920248 998.9179688958684 L 998.9062502401648 996.5781247999403 L 998.1171875841101 995.4062499838765 L 997.8777600001195 994.7269119998673 L 997.1589120000135 993.5800319999107 L 997.0227200000081 993.0885119998129 L 994.5234370560502 992.898437119904 L 994.281249792024 992.8515624958673 L 992.9843752960442 992.8281251839362 L 991.2031252480228 992.6406246398692 L 988.0234373120475 991.9375001600129 L 984.5637120000902 990.9319679998443 L 983.2294400000246 990.7681279999088 L 982.5468753920286 990.8359372798586 L 982.2031247360283 990.6250004479662 L 981.860352000047 990.2059519999893 L 978.1328128000605 988.8710932478425 L 977.343750144064 988.4960942079197 L 974.7752960000071 986.7171839999501 L 974.125056000019 985.9921919998596 L 972.6875002880697 984.6328125438886 L 972.5511680000345 984.4234239999205 L 972.6197760000941 983.7680639998871 L 972.9296875520959 983.4414059518022 L 973.0312499200227 983.1367188478471 L 972.6171873280546 983.0664058879483 L 972.0381440001656 983.1362560000271 L 970.600448000012 982.9959679998574 L 969.4058045441052 982.9959679998574 L 968.992187392083 982.8789063678123 L 968.789062656113 982.6914058239199 L 968.789062656113 982.3203123199637 L 967.79687526403 981.6406251518638 L 967.5192320001661 981.61561599985 L 964.4765624320717 980.5390622719424 L 963.8225920000114 980.1410559999058 L 963.2421877760789 979.9062497278792 L 962.6562498560525 979.4140620799153 L 961.4921871360857 979.7656248319545 L 960.7031255040201 979.8593751040171 L 958.7890626560547 980.3046871038387 L 957.6562503681052 980.9609379839385 L 957.2812503040186 981.3789061119314 L 956.5634560000617 981.8726399998413 L 955.7109370881226 982.0820316158934 L 951.1875000320142 982.3164057599497 L 949.2377600000473 982.1777919998276 L 946.6009600000689 982.2719999999972 L 936.8763985920814 981.4532423678902 L 936.7421870080871 981.4062499839347 L 935.2343746561091 981.3359370238613 L 931.4344960001181 980.8230399999884 L 924.0390625281143 980.5898434558767 L 920.240128000034 980.5690879998729 L 915.0703124480206 980.3359375358559 L 907.5722240000614 980.6909439999727 L 904.8678400000208 980.9725439999602 L 903.0546872320119 981.0429685759591 L 901.8203125760774 981.2773437438882 L 899.0136320000747 981.3503999999375 L 898.9453127680463 981.4414059519186 L 897.3373440000578 981.8193919998012 L 895.8996480000787 982.2883839998976 L 895.3180160000338 982.3590399998939 L 895.2156160001177 982.545407999889 L 894.6875002880115 982.6835937279393 L 893.2968744960963 983.2226559999399 L 884.1881600000197 986.0730880000046 L 883.5703121920233 986.378906623926 L 883.263488000026 986.7765759998001 L 882.1015623681014 986.796874751919 L 879.086592000036 988.0145919998176 L 878.673742848041 988.2956062719459 L 877.6484372480772 988.6679685119307 L 876.2734376961016 989.4179686398129 L 874.0859371520928 990.9843752958695 L 873.3665280000423 992.0378879998461 L 872.5468753920868 992.5039063038421 L 871.3799680001102 994.0029440000071 L 870.2494720000541 996.0386559998151 L 869.9375001600711 997.0703124479624 L 869.7656248321291 998.5195315199089 L 869.4218752000597 999.3164062720025 L 868.9765621760744 1001.1171870718827 L 869.0781245441176 1002.3828121598344 L 869.6616960000829 1004.0422399999225 L 870.0375040000072 1004.8153599998332 L 870.3046871040133 1005.6132812798605 L 870.382812160009 1005.8984376318986 L 870.4430080000893 1006.3646719998214 L 870.4218746880651 1006.8164065279998 L 870.2412800000166 1006.9985279998509 L 871.5755520000239 1007.6927999998443 L 872.015625216125 1008.2070312959258 L 872.3593748480198 1008.7460935679264 L 872.632812544005 1009.7304688639124 L 872.7343749120482 1009.7773434879491 L 872.771584000031 1009.9404799998738 L 873.8281246721162 1012.2109378558816 L 873.7578127360321 1013.1210936318384 L 873.6562503681052 1013.3828126719454 L 873.6562503681052 1013.8007807999966 L 873.8969600001001 1014.1061119998922 L 873.9993600000162 1014.644735999871 L 874.7857920000679 1015.721983999887 L 876.0504320000182 1016.4244479998015 L 876.1190400000196 1016.6579200000269 L 877.0078126080916 1017.0820311038988 L 877.554688000062 1017.1992186878342 L 877.7943040000391 1017.5252479999326 L 878.4765624320135 1018.0156252159504 L 878.7500001281733 1018.6484377600136 L 879.2968744960381 1019.0703124479041 L 879.6718745600665 1019.6093747199047 L 880.254976000113 1020.0770559998928 L 880.3203123200219 1020.4296878078603 L 881.2810240000254 1021.1543039998505 L 881.8278400001 1021.855743999884 L 881.9978240000783 1022.3482879998628 L 882.1002240000525 1022.3943679998629 L 882.2712320000282 1022.7455999998492 L 882.8515624960419 1023.5898439679295 L 882.9891630682687 1024.0" fill="none"/><path stroke="#000000" stroke-width="2" d="M 850.6259291662136 1024.0 L 850.3603200001526 1004.5061119999154 L 850.156250112108 1003.3359370239777 L 850.0879360000836 1001.0654719999293 L 849.9169280000497 1000.5739520000061 L 849.7499996160623 996.8749998078565 L 849.4062499840511 994.1835939838202 L 849.2359680000809 988.4979199999943 L 849.339392000169 987.3745919998037 L 849.3056000000215 985.4320639998768 L 849.1015628800378 983.7695313919103 L 848.9646080000093 983.2785919999587 L 848.4531251200824 978.3164057598333 L 848.3840000000782 976.7966719998512 L 848.078125056054 974.7148441599566 L 848.043008000066 973.3560319998651 L 847.906249728112 972.9335941119352 L 847.8046873600688 969.3554687999422 L 847.7031249920256 969.0039060478448 L 847.6718745600083 967.9960934399278 L 847.2265625600703 965.3281249278225 L 846.9155840000603 962.871295999852 L 846.7500001281151 957.5820308478433 L 846.3359375360305 956.0390625279397 L 845.9929600000614 953.2764159999206 L 845.9609374720603 950.5859379199683 L 845.6171520000789 948.1041919998243 L 845.4461440001032 947.5891199999605 L 845.3437440000125 947.5184639999061 L 845.1406254080357 946.5820313598379 L 844.9331200001179 944.7106559998938 L 844.6248960000812 942.3462399998098 L 844.2500003841706 940.4726558719412 L 844.1118720000377 938.3208959999611 L 843.6015626240987 935.183593471942 L 843.462656000047 932.7749119998189 L 843.8046873600688 932.4960942078033 L 845.0781245441176 932.1914060799754 L 844.9013760000234 931.8154239999712 L 843.6015626240987 931.1367188480217 L 843.1206400000374 930.3173119998537 L 843.015624704014 928.7695308799739 L 842.5728000000236 926.7138559998712 L 842.4693760001101 926.6206719999318 L 842.1273600001005 923.8118399998639 L 840.4531251200824 916.558594047965 L 839.9375001600711 913.5859374078573 L 839.524352000095 912.85913599981 L 839.1484375040745 911.082031103957 L 839.1484375040745 910.4726558718248 L 838.5638400000171 907.6172799999476 L 837.4333440001355 904.879103999876 L 837.4375004160102 904.7148441598983 L 837.3299200000474 904.6681599998847 L 837.093749760068 903.6835942398757 L 836.8844800000079 900.9704959998489 L 835.7578127360321 896.1992191998288 L 835.6198400000576 894.4312319999444 L 835.6562503681635 892.4179691519239 L 836.0000000000582 889.9375001599547 L 836.4093440001016 888.7439359999844 L 836.8906250241562 888.2070312958094 L 837.0954240001156 888.1203199998126 L 836.812499968044 886.7421870079706 L 836.2734376960434 886.6132807679242 L 835.447005184018 886.5197230079211 L 834.8359372800332 886.1445314559969 L 833.7346560000442 884.7185919999611 L 833.1171870721737 883.4062499839929 L 832.9461760000559 882.4248319998733 L 832.8775680001709 880.6236159998225 L 832.3287040000432 878.8449279998313 L 831.8822400000645 878.049279999861 L 830.7187496960978 876.4335933439434 L 830.4076800001785 875.7319679998327 L 830.2031247360865 875.1718748158892 L 830.0646400001715 875.0305279999739 L 829.828124672058 874.2343751678709 L 829.828124672058 873.7890621439437 L 829.7216000001645 873.6491519999108 L 829.0007040000055 869.1793919999036 L 828.5890560000553 867.9628799998318 L 827.6275200001546 864.4751359999063 L 827.3906247680425 863.1875000318978 L 827.1124480001163 862.4865279998048 L 827.2187504640897 861.7851566079189 L 827.7985280000139 861.1287039999152 L 827.6640624640859 861.011719167931 L 826.6718750721193 860.6132807679242 L 825.9140628480818 858.5781247998821 L 825.7421875201399 857.5468748798594 L 825.8775040001492 856.8463359999005 L 825.1250001920271 853.5234375678119 L 824.9159680000157 852.9612799998722 L 824.8828129280591 852.1406248959247 L 824.7812495360267 852.0703129598987 L 824.3671879680478 850.0351559679839 L 823.5781253121677 847.0625003519235 L 823.4062499840511 845.8242191358004 L 821.9296870400431 840.6523432958638 L 821.2756480000098 839.2253439998603 L 821.0012160000624 837.5644159999792 L 820.3827200001688 834.8733439999633 L 820.210688000021 834.5681919998024 L 819.6956160001573 833.0475519998581 L 818.5312501761364 830.1210941438912 L 818.4934400001075 828.3443199998001 L 818.0807680000435 827.8056959999376 L 817.5656960000051 826.589183999924 L 817.5656960000051 826.2379519999376 L 817.3281249281135 825.7226557439426 L 817.1520000000601 824.3425279998919 L 816.7421870080871 822.5859379199101 L 816.4997120000189 822.001663999923 L 816.4300800000201 821.5101439998252 L 816.0184320000699 820.4339199999231 L 815.2616960001178 816.9943039998179 L 814.3687680000439 815.0517759998911 L 814.4025600001332 813.9284479998751 L 814.7109376001172 813.4140620799153 L 815.5351040000678 812.7580159998033 L 815.4687498240382 812.5468753920286 L 814.4062504961621 812.1953126399312 L 813.648437248019 811.5664066559402 L 813.0625003520399 810.5117183998809 L 812.9239040000248 809.90310399991 L 812.890625024098 809.2265625598375 L 811.5859374080319 805.8320312318392 L 810.3454720000736 802.1575679998496 L 809.9687495680992 800.613280767866 L 808.6261760000489 796.9863679998089 L 807.562500096159 794.7617187839351 L 807.3906247680425 794.0859371519182 L 807.2847360001178 794.0382719998015 L 805.9095040000975 790.6682879998116 L 803.156992000062 784.7720959998551 L 803.054042112024 784.7252080638427 L 802.7443200000562 784.0696319999406 L 802.609375232074 783.9531253759051 L 801.9531253760797 782.61718732788 L 799.8906245120452 776.3710935039562 L 799.784960000019 776.3240959998802 L 799.1328122880077 772.8124999679276 L 799.0260899841669 772.7667619839776 L 798.9921873920248 772.3710935038398 L 798.789062656113 771.9726561279385 L 798.6810880000121 771.0126079999027 L 798.5468753920868 770.7539066879544 L 798.509056000039 770.3572479998693 L 798.3750000640284 769.6328120318358 L 798.4394240000402 768.6799359998549 L 798.2684160000645 768.1986559999059 L 797.3068800001638 765.756415999902 L 796.9628160001012 765.3591039999737 L 796.9296875521541 764.5390622719424 L 796.2050560000353 763.6275199998054 L 796.5156249600113 762.5976565759047 L 796.4456960001262 762.5041919998475 L 795.5859374080319 761.7070315518067 L 794.4843745281105 758.6679685118143 L 794.0014080000692 757.8019839998451 L 793.6249999360298 756.8437503999448 L 793.5191040000063 756.046847999969 L 793.1750400001765 755.5317759999307 L 792.485888000112 753.6138239998254 L 792.2452480000211 753.309695999953 L 792.3515627520974 752.6054686718853 L 791.8665144320694 752.2100408319384 L 791.6595200000447 751.9293440000038 L 791.3515622401028 750.4999997439445 L 790.9374996480183 749.8007807998802 L 790.969344000041 749.7062399999704 L 790.5234370560502 749.0976563199656 L 789.4921871360275 746.7812495358521 L 789.0781245440594 746.1953126399312 L 788.8358256640495 745.6359772158903 L 788.6970880000154 744.6988799998071 L 788.3203123200219 743.9023441918544 L 787.5625000961008 742.7109375999426 L 787.3203128320747 741.7031249918509 L 786.2187499520369 738.9882808320108 L 785.5312496640254 737.7031249919673 L 785.5312496640254 737.3984378878376 L 784.9072640000377 735.6907519999077 L 784.3593748480198 734.5898434559349 L 783.0156247040723 733.1640627198503 L 783.0476800000761 732.7662079998408 L 783.2535040000803 732.6248959999648 L 783.1875000320142 732.2265620479593 L 782.3923200000427 730.9875199998496 L 781.9786240000976 729.8181119998335 L 780.6718750721193 728.1328127999441 L 780.2578124800348 727.3359370239195 L 777.7771520001697 723.8983679998782 L 775.9531253760215 721.8164060158888 L 773.8203125760192 720.109375488013 L 770.0312504320173 717.5585935359704 L 769.8923520000535 717.3498879999388 L 769.4786560000503 717.2095999998273 L 768.8593745920225 716.8359372799168 L 766.6796871680999 715.7578127360321 L 764.3238400000846 714.2604799998808 L 760.7818240000634 712.7142399998265 L 760.3691520001157 712.6435839998303 L 758.6150400001206 712.5022719999542 L 758.3057920000865 712.3855359999579 L 757.203125248081 712.265624575899 L 754.382812160009 711.8203125759028 L 752.289062912052 711.539062783937 L 752.2187499520369 711.4921871359693 L 751.4218752000597 711.562500095868 L 749.9468800000614 711.3983999999473 L 748.4999997441191 711.4218751999433 L 746.2985512960586 711.6543805439142 L 744.64490905602 712.3140597759048 L 744.3712000001105 712.9876479998929 L 743.5781253120513 713.6914063359145 L 743.5786240000161 713.9471359999734 L 743.8888960000477 714.2277119999053 L 744.1249996800325 714.7421870078542 L 744.921088000061 715.2578559998656 L 744.9896960000624 715.5619839999126 L 744.7111208960414 715.6561889279983 L 743.5786240000161 715.6551679999684 L 743.406592000043 715.2578559998656 L 743.2031252480228 714.906250239932 L 742.5468753920286 714.906250239932 L 742.3057920000283 714.8124159999425 L 741.7210880001076 714.3208960000193 L 740.75843584002 714.0860897279344 L 740.6202880000928 713.618431999872 L 740.4140625920263 713.3828126719454 L 740.2109378560563 713.3124997118721 L 739.4140620800317 713.4062499838765 L 738.0781250561122 712.8671877118759 L 737.6281600000802 712.4715519999736 L 737.7343754240428 712.167968767928 L 738.2500003840541 711.8867189759621 L 738.1484369920217 710.9726566398749 L 738.2835200001718 710.7860479998053 L 738.799616000033 710.5054719998734 L 738.799616000033 709.8972159999539 L 738.5937920000288 709.4292479999713 L 737.7343754240428 708.4687503358 L 737.4609377280576 708.2812497919658 L 735.7071360000991 703.8126079998328 L 735.5013120000949 702.9237759999814 L 735.3984378880123 702.8515624958673 L 734.8828160000267 701.5423999999184 L 734.7812495360849 701.4726563838776 L 734.335937536147 699.8828124158317 L 733.8203125760774 698.6640629758476 L 733.5781253121095 698.4531251198496 L 733.5781253121095 698.2421872638515 L 733.2669440000318 697.6337919998914 L 733.0263040001155 697.072639999853 L 732.7890626560547 695.9726561278803 L 732.0647680000402 694.1470719999052 L 731.5156254720059 693.2578129919129 L 730.7581440000795 691.0341119999066 L 730.1734400001005 690.0746239998261 L 730.0024320000084 689.2328959998558 L 728.2821120000444 686.0492799998028 L 728.2500003841124 685.6523438078002 L 728.0414720000117 685.5813119998784 L 727.734375424101 684.6679685118725 L 727.6328120320686 684.5976565758465 L 727.6328120320686 684.4101560320123 L 727.1813120000879 683.6152319999528 L 727.077888000058 683.5681279998971 L 725.8437498880085 680.7851560959243 L 724.6718750720611 678.6992189439479 L 723.6730880000396 676.5475839998107 L 722.7109376001754 674.8632811518619 L 721.6093747200794 673.4101565440069 L 721.6424960001023 673.3178879998159 L 720.8203120640828 671.9609374718275 L 719.6815360001056 670.5797119999188 L 718.2734376961016 669.2460933119874 L 717.3437501440058 668.2148433919647 L 716.8593745921389 667.2773437439464 L 716.8931840000441 666.929151999997 L 715.4472960000858 665.8990079998621 L 714.9999994880054 665.8515630078618 L 710.6263040000922 664.1663999998709 L 709.8359377920278 663.5820308479597 L 709.1107840000186 663.2775679999613 L 706.632812544005 662.6679685119307 L 705.5625000960426 662.2460938238655 L 705.0823680000613 662.177791999944 L 704.0491520000505 662.177791999944 L 701.6386560000828 661.8265599999577 L 700.3648000001558 661.4753279998549 L 699.195312128053 660.984375295986 L 698.468750336091 660.4218746878905 L 697.8828124160063 660.3984373759595 L 696.921875456057 660.6328125438886 L 695.5078123520361 660.6328125438886 L 695.2343746560509 660.5156249598949 L 695.3369600000442 660.2823679998983 L 695.6472320000175 660.1185279999627 L 696.9559040000313 659.9075839999714 L 697.0937497600098 659.4179686398711 L 697.4720000000088 658.8549119998352 L 697.4720000000088 658.2702079998562 L 697.2999680000357 657.8483199998736 L 696.4387840001145 656.5150719998055 L 696.4387840001145 655.5320319999591 L 695.648437248019 653.7304688639706 L 695.5427840001066 653.7072639999096 L 695.26562508801 652.3710935039562 L 694.5468753920868 651.3906247678678 L 693.5101440000581 650.290175999864 L 692.9930240000249 649.0501119998517 L 692.1328128000605 647.5742187518044 L 692.1646080000792 646.7338239999372 L 691.7890621441184 645.0703124479041 L 691.784704000107 642.7084799999138 L 691.648437248019 641.984374783875 L 691.6126720000757 640.2007039999589 L 691.6833280000137 638.5469439999433 L 691.5112960000406 637.8219519999693 L 691.2348160000984 635.3879039999447 L 691.2348160000984 633.1187199999113 L 690.5468753920868 630.0781250558211 L 690.5108480000054 629.49171199993 L 690.2691840000334 628.6960639999597 L 689.9609374721767 628.2031247359118 L 689.8906245121034 627.9687495678081 L 689.6874997760169 627.85156300792 L 689.5104000000283 625.9107839999488 L 688.9246720001101 624.4607999998843 L 688.2344960000482 621.9571199999191 L 688.0276480001048 621.5362559998175 L 687.7890621441184 620.2734376958106 L 687.0272000000114 617.511935999908 L 686.992384000041 617.1371519998065 L 686.8541440000408 617.0429439998697 L 686.4765624320135 615.7109370878898 L 685.546874880034 614.7734374398715 L 684.9239040001412 613.9781119998079 L 684.5788160000811 613.697535999876 L 684.0614092801698 613.5104112639674 L 683.476562944008 612.80859340803 L 682.6813440000406 612.4103679998079 L 681.8906245121034 611.636718591908 L 681.2682240000577 611.4519040000159 L 680.9231360001722 611.1703039999702 L 680.546875392145 610.2812497919658 L 680.0957440001075 609.7438720000209 L 679.4062499841093 609.6484372479026 L 679.1649280000129 609.2287999999244 L 679.1328122880077 608.7617187838769 L 679.4062499841093 608.5039063040167 L 679.648437248019 608.0351559679839 L 679.7499996160623 607.285155839927 L 679.6810240001068 606.9350399998948 L 679.5427840001066 606.7711999999592 L 678.9921873920248 606.4648437759024 L 679.0256640000734 606.1404159998056 L 679.5427840001066 605.5075839998317 L 679.648437248019 605.0156247039558 L 679.0932480000192 603.9869439998874 L 678.0241920000408 602.699775999994 L 677.9921879041358 602.019530751917 L 678.3359375360305 600.9453127678717 L 678.4374999040738 600.1484369919053 L 679.1953121281113 598.0195307518006 L 679.2273920000298 594.6030080000055 L 679.0195200000308 593.7838079998619 L 678.7440640000277 593.1059200000018 L 677.9531253760215 592.0742184958654 L 678.0190720001119 591.6313599998248 L 678.468750336091 591.210937343887 L 678.5703127040179 590.9531248638523 L 678.5703127040179 589.5703121919651 L 678.7421870080871 588.2851563519216 L 678.6723840000341 587.138047999877 L 678.4999997440609 586.6015621118713 L 678.2576640000916 586.3659519998473 L 678.0546877441229 585.4531246079132 L 677.9473920000601 585.4064639999415 L 677.7743360000313 583.8622719998821 L 677.8437498880667 583.4648432639078 L 677.6718745600083 582.8789063678123 L 677.7734379520407 582.6679685118143 L 677.7384960000636 581.4988799998537 L 677.0483200000599 580.2117119999602 L 677.015624704014 579.6757811199641 L 676.6663680000347 578.6675199999008 L 675.9075840000296 577.709055999876 L 675.4938880000846 577.4049279998289 L 674.8037120000808 577.4284799999441 L 674.2187499520369 577.824219135975 L 673.9453122561681 577.8945310719428 L 673.1796879360336 577.8710937598371 L 672.7352320000064 577.803263999871 L 672.4935680000344 577.6158719998202 L 672.492544000037 577.1010447358713 L 672.7343749120482 576.750000127824 L 673.7684480000171 576.3051519999281 L 674.1796874240972 576.3515627518645 L 675.1171870721155 576.6796871679253 L 675.4928640000871 576.6092799998587 L 675.7693440000294 576.3747839998687 L 676.0468746240949 575.7656248318963 L 676.1134080000338 574.7363839998725 L 676.0468746240949 572.6757816319005 L 675.663872000121 572.4200959998998 L 675.1805440000608 572.2074111999827 L 675.1805440000608 571.7882879998651 L 675.8010880000074 571.203583999828 L 675.835937792086 570.453125119966 L 675.5625000961008 569.8007807999384 L 675.2819200000959 569.3777919999557 L 674.9716480000643 569.2139519998454 L 674.0060160001158 569.4248959998367 L 673.5575040000258 569.3788159998367 L 672.5937500160071 569.0507816958125 L 672.453632000077 568.9106626559515 L 672.453632000077 568.4899839998106 L 672.7656253440655 567.7890621438273 L 673.107968000113 567.6933119999012 L 673.9702272000723 567.9970969598508 L 674.3848960000905 568.2780159998802 L 674.8359372800332 568.2539059200208 L 675.2122880000388 567.8571519998368 L 675.6953128961031 566.61718732788 L 675.7980160000152 565.8910719999694 L 675.7656248320127 564.976562175958 L 675.3515622400446 564.1367183359689 L 674.9687500800937 563.4335938558797 L 675.1093749760767 562.1953126399312 L 674.9317120000487 558.3564799999003 L 674.6204160000198 557.7717759999214 L 674.5546874880092 555.4296872958657 L 674.376704000053 554.3086079998757 L 674.2046720000799 553.8631679998944 L 673.963008000108 553.5365120000206 L 673.4448640000774 552.6005759998807 L 672.9615360000171 552.085504000017 L 672.7536640000762 551.5939839998609 L 672.8222720000194 551.1024639999378 L 672.8908779520425 550.1665566718439 L 673.0312499200227 549.3945313278819 L 673.0625003521563 547.804687359836 L 672.6123520000256 545.767423999845 L 672.921875456057 539.7304688640288 L 672.2600960001582 536.102911999973 L 672.4321280000149 535.1434239998925 L 672.6051840000437 534.7225599998492 L 672.3723622401012 533.7063976959907 L 671.9843747841078 531.7265623039566 L 671.8781440000166 531.6802559998468 L 671.5000002561137 530.7929692158359 L 671.1875000320142 529.5273441278841 L 671.081472000049 526.7435519999126 L 670.7734374400461 525.4570311679272 L 670.7343749120482 524.7070310398703 L 670.4609372160048 523.4218751998851 L 670.562499584048 523.2343746558181 L 670.2848000000813 522.5543679998373 L 669.9376640000846 520.6589439999661 L 669.8359377920278 520.5898434558185 L 669.4533365760581 518.7411107839434 L 669.5567360000568 518.2259199998807 L 669.3140480001457 517.3831679999712 L 669.2444160000305 515.5583999998053 L 668.2071040001465 513.1018239998957 L 668.2109378561145 510.03906252788147 L 667.6889600001159 509.21779199992307 L 667.5507200000575 507.9777279999107 L 667.6879360001185 507.06534399994416 L 666.9609379841713 504.65624985587783 L 666.9609379841713 504.2812497918494 L 666.6485749760759 503.57843455980765 L 666.6484377600718 502.29296844790224 L 666.4062504960457 501.7773434879491 L 666.4396800000686 501.66067199985264 L 666.0624998400453 501.1914065918536 L 665.9921879040776 500.2343751678709 L 664.9159680000739 494.66470399982063 L 664.7767040000763 494.33702400000766 L 664.7109376001172 493.4492190719466 L 664.5703127040179 493.12109363195486 L 664.3984373760759 492.25390591996256 L 664.3984373760759 490.94531276781345 L 664.257812480093 490.40625049581286 L 663.7734379520989 489.7968752638553 L 663.4946560000535 488.67430399981095 L 663.0781245440594 485.9140628479072 L 663.1813120000297 485.14150399982464 L 662.7343749121646 484.5117183998227 L 662.5937500160071 483.12890675186645 L 662.109375488013 481.7734379519243 L 662.0712960000383 480.3911679998855 L 661.7968752640882 479.99218790390296 L 661.6249999361462 479.47656294394983 L 661.3124997120467 477.6757811199641 L 660.9296875520959 476.81249996781116 L 660.3750000640284 474.6835937279393 L 660.1994240000495 473.2313599999179 L 659.335937024036 470.093750271888 L 659.0566400000243 469.39443199988455 L 659.089408000058 467.40582399995765 L 659.2614400000311 466.86719999992056 L 659.5390627841116 466.6093752318993 L 659.7109760001185 466.5630719998735 L 660.0226222081692 466.7500933118863 L 660.1605120000313 467.0074879999156 L 660.9218754561734 466.914062336029 L 660.8515624961001 465.9531253759051 L 661.023437824042 465.48437503987225 L 660.8148480000673 464.9246719998191 L 660.8515624961001 463.7304688639706 L 660.640624640102 463.2382812158321 L 660.4328960001003 462.4435199999134 L 660.1564160000416 462.0462079999852 L 659.9843747841078 460.94531276792986 L 659.3281249281135 460.3632814079756 L 659.3593753601308 459.51953100791434 L 658.8437504000613 459.0507816959289 L 658.8057600000757 458.7939839998726 L 658.2187499520951 458.11718758393545 L 657.976562688069 457.3671874558786 L 657.6953128960449 457.3671874558786 L 657.6640624640277 458.2343751678709 L 657.803264000162 459.00492799986387 L 658.2179840001045 459.1923199999146 L 658.5999360000715 460.2920959998155 L 658.5303040000144 460.572671999922 L 658.8426240000408 462.1168639998068 L 659.6015626240987 462.5390622718842 L 659.6015626240987 462.82001919986214 L 659.3966080000391 463.0056959998328 L 659.3593753601308 463.4023434238625 L 659.5696640000679 463.49721599998884 L 660.0540160001256 463.5443199998699 L 660.3281254400499 464.08203161589336 L 660.1562501120497 464.48046899202745 L 660.1236869120621 464.99373363202903 L 659.8819840000942 465.27590399980545 L 659.5020800000057 465.20524799992563 L 657.9140628480818 464.5039063039585 L 656.59801600012 463.54534399992554 L 656.3553280000342 463.2412159998785 L 656.043008000066 461.67347199987853 L 655.8320640000748 458.93529599992326 L 655.1736320000491 456.9702399999951 L 655.2053760000272 453.81119999982184 L 654.5807360000326 451.237887999916 L 654.5797120000352 450.3019519999507 L 654.4063764480525 450.0899993599742 L 653.9218749440624 448.3359375359141 L 653.2290560000692 446.97907199984184 L 652.640624640102 444.9218754558242 L 652.7421870080288 443.16406271990854 L 652.3924480000278 440.0302079998655 L 651.1431680000969 436.1461759999511 L 651.1796879360336 434.83593727991683 L 650.5871360001038 433.4786559998756 L 649.962496000051 431.4193919998943 L 649.6874997760751 430.62500044796616 L 649.6494991360232 430.08077926386613 L 649.6874997760751 429.5468748798012 L 648.9921873920248 427.5820308479015 L 648.8515624961001 427.46484326396603 L 648.8515624961001 427.06640588783193 L 648.4374999040156 425.7812500479631 L 648.0179200000712 423.74553599982755 L 647.7421875200816 423.0898442239268 L 647.635968000046 423.0430719999131 L 647.254016000079 421.52243199996883 L 646.8749998080893 420.11718758381903 L 646.8046878720052 419.25390643189894 L 646.1091840001172 417.68550399987726 L 646.0395520000602 417.3813759998302 L 645.4844825600157 416.30489395192126 L 645.1406254080357 414.85546905582305 L 643.8533120001084 411.93062399997143 L 643.335937024036 410.03515596780926 L 642.8828129281173 409.07421900791815 L 641.3916160000372 407.7895679998328 L 641.4296872960986 407.6953128958703 L 640.8046878720634 406.832031743892 L 640.078125056054 405.61718783987453 L 639.3828126721783 403.11328153597424 L 639.4480640000547 402.45657599985134 L 639.5863040001132 402.33983999985503 L 639.4843750400469 402.03515596780926 L 638.663680000056 400.8181759999716 L 638.3281254400499 400.67578163195867 L 638.088192000112 398.8756479998701 L 637.743104000052 398.1025279999594 L 637.7812500480213 397.19140659197 L 637.3671874560532 395.8554685439449 L 637.33145600016 395.0602239999571 L 637.0549760000431 394.5461760000326 L 636.8133120001294 393.468927999842 L 636.7812495360267 392.76562534394907 L 636.1953126401058 390.63671910384437 L 636.1640622080886 390.16796876781154 L 635.917312000005 389.49068799987435 L 635.9218749440624 388.8828129278263 L 635.6796876800363 388.3203123199055 L 635.5394560000277 387.3146879999549 L 635.159552000172 385.74591999984113 L 634.5390622720588 384.5859379199683 L 634.5400320000481 384.2037759999512 L 634.4396800000104 383.35692799987737 L 634.0935680000111 382.701567999844 L 633.648437248019 382.02343731187284 L 633.3685760000371 380.8051199999172 L 633.370624000032 379.7995519998367 L 632.9559040000313 378.8165119998157 L 632.6118400000269 376.52275199996075 L 632.2343751681619 376.007812095806 L 631.335937024036 375.2343746558763 L 631.335937024036 375.1406254079193 L 630.6093752321322 374.60156211198773 L 630.5720320000546 374.4389119998086 L 630.367187968106 374.3203123199637 L 629.8828124160646 373.3164062719443 L 630.0549120000214 372.3796479998273 L 629.9166720000212 371.51436799991643 L 629.6750080000493 370.92863999982364 L 629.2968744960381 370.53125017590355 L 628.8455680001643 370.2497279998497 L 628.6406246400438 369.5234375678119 L 628.1562501120497 368.7734374399879 L 627.9843747840496 368.6367191039026 L 628.1205760000157 368.1669119998114 L 628.0867840000428 367.4183679998969 L 627.9140628480236 366.92578099190723 L 627.7048320000176 366.73945599992294 L 627.2215040000156 365.4051839999156 L 627.1180800000438 365.3355519998004 L 626.7381760000717 363.93062399997143 L 626.8774400000111 363.5804159999243 L 626.640624640102 362.0117186559364 L 626.2220800000359 360.3978239998105 L 626.188288000063 359.9759359998279 L 625.393664000032 357.68319999985397 L 624.289062912052 356.48828108783346 L 622.6640629760223 355.386719231843 L 622.7998720000614 354.3357439999236 L 623.0425600001472 353.54009599995334 L 623.0087680000579 352.9553919999162 L 622.390625280037 351.011719167931 L 621.4218752001179 348.62500044796616 L 621.2114247680875 348.4613160958979 L 621.1430400000536 348.22758399986196 L 621.0078126080334 348.15625011193333 L 620.4531251200824 346.9179688958102 L 619.0663680001162 344.3896319998894 L 618.8595200001146 343.3594879999291 L 618.5482240000856 342.7983359998907 L 618.5156249600113 342.4921876479639 L 617.7890621441184 341.30078105587745 L 616.7838720000582 340.2700799999293 L 615.5078123520943 338.39843737584306 L 615.1250001920853 337.6718745599501 L 615.1250001920853 337.01562470395584 L 614.2968750080327 335.84765644790605 L 614.1562501120497 335.1445309438859 L 613.5312496640836 334.25390591996256 L 612.4609372160048 332.6640629758476 L 612.390625280037 332.38281215995084 L 611.6640624640277 331.39843788789585 L 611.2133120000944 330.7212799998233 L 609.898437632015 329.5507814398152 L 609.8671872000559 329.38671923201764 L 609.3772800000734 329.2712959998753 L 608.8593745920807 328.9648435198469 L 608.5120000000461 328.19404799991753 L 607.9242240000749 327.1413759999559 L 607.8203125760192 326.4140625918517 L 606.9218754561152 324.753906687838 L 606.8162560000783 324.7073279998731 L 606.4005120000802 323.8410239999066 L 605.5703121920233 322.6953123839339 L 605.4687498240964 322.3203123199637 L 604.9843752960442 321.57031219190685 L 604.53125017602 320.5898434558185 L 604.4999997440609 320.40234393585706 L 603.7688320000307 319.18387200002326 L 603.4921871360857 318.5976565759047 L 603.0781245441176 318.29296844784403 L 602.6640629760223 317.640625151922 L 602.4878080000053 316.82047999982024 L 602.0078120960388 316.21093785593985 L 602.003456000064 315.06534399994416 L 601.2109373440617 312.84375039994484 L 600.8281251841108 311.2265625598957 L 600.8281251841108 310.71484415984014 L 600.4140625921427 308.9335941118188 L 600.759296000062 308.0919039999135 L 600.5862400000333 307.48364799981937 L 600.5546874880674 306.7578122239793 L 600.274944000179 306.3838719999185 L 600.274944000179 305.9394559999346 L 600.1018880000338 305.3311999999569 L 600.0000000000582 305.2851558398688 L 599.7578127360321 304.7929692158359 L 599.7578127360321 303.7656248319545 L 599.9296870401013 303.4570311679854 L 599.6871680000331 303.06099199986784 L 599.0973440000671 302.8735999998171 L 598.7512320000096 302.3124479999533 L 598.6484377600136 301.60937471990474 L 598.4399360000389 301.18911999993725 L 598.4062504961039 300.2773442558246 L 598.1276160000707 299.7852159998147 L 597.7456640001037 299.3633279998321 L 597.5078123520361 298.2890629118192 L 597.9218749441206 297.5625000959262 L 597.8859520000406 296.4858879998792 L 597.9921879040194 295.5937495038379 L 597.8521600000095 295.1280639999313 L 597.195312128053 294.6367191039608 L 596.6735360000748 293.3493759999401 L 596.4308480001055 293.0227199998335 L 595.0105600000825 291.89836799993645 L 594.9062502401066 291.382812671829 L 594.9765621760744 289.3710940158926 L 594.8046878720634 287.7812500479049 L 594.3203123200801 286.3554682878894 L 594.2497280000825 285.51065599982394 L 593.8359377920278 284.6914058238035 L 593.868800000113 283.03052799997386 L 593.7343754241592 282.49218764790567 L 593.6957440000842 281.2989439998637 L 593.1093749760184 279.6835942399339 L 592.5867520000902 277.6719359998824 L 591.7578127361485 275.8710937599535 L 590.9227520001004 273.50630399992224 L 589.015624704014 269.03515647986205 L 588.6015621120459 267.84374988800846 L 585.9297280000756 263.3041919998359 L 585.2734371840488 262.2265620479011 L 583.1208960000076 259.8410239999648 L 582.2187499520369 259.1367188479053 L 581.0042880000547 258.5067519999575 L 579.8594560000347 258.0623359999154 L 578.710937600059 257.75781273585744 L 576.9451520001749 257.4551039998769 L 576.1822720000055 257.0803200000082 L 575.1439360000077 255.8105599998962 L 575.1796879360918 255.6445317118778 L 574.4148480001022 255.43577599996934 L 574.4496640000725 255.71737600001507 L 574.2417920000735 255.78700799995568 L 573.7187502080924 255.6445317118778 L 570.4609372160048 253.2812503039022 L 568.1015623680432 251.38671923190122 L 565.9484160000575 250.54515199986054 L 564.9080320000066 249.8672639998258 L 564.3203123200801 248.95312486385228 L 562.5859379200847 247.36328089580638 L 562.1328128000605 246.56640614388743 L 562.2691840001498 245.25823999987915 L 562.2031247360283 244.60156211187132 L 561.4018560000695 243.0822399999597 L 560.915456000017 242.40332799998578 L 560.4296878080349 241.39453132788185 L 559.1796879360918 240.29687500785803 L 557.203125248081 239.2226559999399 L 556.4016640000627 239.03436799987685 L 555.7422080000979 239.19820799981244 L 554.8046878720052 239.80468735989416 L 554.4227799040382 240.25284403195838 L 553.3124997120467 240.92968755192123 L 552.7578122240957 241.11718707188265 L 550.7812495361432 241.187500031956 L 549.6015626240405 240.9062502399902 L 547.934208000137 239.3866239999188 L 546.8579840000602 238.73228799982462 L 544.9140623360872 237.89062451192876 L 544.14950400003 237.37548799999058 L 543.6640624640859 237.25781299197115 L 543.2812503040768 237.30468761583325 L 542.7578122240375 237.74999961582944 L 540.9925120000262 238.68723199988017 L 539.8437498880085 239.06250035192352 L 539.1185920000426 239.17875199980335 L 537.1744552960154 239.17968793591717 L 534.8515624961583 238.8281251838198 L 532.2813440001337 238.26841599983163 L 531.7601280000526 238.0820479998365 L 531.4843750400469 237.8710937598371 L 531.4843750400469 237.16796825587517 L 532.0017920000246 236.7006719999481 L 532.8005120001617 236.3258879999048 L 534.8126720000291 236.09139199997298 L 535.9923200001358 235.85689599980833 L 538.5267200000235 235.71558399993228 L 538.9076480000513 235.59884799993597 L 539.3940480000456 235.24761600000784 L 540.5781248000567 234.66406297590584 L 541.1328122880077 234.21874995180406 L 541.2343746560509 234.0546877439483 L 541.2343746560509 233.5625000958098 L 541.1276800000342 233.44537599984324 L 541.093749760068 233.187500031956 L 540.7805440000375 232.46335999987787 L 540.5020160000422 232.39270399988163 L 539.8437498880085 232.5078128638561 L 539.3223680001101 232.3701759998221 L 538.9404160000267 231.99539199989522 L 538.9404160000267 231.598079999967 L 539.0468751360313 231.36328089580638 L 538.7343749121064 230.9882808320108 L 537.5508480000426 230.03033599996706 L 537.3071360000758 229.7262079998618 L 537.3437501440058 229.14062540780287 L 537.5498240000452 228.81382399989525 L 537.4843750401051 228.5546874878346 L 536.9609379840549 228.2304686079151 L 536.5078128640307 226.77734399982728 L 534.8382720000809 224.72089599992614 L 533.7265623040148 222.9179688958102 L 532.5468753920286 220.88281292794272 L 532.0234373121057 219.5976560638519 L 531.430400000012 217.4914559998433 L 530.8046909440309 216.578127871966 L 530.7688960000523 215.80697599996347 L 530.3521280000568 215.2222719998099 L 530.3515627520974 214.7773439999437 L 530.5624995841645 214.47265587188303 L 530.3849881600472 213.81871411192697 L 530.7668480000575 213.53779199993005 L 531.1875000320142 212.8593745919643 L 531.1129600000568 212.34380799991777 L 530.9765621761326 212.25000038387952 L 530.0390625280561 212.3203123199055 L 529.8671872001141 212.15625011187512 L 530.2099374081008 211.36169369600248 L 530.382812160009 211.24609331198735 L 530.9374996480183 211.17578137596138 L 531.1119360000594 210.93990400002804 L 531.1484375040745 210.5898434559931 L 530.2743040000787 207.4071039998089 L 530.4473600001074 206.4711679999018 L 530.3118213120615 206.44807577587198 L 529.476562944008 205.0429685759591 L 529.26562508801 204.4609372158302 L 529.1250001920271 202.89062502392335 L 528.5703127040179 202.09765580797102 L 527.627264000068 198.09587199991802 L 527.2109373440617 197.0429685759591 L 527.1050240000477 197.01964799984125 L 527.0353920001071 196.73907199990936 L 526.3400960000581 195.59219199995277 L 526.3437496320112 195.42968729580753 L 526.1328128001769 195.21875046391506 L 525.9921879040194 194.72656281595118 L 525.9921879040194 193.92968703992665 L 525.6796876801527 193.3242183678667 L 525.5731200000737 192.94924799993169 L 525.1205120001105 192.20070399984252 L 525.1205120001105 192.082943999907 L 524.914062336029 191.98828134388896 L 524.2187499520369 190.60937523189932 L 523.5548160000471 189.36934399988968 L 522.9294766080566 188.99577855988173 L 522.7578122240375 188.7382814718294 L 522.7187496960978 187.84765644790605 L 522.5093120000674 187.40428799990332 L 521.6406251520384 186.49218764802208 L 520.8749998080893 185.83593779202783 L 520.7367680001771 185.60409599990817 L 519.797760000045 184.94873599987477 L 518.9296875520959 184.5507809278788 L 516.8124999681022 184.06249983998714 L 516.3919360000291 183.66361599980155 L 516.3212800000911 183.0318079998833 L 516.0427520000376 182.6344959999551 L 515.0699520000489 182.04979199980153 L 514.0624998401036 181.65234380791662 L 510.6524160000845 180.88140799989924 L 510.15065600001253 180.78719999990426 L 509.6755200001062 180.62335999996867 L 508.42187468806515 180.644531199825 L 506.92968755209586 180.3164057598915 L 505.1596800000989 180.31615999987116 L 502.0672000000486 180.6663679999183 L 501.8203125760774 180.75781222392106 L 501.6156160000828 180.87628800002858 L 501.33593702403596 181.48437503981404 L 500.78124953614315 181.5546879999456 L 500.6768168960698 181.6481976318173 L 500.39820697600953 181.62484223989304 L 500.2265620480175 181.50781235197792 L 499.9843747840496 180.87499980791472 L 499.28906240011565 179.77343795186607 L 499.1139840000542 179.65875199984293 L 498.6972160000587 179.58911999990232 L 498.69531238410855 180.03515596786747 L 499.2860160000273 181.03910399985034 L 499.24999987205956 181.43750041595194 L 498.8354560000589 181.81119999988005 L 497.898437632015 182.06640640000114 L 497.09670400008326 181.90540799981682 L 496.9609379841131 181.43750041595194 L 496.68096000002697 181.15583999984665 L 496.15974400012055 180.82815999985905 L 496.02343731204746 180.57031270395964 L 495.9866880000918 180.12671999982558 L 495.6406251520966 179.84374988789205 L 495.46874982403824 179.07421900780173 L 495.18899200001033 178.79244799981825 L 494.946304000041 178.0439039999619 L 493.906249728112 177.71484364802018 L 493.6249999360298 177.7851566079189 L 493.03242240002146 178.29976371192606 L 492.6873600000399 178.2763519998989 L 492.30540800007293 177.90259199991124 L 492.03125043201726 176.89453158399556 L 491.43808000005083 176.21708799991757 L 491.1964160000789 174.76607999991393 L 490.7448320001131 174.06463999993866 L 488.97656217601616 172.8710932478425 L 487.4803200000315 172.214272000012 L 484.45644800004084 171.34796799981268 L 482.2656245760154 170.97265663993312 L 480.1832960000611 170.78476799995406 L 478.93196800001897 170.90150399995036 L 476.6033920000191 170.8779519998352 L 475.24864000006346 170.66700799984392 L 473.8590720000211 170.19903999986127 L 472.8862720000325 170.12838399986504 L 469.8624000000418 170.31475199980196 L 469.2734371840488 170.1279580160044 L 469.2734371840488 169.8710937598371 L 470.28124979214044 168.67578163195867 L 471.1171870721155 166.94531276787166 L 471.3236480000778 166.1501439998974 L 471.3246720000752 165.16710399987642 L 471.08096000010846 164.9807359999395 L 471.08096000010846 164.7697919999482 L 471.7414400000125 164.06835199991474 L 471.91552000003867 163.7171199999866 L 471.8125004800386 162.9218754558242 L 471.01562470407225 161.84374988783384 L 469.900288000179 161.00249600003008 L 466.53125017601997 158.89453158393735 L 465.2779520000913 158.42815999983577 L 463.4716160000535 157.98271999991266 L 462.2899200000684 157.8424319999176 L 460.8281251840526 157.9101562880096 L 459.8203125760774 158.2382817279431 L 459.3346560000209 158.6145279999473 L 459.0919680001098 158.8951039998792 L 459.0919680001098 159.08249599992996 L 458.81268224003725 159.3865216000122 L 458.46874931204366 159.33984767994843 L 458.0859371520928 159.011719167931 L 457.2187504640315 158.54296883183997 L 457.24999987205956 158.21874995197868 L 457.70312499208376 158.007812095806 L 459.02343782410026 157.82031257584458 L 459.57812531205127 157.3281249278225 L 459.8593751040171 156.67187507182825 L 459.9613440000103 155.57222399982857 L 459.23437465605093 154.07421849592356 L 458.4687503360328 153.0468751359731 L 457.0078126080334 151.96874956780812 L 455.9636480000336 151.52537599985953 L 453.49580800003605 151.08095999981742 L 452.76569600001676 150.8464639998856 L 451.7222400001483 150.1911039998522 L 451.51562547206413 149.86328166391468 L 451.5859374081483 149.4179686398129 L 452.0355840000557 148.8578559999587 L 452.21093785611447 148.4140625919681 L 452.34790400008205 147.4775040000095 L 452.21093785611447 147.31249971187208 L 452.24448000005214 145.2779519999167 L 452.070400000026 144.10854399990058 L 451.93113600008655 142.00217599986354 L 451.34375014412217 141.04296857584268 L 451.5859374081483 140.57421823998448 L 451.54918400011957 140.20095999981277 L 450.8203120640246 138.89062502380693 L 450.5078128640889 138.53906227194238 L 449.63635200011777 138.0710399998352 L 448.9062400000985 137.4627839999157 L 448.14028800011147 136.99481599993305 L 446.89062502403976 136.62109388783574 L 445.4609377280576 135.61328127997695 L 444.52454400004353 135.38099199993303 L 443.898437632015 135.49609369580867 L 443.2734371840488 135.8242191359168 L 442.6484377600136 135.7773434879491 L 442.3984373760177 135.8710937598371 L 442.367187968106 136.4101560318377 L 442.16012800007593 136.76134399988223 L 441.49964800005546 137.18220799980918 L 439.8305280000204 137.2528639998054 L 437.6750080000493 136.78489599982277 L 437.25781299208757 136.62109388783574 L 436.492288000125 135.6390399998054 L 436.078125056054 135.378906111815 L 434.9999994880054 135.0078126078588 L 434.47656243207166 134.21093785599805 L 434.1640622080304 133.9062497279374 L 433.71072819206165 133.67431884794496 L 433.53497600002447 132.31615999992937 L 433.36192000005394 131.91884799994295 L 432.8748093441245 131.17078527988633 L 432.70312550402014 130.187499519845 L 432.4567040000111 130.0234239998972 L 432.00307200005045 129.46227199985879 L 430.9944320000941 128.99430399987614 L 429.79687526402995 128.20703129580943 L 428.9453127680463 127.74218751996523 L 426.33593753608875 126.82812518393621 L 424.45926400006283 126.36160000000382 L 423.03385600005277 125.82502399996156 L 421.7109370880062 125.05078169592889 L 420.9111040000571 124.79590399994049 L 417.0468751360313 124.11718758393545 L 415.2109373440617 124.04687462380389 L 414.1640622080304 124.18749951990321 L 413.5390627841698 124.3281254398753 L 412.4921876481385 124.42187468783231 L 412.179687424039 124.56249958393164 L 412.0390625281143 124.82031206396641 L 412.00742400006857 125.21881599986227 L 411.76371200016 125.40620799985481 L 411.2421877760207 125.640625151922 L 410.9291520000552 125.89772800001083 L 410.78906265611295 126.17968742392259 L 410.58406400005333 127.79315199982375 L 410.8046878721216 128.21093785582343 L 410.82470400002785 128.72089599980973 L 410.7187496960396 128.8593745919061 L 410.47656243207166 128.8593745919061 L 410.267518976063 128.81292083201697 L 409.9921879040194 128.52343705593375 L 409.57337600010214 128.20991999993566 L 409.2265625600703 127.8750003198511 L 408.4776960000163 128.20991999993566 L 407.79776000016136 128.65126399986912 L 406.9999994880054 131.17578137584496 L 406.6875002880697 131.5507814398734 L 406.2734376961016 131.5507814398734 L 406.0954716160195 131.45792921585962 L 405.8203125760774 130.66406297602225 L 405.50400000001537 130.2425599998678 L 404.73804800002836 129.72748799982946 L 404.25000038411235 129.7265623038984 L 403.03513600002043 130.1729279999272 L 402.1640622081468 130.61718732782174 L 400.74218700802885 130.89843711984577 L 400.00781209609704 131.15624959988054 L 400.25000038405415 131.62499993591337 L 400.14843699207995 131.78906214394374 L 399.6631040000357 131.9761919999728 L 398.5858560000197 131.9761919999728 L 397.92435200006 131.69561599986628 L 396.7418030080735 130.7843870719662 L 396.60156211210415 130.5039063039585 L 396.63616000005277 130.29273600003216 L 396.88281292811735 130.22265651193447 L 397.15624960005516 130.24609382386552 L 397.46874982409645 130.45703167986358 L 397.8203125760192 130.90234367985977 L 398.3411200000555 130.89996799989603 L 398.4453120000544 130.5507809278206 L 398.6186240001116 130.33881600003224 L 398.8281251840526 129.75390617590165 L 399.0353920000489 129.54316799982917 L 399.8003200000385 129.19193599990103 L 399.8689280000399 129.07519999984652 L 400.11264000012306 128.9574399999692 L 400.80793600017205 128.9574399999692 L 401.2968744961545 128.69921894394793 L 401.1406254080357 128.21093785582343 L 401.08953600010136 127.88838399987435 L 400.32358400011435 127.73502668784931 L 400.32358400011435 127.37535999983083 L 400.8124999681022 127.28125030384399 L 400.8124999681022 127.00000051187817 L 400.67138969607186 126.861986815813 L 400.39219200005755 126.11276799993357 L 400.84375040006125 125.7851566078607 L 400.77414400002453 125.47993599995971 L 401.05468723201193 125.17578137590317 L 400.87756800011266 124.05350399983581 L 400.7034880000865 123.79545599996345 L 400.11161600012565 123.46880000003148 L 400.00781209609704 123.187500031956 L 399.83593779214425 122.88281292782631 L 398.71897600003285 122.22873600001913 L 397.04102502402384 120.93793177587213 L 394.8593745920225 119.62890649586916 L 393.0112000000081 118.74508799990872 L 392.07116800005315 118.1839359998703 L 388.97656217601616 117.17968793580076 L 387.99974400008796 116.54860799986636 L 387.26562508801 116.24218726390973 L 385.9466240000911 116.0110079999431 L 384.9021440000506 115.42630399996415 L 383.75730176002253 114.93711564794648 L 383.4765301760053 114.72650444792816 L 382.64422400004696 113.24006399989594 L 381.9919360000058 112.12799999990966 L 381.43750041601015 111.58984396787127 L 380.6718750721193 111.1914065919118 L 380.14873600006104 111.003647999838 L 379.45339289616095 110.51190886390395 L 379.41862400004175 110.3482879998046 L 379.1406254080357 110.20703129592584 L 378.7265628160676 110.11328102392145 L 378.65624985605245 109.76171827182407 L 378.4453120000544 109.66796902392525 L 377.9584000000614 109.76255999988643 L 376.07833600003505 110.6739200000302 L 375.59193600009894 110.62681599991629 L 375.453124608146 110.55741030391073 L 375.453124608146 110.34765619185055 L 376.2187499520369 109.97265612782212 L 376.812499968044 109.24609331192914 L 376.84375040006125 109.011719167931 L 375.9387822080171 109.011719167931 L 375.7656248320127 108.9179688958684 L 375.0390620160615 109.05859379196772 L 374.79687475203536 108.9179688958684 L 375.21100800001295 108.52147199981846 L 375.3164800000377 108.23987200000556 L 375.8750003200257 107.8671871998813 L 375.90835200005677 107.46879999985686 L 376.60467200004496 107.0479359999299 L 376.78124953608494 106.78906265582191 L 378.07031296007335 105.92578150384361 L 379.1810560001177 105.50476799998432 L 380.64332800003467 104.31180799985304 L 380.7129600001499 103.98515199992107 L 380.33593753608875 103.0039060478448 L 379.5333120000432 101.71494400000665 L 378.5256960000843 100.19327999994857 L 376.96102400001837 98.64806399994995 L 375.88281241606455 97.66406246396946 L 373.7656248321291 96.35156275198096 L 372.3704320000252 95.67436799983261 L 370.6654720000224 95.08863999997266 L 368.37171200005105 94.5039359999937 L 365.96093747211853 96.21093785588164 L 365.15532800002256 96.75673599989386 L 364.60937523207394 96.83593727985863 L 367.5156480000587 94.02675199997611 L 366.179687424039 93.21484390401747 L 365.79649228806375 93.19117619196186 L 365.44819200015627 92.98124799988 L 365.41406208014814 91.6953128958703 L 364.9999994880054 91.01562470383942 L 364.4405760000227 90.85132799990242 L 363.53536000003805 91.0612479999545 L 362.8748800000758 91.03769599983934 L 362.35264000005554 90.85030399996322 L 362.179687424039 90.54687539191218 L 362.25000038411235 89.93750015995465 L 362.5625600000494 89.68089599983068 L 363.1892480000388 89.54060799983563 L 363.9889920001151 89.54060799983563 L 364.5468753920868 89.66015590389725 L 365.38060800003586 90.24307199992472 L 365.7635840000585 90.36083199986024 L 366.45990400010487 90.3372799999197 L 366.914062336029 90.1054689278244 L 367.2265625600703 89.70703155186493 L 368.2734376961016 87.83593779185321 L 368.75980800006073 86.43071999994572 L 369.11001600010786 84.02124799991725 L 368.7290880000219 81.82169599982444 L 368.7656253440655 80.95703142386628 L 368.52343705605017 80.53515673580114 L 367.5494400000316 76.79078399995342 L 367.3763840000611 75.83129599987296 L 365.3984378881287 70.42578124796273 L 364.632812544005 69.83984332799446 L 363.8312960000476 68.646911999851 L 363.7975040000165 68.27212799998233 L 363.07031244802056 66.21484339190647 L 362.5468753920286 65.6054691838799 L 360.98048000002746 64.27136000001337 L 360.3203123200801 63.453124607971404 L 359.90118400001666 62.49267199996393 L 359.51820800011046 62.001151999866124 L 358.5781248000567 61.671874559891876 L 358.5468753920286 61.44140595186036 L 358.75137126405025 61.289438207808416 L 358.64883200009353 60.737535999913234 L 358.0937502721208 59.94140671991045 L 357.42968729609856 59.449219071888365 L 356.73490739200497 59.285281791875605 L 356.70312550402014 58.65624985593604 L 356.386816000042 58.18675199983409 L 354.99520000000484 57.55494399997406 L 354.29888000007486 56.571903999953065 L 353.6406251520966 56.105468927824404 L 352.52326400001766 55.494655999937095 L 352.4921876480221 55.402343423862476 L 351.2350720000686 55.02668799995445 L 349.52908800006844 55.26015999983065 L 348.2757120000315 55.28371199994581 L 347.64843724807724 55.023437823867425 L 346.9531248640269 54.30078156781383 L 346.36083200003486 51.445759999973234 L 345.7734379520989 49.71484364790376 L 345.8048000000417 49.10591999994358 L 346.2578124800348 48.33203097584192 L 346.2265620480175 47.234374655992724 L 345.9453122561099 46.648437759897206 L 345.5969280000427 46.34521599981235 L 343.37499955209205 44.96484352002153 L 340.5824000000139 43.60703999985708 L 340.20312473602826 43.28125030384399 L 340.3046871040715 43.04687513591489 L 341.3515622401028 42.69531238381751 L 341.5937495040125 42.32031231984729 L 341.8368010240374 42.226682880020235 L 342.359374848078 42.29687500791624 L 342.9531248640269 42.226562047959305 L 343.92968704004306 41.75781273585744 L 344.4848640000564 41.31430399988312 L 344.69531238410855 40.94140620797407 L 344.65996800007997 39.88684799982002 L 344.7992320001358 39.27859199990053 L 344.7656253440073 38.835937279858626 L 344.17254400003003 38.36620799987577 L 343.85925836802926 38.01504153595306 L 343.75781273603207 37.429687295807526 L 343.0937497600098 36.60937523195753 L 342.1870080000954 36.026367999846116 L 340.79334400000516 35.60447999986354 L 340.34073600004194 35.55839999986347 L 338.772992000042 35.72121599985985 L 335.88281241600635 36.42187468789052 L 335.25781299202936 36.44531199987978 L 334.5223680000054 36.30694399995264 L 332.64230400009546 35.39455999992788 L 331.8750003200839 34.785156095807906 L 331.0078126080916 33.730468863854185 L 331.0745600000373 32.867327999847475 L 331.49235200008843 32.75059199985117 L 334.3125002240413 33.125000191968866 L 334.8715520001715 33.03116799995769 L 335.1511040000478 32.797695999906864 L 335.36000000004424 32.37580799992429 L 335.5000002560555 31.652343807916623 L 335.9531253760797 30.52734361588955 L 335.9180800000904 30.03699199995026 L 335.5000002560555 29.6367185919662 L 335.32812492811354 29.35937535983976 L 335.1171870720573 28.49218764784746 L 334.8387840000214 28.351487999840174 L 333.8984376320732 28.16406220785575 L 333.61920000007376 27.95417599985376 L 333.1328122880077 27.226562559895683 L 333.0969600000535 26.386431999853812 L 333.375488000107 25.707519999879878 L 334.0380160000641 25.14636799984146 L 335.0468751360313 25.007812607858796 L 335.46874982403824 24.773437439929694 L 336.163840000052 22.642687999876216 L 336.2343751680455 21.660155903897248 L 336.6875002880115 20.51562495995313 L 337.07031244802056 18.05859327991493 L 336.93081600003643 17.285119999898598 L 336.0952320001088 15.928319999831729 L 335.85152000002563 15.717375999840442 L 334.7734374400461 14.031250431959052 L 334.179687424039 12.089843711815774 L 333.4843750401051 11.132812287891284 L 332.78906265605474 10.406250495871063 L 331.6357120000175 9.5170559999533 L 330.9374996480183 9.140625407919288 L 330.62502400006633 9.072639999969397 L 329.47656294400804 9.30468761594966 L 328.98458214401035 9.257832447823603 L 328.7426416641101 9.117451263940893 L 328.60364800004754 8.464383999817073 L 328.7429120000452 7.949311999953352 L 329.02247628808254 7.692287999961991 L 330.1406248960993 7.691406335972715 L 330.34649600001285 7.388159999914933 L 330.3125544960494 6.801806335861329 L 330.83593728003325 6.429687807918526 L 330.9765621761326 6.1953126398148015 L 330.8001280000899 5.281791999877896 L 329.5468748800922 3.2460933118127286 L 329.2303360000951 2.380799999984447 L 328.88281292805914 1.7968752639135346 L 327.3515622400446 0.5585940479650162 L 327.3830400000443 0.21299199992790818 L 327.25383764575236 0.0" fill="none"/><path stroke="#408040" stroke-width="3" d="M 629.2889600000053 50.831359999996494 L 629.1865600000019 46.63296000000264 L 628.1215999999986 44.99455999999918 L 627.0156799999968 44.06272000000172 L 624.0153600000049 42.48576000000321 L 619.9398400000064 40.38655999999901 L 614.4716800000024 37.560319999996864 L 612.4748799999943 35.96287999999913 L 611.1232000000018 34.0480000000025 L 610.6009599999961 31.46751999999833 L 610.9491200000048 26.224640000000363 L 611.3177600000054 21.86239999999816 L 612.2291200000036 19.793919999996433 L 613.7856000000029 18.053119999996852 L 616.9088000000047 16.087039999998524 L 620.3801600000006 13.936639999999898 L 621.4860800000024 12.431360000002314 L 624.3942399999942 6.574079999998503 L 624.7761763834424 0.0" fill="none"/><path stroke="#408040" stroke-width="3" d="M 1024.0 535.89839194245 L 1009.8175999999949 538.2451199999996 L 1001.6563199999946 538.7468799999988 L 996.7206399999995 541.0406399999993 L 983.787519999998 539.1564799999978 L 972.7283199999947 537.1699200000003 L 932.3929599999974 525.854720000003 L 918.7532800000045 522.0249600000025 L 914.7084800000011 519.8643200000006 L 911.2883200000069 517.0380799999984 L 906.3423999999941 515.635199999997 L 900.6694399999978 515.6044800000018 L 890.593280000001 513.5462400000033 L 878.3974400000006 510.24895999999717 L 870.0006399999984 508.6822400000019 L 865.1980800000019 507.90400000000227 L 849.6844799999963 500.91008000000147 L 841.9532800000015 497.29535999999644 L 835.9219199999934 492.97407999999996 L 832.1024000000034 487.9155200000023 L 828.846080000003 486.7583999999988 L 824.0332800000033 486.359040000003 L 822.0364799999952 485.22239999999874 L 820.5516800000041 482.17087999999785 L 817.5411199999944 480.4710399999967 L 803.4099200000055 478.11583999999857 L 770.5804800000042 472.72959999999875 L 751.0630399999936 469.02272000000085 L 746.4140800000023 469.62688000000344 L 731.064320000005 473.9276800000007 L 707.645439999993 488.22271999999793 L 695.9513600000064 495.2575999999972 L 692.2035199999955 495.47263999999996 L 682.9670400000032 492.6463999999978 L 680.1612800000003 488.72447999999713 L 678.2464000000036 484.1267200000002 L 679.8438400000014 480.5529600000009 L 681.8815999999933 477.20448000000033 L 682.8646399999998 474.15295999999944 L 682.229760000002 472.3199999999997 L 677.4272000000055 466.52416000000085 L 667.0335999999952 461.08671999999933 L 658.9644799999951 456.56064000000333 L 655.3190400000021 443.0643199999977 L 645.6524800000043 409.01632000000245 L 641.5052799999976 398.31551999999647 L 636.3647999999957 387.03104000000167 L 634.8492799999949 379.7401600000012 L 634.9619200000016 376.9753599999967 L 633.5692799999961 374.21055999999953 L 631.4905600000056 368.89600000000064 L 629.6166399999929 366.97088000000076 L 628.9305599999934 364.9638399999967 L 627.9475200000015 358.1747200000027 L 627.3331199999957 351.764479999998 L 626.9337599999999 349.5731200000009 L 624.7116799999931 347.719680000002 L 621.6294400000043 345.3747199999998 L 620.5235200000025 343.52128000000084 L 618.2809600000037 337.58208000000013 L 612.9561600000015 329.95328000000154 L 607.6313599999994 320.8703999999998 L 604.4364800000039 317.5526400000017 L 603.0950400000002 310.9785600000032 L 601.9993600000016 304.0153599999976 L 600.1049599999969 299.05920000000333 L 602.7571199999948 297.1955200000011 L 602.941439999995 295.71072000000277 L 600.3711999999941 292.72063999999955 L 600.8729599999933 291.4918400000024 L 603.729919999998 289.8943999999974 L 612.351999999999 285.59360000000015 L 618.1785600000003 285.0611199999985 L 624.0563200000033 283.09504000000015 L 628.4287999999942 279.3471999999965 L 631.7158400000044 277.9033599999966 L 634.7776000000013 277.350400000003 L 639.4060800000007 273.81760000000213 L 646.5023999999976 273.0598400000017 L 651.0080000000016 271.2780799999964 L 652.8512000000046 270.4588799999983 L 657.3875200000039 270.60224000000017 L 662.2207999999955 269.20960000000196 L 669.9008000000031 265.0726399999985 L 678.2976000000053 260.82304000000295 L 684.5439999999944 258.4371200000023 L 690.7801599999948 257.14688000000024 L 693.6883200000011 254.53568000000087 L 694.7430400000012 251.7913600000029 L 696.5555199999944 248.43263999999908 L 704.296960000007 243.0361600000033 L 715.2127999999939 237.95711999999912 L 724.9305599999934 234.69056000000273 L 732.5593599999993 232.1203200000018 L 736.5939199999993 228.90495999999985 L 739.2870399999956 224.48127999999997 L 743.6083199999994 222.73023999999714 L 752.0972800000018 224.71680000000197 L 763.0233600000065 223.7337600000028 L 765.4297599999991 222.54591999999684 L 767.1808000000019 219.65823999999702 L 768.471040000004 216.9241600000023 L 766.8531199999998 214.1081600000034 L 765.7062399999995 205.03551999999763 L 768.3686400000006 198.7071999999971 L 767.703039999993 196.96639999999752 L 767.0681599999953 196.2086399999971 L 767.7337600000028 194.87743999999657 L 767.3241600000038 193.46431999999913 L 765.3375999999989 193.6281600000002 L 764.4262400000007 194.9491199999975 L 762.1119999999937 195.65568000000349 L 759.6543999999994 194.71360000000277 L 758.3129599999957 192.52223999999842 L 753.6640000000043 183.94112000000314 L 753.1724799999938 181.41184000000067 L 753.8790399999998 178.73920000000362 L 753.4284800000023 176.79359999999724 L 751.4726400000072 173.17887999999948 L 743.8950400000031 169.10336000000098 L 741.1404800000018 167.11680000000342 L 740.5465600000025 165.0995200000034 L 732.8563200000062 155.67872000000352 L 726.1184000000067 153.93791999999667 L 714.9465599999967 151.8284799999965 L 711.4547199999943 151.55200000000332 L 706.3552000000054 149.94432000000234 L 700.8767999999982 148.4800000000032 L 697.2415999999939 148.2751999999964 L 693.6780799999979 148.15232000000105 L 692.1830400000035 145.68448000000353 L 687.7183999999979 144.41472000000067 L 683.4790400000056 142.2540799999988 L 678.4204800000007 135.27040000000125 L 678.4819200000056 132.8640000000014 L 677.5500800000009 131.58400000000256 L 670.0236799999984 127.01696000000084 L 665.0265599999984 123.38175999999658 L 661.3503999999957 118.85568000000058 L 658.380799999999 114.67775999999867 L 658.360320000007 112.63999999999942 L 659.691519999993 110.33600000000297 L 659.4560000000056 108.99455999999918 L 658.124800000005 107.95008000000234 L 655.165439999997 107.73503999999957 L 648.212480000002 107.7248000000036 L 637.3990400000039 107.53024000000005 L 633.6409600000043 106.44479999999749 L 631.6441599999962 103.85407999999734 L 627.7119999999995 99.61471999999776 L 624.8550399999949 96.48127999999997 L 622.520319999996 94.89407999999821 L 620.6668800000043 92.46719999999914 L 619.8988799999934 89.1391999999978 L 616.683520000006 86.30271999999968 L 606.1465599999938 75.46880000000237 L 604.4671999999991 73.01120000000083 L 604.8051200000045 71.15776000000187 L 606.8121600000013 69.02784000000247 L 623.6671999999962 63.43680000000313 L 627.2409599999955 62.238720000001194 L 628.8588799999998 60.81536000000051 L 629.2275200000004 54.517760000002454 L 629.2889600000053 50.831359999996494" fill="none"/></svg>