<svg xmlns="http://www.w3.org/2000/svg" width="1024" height="1024"><rect stroke="none" x="0" y="0" width="1024" height="1024" fill="white"/><path stroke="#000000" stroke-width="2" d="M 432.5449205670011 1024.0 L 432.5390622720588 1023.9863285758183 L 435.4062499841093 1021.2226559998817 L 437.0468751360313 1019.1757813759614 L 438.07031296007335 1015.1816407038132 L 444.8281251840526 1011.2890623998828 L 445.5859374080901 1012.167968767928 L 447.4921871360857 1014.3613276159158 L 455.47656294406625 1019.7890621438855 L 460.4999997440609 1014.2597652478726 L 464.179687424039 1013.5429683199618 L 467.96874956804095 1015.1816407038132 L 471.554688000062 1015.0800783360028 L 473.5000002560555 1012.5195315198507 L 478.3125002240413 1004.2246092798305 L 481.38281267206185 1003.3027348479372 L 484.25000038411235 1003.5078123519197 L 488.0390625281143 1003.609374719963 L 495.92968704004306 998.1835939839366 L 503.19531212805305 993.1660154878045 L 502.3750000640284 990.4003901439719 L 499.8203125760192 989.2734371838742 L 490.8046878721216 986.5097656318103 L 487.5312496640254 984.0507811839343 L 487.93750016007107 981.2871096319286 L 491.6249999360298 978.8300779518904 L 484.3593748481362 975.0410158079467 L 480.05468774412293 970.0234373118146 L 479.5390627840534 966.9511720960145 L 482.10156236804323 965.7226557439426 L 489.47656294406625 965.7226557439426 L 491.42187520005973 963.4687498239218 L 492.1406248960411 960.4999997438281 L 491.52343756810296 957.2226559999399 L 483.9453122561681 954.1503907839651 L 482.8203120640246 951.6933591039269 L 483.74218752002344 948.1093754878966 L 481.69531289610313 947.291015167837 L 478.10937548807124 947.0859376639128 L 472.1718753281166 944.5253908479353 L 467.66406246402767 943.6035153919947 L 464.69531238405034 943.5019530239515 L 459.3671874561114 942.9882808318944 L 458.34374963201117 940.2246092798887 L 459.3671874561114 936.1289062398719 L 459.48437504004687 935.4765629439498 L 459.7812500480795 933.7734379518079 L 455.5781253121095 934.6953123838757 L 452.5078128640889 931.5195310078561 L 449.43750041606836 929.4726563839358 L 446.97656217601616 927.7304688639124 L 447.39062476804247 924.8652339199907 L 451.78906214411836 924.5566402560216 L 453.42968729604036 922.2011719678994 L 458.4453120000544 921.9980472318712 L 462.03125043207547 920.8710830078344 L 461.92968704004306 916.8769535999745 L 466.74218700802885 908.8906250239233 L 471.0468751361477 906.9433589758701 L 472.88281292805914 897.6249999359134 L 473.2968744960381 895.0664058878901 L 466.74218700802885 885.4394531839644 L 464.28124979208224 876.019530751917 L 462.33593753608875 872.2304686079733 L 463.15624960011337 863.6289064959856 L 467.14843750401633 863.8339839999098 L 471.96874956804095 863.1171870718244 L 474.42187468818156 860.7617187839351 L 470.5312501761364 853.6953128959867 L 468.179687424039 849.0878904318088 L 475.96093747211853 846.7324221439194 L 478.6250004480826 844.4804689919692 L 479.5390627840534 841.5097651198739 L 479.1328122880659 837.5175782399019 L 477.9062497281702 835.0605465598637 L 475.96093747211853 834.1386721280287 L 473.093749760068 835.2636723198812 L 469.3046876160661 836.185546751949 L 467.0468751361477 835.9804692479665 L 461.4140620800317 833.0117191678728 L 457.83593779202783 833.6249999359716 L 455.9921879040776 834.7519528958946 L 452.60937523201574 835.9804692479665 L 450.05468774412293 837.0058598398464 L 445.2421877760207 839.9746088958345 L 442.88281292805914 840.9980467198766 L 440.2187499520951 842.6367191039026 L 437.96874956809916 844.6855464958935 L 435.5078123520361 847.9609374718857 L 433.6640624640859 850.3183595519513 L 430.79687475203536 852.4667965439148 L 426.3984373760177 853.082031103957 L 423.93750016001286 853.900390399911 L 421.48437504004687 854.3105464319233 L 410.9374996480765 845.19726591988 L 408.9921873920248 842.841796607885 L 408.1718753280584 840.0781250558794 L 407.24999987211777 837.5175782399019 L 407.4531246080878 834.6503905278514 L 407.96874956809916 831.988281343889 L 407.7578127360903 825.0234378239838 L 407.65625036804704 819.9042969599832 L 405.9140628480818 817.9589847038733 L 402.43749990401557 814.273437695927 L 403.96874956809916 811.4062499838765 L 405.9140628480818 808.3339847678435 L 405.8125004800386 805.1582033918821 L 406.01562521600863 802.2910156798316 L 414.3125002240995 797.6835942399339 L 412.06249984010356 795.4316410878091 L 410.5234370561084 793.7929687038995 L 411.445312512049 791.9492188158911 L 413.1875000320724 790.1054689278244 L 412.46875033609103 787.8535157758743 L 407.8593751040171 788.980468735972 L 400.5937500160653 789.6953128958121 L 397.7265623040148 786.1132810239797 L 391.47656294412445 785.1914065919118 L 392.914062336029 781.5039057919057 L 392.29687500803266 778.1249996798579 L 391.9921879040194 773.0058598399046 L 388.7109376001172 770.7519528959529 L 387.5859374080901 769.011719167931 L 390.4531251200242 767.5781253119349 L 394.8593745920807 765.6328120319522 L 393.7343754240428 762.7656253438327 L 394.5468753920286 757.1328122880077 L 389.9453122560517 752.8320317438338 L 387.48437504004687 746.380859391822 L 382.97656217607437 746.6875002879533 L 379.18750003213063 747.0976563199656 L 375.9140628480236 747.5078123519779 L 372.84375040011946 747.6093747200212 L 369.7734379520989 748.2246092798887 L 366.69531238416675 748.2246092798887 L 364.75000012811506 746.0742184959236 L 364.4453120001708 743.1035156478174 L 363.92968704010127 739.724609535886 L 361.88281241606455 736.6542970878072 L 360.65624985616887 734.2988277758122 L 358.0937502720626 732.6601564158336 L 352.6718750721193 734.7070310399286 L 349.70312499202555 735.3222655999707 L 347.445312512049 732.5566402559634 L 345.70312499202555 729.7929687039577 L 343.65625036804704 726.5156249598949 L 342.1249996800325 723.7499996159459 L 340.28124979208224 721.7031249920256 L 338.84375040011946 718.835937279975 L 335.25781299208757 716.7871088638785 L 331.46874982409645 715.662109695957 L 328.0937502720626 715.1484375038999 L 323.8984376320732 715.0468751358567 L 321.33593702403596 712.6914058238617 L 320.21093785611447 710.2343751679291 L 320.10937548807124 706.0351559679257 L 323.5859374080319 701.6328120318358 L 324.60937523207394 697.8437498879503 L 326.96875008009374 695.9999999998836 L 331.16406272008317 694.9765621758997 L 334.03125043201726 691.6992184318369 L 333.6249999360298 689.54882764793 L 330.7578122240957 686.0664063998847 L 332.18749952007784 684.0195307518588 L 335.57031219202327 681.0488279039273 L 338.74218700808706 677.2617185278796 L 339.14843750401633 675.0078126078588 L 339.25781299208757 672.5507809278206 L 339.0468751360895 668.9667973119649 L 338.84375040011946 663.7441402879194 L 342.42968780803494 661.4921871359693 L 351.33593702409416 659.5468748799176 L 356.46093721612124 658.1132810238632 L 361.2734371840488 657.0878904318088 L 363.3203128321329 655.4492190718302 L 363.82812467205804 651.8652344318689 L 365.26562508801 649.1015628798632 L 367.41406208008993 646.9511720958981 L 368.539062272117 643.2636723198812 L 364.4453120001708 644.3906252798042 L 360.7578122240375 644.0839843839058 L 357.48437504004687 645.5175782399019 L 352.6718750721193 647.3593753598398 L 349.1875000320142 648.4863283199957 L 346.52343705605017 648.6914058239199 L 343.554688000062 649.3066403840203 L 340.6875002880697 649.8183598079486 L 337.8203125760192 649.4082027518307 L 335.15624960005516 647.0527344639413 L 334.8515624960419 644.2890629119356 L 338.74218700808706 643.7753907199367 L 338.6406246400438 638.7597660159227 L 338.02343731210567 631.794921471912 L 337.7187502081506 627.4941409279127 L 336.5937500161235 622.9902346240124 L 336.0781250561122 620.837891071802 L 333.4140620800317 616.7421870079124 L 330.1406248960411 615.8203125758446 L 325.9453122561099 616.0253911038744 L 322.2578124800348 612.8515624959255 L 319.3906247681007 609.5742187519209 L 317.1328122880659 607.628906495811 L 314.78124953602673 606.6054686718271 L 310.37500006408663 604.5566402559052 L 305.7734379521571 604.5566402559052 L 302.39062528003706 602.6113279998535 L 302.5937500161235 599.1308595199371 L 302.39062528003706 596.0585932800313 L 304.43749990401557 592.9863280638237 L 306.0781250561122 589.1972659199382 L 313.75781273603207 577.7285160958418 L 314.88281292817555 575.7832028159173 L 314.37500006408663 573.5292968958383 L 297.88281241612276 571.2773437438882 L 303.3124997121049 558.4765624318388 L 301.9843747840496 556.9414062079741 L 298.8046878721798 556.4296878079185 L 297.6796917760512 559.6035051519284 L 294.3046871040133 559.2968744958634 L 290.7187496960978 556.1210941439494 L 286.92968755209586 558.0683591678971 L 285.28906240011565 559.5000002558227 L 279.96874956804095 558.1699215359404 L 274.9453127681045 555.5078123519779 L 268.1874995200196 549.9785154559067 L 262.96875008003553 546.3945308160037 L 256.718749696156 543.3222655999707 L 258.257812480093 536.8710932480171 L 260.71093760005897 533.183593471942 L 258.8671877120505 530.7265628158348 L 254.57031270401785 532.9804687358555 L 254.2656245760154 529.3945313278236 L 258.3593748480198 527.1425781758735 L 261.42968729604036 527.1425781758735 L 264.29687500809086 528.6796871678089 L 269.10937497601844 527.4492190719466 L 270.2343751680455 525.1972659199964 L 271.46874982403824 523.457031167869 L 273.4140620800317 524.275390463823 L 276.07031296007335 524.6855464958353 L 278.6328125440632 523.0468751358567 L 281.6015626240405 520.7949219839065 L 284.46875033609103 518.3359375359723 L 282.7265628160094 514.3417968638241 L 284.6718750720611 510.5546874880092 L 289.1796879360918 510.1445314559969 L 288.87499980803113 507.6874997759587 L 287.5390627841116 505.12695295980666 L 291.43750041606836 503.48828159982804 L 295.32812492811354 500.51953151996713 L 293.38281267206185 497.9589847038151 L 290.20312473608647 497.4472652798868 L 286.21093785611447 497.75390617595986 L 283.4453125121072 497.7539031038759 L 280.47656243201345 497.6523438079166 L 277.3046876160661 497.6523438079166 L 274.1249996800907 498.0605470718583 L 270.03125043207547 497.9589847038151 L 267.46874982403824 497.2421877759043 L 264.8124999681022 496.3203123199055 L 262.8671877121087 494.58007859194186 L 265.42187520011794 492.8378910719184 L 264.29687500809086 489.66406246396946 L 263.37499955203384 485.26171852787957 L 260.10156236804323 483.62304716790095 L 258.66406297602225 480.9609379839385 L 256.3125002240413 481.47265638399404 L 253.85156300803646 483.3164062718279 L 250.2656245760154 481.0625003519817 L 247.81250048003858 482.5996093439171 L 251.60156262404053 485.8750003199093 L 245.66406246408587 487.5136716798879 L 238.28906291205203 487.30859417590545 L 231.83593779208604 486.59179724782007 L 228.96875008003553 485.97851545596495 L 224.46093721606303 485.97851545596495 L 220.16406220803037 485.46484326396603 L 217.39843788807048 484.03320319991326 L 215.3515622400446 481.16601548786275 L 211.14843750407454 479.01562470395584 L 206.64843776007183 476.8652339198161 L 205.21093734411988 473.48437503987225 L 201.7343754240428 471.2324218878639 L 204.80468787206337 468.1601566718891 L 200.29687500803266 466.62500044784974 L 195.68749977601692 463.65429657598725 L 194.25781248003477 460.89062502392335 L 190.46875033603283 460.2753904638812 L 188.10937548801303 458.2285158399609 L 185.75781273609027 455.8730465279659 L 183.50781235209433 452.3906252798042 L 183.60937472002115 450.03515596780926 L 186.6796871680417 449.52343756792834 L 186.6796871680417 446.75976601592265 L 182.6875002880697 446.5546874878346 L 181.3515622400446 444.5058590719709 L 181.96874956804095 441.7421875199652 L 185.65625036804704 440.5117183998227 L 184.01562521600863 437.43945318402257 L 179.92187494406244 434.3691407358856 L 176.9531248640851 431.6035153918783 L 173.6718745600665 430.7832033278537 L 171.62499993602978 427.60937471990474 L 168.4531251200242 423.92382771195844 L 168.4531251200242 419.4179686399293 L 165.5859374080319 415.0136719359434 L 164.56249958404806 409.9980472319294 L 165.5859374080319 406.8222658559098 L 166.71093760011718 402.0097658878076 L 171.11718707205728 399.44921907188836 L 176.64062464004382 395.35351603187155 L 180.94531276804628 394.84179660794325 L 185.24218777607894 394.94531276792986 L 185.55468800017843 392.5898434559349 L 182.07031296001514 390.6445311998832 L 177.66406246402767 388.4941404159763 L 181.14843750401633 388.2890629118192 L 183.60937472002115 387.67382835195167 L 187.1875000320142 386.6503905279096 L 186.5781248001149 383.16796825581696 L 184.01562521600863 380.40429670381127 L 187.5000002560555 376.5117183998809 L 186.5781248001149 372.51757772790734 L 187.5000002560555 368.52539084793534 L 186.88281292811735 365.5546879999456 L 186.2656245760736 361.3574215678382 L 187.80468736001058 358.79687475186074 L 185.4531246080296 356.2363279359415 L 183.8125004800968 353.57421875192085 L 182.37500006402843 350.81054719991516 L 179.20312524808105 347.6347658238956 L 177.97656268801074 345.48437503981404 L 177.66406246402767 342.3105464318651 L 182.2734376961016 334.11914035183145 L 184.01562521600863 335.04101580783026 L 186.5781248001149 335.9628902398981 L 187.60156262409873 339.5449221119634 L 192.0000000000582 337.1914065919118 L 188.82812518411083 332.78710886387853 L 192.10937548801303 330.3300782079459 L 193.84374988800846 327.97460889595095 L 196.4062504961039 326.6425784318708 L 198.35156275209738 324.9023436799762 L 200.39843737601768 323.0585937919095 L 199.99218790401937 320.70507827191614 L 209.61718784004916 302.9882808319526 L 199.8906245121034 303.70507775986334 L 197.02343782404205 304.3203123199055 L 193.84374988800846 303.5019530239515 L 192.92187545611523 300.01953075185884 L 188.00781209603883 298.6875002879533 L 190.2656245760736 294.2851563518634 L 191.89843763201497 291.21289113588864 L 191.0781245440594 287.93554636795307 L 190.16406220803037 284.76171878387686 L 189.54687488009222 279.5390627839952 L 189.13281228812411 277.1835934720002 L 185.24218777607894 274.93164031981723 L 181.56250009610085 273.39453132788185 L 179.60937472002115 271.9628902399563 L 177.25781299208757 268.6855464958935 L 174.28906291211024 263.76953139185207 L 171.42187520005973 260.08398438384756 L 168.75781222403748 258.6503905278514 L 167.32812492805533 256.0898437119322 L 168.25000038411235 253.83789055992384 L 169.98437478410779 252.30078156781383 L 172.85156249604188 250.25195315189194 L 173.98437478410779 247.89843763189856 L 174.18749952007784 245.6445317118778 L 177.35937536001438 245.2363284479361 L 175.7187502080924 241.85742233583005 L 175.92968704004306 239.80859391990816 L 178.58593792002648 238.68164095981047 L 179.30468761612428 236.2246092800051 L 181.45312460814603 232.6406246398692 L 180.84375040011946 230.28515635192161 L 178.58593792002648 228.44140646391315 L 175.92968704004306 227.72460953582777 L 172.0390625281143 226.189453311963 L 167.32812492805533 224.1406248958665 L 166.0937502720626 221.47851571190404 L 167.73437337612268 219.73827891197288 L 166.4062504961039 217.58789017581148 L 166.3046871041297 215.2324218879221 L 167.93750016001286 211.03320268791867 L 166.0937502720626 207.44921907188836 L 164.46093721612124 204.78710886382032 L 158.10937548801303 203.25195263995556 L 156.367187968106 205.0937497598934 L 153.70312499202555 204.99218739185017 L 151.4531246080296 204.17382809589617 L 150.01562521606684 201.61328127997695 L 149.71093708806438 198.95117209595628 L 146.5390622720588 196.49218764784746 L 144.179687424039 195.36718745582039 L 142.4453120000544 192.6015621118131 L 134.7656253441237 189.42773452796973 L 131.68749977607513 190.5546874878928 L 130.8671877120505 188.09570304001682 L 131.5859374080319 184.20507852785522 L 128.51562496001134 182.56640614400385 L 128.41406259208452 177.5488276478136 L 128.00000000011642 174.16992153594038 L 125.85156300803646 171.81445324781816 L 127.79687526402995 169.05078169581247 L 129.9453122561681 167.61718783981632 L 128.10937548807124 164.23632793594152 L 125.24218777602073 161.8808596478193 L 121.14062540809391 160.550780927937 L 123.70312499202555 159.3222655999707 L 119.81250048003858 156.55664025596343 L 118.2734376960434 153.48437503998866 L 120.42968780803494 151.642577919818 L 119.71093708812259 148.98046873585554 L 115.30468761606608 148.365234175988 L 113.46093772805762 147.546874880034 L 121.34375014406396 136.38476595183602 L 118.47656243201345 133.92578150396002 L 117.66406246402767 137.30664038390387 L 113.05468723207014 133.51757823984371 L 109.36718745611142 130.75195289583644 L 110.59375001618173 127.67968767980346 L 108.24218726408435 126.75976601586444 L 105.17187481606379 127.27148441586178 L 101.89062451204518 128.39648460794706 L 100.76562534406548 124.71093759994255 L 102.30468710401328 121.02343782386743 L 103.83593779202783 118.87304703996051 L 105.78125004807953 115.80273459182354 L 105.17187481606379 111.60351539182011 L 103.53124966408359 107.9179683838156 L 100.96875008009374 105.56250009592623 L 98.7187496960978 107.9179683838156 L 96.25781248009298 111.60351539182011 L 94.51562496001134 110.16992153599858 L 91.54687488003401 110.78515609586611 L 89.39843788807048 111.29687449592166 L 86.1249996800907 109.86328166397288 L 85.20312524802284 112.3203123199055 L 82.23437516804552 112.01367142383242 L 81.82031257607741 114.47070310387062 L 81.51562547206413 116.41601535992231 L 78.13281280017691 115.90429695986677 L 75.98437478404958 114.47070310387062 L 73.93750016001286 110.3750000638538 L 69.84374988800846 110.06835916795535 L 71.07031244802056 107.71289087989135 L 72.71093760005897 106.17578086385038 L 74.8593745920225 103.1035156478174 L 77.00781260803342 99.72460953594418 L 79.87500032008393 97.6777338879183 L 78.03125043207547 95.11718707199907 L 76.28906291205203 93.06835968000814 L 74.4453120000544 91.73828095989302 L 72.29687500809086 89.79296870384132 L 68.8124999681022 91.53320345591055 L 64.92187545605702 92.55664025584701 L 60.72656281600939 92.14843699190533 L 58.2656245760154 91.73828095989302 L 55.19531212805305 91.83984332793625 L 50.8984371200786 91.32812492788071 L 47.71875020803418 91.53320345591055 L 45.67187456000829 89.5878901759279 L 44.85156249604188 85.18359347200021 L 43.11718707205728 82.009765887924 L 41.47656294412445 79.1425781759317 L 37.992187904019374 77.81250047992216 L 34.92187545611523 79.44921907183016 L 32.97656217607437 81.08789043180877 L 30.312500224099495 81.80468735989416 L 26.625000448024366 79.44921907183016 L 24.070312960015144 76.78710886393674 L 22.73437491216464 74.63671910390258 L 21.710937088064384 71.15624959988054 L 19.968749568099156 66.75195289589465 L 19.046875136031304 63.88476518384414 L 17.3124997120467 61.017578495899215 L 14.132812800060492 58.76562534394907 L 12.085937152034603 56.4101560319541 L 10.65624985616887 52.82617139181821 L 7.7890621440601535 50.16406220803037 L 5.328124928055331 48.01367142389063 L 3.687499776016921 45.86328166385647 L 2.054687744064722 42.99609395180596 L 0.0 40.479278871247516" fill="none"/><path stroke="#000000" stroke-width="2" d="M 0.0 40.479278871247516 L 2.054687744064722 42.99609395180596 L 3.687499776016921 45.86328166385647 L 5.328124928055331 48.01367142389063 L 7.7890621440601535 50.16406220803037 L 10.65624985616887 52.82617139181821 L 12.085937152034603 56.4101560319541 L 14.132812800060492 58.76562534394907 L 17.3124997120467 61.017578495899215 L 19.046875136031304 63.88476518384414 L 19.968749568099156 66.75195289589465 L 21.710937088064384 71.15624959988054 L 22.73437491216464 74.63671910390258 L 24.070312960015144 76.78710886393674 L 26.625000448024366 79.44921907183016 L 30.312500224099495 81.80468735989416 L 32.97656217607437 81.08789043180877 L 34.92187545611523 79.44921907183016 L 37.992187904019374 77.81250047992216 L 41.47656294412445 79.1425781759317 L 43.11718707205728 82.009765887924 L 44.85156249604188 85.18359347200021 L 45.67187456000829 89.5878901759279 L 47.71875020803418 91.53320345591055 L 50.8984371200786 91.32812492788071 L 55.19531212805305 91.83984332793625 L 58.2656245760154 91.73828095989302 L 60.72656281600939 92.14843699190533 L 64.92187545605702 92.55664025584701 L 68.8124999681022 91.53320345591055 L 72.29687500809086 89.79296870384132 L 74.4453120000544 91.73828095989302 L 76.28906291205203 93.06835968000814 L 78.03125043207547 95.11718707199907 L 79.87500032008393 97.6777338879183 L 77.00781260803342 99.72460953594418 L 74.8593745920225 103.1035156478174 L 72.71093760005897 106.17578086385038 L 71.07031244802056 107.71289087989135 L 69.84374988800846 110.06835916795535 L 73.93750016001286 110.3750000638538 L 75.98437478404958 114.47070310387062 L 78.13281280017691 115.90429695986677 L 81.51562547206413 116.41601535992231 L 81.82031257607741 114.47070310387062 L 82.23437516804552 112.01367142383242 L 85.20312524802284 112.3203123199055 L 86.1249996800907 109.86328166397288 L 89.39843788807048 111.29687449592166 L 91.54687488003401 110.78515609586611 L 94.51562496001134 110.16992153599858 L 96.25781248009298 111.60351539182011 L 98.7187496960978 107.9179683838156 L 100.96875008009374 105.56250009592623 L 103.53124966408359 107.9179683838156 L 105.17187481606379 111.60351539182011 L 105.78125004807953 115.80273459182354 L 103.83593779202783 118.87304703996051 L 102.30468710401328 121.02343782386743 L 100.76562534406548 124.71093759994255 L 101.89062451204518 128.39648460794706 L 105.17187481606379 127.27148441586178 L 108.24218726408435 126.75976601586444 L 110.59375001618173 127.67968767980346 L 109.36718745611142 130.75195289583644 L 113.05468723207014 133.51757823984371 L 117.66406246402767 137.30664038390387 L 118.47656243201345 133.92578150396002 L 121.34375014406396 136.38476595183602 L 113.46093772805762 147.546874880034 L 115.30468761606608 148.365234175988 L 119.71093708812259 148.98046873585554 L 120.42968780803494 151.642577919818 L 118.2734376960434 153.48437503998866 L 119.81250048003858 156.55664025596343 L 123.70312499202555 159.3222655999707 L 121.14062540809391 160.550780927937 L 125.24218777602073 161.8808596478193 L 128.10937548807124 164.23632793594152 L 129.9453122561681 167.61718783981632 L 127.79687526402995 169.05078169581247 L 125.85156300803646 171.81445324781816 L 128.00000000011642 174.16992153594038 L 128.41406259208452 177.5488276478136 L 128.51562496001134 182.56640614400385 L 131.5859374080319 184.20507852785522 L 130.8671877120505 188.09570304001682 L 131.68749977607513 190.5546874878928 L 134.7656253441237 189.42773452796973 L 142.4453120000544 192.6015621118131 L 144.179687424039 195.36718745582039 L 146.5390622720588 196.49218764784746 L 149.71093708806438 198.95117209595628 L 150.01562521606684 201.61328127997695 L 151.4531246080296 204.17382809589617 L 153.70312499202555 204.99218739185017 L 156.367187968106 205.0937497598934 L 158.10937548801303 203.25195263995556 L 164.46093721612124 204.78710886382032 L 166.0937502720626 207.44921907188836 L 167.93750016001286 211.03320268791867 L 166.3046871041297 215.2324218879221 L 166.4062504961039 217.58789017581148 L 167.73437337612268 219.73827891197288 L 166.0937502720626 221.47851571190404 L 167.32812492805533 224.1406248958665 L 172.0390625281143 226.189453311963 L 175.92968704004306 227.72460953582777 L 178.58593792002648 228.44140646391315 L 180.84375040011946 230.28515635192161 L 181.45312460814603 232.6406246398692 L 179.30468761612428 236.2246092800051 L 178.58593792002648 238.68164095981047 L 175.92968704004306 239.80859391990816 L 175.7187502080924 241.85742233583005 L 177.35937536001438 245.2363284479361 L 174.18749952007784 245.6445317118778 L 173.98437478410779 247.89843763189856 L 172.85156249604188 250.25195315189194 L 169.98437478410779 252.30078156781383 L 168.25000038411235 253.83789055992384 L 167.32812492805533 256.0898437119322 L 168.75781222403748 258.6503905278514 L 171.42187520005973 260.08398438384756 L 174.28906291211024 263.76953139185207 L 177.25781299208757 268.6855464958935 L 179.60937472002115 271.9628902399563 L 181.56250009610085 273.39453132788185 L 185.24218777607894 274.93164031981723 L 189.13281228812411 277.1835934720002 L 189.54687488009222 279.5390627839952 L 190.16406220803037 284.76171878387686 L 191.0781245440594 287.93554636795307 L 191.89843763201497 291.21289113588864 L 190.2656245760736 294.2851563518634 L 188.00781209603883 298.6875002879533 L 192.92187545611523 300.01953075185884 L 193.84374988800846 303.5019530239515 L 197.02343782404205 304.3203123199055 L 199.8906245121034 303.70507775986334 L 209.61718784004916 302.9882808319526 L 199.99218790401937 320.70507827191614 L 200.39843737601768 323.0585937919095 L 198.35156275209738 324.9023436799762 L 196.4062504961039 326.6425784318708 L 193.84374988800846 327.97460889595095 L 192.10937548801303 330.3300782079459 L 188.82812518411083 332.78710886387853 L 192.0000000000582 337.1914065919118 L 187.60156262409873 339.5449221119634 L 186.5781248001149 335.9628902398981 L 184.01562521600863 335.04101580783026 L 182.2734376961016 334.11914035183145 L 177.66406246402767 342.3105464318651 L 177.97656268801074 345.48437503981404 L 179.20312524808105 347.6347658238956 L 182.37500006402843 350.81054719991516 L 183.8125004800968 353.57421875192085 L 185.4531246080296 356.2363279359415 L 187.80468736001058 358.79687475186074 L 186.2656245760736 361.3574215678382 L 186.88281292811735 365.5546879999456 L 187.5000002560555 368.52539084793534 L 186.5781248001149 372.51757772790734 L 187.5000002560555 376.5117183998809 L 184.01562521600863 380.40429670381127 L 186.5781248001149 383.16796825581696 L 187.1875000320142 386.6503905279096 L 183.60937472002115 387.67382835195167 L 181.14843750401633 388.2890629118192 L 177.66406246402767 388.4941404159763 L 182.07031296001514 390.6445311998832 L 185.55468800017843 392.5898434559349 L 185.24218777607894 394.94531276792986 L 180.94531276804628 394.84179660794325 L 176.64062464004382 395.35351603187155 L 171.11718707205728 399.44921907188836 L 166.71093760011718 402.0097658878076 L 165.5859374080319 406.8222658559098 L 164.56249958404806 409.9980472319294 L 165.5859374080319 415.0136719359434 L 168.4531251200242 419.4179686399293 L 168.4531251200242 423.92382771195844 L 171.62499993602978 427.60937471990474 L 173.6718745600665 430.7832033278537 L 176.9531248640851 431.6035153918783 L 179.92187494406244 434.3691407358856 L 184.01562521600863 437.43945318402257 L 185.65625036804704 440.5117183998227 L 181.96874956804095 441.7421875199652 L 181.3515622400446 444.5058590719709 L 182.6875002880697 446.5546874878346 L 186.6796871680417 446.75976601592265 L 186.6796871680417 449.52343756792834 L 183.60937472002115 450.03515596780926 L 183.50781235209433 452.3906252798042 L 185.75781273609027 455.8730465279659 L 188.10937548801303 458.2285158399609 L 190.46875033603283 460.2753904638812 L 194.25781248003477 460.89062502392335 L 195.68749977601692 463.65429657598725 L 200.29687500803266 466.62500044784974 L 204.80468787206337 468.1601566718891 L 201.7343754240428 471.2324218878639 L 205.21093734411988 473.48437503987225 L 206.64843776007183 476.8652339198161 L 211.14843750407454 479.01562470395584 L 215.3515622400446 481.16601548786275 L 217.39843788807048 484.03320319991326 L 220.16406220803037 485.46484326396603 L 224.46093721606303 485.97851545596495 L 228.96875008003553 485.97851545596495 L 231.83593779208604 486.59179724782007 L 238.28906291205203 487.30859417590545 L 245.66406246408587 487.5136716798879 L 251.60156262404053 485.8750003199093 L 247.81250048003858 482.5996093439171 L 250.2656245760154 481.0625003519817 L 253.85156300803646 483.3164062718279 L 256.3125002240413 481.47265638399404 L 258.66406297602225 480.9609379839385 L 260.10156236804323 483.62304716790095 L 263.37499955203384 485.26171852787957 L 264.29687500809086 489.66406246396946 L 265.42187520011794 492.8378910719184 L 262.8671877121087 494.58007859194186 L 264.8124999681022 496.3203123199055 L 267.46874982403824 497.2421877759043 L 270.03125043207547 497.9589847038151 L 274.1249996800907 498.0605470718583 L 277.3046876160661 497.6523438079166 L 280.47656243201345 497.6523438079166 L 283.4453125121072 497.7539031038759 L 286.21093785611447 497.75390617595986 L 290.20312473608647 497.4472652798868 L 293.38281267206185 497.9589847038151 L 295.32812492811354 500.51953151996713 L 291.43750041606836 503.48828159982804 L 287.5390627841116 505.12695295980666 L 288.87499980803113 507.6874997759587 L 289.1796879360918 510.1445314559969 L 284.6718750720611 510.5546874880092 L 282.7265628160094 514.3417968638241 L 284.46875033609103 518.3359375359723 L 281.6015626240405 520.7949219839065 L 278.6328125440632 523.0468751358567 L 276.07031296007335 524.6855464958353 L 273.4140620800317 524.275390463823 L 271.46874982403824 523.457031167869 L 270.2343751680455 525.1972659199964 L 269.10937497601844 527.4492190719466 L 264.29687500809086 528.6796871678089 L 261.42968729604036 527.1425781758735 L 258.3593748480198 527.1425781758735 L 254.2656245760154 529.3945313278236 L 254.57031270401785 532.9804687358555 L 258.8671877120505 530.7265628158348 L 260.71093760005897 533.183593471942 L 258.257812480093 536.8710932480171 L 256.718749696156 543.3222655999707 L 262.96875008003553 546.3945308160037 L 268.1874995200196 549.9785154559067 L 274.9453127681045 555.5078123519779 L 279.96874956804095 558.1699215359404 L 285.28906240011565 559.5000002558227 L 286.92968755209586 558.0683591678971 L 290.7187496960978 556.1210941439494 L 294.3046871040133 559.2968744958634 L 297.6796917760512 559.6035051519284 L 298.8046878721798 556.4296878079185 L 301.9843747840496 556.9414062079741 L 303.3124997121049 558.4765624318388 L 297.88281241612276 571.2773437438882 L 314.37500006408663 573.5292968958383 L 314.88281292817555 575.7832028159173 L 313.75781273603207 577.7285160958418 L 306.0781250561122 589.1972659199382 L 304.43749990401557 592.9863280638237 L 302.39062528003706 596.0585932800313 L 302.5937500161235 599.1308595199371 L 302.39062528003706 602.6113279998535 L 305.7734379521571 604.5566402559052 L 310.37500006408663 604.5566402559052 L 314.78124953602673 606.6054686718271 L 317.1328122880659 607.628906495811 L 319.3906247681007 609.5742187519209 L 322.2578124800348 612.8515624959255 L 325.9453122561099 616.0253911038744 L 330.1406248960411 615.8203125758446 L 333.4140620800317 616.7421870079124 L 336.0781250561122 620.837891071802 L 336.5937500161235 622.9902346240124 L 337.7187502081506 627.4941409279127 L 338.02343731210567 631.794921471912 L 338.6406246400438 638.7597660159227 L 338.74218700808706 643.7753907199367 L 334.8515624960419 644.2890629119356 L 335.15624960005516 647.0527344639413 L 337.8203125760192 649.4082027518307 L 340.6875002880697 649.8183598079486 L 343.554688000062 649.3066403840203 L 346.52343705605017 648.6914058239199 L 349.1875000320142 648.4863283199957 L 352.6718750721193 647.3593753598398 L 357.48437504004687 645.5175782399019 L 360.7578122240375 644.0839843839058 L 364.4453120001708 644.3906252798042 L 368.539062272117 643.2636723198812 L 367.41406208008993 646.9511720958981 L 365.26562508801 649.1015628798632 L 363.82812467205804 651.8652344318689 L 363.3203128321329 655.4492190718302 L 361.2734371840488 657.0878904318088 L 356.46093721612124 658.1132810238632 L 351.33593702409416 659.5468748799176 L 342.42968780803494 661.4921871359693 L 338.84375040011946 663.7441402879194 L 339.0468751360895 668.9667973119649 L 339.25781299208757 672.5507809278206 L 339.14843750401633 675.0078126078588 L 338.74218700808706 677.2617185278796 L 335.57031219202327 681.0488279039273 L 332.18749952007784 684.0195307518588 L 330.7578122240957 686.0664063998847 L 333.6249999360298 689.54882764793 L 334.03125043201726 691.6992184318369 L 331.16406272008317 694.9765621758997 L 326.96875008009374 695.9999999998836 L 324.60937523207394 697.8437498879503 L 323.5859374080319 701.6328120318358 L 320.10937548807124 706.0351559679257 L 320.21093785611447 710.2343751679291 L 321.33593702403596 712.6914058238617 L 323.8984376320732 715.0468751358567 L 328.0937502720626 715.1484375038999 L 331.46874982409645 715.662109695957 L 335.25781299208757 716.7871088638785 L 338.84375040011946 718.835937279975 L 340.28124979208224 721.7031249920256 L 342.1249996800325 723.7499996159459 L 343.65625036804704 726.5156249598949 L 345.70312499202555 729.7929687039577 L 347.445312512049 732.5566402559634 L 349.70312499202555 735.3222655999707 L 352.6718750721193 734.7070310399286 L 358.0937502720626 732.6601564158336 L 360.65624985616887 734.2988277758122 L 361.88281241606455 736.6542970878072 L 363.92968704010127 739.724609535886 L 364.4453120001708 743.1035156478174 L 364.75000012811506 746.0742184959236 L 366.69531238416675 748.2246092798887 L 369.7734379520989 748.2246092798887 L 372.84375040011946 747.6093747200212 L 375.9140628480236 747.5078123519779 L 379.18750003213063 747.0976563199656 L 382.97656217607437 746.6875002879533 L 387.48437504004687 746.380859391822 L 389.9453122560517 752.8320317438338 L 394.5468753920286 757.1328122880077 L 393.7343754240428 762.7656253438327 L 394.8593745920807 765.6328120319522 L 390.4531251200242 767.5781253119349 L 387.5859374080901 769.011719167931 L 388.7109376001172 770.7519528959529 L 391.9921879040194 773.0058598399046 L 392.29687500803266 778.1249996798579 L 392.914062336029 781.5039057919057 L 391.47656294412445 785.1914065919118 L 397.7265623040148 786.1132810239797 L 400.5937500160653 789.6953128958121 L 407.8593751040171 788.980468735972 L 412.46875033609103 787.8535157758743 L 413.1875000320724 790.1054689278244 L 411.445312512049 791.9492188158911 L 410.5234370561084 793.7929687038995 L 412.06249984010356 795.4316410878091 L 414.3125002240995 797.6835942399339 L 406.01562521600863 802.2910156798316 L 405.8125004800386 805.1582033918821 L 405.9140628480818 808.3339847678435 L 403.96874956809916 811.4062499838765 L 402.43749990401557 814.273437695927 L 405.9140628480818 817.9589847038733 L 407.65625036804704 819.9042969599832 L 407.7578127360903 825.0234378239838 L 407.96874956809916 831.988281343889 L 407.4531246080878 834.6503905278514 L 407.24999987211777 837.5175782399019 L 408.1718753280584 840.0781250558794 L 408.9921873920248 842.841796607885 L 410.9374996480765 845.19726591988 L 421.48437504004687 854.3105464319233 L 423.93750016001286 853.900390399911 L 426.3984373760177 853.082031103957 L 430.79687475203536 852.4667965439148 L 433.6640624640859 850.3183595519513 L 435.5078123520361 847.9609374718857 L 437.96874956809916 844.6855464958935 L 440.2187499520951 842.6367191039026 L 442.88281292805914 840.9980467198766 L 445.2421877760207 839.9746088958345 L 450.05468774412293 837.0058598398464 L 452.60937523201574 835.9804692479665 L 455.9921879040776 834.7519528958946 L 457.83593779202783 833.6249999359716 L 461.4140620800317 833.0117191678728 L 467.0468751361477 835.9804692479665 L 469.3046876160661 836.185546751949 L 473.093749760068 835.2636723198812 L 475.96093747211853 834.1386721280287 L 477.9062497281702 835.0605465598637 L 479.1328122880659 837.5175782399019 L 479.5390627840534 841.5097651198739 L 478.6250004480826 844.4804689919692 L 475.96093747211853 846.7324221439194 L 468.179687424039 849.0878904318088 L 470.5312501761364 853.6953128959867 L 474.42187468818156 860.7617187839351 L 471.96874956804095 863.1171870718244 L 467.14843750401633 863.8339839999098 L 463.15624960011337 863.6289064959856 L 462.33593753608875 872.2304686079733 L 464.28124979208224 876.019530751917 L 466.74218700802885 885.4394531839644 L 473.2968744960381 895.0664058878901 L 472.88281292805914 897.6249999359134 L 471.0468751361477 906.9433589758701 L 466.74218700802885 908.8906250239233 L 461.92968704004306 916.8769535999745 L 462.03125043207547 920.8710830078344 L 458.4453120000544 921.9980472318712 L 453.42968729604036 922.2011719678994 L 451.78906214411836 924.5566402560216 L 447.39062476804247 924.8652339199907 L 446.97656217601616 927.7304688639124 L 449.43750041606836 929.4726563839358 L 452.5078128640889 931.5195310078561 L 455.5781253121095 934.6953123838757 L 459.7812500480795 933.7734379518079 L 459.48437504004687 935.4765629439498 L 459.3671874561114 936.1289062398719 L 458.34374963201117 940.2246092798887 L 459.3671874561114 942.9882808318944 L 464.69531238405034 943.5019530239515 L 467.66406246402767 943.6035153919947 L 472.1718753281166 944.5253908479353 L 478.10937548807124 947.0859376639128 L 481.69531289610313 947.291015167837 L 483.74218752002344 948.1093754878966 L 482.8203120640246 951.6933591039269 L 483.9453122561681 954.1503907839651 L 491.52343756810296 957.2226559999399 L 492.1406248960411 960.4999997438281 L 491.42187520005973 963.4687498239218 L 489.47656294406625 965.7226557439426 L 482.10156236804323 965.7226557439426 L 479.5390627840534 966.9511720960145 L 480.05468774412293 970.0234373118146 L 484.3593748481362 975.0410158079467 L 491.6249999360298 978.8300779518904 L 487.93750016007107 981.2871096319286 L 487.5312496640254 984.0507811839343 L 490.8046878721216 986.5097656318103 L 499.8203125760192 989.2734371838742 L 502.3750000640284 990.4003901439719 L 503.19531212805305 993.1660154878045 L 495.92968704004306 998.1835939839366 L 488.0390625281143 1003.609374719963 L 484.25000038411235 1003.5078123519197 L 481.38281267206185 1003.3027348479372 L 478.3125002240413 1004.2246092798305 L 473.5000002560555 1012.5195315198507 L 471.554688000062 1015.0800783360028 L 467.96874956804095 1015.1816407038132 L 464.179687424039 1013.5429683199618 L 460.4999997440609 1014.2597652478726 L 455.47656294406625 1019.7890621438855 L 447.4921871360857 1014.3613276159158 L 445.5859374080901 1012.167968767928 L 444.8281251840526 1011.2890623998828 L 438.07031296007335 1015.1816407038132 L 437.0468751360313 1019.1757813759614 L 435.4062499841093 1021.2226559998817 L 432.5390622720588 1023.9863285758183 L 432.5449205670011 1024.0" fill="none"/></svg>