<svg xmlns="http://www.w3.org/2000/svg" width="1024" height="1024"><rect stroke="none" x="0" y="0" width="1024" height="1024" fill="white"/><path stroke="#000000" stroke-width="2" d="M 195.3797255334037 0.0 L 195.39999989761273 1.2468750335858658 L 195.39999989761273 5.629687398392662 L 195.42031257600757 6.939843788789631 L 195.42031257600757 8.25078128639143 L 195.42085386241087 8.251207679987374 L 195.40037632000167 10.401349631987955 L 195.40037632000167 12.060229631990637 L 195.40037632000167 13.002309631987032 L 195.37989632000682 15.480389631993603 L 195.37989632000682 17.651269631984178 L 195.37989632000682 19.61734963199126 L 195.37989632000682 21.25574963198744 L 195.35941632001195 25.474629631987796 L 195.35941632001195 26.478149631991982 L 195.35941632001195 27.215429631993175 L 195.35941632001195 29.28390963198615 L 195.35941632001195 31.454789631988433 L 195.35941632001195 35.10022963199299 L 195.44133632000302 37.37350963199276 L 195.4517309440067 37.71652894718568 L 195.46249994240935 38.04921876478477 L 195.35937495040707 40.95781253118764 L 195.39999989761273 41.817968844785355 L 195.50312509441284 44.0906250239932 L 195.35937495040707 47.1015624703839 L 195.35937495040707 57.8539063295932 L 195.3796874240041 58.85703127038437 L 195.3796874240041 65.04218746878905 L 195.33906247681006 75.22031247358541 L 195.33906247681006 76.79765626878941 L 195.35937495040707 79.6445313023869 L 195.35937495040707 80.34062499839342 L 195.33906247681006 81.26250004478493 L 195.33906247681006 86.01352355838753 L 195.33906247681006 102.39765626878943 L 195.31875000320142 107.02578135038493 L 195.31875000320142 115.58671871998808 L 195.29843752960443 120.8703125503846 L 195.29843752960443 124.0039061503951 L 195.2781250560074 124.96640634879009 L 195.2781250560074 125.53984368639067 L 195.2562499584048 127.09609369599491 L 195.2781250560074 128.26406256639166 L 195.2781250560074 143.78749992959206 L 195.29843752960443 146.67499991039517 L 195.2781250560074 147.53515622399277 L 195.2562499584048 151.65234380798643 L 195.2359374848078 153.59765626878948 L 195.2359374848078 160.45859368959213 L 195.2156250112108 161.31875000318973 L 195.2156250112108 162.1578125311877 L 195.2578125824104 165.639843839989 L 195.2359374848078 167.81093744639077 L 195.2156250112108 169.20312504319008 L 195.2156250112108 176.9445312511874 L 195.19531253760215 179.1976562687894 L 195.19531253760215 189.0687500287895 L 195.17500006400513 190.66640629759058 L 195.2156250112108 195.49921873918504 L 195.2156250112108 196.25703116798536 L 195.19531253760215 200.35312496639085 L 195.19531253760215 201.47968757759077 L 195.17500006400513 204.7976562687894 L 195.19531253760215 207.60312504319006 L 195.2156250112108 213.62421882878994 L 195.2359374848078 217.82265630719485 L 195.2359374848078 218.27343749118734 L 195.2562499584048 221.4070312959841 L 195.2562499584048 222.0007813119912 L 195.2578125824104 222.7171874815947 L 195.2578125824104 223.6390625279862 L 195.2781250560074 224.27421880319014 L 195.29843752960443 230.39765626878943 L 195.19531253760215 236.72578129918543 L 195.19531253760215 250.22187499519202 L 195.17500006400513 253.37578127358574 L 195.17500006400513 255.99765626878946 L 195.15468759040814 258.0453124095918 L 195.15468759040814 261.13828126719454 L 195.17500006400513 262.8171874303837 L 195.19531253760215 268.01953116159416 L 195.19531253760215 269.1867187199881 L 195.2156250112108 273.0781249535852 L 195.2156250112108 276.53906247678674 L 195.2359374848078 279.7953124351916 L 195.2359374848078 281.49531258878994 L 195.19531253760215 283.19531253759055 L 195.2156250112108 287.06562498558776 L 195.2156250112108 305.4976563199889 L 195.19531253760215 307.1976562687894 L 195.19531253760215 308.6515625983942 L 195.2156250112108 311.31406254079195 L 195.2578125824104 312.972656230384 L 195.2156250112108 313.4640625663917 L 195.13437491200165 314.6726561791845 L 195.11406243840466 316.33125007358615 L 195.19531253760215 318.68671877118754 L 195.11406243840466 319.60859381759076 L 195.13437491200165 321.36953118719396 L 195.13437491200165 325.52734371839324 L 195.15468759040814 327.6164063231903 L 195.2156250112108 330.0734375935863 L 195.2156250112108 330.770312601584 L 195.2562499584048 332.2851563519914 L 195.2578125824104 332.7976562687894 L 195.19531253760215 333.28906239998764 L 195.17500006400513 333.90312509438957 L 195.19531253760215 334.7632812031894 L 195.2156250112108 335.66484377598385 L 195.19531253760215 338.38828134399375 L 195.19531253760215 342.93515632639173 L 195.17500006400513 344.18437509118814 L 195.15468759040814 345.5773437951924 L 195.15468759040814 348.97656258558857 L 195.17500006400513 349.9390625791857 L 195.15468759040814 351.1070312447846 L 195.15468759040814 355.0593748991844 L 195.14687508480856 355.2203124735854 L 195.14062499840512 359.987500031991 L 195.15468759040814 360.36328120318944 L 195.14999992321245 361.79843747839334 L 195.13437491200165 366.9171875839936 L 195.13281249280553 366.989062553586 L 195.1296874496038 369.1023437823867 L 195.13437491200165 369.4359375871951 L 195.1296874496038 370.0679688191856 L 195.12343756800982 374.48359383038473 L 195.15468759040814 378.59062497279376 L 195.13437491200165 380.0039061503951 L 195.15468759040814 381.3351563263917 L 195.15468759040814 383.9773437951924 L 195.13437491200165 387.62265620478433 L 195.14843750400468 389.0835937279859 L 195.15468759040814 389.8140624895925 L 195.17500006400513 390.6328125439934 L 195.17500006400513 391.1859374079853 L 195.16718755840557 391.58359367678645 L 195.15156254720642 392.31484375038417 L 195.14843750400468 392.39843758079223 L 195.14843750400468 394.99062497279374 L 195.14843750400468 395.00781240318906 L 195.14999992321245 395.6726562815951 L 195.14843750400468 395.8257813503849 L 195.15156254720642 408.644531199988 L 195.15312496640254 409.3398437887896 L 195.15312496640254 411.1445311487885 L 195.15468759040814 411.19531253759055 L 195.15312496640254 412.6312499199878 L 195.15312496640254 412.8265625599888 L 195.15468759040814 412.9273438207922 L 195.15468759040814 415.33046865918436 L 195.15468759040814 422.28750008319037 L 195.15468759040814 425.09374996478437 L 195.15468759040814 455.14503024638395 L 195.13437491200165 456.88593756158366 L 195.09374996480764 459.4460938239936 L 195.07343749121065 460.0804687871947 L 195.07343749121065 460.77734379519245 L 195.05156259840587 465.4257813503849 L 195.05312501760199 471.97968752639133 L 195.05156259840587 472.3890624511871 L 195.05156259840587 473.1062499327934 L 195.03124992001102 473.78203115519136 L 195.03124992001102 483.75546879998876 L 195.01093744640238 486.3562500095926 L 195.01093744640238 495.9203125247848 L 194.9906249728054 498.7265624063905 L 194.9906249728054 513.6562499583931 L 195.01093744640238 516.8515624959837 L 195.03124992001102 524.3671875583939 L 195.05156259840587 525.8828124159947 L 195.05156259840587 527.0710937599885 L 195.05156259840587 529.5898437631898 L 195.03124992001102 532.1289062399883 L 195.03124992001102 537.5773437951924 L 195.01093744640238 543.0250000383937 L 195.01093744640238 548.9640624127933 L 194.9906249728054 551.6468750335858 L 194.9906249728054 560.5968750591855 L 194.97031249920838 562.5421875199885 L 194.97031249920838 571.205468774389 L 194.95000002561136 574.1953124351916 L 194.95000002561136 581.4250000383938 L 194.92968755200272 584.5578125311877 L 194.92968755200272 592.0124999679858 L 194.90937507840573 596.150000025588 L 194.90937507840573 599.8773438463919 L 194.8265625600121 608.7656249343884 L 194.8468750336091 611.7351563263917 L 194.8671875072061 614.1109374975902 L 194.8671875072061 621.3609375743894 L 194.8468750336091 627.709375078394 L 194.8468750336091 630.5972656127881 L 194.8265625600121 635.3484374015941 L 194.8265625600121 639.9769530367921 L 194.8468750336091 640.8578125823872 L 194.8265625600121 642.3730468863854 L 194.80625008640345 642.967187455995 L 194.76562493441162 646.6125000703847 L 194.80625008640345 647.8617188351927 L 194.8265625600121 648.4968749055872 L 194.7859374080086 649.1519531007856 L 194.7859374080086 650.2375000063912 L 194.80625008640345 650.7699218431837 L 194.80625008640345 653.6167968767928 L 194.7859374080086 654.7023437823867 L 194.74531246080295 655.9105468415888 L 194.76562493441162 663.1398436863907 L 194.76562493441162 674.2605469695875 L 194.74531246080295 675.489453055989 L 194.74531246080295 677.6601563135861 L 194.72499998720596 679.6058593279915 L 194.72499998720596 684.7257812991854 L 194.74531246080295 688.9855469567934 L 194.72499998720596 691.3410156543948 L 194.72499998720596 695.9972657151869 L 194.70624993280506 697.7570312191849 L 194.70468751360895 697.9355467775837 L 194.6984374272055 698.9812500479864 L 194.68437504001196 701.5195312127937 L 194.68437504001196 704.9601562623866 L 194.6984374272055 705.8718750719912 L 194.70468751360895 706.2296875007917 L 194.70468751360895 707.5816407039878 L 194.66249994240934 710.1621094399947 L 194.62187499520368 712.251171839994 L 194.62187499520368 713.76640634879 L 194.6015625216067 716.838281215995 L 194.52031242240918 720.8933593087946 L 194.56093757441266 722.6957031423924 L 194.56093757441266 727.3855469567934 L 194.58125004800968 729.4949218303897 L 194.56093757441266 733.5093749759951 L 194.56093757441266 734.7585937407915 L 194.55937495040706 734.9167968255933 L 194.5421875200118 738.0140625919914 L 194.54062510080402 738.3410155519844 L 194.54062510080402 748.13203128319 L 194.56093757441266 749.1148437503841 L 194.56093757441266 751.1218749439926 L 186.51249991680962 751.0808594431844 L 179.0781249536085 751.0605469695874 L 177.78757632001071 751.0605486079934 L 173.3843750912114 751.0195312639931 L 167.95717632001032 750.958149631985 L 162.20229632001138 750.9171896319953 L 153.2109375488013 750.8351561727934 L 151.5109376000124 750.8351561727934 L 150.67205632000696 750.8147896319861 L 147.76389632000354 750.8147896319861 L 146.47343759360956 750.7941406719852 L 145.36718745600666 750.7941406719852 L 144.22085632000818 750.8147896319861 L 143.23781632001047 750.8147896319861 L 142.76718755840557 750.8351561727934 L 139.6750000128057 750.8351561727934 L 138.65029632000952 750.8147896319861 L 136.84805632000788 750.8147896319861 L 135.82343741441144 750.7941406719852 L 133.1203125248081 750.7941406719852 L 132.07621632000664 750.8147896319861 L 129.4138163200114 750.8147896319861 L 127.87812495360849 750.7941406719852 L 127.14062499840512 750.7941406719852 L 126.28037632000633 750.8147896319861 L 119.09189632000634 750.8147896319861 L 117.3718749184045 750.7941406719852 L 115.30309632000281 750.7738288127933 L 113.74687498240965 750.7738288127933 L 112.41562501121079 750.7941406719852 L 104.34687508480856 750.7941406719852 L 103.52656240640208 750.7738281983882 L 102.27781632001279 750.8147896319861 L 93.04133632000303 750.8147896319861 L 91.89374996480765 750.7941406719852 L 86.13906247681007 750.7941406719852 L 76.67812495360849 750.773829222389 L 75.9000000512111 750.7941406719852 L 72.25468743680976 750.7941406719852 L 68.62917632000753 750.8147896319861 L 56.44357632000465 750.8147896319861 L 55.357812531210946 750.7941406719852 L 52.47045632001245 750.8147896319861 L 51.077816320012786 750.8147896319861 L 44.46277632000856 750.7943096319912 L 39.220312473608644 750.7941406719852 L 34.87813632000471 750.7738288127933 L 30.147256320004818 750.7738288127933 L 25.478124953608493 750.7941406719852 L 16.856249958404806 750.8351561727934 L 13.394616320007481 750.8557496319875 L 12.410937548801304 750.8761718783877 L 9.482936320011504 750.8967096319888 L 7.803576320002321 750.8967096319888 L 4.929687552002724 750.9171875839936 L 2.2125000704079865 750.9375000575907 L 0.0 750.9763741861519" fill="none"/><path stroke="#000000" stroke-width="2" d="M 1024.0 614.3151264552449 L 1023.8984374272055 614.315625062387 L 1022.3828125696048 614.315625062387 L 1013.1468750848086 614.29531258879 L 1010.8531249152031 614.2742188031901 L 1008.026562560012 614.2749999103951 L 1003.6640624640044 614.29531258879 L 999.9359375360073 614.29531258879 L 998.2984374272055 614.315625062387 L 996.9265625088126 614.29531258879 L 991.5187499008025 614.29531258879 L 990.8437499904073 614.315625062387 L 964.9562499072053 614.315625062387 L 962.6828124160063 614.29531258879 L 954.3484375040047 614.29531258879 L 947.0984374272055 614.2749999103951 L 944.0468750336091 614.2742188031901 L 936.2843750400119 614.2742188031901 L 935.3687500800122 614.296875007986 L 927.0687500288128 614.2539063295932 L 926.290624921606 614.2539063295932 L 924.7140624384047 614.2335936511867 L 921.4984374272055 614.2335936511867 L 915.7234374656109 614.2132811775897 L 908.5953124352033 614.1929687039926 L 901.8375000064028 614.1718749183929 L 899.4406250496046 614.1718749183929 L 895.8984374272055 614.1515624447842 L 893.9531249664026 614.1515624447842 L 890.4703125504078 614.1312499711872 L 885.5359375360073 614.1109374975902 L 884.8390625280095 614.1109374975902 L 878.5109374976018 614.0906250239932 L 876.9546874880092 614.0906250239932 L 874.9874999296037 614.0695312383934 L 874.2093750272063 614.0695312383934 L 870.2984374272055 613.9468750847852 L 854.6109374464024 613.9468750847852 L 849.0812499968102 613.9265624063904 L 844.6578124800114 614.0085938175907 L 842.485937561607 613.9671875583939 L 841.053125017602 613.9468750847852 L 840.540625100804 613.9468750847852 L 839.557812428812 613.9671875583939 L 830.7515625472064 613.9671875583939 L 829.2968749056105 613.9468750847852 L 827.6999999488122 613.9468750847852 L 823.9312500736094 613.9265624063904 L 821.2687499264023 613.9265624063904 L 819.63125002241 614.1109374975902 L 818.8734375936095 613.9265624063904 L 808.8578125824104 613.9265624063904 L 807.9859374080086 613.8875000831904 L 807.9171874816063 613.9000000511878 L 807.8437500928063 613.8945312767871 L 807.7734375424101 613.8914062335855 L 806.2578124800115 613.9265624063904 L 802.2437500928063 613.9062499327935 L 794.9312499712105 613.9062499327935 L 793.4984374272055 613.8851563519914 L 793.2641228800057 613.8882803711924 L 791.5937499136082 613.9062499327935 L 789.832812544005 613.9062499327935 L 781.968810393603 613.9671871487866 L 778.9781854208093 613.9882809343865 L 778.159374950407 614.0085942271864 L 777.012500070408 614.0492185599869 L 775.1687499776017 614.0289062911877 L 767.8984374272055 614.0906250239932 L 763.884375040012 614.0906250239932 L 762.0000000000116 614.1109374975902 L 758.0062500864035 614.1312497663894 L 755.0984374272055 614.0906250239932 L 751.6578729984118 614.0906250239932 L 750.592187596811 614.1109374975902 L 745.3906249728054 614.1109374975902 L 742.093496115203 614.1312460799934 L 738.4484374528053 614.090625228791 L 735.3968750592088 614.1312499711872 L 732.7750000640051 614.1312501759851 L 731.6484374528052 614.1515624447842 L 727.2235460608033 614.1515735039836 L 724.5421875200118 614.1718749183929 L 720.8562499584048 614.1929687039926 L 716.6984374272055 614.1929689087905 L 713.2984375296044 614.2539063295932 L 698.5937500160071 614.2539063295932 L 697.7546874880093 614.2335936511867 L 697.1187499008025 614.2335936511867 L 696.5250000896049 614.2539063295932 L 695.7265625088127 614.2539063295932 L 695.0718750720029 614.2749999103951 L 694.3546875904082 614.2749999103951 L 692.5312499712105 614.3359375359839 L 692.4296873984043 614.8480468991911 L 692.3265624064021 615.4828124159947 L 691.6515624960069 616.0972656639875 L 690.810937548813 616.3429687295924 L 690.3812499456108 616.4046874623862 L 689.9312500736094 616.4863281151862 L 688.8249999360065 617.387499929592 L 688.3546875904082 618.2066405375838 L 688.4359335936024 618.9441052671871 L 688.8864563200041 619.3741496319883 L 689.4189363200101 619.7018296319875 L 690.0126177280093 620.1726803967846 L 690.9139763200074 620.357189631986 L 691.7124999168096 619.9476561919903 L 692.3265624064021 620.2753906687838 L 692.4296873984043 621.3812500479864 L 691.9171874816063 622.0367187967873 L 691.3437499392079 622.3847655423917 L 691.0984374272055 623.1015624703839 L 691.4265079808072 623.8795585535933 L 692.7359375360072 623.4085937151918 L 693.3515624448075 623.5929688063916 L 693.2890624000108 624.5351563263918 L 692.5109374976018 625.2109375487896 L 691.4671874048072 625.558984294394 L 691.7328125952045 626.5011718143942 L 691.7734375424101 627.3406251007924 L 691.6515624960069 627.8734374911874 L 691.3843750912114 628.4058593279915 L 691.0375000064029 628.7949217791902 L 690.3610222592018 629.3069672447862 L 690.5862629376119 629.9826894847909 L 691.3440563200041 629.6960696319933 L 691.8765625344124 629.8597656575846 L 692.5734375424101 630.3105468415888 L 693.1468750848086 630.5152344063856 L 693.6999999488122 630.6996092927875 L 693.2687499264023 631.2320313343895 L 692.3890624512103 631.3343750143889 L 691.8968750080094 631.7031249919906 L 691.5281250304076 632.0105467903893 L 691.1597363200038 632.2765496319859 L 690.6687500288128 632.522265599994 L 689.5625000960077 632.8296873983927 L 689.2343750656116 633.01367193599 L 688.7437500416069 633.3621094399947 L 688.1281249280088 633.7921875967877 L 687.4734364672098 634.4882831359864 L 687.0031249408028 635.1437500415952 L 687.0022963200114 635.5131267071935 L 687.0022963200114 635.8400696319877 L 687.5142963200109 636.290629631991 L 688.0062500864035 636.4339843071881 L 688.5178163200035 636.6183096319903 L 689.2346163200098 637.0074296319857 L 689.6646963200067 637.335109631985 L 690.1156249600114 637.7855469567934 L 690.3000000512111 638.3386718207854 L 689.9921874944121 639.0351562751923 L 689.6437499904074 639.5468750847853 L 689.2953124864027 639.9566405631952 L 688.9890625536093 640.6937499647844 L 689.1125000192085 641.8816405503894 L 689.706250035204 642.270703206386 L 690.5250000896049 642.8441405439866 L 691.0375000064029 643.8273437695927 L 691.8156249088119 644.5031249919906 L 692.1640624128049 644.8511719423929 L 692.757812428812 645.3632813055883 L 693.4941982720047 645.81367193599 L 694.3546875904082 645.81367193599 L 695.1533363200026 645.9162296319846 L 695.9110963200103 646.3463096319931 L 695.9315763200051 646.9607096319902 L 695.7882163200062 647.5955896319938 L 695.5629363200045 648.3943096319912 L 695.3171875840053 649.3773436927935 L 695.7677363200113 650.2375096319942 L 696.8734375936095 650.2988281855942 L 697.6109363200027 650.2784696319839 L 698.737336320011 650.8314296319847 L 699.1264563200064 651.2205496319918 L 699.884375040012 652.0808593407855 L 700.3552563200122 652.6746296319877 L 701.0925363200018 653.2275896319886 L 701.5433205760085 653.2480276479852 L 702.5261367296101 653.0637510655913 L 703.1203125248081 652.6335936511866 L 703.8781249536084 652.9203124223859 L 704.6156249088119 653.1867187199881 L 706.5203124224092 653.7191405567922 L 707.3187500032014 654.087890534394 L 707.7690163200023 654.6202296319883 L 708.1990963200108 654.9274296319927 L 708.9568563200068 655.2960696319933 L 709.612499968009 655.9718750207918 L 710.0831612928072 656.9957031935919 L 710.5749999616062 656.9957031935919 L 711.1281250304077 657.4464843775844 L 711.0046875648084 658.3269531647908 L 710.2671874048071 658.6546874367865 L 702.485937561607 658.6546874367865 L 696.1363763200119 658.6343096319936 L 692.6752563200076 658.6343096319936 L 691.0984374272055 658.6136719359899 L 677.5000000512111 658.6546874367865 L 665.4778163200128 658.6752696319949 L 664.9250000896049 658.6546874367865 L 663.818749952002 658.6546874367865 L 662.672056320007 658.6343096319936 L 661.4022963200114 658.6343096319936 L 658.1046874112101 658.6546874367865 L 654.6234374144115 658.6546874367865 L 651.1622963200091 658.6752696319949 L 644.1990963200108 658.6752696319949 L 642.7859374080086 658.6546874367865 L 639.8778163200128 658.6752696319949 L 632.9760563200107 658.6752696319949 L 631.0921875456115 658.6957031423924 L 629.1053363200044 658.6752696319949 L 619.8278963200049 658.6752696319949 L 617.2671875072061 658.6957031423924 L 614.5234374656109 658.6957031423924 L 588.6778163200128 658.7367096319911 L 576.5946163200075 658.7367096319911 L 563.0778163200127 658.7162296319846 L 557.4458163200063 658.6752696319949 L 553.6156250112108 658.6101563391858 L 537.4859374592081 658.6921875455882 L 527.9203125248081 658.7125000191852 L 504.53281259520446 658.7125000191852 L 498.83906252800955 658.6921875455882 L 495.685937561607 658.6921875455882 L 486.2031249408028 658.7125000191852 L 485.05625006080373 658.6921875455882 L 467.0140624896041 658.6921875455882 L 460.68593745920805 658.7125000191852 L 409.48437504001197 658.7125000191852 L 407.0078124032123 658.6921875455882 L 400.3312500736094 658.7125000191852 L 399.04062504960456 658.7125000191852 L 393.6750000128057 658.7332030463847 L 392.89687490561045 658.7328124927939 L 388.06250004480825 658.7328124927939 L 383.88437504001195 658.7332030463847 L 376.02031247360867 658.7125000191852 L 366.759375052806 658.7125000191852 L 366.7594625024125 658.7162296319846 L 366.7565363200032 658.7162296319846 L 366.9203124224092 665.5769530367921 L 366.9203124224092 671.2500000767875 L 366.940625100804 676.8410157055944 L 366.940625100804 678.1312499711872 L 366.9609375744127 686.3027343359893 L 366.9609375744127 691.1769530367922 L 366.98125004800966 693.5527344127884 L 366.98125004800966 696.1128906751867 L 366.9609375744127 698.5089843199937 L 366.9609375744127 700.9460936703952 L 366.940625100804 703.178515660786 L 366.9203124224092 704.3457032191916 L 366.89989632000214 707.0899896319839 L 366.85893632001245 710.8378296319861 L 366.85893632001245 711.5136696319911 L 366.8794163200073 714.7495096319938 L 366.8794163200073 715.8759096319903 L 366.89989632000214 716.7565496319905 L 366.89989632000214 718.2311096319929 L 366.9203124224092 725.2968749055872 L 366.9203124224092 731.2972656639874 L 366.89989632000214 742.2336696319865 L 366.8794163200073 746.1248696319875 L 366.8794163200073 750.9171881983872 L 363.0086963200127 750.917190041591 L 358.2781249536085 750.9375000575907 L 334.25477632001275 750.9171886079945 L 307.0781249536085 750.9171886079945 L 301.05625006080373 750.9375000575907 L 288.7640625152038 750.9375000575907 L 283.07499991040675 750.9375000575907 L 281.4778163200128 750.958149631985 L 264.6637363200076 750.958149631985 L 262.3703126016073 750.9785155583871 L 255.8781249536085 751.060546355194 L 254.40312504320173 751.0808594431844 L 248.07500001280567 751.1218749439926 L 242.46406246400437 751.1628906495869 L 241.2343750656117 751.1628906495869 L 235.02917632000754 751.1424696319853 L 228.20933632000816 751.1424696319853 L 215.1843749888125 751.1218749439926 L 205.47656253441238 751.1628906495869 L 197.4890625024098 751.1628906495869 L 194.56093757441266 751.1218749439926 L 194.56093757441266 749.1148437503841 L 194.54062510080402 748.13203128319 L 194.54062510080402 738.3410155519844 L 194.5421875200118 738.0140625919914 L 194.55937495040706 734.9167968255933 L 194.56093757441266 734.7585937407915 L 194.56093757441266 733.5093749759951 L 194.58125004800968 729.4949218303897 L 194.56093757441266 727.3855469567934 L 194.56093757441266 722.6957031423924 L 194.52031242240918 720.8933593087946 L 194.6015625216067 716.838281215995 L 194.62187499520368 713.76640634879 L 194.62187499520368 712.251171839994 L 194.66249994240934 710.1621094399947 L 194.70468751360895 707.5816407039878 L 194.70468751360895 706.2296875007917 L 194.6984374272055 705.8718750719912 L 194.68437504001196 704.9601562623866 L 194.68437504001196 701.5195312127937 L 194.6984374272055 698.9812500479864 L 194.70468751360895 697.9355467775837 L 194.70624993280506 697.7570312191849 L 194.72499998720596 695.9972657151869 L 194.72499998720596 691.3410156543948 L 194.74531246080295 688.9855469567934 L 194.72499998720596 684.7257812991854 L 194.72499998720596 679.6058593279915 L 194.74531246080295 677.6601563135861 L 194.74531246080295 675.489453055989 L 194.76562493441162 674.2605469695875 L 194.76562493441162 663.1398436863907 L 194.74531246080295 655.9105468415888 L 194.7859374080086 654.7023437823867 L 194.80625008640345 653.6167968767928 L 194.80625008640345 650.7699218431837 L 194.7859374080086 650.2375000063912 L 194.7859374080086 649.1519531007856 L 194.8265625600121 648.4968749055872 L 194.80625008640345 647.8617188351927 L 194.76562493441162 646.6125000703847 L 194.80625008640345 642.967187455995 L 194.8265625600121 642.3730468863854 L 194.8468750336091 640.8578125823872 L 194.8265625600121 639.9769530367921 L 194.8265625600121 635.3484374015941 L 194.8468750336091 630.5972656127881 L 194.8468750336091 627.709375078394 L 194.8671875072061 621.3609375743894 L 194.8671875072061 614.1109374975902 L 194.8468750336091 611.7351563263917 L 194.8265625600121 608.7656249343884 L 194.90937507840573 599.8773438463919 L 194.90937507840573 596.150000025588 L 194.92968755200272 592.0124999679858 L 194.92968755200272 584.5578125311877 L 194.95000002561136 581.4250000383938 L 194.95000002561136 574.1953124351916 L 194.97031249920838 571.205468774389 L 194.97031249920838 562.5421875199885 L 194.9906249728054 560.5968750591855 L 194.9906249728054 551.6468750335858 L 195.01093744640238 548.9640624127933 L 195.01093744640238 543.0250000383937 L 195.03124992001102 537.5773437951924 L 195.03124992001102 532.1289062399883 L 195.05156259840587 529.5898437631898 L 195.05156259840587 527.0710937599885 L 195.05156259840587 525.8828124159947 L 195.03124992001102 524.3671875583939 L 195.01093744640238 516.8515624959837 L 194.9906249728054 513.6562499583931 L 194.9906249728054 498.7265624063905 L 195.01093744640238 495.9203125247848 L 195.01093744640238 486.3562500095926 L 195.03124992001102 483.75546879998876 L 195.03124992001102 473.78203115519136 L 195.05156259840587 473.1062499327934 L 195.05156259840587 472.3890624511871 L 195.05312501760199 471.97968752639133 L 195.05156259840587 465.4257813503849 L 195.07343749121065 460.77734379519245 L 195.07343749121065 460.0804687871947 L 195.09374996480764 459.4460938239936 L 195.13437491200165 456.88593756158366 L 195.15468759040814 455.14503024638395 L 195.15468759040814 425.09374996478437 L 195.15468759040814 422.28750008319037 L 195.15468759040814 415.33046865918436 L 195.15468759040814 412.9273438207922 L 195.15312496640254 412.8265625599888 L 195.15312496640254 412.6312499199878 L 195.15468759040814 411.19531253759055 L 195.15312496640254 411.1445311487885 L 195.15312496640254 409.3398437887896 L 195.15156254720642 408.644531199988 L 195.14843750400468 395.8257813503849 L 195.14999992321245 395.6726562815951 L 195.14843750400468 395.00781240318906 L 195.14843750400468 394.99062497279374 L 195.14843750400468 392.39843758079223 L 195.15156254720642 392.31484375038417 L 195.16718755840557 391.58359367678645 L 195.17500006400513 391.1859374079853 L 195.17500006400513 390.6328125439934 L 195.15468759040814 389.8140624895925 L 195.14843750400468 389.0835937279859 L 195.13437491200165 387.62265620478433 L 195.15468759040814 383.9773437951924 L 195.15468759040814 381.3351563263917 L 195.13437491200165 380.0039061503951 L 195.15468759040814 378.59062497279376 L 195.12343756800982 374.48359383038473 L 195.1296874496038 370.0679688191856 L 195.13437491200165 369.4359375871951 L 195.1296874496038 369.1023437823867 L 195.13281249280553 366.989062553586 L 195.13437491200165 366.9171875839936 L 195.14999992321245 361.79843747839334 L 195.15468759040814 360.36328120318944 L 195.14062499840512 359.987500031991 L 195.14687508480856 355.2203124735854 L 195.15468759040814 355.0593748991844 L 195.15468759040814 351.1070312447846 L 195.17500006400513 349.9390625791857 L 195.15468759040814 348.97656258558857 L 195.15468759040814 345.5773437951924 L 195.17500006400513 344.18437509118814 L 195.19531253760215 342.93515632639173 L 195.19531253760215 338.38828134399375 L 195.2156250112108 335.66484377598385 L 195.19531253760215 334.7632812031894 L 195.17500006400513 333.90312509438957 L 195.19531253760215 333.28906239998764 L 195.2578125824104 332.7976562687894 L 195.2562499584048 332.2851563519914 L 195.2156250112108 330.770312601584 L 195.2156250112108 330.0734375935863 L 195.15468759040814 327.6164063231903 L 195.13437491200165 325.52734371839324 L 195.13437491200165 321.36953118719396 L 195.11406243840466 319.60859381759076 L 195.19531253760215 318.68671877118754 L 195.11406243840466 316.33125007358615 L 195.13437491200165 314.6726561791845 L 195.2156250112108 313.4640625663917 L 195.2578125824104 312.972656230384 L 195.2156250112108 311.31406254079195 L 195.19531253760215 308.6515625983942 L 195.19531253760215 307.1976562687894 L 195.2156250112108 305.4976563199889 L 195.2156250112108 287.06562498558776 L 195.19531253760215 283.19531253759055 L 195.2359374848078 281.49531258878994 L 195.2359374848078 279.7953124351916 L 195.2156250112108 276.53906247678674 L 195.2156250112108 273.0781249535852 L 195.19531253760215 269.1867187199881 L 195.19531253760215 268.01953116159416 L 195.17500006400513 262.8171874303837 L 195.15468759040814 261.13828126719454 L 195.15468759040814 258.0453124095918 L 195.17500006400513 255.99765626878946 L 195.17500006400513 253.37578127358574 L 195.19531253760215 250.22187499519202 L 195.19531253760215 236.72578129918543 L 195.29843752960443 230.39765626878943 L 195.2781250560074 224.27421880319014 L 195.2578125824104 223.6390625279862 L 195.2578125824104 222.7171874815947 L 195.2562499584048 222.0007813119912 L 195.2562499584048 221.4070312959841 L 195.2359374848078 218.27343749118734 L 195.2359374848078 217.82265630719485 L 195.2156250112108 213.62421882878994 L 195.19531253760215 207.60312504319006 L 195.17500006400513 204.7976562687894 L 195.19531253760215 201.47968757759077 L 195.19531253760215 200.35312496639085 L 195.2156250112108 196.25703116798536 L 195.2156250112108 195.49921873918504 L 195.17500006400513 190.66640629759058 L 195.19531253760215 189.0687500287895 L 195.19531253760215 179.1976562687894 L 195.2156250112108 176.9445312511874 L 195.2156250112108 169.20312504319008 L 195.2359374848078 167.81093744639077 L 195.2578125824104 165.639843839989 L 195.2156250112108 162.1578125311877 L 195.2156250112108 161.31875000318973 L 195.2359374848078 160.45859368959213 L 195.2359374848078 153.59765626878948 L 195.2562499584048 151.65234380798643 L 195.2781250560074 147.53515622399277 L 195.29843752960443 146.67499991039517 L 195.2781250560074 143.78749992959206 L 195.2781250560074 128.26406256639166 L 195.2562499584048 127.09609369599491 L 195.2781250560074 125.53984368639067 L 195.2781250560074 124.96640634879009 L 195.29843752960443 124.0039061503951 L 195.29843752960443 120.8703125503846 L 195.31875000320142 115.58671871998808 L 195.31875000320142 107.02578135038493 L 195.33906247681006 102.39765626878943 L 195.33906247681006 86.01352355838753 L 195.33906247681006 81.26250004478493 L 195.35937495040707 80.34062499839342 L 195.35937495040707 79.6445313023869 L 195.33906247681006 76.79765626878941 L 195.33906247681006 75.22031247358541 L 195.3796874240041 65.04218746878905 L 195.3796874240041 58.85703127038437 L 195.35937495040707 57.8539063295932 L 195.35937495040707 47.1015624703839 L 195.50312509441284 44.0906250239932 L 195.39999989761273 41.817968844785355 L 195.35937495040707 40.95781253118764 L 195.46249994240935 38.04921876478477 L 195.4517309440067 37.71652894718568 L 195.44133632000302 37.37350963199276 L 195.35941632001195 35.10022963199299 L 195.35941632001195 31.454789631988433 L 195.35941632001195 29.28390963198615 L 195.35941632001195 27.215429631993175 L 195.35941632001195 26.478149631991982 L 195.35941632001195 25.474629631987796 L 195.37989632000682 21.25574963198744 L 195.37989632000682 19.61734963199126 L 195.37989632000682 17.651269631984178 L 195.37989632000682 15.480389631993603 L 195.40037632000167 13.002309631987032 L 195.40037632000167 12.060229631990637 L 195.40037632000167 10.401349631987955 L 195.42085386241087 8.251207679987374 L 195.42085632000817 8.250949631992285 L 195.42031257600757 8.25078128639143 L 195.42031257600757 6.939843788789631 L 195.39999989761273 5.629687398392662 L 195.39999989761273 1.2468750335858658 L 195.3797255334037 0.0" fill="none"/><path stroke="#000000" stroke-width="2" d="M 1024.0 886.4819925576718 L 1023.7344563200022 886.0647096319823 L 1023.6320563200046 885.1226296319626 L 1023.5501363200135 884.6106296319747 L 1023.1200563200051 884.1600696319947 L 1022.6490163200185 883.5866296319873 L 1021.6250163200195 883.8938296319684 L 1021.2154163200175 884.1805496319779 L 1020.6214963200036 883.9347896319814 L 1019.8637363200075 884.0986296319636 L 1019.1059763200116 884.4467896319926 L 1018.4506163200131 884.7744696319685 L 1017.651896320004 884.5901496319915 L 1017.0374963200186 883.9552696319646 L 1016.3821363200084 883.2589496319764 L 1015.583416320011 883.0541496319813 L 1014.6618163200095 883.0951096319826 L 1014.7437363200239 883.6071096319705 L 1014.7846963200252 884.2215096319793 L 1014.5798963200184 884.6925496319891 L 1014.14981632001 884.4467896319926 L 1013.6378163200104 884.3034296319936 L 1012.982456320012 884.2010296319611 L 1012.7571763200336 883.6071096319705 L 1012.3885363200213 883.1565496319788 L 1011.8355763200321 883.2384696319932 L 1011.3440563200041 883.4637496320065 L 1011.057336320018 882.9517496319837 L 1011.2006963200168 882.1939896319643 L 1011.3645363200224 881.6615096319699 L 1011.1597363200156 881.1085496319807 L 1010.791096320015 880.985669631965 L 1010.320056320005 880.8013496319879 L 1009.9514163200045 880.1459896319778 L 1009.173176320002 880.2688696319935 L 1008.3744563200046 880.3917496319743 L 1007.7600563200074 880.6784696319722 L 1007.3504563200055 880.2279096319805 L 1007.6781363200164 879.4087096319766 L 1007.2275763200247 878.8147896319861 L 1006.1011763200164 878.507589632005 L 1006.1626163200242 877.831749632 L 1005.8554163200199 877.3811896319734 L 1005.261496320006 877.0944696319639 L 1004.5856563200243 877.1968696319615 L 1003.8688563200063 877.0125496319961 L 1003.7869363200036 876.4595896319719 L 1003.5206963200122 876.0909496319946 L 1003.0701363200089 876.0295096319635 L 1002.5786163200158 875.6813496319694 L 1002.8038963200058 874.8416696319822 L 1002.394296320004 874.3706296319724 L 1002.0461363200099 874.2477496319916 L 1001.4112563200295 874.145349631994 L 1001.1245363200084 873.7152696319856 L 1001.226936320006 873.1213496319949 L 1001.3088563200203 872.4250296319718 L 1001.2678963200073 871.7901496319682 L 1001.0426163200173 871.5239096319885 L 1000.6739763200051 871.2371896319789 L 1000.0800563200261 871.7082296320004 L 999.5270963200019 871.7491896319668 L 999.2813363200054 871.3395896319765 L 999.5885363200098 870.6227896319702 L 998.7693363200058 870.4999096319895 L 998.3392563200207 870.7251896319679 L 997.7248563200235 870.7661496319691 L 997.3152563200216 870.2951096319943 L 996.7008563200128 870.254149631993 L 996.0250163200078 870.069829631981 L 995.2672561152256 869.8445504511707 L 994.8166963200201 869.4759096319904 L 994.1818163200048 869.5373496319866 L 993.7107763200067 869.7626296319999 L 993.1578163200058 870.0288696319797 L 992.5024563200074 869.9879096319783 L 991.7446963200113 869.7011896319688 L 990.9459763200023 869.6397496319842 L 991.1507763200323 868.7591096319841 L 991.5808563200059 868.2471096319612 L 991.7446963200113 867.591749631986 L 991.7651763200062 866.9363896319643 L 991.9290163200116 866.383429631975 L 991.3965363200172 866.1786296319915 L 990.6592563200044 866.1376696319785 L 990.2701363200206 865.4413496319903 L 990.1882163200062 864.540229631972 L 989.6352563200053 864.4173496319912 L 989.4099763200036 865.2365496319951 L 989.1027763200225 865.8304696319974 L 988.6522163200076 866.3015096319723 L 988.0173348864307 866.7725481983623 L 987.3005363200093 866.0352696319809 L 986.7270963200019 865.0522296319948 L 986.2560563200037 864.9088696319959 L 986.0512563200085 864.3763896319899 L 986.0922163200215 863.8848696319968 L 985.8259763200185 863.3523896319908 L 984.8838963200105 863.0247096319799 L 984.5766963200061 862.3693496320047 L 984.0442163200235 861.8778296319651 L 983.6755763200111 862.1235896319616 L 983.2250144768157 862.5331900415825 L 982.8358963200124 862.7175096319988 L 982.2829363200115 862.697029631969 L 981.6685363200028 863.2090296319918 L 981.4227763200063 863.5981496319873 L 980.7264563200181 863.864389631967 L 980.2758963200031 863.8029496319825 L 979.9891763200052 863.5981496319873 L 979.6410163200111 863.4752696319716 L 979.1699763200129 863.1271096319775 L 978.9446963200229 862.6355896319844 L 979.1699763200129 862.205509631976 L 979.3747763200081 861.6935096319997 L 980.1325363200042 861.6115896319855 L 980.6240563200205 861.3453496320057 L 980.9517363200081 860.6080696319696 L 980.460216320015 860.1370296319947 L 980.2144563200185 859.5840696319705 L 979.9686963200336 858.9696696319618 L 979.4976563200238 858.9696696319618 L 978.8832563200151 859.4407096319716 L 978.1254963200306 860.014149631979 L 977.6544563200208 860.3213496319717 L 977.183416320011 860.1370296319947 L 977.2448563200189 859.6864696319681 L 976.8147763200104 859.4407096319716 L 976.3232563200174 859.5635896319873 L 975.74981632001 859.5840696319705 L 975.0944563200115 859.5635896319873 L 974.4390963200246 859.7888696319657 L 973.9270963200136 860.1575096319779 L 973.3946163200075 860.1370296319947 L 972.7597363200272 860.4237496320042 L 972.0224563200143 861.0381496319781 L 971.305656320008 861.22246963199 L 970.814136320015 860.7514296319684 L 970.4250163200079 860.4442296319874 L 970.0154163200059 860.1575096319779 L 969.6672563200118 859.7069496319862 L 969.6058163200039 859.1539896319737 L 969.4214963200153 858.5805496320012 L 968.7456563200103 858.2733496319736 L 968.0493363200105 858.4371896319906 L 967.5373363200109 858.6829496319988 L 967.2301363200182 857.986629631964 L 966.8614963200059 857.5155896319891 L 966.7386163200019 856.9831096319947 L 966.1651763200177 856.4506296319887 L 965.4688563200064 856.4301496319706 L 964.8954163200222 856.2663096319884 L 964.7520563200349 855.4471096319728 L 964.3014963200083 854.8531896319822 L 963.7894963200088 854.7917496319627 L 963.1341363200103 854.9146296319784 L 962.5811763200094 855.160389631975 L 962.3354163200245 855.692869631981 L 962.417336320004 856.2253496319754 L 962.1101363200112 856.7783096319647 L 961.6800563200028 857.5975096319686 L 961.1680563200032 858.1095096319914 L 960.7994163200143 857.9251896319795 L 960.8608563200221 857.2698296319926 L 960.5946163200191 856.8807096319622 L 960.2259763200069 857.3722296319902 L 959.7549363200087 857.5770296319854 L 959.2838963200222 857.9047096319613 L 958.7718963200226 857.4541496319696 L 958.9971763200126 856.9216696319636 L 959.2224563200259 856.3482296319911 L 958.8333363200072 855.5290296319872 L 958.812856320024 854.6893496319651 L 958.403256320022 854.3616696319892 L 957.8298163200146 854.4231096319854 L 957.3178163200151 854.5459896320011 L 956.8467763200053 855.0579896319774 L 956.4576563200214 854.7917496319627 L 956.785336320009 853.9315896319807 L 956.3347763200057 853.6039096319698 L 955.6998963200255 853.3786296320031 L 954.9216563200113 853.0919096319936 L 954.778296320024 852.5184696319862 L 954.4915763200028 851.9859896319801 L 954.1434163200087 851.9450296319789 L 953.7133363200235 851.8221496319632 L 953.2627763200086 851.8426296319813 L 952.8736563200131 852.1907896319753 L 952.3821363200201 852.6208696319839 L 951.7062963200151 852.641349631967 L 951.583416320011 851.658309631981 L 951.091896320018 851.1463096319931 L 950.7437363200239 850.8391096319654 L 950.2726963200141 850.4704696319881 L 949.740216320008 849.8970296319807 L 948.9210163200041 850.2861496319878 L 948.3680563200032 850.4090296319686 L 947.671736320015 850.3475896319724 L 947.2211763200233 850.0608696319745 L 946.7501363200136 849.9584696319769 L 946.2381363200141 849.7946296319831 L 945.4189363200101 849.6717496319674 L 944.5997363200062 849.2416696320055 L 943.2070963200065 849.9789496319951 L 942.5722163200146 849.815109631978 L 942.1421363200061 849.4874296319671 L 941.793976320012 849.0368696319754 L 942.019256320002 848.606789631967 L 942.5107763200183 848.2995896319742 L 943.104696320009 847.930949631962 L 943.0432563200244 847.0707896319916 L 943.2890163200209 846.4973496319842 L 943.1866163200233 845.6986296319635 L 943.5142963200109 845.309509632003 L 943.7805363200139 844.920389631961 L 943.104696320009 844.5107896319823 L 942.469816320017 844.4903096319874 L 941.8758963200031 844.2035896319896 L 941.4253363200114 843.6506296319654 L 942.2240563200205 842.8519096319797 L 942.1216563200229 842.1965496320045 L 941.9373363200109 841.7459896319779 L 941.38437632001 841.3773496319889 L 940.7699763200129 841.6026296319673 L 940.2579763200134 841.8688696319936 L 939.7050163200125 841.8483896319638 L 939.7664563200203 841.1520696319756 L 939.4387763200095 840.4147896319861 L 939.2954163200105 839.8413496319787 L 938.5990963200223 839.6160696319654 L 937.8822963200043 839.5546296319808 L 936.9811763200094 839.4931896319846 L 936.4282163200085 839.0426296319929 L 935.9776563200169 838.5511096319649 L 935.1789363200311 838.2439096319722 L 934.7283763200045 838.1005496319733 L 934.1549363200204 837.8752696319949 L 933.6224563200143 837.8547896319767 L 933.0080563200056 837.0970296319923 L 932.8646963200183 836.2163896320038 L 932.5370163200074 835.704389631981 L 932.1683763200068 835.9706296319607 L 931.4106163200107 836.3187896320014 L 931.0214963200153 835.704389631981 L 931.4515763200237 835.5610296319821 L 931.6358973440132 835.130950041581 L 931.3901363200159 834.6394292223849 L 930.5709363200236 834.5984690175974 L 930.058936320024 834.5575096319662 L 929.4854963200166 834.5165496319648 L 928.6253363200115 834.4960696319816 L 928.2362163200044 833.7178296319792 L 927.6832563200035 833.2058296320029 L 927.4989363200148 832.7143096319633 L 926.7411763200187 832.6733496319619 L 926.2496563200024 832.1818296320038 L 925.7786163200042 831.6083896319964 L 924.9389363200055 831.2397496319725 L 923.9558963200077 830.9325496319914 L 923.6691763200099 830.2157496319851 L 923.1981363200117 829.8471096319612 L 922.6656563200056 829.5399096319801 L 921.9078963200096 829.2941496319836 L 922.1126963200047 828.8231096319621 L 922.5632563200313 828.2701496319845 L 922.337976320018 827.3280696319998 L 921.9488563200226 826.8979896319913 L 921.5392563200206 826.181189631985 L 920.9043763200054 825.7715896319947 L 920.3718963200342 826.0173496319912 L 919.7574963200022 826.1197496319888 L 918.5696563200211 826.2426296319696 L 918.1395763200126 825.6282296319608 L 917.9347763200058 825.157189631986 L 917.402296320023 824.5632696319954 L 916.9926963200211 823.969349631993 L 916.3578163200058 823.8259896319942 L 915.8662963200244 823.4778296319652 L 915.2314163200092 822.7405496319756 L 914.6784563200083 822.2695096320007 L 914.0026163200033 822.2080696319696 L 912.8352563200053 822.3309496319853 L 912.3232563200057 822.2080696319696 L 911.5450163200032 821.9623096319731 L 910.3776563200051 821.5731896319776 L 909.9680563200033 821.3479096319992 L 909.5789363200195 820.9587896319921 L 909.2922163200099 820.5491896319785 L 908.9645363200223 820.1805496320012 L 908.6778163200245 819.8323896319605 L 908.3296563200071 819.1770296319853 L 908.1658163200016 818.8288696319912 L 907.838136320014 818.3168696319684 L 907.2237363200169 817.4157496319967 L 907.4490163200069 816.1050296319881 L 906.9984563200036 815.408709631965 L 905.6467763200169 815.1015096319722 L 905.4010163200204 814.7738296319731 L 904.9504563200055 813.7293496319908 L 905.2166963200085 812.9101496319752 L 905.2986163200228 811.8247096319916 L 905.1142963200109 811.1693496319698 L 904.6842163200024 809.5104696319788 L 904.4998963200021 808.7936696319724 L 904.295096320007 808.0154296319699 L 904.0902963200118 807.401029631996 L 903.4758963200031 806.8275896319886 L 902.2880563200218 806.192709631985 L 901.8989363200031 805.8240696319729 L 901.6941363200079 804.9843896319857 L 901.3869363200035 803.9194296319736 L 901.1002163200174 803.366469631996 L 900.6906163200154 802.6291896319948 L 900.3629363200046 802.1786296319682 L 899.8304563200218 801.7485496320063 L 898.4992563200183 800.9088696319726 L 895.8982963200193 799.2295096319634 L 895.4272563200095 799.004229631985 L 892.6624552960042 799.0451900415937 L 891.3926963200095 795.6659896319732 L 888.9555763200275 794.6829496319755 L 888.3616563200019 794.5395896319766 L 887.7882163200062 794.2323896319838 L 886.5389363200171 793.8637496319716 L 885.4330163200036 793.5770296319737 L 884.7776563200052 793.3722296319786 L 881.2346163200215 792.1639096319675 L 878.6746163200121 791.242309631966 L 877.118136320007 790.1363896319642 L 876.9747763200081 789.2557496319641 L 876.7085363200051 788.7027896319748 L 873.0221363200224 786.1427896319656 L 872.1005363200209 785.5283896319918 L 871.7114163200022 785.3850296319928 L 870.9741363200243 785.364549631963 L 870.3597363200155 785.4259896319942 L 867.8406963200075 785.5898296319763 L 866.4070963200065 785.405509631976 L 865.6902963200118 785.0163896319689 L 865.3626163200242 784.238149631978 L 865.075896320003 783.1527096319827 L 864.5229363200139 782.2515896319644 L 864.2566963200109 781.7600696319714 L 864.2771763200174 781.0023096319986 L 864.3590963200083 780.2650296319625 L 864.1542963200015 779.7120696319732 L 863.8266163200257 779.015749631985 L 863.560376320011 778.6471096319729 L 863.2122163200169 778.4218296319945 L 861.4714163200231 777.8893496320001 L 856.1466163200093 771.7863096319837 L 854.8768563200138 770.5984696319908 L 852.8493363200221 768.652869632002 L 852.3578163200058 768.0589496319648 L 850.3302963200142 765.5808696319698 L 849.7568563200068 764.8435896319686 L 849.0400563200121 763.3485496320063 L 848.3437363200122 762.8160696319653 L 845.763256320008 759.9693496319815 L 844.7187763200142 759.4983096319717 L 844.1862963200081 759.5187896319898 L 841.2576563200215 759.7645496319863 L 840.5408563200268 759.4573496319703 L 840.2746163200121 759.04774963198 L 839.6397363200085 757.8189496319974 L 839.0662963200244 756.6106296319864 L 838.10373632001 755.402309631987 L 836.7520563200117 755.1155896319775 L 835.0522163200076 755.2794296320062 L 833.1475763200084 755.1155896319775 L 832.7379763200064 754.8493496319628 L 831.673016320006 753.6615096319699 L 831.406776320003 753.0675896319793 L 831.0790963200154 752.350789631973 L 829.829816320003 749.4631096319878 L 830.3213363200193 747.312709631992 L 830.2394163200049 746.8416696319822 L 828.4781363200163 744.4455096320016 L 825.3446963200113 744.2611896319897 L 823.0918963200063 742.3770296319854 L 822.4979763200157 741.9469496319768 L 819.8150963200023 739.8784696319606 L 818.9344563200254 739.2435896319919 L 817.9923763200059 738.7930296319653 L 815.9034163200064 738.608709631965 L 814.7770163200097 738.5472696319688 L 812.5446963200113 738.424389631988 L 809.9642163200072 738.1991096319747 L 803.6358963200124 737.7280696319649 L 802.6118963200017 737.4618296319852 L 801.7926963200094 736.9907896319753 L 800.4000563200213 735.6595896319835 L 799.3965363200056 734.7584696319652 L 798.8435763200047 734.2669496319722 L 798.1472563200165 733.550149631966 L 797.3075763200061 732.894789631979 L 796.816056320013 732.6285496319645 L 796.222136320034 732.4442296319874 L 795.5667763200123 732.4237496319693 L 793.539256320009 732.4032696319861 L 792.1875763200339 732.1370296319714 L 789.8118963200134 731.0106296319748 L 786.7398963200045 729.2493496319861 L 784.9171763200196 727.1808696319698 L 784.2618163200211 726.525509631983 L 783.647416320024 726.0135096320067 L 783.0944563200231 725.6858296319609 L 782.5824563200237 725.5015096319839 L 782.0499763200175 725.358149631985 L 781.3536563200294 725.1943096320028 L 780.3501363200019 724.9690296319895 L 779.7152563200216 724.7847096319776 L 778.3635763200116 724.4160696319653 L 777.6672563200234 724.149829631974 L 776.9299763200106 723.658309631981 L 776.3565363200032 723.1053496319917 L 775.6602163200034 722.3271096320008 L 774.6566963200224 721.2416696319706 L 774.3904563200078 720.7706296319608 L 773.5098163200076 717.1866296319873 L 773.3664563200088 716.777029631962 L 773.0797365248203 716.3469494271791 L 771.1750963200117 714.5447096319637 L 770.7450163200032 714.094149631972 L 769.884916736011 711.7799096319941 L 769.2295567360125 709.6704696319764 L 768.983796736016 708.8307896319893 L 768.574196736014 708.1344696320011 L 767.9188367360155 707.5815096319769 L 767.0586767360219 707.0080696319695 L 766.3418767360156 706.5779896319611 L 761.6519567360053 704.0179896319867 L 760.2388367360109 699.5123896319768 L 759.2148367360118 697.4848696319619 L 758.6413967360044 696.0922296319856 L 758.2317967360025 695.3959096319625 L 757.5969167360105 694.2695096319658 L 757.6378767360118 693.6141496319906 L 757.0439567360212 692.1395896319649 L 756.3885967360227 691.1565496319672 L 756.0199567360221 690.6445496319909 L 753.5009167360025 687.0195896319696 L 751.6167567360098 684.2957496319781 L 750.6541967360187 683.1898296319647 L 749.9373967360123 681.5923896319931 L 748.1351567360107 677.6602296319907 L 747.8026276864227 676.9153646591934 L 747.6234979328234 676.5132812287775 L 746.1078728704015 675.3871093760011 L 743.6094353408087 673.7484374016058 L 742.6469353472115 672.8066406399827 L 741.7863567360212 670.0416696319822 L 741.1719354368048 669.26328115199 L 740.2093967360095 668.7104696320021 L 738.4281853952095 667.7070313471719 L 736.461556736019 666.662469631969 L 733.6148367360234 665.1879096319783 L 732.8365967360209 664.962629631965 L 730.8295567360125 664.7373496319866 L 729.9693967360188 664.3072696319781 L 728.2490767360199 663.4061496320064 L 727.5125604352099 662.9964843007969 L 726.487796736008 662.5664696319727 L 723.3542963200016 663.7338296319707 L 722.8013363200123 664.8807096319855 L 722.3499999232124 665.3109374975669 L 721.818296320003 665.5770296319737 L 720.1389363200054 665.986629631964 L 719.5040563200251 666.0685496319784 L 718.9514311680105 665.9252764671808 L 718.17343754241 665.2492187647731 L 717.4765625344123 664.8191406079917 L 716.4531249152147 664.1230469119619 L 715.3062500352156 663.3039063040051 L 714.7734374400228 663.2832030719612 L 714.4864563200157 662.7098296319716 L 714.1999998976128 661.6039061503834 L 713.4419763200101 661.1533496319782 L 711.8453125120025 660.0472655871766 L 710.9437499392195 659.0847655935911 L 711.0048563200049 658.3271096319775 L 711.1281250304194 657.4464843775844 L 710.5749999616179 656.9957031935803 L 710.0831612928072 656.9957031935803 L 709.612499968009 655.9718750207801 L 708.9568563200068 655.2960696319933 L 708.1990963200108 654.9274296319811 L 707.7690163200023 654.6202296319883 L 707.3187500032014 654.0878905344056 L 706.5203124224092 653.7191405567922 L 704.6156249088119 653.1867187199648 L 703.8781249536084 652.9203124223626 L 703.1203125248081 652.6335936511634 L 702.5261367296218 653.0637510655797 L 701.5433205760085 653.2480276479735 L 701.0925363200018 653.227589631977 L 700.355256320024 652.6746296319877 L 699.8843750400235 652.0808593407622 L 699.1264563200181 651.2205496319918 L 698.737336320011 650.8314296319847 L 697.6109363200027 650.2784696319723 L 696.8734375936095 650.2988281855942 L 695.767736320023 650.2375096319942 L 695.3171875840286 649.3773436927702 L 695.5629363200045 648.3943096319912 L 695.7882163200062 647.5955896319705 L 695.9315763200051 646.9607096319785 L 695.9110963200219 646.3463096320047 L 695.1533363200026 645.9162296319613 L 694.3546875904082 645.81367193599 L 693.4941982720047 645.81367193599 L 692.757812428812 645.3632813055883 L 692.1640624128165 644.8511719424044 L 691.8156249088236 644.503124991979 L 691.0375000064145 643.8273437696043 L 690.5250000896049 642.844140543975 L 689.706250035204 642.270703206386 L 689.1125000192085 641.8816405503894 L 688.9890625536325 640.6937499647844 L 689.2953124864027 639.9566405631834 L 689.643749990419 639.5468750847853 L 689.9921874944121 639.0351562751806 L 690.3000000512344 638.338671820797 L 690.115624960023 637.7855469567701 L 689.6646963200067 637.3351096319733 L 689.2346163200098 637.0074296319624 L 688.5178163200035 636.618309631967 L 688.0062500864035 636.4339843071997 L 687.5142963200109 636.290629631991 L 687.0022963200114 635.8400696319644 L 687.0022963200114 635.5131267072051 L 687.0031249408028 635.1437500415835 L 687.4734364672098 634.4882831359864 L 688.1281249280088 633.7921875967877 L 688.7437500416185 633.3621094399947 L 689.2343750656116 633.0136719360016 L 689.5625000960077 632.8296873983811 L 690.6687500288244 632.522265599994 L 691.1597363200156 632.2765496319741 L 691.5281250304076 632.0105467903777 L 691.8968750080094 631.7031249919906 L 692.3890624512103 631.3343750143889 L 693.2687499264023 631.2320313343778 L 693.6999999488122 630.6996092927642 L 693.1468750848086 630.5152344063856 L 692.5734375424217 630.3105468415888 L 691.876562534424 629.859765657573 L 691.3440563200041 629.6960696319817 L 690.5862629376236 629.9826894847909 L 690.3610222592135 629.3069672447862 L 691.0375000064145 628.7949217791669 L 691.3843750912114 628.4058593279915 L 691.6515624960186 627.8734374911874 L 691.7734375424218 627.3406251007807 L 691.7328125952045 626.5011718143942 L 691.4671874048188 625.5589842943707 L 692.5109374976134 625.210937548778 L 693.2890624000225 624.5351563263918 L 693.3515624448075 623.59296880638 L 692.7359375360072 623.4085937151801 L 691.4265079808189 623.87955855357 L 691.0984374272172 623.1015624703723 L 691.3437499392079 622.38476554238 L 691.917187481618 622.0367187967756 L 692.4296873984043 621.3812500479747 L 692.3265624064021 620.2753906687722 L 691.7124999168212 619.9476561919903 L 690.9139763200307 620.357189631986 L 690.0126177280093 620.1726803967613 L 689.4189363200218 619.7018296319642 L 688.8864563200041 619.3741496319999 L 688.435933593614 618.9441052671871 L 688.3546875904082 618.2066405375838 L 688.8249999360065 617.3874999295804 L 689.9312500736094 616.4863281151745 L 690.3812499456108 616.4046874623862 L 690.8109375488363 616.3429687295924 L 691.6515624960186 616.0972656639642 L 692.3265624064021 615.4828124159831 L 692.4296873984043 614.8480468991795 L 692.5312499712221 614.3359375359839 L 694.3546875904082 614.2749999103835 L 695.0718750720146 614.2749999103835 L 695.7265625088127 614.2539063295815 L 696.5250000896282 614.2539063295815 L 697.1187499008025 614.2335936511633 L 697.7546874880209 614.2335936511633 L 698.5937500160304 614.2539063295815 L 713.2984375296161 614.2539063295815 L 716.6984374272055 614.1929689087672 L 720.8562499584048 614.192968703981 L 724.5421875200234 614.1718749183696 L 727.2235460608033 614.1515735039604 L 731.6484374528052 614.1515624447609 L 732.7750000640168 614.1312501759734 L 735.3968750592205 614.1312499711872 L 738.4484374528168 614.090625228791 L 742.093496115203 614.1312460799702 L 745.3906249728286 614.1109374975786 L 750.5921875968227 614.1109374975786 L 751.6578729984118 614.0906250239699 L 755.0984374272055 614.0906250239699 L 758.0062500864035 614.1312497663661 L 762.0000000000116 614.1109374975786 L 763.8843750400235 614.0906250239699 L 767.8984374272171 614.0906250239699 L 775.168749977625 614.0289062911761 L 777.0125000704196 614.0492185599636 L 778.1593749504187 614.0085942271747 L 778.9781854208093 613.9882809343632 L 781.9688103936147 613.9671871487866 L 789.8328125440166 613.9062499327817 L 791.5937499136314 613.9062499327817 L 793.2641228800173 613.8882803711807 L 793.4984374272287 613.8851563519798 L 794.9312499712221 613.9062499327817 L 802.2437500928063 613.9062499327817 L 806.2578124800232 613.9265624063904 L 807.7734375424101 613.8914062335738 L 807.8437500928063 613.8945312767871 L 807.9171874816063 613.9000000511878 L 807.9859374080203 613.8875000831904 L 808.8578125824104 613.9265624063904 L 818.8734375936212 613.9265624063904 L 819.6312500224216 614.1109374975786 L 821.2687499264255 613.9265624063904 L 823.9312500736094 613.9265624063904 L 827.6999999488238 613.9468750847736 L 829.2968749056221 613.9468750847736 L 830.7515625472181 613.9671875583823 L 839.557812428812 613.9671875583823 L 840.540625100804 613.9468750847736 L 841.0531250176136 613.9468750847736 L 842.4859375616186 613.9671875583823 L 844.6578124800232 614.0085938175674 L 849.0812499968218 613.9265624063904 L 854.6109374464024 613.9468750847736 L 870.2984374272171 613.9468750847736 L 874.2093750272063 614.0695312383934 L 874.9874999296037 614.0695312383934 L 876.9546874880209 614.0906250239699 L 878.5109374976018 614.0906250239699 L 884.8390625280095 614.1109374975786 L 885.5359375360073 614.1109374975786 L 890.4703125504078 614.1312499711872 L 893.9531249664026 614.1515624447609 L 895.8984374272055 614.1515624447609 L 899.4406250496162 614.1718749183696 L 901.8375000064145 614.1718749183696 L 908.5953124352149 614.192968703981 L 915.7234374656109 614.2132811775897 L 921.4984374272055 614.2335936511633 L 924.7140624384047 614.2335936511633 L 926.290624921606 614.2539063295815 L 927.0687500288128 614.2539063295815 L 935.3687500800239 614.2968750079744 L 936.2843750400236 614.2742188031901 L 944.0468750336091 614.2742188031901 L 947.0984374272172 614.2749999103835 L 954.3484375040047 614.2953125887783 L 962.6828124160063 614.2953125887783 L 964.9562499072169 614.315625062387 L 990.8437499904073 614.315625062387 L 991.5187499008141 614.2953125887783 L 996.9265625088243 614.2953125887783 L 998.2984374272055 614.315625062387 L 999.9359375360189 614.2953125887783 L 1003.6640624640044 614.2953125887783 L 1008.026562560012 614.2749999103835 L 1010.8531249152031 614.2742188031901 L 1013.1468750848086 614.2953125887783 L 1022.3828125696048 614.315625062387 L 1023.8984374272055 614.315625062387 L 1024.0 614.3151264552449" fill="none"/><path stroke="#408040" stroke-width="3" d="M 601.7048487597116 0.0 L 599.8530560000014 0.589823999999453 L 590.0677120000007 3.7089280000000144 L 588.8675840000011 4.091903999999317 L 587.7657600000006 4.411392000000319 L 587.036671999999 4.493312000000174 L 586.2952959999996 4.4605439999999135 L 585.4023680000013 4.325376000000688 L 583.8540799999988 4.087807999999541 L 580.792319999999 3.6167679999998654 L 575.2586240000004 2.7668479999992996 L 571.0069760000013 2.1155840000006947 L 567.8940159999999 1.6384000000005017 L 566.4419839999988 1.4417920000007598 L 565.5674880000006 1.4069759999998723 L 563.0013440000009 1.3742079999996122 L 561.4837759999995 1.3557759999996506 L 554.5000960000004 1.265664000000129 L 553.7751040000003 1.1939840000006825 L 552.9538559999986 0.9625599999999395 L 552.3005440000009 0.6410239999997884 L 551.7373439999996 0.2273279999993747 L 551.4603187532455 0.0" fill="none"/><path stroke="#408040" stroke-width="3" d="M 928.8812893658499 0.0 L 930.1155839999992 0.14336000000037075 L 932.0570880000014 0.23756799999978284 L 937.0050560000003 0.4730880000003026 L 944.8591359999991 0.8478719999999385 L 962.9102080000011 1.718271999999729 L 974.3810560000013 2.2753280000003997 L 995.0576640000014 3.2890880000006746 L 1022.7609599999996 4.689920000000029 L 1024.0 4.753388038158278" fill="none"/><path stroke="#408040" stroke-width="3" d="M 19.55673670717806 0.0 L 18.823167999999715 0.13107199999944896 L 16.850943999999437 0.48537599999986014 L 15.175680000000284 0.7843840000001592 L 13.559807999999611 1.0751999999993131 L 12.562432000000262 1.2390400000003865 L 11.509760000000824 1.3721600000004628 L 9.897984000001452 1.5298559999995405 L 8.409088000000338 1.6752640000006522 L 7.593984000000637 1.7551359999997658 L 6.318080000000191 1.8534400000004325 L 5.255168000000412 1.8698239999997668 L 4.460544000001391 1.8432000000000244 L 2.7996160000009693 1.763327999999433 L 2.113535999998567 1.7551359999997658 L 1.273855999999796 1.79404800000043 L 0.47308799999882467 1.8739199999996572 L 0.0 1.9542556981134567" fill="none"/><path stroke="#408040" stroke-width="3" d="M 1024.0 803.7681059621588 L 948.199424 783.0384639999996 L 927.3118719999999 775.5161599999999 L 917.7968640000006 778.2686719999998 L 906.1519360000005 778.8544000000002 L 881.983488000001 783.2166400000002 L 865.1816959999996 772.5117440000001 L 854.2126079999987 758.31296 L 840.5954560000013 747.8620159999998 L 793.7146879999985 714.5594879999996 L 773.2531199999997 688.1464319999999 L 759.166975999999 673.9066879999998 L 738.8979200000001 659.7775359999999 L 720.1095679999999 662.4645120000001 L 713.7976319999987 660.5209600000002 L 712.6650880000001 655.0958079999997 L 704.9072639999998 650.45504 L 700.5061119999998 640.2805760000003 L 699.8712319999992 616.6241280000002 L 688.2365439999994 588.4846080000003 L 668.7703039999993 560.508928 L 659.4744319999998 556.048384 L 646.6334720000013 555.70432 L 611.4693120000011 560.7526400000003 L 556.750847999999 564.7032319999998 L 530.9050879999995 565.639168 L 504.8012799999997 558.8807679999998 L 474.56255999999996 556.5521919999999 L 409.27641599999913 565.1353600000002 L 369.83398400000004 570.5768960000001 L 341.71289600000017 575.9283200000006 L 328.81254400000034 576.5611520000006 L 316.11699199999856 568.8442880000002 L 287.63340800000003 551.7823999999994 L 263.3564160000009 544.1269759999996 L 253.50143999999855 543.0599679999999 L 239.39071999999868 551.1741439999998 L 210.75967999999995 567.6810240000007 L 200.73062400000055 568.6538239999994 L 184.94259200000087 565.3790720000004 L 170.9383679999999 562.2722559999995 L 135.3482240000012 554.1744640000004 L 103.74348799999862 549.1425279999996 L 89.780223999999 544.6881280000001 L 78.51827200000116 540.5163520000002 L 65.87392000000109 540.8051200000002 L 50.03673600000038 544.6225919999997 L 33.9517439999996 557.5598079999996 L 22.759424000000582 570.8410879999996 L 7.610368000000017 579.86048 L 0.0 586.9851337950328" fill="none"/></svg>