<svg xmlns="http://www.w3.org/2000/svg" width="1024" height="1024"><rect stroke="none" x="0" y="0" width="1024" height="1024" fill="white"/><path stroke="#000000" stroke-width="2" d="M 224.15625011204975 0.0 L 224.15625011204975 0.019530751917045563 L 224.1249996800325 8.08984371193219 L 224.12134604802122 10.558044159959536 L 224.10672025603708 16.222174207970966 L 224.054684672039 19.136718847963493 L 224.05467545602005 27.94274815992685 L 223.952281600039 35.31554815993877 L 223.952281600039 43.09794815996429 L 223.8498816000647 46.78434815997025 L 224.01922252803342 50.42517606395995 L 224.0000000000582 57.90624972793739 L 224.14062489604112 58.113281023921445 L 224.2265620480175 58.28124979196582 L 224.19531264004763 58.367187967931386 L 224.1991065600305 58.39564390393207 L 224.1991065600305 58.53867007995723 L 224.27722547203302 58.64803430397296 L 224.33593753603054 58.73437491193181 L 224.3593748480198 59.37890611193143 L 224.38780313602183 59.50051430397434 L 224.42629632004537 59.68015052797273 L 224.25781248003477 59.70312499196734 L 224.25781248003477 59.704634367953986 L 224.25600000005215 59.704893439949956 L 224.25600000005215 59.7617766399635 L 224.26604953606147 59.79192319995491 L 224.28124979202403 59.847656447964255 L 224.35243417602032 59.915094015945215 L 224.42667008005083 59.98932991991751 L 224.46056652802508 60.019160063937306 L 224.49218764802208 60.050781183934305 L 224.6940907520475 60.9523025919334 L 224.85904896003194 61.69970687996829 L 224.76562534406548 61.83984332793625 L 224.79644672002178 61.89510655996855 L 224.65422336006304 62.17955327994423 L 224.79622758406913 62.35077119997004 L 224.73955328005832 62.492446719959844 L 224.75416576006683 62.623945727944374 L 224.76562534406548 62.75000012794044 L 224.93749964801827 62.949218303954694 L 225.10937497601844 63.17578137596138 L 225.19531212805305 63.17578137596138 L 225.33593702403596 63.261718527937774 L 225.57031219202327 63.261718527937774 L 225.7343754240428 63.5429683199618 L 225.64843724801904 63.71484364796197 L 225.7894993920345 63.7435002879356 L 225.87500032002572 63.99999999994179 L 226.0040509440587 63.99999999994179 L 226.13682073605014 64.23145676794229 L 226.2734376960434 64.47656243195524 L 226.30445568001596 64.51245567994192 L 226.40235520002898 64.67946086393204 L 226.4453120000544 64.79687475191895 L 226.48437452805229 64.82031206396641 L 226.71708160004346 65.21634815994184 L 226.85313228802988 65.40681830391986 L 226.9921873920248 65.60546918393811 L 226.98437529604416 65.67968767991988 L 227.01562470401404 65.87890585593414 L 227.24218777602073 66.13281279994408 L 227.24218777602073 66.30468710395508 L 227.35644672001945 66.36089343996719 L 227.37321779201739 66.44473446393386 L 227.38281267206185 66.5039063039585 L 227.35644672001945 66.55999999993946 L 227.35644672001945 66.61689343996113 L 227.27110656001605 66.92977663996862 L 227.32812492805533 67.01562470395584 L 227.41406208003173 67.01562470395584 L 227.4986700800364 67.07199999992736 L 227.413329920033 67.24267007992603 L 227.4688542720396 67.24267007992603 L 227.5000002560555 67.38671923195943 L 227.8400000000256 67.58399999997346 L 228.1249996800325 67.52734412794234 L 228.179687424039 67.52734412794234 L 228.19847475201823 67.56139622395858 L 228.2382233600365 67.64089343993692 L 228.24144588806666 67.63928166392725 L 228.24218726402614 67.640625151922 L 228.3520000000135 67.58399999997346 L 228.38281216006726 67.50000025593909 L 228.49422336003045 67.47022335993825 L 228.80468787206337 67.50000025593909 L 229.03467008005828 67.41332991991658 L 229.03467008005828 67.3671874559368 L 229.58585753606167 67.3671874559368 L 229.6328120320686 67.41406207997352 L 229.83110656001372 67.47022335993825 L 230.0017766400124 67.41332991991658 L 230.03059507202124 67.375818751927 L 231.83593779202783 67.3671874559368 L 233.20220672001597 68.37958348792745 L 233.15624960005516 68.46484377596062 L 233.1893913600361 68.5414830079535 L 233.2160000000149 68.60799999994924 L 233.18755328003317 68.66489343997091 L 233.30132992006838 68.72177663992625 L 233.38667008001357 68.80710655992152 L 233.44355328002712 68.83555327996146 L 233.55468800006201 68.9492183039547 L 233.50044672004879 69.00622335996013 L 233.44355328002712 69.14844671991887 L 233.35822336003184 69.34755327994935 L 233.52889344003052 69.51822335994802 L 233.54226995201316 69.59850393596571 L 233.55468800006201 69.68749977595871 L 233.55709747201763 69.68749977595871 L 233.55732992006233 69.6888934399467 L 233.75644672004273 69.6888934399467 L 234.01244672003668 69.85955327993724 L 234.12531916802982 69.85955327993724 L 234.32532992004417 69.97332991997246 L 234.5528934400645 69.97332991997246 L 234.6666700800415 69.85955327993724 L 234.78124953602673 69.83203123195563 L 234.979553280049 69.85955327993724 L 235.00800000003073 69.8026700799237 L 235.20626483205706 69.77434316795552 L 235.4062499840511 69.83203123195563 L 235.47656294406625 69.83203123195563 L 238.1937766400515 70.47229439992225 L 238.1937766400515 70.51377663994208 L 238.25067008001497 70.59910655993735 L 238.50667008006712 70.59910655993735 L 238.55319654406048 70.63633100793231 L 239.70312499202555 72.47265587194124 L 239.41406208003173 72.56249958393164 L 239.35937536001438 72.70312550396193 L 239.30310656002257 72.78932991996408 L 239.27343718404882 72.87499980797293 L 239.4141849600128 72.93046988797141 L 239.44509542401647 73.12902860791655 L 239.1875000320142 73.2734371839324 L 239.41406208003173 73.50000025593909 L 239.35937536001438 73.69921843195334 L 239.56250009604264 73.75781273597386 L 239.6718745600665 73.75781273597386 L 239.78667008003686 73.81332991993986 L 240.24218726402614 73.7851566079189 L 240.49777664005524 73.72799999994459 L 240.64000000001397 73.64267007994931 L 240.81067008001264 73.61422335996758 L 240.92444672004785 73.61422335996758 L 241.12500019202707 73.644531711936 L 241.52343756804476 73.67187455995008 L 241.69531289604492 73.644531711936 L 241.83467008004664 73.69955327996286 L 241.9200000000419 73.87022335996153 L 241.92187494406244 73.87109375995351 L 242.06249984004535 73.84374988795025 L 242.34667008003453 73.84177663992159 L 242.46093721606303 73.7851566079189 L 242.74218700802885 73.84374988795025 L 243.0168832000345 73.85991065594135 L 243.2265625600121 73.94921881594928 L 243.2568934400333 73.98399999993853 L 243.4531246080296 74.07031295995694 L 246.5756477440591 75.94236415997148 L 246.78748160006944 76.07074815995293 L 247.24520550406305 76.75733401597245 L 247.15377664001426 76.88532991992543 L 247.2960000000312 77.02755327994237 L 247.21067008003592 77.11289343994576 L 247.1796879360336 77.33984358393354 L 246.8977766400203 77.42577663995326 L 246.8671877120505 77.73828095995123 L 247.04000000003725 77.96622335992288 L 247.23910656006774 78.05155327991815 L 247.3445744640194 78.19217305595521 L 247.4062499840511 78.27734425594099 L 247.4062499840511 78.5078128639725 L 247.6942233600421 78.59342643193668 L 247.6942233600421 78.73422335996293 L 247.92187494406244 78.90625023993198 L 247.95022336003603 78.99022335995687 L 248.06249984004535 79.0468751359731 L 248.09244672005298 79.24622335995082 L 248.3200000000652 79.27467007993255 L 248.60444672004087 79.27467007993255 L 248.92968755203765 79.28906239994103 L 249.0390620160615 79.44921907194657 L 249.60649932804517 79.8075238399324 L 249.82755328004714 79.98577663995093 L 249.8910986240371 79.96989132795716 L 252.7265628160676 81.70312499196734 L 254.15625011204975 85.183593471942 L 253.81250048003858 85.58984396792948 L 253.46844672004227 85.58932991995243 L 253.46874982403824 85.76171827194048 L 253.61707008001395 85.89052211196395 L 252.16406220803037 87.77734348794911 L 251.8748170240433 88.15545241592918 L 251.6480000000447 88.09244671993656 L 251.53124966402538 88.20703129592584 L 251.67705804802245 88.41253887995845 L 251.08695552003337 89.17837619193597 L 248.42213990405435 90.03507097595138 L 248.11718758405186 89.88281241594814 L 247.86489344004076 89.85599999997066 L 247.77955328003736 89.96977663994767 L 247.6942233600421 90.25422335992334 L 247.52355328004342 90.39644671994029 L 247.50705971202115 90.44042956794146 L 244.94531276804628 91.94140671996865 L 244.30513561604312 92.01002700795652 L 244.2808934400673 91.93244671996217 L 243.96874956804095 91.67578111996409 L 243.79687526402995 91.67578111996409 L 243.65510656003607 91.79022335994523 L 243.5697766400408 92.01777663995745 L 243.44569753605174 92.10049331194023 L 243.3515622400446 92.10937548795482 L 243.25781299202936 92.07421849592356 L 243.0577766400529 91.90399999992223 L 243.0400870400481 91.83324774395442 L 243.03124992002267 91.78906214394374 L 242.91555328003597 91.64799999992829 L 241.74999961606227 91.50390579196392 L 241.55022336001275 91.70489343994996 L 241.58999347203644 92.03632230393123 L 241.61718784004916 92.29296844796045 L 241.05468723201193 92.35156275192276 L 241.0530816000537 92.35234815994045 L 241.02286028803792 92.49590374395484 L 240.61155328003224 92.35910655994667 L 240.29867008002475 92.41599999996834 L 240.29989068803843 92.41740390396444 L 240.29687500803266 92.4179691519239 L 240.8671877120505 93.07031244796235 L 240.8630456320243 93.25501849595457 L 240.74053632002324 93.8369372159359 L 240.64062464004382 94.29687500797445 L 240.41244672005996 94.37867007992463 L 239.55910656001652 95.14667007996468 L 239.57482086401433 95.63377356796991 L 239.00508160004392 96.3459481599275 L 238.31333478406304 96.91337830392877 L 238.02343731204746 96.85156249592546 L 237.3124997120467 97.7343754239264 L 237.26428160001524 97.77954815991689 L 237.2265625600121 98.00781209592242 L 236.88281292805914 99.12890675192466 L 237.02343782404205 99.31640627194429 L 236.77270220802166 100.9256529919221 L 236.74218700802885 100.9492183039547 L 236.2026700800634 101.14844671991887 L 236.0000000000582 101.57421875192085 L 236.17187532805838 102.05859327997314 L 236.85597081604647 102.05867007991765 L 236.92187545605702 102.70312550396193 L 236.80000000004657 102.8266700799577 L 236.7146700800513 103.53777663991787 L 236.7188787200139 103.53799782396527 L 236.7187496960396 103.53906278393697 L 237.00781260803342 103.5546879999456 L 237.03536332806107 103.7928079359699 L 237.05948160006665 104.02594815992052 L 235.96948992006946 104.44118323194562 L 234.9062502400484 104.84375039994484 L 234.07733862404712 104.94495743996231 L 233.67110656003933 104.76089343993226 L 232.76089344004868 104.73244671995053 L 232.75781222403748 104.73437491193181 L 232.41197158402065 105.14479615993332 L 232.3490816000267 105.1523481599288 L 228.47656243201345 105.44921907194657 L 228.24218726402614 104.81640652794158 L 227.24218777602073 104.92968755192123 L 226.3593748480198 105.61328127991874 L 226.352158720023 105.95485695992829 L 226.33244672004366 106.72355327993864 L 226.30913945601787 106.82377625594381 L 225.89831987203797 107.09765631996561 L 221.28906240005745 107.09765631996561 L 220.78906265605474 106.78124953596853 L 220.7857766400557 106.78044671996031 L 219.30468761606608 107.14843750395812 L 219.04517529602163 107.42308761592722 L 218.83377152006142 107.6436838399386 L 217.8593751040171 107.90234419197077 L 217.57031219202327 107.85937510395888 L 217.3124997120467 108.08984371193219 L 216.94531276804628 108.34374963195296 L 215.0390620160615 109.33984358393354 L 215.19531212805305 109.65625036793062 L 215.12969318404794 109.70287411194295 L 215.0434816000634 109.76034815993626 L 212.32434688002104 111.9356559359585 L 211.6835532800178 112.21332991996314 L 211.59116390405688 112.379629567964 L 211.53906278405339 112.46875033597462 L 211.5542497280403 112.5511464959709 L 211.5366338560125 112.56582655996317 L 211.45948160003172 112.62754815997323 L 208.9375836160616 114.49603174393997 L 208.72532992006745 114.34667007991811 L 208.5546700800187 114.34667007991811 L 208.46875033603283 114.48828108794987 L 207.98437478404958 114.8593745919643 L 207.70132992003346 115.48444671992911 L 207.36000000004424 115.85422335995827 L 207.35937536001438 116.04296908795368 L 205.98446796805365 117.62419404793764 L 205.5680000000284 117.7599999999511 L 205.7318625280168 117.91422259196406 L 205.5202816000674 118.15714815992396 L 202.47656243201345 119.05078169592889 L 202.06932992005022 118.8977766399621 L 201.75781273603207 118.9531248639687 L 201.58577664004406 119.29599999997299 L 200.78906265605474 119.92187494394602 L 200.73244672006695 120.34844671993051 L 201.07377664005617 120.68977663991973 L 200.91392000002088 120.99807027191855 L 200.70312550402014 121.33203148795292 L 200.70189465605654 121.40697599994019 L 200.67187507206108 121.4570311679272 L 200.61718732805457 122.1406248959247 L 200.64062464004382 122.21093785593985 L 200.60817305603996 122.67220889596501 L 200.52711116801947 123.76655155193293 L 200.44405350403395 123.86471219192026 L 200.3593748480198 123.96093747194391 L 200.49218764802208 124.33593753597233 L 200.47656243201345 124.76562534394907 L 200.39062528003706 125.011719167931 L 200.45850009605056 125.33343846391654 L 200.42528972803848 126.26332569593797 L 200.39843737601768 126.96484351996332 L 200.4140595200588 127.2069887999678 L 200.19200000003912 127.34577663993696 L 199.8791065600235 127.71555327996612 L 199.923217408068 128.86235340795247 L 199.96093747206032 129.93359359994065 L 200.59940659202402 130.44823961594375 L 200.60156211204594 130.48595967993606 L 200.60156211204594 130.5468753919704 L 200.71093760005897 131.5859374079737 L 200.67187507206108 131.640625151922 L 200.70312550402014 132.15234355191933 L 200.7734374400461 132.21093785593985 L 200.87499980803113 133.19140659197 L 200.3911065600696 133.40444671997102 L 200.1328128000605 133.74609407992102 L 200.3911065600696 134.0017766399542 L 201.2160000000149 134.25777663994813 L 201.75644672004273 134.57067007996375 L 201.75644672004273 135.13955327996518 L 202.72355328005506 135.76532991993008 L 203.62485452805413 135.64845567994053 L 203.7794816000387 135.76994815992657 L 204.64062464004382 136.0468746239203 L 204.68622336006956 136.0782233599457 L 204.8671877120505 136.12109414394945 L 205.9777546240366 136.47339622396976 L 206.4294942720444 136.75532492797356 L 207.57765836804174 138.8750120959594 L 206.84375040006125 138.89453158393735 L 206.33593753603054 139.20703078393126 L 206.70312550402014 140.0898437119322 L 208.0000000000582 140.79687475191895 L 208.25614131201291 142.1413212159532 L 207.92968704004306 142.277344255941 L 207.55910656001652 142.79110655991826 L 207.75781273603207 143.33203148795292 L 208.60959129605908 143.67210905597312 L 209.26577664003707 144.38399999996182 L 209.85652019205736 144.68781055993168 L 210.7320985600236 145.79180441593053 L 210.7164467200637 146.26132991997292 L 211.1406254080357 146.80078131193295 L 212.52343705605017 147.95312537596328 L 213.86553856002865 149.56859187193913 L 213.98437478404958 150.04296908795368 L 215.12532992003253 151.6373299199622 L 217.82755328004714 154.05510655994294 L 218.20312473602826 154.25781247991836 L 220.7729991680244 155.8832343039685 L 222.748446720012 157.38310655992245 L 223.45147699204972 157.57172735995846 L 227.2656250880682 159.9140628479654 L 227.78125004802132 160.31250022392487 L 228.29510656005004 160.45510655996623 L 228.60156211204594 160.44531199993799 L 229.58428160002222 160.7555481599411 L 230.9335777280503 161.48209151992342 L 231.48089344002074 161.93422335997457 L 231.88905574404635 161.9965798399644 L 232.2466816000524 162.18914815993048 L 234.57030246406794 163.5445934079471 L 234.97656217601616 164.03906252793968 L 235.30065203201957 164.1892986879684 L 236.47525376005797 165.30517196794972 L 236.25781248003477 165.66015590395546 L 237.2551065600128 166.68444671994075 L 237.92742502404144 167.04815513594076 L 238.56765132804867 167.85436774394475 L 239.0468751360313 168.46093721594661 L 238.78906265605474 169.16015615995275 L 239.6605009920313 169.37264127994422 L 240.23189708805876 170.65828454395523 L 240.15625011204975 170.8671877119341 L 240.1249996800325 171.94531225593528 L 240.9688586240518 172.31664639996598 L 241.155481600028 172.73634815996047 L 241.8722816000227 175.29634815995814 L 245.47656294406625 177.6015626239241 L 250.32592076802393 180.74075955193257 L 245.76348160003545 182.46434815996327 L 245.03541657602182 182.80562790395925 L 244.3671879680478 183.0390620159451 L 244.18758041603724 183.20305151992943 L 242.48437452805229 183.9999999999418 L 242.33593753603054 184.08203161595156 L 242.26132992003113 184.09244671993656 L 241.46489344001748 184.3484467199305 L 240.98437529604416 184.8281251839362 L 239.51562547206413 185.6367185919662 L 234.4113141760463 185.1281715199584 L 233.30132992006838 184.88889343995834 L 228.26176716806367 185.10083788796328 L 227.53906278405339 185.12500019196887 L 227.21093734406168 185.14453094394412 L 225.92991948802955 185.8629969919566 L 225.07868160004728 186.25314815994352 L 225.0690836480353 186.34432409593137 L 224.56889344006777 186.6239999999525 L 224.8593745920225 188.20703129592584 L 202.75548160006292 201.20354815997416 L 201.88705792004475 203.18274662393378 L 198.17187532805838 210.51562495995313 L 199.61628979205852 217.87479142396478 L 200.80988160002744 224.1411481599207 L 199.35937536001438 234.46875033597462 L 199.16406272002496 235.816406015947 L 195.62630860804347 238.0185047039413 L 195.27110656001605 238.22222335991682 L 197.7924218880362 248.30747750395676 L 198.35156275203917 250.66406297596404 L 211.7656248320127 255.47656294394983 L 223.13281331205508 275.2382812159485 L 212.58588160004 275.95554815995274 L 208.24245555204106 276.2568263679277 L 194.84375040006125 277.0468751359731 L 198.65669529605657 296.52089753595646 L 201.52343756804476 311.1796879359172 L 191.38908160006395 312.81954815995414 L 188.26802278403193 313.31891814392293 L 186.25422336003976 313.62844671995845 L 188.4531251200242 316.07421849592356 L 188.6401689600316 316.44489727995824 L 197.42968729604036 326.84765593596967 L 194.15625011204975 327.48437503993046 L 194.19500134402188 327.5547351039713 L 194.195940352045 327.55644006392686 L 198.2336829440319 326.9415116799646 L 201.07031244802056 330.097655807971 L 236.82812518405262 330.2695311359712 L 246.1328128000605 336.65624985593604 L 251.68749977601692 340.4999997439445 L 255.1422320640413 338.97415884793736 L 259.15624960005516 337.3242183679249 L 259.5000002560555 337.0039060479612 L 262.2180352000287 335.3949542399496 L 267.546874880034 340.3085936639691 L 267.82812467205804 340.378906623926 L 271.34375014406396 342.08203161595156 L 271.8503004160593 342.80567500792677 L 272.270223360043 343.40977663995 L 272.8420311040245 343.8459013119573 L 273.9453122560517 344.6914058239199 L 275.01562470401404 344.4921876479639 L 275.1250001920271 344.56249958393164 L 278.3125002240413 345.187500031956 L 278.5078128640307 345.1445309439441 L 278.92622336006025 345.23022335994756 L 279.32444672001293 345.4577766399598 L 280.83593728003325 344.7187496959232 L 280.9514414080186 344.6465597439674 L 281.0581749760313 344.5825208319584 L 282.0000000000582 344.3750000639702 L 283.5390627840534 344.76171878393507 L 284.15625011204975 345.1718748159474 L 284.55468748806743 345.57031219196506 L 284.7578122240375 345.80078079993837 L 285.15624960005516 345.9999999999418 L 285.6106700800592 346.05510655994294 L 286.1249996800325 345.94140671996865 L 286.634670080035 345.85599999997066 L 286.921875456057 345.6562503679306 L 287.06250035203993 345.11718707194086 L 287.3203128320165 344.74609356792644 L 287.7187502080342 344.26171903993236 L 287.834413056029 343.9725608959561 L 287.97155328001827 343.6373299199622 L 288.3128934400156 343.35289343993645 L 289.16622336005094 342.8977766399621 L 288.7111065600184 342.3004467199207 L 288.75000012805685 341.6718745599501 L 288.87499980803113 341.5000002559391 L 288.7656253440655 341.4023434239207 L 288.8281251840526 340.3085936639691 L 286.21093785605626 339.21093734394526 L 283.1250001920271 336.56249958393164 L 282.9877207040554 336.4557260799338 L 282.9084467200446 335.67289343994344 L 280.4921876480221 334.5117183999391 L 279.74999961606227 333.93750015995465 L 275.93750016001286 329.81250047992216 L 272.8908564480371 323.53172582393745 L 272.74218700802885 322.8281251839362 L 271.8750003200257 318.56249958393164 L 277.6249999360298 318.56249958393164 L 281.2082176000695 321.6338288639672 L 281.2871065600193 322.04799999995157 L 282.8515573760378 323.1289006079314 L 284.53884723206284 324.90243379195454 L 284.7578122240375 325.20703078393126 L 288.9671065600123 328.277329919918 L 293.8046873600688 326.4570316799218 L 294.04954931203974 326.44709683192195 L 296.75000012805685 327.5625000959262 L 296.78906265605474 327.62890649592737 L 296.3911065600696 328.5048934399383 L 300.8203120640246 334.2265620479593 L 300.87499980803113 334.31250022392487 L 302.0000000000582 335.35156223992817 L 305.7771827200195 338.8865505279391 L 309.3048934400431 348.6151065599406 L 309.37259315204574 348.6809446399566 L 315.8750003200257 354.62500044796616 L 314.87499980803113 358.06249983992893 L 315.0132828160422 358.1932523519499 L 314.96532992005814 358.3431065599434 L 327.61718784004916 370.1914060799172 L 331.4444902400137 376.261878783931 L 332.57031270401785 378.11328102392145 L 341.75781273603207 384.79687475191895 L 343.38281267206185 384.1757808639668 L 344.87499980803113 383.6874997759587 L 345.45271091203904 384.07148748793406 L 362.9999994880636 395.9999999999418 L 368.9374996480183 393.12500019196887 L 364.6406246400438 385.87890585593414 L 368.3750000640284 384.3632814079174 L 376.3125002240413 387.3749995519174 L 400.9999994880636 403.3749995519174 L 420.06249984004535 402.75000012794044 L 423.28906240005745 404.902343679918 L 426.7804467200185 407.26755327993305 L 448.8248934400617 415.03289343992947 L 452.83555328001967 414.91910655994434 L 453.2210042880615 413.7165117439581 L 453.74999961606227 413.5625000959262 L 462.3515627520392 411.8671871999395 L 462.8515624960419 411.820312575961 L 475.92968704004306 414.6914058239199 L 492.28906291205203 422.2304686079733 L 512.9955532800523 423.2817766399239 L 520.704000000027 418.9297766399686 L 520.893687808013 417.7040988159715 L 521.1875000320142 417.5000002559391 L 522.289062912052 416.20312473597005 L 522.812499968044 416.05859327997314 L 523.377781760064 415.15767603192944 L 523.6906700800173 414.6631065599504 L 523.948926976067 414.3461550079519 L 524.3203123200219 413.89453107194277 L 524.5468753920286 412.6992189439479 L 522.8076083200285 412.6638878719532 L 521.7499996160623 411.3124997119303 L 520.0000000000582 408.6875002879533 L 521.1773112320225 408.5709342719638 L 521.3866700800136 408.80355327995494 L 521.3892904960667 408.8032051199698 L 521.3906247680425 408.80468787194695 L 526.3075532800285 408.1493299199501 L 531.6870174720534 406.6268415999366 L 535.4130186240654 405.63308953592787 L 540.1640622080304 409.0898442239268 L 544.2578124800348 408.9179688959266 L 547.8437498880667 406.07421849592356 L 554.2421872640261 405.38671923195943 L 556.3125002240413 405.187500031956 L 561.2187504640315 406.52734361594776 L 563.1715532800299 407.0684467199608 L 565.9296870400431 413.07031244796235 L 567.3264588800375 413.23808153596474 L 570.0156252160668 415.66406246396946 L 570.225776640058 415.9146700799465 L 579.9531253760215 424.16406220797217 L 582.6562498560525 425.8710937599535 L 583.2881971200695 426.528093183937 L 588.3125002240413 432.62500044796616 L 588.3515627520392 432.7382814719458 L 588.3984373760177 433.29296895995503 L 589.0129623040557 434.63882854394615 L 589.8125004800386 436.93749964796007 L 586.4374999040156 440.85546905593947 L 586.0390625280561 441.0585937919677 L 584.960000000021 441.5999999999185 L 584.8746700800257 441.62844671995845 L 584.8177766400622 441.685329919972 L 584.8177766400622 442.02667007996934 L 585.6142233600258 442.7946700799512 L 585.5840880640317 444.135579647962 L 585.554688000062 445.3281249279389 L 586.2400000000489 446.4639999999199 L 586.4921876480221 446.7343749119318 L 586.562499584048 447.3749995519174 L 586.9368893440696 447.874186239962 L 586.7804467200185 448.1991065599723 L 587.2071065600612 449.93422335997457 L 588.9422233600635 451.18577663996257 L 590.0215726080351 452.11625164793804 L 591.3749995520338 455.9999999999418 L 591.1608934400138 456.9315532799228 L 591.7890621440602 458.20703129592584 L 592.3750000640284 461.3124997119303 L 591.2393195520272 462.76364697597455 L 590.3718717440497 463.4679848959204 L 589.9062497280538 463.84374988795025 L 589.9899617280462 464.20062617596705 L 590.0524912640685 464.4775342079229 L 589.3124997120467 467.43750041595194 L 586.9374996480183 469.93750015995465 L 582.2500003840541 469.6874997759587 L 581.7652305920492 470.50788044795627 L 581.1484375040163 470.61328076792415 L 580.2500003840541 473.07031244796235 L 579.8125004800386 473.81250047992216 L 579.6718745600665 474.3671879679314 L 578.812499968044 475.24999987194315 L 578.9340876800125 476.19447807996767 L 579.0283939840156 476.94892441591946 L 578.4374999040156 479.3124997119303 L 578.449632256059 479.6097484799684 L 578.4177766400389 479.65867007995257 L 578.464306176058 480.2356285439455 L 578.4843745280523 480.5078128639725 L 578.562499584048 482.3750000639702 L 578.6483200000366 482.5173841919168 L 578.7022233600146 483.18577663996257 L 580.5781248000567 486.5429688319564 L 581.3516144640162 487.1800084479619 L 581.6718745600665 489.1718748159474 L 581.1171870720573 490.21093785593985 L 580.9208934400231 491.74755327997264 L 581.5156254720641 492.34374963195296 L 581.5182233600644 492.3448934399639 L 584.9314109440311 492.5048801279627 L 586.2500003840541 493.24999987194315 L 587.5822817280423 495.8226810879423 L 587.34932992002 496.4408934399253 L 588.7715532800648 497.77777663996676 L 592.0156252160668 499.4570311679272 L 592.812499968044 499.9999999999418 L 595.5781253120513 504.3554682879476 L 596.1874995200196 505.38281267194543 L 596.3750000640284 509.0000005119364 L 592.562499584048 506.75000012794044 L 591.6190771200345 506.90593791991705 L 591.018670080055 506.36799999995856 L 591.015624704014 506.3671879679314 L 588.5703127040179 506.9921873919666 L 588.8040417280281 507.38173542392906 L 585.4375004160684 510.06249983992893 L 581.5000002560555 507.9999999999418 L 576.6250004480244 506.56249958393164 L 570.9999994880636 505.12500019196887 L 565.0625003520399 501.43750041595194 L 564.3203123200219 501.75390617595986 L 563.0577766400529 501.4755532799172 L 560.1562501120497 502.52734361594776 L 559.6406251520384 502.9531248639687 L 559.9843747840496 504.7187496959232 L 562.1947463680408 506.0670648319647 L 563.3749995520338 507.6249999359716 L 562.2500003840541 512.1249996799743 L 557.5625000960426 509.43750041595194 L 551.7499996160623 504.4999997439445 L 550.812499968044 504.3710935039562 L 550.6560000000172 503.77955327992095 L 549.2890624000574 503.43750041595194 L 548.2343751680455 504.01953075191705 L 547.6249999360298 503.93750015995465 L 543.7499996160623 505.93750015995465 L 543.622125568043 506.29161267192103 L 542.8337766400655 506.05510655994294 L 541.5537766400375 507.73332991992356 L 542.2080000000424 508.84267007996095 L 542.3828121600673 509.7226557439426 L 542.281249792024 510.0039065599558 L 541.4375004160684 511.11718707194086 L 542.2343751680455 512.4843745279359 L 544.0624998400453 513.2187504639733 L 544.9999994880636 514.5624995839316 L 541.4976890880498 514.9516462079482 L 541.2968744960381 514.8437503999448 L 541.0422220800538 515.0000005119364 L 536.562499584048 515.0000005119364 L 536.1328128000605 515.1718758399365 L 534.9262233600602 515.0151065599639 L 532.9062502400484 515.8671871999395 L 532.5234370560502 516.6132807679242 L 531.5625000960426 517.0000005119364 L 528.6482370560407 516.8785725439666 L 528.5546700800187 516.7217766399262 L 526.8480000000563 516.4942233599722 L 526.1249996800325 517.3203128319583 L 524.0624998400453 518.4374999039574 L 524.0468746240367 518.5390622719424 L 523.0364467200125 519.1111065599252 L 523.7642393600545 520.4134789119707 L 523.5625000960426 521.7499996159459 L 520.0000000000582 522.9374996479601 L 516.4999997440609 522.3125002239249 L 512.1874995200196 521.1250001919689 L 511.87456409604056 521.3510092799552 L 510.9453127680463 521.8398433279363 L 508.9531248640269 522.3515627519228 L 508.4444467200665 522.6951065599569 L 508.1874995200196 525.6249999359716 L 509.0390620160615 526.5351567359176 L 509.1324702720158 527.3400238079485 L 509.26932992006186 528.5546700799605 L 509.71897651202744 528.9936097279424 L 510.06249984004535 529.3320314879529 L 510.6251059200149 530.8093050879543 L 511.0312499200227 533.5625000959262 L 511.80274585605366 534.459057151922 L 512.7395532800583 535.5519999999669 L 513.6510740480153 536.0021329919691 L 515.0390620160615 536.6914058239199 L 516.6870579200331 539.1002460159361 L 517.176893440017 539.818670079927 L 519.4808934400207 541.6391065599746 L 520.7595130880363 542.0915435519419 L 521.7734379520407 542.7851560959243 L 521.898437632015 543.3749995519174 L 525.0844467200222 545.0524467199575 L 525.2331550720264 545.3452165119234 L 525.4375004160684 545.7539061759599 L 525.7265285120229 546.3801343999221 L 525.9975434240187 546.9737861119211 L 526.0234373120475 548.1249996799743 L 527.1608934400138 549.0062233599601 L 528.7253299200675 550.8551065599313 L 528.9843752960442 551.3046876159497 L 530.1249996800325 554.4999997439445 L 527.8795571200317 556.572716031922 L 527.4140620800317 556.7148441599566 L 527.132446720032 557.7955532799242 L 527.3315532800625 560.3839999999618 L 527.8055485440418 561.3150597119238 L 528.1249996800325 561.9492188159493 L 528.3063377920189 563.1254620159743 L 528.41244672006 563.8257766399183 L 529.1386992640328 563.9509944319725 L 529.3124997120467 564.3125002239249 L 529.6015626240405 564.449218559952 L 530.1484369920217 565.1640627199668 L 534.6134937600582 566.8696821759222 L 534.6420910080196 566.9312757759471 L 534.6640629760223 566.9843752959277 L 535.5625000960426 570.6875002879533 L 534.0546877440647 571.8671871999395 L 532.6484377600136 571.9882813439472 L 532.078125056054 572.4726558719412 L 532.5084467200213 574.0373299199273 L 533.2249425920309 575.0360852479353 L 533.8359377920278 577.4296872959239 L 533.560893440037 577.8204467199394 L 534.0156252160668 579.2421877759625 L 534.7699834880186 580.3339519999572 L 535.2499998720596 581.7499996159459 L 535.359456256032 581.9230105599272 L 535.4375004160684 582.2578124799184 L 535.0078126080334 583.1406254079193 L 537.1406254080357 584.8749998079729 L 537.7604280320229 586.3898327039205 L 538.2542233600398 587.6053299199557 L 538.405831680051 588.2623027199297 L 538.5078128640307 588.7148441599566 L 539.9609374720603 590.6210938879522 L 542.492446720018 591.1893299199292 L 544.5688934400678 591.0755532799521 L 545.9921879040194 591.4179686399293 L 547.0720000000438 591.2746700799325 L 548.9208934400231 591.4453299199231 L 549.8515630080365 591.3476567039615 L 550.3750000640284 591.3749995519174 L 552.4374999040156 593.6249999359716 L 552.4818298880127 593.7495459839702 L 551.7937766400282 594.6311065599439 L 553.4206003200379 596.3870443519554 L 553.6620656640152 597.0654474239564 L 553.841776640038 598.2435532799573 L 555.121776640066 599.40977663995 L 556.1096960000577 599.558895615919 L 556.3125002240413 599.7499996159459 L 556.6953123840503 600.1210941439494 L 556.7715532800648 600.661329919938 L 560.41244672006 604.5013299199636 L 561.6917749760323 604.8470978559344 L 567.2812503040186 608.3554682879476 L 568.1171875840519 609.1640627199668 L 570.6006108160364 611.1058042879449 L 570.9999994880636 611.437500415952 L 574.0281036800588 614.116207615938 L 574.4143421440385 614.6223134719185 L 574.9999994880636 615.3945313279401 L 581.2031252480228 619.746094079921 L 583.9609374720603 622.6484377599554 L 584.9125990400207 623.0787215359742 L 586.3437496320694 623.9882813439472 L 586.6484377600136 624.445311999938 L 587.0703124480206 625.9882813439472 L 587.2227891200455 627.3411061759689 L 587.4346700800234 629.2479999999632 L 588.3436390400166 630.5167718399316 L 588.7968747520354 631.1523440639721 L 589.7109370880644 632.804687871947 L 590.1865594880655 633.0854686719249 L 590.7500001280569 633.9375001599547 L 590.9651189760189 634.1492572159623 L 590.7626700800611 634.9084467199282 L 590.8641126400325 635.1902310399455 L 591.015624704014 635.6210933759576 L 594.6875002880115 637.8398433279363 L 594.631750656059 638.0594698239584 L 593.1875000320142 640.3125002239249 L 588.3125002240413 641.3124997119303 L 587.4161991680157 641.5735961599275 L 587.0078126080334 641.3632808959228 L 586.2867783680558 641.9062456319225 L 584.6875002880115 642.3750000639702 L 583.968749568041 643.2187504639733 L 583.5078123520361 643.4687498239218 L 582.8593745920225 644.5312501759618 L 581.9375001600129 645.6249999359716 L 581.3130178560386 647.0807347199298 L 581.2923648000578 647.1215564799495 L 580.7968624640489 648.2910259199562 L 580.4921876480221 649.0039060479612 L 579.0390620160615 650.2695311359712 L 579.9218749440624 651.8320312319556 L 580.0390625280561 654.5351567359176 L 580.5795532800257 654.9617766399169 L 581.8215843840153 654.829644799931 L 587.6874997760169 658.5624995839316 L 586.2143232000526 660.3070515199215 L 585.1306700800196 660.7359999999171 L 584.960000000021 661.5893299199524 L 585.0312499200227 661.7539061759599 L 582.9921873920248 664.5234370559338 L 582.8749998080311 664.6992189439479 L 582.1718753280584 665.8554685439449 L 583.1875000320142 667.746094079921 L 584.6875002880115 671.0000005119364 L 582.7500001280569 673.8750003199675 L 579.8750003200257 675.1250001919689 L 576.6250004480244 676.9374996479601 L 574.9757952000364 678.4614492159453 L 572.812499968044 679.9062497279374 L 571.9296870400431 680.8164065279416 L 571.6880148480413 681.3555220479611 L 571.5205304320552 681.7239838719252 L 569.1250001920271 684.9374996479601 L 566.6160640000599 685.8618879999267 L 565.3217280000681 686.072831999918 L 565.2889600000344 686.1199359999737 L 563.1979520000168 686.5879039999563 L 562.3046871040133 686.9609379839385 L 561.7031249920256 687.3359370239195 L 560.5781248000567 687.6874997759587 L 559.648437248019 687.8750003199675 L 558.4531251200242 688.3671879679314 L 557.7564160000184 688.8355839999276 L 556.926976000017 689.5144959999598 L 556.8264478720375 689.6423280639574 L 556.7578122240375 689.7265623039566 L 556.4293120000511 690.2640639999299 L 556.363776000042 690.54463999992 L 556.363776000042 690.6217256959644 L 556.1171875840519 690.9453127679299 L 556.7715532800648 692.7359999999171 L 557.6249999360298 693.9023441919708 L 560.1562501120497 695.8945310719428 L 560.921875456057 696.906250239932 L 561.0078126080334 697.3085941759637 L 561.0078126080334 698.550780927937 L 560.8749998080311 699.5585935359704 L 560.7792640000116 699.6500479999231 L 560.4453120000544 700.8203120639664 L 560.3481600000523 700.8675839999341 L 560.1664307200117 701.3940991999698 L 560.0468746240367 701.7343754239264 L 559.7812500480213 702.20312473597 L 558.9882880000514 703.0917119999649 L 557.661184000026 704.0276479999302 L 556.8983040000312 704.6830079999636 L 556.0000000000582 705.5976560639683 L 555.2404480000259 706.5794559999486 L 554.7734374400461 707.3281249279389 L 554.644782080024 707.5809996799217 L 554.5441280000377 707.7734399999608 L 554.0468746240367 708.9218754559406 L 553.8437498880667 709.4804684799747 L 553.880791040021 710.1286963199382 L 553.9035258880467 710.5741035519168 L 553.7564467200427 710.9973299199482 L 553.9358617600519 711.4933626879356 L 553.7167360000312 712.291327999963 L 553.3828126720618 713.0898442239268 L 553.3544222720666 713.2333721599425 L 553.3099407360423 713.4451230719569 L 553.2160000000149 713.5573299199459 L 553.0623006720562 714.4257228799397 L 552.8515624960419 715.5937495039543 L 552.390625280037 716.4101560319541 L 551.7578127360321 716.7148441599566 L 551.0312499200227 716.902343679918 L 548.5445120000513 716.9279999999562 L 546.7535360000329 716.9044479999575 L 546.0234240000136 717.0222079999512 L 545.6249999360298 717.3007810559357 L 545.3015408640495 717.6024279039702 L 544.6796871680417 717.8242191359168 L 544.4687503360328 718.3710935039562 L 544.3328000000329 718.4967679999536 L 544.3328000000329 718.7214919679682 L 544.0284467200399 719.5022233599448 L 544.0316897280281 719.5027804159326 L 544.0312504320173 719.5039057919639 L 546.8436797440518 719.9856445439509 L 546.6875002880115 722.8085934079718 L 546.5339955200325 722.9470812159707 L 546.3255040000658 723.131391999952 L 545.52883200004 723.3658879999421 L 544.5345280000474 723.3894399999408 L 543.7716480000527 723.3658879999421 L 542.5111040000338 723.5768319999333 L 542.4461066240328 723.6055664639571 L 542.3671879680478 723.6367185919662 L 541.8666700800532 723.6551065599197 L 540.9999994880636 724.4062504959293 L 540.2234880000469 724.7482879999443 L 538.6321920000482 724.9827839999343 L 538.2676480000373 725.100543999928 L 538.2656245760154 725.1015628799214 L 538.144873472047 725.280691199936 L 537.8828124160646 725.3320314879529 L 537.4140620800317 726.3515627519228 L 536.677376000036 727.6523519999464 L 536.4121600000653 727.9329279999365 L 536.114176000061 728.0732159999316 L 535.5474196480354 728.2381250559702 L 534.2263562240405 728.2615879679215 L 533.2499998720596 727.640625151922 L 531.2284467200516 725.9306700799498 L 530.8793815040262 725.9256473599235 L 530.6406246400438 725.7812500479631 L 530.109375488013 725.5937495039543 L 528.1198080000468 725.127167999919 L 527.4234880000586 725.2213759999722 L 526.6606080000638 725.5726079999586 L 526.0937502720626 725.9726561279385 L 525.79687526403 726.3906252799206 L 525.6328120320686 726.8593745919643 L 525.6328120320686 728.664062975964 L 526.1328128000605 729.1562495999387 L 526.1998080000631 729.6696319999173 L 525.1718748160638 731.0976563199656 L 524.9751040000119 731.284479999973 L 524.2460160000483 732.2685439999332 L 522.7890626560547 734.5624995839316 L 522.77859532804 734.8359423999209 L 522.6884792320197 734.9519001599401 L 522.5781248000567 735.0898442239268 L 522.914062336029 735.9375001599547 L 522.921875456057 735.9687495679245 L 523.0183567360509 736.2073466879665 L 523.2071065600612 736.6826700799284 L 528.5535139840213 737.7786839039181 L 528.6942720000516 737.9077119999565 L 529.023437824042 738.3984373759595 L 529.2578129920294 738.9609379839385 L 529.5234375680448 739.7578127359739 L 529.6406251520384 739.917968383932 L 530.4035532800481 742.0302233599359 L 533.4186700800201 742.1724467199529 L 533.7031065600459 742.1724467199529 L 535.2106700800359 741.4897766399663 L 535.3022208000184 741.5397140479181 L 535.3593753600144 741.5820308479597 L 535.3953280000133 742.0252159999218 L 535.3953280000133 742.3999999999651 L 535.353774080053 742.949282815971 L 535.3281249280553 743.2656250879518 L 535.5078082560212 743.3085921279271 L 535.3813299200265 743.5662233599578 L 536.1249996800325 744.9374996479601 L 536.225792000012 745.2549119999167 L 536.3261440000497 745.3245439999737 L 536.390625280037 745.7226557439426 L 536.390625280037 746.8476559359697 L 536.3274731520214 747.1254763519391 L 536.2265620480175 747.1992186879506 L 536.2265620480175 747.5742187519209 L 536.2553333760588 747.6589322239743 L 536.2944000000134 747.7821439999389 L 536.1953126400476 748.0156252159504 L 536.0937502720626 748.1328127999441 L 536.0937502720626 748.343749631953 L 535.9964160000673 748.4385279999697 L 535.9793489920557 748.4870635519619 L 535.9609374720603 748.5312501759618 L 535.9609374720603 748.6484377599554 L 536.0624947200413 748.6953205759637 L 535.828124672058 749.0468751359731 L 535.9296870400431 749.4453125119326 L 535.9609374720603 749.6796876799199 L 535.9296870400431 749.820312575961 L 536.0937502720626 750.0781250559376 L 536.0937502720626 750.1249996799743 L 536.2968750080327 750.3593748479616 L 536.428544000024 750.4506879999535 L 536.7578112000483 750.6132838399499 L 536.921875456057 750.7539066879544 L 536.9921873920248 751.1523440639721 L 537.0593280000612 751.9723519999534 L 537.1924480000162 752.6277119999286 L 537.3906247680425 753.0507816959289 L 537.6406220800127 753.3809254399384 L 537.8275532800471 754.4035532799317 L 540.7968788480503 756.0562892799499 L 540.8409600000596 756.1379839999718 L 540.8409600000596 756.9571839999408 L 540.7088640000438 757.2613119999296 L 540.5078128640307 757.4492190719466 L 540.443648000015 757.6360959999729 L 540.3115520000574 757.7538559999666 L 540.0463360000285 758.245375999948 L 539.9453122560517 758.3164057599497 L 539.9453122560517 758.4101560319541 L 539.8814720000373 758.5259519999381 L 539.8814720000373 758.7107358719222 L 539.5312496640254 759.1523440639721 L 541.5234375680448 762.7109375999426 L 543.5299840000225 764.4412979199551 L 543.6631040000357 764.6120407039416 L 543.6631040000357 764.7047679999378 L 543.7265623040148 764.7500001279404 L 543.8593751040171 765.8046873599524 L 543.9921879040194 766.1562501119333 L 544.0130467840354 766.2438563839532 L 544.028672000044 766.3196159999352 L 544.0625305600115 766.3673743359395 L 544.2265620480175 767.3476567039615 L 545.7499996160623 768.2851563519216 L 545.8554880000302 768.3860479999566 L 546.0292239360278 768.4919551999192 L 547.0390620160615 770.2226565119345 L 547.3124997120467 770.980468735972 L 547.445312512049 771.1406254079193 L 547.6802560000215 771.6577279999619 L 547.976562688069 772.0546877439483 L 548.0078120960388 772.2187499519205 L 548.1406248960411 772.3593748479616 L 548.2734376960434 772.453125119966 L 548.3520860160352 772.6139975679689 L 548.4421120000188 772.8046079999185 L 548.575232000032 772.8742399999173 L 548.622553088062 772.997177343932 L 548.6718750720611 773.1328122879495 L 549.2031252480228 773.8320312319556 L 549.3043200000538 774.0446719999309 L 550.3979520000285 775.0983679999481 L 550.8281251840526 775.4257817599573 L 551.656250368047 775.8945310719428 L 552.7187496960396 776.2695311359712 L 554.4079360000324 776.3845119999605 L 556.9259520000196 776.4776959999581 L 558.3841280000634 776.7357439999469 L 559.1093749760184 776.9374996479601 L 559.2462233600672 776.9884467199445 L 563.3828126720618 781.1054684159462 L 563.4103777280543 781.1278131199651 L 563.4831083520548 781.200110591948 L 563.5390627840534 781.2578129919712 L 563.5859374080319 781.3710940159508 L 563.917824000062 781.6509439999354 L 563.9843840000685 781.8373119999305 L 564.1175040000235 781.9315199999255 L 564.1535406080657 781.9823206399451 L 564.3499520000187 782.3651235839352 L 564.3944232960348 782.4385382399196 L 564.5156096000574 782.6680575999198 L 564.5468753920286 782.7734374399297 L 564.5855406080373 782.8005027839681 L 564.6938327040407 783.0056028159452 L 564.7810560000362 783.3128959999303 L 564.9131520000519 783.4531839999254 L 564.9453127680463 783.6640624639695 L 565.2421877760207 784.0507811839343 L 565.5259658240248 784.5816135679488 L 565.9022233600263 785.2942233599606 L 569.1097456640564 787.8532280319487 L 569.7177600000286 788.4390399999684 L 570.4453120000544 789.0234378239256 L 570.9762560000527 789.3514239999349 L 571.5078123520361 789.820312575961 L 572.8972800000338 790.8014079999411 L 573.2428052480682 791.177299967967 L 573.3281249280553 791.2979967999272 L 573.3281249280553 791.3632808959228 L 573.460480000067 791.503871999972 L 573.656250368047 792.1367183359689 L 573.7578127360321 792.1835939839366 L 573.7890621440602 792.3710935039562 L 574.0234373120475 792.7226562559372 L 574.0902400000487 792.9323519999743 L 574.1398138880613 793.0044129279559 L 574.1226700800471 793.8275532799307 L 576.0078120960388 795.4960936959251 L 576.3092480000341 795.8579199999222 L 576.3092480000341 795.9285759999184 L 576.4062504960457 795.9999999999418 L 576.4765624320135 796.2343751679291 L 576.1953126400476 798.804687871947 L 576.2812385280267 798.9649684479227 L 576.2426880000276 799.4163199999603 L 576.3092480000341 799.6508159999503 L 576.5078128640307 800.1445314559387 L 576.6072320000385 800.2119679999305 L 576.6531379200169 800.3203430399299 L 576.7031255040201 800.445311999938 L 576.7872512000613 800.5600296959747 L 576.8724480000674 800.6799359999713 L 577.0045440000249 800.9850879999576 L 577.1366400000406 801.1018239999539 L 577.1366400000406 801.2185599999502 L 577.1983093760209 801.2944609279511 L 577.2656250880682 801.3828126719454 L 577.2916787200375 801.5235020799446 L 577.3025280000293 801.5933439999353 L 577.4356480000424 801.7100799999316 L 577.7656248320127 802.4374999039574 L 579.8195200000191 805.5029759999597 L 580.1175040000235 805.8767359999474 L 580.4140625920263 806.1835939839366 L 580.4453120000544 806.3203123199637 L 580.6015621120459 806.449218559952 L 582.2631075840327 809.0389852159424 L 582.4999997440609 810.0898437119322 L 582.6953123840503 812.4765624319552 L 583.1956480000517 813.7195519999368 L 584.0859371520346 814.9609379839385 L 584.4296878080349 815.2968744959217 L 585.3124997120467 816.6875002879533 L 585.3124997120467 816.9960939519224 L 585.2487680000486 817.3946879999712 L 584.9453127680463 818.2617190399324 L 584.9497600000468 818.4751974399551 L 584.9497600000468 818.6357759999228 L 584.857787392044 819.2585789439618 L 584.7812495360267 819.7578127359739 L 584.6171873280546 820.1562501119333 L 584.4843745280523 821.5156254719477 L 584.3828121600673 821.7265623039566 L 584.4538357760175 822.6479001599364 L 584.5196800000267 823.5509759999695 L 584.5196800000267 824.1369118719595 L 584.5156249600695 824.7695308799739 L 584.455319552042 825.4856560639455 L 584.4195532800513 825.8844467199524 L 586.8657766400138 827.9039999999222 L 592.89943244803 828.9350676479517 L 593.0260480000288 828.9597439999343 L 593.0610114560695 828.9626787839225 L 595.8515630080365 829.4414059519186 L 596.2845716480515 829.9214817279717 L 596.566528000054 830.2369392639375 L 596.6140047360677 830.2801418239251 L 596.6394071040559 830.3082311679609 L 596.6718750720611 830.347656191967 L 596.6858199040289 830.3964631039416 L 596.7001600000658 830.4578559999354 L 596.998144000012 830.8090879999218 L 597.6755333120236 831.4539448319701 L 597.9576320000342 831.7658808319247 L 597.9576320000342 831.8167039999389 L 598.3823216640158 832.3420927999541 L 598.7500001280569 832.800781311933 L 598.9453127680463 832.9179688959266 L 598.9843752960442 833.011719167931 L 599.4140620800317 833.2695316479658 L 599.4765629440662 833.3632808959228 L 600.3051427840255 834.063072255929 L 600.6374400000204 834.4852479999536 L 600.8751247360487 834.7376353279687 L 601.0312499200227 834.906250239932 L 601.1231856640661 835.0441533439443 L 601.2006400000537 835.1641599999275 L 601.4296872960404 835.3515622399282 L 601.5937495040125 835.7265623039566 L 601.7574492160347 835.9028541439329 L 601.894912000047 836.0540159999509 L 601.894912000047 836.194303999946 L 602.0597760000383 836.334591999941 L 602.0597760000383 836.428799999936 L 602.1324165120604 836.5164799999329 L 602.289062912052 836.7109375999426 L 602.3107717120438 836.8021135359304 L 602.3249920000671 836.8732159999199 L 602.6229760000133 837.177343999967 L 604.0125440000556 838.3016959999222 L 604.4426240000175 838.6058239999693 L 606.5234370560502 839.9570309119299 L 607.6871065600426 840.8177766399458 L 613.5852277760278 842.0154808319639 L 614.1713326080353 842.6829742079717 L 614.3027200000361 842.9854719999712 L 614.3283189760405 843.0130708479555 L 614.3593748480198 843.0507816959289 L 614.3797514240141 843.0833848319598 L 614.5090539520606 843.3447557119653 L 614.6093752320157 843.5546879999456 L 614.890460160037 844.0789411839214 L 614.995968000032 844.4375039999723 L 615.2939520000364 844.9986559999525 L 615.4260480000521 845.3969919999363 L 615.4921871360275 845.4453125119326 L 615.554688000062 845.7265623039566 L 615.7678970880224 846.2149611519417 L 615.8888960000477 846.497791999951 L 615.9216640000232 847.1756799999275 L 615.8515630080365 847.714843647962 L 615.8057850880432 847.8063994879485 L 615.7547520000371 847.9016959999572 L 615.6921681920649 848.5891471359646 L 615.4871347200242 849.6473866239539 L 615.3046876160661 850.5742182399263 L 615.2607406080351 850.7139082239592 L 615.1915520000621 850.9214719999582 L 614.523118592042 851.2755005439394 L 614.0243937280611 851.4706534399302 L 613.1093749760184 851.7851566079189 L 611.546874880034 852.1835939839366 L 610.8515624960419 852.4179691519239 L 610.5745664000278 852.6040104959393 L 610.3255040000658 852.7687679999508 L 609.6302080000169 853.0493439999409 L 609.5436451840214 853.2075223039719 L 609.5078123520361 853.2187504639733 L 609.4806743040681 853.3225902079721 L 609.2328960000305 853.7753599999705 L 609.0670080000418 854.3375359999482 L 608.9676800000598 854.9457919999259 L 608.8984371200204 855.1796879359172 L 608.8984371200204 855.5429683199618 L 608.4835532800644 857.1448934399523 L 609.2499998720596 860.1015623679268 L 609.2515532800462 860.1031065599527 L 609.6093747200212 860.167968767928 L 609.6283330560545 860.1909903359483 L 609.6599040000583 860.2357759999577 L 609.7920000000158 860.3299839999527 L 610.4843745280523 860.378906623926 L 610.7675760640414 860.3770879999502 L 611.492604928033 860.5081180159468 L 612.2076160000288 861.0324479999254 L 612.6953123840503 861.2382812159485 L 613.0078126080334 861.4414059519186 L 619.8328934400342 864.3982233599527 L 621.6796876800363 865.9062497279374 L 631.7226700800238 868.380446719937 L 634.1406248960411 868.2109378559398 L 636.871106560051 870.5991065599374 L 637.3753835520474 871.1413944319356 L 637.4062499840511 871.2031252479646 L 637.6089978880482 871.3926174719236 L 642.53125017602 876.6875002879533 L 644.4062504960457 878.5937500159489 L 649.2578129920294 881.5664066559402 L 650.5676800000365 882.5036799999652 L 653.1153920000652 884.2117119999602 L 654.3954493440688 884.8431472639204 L 658.8871065600542 887.8079999999609 L 657.8906245120452 888.6328125439468 L 658.2968750080327 888.9335941119352 L 658.3121920000413 889.0552319999551 L 658.9648117760662 889.4287073279265 L 662.0703129600151 891.7343754239264 L 662.8410193920135 891.6734760959516 L 663.3046876160661 891.7695313919685 L 664.6953123840503 891.6523438079166 L 665.093749760068 891.5585935359704 L 665.9850240000524 891.4862079999293 L 666.3125002240413 891.5585935359704 L 666.7432898560655 891.7665495039546 L 667.5122769920272 892.4137912319275 L 669.6960000000545 894.5208934399416 L 670.2031247360283 894.6015621119295 L 670.7187496960396 894.7617187839351 L 671.2968744960381 894.7734374399297 L 672.8913213440683 895.0210314239375 L 673.0074071040144 895.051891711948 L 674.9609379840549 895.9726561279385 L 675.7109370880644 895.4531246079714 L 675.976562688069 895.390624767926 L 676.5025280000409 894.9237759999232 L 678.7829760000459 893.3785599999246 L 679.343750144064 893.0742190079181 L 680.5703127040179 892.3710935039562 L 681.8908160000574 891.5281919999397 L 684.006400000013 890.28710399993 L 685.5312496640254 889.4921871359693 L 686.2578124800348 889.187500031956 L 686.7812495360267 889.0937497599516 L 687.1762595840264 889.109671935963 L 687.9453122560517 889.1484375039581 L 688.2734376960434 889.187500031956 L 689.9453122560517 889.2460933119291 L 690.6562498560525 889.2812503039604 L 692.2421872640261 889.3749995519174 L 692.5703127040179 889.4453125119326 L 693.3749995520338 889.4140620799735 L 695.4687498240382 889.5156254719477 L 696.9457766400301 886.3288934399607 L 698.6808934400324 882.6595532799256 L 698.3515627520392 882.1406248959247 L 698.259456000058 881.8831359999604 L 697.8621440000134 881.3445119999233 L 697.8788362240302 881.2970424319501 L 697.898437632015 881.2499998719431 L 697.4843750400469 880.7812495359685 L 696.7447674880386 879.6209100799169 L 696.7367680000607 879.4951679999358 L 696.5390622720588 878.8632811519201 L 696.4480993280304 878.7677644799696 L 696.3440465920139 878.3862466559513 L 696.398228480015 878.1804789759335 L 706.7890626560547 876.8867184639676 L 707.4367897600168 876.7045304319472 L 708.2500003840541 876.5703127039596 L 708.4789760000422 876.4293119999347 L 711.195312128053 875.6992184319533 L 711.5223040000419 875.6101119999657 L 714.068992000015 875.0243839999312 L 714.6328125440632 874.8398438399308 L 716.8437504000613 874.3242188799195 L 718.6328125440632 873.8085939199664 L 719.6953128960449 873.2226559999399 L 720.0624998400453 872.9648435199633 L 720.4965171200456 872.7892643839587 L 720.9244467200479 872.6186700799735 L 721.4945515520521 871.7635082239285 L 722.179687424039 870.7421870079706 L 722.2656245760154 870.097655807971 L 722.396096512035 869.7012234239373 L 722.4719360000454 869.4783999999636 L 722.4920360960532 868.8936570879305 L 722.5078128640307 868.4960942079197 L 722.5457725440501 868.3252725759521 L 722.6050560000585 868.07347199996 L 722.5937500160653 867.6054691839381 L 722.7187496960396 866.6757816319587 L 721.6066580480547 866.0684380159364 L 721.0546872320119 865.6874997759587 L 719.893504000036 865.0065919999615 L 719.1326720000361 864.6789119999739 L 718.0626851840643 864.3398768639308 L 716.6165596160572 863.7951037439634 L 716.4531251200242 863.6953128959285 L 716.2343751680455 863.6484372479608 L 715.6629432320478 863.4358640639693 L 715.2577730560442 863.2832317439606 L 715.118486528052 863.1936225279351 L 715.0176655360265 862.8648714239243 L 715.0098370560445 862.7026636799565 L 714.9999994880636 862.4296878079185 L 714.8984371200204 862.3828121599508 L 714.8308480000123 862.0103679999593 L 714.7653857280384 861.9397918719333 L 714.7343749120482 861.7304688639706 L 714.548563968041 861.2106618879479 L 714.1491896320367 859.8023331839358 L 714.136576000019 859.5752959999372 L 714.1562501120497 859.1328122879495 L 715.1566643200349 856.6171852799598 L 715.2968744960381 856.343749631953 L 716.0238080000272 854.7297279999475 L 716.3217920000316 853.7466879999265 L 717.5802880000556 851.0085119999712 L 717.8772480000625 850.7514879999217 L 718.4794193920679 850.4675778559176 L 719.1875000320142 850.1367183359689 L 719.7578127360321 849.921874943946 L 719.8720000000321 849.8915532799438 L 720.0468746240367 849.8359377919696 L 722.1191065600142 849.3795532799559 L 723.7734379520407 849.2382812159485 L 725.5625000960426 848.8671877119341 L 725.5625000960426 848.4609372159466 L 725.5889920000336 848.435199999949 L 725.5889920000336 848.3174399999552 L 725.6048035840504 847.9107727359515 L 725.6249999360298 847.4765629439498 L 725.5625000960426 847.2578129919712 L 725.5625000960426 846.9335941119352 L 725.9062497280538 845.2265625599539 L 725.4765629440662 845.0273433599505 L 725.4186700800201 844.9706700799288 L 723.750067200046 844.0886947839172 L 723.4723840000224 843.6592639999581 L 723.2421877760207 843.1445309439441 L 723.1744000000181 842.6762239999371 L 723.1846819840139 842.3982858239324 L 723.195312128053 842.167968767928 L 724.2212638720521 840.7802214399562 L 726.3004467200371 837.9733299199725 L 725.8214912000694 837.2070072319475 L 725.8125004800386 836.1874995199614 L 725.79687526403 834.906250239932 L 725.892096000025 834.5774079999537 L 726.1573120000539 833.9220479999203 L 726.2894080000697 833.7346559999278 L 726.3507916800445 833.5839109119261 L 726.8693299200386 833.3937766399467 L 726.5234370560502 832.7929692159523 L 726.42254950403 831.9090524159255 L 726.8526080000447 831.2063999999664 L 727.2509440000285 830.8090879999218 L 727.5802931200597 830.6598963199649 L 730.0859371520346 830.3515627519228 L 730.6008995840675 829.9974881279632 L 731.093749760068 829.7343754239264 L 731.1497758720652 829.6635187199572 L 731.2308101120288 829.5680040959269 L 731.335937024036 829.4960936959251 L 731.4140620800317 829.3437501439475 L 731.7196800000384 828.8675839999341 L 732.0546877440647 828.2109378559398 L 732.2431037440547 828.0399564799736 L 733.554688000062 827.6210933759576 L 733.6960000000545 827.5911065599648 L 733.8359377920278 827.535156223923 L 738.275553280022 828.3022233599331 L 742.7697766400524 828.0746700799209 L 742.9361745920614 828.0835215359693 L 743.0390620160615 828.097655807971 L 743.0820034560165 828.0912783359527 L 745.445312512049 828.2187499519205 L 748.2109378560563 828.902343679918 L 748.4687503360328 828.9843752959277 L 755.4531246080296 831.5468748799176 L 759.8222489600303 834.7409868799732 L 762.5671065600473 836.7502233599662 L 768.3984373760177 838.4570316799218 L 770.6168934400193 838.769776639936 L 774.0769546240335 841.3785538559314 L 774.1317120000604 841.4474239999545 L 774.1749872640357 841.5329054719186 L 774.2343751680455 841.6562503679306 L 775.3671874560532 847.4179686399293 L 777.1562496000552 848.9257809919654 L 782.8509890560526 850.2342430719291 L 785.3593753600144 851.3671874559368 L 785.5975956480252 851.5502735359478 L 788.7075532800518 855.2106700799195 L 791.2675532800495 856.661329919938 L 795.4765629440662 856.7187496959232 L 800.42445107206 853.649426431919 L 800.4954142720671 853.6099164159386 L 800.5859379200265 853.5625000959262 L 802.1562501120497 853.1250001919689 L 805.2343746560509 852.453125119966 L 806.4062504960457 852.031250431959 L 806.6718750720611 851.9453122559353 L 808.3203123200219 851.3437501439475 L 810.3822233600658 850.6026700799703 L 812.4765624320135 849.3671874559368 L 813.3515622400446 849.0195312639698 L 814.0468746240367 848.6445311999414 L 814.4453120000544 848.5273436159478 L 814.9612390400143 848.4929064959288 L 815.335937024036 848.5039063039585 L 815.6692480000202 848.548863999953 L 816.6287360000424 848.8294399999431 L 817.2528517120518 849.0733936639735 L 817.8671872000559 849.3164062719443 L 820.2343751680455 850.5234370559338 L 820.3028480000212 850.5620479999343 L 820.4062504960457 850.6132807679242 L 822.914062336029 851.8945310719428 L 823.5130880000652 852.2229759999318 L 824.208384000056 852.5742079999181 L 824.390625280037 852.6484377599554 L 826.6796871680417 853.816406015947 L 828.6720000000205 854.4426700799377 L 842.055422976031 854.9786531839636 L 843.1677440000349 855.0328319999389 L 844.2265600000392 855.1260159999365 L 846.0126033920678 855.1371315199649 L 849.976562688069 855.2968744959217 L 852.1011200000648 855.4547199999215 L 853.1951001600246 855.6998266879236 L 860.7890626560547 857.9296870399266 L 861.3281249280553 858.3125002239249 L 862.289062912052 859.1328122879495 L 862.4896000000299 859.437055999937 L 862.7265628160676 859.640625151922 L 862.8493373440579 859.7798287359183 L 862.9186560000526 859.9285759999184 L 863.0517760000657 860.0217599999742 L 863.1171870720573 860.1640622079722 L 863.3487360000145 860.3965439999592 L 863.415296000021 860.5839359999518 L 863.712256000028 860.9351679999381 L 864.0102400000324 861.1921919999295 L 864.2088960000547 861.543423999974 L 865.164062720025 862.550780927937 L 865.2968744960381 862.7851560959243 L 866.1562501120497 863.7226557439426 L 866.390625280037 864.0507811839343 L 866.5559040000662 864.1658879999304 L 867.3124997120467 865.0546872319537 L 867.5471360000665 865.3598719999427 L 868.043776000035 865.8984959999216 L 868.5562019840581 866.4996106239269 L 868.9999994880636 867.0234378239256 L 869.2968744960381 867.3281249279389 L 869.4296872960404 867.5625000959262 L 869.6627200000221 867.7478399999673 L 869.8286080000689 867.9823359999573 L 870.0262400000356 868.1697279999498 L 870.6549760000198 868.9428479999187 L 870.9847040000604 869.2705279999645 L 872.3046871040133 870.8867184639676 L 872.7031255040201 871.2617185279378 L 873.6624640000518 872.3845119999605 L 874.0915200000163 872.8524799999432 L 874.0915200000163 872.9466879999381 L 874.8185600000434 873.6952319999691 L 874.8515624960419 873.8125004799222 L 875.2343746560509 874.1484369919635 L 875.6328120320686 874.6093752319575 L 882.0197703680606 880.0048404479166 L 882.3826472960645 880.3281919999281 L 882.5859379200265 880.5117183999391 L 883.4140620800317 881.187500031956 L 884.4044994560536 882.0195246079238 L 884.6155048960354 882.2024663039483 L 885.7031249920256 883.1171870719409 L 887.708672000037 884.866047999938 L 888.1397729280288 885.1946618879447 L 889.3941760000307 886.3416319999378 L 891.1452160000335 887.8407679999364 L 891.968749568041 888.66015641595 L 894.1844480000436 891.2599039999186 L 894.3165440000594 891.3530879999744 L 894.6472960000392 891.7985279999557 L 895.1091200000374 892.3607039999333 L 895.2412160000531 892.5931519999285 L 895.3733120000688 892.7569919999223 L 895.5054080000264 892.8511999999173 L 895.6702720000176 893.1082239999669 L 895.8671872000559 893.2499998719431 L 895.9457372160396 893.3768878079718 L 896.0665600000648 893.5772159999469 L 896.1322516480577 893.6671631359495 L 896.5847040000372 918.163455999922 L 897.0639360000496 918.1849599999259 L 897.5933440000517 918.325247999921 L 898.3515627520392 918.8632811519201 L 899.015624704014 919.5429683199618 L 899.5078123520361 919.917968383932 L 900.3376640000497 920.2903039999655 L 900.9453127680463 920.6718750719447 L 901.2265625600121 920.8515624959255 L 901.4292480000295 921.2497919999296 L 901.4921871360275 921.6249999359716 L 901.6249999360298 921.8359377919696 L 902.1245440000203 922.2553599999519 L 902.6539520000224 922.8175359999295 L 902.6539520000224 922.9107199999271 L 902.9847040000604 923.3090559999691 L 903.3809920000494 923.4257919999654 L 904.4687503360328 923.5664066559402 L 904.8033617920591 923.7998551039491 L 904.8359372800332 924.1015623679268 L 904.1100800000131 924.6658559999196 L 903.0213068800513 925.4619699199684 L 901.7656248320127 926.0703129599569 L 901.7640960000572 926.0718079999206 L 901.7265623040148 926.3046871039551 L 901.8972160000121 926.4926719999639 L 902.3272960000322 926.7967999999528 L 902.5932482560165 926.8904478719342 L 903.1875000320142 927.2656250879518 L 903.5847680000588 927.7091839999193 L 903.6009594880161 927.7558527999208 L 903.6328120320686 927.8593751039589 L 903.6874997760169 928.019530751917 L 903.8827520000632 928.5744639999466 L 903.9140628480236 928.8085934079718 L 904.0468746240367 928.9960939519224 L 904.078125056054 929.183593471942 L 904.2800640000496 929.5810559999663 L 904.5468753920286 929.9570309119299 L 904.8437504000613 930.0742184959236 L 907.0233600000502 930.0244479999528 L 907.8824960000347 930.1411839999491 L 908.2421872640261 930.3984373759595 L 908.4446720000124 930.7258879999281 L 908.4453120000544 931.7812500479631 L 908.5078128640307 932.1757808639668 L 908.6094325760496 932.2230015999521 L 908.621883392043 932.2977075199597 L 908.6443520000321 932.4584959999193 L 908.7428024320398 932.5051832319587 L 908.8430080000544 932.7155199999688 L 909.2730880000163 933.370879999944 L 910.0000000000582 934.027343871945 L 910.3281254400499 934.2578124799184 L 910.562499584048 934.5429688319564 L 910.6250004480244 934.9140623359708 L 910.5305600000429 935.313407999929 L 910.3984373760177 935.5937495039543 L 910.3656960000517 936.0394239999587 L 910.5579008000204 936.2842654719716 L 911.1875000320142 937.0937497599516 L 911.272812544019 937.3330984959612 L 911.3251840000157 937.4894079999649 L 911.2258560000337 937.9819519999437 L 911.3579520000494 938.3321599999326 L 911.424512000056 938.3792639999301 L 911.656250368047 938.8476559359697 L 911.9531253760215 939.011719167931 L 912.9139619840425 939.2460687359562 L 913.2734371840488 939.5976560639683 L 913.3424640000449 940.1343999999226 L 912.812499968044 940.8828129279427 L 912.748544000031 941.3283839999349 L 912.8806400000467 941.5618559999275 L 913.343750144064 941.921874943946 L 914.3019520000671 942.6616319999448 L 914.5475307520246 942.8932853759616 L 914.6953123840503 943.0351564799203 L 914.9921873920248 943.4335938559379 L 915.0673233920243 943.6464793599444 L 915.1293440000154 943.8320639999583 L 915.1948800000246 943.9018577919342 L 915.1948800000246 944.0890879999497 L 915.3280000000377 944.4176609279239 L 915.3280000000377 945.3066239999607 L 915.4273280000198 945.3762559999595 L 915.5594240000355 945.7981439999421 L 915.5932160000666 946.4770559999743 L 915.659776000015 946.7576319999644 L 915.6925440000487 947.1324159999494 L 915.811348480056 947.4909224959556 L 915.9218749440624 947.8320312319556 L 915.9254609920317 948.4345712639624 L 915.9260160000413 949.1445759999333 L 915.8266880000592 949.4958079999196 L 915.7265623040148 949.6132812799187 L 915.6945920000435 949.9176959999604 L 915.3976320000365 950.4092159999418 L 915.335937024036 950.5234370559338 L 915.1975802880479 950.8092528639245 L 915.0351360000204 951.1352319999714 L 914.9442365440191 951.5095572479186 L 914.8671877120505 951.8125004799222 L 914.8571924480493 952.3822254079278 L 914.8395520000486 953.1484159999527 L 914.9918044160586 953.4310860799742 L 915.1015628800378 953.640625151922 L 915.2098129920196 953.8258995199576 L 915.3024000000441 953.9891199999256 L 915.3671874560532 954.3867187199648 L 915.1713280000258 954.738687999954 L 914.9062502400484 955.0195312639698 L 914.9062502400484 955.3710940159508 L 915.335937024036 955.9335935999407 L 915.3984378880123 956.097655807971 L 915.506741248013 956.1985751039465 L 915.5686400000122 956.2593279999564 L 915.5662776320241 956.3556495359517 L 915.554688000062 956.6367191039608 L 915.546874880034 957.0351564799203 L 915.5429058560403 957.3427681279718 L 915.5358720000368 957.6407039999613 L 914.281249792024 958.8359372799168 L 913.8515630080365 959.3749995519174 L 913.8203125760192 959.7929687039577 L 913.8872320000664 960.0051199999289 L 913.9200000000419 960.4966399999685 L 913.1250001920271 962.1367183359689 L 912.9296875520376 962.6757816319587 L 912.7343749120482 962.9296875519212 L 912.3041280000471 963.1662079999223 L 908.1098240000429 963.9167999999481 L 906.4581120000221 964.1052159999381 L 904.5468753920286 964.2226565119345 L 904.1484369920217 964.2695311359712 L 904.0148480000207 964.4339199999231 L 903.7499996160623 964.6210938879522 L 903.817216000054 964.6684159999713 L 903.5530240000226 965.3698559999466 L 903.4874880000134 965.9084799999255 L 903.5488000000478 965.9950755839236 L 903.5859374080319 966.0507811839343 L 903.924235264014 966.2964152319473 L 904.4797440000693 966.7041279999539 L 904.8432640000246 967.0318079999415 L 906.1953126400476 967.7343754239264 L 908.443648000015 968.6446079999441 L 909.5352320000529 969.183231999923 L 910.3943680000375 969.6737279999652 L 910.7891548160696 969.9767039999715 L 911.1214080000645 970.4929279999342 L 911.4183680000133 970.8441599999205 L 912.8724480000674 971.9439359999378 L 913.335296000063 972.7866879999638 L 913.6640624640277 973.2070307839313 L 914.3265280000633 973.6755199999316 L 914.9531248640269 973.9570309119299 L 916.6387200000463 974.4465919999639 L 918.3887360000517 975.0312959999428 L 919.2109373440617 975.5000002559391 L 919.5294095360441 975.7720279039349 L 920.1059840000235 976.2713599999552 L 920.2031247360283 976.4335933439434 L 920.2718720000121 976.4587519999477 L 920.4039680000278 976.6225919999415 L 921.2631040000124 977.300479999918 L 921.8570240000263 977.9097599999513 L 921.989120000042 978.1196799999452 L 921.9901440000394 978.6347519999254 L 921.6931840000325 978.9624319999712 L 921.6678645760403 979.0890280959429 L 921.6249999360298 979.289062399941 L 923.4446223360137 980.5776363519253 L 924.0703580160625 981.1370209279703 L 924.1015623680432 981.3476567039615 L 924.1703352320474 981.420250111958 L 924.4682240000693 982.0989439999685 L 924.8972800000338 982.6836479999474 L 924.9966080000158 982.8945919999387 L 925.2608000000473 983.1987199999276 L 925.4266880000359 983.5960319999722 L 925.4266880000359 983.8121164799668 L 925.4218752000597 984.1562501119333 L 924.9977507840376 984.6495918079745 L 924.4042403840576 984.9535856639268 L 923.2812503040186 985.2109373439453 L 922.390625280037 985.5156254719477 L 921.6328120320686 985.7265623039566 L 920.6406246400438 985.8671871999395 L 919.9810560000478 985.985023999936 L 919.5520000000251 986.1959679999272 L 918.7890626560547 986.4999997439445 L 917.898437632015 986.9921873919666 L 917.8337095680181 987.0771425279672 L 917.7702400000417 987.1564799999469 L 917.7702400000417 987.7422079999233 L 917.6053760000505 987.9756799999741 L 917.3046876160661 988.0937502719462 L 916.812499968044 988.3984373759595 L 916.4140625920263 988.7031255039619 L 916.2198179840343 989.0294558719615 L 915.8901760000153 989.3345279999194 L 915.5937495040125 989.4257817599573 L 914.8661760000396 989.0539519999293 L 913.5156264960533 988.937494527956 L 912.6875002880697 988.6796871679253 L 912.2252800000133 988.6801919999416 L 912.0931840000558 988.9382399999304 L 912.357376000029 989.1246079999255 L 913.9453122560517 989.6640624639695 L 914.3671879680478 989.9453122559353 L 914.4498739200644 990.2599772159592 L 914.5047040000209 990.4814079999342 L 914.6695680000121 990.6216959999292 L 915.1641600000439 990.6687999999267 L 917.8378240000457 990.1527039999492 L 920.578048000054 989.7308159999666 L 921.1718748160638 989.7304688639706 L 922.0937502720626 989.8945310719428 L 923.3203128320165 989.917968383932 L 923.6796876800363 989.8710937599535 L 924.8696320000454 989.5188479999197 L 926.7187496960396 988.652343295922 L 929.5564800000284 987.644927999936 L 930.7802408960415 987.4571857919218 L 931.1078400000697 987.5271679999423 L 933.3203128320165 988.347656191967 L 933.9801600000355 988.6730239999597 L 935.3919938560575 989.6990566399181 L 936.5859379200265 990.5703127039596 L 937.1938938880339 991.0892462079646 L 937.6778240000131 991.5054079999682 L 938.4048640000401 992.0901119999471 L 939.093749760068 992.8398438399308 L 939.4296872960404 993.2617185279378 L 939.9531253760215 993.6796876799199 L 940.0488232960342 993.8121922559221 L 940.2542080000276 994.102271999931 L 940.2542080000276 994.1729279999272 L 940.4190720000188 994.4074239999172 L 940.4738334720605 994.5231564799324 L 940.5156249600695 994.6171873279382 L 940.5811660800246 994.6886871039169 L 940.6832640000503 994.8047359999618 L 940.6832640000503 994.8989439999568 L 940.7488000000594 994.9450239999569 L 940.880896000017 995.319807999942 L 940.9765621760162 995.390624767926 L 941.1788800000213 995.8113279999234 L 941.310976000037 995.9751679999172 L 941.310976000037 996.068351999973 L 941.8393600000418 996.7943679999444 L 941.8393600000418 996.8875519999419 L 941.9048960000509 996.9582079999382 L 941.9048960000509 997.0513919999357 L 942.3984373760177 997.7304688639706 L 942.4297154560336 997.8243031039601 L 942.4660480000312 997.9412479999592 L 942.5626757120481 998.0865648639738 L 942.7265628160676 998.3398440959281 L 942.9288960000267 998.9939199999208 L 942.7968000000692 999.4393599999603 L 942.5991680000443 999.7434879999491 L 942.53125017602 999.9999999999418 L 942.6647040000535 1000.0947199999355 L 943.523840000038 1000.1407999999356 L 943.920128000027 1000.2350079999305 L 944.4453120000544 1000.5624995839316 L 944.8749998080311 1000.9843752959277 L 945.0078126080334 1001.289062399941 L 944.9813626880641 1001.4411499519483 L 944.9103360000299 1001.8263039999292 L 945.0424320000457 1002.1539839999168 L 945.4725120000658 1002.6690559999552 L 947.2881336320424 1004.2843269119621 L 947.3515622400446 1004.6835937279393 L 947.4526167040458 1004.8220887039206 L 947.351877632027 1005.1746764799464 L 946.8281251840526 1005.4531246079714 L 945.4375004160684 1005.8281246719416 L 943.7578127360321 1005.921874943946 L 943.2968744960381 1006.0390625279397 L 943.0312499200227 1006.20312473597 L 942.9647360000527 1006.4373759999289 L 943.1306240000413 1006.8828159999684 L 943.5234375680448 1006.976562175958 L 943.5258880000329 1006.975999999966 L 944.0234373120475 1006.6953123839339 L 944.0870400000131 1006.5315839999239 L 944.4466862080153 1006.4147496959195 L 944.5169049600372 1006.4498585599358 L 944.5816320000449 1006.4844799999264 L 944.6543749120319 1006.6896865279414 L 944.7421870080288 1006.9531248639687 L 944.9123840000248 1007.1633919999585 L 944.9123840000248 1007.2565759999561 L 945.1438080000225 1007.5842559999437 L 945.2093440000317 1007.795199999935 L 945.5390720000141 1008.3338239999721 L 945.7704960000119 1008.5212159999646 L 946.2323200000683 1008.7311359999585 L 947.7499996160623 1009.2226559999399 L 948.4765624320135 1009.5273441279423 L 948.575232000032 1009.7367039999226 L 948.4765624320135 1010.1796874239226 L 948.4062504960457 1010.2968750079744 L 948.3437496320694 1010.7656253439491 L 948.4441600000137 1010.8835839999374 L 948.4769280000473 1011.0709759999299 L 948.7083520000451 1011.3751039999188 L 948.7628021760611 1011.5435581439524 L 948.8046878720634 1011.6796876799199 L 948.9059840000118 1011.7498879999621 L 949.0380800000275 1012.1707519999472 L 949.1015628800378 1012.2421872639679 L 949.2343746560509 1013.8085939199664 L 949.3984378880123 1015.0039060479612 L 949.5000002560555 1015.4726563839358 L 949.5611320320168 1015.5996221439564 L 949.698560000048 1015.8929919999209 L 949.8978631680366 1016.1749544959166 L 949.9609374720603 1016.3125002239249 L 950.3262720000348 1016.8760319999419 L 950.390625280037 1017.0625003519235 L 950.7543040000601 1017.3439999999246 L 950.8170414080378 1017.4436986879446 L 950.8828129280591 1017.5546879999456 L 951.1171870720573 1017.6718745599501 L 951.1484375040163 1017.8125004799222 L 951.4140917760669 1018.0703416319448 L 951.5781253120513 1018.2343751679291 L 951.9178270720295 1018.51601510396 L 952.2895984640345 1018.828661759966 L 952.3046871040133 1018.8437503999448 L 952.4999997440609 1019.0976563199656 L 952.508083200024 1019.14009599993 L 952.537088000041 1019.3797119999654 L 952.7019520000322 1019.8015999999479 L 952.8340480000479 1020.2931199999293 L 952.9661440000637 1020.4569599999231 L 952.9661440000637 1020.5972479999182 L 953.2631040000124 1021.159423999954 L 953.3952000000281 1021.2997119999491 L 953.592832000053 1022.1649919999181 L 953.6921600000351 1022.2356479999726 L 953.6921600000351 1022.3288319999701 L 954.0859371520346 1022.9609379839385 L 954.9127680000383 1023.5125759999501 L 955.000226816046 1023.6474931199336 L 955.1718748160638 1023.917968383932 L 955.341146361432 1024.0" fill="none"/></svg>