<svg xmlns="http://www.w3.org/2000/svg" width="1024" height="1024"><rect stroke="none" x="0" y="0" width="1024" height="1024" fill="white"/><path stroke="#000000" stroke-width="2" d="M 157.89174937240023 1024.0 L 158.4140625920263 1023.2695316479658 L 159.23437465605093 1020.1992191999452 L 158.62500044802437 1015.8984376319568 L 156.67187507206108 1012.3125002239249 L 158.4140625920263 1009.6523438079166 L 158.10937548801303 1005.7617182719405 L 156.2656245760154 1002.378906623926 L 157.28906240005745 999.3085941759637 L 160.3593748480198 995.5195310079725 L 162.5078128640307 992.347656191967 L 165.48437504004687 990.9101557759568 L 169.88281241600635 989.2734371839324 L 174.49218764802208 987.535156223923 L 176.85156249604188 986.5078128639725 L 179.92187494406244 984.2578124799184 L 182.6875002880115 980.5703127039596 L 185.1406254080357 978.5234370559338 L 187.80468736001058 976.3710935039562 L 190.57031270401785 974.3242188799195 L 194.04687462403672 973.0937497599516 L 196.5078128640307 971.6601559039555 L 199.89062451204518 968.3828121599508 L 203.06250035203993 966.3359375359723 L 205.10937497601844 964.1874995199614 L 208.179687424039 961.2148439039593 L 209.92187494406244 958.0429690879537 L 211.66406246402767 956.7109375999426 L 213.30468761600787 954.4570316799218 L 214.42968780803494 952.2070312959258 L 217.60156262404053 949.1328122879495 L 220.98437529604416 944.2187499519205 L 221.1875000320142 940.2226565119345 L 220.98437529604416 934.8984371199622 L 221.1875000320142 931.4179686399293 L 221.59374950401252 928.8593745919643 L 222.7265628160094 925.8867189759621 L 225.89843763201497 921.9960934399278 L 228.46093721606303 918.8242186239222 L 230.5078128640307 915.9570309119299 L 232.65624985605245 915.2382812159485 L 235.92968704004306 913.7031249919673 L 238.9062502400484 912.0664063999429 L 242.69531238405034 910.8359372799168 L 245.96874956804095 909.6054691839381 L 249.0390620160615 908.171875327942 L 251.80468736001058 905.921874943946 L 252.2187499520369 902.3359375359723 L 253.1406254080357 899.6718745599501 L 256.10937548801303 898.445311999938 L 259.0781245440594 896.8085934079718 L 259.8906245120452 893.2226559999399 L 260.4062504960457 888.7187496959232 L 263.6874997760169 885.4414059519186 L 269.3124997120467 883.187500031956 L 274.2265620480175 881.4453125119326 L 277.30468761600787 877.2499998719431 L 278.1249996800325 870.796874751919 L 278.83593728003325 864.9609379839385 L 281.39843788801227 860.9648435199633 L 282.42187468800694 856.1523435519193 L 282.42187468800694 848.3710935039562 L 283.445312512049 845.5039057919639 L 286.10937548801303 840.1796874239226 L 289.0781245440594 835.1601561599527 L 290.7187496960396 830.554687487951 L 292.56249958404806 825.9453122559353 L 294.914062336029 821.85156300792 L 297.47656294400804 816.1171875839354 L 298.4999997440609 810.277344255941 L 297.57812531205127 805.464843263966 L 297.16406272002496 801.5742187519209 L 297.88281241600635 798.7070310399286 L 298.80468787206337 796.558594047965 L 300.8515624960419 794.097655807971 L 303.0078126080334 790.4140625919681 L 303.10937497601844 785.6015626239241 L 303.4140620800317 782.2226565119345 L 303.92968704004306 778.7382814719458 L 306.69531238405034 774.9492183039547 L 308.6406246400438 771.7773434879491 L 310.1718753280584 767.4765629439498 L 311.39843788801227 763.1757813759614 L 312.7343749120482 760.8203120639664 L 313.75781273603207 758.3632814079174 L 315.5000002560555 754.9843752959277 L 318.87499980803113 751.8085939199664 L 320.7187496960396 749.7617182719405 L 325.6328120320104 747.4062499839347 L 329.6328120320104 744.6406246399274 L 332.9062502400484 741.6718745599501 L 333.52343756804476 739.3164062719443 L 334.5468753920286 736.652343295922 L 335.3593753600144 732.9648435199633 L 335.57031219202327 728.9726566399331 L 335.46874982403824 726.3125002239249 L 335.25781299202936 718.8359372799168 L 334.75000012805685 715.5585935359704 L 334.2343751680455 710.3359375359723 L 333.7265623040148 708.1874995199614 L 334.03125043201726 705.7265623039566 L 333.3124997120467 700.8124999679276 L 333.5156254720059 698.1523435519193 L 334.33593753603054 694.7734374399297 L 336.39062528003706 692.6210938879522 L 338.43749990401557 689.6523438079166 L 341.7109370880062 684.2226565119345 L 344.07031296001514 680.9492183039547 L 347.1406254080357 676.8515624959255 L 349.39062476804247 673.3710940159508 L 351.1328122880077 670.1953126399312 L 352.7734374400461 667.3281249279389 L 355.02343782404205 664.4609372159466 L 359.5312496640254 659.0351564799203 L 363.42187520005973 654.1171875839354 L 366.4921876480221 650.1249996799743 L 367.2109373440617 647.9765626879525 L 369.66406246402767 645.1093749759602 L 372.3281254400499 642.2382817279431 L 373.7656248320127 640.0898437119322 L 376.2187499520369 637.6328120319522 L 378.06249984004535 634.7656253439491 L 379.9062497280538 632.4101560319541 L 381.2421877760207 629.1328122879495 L 382.6718750720611 626.2656245759572 L 385.84374988800846 621.4531246079714 L 388.5078128640307 618.5859379199683 L 390.3515627520392 616.027343871945 L 393.1171870720573 613.9765626879525 L 395.88281241600635 612.031250431959 L 399.05468723201193 610.0859371519182 L 402.74218700802885 607.4257817599573 L 406.42968780803494 604.8632811519201 L 410.3203123200219 602.8164065279416 L 412.57031270401785 600.3593748479616 L 413.4921871360275 596.5703127039596 L 414.7265628160094 593.19140659197 L 416.15625011204975 589.6054691839381 L 417.38281267206185 586.4335933439434 L 418.921875456057 581.0039060479612 L 419.84374988800846 576.4999997439445 L 420.7656253440073 572.8124999679276 L 422.0937502720626 570.0468746239203 L 424.0390625280561 569.0234378239256 L 426.19531264004763 567.3867192319594 L 428.8515624960419 564.3125002239249 L 433.05468723201193 561.3437501439475 L 438.2734376960434 558.9882808319526 L 442.2656245760154 557.1445309439441 L 444.3125002240413 554.4843745279359 L 447.6953128960449 552.2304686079733 L 451.6874997760169 550.9999994879472 L 455.37499955203384 548.9531248639687 L 455.37499955203384 543.5273441279423 L 455.57812531205127 539.4296872959239 L 454.14843699202174 537.1796879359172 L 452.0000000000582 531.2382812159485 L 453.42968729604036 528.167968767928 L 453.9453122560517 526.1171875839354 L 455.07031244802056 522.4335933439434 L 456.19531264004763 520.2812497919658 L 457.1171870720573 517.7226557439426 L 457.2187504640315 513.7265623039566 L 454.8671877120505 511.06640588794835 L 453.2265625600121 508.5078128639725 L 454.65624985605245 505.02343782392563 L 458.7578122240375 503.1796879359172 L 462.1328128000605 501.33984358393354 L 464.4921876480221 499.80078079993837 L 466.43749990401557 498.06249983992893 L 468.5859379200265 495.6015626239241 L 470.01562521600863 492.53125017596176 L 472.3750000640284 489.0507816959289 L 475.445312512049 486.5937500159489 L 476.57031270401785 483.8281246719416 L 478.00781209603883 481.3710940159508 L 478.3125002240413 477.6835942399339 L 479.43750041601015 474.71484415995656 L 480.97656217601616 473.07421900791815 L 483.5390627840534 471.02734335995046 L 484.7656253440073 467.5468748799176 L 486.812499968044 465.29296895995503 L 487.42968729604036 462.93749964796007 L 483.5390627840534 460.378906623926 L 484.66406297602225 457.816406015947 L 486.71093760005897 456.2812497919658 L 489.16406272002496 455.0546872319537 L 492.5468753920286 454.03125043195905 L 496.74218700802885 454.1328127999441 L 499.5078123520361 454.2343751679291 L 502.1718753280584 453.5156254719477 L 505.4531246080296 451.6757811199641 L 508.3203123200219 448.3984373759595 L 508.52343705605017 444.8124999679276 L 510.57031270401785 442.8671877119341 L 513.335937024036 441.12500019196887 L 515.5859374080319 439.79687526397174 L 517.4296872960404 438.4648437759606 L 520.812499968044 436.4179691519239 L 524.390625280037 434.67578163195867 L 526.7500001280569 434.06249983992893 L 529.1015628800378 433.2421877759625 L 530.9453127680463 430.273437695927 L 529.2031252480228 426.07421849592356 L 531.3593753600144 422.2851563519216 L 535.554688000062 420.1367183359689 L 538.3203123200219 417.7812500479631 L 541.2890624000574 415.62890649592737 L 546.921875456057 409.79296870395774 L 549.2812503040186 405.79687526397174 L 549.3749995520338 403.03515647992026 L 549.5859374080319 400.06640639994293 L 549.4843750400469 395.66015590395546 L 548.0468746240367 391.5664066559402 L 545.898437632015 390.2343751679291 L 542.9296875520376 388.39062527992064 L 541.7031249920256 386.75390668795444 L 540.1640622080304 383.3749995519174 L 541.0859376640292 380.9140623359708 L 539.1406254080357 378.4570316799218 L 537.195312128053 377.2304691199679 L 534.9374996480183 377.02343782392563 L 531.3593753600144 376.4101560319541 L 529.5156254720059 373.33593702391954 L 529.9218749440624 369.9609374719439 L 529.4140620800317 367.70703155192314 L 527.6718745600083 366.06640639994293 L 525.0078126080334 364.4296878079185 L 524.9062502400484 360.6406246399274 L 523.7812500480213 357.97656268795254 L 521.6328120320104 355.92968703992665 L 518.6562498560525 353.4726563839358 L 514.460937216063 350.70703103992855 L 511.0859376640292 348.8632811519201 L 508.10937548801303 347.2265625599539 L 506.06249984004535 345.38281267194543 L 503.39843788801227 342.61718732793815 L 501.3515622400446 340.67187507194467 L 499.30468761600787 337.70312499196734 L 495.4140620800317 333.9140628479654 L 492.75000012805685 332.277344255941 L 489.16406272002496 330.94531276792986 L 487.1171870720573 329.71484364796197 L 485.2812503040186 327.97656268795254 L 482.61718732805457 325.5156254719477 L 481.2812503040186 322.6484377599554 L 479.0312499200227 319.6796876799199 L 475.8593751040171 314.9687500799191 L 475.0390620160615 311.1796879359172 L 474.83593728003325 307.085937663971 L 474.52343705605017 302.57812479994027 L 473.8046873600106 299.30468761594966 L 473.8125004800386 294.5937500159489 L 472.9921873920248 290.906250239932 L 473.2968744960381 288.65234329592204 L 473.70312499202555 285.6835942399339 L 474.2187499520369 282.61328076792415 L 474.01562521600863 280.4609372159466 L 474.62500044802437 277.4921871359693 L 475.0390620160615 271.75781273597386 L 473.19531212805305 268.17187532794196 L 471.4531246080296 265.71484364796197 L 470.02343731204746 263.25781299197115 L 468.78906265605474 261.3124997119303 L 466.74218700802885 258.9570314239245 L 464.8984371200204 256.7031255039619 L 463.15624960005516 253.93750015995465 L 459.26562508801 252.81249996792758 L 457.1171870720573 252.5078128639725 L 453.74218752002344 251.5859374079737 L 450.7656253440073 250.0468746239203 L 448.21093785605626 247.89843763195677 L 446.2656245760154 246.15625011193333 L 443.5000002560555 243.39062476792606 L 440.11718758405186 241.65234380791662 L 437.56250009604264 240.7304683519178 L 434.79687475203536 239.39843788795406 L 431.8203125760192 237.14453094394412 L 427.6249999360298 234.48437452793587 L 424.14843699202174 232.6406246399274 L 422.19531264004763 230.79687475191895 L 419.43750041601015 228.6484377599554 L 415.64843724801904 226.29296844796045 L 411.1406254080357 225.7812500479631 L 407.65625036804704 225.3710940159508 L 403.96874956804095 224.1406248959247 L 400.179687424039 223.62890649592737 L 396.60156211204594 223.3203128319583 L 393.93750016001286 222.9140623359708 L 391.57812531205127 222.70703103992855 L 389.2265625600121 223.21875046397327 L 386.7656253440073 223.3203128319583 L 383.5937495040125 222.5039063039585 L 380.52343705605017 220.96875007991912 L 376.9374996480183 220.25000038393773 L 372.9453127680463 221.5820308479597 L 370.4843745280523 222.9101557759568 L 367.61718784004916 224.34765619196696 L 362.80468787206337 225.26953164796578 L 354.921875456057 225.57421875192085 L 351.33593702403596 225.47265638393583 L 347.74999961606227 225.06250035192352 L 345.2968744960381 224.34765619196696 L 342.1249996800325 222.70703103992855 L 338.43749990401557 219.53124966396717 L 334.8515624960419 216.7695308799739 L 331.88281241600635 214.71874969592318 L 329.01562470401404 212.57031270395964 L 327.2734371840488 210.92968755192123 L 325.84374988800846 208.78124953596853 L 323.6874997760169 204.58203135995427 L 322.0546877440065 201.61328127991874 L 319.6953128960449 197.41406207997352 L 316.3203123200219 194.9570314239245 L 314.1640622080304 193.11328153597424 L 313.2421877760207 190.75781222392106 L 311.2968744960381 185.74218751996523 L 307.92187494406244 183.38671923195943 L 303.7187502080342 182.36328140791738 L 299.82812467205804 179.90234419197077 L 297.8828134400537 178.77734195196535 L 293.6874997760169 177.65234380791662 L 290.61718732805457 177.34375014394755 L 286.10937548801303 178.16406220797217 L 282.11718758405186 177.85546854394488 L 280.1718753280584 177.5507814399316 L 275.7656248320127 177.75390617595986 L 270.9531248640269 177.85546854394488 L 266.5546874880092 179.39062476792606 L 263.9921879040194 180.72265625593718 L 261.6328120320104 182.25781247991836 L 258.7656253440073 183.9999999999418 L 255.89843763201497 185.43359385593794 L 251.29687449603807 187.17578137596138 L 248.3203123200219 187.78906214394374 L 245.24999987205956 188.19921919994522 L 242.79687475203536 187.99218790396117 L 237.6718745600083 184.71874969592318 L 234.9062502400484 182.87499980797293 L 231.83593779202783 181.44140595191857 L 228.96875008003553 180.4179691519239 L 224.87499980803113 179.80078079993837 L 222.61718732805457 178.67578163195867 L 221.1875000320142 176.7304683519178 L 219.34375014400575 174.78515609592432 L 216.78124953602673 172.12109414394945 L 215.96093747206032 169.76562483195448 L 216.47656243201345 166.38671871996485 L 217.5000002560555 162.49609420791967 L 217.0937497600098 158.60546867194353 L 215.4531246080296 154.81640652794158 L 213.10156288003782 151.53906278393697 L 211.14843750401633 147.74999961594585 L 208.79687475203536 143.75781273597386 L 204.28906291205203 140.17187532794196 L 201.52343756804476 138.6367191039608 L 199.27343718404882 136.89453158393735 L 197.6328120320104 134.43749990395736 L 195.0781245440594 130.9570314239245 L 192.51562496001134 128.0898437119322 L 190.3671879680478 125.42578175995732 L 185.96093747206032 122.56249958393164 L 180.53125222405652 119.691403263947 L 175.3124997120467 117.03124991996447 L 165.17187481600558 112.52734361594776 L 159.74999961606227 109.86328166397288 L 156.67187507206108 105.87109375995351 L 154.52343705605017 103.71875020791776 L 152.17187532805838 102.08203161595156 L 149.71093708800618 99.92968703992665 L 146.64062464004382 98.29296844796045 L 143.57031219202327 94.91406233597081 L 139.88281241600635 89.48437503993046 L 137.93750016001286 86.8242186239222 L 136.29687500803266 83.9570309119299 L 133.84374988800846 78.3242188799195 L 132.812499968044 75.4570311679272 L 132.812499968044 70.2343751679291 L 131.38281267206185 66.13671833596891 L 129.43750041601015 62.24609382392373 L 127.79687526402995 58.45703167992178 L 127.18750003201421 54.97656217595795 L 127.69531289604492 51.187500031956006 L 126.97656217601616 46.6835937279393 L 123.08593766402919 42.89453158393735 L 117.14843750401633 42.48437452793587 L 113.25781299202936 41.66406246396946 L 111.41406208003173 40.33203097595833 L 109.36718745605322 36.33984409592813 L 107.82812467205804 32.242187263967935 L 108.24218726402614 29.785156607918907 L 109.57031219202327 26.917968895926606 L 109.36718745605322 23.53906278393697 L 107.62499993602978 21.90234419197077 L 105.57812531205127 20.570312703959644 L 102.91406233602902 18.316405759949703 L 99.02343782404205 16.57812479994027 L 96.46093721606303 15.246093311929144 L 92.46875033603283 12.277344255940989 L 90.21874995203689 10.738281471945811 L 88.47656243201345 7.976562687952537 L 86.94531276804628 5.824219135916792 L 85.9140628480236 4.492187647963874 L 84.17187532805838 4.082031615951564 L 83.56250009604264 1.113281535974238 L 83.42444630948012 0.0" fill="none"/><path stroke="#000000" stroke-width="2" d="M 0.0 2.9642265681759454 L 2.6640629761386663 3.0585937919677235 L 16.69531238405034 3.0585937919677235 L 21.203125248022843 3.1601561598363332 L 24.273437696043402 3.3671874559368007 L 27.54687488003401 3.265625087893568 L 30.41406259208452 3.265625087893568 L 33.07812454405939 3.3671874559368007 L 35.94531225616811 3.4687498238054104 L 39.21875046408968 3.570312191848643 L 47.210937344061676 3.570312191848643 L 50.58593792002648 3.675781119905878 L 53.45312460802961 3.7773434879491106 L 60.72656281600939 3.7773434879491106 L 62.97656217601616 3.8789058558177203 L 65.33593702415237 3.980469247966539 L 67.78906214406015 3.980469247966539 L 70.96875008009374 4.082031615951564 L 74.4453120000544 4.1874995199614204 L 78.03125043201726 4.289062911935616 L 81.10156288003782 4.289062911935616 L 84.17187532805838 4.082031615951564 L 85.9140628480236 4.492187647963874 L 86.94531276804628 5.8242191358003765 L 88.47656243207166 7.976562687952537 L 90.21874995203689 10.738281471945811 L 92.46875033603283 12.277344255824573 L 96.46093721612124 15.246093311812729 L 99.02343782404205 16.578124799823854 L 102.91406233608723 18.316405759949703 L 105.57812531205127 20.570312703901436 L 107.62499993608799 21.902344191854354 L 109.36718745605322 23.53906278393697 L 109.57031219202327 26.9179688958684 L 108.24218726402614 29.785156607918907 L 107.82812467205804 32.24218726385152 L 109.36718745605322 36.33984409581171 L 111.41406208008993 40.33203097595833 L 113.25781299202936 41.66406246396946 L 117.14843750407454 42.484374527819455 L 123.08593766402919 42.89453158393735 L 126.97656217607437 46.68359372782288 L 127.69531289604492 51.187500031956006 L 127.18750003207242 54.976562175841536 L 127.79687526408816 58.45703167992178 L 129.43750041612657 62.246093823807314 L 131.38281267212005 66.13671833596891 L 132.8124999681604 70.2343751679291 L 132.8124999681604 75.45703116786899 L 133.84374988800846 78.3242188799195 L 136.29687500814907 83.95703091181349 L 137.93750016001286 86.824218623864 L 139.88281241600635 89.48437503998866 L 143.57031219208147 94.9140623358544 L 146.64062464016024 98.29296844790224 L 149.71093708800618 99.92968703981023 L 152.17187532805838 102.08203161595156 L 154.52343705610838 103.71875020785956 L 156.67187507206108 105.8710937598371 L 159.74999961606227 109.86328166391468 L 165.1718748160638 112.52734361600596 L 175.3124997120467 117.03124991990626 L 180.53125222405652 119.691403263947 L 185.96093747211853 122.56249958381522 L 190.3671879680478 125.42578175989911 L 192.51562496001134 128.0898437119904 L 195.0781245441176 130.95703142380808 L 197.63281203212682 134.43749990395736 L 199.27343718410702 136.89453158393735 L 201.52343756810296 138.6367191039608 L 204.28906291216845 140.17187532782555 L 208.79687475209357 143.75781273585744 L 211.14843750401633 147.74999961582944 L 213.10156288009603 151.53906278382055 L 215.4531246080296 154.81640652788337 L 217.0937497600098 158.6054686718271 L 217.5000002560555 162.49609420786146 L 216.47656243201345 166.38671871996485 L 215.96093747211853 169.76562483189628 L 216.78124953602673 172.12109414389124 L 219.34375014406396 174.78515609592432 L 221.1875000320142 176.7304683518014 L 222.61718732805457 178.67578163195867 L 224.87499980808934 179.80078079993837 L 228.96875008009374 180.4179691519821 L 231.83593779202783 181.44140595186036 L 234.9062502400484 182.87499980791472 L 237.6718745600665 184.71874969592318 L 242.79687475209357 187.99218790384475 L 245.24999987205956 188.19921919994522 L 248.32031232008012 187.78906214382732 L 251.29687449609628 187.17578137596138 L 255.89843763201497 185.43359385593794 L 258.7656253441237 183.9999999999418 L 261.6328120320686 182.25781247991836 L 263.9921879040194 180.72265625587897 L 266.55468748812564 179.39062476792606 L 270.9531248640851 177.85546854382847 L 275.7656248320127 177.75390617601806 L 280.1718753280584 177.5507814399316 L 282.11718758411007 177.85546854382847 L 286.10937548801303 178.16406220803037 L 290.6171873281128 177.34375014400575 L 293.6874997760169 177.6523438078002 L 297.88281344017014 178.77734195202356 L 299.82812467205804 179.90234419185435 L 303.7187502080924 182.36328140785918 L 307.92187494406244 183.38671923184302 L 311.2968744960381 185.74218751990702 L 313.24218777607894 190.75781222392106 L 314.1640622080304 193.11328153591603 L 316.3203123200219 194.9570314239245 L 319.6953128960449 197.4140620798571 L 322.0546877440065 201.61328127991874 L 323.6874997760169 204.58203135995427 L 325.84374988800846 208.78124953591032 L 327.2734371840488 210.92968755192123 L 329.01562470407225 212.57031270390144 L 331.88281241600635 214.71874969586497 L 334.8515624961001 216.7695308800321 L 338.43749990401557 219.53124966396717 L 342.1249996800907 222.70703103998676 L 345.2968744960381 224.34765619190875 L 347.7499996161205 225.06250035198173 L 351.33593702403596 225.47265638399404 L 354.921875456057 225.57421875180444 L 362.80468787206337 225.26953164790757 L 367.61718784010736 224.34765619190875 L 370.4843745280523 222.9101557758404 L 372.9453127680463 221.58203084790148 L 376.9374996480183 220.25000038387952 L 380.52343705605017 220.9687500798609 L 383.59374950407073 222.5039063039003 L 386.7656253440073 223.3203128319583 L 389.2265625600121 223.21875046391506 L 391.5781253121095 222.70703103998676 L 393.93750016007107 222.9140623359126 L 396.60156211204594 223.3203128319583 L 400.179687424039 223.62890649592737 L 403.96874956804095 224.1406248958083 L 407.65625036810525 225.3710940159508 L 411.1406254080939 225.7812500479631 L 415.64843724801904 226.29296844801866 L 419.43750041601015 228.6484377599554 L 422.19531264010584 230.79687475191895 L 424.14843699207995 232.64062463998562 L 427.6249999360298 234.48437452781945 L 431.8203125760192 237.1445309438859 L 434.7968747520936 239.39843788783764 L 437.56250009610085 240.7304683519178 L 440.11718758411007 241.65234380791662 L 443.5000002560555 243.39062476786785 L 446.2656245760736 246.15625011187512 L 448.21093785605626 247.89843763184035 L 450.7656253440655 250.0468746238039 L 453.74218752002344 251.58593740791548 L 457.1171870720573 252.5078128638561 L 459.26562508801 252.81249996781116 L 463.15624960005516 253.93750015983824 L 464.8984371200786 256.7031255038455 L 466.74218700808706 258.9570314238663 L 468.78906265611295 261.3124997119885 L 470.02343731210567 263.25781299191294 L 471.4531246080878 265.71484364784556 L 473.19531212805305 268.17187532788375 L 475.0390620161779 271.75781273591565 L 474.62500044802437 277.4921871359111 L 474.01562521600863 280.4609372159466 L 474.2187499521533 282.61328076780774 L 473.70312499208376 285.68359423981747 L 473.2968744960963 288.6523432958056 L 472.992187392083 290.906250239932 L 473.8125004800386 294.5937500160071 L 473.8046873600106 299.30468761589145 L 474.5234370561084 302.57812479988206 L 474.83593728003325 307.08593766385457 L 475.0390620161779 311.17968793580076 L 475.8593751040171 314.9687500799191 L 479.0312499200809 319.6796876799781 L 481.2812503040768 322.648437759839 L 482.6171873281128 325.5156254718895 L 485.2812503040768 327.97656268789433 L 487.1171870721737 329.7148436480202 L 489.16406272002496 330.94531276792986 L 492.75000012805685 332.277344255941 L 495.41406208008993 333.914062847849 L 499.3046876161243 337.70312499190914 L 501.3515622400446 340.67187507182825 L 503.3984378880705 342.61718732787995 L 506.06249984004535 345.3828126718872 L 508.10937548801303 347.2265625598957 L 511.0859376640292 348.8632811518037 L 514.460937216063 350.70703103987034 L 518.6562498560525 353.4726563838776 L 521.6328120320104 355.92968703998486 L 523.7812500480795 357.97656268795254 L 524.9062502401066 360.6406246398692 L 525.0078126080334 364.4296878078603 L 527.6718745600083 366.06640639994293 L 529.4140620800317 367.70703155192314 L 529.9218749441206 369.9609374719439 L 529.5156254720641 373.3359370238031 L 531.3593753600726 376.4101560319541 L 534.9374996480183 377.02343782392563 L 537.1953121281113 377.2304691199097 L 539.1406254080939 378.45703167980537 L 541.0859376640292 380.9140623359126 L 540.1640622080886 383.3749995518592 L 541.7031249920838 386.75390668789623 L 542.9296875520959 388.3906252798042 L 545.8984376320732 390.2343751678127 L 548.0468746240367 391.56640665599843 L 549.4843750401051 395.66015590383904 L 549.5859374080319 400.06640639994293 L 549.3749995520338 403.03515647986205 L 549.2812503040186 405.79687526397174 L 546.921875456057 409.7929687038413 L 541.2890624001157 415.62890649592737 L 538.3203123200219 417.7812500479631 L 535.554688000062 420.1367183358525 L 531.3593753600726 422.2851563519216 L 529.2031252480228 426.07421849580714 L 530.9453127681045 430.27343769581057 L 529.101562880096 433.2421877759043 L 526.7500001280569 434.06249983992893 L 524.3906252800953 434.67578163190046 L 520.8124999681022 436.4179691519239 L 517.4296872960404 438.4648437758442 L 515.5859374080319 439.79687526397174 L 513.335937024036 441.12500019191066 L 510.57031270401785 442.8671877119341 L 508.5234370561084 444.81249996781116 L 508.3203123200219 448.39843737584306 L 505.4531246080878 451.6757811199059 L 502.1718753280584 453.5156254719477 L 499.5078123520361 454.2343751679291 L 496.74218700802885 454.13281279988587 L 492.5468753920286 454.03125043184264 L 489.16406272002496 455.0546872319537 L 486.71093760005897 456.2812497918494 L 484.66406297602225 457.8164060158888 L 483.5390627840534 460.3789066238678 L 487.42968729604036 462.9374996480183 L 486.8124999681604 465.29296895995503 L 484.7656253440655 467.5468748798594 L 483.5390627840534 471.02734335995046 L 480.97656217607437 473.07421900780173 L 479.43750041612657 474.71484415995656 L 478.3125002240995 477.68359423981747 L 478.00781209609704 481.3710940158926 L 476.57031270401785 483.8281246718252 L 475.445312512049 486.5937500158325 L 472.3750000640284 489.0507816958125 L 470.01562521600863 492.53125017596176 L 468.5859379200265 495.6015626238659 L 466.4374999040738 498.0624998398707 L 464.4921876480221 499.80078079982195 L 462.1328128000605 501.33984358393354 L 458.7578122240375 503.17968793580076 L 454.65624985611066 505.0234378238092 L 453.2265625600121 508.5078128640307 L 454.8671877121669 511.06640588794835 L 457.2187504640315 513.7265623038984 L 457.1171870720573 517.7226557439426 L 456.19531264010584 520.2812497919658 L 455.07031244807877 522.4335933438269 L 453.9453122561099 526.1171875839354 L 453.42968729609856 528.1679687678698 L 452.0000000000582 531.2382812160067 L 454.14843699202174 537.1796879358008 L 455.57812531205127 539.4296872958075 L 455.37499955209205 543.5273441280005 L 455.37499955209205 548.9531248639687 L 451.6874997760169 550.999999487889 L 447.6953128960449 552.2304686078569 L 444.3125002240995 554.4843745278777 L 442.2656245760736 557.1445309440023 L 438.2734376961016 558.9882808318362 L 433.05468723201193 561.3437501438311 L 428.8515624960419 564.3125002238667 L 426.19531264010584 567.386719231843 L 424.0390625281143 569.0234378239838 L 422.0937502720626 570.0468746238621 L 420.7656253440073 572.8124999678694 L 419.84374988806667 576.4999997439445 L 418.92187545617344 581.003906047903 L 417.38281267206185 586.4335933439434 L 416.15625011210795 589.6054691838217 L 414.7265628160094 593.1914065920282 L 413.4921871360275 596.5703127039014 L 412.57031270407606 600.3593748478452 L 410.3203123200801 602.8164065278252 L 406.42968780803494 604.8632811519783 L 402.74218700814527 607.4257817598991 L 399.05468723201193 610.08593715186 L 395.88281241612276 612.0312504318426 L 393.1171870720573 613.9765626879525 L 390.3515627520392 616.0273438718868 L 388.5078128640307 618.5859379199683 L 385.84374988806667 621.4531246079132 L 382.6718750720611 626.2656245758408 L 381.2421877760207 629.1328122878331 L 379.9062497281702 632.4101560318959 L 378.06249984004535 634.7656253438909 L 376.2187499520369 637.6328120318358 L 373.7656248320709 640.089843711874 L 372.3281254400499 642.2382817278849 L 369.66406246402767 645.109374975902 L 367.2109373440617 647.9765626879525 L 366.4921876481385 650.1249996799161 L 363.42187520005973 654.1171875839937 L 359.5312496640836 659.0351564798038 L 355.02343782410026 664.4609372160048 L 352.7734374401043 667.3281249278225 L 351.1328122880659 670.195312639873 L 349.39062476804247 673.3710940158926 L 347.1406254081521 676.851562495809 L 344.07031296013156 680.9492183038965 L 341.7109370880062 684.2226565118181 L 338.43749990401557 689.6523438078584 L 336.39062528009526 692.6210938879522 L 334.33593753608875 694.7734374399297 L 333.51562547206413 698.1523435518611 L 333.3124997120467 700.8124999679276 L 334.03125043207547 705.7265623038984 L 333.7265623040148 708.1874995199032 L 334.2343751680455 710.3359375359141 L 334.75000012805685 715.558593535854 L 335.25781299202936 718.8359372799168 L 335.46874982403824 726.3125002238085 L 335.5703121920815 728.9726566398749 L 335.3593753600726 732.9648435198469 L 334.546875392145 736.652343295922 L 333.52343756804476 739.3164062718861 L 332.9062502401066 741.6718745599501 L 329.6328120320104 744.6406246398692 L 325.6328120320104 747.4062499838765 L 320.7187496960396 749.7617182719405 L 318.87499980803113 751.8085939199664 L 315.5000002561719 754.984375295986 L 313.7578127360903 758.3632814078592 L 312.73437491210643 760.8203120639664 L 311.3984378880705 763.1757813759614 L 310.1718753280584 767.4765629438334 L 308.6406246400438 771.7773434880073 L 306.69531238410855 774.9492183039547 L 303.92968704010127 778.7382814719458 L 303.41406208008993 782.2226565119345 L 303.10937497607665 785.6015626238659 L 303.0078126080334 790.4140625919681 L 300.8515624960419 794.097655807971 L 298.80468787206337 796.5585940478486 L 297.88281241600635 798.7070310398121 L 297.16406272002496 801.5742187518626 L 297.57812531205127 805.464843263966 L 298.4999997441191 810.2773442558246 L 297.47656294400804 816.1171875838772 L 294.914062336029 821.85156300792 L 292.56249958404806 825.9453122559935 L 290.7187496960396 830.5546874878346 L 289.0781245440594 835.1601561599527 L 286.10937548801303 840.1796874238644 L 283.445312512049 845.5039057919639 L 282.42187468806515 848.3710935038398 L 282.42187468806515 856.1523435518611 L 281.39843788801227 860.9648435199633 L 278.83593728003325 864.9609379838803 L 278.1249996800325 870.796874751919 L 277.30468761600787 877.2499998719431 L 274.2265620480757 881.4453125119326 L 269.3124997120467 883.1875000318978 L 263.6874997760169 885.4414059518022 L 260.4062504961039 888.7187496958068 L 259.8906245121034 893.2226559999399 L 259.0781245440594 896.8085934079718 L 256.10937548801303 898.4453119998798 L 253.1406254080357 899.6718745599501 L 252.2187499520369 902.3359375359141 L 251.80468736006878 905.921874943946 L 249.0390620160615 908.1718753278838 L 245.96874956804095 909.6054691838799 L 242.69531238405034 910.8359372799168 L 238.9062502400484 912.0664063998847 L 235.92968704004306 913.7031249919673 L 232.65624985605245 915.2382812158321 L 230.5078128640307 915.9570309118135 L 228.46093721617945 918.824218623864 L 225.89843763207318 921.9960934398114 L 222.7265628160094 925.8867189758457 L 221.59374950407073 928.8593745919061 L 221.1875000320142 931.4179686399293 L 220.98437529604416 934.898437119904 L 221.1875000320142 940.2226565119345 L 220.98437529604416 944.218749951804 L 217.60156262409873 949.1328122879495 L 214.42968780803494 952.2070312959258 L 213.30468761606608 954.4570316798054 L 211.66406246402767 956.7109375998261 L 209.92187494412065 958.0429690878373 L 208.179687424039 961.2148439039593 L 205.10937497601844 964.187499519845 L 203.06250035209814 966.3359375358559 L 199.89062451204518 968.3828121599508 L 196.50781286408892 971.660155903839 L 194.04687462403672 973.0937497598352 L 190.57031270401785 974.3242188798031 L 187.804687360127 976.371093503898 L 185.1406254080939 978.5234370559338 L 182.6875002880115 980.5703127039014 L 179.92187494412065 984.2578124798019 L 176.8515624961001 986.5078128639143 L 174.49218764802208 987.5351562238648 L 169.88281241600635 989.273437183816 L 165.48437504004687 990.9101557758986 L 162.50781286408892 992.347656191967 L 160.3593748480198 995.5195310079143 L 157.28906240011565 999.3085941759055 L 156.2656245760154 1002.3789066238678 L 158.10937548801303 1005.7617182718823 L 158.41406259214273 1009.6523438079166 L 156.67187507206108 1012.3125002238667 L 158.62500044802437 1015.8984376318986 L 159.23437465616735 1020.1992191999452 L 158.41406259214273 1023.2695316478494 L 157.89174937241478 1024.0" fill="none"/><path stroke="#000000" stroke-width="2" d="M 83.42444630953833 0.0 L 83.56250009610085 1.1132815359160304 L 84.17187532805838 4.082031615951564 L 81.10156288003782 4.289062911935616 L 78.03125043201726 4.289062911935616 L 74.4453120000544 4.1874995199614204 L 70.96875008009374 4.082031615951564 L 67.78906214406015 3.980469247966539 L 65.33593702415237 3.980469247966539 L 62.97656217601616 3.8789058558177203 L 60.72656281600939 3.7773434879491106 L 53.45312460802961 3.7773434879491106 L 50.58593792002648 3.675781119905878 L 47.210937344061676 3.570312191848643 L 39.21875046408968 3.570312191848643 L 35.94531225616811 3.4687498238054104 L 33.07812454405939 3.3671874559368007 L 30.41406259208452 3.265625087893568 L 27.54687488003401 3.265625087893568 L 24.273437696043402 3.3671874559368007 L 21.203125248022843 3.1601561598363332 L 16.69531238405034 3.0585937919677235 L 2.6640629761386663 3.0585937919677235 L 0.0 2.9642265681759454" fill="none"/></svg>