<svg xmlns="http://www.w3.org/2000/svg" width="1024" height="1024"><rect stroke="none" x="0" y="0" width="1024" height="1024" fill="white"/><path stroke="#000000" stroke-width="2" d="M 0.0 1.2819177447090624 L 25.601562624098733 1.3203128319000825 L 50.874999808031134 1.3203128319000825 L 62.69155328004854 1.3368934398167767 L 96.20312473602826 1.3671874559950083 L 96.28444672009209 1.365329920023214 L 103.25655244808877 1.395319807867054 L 108.18749952007784 1.4179686398711056 L 108.75000012805685 1.4218751999433152 L 113.97468160005519 1.5235481598065235 L 115.92187494412065 1.4648432639660314 L 134.14843699202174 1.5781253119348548 L 139.1650816000183 1.7283481598133221 L 207.05628160008928 2.0355481599690393 L 217.96517171210144 2.0355481599690393 L 233.6232704000431 2.1226240000105463 L 235.52348160004476 2.137948159885127 L 243.87686912005302 2.1804953599348664 L 295.82222336006816 2.4746700799441896 L 312.5475532800192 2.5599999998812564 L 347.24999987205956 2.3632814078009687 L 347.4219202561071 2.3608934399671853 L 350.6875002880697 2.3437496318365447 L 357.4843750401051 2.3437496318365447 L 378.0752240640577 2.192796671995893 L 399.6718745600665 2.078125055937562 L 427.5484467201168 1.9342233599745668 L 442.5762816000497 2.0355481599690393 L 484.45788160001393 2.240348159801215 L 527.1949434880516 2.1104711678926833 L 552.1635532800574 2.0479999998933636 L 564.7887104001129 2.0355481599690393 L 581.0210816000472 2.0355481599690393 L 597.0312499200227 1.999999999825377 L 626.6328125441214 1.9648440318414941 L 636.1315532800509 1.9626700799562968 L 653.4921871360275 1.9335935998242348 L 669.6015626240405 1.9335935998242348 L 688.2482196480269 1.8715934718493372 L 700.643553280097 1.8488934398046695 L 719.2265625600703 1.8320312319556251 L 757.4531246080878 1.8320312319556251 L 788.7157381120487 1.7436743678990752 L 795.2567132160184 1.7333667839993723 L 798.14843699208 1.7304688639123924 L 810.6018816000433 1.7283481598133221 L 827.6874997760751 1.6796876798034646 L 846.5635532800225 1.6497766398824751 L 872.6562498560525 1.6289064958691597 L 873.9399096320267 1.6259481598972343 L 878.1858816000167 1.6259481598972343 L 880.8004874240723 1.6189573119627312 L 916.5084467200795 1.5644467199454084 L 946.4029020160087 1.5235481598065235 L 985.3986816000543 1.5235481598065235 L 1024.0 1.4421108091191854" fill="none"/></svg>