<svg xmlns="http://www.w3.org/2000/svg" width="1024" height="1024"><rect stroke="none" x="0" y="0" width="1024" height="1024" fill="white"/><path stroke="#408040" stroke-width="3" d="M 506.4171335732681 0.0 L 499.24095999999554 7.260159999997995 L 492.47232000000076 14.100480000000971 L 479.25247999999556 27.484159999999974 L 476.0883199999953 30.228479999997944 L 468.8793600000063 34.14016000000265 L 458.3833600000071 39.53663999999844 L 455.77215999999316 41.052159999999276 L 453.74464000000444 43.2025599999979 L 452.8640000000014 45.07648000000336 L 452.7103999999963 48.55808000000252 L 452.9459199999983 53.20704000000114 L 451.9219199999934 56.45311999999831 L 446.8428799999965 62.56640000000334 L 434.23743999999715 76.80000000000291 L 427.5200000000041 84.3263999999981 L 424.6732800000027 86.3231999999989 L 417.85344000000623 88.83200000000215 L 414.9964800000016 91.57632000000012 L 413.921279999995 94.49472000000242 L 414.0543999999936 96.68607999999949 L 415.45728000000236 100.74111999999877 L 415.50848000000406 103.1782400000011 L 414.5766399999993 105.98399999999674 L 413.35808000000543 116.95103999999992 L 412.7948800000013 125.736960000002 L 413.7779199999932 138.54720000000088 L 417.01376000000164 180.31616000000213 L 416.67583999999624 189.40927999999985 L 416.1331199999986 196.11647999999695 L 411.61728000000585 213.05344000000332 L 411.19744000000355 214.62015999999858 L 410.0812799999985 216.54527999999846 L 407.81823999999324 217.52831999999762 L 403.69151999999303 217.53856000000087 L 381.05087999999523 217.80479999999807 L 362.37312000000384 217.9788800000024 L 359.69023999999627 218.0095999999976 L 359.0963199999969 218.01984000000084 L 358.7072000000044 218.3168000000005 L 358.6355199999962 220.1600000000035 L 358.604800000001 221.98271999999997 L 358.24640000000363 223.52896000000328" fill="none"/><path stroke="#408040" stroke-width="3" d="M 256.42612394217576 1024.0 L 256.5324799999944 1017.7740800000029 L 256.59391999999934 1013.8214399999997 L 256.64512000000104 1010.9747199999983 L 256.64512000000104 1009.0598400000017 L 256.61440000000584 1007.4828800000032 L 256.5324799999944 1002.7315200000012 L 256.51200000000244 1001.3900799999974 L 256.46080000000075 1000.5504000000001 L 256.3993599999958 999.9974399999992 L 256.27648000000045 999.260159999998 L 256.0307199999952 998.2361600000004 L 255.6825600000011 997.171199999997 L 255.30367999999726 996.2496000000028 L 254.75071999999636 995.153919999997 L 253.59359999999288 992.9216000000015 L 252.6412799999962 991.109120000001 L 251.99615999999514 989.8598399999973 L 251.62751999999455 989.1123200000002 L 251.19744000000355 988.0166400000016 L 250.9823999999935 987.3305600000022 L 250.7980799999932 986.6444800000027 L 250.64448000000266 985.8150400000013 L 250.54207999999926 984.9958400000032 L 250.5011200000008 984.4224000000031 L 250.4806399999943 983.6851200000019 L 250.46016000000236 979.5686399999977 L 250.42944000000716 974.5305599999992 L 250.3987199999974 970.4345600000015 L 250.37824000000546 966.5638400000025 L 250.296319999994 961.1980800000019 L 250.25535999999556 957.8905599999998 L 250.2860800000053 953.5897600000026 L 250.4192000000039 945.1827199999971 L 250.42944000000716 944.4454400000031 L 250.4704000000056 943.4828800000032 L 250.6035200000042 942.5715199999977 L 250.70591999999306 942.1516800000027 L 250.9721600000048 941.3017600000021 L 251.19744000000355 940.7692800000004 L 251.3510399999941 940.4313600000023 L 251.6889599999995 939.8169599999965 L 252.1600000000035 939.1001600000018 L 252.5081599999976 938.649599999997 L 253.06111999999848 938.0147199999992 L 253.35808000000543 937.7075200000036 L 253.92127999999502 937.1955200000011 L 254.51519999999437 936.7039999999979 L 254.8940799999982 936.4275199999975 L 256.51200000000244 935.3318399999989 L 258.273279999994 934.1440000000002 L 259.85023999999976 933.0892800000001 L 261.77535999999964 931.7580799999996 L 263.5366400000057 930.4166400000031 L 265.00096000000485 929.1878399999987 L 266.56767999999283 927.764479999998 L 267.3868800000055 926.9657599999991 L 268.30848000000697 926.0031999999992 L 269.49632000000565 924.6822400000019 L 270.79679999999644 923.0847999999969 L 272.0563200000033 921.395199999999 L 273.7971200000029 918.9785600000032 L 278.73279999999795 912.1587199999994 L 282.7161599999963 906.6700800000035 L 291.5942400000058 894.4127999999982 L 307.17952000000514 872.9087999999974 L 314.1836800000019 863.2627199999988 L 315.31007999999565 861.7062399999995 L 316.60031999999774 859.8323200000013 L 318.9145600000047 856.3609599999982 L 321.56672000000253 852.3571200000006 L 325.14048000000184 847.0016000000032 L 330.77247999999963 838.53312 L 333.3017600000021 834.7545600000012 L 334.37695999999414 833.1878399999987 L 335.21663999999873 832.0102400000033 L 336.39423999999417 830.4844799999992 L 337.5923199999961 828.9279999999999 L 340.28544000000693 825.4464000000007 L 343.92063999999664 820.7257600000012 L 349.1942399999971 813.9059199999974 L 351.8975999999966 810.3936000000031 L 353.9456000000064 807.6287999999986 L 357.8470399999933 802.3756799999974 L 360.4172799999942 798.8838400000022 L 361.0214399999968 797.9724799999967 L 361.74847999999474 796.7334400000036 L 362.3628800000006 795.4739199999967 L 363.2844800000021 793.4976000000024 L 365.81376000000455 788.1113600000026 L 366.4691199999943 786.6777599999987 L 366.73536000000604 786.0224000000017 L 367.0937600000034 784.9472000000023 L 367.3087999999989 784.0665599999993 L 367.43167999999423 783.4112000000023 L 367.50336000000243 782.8479999999981 L 367.55456000000413 782.1619199999986 L 367.5750399999961 781.4860800000024 L 367.56479999999283 780.5644800000009 L 367.53407999999763 777.6972800000003 L 367.4931199999992 775.2089600000036 L 367.4112000000023 768.3072000000029 L 367.34975999999733 763.7401600000012 L 367.21663999999873 755.4047999999966 L 367.05280000000494 745.5334399999992 L 366.95040000000154 739.4815999999992 L 366.9094400000031 735.6416000000027 L 366.8582400000014 731.5660799999969 L 366.69439999999304 721.9916799999992 L 366.61247999999614 718.1823999999979 L 366.520319999996 715.3254400000005 L 366.4691199999943 713.2467200000028 L 366.3052800000005 705.617919999997 L 366.2028799999971 701.1020799999969 L 366.11071999999695 696.7705599999972 L 366.08000000000175 694.9273600000015 L 366.0185599999968 691.097600000001 L 366.02880000000005 687.0835200000001 L 366.0185599999968 681.4720000000016 L 365.99808000000485 671.0579199999993 L 365.9673599999951 660.633600000001 L 365.9571200000064 655.2166399999987 L 365.92639999999665 649.6972800000003 L 365.84447999999975 642.4063999999998 L 365.74207999999635 633.5180800000016 L 365.5475199999928 616.4377600000007 L 365.4143999999942 603.9859199999992 L 365.37343999999575 600.6067200000034 L 365.29151999999885 596.5619200000001 L 365.00479999999516 583.3523199999981 L 364.47232000000076 557.7523199999996 L 364.28800000000047 549.0585599999977 L 363.4483199999959 509.6243200000026 L 362.6291199999978 453.4988799999992 L 362.25023999999394 427.601920000001 L 362.2092799999955 424.4684800000032 L 362.1478400000051 422.76864000000205 L 362.1478400000051 421.8675199999998 L 362.13760000000184 421.19168000000354 L 362.1273599999986 420.5055999999968 L 362.0966400000034 418.85695999999734 L 362.06591999999364 416.245759999998 L 361.9123200000031 405.9340799999991 L 361.7894399999932 397.9878400000016 L 361.6768000000011 390.2566399999996 L 361.6255999999994 386.4678399999975 L 361.6051199999929 384.96255999999994 L 361.6255999999994 383.6825600000011 L 361.76896000000124 381.0508800000025 L 361.8304000000062 379.90400000000227 L 361.8406399999949 378.6956799999971 L 361.85087999999814 377.93791999999667 L 361.82016000000294 376.9036800000031 L 361.76896000000124 375.92063999999664 L 361.6563199999946 374.51776000000245 L 361.51295999999274 372.8179200000013 L 361.43103999999585 371.0566400000025 L 361.4105600000039 368.8755200000014 L 361.36960000000545 364.3903999999966 L 361.29791999999725 358.4409599999999 L 361.1750400000019 346.0812799999985 L 361.1033599999937 339.0566400000025 L 361.06239999999525 335.5955200000026 L 361.05216000000655 334.66367999999784 L 361.06239999999525 334.0390400000033 L 361.093120000005 333.5987200000018 L 361.21600000000035 332.9126400000023 L 361.48223999999755 332.1139200000034 L 361.68704000000434 331.6531200000027 L 361.93279999999504 331.21280000000115 L 362.1990400000068 330.79295999999886 L 362.42432000000554 330.4959999999992 L 362.8441599999933 330.00448000000324 L 363.6838399999979 329.0931199999977 L 364.26751999999397 328.42751999999746 L 364.6463999999978 327.9462399999975 L 364.94336000000476 327.48543999999674 L 365.18911999999546 327.0451200000025 L 365.5167999999976 326.359040000003 L 365.76256000000285 325.53983999999764 L 365.9059200000047 324.82304000000295 L 365.94688000000315 324.3622400000022 L 365.94688000000315 323.7888000000021 L 365.9059200000047 323.21536000000197 L 365.81376000000455 322.66240000000107 L 365.7318399999931 322.32448000000295 L 365.31200000000536 320.61439999999857 L 365.26080000000366 320.3072000000029 L 365.2198400000052 319.8361599999989 L 365.20960000000196 319.27296000000206 L 365.2812799999956 318.5561600000001 L 365.37343999999575 318.08512000000337 L 365.63967999999295 317.2352000000028 L 366.2028799999971 315.78111999999965 L 366.44864000000234 314.85951999999816 L 366.520319999996 314.28607999999804 L 366.55104000000574 313.7638399999996 L 366.53055999999924 313.1801600000035 L 366.4588800000056 312.57600000000093 L 366.21312000000034 311.25503999999637 L 365.7830399999948 308.9305600000007 L 365.37343999999575 306.7392000000036 L 365.1686400000035 305.48992 L 365.0662400000001 304.2816000000021 L 365.0150399999984 301.6396800000002 L 364.95359999999346 298.74175999999716 L 364.78975999999966 289.9968000000008 L 364.63615999999456 282.27584000000206 L 364.5644800000009 279.07072000000335 L 364.52352000000246 277.65759999999864 L 364.4313600000023 275.5072 L 364.42111999999906 273.4387199999983 L 364.4620799999975 272.8857599999974 L 364.49280000000726 272.5068800000008 L 364.5439999999944 272.10751999999775 L 364.50303999999596 272.02560000000085 L 364.5132799999992 271.9129600000015 L 364.5439999999944 271.6979199999987 L 364.6668800000043 271.02208000000246 L 364.82047999999486 270.33600000000297 L 365.0150399999984 269.5065600000016 L 365.07648000000336 268.8102399999989 L 365.07648000000336 268.48255999999674 L 364.9843200000032 267.8784000000014 L 364.7488000000012 266.92607999999746 L 364.5439999999944 266.15808000000106 L 364.33920000000217 265.21600000000035 L 364.25728000000527 264.5196799999976 L 364.2265599999955 263.30111999999644 L 364.18559999999707 260.99712 L 364.1651200000051 259.3177599999981 L 364.13439999999537 257.3414399999965 L 364.12416000000667 256.7372800000012 L 364.08319999999367 256.2560000000012 L 363.97056000000157 255.41631999999663 L 363.83744000000297 254.72000000000116 L 363.6838399999979 254.1363199999978 L 363.4790400000056 253.42975999999908 L 362.95679999999993 252.04735999999684 L 362.3833600000071 250.5523200000025 L 362.11711999999534 249.77408000000287 L 361.6255999999994 248.49407999999676 L 360.857600000003 246.4563199999975 L 360.6527999999962 245.7395200000028 L 360.4684799999959 244.72576000000117 L 360.4172799999942 243.84511999999813 L 360.37631999999576 242.4320000000007 L 360.32511999999406 241.70496000000276 L 360.19199999999546 240.87552000000142 L 360.0486399999936 239.77984000000288 L 360.00767999999516 238.9606399999975 L 359.915519999995 234.32192000000214 L 359.8540800000046 231.66975999999704 L 359.8540800000046 230.56384000000253 L 359.9052800000063 228.23935999999958 L 359.95647999999346 226.85695999999734 L 360.0179199999984 224.52223999999842 L 360.0486399999936 223.43680000000313 L 358.5535999999993 223.41631999999663 L 358.5535999999993 223.51872000000003 L 358.24640000000363 223.52896000000328" fill="none"/></svg>