<svg xmlns="http://www.w3.org/2000/svg" width="1024" height="1024"><rect stroke="none" x="0" y="0" width="1024" height="1024" fill="white"/><path stroke="#000000" stroke-width="2" d="M 980.1763088070438 1024.0 L 980.1718753280584 1021.7343754239264 L 980.179687424039 1012.4179691519239 L 980.281249792024 1006.0664063999429 L 980.4843745280523 964.5937500159489 L 980.4843745280523 948.0078120959224 L 980.5859379200265 929.0625003519235 L 980.592462848057 928.4177223679726 L 980.6875002880115 919.0273433599505 L 980.6875002880115 911.9609374719439 L 980.7890626560547 895.9882813439472 L 980.7890626560547 888.9218754559406 L 980.8906250240398 882.3671879679314 L 980.8906250240398 867.3164062719443 L 980.9921873920248 864.2421872639679 L 981.0937497600098 859.0195312639698 L 981.2031252480228 855.3359370239195 L 979.7656248320127 846.4257812479627 L 977.6171878400492 832.9101557759568 L 977.1015628800378 829.6328120319522 L 975.6718745600083 820.6210938879522 L 973.6249999360298 808.1289062399301 L 973.1093749760184 804.9531248639687 L 968.4999997440609 776.0781250559376 L 967.9921879040194 773.2109373439453 L 967.1718748160638 767.4765629439498 L 966.5546874880092 764.1992191999452 L 962.7656253440073 743.2070307839313 L 962.460937216063 720.2695311359712 L 962.460937216063 659.3398435839335 L 962.3593748480198 639.9882813439472 L 962.3593748480198 548.8515624959255 L 962.2578124800348 523.3554687999422 L 962.2578124800348 518.9492183039547 L 962.4393881600117 514.3120373759302 L 962.5624811520102 511.16844031994697 L 962.3593748480198 479.01562470395584 L 962.3593748480198 447.57812531193485 L 962.2578124800348 410.3046871039551 L 962.3593748480198 401.39453132794006 L 962.562499584048 387.4687498239218 L 962.562499584048 383.98828134394716 L 962.6640629760223 370.67578163195867 L 962.7656253440073 360.1289062399301 L 962.7656253440073 356.2382817279431 L 962.6640629760223 334.7343749119318 L 963.0781245440594 286.8085934079718 L 963.1796879360336 280.8710932479589 L 963.2812503040186 276.4687503359746 L 963.3828126720618 270.52734361594776 L 963.7890621440602 256.7031255039619 L 964.0000000000582 252.40234393597348 L 964.2031247360283 244.92968755192123 L 964.812499968044 222.0937502719462 L 965.2265625600121 209.49609369592508 L 965.4296872960404 205.0937497599516 L 965.6328120320104 200.07812505593756 L 966.1484369920217 190.1445314559387 L 966.8671877120505 173.14453094394412 L 966.9687500800355 169.4609377279412 L 967.476562944008 154.40625049592927 L 968.4999997440609 127.98828134394716 L 968.7031255040201 112.93359411193524 L 968.710937600059 104.23046860797331 L 968.914062336029 97.3710940159508 L 968.914062336029 93.68359423993388 L 968.812499968044 87.84765644796425 L 968.914062336029 82.72656281595118 L 968.914062336029 78.83593727997504 L 969.1171870720573 66.54687539197039 L 969.5234375680448 58.66406297596404 L 969.5234375680448 52.00781209592242 L 969.6328120320104 47.60156262392411 L 969.8359377920278 36.648437759955414 L 969.9375001600129 24.050781183934305 L 970.2421872640261 7.25781299197115 L 970.3435859110905 0.0" fill="none"/><path stroke="#000000" stroke-width="2" d="M 970.3435859110905 0.0 L 970.2421872640261 7.25781299197115 L 969.9375001600129 24.050781183934305 L 969.8359377920278 36.648437759955414 L 969.6328120320104 47.60156262392411 L 969.5234375680448 52.00781209592242 L 969.5234375680448 58.66406297596404 L 969.1171870720573 66.54687539197039 L 968.914062336029 78.83593727997504 L 968.914062336029 82.72656281595118 L 968.812499968044 87.84765644796425 L 968.914062336029 93.68359423993388 L 968.914062336029 97.3710940159508 L 968.710937600059 104.23046860797331 L 968.7031255040201 112.93359411193524 L 968.4999997440609 127.98828134394716 L 967.476562944008 154.40625049592927 L 966.9687500800355 169.4609377279412 L 966.8671877120505 173.14453094394412 L 966.1484369920217 190.1445314559387 L 965.6328120320104 200.07812505593756 L 965.4296872960404 205.0937497599516 L 965.2265625600121 209.49609369592508 L 964.812499968044 222.0937502719462 L 964.2031247360283 244.92968755192123 L 964.0000000000582 252.40234393597348 L 963.7890621440602 256.7031255039619 L 963.3828126720618 270.52734361594776 L 963.2812503040186 276.4687503359746 L 963.1796879360336 280.8710932479589 L 963.0781245440594 286.8085934079718 L 962.6640629760223 334.7343749119318 L 962.7656253440073 356.2382817279431 L 962.7656253440073 360.1289062399301 L 962.6640629760223 370.67578163195867 L 962.562499584048 383.98828134394716 L 962.562499584048 387.4687498239218 L 962.3593748480198 401.39453132794006 L 962.2578124800348 410.3046871039551 L 962.3593748480198 447.57812531193485 L 962.3593748480198 479.01562470395584 L 962.5624811520102 511.16844031994697 L 962.4393881600117 514.3120373759302 L 962.2578124800348 518.9492183039547 L 962.2578124800348 523.3554687999422 L 962.3593748480198 548.8515624959255 L 962.3593748480198 639.9882813439472 L 962.460937216063 659.3398435839335 L 962.460937216063 720.2695311359712 L 962.7656253440073 743.2070307839313 L 966.5546874880092 764.1992191999452 L 967.1718748160638 767.4765629439498 L 967.9921879040194 773.2109373439453 L 968.4999997440609 776.0781250559376 L 973.1093749760184 804.9531248639687 L 973.6249999360298 808.1289062399301 L 975.6718745600083 820.6210938879522 L 977.1015628800378 829.6328120319522 L 977.6171878400492 832.9101557759568 L 979.7656248320127 846.4257812479627 L 981.2031252480228 855.3359370239195 L 981.0937497600098 859.0195312639698 L 980.9921873920248 864.2421872639679 L 980.8906250240398 867.3164062719443 L 980.8906250240398 882.3671879679314 L 980.7890626560547 888.9218754559406 L 980.7890626560547 895.9882813439472 L 980.6875002880115 911.9609374719439 L 980.6875002880115 919.0273433599505 L 980.592462848057 928.4177223679726 L 980.5859379200265 929.0625003519235 L 980.4843745280523 948.0078120959224 L 980.4843745280523 964.5937500159489 L 980.281249792024 1006.0664063999429 L 980.179687424039 1012.4179691519239 L 980.1718753280584 1021.7343754239264 L 980.1763088070438 1024.0" fill="none"/></svg>