<svg xmlns="http://www.w3.org/2000/svg" width="1024" height="1024"><rect stroke="none" x="0" y="0" width="1024" height="1024" fill="white"/><path stroke="#000000" stroke-width="2" d="M 654.5279417615675 1024.0 L 654.0312504320173 1023.9882813439472 L 638.6718750720611 1023.7812500479631 L 634.7812495360267 1023.8867189759621 L 628.4296878080349 1023.8867189759621 L 624.9531248640269 1023.9882813439472 L 624.6457351650897 1024.0" fill="none"/><path stroke="#000000" stroke-width="2" d="M 355.38459708174923 1024.0 L 355.2265625600121 1023.9882813439472 L 351.5390627840534 1023.8867189759621 L 345.39843788801227 1023.7812500479631 L 337.3124997120467 1023.7812500479631 L 333.0078126080334 1023.6796876799199 L 326.4531251200242 1023.5781253119349 L 305.3593753600144 1023.5781253119349 L 295.42968729604036 1023.4765629439498 L 285.4921871360275 1023.4765629439498 L 272.078125056054 1023.3749995519756 L 255.59374950401252 1023.2695316479658 L 248.2187499520369 1023.1679682559334 L 230.91406233602902 1023.1679682559334 L 219.1406254080357 1023.0664058879483 L 197.7343754240428 1022.8593745919643 L 177.46093772805762 1022.7578122239211 L 172.24218726402614 1022.7578122239211 L 166.91406233602902 1022.656249855936 L 127.59374950401252 1022.347656191967 L 0.0 1022.347656191967" fill="none"/><path stroke="#000000" stroke-width="2" d="M 0.0 1022.347656191967 L 127.59374950401252 1022.347656191967 L 166.91406233602902 1022.656249855936 L 172.24218726402614 1022.7578122239211 L 177.46093772805762 1022.7578122239211 L 197.7343754240428 1022.8593745919643 L 219.1406254080357 1023.0664058879483 L 230.91406233602902 1023.1679682559334 L 248.2187499520369 1023.1679682559334 L 255.59374950401252 1023.2695316479658 L 272.078125056054 1023.3749995519756 L 285.4921871360275 1023.4765629439498 L 295.42968729604036 1023.4765629439498 L 305.3593753600144 1023.5781253119349 L 326.4531251200242 1023.5781253119349 L 333.0078126080334 1023.6796876799199 L 337.3124997120467 1023.7812500479631 L 345.39843788801227 1023.7812500479631 L 351.5390627840534 1023.8867189759621 L 355.2265625600121 1023.9882813439472 L 355.38459708174923 1024.0" fill="none"/><path stroke="#000000" stroke-width="2" d="M 624.6457351650897 1024.0 L 624.9531248640269 1023.9882813439472 L 628.4296878080349 1023.8867189759621 L 634.7812495360267 1023.8867189759621 L 638.6718750720611 1023.7812500479631 L 654.0312504320173 1023.9882813439472 L 654.5279417615675 1024.0" fill="none"/></svg>