<svg xmlns="http://www.w3.org/2000/svg" width="1024" height="1024"><rect stroke="none" x="0" y="0" width="1024" height="1024" fill="white"/><path stroke="#408040" stroke-width="3" d="M 346.7161599999963 413.5219199999992 L 341.19680000000517 416.46080000000075 L 339.322880000007 417.6895999999979 L 335.8208000000013 419.91167999999743 L 332.9331200000015 421.1302399999986 L 332.5132799999992 421.27360000000044 L 332.36991999999736 421.32480000000214 L 331.0284799999936 421.9494399999967 L 329.40032000000065 422.5945599999977 L 328.79615999999805 422.76864000000205 L 327.79263999999966 422.85055999999895 L 326.369279999999 422.604800000001 L 324.45440000000235 422.08256000000256 L 323.68640000000596 422.0211199999976 L 322.87743999999657 422.11327999999776 L 322.252800000002 422.3385599999965 L 320.77823999999964 423.18847999999707 L 318.56639999999607 423.79263999999966 L 314.62399999999616 425.1443199999994 L 312.04352000000654 425.76896000000124 L 310.671359999993 425.92255999999907 L 306.00191999999515 425.90207999999984 L 305.2134400000068 425.78944000000047 L 304.0563200000033 425.4105599999966 L 301.92639999999665 424.4172800000015 L 301.29151999999885 423.9155200000023 L 300.55423999999766 423.0041599999968 L 300.1753599999938 422.6457599999994 L 299.1411200000002 421.95967999999993 L 298.1990400000068 421.08928000000014 L 297.0726399999985 419.37920000000304 L 296.4582400000072 417.95584000000235 L 295.7823999999964 417.2083199999979 L 295.0041599999968 416.4198400000023 L 294.5228800000041 415.5801599999977 L 293.6524800000043 413.7676799999972 L 293.5193600000057 412.51840000000084 L 293.47840000000724 410.78783999999723 L 293.10976000000664 409.9788800000024 L 292.3417599999957 409.1391999999978 L 291.39968000000226 408.1971199999971 L 291.19487999999546 407.41887999999744 L 291.51231999999436 406.12864000000263 L 291.36896000000706 405.34015999999974 L 290.723840000006 404.2751999999964 L 290.4473600000056 402.86207999999897 L 290.252800000002 402.3091199999981 L 289.46431999999913 401.0393600000025 L 288.3993599999958 398.8889599999966 L 287.764479999998 396.68736000000354 L 287.37536000000546 395.2537599999996 L 287.1296000000002 394.7520000000004 L 286.0032000000065 393.4720000000016 L 285.5526399999944 393.08288000000175 L 283.96543999999994 392.0486400000009 L 283.46368000000075 391.5980800000034 L 282.77760000000126 390.5945599999977 L 282.57279999999446 390.01088000000163 L 282.17343999999866 387.5737599999993 L 281.9174400000047 386.72383999999875 L 281.3439999999973 385.2390400000004 L 281.2518399999972 384.43007999999827 L 281.1289600000018 383.13984000000346 L 280.924159999995 382.72000000000116 L 279.7670400000061 380.9484799999991 L 278.78399999999965 378.4294399999999 L 278.70208000000275 377.876479999999 L 278.91711999999825 377.2518399999972 L 279.7465599999996 376.3814399999974 L 280.4633599999943 375.54176000000007 L 281.1392000000051 374.20032000000356 L 281.77408000000287 372.5926400000026 L 282.4704000000056 371.8041599999997 L 283.17695999999705 371.3228799999997 L 284.7231999999931 370.6368000000002 L 286.01343999999517 369.9097600000023 L 286.5254399999976 369.26464000000124 L 286.72000000000116 368.4556799999991 L 286.6585599999962 368.0972800000018 L 286.0441600000049 366.70464000000356 L 285.3273599999957 365.37344000000303 L 284.1907199999987 364.3084799999997 L 283.238400000002 363.2844800000021 L 283.0335999999952 362.72127999999793 L 282.85951999999816 361.34911999999895 L 282.7980799999932 358.48191999999835 L 282.5523200000025 357.5500800000009 L 282.0812799999985 356.9152000000031 L 281.72288000000117 356.5670400000017 L 280.42239999999583 355.69664000000193 L 277.52447999999276 353.8124800000005 L 276.9817599999951 353.16735999999946 L 276.7564799999964 352.4505599999975 L 276.7769600000029 351.8975999999966 L 277.04320000000007 351.0271999999968 L 277.4835199999943 349.3683200000014 L 277.22752000000037 348.51840000000084 L 275.73248000000603 346.6854400000011 L 274.7494399999996 345.88672000000224 L 273.6435199999978 345.2928000000029 L 271.26784000000043 344.20736000000034 L 270.325760000007 343.4291200000007 L 269.9366399999999 342.48704 L 269.9673599999951 340.7155199999979 L 270.23360000000685 339.7734399999972 L 271.24735999999393 336.117760000001 L 271.47264000000723 334.58176000000094 L 271.6262399999978 333.94688000000315 L 272.0358399999968 333.148159999997 L 272.26111999999557 331.8784000000014 L 272.2304000000004 330.74175999999716 L 271.9232000000047 328.56064000000333 L 271.61599999999453 325.6319999999978 L 271.3292800000054 323.91167999999743 L 270.71487999999954 321.85343999999895 L 270.1414400000067 320.3379199999981 L 268.7283199999947 317.3990399999966 L 267.4585599999991 315.83232000000135 L 266.4447999999975 314.85951999999816 L 265.31840000000375 313.9788800000024 L 261.7651199999964 311.72608000000037 L 260.761599999998 310.5689599999969 L 260.4134400000039 309.79071999999724 L 260.30079999999725 308.96128000000317 L 261.0278399999952 305.78687999999966 L 262.3897600000055 302.68415999999706 L 263.7311999999947 298.34240000000136 L 264.386559999999 295.8847999999998 L 264.8371199999965 294.5740799999985 L 268.02176000000327 288.0819199999969 L 269.4348800000007 285.0508800000025 L 269.74207999999635 281.9993600000016 L 269.7523199999996 280.76032000000123 L 269.32223999999405 279.65439999999944 L 268.8819199999998 279.10143999999855 L 267.83744000000297 277.99551999999676 L 267.2742399999988 276.9305600000007 L 267.11040000000503 275.97823999999673 L 267.1923200000019 274.8825599999982 L 267.6838399999979 271.7183999999979 L 267.93984000000637 269.0662400000001 L 268.5132799999992 264.9702400000024 L 268.84096000000136 255.00671999999759 L 268.70784000000276 253.29664000000048 L 268.39040000000386 252.1600000000035 L 267.7452800000028 250.66496000000188 L 266.82368000000133 249.28255999999965 L 263.0246400000033 244.1932799999995 L 262.133759999997 243.26144000000204 L 261.0176000000065 242.60607999999775 L 260.13696000000346 242.31936000000132 L 258.5292800000025 242.03263999999763 L 254.68928000000597 241.59232000000338 L 248.35072000000218 240.86527999999817 L 243.99872000000323 240.37376000000222 L 240.22015999999712 239.8003200000021 L 237.37343999999575 239.23711999999796 L 235.21279999999388 238.71487999999954 L 233.26720000000205 238.39744000000064 L 231.77215999999316 238.32575999999972 L 229.93919999999343 238.46912000000157 L 227.7580799999996 238.9606399999975 L 221.50143999999273 241.18271999999706 L 220.65151999999944 241.35680000000139 L 219.22815999999875 241.5103999999992 L 216.68863999999303 241.3772800000006 L 215.80800000000454 241.21343999999954 L 211.2204800000036 239.70816000000195 L 196.93567999999505 234.8339199999973 L 193.01376000000164 233.3900799999974 L 185.63072000000102 230.41023999999743 L 176.59904000000097 226.74431999999797 L 168.2739200000069 223.8975999999966 L 165.3657600000006 222.85311999999976 L 161.79200000000128 221.48096000000078 L 153.67167999999947 218.35775999999896 L 152.20736000000034 217.88672000000224 L 150.9785600000032 217.63072000000102 L 148.51072000000568 217.44640000000072 L 146.616320000001 217.40544000000227 L 145.31583999999566 217.2416000000012 L 143.51360000000568 216.53504000000248 L 141.3324799999973 215.377919999999 L 139.46880000000237 214.7737599999964 L 137.36960000000545 214.4256000000023 L 133.56032000000414 213.99551999999676 L 130.78527999999642 213.6883200000011 L 129.63839999999618 213.6883200000011 L 128.0 213.99551999999676 L 123.62751999999455 215.30623999999807 L 122.51136000000406 215.7465599999996 L 121.50784000000567 216.36095999999816 L 120.09471999999369 217.22112000000197 L 119.61344000000099 217.40544000000227 L 118.906879999995 217.57951999999932 L 117.42208000000392 217.6102400000018 L 114.36032000000705 217.38496000000305 L 113.33632000000216 217.36447999999655 L 112.49663999999757 217.48735999999917 L 111.36000000000058 217.85599999999977 L 110.71487999999954 218.1836800000019 L 109.82399999999325 219.06431999999768 L 109.0457599999936 220.90752000000066 L 108.69759999999951 221.40927999999985 L 108.19584000000032 221.83935999999812 L 107.71455999999307 222.09535999999935 L 106.39359999999579 222.4742400000032 L 105.3593600000022 222.51520000000164 L 101.59103999999934 222.24895999999717 L 100.0448000000033 222.31040000000212 L 98.34496000000217 222.61759999999776 L 94.78144000000611 223.52896000000328 L 93.58336000000418 223.97952000000078 L 92.52864000000409 224.64512000000104 L 91.64800000000105 225.1776000000027 L 90.42944000000716 225.5462400000033 L 89.09824000000663 225.59743999999773 L 88.01279999999679 225.42336000000068 L 84.25471999999718 224.59391999999934 L 82.02240000000165 223.80543999999645 L 78.29503999999724 222.24895999999717 L 76.55423999999766 221.79839999999967 L 74.67007999999623 221.59360000000015 L 73.03168000000005 221.65503999999783 L 70.92223999999987 222.07488000000012 L 67.23583999999391 223.56992000000173 L 65.92511999999988 223.79520000000048 L 64.56320000000414 223.67231999999785 L 62.27968000000692 223.32415999999648 L 61.39904000000388 223.3651200000022 L 60.59007999999449 223.56992000000173 L 59.2896000000037 224.24575999999797 L 53.442559999995865 228.18815999999788 L 51.89631999999983 228.88448000000062 L 49.725439999994705 229.38623999999982 L 47.64672000000428 229.4169600000023 L 46.008319999993546 229.43744000000152 L 44.73855999999796 229.71392000000196 L 43.28448000000208 230.27711999999883 L 41.543680000002496 230.8096000000005 L 40.26368000000366 230.92223999999987 L 38.25664000000688 230.78912000000128 L 36.843519999994896 230.71744000000035 L 35.86048000000301 230.83007999999973 L 35.225600000005215 230.96319999999832 L 32.92160000000149 231.84384000000136 L 31.9795199999935 232.21248000000196 L 28.825599999996484 233.4412799999991 L 25.907200000001467 234.1273599999986 L 23.0809600000066 234.42431999999826 L 19.834879999994882 234.44479999999749 L 18.36032000000705 234.63936000000103 L 17.141759999998612 235.18207999999868 L 16.209919999993872 236.14463999999862 L 15.267840000000433 237.24031999999715 L 14.407680000003893 237.8854399999982 L 13.178880000006757 238.41791999999987 L 11.335680000003777 238.64319999999861 L 10.250239999993937 238.55103999999847 L 3.8399999999965075 236.92287999999826 L 1.6076800000009825 236.21631999999954 L 0.45055999999749474 235.58144000000175 L 0.030719999995199032 235.21280000000115 L 0.0 235.18473208633804" fill="none"/><path stroke="#408040" stroke-width="3" d="M 346.7161599999963 413.5219199999992 L 350.87360000000626 411.33056000000215 L 351.80543999999645 410.9209600000031 L 353.9660799999983 410.54207999999926 L 355.90144000000146 410.7468799999988 L 359.7823999999964 412.2623999999996 L 368.56832000000577 415.754240000002 L 371.79391999999643 417.41311999999743 L 377.6102399999945 419.4918400000024 L 379.76063999999315 420.53631999999925 L 383.75423999999475 423.1987200000003 L 390.5740800000058 427.61215999999695 L 392.76544000000285 428.13440000000264 L 394.8339200000046 428.9843200000032 L 395.7555200000061 429.7727999999988 L 396.39040000000386 431.0630400000009 L 396.2163200000068 434.52416000000085 L 396.3801600000006 436.5414400000009 L 397.39392000000225 437.5552000000025 L 398.7763200000045 438.15935999999783 L 400.62975999999617 438.9375999999975 L 402.18623999999545 440.4019199999966 L 404.4287999999942 443.9756800000032 L 405.7907200000045 445.2352000000028 L 417.62815999999293 451.91167999999743 L 429.84447999999975 458.87488000000303 L 432.54783999999927 460.63616000000184 L 434.99520000000484 463.1244799999986 L 438.07743999999366 465.34655999999814 L 443.93472000000475 468.7667199999996 L 448.59391999999934 471.0912000000026 L 456.5401600000041 474.7366400000028 L 461.68064000000595 476.41599999999744 L 465.55135999999766 477.10207999999693 L 469.9852799999935 477.32736000000295 L 473.9686400000064 477.07136000000173 L 486.4921599999943 475.893759999999 L 492.44160000000556 475.3817599999966 L 494.71487999999954 475.33056000000215 L 498.81088000000454 475.6377599999978 L 503.23455999999715 476.5491200000033 L 507.33056000000215 478.0236799999984 L 514.3244799999957 481.01376000000164 L 518.0415999999968 482.27328000000125 L 525.1276800000051 483.51232000000164 L 526.7251200000028 483.8092800000013 L 528.0870399999985 484.4441599999991 L 530.1657600000035 486.3180799999973 L 531.6198399999994 486.8812800000014 L 533.2480000000069 487.0246400000033 L 540.139519999997 485.64224000000104 L 541.8700799999933 485.37599999999657 L 545.1468800000002 485.39648000000307 L 547.450880000004 485.90847999999824 L 554.4755200000072 488.0998400000026 L 559.0835200000001 491.02848000000085 L 561.2032000000036 493.15840000000026 L 562.8108800000045 495.20640000000276 L 564.5823999999993 496.6195200000002 L 567.0092799999984 497.81760000000213 L 577.1059200000018 502.02623999999923 L 583.0963199999969 504.57600000000093 L 584.9600000000064 505.6921599999987 L 586.1478400000051 506.62400000000343 L 587.8169599999965 508.4262400000007 L 592.2099199999939 513.8329599999997 L 592.7526400000061 515.7580799999996 L 593.0803199999937 517.8265600000013 L 593.735679999998 519.2704000000012 L 594.7391999999963 520.4787199999992 L 597.4425599999959 522.3526399999973 L 602.6239999999962 525.854720000003 L 607.3651200000022 528.1587199999994 L 610.5292800000025 529.1417599999986 L 630.2310399999988 533.360639999999 L 649.3696000000054 537.4361599999975 L 657.3465600000054 539.3203199999989 L 666.2860800000053 541.675519999997 L 673.7920000000013 543.7132800000036 L 675.6044799999945 544.5324800000017 L 677.6934400000027 546.0275200000033 L 677.7548799999931 546.4576000000015 L 677.3862400000071 546.7033599999995 L 676.8127999999997 546.6214400000026 L 676.6489600000059 546.1196800000034 L 677.4579200000007 545.361920000003 L 679.9462400000048 543.4879999999976 L 680.4684799999959 543.4982400000008 L 681.6153599999961 542.9964800000016 L 688.7219199999963 540.846080000003 L 692.1113599999953 540.5184000000008 L 700.4057599999942 541.6038400000034 L 710.8505600000062 542.6995200000019 L 712.1100799999986 542.9964800000016 L 713.1033599999937 543.51872 L 716.0217600000033 544.9932800000024 L 716.4928000000073 545.0342400000009 L 717.209600000002 544.9932800000024 L 717.5270400000009 545.6588800000027 L 717.9571200000064 546.5292800000025 L 718.2745600000053 547.2255999999979 L 718.6124799999961 547.9628799999991 L 719.2985599999956 549.5705600000001 L 719.4931199999992 552.4991999999984 L 719.5136000000057 559.6160000000018 L 719.5033600000024 566.7430400000012 L 719.2985599999956 580.3315199999997 L 719.165439999997 584.9702400000024 L 719.1040000000066 587.2332800000004 L 719.3497599999973 590.9299200000023 L 720.0460800000001 593.8687999999966 L 721.1417599999986 596.4185599999983 L 722.6470399999962 600.1664000000019 L 723.2102400000003 604.2521599999964 L 723.4560000000056 605.0508800000025 L 723.8451199999981 605.4809600000008 L 724.7974399999948 608.5631999999969 L 726.00576 610.7033599999995 L 727.3984000000055 612.4339200000031 L 728.2278400000068 613.7548800000004 L 728.9548800000048 615.2704000000012 L 729.9788799999951 615.8028800000029 L 731.3510399999941 616.9190400000007 L 732.2112000000052 617.8406400000022 L 734.2387199999939 619.4278399999966 L 736.4505599999975 620.5542399999977 L 740.5772799999977 622.0390400000033 L 748.0627200000017 624.7833600000013 L 756.4287999999942 627.9475200000015 L 759.8899200000014 629.0944000000018 L 763.299840000007 629.8521600000022 L 771.5328000000009 630.7430400000012 L 783.3292800000054 631.9820800000016 L 805.4272000000055 634.3168000000005 L 814.5817600000009 635.5660799999969 L 828.7231999999931 637.8905599999998 L 846.2540799999988 640.8499200000006 L 854.9171199999982 642.3347199999989 L 859.064320000005 642.6214400000026 L 872.3353599999973 643.2972799999989 L 884.6131199999945 644.0550399999993 L 887.4803200000024 644.7001600000003 L 889.5180799999944 645.4476799999975 L 906.6803199999995 653.3222400000013 L 910.1926399999938 655.4316800000015 L 914.3500800000038 658.6777599999987 L 920.9958400000032 663.787519999998 L 928.4812800000072 667.9859199999992 L 932.0448000000033 670.7609599999996 L 933.9289600000047 672.8499200000006 L 935.0041599999968 673.6384000000035 L 936.5503999999928 674.5907200000001 L 937.7689600000012 675.870719999999 L 940.0627200000017 679.4137600000031 L 940.6668800000043 681.3286399999997 L 941.3734399999958 682.5164799999984 L 944.3328000000038 685.5167999999976 L 946.1862399999955 687.6569600000003 L 947.2102400000003 690.2579199999964 L 950.497279999996 701.5526400000017 L 955.8527999999933 719.9743999999992 L 956.784639999998 723.2204800000036 L 957.255680000002 726.4972800000032 L 956.7436799999996 734.228479999998 L 956.4876800000056 738.0582399999985 L 956.0883199999953 739.870719999999 L 954.3475199999957 743.3625600000014 L 949.9033599999966 752.0665599999993 L 946.8313599999965 758.0774400000009 L 945.8995200000063 760.0025600000008 L 945.1827199999971 762.3168000000005 L 944.9062399999966 764.6719999999987 L 945.1008000000002 767.0988799999977 L 945.5206400000025 768.7987199999989 L 946.7801599999948 771.5840000000026 L 948.0499200000049 773.4169600000023 L 950.0876799999969 775.5878400000001 L 953.5283199999976 778.1785600000003 L 956.8665599999949 779.9296000000031 L 961.310719999994 781.4963199999984 L 967.2192000000068 782.4793599999975 L 972.1036800000002 782.5203200000033 L 979.496960000004 781.7011199999979 L 985.6409600000043 781.0662400000001 L 990.5766399999993 781.4963199999984 L 999.249920000002 783.4214399999983 L 1011.6812800000043 786.1964799999987 L 1020.1088000000018 788.0294399999984 L 1022.7404799999931 787.9577599999975 L 1024.0 787.5702153846141" fill="none"/><path stroke="#408040" stroke-width="3" d="M 0.0 834.9434232643689 L 7.536640000005718 834.0684800000017 L 14.018559999996796 832.1638400000011 L 28.39552000000549 827.729919999998 L 36.50560000000405 825.2518399999972 L 41.97375999999349 824.7091199999995 L 48.69120000000112 826.3270399999965 L 59.43296000000555 827.4432000000015 L 84.96128000000317 832.5017599999992 L 96.77823999999964 835.3689599999998 L 108.81024000000616 841.5027199999968 L 112.50688000000082 845.7318400000004 L 116.09088000000338 848.773119999998 L 130.71360000000277 856.2995200000005 L 139.23328000000038 858.7161600000036 L 144.57855999999447 858.9004799999966 L 151.0092799999984 858.347520000003 L 156.48768000000564 858.8185599999997 L 171.68383999999787 862.3513600000006 L 176.17919999999867 863.4060800000007 L 180.46976000000723 865.136639999997 L 186.2143999999971 871.249920000002 L 188.46719999999914 874.229760000002 L 193.01376000000164 884.2137599999987 L 194.85696000000462 888.3404799999989 L 196.290559999994 890.1427200000035 L 201.11359999999695 893.3683200000014 L 204.24704000000202 900.4236799999999 L 206.0697599999985 903.5264000000025 L 210.30912000000535 905.6051200000002 L 223.85663999999815 909.8035200000013 L 234.76223999999638 913.1827199999971 L 239.53407999999763 915.4662400000016 L 241.9609599999967 918.5075199999992 L 244.97152000000642 924.7948800000013 L 247.83871999999974 927.0271999999968 L 251.6582400000043 929.1468800000002 L 256.22527999999875 929.9251199999999 L 260.75135999999475 931.4099199999982 L 263.31136000000697 933.6934400000027 L 265.1238400000002 936.9702400000024 L 269.3017600000021 939.4483200000032 L 273.94048000000475 941.137920000001 L 279.49056000000564 942.5203200000033 L 284.375039999999 944.2611200000028 L 292.01407999999356 948.5107199999984 L 308.6745599999995 956.4671999999991 L 319.293439999994 960.9932800000024 L 328.63232000000426 964.1471999999994 L 351.37536000000546 971.837440000003 L 369.57184000000416 979.02592 L 377.4668800000072 982.2003200000036 L 380.60031999999774 984.1356799999994 L 382.5459200000041 986.7161600000036 L 386.6521599999978 992.174079999997 L 400.4044799999974 1004.1446399999986 L 409.1904000000068 1011.5379200000025 L 412.5081599999976 1014.3948799999998 L 413.2147200000036 1016.1561599999986 L 416.46080000000075 1018.1529599999994 L 423.5366400000057 1017.3439999999973 L 424.05887999999686 1019.5660799999969 L 435.8407154585002 1024.0" fill="none"/><path stroke="#408040" stroke-width="3" d="M 351.8463999999949 241.73567999999796 L 351.87712000000465 241.52064000000246 L 351.8156799999997 241.31584000000294 L 351.59040000000095 241.244160000002 L 351.30367999999726 241.20320000000356 L 349.9417600000015 241.0905599999969 L 348.5388799999928 240.89600000000064 L 347.4534399999975 240.5171199999968 L 344.320000000007 238.70464000000356 L 343.33696000000054 238.0697599999985 L 343.05023999999685 237.79327999999805 L 342.49727999999595 237.05599999999686 L 342.1388799999986 236.40063999999984 L 341.6576000000059 234.94655999999668 L 340.8179200000013 232.68351999999868 L 340.4390399999975 231.80288000000292 L 339.98848 230.64575999999943 L 339.9679999999935 230.28736000000208 L 339.9577600000048 229.12000000000262 L 339.9372799999983 226.67263999999705 L 339.9372799999983 224.3174399999989 L 339.98848 224.04095999999845 L 340.3366399999941 223.25248000000283 L 341.46304000000237 221.5833599999969 L 342.07743999999366 220.75392000000284 L 342.70208000000275 219.66848000000027 L 343.99232000000484 217.2416000000012 L 345.85599999999977 213.6678400000019 L 346.27584000000206 212.7974400000021 L 346.38847999999416 212.33664000000135 L 346.37824000000546 211.73247999999876 L 346.296319999994 211.36383999999816 L 346.101760000005 210.94400000000314 L 345.85599999999977 210.57536000000255 L 345.1187199999986 209.88928000000305 L 343.65439999999944 209.0393600000025 L 337.33632000000216 205.6704000000027 L 336.43520000000717 205.21983999999793 L 335.3292800000054 204.78975999999966 L 334.4076800000039 204.50304000000324 L 333.02528000000166 204.18559999999707 L 327.1577600000019 203.28448000000208 L 320.72703999999794 202.32192000000214 L 313.630720000001 201.24672000000282 L 312.05375999999524 201.0726399999985 L 310.41535999999905 201.03168000000005 L 299.2844800000021 201.0726399999985 L 297.24671999999555 201.08288000000175 L 294.0825599999953 201.10336000000098 L 293.9699200000032 201.10336000000098 L 293.9494399999967 201.28768000000127 L 293.85727999999654 202.02496000000247 L 293.662719999993 203.4892800000016 L 293.47840000000724 204.8819199999998 L 293.37600000000384 205.73184000000037 L 293.3452799999941 206.33600000000297 L 293.2121599999955 207.30879999999888 L 292.80255999999645 210.5651199999993 L 292.5977600000042 212.30591999999888 L 292.68992000000435 213.13536000000022 L 292.80255999999645 213.4323199999999 L 293.0790399999969 213.91359999999986 L 294.12351999999373 215.1628800000035 L 295.7004799999995 216.98559999999998 L 296.37631999999576 217.90720000000147 L 296.5913600000058 218.54207999999926 L 296.6527999999962 219.20767999999953 L 296.36608000000706 221.19423999999708 L 295.8847999999998 224.09216000000015 L 295.57760000000417 225.87391999999818 L 295.2294399999955 226.8672000000006 L 294.8505600000062 227.4713600000032 L 294.11328000000503 228.30079999999725 L 291.2870399999956 230.5228799999968 L 290.4371200000023 231.09631999999692 L 288.3481599999941 232.7039999999979 L 284.30336000000534 235.81695999999647 L 275.55839999999444 242.57536000000255 L 270.56127999999444 246.40512000000308 L 267.6940800000011 248.6374399999986 L 267.16160000000673 249.02655999999843 L 266.9670400000032 249.07776000000013 L 266.74176000000443 249.06751999999688 L 266.63936000000103 249.04703999999765 L 266.32192000000214 248.6374399999986 L 265.7894399999932 247.96160000000236 L 264.76544000000285 246.56895999999688 L 263.81312000000617 245.26847999999882 L 262.6867199999979 243.79391999999643 L 262.133759999997 243.26144000000204 L 261.50912000000244 242.84159999999974 L 261.0176000000065 242.60607999999775 L 260.13696000000346 242.31936000000132 L 259.36896000000706 242.13504000000103 L 256.69632000000274 241.81760000000213 L 250.6035200000042 241.1212799999994 L 245.42208000000392 240.5376000000033 L 241.8790399999998 240.07680000000255 L 238.18240000000515 239.40095999999903 L 235.21279999999388 238.71487999999954 L 233.26720000000205 238.39744000000064 L 231.77215999999316 238.32575999999972 L 229.93919999999343 238.46912000000157 L 228.8127999999997 238.6739200000011 L 227.7580799999996 238.9606399999975 L 225.82271999999648 239.65696000000025 L 222.95552000000316 240.7014399999971 L 221.50143999999273 241.18271999999706 L 220.65151999999944 241.35680000000139 L 219.22815999999875 241.5103999999992 L 217.67167999999947 241.47967999999673 L 216.28927999999723 241.31584000000294 L 215.80800000000454 241.21343999999954 L 213.9545599999983 240.65024000000267 L 204.02176000000327 237.24031999999715 L 196.2803200000053 234.6188800000018 L 193.01376000000164 233.3900799999974 L 191.22176000000036 232.66303999999946 L 183.28575999999885 229.45792000000074 L 179.322880000007 227.85023999999976 L 176.59904000000097 226.74431999999797 L 172.21632000000682 225.21856000000116 L 169.2057599999971 224.20479999999952 L 166.93248000000312 223.46751999999833 L 163.69663999999466 222.21824000000197 L 155.43296000000555 219.02335999999923 L 153.67167999999947 218.35775999999896 L 152.20736000000034 217.88672000000224 L 150.9785600000032 217.63072000000102 L 150.1081600000034 217.51808000000165 L 148.51072000000568 217.44640000000072 L 147.2511999999988 217.43615999999747 L 146.616320000001 217.40544000000227 L 145.31583999999566 217.2416000000012 L 144.39423999999417 216.94464000000153 L 143.51360000000568 216.53504000000248 L 142.3564800000022 215.8796799999982 L 141.3324799999973 215.377919999999 L 139.46880000000237 214.7737599999964 L 137.36960000000545 214.4256000000023 L 136.56063999999606 214.33344000000216 L 130.78527999999642 213.6883200000011 L 129.63839999999618 213.6883200000011 L 128.9216000000015 213.770239999998 L 128.0 213.99551999999676 L 125.73695999999472 214.66111999999703 L 123.62751999999455 215.30623999999807 L 122.51136000000406 215.7465599999996 L 121.50784000000567 216.36095999999816 L 120.37119999999413 217.07776000000013 L 120.09471999999369 217.22112000000197 L 119.61344000000099 217.40544000000227 L 118.906879999995 217.57951999999932 L 118.23103999999876 217.640959999997 L 117.42208000000392 217.6102400000018 L 115.54816000000574 217.46687999999995 L 113.33632000000216 217.36447999999655 L 112.49663999999757 217.48735999999917 L 111.36000000000058 217.85599999999977 L 110.71487999999954 218.1836800000019 L 110.21312000000034 218.5830399999977 L 109.82399999999325 219.06431999999768 L 109.42463999999745 219.9244800000015 L 109.0457599999936 220.90752000000066 L 108.69759999999951 221.40927999999985 L 108.19584000000032 221.83935999999812 L 107.71455999999307 222.09535999999935 L 106.95679999999993 222.3718399999998 L 106.39359999999579 222.4742400000032 L 105.88159999999334 222.52543999999762 L 103.92575999999826 222.41279999999824 L 101.59103999999934 222.24895999999717 L 100.0448000000033 222.31040000000212 L 98.34496000000217 222.61759999999776 L 94.78144000000611 223.52896000000328 L 93.58336000000418 223.97952000000078 L 93.30688000000373 224.1331199999986 L 91.64800000000105 225.1776000000027 L 91.12575999999535 225.38240000000224 L 90.42944000000716 225.5462400000033 L 89.09824000000663 225.59743999999773 L 88.01279999999679 225.42336000000068 L 86.13887999999861 225.0239999999976 L 84.25471999999718 224.59391999999934 L 83.12832000000344 224.22527999999875 L 82.02240000000165 223.80543999999645 L 79.74911999999313 222.8428799999965 L 78.29503999999724 222.24895999999717 L 77.3529600000038 221.96224000000075 L 75.71455999999307 221.67551999999705 L 74.67007999999623 221.59360000000015 L 73.7280000000028 221.6038400000034 L 73.03168000000005 221.65503999999783 L 71.77215999999316 221.85983999999735 L 70.44096000000718 222.24895999999717 L 68.82304000000295 222.93503999999666 L 67.23583999999391 223.56992000000173 L 66.41663999999582 223.75424000000203 L 65.34144000000379 223.78495999999723 L 64.56320000000414 223.67231999999785 L 62.730240000004414 223.35487999999896 L 61.90080000000307 223.32415999999648 L 61.00991999999678 223.4470399999991 L 59.985920000006445 223.83615999999893 L 59.2896000000037 224.24575999999797 L 56.06399999999849 226.42687999999907 L 53.442559999995865 228.18815999999788 L 52.92032000000472 228.47488000000158 L 51.89631999999983 228.88448000000062 L 50.62656000000425 229.232640000002 L 49.725439999994705 229.38623999999982 L 49.018880000003264 229.42719999999827 L 46.878719999993336 229.39648000000307 L 45.47583999999915 229.51935999999841 L 44.73855999999796 229.71392000000196 L 43.28448000000208 230.27711999999883 L 42.05568000000494 230.7071999999971 L 41.543680000002496 230.8096000000005 L 40.26368000000366 230.92223999999987 L 39.34208000000217 230.91199999999662 L 38.25664000000688 230.78912000000128 L 36.843519999994896 230.71744000000035 L 35.86048000000301 230.83007999999973 L 35.225600000005215 230.96319999999832 L 32.92160000000149 231.84384000000136 L 31.9795199999935 232.21248000000196 L 28.825599999996484 233.4412799999991 L 26.972160000004806 233.9123200000031 L 25.907200000001467 234.1273599999986 L 23.0809600000066 234.42431999999826 L 19.834879999994882 234.44479999999749 L 19.27168000000529 234.4652799999967 L 18.36032000000705 234.63936000000103 L 17.674239999993006 234.89536000000226 L 17.141759999998612 235.18207999999868 L 16.42496000000392 235.89888000000064 L 15.267840000000433 237.24031999999715 L 14.407680000003893 237.8854399999982 L 13.926399999996647 238.14143999999942 L 13.178880000006757 238.41791999999987 L 12.68735999999626 238.52032000000327 L 11.335680000003777 238.64319999999861 L 10.782720000002882 238.6227199999994 L 10.250239999993937 238.55103999999847 L 5.068799999993644 237.2505600000004 L 3.8399999999965075 236.92287999999826 L 1.6076800000009825 236.21631999999954 L 0.45055999999749474 235.58144000000175 L 0.030719999995199032 235.21280000000115 L 0.0 235.18239670103503" fill="none"/><path stroke="#408040" stroke-width="3" d="M 453.8364135849115 1024.0 L 453.7344000000012 1023.9692799999975 L 448.44031999999424 1021.1430400000027 L 438.25152000000526 1015.6851200000019 L 436.94079999999667 1013.8111999999965 L 435.6403200000059 1013.0841599999985 L 435.1180800000002 1012.9715199999991 L 435.17952000000514 1012.2444800000012 L 435.2204800000036 1011.5891199999969 L 434.4524800000072 1011.5174400000033 L 433.244160000002 1011.3843199999974 L 432.9779200000048 1011.3638399999982 L 432.1791999999987 1011.271679999998 L 431.0937600000034 1010.9440000000031 L 417.27999999999884 1001.4924800000008 L 406.17983999999706 993.853439999999 L 398.5408000000025 988.6003199999977 L 399.1756800000003 988.1702399999995 L 399.31904000000213 988.0678400000033 L 399.7491199999931 987.729919999998 L 400.2406400000036 987.2179200000028 L 400.6604800000059 986.5625599999985 L 400.94719999999506 985.2928000000029 L 400.78336000000127 979.8963199999998 L 400.86527999999817 976.8447999999989 L 400.4249600000039 975.1449599999978 L 392.81664000000455 967.0246400000033 L 389.19168000000354 962.8979200000031 L 387.90144000000146 961.2083199999979 L 386.3347199999989 958.0646399999969 L 381.22496000000683 950.0467199999985 L 379.709440000006 947.9270400000023 L 377.77408000000287 946.626559999997 L 375.142399999997 945.1008000000002 L 371.81440000000293 942.6329600000026 L 367.13472000000183 939.1615999999995 L 363.8476800000062 937.0726399999985 L 359.3625599999941 934.8300799999997 L 354.8671999999933 931.2870400000029 L 352.82944000000134 929.3312000000005 L 349.511679999996 924.1702399999995 L 345.1699200000003 917.2070400000011 L 342.80448000000615 910.6534400000019 L 340.28544000000693 903.6390400000018 L 339.4867200000008 901.3862399999998 L 338.7699200000061 900.3212799999965 L 336.2918400000053 898.7033599999995 L 328.71424000000115 894.7200000000012 L 325.4169600000023 892.9279999999999 L 323.7785600000061 891.5251199999984 L 321.49503999999433 887.6339200000002 L 317.0099199999968 879.1244799999986 L 315.3203199999989 875.6326400000034 L 313.2415999999939 873.584640000001 L 311.97183999999834 871.9667199999967 L 311.1935999999987 870.369279999999 L 310.12863999999536 868.3622400000022 L 308.4083200000023 866.0377599999993 L 307.00543999999354 864.235520000002 L 305.1110400000034 862.4332799999975 L 302.42815999999584 858.0095999999976 L 301.63967999999295 856.1868800000011 L 301.63967999999295 854.8556800000006 L 302.04928000000655 853.6268800000034 L 303.42144000000553 851.6915200000003 L 304.0153600000049 849.4387199999983 L 304.8038399999932 844.738559999998 L 304.36351999999897 842.5779200000034 L 302.34623999999894 840.1100799999986 L 301.0457599999936 838.3283200000005 L 300.1651200000051 835.0003199999992 L 300.68735999999626 828.6003199999977 L 299.8067199999932 817.7049600000028 L 299.4995199999976 816.3430399999997 L 299.2332800000004 815.8617599999998 L 299.1001600000018 815.6569600000003 L 299.2025600000052 815.4214399999983 L 300.94336000000476 814.4588799999983 L 301.9161599999934 813.9263999999966 L 306.851840000003 811.3049600000013 L 308.4287999999942 810.0249600000025 L 308.9203200000047 809.0726399999985 L 309.02271999999357 807.97696 L 308.8076799999981 807.2191999999995 L 307.6198399999994 805.5910399999993 L 306.5344000000041 804.0140800000008 L 306.5651199999993 802.8672000000006 L 307.57888000000094 801.1878399999987 L 308.0908800000034 799.1910399999979 L 310.62016000000585 794.7878399999972 L 311.97183999999834 792.0025600000008 L 311.5929599999945 790.661119999997 L 311.1116800000018 788.9919999999984 L 311.1628800000035 787.9680000000008 L 312.10495999999694 785.1315200000026 L 312.50431999999273 781.8956800000014 L 312.4019200000039 780.2265600000028 L 311.9820800000016 779.2537599999996 L 309.67807999999786 775.5775999999969 L 309.8419200000062 774.133759999997 L 311.38816000000224 772.1574400000027 L 314.56256000000576 768.3891199999998 L 315.0233600000065 767.4368000000031 L 314.56256000000576 765.8086400000029 L 312.05375999999524 762.2246400000004 L 311.6646400000027 760.9958400000032 L 311.6953599999979 758.5279999999984 L 311.6441599999962 757.3708800000022 L 311.142399999997 756.0703999999969 L 309.9033599999966 752.5785600000017 L 309.299199999994 747.4380799999999 L 308.88959999999497 741.3248000000021 L 309.51424000000407 738.6009600000034 L 309.54495999999926 736.9318399999975 L 309.32992000000377 734.6687999999995 L 309.44255999999586 732.8972799999974 L 310.04671999999846 729.630720000001 L 308.7564799999964 727.5315199999968 L 306.9030400000047 724.8998399999982 L 306.9132799999934 723.4764799999975 L 307.23072000000684 722.370560000003 L 306.84159999999974 720.5887999999977 L 306.07360000000335 718.2848000000013 L 306.36032000000705 716.6054399999994 L 307.2511999999988 715.4790399999983 L 309.89311999999336 713.8918399999966 L 311.4803200000024 712.4275199999975 L 313.0470400000049 708.0243199999968 L 314.07103999999526 704.0307200000025 L 314.75711999999476 698.6444800000027 L 316.0371199999936 697.0470399999977 L 319.7951999999932 695.6441600000035 L 331.6940800000011 691.8758400000006 L 343.2140800000052 688.6297600000034 L 350.7916799999948 686.8787200000006 L 355.69663999999466 686.4076799999966 L 363.2230399999971 685.5987200000018 L 366.41792000000714 684.2265600000028 L 369.5308800000057 682.9670400000032 L 374.5280000000057 682.2809599999964 L 379.3408000000054 681.0624000000025 L 381.1635200000019 680.8268800000005 L 384.27648000000045 681.1340800000035 L 387.11295999999857 681.5743999999977 L 390.6764799999946 682.6086399999986 L 396.8000000000029 684.4415999999983 L 400.70144000000437 684.4825599999967 L 408.1152000000002 683.9296000000031 L 409.64096000000427 683.601920000001 L 411.2896000000037 682.8441600000006 L 415.00672000000486 680.1100799999986 L 417.3209599999973 679.2908800000005 L 419.82975999999326 679.3318399999989 L 422.778879999998 680.4684800000032 L 425.42080000000715 681.1545600000027 L 428.18559999999707 680.8064000000013 L 430.34623999999894 680.6630399999995 L 431.8105599999981 681.03168 L 435.087360000005 682.6086399999986 L 437.49375999999756 682.6291199999978 L 439.86943999999494 681.4822399999975 L 443.2076800000068 678.9222399999999 L 444.41599999999744 677.1200000000026 L 444.7743999999948 675.4611199999999 L 444.54911999999604 672.0614399999977 L 444.20096000000194 669.7881599999964 L 443.44319999999425 668.8972799999974 L 442.6342399999994 668.4159999999974 L 439.9513600000064 667.4432000000015 L 438.88640000000305 666.286079999998 L 438.712320000006 665.7228800000012 L 438.80448000000615 664.7910399999964 L 439.43936000000394 663.8387199999997 L 442.9209600000031 661.9955199999968 L 445.9520000000048 660.398079999999 L 447.27296000000206 658.6777599999987 L 447.334400000007 656.8857599999974 L 446.7404799999931 655.7388799999972 L 444.4774400000024 654.3667199999982 L 434.4524800000072 652.0934399999969 L 433.33632000000216 651.4278399999966 L 432.70144000000437 650.5574399999969 L 432.0153600000049 648.2943999999989 L 431.24735999999393 647.3113599999997 L 430.34623999999894 646.6867199999979 L 426.87488000000303 645.2736000000004 L 425.37983999999415 644.2291200000036 L 424.7244800000044 643.3382399999973 L 423.1987200000003 639.4777600000016 L 421.74464000000444 637.6140799999994 L 420.68992000000435 636.7334400000036 L 415.6518400000059 633.2723199999964 L 407.8284799999965 627.9372799999983 L 404.7052799999947 624.5068800000008 L 398.1004799999937 619.847679999999 L 393.40032000000065 618.239999999998 L 390.604800000001 617.4924800000008 L 386.87743999999657 617.4720000000016 L 380.62080000000424 619.2640000000029 L 376.86272000000463 619.3868799999982 L 373.6576000000059 620.01152 L 368.93696000000637 621.3324799999973 L 366.81728000000294 621.4144000000015 L 363.4380800000072 620.666879999997 L 359.65952000000107 618.6598400000003 L 357.232640000002 616.5401599999968 L 355.860480000003 614.9734400000016 L 353.98656000000483 613.3964800000031 L 352.07167999999365 611.6454400000002 L 350.8121600000013 608.8294400000013 L 350.2592000000004 606.4537599999967 L 350.2284800000052 604.9894399999976 L 350.37184000000707 602.8083199999965 L 349.8291199999949 601.7331199999971 L 349.4809600000008 600.739840000002 L 349.5833600000042 599.9513599999991 L 349.8598400000046 598.9478400000007 L 349.6755200000043 598.3027199999997 L 348.7436799999996 596.9612800000032 L 348.78463999999803 596.0703999999969 L 349.7881599999964 594.851840000003 L 350.2079999999987 593.7868799999997 L 349.9110400000063 592.9062399999966 L 349.18399999999383 591.7491200000004 L 348.80512000000454 590.1823999999979 L 349.23519999999553 588.247040000002 L 350.64831999999296 586.5984000000026 L 352.12287999999535 585.2467200000028 L 352.29696000000695 583.8131199999989 L 352.19456000000355 581.9289599999975 L 351.25247999999556 580.3827200000014 L 350.32064000000537 577.2287999999971 L 349.6038399999961 576.3583999999973 L 347.3920000000071 574.6995200000019 L 345.9174400000047 573.4195200000031 L 345.6102399999945 572.784639999998 L 345.93791999999667 570.4089600000007 L 347.5251200000057 568.2380800000028 L 349.5833600000042 565.9955199999968 L 351.35487999999896 565.3913600000014 L 352.5836799999961 564.5926400000026 L 354.0991999999969 563.1590399999986 L 354.6316800000059 562.2272000000012 L 354.2937600000005 560.2611200000028 L 353.81247999999323 559.4419199999975 L 352.9216000000015 558.9299200000023 L 350.75071999999636 558.3155199999965 L 349.9929600000032 557.7727999999988 L 349.5628799999977 556.0729599999977 L 349.3785599999974 554.8236800000013 L 347.98592000000644 552.7244799999971 L 347.668479999993 551.9667199999967 L 347.709440000006 550.4409599999999 L 349.5628799999977 545.8022399999973 L 351.90783999999985 540.0063999999984 L 354.723840000006 531.8860799999966 L 356.1062399999937 527.6160000000018 L 356.85375999999815 526.0492799999993 L 358.46143999999913 524.6259199999986 L 365.5679999999993 522.1376000000018 L 369.2236799999955 520.9702400000024 L 373.12511999999697 519.2908800000005 L 375.4803200000024 517.2019199999995 L 376.1971199999971 516.0755199999985 L 376.7807999999932 514.2425599999988 L 376.70911999999953 512.2560000000012 L 376.2688000000053 510.6073600000018 L 375.35744000000705 507.3100800000029 L 375.12192000000505 505.1289600000018 L 376.2483199999988 502.896639999999 L 381.747199999998 494.2028799999971 L 388.92544000000635 474.5113599999968 L 390.4204800000007 470.44608000000153 L 391.31136000000697 468.7257600000012 L 392.82687999999325 466.81087999999727 L 400.2508800000069 461.0662400000001 L 403.8348799999949 458.3833599999998 L 407.86943999999494 456.22271999999793 L 412.11904000000504 454.8812800000014 L 413.7574400000012 454.1030400000018 L 416.07167999999365 452.40320000000065 L 417.16736000000674 451.61471999999776 L 417.49503999999433 451.3689599999998 L 417.1878399999987 451.2051199999987 L 415.92832000000635 450.61119999999937 L 414.5971200000058 449.9763200000016 L 411.8425600000046 448.58368000000337 L 411.06432000000495 448.19456000000355 L 405.57567999999446 445.0815999999977 L 404.4390399999975 443.85280000000057 L 401.88928000000305 440.0127999999968 L 400.1587200000067 438.6816000000035 L 397.13791999999376 437.3708800000022 L 396.3596799999941 436.2547199999972 L 396.36991999999736 433.18271999999706 L 396.44160000000556 431.57504000000336 L 396.1958400000003 430.47935999999754 L 395.3254400000005 429.34272000000055 L 394.32192000000214 428.6975999999995 L 392.3558400000038 428.0422400000025 L 390.2668799999956 427.4892800000016 L 379.238400000002 420.24960000000283 L 373.75999999999476 418.2118400000036 L 365.7216000000044 414.627840000001 L 355.50208000000566 410.65471999999863 L 353.1059200000018 410.59328000000096 L 351.37536000000546 411.09504000000015 L 349.5731200000009 412.0268799999976 L 346.7161599999963 413.5219199999992" fill="none"/><path stroke="#408040" stroke-width="3" d="M 346.7161599999963 413.5219199999992 L 348.9484800000064 412.375039999999 L 350.87360000000626 411.33056000000215 L 351.80543999999645 410.9209600000031 L 352.3993599999958 410.7366400000028 L 353.1059200000018 410.59328000000096 L 353.9660799999983 410.54207999999926 L 354.1606400000019 410.5523200000025 L 353.9046399999934 410.112000000001 L 353.843200000003 409.9481599999999 L 353.80224000000453 409.7638399999996 L 353.83295999999973 409.5590400000001 L 353.9456000000064 409.36447999999655 L 354.1503999999986 409.1699200000003 L 354.7033599999995 408.8831999999966 L 356.3417599999957 408.1152000000002 L 356.70015999999305 407.8694400000022 L 357.0176000000065 407.5110399999976 L 357.53983999999764 406.83520000000135 L 358.04159999999683 405.9852800000008 L 358.46143999999913 405.1660800000027 L 358.5023999999976 404.8486399999965 L 358.37952000000223 404.5004800000024 L 358.1030400000018 403.9372799999983 L 358.04159999999683 403.71199999999953 L 358.0313599999936 403.52767999999924 L 358.12351999999373 403.2511999999988 L 358.32832000000053 402.96448000000237 L 358.6355199999962 402.72896000000037 L 359.249920000002 402.3295999999973 L 359.4649599999975 402.07360000000335 L 359.5468799999944 401.84831999999733 L 359.5468799999944 401.5103999999992 L 359.44448000000557 401.26464000000124 L 358.2668799999956 399.4931199999992 L 358.12351999999373 399.0732799999969 L 358.12351999999373 398.58176000000094 L 358.2361600000004 398.0595200000025 L 358.2566400000069 397.60895999999775 L 358.1849599999987 397.2607999999964 L 358.0518400000001 396.9638399999967 L 357.75487999999314 396.53375999999844 L 357.45792000000074 396.02176000000327 L 357.37600000000384 395.5199999999968 L 357.6524800000043 393.3798400000014 L 357.64224000000104 392.8371199999965 L 357.4476799999975 390.79935999999725 L 357.3862400000071 390.0006399999984 L 357.468160000004 389.59103999999934 L 357.5807999999961 389.3043200000029 L 358.2361600000004 388.16767999999865 L 358.48192000000563 387.8092800000013 L 358.6867199999979 387.59423999999854 L 359.1270400000067 387.2665599999964 L 361.0419200000033 386.08896000000095 L 361.2569599999988 385.843200000003 L 361.3388799999957 385.59743999999773 L 361.8304000000062 381.82912000000215 L 361.8099199999997 380.9996800000008 L 361.7075199999963 380.4979200000016 L 361.328640000007 379.27936000000045 L 360.56063999999606 376.86271999999735 L 360.21248000000196 375.72608000000037 L 359.915519999995 374.6406399999978 L 359.84384000000136 373.7395200000028 L 359.9667199999967 372.4595199999967 L 360.19199999999546 370.97471999999834 L 360.4684799999959 370.39104000000225 L 360.9600000000064 369.4591999999975 L 361.1545599999954 368.81407999999647 L 361.2057599999971 368.4556799999991 L 361.24671999999555 367.5135999999984 L 361.2774400000053 366.15168000000267 L 361.40032000000065 363.83744000000297 L 361.53343999999925 361.92255999999907 L 361.73824000000604 361.0112000000008 L 362.13760000000184 359.87455999999656 L 362.6803199999995 358.7891200000013 L 363.11040000000503 358.09279999999853 L 363.7452800000028 357.21216000000277 L 364.23679999999877 356.4339200000031 L 364.42111999999906 355.72735999999713 L 364.8819199999998 352.1024000000034 L 364.9638399999967 351.67231999999785 L 365.12768000000506 351.1910399999979 L 365.71136000000115 349.747199999998 L 366.41792000000714 347.96543999999994 L 366.61247999999614 347.2076799999995 L 366.6534399999946 346.7161600000036 L 366.6739200000011 345.73311999999714 L 366.61247999999614 343.80799999999726 L 366.5715199999977 342.5792000000001 L 366.51007999999274 342.17983999999706 L 366.3359999999957 341.6166400000002 L 365.8342399999965 340.1728000000003 L 365.4860800000024 339.17951999999786 L 365.2198400000052 338.5139199999976 L 365.148159999997 338.0326399999976 L 365.26080000000366 337.6435199999978 L 365.37343999999575 337.47967999999673 L 365.68064000000595 337.23391999999876 L 366.7865599999932 336.66047999999864 L 367.0732799999969 336.42495999999664 L 367.31904000000213 336.1484800000035 L 368.537599999996 334.21312000000034 L 369.15200000000186 333.1788799999995 L 369.43872000000556 332.42111999999906 L 369.57184000000416 331.6838399999979 L 369.5616000000009 331.29471999999805 L 369.52064000000246 330.92607999999746 L 369.2953600000037 329.5743999999977 L 369.08031999999366 328.2636799999964 L 368.94719999999506 326.8096000000005 L 369.01888000000326 326.24640000000363 L 369.26463999999396 325.50912000000244 L 369.65376000000106 324.45440000000235 L 369.6947199999995 324.2598399999988 L 369.65376000000106 323.98335999999836 L 369.4591999999975 323.7068799999979 L 369.2134400000068 323.5225599999976 L 368.127999999997 323.0515200000009 L 367.9027199999982 322.9388800000015 L 367.462400000004 322.66240000000107 L 367.0937600000034 322.263039999998 L 366.9401599999983 321.95584000000235 L 366.87871999999334 321.77152000000206 L 366.8582400000014 321.40288000000146 L 366.89919999999984 319.30367999999726 L 366.91968000000634 318.2387200000012 L 366.92991999999504 317.3171199999997 L 367.0118400000065 316.80511999999726 L 367.24735999999393 316.38528000000224 L 367.53407999999763 315.91423999999824 L 367.6671999999962 315.5046399999992 L 367.7900800000061 314.4294399999999 L 367.9539199999999 313.95840000000317 L 368.38400000000547 313.4771200000032 L 368.52735999999277 313.3030399999989 L 368.76287999999477 312.8217599999989 L 369.00864 311.62367999999697 L 369.1622400000051 310.8147200000021 L 369.25440000000526 310.5382400000017 L 369.5616000000009 310.09792000000016 L 369.94048000000475 309.78048000000126 L 370.2476800000004 309.46304000000237 L 370.37055999999575 309.1660800000027 L 370.39104000000225 309.0022400000016 L 370.36032000000705 308.3263999999981 L 370.2988800000021 307.44576000000234 L 370.2681600000069 306.6982399999979 L 370.33984000000055 306.20672000000195 L 370.55487999999605 305.83808000000136 L 370.75968000000285 305.6435199999978 L 370.99520000000484 305.41823999999906 L 371.12832000000344 305.21343999999954 L 371.2204800000036 304.91647999999986 L 371.2511999999988 304.4351999999999 L 371.3536000000022 302.8787200000006 L 371.50719999999274 301.4963199999984 L 371.74271999999473 299.29471999999805 L 371.8041599999997 298.21951999999874 L 371.6710400000011 297.3695999999982 L 371.4048000000039 296.5196799999976 L 371.24095999999554 296.24319999999716 L 370.99520000000484 295.95648000000074 L 370.39104000000225 295.3830400000006 L 370.0633600000001 295.0041599999968 L 369.9302400000015 294.7583999999988 L 369.88928000000305 294.5433600000033 L 370.02240000000165 294.16447999999946 L 370.15552000000025 294.0006399999984 L 370.65727999999945 293.652479999997 L 371.15903999999864 293.3145599999989 L 371.5993599999929 292.92543999999907 L 371.84511999999813 292.7308800000028 L 372.2035199999955 292.5465600000025 L 373.81119999999646 291.96287999999913 L 374.671359999993 291.66591999999946 L 375.142399999997 291.4406400000007 L 375.49056000000564 291.19488000000274 L 375.7465599999996 290.9388800000015 L 375.97183999999834 290.61119999999937 L 376.15615999999864 290.03775999999925 L 376.15615999999864 289.77152000000206 L 376.0639999999985 289.4438399999999 L 375.80800000000454 288.71680000000197 L 375.0809600000066 286.6892799999987 L 374.80448000000615 286.14656000000105 L 374.4256000000023 285.6140799999994 L 374.1388799999986 285.27616000000125 L 373.8521599999949 284.88704000000143 L 373.78048000000126 284.62079999999696 L 373.7907200000045 284.40576000000146 L 373.9033599999966 283.78111999999965 L 373.8521599999949 283.4944000000032 L 373.75999999999476 283.3203199999989 L 373.17631999999867 282.2963200000013 L 372.88959999999497 281.7638399999996 L 372.7974399999948 281.3747199999998 L 372.8998399999982 280.96512000000075 L 373.1353600000002 280.34047999999893 L 373.1558400000067 280.1152000000002 L 373.07391999999527 279.77728000000207 L 372.7564799999964 278.91711999999825 L 372.7257600000012 278.5279999999984 L 372.8998399999982 277.79071999999724 L 372.88959999999497 277.5654399999985 L 372.8179200000013 277.350400000003 L 372.4697600000072 276.8588799999998 L 372.3571200000006 276.6131200000018 L 372.3264000000054 276.4288000000015 L 372.3673600000038 276.13184000000183 L 372.4390399999975 275.96800000000076 L 372.7257600000012 275.5891199999969 L 372.94079999999667 275.15903999999864 L 373.2377600000036 274.1247999999978 L 373.32992000000377 273.725440000002 L 373.32992000000377 273.31584000000294 L 373.24800000000687 273.01888000000326 L 372.7155199999979 272.1996799999979 L 372.3468799999973 271.4828800000032 L 372.1728000000003 270.8582400000014 L 371.92703999999503 267.8271999999997 L 371.752959999998 267.4585599999991 L 371.50719999999274 267.120640000001 L 371.31264000000374 266.6291199999978 L 371.281919999994 266.42431999999826 L 371.3536000000022 265.71775999999954 L 371.21024000000034 265.11359999999695 L 371.05663999999524 264.5504000000001 L 371.087360000005 264.14080000000104 L 371.4048000000039 263.4649599999975 L 371.47647999999754 263.260159999998 L 371.4867200000008 262.9631999999983 L 371.4355199999991 262.6560000000027 L 371.4355199999991 262.359040000003 L 371.7222400000028 261.69344000000274 L 371.76320000000123 261.29407999999967 L 371.71199999999953 261.08928000000014 L 371.5993599999929 260.72063999999955 L 371.5993599999929 260.35199999999895 L 371.7017599999963 259.7068799999979 L 371.81440000000293 259.3689599999998 L 371.89631999999983 259.21536000000197 L 372.11135999999533 258.97983999999997 L 372.4492800000007 258.74431999999797 L 372.8486399999965 258.6214400000026 L 373.1660799999954 258.61119999999937 L 373.7907200000045 258.69312000000355 L 374.17983999999706 258.7033599999995 L 374.59967999999935 258.6009600000034 L 374.99903999999515 258.3654400000014 L 375.6646400000027 257.63840000000346 L 375.9308799999999 257.4438399999999 L 376.4326399999991 257.2595199999996 L 376.76032000000123 257.14688000000024 L 377.2927999999956 256.890879999999 L 377.98911999999837 256.4505599999975 L 378.1529600000067 256.2047999999995 L 378.12223999999696 255.92831999999908 L 377.866240000003 255.66208000000188 L 377.4668800000072 255.41631999999663 L 377.1392000000051 255.30367999999726 L 376.4326399999991 255.2320000000036 L 375.52128000000084 255.28319999999803 L 374.8556799999933 255.35487999999896 L 373.72927999999956 255.5494400000025 L 371.50719999999274 256.1024000000034 L 371.10783999999694 256.2662399999972 L 370.79039999999804 256.4505599999975 L 369.97119999999995 257.3107200000013 L 369.3772800000006 257.9251199999999 L 369.1622400000051 258.1299199999994 L 368.56832000000577 258.4166400000031 L 368.0665600000066 258.5599999999977 L 367.462400000004 258.6009600000034 L 366.95040000000154 258.45760000000155 L 366.73536000000604 258.32448000000295 L 366.16191999999864 257.78175999999803 L 365.5167999999976 257.11615999999776 L 364.62592000000586 256.46080000000075 L 364.12416000000667 255.97952000000078 L 363.88864000000467 255.64160000000265 L 363.6838399999979 255.1808000000019 L 363.4176000000007 254.69952000000194 L 363.0796799999953 254.35136000000057 L 362.75199999999313 254.09535999999935 L 362.0966400000034 253.6857600000003 L 362.00448000000324 253.5833599999969 L 361.8918399999966 253.34784000000218 L 361.8304000000062 252.8665600000022 L 361.73824000000604 252.41599999999744 L 361.56415999999444 252.17023999999947 L 361.23648000000685 252.02687999999762 L 360.7244800000044 251.96543999999994 L 359.1065600000002 251.76064000000042 L 358.6355199999962 251.80159999999887 L 358.2668799999956 251.90400000000227 L 358.0825599999953 252.01664000000164 L 357.90847999999824 252.25215999999637 L 357.8880000000063 252.3955199999982 L 357.85727999999654 252.6924799999979 L 357.7856000000029 252.85631999999896 L 357.67295999999624 252.95872000000236 L 357.35551999999734 253.07136000000173 L 357.03807999999844 253.20448000000033 L 356.9152000000031 253.4502399999983 L 356.8947199999966 253.65503999999783 L 356.80255999999645 253.79839999999967 L 356.61823999999615 253.90080000000307 L 356.21888000000035 254.0544000000009 L 356.0755199999985 254.16704000000027 L 355.7785600000061 254.56640000000334 L 355.6044799999945 254.80191999999806 L 355.4406400000007 254.88384000000224 L 355.1027199999953 254.9248000000007 L 354.9081600000063 254.91455999999744 L 354.79551999999967 254.83264000000054 L 354.8057600000029 254.75071999999636 L 355.0720000000001 254.638079999997 L 355.32799999999406 254.53568000000087 L 355.4713599999959 254.40256000000227 L 355.6044799999945 254.15679999999702 L 355.7375999999931 253.67551999999705 L 355.82975999999326 253.30687999999645 L 355.9936000000016 252.40576000000146 L 356.1574399999954 252.11903999999777 L 356.51583999999275 251.75039999999717 L 356.75135999999475 251.44320000000153 L 356.8640000000014 250.9516799999983 L 356.90495999999985 250.85951999999816 L 357.1814400000003 250.4499199999991 L 357.2121599999955 250.35775999999896 L 357.1507200000051 250.08127999999851 L 357.0995200000034 249.96863999999914 L 356.92544000000635 249.81504000000132 L 356.45440000000235 249.76383999999962 L 355.50208000000566 250.01984000000084 L 355.03104000000167 250.01984000000084 L 354.76480000000447 249.93791999999667 L 354.61119999999937 249.80479999999807 L 354.2630400000053 249.35424000000057 L 354.01728 248.98559999999998 L 353.73055999999633 248.66816000000108 L 353.56672000000253 248.56575999999768 L 353.27999999999884 248.50432 L 352.706560000006 248.49407999999676 L 351.32416000000376 248.49407999999676 L 351.13984000000346 248.4019199999966 L 350.9759999999951 248.22783999999956 L 350.93503999999666 247.10143999999855 L 351.00672000000486 243.46624000000156 L 351.0476800000033 242.87232000000222 L 351.4675200000056 242.26815999999963 L 351.8463999999949 241.73567999999796" fill="none"/></svg>