<svg xmlns="http://www.w3.org/2000/svg" width="1024" height="1024"><rect stroke="none" x="0" y="0" width="1024" height="1024" fill="white"/><path stroke="#000000" stroke-width="2" d="M 564.2265620480757 510.1445314558805 L 567.8125004800968 511.4765629438334 L 581.9453122561099 511.4765629438334 L 586.0390625280561 511.3710940159508 L 590.1328128000605 511.4765629438334 L 594.4374999040738 511.3749995519174 L 597.6093747200212 511.3749995519174 L 600.7812495360849 511.4765629438334 L 604.6718750720611 511.3749995519174 L 608.6718750721193 511.4765629438334 L 613.5859374080901 511.4765629438334 L 618.9062502401066 511.3710940159508 L 622.7968747520354 511.3749995519174 L 627.5078123520361 511.4765629438334 L 630.6875002880115 511.3749995519174 L 637.9531253760797 511.3749995519174 L 646.1484369920217 511.57812531187665 L 648.6015621121041 511.4765629438334 L 653.5234375680448 511.4765629438334 L 660.281249792024 511.57812531187665 L 667.546874880034 511.4765629438334 L 686.6953123840503 511.57812531187665 L 728.3750000640284 511.57812531187665 L 737.898437632015 511.4765629438334 L 787.3593753600726 511.4765629438334 L 794.8359372800332 511.3749995519174 L 806.0937502720626 511.4765629438334 L 809.374999552092 511.4765629438334 L 818.078125056054 511.57812531187665 L 820.2265620480175 511.4765629438334 L 837.0234378241003 511.26953164790757 L 840.8124999681022 511.26953164790757 L 848.078125056054 511.1679682559916 L 863.5390627841116 511.26953164790757 L 871.734375424101 511.1679682559916 L 880.9531248640269 511.1679682559916 L 884.640624640102 511.26953164790757 L 887.9140628480236 511.3749995519174 L 896.3125002240413 511.26953164790757 L 902.8671877120505 511.1679682559916 L 919.0468751360895 511.26953164790757 L 939.2187504640315 511.26953164790757 L 941.8750003200839 511.7812500479631 L 944.7421870080871 511.3749995519174 L 962.6640629760223 511.26953164790757 L 974.5468753920286 511.26953164790757 L 992.9765621760744 511.3749995519174 L 1024.0 511.3749995519174" fill="none"/><path stroke="#000000" stroke-width="2" d="M 0.0 512.3045496996929 L 8.296875008032657 512.3984373759013 L 12.187499520077836 512.4999997439445 L 84.89062502403976 512.4999997439445 L 97.79687526408816 512.3984373759013 L 102.91406233602902 512.3984373759013 L 112.43749990401557 512.4999997439445 L 119.91406284808181 512.4999997439445 L 124.21093785605626 512.3984373759013 L 127.79687526402995 512.3984373759013 L 132.8124999681022 512.4999997439445 L 194.97656217601616 512.4999997439445 L 215.65625036804704 512.3984373759013 L 222.3125002240995 512.292968447844 L 228.46093721612124 512.1914060798008 L 236.24218726402614 511.8867189758457 L 314.5781248000567 511.8867189758457 L 318.46875033609103 511.98828134388896 L 365.16406272008317 511.98828134388896 L 372.3281254401081 511.8867189758457 L 376.6328125441214 511.7812500479631 L 380.52343705605017 511.7812500479631 L 383.59374950407073 511.8867189758457 L 395.9843747841078 511.7812500479631 L 400.4921876480221 511.6796876799199 L 452.4062504960457 511.6796876799199 L 457.52343756804476 511.8867189758457 L 461.624999936088 511.6796876799199 L 502.5859379200847 511.6796876799199 L 507.39843788801227 511.7812500479631 L 511.79687526402995 511.8867189758457 L 513.8437498880667 511.6796876799199 L 549.4843750401051 511.6796876799199 L 553.9843747841078 511.57812531187665 L 560.3359375360305 511.57812531187665 L 564.2265620480757 510.1445314558805" fill="none"/><path stroke="#000000" stroke-width="2" d="M 1024.0 511.3749995519174 L 992.9765621760162 511.3749995519174 L 974.5468753920286 511.2695316479658 L 962.6640629760223 511.2695316479658 L 944.7421870080288 511.3749995519174 L 941.8750003200257 511.7812500479631 L 939.2187504640315 511.2695316479658 L 919.0468751360313 511.2695316479658 L 902.8671877120505 511.1679682559334 L 896.3125002240413 511.2695316479658 L 887.9140628480236 511.3749995519174 L 884.6406246400438 511.2695316479658 L 880.9531248640269 511.1679682559334 L 871.7343754240428 511.1679682559334 L 863.5390627840534 511.2695316479658 L 848.078125056054 511.1679682559334 L 840.812499968044 511.2695316479658 L 837.023437824042 511.2695316479658 L 820.2265620480175 511.47656294394983 L 818.078125056054 511.57812531193485 L 809.3749995520338 511.47656294394983 L 806.0937502720626 511.47656294394983 L 794.8359372800332 511.3749995519174 L 787.3593753600144 511.47656294394983 L 737.898437632015 511.47656294394983 L 728.3750000640284 511.57812531193485 L 686.6953123840503 511.57812531193485 L 667.546874880034 511.47656294394983 L 660.281249792024 511.57812531193485 L 653.5234375680448 511.47656294394983 L 648.6015621120459 511.47656294394983 L 646.1484369920217 511.57812531193485 L 637.9531253760215 511.3749995519174 L 630.6875002880115 511.3749995519174 L 627.5078123520361 511.47656294394983 L 622.7968747520354 511.3749995519174 L 618.9062502400484 511.3710940159508 L 613.5859374080319 511.47656294394983 L 608.6718750720611 511.47656294394983 L 604.6718750720611 511.3749995519174 L 600.7812495360267 511.47656294394983 L 597.6093747200212 511.3749995519174 L 594.4374999040156 511.3749995519174 L 590.1328128000605 511.47656294394983 L 586.0390625280561 511.3710940159508 L 581.9453122560517 511.47656294394983 L 567.8125004800386 511.47656294394983 L 564.2265620480175 510.1445314559387 L 560.3359375360305 511.57812531193485 L 553.9843747840496 511.57812531193485 L 549.4843750400469 511.6796876799199 L 513.8437498880085 511.6796876799199 L 511.79687526402995 511.88671897596214 L 507.39843788801227 511.7812500479631 L 502.5859379200265 511.6796876799199 L 461.6249999360298 511.6796876799199 L 457.52343756804476 511.88671897596214 L 452.4062504960457 511.6796876799199 L 400.4921876480221 511.6796876799199 L 395.9843747840496 511.7812500479631 L 383.5937495040125 511.88671897596214 L 380.52343705605017 511.7812500479631 L 376.6328125440632 511.7812500479631 L 372.3281254400499 511.88671897596214 L 365.16406272002496 511.98828134394716 L 318.4687503360328 511.98828134394716 L 314.5781248000567 511.88671897596214 L 236.24218726402614 511.88671897596214 L 228.46093721606303 512.1914060799172 L 222.3125002240413 512.2929684479604 L 215.65625036804704 512.3984373759595 L 194.97656217601616 512.4999997439445 L 132.812499968044 512.4999997439445 L 127.79687526402995 512.3984373759595 L 124.21093785605626 512.3984373759595 L 119.9140628480236 512.4999997439445 L 112.43749990401557 512.4999997439445 L 102.91406233602902 512.3984373759595 L 97.79687526402995 512.3984373759595 L 84.89062502403976 512.4999997439445 L 12.187499520019628 512.4999997439445 L 8.296875008032657 512.3984373759595 L 0.0 512.304549699802" fill="none"/><path stroke="#408040" stroke-width="3" d="M 0.0 328.0719539376805 L 3.338239999997313 327.0963199999969 L 60.682239999994636 333.864959999999 L 225.19808000000194 334.41791999999987 L 270.42815999999584 322.5702400000009 L 305.81759999999485 297.2262400000036 L 363.4585599999991 247.71583999999712 L 451.76832000000286 174.4896000000008 L 555.2947200000053 100.5772799999977 L 610.3859200000006 78.99135999999999 L 656.7833600000013 50.49343999999837 L 895.8463999999949 46.29503999999724 L 1011.02592 65.29024000000209 L 1024.0 65.08824100457423" fill="none"/></svg>