<svg xmlns="http://www.w3.org/2000/svg" width="1024" height="1024"><rect stroke="none" x="0" y="0" width="1024" height="1024" fill="white"/><path stroke="#000000" stroke-width="2" d="M 0.0 2.8554690559394658 L 49.56250009604264 2.8554690559394658 L 69.53124966402538 2.957031423924491 L 84.28124979202403 2.7539066879544407 L 102.91406233602902 2.957031423924491 L 127.39062476804247 3.0585937919677235 L 207.46874982403824 3.0585937919677235 L 235.21875046403147 3.1601561599527486 L 301.3671874560532 3.1601561599527486 L 305.15624960005516 3.0585937919677235 L 309.554688000062 2.8554690559394658 L 326.0468746240367 3.0585937919677235 L 338.43749990401557 2.957031423924491 L 383.39062476804247 2.957031423924491 L 390.7656253440073 2.8554690559394658 L 415.85156300803646 2.8554690559394658 L 421.2734371840488 2.7539066879544407 L 443.6015626240405 2.7539066879544407 L 452.5078128640307 2.6484377599554136 L 464.9999994880636 2.6484377599554136 L 474.7265628160094 2.5468753919703886 L 511.39062476804247 2.445311999937985 L 551.9375001600129 2.445311999937985 L 565.2499998720596 2.34374963195296 L 578.7656253440073 2.34374963195296 L 585.3203128320165 2.242187263967935 L 621.6718745600083 2.242187263967935 L 639.4921871360275 2.136718335968908 L 651.9843747840496 2.136718335968908 L 673.3828126720618 2.035155967925675 L 692.7421870080288 2.035155967925675 L 711.0703124480206 1.9335935999406502 L 740.5990645760321 1.8346567679545842 L 741.3828126720618 1.8320312319556251 L 762.2656245760154 1.8320312319556251 L 768.5156249600113 1.624999935971573 L 808.7578122240375 1.624999935971573 L 827.9062497280538 1.726562303956598 L 862.2109378560563 1.726562303956598 L 865.1796879360336 1.8320312319556251 L 876.1406248960411 1.8320312319556251 L 880.1328128000605 1.8320312319556251 L 884.1249996800325 1.726562303956598 L 1023.4921871360275 1.726562303956598 L 1024.0 1.7294199467432918" fill="none"/><path stroke="#000000" stroke-width="2" d="M 1024.0 1.7294199467432918 L 1023.4921871360275 1.726562303956598 L 884.1249996800325 1.726562303956598 L 880.1328128000605 1.8320312319556251 L 876.1406248960411 1.8320312319556251 L 865.1796879360336 1.8320312319556251 L 862.2109378560563 1.726562303956598 L 827.9062497280538 1.726562303956598 L 808.7578122240375 1.624999935971573 L 768.5156249600113 1.624999935971573 L 762.2656245760154 1.8320312319556251 L 741.3828126720618 1.8320312319556251 L 740.5990645760321 1.8346567679545842 L 711.0703124480206 1.9335935999406502 L 692.7421870080288 2.035155967925675 L 673.3828126720618 2.035155967925675 L 651.9843747840496 2.136718335968908 L 639.4921871360275 2.136718335968908 L 621.6718745600083 2.242187263967935 L 585.3203128320165 2.242187263967935 L 578.7656253440073 2.34374963195296 L 565.2499998720596 2.34374963195296 L 551.9375001600129 2.445311999937985 L 511.39062476804247 2.445311999937985 L 474.7265628160094 2.5468753919703886 L 464.9999994880636 2.6484377599554136 L 452.5078128640307 2.6484377599554136 L 443.6015626240405 2.7539066879544407 L 421.2734371840488 2.7539066879544407 L 415.85156300803646 2.8554690559394658 L 390.7656253440073 2.8554690559394658 L 383.39062476804247 2.957031423924491 L 338.43749990401557 2.957031423924491 L 326.0468746240367 3.0585937919677235 L 309.554688000062 2.8554690559394658 L 305.15624960005516 3.0585937919677235 L 301.3671874560532 3.1601561599527486 L 235.21875046403147 3.1601561599527486 L 207.46874982403824 3.0585937919677235 L 127.39062476804247 3.0585937919677235 L 102.91406233602902 2.957031423924491 L 84.28124979202403 2.7539066879544407 L 69.53124966402538 2.957031423924491 L 49.56250009604264 2.8554690559394658 L 0.0 2.8554690559394658" fill="none"/><path stroke="#408040" stroke-width="3" d="M 747.2947200000053 1008.6502400000027 L 759.0399999999936 1013.5756800000017 L 759.0604800000001 1022.7097599999979 L 761.0702071602718 1024.0" fill="none"/><path stroke="#408040" stroke-width="3" d="M 1024.0 460.1865896235904 L 1022.6790400000027 449.38240000000224 L 1022.7609599999996 403.7734399999972 L 1013.0841599999985 399.18592000000353 L 990.4947200000024 399.1244799999986 L 984.4223999999958 394.29119999999966 L 979.281919999994 393.8816000000006 L 965.9801600000064 391.49568 L 946.1350399999938 393.0112000000008 L 929.3619199999957 383.6108800000002 L 909.9878400000016 378.20416000000114 L 896.1638399999938 367.39072000000306 L 879.0732799999969 356.5055999999968 L 865.0035199999984 349.69600000000355 L 844.6566400000011 357.7856000000029 L 835.0720000000001 347.3100800000029 L 829.491200000004 335.42143999999826 L 840.9088000000047 329.4310400000031 L 849.3465600000054 257.27999999999884 L 846.3769599999941 245.9238400000031 L 836.0140799999936 241.0393600000025 L 827.1872000000003 214.3231999999989 L 796.9484800000064 208.42495999999664 L 779.7964800000045 195.17440000000352 L 776.622080000001 182.1900800000003 L 751.2780800000037 132.7308800000028 L 705.2902400000021 93.97247999999672 L 673.4745600000024 64.66560000000027 L 667.9449599999934 48.537600000003295 L 643.0617599999969 36.78207999999722 L 610.3756799999974 14.23359999999957 L 600.3383064150985 0.0" fill="none"/><path stroke="#408040" stroke-width="3" d="M 1024.0 369.26184233429376 L 1022.4640000000072 412.8972799999974 L 1023.7235199999996 457.3183999999965 L 1024.0 459.21172978622053" fill="none"/><path stroke="#408040" stroke-width="3" d="M 747.2947200000053 1008.6502400000027 L 747.2947200000053 1009.0393600000025 L 747.7247999999963 1009.0393600000025 L 748.5542399999977 1009.0393600000025 L 749.7523199999996 1009.0291199999992 L 752.9779200000048 1009.0188800000033 L 753.715200000006 1009.0188800000033 L 754.3910400000022 1009.00864 L 754.4934400000056 1009.0598400000017 L 754.636799999993 1009.0700799999977 L 755.1999999999971 1009.0700799999977 L 755.8656000000046 1009.0700799999977 L 757.9238400000031 1009.0905599999969 L 758.886400000003 1009.0700799999977 L 759.0707200000033 1009.2032000000036 L 759.2243199999939 1009.3875199999966 L 759.0911999999953 1010.1043199999986 L 759.0604800000001 1010.2988800000021 L 759.0297600000049 1010.6572799999994 L 759.0399999999936 1011.4252800000031 L 759.0604800000001 1012.5311999999976 L 759.0399999999936 1013.5756800000017 L 759.0399999999936 1015.7260800000004 L 759.0297600000049 1016.5350400000025 L 759.0195200000016 1018.2041600000011 L 759.0297600000049 1019.729919999998 L 759.0502399999968 1020.8051199999973 L 759.0604800000001 1022.7097599999979 L 759.1014399999985 1023.0169600000008 L 759.2243199999939 1023.3856000000014 L 759.3062400000053 1023.5699200000017 L 759.4496000000072 1023.7849599999972 L 759.6704518918996 1024.0" fill="none"/></svg>