<svg xmlns="http://www.w3.org/2000/svg" width="1024" height="1024"><rect stroke="none" x="0" y="0" width="1024" height="1024" fill="white"/><path stroke="#000000" stroke-width="2" d="M 0.0 0.7100745163843385 L 5.531249664025381 0.8046878719469532 L 59.90624972805381 0.8085934079717845 L 92.98437529604416 0.7031255039619282 L 119.71093708806438 0.7031255039619282 L 127.59374950401252 0.6015621119295247 L 140.70312550402014 0.6015621119295247 L 153.60156262404053 0.7031255039619282 L 192.10937548801303 1.5234375679283403 L 195.78906214406015 1.624999935971573 L 204.39062528003706 1.726562303956598 L 211.56250009604264 1.9335935999406502 L 226.20312473602826 2.136718335968908 L 229.38281267206185 2.242187263967935 L 244.94531276804628 2.5468753919703886 L 256.3125002240413 2.957031423924491 L 263.6796876800363 3.0585937919677235 L 267.57812531205127 3.0585937919677235 L 293.38281267206185 3.4687498239218257 L 375.2968744960381 3.7773434879491106 L 383.5937495040125 3.8789058559341356 L 425.7812500480213 3.4687498239218257 L 431.61718784004916 3.3671874559368007 L 440.42968780803494 3.2656250879517756 L 451.2812503040186 3.2656250879517756 L 482.8203120640246 3.0585937919677235 L 497.4609377280576 3.0585937919677235 L 511.5937495040125 2.957031423924491 L 516.5078128640307 2.957031423924491 L 534.1249996800325 3.1601561599527486 L 565.2499998720596 2.957031423924491 L 577.6406251520384 2.957031423924491 L 587.8828124160646 2.8554690559394658 L 639.1875000320142 2.6484377599554136 L 663.554688000062 2.6484377599554136 L 679.2265625600121 2.5468753919703886 L 751.8203125760192 2.445311999937985 L 768.0000000000582 2.34374963195296 L 773.7343754240428 2.34374963195296 L 777.6328120320104 2.445311999937985 L 780.289062912052 2.445311999937985 L 785.5156254720641 2.136718335968908 L 791.3515622400446 2.136718335968908 L 979.7656248320127 2.136718335968908 L 1000.4531251200242 2.34374963195296 L 1018.0624998400453 2.445311999937985 L 1023.5937495040125 2.5468753919703886 L 1024.0 2.541822515282547" fill="none"/><path stroke="#000000" stroke-width="2" d="M 1024.0 2.541822515166132 L 1023.5937495040707 2.5468753918539733 L 1018.0624998400453 2.445311999937985 L 1000.4531251200824 2.3437496318947524 L 979.7656248320127 2.1367183359107003 L 791.3515622400446 2.1367183359107003 L 785.5156254721223 2.1367183359107003 L 780.289062912052 2.445311999937985 L 777.6328120320104 2.445311999937985 L 773.7343754240428 2.3437496318947524 L 768.0000000000582 2.3437496318947524 L 751.8203125760192 2.445311999937985 L 679.2265625600121 2.5468753918539733 L 663.554688000062 2.648437759897206 L 639.1875000320724 2.648437759897206 L 587.8828124160646 2.8554690558230504 L 577.6406251520384 2.957031423866283 L 565.2499998720596 2.957031423866283 L 534.1249996800325 3.1601561599527486 L 516.5078128640307 2.957031423866283 L 511.59374950407073 2.957031423866283 L 497.4609377280576 3.058593791909516 L 482.8203120640246 3.058593791909516 L 451.2812503040186 3.2656250878353603 L 440.42968780809315 3.2656250878353603 L 431.61718784004916 3.367187455878593 L 425.7812500480795 3.4687498239218257 L 383.5937495040125 3.8789058559341356 L 375.2968744960963 3.777343487890903 L 293.38281267206185 3.4687498239218257 L 267.5781253121095 3.058593791909516 L 263.6796876800363 3.058593791909516 L 256.3125002240995 2.957031423866283 L 244.9453127681045 2.5468753918539733 L 229.38281267212005 2.2421872638515197 L 226.20312473602826 2.1367183359107003 L 211.56250009604264 1.9335935998824425 L 204.39062528009526 1.7265623038983904 L 195.78906214406015 1.6249999359133653 L 192.10937548801303 1.5234375678701326 L 153.60156262409873 0.7031255038455129 L 140.70312550407834 0.601562111871317 L 127.59374950407073 0.601562111871317 L 119.71093708812259 0.7031255038455129 L 92.98437529610237 0.7031255038455129 L 59.90624972805381 0.8085934080299921 L 5.531249664025381 0.8046878718887456 L 0.0 0.7100745162679232" fill="none"/></svg>