<svg xmlns="http://www.w3.org/2000/svg" width="1024" height="1024"><rect stroke="none" x="0" y="0" width="1024" height="1024" fill="white"/><path stroke="#000000" stroke-width="2" d="M 1024.0 779.0345052568009 L 1022.2656245760154 777.6132812799187 L 1019.5000002560555 775.0546872319537 L 1010.8984371200204 767.4765629439498 L 1002.0859371520346 760.3085936639691 L 997.9921879040194 756.9296875519212 L 992.562499584048 752.3203123199637 L 983.3515622400446 744.6406246399274 L 981.3046876160661 742.8984371199622 L 978.8437504000613 740.8515624959255 L 959.3906247680425 724.4687503359746 L 949.2499998720596 717.9140628479654 L 948.8437504000613 715.5585935359704 L 946.8984371200204 714.023437311931 L 942.8984371200204 710.6445311999414 L 939.7265623040148 707.9804692479665 L 935.6328120320104 704.6015621119295 L 930.6171873280546 700.3007815679302 L 927.2343746560509 697.535156223923 L 922.9374996480183 693.85156300792 L 912.4921876480221 685.1445309439441 L 906.4453120000544 680.1289062399301 L 896.2109378560563 671.5273441279423 L 892.6250004480244 668.453125119966 L 884.3281254400499 661.4921871359693 L 877.3671874560532 655.5507814399316 L 868.8671877120505 648.4882810879499 L 861.1875000320142 641.7265623039566 L 858.7265628160676 639.7812500479631 L 856.3750000640284 637.9414067199687 L 852.5859379200265 634.664062975964 L 846.1328128000605 629.3359370239195 L 841.8359377920278 625.6523438079748 L 828.109375488013 613.9765626879525 L 823.6093747200212 610.3945308159455 L 820.2265620480175 607.5273441279423 L 817.6640624640277 605.5820308479597 L 803.4375004160102 593.4960936959251 L 800.1562501120497 590.6289059839328 L 782.7500001280569 575.7812500479631 L 768.5156249600113 563.5976560639683 L 760.0156252160668 556.2226565119345 L 742.0937502720626 540.453125119966 L 732.9843752960442 532.1601566719473 L 724.8906250240398 524.9921873919666 L 719.3671874560532 520.0781250559376 L 716.390625280037 517.4140620799735 L 709.5312496640254 511.1679682559334 L 707.4843750400469 509.4257817599573 L 703.6953128960449 506.15234355191933 L 700.5234370560502 503.48828159994446 L 692.9453127680463 497.03515647992026 L 691.4062499840511 495.5000002559391 L 684.7500001280569 489.4609377279412 L 682.3984373760177 487.30859417596366 L 679.5312496640254 484.9531248639687 L 675.9453122560517 481.88281241594814 L 673.3828126720618 479.62890649592737 L 668.1640622080304 475.12500019196887 L 665.5000002560555 472.7695308799739 L 662.9374996480183 470.51562495995313 L 657.2031252480228 465.6015626239241 L 653.4218752000597 462.42578124796273 L 649.6328120320104 459.1484375039581 L 640.2109378560563 451.2656250879518 L 629.7656248320127 442.66406297596404 L 623.7187502080342 437.644531711936 L 613.7890621440602 429.5546879999456 L 600.0703129600151 418.29296844796045 L 594.3359375360305 413.5820308479597 L 590.9531248640269 410.9179688959266 L 588.0859371520346 408.4609372159466 L 579.0781245440594 401.0898442239268 L 576.109375488013 398.7343749119318 L 571.2968744960381 394.7382814719458 L 563.1015628800378 387.98046924796654 L 560.5390622720588 385.8320312319556 L 558.4921876480221 384.1914060799754 L 554.1953126400476 380.60937523195753 L 551.3281249280553 378.558594047965 L 544.0546877440647 373.44140595191857 L 541.7031249920256 371.80078079993837 L 532.7890626560547 363.5078123519197 L 530.0234373120475 361.3554687999422 L 525.9296870400431 358.08203161595156 L 523.5781253120513 356.1367183359689 L 522.0390625280561 354.49609420791967 L 515.8906245120452 349.48046847997466 L 512.2109378560563 346.61328076792415 L 507.5000002560555 342.7187496959232 L 491.92968704004306 329.921874943946 L 484.14843699202174 323.57031219196506 L 480.87499980803113 320.9101557759568 L 478.10937548801303 318.554687487951 L 469.1015628800378 311.28515583992703 L 455.8906245120452 300.4296878079185 L 449.1328122880659 295.10546841594623 L 441.0390620160615 288.550780927937 L 436.9453127680463 285.2734371839324 L 427.0078126080334 277.28515583992703 L 421.1718748160638 272.57812479994027 L 412.57031270401785 265.61328127991874 L 408.2734376960434 262.1328127999441 L 399.97656268801074 255.37499955197563 L 397.42187520005973 253.3242183679249 L 391.6874997760169 248.61328076792415 L 387.6874997760169 245.33984358393354 L 384.4140625920263 242.67578163195867 L 381.1328122880659 239.9101562879514 L 377.2421877760207 236.7343749119318 L 374.5859379200265 234.48437452793587 L 369.05468723201193 229.97656268795254 L 364.5468753920286 226.18749951996142 L 360.4531251200242 222.9140623359708 L 358.0937502720626 220.96484351996332 L 355.5390627840534 218.81640652794158 L 352.87499980803113 216.66406297596404 L 351.23437465605093 215.2304691199679 L 348.98437529604416 213.39062476792606 L 345.9140628480236 210.93359411193524 L 340.9999994880636 206.93749964796007 L 338.6406246400438 204.99218739196658 L 332.4999997440609 199.97656268795254 L 320.21093785605626 199.56640665594023 L 317.2421877760207 199.76953139196848 L 306.5859379200265 199.56640665594023 L 294.812499968044 199.35937535995618 L 289.898437632015 199.25781299197115 L 278.6328125440632 199.25781299197115 L 275.7656248320127 199.15624959993875 L 272.79687475203536 199.15624959993875 L 266.0390625280561 199.05468723195372 L 261.2265625600121 198.9492183039547 L 256.10156236804323 198.84765593596967 L 252.52343705605017 198.74609356792644 L 245.14843750401633 198.6445311999414 L 236.14062489604112 198.6445311999414 L 232.25000038405415 198.74609356792644 L 217.70312499202555 198.74609356792644 L 210.43749990401557 198.84765593596967 L 196.92187545605702 198.9492183039547 L 182.89062502403976 198.9492183039547 L 132.4062504960457 199.25781299197115 L 128.21093785605626 199.25781299197115 L 113.35937536001438 198.9492183039547 L 94.7265628160676 198.5429688319564 L 83.46093772805762 198.2343751679291 L 77.3124997120467 197.41406207997352 L 74.24218726402614 198.02734387194505 L 71.37499955203384 198.43749990395736 L 53.45312460802961 197.62109337595757 L 43.82812467205804 197.41406207997352 L 33.898437632014975 197.21093734394526 L 28.468750336032826 197.0039060479612 L 14.4453120000544 196.69921894394793 L 6.351562752039172 196.5937500159489 L 0.0 196.4937860850623" fill="none"/><path stroke="#000000" stroke-width="2" d="M 0.0 196.4937860849459 L 6.351562752097379 196.5937500158907 L 14.445312000112608 196.69921894400613 L 28.468750336091034 197.003906047903 L 33.89843763207318 197.21093734382885 L 43.82812467205804 197.4140620799153 L 53.45312460802961 197.62109337584116 L 71.37499955203384 198.43749990389915 L 74.24218726408435 198.02734387188684 L 77.31249971210491 197.4140620799153 L 83.46093772805762 198.2343751678709 L 94.7265628161258 198.54296883183997 L 113.35937536001438 198.9492183039547 L 128.21093785605626 199.25781299185473 L 132.4062504961039 199.25781299185473 L 182.89062502403976 198.9492183039547 L 196.92187545605702 198.9492183039547 L 210.43749990401557 198.84765593591146 L 217.70312499208376 198.74609356792644 L 232.25000038405415 198.74609356792644 L 236.14062489604112 198.6445311998832 L 245.14843750401633 198.6445311998832 L 252.52343705605017 198.74609356792644 L 256.10156236804323 198.84765593591146 L 261.2265625600121 198.9492183039547 L 266.0390625281143 199.0546872318955 L 272.7968747520936 199.15624959993875 L 275.7656248320709 199.15624959993875 L 278.6328125441214 199.25781299185473 L 289.898437632015 199.25781299185473 L 294.812499968044 199.35937535989797 L 306.5859379200265 199.5664066558238 L 317.24218777607894 199.76953139191028 L 320.21093785605626 199.5664066558238 L 332.4999997441191 199.97656268783612 L 338.6406246400438 204.99218739185017 L 340.99999948812183 206.93749964790186 L 345.9140628480818 210.93359411187703 L 348.98437529604416 213.39062476798426 L 351.23437465605093 215.23046911985148 L 352.87499980803113 216.66406297584763 L 355.5390627840534 218.81640652788337 L 358.0937502720626 220.9648435198469 L 360.4531251200242 222.9140623359708 L 364.5468753920286 226.18749951996142 L 369.05468723207014 229.97656268795254 L 374.5859379200265 234.48437452787766 L 377.2421877760207 236.7343749119318 L 381.1328122880659 239.9101562879514 L 384.4140625920263 242.67578163195867 L 387.68749977607513 245.33984358381713 L 391.68749977607513 248.61328076780774 L 397.42187520011794 253.3242183678667 L 399.97656268801074 255.37499955185922 L 408.2734376960434 262.1328127999441 L 412.57031270401785 265.61328127986053 L 421.1718748160638 272.57812479982385 L 427.0078126080916 277.2851558398106 L 436.9453127680463 285.2734371839324 L 441.0390620160615 288.5507809278206 L 449.1328122880659 295.105468415888 L 455.8906245120452 300.42968780797673 L 469.1015628800378 311.2851558398106 L 478.10937548801303 318.554687487951 L 480.87499980808934 320.9101557758404 L 484.14843699207995 323.57031219196506 L 491.92968704010127 329.92187494400423 L 507.5000002560555 342.7187496959814 L 512.2109378560563 346.61328076798236 L 515.8906245121034 349.48046847997466 L 522.0390625280561 354.49609420791967 L 523.5781253120513 356.1367183359689 L 525.9296870401013 358.08203161595156 L 530.0234373120475 361.3554687999422 L 532.789062656113 363.5078123519197 L 541.7031249920838 371.8007807999966 L 544.0546877441229 373.44140595191857 L 551.3281249281135 378.5585940478486 L 554.1953126400476 380.6093752318411 L 558.4921876480221 384.1914060799754 L 560.5390622720588 385.8320312319556 L 563.101562880096 387.98046924802475 L 571.2968744960381 394.738281472004 L 576.1093754880712 398.7343749118154 L 579.0781245441176 401.08984422381036 L 588.0859371520928 408.4609372158884 L 590.9531248640269 410.9179688959266 L 594.3359375360887 413.5820308479597 L 600.0703129600734 418.29296844784403 L 613.7890621441184 429.5546879998874 L 623.7187502080342 437.6445317118778 L 629.7656248320709 442.66406297590584 L 640.2109378561145 451.26562508789357 L 649.6328120320686 459.1484375039581 L 653.4218752000597 462.42578124796273 L 657.203125248081 465.6015626238077 L 662.9374996480183 470.51562495995313 L 665.5000002560555 472.7695308799739 L 668.1640622080304 475.12500019196887 L 673.38281267212 479.62890649592737 L 675.9453122561099 481.88281241594814 L 679.5312496640254 484.9531248639105 L 682.3984373760759 487.30859417590545 L 684.7500001281151 489.460937727883 L 691.4062499840511 495.5000002558809 L 692.9453127680463 497.03515647992026 L 700.5234370561084 503.48828159982804 L 703.6953128960449 506.1523435518611 L 707.4843750400469 509.4257817599573 L 709.5312496640836 511.16796825587517 L 716.3906252800953 517.4140620799735 L 719.3671874560532 520.0781250559376 L 724.8906250240398 524.9921873919084 L 732.9843752961024 532.1601566718309 L 742.0937502721208 540.4531251198496 L 760.015625216125 556.2226565119927 L 768.5156249600113 563.5976560639101 L 782.7500001280569 575.7812500479631 L 800.156250112108 590.6289059839328 L 803.4375004160102 593.4960936958087 L 817.6640624640277 605.5820308479597 L 820.2265620480757 607.5273441279423 L 823.6093747200212 610.3945308158873 L 828.109375488013 613.9765626879525 L 841.8359377920278 625.6523438079748 L 846.1328128000605 629.3359370238031 L 852.5859379200265 634.6640629759058 L 856.3750000640284 637.9414067199687 L 858.7265628160676 639.7812500479049 L 861.1875000320142 641.7265623040148 L 868.8671877121087 648.4882810878335 L 877.3671874560532 655.5507814398734 L 884.3281254400499 661.4921871359693 L 892.6250004480244 668.4531251199078 L 896.2109378560563 671.5273441278841 L 906.4453120001126 680.1289062399301 L 912.4921876480221 685.1445309438859 L 922.9374996480765 693.85156300792 L 927.2343746561091 697.535156223923 L 930.6171873280546 700.3007815679302 L 935.6328120320104 704.6015621118713 L 939.726562304073 707.9804692479083 L 942.8984371200204 710.6445311999414 L 946.8984371200204 714.0234373118728 L 948.8437504000613 715.5585935359122 L 949.2499998720596 717.9140628479072 L 959.3906247680425 724.4687503359746 L 978.8437504001195 740.851562495809 L 981.3046876160661 742.898437119904 L 983.3515622401028 744.6406246399274 L 992.562499584048 752.3203123198473 L 997.9921879040194 756.9296875519212 L 1002.0859371520346 760.3085936639691 L 1010.8984371200204 767.4765629438916 L 1019.5000002560555 775.0546872318955 L 1022.2656245760736 777.613281279977 L 1024.0 779.0345052566772" fill="none"/><path stroke="#408040" stroke-width="3" d="M 0.0 1003.2133122170344 L 14.929919999995036 985.2518399999972 L 63.22176000000036 939.0080000000016 L 115.02592000000004 888.9343999999983 L 143.89247999999498 836.5977599999969 L 263.1475199999986 753.889280000003 L 351.8463999999949 728.4531199999983 L 391.50591999999597 708.3212799999965 L 481.46431999999913 669.9417600000015 L 652.6668800000043 565.2684799999988 L 696.4428800000023 516.7308800000028 L 821.8419200000062 458.79295999999886 L 961.9046399999934 388.3315199999997 L 999.1577600000019 374.0876799999969 L 1023.9283200000064 320.09216000000015 L 1024.0 319.62212193899904" fill="none"/></svg>