<svg xmlns="http://www.w3.org/2000/svg" width="1024" height="1024"><rect stroke="none" x="0" y="0" width="1024" height="1024" fill="white"/><path stroke="#000000" stroke-width="2" d="M 943.2010116368474 1024.0 L 942.7968747520354 1023.4765629439498 L 939.3203128320165 1021.5312496639672 L 935.4296872960404 1019.2773437439464 L 930.921875456057 1017.1250001919689 L 925.9062497280538 1014.8749998079729 L 922.8281251840526 1013.5429683199618 L 919.0468751360313 1012.1093754879548 L 914.7421870080288 1010.5742182399263 L 911.3671874560532 1009.9570309119299 L 908.0859371520346 1009.2421877759625 L 903.5781253120513 1008.4218746879487 L 899.898437632015 1008.1171875839354 L 894.6718750720611 1007.7070315519231 L 888.6328125440632 1007.6015626239241 L 884.2265620480175 1007.8085939199664 L 879.5156254720641 1008.1171875839354 L 874.8046878720634 1008.9335941119352 L 866.6171873280546 1011.085937663971 L 859.2421877760207 1012.7226562559372 L 851.6640624640277 1013.85156300792 L 847.6718745600665 1013.85156300792 L 840.710937600059 1012.4179691519239 L 833.6406251520384 1009.6523438079748 L 829.343750144064 1007.5000002559391 L 822.2734376960434 1004.8398438399308 L 818.281249792024 1003.609374719963 L 815.2109373440617 1002.5859379199683 L 812.1406248960411 1001.3554687999422 L 807.8359377920278 999.4101565439487 L 804.2500003840541 997.8750003199675 L 800.9765621760162 996.6484377599554 L 797.7031249920256 994.804687871947 L 795.2421877760207 991.9375001599547 L 792.1718753280584 989.2734371839324 L 788.7890616320656 987.4296883199713 L 786.4374999040156 985.8945310719428 L 784.7968747520354 984.0507811839343 L 781.0078126080334 982.1054689279408 L 775.9921879040194 980.0585932799731 L 771.5859374080319 978.3164057599497 L 768.0000000000582 977.0898442239268 L 765.0312499200227 975.5507814399316 L 759.3984378880123 972.0703129599569 L 756.4296878080349 970.023437311931 L 750.6953123840503 965.5156254719477 L 747.2187504640315 961.1132815359742 L 744.5546874880092 956.1992191999452 L 742.6093752320157 951.078124543943 L 741.0703124480206 946.1640622079722 L 740.0468746240367 942.8867184639676 L 739.2265625600121 938.3828121599508 L 738.6171873280546 932.5429688319564 L 738.5156249600113 927.4257817599573 L 738.8203120640246 922.3046871039551 L 739.6406251520384 917.7968752639717 L 741.0703124480206 909.9140628479654 L 742.4062504960457 905.0000005119364 L 744.1406248960411 900.4921876479639 L 745.3749995520338 894.7578122239211 L 746.3984373760177 889.535156223923 L 746.2968750080327 885.746094079921 L 745.6796876800363 882.7773439999437 L 743.1171870720573 879.1953121279366 L 740.6640629760223 876.3281254399335 L 739.1250001920271 874.3828121599508 L 736.7734374400461 871.6171878399327 L 734.3125002240413 868.5429688319564 L 732.1640622080304 865.8828124159481 L 729.9140628480236 862.9140623359708 L 727.8593751040171 861.0703124479624 L 723.6640624640277 858.5078128639725 L 718.4453120000544 855.539062783937 L 714.1406248960411 853.390624767926 L 709.9453122560517 851.6484372479608 L 706.2578124800348 850.1132810239214 L 699.1875000320142 847.1445309439441 L 693.7656248320127 843.9687495679245 L 689.5625000960426 840.8945315839374 L 686.6953123840503 837.92578150396 L 683.1171870720573 835.8789058559341 L 679.6328120320104 833.4218751999433 L 676.6640629760223 830.453125119966 L 673.1796879360336 827.6874997759587 L 669.8046873600106 825.3320314879529 L 667.343750144064 823.9999999999418 L 662.9374996480183 822.0546877439483 L 658.3359375360305 820.7226562559372 L 654.8515624960419 820.5195315199671 L 651.0625003520399 821.0312499199645 L 647.4765629440662 822.1562501119333 L 644.1015623680432 823.7968752639717 L 641.335937024036 825.9453122559353 L 639.4921871360275 827.9921879039612 L 637.648437248019 831.8867189759621 L 636.5234370560502 835.7773434879491 L 636.4218746880651 838.4374999039574 L 636.7265628160094 842.023437311931 L 637.0312499200227 846.0156252159504 L 638.0546877440647 849.4960936959251 L 639.5937495040125 851.9570309119299 L 642.7656253440655 854.5156249599531 L 645.9453122560517 856.4609372159466 L 649.5234375680448 857.9960934399278 L 653.4140620800317 859.0195312639698 L 659.0468751360313 859.5312496639672 L 663.2499998720596 859.7382809599512 L 666.8359372800332 860.0468746239203 L 676.1484369920217 861.3749995519174 L 680.1406248960411 862.3984373759595 L 683.4218752000597 863.3203128319583 L 686.7968747520354 864.449218559952 L 690.281249792024 865.9843747839332 L 692.8437504000613 868.2382817279431 L 694.6875002880115 872.5390622719424 L 694.2734376960434 877.4531246079714 L 692.0234373120475 882.7773439999437 L 688.5390622720588 886.976562175958 L 684.4453120000544 890.2539059199626 L 680.8593745920225 891.6874997759587 L 677.6874997760169 892.3007815679302 L 673.3828126720618 892.7109375999426 L 667.8593751040171 892.7109375999426 L 663.0468751360313 892.5078128639725 L 641.8437498880667 890.664062975964 L 639.2890624000574 890.3554682879476 L 635.9062497280538 891.3789061119314 L 632.3203123200219 893.0195312639698 L 629.554688000062 894.7578122239211 L 627.8203125760192 896.0898437119322 L 624.8515624960419 899.9804692479665 L 622.9062502400484 903.1562495999387 L 620.2421872640261 911.2460933119291 L 618.2968750080327 913.6015626239241 L 615.7343754240428 915.2382812159485 L 611.6406251520384 916.0585932799731 L 608.7734374400461 915.2382812159485 L 601.2968744960381 908.378906623926 L 596.4843745280523 904.1796874239226 L 591.0546872320119 900.6992189439479 L 587.26562508801 897.8320312319556 L 582.3515627520392 895.0664058879483 L 577.9453122560517 894.1445314559387 L 570.5781248000567 893.3242183679249 L 567.195312128053 893.3242183679249 L 562.281249792024 894.0429690879537 L 558.6953123840503 895.2695316479658 L 556.7500001280569 896.1914060799754 L 552.9609379840549 898.9570314239245 L 550.3046871040133 901.0039060479612 L 546.4062504960457 908.171875327942 L 546.6171873280546 914.6250004479662 L 548.9687500800355 920.3593748479616 L 554.1953126400476 925.2734371839324 L 562.281249792024 929.1640627199668 L 573.7499996160623 932.031250431959 L 579.5859374080319 935.1054684159462 L 582.3515627520392 938.8945315839374 L 583.5781253120513 943.5000002559391 L 581.7343754240428 952.4101560319541 L 580.6093752320157 955.4804684799747 L 575.2890624000574 962.1367183359689 L 567.5078123520361 967.9765626879525 L 560.9531248640269 972.277344255941 L 553.3749995520338 974.7343749119318 L 545.898437632015 976.2695311359712 L 540.8828129280591 976.6796871679253 L 532.0703129600151 977.292968959955 L 522.4453120000544 977.292968959955 L 514.460937216063 977.0898442239268 L 512.0000000000582 977.19140659197 L 499.92187494406244 978.5234370559338 L 495.4140620800317 979.85156300792 L 491.82812467205804 982.0039065599558 L 489.88281241606455 984.7695308799739 L 488.5546874880092 988.66015641595 L 487.2265625600121 992.1406248959247 L 486.60937523201574 994.804687871947 L 486.5078128640307 998.5937500159489 L 487.01562470401404 1003.710937087948 L 486.71093760005897 1010.7773439999437 L 485.6874997760169 1016.7187496959232 L 485.78906214406015 1023.9882813439472 L 485.7884166256699 1024.0" fill="none"/><path stroke="#000000" stroke-width="2" d="M 485.7884166256699 1024.0 L 485.78906214406015 1023.9882813439472 L 485.6874997760169 1016.7187496959232 L 486.71093760005897 1010.7773439999437 L 487.01562470401404 1003.710937087948 L 486.5078128640307 998.5937500159489 L 486.60937523201574 994.804687871947 L 487.2265625600121 992.1406248959247 L 488.5546874880092 988.66015641595 L 489.88281241606455 984.7695308799739 L 491.82812467205804 982.0039065599558 L 495.4140620800317 979.85156300792 L 499.92187494406244 978.5234370559338 L 512.0000000000582 977.19140659197 L 514.460937216063 977.0898442239268 L 522.4453120000544 977.292968959955 L 532.0703129600151 977.292968959955 L 540.8828129280591 976.6796871679253 L 545.898437632015 976.2695311359712 L 553.3749995520338 974.7343749119318 L 560.9531248640269 972.277344255941 L 567.5078123520361 967.9765626879525 L 575.2890624000574 962.1367183359689 L 580.6093752320157 955.4804684799747 L 581.7343754240428 952.4101560319541 L 583.5781253120513 943.5000002559391 L 582.3515627520392 938.8945315839374 L 579.5859374080319 935.1054684159462 L 573.7499996160623 932.031250431959 L 562.281249792024 929.1640627199668 L 554.1953126400476 925.2734371839324 L 548.9687500800355 920.3593748479616 L 546.6171873280546 914.6250004479662 L 546.4062504960457 908.171875327942 L 550.3046871040133 901.0039060479612 L 552.9609379840549 898.9570314239245 L 556.7500001280569 896.1914060799754 L 558.6953123840503 895.2695316479658 L 562.281249792024 894.0429690879537 L 567.195312128053 893.3242183679249 L 570.5781248000567 893.3242183679249 L 577.9453122560517 894.1445314559387 L 582.3515627520392 895.0664058879483 L 587.26562508801 897.8320312319556 L 591.0546872320119 900.6992189439479 L 596.4843745280523 904.1796874239226 L 601.2968744960381 908.378906623926 L 608.7734374400461 915.2382812159485 L 611.6406251520384 916.0585932799731 L 615.7343754240428 915.2382812159485 L 618.2968750080327 913.6015626239241 L 620.2421872640261 911.2460933119291 L 622.9062502400484 903.1562495999387 L 624.8515624960419 899.9804692479665 L 627.8203125760192 896.0898437119322 L 629.554688000062 894.7578122239211 L 632.3203123200219 893.0195312639698 L 635.9062497280538 891.3789061119314 L 639.2890624000574 890.3554682879476 L 641.8437498880667 890.664062975964 L 663.0468751360313 892.5078128639725 L 667.8593751040171 892.7109375999426 L 673.3828126720618 892.7109375999426 L 677.6874997760169 892.3007815679302 L 680.8593745920225 891.6874997759587 L 684.4453120000544 890.2539059199626 L 688.5390622720588 886.976562175958 L 692.0234373120475 882.7773439999437 L 694.2734376960434 877.4531246079714 L 694.6875002880115 872.5390622719424 L 692.8437504000613 868.2382817279431 L 690.281249792024 865.9843747839332 L 686.7968747520354 864.449218559952 L 683.4218752000597 863.3203128319583 L 680.1406248960411 862.3984373759595 L 676.1484369920217 861.3749995519174 L 666.8359372800332 860.0468746239203 L 663.2499998720596 859.7382809599512 L 659.0468751360313 859.5312496639672 L 653.4140620800317 859.0195312639698 L 649.5234375680448 857.9960934399278 L 645.9453122560517 856.4609372159466 L 642.7656253440655 854.5156249599531 L 639.5937495040125 851.9570309119299 L 638.0546877440647 849.4960936959251 L 637.0312499200227 846.0156252159504 L 636.7265628160094 842.023437311931 L 636.4218746880651 838.4374999039574 L 636.5234370560502 835.7773434879491 L 637.648437248019 831.8867189759621 L 639.4921871360275 827.9921879039612 L 641.335937024036 825.9453122559353 L 644.1015623680432 823.7968752639717 L 647.4765629440662 822.1562501119333 L 651.0625003520399 821.0312499199645 L 654.8515624960419 820.5195315199671 L 658.3359375360305 820.7226562559372 L 662.9374996480183 822.0546877439483 L 667.343750144064 823.9999999999418 L 669.8046873600106 825.3320314879529 L 673.1796879360336 827.6874997759587 L 676.6640629760223 830.453125119966 L 679.6328120320104 833.4218751999433 L 683.1171870720573 835.8789058559341 L 686.6953123840503 837.92578150396 L 689.5625000960426 840.8945315839374 L 693.7656248320127 843.9687495679245 L 699.1875000320142 847.1445309439441 L 706.2578124800348 850.1132810239214 L 709.9453122560517 851.6484372479608 L 714.1406248960411 853.390624767926 L 718.4453120000544 855.539062783937 L 723.6640624640277 858.5078128639725 L 727.8593751040171 861.0703124479624 L 729.9140628480236 862.9140623359708 L 732.1640622080304 865.8828124159481 L 734.3125002240413 868.5429688319564 L 736.7734374400461 871.6171878399327 L 739.1250001920271 874.3828121599508 L 740.6640629760223 876.3281254399335 L 743.1171870720573 879.1953121279366 L 745.6796876800363 882.7773439999437 L 746.2968750080327 885.746094079921 L 746.3984373760177 889.535156223923 L 745.3749995520338 894.7578122239211 L 744.1406248960411 900.4921876479639 L 742.4062504960457 905.0000005119364 L 741.0703124480206 909.9140628479654 L 739.6406251520384 917.7968752639717 L 738.8203120640246 922.3046871039551 L 738.5156249600113 927.4257817599573 L 738.6171873280546 932.5429688319564 L 739.2265625600121 938.3828121599508 L 740.0468746240367 942.8867184639676 L 741.0703124480206 946.1640622079722 L 742.6093752320157 951.078124543943 L 744.5546874880092 956.1992191999452 L 747.2187504640315 961.1132815359742 L 750.6953123840503 965.5156254719477 L 756.4296878080349 970.023437311931 L 759.3984378880123 972.0703129599569 L 765.0312499200227 975.5507814399316 L 768.0000000000582 977.0898442239268 L 771.5859374080319 978.3164057599497 L 775.9921879040194 980.0585932799731 L 781.0078126080334 982.1054689279408 L 784.7968747520354 984.0507811839343 L 786.4374999040156 985.8945310719428 L 788.7890616320656 987.4296883199713 L 792.1718753280584 989.2734371839324 L 795.2421877760207 991.9375001599547 L 797.7031249920256 994.804687871947 L 800.9765621760162 996.6484377599554 L 804.2500003840541 997.8750003199675 L 807.8359377920278 999.4101565439487 L 812.1406248960411 1001.3554687999422 L 815.2109373440617 1002.5859379199683 L 818.281249792024 1003.609374719963 L 822.2734376960434 1004.8398438399308 L 829.343750144064 1007.5000002559391 L 833.6406251520384 1009.6523438079748 L 840.710937600059 1012.4179691519239 L 847.6718745600665 1013.85156300792 L 851.6640624640277 1013.85156300792 L 859.2421877760207 1012.7226562559372 L 866.6171873280546 1011.085937663971 L 874.8046878720634 1008.9335941119352 L 879.5156254720641 1008.1171875839354 L 884.2265620480175 1007.8085939199664 L 888.6328125440632 1007.6015626239241 L 894.6718750720611 1007.7070315519231 L 899.898437632015 1008.1171875839354 L 903.5781253120513 1008.4218746879487 L 908.0859371520346 1009.2421877759625 L 911.3671874560532 1009.9570309119299 L 914.7421870080288 1010.5742182399263 L 919.0468751360313 1012.1093754879548 L 922.8281251840526 1013.5429683199618 L 925.9062497280538 1014.8749998079729 L 930.921875456057 1017.1250001919689 L 935.4296872960404 1019.2773437439464 L 939.3203128320165 1021.5312496639672 L 942.7968747520354 1023.4765629439498 L 943.2010116368474 1024.0" fill="none"/></svg>