<svg xmlns="http://www.w3.org/2000/svg" width="1024" height="1024"><rect stroke="none" x="0" y="0" width="1024" height="1024" fill="white"/><path stroke="#000000" stroke-width="2" d="M 515.6084504345345 0.0 L 516.4066816000268 0.4672573439311236 L 518.7618816000177 0.7744573439704254 L 520.9122816000599 3.0272573439287953 L 520.9035878400318 3.0504407039261423 L 520.9122816000599 3.059548159944825 L 519.376281600038 7.155548159964383 L 517.1234816000215 8.486748159921262 L 516.106157056056 10.928327679925133 L 517.7378816000419 14.905657343973871 L 517.7304657920613 14.919871487945784 L 517.7378816000419 14.937948159931693 L 516.5150433280505 17.281722367973998 L 517.1234816000215 19.41125734394882 L 517.0210816000472 22.20834815996932 L 514.8706816000631 26.406748159963172 L 513.4370816000155 30.91234815993812 L 512.8226816000533 35.213148159964476 L 511.49148160003824 37.465948159922846 L 509.03388160001487 37.977948159968946 L 506.3714816000429 37.056348159967456 L 504.3234816000331 34.59874815994408 L 503.19708160002483 31.62914815993281 L 500.84430643205997 33.1635671039694 L 501.14908160001505 37.024057343951426 L 501.76348160003545 39.89125734393019 L 501.662171136064 42.45629849593388 L 502.48028160003014 46.24005734396633 L 503.9138816000195 49.31205734395189 L 507.1906816000119 52.38405734393746 L 512.1058816000586 56.480057343957014 L 511.38908160006395 59.27714815991931 L 509.54918400006136 62.548077567946166 L 510.05788160004886 66.6176573439734 L 513.0274816000601 69.17765734397108 L 516.8162816000404 70.20165734394686 L 519.4786816000124 73.17125734395813 L 522.6530816000304 74.70725734392181 L 525.2130816000281 76.55045734392479 L 527.7730816000258 78.59845734393457 L 528.4898816000205 81.77285734395264 L 528.4898816000205 81.80514815996867 L 524.9220689920476 85.6787732479279 L 527.1586816000636 87.71205734397518 L 531.6642816000385 88.22405734396307 L 531.4609274880495 91.8150461439509 L 532.0738816000521 94.7776573439478 L 533.3026816000347 97.33765734394547 L 533.0978816000279 100.03234815993346 L 531.9802849280532 103.48673638392938 L 534.6338816000498 105.01765734393848 L 536.9890816000407 105.73445734393317 L 538.7298816000111 106.96325734397396 L 541.1854837760329 107.78179174393881 L 540.9826816000277 104.43554815993411 L 540.9826816000277 104.40325734391809 L 541.8018816000549 101.74085734394612 L 544.4642816000269 101.33125734393252 L 547.8434816000517 103.5840573439491 L 547.2290816000313 107.20034815993859 L 544.7782205440453 109.44697036792058 L 545.5906816000352 112.5952573439572 L 545.5906816000352 112.62754815997323 L 541.8018816000549 112.21794815995963 L 539.2418816000572 113.24194815993542 L 535.8626816000324 115.494748159952 L 534.429081600043 118.87394815991865 L 533.718431744026 121.81806694396073 L 536.5794816000271 124.98565734393196 L 538.7298816000111 125.80485734395916 L 541.6994816000224 126.31685734394705 L 544.9762816000148 125.29285734397126 L 546.4098816000624 122.1184573439532 L 549.0722816000343 122.93765734392218 L 551.2226816000184 125.90725734393345 L 552.656281600066 127.85285734396894 L 555.2162816000637 129.08165734395152 L 557.6738816000288 129.08165734395152 L 559.7218816000386 129.28645734395832 L 560.8482816000469 131.4368573439424 L 561.5650816000416 135.32805734395515 L 561.5608064000262 135.33714124793187 L 561.5650816000416 135.36034815997118 L 559.9274301440455 138.84035686391871 L 560.0290816000197 143.0403481599642 L 557.0594816000666 148.36514815996634 L 556.0401387520251 152.03478220792022 L 557.2642816000152 156.11525734397583 L 557.2642816000152 156.14754815993365 L 553.8228971520439 157.36215449596057 L 557.8786816000356 159.1872573439614 L 561.4626816000673 157.8560573439463 L 563.8178816000582 154.47685734392144 L 566.5826816000626 153.55525734391995 L 569.6546816000482 152.94085734395776 L 571.0882816000376 154.98885734396754 L 571.0827417600667 155.0132336639217 L 571.0882816000376 155.02114815992536 L 570.5810380800394 157.2530196479638 L 572.4194816000527 161.64485734392656 L 575.5938816000125 163.48805734392954 L 579.4850816000253 160.72325734392507 L 583.5810816000449 161.84965734393336 L 586.4482816000236 162.56645734392805 L 588.7010816000402 164.51205734396353 L 591.4658816000447 168.096057343937 L 592.899481600034 170.55365734396037 L 592.6946816000273 173.86274815996876 L 590.1346816000296 175.80834815994604 L 586.4482816000236 175.39874815993244 L 584.0204881920363 176.20801228797063 L 586.4482816000236 178.02885734394658 L 590.2370816000621 180.48645734396996 L 591.3634816000122 183.76325734396232 L 591.3634816000122 183.79554815992014 L 588.7010816000402 184.61474815994734 L 586.0599367680261 185.3258260479197 L 588.0866816000198 187.85925734392367 L 591.8754816000583 186.7328573439736 L 594.742681600037 185.7088573439396 L 595.4594816000317 188.67845734395087 L 595.4536560640554 188.68661350395996 L 595.4594816000317 188.7107481599669 L 593.411481600022 191.57794815994566 L 590.0322816000553 194.03554815996904 L 587.9937157120439 194.34133299195673 L 589.1106816000538 197.99685734394006 L 590.4418816000107 199.73765734396875 L 591.1586816000636 202.40005734394072 L 591.1586816000636 202.43234815995675 L 588.905881600047 202.84194815997034 L 586.2547886080574 203.45373900793493 L 587.062681600044 205.57445734395878 L 587.9842816000455 207.82725734397536 L 589.5202816000674 210.38725734397303 L 593.5138816000544 211.20645734394202 L 593.4824263680493 211.23229593597353 L 593.5138816000544 211.23874815995805 L 590.6466816000175 213.59394815994892 L 588.3938816000591 215.1299481599708 L 586.4673515520408 217.46206310397247 L 589.4178816000349 218.88645734393504 L 591.568281600019 220.42245734395692 L 591.551842304063 220.44300595193636 L 591.568281600019 220.45474815997295 L 589.9298816000228 222.50274815992452 L 587.3698816000251 222.40034815995023 L 585.0146816000342 220.76194815995404 L 582.7723284480162 220.9657989119296 L 583.5810816000449 223.3920573439682 L 586.2434816000168 225.44005734391976 L 589.8274816000485 226.66885734396055 L 593.9234816000098 226.36165734392125 L 598.5314816000173 226.25925734394696 L 597.8146816000226 229.87554815993644 L 595.3570816000574 232.53794815996662 L 592.0802816000651 232.43554815993411 L 588.2914816000266 232.947548159922 L 583.7858816000517 233.3571481599356 L 582.0605009920546 235.58999347192002 L 584.6050816000206 237.62565734394593 L 589.9298816000228 237.21605734393233 L 592.6946816000273 237.31845734396484 L 595.5618816000642 238.24005734396633 L 597.0978816000279 240.5952573439572 L 597.0901166080148 240.6156410879339 L 597.0978816000279 240.62754815997323 L 596.2786816000589 242.7779481599573 L 596.2786816000589 244.99845734395785 L 598.7362816000241 242.95045734394807 L 600.0674816000392 241.2096573439194 L 602.115481600049 242.33605734392768 L 601.5010816000286 245.84994815994287 L 600.272281600046 248.40994815994054 L 600.1715404800489 250.32403148792218 L 603.2418816000572 251.75685734394938 L 603.2071956480504 251.772961791954 L 603.2418816000572 251.7891481599654 L 600.3746816000203 253.1203481599223 L 597.8146816000226 252.6083481599344 L 595.5618816000642 253.8371481599752 L 594.3438141440274 256.4762951679295 L 596.2786816000589 258.1056573439273 L 599.5554816000513 257.4912573439651 L 602.9346816000179 256.7744573439704 L 605.6994816000224 256.5696573439636 L 608.5666816000594 257.0816573439515 L 609.2834816000541 259.0272573439288 L 609.1810816000216 261.6195481599425 L 607.7499996160623 264.9999994879472 L 605.1875000320142 266.53515673597576 L 601.0000005120528 268.3750000639702 L 601.327106048062 269.46374041592935 L 602.3202816000558 272.74885734391864 L 602.3202816000558 272.7811481599347 L 600.0674816000392 274.31714815995656 L 596.289062912052 274.0117186559364 L 596.5702819840517 275.5328563199728 L 596.8930816000211 277.2544573439518 L 596.8908677120344 277.27493939193664 L 596.8930816000211 277.28674815996783 L 596.4865187840187 281.04745164792985 L 598.6338816000498 284.0128573439433 L 598.6245273600216 284.0149698559544 L 598.631589888013 284.0419839999522 L 598.6338816000498 284.04514815995935 L 598.6324613120523 284.04546867194586 L 598.6328125440632 284.0468746239203 L 595.4609377280576 284.76171878393507 L 593.5256576000247 286.3904317439301 L 594.5390622720588 288.31250022392487 L 596.4843745280523 289.5429683199618 L 598.7362816000241 291.89765734394314 L 598.7325880320277 291.9082762239268 L 598.7343749120482 291.9101562879514 L 598.7298580480274 291.9232327679638 L 598.7362816000241 291.92994815995917 L 597.9170816000551 294.28514815995004 L 594.5378816000302 294.48994815995684 L 592.4917729280423 295.4106972159352 L 591.1586816000636 297.1523481599288 L 588.7031255040201 298.48437452793587 L 588.6015621120459 302.3750000639702 L 586.8749998080311 305.4179686399293 L 589.4178816000349 306.3360573439277 L 592.7970816000598 307.1552573439549 L 594.6406246400438 310.3281254399335 L 597.2031252480228 311.66015590395546 L 600.0703129600151 311.7617182719405 L 602.4218746880651 314.6289059839328 L 603.343750144064 312.58203135995427 L 604.0624998400453 310.7382814719458 L 606.109081600036 313.299257343926 L 607.8515630080365 316.3710935039562 L 607.9848284160253 317.1809392639552 L 608.3618816000526 319.44325734395534 L 608.3599042560672 319.4636861439212 L 608.3618816000526 319.47554815997137 L 608.0576174080488 322.6196142079425 L 610.8203120640246 324.4609372159466 L 612.96988160006 327.22565734392265 L 613.3828126720618 329.70312499196734 L 613.3790412800154 329.71290931192925 L 613.3794816000154 329.71554815996205 L 612.3554816000396 332.377948159934 L 610.8203120640246 336.16796876792796 L 610.109375488013 340.03125043195905 L 612.2530816000653 342.7904573439737 L 614.6082816000562 344.32645734393736 L 616.7586816000403 345.65765734395245 L 616.7578122240375 345.6914063359727 L 616.5546874880674 348.25000038393773 L 613.9140628480236 350.2812497919658 L 616.9634816000471 352.51845734391827 L 620.2421872640261 354.56640614394564 L 620.4413808640675 355.6389857279719 L 620.8546816000598 357.8432573439204 L 620.8546816000598 357.87554815993644 L 617.4765629440662 360.2304686079733 L 614.9154816000373 362.1763481599628 L 612.562499584048 364.12109414394945 L 610.0002816000488 365.45314815995516 L 606.109375488013 366.3750000639702 L 603.8593751040171 366.3750000639702 L 602.0390625280561 367.6914063359727 L 605.0859376640292 369.92578150396 L 608.5666816000594 370.3360573439277 L 611.0242816000246 371.25765734392917 L 611.0161643520114 371.2869038079516 L 611.0242816000246 371.2899481599452 L 610.1026816000231 373.64514815993607 L 607.0312499200227 376.9218754559406 L 603.1406254080357 376.20703129592584 L 600.5784135680296 371.69972633593716 L 597.5074816000415 372.2115481599467 L 595.562419200025 374.25898188794963 L 595.3593753600144 377.20703078393126 L 595.8690816000453 380.47365734394407 L 598.3266816000105 382.52165734395385 L 600.8866816000664 384.3648573439568 L 601.5010816000286 387.9488573439303 L 602.9374996480183 391.22656358394306 L 605.8046873600106 392.14843699196354 L 607.7499996160623 395.52734412794234 L 610.6171873280546 398.80468787194695 L 613.8906245120452 401.0546872319537 L 616.8610816000146 403.4112573439488 L 618.8066816000501 405.3568573439261 L 621.3671874560532 408.12109414394945 L 623.312281600025 411.19365734397434 L 625.0530816000537 414.1632573439274 L 625.0415800320334 414.1705758719472 L 625.0468751360313 414.1796874239226 L 625.0446284800419 414.1811271679471 L 625.0530816000537 414.1955481599434 L 627.2034816000378 415.6291481599328 L 629.149081600015 417.0627481599222 L 633.0402816000278 419.72514815995237 L 637.0338816000149 420.85154815996066 L 641.2322816000669 418.1891481599305 L 645.4306816000608 419.4179481599713 L 645.1234816000215 423.20674815995153 L 647.5810816000449 425.7667481599492 L 650.5506816000561 425.8691481599235 L 651.3698816000251 428.63394815992797 L 649.4242816000478 430.37474815995665 L 648.1954816000652 432.3203481599339 L 651.3698816000251 433.2419481599354 L 654.0322816000553 430.78434815997025 L 655.3634816000122 428.3267481599469 L 657.2066816000151 427.7123481599265 L 659.3570816000574 428.94114815996727 L 661.6098816000158 430.78434815997025 L 660.3810816000332 433.3443481599679 L 657.3090816000476 435.8019481599331 L 658.9474816000438 438.05474815994967 L 661.0978816000279 439.28354815993225 L 664.4770816000528 440.00034815992694 L 668.5730816000141 441.53634815994883 L 672.7714816000662 443.2771481599193 L 676.8674816000275 445.1203481599223 L 680.656281600066 446.4515481599374 L 682.8066816000501 446.96354815992527 L 686.493081600056 448.70434815995395 L 691.2034816000378 450.34274815995013 L 694.5826816000626 450.95714815997053 L 699.3954816000187 450.6499481599312 L 703.7986816000193 449.83074815996224 L 706.9730816000374 449.52354815992294 L 709.3282816000283 449.42114815994864 L 711.7858816000517 448.90914815996075 L 714.03868160001 448.19234815996606 L 718.2370816000621 447.57794815994566 L 721.3090816000476 450.44514815992443 L 719.3634816000122 455.3603481599712 L 721.6162816000287 457.20354815997416 L 724.9954816000536 455.3603481599712 L 725.6098816000158 452.697948159941 L 724.7906816000468 450.854748159938 L 724.0738816000521 448.60194815992145 L 726.5314816000173 448.39714815997286 L 728.4770816000528 452.0835481599206 L 728.3746816000203 455.6675481599523 L 727.5554816000513 458.73954815993784 L 731.0370816000504 458.94434815994464 L 732.7778816000209 456.79394815996056 L 733.6994816000224 454.2339481599629 L 736.3094466560287 454.4272793599521 L 735.9242240000167 454.18086399993626 L 736.5150720000383 453.7169919999433 L 736.6748160000425 453.7876479999395 L 736.9141616640263 453.94151321594836 L 737.4776320000528 454.30374399997527 L 738.2251520000282 454.98470399994403 L 739.1948800000246 456.4869119999348 L 739.5543040000484 457.80070399993565 L 739.5819520000368 458.644479999959 L 739.497984000016 459.0202879999415 L 739.2768000000506 459.4421759999241 L 738.8057600000175 459.8405119999661 L 738.8610560000525 460.02892799995607 L 738.7494400000433 460.12211199995363 L 738.5559040000662 460.07603199995356 L 738.3824271360645 460.21855129592586 L 737.3858816000284 461.401948159968 L 738.0002816000488 463.5523481599521 L 740.0629135360359 464.36654489592183 L 741.9893760000123 464.534527999931 L 742.2935040000593 464.722943999921 L 742.7092480000574 465.4970879999455 L 743.2345600000117 466.27123199997004 L 743.2611840000609 468.92236799997045 L 742.7901440000278 471.36255999992136 L 742.567936000065 471.8786559999571 L 742.0966891520657 472.5766051839455 L 742.1986816000426 475.84034815995255 L 742.3286517760134 475.97994495992316 L 743.0922240000218 476.1958399999421 L 743.5632640000549 476.59417599992594 L 744.740500480053 478.5704499199637 L 744.9634816000471 478.8099481599638 L 746.3970816000365 480.8579481599736 L 748.8211046400247 481.91845785593614 L 749.182976000011 482.03980799997225 L 750.15168000001 482.5333759999485 L 751.2416890880559 483.1407769599464 L 752.1314816000522 483.62274815991987 L 754.8962816000567 485.67074815992964 L 756.0268830720452 486.31680614396464 L 759.5653120000497 488.16844799992396 L 760.9774080000352 489.03577599994605 L 761.6313948160387 489.5909591039526 L 764.8290816000663 492.2243481599726 L 766.2866432000301 492.8380579839577 L 766.8183040000149 493.00377599993953 L 767.1461150720133 493.04354815994157 L 768.8226816000533 493.04354815994157 L 771.8946816000389 490.790748159925 L 772.3498168320511 490.93799731193576 L 772.3325440000626 490.8206079999218 L 772.0826880000532 490.5164799999329 L 771.5563520000433 490.2819839999429 L 771.3628160000662 490.09459199995035 L 771.4734080000198 489.8590719999629 L 771.8328320000437 489.6481279999716 L 772.5527040000306 489.67167999997037 L 773.3565440000384 489.88159999996424 L 774.4368640000466 490.4447999999393 L 774.9908480000449 490.91379199991934 L 774.9908480000449 491.0079999999725 L 775.3226240000222 491.5466239999514 L 775.6089374720468 492.12295884796185 L 778.03868160001 494.27234815992415 L 779.9842816000455 493.86274815996876 L 781.1840020480449 492.75531366397627 L 781.1952640000382 492.50713599997107 L 781.30585600005 492.34227199992165 L 781.6929280000622 492.29516799992416 L 783.2995840000222 492.55321599997114 L 784.3246080000536 492.83379199996125 L 785.1550720000523 493.42054399993503 L 786.2640640000463 495.10911999992095 L 786.7627520000678 496.18841599993175 L 786.9849600000307 497.05676799995126 L 787.2348160000402 497.92409599997336 L 787.2624640000286 498.51084799994715 L 787.1242240000283 499.1682559999754 L 786.4330240000272 500.3407359999255 L 785.6578560000635 500.71654399996623 L 784.7987200000207 500.8107519999612 L 783.7470720000565 500.62335999996867 L 783.248384000035 500.62335999996867 L 783.1132487680297 500.6479953919188 L 780.905881600047 501.9523481599754 L 780.4201605120325 504.0895231999457 L 780.4229171200423 504.26321919995826 L 781.4178816000349 506.2531481599435 L 783.5982161920401 507.82298931194237 L 783.9723520000116 508.06169599993154 L 785.0516480000224 509.5393279999262 L 785.2738560000435 510.12607999995816 L 785.2742082560435 510.7070740479394 L 785.5138816000544 512.704348159954 L 788.1213245440158 515.3117911039735 L 793.0019840000314 519.1116799999727 L 794.7745280000381 520.6599679999636 L 796.059475968068 521.9366911999532 L 796.265881600033 522.1251481599757 L 798.3138816000428 524.9923481599544 L 800.3481548800482 527.3656668159529 L 801.2706713600201 528.2256199679687 L 805.3794816000154 531.238748159958 L 812.7522816000273 537.6899481599685 L 813.9211642880109 538.9963468799251 L 814.5162240000209 539.5896319999592 L 816.7864320000517 541.6550399999251 L 818.4399114240659 543.0952396799694 L 819.2034816000378 543.7315481599653 L 821.2514816000476 545.0627481599222 L 826.1666816000361 547.3155481599388 L 829.4052915200591 547.2466411519563 L 830.0441600000486 547.143679999921 L 830.9852160000592 547.0730239999248 L 832.0368640000233 547.4713599999668 L 833.0608640000573 548.5045759999193 L 833.2820480000228 548.9029119999614 L 833.2820480000228 549.6309759999276 L 833.0885120000457 550.1706239999621 L 832.4792320000124 551.1557119999197 L 832.2856960000354 551.2970239999704 L 832.2304000000586 551.5079679999617 L 830.9022720000357 552.4695039999206 L 829.296640000015 553.3378559999401 L 829.0141132800491 553.4080522239674 L 826.678681600024 554.3811481599696 L 828.2146816000459 557.0435481599416 L 828.2108190720319 557.068653567927 L 828.2449920000508 557.09183999995 L 828.6883840000373 557.51475199993 L 828.6607360000489 558.5469439999433 L 828.3842560000485 559.2043519999715 L 827.7473280000268 560.1423359999317 L 826.916864000028 560.3543039999204 L 826.0044800000614 560.3778559999191 L 825.2525721600396 560.0986419199617 L 825.1426816000603 560.1155481599271 L 822.7874816000112 559.3987481599324 L 822.0706816000165 562.0611481599626 L 822.0262010880397 562.1896478719427 L 822.0467200000421 562.3726079999469 L 822.130688000063 562.5364479999407 L 822.2412800000166 563.7324799999478 L 822.32422400004 563.8021119999466 L 822.2689280000632 564.5772799999686 L 821.9371520000277 565.0462719999487 L 821.5767040000646 565.2336639999412 L 820.7472640000633 565.3278719999362 L 820.2209280000534 565.1640319999424 L 819.6126720000175 564.7882239999599 L 819.2798720000428 564.3888639999204 L 818.255872000067 563.3812479999615 L 817.5253340160125 562.9167503359495 L 814.8002816000371 561.651548159949 L 813.469081600022 565.7475481599686 L 816.8714741760632 566.5036349439761 L 816.95641600003 566.501375999942 L 817.4540800000541 566.5484799999394 L 818.173952000041 566.735871999932 L 819.169280000031 567.2990719999652 L 820.0826880000532 568.2606079999241 L 820.3315200000652 569.1760639999411 L 820.386816000042 570.5134079999407 L 820.1656320000184 571.8507519999403 L 819.7232640000293 572.6248959999648 L 819.3085440000286 573.024255999946 L 818.7545600000303 573.3765119999298 L 816.6941276160651 574.217485311965 L 815.0050816000439 575.3731481599389 L 811.9330816000584 576.704348159954 L 812.09690624004 578.3425884159515 L 812.1149440000299 578.3746559999418 L 812.1151078400435 578.5246074879542 L 812.1378816000652 578.7523481599637 L 813.0594816000666 581.8243481599493 L 813.8077829120448 584.0692531199311 L 813.8598400000483 584.0988159999251 L 813.9473848320195 584.4708833279437 L 814.073333760025 584.8172421119525 L 814.5244160000584 585.9061759999604 L 814.6446776320226 586.3884380159434 L 814.6978816000628 586.534748159931 L 814.6943549440475 586.5876479999279 L 814.8285440000473 587.1257599999662 L 814.7732480000122 588.6515199999558 L 814.5194577920483 589.2111124479561 L 814.493081600056 589.6067481599748 L 815.9600056320196 592.1494159359718 L 817.0520309760468 593.2511795199243 L 818.5890816000174 594.7267481599702 L 820.3441868800437 596.9660200959188 L 820.9438720000326 597.6842239999678 L 821.7757634560112 598.780870655959 L 824.3234816000331 601.8947481599753 L 825.9465369600221 603.3407436799607 L 829.5454720000271 606.4588799999328 L 830.3749120000284 607.3497599999537 L 831.509504000016 608.9687039999408 L 831.6099450880429 609.140619263926 L 833.8466816000291 612.5443481599214 L 836.4066816000268 615.2067481599515 L 836.7051356160664 615.4927667199518 L 839.0041600000113 617.6737279999652 L 840.4418560000486 619.2691199999535 L 840.6702233600663 619.5484835839598 L 840.9122816000599 619.814748159959 L 841.037578240037 619.9978731519659 L 841.3818880000617 620.4190719999606 L 842.2121236480307 621.714516991924 L 842.2434816000168 621.7603481599363 L 842.3065047040582 621.9224084479501 L 842.764288000064 623.0476799999597 L 842.8472320000292 623.0937599999597 L 842.8748800000176 623.3528319999459 L 842.9854720000294 623.4224639999447 L 843.0684160000528 624.4556799999555 L 843.151360000018 624.5017599999555 L 843.0407680000644 626.2855679999338 L 842.8597452800605 627.2228628479643 L 842.8578816000372 627.2899481599452 L 842.8260218880605 627.3974732799688 L 842.764288000064 627.7171199999284 L 842.2113280000631 629.5941119999625 L 842.0849756160169 629.8985072639189 L 842.03868160001 630.0547481599497 L 841.9725107200211 630.1694443519227 L 841.8508800000418 630.4624639999238 L 841.1873280000291 631.7752319999272 L 840.1643520000507 633.2528639999218 L 840.0157767680357 633.4475059199613 L 838.8642816000502 635.174748159945 L 841.5012382720597 636.6397235199693 L 841.989120000042 636.843007999938 L 842.314376192051 637.0914672639337 L 842.5506816000561 637.2227481599548 L 842.7279114240664 637.4073620479321 L 843.0950400000438 637.6878079999587 L 844.7252480000607 639.3241599999601 L 845.0426880000159 639.8044159999699 L 845.0731141120195 639.8648688639514 L 846.5442816000432 641.7283481599297 L 848.592281600053 643.3667481599259 L 849.2804188160226 643.766311935964 L 850.7781120000291 644.5178879999439 L 851.2481280000648 644.6346239999402 L 851.579904000042 644.8455679999315 L 852.2158080000663 645.5265279999585 L 852.2434560000547 645.7845759999473 L 852.4093440000433 645.9719679999398 L 852.575232000032 646.5126399999717 L 852.6581760000554 647.4977279999293 L 852.3264000000199 648.6231039999402 L 851.1918080000323 650.3823359999224 L 850.8876800000435 650.6874879999668 L 850.611200000043 650.7345919999643 L 850.1411840000656 651.0161919999518 L 849.2904581120238 651.2778352639289 L 847.2610816000379 652.1731481599272 L 848.899481600034 652.9923481599544 L 851.4227701760246 653.2026224639267 L 851.8830080000334 653.0580479999189 L 851.9936000000453 652.9167359999265 L 852.6295040000114 652.8471039999276 L 853.1548160000239 652.8471039999276 L 853.5132160000503 653.0580479999189 L 853.8449920000276 653.4574079999584 L 853.872640000016 654.0666879999335 L 853.7620480000624 654.4895999999717 L 853.17451161606 655.506909183925 L 853.4050816000672 656.3715481599211 L 855.77595699206 657.7545584639302 L 856.0281600000453 657.8216959999409 L 858.2113280000631 658.8549119999516 L 859.151360000018 659.4887679999229 L 859.5384320000303 660.3335679999436 L 859.7043200000189 661.0841599999694 L 859.7585920000565 662.023167999927 L 859.4625034240307 662.9022955519613 L 859.6514816000126 665.0755481599481 L 862.9282816000632 665.2803481599549 L 863.518613504013 664.9556654079352 L 864.3194880000665 663.854079999961 L 864.5959680000669 663.6431359999697 L 864.983040000021 663.5960319999722 L 865.3967360000242 663.9011839999584 L 865.5349760000245 664.8391679999186 L 865.7008640000131 665.144319999963 L 865.7551360000507 668.5931519999285 L 865.8380800000159 669.1563519999618 L 865.6158720000531 672.065535999951 L 865.3383680000552 672.6993919999222 L 865.2010526720551 672.823038975941 L 865.0786816000473 673.5747481599683 L 867.5362816000124 673.6771481599426 L 868.045355008042 672.9366773759248 L 868.1031680000597 672.7475199999753 L 868.7943680000608 671.7849599999608 L 870.0108800000162 670.7763199999463 L 870.6191360000521 670.3779839999625 L 871.3932800000184 670.1434879999724 L 871.70226688002 670.1219809279428 L 873.2706816000282 669.581148159923 L 872.5336883200216 668.3081594879623 L 872.3886080000666 668.2193919999409 L 872.1950720000314 667.9613439999521 L 872.0302080000401 667.5159039999708 L 872.0025600000517 667.0458879999351 L 872.6108160000294 665.849855999928 L 872.9149440000183 665.4740479999455 L 873.329664000019 665.3337599999504 L 873.3756221440271 665.3026887679589 L 875.7282816000516 663.2323481599451 L 876.935518208018 663.6096092159278 L 877.4492160000373 663.6226559999632 L 878.6380800000625 663.9278079999494 L 879.3006080000196 664.3967999999295 L 879.7153280000202 664.9139199999627 L 880.3502080000471 666.369023999956 L 880.525949952018 666.892519423971 L 880.5410816000658 666.9187481599511 L 881.5650816000416 669.581148159923 L 883.4223923200625 670.7630725119379 L 884.2997760000289 671.2043519999715 L 884.3921029120102 671.2818278399645 L 888.2210816000588 673.0627481599222 L 888.808896512026 673.4425139199593 L 892.4194816000527 675.8202388479258 L 891.2060405760421 679.720584191964 L 890.2797834240482 680.9755054079578 L 887.6599705600529 682.9788917759433 L 887.3881600000313 683.4288639999577 L 887.1466352640418 683.6542873599683 L 887.095622656052 683.7336401919601 L 886.7246080000186 684.8133119999547 L 886.4204800000298 685.4000639999285 L 885.9504640000523 685.9868159999605 L 885.4804480000166 686.3851519999444 L 885.255141376052 686.4838492159615 L 883.8178816000582 688.3203481599339 L 886.2754816000233 691.2899481599452 L 887.4077112320228 690.6905323519604 L 888.2145280000404 689.3660159999272 L 888.7951360000297 688.8970239999471 L 889.3470720000332 688.8744959999458 L 889.8447360000573 689.0383359999396 L 890.3147520000348 689.4376959999208 L 890.5902080000378 689.8135039999615 L 890.728448000038 690.4463359999354 L 890.6424320000224 693.122047999932 L 890.5675591680338 693.6004454399226 L 890.5762816000497 693.6451481599361 L 889.9618816000293 697.2291481599677 L 891.0143703040667 700.6121471999213 L 891.0243840000476 700.6300159999519 L 891.4104320000624 701.6857599999639 L 891.4380800000508 702.0615679999464 L 891.521024000016 702.1783039999427 L 891.5200000000186 703.8443519999273 L 891.409408000065 704.8540159999393 L 890.8830720000551 705.5810559999663 L 890.3577600000426 706.0029439999489 L 889.8662461440545 706.2335836159182 L 888.7330816000467 707.3667481599259 L 892.4194816000527 708.9027481599478 L 894.0461434880272 707.9877509119688 L 894.19776000001 707.7406719999271 L 895.1101440000348 707.037183999957 L 895.6876800000318 706.9675519999582 L 896.1710080000339 707.0259199999273 L 896.5160960000358 707.0382079999545 L 897.6476160000311 708.046847999969 L 898.3664640000206 708.7503359999391 L 898.8088320000679 709.4773759999662 L 899.6392960000667 711.8704639999196 L 899.6392960000667 712.6917119999416 L 899.4641008640174 713.2290201599244 L 899.4850816000253 713.3059481599485 L 899.2802816000185 715.9683481599204 L 899.2275087360176 716.1794406399713 L 899.1447040000348 716.9146879999316 L 898.6545541120577 718.4712591359275 L 898.358681600017 719.6547481599264 L 898.2562816000427 722.4195481599309 L 900.2019645440159 724.2628853759379 L 900.2270720000379 724.2823679999565 L 901.167104000051 725.6422399999574 L 901.4023792640655 726.2635775999515 L 901.4306816000608 726.3107481599436 L 901.4487080960535 726.3983052799595 L 902.2187520000152 728.692735999939 L 902.3569920000155 729.5375359999598 L 902.0815360000124 730.6639359999681 L 901.833728000056 731.1564799999469 L 900.9233920000261 732.3770879999502 L 900.6469120000256 732.6586879999377 L 900.0673280000337 733.0815999999759 L 898.6040320000611 733.5751679999521 L 898.56168857601 733.5817082879366 L 895.2866816000314 734.605148159957 L 894.672661504068 736.9603225599276 L 897.539481600048 739.4179481599713 L 897.5491624960559 739.4905579519691 L 898.1657600000617 740.0744959999574 L 898.3592960000387 740.4728319999413 L 898.4698880000506 741.7630719999433 L 898.3316480000503 742.1624319999246 L 897.642496000044 742.9601279999479 L 897.0618880000548 743.1014399999403 L 896.1699840000365 743.0543359999429 L 895.2504320000298 742.7962879999541 L 894.8653670400381 742.566221823974 L 892.9314816000406 741.8755481599364 L 890.2690816000104 743.4115481599583 L 889.1426816000603 745.4595481599681 L 889.0687436800217 745.6222126079374 L 889.034752000065 746.0546559999348 L 889.1719680000679 747.5804159999243 L 888.9784320000326 747.7913599999738 L 888.563712000032 747.9316479999688 L 887.3205760000274 747.9551999999676 L 886.5751040000468 747.7432319999207 L 886.1337600000552 747.4145279999357 L 885.4988800000283 746.6874879999668 L 885.35694848001 746.4377016319195 L 884.1250816000393 745.8691481599235 L 879.6194816000643 746.4835481599439 L 880.9709383680602 747.3469788159709 L 882.1288960000384 747.6479999999283 L 882.7637760000653 747.9531519999728 L 883.6198400000576 748.8215039999341 L 883.8952960000606 749.4553599999635 L 884.0611840000493 750.3943679999211 L 884.0048640000168 752.0133119999664 L 883.700736000028 752.904191999929 L 882.7607040000148 753.819647999946 L 881.8216960000573 754.4053759999224 L 881.4321582080447 754.5192407039576 L 881.3602816000348 754.5731481599505 L 881.2234680320253 754.5799884799635 L 880.8550400000531 754.6869759999681 L 879.2811520000105 754.7095039999695 L 879.1537285120576 754.6953676799312 L 875.2162816000637 755.1875481599709 L 875.4210816000123 757.7475481599686 L 875.4988564480445 757.9117393919732 L 875.6070400000317 758.0395519999438 L 876.54502400005 758.8372479999671 L 876.7938560000621 759.2366079999483 L 876.765184000018 759.9636479999754 L 876.3514880000148 760.4572159999516 L 875.9644160000607 760.7377919999417 L 875.3187819520244 760.9139517439762 L 873.6802816000418 762.8675481599639 L 874.2302627840545 764.5960611839546 L 874.305536000058 764.7027199999429 L 875.6582400000188 766.2284799999325 L 875.6305920000304 766.9094399999594 L 875.5200000000186 767.2145919999457 L 875.105280000018 767.7972479999298 L 874.5512960000196 768.2396159999189 L 873.7648640000261 768.9605119999615 L 872.8965120000648 769.1079679999384 L 871.897088000027 769.2226559999399 L 871.4659389440203 769.3450096639572 L 871.3250816000509 769.4211481599486 L 866.7170816000435 771.4691481599584 L 864.9762816000148 774.1315481599304 L 865.4586849280167 776.7365283839754 L 865.5900395520148 777.091385343927 L 866.6466570240445 779.1165675519733 L 866.8774318080395 779.3563924479531 L 868.1694474240649 780.2011719679576 L 868.5383680000668 780.3627519999282 L 869.2101120000589 780.8542719999678 L 869.3064775680541 780.944614399923 L 869.3794816000154 780.9923481599544 L 870.0695336960489 781.5443896319484 L 870.176768000063 781.6079359999276 L 870.3713792000199 781.785866239923 L 871.4274816000252 782.6307481599506 L 871.9979622400133 782.9548851199215 L 872.0936960000545 783.0005759999622 L 873.5682560000569 783.836159999948 L 875.0592000000179 784.4095999999554 L 875.9930880000466 784.9175039999536 L 876.5992960000294 785.4254079999519 L 876.2343157760333 785.6784609279712 L 878.0834816000424 788.6723481599474 L 877.6738816000288 791.6419481599587 L 875.625881600019 793.587548159936 L 874.8620001280215 793.3844910079497 L 874.8150016000145 793.3719982079347 L 874.1874995200196 794.1249996799743 L 872.4374999040156 794.7500001279404 L 870.3750000640284 795.3124997119303 L 868.7500001280569 795.7499996159459 L 868.3750000640284 796.1874995199614 L 868.7500001280569 796.7500001279404 L 869.5625000960426 797.3749995519756 L 870.3125002240413 797.3749995519756 L 871.3124997120467 797.187500031956 L 872.4374999040156 796.9999994879472 L 873.5625000960426 796.7500001279404 L 875.3124997120467 796.5624995839316 L 876.4374999040156 796.7500001279404 L 877.4375004160102 796.9999994879472 L 881.3749995520338 798.6250004479662 L 881.7499996160623 798.9999994879472 L 882.2500003840541 799.437500415952 L 882.8749998080311 800.2500003839377 L 883.3124997120467 800.8749998079729 L 883.8125004800386 801.6874997759587 L 884.1249996800325 803.1250001919689 L 884.0000000000582 804.1249996799743 L 884.0000000000582 805.187500031956 L 884.6250004480244 805.8125004799222 L 884.7252049920498 805.892664319952 L 885.8750003200257 806.8124999679276 L 886.2835957760108 807.0920632319758 L 887.0922240000218 807.6011519999593 L 887.2902113280143 807.7046978559229 L 888.3125002240413 808.0624998399289 L 889.7226096640225 808.7171911679325 L 889.9809280000627 808.8074239999405 L 890.3714908160619 808.9556049919338 L 891.5000002560555 809.2499998719431 L 892.1480273920461 809.8620231679524 L 894.2626816000557 811.7123481599265 L 895.696281600045 813.8627481599688 L 896.515481600014 815.808348159946 L 897.3874094080529 817.1162398719462 L 897.9375001600129 817.6874997759587 L 898.562499584048 820.9374996479601 L 899.2435322880629 823.5997173759388 L 899.365861376049 823.6481720319716 L 900.1874995200196 823.8125004799222 L 899.9851059200591 823.8934568959521 L 901.5971840000129 824.5237759999582 L 903.2355840000673 823.6021759999567 L 905.1811840000446 822.7829759999295 L 907.2291840000544 823.6021759999567 L 907.3315840000287 825.3429759999271 L 904.9763840000378 826.3669759999611 L 901.8019840000197 826.1621759999543 L 899.8563840000425 826.7765759999747 L 899.2419840000221 828.6197759999195 L 900.5731840000371 829.4389759999467 L 902.928384000028 830.2581759999739 L 903.2355840000673 834.251775999961 L 901.2899840000318 838.4491519999574 L 900.6755840000114 841.0091519999551 L 904.2595840000431 843.5691519999527 L 907.3315840000287 842.1355519999634 L 909.3795840000384 841.7259519999498 L 911.1203840000671 842.9547519999323 L 911.1203840000671 845.3099519999232 L 910.1987840000656 847.1531519999262 L 907.638784000068 848.5867519999738 L 905.6931840000325 848.9963519999292 L 903.4403840000159 848.381951999967 L 902.928384000028 847.0507519999519 L 901.6995840000454 844.3883519999217 L 899.9587840000167 844.9003519999678 L 897.091584000038 847.2555519999587 L 895.7603840000229 848.5867519999738 L 892.7907840000116 850.8395519999322 L 891.9511040000361 852.1543679999304 L 891.4923520000302 853.0718719999422 L 891.3571840000222 854.218751999957 L 891.254784000048 854.4235519999638 L 892.4835840000305 855.6523519999464 L 897.9107840000652 857.1883519999683 L 899.0371840000153 858.313727999921 L 898.934784000041 860.7713279999443 L 898.934784000041 862.9217279999284 L 899.5491840000614 865.174527999945 L 901.085184000025 867.017727999948 L 903.4403840000159 868.1441279999563 L 907.2291840000544 868.348927999963 L 909.0723840000574 869.5777279999456 L 909.0723840000574 871.1137279999675 L 907.4339840000612 872.1377279999433 L 904.9763840000378 873.2641279999516 L 903.8499840000295 874.2881279999274 L 902.8259840000537 876.1313279999304 L 902.0067840000265 878.4855039999238 L 902.1255680000177 881.3813759999466 L 901.9043840000522 883.4007039999706 L 901.1875840000575 885.4487039999221 L 901.1916800000472 885.7395199999446 L 901.1264307200327 886.5062000639737 L 901.3063680000487 887.295999999973 L 901.684224000026 887.854079999961 L 902.753472512064 889.1168532479205 L 903.5859763200278 890.3192524799379 L 904.0624998400453 890.9999994879472 L 905.1875000320142 892.1874995199614 L 906.1249996800325 895.5000002559391 L 904.0000000000582 901.2499998719431 L 904.0000000000582 903.5000002559391 L 907.9186657280661 907.9084984319634 L 908.5912391680176 908.3120424959343 L 910.2500003840541 909.187500031956 L 913.8592235520482 909.5645829119603 L 914.4354816000559 909.6067481599748 L 914.4857989120646 909.6293908479274 L 921.3124997120467 910.2500003839377 L 920.3750000640284 910.6250004479662 L 917.6978708480601 910.6250004479662 L 917.9046492160414 911.1678740479401 L 917.9375001600129 911.2499998719431 L 918.6250004480244 911.6874997759587 L 919.4375004160102 912.2500003839377 L 920.3750000640284 912.4999997439445 L 921.8125004800386 913.5000002559391 L 922.4374999040156 913.9375001599547 L 923.4375004160102 914.7500001279404 L 924.2500003840541 915.3749995519756 L 925.0000005120528 915.9375001599547 L 926.0000000000582 916.5624995839316 L 927.2499998720596 917.187500031956 L 927.9375001600129 917.8125004799222 L 929.3749995520338 918.2500003839377 L 930.6875002880115 918.4374999039574 L 931.6249999360298 918.6250004479662 L 932.2500003840541 918.8124999679276 L 933.2499998720596 918.8124999679276 L 934.0000000000582 918.6250004479662 L 933.8763028480462 917.635422207939 L 934.0388628480141 917.7615523839486 L 934.6250004480244 918.2426910719369 L 935.6249999360298 918.6176911359653 L 936.4374999040156 918.8051906559267 L 937.1875000320142 919.6176906239707 L 938.4999997440609 920.6801909759524 L 939.2456683520577 921.0530242559616 L 940.1249996800325 921.5000002559391 L 944.3125002240413 923.3124997119303 L 945.1250001920271 923.5625000959262 L 946.7096903680358 924.6661232639453 L 948.6250004480244 925.9999999999418 L 949.2499998720596 926.9999994879472 L 949.9375001600129 927.437500415952 L 951.0000005120528 928.2500003839377 L 951.5000002560555 928.4374999039574 L 952.4374999040156 929.2499998719431 L 954.0624998400453 930.4999997439445 L 955.5000002560555 931.5625000959262 L 956.812499968044 932.1249996799743 L 957.5625000960426 932.3750000639702 L 958.3750000640284 932.7500001279404 L 959.3749995520338 933.187500031956 L 959.8750003200257 933.5625000959262 L 960.6875002880115 933.8125004799222 L 962.1249996800325 934.3750000639702 L 963.6874997760169 934.8124999679276 L 965.3124997120467 935.187500031956 L 967.2499998720596 935.6249999359716 L 969.5000002560555 936.0624998399289 L 972.6875002880115 936.6250004479662 L 980.1978705920628 937.5000002559391 L 984.8749998080311 937.5000002559391 L 990.6250004480244 936.4374999039574 L 995.9375001600129 934.1874995199614 L 1001.7499996160623 930.9374996479601 L 1003.4375004160102 929.0625003519235 L 1007.6249999360298 924.1874995199614 L 1009.0625003520399 922.9374996479601 L 1010.4999997440609 922.1249996799743 L 1011.8125004800386 921.3124997119303 L 1013.0625003520399 920.8749998079729 L 1014.4999997440609 920.6875002879533 L 1015.6978708480601 920.4999997439445 L 1017.0625003520399 920.4999997439445 L 1018.562499584048 920.6875002879533 L 1020.0000000000582 920.8749998079729 L 1021.6249999360298 921.5000002559391 L 1023.0625003520399 922.1249996799743 L 1024.0 922.4374998470521" fill="none"/><path stroke="#000000" stroke-width="2" d="M 900.0000000000582 882.9999994879472 L 900.9374996480183 884.4301905919565 L 901.7461678080144 882.4723630079534 L 901.6249999360298 879.4926909439382 L 901.9375001600129 878.4999997439445 L 901.9375001600129 877.0551910399226 L 899.8750003200257 879.117690879968 L 898.8749998080311 881.117690879968 L 900.0000000000582 882.9999994879472" fill="none"/><path stroke="#000000" stroke-width="2" d="M 1024.0 922.437499846943 L 1023.0625003520981 922.1249996800325 L 1021.6249999360298 921.5000002558809 L 1020.0000000001164 920.8749998079729 L 1018.5624995841063 920.6875002878369 L 1017.0625003520399 920.4999997440027 L 1015.6978708481183 920.4999997440027 L 1014.4999997440609 920.6875002878369 L 1013.0625003520399 920.8749998079729 L 1011.8125004800386 921.3124997118139 L 1010.4999997440609 922.1249996800325 L 1009.0625003520399 922.9374996478437 L 1007.624999936088 924.187499519845 L 1003.4375004160684 929.0625003518653 L 1001.7499996161205 930.9374996478437 L 995.9375001600129 934.1874995199032 L 990.6250004480244 936.4374999039574 L 984.8749998080311 937.5000002558809 L 980.197870592121 937.5000002558809 L 972.6875002880115 936.6250004478497 L 969.5000002561137 936.0624998399871 L 967.2499998721178 935.6249999359716 L 965.3124997120467 935.187500031956 L 963.6874997760169 934.8124999679276 L 962.1249996800907 934.3750000639702 L 960.6875002880115 933.8125004798057 L 959.8750003200839 933.5625000959262 L 959.374999552092 933.1875000318978 L 958.3750000640284 932.7500001279404 L 957.5625000961008 932.375000063912 L 956.8124999681022 932.1249996798579 L 955.5000002560555 931.562500095868 L 954.0624998401036 930.4999997438281 L 952.4374999040738 929.2499998718267 L 951.5000002560555 928.4374999040156 L 951.000000512111 928.2500003838213 L 949.9375001600129 927.4375004158355 L 949.2499998720596 926.9999994879472 L 948.6250004480244 925.9999999999418 L 946.709690368094 924.6661232638289 L 945.1250001920271 923.5625000959262 L 944.3125002240995 923.3124997118721 L 940.1249996800325 921.5000002558809 L 939.2456683520577 921.0530242560199 L 938.4999997441191 920.6801909759524 L 937.1875000320142 919.6176906239125 L 936.4374999040738 918.8051906559267 L 935.624999936088 918.6176911359653 L 934.6250004480826 918.2426910719369 L 934.0388628480723 917.7615523839486 L 933.8763028481044 917.6354222078808 L 934.0000000001164 918.6250004480244 L 933.2499998721178 918.8124999679858 L 932.2500003841124 918.8124999679858 L 931.624999936088 918.6250004480244 L 930.6875002880697 918.4374999039574 L 929.374999552092 918.2500003838213 L 927.9375001600129 917.8125004798057 L 927.2499998720596 917.187500031956 L 926.0000000000582 916.5624995838734 L 925.0000005120528 915.9375001598964 L 924.2500003840541 915.3749995518592 L 923.4375004160102 914.7500001278822 L 922.4374999040738 913.9375001598964 L 921.8125004800968 913.5000002558809 L 920.3750000640284 912.4999997438281 L 919.4375004160102 912.2500003838795 L 918.6250004480244 911.6874997759587 L 917.9375001600711 911.2499998720014 L 917.9046492160996 911.1678740478237 L 917.6978708480601 910.6250004478497 L 920.3750000640284 910.6250004478497 L 921.3124997121049 910.2500003838213 L 914.4857989120646 909.6293908479274 L 914.4354816000559 909.6067481599166 L 913.8592235520482 909.5645829119603 L 910.2500003841124 909.187500031956 L 908.5912391680176 908.3120424958179 L 907.9186657281243 907.9084984319052 L 904.0000000001164 903.5000002558227 L 904.0000000001164 901.2499998719431 L 906.1249996800325 895.5000002558227 L 905.1875000320724 892.1874995199032 L 904.0624998401036 890.999999487889 L 903.5859763200278 890.3192524799379 L 902.7534725121222 889.1168532479205 L 901.684224000026 887.854079999961 L 901.3063680000487 887.295999999973 L 901.1264307200909 886.5062000638572 L 901.1916800000472 885.7395200000028 L 901.1875840000575 885.4487039999221 L 901.9043840000522 883.4007040000288 L 902.1255680000759 881.3813759998884 L 902.0067840000847 878.4855039998656 L 902.8259840001119 876.1313279998722 L 903.8499840000877 874.288127999811 L 904.9763840000378 873.2641279998352 L 907.4339840001194 872.1377280000015 L 909.0723840000574 871.1137279998511 L 909.0723840000574 869.5777279998874 L 907.2291840000544 868.3489279999048 L 903.4403840000159 868.144127999898 L 901.085184000025 867.0177280000062 L 899.5491840001196 865.1745279998868 L 898.9347840000992 862.9217279999866 L 898.9347840000992 860.7713279999443 L 899.0371840000153 858.3137279999792 L 897.9107840000652 857.1883519999683 L 892.4835840000305 855.65235199983 L 891.254784000048 854.4235519998474 L 891.3571840000222 854.2187519998406 L 891.4923520000302 853.071871999884 L 891.9511040000943 852.154367999814 L 892.7907840000698 850.8395519998157 L 895.7603840000229 848.5867519998574 L 897.091584000038 847.2555519999587 L 899.958784000075 844.9003519999096 L 901.6995840000454 844.3883519999217 L 902.928384000028 847.0507519998937 L 903.4403840000159 848.3819519998506 L 905.6931840000325 848.9963519999292 L 907.638784000068 848.5867519998574 L 910.1987840001239 847.153151999868 L 911.1203840000671 845.3099519999232 L 911.1203840000671 842.9547519998741 L 909.3795840000384 841.7259519998915 L 907.3315840000869 842.1355519999634 L 904.2595840000431 843.5691519999527 L 900.6755840000696 841.0091519998969 L 901.28998400009 838.4491520000156 L 903.2355840000673 834.251775999961 L 902.928384000028 830.2581759998575 L 900.5731840000371 829.4389759998885 L 899.2419840000803 828.6197759998031 L 899.8563840000425 826.7765759999165 L 901.8019840000779 826.1621760000126 L 904.9763840000378 826.3669759998447 L 907.3315840000869 825.3429759998689 L 907.2291840000544 823.6021759998985 L 905.1811840000446 822.7829759998131 L 903.2355840000673 823.6021759998985 L 901.5971840000129 824.5237759999582 L 899.9851059200591 823.8934568958357 L 900.1874995200778 823.8125004799222 L 899.365861376049 823.6481720319134 L 899.2435322881211 823.599717375997 L 898.562499584048 820.9374996479601 L 897.9375001600711 817.6874997759005 L 897.3874094080529 817.116239871888 L 896.515481600014 815.8083481598878 L 895.6962816001032 813.8627481598523 L 894.2626816000557 811.7123481598683 L 892.1480273921043 809.8620231678942 L 891.5000002560555 809.2499998719431 L 890.3714908160619 808.9556049918756 L 889.9809280000627 808.8074239999405 L 889.7226096640225 808.7171911679325 L 888.3125002240413 808.0624998399289 L 887.2902113280725 807.7046978559229 L 887.0922240000218 807.6011519998428 L 886.283595776069 807.092063232034 L 885.8750003200257 806.8124999678694 L 884.725204992108 805.8926643198938 L 884.6250004480826 805.8125004799222 L 884.0000000001164 805.1875000318396 L 884.0000000001164 804.1249996799743 L 884.1249996800907 803.1250001920271 L 883.8125004800968 801.6874997759587 L 883.3124997121049 800.8749998079147 L 882.8749998080893 800.2500003839377 L 882.2500003841124 799.437500415952 L 881.7499996160623 798.9999994878308 L 881.3749995520338 798.625000447908 L 877.4375004160102 796.9999994878308 L 876.4374999040156 796.7500001278822 L 875.3124997121049 796.5624995838152 L 873.5625000961008 796.7500001278822 L 872.4374999040738 796.9999994878308 L 871.3124997121049 797.1875000318396 L 870.3125002240413 797.3749995520338 L 869.5625000961008 797.3749995520338 L 868.7500001280569 796.7500001278822 L 868.3750000640866 796.1874995199614 L 868.7500001280569 795.7499996160041 L 870.3750000640284 795.3124997118139 L 872.4374999040738 794.750000127824 L 874.1874995200778 794.1249996799743 L 874.8150016000145 793.3719982079347 L 874.8620001280215 793.3844910078915 L 875.625881600019 793.587548159936 L 877.6738816000288 791.6419481599587 L 878.0834816001006 788.672348159831 L 876.2343157760333 785.6784609278548 L 876.5992960000876 785.4254079998354 L 875.9930880001048 784.9175039998372 L 875.0592000000761 784.4096000000136 L 873.5682560001151 783.8361599998316 L 872.0936960000545 783.0005759998458 L 871.9979622400715 782.9548851198633 L 871.4274816000834 782.6307481599506 L 870.3713792000781 781.785866239923 L 870.176768000063 781.6079359999276 L 870.0695336961071 781.544389631832 L 869.3794816000736 780.9923481598962 L 869.3064775681123 780.9446143998648 L 869.2101120000589 780.8542719999678 L 868.538368000125 780.3627519998699 L 868.1694474240649 780.2011719678412 L 866.8774318080395 779.3563924480113 L 866.6466570240445 779.1165675519733 L 865.5900395520148 777.0913853438688 L 865.458684928075 776.7365283839754 L 864.976281600073 774.1315481599886 L 866.7170816000435 771.4691481599584 L 871.3250816000509 769.4211481598322 L 871.4659389440785 769.345009663899 L 871.8970880000852 769.2226559999981 L 872.896512000123 769.1079679999384 L 873.7648640000261 768.9605119999615 L 874.5512960000196 768.2396159999771 L 875.105280000018 767.7972479999298 L 875.5200000000768 767.2145919998875 L 875.6305920000304 766.9094399999594 L 875.6582400000771 766.228479999816 L 874.305536000058 764.7027200000011 L 874.2302627840545 764.5960611839546 L 873.6802816001 762.8675481598475 L 875.3187819520826 760.9139517439762 L 875.964416000119 760.7377919998835 L 876.3514880000148 760.4572159999516 L 876.7651840000763 759.963647999859 L 876.7938560000621 759.2366079998901 L 876.5450240001082 758.8372479999671 L 875.6070400000899 758.0395519998274 L 875.4988564480445 757.911739391915 L 875.4210816000705 757.7475481598522 L 875.2162816000637 755.1875481599709 L 879.1537285120576 754.695367679873 L 879.2811520000687 754.709503999853 L 880.8550400001113 754.6869760000263 L 881.2234680320253 754.5799884799053 L 881.360281600093 754.5731481598923 L 881.4321582080447 754.5192407039576 L 881.8216960000573 754.405375999806 L 882.7607040000148 753.8196479998878 L 883.700736000028 752.9041919998126 L 884.004864000075 752.0133119999664 L 884.0611840001075 750.3943679999211 L 883.8952960001188 749.4553599999053 L 883.6198400000576 748.8215039998177 L 882.7637760000653 747.953152000031 L 882.1288960000966 747.6479999998701 L 880.9709383680602 747.3469788158545 L 879.6194816001225 746.4835481599439 L 884.1250816000975 745.8691481598071 L 885.3569484800682 746.4377016319195 L 885.4988800000865 746.6874879998504 L 886.1337600000552 747.4145279998193 L 886.5751040001051 747.7432319999207 L 887.3205760000274 747.9551999999676 L 888.563712000032 747.9316479998524 L 888.9784320000326 747.7913599999156 L 889.1719680000679 747.5804159999243 L 889.034752000065 746.0546559998766 L 889.0687436800799 745.6222126079374 L 889.1426816000603 745.4595481599681 L 890.2690816000686 743.4115481598419 L 892.9314816000406 741.8755481599364 L 894.8653670400963 742.5662218239158 L 895.2504320000298 742.7962879998959 L 896.1699840000947 743.0543359999429 L 897.061888000113 743.1014399998239 L 897.642496000044 742.9601279999479 L 898.3316480000503 742.1624319998082 L 898.4698880001088 741.7630719998851 L 898.3592960000387 740.472831999883 L 898.1657600000617 740.074495999841 L 897.5491624960559 739.4905579519109 L 897.539481600048 739.4179481599131 L 894.672661504068 736.9603225598694 L 895.2866816000314 734.6051481598988 L 898.5616885760683 733.5817082878784 L 898.6040320001193 733.5751680000103 L 900.0673280000337 733.0815999999177 L 900.6469120000838 732.6586879998213 L 900.9233920000261 732.3770880000084 L 901.833728000056 731.1564799999469 L 902.0815360000706 730.6639359999681 L 902.3569920000155 729.5375359999016 L 902.2187520000734 728.6927359998226 L 901.4487080961117 726.3983052799595 L 901.4306816000608 726.3107481599436 L 901.4023792640655 726.2635775999515 L 901.1671040001092 725.6422399998992 L 900.2270720000961 724.2823679999565 L 900.2019645440159 724.2628853758215 L 898.2562816001009 722.4195481599309 L 898.358681600017 719.65474815981 L 898.6545541121159 718.4712591358111 L 899.144704000093 716.9146879999316 L 899.2275087360176 716.1794406399131 L 899.2802816000185 715.9683481598622 L 899.4850816000835 713.305948159832 L 899.4641008640756 713.2290201599244 L 899.6392960001249 712.6917119999416 L 899.6392960001249 711.8704639998614 L 898.8088320000679 709.477375999908 L 898.3664640000206 708.7503359999973 L 897.6476160000311 708.046847999969 L 896.516096000094 707.038207999838 L 896.1710080000921 707.0259199999273 L 895.6876800000318 706.9675519999582 L 895.110144000093 707.0371839998988 L 894.1977600000682 707.7406719999271 L 894.0461434880854 707.9877509119688 L 892.4194816001109 708.9027481598314 L 888.7330816001049 707.3667481599259 L 889.8662461441127 706.2335836158018 L 890.3577600000426 706.0029439998325 L 890.8830720001133 705.5810559998499 L 891.409408000065 704.8540159999393 L 891.5200000000768 703.8443519998691 L 891.5210240000742 702.1783039998845 L 891.438080000109 702.0615679998882 L 891.4104320000624 701.6857599999057 L 891.0243840000476 700.6300159998355 L 891.0143703040667 700.6121471998049 L 889.9618816000293 697.2291481598513 L 890.5762816001079 693.6451481598197 L 890.5675591680338 693.6004454398644 L 890.6424320000224 693.1220479998155 L 890.728448000038 690.446335999819 L 890.590208000096 689.8135039998451 L 890.3147520000348 689.4376959998626 L 889.8447360000573 689.0383359998814 L 889.3470720000914 688.874496000004 L 888.795136000088 688.8970239998307 L 888.2145280000404 689.3660159999272 L 887.4077112320228 690.6905323519022 L 886.2754816000233 691.2899481599452 L 883.8178816000582 688.3203481599921 L 885.2551413761103 686.4838492159033 L 885.4804480000166 686.3851519999444 L 885.9504640000523 685.9868159999023 L 886.4204800000298 685.4000639999285 L 886.7246080000186 684.8133119999547 L 887.095622656052 683.7336401920184 L 887.1466352641 683.6542873599101 L 887.3881600000896 683.4288639999577 L 887.6599705601111 682.9788917758269 L 890.2797834240482 680.9755054079578 L 891.2060405761003 679.7205841919058 L 892.4194816001109 675.8202388478094 L 888.808896512026 673.4425139199593 L 888.2210816000588 673.0627481599222 L 884.3921029120102 671.2818278399063 L 884.2997760000289 671.2043519998551 L 883.4223923200625 670.7630725118215 L 881.5650816000416 669.5811481598066 L 880.5410816000658 666.9187481600093 L 880.5259499520762 666.892519423971 L 880.3502080001053 666.369023999956 L 879.7153280000202 664.9139200000209 L 879.3006080000196 664.3967999999295 L 878.6380800001207 663.9278079998912 L 877.4492160000955 663.622655999905 L 876.9355182080762 663.6096092158696 L 875.7282816001098 663.2323481598287 L 873.3756221440854 665.3026887679007 L 873.329664000019 665.3337600000086 L 872.9149440000765 665.4740479999455 L 872.6108160000294 665.849855999928 L 872.0025600000517 667.0458879999351 L 872.0302080000984 667.5159039999126 L 872.1950720000896 667.9613439998357 L 872.3886080000666 668.2193919999409 L 872.5336883200216 668.308159487904 L 873.2706816000282 669.5811481598066 L 871.7022668800782 670.1219809278846 L 871.3932800000766 670.1434879999724 L 870.6191360001103 670.3779839999042 L 870.0108800000744 670.7763199999463 L 868.794368000119 671.7849599999026 L 868.1031680001179 672.7475199998589 L 868.0453550081002 672.9366773758666 L 867.5362816000707 673.6771481598262 L 865.0786816001055 673.5747481599101 L 865.2010526721133 672.8230389758246 L 865.3383680001134 672.699391999864 L 865.6158720000531 672.0655359998345 L 865.8380800000741 669.1563519999618 L 865.7551360001089 668.5931519999285 L 865.7008640000131 665.144319999963 L 865.5349760000827 664.8391679998022 L 865.3967360000242 663.9011839999002 L 864.9830400000792 663.596031999914 L 864.5959680000669 663.6431359999697 L 864.3194880001247 663.854079999961 L 863.5186135040713 664.955665407877 L 862.9282816000632 665.2803481599549 L 859.6514816000708 665.0755481598899 L 859.4625034240307 662.9022955519031 L 859.7585920001147 662.0231679998105 L 859.7043200000771 661.0841599999694 L 859.5384320000885 660.3335679998854 L 859.1513600000762 659.4887679998646 L 858.2113280001213 658.8549120000098 L 856.0281600000453 657.8216959998244 L 855.77595699206 657.754558463872 L 853.4050816000672 656.3715481598629 L 853.1745116161183 655.5069091838086 L 853.7620480000624 654.4895999998553 L 853.872640000016 654.0666879998171 L 853.8449920000276 653.4574079999584 L 853.5132160000503 653.0580479998607 L 853.1548160000239 652.8471039998694 L 852.6295040000114 652.8471039998694 L 851.9936000001035 652.9167359999847 L 851.8830080000334 653.0580479998607 L 851.4227701760246 653.2026224638103 L 848.8994816000923 652.992348159838 L 847.2610816000379 652.1731481599272 L 849.290458112082 651.2778352639871 L 850.1411840000656 651.0161919998936 L 850.611200000043 650.7345919998479 L 850.8876800000435 650.6874879999668 L 851.1918080000323 650.382335999806 L 852.3264000000781 648.6231039999402 L 852.6581760000554 647.4977279998129 L 852.5752320000902 646.5126399999717 L 852.4093440001016 645.971967999998 L 852.2434560001129 645.7845759999473 L 852.2158080000663 645.5265279998421 L 851.579904000042 644.8455679999315 L 851.2481280000648 644.6346239999402 L 850.7781120000291 644.5178879998857 L 849.2804188160808 643.7663119358476 L 848.592281600053 643.3667481599841 L 846.5442816000432 641.7283481599297 L 845.0731141120195 639.8648688640096 L 845.0426880000159 639.8044159999117 L 844.7252480000607 639.3241600000183 L 843.0950400000438 637.6878079999587 L 842.7279114240664 637.4073620479321 L 842.5506816001143 637.2227481598384 L 842.3143761921092 637.0914672638755 L 841.989120000042 636.8430079998798 L 841.5012382720597 636.6397235199693 L 838.8642816000502 635.1747481598868 L 840.0157767680357 633.4475059199613 L 840.1643520000507 633.2528639998636 L 841.1873280000873 631.775231999869 L 841.8508800000418 630.4624639998074 L 841.9725107200211 630.1694443519809 L 842.0386816000682 630.0547481599497 L 842.0849756160751 629.8985072638025 L 842.2113280000631 629.5941119998461 L 842.764288000064 627.7171199998702 L 842.8260218880605 627.3974732799106 L 842.8578816000954 627.2899481598288 L 842.8597452800605 627.2228628479643 L 843.0407680001226 626.2855679998174 L 843.1513600000762 624.5017599999555 L 843.068416000111 624.4556799999555 L 842.9854720000876 623.4224639999447 L 842.8748800000176 623.3528319998295 L 842.8472320000874 623.0937599998433 L 842.764288000064 623.0476799998432 L 842.3065047041164 621.9224084478919 L 842.243481600075 621.7603481599363 L 842.2121236480307 621.7145169918658 L 841.3818880000617 620.4190719999024 L 841.0375782400952 619.9978731519077 L 840.9122816000599 619.814748159959 L 840.6702233600663 619.5484835839015 L 840.4418560000486 619.2691199998953 L 839.0041600000695 617.6737279999652 L 836.7051356161246 615.4927667198936 L 836.406681600085 615.2067481599515 L 833.8466816000873 612.5443481599214 L 831.6099450881011 609.1406192638678 L 831.5095040000742 608.9687039998244 L 830.3749120000284 607.3497599999537 L 829.5454720000853 606.4588799999328 L 825.9465369600803 603.3407436799607 L 824.3234816000331 601.8947481599171 L 821.7757634560694 598.7808706558426 L 820.9438720000908 597.6842239998514 L 820.3441868801019 596.9660200958024 L 818.5890816000174 594.7267481599702 L 817.052030976105 593.2511795198661 L 815.9600056320778 592.1494159359136 L 814.4930816001142 589.6067481599748 L 814.5194577921066 589.2111124478979 L 814.7732480000122 588.6515199998976 L 814.8285440000473 587.125759999908 L 814.6943549441057 586.5876479999279 L 814.6978816000628 586.534748159931 L 814.6446776320226 586.3884380159434 L 814.5244160000584 585.9061759999604 L 814.073333760025 584.8172421118943 L 813.9473848320777 584.4708833278855 L 813.8598400001065 584.0988159999251 L 813.8077829120448 584.0692531198729 L 813.0594816000666 581.8243481598329 L 812.1378816000652 578.7523481599637 L 812.1151078401017 578.524607487896 L 812.1149440000881 578.374656 L 812.09690624004 578.3425884158933 L 811.9330816001166 576.7043481598375 L 815.0050816001021 575.3731481599389 L 816.6941276160651 574.2174853119068 L 818.7545600000885 573.3765119998716 L 819.3085440000868 573.0242559998296 L 819.7232640000293 572.6248959999066 L 820.1656320000766 571.850751999882 L 820.3868160001002 570.5134079998243 L 820.3315200000652 569.1760639999411 L 820.0826880001114 568.2606079998659 L 819.169280000031 567.2990719999652 L 818.1739520000992 566.735871999932 L 817.4540800000541 566.5484799998812 L 816.95641600003 566.5013759998255 L 816.8714741760632 566.5036349440343 L 813.4690816000802 565.7475481598522 L 814.8002816000371 561.6515481598326 L 817.5253340160707 562.9167503358331 L 818.2558720001252 563.3812479999615 L 819.279872000101 564.3888639998622 L 819.6126720000757 564.7882239999599 L 820.2209280001116 565.1640319999424 L 820.7472640000633 565.327871999878 L 821.5767040001228 565.233663999883 L 821.9371520000277 565.0462719998322 L 822.2689280001214 564.5772799999686 L 822.32422400004 563.8021119998884 L 822.2412800000166 563.7324799999478 L 822.1306880001212 562.5364479999407 L 822.0467200001003 562.3726079998305 L 822.0262010880397 562.1896478719427 L 822.0706816000747 562.0611481599044 L 822.7874816000112 559.3987481598742 L 825.1426816000603 560.1155481598689 L 825.2525721600396 560.0986419199617 L 826.0044800000614 560.3778559999191 L 826.916864000028 560.354303999804 L 827.7473280000268 560.1423359999317 L 828.3842560000485 559.2043519999715 L 828.6607360001071 558.5469439999433 L 828.6883840000373 557.5147519998718 L 828.2449920000508 557.0918400000082 L 828.2108190720901 557.0686535678105 L 828.2146816001041 557.0435481598251 L 826.6786816000822 554.3811481599696 L 829.0141132800491 553.4080522239674 L 829.2966400000732 553.3378559998819 L 830.9022720000357 552.4695039998624 L 832.2304000000586 551.5079680000199 L 832.2856960000936 551.2970240000286 L 832.4792320000706 551.1557119999779 L 833.088512000104 550.1706239999621 L 833.2820480000228 549.6309759998694 L 833.2820480000228 548.902911999845 L 833.0608640001155 548.5045759998029 L 832.0368640000233 547.4713599999668 L 830.9852160000592 547.0730239999248 L 830.0441600000486 547.1436799998046 L 829.4052915201173 547.2466411519563 L 826.1666816000943 547.3155481598224 L 821.2514816000476 545.062748159864 L 819.2034816000378 543.7315481599653 L 818.4399114240659 543.0952396799694 L 816.7864320000517 541.6550399998669 L 814.5162240000209 539.5896319999592 L 813.9211642880691 538.9963468798087 L 812.7522816000273 537.6899481599103 L 805.3794816000154 531.2387481598416 L 801.2706713600201 528.2256199679105 L 800.3481548801064 527.3656668158947 L 798.3138816000428 524.9923481599544 L 796.265881600033 522.1251481599174 L 796.0594759681262 521.9366912000114 L 794.7745280000381 520.6599679998471 L 793.0019840000896 519.1116799999727 L 788.121324544074 515.3117911039735 L 785.5138816000544 512.7043481598957 L 785.2742082560435 510.7070740478812 L 785.2738560000435 510.12607999995816 L 785.0516480000224 509.5393279999262 L 783.9723520000116 508.06169599993154 L 783.5982161920983 507.82298931182595 L 781.4178816000349 506.2531481598271 L 780.4229171201005 504.26321919995826 L 780.4201605120325 504.0895231998875 L 780.905881600047 501.95234815991716 L 783.1132487680879 500.6479953918606 L 783.248384000035 500.62335999985225 L 783.7470720001147 500.62335999985225 L 784.7987200000207 500.810751999903 L 785.6578560000635 500.716543999908 L 786.4330240000854 500.3407359999255 L 787.1242240000283 499.16825599985896 L 787.2624640000286 498.51084799983073 L 787.2348160000402 497.92409599985695 L 786.9849600000889 497.05676799995126 L 786.7627520000678 496.18841599998996 L 786.2640640001046 495.10911999980453 L 785.1550720001105 493.42054399993503 L 784.3246080000536 492.83379199996125 L 783.2995840000222 492.55321599985473 L 781.6929280000622 492.29516799980775 L 781.30585600005 492.34227199986344 L 781.1952640000964 492.50713599985465 L 781.1840020480449 492.75531366391806 L 779.9842816001037 493.86274815996876 L 778.03868160001 494.27234815986594 L 775.6089374720468 492.12295884784544 L 775.3226240000222 491.5466239998932 L 774.9908480000449 491.0079999999143 L 774.9908480000449 490.91379199991934 L 774.4368640000466 490.44479999988107 L 773.3565440000384 489.88160000002244 L 772.5527040000306 489.67167999991216 L 771.8328320000437 489.6481279999716 L 771.4734080000198 489.8590719999629 L 771.3628160000662 490.09459200000856 L 771.5563520001015 490.2819839998265 L 772.0826880000532 490.51647999999113 L 772.3325440001208 490.82060799986357 L 772.3498168320511 490.93799731193576 L 771.8946816000389 490.790748159925 L 768.8226816001115 493.04354815988336 L 767.1461150720716 493.04354815988336 L 766.8183040000731 493.0037759998813 L 766.2866432000883 492.8380579839577 L 764.8290816000663 492.22434815991437 L 761.6313948160969 489.5909591038944 L 760.9774080000934 489.03577599988785 L 759.565312000108 488.16844799998216 L 756.0268830721034 486.31680614390643 L 754.8962816000567 485.67074815992964 L 752.1314816001104 483.62274815980345 L 751.2416890880559 483.14077695988817 L 750.15168000001 482.53337599989027 L 749.182976000011 482.03980800003046 L 748.8211046400829 481.91845785599435 L 746.3970816000365 480.8579481599154 L 744.9634816000471 478.8099481599638 L 744.740500480053 478.5704499199055 L 743.5632640000549 476.5941759998095 L 743.09222400008 476.1958399999421 L 742.3286517760134 475.97994495980674 L 742.1986816001008 475.84034815983614 L 742.0966891521239 472.5766051838291 L 742.567936000065 471.8786559998407 L 742.7901440000278 471.36255999986315 L 743.2611840000609 468.92236799985403 L 743.2345600000117 466.27123199991183 L 742.7092480000574 465.4970879998873 L 742.2935040001175 464.72294399986276 L 741.9893760000705 464.5345279998728 L 740.0629135360941 464.3665448958054 L 738.0002816000488 463.5523481599521 L 737.3858816000866 461.4019481599098 L 738.3824271361227 460.21855129592586 L 738.5559040001244 460.07603199989535 L 738.7494400001015 460.1221119998954 L 738.8610560000525 460.0289280000143 L 738.8057600000175 459.8405119998497 L 739.2768000001088 459.44217599980766 L 739.497984000016 459.0202879998251 L 739.5819520000368 458.6444799998426 L 739.5543040000484 457.80070399987744 L 739.1948800000246 456.4869119999348 L 738.2251520000282 454.9847039998858 L 737.477632000111 454.30374399997527 L 736.9141616640263 453.94151321589015 L 736.6748160000425 453.7876479998231 L 736.5150720000383 453.7169919999433 L 735.9242240000749 454.1808639999945 L 736.3094466560287 454.4272793600103 L 733.6994816000806 454.2339481600211 L 732.7778816000791 456.79394815990236 L 731.0370816001086 458.94434815994464 L 727.5554816000513 458.73954815987963 L 728.3746816000785 455.66754815983586 L 728.477081600111 452.0835481598042 L 726.5314816000173 448.39714815997286 L 724.0738816001103 448.60194815986324 L 724.7906816000468 450.85474815999623 L 725.609881600074 452.6979481598828 L 724.9954816000536 455.36034815985477 L 721.6162816000287 457.20354815997416 L 719.3634816000122 455.36034815985477 L 721.3090816001059 450.44514815992443 L 718.2370816001203 447.57794815988746 L 714.0386816000682 448.19234815996606 L 711.7858816001099 448.90914815996075 L 709.3282816000283 449.42114815994864 L 706.9730816000956 449.52354815986473 L 703.7986816000193 449.8307481598458 L 699.3954816000187 450.6499481599312 L 694.5826816000626 450.9571481599123 L 691.2034816000378 450.3427481598337 L 686.493081600056 448.70434815995395 L 682.8066816000501 446.96354815980885 L 680.6562816001242 446.45154815982096 L 676.8674816000857 445.1203481599223 L 672.7714816001244 443.2771481598029 L 668.5730816000723 441.5363481598324 L 664.4770816000528 440.00034815992694 L 661.0978816000279 439.28354815993225 L 658.947481600102 438.05474815989146 L 657.3090816000476 435.8019481599913 L 660.3810816000332 433.3443481599679 L 661.6098816000158 430.78434815991204 L 659.3570816000574 428.9411481600255 L 657.2066816000151 427.71234815981006 L 655.3634816000704 428.3267481599469 L 654.0322816000553 430.78434815991204 L 651.3698816000251 433.2419481598772 L 648.1954816000652 432.3203481598175 L 649.4242816000478 430.37474815984024 L 651.3698816000251 428.63394815986976 L 650.5506816001143 425.8691481599235 L 647.5810816000449 425.7667481598328 L 645.1234816000797 423.20674815995153 L 645.430681600119 419.41794815985486 L 641.2322816000669 418.1891481598723 L 637.0338816000149 420.85154815990245 L 633.0402816000278 419.7251481600106 L 629.149081600015 417.0627481598058 L 627.2034816000378 415.629148159991 L 625.0530816001119 414.1955481599434 L 625.0446284800419 414.1811271679471 L 625.0468751360313 414.1796874238062 L 625.0415800320334 414.1705758719472 L 625.0530816001119 414.163257343811 L 623.312281600025 411.1936573438579 L 621.3671874560532 408.12109414394945 L 618.8066816000501 405.3568573438679 L 616.8610816000146 403.4112573438906 L 613.8906245121034 401.0546872318955 L 610.6171873281128 398.80468787188875 L 607.7499996160623 395.5273441278259 L 605.8046873600106 392.1484369918471 L 602.9374996480765 391.22656358388485 L 601.5010816000868 387.94885734381387 L 600.8866816000664 384.3648573439568 L 598.3266816000105 382.52165734383743 L 595.8690816001035 380.47365734394407 L 595.3593753600144 377.20703078387305 L 595.562419200025 374.2589818878914 L 597.5074816000415 372.2115481598885 L 600.5784135680296 371.69972633593716 L 603.1406254080357 376.20703129586764 L 607.0312499200809 376.9218754559406 L 610.1026816000231 373.64514815993607 L 611.0242816000246 371.289948159887 L 611.0161643520114 371.2869038078934 L 611.0242816000246 371.25765734392917 L 608.5666816000594 370.33605734386947 L 605.0859376640292 369.92578150396 L 602.0390625281143 367.6914063359727 L 603.8593751040171 366.375000063912 L 606.109375488013 366.375000063912 L 610.000281600107 365.45314815983875 L 612.562499584048 364.12109414389124 L 614.9154816000373 362.1763481599628 L 617.4765629441245 360.2304686078569 L 620.8546816000598 357.87554815987824 L 620.8546816000598 357.8432573439786 L 620.4413808640675 355.6389857279137 L 620.2421872640261 354.5664061438292 L 616.9634816000471 352.51845734391827 L 613.9140628480236 350.2812497919076 L 616.5546874880674 348.25000038393773 L 616.7578122240375 345.6914063358563 L 616.7586816000403 345.65765734395245 L 614.6082816001144 344.32645734387916 L 612.2530816001236 342.7904573439155 L 610.109375488013 340.03125043190084 L 610.8203120640828 336.16796876786975 L 612.3554816000396 332.3779481598758 L 613.3794816000154 329.71554815984564 L 613.3790412800736 329.71290931192925 L 613.38281267212 329.70312499190914 L 612.96988160006 327.22565734392265 L 610.8203120640828 324.4609372158302 L 608.0576174080488 322.6196142078261 L 608.3618816000526 319.47554815991316 L 608.3599042560672 319.4636861438048 L 608.3618816000526 319.44325734395534 L 607.9848284160253 317.1809392638388 L 607.8515630080947 316.371093503898 L 606.1090816000942 313.2992573438096 L 604.0624998401036 310.7382814719458 L 603.3437501441222 312.58203135995427 L 602.4218746880651 314.6289059838746 L 600.0703129600151 311.76171827182407 L 597.203125248081 311.66015590401366 L 594.6406246400438 310.3281254399335 L 592.7970816000598 307.15525734389666 L 589.4178816000349 306.3360573439277 L 586.8749998080893 305.4179686399293 L 588.6015621120459 302.3750000639702 L 588.7031255040201 298.48437452793587 L 591.1586816000636 297.1523481598706 L 592.4917729280423 295.4106972159352 L 594.5378816000302 294.4899481598404 L 597.9170816001133 294.2851481598336 L 598.7362816000241 291.92994815995917 L 598.7298580480856 291.9232327679638 L 598.7343749120482 291.9101562879514 L 598.7325880320277 291.9082762238104 L 598.7362816000241 291.8976573438267 L 596.4843745281105 289.5429683199036 L 594.539062272117 288.31250022386666 L 593.5256576000247 286.3904317438137 L 595.4609377280576 284.76171878381865 L 598.6328125441214 284.0468746238039 L 598.6324613121105 284.04546867194586 L 598.6338816000498 284.04514815984294 L 598.631589888013 284.0419839999522 L 598.6245273600798 284.0149698560126 L 598.6338816000498 284.0128573438851 L 596.4865187840769 281.04745164792985 L 596.8930816000793 277.28674816002604 L 596.8908677120926 277.27493939193664 L 596.8930816000793 277.2544573438936 L 596.5702819841099 275.5328563199728 L 596.2890629121102 274.0117186559364 L 600.0674816000392 274.31714815984014 L 602.320281600114 272.7811481599347 L 602.320281600114 272.74885734380223 L 601.327106048062 269.46374041592935 L 601.000000512111 268.3750000639702 L 605.1875000320724 266.53515673597576 L 607.7499996160623 264.9999994878308 L 609.1810816000798 261.6195481598843 L 609.2834816000541 259.0272573438706 L 608.5666816000594 257.0816573438933 L 605.6994816000224 256.5696573439054 L 602.9346816000179 256.7744573439122 L 599.5554816000513 257.4912573439069 L 596.2786816000589 258.1056573438109 L 594.3438141440274 256.4762951678131 L 595.5618816000642 253.83714815991698 L 597.8146816000226 252.6083481599344 L 600.3746816000203 253.1203481599223 L 603.2418816000572 251.7891481599654 L 603.2071956481086 251.7729617918376 L 603.2418816000572 251.75685734383296 L 600.1715404801071 250.32403148792218 L 600.2722816001042 248.40994815994054 L 601.5010816000868 245.84994815988466 L 602.115481600049 242.33605734381126 L 600.0674816000392 241.2096573439194 L 598.7362816000241 242.95045734388987 L 596.2786816000589 244.99845734384144 L 596.2786816000589 242.7779481600155 L 597.0978816000861 240.62754815997323 L 597.0901166080148 240.6156410878757 L 597.0978816000861 240.59525734384079 L 595.5618816000642 238.24005734396633 L 592.6946816000273 237.31845734390663 L 589.9298816000228 237.21605734381592 L 584.6050816000788 237.62565734388772 L 582.0605009921128 235.5899934718036 L 583.7858816000517 233.3571481599356 L 588.2914816000266 232.947548159922 L 592.0802816001233 232.43554815993411 L 595.3570816001156 232.5379481598502 L 597.8146816000226 229.87554815982003 L 598.5314816000173 226.25925734383054 L 593.9234816000098 226.36165734392125 L 589.8274816001067 226.66885734390235 L 586.2434816000168 225.44005734391976 L 583.5810816000449 223.3920573439682 L 582.7723284480744 220.9657989119878 L 585.0146816000342 220.76194815989584 L 587.3698816000251 222.40034815995023 L 589.9298816000228 222.50274815986631 L 591.5682816000772 220.45474815997295 L 591.551842304063 220.44300595181994 L 591.5682816000772 220.4224573438405 L 589.4178816000349 218.88645734387683 L 586.467351552099 217.46206310391426 L 588.3938816000591 215.1299481599708 L 590.6466816000175 213.5939481598325 L 593.5138816000544 211.23874815995805 L 593.4824263681076 211.2322959358571 L 593.5138816000544 211.2064573438256 L 589.5202816001256 210.38725734391483 L 587.9842816001037 207.82725734397536 L 587.062681600044 205.57445734384237 L 586.2547886080574 203.45373900793493 L 588.905881600047 202.84194815985393 L 591.1586816000636 202.43234816001495 L 591.1586816000636 202.4000573438825 L 590.4418816000689 199.73765734385233 L 589.1106816000538 197.99685734388186 L 587.9937157120439 194.34133299195673 L 590.0322816001135 194.03554815991083 L 593.411481600022 191.57794815994566 L 595.4594816000317 188.7107481599087 L 595.4536560641136 188.68661350401817 L 595.4594816000317 188.67845734395087 L 594.742681600037 185.70885734382318 L 591.8754816001165 186.7328573439736 L 588.0866816000198 187.85925734386547 L 586.0599367680261 185.3258260479779 L 588.7010816000984 184.61474815988913 L 591.3634816000122 183.79554815992014 L 591.3634816000122 183.76325734402053 L 590.2370816000621 180.48645734391175 L 586.4482816000818 178.02885734394658 L 584.0204881920945 176.20801228797063 L 586.4482816000818 175.39874815987423 L 590.1346816000296 175.80834815988783 L 592.6946816000273 173.86274815991055 L 592.899481600034 170.55365734390216 L 591.4658816000447 168.09605734387878 L 588.7010816000984 164.51205734384712 L 586.4482816000818 162.56645734386984 L 583.5810816000449 161.84965734381694 L 579.4850816000835 160.72325734398328 L 575.5938816000125 163.48805734387133 L 572.4194816001109 161.64485734381014 L 570.5810380800394 157.2530196478474 L 571.0882816000958 155.02114815980894 L 571.0827417600667 155.0132336638053 L 571.0882816000958 154.98885734390933 L 569.6546816001064 152.94085734395776 L 566.5826816001208 153.55525734386174 L 563.8178816000582 154.47685734392144 L 561.4626816001255 157.8560573439463 L 557.8786816000938 159.18725734384498 L 553.8228971521021 157.36215449590236 L 557.2642816000734 156.14754815987544 L 557.2642816000734 156.11525734397583 L 556.0401387520251 152.034782207862 L 557.0594816000666 148.36514815990813 L 560.0290816000197 143.040348159906 L 559.9274301440455 138.8403568638023 L 561.5650816000416 135.36034815997118 L 561.5608064000262 135.33714124781545 L 561.5650816000416 135.32805734383874 L 560.8482816000469 131.43685734388418 L 559.7218816000386 129.2864573438419 L 557.6738816000288 129.08165734400973 L 555.2162816000637 129.08165734400973 L 552.656281600066 127.85285734402714 L 551.2226816000766 125.90725734381704 L 549.0722816000343 122.93765734386398 L 546.4098816001206 122.1184573439532 L 544.9762816000148 125.29285734391306 L 541.6994816000806 126.31685734388884 L 538.7298816000111 125.80485734390095 L 536.5794816000853 124.98565734399017 L 533.718431744026 121.81806694401894 L 534.429081600043 118.87394815997686 L 535.8626816000906 115.494748159952 L 539.2418816001154 113.241948159819 L 541.8018816001131 112.21794815984322 L 545.5906816000934 112.62754815991502 L 545.5906816000934 112.5952573439572 L 544.7782205440453 109.44697036786238 L 547.2290816000313 107.20034815993859 L 547.8434816000517 103.5840573439491 L 544.4642816000269 101.3312573438161 L 541.8018816001131 101.74085734388791 L 540.9826816000859 104.40325734391809 L 540.9826816000859 104.4355481598759 L 541.1854837760329 107.7817917438806 L 538.7298816000111 106.96325734397396 L 536.9890816000407 105.73445734381676 L 534.633881600108 105.01765734382207 L 531.9802849281114 103.48673638392938 L 533.0978816000861 100.03234815987526 L 533.3026816000929 97.33765734394547 L 532.0738816001103 94.77765734383138 L 531.4609274880495 91.81504614383448 L 531.6642816000385 88.22405734384665 L 527.1586816000636 87.71205734385876 L 524.9220689920476 85.6787732479861 L 528.4898816000787 81.80514815985225 L 528.4898816000787 81.77285734395264 L 527.7730816000258 78.59845734393457 L 525.2130816000281 76.55045734380838 L 522.6530816000304 74.70725734392181 L 519.4786816000706 73.17125734401634 L 516.8162816000404 70.20165734383045 L 513.0274816000601 69.17765734391287 L 510.05788160010707 66.6176573439734 L 509.54918400006136 62.54807756788796 L 511.38908160012215 59.27714815980289 L 512.1058816000586 56.480057343957014 L 507.1906816000701 52.38405734393746 L 503.91388160007773 49.31205734383548 L 502.48028160003014 46.24005734396633 L 501.6621711361222 42.45629849587567 L 501.76348160003545 39.89125734381378 L 501.14908160007326 37.024057343951426 L 500.8443064321182 33.1635671039694 L 503.19708160008304 31.62914815993281 L 504.3234816000331 34.59874815988587 L 506.3714816000429 37.05634815990925 L 509.0338816000731 37.97794815991074 L 511.49148160003824 37.465948159922846 L 512.8226816000533 35.21314816002268 L 513.4370816000155 30.91234815993812 L 514.8706816000631 26.406748159846757 L 517.0210816001054 22.20834815991111 L 517.1234816000215 19.411257343832403 L 516.5150433280505 17.28172236791579 L 517.7378816001001 14.937948159873486 L 517.7304657921195 14.919871487945784 L 517.7378816001001 14.905657343973871 L 516.106157056056 10.928327679808717 L 517.1234816000215 8.486748159804847 L 519.376281600038 7.155548159906175 L 520.9122816000599 3.059548159886617 L 520.90358784009 3.0504407038679346 L 520.9122816000599 3.0272573439287953 L 518.7618816000759 0.7744573439704254 L 516.406681600085 0.4672573438147083 L 515.6084504347673 0.0" fill="none"/><path stroke="#000000" stroke-width="2" d="M 901.7461678080726 882.4723630078952 L 900.9374996480183 884.4301905918983 L 900.0000000001164 882.999999487889 L 898.8749998080893 881.1176908798516 L 899.8750003200257 879.117690879968 L 901.9375001600711 877.0551910399226 L 901.9375001600711 878.4999997440027 L 901.6249999360298 879.4926909438218 L 901.7461678080726 882.4723630078952" fill="none"/><path stroke="#408040" stroke-width="3" d="M 721.5778496248822 1024.0 L 762.7161599999963 966.9119999999966 L 780.5849599999929 910.2438400000028 L 778.0659199999936 873.3183999999965 L 803.0310400000017 853.8623999999982 L 851.2307200000068 796.6924799999979 L 905.584640000001 764.0678400000033 L 940.072960000005 745.6153600000034 L 962.744319999998 709.1609600000011 L 1004.6566400000011 614.0723199999993 L 1024.0 580.7979175293367" fill="none"/></svg>