<svg xmlns="http://www.w3.org/2000/svg" width="1024" height="1024"><rect stroke="none" x="0" y="0" width="1024" height="1024" fill="white"/><path stroke="#000000" stroke-width="2" d="M 970.4074194706627 1024.0 L 971.3671874560532 1021.8359377919696 L 970.0390625280561 1012.6210938879522 L 970.0390625280561 1004.2226565119345 L 969.9375001600129 1001.7656248319545 L 969.9375001600129 992.1406248959247 L 969.8359377920278 952.6132807679242 L 969.7343754240428 948.0078120959224 L 969.7343754240428 931.9296870399266 L 969.8359377920278 928.1406248959247 L 969.9375001600129 925.7851566079189 L 970.0390625280561 920.1523435519193 L 970.1406248960411 909.9140628479654 L 970.2421872640261 905.714843647962 L 970.1406248960411 902.9492183039547 L 970.1406248960411 900.1874995199614 L 970.0390625280561 897.011719167931 L 970.0390625280561 892.1992191999452 L 970.1406248960411 886.8749998079729 L 969.7343754240428 882.5742182399263 L 969.8359377920278 873.6640624639695 L 969.9375001600129 867.1093749759602 L 970.1406248960411 853.285155839927 L 970.0390625280561 849.7031249919673 L 970.0390625280561 845.6054691839381 L 969.9375001600129 839.2578129919712 L 969.9375001600129 836.2890629119356 L 969.8359377920278 831.0664058879483 L 969.8359377920278 800.7539066879544 L 969.7343754240428 783.3476567039615 L 969.7343754240428 771.7773434879491 L 969.8359377920278 768.0898437119322 L 969.9375001600129 759.9999999999418 L 969.9375001600129 740.8515624959255 L 970.0390625280561 736.7539066879544 L 969.9375001600129 720.6796871679253 L 969.9375001600129 682.7890626559383 L 969.8359377920278 675.7265623039566 L 970.0390625280561 659.3398435839335 L 969.9375001600129 639.9882813439472 L 969.9375001600129 593.292968959955 L 969.8359377920278 585.4101565439487 L 969.8359377920278 540.66015641595 L 969.6249999360298 511.98828134394716 L 969.6328120320104 494.6835937279393 L 969.6328120320104 487.10546841594623 L 970.1406248960411 446.0429690879537 L 969.7343754240428 439.28515583992703 L 969.7343754240428 429.5546879999456 L 969.8359377920278 415.8320312319556 L 969.7343754240428 404.7734374399297 L 969.8359377920278 400.47265587194124 L 969.9375001600129 397.81250047992216 L 970.1406248960411 388.39062527992064 L 970.1406248960411 377.9453122559353 L 970.0390625280561 374.7695308799739 L 970.0390625280561 362.89453158393735 L 970.1406248960411 358.38671871996485 L 970.0390625280561 353.2656250879518 L 970.1406248960411 347.2265625599539 L 970.0390625280561 318.24609382392373 L 969.9375001600129 309.1328122879495 L 969.9375001600129 302.47656243195524 L 969.8359377920278 298.1757808639668 L 969.8359377920278 279.12890675192466 L 969.7343754240428 264.6914058239199 L 969.9375001600129 255.37499955191743 L 969.8359377920278 251.99218790396117 L 969.8359377920278 205.71093708794797 L 969.7343754240428 193.62499993597157 L 969.7343754240428 172.83984383993084 L 969.6328120320104 138.6367191039608 L 969.6328120320104 132.5937500159489 L 969.7343754240428 127.57812531193485 L 969.7343754240428 95.42578175995732 L 969.7343754240428 71.4609377279412 L 969.6328120320104 58.25390591996256 L 969.6249999360298 47.39843788795406 L 969.6328120320104 33.265625087951776 L 969.6249999360298 29.171874815947376 L 969.6328120320104 17.292968959955033 L 969.6328120320104 0.0" fill="none"/><path stroke="#000000" stroke-width="2" d="M 969.6328120320104 0.0 L 969.6328120320104 17.292968959955033 L 969.6249999360298 29.171874815947376 L 969.6328120320104 33.265625087951776 L 969.6249999360298 47.39843788795406 L 969.6328120320104 58.25390591996256 L 969.7343754240428 71.4609377279412 L 969.7343754240428 95.42578175995732 L 969.7343754240428 127.57812531193485 L 969.6328120320104 132.5937500159489 L 969.6328120320104 138.6367191039608 L 969.7343754240428 172.83984383993084 L 969.7343754240428 193.62499993597157 L 969.8359377920278 205.71093708794797 L 969.8359377920278 251.99218790396117 L 969.9375001600129 255.37499955191743 L 969.7343754240428 264.6914058239199 L 969.8359377920278 279.12890675192466 L 969.8359377920278 298.1757808639668 L 969.9375001600129 302.47656243195524 L 969.9375001600129 309.1328122879495 L 970.0390625280561 318.24609382392373 L 970.1406248960411 347.2265625599539 L 970.0390625280561 353.2656250879518 L 970.1406248960411 358.38671871996485 L 970.0390625280561 362.89453158393735 L 970.0390625280561 374.7695308799739 L 970.1406248960411 377.9453122559353 L 970.1406248960411 388.39062527992064 L 969.9375001600129 397.81250047992216 L 969.8359377920278 400.47265587194124 L 969.7343754240428 404.7734374399297 L 969.8359377920278 415.8320312319556 L 969.7343754240428 429.5546879999456 L 969.7343754240428 439.28515583992703 L 970.1406248960411 446.0429690879537 L 969.6328120320104 487.10546841594623 L 969.6328120320104 494.6835937279393 L 969.6249999360298 511.98828134394716 L 969.8359377920278 540.66015641595 L 969.8359377920278 585.4101565439487 L 969.9375001600129 593.292968959955 L 969.9375001600129 639.9882813439472 L 970.0390625280561 659.3398435839335 L 969.8359377920278 675.7265623039566 L 969.9375001600129 682.7890626559383 L 969.9375001600129 720.6796871679253 L 970.0390625280561 736.7539066879544 L 969.9375001600129 740.8515624959255 L 969.9375001600129 759.9999999999418 L 969.8359377920278 768.0898437119322 L 969.7343754240428 771.7773434879491 L 969.7343754240428 783.3476567039615 L 969.8359377920278 800.7539066879544 L 969.8359377920278 831.0664058879483 L 969.9375001600129 836.2890629119356 L 969.9375001600129 839.2578129919712 L 970.0390625280561 845.6054691839381 L 970.0390625280561 849.7031249919673 L 970.1406248960411 853.285155839927 L 969.9375001600129 867.1093749759602 L 969.8359377920278 873.6640624639695 L 969.7343754240428 882.5742182399263 L 970.1406248960411 886.8749998079729 L 970.0390625280561 892.1992191999452 L 970.0390625280561 897.011719167931 L 970.1406248960411 900.1874995199614 L 970.1406248960411 902.9492183039547 L 970.2421872640261 905.714843647962 L 970.1406248960411 909.9140628479654 L 970.0390625280561 920.1523435519193 L 969.9375001600129 925.7851566079189 L 969.8359377920278 928.1406248959247 L 969.7343754240428 931.9296870399266 L 969.7343754240428 948.0078120959224 L 969.8359377920278 952.6132807679242 L 969.9375001600129 992.1406248959247 L 969.9375001600129 1001.7656248319545 L 970.0390625280561 1004.2226565119345 L 970.0390625280561 1012.6210938879522 L 971.3671874560532 1021.8359377919696 L 970.4074194706627 1024.0" fill="none"/><path stroke="#408040" stroke-width="3" d="M 0.0 884.9184211920656 L 9.707519999996293 907.612159999997 L 15.902719999998226 927.6723199999979 L 28.31359999999404 940.8819199999998 L 35.143679999993765 964.3212799999965 L 35.33823999999731 985.6102400000018 L 42.8738599029748 1024.0" fill="none"/></svg>