<svg xmlns="http://www.w3.org/2000/svg" width="1024" height="1024"><rect stroke="none" x="0" y="0" width="1024" height="1024" fill="white"/><path stroke="#000000" stroke-width="2" d="M 1000.367286656663 1024.0 L 997.1718748160056 1023.7812500479631 L 997.1718748160056 1020.5078128639725 L 997.0703124480206 1017.0234378239256 L 997.1718748160056 1005.7617182719405 L 997.0703124480206 971.7617182719405 L 997.0703124480206 947.289062399941 L 997.1718748160056 928.449218559952 L 997.1718748160056 925.3749995519174 L 997.2734371840488 904.4882810879499 L 996.7656253440073 896.0898437119322 L 996.7656253440073 887.5898439679295 L 996.8671877120505 882.1640622079722 L 997.0703124480206 870.1835939839366 L 997.1718748160056 856.9726566399331 L 997.1718748160056 853.5937495039543 L 997.0703124480206 839.1562495999387 L 997.0703124480206 828.6093752319575 L 997.1718748160056 824.6132807679242 L 997.1718748160056 783.8593751039589 L 997.0703124480206 768.0898437119322 L 997.0703124480206 750.4765624319552 L 996.9687500800355 738.804687871947 L 997.0703124480206 726.7187496959232 L 996.9687500800355 707.8789058559341 L 997.2734371840488 692.4179691519239 L 997.2734371840488 658.2148433919647 L 996.8671877120505 639.6796876799199 L 996.7656253440073 635.6874997759587 L 996.8671877120505 624.4218746879487 L 996.8671877120505 622.0664063999429 L 996.9687500800355 606.0937502719462 L 996.9687500800355 556.4296878079185 L 996.8671877120505 548.2382817279431 L 996.8671877120505 536.8710932479589 L 996.7656253440073 522.023437311931 L 996.8671877120505 511.7812500479631 L 996.8671877120505 407.746094079921 L 996.7656253440073 399.6562503679306 L 996.7656253440073 395.24999987194315 L 996.6640629760223 384.0898437119322 L 996.6640629760223 381.12109363195486 L 996.7656253440073 371.80078079993837 L 996.7656253440073 312.1015623679268 L 996.8671877120505 299.816406015947 L 996.8671877120505 262.84765593596967 L 996.9687500800355 255.57812531193485 L 996.9687500800355 219.94140671996865 L 997.0703124480206 214.71874969592318 L 997.0703124480206 186.0468746239203 L 997.1718748160056 176.21874995192047 L 997.1718748160056 168.74218700797064 L 997.0703124480206 153.2812503039604 L 997.0703124480206 127.47656294394983 L 996.8671877120505 109.5546879999456 L 996.8671877120505 97.16406271996675 L 996.9687500800355 87.43750041595194 L 996.9687500800355 39.718750207917765 L 997.0703124480206 29.2734371839324 L 996.9687500800355 4.289062911935616 L 996.8671877120505 0.08984371193218976 L 996.8671877120505 0.0" fill="none"/><path stroke="#000000" stroke-width="2" d="M 797.4011686973245 1024.0 L 801.38281267212 1023.9882813439472 L 811.0078126080334 1023.7812500478467 L 821.4531246080878 1023.5781253119349 L 837.4296872960404 1023.5781253119349 L 841.1171870721155 1023.6796876798035 L 887.0937497600098 1023.5781253119349 L 894.9765621760162 1023.5781253119349 L 907.5781253120513 1023.6796876798035 L 923.2421877760789 1023.7812500478467 L 953.7578127360903 1023.9882813439472 L 967.8906245121034 1023.9882813439472 L 967.9609364366916 1024.0" fill="none"/><path stroke="#000000" stroke-width="2" d="M 986.5057348385599 1024.0 L 997.1718748160638 1023.7812500478467 L 1000.3672866583802 1024.0" fill="none"/><path stroke="#000000" stroke-width="2" d="M 996.8671877121087 0.0 L 996.8671877121087 0.08984371181577444 L 996.9687500800355 4.289062911877409 L 997.0703124480206 29.273437183874194 L 996.9687500800355 39.71875020785956 L 996.9687500800355 87.43750041601015 L 996.8671877121087 97.16406271985034 L 996.8671877121087 109.55468799988739 L 997.0703124480206 127.47656294383341 L 997.0703124480206 153.2812503039604 L 997.171874816122 168.74218700797064 L 997.171874816122 176.21874995186226 L 997.0703124480206 186.0468746238039 L 997.0703124480206 214.71874969580676 L 996.9687500800355 219.94140671996865 L 996.9687500800355 255.57812531193485 L 996.8671877121087 262.84765593596967 L 996.8671877121087 299.8164060158306 L 996.7656253440655 312.1015623678104 L 996.7656253440655 371.80078079988016 L 996.6640629760223 381.12109363195486 L 996.6640629760223 384.089843711874 L 996.7656253440655 395.24999987194315 L 996.7656253440655 399.6562503678724 L 996.8671877121087 407.7460940798628 L 996.8671877121087 511.7812500479631 L 996.7656253440655 522.023437311931 L 996.8671877121087 536.8710932478425 L 996.8671877121087 548.2382817280013 L 996.9687500800355 556.4296878078021 L 996.9687500800355 606.0937502718298 L 996.8671877121087 622.0664063998265 L 996.8671877121087 624.4218746878905 L 996.7656253440655 635.6874997759005 L 996.8671877121087 639.6796876798035 L 997.2734371840488 658.2148433919647 L 997.2734371840488 692.4179691518075 L 996.9687500800355 707.8789058558177 L 997.0703124480206 726.718749695865 L 996.9687500800355 738.804687871947 L 997.0703124480206 750.476562431897 L 997.0703124480206 768.089843711874 L 997.171874816122 783.8593751039589 L 997.171874816122 824.6132807679242 L 997.0703124480206 828.6093752318411 L 997.0703124480206 839.1562495999387 L 997.171874816122 853.5937495038961 L 997.171874816122 856.9726566398749 L 997.0703124480206 870.1835939839366 L 996.8671877121087 882.1640622078557 L 996.7656253440655 887.5898439679295 L 996.7656253440655 896.0898437119322 L 997.2734371840488 904.4882810878917 L 997.171874816122 925.374999551801 L 997.171874816122 928.4492185600102 L 997.0703124480206 947.2890623998246 L 997.0703124480206 971.7617182718241 L 997.171874816122 1005.7617182718241 L 997.0703124480206 1017.0234378238674 L 997.171874816122 1020.5078128638561 L 997.171874816122 1023.7812500478467 L 986.5057348385744 1024.0" fill="none"/><path stroke="#000000" stroke-width="2" d="M 967.9609364366916 1024.0 L 967.8906245121034 1023.9882813439472 L 953.7578127360903 1023.9882813439472 L 923.2421877761371 1023.7812500478467 L 907.5781253120513 1023.6796876798035 L 894.9765621760162 1023.5781253119349 L 887.0937497600098 1023.5781253119349 L 841.1171870721155 1023.6796876798035 L 837.4296872960404 1023.5781253119349 L 821.4531246080878 1023.5781253119349 L 811.0078126080334 1023.7812500478467 L 801.38281267212 1023.9882813439472 L 797.4011686973245 1024.0" fill="none"/></svg>