<svg xmlns="http://www.w3.org/2000/svg" width="1024" height="1024"><rect stroke="none" x="0" y="0" width="1024" height="1024" fill="white"/><path stroke="#000000" stroke-width="2" d="M 0.0 33.62247933742037 L 6.148436992021743 38.695312383933924 L 6.968750080035534 41.35546879994217 L 8.812499968043994 42.58593791996827 L 10.242187264026143 44.632812543946784 L 13.828124672058038 47.19531212793663 L 13.929687040043063 50.777343999943696 L 15.468749824038241 52.00781209592242 L 18.640624640043825 52.92968755192123 L 21.4062499840511 55.58984396792948 L 23.96874956804095 58.0468746239203 L 25.914062848023605 59.99218790396117 L 27.648437248019036 60.91406233597081 L 29.187500032014214 61.93750015995465 L 31.539062784053385 62.757812223921064 L 34.00000000005821 63.167968255933374 L 36.562499584048055 64.08984371193219 L 38.406250496045686 66.03515596792568 L 41.16368588805199 68.39062937593553 L 40.35156275203917 71.35937535995618 L 43.62499993602978 72.89453158393735 L 48.43749990401557 75.14843750395812 L 51.20312524802284 75.35546879994217 L 55.4062499840511 76.58203135995427 L 59.5000002560555 77.71093708794797 L 63.695312896044925 80.37109350395622 L 66.25781248003477 82.11328102392145 L 69.32812492805533 82.3164057599497 L 71.6796876800363 82.01171865593642 L 75.57812531205127 82.72656281595118 L 77.62499993602978 84.46875033591641 L 79.25781299202936 88.35937484796159 L 77.92968704004306 90.5078128639725 L 73.01562470401404 92.25000038393773 L 71.57812531205127 95.52734412794234 L 70.65624985605245 97.98437478393316 L 68.10156236804323 99.007812607917 L 66.05468774400651 101.67187455995008 L 64.92187545605702 105.05078169592889 L 66.3593748480198 107.60937471996294 L 65.74218752002344 110.17187532794196 L 67.48437504004687 113.65234380791662 L 69.2265625600121 115.80078079993837 L 70.25000038405415 120.51171839993913 L 70.14843699202174 123.48046847991645 L 69.2265625600121 126.96484351996332 L 64.41406259202631 132.49218764796387 L 61.851563008036464 134.43749990395736 L 58.06249984004535 135.15624959993875 L 56.53125017601997 137.61328127991874 L 54.687500288011506 140.58203135995427 L 53.86718720005592 143.1406254079193 L 56.53125017601997 145.70312499196734 L 61.031249920022674 147.44531251193257 L 64.41406259202631 146.93359411193524 L 73.73437542404281 149.80078079993837 L 75.57031219202327 153.17968793591717 L 77.92968704004306 156.55859404796502 L 76.18749952001963 158.39843737595947 L 73.21875046403147 160.550780927937 L 74.34374963201117 162.5976565759629 L 75.36718745605322 164.5429688319564 L 74.03906252805609 168.02734387194505 L 76.90624716802267 169.56250214396277 L 78.64843776001362 172.22265651193447 L 80.7968737280462 175.39843891194323 L 84.07812505605398 176.11718758393545 L 86.53125017601997 177.65234380791662 L 91.96093747206032 179.39062476792606 L 97.79687526402995 181.44140595191857 L 103.53124966402538 180.92968755192123 L 104.75781222403748 183.48828159994446 L 107.21875046403147 187.37890611193143 L 104.55468748800922 191.26953164796578 L 104.55468748800922 195.98046924796654 L 107.42187520005973 202.2265620479593 L 111.51562547200592 201.71484364796197 L 114.58593792002648 195.98046924796654 L 118.6875002880115 194.85546905593947 L 122.2656245760154 192.70312550396193 L 125.85156300803646 192.60156211192952 L 128.7187496960396 192.60156211192952 L 132.92187545605702 191.37499955191743 L 136.60156211204594 190.1445314559387 L 139.57812531205127 191.26953164796578 L 141.82812467205804 192.9101557759568 L 142.33593753603054 196.18749951996142 L 143.15624960005516 198.9492183039547 L 145.20312524802284 200.79296921595233 L 146.33593753603054 202.53515673591755 L 148.58593792002648 204.17187532794196 L 150.6328125440632 205.19531212793663 L 153.29687449603807 206.3242188799195 L 156.06249984004535 208.6796871679253 L 159.74999961606227 210.8281251839362 L 164.25000038405415 211.85156300792005 L 167.83593779202783 213.39062476792606 L 169.57812531205127 216.15234355191933 L 171.82812467205804 218.40625049592927 L 173.98437478404958 221.68359423993388 L 179.4062499840511 223.01562470395584 L 185.24218777602073 223.7304688639706 L 190.97656217601616 223.7304688639706 L 195.5859374080319 223.01562470395584 L 198.55468748800922 225.16406271996675 L 202.34374963201117 227.92968703992665 L 206.1328128000605 229.3632808959228 L 209.10156288003782 228.33984409592813 L 211.7656248320127 227.92968703992665 L 214.83593728003325 226.5976565759629 L 218.62500044802437 224.34765619196696 L 219.0390620160615 228.33984409592813 L 219.64843724801904 231.4101565439487 L 220.3671879680478 233.97265612793854 L 221.0859376640292 235.91796838393202 L 222.51562496001134 237.0429685759591 L 224.46093721606303 236.83984383993084 L 226.20312473602826 238.06640639994293 L 228.8671877120505 239.50000025593909 L 231.7343754240428 240.8320317439502 L 232.14062489604112 243.59765606396832 L 234.80468787206337 244.72265625593718 L 237.88281241600635 246.0546877439483 L 239.8203125760192 248.20703129592584 L 238.39062528003706 252.09765580797102 L 239.21093734406168 255.37499955191743 L 237.46874982403824 257.52343756792834 L 238.39062528003706 259.6757811199641 L 240.03125043201726 260.80078131193295 L 239.41406208003173 263.5664066559402 L 238.18749952001963 266.3281254399335 L 236.4453120000544 268.89062502392335 L 235.62499993602978 271.0390620159451 L 233.37499955203384 272.6796871679253 L 231.83593779202783 274.2148433919647 L 228.56249958404806 275.03515647992026 L 225.69531289604492 276.8749998079729 L 224.25781248003477 278.8242186239222 L 222.4140625920263 280.66796851193067 L 222.00781209603883 283.3281249279389 L 222.82812518405262 286.29687500797445 L 221.59374950401252 288.0390625279397 L 219.64843724801904 289.4726563839358 L 217.29687449603807 292.2382817279431 L 217.5000002560555 295.10546841594623 L 219.1406254080357 296.2304686079733 L 221.1875000320142 297.5625000959262 L 223.03124992002267 299.4062499839347 L 225.0781245440594 300.3281254399335 L 227.84374988800846 300.53125017596176 L 231.01562470401404 301.1445309439441 L 234.29687500803266 301.5546879999456 L 236.85156249604188 302.273437695927 L 236.4453120000544 304.3203123199637 L 236.64843776001362 307.90234419197077 L 239.10937497601844 310.25781247991836 L 243.20312524802284 309.9531253759633 L 246.9921873920248 310.56640614394564 L 250.47656243201345 310.15625011193333 L 254.16406220803037 309.9531253759633 L 256.3125002240413 309.1328122879495 L 257.84374988800846 307.4960936959251 L 258.66406297602225 303.9101562879514 L 260.921875456057 301.4531246079714 L 264.0937502720626 297.8671871999395 L 266.7578122240375 294.8984371199622 L 269.6249999360298 294.4882810879499 L 274.02343731204746 293.6718745599501 L 277.7109370880062 292.75000012794044 L 280.6796871680417 292.2382817279431 L 283.34375014400575 292.9531248639687 L 286.4140625920263 292.75000012794044 L 289.2812503040186 292.85156249592546 L 292.7656253440073 291.7265623039566 L 295.6328120320104 289.88281241594814 L 296.7578122240375 287.7304688639706 L 297.6796876800363 285.07031244796235 L 299.01562470401404 282.61328076792415 L 298.70312550402014 279.43750041595194 L 301.7734379520407 277.4921871359693 L 304.2343751680455 276.16015667194733 L 306.078125056054 274.2148433919647 L 306.69531238405034 272.06249983992893 L 306.4843745280523 268.9921873919666 L 308.9453127680463 266.1249996799743 L 312.53125017601997 266.7382814719458 L 315.6015626240405 268.48046899196925 L 318.6718750720611 269.70703155192314 L 322.2578124800348 269.4023434239207 L 325.42968729604036 267.66015590395546 L 327.78906214406015 267.7617182719405 L 330.34374963201117 268.6835937279393 L 332.60156211204594 269.4023434239207 L 335.6718745600083 269.6054691839381 L 339.96874956804095 267.66015590395546 L 344.1718753280584 267.66015590395546 L 346.11718758405186 269.71093708794797 L 348.3671879680478 271.34765670396155 L 351.74999961606227 272.06249983992893 L 354.51562496001134 272.2695311359712 L 358.0937502720626 273.19140659197 L 361.37499955203384 275.2382812159485 L 362.4999997440609 279.02734335995046 L 363.7265623040148 283.42968729592394 L 365.57031219202327 284.0468746239203 L 369.05468723201193 285.07031244796235 L 371.5078123520361 287.7304688639706 L 373.56250009604264 289.3710940159508 L 375.39843788801227 291.10937497596024 L 378.06249984004535 291.8281246719416 L 380.3203123200219 293.2617185279378 L 383.4921871360275 294.5937500159489 L 385.23437465605093 297.5625000959262 L 388.0000000000582 299.71093708794797 L 387.38281267206185 302.57812479994027 L 385.9453122560517 305.0390620159451 L 385.6406251520384 308.21093785593985 L 385.1328122880077 311.79687526397174 L 385.5390627840534 316.097655807971 L 383.1875000320142 318.8593745919643 L 381.1406254080357 320.3984373759595 L 378.88281292805914 321.8320312319556 L 376.83593728003325 323.57031219196506 L 373.8671872000559 324.80078131193295 L 371.30468761600787 326.2343751679291 L 367.5156254720059 328.1796874239226 L 368.03125043201726 331.24999987194315 L 367.5156254720059 333.30078105593566 L 366.1874995200196 334.7343749119318 L 369.66406246402767 335.4492190719466 L 373.3515622400446 334.93749964796007 L 375.5078123520361 337.0898442239268 L 372.42968780803494 339.44531251193257 L 369.4609377280576 342.61718732793815 L 371.30468761600787 346.20312473597005 L 372.9453127680463 348.558594047965 L 376.01562521600863 348.8632811519201 L 379.28906240005745 348.8632811519201 L 381.85156300803646 349.2734371839324 L 385.33593702403596 349.7851566079189 L 388.20312473602826 350.29687500797445 L 391.37499955203384 352.0390625279397 L 394.5468753920286 354.906250239932 L 397.0078197760158 357.8749941759743 L 397.3124997120467 360.5390622719424 L 395.3671874560532 362.89453158393735 L 393.1171870720573 365.0429685759591 L 394.24218726402614 368.2187499519205 L 397.0078126080334 370.3671879679314 L 399.7734379520407 371.39062476792606 L 402.84375040006125 372.4179691519239 L 406.6328125440632 373.03124991996447 L 409.8046873600106 372.62109388795216 L 411.74999961606227 373.644531711936 L 414.92968755203765 375.38671923195943 L 417.6953128960449 375.89843763195677 L 420.56249958404806 373.9531253759633 L 423.7343754240428 374.66796851193067 L 426.19531264004763 375.48828159994446 L 428.1406248960411 375.078124543943 L 429.9843747840496 373.746094079921 L 431.82812467205804 372.0078120959224 L 433.97656268801074 370.3671879679314 L 436.1249996800325 368.52343705593375 L 437.96874956804095 367.0898442239268 L 439.8125004800386 365.4531246079714 L 442.2656245760154 365.8632816639729 L 444.8281251840526 366.88671846396755 L 446.97656217601616 367.70703155192314 L 450.0546877440065 366.06640639994293 L 453.84374988800846 364.4296878079185 L 456.3984373760177 363.917968383932 L 459.46874982403824 363.917968383932 L 464.078125056054 363.71093708794797 L 466.1249996800325 361.7656248319545 L 468.5859379200265 359.30859417596366 L 472.1718753280584 360.5390622719424 L 475.0390620160615 361.5625000959262 L 478.10937548801303 362.48437452793587 L 480.57031270401785 364.4296878079185 L 483.9453122560517 366.57812479994027 L 488.3515627520392 368.11718758393545 L 491.52343756804476 368.6289059839328 L 494.9062502400484 369.0390620159451 L 498.69531238405034 369.34375014394755 L 502.78906265605474 369.34375014394755 L 507.28906240005745 368.2187499519205 L 510.97656217601616 367.5000002559391 L 513.7421875200234 370.67578163195867 L 518.4531251200242 372.31250022392487 L 521.1171870720573 373.33984358393354 L 523.4687498240382 375.078124543943 L 526.7500001280569 375.9999999999418 L 531.8671872000559 376.7187496959232 L 534.6328125440632 377.12500019196887 L 539.546874880034 376.8203120639664 L 545.4921871360275 376.9218754559406 L 548.6640629760223 374.8749998079729 L 552.0390625280561 373.1328122879495 L 559.4140620800317 367.5000002559391 L 559.1093749760184 363.30468761594966 L 560.0312504320173 359.30859417596366 L 563.5078123520361 358.9999994879472 L 567.7109370880062 357.2617185279378 L 569.4531246080296 356.6484377599554 L 571.2968744960381 355.62109337595757 L 574.5703127040179 353.7812500479631 L 579.1796879360336 351.8320312319556 L 582.8671877120505 350.6054686719435 L 585.3203128320165 349.1718748159474 L 588.289062912052 347.94140671996865 L 597.4062499840511 350.3984373759595 L 602.1171875840519 351.11718707194086 L 603.9609374720603 348.76171878393507 L 604.7812495360267 346.8164065279416 L 607.9531253760215 348.35156275192276 L 610.3046871040133 348.558594047965 L 612.562499584048 347.42968729592394 L 616.2421872640261 344.7695308799739 L 619.6249989120406 343.4374973439262 L 623.7187502080342 343.12890675192466 L 626.7968747520354 343.640625151922 L 630.4765624320135 345.1796879359172 L 634.0624998400453 343.2304691199679 L 637.546874880034 340.8789063679287 L 642.3593748480198 340.3632814079174 L 645.8359377920278 339.5468748799176 L 648.6093752320157 339.2382812159485 L 652.8046878720634 339.2382812159485 L 657.2109373440617 338.2148433919647 L 659.7656248320127 341.80078079993837 L 661.6093747200212 343.84765644796425 L 664.6796871680417 345.07421900791815 L 672.0546877440065 346.1015623679268 L 674.7187496960396 345.9960934399278 L 678.2968750080327 345.79296870395774 L 680.6562498560525 346.5078128639725 L 682.7031255040201 347.2265625599539 L 684.7526789120166 348.2504591359175 L 686.1858816000167 350.09314815996913 L 688.2338816000265 353.0627481599222 L 690.5890816000174 354.3939481599373 L 692.841881600034 357.56834815995535 L 694.7874816000112 360.7427481599734 L 693.6610816000612 366.06754815991735 L 695.7090816000127 370.1635481599369 L 694.7874816000112 372.313948159921 L 693.8658816000097 375.48834815993905 L 694.173081600049 379.3795481599518 L 693.2514816000476 384.19234815996606 L 690.8962816000567 387.4691481599584 L 688.4386816000333 390.0291481599561 L 689.4626816000091 392.58914815995377 L 691.2034816000378 395.35394815995824 L 693.4562816000544 397.8115481599234 L 691.6130816000514 400.3715481599211 L 689.7698816000484 402.72674815997016 L 687.1074816000182 404.9795481599285 L 685.8786816000356 409.1779481599224 L 684.137881600007 412.14754815993365 L 682.3970816000365 413.88834815996233 L 680.6562816000078 415.424348159926 L 677.789081600029 416.7555481599411 L 674.2050816000556 417.6771481599426 L 671.952281600039 419.72514815995237 L 674.1026816000231 421.56834815995535 L 676.2530816000071 423.00194815994473 L 677.5842816000222 424.6403481599409 L 679.3250816000509 427.3027481599711 L 681.8850816000486 430.47714815993095 L 685.9810816000099 433.651548159949 L 685.1618816000409 436.7235481599346 L 683.4210816000123 439.07874815992545 L 681.475481600035 441.12674815993523 L 679.8370816000388 443.0723481599707 L 677.6866816000547 444.7107481599669 L 676.1506816000328 448.49954815994715 L 674.0002816000488 453.2099481599289 L 672.1570816000458 456.17954815994017 L 670.0066816000617 457.51074815995526 L 668.1634816000587 458.73954815993784 L 669.2898816000088 460.6851481599733 L 670.4162816000171 463.8595481599332 L 671.2354816000443 468.46754815994063 L 670.6210816000239 471.8467481599655 L 669.6994816000224 474.61154815996997 L 667.4466816000058 477.06914815993514 L 666.6274816000368 480.5507481599343 L 667.1394816000247 483.0083481599577 L 668.6754816000466 485.56834815995535 L 671.5426816000254 487.6163481599651 L 673.2834816000541 491.5075481599197 L 671.4402816000511 494.47714815993095 L 668.9826816000277 496.3203481599339 L 667.8562816000194 499.3923481599195 L 666.2178816000232 501.84994815994287 L 663.0434816000634 504.10274815995945 L 660.1762816000264 505.02434815996094 L 657.411481600022 506.2531481599435 L 654.5442816000432 506.5603481599246 L 650.1410816000425 506.3555481599178 L 646.6594816000434 507.0723481599707 L 644.5090816000593 508.3011481599533 L 641.6418816000223 509.4275481599616 L 638.9794816000503 509.9395481599495 L 634.7810816000565 508.3011481599533 L 631.0946816000505 506.8675491839531 L 628.2274816000136 507.6867481599329 L 624.0290826240089 508.30114918394247 L 619.2162816000637 509.1203481599223 L 616.4514816000592 509.6323481599684 L 613.789081600029 510.1443481599563 L 611.638681600045 512.2947481599404 L 611.126681600057 515.878748159972 L 611.638681600045 520.0771481599659 L 613.3794816000154 524.1731481599272 L 613.0722816000343 528.06434815994 L 613.0722816000343 530.9315481599187 L 613.4818816000479 533.3891481599421 L 615.1202816000441 536.1539481599466 L 618.1922816000297 538.7139481599443 L 619.2162816000637 541.1715481599676 L 620.9570816000341 543.5267481599585 L 624.4386816000333 544.0387481599464 L 628.1250816000393 545.267548159929 L 631.6066816000384 546.7011481599184 L 632.8354754560278 549.6707502079662 L 635.0882816000376 552.8451481599477 L 632.2210816000588 561.8563481599558 L 630.8898816000437 564.1091481599724 L 630.7874816000112 566.4643481599633 L 634.1666816000361 568.2051481599337 L 638.36508160003 570.0483481599367 L 642.1538816000102 570.4579481599503 L 644.3042816000525 573.4275481599616 L 646.3522816000623 576.1923481599661 L 644.0994816000457 577.4211481599486 L 640.6178816000465 577.6259481599554 L 636.6242816000595 578.2403481599176 L 632.6306816000142 580.3907481599599 L 631.0946816000505 582.9507481599576 L 630.2754816000233 587.4563481599325 L 630.6850816000369 590.7331481599249 L 630.992281600018 594.3171481599566 L 630.2754816000233 597.6963481599232 L 630.173081600049 600.8707481599413 L 628.3298816000461 603.73794815992 L 625.4626816000091 604.3523481599404 L 622.2882816000492 604.6595481599215 L 619.9330816000584 605.8883481599623 L 616.8610816000146 608.3459481599275 L 614.813081600063 610.291548159963 L 612.3554816000396 612.5443481599214 L 608.1570816000458 613.0563481599675 L 605.2898816000088 613.977948159969 L 604.265881600033 616.6403481599409 L 601.6034816000611 619.3027481599711 L 598.429081600043 621.4531481599552 L 595.7666816000128 623.9107481599203 L 593.6162816000287 625.8563481599558 L 591.6706816000515 627.9043481599656 L 593.3090816000476 631.0787481599255 L 594.4354816000559 634.6627481599571 L 596.1762816000264 638.2467481599306 L 597.8146816000226 640.9091481599608 L 599.6578816000256 644.3907481599599 L 601.3986816000543 646.9507481599576 L 603.4466816000058 649.9203481599689 L 603.4466816000058 654.5283481599181 L 602.3202816000558 658.214748159924 L 602.42268160003 661.6963481599232 L 601.8082816000096 664.1539481599466 L 600.7842816000339 666.5091481599375 L 600.4770816000528 669.8883481599623 L 599.7602816000581 673.267548159929 L 599.7602816000581 676.6467481599539 L 599.8626816000324 680.128348159953 L 597.5074816000415 682.9955481599318 L 595.3570816000574 684.3267481599469 L 592.4898816000205 685.8627481599688 L 592.0802816000069 688.7299481599475 L 591.0562816000311 692.0067481599399 L 589.6226816000417 694.157148159924 L 588.5986816000077 696.2051481599337 L 586.8578816000372 699.3795481599518 L 584.195481600007 702.7587481599185 L 582.045081600023 707.7763481599395 L 580.7138816000079 711.9747481599334 L 582.045081600023 715.7635481599718 L 583.376281600038 717.6067481599166 L 583.9906816000585 720.8835481599672 L 585.0146816000342 724.057948159927 L 586.2434816000168 726.7203481599572 L 587.881881600013 729.0755481599481 L 586.2434816000168 732.454748159973 L 583.7858816000517 735.8339481599396 L 580.8162816000404 738.4963481599698 L 578.6658816000563 740.2371481599403 L 575.4914816000382 741.7731481599621 L 573.2386816000217 742.8995481599704 L 568.835481600021 744.6403481599409 L 563.2034816000378 745.8691481599235 L 559.0050816000439 746.4835481599439 L 551.632281600032 744.6403481599409 L 548.5602816000464 744.3331481599598 L 546.1026816000231 745.4595481599681 L 543.7474816000322 748.4291481599212 L 542.109081600036 751.6035481599392 L 542.6210816000239 754.470748159918 L 543.7474816000322 757.337948159955 L 544.4642816000269 760.2051481599337 L 546.2050816000556 763.174748159945 L 547.3314816000639 765.9395481599495 L 545.1810816000216 768.3971481599729 L 545.8978816000163 770.6499481599312 L 549.2770816000411 772.0835481599206 L 552.9634816000471 773.5171481599682 L 556.0354816000327 774.8483481599251 L 559.9266816000454 776.9987481599674 L 562.998681600031 780.8899481599219 L 563.8178816000582 783.3475481599453 L 565.0466816000408 786.0099481599173 L 565.7634816000354 789.90114815993 L 566.0706816000165 793.587548159936 L 567.2994816000573 797.8883481599623 L 565.5586816000286 800.7555481599411 L 562.4866816000431 803.110748159932 L 562.2818816000363 806.5923481599311 L 564.0226816000068 809.4595481599681 L 565.9682816000422 811.9171481599333 L 568.4258816000074 814.3747481599567 L 569.9618816000293 816.9347481599543 L 568.9378816000535 820.6211481599603 L 568.9378816000535 823.488348159939 L 569.2450816000346 826.6627481599571 L 568.5282816000399 830.861148159951 L 567.9138816000195 835.0595481599448 L 568.3234816000331 839.0531481599319 L 567.9138816000195 842.6371481599635 L 567.5042816000059 845.6067481599166 L 568.6306816000142 848.6787481599604 L 568.4258816000074 851.5459481599391 L 566.0706816000165 851.8531481599202 L 561.3602816000348 851.238748159958 L 557.3666816000477 849.907548159943 L 554.3970816000365 850.214748159924 L 550.6082816000562 851.7507481599459 L 548.0482816000585 854.0035481599625 L 543.952281600039 855.3347481599194 L 540.8802816000534 857.3827481599292 L 536.9890816000407 859.3283481599647 L 533.405081600009 858.8163481599186 L 530.4354816000559 857.2803481599549 L 526.6466816000175 854.5155481599504 L 523.2674816000508 852.5699481599731 L 519.7858816000517 852.1603481599595 L 516.20188160002 852.1603481599595 L 513.6418816000223 852.6723481599474 L 509.44348160002846 854.8227481599315 L 504.6306816000142 855.3347481599194 L 502.17308160004904 854.4131481599179 L 500.12508160003927 853.2867481599678 L 497.0530816000537 852.8771481599542 L 496.336281600059 856.3587481599534 L 496.6434816000401 859.0211481599254 L 496.5410816000076 861.3763481599744 L 496.336281600059 863.6291481599328 L 496.7458816000144 866.1891481599305 L 494.28828160004923 867.8275481599267 L 492.13788160000695 868.5443481599214 L 489.5778816000093 869.977948159969 L 487.5298816000577 871.6163481599651 L 485.3794816000154 872.6403481599409 L 484.35548160003964 874.790748159925 L 485.4818816000479 877.2483481599484 L 487.8370816000388 880.3203481599339 L 490.3970816000365 884.0067481599399 L 493.46908160002204 885.5427481599618 L 493.16188160004094 888.8195481599541 L 491.62588160001906 892.4035481599276 L 490.70428160001757 895.4755481599714 L 493.46908160002204 897.6259481599554 L 496.4386816000333 898.1379481599433 L 499.6130816000514 899.5715481599327 L 501.66108160006115 900.697948159941 L 503.9138816000195 901.3123481599614 L 507.6002816000255 902.541148159944 L 511.90108160005184 902.2339481599629 L 515.8946816000389 903.3603481599712 L 519.6834816000191 905.5107481599553 L 522.6530816000304 907.7635481599718 L 525.1106816000538 907.9683481599204 L 529.3090816000476 907.6611481599393 L 532.58588160004 908.1731481599272 L 538.2178816000232 908.4803481599665 L 539.0370816000504 910.5283481599181 L 539.7538816000451 912.2691481599468 L 541.5970816000481 915.238748159958 L 543.8498816000065 916.1603481599595 L 545.8978816000163 917.4915481599746 L 548.4578816000139 920.0515481599723 L 551.3250816000509 922.5091481599375 L 552.7586816000403 925.0691481599351 L 553.1682816000539 928.5507481599343 L 552.3490816000267 931.9299481599592 L 552.4514816000592 935.8211481599719 L 550.9154816000373 939.0979481599643 L 550.6082816000562 942.8867481599445 L 548.7650816000532 944.1155481599271 L 546.8194816000178 944.6275481599732 L 544.5666816000594 945.0371481599286 L 541.3922816000413 945.1395481599611 L 541.8018816000549 947.6995481599588 L 540.7778816000209 951.8979481599526 L 543.2354816000443 954.7651481599314 L 545.3858816000284 957.2227481599548 L 544.0546816000133 959.9875481599593 L 540.7778816000209 961.5235481599229 L 538.6274816000368 962.6499481599312 L 536.3746816000203 965.2099481599289 L 532.9954816000536 967.0531481599319 L 530.3330816000234 967.4627481599455 L 527.9778816000326 967.7699481599266 L 525.8274816000485 968.384348159947 L 523.7794816000387 968.8963481599349 L 521.219481600041 969.6131481599296 L 518.8642816000502 970.3299481599242 L 518.9666816000245 972.6851481599733 L 517.9426816000487 975.245148159971 L 515.1778816000442 979.1363481599255 L 509.64828160003526 981.1843481599353 L 506.2690816000104 983.744348159933 L 505.6546816000482 987.430748159939 L 504.4258816000074 991.7315481599653 L 506.4738816000172 993.1651481599547 L 510.26268160005566 994.291548159963 L 514.2562816000427 995.3155481599388 L 518.7618816000177 995.4179481599713 L 522.8578816000372 995.4179481599713 L 525.725081600016 993.7795481599169 L 529.3090816000476 992.9603481599479 L 532.1762816000264 993.3699481599615 L 533.2002816000604 995.4179481599713 L 534.5314816000173 997.7731481599621 L 536.3746816000203 1001.3571481599356 L 537.6034816000611 1004.3267481599469 L 538.6274816000368 1006.8867481599445 L 539.0370816000504 1009.7539481599233 L 536.4770816000528 1012.313948159921 L 534.1218816000619 1013.337948159955 L 531.8690816000453 1014.5667481599376 L 528.1826816000394 1015.7955481599201 L 526.1346816000296 1017.5363481599488 L 524.7010816000402 1019.9939481599722 L 524.905881600047 1022.5539481599699 L 525.6289075200621 1024.0" fill="none"/><path stroke="#000000" stroke-width="2" d="M 525.6289075201203 1024.0 L 524.905881600047 1022.5539481599699 L 524.7010816000984 1019.9939481598558 L 526.1346816000296 1017.5363481598906 L 528.1826816000394 1015.7955481599201 L 531.8690816001035 1014.5667481599376 L 534.1218816000619 1013.337948159955 L 536.477081600111 1012.3139481598046 L 539.0370816001086 1009.7539481599233 L 538.6274816000368 1006.8867481598863 L 537.6034816000611 1004.3267481599469 L 536.3746816000203 1001.3571481598192 L 534.5314816000173 997.7731481599621 L 533.2002816001186 995.4179481599131 L 532.1762816000264 993.3699481599615 L 529.3090816001059 992.9603481599479 L 525.7250816000742 993.7795481598587 L 522.8578816000372 995.4179481599131 L 518.7618816000177 995.4179481599131 L 514.2562816001009 995.315548159997 L 510.26268160005566 994.2915481598466 L 506.4738816000172 993.1651481599547 L 504.4258816000074 991.7315481599071 L 505.6546816000482 987.4307481598807 L 506.2690816000686 983.744348159933 L 509.64828160009347 981.1843481598189 L 515.1778816000442 979.1363481599255 L 517.9426816000487 975.2451481599128 L 518.9666816000245 972.6851481599733 L 518.8642816001084 970.3299481599242 L 521.219481600041 969.6131481599296 L 523.7794816000387 968.8963481599349 L 525.8274816000485 968.384348159947 L 527.9778816000326 967.7699481598684 L 530.3330816000816 967.4627481598873 L 532.9954816000536 967.0531481598737 L 536.3746816000203 965.2099481599289 L 538.6274816000368 962.649948159873 L 540.7778816000791 961.5235481598065 L 544.0546816000715 959.9875481598428 L 545.3858816000866 957.2227481599548 L 543.2354816000443 954.7651481599314 L 540.7778816000791 951.8979481598944 L 541.8018816000549 947.6995481599588 L 541.3922816000413 945.1395481599029 L 544.5666816000594 945.0371481599286 L 546.8194816000178 944.627548159915 L 548.7650816001114 944.1155481599271 L 550.6082816000562 942.8867481599445 L 550.9154816000373 939.0979481598479 L 552.4514816000592 935.8211481599137 L 552.3490816000267 931.9299481599592 L 553.1682816000539 928.5507481599343 L 552.7586816000403 925.0691481598187 L 551.3250816001091 922.5091481598793 L 548.4578816000721 920.0515481599141 L 545.8978816000745 917.4915481600328 L 543.8498816000647 916.1603481599013 L 541.5970816001063 915.2387481598998 L 539.7538816001033 912.2691481599468 L 539.0370816001086 910.5283481599763 L 538.2178816000815 908.4803481598501 L 532.58588160004 908.173148159869 L 529.3090816001059 907.6611481599393 L 525.1106816000538 907.9683481598622 L 522.6530816000886 907.7635481598554 L 519.6834816000191 905.510748159897 L 515.8946816000389 903.3603481598548 L 511.90108160005184 902.2339481599629 L 507.6002816000837 902.541148159944 L 503.9138816000195 901.3123481599614 L 501.66108160006115 900.6979481598246 L 499.6130816000514 899.5715481599909 L 496.4386816000333 898.1379481599433 L 493.46908160002204 897.6259481599554 L 490.7042816000758 895.4755481599132 L 491.62588160001906 892.4035481598694 L 493.16188160004094 888.8195481598377 L 493.46908160002204 885.5427481599036 L 490.3970816000365 884.0067481599981 L 487.8370816000388 880.3203481598175 L 485.4818816000479 877.2483481599484 L 484.35548160009785 874.7907481599832 L 485.37948160007363 872.6403481599409 L 487.5298816001159 871.6163481599651 L 489.5778816000093 869.9779481599107 L 492.13788160000695 868.5443481599214 L 494.28828160004923 867.8275481598685 L 496.7458816000144 866.1891481598723 L 496.336281600059 863.6291481599328 L 496.5410816000658 861.3763481599744 L 496.6434816000983 859.0211481599254 L 496.336281600059 856.3587481599534 L 497.0530816000537 852.8771481600124 L 500.12508160003927 853.2867481598514 L 502.17308160004904 854.4131481599179 L 504.6306816000142 855.334748159803 L 509.44348160008667 854.8227481598151 L 513.6418816000223 852.6723481599474 L 516.20188160002 852.1603481599595 L 519.7858816000517 852.1603481599595 L 523.267481600109 852.5699481598567 L 526.6466816000175 854.515548159834 L 530.4354816000559 857.2803481599549 L 533.4050816000672 858.8163481599186 L 536.9890816000989 859.3283481599065 L 540.8802816001116 857.382748159871 L 543.952281600039 855.334748159803 L 548.0482816001168 854.0035481598461 L 550.6082816000562 851.7507481599459 L 554.3970816000947 850.2147481598076 L 557.3666816000477 849.9075481598265 L 561.3602816000348 851.238748159958 L 566.0706816000747 851.853148159862 L 568.4258816000074 851.5459481598809 L 568.6306816000724 848.678748159844 L 567.5042816000059 845.6067481598002 L 567.9138816000195 842.6371481598471 L 568.3234816000331 839.0531481599901 L 567.9138816000195 835.0595481598866 L 568.5282816000399 830.8611481598928 L 569.2450816000346 826.6627481599571 L 568.9378816001117 823.4883481599973 L 568.9378816001117 820.6211481599603 L 569.9618816000875 816.9347481599543 L 568.4258816000074 814.3747481598984 L 565.9682816000422 811.9171481598751 L 564.022681600065 809.4595481599099 L 562.2818816000945 806.5923481598729 L 562.4866816001013 803.110748159932 L 565.5586816000869 800.7555481598829 L 567.2994816000573 797.8883481598459 L 566.0706816000747 793.5875481599942 L 565.7634816000354 789.9011481598136 L 565.046681600099 786.0099481598008 L 563.8178816001164 783.3475481598289 L 562.9986816000892 780.8899481598637 L 559.9266816001036 776.998748159851 L 556.0354816000327 774.8483481598087 L 552.9634816000471 773.51714815991 L 549.2770816000993 772.0835481598624 L 545.8978816000745 770.649948159873 L 545.1810816000798 768.3971481599147 L 547.3314816000639 765.9395481599495 L 546.2050816001138 763.1747481598286 L 544.4642816000269 760.2051481598755 L 543.7474816000322 757.3379481598386 L 542.6210816000821 754.4707481598016 L 542.1090816000942 751.6035481599392 L 543.7474816000322 748.4291481599212 L 546.1026816000813 745.4595481599681 L 548.5602816000464 744.3331481599016 L 551.632281600032 744.6403481598827 L 559.0050816001021 746.4835481599439 L 563.2034816000378 745.8691481598653 L 568.8354816000792 744.6403481598827 L 573.2386816000799 742.8995481599122 L 575.4914816000964 741.7731481598457 L 578.6658816001145 740.237148159882 L 580.8162816000404 738.4963481599116 L 583.7858816001099 735.8339481598814 L 586.243481600075 732.4547481599147 L 587.881881600013 729.0755481598899 L 586.243481600075 726.7203481600154 L 585.0146816000924 724.0579481598106 L 583.9906816001167 720.8835481600254 L 583.376281600038 717.6067481599166 L 582.045081600023 715.76354816003 L 580.7138816000079 711.9747481599334 L 582.045081600023 707.7763481598231 L 584.1954816000652 702.7587481599185 L 586.8578816000372 699.3795481598936 L 588.5986816000077 696.2051481599337 L 589.6226816000999 694.1571481598075 L 591.0562816000893 692.0067481599399 L 592.0802816000651 688.7299481598893 L 592.4898816000205 685.8627481598523 L 595.3570816000574 684.3267481598887 L 597.5074816000997 682.9955481598154 L 599.8626816000324 680.128348159953 L 599.7602816000581 676.6467481598374 L 599.7602816000581 673.2675481598126 L 600.4770816000528 669.8883481599623 L 600.7842816000921 666.5091481599375 L 601.8082816000679 664.1539481598884 L 602.42268160003 661.6963481599232 L 602.3202816000558 658.2147481598076 L 603.4466816000058 654.5283481598017 L 603.4466816000058 649.9203481599689 L 601.3986816001125 646.9507481598412 L 599.6578816000256 644.3907481599599 L 597.8146816000226 640.9091481598443 L 596.1762816000846 638.2467481598142 L 594.4354816001141 634.6627481599571 L 593.3090816000476 631.0787481599255 L 591.6706816001097 627.9043481599074 L 593.616281600087 625.856348160014 L 595.7666816000128 623.9107481598039 L 598.429081600043 621.4531481598387 L 601.6034816001193 619.3027481599711 L 604.265881600033 616.6403481599991 L 605.2898816000088 613.977948159969 L 608.1570816000458 613.0563481599092 L 612.3554816000978 612.5443481599796 L 614.813081600063 610.2915481600212 L 616.8610816000728 608.3459481598111 L 619.9330816000584 605.8883481598459 L 622.2882816001074 604.6595481598633 L 625.4626816000091 604.3523481598822 L 628.3298816000461 603.7379481598036 L 630.1730816001073 600.8707481599413 L 630.2754816000233 597.6963481598068 L 630.992281600018 594.3171481599566 L 630.6850816000951 590.7331481599249 L 630.2754816000233 587.4563481598161 L 631.0946816000505 582.9507481598994 L 632.6306816000142 580.3907481598435 L 636.6242816001177 578.2403481598012 L 640.6178816001047 577.6259481598972 L 644.0994816000457 577.4211481598904 L 646.3522816001205 576.1923481598496 L 644.3042816001107 573.4275481599616 L 642.1538816000684 570.4579481600085 L 638.3650816000882 570.0483481599367 L 634.1666816000361 568.2051481598755 L 630.7874816000112 566.4643481599051 L 630.8898816000437 564.1091481600306 L 632.221081600117 561.8563481598976 L 635.0882816000958 552.8451481598895 L 632.8354754560278 549.670750207908 L 631.6066816000384 546.7011481599184 L 628.1250816000975 545.267548159929 L 624.4386816000333 544.0387481599464 L 620.9570816000924 543.5267481599585 L 619.2162816001219 541.1715481599094 L 618.1922816000879 538.7139481598861 L 615.1202816001023 536.1539481598302 L 613.4818816000479 533.3891481598839 L 613.0722816000925 530.9315481599187 L 613.0722816000925 528.0643481598818 L 613.3794816000154 524.173148159869 L 611.638681600045 520.0771481598495 L 611.126681600057 515.8787481599138 L 611.638681600045 512.2947481598821 L 613.7890816000872 510.14434815983986 L 616.4514816001174 509.632348159852 L 619.2162816001219 509.1203481598641 L 624.0290826240671 508.30114918382606 L 628.2274816000136 507.6867481598747 L 631.0946816000505 506.8675491838367 L 634.7810816001147 508.3011481599533 L 638.9794816000503 509.9395481600077 L 641.6418816000805 509.4275481600198 L 644.5090816001175 508.3011481599533 L 646.6594816000434 507.0723481599707 L 650.1410816001007 506.3555481599178 L 654.5442816000432 506.5603481599828 L 657.411481600022 506.2531481598271 L 660.1762816000264 505.0243481598445 L 663.0434816000634 504.10274815995945 L 666.2178816000815 501.84994815982645 L 667.8562816000194 499.3923481598613 L 668.9826816000859 496.3203481598175 L 671.4402816000511 494.47714815993095 L 673.2834816000541 491.5075481599779 L 671.5426816000836 487.6163481599651 L 668.6754816000466 485.56834815983893 L 667.139481600083 483.0083481599577 L 666.6274816000368 480.5507481599925 L 667.446681600064 477.0691481598187 L 669.6994816000806 474.61154815985356 L 670.6210816000239 471.8467481599073 L 671.2354816000443 468.46754815994063 L 670.4162816000171 463.8595481599332 L 669.2898816000088 460.6851481599151 L 668.1634816000587 458.73954815993784 L 670.0066816001199 457.51074815995526 L 672.1570816000458 456.17954815982375 L 674.0002816000488 453.2099481598707 L 676.150681600091 448.49954815994715 L 677.6866816001129 444.7107481598505 L 679.8370816000388 443.0723481600289 L 681.4754816000932 441.1267481598188 L 683.4210816000123 439.07874815992545 L 685.1618816000409 436.72354815981817 L 685.9810816000099 433.651548159949 L 681.8850816000486 430.47714815998916 L 679.3250816000509 427.3027481599711 L 677.5842816000222 424.6403481599991 L 676.2530816000071 423.00194815994473 L 674.1026816000813 421.56834815989714 L 671.952281600039 419.72514815983595 L 674.2050816000556 417.6771481598844 L 677.789081600029 416.7555481598829 L 680.656281600066 415.4243481599842 L 682.3970816000365 413.8883481598459 L 684.137881600007 412.14754815987544 L 685.8786816000938 409.1779481599224 L 687.1074816000764 404.9795481599285 L 689.7698816000484 402.72674816002836 L 691.6130816000514 400.3715481599211 L 693.4562816000544 397.8115481598652 L 691.203481600096 395.3539481599 L 689.4626816000091 392.58914815995377 L 688.4386816000915 390.0291481598397 L 690.8962816000567 387.4691481599584 L 693.2514816001058 384.19234815984964 L 694.173081600049 379.3795481598354 L 693.8658816000097 375.48834815982264 L 694.7874816000694 372.3139481598628 L 695.7090816000127 370.1635481598205 L 693.6610816000612 366.06754815980094 L 694.7874816000694 360.7427481599734 L 692.841881600034 357.56834815995535 L 690.5890816000174 354.3939481599955 L 688.2338816000265 353.062748159864 L 686.1858816000167 350.0931481599109 L 684.7526789120166 348.25045913580107 L 682.7031255040783 347.2265625599539 L 680.6562498560525 346.5078128639725 L 678.2968750080327 345.79296870389953 L 674.7187496960978 345.9960934398114 L 672.0546877440647 346.1015623678686 L 664.6796871680417 345.07421900791815 L 661.6093747200212 343.84765644784784 L 659.7656248320709 341.80078079982195 L 657.2109373440617 338.2148433920229 L 652.8046878721216 339.2382812158321 L 648.6093752320157 339.2382812158321 L 645.8359377920278 339.5468748798012 L 642.359374848078 340.3632814078592 L 637.546874880034 340.87890636798693 L 634.0624998400453 343.2304691199097 L 630.4765624320135 345.17968793585896 L 626.7968747520936 343.640625151922 L 623.7187502080342 343.12890675186645 L 619.6249989120988 343.4374973439262 L 616.2421872640844 344.7695308799157 L 612.5624995841063 347.4296872958075 L 610.3046871040133 348.5585940479068 L 607.9531253760797 348.35156275180634 L 604.7812495360267 346.8164065279416 L 603.9609374720603 348.76171878381865 L 602.1171875840519 351.11718707188265 L 597.4062499841093 350.39843737590127 L 588.289062912052 347.94140671996865 L 585.3203128320747 349.17187481583096 L 582.8671877121087 350.6054686718271 L 579.1796879360336 351.8320312318974 L 574.5703127040179 353.7812500478467 L 571.2968744960963 355.62109337584116 L 569.4531246080878 356.6484377598972 L 567.7109370880062 357.261718527996 L 563.5078123520943 358.999999487889 L 560.0312504320173 359.30859417596366 L 559.1093749760767 363.30468761583325 L 559.4140620800899 367.50000025582267 L 552.0390625280561 373.1328122879495 L 548.6640629760223 374.8749998079147 L 545.4921871360275 376.9218754559406 L 539.5468748800922 376.8203120639664 L 534.6328125441214 377.1250001920271 L 531.8671872000559 376.7187496959814 L 526.7500001281151 375.9999999999418 L 523.4687498240964 375.07812454382656 L 521.1171870720573 373.33984358387534 L 518.4531251200242 372.31250022392487 L 513.7421875200234 370.6757816320169 L 510.97656217601616 367.50000025582267 L 507.28906240005745 368.21874995180406 L 502.78906265605474 369.34375014383113 L 498.69531238405034 369.34375014383113 L 494.9062502400484 369.0390620158287 L 491.52343756810296 368.62890598381637 L 488.3515627520392 368.11718758393545 L 483.9453122561099 366.57812479982385 L 480.57031270407606 364.4296878078603 L 478.10937548807124 362.48437452787766 L 475.0390620160615 361.562500095868 L 472.1718753281166 360.53906227182597 L 468.5859379200847 359.30859417596366 L 466.1249996800907 361.7656248318963 L 464.0781250561122 363.7109370880062 L 459.46874982403824 363.917968383932 L 456.3984373760177 363.917968383932 L 453.84374988800846 364.4296878078603 L 450.0546877440065 366.06640639994293 L 446.97656217601616 367.70703155192314 L 444.8281251840526 366.88671846396755 L 442.2656245760154 365.8632816639147 L 439.8125004800386 365.4531246079714 L 437.96874956804095 367.08984422381036 L 436.1249996800907 368.52343705587555 L 433.97656268801074 370.36718796781497 L 431.82812467205804 372.0078120958642 L 429.9843747840496 373.746094079921 L 428.1406248960993 375.07812454382656 L 426.19531264004763 375.48828159994446 L 423.7343754240428 374.66796851181425 L 420.56249958410626 373.95312537584687 L 417.6953128960449 375.89843763195677 L 414.92968755203765 375.3867192319012 L 411.74999961606227 373.6445317118778 L 409.8046873600106 372.62109388789395 L 406.6328125440632 373.03124991990626 L 402.84375040006125 372.4179691518075 L 399.7734379520407 371.39062476792606 L 397.0078126080334 370.36718796781497 L 394.24218726402614 368.21874995180406 L 393.1171870721155 365.0429685759591 L 395.3671874560532 362.89453158382094 L 397.3124997120467 360.53906227182597 L 397.0078197760158 357.8749941759743 L 394.5468753920286 354.90625023987377 L 391.37499955209205 352.03906252788147 L 388.20312473602826 350.29687500785803 L 385.33593702409416 349.7851566078025 L 381.85156300803646 349.2734371838742 L 379.28906240011565 348.8632811518619 L 376.01562521600863 348.8632811518619 L 372.9453127680463 348.5585940479068 L 371.30468761600787 346.20312473591184 L 369.4609377280576 342.61718732787995 L 372.42968780809315 339.44531251193257 L 375.50781235209433 337.08984422386857 L 373.3515622400446 334.93749964796007 L 369.6640624640859 335.44921907188836 L 366.18749952007784 334.7343749118736 L 367.5156254720059 333.30078105587745 L 368.03125043201726 331.24999987188494 L 367.5156254720059 328.1796874239808 L 371.30468761600787 326.2343751678709 L 373.8671872000559 324.80078131187474 L 376.83593728003325 323.57031219190685 L 378.88281292811735 321.83203123201383 L 381.1406254080357 320.3984373759595 L 383.1875000320724 318.8593745918479 L 385.5390627840534 316.0976558079128 L 385.1328122880077 311.79687526397174 L 385.6406251520384 308.21093785593985 L 385.9453122560517 305.0390620158869 L 387.38281267212005 302.57812479988206 L 388.0000000000582 299.71093708783155 L 385.23437465605093 297.5625000959262 L 383.4921871360857 294.5937500158325 L 380.3203123200219 293.26171852782136 L 378.06249984010356 291.8281246718252 L 375.3984378880705 291.1093749758438 L 373.56250009604264 289.3710940158926 L 371.50781235209433 287.7304688639124 L 369.05468723201193 285.07031244784594 L 365.57031219202327 284.0468746238621 L 363.7265623040148 283.42968729586573 L 362.4999997441191 279.02734335995046 L 361.37499955209205 275.2382812158903 L 358.0937502720626 273.19140659197 L 354.51562496006954 272.2695311359712 L 351.74999961606227 272.0624998398707 L 348.367187968106 271.34765670390334 L 346.11718758411007 269.71093708794797 L 344.1718753280584 267.66015590395546 L 339.96874956804095 267.66015590395546 L 335.6718745600665 269.6054691839381 L 332.60156211204594 269.4023434239789 L 330.3437496320694 268.6835937279393 L 327.78906214411836 267.76171827182407 L 325.42968729609856 267.66015590395546 L 322.2578124800348 269.4023434239789 L 318.6718750721193 269.7070315518067 L 315.60156262409873 268.48046899191104 L 312.5312501760782 266.7382814718876 L 308.9453127680463 266.1249996799161 L 306.4843745280523 268.9921873919666 L 306.69531238405034 272.0624998398707 L 306.0781250561122 274.21484339184826 L 304.2343751680455 276.1601566718309 L 301.7734379520989 277.4921871359111 L 298.70312550407834 279.43750041589374 L 299.01562470401404 282.61328076780774 L 297.6796876800363 285.07031244784594 L 296.7578122240957 287.7304688639124 L 295.6328120320686 289.88281241594814 L 292.7656253440073 291.7265623039566 L 289.2812503040186 292.85156249580905 L 286.4140625920845 292.75000012799865 L 283.34375014406396 292.9531248638523 L 280.6796871680999 292.2382817279431 L 277.7109370880062 292.75000012799865 L 274.02343731204746 293.67187455983367 L 269.6249999360298 294.4882810879499 L 266.7578122240957 294.8984371199622 L 264.0937502721208 297.8671871998231 L 260.921875456057 301.453124607855 L 258.66406297608046 303.9101562878932 L 257.84374988800846 307.4960936959251 L 256.3125002240413 309.1328122880077 L 254.16406220808858 309.9531253759051 L 250.47656243201345 310.1562501118169 L 246.9921873920248 310.5664061438292 L 243.20312524802284 309.9531253759051 L 239.10937497607665 310.25781247986015 L 236.64843776001362 307.90234419197077 L 236.4453120001126 304.3203123199055 L 236.8515624961001 302.2734376959852 L 234.29687500809086 301.5546880000038 L 231.01562470407225 301.1445309438859 L 227.84374988800846 300.53125017596176 L 225.0781245441176 300.3281254398753 L 223.03124992008088 299.4062499839347 L 221.18750003207242 297.5625000959262 L 219.1406254080357 296.2304686079151 L 217.5000002561137 295.105468415888 L 217.29687449603807 292.2382817279431 L 219.64843724801904 289.4726563839358 L 221.59374950401252 288.0390625279397 L 222.82812518411083 286.29687500791624 L 222.00781209609704 283.3281249278225 L 222.4140625920263 280.66796851193067 L 224.25781248009298 278.8242186239222 L 225.69531289604492 276.8749998079729 L 228.56249958410626 275.03515647980385 L 231.83593779208604 274.21484339184826 L 233.37499955209205 272.6796871678089 L 235.624999936088 271.0390620158869 L 236.4453120001126 268.89062502392335 L 238.18749952001963 266.3281254398753 L 239.41406208008993 263.5664066559402 L 240.03125043207547 260.80078131193295 L 238.39062528009526 259.6757811199059 L 237.46874982403824 257.52343756787013 L 239.21093734411988 255.37499955185922 L 238.39062528009526 252.09765580797102 L 239.8203125760774 248.20703129586764 L 237.88281241600635 246.0546877438319 L 234.80468787206337 244.72265625587897 L 232.14062489609933 243.59765606396832 L 231.7343754240428 240.832031743892 L 228.86718771210872 239.50000025593909 L 226.20312473602826 238.06640639988473 L 224.46093721606303 236.83984383981442 L 222.51562496001134 237.0429685759009 L 221.0859376640292 235.9179683838738 L 220.3671879680478 233.97265612799674 L 219.64843724801904 231.4101565439487 L 219.03906201611971 228.33984409586992 L 218.62500044802437 224.34765619196696 L 214.83593728003325 226.5976565758465 L 211.7656248320127 227.92968703992665 L 209.10156288003782 228.33984409586992 L 206.1328128000605 229.3632808959228 L 202.34374963206938 227.92968703992665 L 198.55468748806743 225.16406271985034 L 195.5859374080901 223.01562470395584 L 190.97656217607437 223.7304688639706 L 185.24218777607894 223.7304688639706 L 179.4062499840511 223.01562470395584 L 173.98437478410779 221.68359423987567 L 171.82812467205804 218.40625049587106 L 169.57812531205127 216.15234355191933 L 167.83593779202783 213.39062476792606 L 164.25000038411235 211.85156300792005 L 159.74999961606227 210.8281251839362 L 156.06249984010356 208.6796871678671 L 153.29687449609628 206.32421887980308 L 150.6328125441214 205.19531212787842 L 148.58593792002648 204.17187532800017 L 146.33593753603054 202.53515673585935 L 145.20312524808105 200.79296921589412 L 143.15624960005516 198.9492183039547 L 142.33593753603054 196.18749952001963 L 141.82812467211625 192.9101557759568 L 139.57812531205127 191.26953164790757 L 136.60156211204594 190.1445314558805 L 132.92187545605702 191.37499955191743 L 128.7187496960978 192.6015621118131 L 125.85156300809467 192.6015621118131 L 122.2656245760154 192.70312550390372 L 118.6875002880115 194.85546905593947 L 114.58593792008469 195.98046924796654 L 111.51562547206413 201.71484364796197 L 107.42187520005973 202.2265620480175 L 104.55468748800922 195.98046924796654 L 104.55468748800922 191.26953164790757 L 107.21875046408968 187.37890611187322 L 104.75781222409569 183.48828159988625 L 103.53124966402538 180.92968755186303 L 97.79687526402995 181.44140595191857 L 91.96093747211853 179.39062476792606 L 86.53125017601997 177.6523438078002 L 84.07812505605398 176.11718758393545 L 80.7968737280462 175.39843891182682 L 78.64843776001362 172.22265651193447 L 76.90624716802267 169.56250214384636 L 74.03906252805609 168.02734387194505 L 75.36718745611142 164.5429688319564 L 74.34374963201117 162.5976565759047 L 73.21875046403147 160.5507809278788 L 76.18749952001963 158.39843737590127 L 77.92968704004306 156.5585940479068 L 75.57031219208147 153.17968793580076 L 73.73437542404281 149.80078079982195 L 64.41406259202631 146.93359411187703 L 61.031249920022674 147.44531251193257 L 56.53125017601997 145.70312499196734 L 53.86718720005592 143.1406254079193 L 54.687500288011506 140.58203135983786 L 56.53125017601997 137.61328127980232 L 58.06249984004535 135.15624959993875 L 61.851563008036464 134.43749990395736 L 64.41406259202631 132.49218764790567 L 69.2265625600703 126.96484351996332 L 70.14843699202174 123.48046847997466 L 70.25000038405415 120.51171839988092 L 69.2265625600703 115.80078079982195 L 67.48437504004687 113.65234380785841 L 65.74218752008164 110.17187532794196 L 66.3593748480198 107.60937472002115 L 64.92187545605702 105.05078169587068 L 66.05468774400651 101.67187455983367 L 68.10156236804323 99.00781260780059 L 70.65624985605245 97.98437478399137 L 71.57812531210948 95.52734412788413 L 73.01562470407225 92.25000038382132 L 77.92968704004306 90.5078128639725 L 79.25781299202936 88.35937484796159 L 77.62499993602978 84.4687503358 L 75.57812531210948 82.72656281583477 L 71.6796876800363 82.01171865599463 L 69.32812492811354 82.3164057598915 L 66.25781248009298 82.11328102380503 L 63.695312896044925 80.3710935038398 L 59.50000025611371 77.71093708794797 L 55.4062499840511 76.58203135989606 L 51.20312524802284 75.35546879982576 L 48.43749990401557 75.14843750389991 L 43.62499993608799 72.89453158387914 L 40.35156275209738 71.35937536001438 L 41.16368588805199 68.39062937593553 L 38.406250496103894 66.03515596792568 L 36.56249958410626 64.08984371187398 L 34.00000000005821 63.16796825587517 L 31.539062784053385 62.75781222386286 L 29.18750003207242 61.93750015983824 L 27.648437248019036 60.914062335854396 L 25.914062848081812 59.99218790396117 L 23.968749568099156 58.04687462380389 L 21.4062499840511 55.589843967871275 L 18.640624640043825 52.92968755180482 L 15.468749824096449 52.007812095806 L 13.929687040101271 50.777343999943696 L 13.828124672058038 47.195312127878424 L 10.242187264026143 44.632812543888576 L 8.812499968043994 42.58593791996827 L 6.968750080035534 41.35546879982576 L 6.148436992021743 38.695312383933924 L 0.0 33.62247933742037" fill="none"/><path stroke="#408040" stroke-width="3" d="M 1024.0 112.87040583143971 L 991.2422400000069 90.31680000000051 L 915.7734400000045 62.45375999999669 L 870.2054400000052 38.55359999999928 L 836.8435199999949 12.431360000002314 L 818.4202802880463 0.0" fill="none"/><path stroke="#408040" stroke-width="3" d="M 594.5412860759534 0.0 L 589.6601599999995 5.49887999999919 L 577.1980800000019 8.755199999999604 L 552.857600000003 3.307520000002114 L 538.8181503999949 0.0" fill="none"/></svg>