<svg xmlns="http://www.w3.org/2000/svg" width="1024" height="1024"><rect stroke="none" x="0" y="0" width="1024" height="1024" fill="white"/><path stroke="#000000" stroke-width="2" d="M 0.0 5.003906047961209 L 5.820766091346741e-11 5.003906047961209 L 7.7890621440601535 5.105468415829819 L 11.164062720024958 5.210937343945261 L 14.648437760013621 5.210937343945261 L 27.039062016119715 5.515625471947715 L 31.031249920022674 5.621093375957571 L 34.203124736086465 5.722655743942596 L 48.64062464010203 6.027343872003257 L 57.757812736032065 6.132812799885869 L 63.289062400057446 6.234375167929102 L 73.01562470401404 6.644531199941412 L 85.9140628480236 7.156249599822331 L 97.28125030401861 7.460937727824785 L 103.11718707205728 7.359375359956175 L 107.21875046408968 7.5664066558820195 L 121.55468800006201 7.871093759837095 L 124.42187468812335 7.976562687894329 L 128.0000000000582 7.976562687894329 L 136.71093760011718 8.179687423806172 L 144.8984371200786 8.179687423806172 L 149.60937472002115 8.281249791849405 L 156.57031270401785 8.281249791849405 L 159.13281228812411 8.382812159892637 L 161.79687526408816 8.281249791849405 L 167.1171870721737 8.281249791849405 L 176.85156249604188 8.382812159892637 L 210.1249996800907 8.382812159892637 L 221.4921871360275 8.281249791849405 L 250.06249984004535 8.281249791849405 L 256.921875456057 8.078125055937562 L 266.9609379840549 7.976562687894329 L 287.8515630080947 7.976562687894329 L 293.6874997760169 7.871093759837095 L 297.9843747841078 7.871093759837095 L 303.51562547212234 7.976562687894329 L 313.1406254080357 8.078125055937562 L 331.7812500480213 8.078125055937562 L 336.99999948812183 8.179687423806172 L 340.5859379200265 8.382812159892637 L 357.48437504004687 8.382812159892637 L 367.41406208008993 8.488281087949872 L 376.42968780809315 8.691405823861714 L 379.1875000320724 8.691405823861714 L 384.0000000001746 8.792969216010533 L 400.7968747521518 9.000000511936378 L 421.1718748160638 9.000000511936378 L 431.61718784010736 9.10156287997961 L 440.01562521606684 9.203125248022843 L 455.1718748160638 9.203125248022843 L 461.4140620800317 9.304687615833245 L 483.84374988806667 9.51171891199192 L 488.14843699207995 9.51171891199192 L 493.7734379520407 9.406249983876478 L 511.898437632015 9.406249983876478 L 521.4218752001179 9.51171891199192 L 544.9765621760744 9.51171891199192 L 553.171874816122 9.410156543948688 L 557.6718745601247 9.304687615833245 L 562.281249792024 9.304687615833245 L 573.9531253760797 9.203125248022843 L 576.8203120640246 9.203125248022843 L 579.6874997760751 9.10156287997961 L 585.3203128320165 9.10156287997961 L 594.8437504000613 8.894531583820935 L 603.2421877760207 8.691405823861714 L 608.0546877440647 8.589843455818482 L 616.1406248960411 8.488281087949872 L 640.4140625920263 8.488281087949872 L 644.5078128640307 8.589843455818482 L 660.0703129600151 8.691405823861714 L 672.2578124800348 8.792969216010533 L 694.992187392083 9.000000511936378 L 697.5546880001202 9.000000511936378 L 705.2343746560509 9.10156287997961 L 710.758855680062 9.150055423961021 L 716.8046878720634 9.203125248022843 L 725.2031252480228 9.203125248022843 L 759.6093747200794 9.613281279802322 L 768.0000000001164 9.613281279802322 L 770.460937216063 9.816406015888788 L 781.4140620800317 9.816406015888788 L 799.8515630081529 10.023437311814632 L 813.26562508801 10.023437311814632 L 833.1328122881823 10.124999679857865 L 840.6015621120459 10.124999679857865 L 867.8437498880667 10.328125439875294 L 882.4843745281105 10.433593343826942 L 896.0000000000582 10.433593343826942 L 919.9687495680992 10.535156735975761 L 932.460937216063 10.63671910384437 L 937.4765629440662 10.63671910384437 L 949.2499998720596 10.738281471887603 L 961.2343746561091 10.738281471887603 L 971.0625003520399 10.843750399944838 L 984.3750000640284 10.945312767813448 L 995.7421875200234 11.04687513585668 L 1016.3203123200219 11.249999871943146 L 1024.0 11.249999871943146" fill="none"/><path stroke="#000000" stroke-width="2" d="M 1024.0 11.249999871943146 L 1016.3203123200219 11.249999871943146 L 995.7421875200234 11.046875135973096 L 984.3750000640284 10.945312767929863 L 971.0625003520399 10.843750399944838 L 961.2343746560509 10.738281471945811 L 949.2499998720596 10.738281471945811 L 937.4765629440662 10.636719103960786 L 932.460937216063 10.636719103960786 L 919.968749568041 10.535156735975761 L 896.0000000000582 10.433593343943357 L 882.4843745280523 10.433593343943357 L 867.8437498880667 10.328125439933501 L 840.6015621120459 10.12499967997428 L 833.1328122880659 10.12499967997428 L 813.26562508801 10.023437311931048 L 799.8515630080365 10.023437311931048 L 781.4140620800317 9.816406015946995 L 770.460937216063 9.816406015946995 L 768.0000000000582 9.613281279918738 L 759.6093747200212 9.613281279918738 L 725.2031252480228 9.203125247964635 L 716.8046878720634 9.203125247964635 L 710.758855680062 9.150055423961021 L 705.2343746560509 9.101562879921403 L 697.554688000062 9.000000511936378 L 694.9921873920248 9.000000511936378 L 672.2578124800348 8.792969215952326 L 660.0703129600151 8.691405823919922 L 644.5078128640307 8.589843455934897 L 640.4140625920263 8.488281087949872 L 616.1406248960411 8.488281087949872 L 608.0546877440647 8.589843455934897 L 603.2421877760207 8.691405823919922 L 594.8437504000613 8.89453158393735 L 585.3203128320165 9.101562879921403 L 579.6874997760169 9.101562879921403 L 576.8203120640246 9.203125247964635 L 573.9531253760215 9.203125247964635 L 562.281249792024 9.30468761594966 L 557.6718745600665 9.30468761594966 L 553.1718748160638 9.410156543948688 L 544.9765621760162 9.511718911933713 L 521.4218752000597 9.511718911933713 L 511.898437632015 9.406249983934686 L 493.7734379520407 9.406249983934686 L 488.14843699202174 9.511718911933713 L 483.84374988806667 9.511718911933713 L 461.4140620800317 9.30468761594966 L 455.1718748160638 9.203125247964635 L 440.01562521606684 9.203125247964635 L 431.61718784004916 9.101562879921403 L 421.1718748160638 9.000000511936378 L 400.79687475203536 9.000000511936378 L 384.0000000000582 8.792969215952326 L 379.1875000320142 8.691405823919922 L 376.42968780803494 8.691405823919922 L 367.4140620800317 8.488281087949872 L 357.48437504004687 8.382812159950845 L 340.5859379200265 8.382812159950845 L 336.9999994880636 8.179687423922587 L 331.7812500480213 8.078125055937562 L 313.1406254080357 8.078125055937562 L 303.51562547206413 7.976562687952537 L 297.9843747840496 7.87109375995351 L 293.6874997760169 7.87109375995351 L 287.85156300803646 7.976562687952537 L 266.9609379840549 7.976562687952537 L 256.921875456057 8.078125055937562 L 250.06249984004535 8.28124979196582 L 221.4921871360275 8.28124979196582 L 210.1249996800325 8.382812159950845 L 176.85156249604188 8.382812159950845 L 167.11718707205728 8.28124979196582 L 161.79687526402995 8.28124979196582 L 159.1328122880659 8.382812159950845 L 156.57031270401785 8.28124979196582 L 149.60937472002115 8.28124979196582 L 144.8984371200204 8.179687423922587 L 136.71093760005897 8.179687423922587 L 128.0000000000582 7.976562687952537 L 124.42187468806515 7.976562687952537 L 121.55468800006201 7.87109375995351 L 107.21875046403147 7.566406655940227 L 103.11718707205728 7.359375359956175 L 97.28125030401861 7.4609377279412 L 85.9140628480236 7.1562495999387465 L 73.01562470401404 6.644531199941412 L 63.289062400057446 6.234375167929102 L 57.757812736032065 6.132812799944077 L 48.640624640043825 6.02734387194505 L 34.20312473602826 5.722655743942596 L 31.031249920022674 5.621093375957571 L 27.039062016061507 5.515625471947715 L 14.648437760013621 5.210937343945261 L 11.164062720024958 5.210937343945261 L 7.7890621440601535 5.105468415946234 L 5.820766091346741e-11 5.003906047961209 L 0.0 5.003906047961209" fill="none"/></svg>