<svg xmlns="http://www.w3.org/2000/svg" width="1024" height="1024"><rect stroke="none" x="0" y="0" width="1024" height="1024" fill="white"/><path stroke="#000000" stroke-width="2" d="M 1024.0 7.28065528285515 L 1023.0625003520399 7.249999871943146 L 981.3749995520338 7.500000255939085 L 981.3749995520338 7.558593535970431 L 974.6484377600136 6.3359375359723344 L 960.812499968044 6.250000383937731 L 914.0000000000582 6.250000383937731 L 910.4140625920263 6.214843391964678 L 895.0859376640292 6.132812799944077 L 859.7578127360321 6.132812799944077 L 843.0285649920115 6.0624998399289325 L 834.6640629760223 6.02734387194505 L 783.6718745600083 6.02734387194505 L 782.2364559360431 6.00825548794819 L 782.2031247360283 6.007812095922418 L 776.914062336029 5.925781503960025 L 770.0624998400453 5.812500479922164 L 752.8515624960419 5.812500479922164 L 743.5312496640254 5.925781503960025 L 736.2553722880548 5.629042687942274 L 736.1562501120497 5.624999935971573 L 716.3750000640284 5.812500479922164 L 708.812499968044 5.722655743942596 L 700.5234370560502 5.722655743942596 L 693.7499996160623 5.624999935971573 L 693.0703124480206 5.613281279918738 L 683.1171870720573 5.515625471947715 L 664.3750000640284 5.515625471947715 L 648.3125002240413 5.437500415951945 L 645.8203125760192 5.386719231959432 L 639.0781245440594 5.312499711930286 L 637.4609377280576 5.250001919921488 L 632.0000000000582 5.249999871943146 L 627.8359377920278 5.183593471942004 L 616.3515627520392 5.109374975960236 L 600.562499584048 5.000000511936378 L 600.4765624320135 4.996093951922376 L 591.7734379520407 4.902343679917976 L 579.6874997760169 4.902343679917976 L 576.109375488013 4.800781311932951 L 572.3125002240413 4.812499967927579 L 569.195312128053 4.785156095924322 L 550.0937502720626 4.699218943947926 L 545.2812503040186 4.593750015948899 L 537.6874997760169 5.000000511936378 L 532.0703129600151 5.109374975960236 L 513.8437498880085 5.515625471947715 L 511.0781245440594 5.621093375957571 L 497.43750041601015 5.624999935971573 L 474.3125002240413 5.812500479922164 L 470.6328125440632 5.8242191359749995 L 446.15625011204975 5.624999935971573 L 445.65625036804704 5.613281279918738 L 435.5078123520361 5.515625471947715 L 432.5390622720588 5.515625471947715 L 423.01562470401404 5.621093375957571 L 411.34375014400575 5.621093375957571 L 411.2187504640315 5.613281279918738 L 397.92968704004306 5.109374975960236 L 391.47656294400804 4.902343679917976 L 388.4062504960457 4.699218943947926 L 383.0781245440594 4.492187647963874 L 369.4609377280576 4.082031615951564 L 360.62500044802437 3.87109375995351 L 356.7656253440073 3.7773434879491106 L 338.74218700802885 3.2656250879517756 L 332.6875002880115 3.183593471942004 L 332.5937500160071 3.183593471942004 L 327.57812531205127 2.957031423924491 L 305.3593753600144 2.34374963195296 L 300.05054361606017 2.203366399917286 L 299.92187494406244 2.199219199945219 L 286.00781209603883 1.8320312319556251 L 255.0781245440594 0.6015621119295247 L 251.1875000320142 0.3984373759594746 L 245.0468751360313 0.08984371193218976 L 241.87500032002572 0.08984371193218976 L 239.93182429211447 0.0" fill="none"/><path stroke="#000000" stroke-width="2" d="M 104.79583361065306 0.0 L 103.2265625600121 0.08984371193218976 L 87.85937510401709 0.08984371193218976 L 83.76562483201269 0.1914060799172148 L 70.93749964801827 0.7070310399285518 L 52.812499968043994 1.3124997119302861 L 27.74999961606227 2.1249996799742803 L 0.0 3.041816445875156" fill="none"/><path stroke="#000000" stroke-width="2" d="M 239.9318242946756 0.0 L 241.87500032008393 0.08984371181577444 L 245.0468751360313 0.08984371181577444 L 251.18750003207242 0.3984373759594746 L 255.0781245441176 0.601562111871317 L 286.00781209603883 1.8320312320138328 L 299.92187494406244 2.1992191998288035 L 300.05054361606017 2.2033663998008706 L 305.3593753600144 2.3437496318365447 L 327.57812531205127 2.957031423866283 L 332.5937500160071 3.183593471883796 L 332.6875002880697 3.183593471883796 L 338.74218700808706 3.2656250878353603 L 356.7656253440655 3.777343487890903 L 360.62500044802437 3.8710937598953024 L 369.4609377280576 4.0820316158933565 L 383.0781245441176 4.492187647905666 L 388.4062504961039 4.699218943831511 L 391.47656294406625 4.902343679917976 L 397.92968704010127 5.109374975843821 L 411.2187504640897 5.613281279918738 L 411.34375014406396 5.621093375899363 L 423.01562470407225 5.621093375899363 L 432.5390622720588 5.515625471889507 L 435.5078123520361 5.515625471889507 L 445.65625036810525 5.613281279918738 L 446.15625011204975 5.624999935971573 L 470.6328125441214 5.824219135858584 L 474.3125002240413 5.812500479805749 L 497.43750041601015 5.624999935971573 L 511.0781245440594 5.621093375899363 L 513.8437498880667 5.515625471889507 L 532.0703129600151 5.109374975843821 L 537.6874997760169 5.000000511819962 L 545.2812503040768 4.593750015948899 L 550.0937502720626 4.699218943831511 L 569.1953121281113 4.785156095924322 L 572.3125002240995 4.812499967927579 L 576.109375488013 4.8007813118747436 L 579.6874997760169 4.902343679917976 L 591.7734379520407 4.902343679917976 L 600.4765624320135 4.996093951922376 L 600.5624995841063 5.000000511819962 L 616.3515627520392 5.109374975843821 L 627.835937792086 5.183593471883796 L 632.0000000001164 5.249999871943146 L 637.4609377281158 5.250001919921488 L 639.0781245440594 5.312499711930286 L 645.8203125760192 5.386719231901225 L 648.3125002240413 5.4375004160101525 L 664.3750000640866 5.515625471889507 L 683.1171870720573 5.515625471889507 L 693.0703124480206 5.613281279918738 L 693.7499996160623 5.624999935971573 L 700.5234370560502 5.722655743942596 L 708.812499968044 5.722655743942596 L 716.3750000640284 5.812500479805749 L 736.1562501120497 5.624999935971573 L 736.2553722880548 5.629042687942274 L 743.5312496640836 5.925781503901817 L 752.8515624960419 5.812500479805749 L 770.0624998401036 5.812500479805749 L 776.914062336029 5.925781503901817 L 782.2031247360865 6.007812095806003 L 782.2364559360431 6.00825548794819 L 783.6718745600083 6.02734387194505 L 834.6640629760805 6.02734387194505 L 843.0285649920115 6.0624998399289325 L 859.7578127360321 6.132812799885869 L 895.0859376640874 6.132812799885869 L 910.4140625920845 6.21484339190647 L 914.0000000000582 6.250000383821316 L 960.8124999681022 6.250000383821316 L 974.6484377600136 6.335937535914127 L 981.3749995520338 7.558593535970431 L 981.375029248069 7.559684095962439 L 981.6874997760751 18.93749964784365 L 981.8125004800386 23.624999935971573 L 981.9375001600129 29.374999551917426 L 981.9375001600129 33.50000025588088 L 982.0000000001164 35.937500159896445 L 982.3125002240413 53.37499955185922 L 982.4374999040156 59.31249971181387 L 982.6250004480826 62.37500006391201 L 982.6250004480826 72.81249996798579 L 982.7500001280569 75.6874997758423 L 983.0625003520981 96.37500006397022 L 983.2499998721178 111.31249971187208 L 983.4375004160102 117.43750041589374 L 983.4375004160102 121.12500019196887 L 983.2499998721178 128.12499967985786 L 982.6250004480826 143.6874997758423 L 981.9375001600129 152.8749998078565 L 982.1249996800907 173.74999961594585 L 982.812499968044 231.93750015983824 L 982.9374996480183 238.06249983992893 L 983.0625003520981 242.3750000638538 L 983.1250001920853 251.99999999988358 L 983.1250001920853 273.6874997759587 L 983.0625003520981 282.4999997440027 L 983.0625003520981 384.1249996800325 L 982.6250004480826 394.12499967985786 L 982.6250004480826 418.31250022386666 L 982.4374999040156 428.12499967985786 L 982.4374999040156 438.8124999679276 L 982.3125002240413 477.0625003519235 L 982.3125002240413 485.6874997758423 L 982.1249996800907 512.1249996799161 L 982.6250004480826 517.6249999358552 L 982.812499968044 520.4999997438863 L 982.812499968044 526.437499903841 L 982.7500001280569 532.8124999678112 L 982.7500001280569 560.2500003839377 L 982.6250004480826 588.8749998079147 L 982.6250004480826 639.6874997759587 L 982.4374999040156 645.8125004798057 L 982.4374999040156 654.8749998079147 L 982.3125002240413 673.6874997759587 L 982.3125002240413 686.375000063912 L 982.1249996800907 694.8124999679276 L 982.0000000001164 713.6249999359716 L 982.0000000001164 725.1250001918525 L 981.9375001600129 730.8124999679858 L 981.9375001600129 738.8124999679276 L 981.8125004800386 746.8124999679276 L 981.8125004800386 763.9999999999418 L 981.6874997760751 768.4999997438281 L 981.624999936088 773.6249999359716 L 981.624999936088 797.5625000958098 L 980.4999997440609 807.812500479864 L 981.5000002561137 811.9375001599547 L 981.5000002561137 850.2500003838795 L 981.5000002561137 855.9375001599547 L 981.3749995520338 877.437500415952 L 981.3749995520338 893.4375004158937 L 981.3124997120467 896.9374996479019 L 981.1875000320142 901.6249999358552 L 981.1875000320142 955.8750003199675 L 980.9999994880636 967.1875000318396 L 980.9999994880636 1013.8750003199675 L 980.9735075840144 1016.0473067518906 L 980.8765240240464 1024.0" fill="none"/><path stroke="#000000" stroke-width="2" d="M 0.0 3.0418164458169485 L 27.74999961606227 2.124999679857865 L 52.8124999681022 1.3124997118138708 L 70.93749964801827 0.7070310399285518 L 83.7656248320709 0.19140607985900715 L 87.8593751040753 0.08984371181577444 L 103.2265625600703 0.08984371181577444 L 104.79583360865945 0.0" fill="none"/><path stroke="#000000" stroke-width="2" d="M 980.8765240240173 1024.0 L 980.9735075840144 1016.0473067519488 L 980.9999994880636 1013.8750003199675 L 980.9999994880636 967.187500031956 L 981.1875000320142 955.8750003199675 L 981.1875000320142 901.6249999359716 L 981.3124997120467 896.9374996479601 L 981.3749995520338 893.437500415952 L 981.3749995520338 877.437500415952 L 981.5000002560555 855.9375001599547 L 981.5000002560555 850.2500003839377 L 981.5000002560555 811.9375001599547 L 980.4999997440609 807.8125004799222 L 981.6249999360298 797.5625000959262 L 981.6249999360298 773.6249999359716 L 981.6874997760169 768.4999997439445 L 981.8125004800386 763.9999999999418 L 981.8125004800386 746.8124999679276 L 981.9375001600129 738.8124999679276 L 981.9375001600129 730.8124999679276 L 982.0000000000582 725.1250001919689 L 982.0000000000582 713.6249999359716 L 982.1249996800325 694.8124999679276 L 982.3125002240413 686.3750000639702 L 982.3125002240413 673.6874997759587 L 982.4374999040156 654.8749998079729 L 982.4374999040156 645.8125004799222 L 982.6250004480244 639.6874997759587 L 982.6250004480244 588.8749998079729 L 982.7500001280569 560.2500003839377 L 982.7500001280569 532.8124999679276 L 982.812499968044 526.4374999039574 L 982.812499968044 520.4999997439445 L 982.6250004480244 517.6249999359716 L 982.1249996800325 512.1249996799743 L 982.3125002240413 485.6874997759587 L 982.3125002240413 477.0625003519235 L 982.4374999040156 438.8124999679276 L 982.4374999040156 428.1249996799743 L 982.6250004480244 418.31250022392487 L 982.6250004480244 394.1249996799743 L 983.0625003520399 384.1249996799743 L 983.0625003520399 282.4999997439445 L 983.1250001920271 273.6874997759587 L 983.1250001920271 251.9999999999418 L 983.0625003520399 242.37500006397022 L 982.9374996480183 238.06249983992893 L 982.812499968044 231.93750015995465 L 982.1249996800325 173.74999961594585 L 981.9375001600129 152.87499980797293 L 982.6250004480244 143.6874997759587 L 983.2499998720596 128.12499967997428 L 983.4375004160102 121.12500019196887 L 983.4375004160102 117.43750041595194 L 983.2499998720596 111.31249971193029 L 983.0625003520399 96.37500006397022 L 982.7500001280569 75.68749977595871 L 982.6250004480244 72.81249996792758 L 982.6250004480244 62.37500006397022 L 982.4374999040156 59.312499711930286 L 982.3125002240413 53.374999551917426 L 982.0000000000582 35.93750015995465 L 981.9375001600129 33.500000255939085 L 981.9375001600129 29.374999551917426 L 981.8125004800386 23.624999935971573 L 981.6874997760169 18.937499647960067 L 981.3750292480108 7.559684095962439 L 981.3749995520338 7.500000255939085 L 1023.0625003520399 7.249999871943146 L 1024.0 7.28065528285515" fill="none"/><path stroke="#408040" stroke-width="3" d="M 0.0 915.2096386529302 L 22.05696000000171 916.9407999999967 L 30.648319999992964 918.241280000002 L 39.08607999999367 920.8831999999966 L 46.71487999999954 923.1564799999978 L 54.70208000000275 923.8118400000021 L 63.31392000000051 923.96544 L 72.18176000000676 922.7468799999988 L 89.18016000000353 920.3814399999974 L 129.16736000000674 914.8006400000013 L 167.14751999999862 909.5167999999976 L 182.23103999999876 908.9843200000032 L 194.93888000000152 908.8307199999981 L 218.99263999999675 908.5542399999977 L 225.71008000000438 908.8000000000029 L 231.63903999999457 909.9673600000024 L 249.85599999999977 916.0499199999977 L 290.1503999999986 929.617919999997 L 342.8556799999933 947.3843199999974 L 357.35551999999734 950.2105599999995 L 367.9539199999999 951.1116800000018 L 386.97983999999997 950.415359999999 L 390.6355199999962 951.2550399999964 L 395.3356800000038 953.5795199999993 L 398.8889599999966 955.3817599999966 L 402.7801599999948 956.3238399999973 L 406.7942400000029 955.4636800000007 L 409.8969599999982 952.8729600000006 L 413.07136000000173 949.5142399999968 L 416.9216000000015 948.2137599999987 L 420.77184000000125 947.5174400000033 L 424.4889600000024 945.6947199999995 L 432.0870399999985 944.2201599999971 L 438.5587200000009 944.2508799999996 L 443.3920000000071 945.244160000002 L 451.4099200000055 948.4288000000015 L 460.482560000004 950.0569600000017 L 464.8550399999949 951.0502399999968 L 468.0908800000034 952.6272000000026 L 473.2927999999956 956.6924799999979 L 476.88704000000143 958.2899200000029 L 481.2185599999939 959.344640000003 L 488.4889600000024 962.1299199999994 L 494.31552000000374 967.4649599999975 L 504.8831999999966 978.6572799999994 L 509.5014399999927 983.5417600000001 L 515.1641600000003 988.7641599999988 L 527.697920000006 997.2531200000012 L 542.4844799999992 1007.226880000002 L 567.3149166412331 1024.0" fill="none"/></svg>