<svg xmlns="http://www.w3.org/2000/svg" width="1024" height="1024"><rect stroke="none" x="0" y="0" width="1024" height="1024" fill="white"/><path stroke="#000000" stroke-width="2" d="M 0.0 996.3556620779345 L 1.1328122880659066 996.3398440959281 L 7.070312448020559 996.4414064639714 L 13.007812608033419 996.4414064639714 L 21.914062848023605 996.7500001279404 L 29.39062476804247 996.8515624959255 L 33.382812672061846 997.0546872319537 L 37.89062451204518 997.1601561599527 L 42.703125504020136 997.2617185279378 L 45.367187456053216 997.2617185279378 L 48.85156249604188 997.464843263966 L 56.11718758405186 997.5664066559402 L 61.851563008036464 997.7734379519243 L 64.10937548801303 997.8750003199675 L 72.19531264004763 998.0820316159516 L 81.10156288003782 998.2851563519216 L 94.00781209603883 998.5937500159489 L 100.3593748480198 998.6953123839339 L 112.23437516804552 999.0039060479612 L 115.20312524802284 999.0000005119364 L 119.29687449603807 999.1054684159462 L 128.92187545605702 999.1054684159462 L 131.89843763201497 999.2070307839313 L 137.21875046403147 999.3085941759637 L 149.60937472002115 999.3085941759637 L 153.09374976006802 999.4101565439487 L 158.10937548801303 999.4101565439487 L 162.10156236804323 999.5156254719477 L 167.6328120320686 999.5156254719477 L 172.75000012805685 999.6171878399327 L 180.74218700802885 999.6171878399327 L 191.59374950401252 999.820312575961 L 194.8671877120505 999.820312575961 L 199.99218790401937 999.921874943946 L 203.57812531205127 1000.3320309759583 L 204.80468787206337 1006.5781247999403 L 204.9062502400484 1008.5234370559338 L 205.21093734406168 1010.9843752959277 L 205.62499993602978 1015.4882815999445 L 205.62499993602978 1019.7890621439437 L 205.7265623040148 1023.8867189759621 L 205.72923742052808 1024.0" fill="none"/><path stroke="#000000" stroke-width="2" d="M 1024.0 697.1538285713614 L 1022.8807680000318 696.8340479999315 L 1016.969382912037 700.9720176639385 L 1016.7343749120482 701.1328122879495 L 1012.1251389440149 707.6873021439533 L 1008.2375680000405 706.45964799996 L 1008.1784238080145 706.2436843519681 L 1008.1718753280584 706.2109378559398 L 1006.6093752320157 704.2851563519216 L 1006.5093765120255 704.1644257279695 L 1006.2971904000151 703.8964019199484 L 1010.0807680000435 701.5444479999715 L 1015.6103680000524 696.7316479999572 L 1021.651003392064 696.2006026239251 L 1024.0 695.9953127548579" fill="none"/><path stroke="#000000" stroke-width="2" d="M 1024.0 632.451388480702 L 1021.4375004160684 631.3124997119303 L 1015.0000005120528 630.0624998399289 L 1012.3125002240413 633.3124997119303 L 1010.1874995200196 637.0000005119364 L 1010.6171873280546 640.1914060799172 L 1010.6875002880115 640.6875002879533 L 1014.0624998400453 640.4999997439445 L 1017.5234375680448 637.464843263966 L 1019.1875000320142 635.9999999999418 L 1024.0 637.2154949061878" fill="none"/><path stroke="#000000" stroke-width="2" d="M 1024.0 644.8377533745588 L 1023.5000002560555 647.0625003519235 L 1021.6249999360298 649.9375001599547 L 1024.0 652.1097563681033" fill="none"/><path stroke="#000000" stroke-width="2" d="M 1024.0 659.5591648076806 L 1023.1484375040163 659.4140620799735 L 1021.4375004160684 659.1250001919689 L 1016.8261836800375 660.3713013759698 L 1019.3749995520338 661.8125004799222 L 1018.0624998400453 667.1210936319549 L 1012.6250004480244 664.6875002879533 L 1010.562499584048 660.8124999679276 L 1007.1875000320142 656.6875002879533 L 995.4375004160684 651.187500031956 L 991.7499996160623 652.3750000639702 L 987.2499998720596 651.7499996159459 L 982.4999997440609 650.5624995839316 L 980.1874995200196 647.8750003199675 L 979.5346360320691 646.5890580479172 L 978.1328128000605 643.8046873599524 L 980.6875002880115 640.4999997439445 L 980.378532864037 636.4270786559209 L 981.6249999360298 632.7500001279404 L 984.562499584048 630.8749998079729 L 988.2500003840541 629.437500415952 L 985.0625003520399 627.8125004799222 L 980.3750000640284 628.6250004479662 L 976.6875002880115 628.2500003839377 L 974.0234373120475 627.4101565439487 L 973.3124997120467 627.187500031956 L 969.5000002560555 625.7499996159459 L 972.3125002240413 621.8750003199675 L 972.2265620480175 621.5312496639672 L 972.1961205760599 621.4288793599699 L 966.2500003840541 627.3749995519174 L 956.812499968044 627.9999999999418 L 953.9062497280538 626.2617190399324 L 952.7181424640585 627.104968703934 L 950.1018982400419 624.9494947839412 L 949.9375001600129 622.8789063679287 L 949.9335157760652 622.8807915519574 L 949.9332700160448 622.8777748479624 L 948.6250004480244 623.5000002559391 L 948.1406248960411 624.1093754879548 L 948.1562501120497 624.1367183359689 L 948.7968747520354 625.1406254079193 L 949.2412979200599 625.8292797439499 L 949.6621096960152 626.4863283199375 L 949.968749568041 626.796874751919 L 950.2687211520388 626.9627412479604 L 951.6735232000356 627.7486591999186 L 952.5298872320564 628.2297036799719 L 951.7109370880644 628.9433589759283 L 951.7120645120158 628.9443235839717 L 951.7109370880644 628.9453127679299 L 952.5512253440684 629.6622970879544 L 953.1445309440605 630.1699215359404 L 953.1484375040163 630.171875327942 L 954.4765624320135 629.1503902719705 L 956.3171747840242 629.2537272319314 L 955.5887749120593 630.344590335968 L 955.0859376640292 631.0937497599516 L 956.0156252160668 631.1992186879506 L 957.6093747200212 629.5156254719477 L 957.7427312640357 629.3709004799603 L 957.8533949440462 629.2541399039328 L 958.3700070400373 629.3200343039352 L 959.3892403200152 629.4568427519407 L 958.2656245760154 630.8886722559691 L 958.2668779520318 630.8890275839367 L 958.2656245760154 630.8906250239233 L 958.5803857920691 630.9778687999351 L 958.9824215040426 631.0917969919392 L 960.3125002240413 629.556640767958 L 961.334772736067 629.7634365439299 L 960.4473856000113 631.0563911679201 L 960.2109378560563 631.3984378879541 L 960.2142853120458 631.3955215359456 L 960.2109378560563 631.4003906559665 L 961.0292971520685 630.6855464959517 L 961.3348853760399 630.7867607039516 L 960.9770833920338 631.3249607679318 L 960.5156249600113 632.0117186559364 L 960.5310187520226 631.9935262719519 L 960.5175777280238 632.0136714239488 L 960.7734374400461 631.707030527934 L 961.0312499200227 631.4023434239207 L 961.335937024036 631.5019530239515 L 961.79687526403 630.8789063679287 L 962.4613201920292 629.9689369599218 L 962.8730470400187 630.1699215359404 L 961.9511715840199 631.4003906559665 L 961.9545835520257 631.4003906559665 L 961.9531253760215 631.4023434239207 L 962.460937216063 631.4023434239207 L 963.384765440016 630.0683591679554 L 963.5515822080197 629.8452285439707 L 963.6936151040136 629.6584826879553 L 964.5799618560122 629.7707601919537 L 965.2343746560509 629.8554685439449 L 965.2625899520353 629.8572318719234 L 972.7017420800403 630.788889599964 L 972.3173683200148 631.2836075519444 L 972.3253483520239 631.2786298879655 L 972.3203123200219 631.285155839927 L 973.1171870720573 630.7890626559383 L 974.238720000023 630.9918719999259 L 974.6483200000366 631.1966719999327 L 975.3651200000313 632.0158719999599 L 975.2481126400526 633.0364323839312 L 973.2109373440617 632.7304683519178 L 972.9062502400484 633.1406254079193 L 972.908453888027 633.1410268159234 L 972.9075200000661 633.1422719999682 L 975.1561932800687 633.5511214079452 L 974.953267200035 634.7803903999738 L 971.6796876800363 634.3710935039562 L 971.1667200000375 634.2686719999183 L 962.562499584048 633.0390620159451 L 962.460937216063 633.3476567039615 L 967.5829278720194 634.6788966399617 L 967.6851200000383 634.9854719999712 L 967.9921879040194 634.7812495359685 L 970.5523200000171 634.8830719999387 L 971.0643200000632 634.9854719999712 L 971.976562688069 635.2656250879518 L 974.7496960000135 636.1108479999239 L 974.7968747520354 636.1367183359689 L 974.8750888960203 636.1730344959651 L 974.8906250240398 636.3750000639702 L 974.7578122240375 636.6171873279382 L 974.8284815360676 636.9034874879289 L 975.0579200000502 637.85267199995 L 974.6483200000366 638.5694719999447 L 973.4218752000597 637.7499996159459 L 973.4209443840664 637.7512212479487 L 973.419520000054 637.7502719999175 L 973.1093749760184 638.1601566719473 L 973.8359377920278 638.66015641595 L 974.7452088320279 639.2824831999606 L 973.8046873600688 638.7578122239211 L 972.9062502400484 638.2617190399324 L 972.6003200000268 638.8766719999257 L 974.2343751680455 639.7968752639717 L 974.0320430080174 640.1042647039285 L 972.6015621120459 639.183593471942 L 972.4979200000525 639.3886719999718 L 972.4999997440609 639.390624767926 L 973.6243200000608 640.1054719999665 L 973.5230095360312 640.206782463938 L 972.2931200000457 639.4910719999461 L 972.2909327360685 639.4932592639234 L 972.289062912052 639.4921871359693 L 971.9843747840496 639.7968752639717 L 972.3437496320112 640.1132810239214 L 973.1957647360396 640.8468039679574 L 973.5219200000283 641.1294719999423 L 973.419520000054 641.3342719999491 L 971.8828124160646 640.3085936639691 L 971.8828124160646 640.8242186239222 L 973.5219200000283 642.1534719999181 L 973.4199275520514 642.459448319918 L 971.6796876800363 641.1289067519247 L 971.3715200000443 641.6414719999302 L 972.702009344066 642.7685826559318 L 972.3972679680446 643.0733240319532 L 971.0643200000632 642.0510719999438 L 970.4499200000428 642.2558719999506 L 971.8825400320347 643.3825986559386 L 971.577854976058 643.4841599999345 L 968.5237760000164 641.0608639999409 L 968.0312504320173 640.902343679918 L 968.014247936022 640.9618503679521 L 967.9921879040194 641.0273433599505 L 969.9364618240506 642.7686010879697 L 969.7331927040359 642.8702361599426 L 968.7519733760273 642.1567109119496 L 968.6093752320157 642.0507811839343 L 968.6093752320157 642.0530032639508 L 968.6067200000398 642.0510719999438 L 968.6067200000398 642.4606719999574 L 969.1171870720573 642.8710932479589 L 968.914062336029 643.0742190079181 L 967.9921879040194 642.0507811839343 L 966.7635200000368 641.4366719999234 L 968.3838187520159 643.1582392319688 L 968.3984373760177 643.1757813759614 L 968.3306926080259 643.192717311962 L 968.1997998080333 643.2207329279627 L 967.3026918400428 643.4087833599187 L 965.6668160000117 642.2814719999442 L 965.6640624640277 642.2812497919658 L 965.2187504640315 642.5156249599531 L 965.445312512049 642.7148441599566 L 966.4531251200242 643.5859374079737 L 967.6171878400492 644.3632814079174 L 967.6851200000383 644.4062719999347 L 962.460937216063 646.1484369919635 L 962.713994240039 646.5491107839625 L 962.9747200000565 646.9662719999324 L 963.1015628800378 646.9257809919654 L 965.4312960000243 646.146047999966 L 967.5226368000149 645.6798658559565 L 968.2165760000353 645.6033279999392 L 969.015296000056 645.5316479999456 L 969.015624704014 645.6352112639579 L 967.4803200000315 645.9422719999566 L 968.5043200000655 646.3518719999702 L 968.5078128640307 646.3515627519228 L 969.8355200000224 645.4302719999687 L 969.4166220800253 646.1842872319394 L 969.3203128320165 646.3515627519228 L 969.326964736043 646.3456706559518 L 969.3235200000345 646.3518719999702 L 970.245120000036 645.532671999943 L 970.5521602560184 645.6358655999647 L 970.4499200000428 646.1470719999634 L 970.4536238080473 646.1458370559267 L 970.4531251200242 646.1484369919635 L 970.7343749120482 646.0546877439483 L 971.0642667520442 645.9422894079471 L 971.2656250880682 646.0429690879537 L 971.181870080065 646.1895393279265 L 970.6547200000496 647.0686719999649 L 970.6569041920593 647.0692177919555 L 970.6562498560525 647.0703124479624 L 971.0625003520399 647.1718748159474 L 971.3984378880123 646.9218754559406 L 971.8835200000321 646.5566719999188 L 972.0859371520346 646.9648435199633 L 971.7499996160623 647.2070307839313 L 971.3671874560532 647.4765629439498 L 971.6249999360298 647.7343754239264 L 971.6787200000254 647.7854719999596 L 972.498020352039 647.3759887359338 L 972.7504793600529 647.6705249279621 L 973.1092131840414 648.0935598079232 L 972.39552000002 648.2974719999474 L 972.39552000002 648.3998719999217 L 972.571941888018 648.4348733439692 L 972.7890626560547 648.4804689919692 L 972.9064960000687 648.5012479999568 L 973.1093749760184 649.1171870719409 L 972.4979200000525 649.52627199993 L 973.419520000054 649.8334719999693 L 973.419520000054 650.0382719999179 L 972.2931200000457 649.9358719999436 L 971.9843747840496 650.0390625279397 L 971.8828124160646 650.343749631953 L 971.8861629440216 650.3445923839463 L 971.8856990720378 650.3460167679586 L 973.1093749760184 650.652343295922 L 973.8274672640255 650.6526719999383 L 973.6243200000608 650.7550719999708 L 973.8266480640159 650.8562360319193 L 973.6243200000608 650.9598719999194 L 973.5219200000283 651.0622719999519 L 974.238720000023 651.5742719999398 L 974.238720000023 651.7562511359574 L 974.2343843840645 651.9838719999534 L 973.5219200000283 651.9838719999534 L 973.6243200000608 652.2910719999345 L 971.8828124160646 652.1874995199614 L 971.8828124160646 652.5976565759629 L 974.4435200000298 653.0078719999292 L 974.5648650240619 653.3109370879247 L 974.6171873280546 653.4492190719466 L 974.648204288038 653.5195781119401 L 973.1123200000147 653.8270719999564 L 971.9859200000647 653.3150719999685 L 971.9859200000647 653.317108735966 L 971.9843747840496 653.3164062719443 L 971.9843747840496 653.8281246719416 L 972.289062912052 653.9296870399266 L 972.0859371520346 654.031250431959 L 972.1874995200196 654.5429688319564 L 972.1904271360254 654.5424066559644 L 972.1907200000132 654.5438719999511 L 974.8515624960419 654.0321720319334 L 974.8515624960419 654.2370969599579 L 973.7265623040148 654.5429688319564 L 973.8273792000255 654.6445311999414 L 973.4296872960404 654.6445311999414 L 973.4255872000358 654.7019366399618 L 973.419520000054 654.7519907839596 L 973.419520000054 654.9534719999647 L 974.8522045440623 654.6464686079416 L 975.0546872320119 655.2578129919712 L 973.2702003200538 655.5686471679364 L 972.0872960000415 655.7716479999362 L 971.8828124160646 655.9765626879525 L 974.7500001280569 655.6718745599501 L 974.4439224320231 656.4883988479269 L 971.9843747840496 656.6953123839339 L 971.9843747840496 657.1054684159462 L 974.0309882880538 656.8993648639298 L 973.828427776054 657.6161167359678 L 972.0859371520346 658.2304686079733 L 973.2109373440617 658.2304686079733 L 972.8798095360398 658.6321643519332 L 972.7031255040201 658.8437503999448 L 972.4979200000525 659.4590719999396 L 972.2503864320461 660.0779059199267 L 972.0859371520346 660.4843745279359 L 971.6640624640277 661.1484375039581 L 971.3671874560532 661.609374719963 L 970.7886530560208 662.3216271359706 L 970.4499200000428 662.735871999932 L 970.4499200000428 663.1454719999456 L 969.8359377920278 664.167968767928 L 969.1171870720573 665.0898442239268 L 967.5781253120513 667.9570309119299 L 967.1484375040163 668.6015621119295 L 965.6328120320686 669.390624767926 L 964.6093752320157 669.6992184319533 L 962.3593748480198 670.7226562559372 L 961.2091914240154 672.0777502719429 L 960.6171873280546 672.7695308799739 L 961.3203128320165 672.9687500799191 L 961.9531253760215 673.1445309439441 L 961.9531253760215 673.078124543943 L 962.4843745280523 671.9570309119299 L 962.6171873280546 671.6718745599501 L 962.8749998080311 671.1328122879495 L 963.9987200000323 670.3134719999507 L 964.3059200000134 670.2110719999182 L 965.4296872960404 670.1093754879548 L 966.8657940480625 670.0079103999306 L 966.7635200000368 671.3374719999265 L 967.4803200000315 670.3134719999507 L 968.914062336029 667.7539061759599 L 970.3515627520392 666.2187499519205 L 970.7578122240375 665.7070315519231 L 971.3749995520338 664.7851560959243 L 971.5876689920551 664.6054000639706 L 971.7063680000138 664.5073919999413 L 972.088320000039 663.9646719999728 L 972.9075200000661 662.9406719999388 L 973.8671872000559 661.5468748799176 L 974.0339200000162 661.3022719999426 L 978.1299200000358 660.3806719999411 L 977.6747683840222 661.0633994239615 L 976.8984371200204 662.2226565119345 L 976.9103790080408 662.2099834879627 L 976.9011200000532 662.2238719999441 L 978.4374999040156 660.5859379199683 L 979.2571678720415 660.7902279679547 L 978.6093752320157 661.9609374719439 L 978.3233341440209 662.4884715519729 L 978.1309440000332 662.8382719999645 L 979.4609377280576 663.8632816639729 L 981.2030208000215 661.6095098879305 L 981.8173440000392 661.916671999963 L 980.4843745280523 665.0898442239268 L 980.4888657920528 665.0845818879316 L 980.4861440000241 665.0910719999229 L 982.8418304000515 662.3264747519279 L 984.0695255040191 662.8395130879362 L 982.5566556160338 665.8729164799443 L 982.596144128067 665.848271871917 L 985.196544000064 663.2478719999199 L 986.2185523200314 663.6566753279185 L 984.7869440000504 666.729471999919 L 985.4013440000126 667.0366719999583 L 986.7920824320172 665.0137794559705 L 987.656250368047 663.7617182719405 L 988.2656245760154 663.9648440319579 L 987.7605304320459 664.8631439359742 L 986.9374996480183 666.3203123199637 L 988.8825323520578 664.4770631679567 L 988.7180800000206 664.7685119999223 L 988.460937216063 665.082031103957 L 987.5517440000549 666.8318719999515 L 987.5577292800299 666.8261591039482 L 987.554688000062 666.8320317439502 L 988.4583127040532 665.966512127954 L 989.8035763200605 664.6823956479202 L 988.7805440000375 667.1390719999326 L 988.7826483200188 667.137268735969 L 988.7812495360267 667.1406254079193 L 990.6250004480244 665.5625000959262 L 990.9309440000216 665.2958719999297 L 991.0282711040345 665.1985448959749 L 990.6171873280546 666.1835939839366 L 990.0078120960388 667.6523438079748 L 992.1593937920406 665.5010222079582 L 992.4669440000434 665.603071999969 L 992.3828121600673 665.7656248319545 L 991.2343746560509 668.0624998399289 L 991.239450624038 668.0580577279325 L 991.2381440000609 668.0606719999341 L 993.6950845440151 665.910848511965 L 993.5933440000517 666.2174719999311 L 992.4669440000434 668.572671999922 L 992.4711280640331 668.5692487679189 L 992.4687503360328 668.5742182399263 L 994.1731246080599 667.1767060479615 L 994.7412449280382 666.7449354239507 L 993.1991040000576 669.0498559999396 L 993.2063488000422 669.0459576319554 L 993.2031252480228 669.0507816959289 L 995.0832875520573 668.0359536639298 L 995.9542108160676 667.5672985599376 L 996.562499584048 667.2421877759625 L 999.9421440000297 668.4702719999477 L 1001.3749995520338 671.1328122879495 L 1001.3749995520338 672.3614822399686 L 993.1577681920608 672.4688783359597 L 988.8437504000613 672.5234370559338 L 985.7085440000519 672.5662719999673 L 986.8431360000395 673.5677439999417 L 987.0546872320119 673.5546879999456 L 993.778724864067 673.3906862079748 L 993.7843036160339 673.7158635519445 L 993.7890621440602 674.2226565119345 L 993.7929943040363 674.2223841279629 L 993.7930240000132 674.2241279999726 L 995.538944000029 674.102271999931 L 996.2578124800348 675.2304691199679 L 997.0769950720132 674.2045399039635 L 1003.4237440000288 673.7950719999499 L 1009.361225728062 673.6927016959526 L 1009.3925048320671 673.7145968639525 L 1012.5343037440325 676.0448573439498 L 1011.8215680000139 675.7406719999271 L 1011.4119680000586 676.6612479999312 L 1013.664117760025 676.5588776959339 L 1014.176768000063 679.2212479999289 L 1013.371782144066 679.7195724799531 L 1012.0234373120475 680.550780927937 L 1011.6015626240405 680.8828129279427 L 1011.546874880034 681.0429685759591 L 1011.5156254720641 681.1445309439441 L 1011.437499392021 681.3242173439357 L 1010.6081280000508 682.630143999937 L 1009.2011520000524 684.3617279999307 L 1008.7034880000283 684.983295999933 L 1008.4374999040156 685.2265625599539 L 1008.2372464640648 685.3651998719433 L 1004.1406248960411 684.7500001279404 L 1001.5805440000258 683.5220479999552 L 998.2064640000463 683.518975999963 L 998.0989440000267 683.5220479999552 L 992.5703127040179 685.7734379519243 L 989.9066132480511 687.0037381119328 L 988.7805440000375 687.3108479999355 L 987.7565440000617 687.413247999968 L 986.7325440000277 687.413247999968 L 985.9140628480236 687.3085941759637 L 983.1280640000477 686.753791999945 L 982.3283200000296 686.6954239999177 L 978.3662479360355 686.9397534719319 L 977.9296870400431 686.9648435199633 L 977.3124997120467 687.0039060479612 L 975.1613440000219 689.1540479999385 L 975.164062720025 689.253905407968 L 975.164062720025 689.390624767926 L 975.1718748160638 689.5664066559402 L 975.1873853440629 690.1026109439554 L 975.2637440000544 692.8404479999444 L 976.695384064049 692.9417574399267 L 976.8024770560442 693.4704977919464 L 976.8984371200204 693.9687495679245 L 977.1957002240233 694.2604042239254 L 977.5156254720641 694.5820313599543 L 978.1309440000332 695.093247999961 L 978.1328128000605 695.0937497599516 L 978.7349678080645 694.818692095927 L 979.2578129920294 694.5820313599543 L 982.8203120640246 696.2656245759572 L 982.8739952640608 696.2891110399505 L 984.1670359040145 696.8954664959456 L 986.2187499520369 697.8593751039589 L 985.4581012480194 698.4510586879333 L 985.2968744960381 698.5742182399263 L 988.2635520000476 699.4954495999264 L 985.7085440000519 698.9844479999738 L 990.4189440000337 703.2852479999419 L 988.2656245760154 703.7968752639717 L 986.3750000640284 705.6054691839381 L 986.2031247360283 705.640625151922 L 985.7566720000468 705.7367039999226 L 985.1033600000665 705.382399999944 L 984.2109378560563 704.9140623359708 L 983.2591360000661 704.408575999958 L 981.4323200000217 703.4019839999382 L 980.4739952640375 702.8949166079401 L 978.1484369920217 701.6601559039555 L 976.3203123200219 702.7812495359685 L 976.2968750080327 702.8632811519201 L 976.3828121600673 703.0273433599505 L 976.6093752320157 703.4453125119326 L 976.7735040000407 703.6451215359266 L 976.8984371200204 703.8046873599524 L 977.2499998720596 703.824219135975 L 977.326080000028 703.836159999948 L 977.6066560000181 703.9887359999702 L 977.6404111360316 704.0644290559576 L 977.6066560000181 704.3102719999733 L 977.7187502080342 704.2421872639679 L 977.8593751040171 704.2421872639679 L 978.0624998400453 704.2929684479604 L 978.2261760000256 704.3491839999333 L 978.3111680000438 704.4055039999657 L 978.4135680000181 704.5130239999271 L 978.5546874880674 704.7031255039619 L 978.6859520000289 704.8734719999484 L 978.7187496960396 704.9687500799191 L 978.6531840000534 705.5482879999327 L 978.5601198080112 705.6423751679249 L 978.3702589440509 705.7802915839711 L 978.2031247360283 705.8984376319568 L 978.1616640000138 705.9630079999333 L 978.1953126400476 706.1835939839366 L 980.1785681920592 706.5622855679248 L 978.2343751680455 707.7890621439437 L 976.3901440000627 711.6820479999296 L 975.1875000320142 712.3828121599508 L 975.1328122880659 712.3359375359723 L 975.1055278080166 712.2872166399611 L 975.0585528320516 712.1932656639256 L 975.0390620160615 712.1484369919635 L 974.5469440000597 711.1700479999417 L 974.5465712640435 708.817439743958 L 974.508171264024 708.8188047359581 L 969.5293440000387 709.3268479999388 L 969.9375001600129 710.1445314559387 L 969.015624704014 710.3515627519228 L 969.6645120000467 711.3881599999731 L 970.1484369920217 712.097655807971 L 970.3290880000568 712.2790399999358 L 970.7632640000666 712.6702079999377 L 973.2812503040186 715.1250001919689 L 973.2820346880471 715.1234447359457 L 973.2854046720313 715.1267266559298 L 973.8984468480339 713.9006423039245 L 974.2421872640261 713.2187504639733 L 974.8515624960419 713.2187504639733 L 975.3671874560532 714.652343295922 L 976.2877440000302 713.9348479999462 L 979.3593477120157 714.3443947519409 L 979.3124997120467 715.4257817599573 L 979.2656250880682 716.652343295922 L 981.7187502080342 716.6992189439479 L 981.6970485760248 716.521262079943 L 981.6197181440657 715.750459391973 L 983.8610278400593 715.7779947519302 L 986.7265628160676 715.4726563839358 L 988.6796871680417 715.5742187519209 L 992.7734333440312 716.1875415039249 L 992.6717440000502 717.2116479999386 L 994.3068098560325 717.5180308479466 L 994.6718750720611 716.8710932479589 L 994.8226600960479 716.5981603839318 L 998.2082938880194 717.3160232959199 L 1000.3513896960649 718.0311930879252 L 999.5312496640254 718.2343751679291 L 999.9431680000271 719.0548479999416 L 999.4296872960404 720.2851563519216 L 999.9431680000271 720.4884479999309 L 1000.3421071360353 722.122665983974 L 999.1250001920271 721.820312575961 L 999.1220428800443 721.8215731199598 L 998.4062504960457 722.5351567359176 L 999.5312496640254 722.9453127679299 L 1000.1425203200197 722.6415605759248 L 1000.7578122240375 722.9453127679299 L 1002.2968750080327 722.2304686079733 L 1004.2439680000534 720.5908479999634 L 1005.0781245440594 720.1757808639668 L 1006.4999997440609 719.464843263966 L 1008.2972948480165 716.6864926719572 L 1010.0807680000435 713.9348479999462 L 1010.0774338560295 713.9346626559272 L 1010.078125056054 713.9335935999407 L 1008.2381199360243 713.8322462719516 L 1012.4374999040156 712.2968750079744 L 1013.5575562240556 712.29644799995 L 1014.7812495360267 711.8906245119288 L 1014.5859379200265 712.2968750079744 L 1014.176768000063 713.0132479999447 L 1014.2791403520387 714.6511953919544 L 1014.2811668480281 714.6510059519205 L 1014.281249792024 714.652343295922 L 1018.2535751680261 714.2761134079192 L 1022.8906250240398 713.8398433279363 L 1024.0 713.734546704276" fill="none"/><path stroke="#000000" stroke-width="2" d="M 1024.0 714.5265206307668 L 1015.2031252480228 715.3671874559368 L 1015.2047708160244 715.3680650239694 L 1015.2007680000388 715.3684479999356 L 1018.4751104000607 717.1131002879702 L 1018.1249996800325 718.3945308159455 L 1018.0428687360254 718.7031449599308 L 1017.863168000069 719.3620479999227 L 1017.863168000069 719.626552319969 L 1017.8593751040171 719.8750003199675 L 1017.9197306880378 720.2134231039672 L 1017.9655680000433 720.4884479999309 L 1018.1703680000501 720.8980479999445 L 1018.390625280037 721.078124543943 L 1018.6718750720611 721.3007810559357 L 1018.8437504000613 721.3632808959228 L 1018.9895680000191 721.4100479999324 L 1018.8871680000448 721.819647999946 L 1018.9895680000191 722.3316479999339 L 1018.0679680000176 722.8436479999218 L 1017.9661271040677 723.0473287679488 L 1017.3511680000229 723.1508479999611 L 1016.7343749120482 723.5585935359704 L 1016.460937216063 724.5156249599531 L 1016.3276615680661 724.9923215359449 L 1015.6103680000524 725.1988479999709 L 1013.0468751360313 725.8125004799222 L 1012.5579530240502 725.9620741119725 L 1012.53125017602 725.9687495679245 L 1008.7260160000296 727.132159999921 L 1006.6016655360581 727.1443763199495 L 1007.4218752000597 725.9140628479654 L 1006.9532866560621 725.8493235199712 L 1006.7031255040201 725.8125004799222 L 1006.4957440000144 725.6074239999289 L 1006.8541440000408 725.0790399999241 L 1006.8791326720384 724.8201605119393 L 1006.8747991040582 724.8225228799274 L 1006.8749998080311 724.8203120639664 L 1006.7179520000354 724.9080319999484 L 1006.675968000025 725.0534399999306 L 1006.5961840640521 725.1056066559395 L 1006.289062912052 725.1523440639721 L 1006.2100480000372 725.1476479999255 L 1006.030848000024 725.0841599999694 L 1005.3828126720618 724.6914058239199 L 1005.3861621760298 724.6959513599286 L 1005.3816780800116 724.6932510719635 L 1005.9835310080671 725.5066664959304 L 1005.7799680000171 725.6084479999263 L 1006.3281254400499 725.9531253759633 L 1006.5991680000443 726.1204479999724 L 1006.4566323200124 726.4055193599197 L 1006.289062912052 726.7343749119318 L 1004.0000000000582 727.0273433599505 L 1000.9671680000611 728.7828479999444 L 1001.2734371840488 729.6015626239241 L 1001.9921879040194 730.1796874239226 L 1002.3627304960391 730.4725923839724 L 1002.8093440000666 730.8298239999567 L 1002.929092608043 731.140980735945 L 1003.0468751360313 731.4570311679272 L 1003.195312128053 731.8437498879503 L 1003.3984378880123 732.3632814079174 L 1004.3437496320112 734.8242186239222 L 1005.9816960000317 735.9999999999418 L 1010.0238622720353 738.9080115199322 L 1010.179687424039 739.0234378239256 L 1014.9921873920248 740.5859379199683 L 1021.2689920000266 742.6191359999357 L 1021.8593751040171 742.8124999679276 L 1024.0 744.0641186931607" fill="none"/><path stroke="#000000" stroke-width="2" d="M 633.3517593193828 1024.0 L 633.3515622400446 1023.9882813439472 L 633.3515622400446 1017.9453122559353 L 633.343750144064 1013.5429683199618 L 633.4531246080296 1004.7382814719458 L 627.4062499840511 1004.7382814719458 L 625.2295137280598 1004.7363481599605 L 623.0078126080334 1004.7343749119318 L 619.4218752000597 1004.7382814719458 L 612.7656253440655 1004.8398438399308 L 598.7343749120482 1005.0429685759591 L 594.4374999040156 1005.1445309439441 L 590.9531248640269 1005.2499998719431 L 572.109375488013 1005.4531246079714 L 566.4765624320135 1005.6562503679306 L 563.2031252480228 1005.6562503679306 L 554.9062502400484 1005.7617182719405 L 527.4687498240382 1006.0664063999429 L 523.9843747840496 1006.273437695927 L 521.2187504640315 1006.273437695927 L 516.710937600059 1006.3750000639702 L 513.335937024036 1006.171875327942 L 510.57031270401785 1006.4765624319552 L 505.75781273603207 1006.8867184639676 L 500.74218700802885 1007.3984378879541 L 491.3203128320165 1008.2187499519205 L 487.2187504640315 1008.3203123199637 L 482.921875456057 1008.6289059839328 L 476.88281292805914 1008.6289059839328 L 474.01562521606684 1008.7304683519178 L 470.1249996800325 1008.9335941119352 L 463.15624960005516 1008.9335941119352 L 457.6328120320686 1009.1406254079193 L 451.1796879360336 1009.3437501439475 L 448.61718732805457 1009.3437501439475 L 444.52343705605017 1009.4453125119326 L 438.6875002880115 1009.4453125119326 L 433.25781299202936 1009.5507814399316 L 425.88281241606455 1009.7539061759599 L 415.43750041606836 1010.0624998399289 L 403.14843750401633 1010.2656245759572 L 394.7578122240375 1010.4687503359746 L 385.1328122880659 1010.7773439999437 L 363.3203128320165 1011.390624767926 L 346.52343705605017 1011.8007807999384 L 343.0468751360313 1011.9062497279374 L 329.42187520005973 1012.2109378559398 L 326.14843699202174 1012.2109378559398 L 308.5390622720588 1012.6210938879522 L 305.56250009604264 1012.6210938879522 L 296.4531251200242 1012.8242186239222 L 293.1718748160638 1012.9296875519212 L 281.5000002560555 1013.1328122879495 L 265.2187504640315 1013.5429683199618 L 255.89843763201497 1013.746094079921 L 250.57812480005668 1013.746094079921 L 239.3124997120467 1014.0546877439483 L 233.88281241606455 1014.2578124799184 L 224.05468774406472 1014.6679685119307 L 216.2734376960434 1014.976562175958 L 205.62499993602978 1015.4882815999445 L 205.21093734406168 1010.9843752959277 L 204.9062502400484 1008.5234370559338 L 204.80468787206337 1006.5781247999403 L 203.57812531205127 1000.3320309759583 L 199.99218790401937 999.921874943946 L 194.8671877120505 999.820312575961 L 191.59374950401252 999.820312575961 L 180.74218700802885 999.6171878399327 L 172.75000012805685 999.6171878399327 L 167.6328120320686 999.5156254719477 L 162.10156236804323 999.5156254719477 L 158.10937548801303 999.4101565439487 L 153.09374976006802 999.4101565439487 L 149.60937472002115 999.3085941759637 L 137.21875046403147 999.3085941759637 L 131.89843763201497 999.2070307839313 L 128.92187545605702 999.1054684159462 L 119.29687449603807 999.1054684159462 L 115.20312524802284 999.0000005119364 L 112.23437516804552 999.0039060479612 L 100.3593748480198 998.6953123839339 L 94.00781209603883 998.5937500159489 L 81.10156288003782 998.2851563519216 L 72.19531264004763 998.0820316159516 L 64.10937548801303 997.8750003199675 L 61.851563008036464 997.7734379519243 L 56.11718758405186 997.5664066559402 L 48.85156249604188 997.464843263966 L 45.367187456053216 997.2617185279378 L 42.703125504020136 997.2617185279378 L 37.89062451204518 997.1601561599527 L 33.382812672061846 997.0546872319537 L 29.39062476804247 996.8515624959255 L 21.914062848023605 996.7500001279404 L 13.007812608033419 996.4414064639714 L 7.070312448020559 996.4414064639714 L 1.1328122880659066 996.3398440959281 L 0.0 996.3556620779345" fill="none"/><path stroke="#000000" stroke-width="2" d="M 0.0 292.8439782962814 L 0.7187496960395947 292.85156249592546 L 4.921875456057023 293.0546872319537 L 8.710937600058969 293.2617185279378 L 12.703125504020136 293.3632808959228 L 19.046875136031304 293.5664066559402 L 22.226562048017513 293.6718745599501 L 27.039062016061507 293.7734379519243 L 45.06250035203993 294.08203161595156 L 52.12499968003249 294.1835939839366 L 65.43750041606836 294.4882810879499 L 71.89062451204518 294.5937500159489 L 72.89062502403976 294.61718732793815 L 79.6718745600665 294.79687475191895 L 92.06249984004535 295.20703078393126 L 104.25000038405415 295.820312575961 L 116.94531276804628 295.820312575961 L 128.51562496001134 296.1289062399301 L 143.46874982403824 296.43749990395736 L 152.78124953602673 296.74218700797064 L 180.32812544004992 297.4609377279412 L 192.53125017601997 297.8671871999395 L 192.61718732805457 297.8710937599535 L 199.27343718404882 297.97265612793854 L 206.75000012805685 298.1757808639668 L 213.4062499840511 298.38281215995084 L 234.39843737601768 298.9960939519224 L 235.1718748160638 299.01953126396984 L 236.25781248003477 299.0585937919677 L 237.46874982403824 299.0976563199656 L 246.51166003203252 299.3298094079364 L 253.445312512049 299.5078123519197 L 256.0000000000582 299.5078123519197 L 260.3046871040133 299.71093708794797 L 271.7734379520407 299.917968383932 L 279.5554816000513 300.0195481599658 L 306.9999994880636 300.6328125439468 L 321.02343782404205 301.0429685759591 L 333.6249999360298 301.35156223992817 L 336.078125056054 301.35156223992817 L 343.14843750401633 301.5546879999456 L 356.7656253440655 301.8632816639729 L 365.8750003200257 302.06640639994293 L 372.53125017601997 302.17187532794196 L 376.2187499520369 302.273437695927 L 377.47656294406625 302.3281254399335 L 378.47656243201345 302.3750000639702 L 383.48437504004687 302.57812479994027 L 387.9453122560517 302.7812495359685 L 388.0000000000582 302.7851560959243 L 393.0390620160615 302.85546905593947 L 395.46874982403824 302.88671846396755 L 396.4531251200242 302.9101557759568 L 396.71093760005897 302.9179719679523 L 407.65625036804704 303.19531212793663 L 412.2656245760154 303.29687449592166 L 424.0390625280561 303.5000002559391 L 443.1875000320142 303.9101562879514 L 457.83593779202783 304.2187499519205 L 463.46874982403824 304.3203123199637 L 467.97656268806895 304.42187468794873 L 471.65625036804704 304.42187468794873 L 490.3984373760177 304.8320317439502 L 496.9531248640269 305.0390620159451 L 507.8046873600688 305.2421877759625 L 512.5156249600113 305.2421877759625 L 519.2734371840488 305.65234380797483 L 524.390625280037 305.65234380797483 L 529.6171878400492 305.8554685439449 L 545.0781245440594 306.4687503359746 L 548.2500003840541 306.47265587194124 L 555.3203128320165 306.67578163195867 L 562.4843745280523 306.67578163195867 L 573.0312499200227 306.8789063679287 L 581.023437824042 307.085937663971 L 590.4453120000544 307.28906239994103 L 593.6171878400492 307.4960936959251 L 609.898437632015 307.9062497279374 L 622.6953123840503 308.31250022392487 L 631.195312128053 308.31250022392487 L 640.6171873280546 308.7226562559372 L 646.5546874880674 308.7226562559372 L 650.5468753920286 308.92968755192123 L 663.7578127360321 308.92968755192123 L 670.8281251840526 309.5429683199618 L 685.8828124160646 309.9531253759633 L 699.7031249920256 310.15625011193333 L 722.7421870080288 310.15625011193333 L 729.093749760068 304.0117186559364 L 738.8203120640246 295.0000005119364 L 742.0937502720626 290.6992189439479 L 750.6953123840503 279.84765644796425 L 759.4062499840511 272.2695311359712 L 762.1640622080304 270.2226565119345 L 767.1875000320142 266.7382814719458 L 772.6093752320157 263.46484326396603 L 784.9999994880636 260.5937500159489 L 793.3984378880123 259.57031219196506 L 802.6171873280546 261.0039060479612 L 809.8828124160646 262.6445311999414 L 813.4687498240382 263.4609377279412 L 818.078125056054 264.4882810879499 L 822.3750000640284 265.30468761594966 L 825.1406254080357 265.816406015947 L 831.5937495040125 267.1484375039581 L 837.8437498880667 268.58203135995427 L 836.921875456057 255.67968767991988 L 836.3046871040133 251.37890611193143 L 835.4843750400469 238.6835937279393 L 834.460937216063 227.007812607917 L 834.3593748480198 213.28515583992703 L 837.3281249280553 210.62500044796616 L 840.6015621120459 207.5507814399316 L 845.4218752000597 203.0468751359731 L 853.3046876160661 196.49218764796387 L 866.921875456057 190.554687487951 L 871.7343754240428 188.5039063039585 L 888.3203123200219 182.7734374399297 L 896.5156249600113 184.8203120639664 L 902.4531251200242 186.25390591996256 L 906.6562498560525 186.8671877119341 L 914.2265620480175 188.5078128639725 L 918.7343749120482 189.7343754239264 L 923.8593751040171 190.75781222392106 L 930.6171873280546 192.19140607991721 L 935.8359377920278 193.3203128319583 L 940.3437496320112 194.44531199993799 L 944.0312504320173 195.26562508795178 L 950.0703129600151 196.69921894394793 L 956.3203123200219 197.92578150396002 L 960.6171873280546 191.98828134394716 L 961.9453122560517 188.60937523195753 L 962.8671877120505 186.0468746239203 L 964.921875456057 180.92968755192123 L 967.6796876800363 174.17187532794196 L 969.5234375680448 170.277344255941 L 973.2109373440617 163.3164062719443 L 975.3671874560532 159.62890649592737 L 978.6406246400438 154.71484415995656 L 984.5781248000567 150.0039065599558 L 988.2656245760154 147.1367188479635 L 993.2812503040186 144.06249983992893 L 1000.5546874880674 142.83593727997504 L 1006.9062502400484 141.6054691839381 L 1019.5000002560555 139.76562483195448 L 1024.0 139.0140346016051" fill="none"/><path stroke="#000000" stroke-width="2" d="M 1024.0 139.0140346016051 L 1019.5000002560555 139.76562483195448 L 1006.9062502400484 141.6054691839381 L 1000.5546874880674 142.83593727997504 L 993.2812503040186 144.06249983992893 L 988.2656245760154 147.1367188479635 L 984.5781248000567 150.0039065599558 L 978.6406246400438 154.71484415995656 L 975.3671874560532 159.62890649592737 L 973.2109373440617 163.3164062719443 L 969.5234375680448 170.277344255941 L 967.6796876800363 174.17187532794196 L 964.921875456057 180.92968755192123 L 962.8671877120505 186.0468746239203 L 961.9453122560517 188.60937523195753 L 960.6171873280546 191.98828134394716 L 956.3203123200219 197.92578150396002 L 950.0703129600151 196.69921894394793 L 944.0312504320173 195.26562508795178 L 940.3437496320112 194.44531199993799 L 935.8359377920278 193.3203128319583 L 930.6171873280546 192.19140607991721 L 923.8593751040171 190.75781222392106 L 918.7343749120482 189.7343754239264 L 914.2265620480175 188.5078128639725 L 906.6562498560525 186.8671877119341 L 902.4531251200242 186.25390591996256 L 896.5156249600113 184.8203120639664 L 888.3203123200219 182.7734374399297 L 871.7343754240428 188.5039063039585 L 866.921875456057 190.554687487951 L 853.3046876160661 196.49218764796387 L 845.4218752000597 203.0468751359731 L 840.6015621120459 207.5507814399316 L 837.3281249280553 210.62500044796616 L 834.3593748480198 213.28515583992703 L 834.460937216063 227.007812607917 L 835.4843750400469 238.6835937279393 L 836.3046871040133 251.37890611193143 L 836.921875456057 255.67968767991988 L 837.8437498880667 268.58203135995427 L 831.5937495040125 267.1484375039581 L 825.1406254080357 265.816406015947 L 822.3750000640284 265.30468761594966 L 818.078125056054 264.4882810879499 L 813.4687498240382 263.4609377279412 L 809.8828124160646 262.6445311999414 L 802.6171873280546 261.0039060479612 L 793.3984378880123 259.57031219196506 L 784.9999994880636 260.5937500159489 L 772.6093752320157 263.46484326396603 L 767.1875000320142 266.7382814719458 L 762.1640622080304 270.2226565119345 L 759.4062499840511 272.2695311359712 L 750.6953123840503 279.84765644796425 L 742.0937502720626 290.6992189439479 L 738.8203120640246 295.0000005119364 L 729.093749760068 304.0117186559364 L 722.7421870080288 310.15625011193333 L 699.7031249920256 310.15625011193333 L 685.8828124160646 309.9531253759633 L 670.8281251840526 309.5429683199618 L 663.7578127360321 308.92968755192123 L 650.5468753920286 308.92968755192123 L 646.5546874880674 308.7226562559372 L 640.6171873280546 308.7226562559372 L 631.195312128053 308.31250022392487 L 622.6953123840503 308.31250022392487 L 609.898437632015 307.9062497279374 L 593.6171878400492 307.4960936959251 L 590.4453120000544 307.28906239994103 L 581.023437824042 307.085937663971 L 573.0312499200227 306.8789063679287 L 562.4843745280523 306.67578163195867 L 555.3203128320165 306.67578163195867 L 548.2500003840541 306.47265587194124 L 545.0781245440594 306.4687503359746 L 529.6171878400492 305.8554685439449 L 524.390625280037 305.65234380797483 L 519.2734371840488 305.65234380797483 L 512.5156249600113 305.2421877759625 L 507.8046873600688 305.2421877759625 L 496.9531248640269 305.0390620159451 L 490.3984373760177 304.8320317439502 L 471.65625036804704 304.42187468794873 L 467.97656268806895 304.42187468794873 L 463.46874982403824 304.3203123199637 L 457.83593779202783 304.2187499519205 L 443.1875000320142 303.9101562879514 L 424.0390625280561 303.5000002559391 L 412.2656245760154 303.29687449592166 L 407.65625036804704 303.19531212793663 L 396.71093760005897 302.9179719679523 L 396.4531251200242 302.9101557759568 L 395.46874982403824 302.88671846396755 L 393.0390620160615 302.85546905593947 L 388.0000000000582 302.7851560959243 L 387.9453122560517 302.7812495359685 L 383.48437504004687 302.57812479994027 L 378.47656243201345 302.3750000639702 L 377.47656294406625 302.3281254399335 L 376.2187499520369 302.273437695927 L 372.53125017601997 302.17187532794196 L 365.8750003200257 302.06640639994293 L 356.7656253440655 301.8632816639729 L 343.14843750401633 301.5546879999456 L 336.078125056054 301.35156223992817 L 333.6249999360298 301.35156223992817 L 321.02343782404205 301.0429685759591 L 306.9999994880636 300.6328125439468 L 279.5554816000513 300.0195481599658 L 271.7734379520407 299.917968383932 L 260.3046871040133 299.71093708794797 L 256.0000000000582 299.5078123519197 L 253.445312512049 299.5078123519197 L 246.51166003203252 299.3298094079364 L 237.46874982403824 299.0976563199656 L 236.25781248003477 299.0585937919677 L 235.1718748160638 299.01953126396984 L 234.39843737601768 298.9960939519224 L 213.4062499840511 298.38281215995084 L 206.75000012805685 298.1757808639668 L 199.27343718404882 297.97265612793854 L 192.61718732805457 297.8710937599535 L 192.53125017601997 297.8671871999395 L 180.32812544004992 297.4609377279412 L 152.78124953602673 296.74218700797064 L 143.46874982403824 296.43749990395736 L 128.51562496001134 296.1289062399301 L 116.94531276804628 295.820312575961 L 104.25000038405415 295.820312575961 L 92.06249984004535 295.20703078393126 L 79.6718745600665 294.79687475191895 L 72.89062502403976 294.61718732793815 L 71.89062451204518 294.5937500159489 L 65.43750041606836 294.4882810879499 L 52.12499968003249 294.1835939839366 L 45.06250035203993 294.08203161595156 L 27.039062016061507 293.7734379519243 L 22.226562048017513 293.6718745599501 L 19.046875136031304 293.5664066559402 L 12.703125504020136 293.3632808959228 L 8.710937600058969 293.2617185279378 L 4.921875456057023 293.0546872319537 L 0.7187496960395947 292.85156249592546 L 0.0 292.8439782962814" fill="none"/><path stroke="#000000" stroke-width="2" d="M 625.2295137280598 1004.7363481599605 L 627.4062499840511 1004.7382814719458 L 633.4531246080296 1004.7382814719458 L 633.343750144064 1013.5429683199618 L 633.3515622400446 1017.9453122559353 L 633.3515622400446 1023.9882813439472 L 633.3517593193828 1024.0" fill="none"/><path stroke="#000000" stroke-width="2" d="M 205.72923742052808 1024.0 L 205.7265623040148 1023.8867189759621 L 205.62499993602978 1019.7890621439437 L 205.62499993602978 1015.4882815999445 L 216.2734376960434 1014.976562175958 L 224.05468774406472 1014.6679685119307 L 233.88281241606455 1014.2578124799184 L 239.3124997120467 1014.0546877439483 L 250.57812480005668 1013.746094079921 L 255.89843763201497 1013.746094079921 L 265.2187504640315 1013.5429683199618 L 281.5000002560555 1013.1328122879495 L 293.1718748160638 1012.9296875519212 L 296.4531251200242 1012.8242186239222 L 305.56250009604264 1012.6210938879522 L 308.5390622720588 1012.6210938879522 L 326.14843699202174 1012.2109378559398 L 329.42187520005973 1012.2109378559398 L 343.0468751360313 1011.9062497279374 L 346.52343705605017 1011.8007807999384 L 363.3203128320165 1011.390624767926 L 385.1328122880659 1010.7773439999437 L 394.7578122240375 1010.4687503359746 L 403.14843750401633 1010.2656245759572 L 415.43750041606836 1010.0624998399289 L 425.88281241606455 1009.7539061759599 L 433.25781299202936 1009.5507814399316 L 438.6875002880115 1009.4453125119326 L 444.52343705605017 1009.4453125119326 L 448.61718732805457 1009.3437501439475 L 451.1796879360336 1009.3437501439475 L 457.6328120320686 1009.1406254079193 L 463.15624960005516 1008.9335941119352 L 470.1249996800325 1008.9335941119352 L 474.01562521606684 1008.7304683519178 L 476.88281292805914 1008.6289059839328 L 482.921875456057 1008.6289059839328 L 487.2187504640315 1008.3203123199637 L 491.3203128320165 1008.2187499519205 L 500.74218700802885 1007.3984378879541 L 505.75781273603207 1006.8867184639676 L 510.57031270401785 1006.4765624319552 L 513.335937024036 1006.171875327942 L 516.710937600059 1006.3750000639702 L 521.2187504640315 1006.273437695927 L 523.9843747840496 1006.273437695927 L 527.4687498240382 1006.0664063999429 L 554.9062502400484 1005.7617182719405 L 563.2031252480228 1005.6562503679306 L 566.4765624320135 1005.6562503679306 L 572.109375488013 1005.4531246079714 L 590.9531248640269 1005.2499998719431 L 594.4374999040156 1005.1445309439441 L 598.7343749120482 1005.0429685759591 L 612.7656253440655 1004.8398438399308 L 619.4218752000597 1004.7382814719458 L 623.0078126080334 1004.7343749119318 L 625.2295137280598 1004.7363481599605" fill="none"/><path stroke="#408040" stroke-width="3" d="M 0.0 870.7896244334988 L 16.158720000006724 867.6454400000002 L 35.64543999999296 865.372159999999 L 57.67167999999947 855.6953599999979 L 70.38976000000548 849.1110400000034 L 86.7737599999964 843.9910400000008 L 104.11007999999856 838.3078400000013 L 128.2048000000068 832.2560000000012 L 137.51295999999274 828.7129599999971 L 146.39104000000225 827.7401600000012 L 161.90463999999338 821.9750399999975 L 166.23616000000038 819.3126399999965 L 173.97759999999835 817.3772800000006 L 196.24959999999555 813.9366399999999 L 212.84863999999652 812.6771200000003 L 224.7679999999964 808.4787199999992 L 235.73503999999957 802.734080000002 L 248.94464000000153 797.9724799999967 L 265.2774400000053 796.1702399999995 L 292.2291200000036 795.3612799999974 L 311.30624000000535 791.0912000000026 L 330.67007999999623 791.5315199999968 L 348.2112000000052 790.1388799999986 L 368.62975999999617 791.3471999999965 L 379.38176000000385 791.848960000003 L 389.06879999999364 789.6473600000027 L 405.57567999999446 782.3052800000005 L 419.63520000000426 772.5055999999968 L 430.090240000005 761.231359999998 L 436.4799999999959 755.333120000003 L 446.32064000000537 750.8479999999981 L 463.56479999999283 745.0214399999968 L 513.4745600000024 732.0576000000001 L 521.8611200000014 728.2073600000003 L 529.3567999999941 723.1795199999979 L 541.747199999998 716.3699199999974 L 563.0566399999952 714.0556799999977 L 577.4336000000039 707.1232000000018 L 600.514559999996 701.4195200000031 L 608.9216000000015 700.4159999999974 L 613.5910399999993 701.0508800000025 L 635.709440000006 704.6041600000026 L 647.9052800000063 705.0956799999985 L 657.5820799999929 700.610560000001 L 665.2927999999956 699.00288 L 674.918399999995 695.3574399999998 L 688.2611199999956 686.9299200000023 L 698.6854400000011 682.3833599999998 L 708.3007999999973 680.7347200000004 L 722.9952000000048 679.5468800000017 L 742.5843199999945 676.9049599999998 L 750.4691199999943 677.1507199999978 L 756.5619199999928 674.9491199999975 L 765.4400000000023 671.2524800000028 L 776.8883199999982 669.0815999999977 L 790.712320000006 667.8118400000021 L 809.2467199999955 664.8831999999966 L 827.299840000007 660.4800000000032 L 843.4688000000024 657.6537600000011 L 871.5878399999929 657.254399999998 L 892.7027200000011 658.9132800000007 L 901.0483200000017 658.6572799999994 L 905.7689600000012 662.8352000000014 L 912.1894400000019 666.0095999999976 L 921.8047999999981 667.9142399999982 L 935.7926399999997 668.0883200000026 L 956.8972800000047 668.3545599999998 L 963.1744000000035 669.2863999999972 L 965.6115200000058 666.9414400000023 L 967.9052800000063 662.5894400000034 L 971.0080000000016 660.6950399999987 L 971.7862400000013 658.6060799999977 L 969.4719999999943 654.2438400000028 L 966.8915200000047 654.4793599999975 L 965.5398399999976 655.8617599999998 L 964.6387200000026 656.5171199999968 L 963.0105599999952 656.0256000000008 L 962.7136000000028 655.5238400000017" fill="none"/><path stroke="#408040" stroke-width="3" d="M 962.6726400000043 655.4419199999975 L 962.314240000007 654.99136 L 962.0684800000017 654.7763199999972 L 961.7203199999931 654.5408000000025 L 961.5257600000041 654.4383999999991 L 961.3312000000005 654.3462399999989 L 961.3926400000055 654.2540799999988 L 961.546239999996 654.1312000000034 L 961.5974399999977 654.0902399999977 L 962.078720000005 653.8444799999997 L 963.9731199999951 652.902399999999 L 965.3350400000054 652.4313600000023 L 965.6319999999978 652.2060800000036 L 965.703680000006 652.0934399999969 L 965.6012800000026 652.0729599999977 L 965.4272000000055 652.01152 L 964.9049599999998 651.5507199999993 L 964.1472000000067 650.6598400000003 L 961.7100800000044 648.212480000002 L 958.7097599999979 645.5091200000024 L 957.5935999999929 644.5363199999993 L 956.5900799999945 643.7990399999981 L 954.5727999999945 642.5292800000025 L 951.4496000000072 640.9216000000015 L 951.2448000000004 640.9011200000023 L 950.5894399999961 640.5017599999992 L 949.6576000000059 639.9385600000023 L 947.8860799999966 638.5049599999984 L 946.4729599999991 636.7334400000036 L 945.735679999998 635.48416 L 945.4899200000073 634.7366400000028 L 945.4079999999958 633.9788800000024 L 945.5616000000009 632.6374399999986 L 945.674239999993 631.9923199999976 L 945.7049600000028 631.0912000000026 L 945.4899200000073 629.9955199999968 L 945.1929600000003 629.2787200000021 L 944.8857600000047 628.7667199999996 L 944.0665600000066 627.7734399999972 L 943.0016000000032 626.8211200000005 L 941.5167999999976 625.6947199999995 L 940.1651200000051 624.6809599999979 L 938.7827200000029 623.47264 L 937.1238400000002 621.6396800000002 L 935.8438400000014 620.5747199999969 L 933.9391999999934 619.130879999997 L 930.7545600000012 616.7449600000036 L 928.9932799999951 615.3727999999974 L 927.6006400000042 614.0825600000026 L 925.02016 611.215360000002 L 922.767359999998 608.716800000002 L 920.5657599999977 606.2592000000004 L 918.8454400000046 604.2111999999979 L 918.2105600000068 603.00288 L 918.0364799999952 602.4806400000016 L 917.8009599999932 600.8627199999974 L 917.7087999999931 598.9375999999975 L 917.5859199999977 596.7155199999979 L 917.5552000000025 594.9951999999976 L 918.2105600000068 589.9775999999983 L 918.3948800000071 587.5507199999993 L 918.5587200000009 583.7004799999995 L 919.1526400000002 581.2019199999995 L 919.2960000000021 580.03456 L 919.1833599999954 578.7238399999987 L 918.8147199999948 577.3824000000022 L 917.5859199999977 573.5731200000009 L 916.7462399999931 570.9721599999975 L 916.459520000004 569.6512000000002 L 916.3571200000006 568.6476800000019 L 916.3776000000071 567.3574399999998 L 916.7052799999947 565.6473600000027 L 918.906879999995 558.2233600000036 L 919.5007999999943 555.9807999999975 L 919.6339199999929 554.7417599999972 L 919.6441599999962 553.8918399999966 L 919.5315200000041 552.7449600000036 L 919.316479999994 551.731200000002 L 918.6815999999963 550.0006399999984 L 918.067200000005 548.8640000000014 L 915.7427199999947 545.5564799999993 L 914.0940799999953 543.2217600000004 L 908.9024000000063 535.8899200000014 L 906.3321600000054 532.2649600000004 L 905.1340800000035 530.3091199999981 L 904.3968000000023 528.5887999999977 L 903.9257599999983 526.8275199999989 L 903.7004799999995 525.0252800000017 L 903.485440000004 520.0895999999993 L 903.3318399999989 516.351999999999 L 903.2192000000068 513.4028800000015 L 902.9119999999966 511.27296000000206 L 902.5638400000025 509.98272 L 902.2566400000069 509.1840000000011 L 901.4272000000055 507.48416 L 900.8640000000014 506.52160000000003 L 899.7068799999979 505.0368000000017 L 897.1673600000067 502.20032000000356 L 892.2316799999971 496.7014399999971 L 889.0675199999969 493.1686400000035 L 887.7977600000013 491.5507199999993 L 887.0911999999953 490.45504000000074 L 886.2207999999955 488.77567999999883 L 885.5654400000058 487.08608000000095 L 885.1660799999954 485.56031999999686 L 884.9510399999999 484.24960000000283 L 884.8588799999998 482.59072000000015 L 884.8998399999982 481.51552000000083 L 885.2582399999956 478.36159999999654 L 885.6166399999929 475.2895999999964 L 885.9545599999983 471.83871999999974 L 885.9545599999983 470.21055999999953 L 885.8419200000062 468.7462400000004 L 885.3811200000055 466.0838399999993 L 883.8656000000046 460.1753600000011 L 883.02592 457.82016000000294 L 881.8585599999933 455.4137600000031 L 878.8275200000062 449.9763200000016 L 875.3868800000055 443.7913600000029 L 873.584640000001 440.62720000000263 L 871.4239999999991 437.44256000000314 L 866.9388800000015 430.98111999999674 L 865.8636799999949 429.4656000000032 L 864.6144000000058 427.89888000000064 L 863.8566399999982 427.05920000000333 L 861.6447999999946 424.7039999999979 L 858.5420799999993 421.40671999999904 L 853.7190399999963 416.19456000000355 L 852.2035199999955 414.2079999999987 L 851.3433599999989 412.90752000000066 L 850.4934400000056 411.3919999999998 L 849.5820799999929 409.3747199999998 L 848.9881599999935 407.7363200000036 L 847.656959999993 403.23071999999956 L 845.2608000000037 395.130879999997 L 840.8268799999933 380.17023999999947 L 839.7516800000012 376.5862399999969 L 838.5843199999945 373.350400000003 L 834.8467200000014 365.0662400000001 L 825.3542400000006 344.27904000000126 L 822.00576 336.9369599999991 L 816.4556799999991 324.80255999999645 L 810.4140800000023 311.613440000001 L 809.8611200000014 310.0671999999977 L 809.5129599999927 308.6131200000018 L 808.7859199999948 303.4419199999975 L 808.0793600000034 298.15808000000106 L 807.9872000000032 295.53663999999844 L 808.1407999999938 293.1302399999986 L 808.4377600000007 291.2665599999964 L 808.8473599999998 289.607680000001 L 809.328640000007 287.9487999999983 L 810.1990400000068 285.6652800000011 L 811.2742399999988 283.4534399999975 L 812.2982400000037 281.5590400000001 L 814.8889599999966 276.7564799999964 L 815.3702400000038 275.57888000000094 L 815.697920000006 273.8073599999989 L 815.7081599999947 272.2406400000036 L 815.462400000004 270.73535999999876 L 815.0220799999952 269.4656000000032 L 814.735360000006 268.85119999999733 L 813.9468800000031 267.5916799999977 L 813.2403199999972 266.71104000000196 L 812.3596799999941 265.8099199999997 L 810.0249599999952 263.49568 L 803.2768000000069 256.8191999999981 L 800.706560000006 254.38208000000304 L 799.2524799999956 253.265919999998 L 797.5014399999927 252.1600000000035 L 794.1324800000002 250.41919999999664 L 790.671359999993 248.6067200000034 L 788.8383999999933 247.43935999999667 L 787.3433599999989 246.33344000000216 L 785.8995200000063 245.08415999999852 L 784.4454399999959 243.59936000000016 L 783.3395199999941 242.26815999999963 L 782.1312000000034 240.54783999999927 L 779.8579199999949 237.1174400000018 L 776.642559999993 232.29439999999886 L 774.1849599999987 228.59775999999692 L 773.0790399999969 227.12320000000182 L 771.7990399999981 225.85343999999895 L 770.4064000000071 224.79871999999887 L 768.2252799999987 223.55967999999848 L 766.3513600000006 222.80191999999806 L 764.375039999999 222.22847999999794 L 759.9820800000016 221.22495999999956 L 756.7564799999964 220.48767999999836 L 754.4832000000024 219.81184000000212 L 753.1622400000051 219.238400000002 L 752.0972800000018 218.67519999999786 L 750.4896000000008 217.58976000000257 L 749.1584000000003 216.44288000000233 L 747.8988799999934 215.01952000000165 L 746.9772800000064 213.5859199999977 L 746.3116799999989 212.09088000000338 L 745.8713600000046 210.3295999999973 L 745.7792000000045 208.58879999999772 L 746.168319999997 205.3324799999973 L 746.7519999999931 200.81663999999728 L 746.8646399999998 199.9155200000023 L 746.8646399999998 198.3385599999965 L 746.639360000001 197.35551999999734 L 746.403839999999 196.74111999999877 L 745.9225600000063 195.85023999999976 L 745.093120000005 194.79551999999967 L 744.4377600000007 194.16064000000188 L 743.5264000000025 193.4438399999999 L 742.6560000000027 192.9216000000015 L 741.6831999999995 192.44032000000152 L 739.3791999999958 191.61088000000018 L 738.4473600000056 191.2627199999988 L 737.0649600000033 190.61759999999776 L 735.590400000001 189.79839999999967 L 734.4742399999959 189.02016000000003 L 733.4092800000071 188.1600000000035 L 732.354560000007 187.1052800000034 L 731.668479999993 186.28607999999804 L 729.2927999999956 182.75327999999718 L 725.5552000000025 176.94720000000234 L 722.9440000000031 172.81023999999888 L 722.1964799999987 171.8067200000005 L 721.0393599999952 170.54720000000088 L 719.4112000000023 169.09311999999773 L 718.929919999995 168.7039999999979 L 717.445120000004 167.55711999999767 L 714.2809600000037 164.97664000000077 L 712.8473599999998 163.63519999999698 L 711.2908800000005 162.02752000000328 L 707.0515199999936 157.2352000000028 L 700.9484800000064 150.40512000000308 L 699.5660800000041 149.18656000000192 L 698.2758400000021 148.22400000000198 L 697.1494399999938 147.52767999999924 L 695.3472000000038 146.55488000000332 L 693.0124800000049 145.58208000000013 L 691.6812800000043 145.1417599999986 L 684.9843200000032 143.1961599999995 L 683.3151999999973 142.53055999999924 L 681.8815999999933 141.78304000000207 L 681.1647999999986 141.3324799999973 L 679.8335999999981 140.32895999999892 L 678.7891200000013 139.3356799999965 L 677.5193600000057 137.758719999998 L 676.761599999998 136.3353599999973 L 675.450880000004 132.8127999999997 L 671.6825600000011 122.98240000000078 L 670.9452799999999 121.30303999999887 L 670.2694400000037 120.28927999999723 L 669.4707199999975 119.377919999999 L 668.0883199999953 118.12864000000263 L 664.2483199999988 114.75968000000285 L 661.0124800000049 111.9334400000007 L 658.145279999997 109.37344000000303 L 657.2339199999988 108.44159999999829 L 656.1484800000035 107.120640000001 L 655.2166399999987 105.73823999999877 L 654.325760000007 104.09984000000259 L 652.7283199999947 100.97664000000077 L 648.0998399999953 91.99616000000242 L 646.2156799999939 88.88319999999658 L 645.232640000002 87.4803200000024 L 642.3244799999957 83.26144000000204 L 639.0476800000033 78.44864000000234 L 637.0508799999952 75.2025599999979 L 635.9961599999951 73.36959999999817 L 634.7980799999932 70.8096000000005 L 634.1119999999937 69.22239999999874 L 633.221120000002 67.19488000000274 L 632.5350400000025 65.96607999999833 L 629.6985600000044 61.67551999999705 L 628.4185600000055 59.883520000003045 L 627.4150400000071 58.869760000001406 L 625.5206400000025 57.40544000000227 L 623.9232000000047 56.207360000000335 L 620.4416000000056 53.56543999999849 L 616.4275199999975 50.63680000000022 L 613.5398399999976 48.49663999999757 L 611.0822400000034 46.62271999999939 L 608.2048000000068 43.23328000000038 L 606.1055999999953 40.755199999999604 L 604.8563200000062 39.20896000000357 L 604.2828799999988 38.348799999999756 L 603.0950400000002 36.40320000000065 L 602.4499199999991 35.32800000000134 L 602.1427200000035 34.65215999999782 L 601.866240000003 33.710079999997106 L 601.6716799999995 32.66560000000027 L 601.4668800000072 31.55967999999848 L 600.924159999995 28.77440000000206 L 600.494080000004 26.16320000000269 L 599.7158400000044 22.159359999997832 L 599.6031999999977 21.217279999997118 L 599.2448000000004 18.954239999999118 L 599.1731200000067 17.24416000000201 L 599.1935999999987 16.261120000002848 L 598.3641599999974 16.49663999999757 L 596.8076799999981 16.967680000001565 L 594.7187200000044 17.551359999997658 L 594.0428799999936 15.411200000002282 L 593.7459200000012 14.325759999999718 L 593.3670399999974 13.066240000000107 L 592.773119999998 13.035519999997632 L 591.4316799999942 12.933120000001509 L 590.3667200000054 12.871679999996559 L 589.0559999999969 12.77951999999641 L 586.2707200000004 12.584960000000137 L 584.7244800000044 12.472320000000764 L 581.2736000000004 11.888639999997395 L 579.5225599999976 11.34591999999975 L 576.7475200000044 10.700799999998708 L 570.2143999999971 9.308160000000498 L 562.8825599999982 9.308160000000498 L 561.1724799999938 9.287680000001274 L 560.2508800000069 9.277439999998023 L 560.127999999997 9.185279999997874 L 560.127999999997 8.570879999999306 L 560.127999999997 7.444479999998293 L 560.1177599999937 6.891519999997399 L 559.9232000000047 6.553599999999278 L 559.6876800000027 6.031360000000859 L 559.6159999999945 5.7036799999987124 L 559.3702400000038 4.392959999997402 L 558.8684800000046 4.433920000003127 L 558.2950399999972 4.474880000001576" fill="none"/><path stroke="#408040" stroke-width="3" d="M 962.6726400000043 655.4419199999975 L 962.0684800000017 654.7763199999972 L 961.0649600000033 654.264320000002 L 960.3379200000054 654.0697599999985 L 960.0409599999984 654.0288 L 959.825920000003 654.0185599999968 L 959.6928000000044 653.9263999999966 L 959.7951999999932 653.7113600000012 L 960.0921600000001 653.3017600000021 L 960.7782399999996 652.8204800000021 L 962.4575999999943 652.3392000000022 L 963.3382399999973 652.0627200000017 L 963.9526400000032 651.7145600000003 L 964.2495999999956 651.5916799999977 L 964.4032000000007 651.6940800000011 L 964.9664000000048 652.1958400000003 L 966.2771199999988 653.1174400000018 L 967.3215999999957 653.6908800000019 L 967.9052800000063 653.9878400000016 L 968.5811200000026 654.2131200000003 L 969.8099199999997 654.9708800000008 L 970.1990400000068 655.4214399999983 L 970.4345599999942 655.9846400000024 L 971.0284799999936 657.7971200000029 L 971.3356800000038 658.7084800000011 L 971.345920000007 659.0566400000025 L 971.1513600000035 659.8553600000014 L 970.8134399999981 660.3263999999981 L 969.932799999995 661.0022400000016 L 967.741439999998 662.2310399999988 L 964.587520000001 663.2345599999971 L 963.9219199999934 663.623679999997 L 963.3587200000038 664.2790400000013 L 962.7033599999995 666.2553600000028 L 962.1708800000051 667.883520000003 L 960.8601599999965 671.5596799999985 L 959.354879999999 674.6111999999994 L 957.5014399999927 678.0211199999976 L 956.9587199999951 679.2908800000005 L 956.8972800000047 680.1715200000035 L 957.02016 680.6732800000027 L 957.5628799999977 681.6255999999994 L 958.3411199999973 682.5472000000009 L 959.4470399999991 683.7555199999988 L 962.6931199999963 687.3702399999966 L 966.9222399999999 691.9167999999991 L 968.1100799999986 693.4732799999983 L 969.6358400000026 695.9206399999966 L 970.7519999999931 697.7740800000029 L 971.304959999994 699.4329599999983 L 971.3254400000005 701.0099199999968 L 970.9875199999951 702.3308800000013 L 969.5743999999977 705.6793600000019 L 968.683520000006 708.1676799999987 L 968.6015999999945 709.6012800000026 L 968.796159999998 710.4716800000024 L 969.1545599999954 711.3113599999997 L 969.7075199999963 712.1100799999986 L 970.3014399999956 712.7347200000004 L 973.4655999999959 715.53024 L 974.2540799999988 716.5235200000025 L 975.0630399999936 718.0390400000033 L 977.0393599999952 721.8278399999981 L 978.4729599999991 724.6233599999978 L 979.1692800000019 726.6406399999978 L 979.9782399999967 729.5897600000026 L 979.9475200000015 731.1359999999986 L 979.7017599999963 732.0268799999976 L 979.261440000002 732.9075200000007 L 976.8448000000062 736.1331199999986 L 973.2710400000069 740.8435200000022 L 972.4416000000056 742.1542400000035 L 972.1241600000067 743.2294400000028 L 972.0831999999937 744.2227199999979 L 972.2367999999988 745.0931199999977 L 972.6975999999995 746.168319999997 L 975.697920000006 750.8889599999966 L 980.9305599999934 759.0809599999993 L 983.9718399999983 763.6684800000003 L 984.4019200000039 764.610560000001 L 984.6374400000059 765.4707199999975 L 985.159679999997 767.5494400000025 L 985.5692799999961 769.1161599999978 L 985.9686400000064 769.9968000000008 L 986.6956800000044 770.9593600000007 L 987.3305600000022 771.5532800000001 L 988.2214399999939 772.1779200000019 L 989.3785599999974 772.751360000002 L 992.1843200000003 773.6934400000027 L 993.4438400000072 774.1132799999978 L 994.6419199999946 774.6560000000027 L 996.1574399999954 775.7721600000004 L 998.4204800000007 777.9532800000015 L 998.8812800000014 778.5779200000034 L 999.2908800000005 779.4073599999974 L 999.5776000000042 780.5849600000001 L 999.8540800000046 782.4076799999966 L 1000.1100799999986 784.1689600000027 L 1000.1203200000018 785.5718399999969 L 999.9667199999967 788.7155199999979 L 999.8233599999949 790.2719999999972 L 999.2294399999955 791.6441600000035 L 998.1747199999954 792.8627199999974 L 997.4784000000072 793.4054400000023 L 996.116479999997 794.122239999997 L 994.1811199999938 794.8697600000014 L 991.5391999999993 795.8732799999998 L 990.3206400000054 796.3955199999982 L 988.7231999999931 797.2761600000013 L 987.7708799999964 797.9315199999983 L 985.2723200000037 800.2560000000012 L 981.4835199999943 804.0959999999977 L 979.98848 805.5910399999993 L 977.8380800000014 807.3523199999981 L 975.9641600000032 808.5606400000033 L 974.1824000000051 809.51296 L 971.5916799999977 810.5881599999993 L 968.0793600000034 811.601920000001 L 964.2495999999956 812.2163199999995 L 958.7200000000012 812.9638399999967 L 946.6572799999994 814.5919999999969 L 935.0348800000065 816.0870399999985 L 931.7273600000044 816.2406400000036 L 928.1024000000034 816.1382400000002 L 920.9446400000015 815.7388799999972 L 915.1385600000067 815.4931199999992 L 910.4793599999975 815.6057599999986 L 898.1708800000051 815.9436799999967 L 893.6038399999961 815.9231999999975 L 891.6377599999978 815.7183999999979 L 889.5795199999993 815.3395200000014 L 887.0399999999936 814.6022400000002 L 885.7907200000045 814.1312000000034 L 885.3196800000005 813.8035200000013 L 884.2649600000004 813.1584000000003 L 883.9065600000031 812.666879999997 L 883.8144000000029 811.2844800000021 L 883.6095999999961 810.639360000001 L 883.2307200000068 810.1376000000018 L 882.851840000003 809.9123200000031 L 882.2783999999956 809.758719999998 L 881.735679999998 809.7791999999972 L 881.2032000000036 809.9635199999975 L 880.537599999996 810.5984000000026 L 879.2575999999972 813.0048000000024 L 877.6704000000027 815.7491200000004 L 874.6905600000027 820.152320000001 L 872.6118399999978 822.732799999998 L 869.2736000000004 826.3884800000014 L 860.9894400000048 835.3382399999973 L 853.8931199999934 842.9567999999999 L 846.0288 851.5072 L 839.3830400000006 858.6444800000027 L 836.8742400000046 860.9894399999976 L 833.5871999999945 863.6108800000002 L 829.7676800000045 866.1299199999994 L 827.4636800000007 867.4918400000024 L 824.6681600000011 868.9254399999991 L 820.8281600000046 870.8710399999982 L 816.1689599999954 873.2364799999996 L 812.9433600000048 875.2025599999979 L 810.3423999999941 877.0969600000026 L 807.6697600000043 878.9401599999983 L 804.4236800000072 880.9574399999983 L 800.2252799999987 883.5686399999977 L 798.5971200000058 884.879359999999 L 797.5628799999977 885.8931200000006 L 796.2624000000069 887.4700799999991 L 793.5488000000041 891.412479999999 L 791.6441599999962 894.156799999997 L 789.7599999999948 896.9011200000023 L 788.459520000004 898.8672000000006 L 787.4560000000056 900.8537599999981 L 786.7494399999996 903.086080000001 L 786.4524800000072 905.103360000001 L 786.5241600000008 909.5679999999993 L 786.6675200000027 912.3737600000022 L 787.1692800000019 914.7596800000028 L 787.7017599999963 916.2547199999972 L 788.5619199999928 918.1286400000026 L 791.2448000000004 923.6275200000018 L 792.8422399999981 926.863360000003 L 795.3920000000071 932.1676799999987 L 796.0166400000016 933.887999999999 L 796.4159999999974 935.6287999999986 L 796.6003199999977 937.2876800000013 L 796.4979199999943 939.8067200000005 L 796.1088000000018 941.7727999999988 L 795.299840000007 944.0153599999976 L 792.2688000000053 950.2003200000036 L 790.6918399999995 953.384960000003 L 789.8931199999934 955.00288 L 788.5004800000024 957.4911999999968 L 784.2304000000004 964.4851199999976 L 781.0559999999969 969.6870399999971 L 772.761599999998 983.3062399999981 L 769.6179200000042 988.364800000003 L 767.8668800000014 990.5152000000016 L 765.7881599999964 992.5017599999992 L 763.7504000000044 994.0787199999977 L 760.4531200000056 996.4032000000007 L 752.2508800000069 1002.1990399999995 L 739.5942400000058 1011.1590399999986 L 735.590400000001 1013.9955199999968 L 733.081600000005 1016.0332800000033 L 730.6444800000027 1018.3987199999974 L 729.2313600000052 1020.0166400000016 L 727.7977600000013 1021.9519999999975 L 726.8249599999981 1023.4879999999976 L 726.5613344680751 1024.0" fill="none"/></svg>