<svg xmlns="http://www.w3.org/2000/svg" width="1024" height="1024"><rect stroke="none" x="0" y="0" width="1024" height="1024" fill="white"/><path stroke="#000000" stroke-width="2" d="M 1024.0 587.3312782123539 L 1020.8281251840526 586.3281254399335 L 1016.7343749120482 583.8710937599535 L 1011.7187502080342 581.0039060479612 L 1006.289062912052 578.1367183359689 L 999.2187504640315 574.347656191967 L 995.7421875200234 572.1992191999452 L 993.4843750400469 570.7656253439491 L 989.5937495040125 567.8984376319568 L 987.648437248019 566.6679685119307 L 984.7812495360267 564.8242186239222 L 980.5859379200265 561.1406254079193 L 975.7734379520407 556.6328125439468 L 972.9062502400484 553.6640624639695 L 969.6328120320104 550.796874751919 L 965.5312496640254 546.6992189439479 L 963.1796879360336 543.9375001599547 L 961.335937024036 541.2734371839324 L 960.109375488013 538.5078128639725 L 959.6953128960449 534.5156249599531 L 959.5937495040125 531.1367188479635 L 959.3906247680425 528.3710935039562 L 958.3671879680478 520.4882810879499 L 957.8515630080365 517.3124997119303 L 955.8046873600106 516.0820316159516 L 951.6093747200212 512.8085934079718 L 946.6953123840503 508.8124999679276 L 943.0078126080334 504.8203120639664 L 939.4218752000597 500.0078120959224 L 935.6328120320104 494.47656243195524 L 932.562499584048 488.43359334394336 L 928.8749998080311 481.98437478393316 L 924.2656245760154 475.83984332793625 L 920.9921873920248 472.15234355191933 L 918.6328125440632 471.746094079921 L 911.9765626880107 470.7187496959232 L 906.1406248960411 469.79687526397174 L 902.5546874880092 469.5937495039543 L 898.562499584048 469.183593471942 L 895.1875000320142 468.7734374399297 L 892.5234370560502 468.4687503359746 L 889.656250368047 467.85156300792005 L 886.5859379200265 467.1367188479635 L 882.8984371200204 466.52343705593375 L 878.1874995200196 466.0117186559364 L 874.8046878720634 465.4960936959251 L 871.1171870720573 464.6796871679253 L 867.2265625600121 462.83593727997504 L 864.0546877440647 460.17187532794196 L 861.5937495040125 457.71484364796197 L 859.445312512049 455.3593753599562 L 856.8906250240398 452.4921876479639 L 852.9921873920248 447.6796876799199 L 851.3593753600144 444.9140623359708 L 850.3359375360305 441.53515622392297 L 849.9218749440624 439.1796879359754 L 849.6171878400492 436.1093754879548 L 848.9999994880636 431.6054691839381 L 848.289062912052 428.12109414394945 L 846.3359375360305 420.85156249592546 L 845.4140620800317 417.0625003519235 L 843.7812500480213 414.3984373759595 L 841.8359377920278 411.5312496639672 L 839.6796876800363 408.8710932479589 L 837.7343754240428 406.8242186239222 L 834.6640629760223 404.8789063679287 L 830.3671879680478 403.2382812159485 L 826.7812495360267 402.2148433919647 L 823.3984378880123 401.19140659197 L 820.1249996800325 400.2695311359712 L 817.3593753600144 399.34765670396155 L 813.6718745600665 398.0156252159504 L 810.0937502720626 396.7890626559383 L 807.2187504640315 395.8671871999395 L 803.2265625600121 394.43359334394336 L 798.9296875520376 392.89453158393735 L 795.343750144064 391.5664066559402 L 791.968749568041 389.824219135975 L 788.5859379200265 387.7773434879491 L 786.1249996800325 386.1367183359689 L 783.2578129920294 383.98828134394716 L 778.5468753920286 380.30078156793024 L 776.3984373760177 378.0468746239203 L 774.5546874880092 375.6914063359727 L 773.3281249280553 373.2343746559345 L 771.5859374080319 370.57421823992627 L 769.023437824042 367.6054691839381 L 764.8281251840526 364.53125017596176 L 761.1406254080357 362.1757808639668 L 757.4531246080296 359.4101565439487 L 753.9765626880107 354.80468787194695 L 751.5156254720641 352.0390625279397 L 747.0078126080334 347.42968729592394 L 743.7343754240428 344.4609372159466 L 741.8906245120452 342.7187496959232 L 738.7187507200288 340.9804666879354 L 736.0546877440647 339.33984358393354 L 732.9843752960442 337.39453132794006 L 727.7578127360321 335.0390620159451 L 723.1484375040163 332.9921873919666 L 720.7968747520354 331.55859353597043 L 717.6249999360298 329.921874943946 L 714.0390625280561 327.5664066559402 L 711.8906245120452 324.39062527992064 L 709.9453122560517 322.6484377599554 L 705.4375004160102 319.6796876799199 L 698.5781248000567 314.76562534394907 L 690.5859379200265 310.25781247991836 L 685.0625003520399 307.085937663971 L 680.6562498560525 304.42187468794873 L 678.0937502720626 302.6835937279393 L 675.5390627840534 300.7382814719458 L 671.335937024036 298.07421849592356 L 667.343750144064 295.4101565439487 L 664.6796871680417 292.6484377599554 L 662.7343749120482 291.51953100797255 L 660.7890626560547 290.3945308159455 L 657.9218749440624 287.01562470395584 L 653.1093749760184 282.3046871039551 L 647.1718748160638 277.183593471942 L 645.7343754240428 275.2382812159485 L 645.1250001920271 272.98437529592775 L 645.6328120320104 269.71093708794797 L 645.4296872960404 267.1484375039581 L 645.2265625600121 263.8710937599535 L 645.2265625600121 261.10937497596024 L 645.9453122560517 258.5468753919704 L 646.7656253440655 255.98828134394716 L 647.4765629440662 252.81249996792758 L 649.1171870720573 249.94531225593528 L 650.0390625280561 246.97656217595795 L 649.5234375680448 241.85546854394488 L 649.4218752000597 236.83984383993084 L 649.4218752000597 233.35546879994217 L 649.7343754240428 229.26171852793777 L 650.7578122240375 224.9609379839385 L 652.289062912052 222.29687500797445 L 653.6249999360298 220.0468746239203 L 653.6249999360298 216.97265663993312 L 652.9062502400484 214.51562495995313 L 651.8828124160646 212.16015667194733 L 648.4999997440609 206.62890598393278 L 646.4531251200242 203.55859353597043 L 643.5859374080319 200.07812505593756 L 639.79687526403 195.7773434879491 L 636.9296875520376 193.21484390395926 L 633.0390620160615 191.57812531193485 L 628.9453127680463 188.9140623359708 L 621.4687498240382 185.2304691199679 L 616.5546874880092 183.17968793597538 L 613.3828126720618 181.85156300792005 L 610.7187496960396 179.9062497279374 L 607.2343746560509 177.0390620159451 L 599.554688000062 174.06640639994293 L 592.390625280037 170.277344255941 L 584.1953126400476 166.08203161595156 L 580.710937600059 163.3164062719443 L 578.0546877440647 159.11718707194086 L 576.5156249600113 155.01953126396984 L 575.1875000320142 152.0507811839343 L 573.1328122880659 147.1367188479635 L 566.8906250240398 132.69921894394793 L 565.7656248320127 127.98828134394716 L 565.4531246080296 125.01953126396984 L 566.3750000640284 119.79687526397174 L 567.7109370880644 115.49609369592508 L 569.4531246080296 109.86328166397288 L 572.4218746880651 106.38281215995084 L 575.3906247680425 103.41015654394869 L 579.1796879360336 99.92968703992665 L 581.7343754240428 97.26562508795178 L 585.4218752000597 93.99218790396117 L 590.1328128000605 89.99609343992779 L 593.3124997120467 86.51562495995313 L 594.5390622720588 83.44531251193257 L 595.0468751360313 80.6796871679253 L 594.9453127680463 76.78906265593832 L 594.5390622720588 74.02343731193105 L 593.5156254720641 71.15624959993875 L 591.6718745600665 68.08203161595156 L 589.6249999360298 65.62499993597157 L 587.164062720025 62.757812223921064 L 583.8906245120452 60.09765580797102 L 580.710937600059 58.0468746239203 L 577.335937024036 55.89843763195677 L 573.8515630080365 52.21093785593985 L 571.8046873600106 49.85546854394488 L 569.8593751040171 47.39843788795406 L 568.0156252160086 44.53125017596176 L 566.0703129600151 41.4609377279412 L 563.9218749440624 36.44140646397136 L 561.8750003200257 33.57421875192085 L 559.2109373440617 30.398437375959475 L 557.164062720025 27.01953126396984 L 555.5234375680448 23.847656447964255 L 553.3749995520338 20.773437439929694 L 551.5312537600403 19.54686975997174 L 549.2734371840488 18.523437055933755 L 547.2265625600121 15.550781439931598 L 546.0000051200623 12.171885567950085 L 545.2812503040186 8.89453158393735 L 544.2578124800348 6.4374999039573595 L 543.0312499200227 4.082031615951564 L 540.5703127040179 0.6015621119295247 L 540.1692711623182 0.0" fill="none"/><path stroke="#000000" stroke-width="2" d="M 540.1692711623182 0.0 L 540.5703127040179 0.6015621119295247 L 543.0312499200227 4.082031615951564 L 544.2578124800348 6.4374999039573595 L 545.2812503040186 8.89453158393735 L 546.0000051200623 12.171885567950085 L 547.2265625600121 15.550781439931598 L 549.2734371840488 18.523437055933755 L 551.5312537600403 19.54686975997174 L 553.3749995520338 20.773437439929694 L 555.5234375680448 23.847656447964255 L 557.164062720025 27.01953126396984 L 559.2109373440617 30.398437375959475 L 561.8750003200257 33.57421875192085 L 563.9218749440624 36.44140646397136 L 566.0703129600151 41.4609377279412 L 568.0156252160086 44.53125017596176 L 569.8593751040171 47.39843788795406 L 571.8046873600106 49.85546854394488 L 573.8515630080365 52.21093785593985 L 577.335937024036 55.89843763195677 L 580.710937600059 58.0468746239203 L 583.8906245120452 60.09765580797102 L 587.164062720025 62.757812223921064 L 589.6249999360298 65.62499993597157 L 591.6718745600665 68.08203161595156 L 593.5156254720641 71.15624959993875 L 594.5390622720588 74.02343731193105 L 594.9453127680463 76.78906265593832 L 595.0468751360313 80.6796871679253 L 594.5390622720588 83.44531251193257 L 593.3124997120467 86.51562495995313 L 590.1328128000605 89.99609343992779 L 585.4218752000597 93.99218790396117 L 581.7343754240428 97.26562508795178 L 579.1796879360336 99.92968703992665 L 575.3906247680425 103.41015654394869 L 572.4218746880651 106.38281215995084 L 569.4531246080296 109.86328166397288 L 567.7109370880644 115.49609369592508 L 566.3750000640284 119.79687526397174 L 565.4531246080296 125.01953126396984 L 565.7656248320127 127.98828134394716 L 566.8906250240398 132.69921894394793 L 573.1328122880659 147.1367188479635 L 575.1875000320142 152.0507811839343 L 576.5156249600113 155.01953126396984 L 578.0546877440647 159.11718707194086 L 580.710937600059 163.3164062719443 L 584.1953126400476 166.08203161595156 L 592.390625280037 170.277344255941 L 599.554688000062 174.06640639994293 L 607.2343746560509 177.0390620159451 L 610.7187496960396 179.9062497279374 L 613.3828126720618 181.85156300792005 L 616.5546874880092 183.17968793597538 L 621.4687498240382 185.2304691199679 L 628.9453127680463 188.9140623359708 L 633.0390620160615 191.57812531193485 L 636.9296875520376 193.21484390395926 L 639.79687526403 195.7773434879491 L 643.5859374080319 200.07812505593756 L 646.4531251200242 203.55859353597043 L 648.4999997440609 206.62890598393278 L 651.8828124160646 212.16015667194733 L 652.9062502400484 214.51562495995313 L 653.6249999360298 216.97265663993312 L 653.6249999360298 220.0468746239203 L 652.289062912052 222.29687500797445 L 650.7578122240375 224.9609379839385 L 649.7343754240428 229.26171852793777 L 649.4218752000597 233.35546879994217 L 649.4218752000597 236.83984383993084 L 649.5234375680448 241.85546854394488 L 650.0390625280561 246.97656217595795 L 649.1171870720573 249.94531225593528 L 647.4765629440662 252.81249996792758 L 646.7656253440655 255.98828134394716 L 645.9453122560517 258.5468753919704 L 645.2265625600121 261.10937497596024 L 645.2265625600121 263.8710937599535 L 645.4296872960404 267.1484375039581 L 645.6328120320104 269.71093708794797 L 645.1250001920271 272.98437529592775 L 645.7343754240428 275.2382812159485 L 647.1718748160638 277.183593471942 L 653.1093749760184 282.3046871039551 L 657.9218749440624 287.01562470395584 L 660.7890626560547 290.3945308159455 L 662.7343749120482 291.51953100797255 L 664.6796871680417 292.6484377599554 L 667.343750144064 295.4101565439487 L 671.335937024036 298.07421849592356 L 675.5390627840534 300.7382814719458 L 678.0937502720626 302.6835937279393 L 680.6562498560525 304.42187468794873 L 685.0625003520399 307.085937663971 L 690.5859379200265 310.25781247991836 L 698.5781248000567 314.76562534394907 L 705.4375004160102 319.6796876799199 L 709.9453122560517 322.6484377599554 L 711.8906245120452 324.39062527992064 L 714.0390625280561 327.5664066559402 L 717.6249999360298 329.921874943946 L 720.7968747520354 331.55859353597043 L 723.1484375040163 332.9921873919666 L 727.7578127360321 335.0390620159451 L 732.9843752960442 337.39453132794006 L 736.0546877440647 339.33984358393354 L 738.7187507200288 340.9804666879354 L 741.8906245120452 342.7187496959232 L 743.7343754240428 344.4609372159466 L 747.0078126080334 347.42968729592394 L 751.5156254720641 352.0390625279397 L 753.9765626880107 354.80468787194695 L 757.4531246080296 359.4101565439487 L 761.1406254080357 362.1757808639668 L 764.8281251840526 364.53125017596176 L 769.023437824042 367.6054691839381 L 771.5859374080319 370.57421823992627 L 773.3281249280553 373.2343746559345 L 774.5546874880092 375.6914063359727 L 776.3984373760177 378.0468746239203 L 778.5468753920286 380.30078156793024 L 783.2578129920294 383.98828134394716 L 786.1249996800325 386.1367183359689 L 788.5859379200265 387.7773434879491 L 791.968749568041 389.824219135975 L 795.343750144064 391.5664066559402 L 798.9296875520376 392.89453158393735 L 803.2265625600121 394.43359334394336 L 807.2187504640315 395.8671871999395 L 810.0937502720626 396.7890626559383 L 813.6718745600665 398.0156252159504 L 817.3593753600144 399.34765670396155 L 820.1249996800325 400.2695311359712 L 823.3984378880123 401.19140659197 L 826.7812495360267 402.2148433919647 L 830.3671879680478 403.2382812159485 L 834.6640629760223 404.8789063679287 L 837.7343754240428 406.8242186239222 L 839.6796876800363 408.8710932479589 L 841.8359377920278 411.5312496639672 L 843.7812500480213 414.3984373759595 L 845.4140620800317 417.0625003519235 L 846.3359375360305 420.85156249592546 L 848.289062912052 428.12109414394945 L 848.9999994880636 431.6054691839381 L 849.6171878400492 436.1093754879548 L 849.9218749440624 439.1796879359754 L 850.3359375360305 441.53515622392297 L 851.3593753600144 444.9140623359708 L 852.9921873920248 447.6796876799199 L 856.8906250240398 452.4921876479639 L 859.445312512049 455.3593753599562 L 861.5937495040125 457.71484364796197 L 864.0546877440647 460.17187532794196 L 867.2265625600121 462.83593727997504 L 871.1171870720573 464.6796871679253 L 874.8046878720634 465.4960936959251 L 878.1874995200196 466.0117186559364 L 882.8984371200204 466.52343705593375 L 886.5859379200265 467.1367188479635 L 889.656250368047 467.85156300792005 L 892.5234370560502 468.4687503359746 L 895.1875000320142 468.7734374399297 L 898.562499584048 469.183593471942 L 902.5546874880092 469.5937495039543 L 906.1406248960411 469.79687526397174 L 911.9765626880107 470.7187496959232 L 918.6328125440632 471.746094079921 L 920.9921873920248 472.15234355191933 L 924.2656245760154 475.83984332793625 L 928.8749998080311 481.98437478393316 L 932.562499584048 488.43359334394336 L 935.6328120320104 494.47656243195524 L 939.4218752000597 500.0078120959224 L 943.0078126080334 504.8203120639664 L 946.6953123840503 508.8124999679276 L 951.6093747200212 512.8085934079718 L 955.8046873600106 516.0820316159516 L 957.8515630080365 517.3124997119303 L 958.3671879680478 520.4882810879499 L 959.3906247680425 528.3710935039562 L 959.5937495040125 531.1367188479635 L 959.6953128960449 534.5156249599531 L 960.109375488013 538.5078128639725 L 961.335937024036 541.2734371839324 L 963.1796879360336 543.9375001599547 L 965.5312496640254 546.6992189439479 L 969.6328120320104 550.796874751919 L 972.9062502400484 553.6640624639695 L 975.7734379520407 556.6328125439468 L 980.5859379200265 561.1406254079193 L 984.7812495360267 564.8242186239222 L 987.648437248019 566.6679685119307 L 989.5937495040125 567.8984376319568 L 993.4843750400469 570.7656253439491 L 995.7421875200234 572.1992191999452 L 999.2187504640315 574.347656191967 L 1006.289062912052 578.1367183359689 L 1011.7187502080342 581.0039060479612 L 1016.7343749120482 583.8710937599535 L 1020.8281251840526 586.3281254399335 L 1024.0 587.3312782123539" fill="none"/></svg>