<svg xmlns="http://www.w3.org/2000/svg" width="1024" height="1024"><rect stroke="none" x="0" y="0" width="1024" height="1024" fill="white"/><path stroke="#000000" stroke-width="2" d="M 283.0065346560441 1019.9381698559737 L 282.90011955203954 1019.9798108158284 L 282.3782400000491 1019.6070399999153 L 281.9604480000562 1019.4667519999784 L 281.78906214406015 1019.0703124479041 L 281.78906214406015 1018.5781247999403 L 282.13350400002673 1017.9000319998595 L 282.55129600001965 1017.6655359999277 L 283.1423242240562 1017.6420577279641 L 283.3879040001193 1017.8519039998646 L 283.3889280001167 1018.5308159998385 L 283.8424473600462 1018.8350607358734 L 283.8046873600106 1019.1835934718256 L 283.3203128320747 1019.5351562238648 L 283.3203138560639 1019.6757811199641 L 283.21484800009057 1019.7002239999711 L 283.07558400009293 1019.9101439999067 L 283.0065346560441 1019.9381698559737" fill="none"/><path stroke="#000000" stroke-width="2" d="M 259.22797568008536 865.4895257599419 L 258.7656253440073 865.5117189118755 L 258.1328128000605 865.4414059519768 L 257.32812492805533 865.2304691198515 L 256.21093785611447 864.273437695927 L 255.47161600005347 863.2913919998682 L 254.6186240000534 862.7169279998052 L 252.85939200001303 862.0257279999205 L 252.47652454400668 861.6990136319073 L 252.33612800011178 860.9484799999045 L 251.7109370881226 860.0585932799731 L 251.78125004802132 859.664062463853 L 252.02343731204746 859.4765629438916 L 253.10932582407258 859.593744383892 L 254.01562521600863 860.0390625278815 L 254.0859371520928 860.2265620478429 L 254.61718732805457 860.6601564158918 L 255.3640960000921 861.186047999945 L 256.06257766403724 861.5587758078473 L 256.1328128001187 861.7226557438844 L 256.65624985605245 862.0742184959236 L 256.83593728009146 862.3554682879476 L 257.18374400003813 862.5653759998386 L 257.6035840000259 862.6585599998944 L 258.7248640000471 863.1726079998771 L 260.29977600008715 864.5283839998301 L 260.43749990401557 865.113281535916 L 260.19532800017623 865.3240319998004 L 259.74067200004356 865.46431999997 L 259.22797568008536 865.4895257599419" fill="none"/><path stroke="#000000" stroke-width="2" d="M 271.5781120000174 849.5964159998111 L 271.1234560000594 849.6199679999263 L 270.8090880001546 849.5267839998705 L 270.2187499521533 849.1054684158298 L 269.9693373440532 848.7079690239625 L 270.24793600011617 848.5212159999646 L 271.8576640000683 848.5672959999647 L 272.3819520000834 848.6369279999053 L 272.45260800007964 849.0117120000068 L 272.17203404806787 849.2928102399455 L 271.5781120000174 849.5964159998111" fill="none"/><path stroke="#000000" stroke-width="2" d="M 250.28915200009942 846.0922879998107 L 249.44947200000752 846.1158399999258 L 247.98437478410779 845.5781253118184 L 247.80595200008247 845.4133759998367 L 247.70312499202555 844.7343749119318 L 247.84374988800846 844.453125119966 L 248.12383027211763 844.2664038398652 L 248.85657600004924 844.2204159998801 L 249.90617600013502 844.3842559998157 L 250.7796480000252 844.7354879999766 L 251.12985600007232 844.9464319999679 L 251.19531212805305 845.6249999359134 L 250.70899200008716 845.9991039999295 L 250.28915200009942 846.0922879998107" fill="none"/><path stroke="#000000" stroke-width="2" d="M 246.53540454409085 844.4299304959713 L 244.72883200005163 844.5921279999311 L 243.74897664011223 844.3115847678273 L 243.2265625600703 843.8437498878338 L 243.12012800009688 843.7032959998469 L 243.15623116807546 843.2580218879739 L 243.40070400002878 843.0950399999274 L 244.3448320000316 843.1882239998085 L 246.16345600003842 843.6572159998468 L 246.51366400002735 843.8446079998976 L 247.2478720000363 844.0555519998888 L 247.21093734406168 844.2890629119356 L 246.79429427202558 844.4064839679049 L 246.53540454409085 844.4299304959713" fill="none"/><path stroke="#000000" stroke-width="2" d="M 914.8906250240398 814.8085934079136 L 915.4531246080296 815.4609377279412 L 915.3505894400878 815.8359377919696 L 915.0390620160615 815.8359377919696 L 914.5091307520634 815.6489021439338 L 914.0541440000525 815.0650879999157 L 913.8442240000586 814.9954559998005 L 913.3199360000435 815.0650879999157 L 913.0741760000237 815.2063999999664 L 912.7257528320188 815.1828991998336 L 912.6195200001239 815.0896639999701 L 912.5156249600113 814.5742182399845 L 912.5488640000112 813.8260480000172 L 913.0716344320681 812.7968747518025 L 913.3897021440207 812.7968747518025 L 913.7031249920256 812.9374996479019 L 913.8432481280761 813.1009781758767 L 913.8750003200257 813.7773434878909 L 914.1237760001677 814.1527039999492 L 914.8906250240398 814.8085934079136" fill="none"/><path stroke="#000000" stroke-width="2" d="M 308.3577856000047 792.8281589758699 L 307.27343718416523 792.8515624958673 L 307.1328122880077 792.6875002878369 L 307.1661834240076 792.033741823805 L 307.30468761600787 791.9414067198522 L 308.53125017601997 791.8945310718846 L 308.70312550402014 792.0820316159516 L 308.7419351040735 792.3847536640242 L 308.3577856000047 792.8281589758699" fill="none"/><path stroke="#000000" stroke-width="2" d="M 301.2421877760207 785.4375004158937 L 300.78906265605474 785.4843750399305 L 300.47656243212987 785.390624767926 L 300.02343731210567 785.0156247038976 L 299.9490560000413 784.8529919998255 L 301.0344960000948 784.454655999958 L 301.20960000011837 784.5253120000125 L 301.34988800017163 785.1571199998725 L 301.2421877760207 785.4375004158937" fill="none"/><path stroke="#000000" stroke-width="2" d="M 300.0859863040969 779.1678371839225 L 299.42187520017615 779.2148398078862 L 299.0390620160615 778.8632811518037 L 299.07032371201785 778.3515566079295 L 299.3515622401028 778.187499519845 L 300.22656102408655 778.79296409589 L 300.0859863040969 779.1678371839225" fill="none"/><path stroke="#000000" stroke-width="2" d="M 303.1296000001021 769.9025919999112 L 301.869056000025 770.0193279999075 L 301.798400000087 769.7858559999149 L 302.00832000008086 769.505279999983 L 301.97656268801074 769.0625003518653 L 301.8678394880262 768.9887231999892 L 301.83593779202783 768.722656255879 L 302.28906291205203 768.6523432958056 L 303.16406272002496 768.6992189439479 L 303.86483200016664 769.1775999999372 L 303.86483200016664 769.7150873598875 L 303.41017600003397 769.7623039999744 L 303.1296000001021 769.9025919999112" fill="none"/><path stroke="#000000" stroke-width="2" d="M 301.7666560001089 767.8935039999196 L 301.4164480000618 767.9047679999494 L 300.6105600001174 767.7183999998379 L 300.5078128640889 767.5625000958098 L 300.64843776007183 767.2343746558763 L 300.8593745920807 767.0468751359149 L 301.2734371840488 767.0234378238092 L 301.83593779202783 767.4687498238054 L 301.87212800001726 767.7880319999531 L 301.7666560001089 767.8935039999196" fill="none"/><path stroke="#000000" stroke-width="2" d="M 298.1928960001678 765.5034879999002 L 296.9683169280761 765.5975290879724 L 296.65075200010324 765.5045120000141 L 296.3366973440279 765.1323371519684 L 296.8984371200204 764.7812495359103 L 297.4218240000191 764.70783999993 L 298.2265620481339 765.2226559999399 L 298.1928960001678 765.5034879999002" fill="none"/><path stroke="#000000" stroke-width="2" d="M 339.94342400011374 697.6757780479384 L 338.92968755209586 697.6757780479384 L 338.5781248001731 697.5585935359122 L 338.68083200004185 697.3245439999737 L 339.20826572802616 697.091022847977 L 339.73350400011986 697.0675199998077 L 340.25773568009026 697.3015336958342 L 340.22400409611873 697.6061081599328 L 339.94342400011374 697.6757780479384" fill="none"/><path stroke="#000000" stroke-width="2" d="M 278.27116236800794 650.4726558718248 L 278.02343731210567 650.4726558718248 L 277.42968729615677 650.2851563518634 L 277.28906240005745 649.9375001598382 L 277.14843750401633 649.866129407892 L 277.14843750401633 649.7499996159459 L 277.7812500480795 649.9140628479072 L 278.33593753603054 650.1679687678698 L 278.27116236800794 650.4726558718248" fill="none"/><path stroke="#000000" stroke-width="2" d="M 278.16380211204523 649.3974159358768 L 277.88390400010394 649.4668799999636 L 277.3217280000681 649.2569599999115 L 277.0078126080916 648.9062502398156 L 277.1481395200826 648.7659233278246 L 277.88281241600635 648.9062502398156 L 278.0590080000111 648.9989119998063 L 278.16380211204523 649.3974159358768" fill="none"/><path stroke="#000000" stroke-width="2" d="M 415.2419973121141 635.5755950078601 L 415.32812492805533 636.5859379198519 L 415.15624960011337 636.7968747519772 L 414.7343749120482 636.8671877118759 L 414.5938718720572 636.8203530238825 L 413.74999961606227 636.2109378558816 L 413.08364800014533 636.0494079999626 L 412.38118400005624 636.025856000022 L 411.92187494406244 636.2617190399906 L 410.97656217607437 637.2421877758461 L 410.7337871360942 637.3357066238532 L 410.5564160000649 637.2659199998598 L 410.52343705605017 636.9609379838803 L 411.3984378880705 635.7929687038995 L 411.46874982403824 635.3945313279983 L 410.97523200005526 634.3884799998486 L 410.3782400000491 633.9676159999799 L 410.2734376961016 633.5703121918486 L 409.81504000001587 632.7982079999638 L 409.0781245440594 631.3476567038451 L 409.0781245440594 630.4570316799218 L 408.971137024113 630.3882536958554 L 408.8300103680813 629.8503331838292 L 409.00781260814983 629.7343754238682 L 409.42968729604036 629.6171878398745 L 409.812500480155 629.6874997759005 L 410.2000640000333 629.9668480000109 L 411.28906240011565 631.3476567038451 L 411.78112000005785 631.6974079998326 L 412.65624985605245 632.1406248958665 L 413.0781245440594 632.726562815893 L 413.5383040000452 633.07775999984 L 413.9921879040194 633.7304688639124 L 414.8736000001081 634.5983999999589 L 415.2258560000337 635.3930239998735 L 415.2419973121141 635.5755950078601" fill="none"/><path stroke="#000000" stroke-width="2" d="M 264.41216000000713 623.5228159999824 L 263.4997760000406 623.6159999998636 L 262.90176000003703 623.3589759998722 L 262.86727884807624 623.1724185599596 L 263.3226240000222 622.9145599998301 L 263.884800000058 622.7507199998945 L 263.8516725760419 622.4463779839571 L 264.44595200009644 622.3994879999664 L 264.65628979203757 622.515888127964 L 264.7265628160094 622.9843752958695 L 264.41216000000713 623.5228159999824" fill="none"/><path stroke="#000000" stroke-width="2" d="M 267.68279347207863 623.3367244798574 L 267.7155840000487 623.6149759999244 L 267.57705728005385 623.730246655934 L 267.01562470407225 623.6132812799187 L 266.344448000018 623.7091839999193 L 266.0986880000564 623.6385279998649 L 265.7499996161205 623.8007807998802 L 265.3984378881287 623.8476564480225 L 265.0468751361477 623.6171878399327 L 265.0798080000677 623.2176639998215 L 265.22009600000456 622.9606399998302 L 265.64096000010613 622.773247999954 L 265.82003097608685 622.2820198399713 L 267.0781245440594 622.375000063912 L 267.25781299208757 622.5859379199101 L 267.32812492811354 622.8203120639664 L 267.6796876800945 623.3124997119303 L 267.68279347207863 623.3367244798574" fill="none"/><path stroke="#000000" stroke-width="2" d="M 272.1016709120595 621.1799039998441 L 272.7720960000297 622.5131519999122 L 273.54624000005424 623.0978559998912 L 273.5114240000257 623.5422719999333 L 273.2265625600121 623.6835942398175 L 272.7034880000283 624.1740800000262 L 272.599371776043 624.4537640959607 L 272.0390625280561 624.6171873279382 L 271.9675432960503 624.8284979199525 L 271.43750041612657 624.9921873919084 L 271.4060830720118 625.0389944319613 L 270.6667520000483 624.7362559999456 L 269.6478720001178 624.5498880000087 L 269.1911680001649 624.3389440000174 L 269.2608000001055 623.8013439999195 L 268.5937500161235 623.0507816959289 L 268.4531251200242 622.6796871678671 L 268.52343705605017 622.4921876479057 L 269.0488320000586 622.2807039999752 L 269.18912000011187 621.6959999999381 L 269.3650616320083 621.6489922559122 L 270.38310400000773 621.7656319998787 L 271.7521920000436 621.1799039998441 L 272.1016709120595 621.1799039998441" fill="none"/><path stroke="#000000" stroke-width="2" d="M 268.4518400001107 622.0001279998687 L 267.96032000001287 622.2571519998019 L 266.58756403211737 621.485289471806 L 266.4140625920263 621.2539064319571 L 266.62500044802437 621.0664058878901 L 267.1171870721155 621.0898442239268 L 268.0289280000725 621.3447679998353 L 268.38118400011444 621.6724479998229 L 268.4518400001107 622.0001279998687" fill="none"/><path stroke="#000000" stroke-width="2" d="M 270.4528568320675 620.8750448639039 L 270.03125043201726 620.9453127679881 L 268.38281216006726 620.2929684479022 L 268.3443200000329 620.0115199999418 L 267.8906245120452 619.917968383932 L 267.74999961606227 619.7304688639706 L 267.8901637120289 619.566944255901 L 269.74924800003646 619.4964479998453 L 269.74924800003646 619.8937599998317 L 270.1714462720556 620.1052549118758 L 270.4843745280523 620.664062975964 L 270.4528568320675 620.8750448639039" fill="none"/><path stroke="#000000" stroke-width="2" d="M 327.25383764575236 1024.0 L 326.9693440000992 1023.5310079999035 L 326.9374996480183 1022.7109375998843 L 327.6328120320686 1021.8476564479643 L 328.0859371520928 1020.8398438398726 L 329.5859374080319 1016.2773442558246 L 329.5859374080319 1014.3828121599508 L 329.0312499200809 1012.4648437759024 L 328.8524800001178 1011.3658879998256 L 328.890625024098 1010.5937500158325 L 328.7838720000582 1010.3592959998059 L 328.6796871680999 1007.92578150396 L 328.5781248000567 1007.3164062718279 L 328.4374999040738 1007.1328122880077 L 328.3671879680478 1006.7343749118736 L 328.08652800001437 1006.2182399999001 L 327.9140628480236 1005.2812503039604 L 327.7383680000785 1004.8839679998928 L 326.27404800005024 1004.158975999977 L 325.4702080001007 1003.5036159999436 L 325.2968744960381 1003.1523440638557 L 325.15624960005516 1002.6601564158918 L 324.84375040011946 1002.3085936640273 L 324.8783360000816 1001.7955839999486 L 325.1916800000472 1001.4914559999015 L 325.99449600011576 1001.1637759998557 L 326.2734376961016 1000.4609372159466 L 326.4481280000764 998.8249599998817 L 326.1718753280584 997.210937343887 L 325.57812531205127 995.7148436478456 L 325.01862400001846 994.4965119999251 L 325.19531212811125 993.8632816640311 L 325.01862400001846 993.4428159998497 L 325.05468723201193 991.9453122558189 L 325.57812531205127 990.1914060798008 L 325.4712320000981 988.8102399998461 L 325.61049600009574 987.8517759998213 L 325.4712320000981 987.1493119999068 L 325.3671874560532 987.078124543943 L 325.33196800004225 986.7755519999191 L 325.22698444809066 986.7267573759891 L 324.98437529610237 985.9570309119299 L 324.70425600005547 984.4592640000046 L 324.2506240000366 983.9687679999624 L 323.93728000007104 982.4942079998436 L 323.5184640001389 982.1204480000306 L 323.65772800002014 979.8737919998239 L 323.554688000062 979.476562944008 L 323.2040960000595 979.1016959999688 L 322.8203120640246 978.8906250238069 L 322.8203120640246 976.9492183038965 L 322.68083200004185 976.7618559999391 L 322.2620160000515 974.0718079998042 L 322.1575680000242 973.580287999881 L 322.016902144067 973.5317104639835 L 321.84374988800846 972.8554690558813 L 320.44748800009256 971.0305279999156 L 319.8906245121034 970.0234373118146 L 319.9242240000749 969.9071999999578 L 319.71430400008103 969.6266240000259 L 319.50781235209433 968.4570316798054 L 319.12038400006713 967.7547519999207 L 318.5312501761364 967.2851558398106 L 318.07031296001514 967.2148439040175 L 316.8515624960419 967.2148439040175 L 316.4687503360328 967.0742190079181 L 316.2265620480757 966.9101557759568 L 316.1190400000196 966.4911359999678 L 315.0390620160615 965.5781253118766 L 314.7265628160094 964.6914058239199 L 313.67577600001823 963.8942719998886 L 313.39843788801227 963.3789061119314 L 313.04704000003403 962.210815999948 L 313.08185600017896 960.0112639998551 L 313.36140800011344 959.519743999932 L 314.20312473602826 959.4257817600155 L 314.40793600003235 959.0988799998886 L 314.68748800008325 958.6073599999654 L 314.7578122240375 957.2968744958052 L 314.5468753920868 956.5742182398099 L 314.3046871041297 956.2656245760154 L 312.5234370561084 954.980468735972 L 311.546874880034 953.7421875198488 L 310.74218700802885 953.0625003519235 L 310.42968780803494 952.664062975964 L 310.1829120000475 951.6830719998106 L 310.25254400010454 950.0446719999309 L 310.70515200006776 948.8517119998578 L 310.9531248640269 948.4999997439445 L 311.78906214406015 946.1367183359107 L 311.611392000108 941.598720000009 L 311.78547200007597 940.2644479998271 L 311.96093747211853 939.8437498879503 L 311.9247360000154 938.8840959998197 L 312.03125043201726 937.9023441919126 L 311.9247360000154 937.8549760000315 L 311.8203351040138 937.4571192318108 L 311.96093747211853 935.8437498878338 L 312.13363200001186 935.3287680000067 L 312.2032640000689 934.8136959999101 L 312.5175275520305 934.3223398398259 L 314.43660800001817 932.4267519999994 L 316.9873920000973 931.0228479998768 L 318.03494400001364 930.2978559999028 L 318.87499980803113 929.3164062719443 L 320.1328128000605 926.9531248639105 L 320.51562496006954 925.5000002558227 L 320.51562496006954 923.5117189118755 L 320.4085760000162 923.3500159998657 L 320.4085760000162 922.9752319999388 L 319.5351040000678 921.6655359998113 L 319.5000002560555 921.4531246079714 L 318.8367360000266 920.8934399999562 L 318.3124480001279 920.869887999841 L 317.78906214411836 921.1250001919107 L 317.26489600003697 920.9630719998968 L 316.639954944083 920.8704501759494 L 316.25113600003533 920.496128000028 L 315.93750016001286 918.8124999678694 L 315.6213760001119 918.3201279998757 L 315.2373760000919 918.0160000000033 L 314.3290880000568 917.7579519998981 L 314.3671879680478 917.3359370239195 L 314.7130880000186 916.5414399998263 L 314.573824000021 915.7232639999711 L 314.3671879680478 915.2539064320154 L 314.7486167040188 914.7868508158135 L 315.0312499200227 914.5976565760211 L 315.2734371840488 914.296875007858 L 315.1328122880077 913.3359370238031 L 314.9222338561085 912.5872107518953 L 315.37664000014775 911.5586559999501 L 315.1328122880077 911.1132815360324 L 314.3671879680478 910.6210938878357 L 314.2265620480175 909.9648440318415 L 313.59488000004785 909.1952639999217 L 313.24467200011713 908.0494079999044 L 312.5468753920286 907.2539064318407 L 312.33593753603054 906.6210938879522 L 312.2343751681037 906.5742182398099 L 312.2298880000599 906.3649279998499 L 311.4618880000198 905.1944959999528 L 311.2187504640897 905.0312499199063 L 311.2187504640897 904.8906250238069 L 310.4481280000182 903.6503039998934 L 309.01562470407225 902.2226565118763 L 309.0155520000844 902.1306879998301 L 308.70312550402014 901.898437632015 L 308.0390625280561 901.6171878398163 L 307.16406272002496 900.9609379838221 L 306.63884800003143 900.2598399998387 L 306.3906252801535 900.1171875839354 L 305.51961600000504 899.8850559999119 L 303.3515622401028 898.3867187198484 L 301.2208640000317 897.500159999996 L 300.870656000101 897.2892160000047 L 300.06681600015145 897.148927999835 L 299.5078123520361 896.9374996479019 L 297.48531200003345 895.7849599999608 L 296.32999628811376 895.6759582718951 L 295.8776320000761 895.5125759999501 L 295.66668800008483 895.3262080000131 L 295.8046873600106 895.1640627199668 L 297.20312524802284 894.718749695865 L 297.86931200005347 894.389247999934 L 298.3593748480198 893.9687495678081 L 299.44012800004566 892.5409279998275 L 300.10265600011917 891.1370239998796 L 299.75347200006945 889.3122559998883 L 299.368448000052 888.7275519999093 L 298.3901952000451 887.8158120958833 L 297.9000320000341 887.1383039999055 L 297.79687526414637 886.7656253438327 L 296.990720000118 886.131711999944 L 296.22169600008056 885.7815039998968 L 296.0468746240367 885.5234375678119 L 296.0117760001449 884.7513599999365 L 295.2812503040186 883.7929687038995 L 295.1015628800378 883.1367188479053 L 294.995968000032 883.0679039998213 L 294.54131200001575 881.8042879998684 L 292.8629760001204 880.423935999861 L 291.5000002561137 879.6992184319533 L 290.7996160000912 879.2309759999625 L 290.2046720000799 878.4824319998734 L 289.8593751040753 877.5000002558809 L 289.7499996161205 875.8867189759039 L 289.6097280001268 875.8630399999674 L 289.2574720000848 874.1314559998573 L 288.3481600000523 872.3066879998078 L 287.7184000000707 872.0261119998759 L 287.1592960000271 872.0271359998151 L 286.8439040000085 871.769658367848 L 286.8439040000085 871.4895359998918 L 287.29856000008294 871.0451199998497 L 287.29856000008294 870.7174399998621 L 286.4609372160048 870.0156252160086 L 286.0390625281143 869.4296872958075 L 285.6888320001308 868.4718079999438 L 284.9536000000662 867.1385599998757 L 283.97260800009826 866.366463999846 L 283.37766400008695 865.501183999877 L 282.18880000011995 864.7997439999017 L 281.8750003200839 864.3320309758419 L 281.6640624640859 864.1914060799172 L 281.07031244807877 863.3242183679249 L 280.2984960000613 862.7875839998596 L 277.1857715200749 861.5025612798636 L 275.92499200010207 860.5204479999957 L 274.73612800001865 859.748351999966 L 273.5104000000283 858.3925760000129 L 273.2298240000964 856.6855679998989 L 273.2656250880682 856.1015623678104 L 273.75206400011666 854.6027519998606 L 273.64843724807724 854.2968750077998 L 273.82062387204496 853.3394032638171 L 274.38281216000905 852.5429688319564 L 274.69531238410855 851.7695313919685 L 274.51801600010367 850.134015999909 L 274.6951301121153 849.9220889598364 L 275.7765120000695 849.5718399999314 L 278.2238720001187 849.1735039998894 L 279.97656268806895 848.656249855936 L 282.8390400001663 846.7855359998648 L 283.60937472007936 846.3867187199648 L 284.24218726402614 845.8007807999966 L 285.14843750407454 845.1718748159474 L 285.9151360000251 844.164095999964 L 286.8244480000576 843.2977919999394 L 287.52343756804476 841.8945310718846 L 287.97656268806895 841.6835942398175 L 288.60937523201574 841.5898439678131 L 290.14843699213816 841.5195310079143 L 290.77606400003424 841.2835839999025 L 291.82812467205804 840.4882810878917 L 292.59366400010185 839.4117119998555 L 292.66406297602225 838.9687500799191 L 291.823616000067 838.1716479998431 L 291.8932480000076 837.8910719999112 L 292.173364224087 837.8440447999164 L 293.1171870721155 838.031250431959 L 293.43334400001913 838.2187519998988 L 294.1673349120538 838.0549601279199 L 294.4453120000544 838.0781250558211 L 295.24999987205956 838.4062504959875 L 295.84691200003726 838.2883839998394 L 297.0388264961075 837.8204047358013 L 297.3124997121049 837.820312575961 L 297.8046873600688 838.4062504959875 L 298.2265620481339 838.640624639811 L 298.8554240000667 838.615039999946 L 299.2421877760207 838.4257812478463 L 299.2046080001164 838.2402559998445 L 299.03052800009027 838.1470719999634 L 298.3671879680478 838.054204415821 L 298.3671879680478 837.9140628479654 L 299.1718748160638 837.609374719963 L 300.2578124800348 837.0234378238674 L 302.9473280000384 835.1518719999003 L 304.7656253441237 832.9531248638523 L 305.0468751360313 832.4140625918517 L 305.0803200000664 831.8996479998459 L 305.3593753600726 831.5976560639683 L 305.81452800007537 831.361023999867 L 309.7343754240428 823.3124997119303 L 309.8046873600688 823.0312499199645 L 311.2734371840488 820.4804689919692 L 311.7265623040148 817.8164060158306 L 312.56371200003196 816.3870720000123 L 313.2989440000383 814.1875199999195 L 313.96352000010666 813.2515839999542 L 314.07031296001514 812.9453127678134 L 314.07031296001514 811.3554687999422 L 314.24301568005467 810.7020339199225 L 314.56249958410626 810.2812497918494 L 314.9783040000475 810.2574079999467 L 314.9783040000475 809.9993599998998 L 314.80468787200516 809.8359377920278 L 314.76838400011184 809.2047359998105 L 314.9783040000475 808.9702399998787 L 316.51840000011725 806.2801919999183 L 316.86758400010876 804.9694719999097 L 316.97656217601616 804.0351559678675 L 316.79795200005174 803.1447039998602 L 316.58803200005786 802.8405759998132 L 316.58803200005786 801.9046399998479 L 317.11232000007294 800.8284159999457 L 317.2187504640315 800.0781250558794 L 317.0416640000185 798.9811199998949 L 316.02585600002203 797.4604799999506 L 315.32812492805533 795.9414067199687 L 315.22099200001685 795.3315839999123 L 315.1171276800451 795.308391423896 L 314.9062502400484 794.5820313600125 L 314.66406297602225 794.3242188799195 L 313.9604480001144 793.8344959999085 L 312.5944320000708 793.3665279999259 L 311.29804800002603 793.0623999998788 L 310.3528960000258 792.5708799999557 L 309.6874997760169 791.984374783875 L 309.5818240001681 791.7291519999853 L 309.5470080000232 790.9570559998974 L 309.33593702403596 790.8398438399308 L 308.8124999681022 790.7695308798575 L 308.7063040000503 790.6058239999693 L 309.16406272008317 790.347656191967 L 309.0937497600098 788.8984371198458 L 307.86718720011413 788.1484369920217 L 307.9371960320859 787.9384135680157 L 308.74218700808706 787.5625000959262 L 308.8124999681022 787.3789061119314 L 308.74218700808706 786.8867184639093 L 308.53125017601997 786.6289059838746 L 307.37499955203384 785.8789058558759 L 307.23481600004015 785.6465919998009 L 307.23481600004015 785.4827519999235 L 306.4999997441191 784.8749998080311 L 306.3224320000736 784.454655999958 L 305.79687526402995 784.0781250559376 L 305.6249999360298 783.5898439678131 L 305.37625600007595 783.2381439998862 L 304.6410240000114 783.0507519998355 L 304.29081600002246 782.582783999911 L 303.6960768000572 782.2309212159016 L 303.7343754240428 781.9492188158329 L 303.86827776010614 781.8356264958857 L 304.359374848078 781.6953128958703 L 304.9553920000908 781.3191679999 L 304.9553920000908 781.1553279998479 L 304.6410240000114 781.0150399998529 L 303.6617543681059 781.1561041919049 L 302.9248000001535 781.1092479998479 L 302.8203120640828 780.7109375998843 L 302.39952896005707 780.4537917440175 L 302.4691200000234 780.2900479998789 L 302.88896000001114 780.149759999942 L 303.6252160000149 780.4774399999296 L 304.2201600000262 780.4067839999334 L 304.57036800007336 780.0330239999457 L 304.539062272117 779.19140659197 L 304.28979200002505 778.9803519999259 L 303.97440000006463 778.9096959999297 L 303.06250035209814 778.980468735972 L 302.64062464010203 779.1679682559334 L 302.57031270401785 779.4726563839358 L 302.5451622400433 779.4859714558697 L 302.4332800000557 779.5415040000225 L 302.04825600003824 779.4954240000225 L 302.04825600003824 779.3776639999123 L 301.9079680000432 779.2844800000312 L 301.103104000038 779.2373759999173 L 300.9999994880636 779.1445309440023 L 301.14050150406547 778.348360703967 L 302.11718758411007 778.2812497918494 L 302.2581760000321 778.1847039999557 L 302.36262400011765 777.3655039998703 L 302.8203120640828 776.8281251839362 L 302.8531200000434 776.5237759999 L 304.32358400011435 776.1960959998542 L 305.19910400005756 776.1254399998579 L 305.4796800001059 775.9615999999223 L 306.49429299210897 774.6981969918124 L 307.02343782404205 774.441406463855 L 307.47656294406625 773.9726561279967 L 307.4062499840511 772.5937500159489 L 307.546874880034 772.2890629118192 L 307.546874880034 771.9609374718857 L 307.02343782404205 771.5625000959262 L 306.4228823041194 771.3519155198592 L 306.46084505604813 771.1177420798922 L 306.7387545601232 771.0014300158946 L 307.0535680000903 771.0484479999286 L 307.40480000001844 771.2122879998642 L 307.99974400002975 771.1651839998085 L 309.7187502080342 770.5585940479068 L 312.62500044802437 769.6914063359145 L 313.85156300803646 769.082031103957 L 316.90035200008424 767.1613439999055 L 318.79270400002133 766.1793279998237 L 320.9999994880636 764.4960942079779 L 322.89062502403976 762.6484377598972 L 323.0658560000593 762.5758719999576 L 323.101696000027 761.7341439998127 L 324.9609379840549 757.7578127358574 L 325.9412480000756 755.0894079998834 L 326.3281254400499 753.5703121919069 L 326.7819520000485 752.2815999998711 L 326.89062502403976 750.3398440958117 L 327.0635520001524 749.6151039999095 L 327.3124997121049 746.2226565119345 L 327.554688000062 745.214843903901 L 327.83593779202783 743.1328122878913 L 327.7656248320127 742.3828121598344 L 327.3451520000817 741.4732799998019 L 326.75000012805685 740.9101557759568 L 326.3281254400499 740.6992189438897 L 326.3281254400499 740.5368842239259 L 326.75000012805685 740.3046871038969 L 326.7829760000459 739.4375679998193 L 326.11718758405186 738.9218754558824 L 325.6965120001114 737.9404799998156 L 325.4169600000605 737.6128000000026 L 324.8593745920225 737.3554687999422 L 324.15625011204975 737.214843903901 L 324.15625011204975 736.9572618239326 L 324.890624000167 736.887807999854 L 325.1015680001583 735.9518719998887 L 324.8209920000518 735.7409279998974 L 324.22502400004305 735.5770879999618 L 323.52343756810296 735.2031252479646 L 323.07031244807877 734.6640629759058 L 323.10374400002183 734.2909439999494 L 323.3484800001024 734.1271039998974 L 323.83593779202783 734.1289062398719 L 324.0151040000492 734.2202879999531 L 324.43596800003434 734.196735999838 L 324.64843776007183 733.9179683838738 L 324.78906265605474 733.1445309438859 L 324.3671879680478 732.9335941118188 L 324.4001280000666 732.74675199989 L 324.68070400017314 732.488703999843 L 324.64843776007183 732.2304686078569 L 324.40115200006403 732.162047999911 L 323.66489600006025 732.1149440000299 L 323.1718748160056 731.9023441919708 L 321.8046873600688 731.9492188158329 L 321.3864960001083 731.6705279998132 L 321.3864960001083 731.2025599998306 L 321.0711040000315 730.9680639998987 L 320.8601600000402 730.5707519999123 L 319.4609377281158 730.546875391854 L 319.5312496640254 730.3125002239249 L 319.6666183681227 730.151751679834 L 320.0890880000661 730.055679999874 L 320.19531264004763 729.5625000959262 L 319.84445747203426 729.2584263679455 L 320.3696640001144 728.5114879998146 L 320.3696640001144 728.0199679998914 L 320.0546877440647 727.7851566079189 L 320.0194560001255 727.4352639999124 L 320.47656243201345 726.5234370559338 L 320.7578122240957 726.3359375359723 L 321.4921871360275 726.218749951804 L 322.2272000000812 725.8449920000276 L 322.54361600015545 725.7743359999731 L 323.524608000007 725.7743359999731 L 323.4549760000082 725.5173119998071 L 323.14135756803444 725.3309736959636 L 323.3515622400446 725.0273433599505 L 324.18928332807263 724.5824051198433 L 325.6279040000518 724.8844799998333 L 326.189056000032 724.767743999837 L 326.189056000032 724.6039039999014 L 325.8388480000431 724.3233279999695 L 326.1194240000914 724.042751999863 L 326.189056000032 723.6679679999361 L 326.7850240000407 723.5276799998246 L 327.0312499200227 723.1757813759032 L 327.0312499200227 722.4531251198496 L 326.89049600000726 722.2179839998716 L 326.50547200010624 722.0070399998804 L 324.7882168321521 722.0070399998804 L 324.6120960000553 721.8431999999448 L 324.6120960000553 721.2349439998507 L 324.5078128641471 721.1406254078611 L 324.78906265605474 719.9960934398114 L 324.9614530560211 719.7615226879716 L 326.4374661120237 719.1992319998099 L 326.78604800003814 719.1992319998099 L 327.2421877760207 719.4804684799165 L 327.5937495040125 719.5039057918475 L 328.1173708800343 719.3868236799608 L 328.6087208961253 719.6675952638616 L 328.4999997440609 720.5351567359758 L 328.88934400008293 721.3752319999621 L 329.52012800006196 721.7735679998295 L 330.2265620480175 721.890624511987 L 331.4531246080296 721.7734379519243 L 332.2578124800348 721.5625000959262 L 332.6083072000183 721.3755688958918 L 332.9925120000262 721.445887999842 L 334.74560000002384 721.1888639998506 L 335.20312524813926 720.9335941119352 L 335.5868108800496 720.3008788479492 L 335.79687526408816 720.3242188798031 L 336.1832960001193 720.6277119998122 L 336.25000038411235 720.9101557758986 L 336.4609372160048 721.1640627199668 L 337.23437465605093 721.0742190078017 L 338.6718750721193 720.5351567359758 L 339.79687526408816 719.9023441919126 L 341.093749760068 718.8749998078565 L 342.11020800011465 717.4922239999287 L 343.0574080001097 715.3633279998903 L 343.7598720000242 713.3286399999633 L 344.2524160001194 710.3569919998408 L 344.57031270401785 709.1406254079775 L 345.7269760000636 707.0822399999015 L 346.042368000024 706.0991999998805 L 346.0468746240367 702.2851563518634 L 345.624999936088 700.9765621758415 L 345.51910400006454 700.9290239998954 L 344.9609379840549 699.8984376319568 L 343.5937495040125 698.2851563518052 L 343.0312499200227 697.7695313919103 L 342.367187968106 697.3710940159508 L 342.2587207680335 697.185149951838 L 342.32934400014346 696.9036799999303 L 345.1718748160638 694.8476559358533 L 345.8046873600106 694.2148433919647 L 347.97875200002454 692.5537279999699 L 348.78896332811564 692.1562982399482 L 349.24236800003564 692.1328639998683 L 348.92968755203765 689.4648432638496 L 348.40166400000453 689.2083199998597 L 348.1249996800325 688.7890626558219 L 347.91014400008135 688.646143999882 L 347.70312499202555 687.7812500479049 L 347.59577600006014 687.7337599999155 L 347.66540800011717 687.4071039999835 L 348.1249996800325 687.2187504639151 L 349.0344960000366 686.0267519998015 L 349.211648000055 685.582335999934 L 349.2454400000279 684.997631999955 L 348.6842880001059 684.2255359999253 L 346.51033600000665 682.1191679998883 L 346.51033600000665 682.002431999892 L 345.5312496640254 680.8085934078554 L 344.40601600008085 679.4751999999862 L 342.7578122240375 678.093750271888 L 338.96875008003553 675.4257817599573 L 337.84374988800846 674.4648437759606 L 337.11001600004965 674.2558719999506 L 334.82752000016626 673.928191999963 L 333.28332800010685 673.530879999802 L 332.51123200007714 673.1796479998739 L 332.23065600002883 672.899071999942 L 332.1958400000585 672.5949439998367 L 332.51562496006954 672.4062504958129 L 331.0390620161197 671.6679690238088 L 330.51107328000944 671.6834979839041 L 330.19596800004365 671.589375999989 L 329.8125004800386 671.2851558398688 L 329.4609377280576 671.19140659197 L 328.68659200001275 671.7532159998664 L 327.9851520000957 672.0573439999134 L 325.2109373441199 673.6718745598337 L 324.29687500809086 674.9804687358555 L 323.98438400012674 676.1748479999369 L 323.4580480000586 676.6428159999195 L 321.5626240000129 676.526079999865 L 320.54374400002416 676.1983999998774 L 320.1576960000093 676.2444799998775 L 320.0532480000984 676.7359999998007 L 319.66406246402767 676.7578122238629 L 319.3507840000093 676.619263999979 L 319.0702080000774 676.1512959999964 L 318.64934400009224 675.7068799999543 L 318.0546877440065 675.355468799884 L 316.7187496960396 674.8867184638511 L 315.59577600017656 674.3500799999456 L 314.7187496960978 673.6015626238077 L 314.36800000001676 673.2031999998144 L 312.8934400000726 672.3850239999592 L 311.42187520005973 672.1523435518611 L 310.9999994880054 671.988281343889 L 310.8935680001159 671.7306879998068 L 311.56250009615906 671.19140659197 L 312.01587200001813 670.3728639999172 L 311.8755840001395 669.2495359999011 L 311.31340800010366 667.5660799999605 L 311.03283200017177 666.60659199988 L 310.8925440001185 666.4898559998255 L 310.92968755209586 666.3945308158873 L 310.5781248001149 665.8593751039007 L 310.04979200003436 665.4597119999235 L 309.9095040000975 665.1791359998169 L 309.59374950407073 665.0156247038394 L 308.9999994880636 665.1328122880077 L 308.539062272117 665.1093749758438 L 308.1195520000765 664.9702399998205 L 307.8368051200523 664.7584747519577 L 307.8046873600106 664.5273436158895 L 307.66406246402767 664.386718720023 L 307.66406246402767 664.199219199887 L 307.0648320001201 663.6595199999283 L 306.75000012805685 663.6132812798605 L 306.1524480000953 663.683071999927 L 305.20312524802284 663.6367185919662 L 303.72847718407866 663.3792409598827 L 300.75000012811506 662.3984373758431 L 300.2900480000535 661.9996159999282 L 299.4843750401633 660.9921873919666 L 299.20312524808105 660.3164057598333 L 299.273437184107 659.4492190719466 L 299.93750016001286 657.9062497279374 L 300.0781250561122 656.01171865582 L 299.339776000008 655.5197439998738 L 298.355712000106 654.7005439999048 L 297.65625036804704 653.8828124159481 L 295.96774400013965 652.268543999875 L 295.05468723201193 651.847656447906 L 294.5312501760782 651.4726563838776 L 294.3160320001771 651.1687680000323 L 294.0000000000582 650.9570314239827 L 293.898437632015 650.7929692159523 L 294.0390625281143 650.4453119998216 L 293.7538560000248 649.8590719999047 L 293.33196800004225 649.5078399999184 L 293.05468723212834 648.898437119904 L 291.82156800007215 648.0814079999691 L 290.80468787206337 647.7070315519231 L 289.64843724807724 647.4492190718302 L 288.4853760000551 646.7952639999567 L 288.13414400001056 646.328319999855 L 287.8203125761356 646.187499519845 L 287.32812492805533 646.1171875838772 L 286.235750400112 645.7894748158287 L 285.32812492811354 645.2070307839313 L 285.04371200007154 645.111808000016 L 284.202139648085 645.2304261119571 L 283.6746240000939 645.207039999892 L 282.65624985605245 644.6445311999996 L 281.04089600010775 644.5998080000281 L 279.9861760000349 644.3427839998621 L 279.5312496640836 643.9921879038448 L 279.2826880000648 643.2665599999018 L 279.14137600001413 641.5359999999055 L 279.45676800009096 641.161215999804 L 279.4921871360275 640.8789063678123 L 278.73792000010144 640.2222079999628 L 278.1249996800325 639.800780799822 L 277.3515622400446 639.7304688638542 L 276.58035200001905 639.332351999823 L 276.0170895360643 639.1450193919591 L 275.59628800005885 638.7711999999592 L 275.56250009610085 637.8828124159481 L 275.9140628480818 637.7187502079178 L 275.8051840001717 637.0867199999047 L 275.70312499202555 637.0390620158869 L 275.5944058881141 636.4098273279378 L 276.01562521600863 636.1992192000034 L 276.01562521600863 636.0117186559364 L 274.9962240001769 635.1687679998577 L 274.57331200002227 633.9993599998415 L 274.60937523201574 633.6953128958703 L 274.78425600001356 633.5549440000323 L 275.1334563840064 633.5315281918156 L 275.9453122560517 633.8828124158317 L 276.3984373760759 633.8359377919696 L 276.75033600005554 633.6245759999729 L 276.78906265611295 633.3203128319001 L 276.3281274881447 633.015625727945 L 276.18749952007784 632.7109375999426 L 275.17102182417875 632.2685358079616 L 275.0312499200809 632.1054689278826 L 275.0636912640184 631.9171747838263 L 275.20312524802284 631.8242191358586 L 275.69531289610313 631.8710937599535 L 276.3984373760759 632.1523435519193 L 277.2408320000977 632.1500160000287 L 277.5937495040125 632.01171865582 L 278.01562521600863 631.6835942399921 L 278.43481600011 631.5878399998765 L 278.7512320000096 631.611391999817 L 279.10246400005417 632.0793599999743 L 279.34822400001576 632.0558079998591 L 279.42187520011794 631.9648440319579 L 279.42187520011794 631.6367185920244 L 279.80492800014326 631.3768959998852 L 280.29687500803266 631.4257817598991 L 281.734375424101 631.914062847849 L 282.19531264004763 631.9375001599547 L 282.0884480000241 631.6328959999373 L 281.4921871361439 631.1171870718827 L 280.89241600001696 630.3231999998097 L 280.226456576027 630.3007293439587 L 279.38281267206185 629.8789058558759 L 279.52343756804476 629.2968744959217 L 279.804687360127 629.1328122879495 L 279.804687360127 628.9453127679881 L 280.5390622720588 628.664062975964 L 280.9968640001025 628.8025599998655 L 281.34809600003064 629.1527679999126 L 281.8750003200839 629.3632808958064 L 282.2277120000799 629.3166079998482 L 281.9140628480236 628.378906623926 L 282.1249996800325 628.0781250559958 L 282.8593745920225 627.9375001598964 L 282.92968755203765 627.562500095868 L 283.84374988800846 627.562500095868 L 283.87635200005025 627.0935039998149 L 284.29762764816405 626.9063843839685 L 285.3515622400446 627.0937497598352 L 285.9489280001144 627.3966079998063 L 286.33593753603054 627.2812503039022 L 286.5468753920286 626.9296875518048 L 286.5111040000338 626.6009600000107 L 286.4062504961039 626.4843745278777 L 286.58073600009084 625.9466239998583 L 287.38867200008826 625.875967999862 L 287.6328120320104 625.9687495678081 L 288.1617920001154 626.5077759998967 L 288.47656243207166 626.4140625919099 L 289.0781245440594 625.9453122558771 L 289.0741760000237 625.8053119998076 L 288.33593753614696 625.3828126718872 L 288.2666526721441 625.2449914878234 L 288.3750000640284 625.1289067518665 L 289.84627200005343 624.8693759998423 L 290.7248640001053 625.0332159999525 L 291.35769600007916 625.7817599998671 L 291.7089280000073 625.9220479998621 L 292.0243200000259 625.8278399998671 L 292.0243200000259 625.5001599998795 L 292.55168000009144 625.5237119998201 L 294.02343731204746 626.4140625919099 L 294.2730240000528 626.7863039998338 L 295.1516160001047 626.7627519998932 L 295.74860800011083 626.9265919998288 L 296.3437496320694 627.2070307839313 L 297.8906245121034 627.464843263966 L 298.6319462400279 627.7223546878085 L 299.2968744960381 628.1445314558223 L 299.858944000036 628.305919999897 L 302.564352000074 628.2813439998426 L 302.6339840000146 627.7437439999776 L 303.1255040001124 627.3454079999356 L 304.88281292817555 627.0898442238686 L 305.5859374081483 626.8085934079718 L 306.1796874240972 626.9960939518642 L 307.20312524808105 626.9960939518642 L 308.0775680001243 627.1109120000037 L 308.2536960001453 627.0177279998898 L 308.21785600017756 626.830335999839 L 307.6953128960449 626.527343616006 L 307.58628966403194 626.1757808639086 L 308.6718750721193 626.1757808639086 L 309.69531289610313 626.5976565759047 L 310.78124953602673 626.7148441598401 L 312.28906291205203 626.5742182398681 L 312.3281254400499 626.4101560318377 L 312.8207360000233 626.0111359999282 L 312.8207360000233 625.6599040000001 L 311.94112000003224 625.1223039999022 L 311.97636300802696 624.9112360959407 L 313.10131200007163 624.5836799998651 L 315.4903040000936 624.4669439998688 L 318.12403200002154 624.9820159999072 L 322.2734376961016 625.4960936958087 L 323.14843750401633 625.4960936958087 L 323.60345600009896 625.3086719998391 L 323.88505600002827 624.817151999916 L 323.78158080001594 624.3491839999333 L 324.09600000001956 624.3491839999333 L 325.25516800006153 624.6297599998652 L 325.8906245120452 624.5117183998227 L 326.1718753280584 624.2578124798601 L 327.14843750401633 624.3984373759013 L 328.83593728003325 624.2343751678709 L 329.2968744960381 624.0703129598987 L 329.78906214411836 623.6953128958703 L 330.3147520000348 622.8756479998701 L 330.5605120001128 622.8756479998701 L 331.2968744960963 623.9999999999418 L 331.7187502081506 624.2812497919658 L 332.49177600000985 624.4433919999283 L 334.53125017601997 624.5156249598949 L 334.88281292811735 624.6796871679253 L 335.8289920000825 624.8878079999122 L 336.3205120000057 625.2390399998985 L 338.6718750721193 626.0820316159516 L 340.0468746240367 626.363281407801 L 340.7109376001172 626.363281407801 L 340.9921873920248 626.269531135913 L 343.6974080000073 625.9179519998725 L 343.8745989120216 625.6841175038135 L 344.68044800002826 625.5441919998848 L 345.699328000017 625.216511999839 L 347.07031244807877 624.6328125438304 L 347.56198400008725 624.1413119998178 L 347.84358400001656 623.6968960000086 L 348.01868800004013 623.6262399999541 L 348.19531264010584 623.3476567038451 L 348.651520000014 623.275008000026 L 349.6717998080421 623.5820083198487 L 349.9151360000833 623.7675519998302 L 351.671296000015 624.4689919998636 L 353.25235200003954 624.7976959999651 L 354.65624985616887 623.9804692479083 L 355.0781245440594 623.9335935999407 L 358.80140800005756 625.6414719999302 L 360.9062502400484 625.9921879040194 L 364.00025600002846 626.320383999846 L 369.0937497600098 626.441406463855 L 371.02343782415846 626.6289059838164 L 371.37499955203384 626.7674214399303 L 371.37499955203384 627.1898296319414 L 370.8477440000861 627.5399680000264 L 370.1800960000255 628.4052479999373 L 369.54726400005165 628.8967679998605 L 369.2656250880682 629.2226559998817 L 369.2656250880682 629.8554685439449 L 369.43750041601015 630.371093503898 L 369.8593751040753 630.9101557758986 L 371.2968744960381 632.4765624318388 L 372.4921876480803 633.3437501438311 L 372.84375040006125 633.8593751039007 L 373.19577600009507 634.2789119998924 L 375.19531212811125 635.9648440318415 L 375.33593702409416 636.1523435518029 L 375.5078123520361 636.1992192000034 L 376.73984000011114 637.0416639998439 L 377.33580800011987 638.0011519999243 L 377.74218752002344 638.4414064639714 L 379.2998400001088 637.6970239998773 L 381.48437504004687 637.26562508801 L 382.6183464960195 637.1133808639715 L 386.2138880001148 637.4225919998717 L 386.5938165760599 637.4733885438764 L 386.6171873281128 637.7031249919673 L 383.9324160000542 637.8885119998595 L 383.4843750401051 638.0507811838179 L 382.6171873281128 637.9726561279385 L 381.9531253760797 637.9570309118135 L 380.7692800000077 638.0810239999555 L 380.0094720000634 638.2725119998213 L 379.10937497607665 638.6875002879533 L 378.19531264004763 639.2265625600121 L 378.3515627520392 640.2187499519787 L 378.5546874880092 641.0703124478459 L 379.74835200002417 642.9173759999685 L 381.42968729615677 644.3203123199055 L 383.16851200006204 645.2838399998727 L 384.15257600008044 645.9832319998532 L 384.2578124800348 646.1718753278255 L 384.89062502403976 646.3359375358559 L 386.0468746240367 647.1289067518082 L 387.6669440001133 647.8530559999635 L 388.7206400000723 648.1807360000093 L 391.00330700800987 648.3200542719569 L 391.6718745600665 648.5312501759618 L 395.8125004800386 648.7851560958079 L 399.8515630080947 648.5273436159478 L 402.7265628160094 647.9414067200269 L 403.5703121920815 647.7070315519231 L 408.24218726402614 645.9257815038436 L 409.04806400003145 645.4333439998445 L 409.8593751040171 644.7773439998855 L 411.9296870401595 643.6796876798035 L 412.6257264640881 643.2107110398356 L 413.6796876800945 642.8828129279427 L 417.7578127360903 642.1562501118169 L 418.7734374401625 642.1328127998859 L 418.9140623360872 642.0390625278815 L 418.98437529604416 641.5234375679283 L 419.0937497600098 641.4296872959239 L 419.5781253121677 641.3828126718872 L 420.3184588801232 641.8270126079442 L 422.10937548807124 643.2304691199679 L 422.42968780809315 643.7929687038995 L 423.2345600000117 643.9772159999702 L 423.93600000004517 643.907583999855 L 424.81356800015783 643.6966399998637 L 425.65632000006735 643.2983039998217 L 426.0075520001119 643.228671999881 L 426.7806720000226 643.9772159999702 L 427.23437465610914 644.2812497918494 L 430.2187499520951 644.796874751919 L 431.7656248320127 644.7734374398133 L 432.04873523209244 644.3976099839201 L 432.2578124800348 644.3046871039551 L 432.8203120640828 644.5156249599531 L 434.3984373761341 646.3398440959281 L 434.92968755209586 646.6914058239199 L 436.3671879680478 648.2343751678709 L 436.7544320001034 648.7951359999133 L 437.38726400007727 648.9825279999059 L 439.74218752008164 648.2578124798019 L 444.5468753920868 647.460937727883 L 444.6887424000888 647.3202175999177 L 445.6015626240405 647.2499998719431 L 447.60156262409873 648.9335941119934 L 448.69324800011236 650.1734399998677 L 449.71110400010366 650.5717759999097 L 450.3750000640284 651.1796879358008 L 450.65624985616887 651.6718745598919 L 452.3100160000613 653.0744319998194 L 452.3100160000613 653.1686399999307 L 453.5000002561137 654.1523435518611 L 453.5000002561137 654.5273436158895 L 454.3805440000142 655.1572479998576 L 454.76659200002905 655.1336959999171 L 455.25811200012686 655.4613759999629 L 455.6093440001714 655.6016639998998 L 456.83593728009146 656.445311999938 L 457.8515630080947 656.9804687358555 L 458.1713920000475 657.4970879999455 L 458.4181760000065 657.6373759998824 L 458.97884774411796 657.5679303679499 L 460.3125002240413 658.45703167998 L 461.01562470401404 659.1132815359742 L 462.87552204803796 660.1880872958573 L 463.43750041606836 660.82031206385 L 464.5937500161235 661.6171878398745 L 464.632812544005 661.921874943946 L 465.2274063361692 662.0589219839312 L 466.2456320000347 662.4573439998203 L 468.17587200010894 663.5335679998971 L 469.4036480000359 664.3292159998673 L 472.25000038405415 665.7109370878898 L 473.33593702403596 666.1328127998859 L 474.74218700808706 666.53125017602 L 476.63411200011615 666.5994239998399 L 477.8593751040753 666.4609372158884 L 478.9531248640851 666.4374999039574 L 481.79404800001066 666.4376319998992 L 484.2147840001271 666.6250239999499 L 485.37499955209205 666.5078128638561 L 485.9361280000303 666.6014720000094 L 486.4972800000105 666.9055999998818 L 488.42968780809315 667.5859374079737 L 489.898437632015 667.8437498878338 L 490.25000038417056 668.0781250559376 L 490.39062528009526 668.5234370559338 L 492.4262400000589 669.8086399999447 L 494.7773440000601 670.3482879998628 L 496.60156211210415 670.8632811518037 L 498.812499968044 671.2617185279378 L 501.16406272008317 672.5273436158895 L 502.1796874240972 672.8789063678123 L 503.09374976012623 673.4179686398129 L 504.10937548801303 673.628906495811 L 505.16406272008317 674.0039065598394 L 506.28250214405125 674.0948070398881 L 506.5311784961377 674.3054796799552 L 506.4601600000169 675.07814399997 L 506.84375040006125 675.4765629438916 L 510.6278400000301 677.6893439998967 L 511.05468723207014 677.8437498878338 L 513.1489280000096 678.2853119999054 L 516.3750000640866 678.449218559952 L 517.0079109120416 679.007950847852 L 517.3593753600144 679.5000002559391 L 517.4671360000502 679.8745599999093 L 517.9921879040194 680.7890626558219 L 519.2232960000983 681.4883839999093 L 519.4296872960986 682.0507811838761 L 520.1008640000364 682.306559999939 L 520.8043520000647 683.1247359999688 L 520.8046878720634 683.2656250878936 L 521.1171870721155 683.5468748799176 L 521.8203125760774 683.7578127358574 L 526.8749998080311 684.1054689278826 L 527.7890621440602 684.2226565118763 L 529.5779840000323 685.1102719998453 L 531.6093747200212 685.7656248319545 L 532.1015623681014 686.0664063998847 L 532.7728640000569 686.6995199999656 L 533.2643840000965 686.9800959998975 L 534.3203123200219 687.3320314878365 L 536.0711680001114 687.4705919999396 L 536.5975040000048 687.6579839998158 L 538.984448000032 689.1540479998803 L 540.1784320001607 689.808383999858 L 541.3359370240942 690.2304686080315 L 542.3892480001086 690.9542399998754 L 542.9843752960442 691.4687498238054 L 543.476562944008 692.3593748479034 L 545.055744000012 692.3806719998247 L 546.3193600000232 692.7790079998667 L 547.7578127360321 693.5742187519209 L 549.0913280000095 694.1102079999982 L 550.562499584048 694.4843745279359 L 553.3378560000565 695.7004799998831 L 554.4601600001333 696.0046079999302 L 554.7734374400461 696.261719039816 L 555.26562508801 696.9414062079159 L 555.546874880034 697.0585937919095 L 556.3906252801535 697.175781375845 L 557.3027840000577 697.4310399998794 L 558.0390400001197 697.8519039998064 L 558.6328125440632 698.3437496318948 L 559.335937024036 698.6015621119877 L 565.1251200000988 699.0909439998795 L 565.6484372480772 699.2773437439464 L 565.8593751040753 699.4414059518022 L 566.0703129600734 699.8398433279363 L 566.7734374400461 700.3554682878312 L 567.7890621441184 700.4257812479045 L 567.8264320000308 700.6115839998238 L 567.6874997760169 700.7734374399297 L 566.914062336029 700.9843752959277 L 566.7734374400461 701.4531246079132 L 566.8792320000357 701.5014399999636 L 566.9498880000901 701.9694079999463 L 567.966720000084 703.0220799999079 L 568.2483200000133 703.6303359998856 L 570.5994240000146 705.7827839998645 L 572.6689280000865 707.209215999872 L 573.2648960000952 707.373055999924 L 574.7025920000742 708.5895679998212 L 575.614976000099 708.9879039998632 L 579.3669120001141 710.1573119998793 L 579.7529600000125 710.1337599998806 L 582.137856000103 710.5085439998074 L 583.785472000076 710.5791999998619 L 584.9784320000326 710.4849919998669 L 586.0300800001714 710.6959359998582 L 587.1171870720573 711.3749995518592 L 587.6406251520966 711.5859374080319 L 589.8515630080365 711.9609374718275 L 590.9760000000242 712.2872320000315 L 591.7812500480213 712.8515624959255 L 592.9041920000454 713.2938239998184 L 595.4990080000134 714.1130239999038 L 597.7109370880644 714.6757816319005 L 598.8997120001004 715.1656959998654 L 600.0546877440647 715.8906245118123 L 600.7930880000349 716.5931519999285 L 600.9296875520376 717.1562495999387 L 601.9140628480236 717.7421875199652 L 604.9290240000119 718.6298879998503 L 606.0513280000887 719.0743039998924 L 607.0312499200227 719.7304688639706 L 608.8898560000234 721.5083519999171 L 609.1008000000147 721.9537919998402 L 609.5216640001163 722.3746559998835 L 609.6249999360298 722.656249855936 L 609.906249728112 722.9374996479019 L 610.7109376001172 723.382812671829 L 612.5004800001043 724.0366079998785 L 613.828124672058 724.7617187838769 L 614.390625280037 725.183593471942 L 614.9888000000501 725.4179839999415 L 615.2693760000984 725.6524799999315 L 615.4062499840511 726.0507811839343 L 615.6874997760169 726.4023439360317 L 616.914062336029 726.9648435199633 L 618.668032000016 728.0394239998423 L 618.9127680000383 728.2974719999474 L 619.195312128053 729.2578129919712 L 619.6131840000744 729.209855999914 L 619.8937600000063 729.046015999862 L 619.8599680000334 728.3681279999437 L 620.0384880640777 728.2503751679324 L 620.5248266240233 728.2513899519108 L 620.7343749120482 728.4609372158302 L 624.7656253440073 730.1718753278838 L 629.8515630080947 731.8359377919114 L 631.1093749760184 732.0937502720044 L 633.984374784166 732.4687503358 L 636.4733440001146 732.4928000000073 L 638.6328125440632 732.4609372158884 L 639.6796876800945 732.4257812479045 L 643.8123520001536 731.9080959999701 L 645.9146240000264 731.5077119999914 L 646.9687500800355 731.1328122879495 L 650.7509760000976 730.3127039998653 L 652.293120000104 729.797631999827 L 652.7856640000246 729.7505279999459 L 652.9607680000481 729.8672639999422 L 652.9607680000481 730.1949439999298 L 650.1953126400476 731.5976560639683 L 649.7031249920838 731.7148436479038 L 648.0885760000092 731.8108159999247 L 646.0907520000474 732.3269119999022 L 645.6328120320104 732.5859379199683 L 645.6360960000893 732.7252479999443 L 645.98630400002 732.8184319998254 L 647.1424000000115 732.4436479998985 L 648.2968750080327 732.2343751678709 L 650.1570560000837 732.2552319999668 L 650.6093752320157 732.3945308158873 L 651.0694400000502 732.8860159999458 L 651.7031249920256 733.355468799884 L 653.9110400000936 734.3585279999534 L 654.2265620480175 734.4062504958711 L 654.2656245761318 734.1484369919053 L 653.3124997120467 733.4218751999433 L 651.4218752000597 732.2773442558246 L 651.4218752000597 731.9960934399278 L 653.5577600000543 730.685439999972 L 653.8750003200257 730.3125002239249 L 653.9765760000446 729.5160319999559 L 654.2919680000632 729.2119039999088 L 654.4322560001165 728.8135679998668 L 654.7476480000187 728.720383999811 L 655.2033280000323 728.8135679998668 L 655.5156254720641 728.9765621758997 L 655.8351360000088 729.3747199999052 L 656.3281254401663 729.4453125119326 L 656.2897971200873 729.0000005119364 L 656.6759096321184 729.0000005119364 L 657.3749995520338 729.6562503679306 L 657.9375001600129 729.8671871998231 L 659.0937497600098 730.66015641595 L 659.79687526403 730.8710932478425 L 660.8844800000079 731.6183039998286 L 661.8664960000315 731.8988799999352 L 663.0546872320119 731.9687495679245 L 663.8984376320732 732.2265620479593 L 664.9140623360872 732.9726566398749 L 665.9348480000626 733.48915199982 L 666.8103680000058 733.5587839999935 L 667.5468748800922 733.9804692479083 L 667.5824640000355 734.4476159998449 L 669.3007360000629 735.5699199999217 L 670.1783040000591 736.7864319998189 L 670.6688000001013 737.1141119998065 L 672.316416000016 737.534975999908 L 672.3870720000123 738.2835199998226 L 672.7031255040783 738.8437503999448 L 673.3671874561114 739.6406251518638 L 675.439616000047 741.0206719998387 L 676.281249792024 741.183593471942 L 677.9975680000498 741.2070399999502 L 679.7890621441184 741.8867189759039 L 680.6620160000166 742.0252159998054 L 681.7484800000675 742.0487679999205 L 682.6250240000081 741.7210879999329 L 683.3960960000404 741.7200639998191 L 684.3750000640284 742.4453119998216 L 684.8327680000803 742.5863679998438 L 687.0390620160615 742.796874751919 L 687.9528960001189 743.1700479999417 L 690.6875002880115 743.2890623998828 L 692.9999994880636 744.4101560318959 L 694.6144860160421 744.5973432319006 L 695.1393280000193 744.9006079999963 L 696.9262080000481 745.6020479999715 L 698.5041920000222 745.8590719999629 L 700.1874995200196 745.8828124159481 L 700.8203120640246 745.5546879998874 L 701.7625600001193 745.4853119998006 L 702.6015621120459 745.6718745599501 L 704.6718750721193 746.3984373758431 L 709.335937024036 747.171874815831 L 710.5249280000571 747.3100799999665 L 713.08288000006 747.7309439998935 L 717.6718745600665 749.3242183678085 L 717.9531253761379 749.5785052158753 L 717.9531253761379 749.9570309118717 L 717.7093120000791 750.4926719999057 L 717.7093120000791 750.9135359998327 L 717.8496000000159 751.1480319999391 L 718.0937502720626 751.2890623998828 L 718.9350420481642 751.3825372159481 L 719.0056960000074 751.5924479999812 L 718.4765624320717 752.3867187199066 L 718.4062504961621 753.1601561598945 L 718.1640622080304 753.2304691199679 L 717.8833920001052 753.0199039998115 L 717.8125004800386 752.2929684479022 L 717.3593753600144 752.2226565118763 L 717.1484375041327 752.4335933440016 L 716.9687500800937 753.1601561598945 L 717.2499998720596 755.3124997118721 L 717.4973440000904 755.5235840000096 L 718.0937502720626 755.6874997759005 L 718.7968747520354 755.5468748798012 L 721.1406254080357 754.6132807678077 L 721.3168640000513 754.7054079999798 L 721.3512642561109 754.8463134719059 L 718.4062504961621 756.1093754878966 L 718.443520000088 756.3192319998052 L 718.6171873280546 756.5078128638561 L 718.9687500800355 756.4140625920263 L 719.6015626240405 755.992187903903 L 719.952633856039 755.9219732478377 L 720.1953126400476 756.0156252158922 L 720.1953126400476 756.2026977278874 L 719.2812503040768 756.8789063678123 L 719.2109373440617 757.0664058879483 L 719.4593280000845 757.3022719998262 L 719.5996160000213 757.6289279999328 L 721.1718748160056 758.3789066238678 L 721.2109373441199 758.4960942078033 L 722.5781248001149 758.8476559359697 L 725.0625003520399 759.4101565438905 L 726.8167680000188 759.6892159999697 L 729.273437184107 759.8789058558177 L 733.718528000114 759.5980799998506 L 735.0149120000424 759.7383679998457 L 735.7870080000721 760.0189439999522 L 737.7109370880062 761.0039060478448 L 738.0285440001753 761.4003199998406 L 738.5538560000132 762.1027839999297 L 739.3587200000184 762.6639359999681 L 739.8492160001188 762.8052479998441 L 741.4921871360857 763.0390620158869 L 742.5078128640889 763.3671874558786 L 745.4531246080296 763.484375039814 L 750.8828129281173 763.2539064319571 L 751.79687526403 763.0429685759591 L 754.074624000059 762.2707200000295 L 754.4218746880651 762.2500003839377 L 754.53125017602 762.1093754878384 L 757.0546872320701 761.3828126719454 L 758.0702720001573 761.0091519998387 L 762.7683840000536 758.8126720000291 L 764.3463680000277 757.8767359998892 L 765.6785920000402 756.7319039999275 L 765.8199040000909 756.497407999821 L 765.8557440000586 755.9127040000167 L 766.1496320000733 755.6556800000253 L 766.2202880000114 755.3044479998644 L 766.2031380480621 754.3211468799273 L 766.6411520001129 753.8780159999151 L 766.6411520001129 753.0362879999448 L 767.0968320000684 752.8724479998345 L 768.4413440000499 752.7782399998396 L 769.8046873600106 753.0117191678146 L 770.5078128641471 753.0351564799203 L 770.9999994880636 753.1523440638557 L 771.9813120000181 753.665023999929 L 772.195312640164 753.6640624639113 L 772.5066240000306 753.3373439998832 L 772.7872000000207 753.2441599998274 L 773.1025920000393 753.2441599998274 L 773.343750144064 753.4296872958075 L 773.3124997121049 754.1562501119333 L 773.4886400000541 754.3664639999042 L 774.539062272117 754.7656253438327 L 775.0318080001161 754.880511999887 L 776.153088000021 754.7627519999514 L 777.2395520000719 755.0197759999428 L 779.6953128961031 755.2304691198515 L 780.6718750721193 754.9726566399913 L 781.201203200093 755.0660628479673 L 781.9356160000898 755.5563519998104 L 782.3906252800953 756.0468746238039 L 782.4609372160048 756.445311999938 L 782.7031255040201 756.6757816319005 L 784.2111416321131 757.1447080959915 L 785.722368000017 758.4552959998837 L 786.4934400000493 758.6887679999345 L 787.1242240000283 759.2028159999172 L 787.6853760000668 759.5304959999048 L 789.015624704014 759.9765626878943 L 790.0692480000434 760.1377279999433 L 792.5937500160071 760.6757816318423 L 793.4687498240382 760.722656255879 L 794.3828121600673 760.5820313599543 L 795.7109370880062 760.4882810879499 L 796.0937502721208 760.5820313599543 L 796.9372160000494 761.0480639999732 L 797.6015626240987 761.8671871998231 L 797.7789440000197 762.9434879998444 L 798.059520000068 763.2240639999509 L 799.8119669760927 763.6912629759172 L 800.3359375360305 764.0429690878373 L 800.4765624321299 764.347656191967 L 800.898048000061 764.6269439999596 L 802.6152960000327 765.1645439998829 L 803.8420480000204 765.4215679998742 L 805.9453122560517 766.1484369919053 L 808.4316160001326 766.7312639998272 L 809.726562304073 767.1289067518665 L 811.6562503681052 767.4101565438905 L 812.6713876480353 767.7381232639309 L 813.3877760000178 768.2037759999512 L 814.2100480000372 768.6420479998342 L 816.0686080001178 769.0352639998309 L 816.4188160000485 769.1991039999411 L 816.4843745280523 769.3632808959228 L 816.9453127680463 769.7617182718823 L 817.3984378880123 769.9726561278803 L 817.8515630080365 770.0429690879537 L 819.7812500480795 770.1601566719473 L 820.6562498560525 770.300781567872 L 821.6718745600665 770.8359372798586 L 822.8281251840526 771.2578129919712 L 823.9140628480236 771.4921871358529 L 825.2498493440798 771.398448127904 L 826.6796871680417 771.7734379519243 L 827.9439360000542 772.262911999831 L 829.240320000099 773.0124799998594 L 829.801472000021 773.6422399998992 L 830.3593748480198 773.9023441919708 L 834.1094400001457 774.5085439999239 L 834.562499584048 774.8593745918479 L 835.9687495680992 775.2343746558763 L 836.8749998080311 775.3281249278807 L 837.4374400000088 776.1459199999226 L 838.2781440000981 776.6845439999015 L 839.2578129920294 776.9414062078577 L 841.2901396480156 777.2466278398642 L 842.3750000640284 777.7851566079189 L 844.4062504961039 779.003906047903 L 848.8906250240398 780.7109375998843 L 850.9531248640851 781.0390620159451 L 852.1830400000908 781.459455999895 L 853.5132160001085 782.0206079999334 L 855.1562496000552 782.6054686718271 L 856.8401920001488 782.8869119999581 L 857.2582082560984 783.0510602239519 L 857.8906245120452 783.4960936959833 L 858.5546874881256 783.8007807998802 L 862.4765624320135 784.8554690559395 L 863.7747200000449 785.4161919998587 L 864.5795840000501 785.6035839999095 L 865.6302080000169 786.352127999824 L 865.734375424101 786.7500001278822 L 866.0468746240367 787.1250001919107 L 866.8515624960419 787.4296872958075 L 867.5937495040707 787.8515630078036 L 868.0078120960388 787.9453122559353 L 869.4453125121072 788.0390625279397 L 872.179687424039 788.6953123839339 L 874.0321280001663 789.4661119998782 L 874.5574400000623 789.5603199998732 L 875.2230400000117 789.5603199998732 L 875.7831680001691 789.7241599999834 L 876.6250004480826 789.8437498879503 L 877.2187504640897 790.2156390398741 L 877.2188160000951 790.3098879998433 L 878.1953126400476 790.9648435199051 L 879.3190400000312 791.129087999987 L 880.2641920000315 790.9191679998767 L 880.7198720001034 790.9427199998172 L 881.0312499200227 791.2929689598968 L 881.1386880000937 792.1827839998296 L 881.9435520000407 792.4879359998158 L 882.468750336091 792.8398438398144 L 883.0625003520399 792.9804687359137 L 883.5156254721223 793.3320314879529 L 884.1163939840626 793.5192842238466 L 884.9541120000067 794.0331519999891 L 885.9687495680992 794.3164057598333 L 886.812499968044 794.4101560318959 L 887.476562944008 794.6445311999996 L 888.2104320000508 795.111423999886 L 888.4203520000447 795.4851839998737 L 888.1718753280584 796.2812497919076 L 888.3125002240413 796.5390622719424 L 888.8359372800332 797.0078126078006 L 889.2939970560255 797.1708508158918 L 889.4687498240382 797.3359370238613 L 891.4278400000185 798.1312000000034 L 892.4453120001126 798.3671879679314 L 894.6462720000418 798.589951999893 L 898.6718750720611 798.7421870078542 L 901.1189760000561 798.3175679999404 L 902.939648000116 797.8956799999578 L 903.0467655680841 797.6135628799675 L 903.2888320001657 797.4737919998006 L 903.6738560000085 797.5208959998563 L 904.6875002880115 797.8945310718846 L 905.9531253760797 797.9414067200269 L 906.4062504961039 797.7304688638542 L 906.6162350081722 797.7304688638542 L 906.8963840000797 798.1742079998949 L 907.3510400000378 798.4312319998862 L 907.8415360000799 798.4547839998268 L 908.7500001281151 798.1054689278244 L 909.8721280000173 798.0328959998442 L 910.3603589120321 798.1490923519013 L 911.343750144064 798.804687871947 L 911.3749995520338 798.898437119904 L 911.9062497280538 799.2499998719431 L 912.4296878081514 799.4609377279412 L 913.6199680000427 799.6692479999037 L 914.98472038412 799.6682240000227 L 915.5819520000368 800.112639999832 L 916.703232000058 800.69631999993 L 918.2791680000373 801.2810239999089 L 918.9765621760744 801.6796876798035 L 919.7829662720324 801.911377919896 L 920.240128000034 802.2394879999338 L 920.3804160000873 802.5436159998062 L 920.3814400000847 803.1989759998396 L 920.1008640000364 803.3157119998359 L 919.8909440000425 803.5962879999424 L 919.8203125760192 803.8984376318404 L 919.9609374721185 804.113281023805 L 919.9974400001229 804.5557759998483 L 919.8573834240087 804.766371840029 L 918.98163200001 805.0943999998854 L 918.5624995841063 805.5156254718895 L 917.3359370240942 805.9609374718857 L 916.8128000000142 806.2648319999571 L 916.4609372160048 806.5937500159489 L 916.2885120001156 807.1075839998084 L 916.4609372160048 807.92578150396 L 917.1302400000859 809.8682879999396 L 917.1640627200832 810.4062504958711 L 916.6406246400438 812.277344255941 L 916.3281254401081 814.2460938239237 L 916.1171875840519 814.4765624319552 L 915.8046873600106 814.5234370558755 L 915.594240000064 814.4087039998267 L 915.5625000960426 813.8242191358586 L 914.6828800000367 813.2863999999245 L 914.1249996800907 812.0234373118146 L 913.9296870400431 810.8867184639093 L 912.8806400001049 810.90559999994 L 912.7890626560547 811.273437183816 L 912.4374999040738 811.3437501438893 L 911.5658240000485 811.0888959998265 L 911.250432000088 811.0888959998265 L 911.3203128320165 811.3476567039615 L 912.2656245760154 812.0468746239203 L 912.3020800000522 812.4456959998352 L 911.8822400000645 813.0068479998736 L 911.6385280000977 813.5915519998525 L 911.6718745600083 814.1289062399301 L 911.9191040000296 815.1357439999701 L 911.849472000089 815.2995839998475 L 911.5699200000381 815.3937919998425 L 910.9749760000268 815.3937919998425 L 911.0078126080334 815.910156287835 L 911.5703121920815 816.9843752959277 L 911.7812500480795 817.640625151922 L 912.0937502721208 817.9414067199104 L 913.0078126080334 818.3437496320112 L 914.898944000015 819.5563519999268 L 915.388416000118 819.7437439999776 L 917.9432960000704 819.9301119999145 L 919.4140620801481 819.9062497278792 L 921.3749995520338 819.7656248319545 L 921.656250368047 819.8359377918532 L 922.4595722240047 819.976324096031 L 923.0192640000605 820.4195839998429 L 923.3346560000209 820.8404479999444 L 924.2421872640844 821.4023434238625 L 926.0994560001418 822.1962239998975 L 926.9749760000268 822.4071679998888 L 929.5633889280143 822.4767651839647 L 931.1015628800378 822.828125183878 L 931.9453122560517 823.2031252479064 L 933.4843750401051 824.2304686078569 L 934.0467200000421 824.3476479998208 L 935.8671872000559 825.1914065918536 L 939.8906245121034 826.4062504958711 L 941.1484375040163 826.6406246399274 L 941.6765440000454 826.9199360000202 L 943.8437498880085 827.6210933760158 L 944.5078128640307 828.113281023805 L 945.8427596800611 828.2538014718448 L 947.4843750400469 828.8867184639093 L 949.3401600000798 829.2351999998209 L 950.145024000085 829.5393279999262 L 952.7347200000659 830.7793919999385 L 954.5859379200847 832.0664063998265 L 955.6756480000331 832.5345279998146 L 956.8984371200786 832.8632811519201 L 958.4046080000116 833.4929919999558 L 959.8740480000852 833.5400959998951 L 961.3434880000423 833.3987839998445 L 961.9375001600129 833.5859374079155 L 962.6718750721775 834.171875327942 L 962.4985600000364 834.5692159999162 L 962.4289628160186 835.6449054719415 L 961.6562503681052 836.0429690879537 L 961.6562503681052 836.722656255879 L 962.009088000108 837.095423999941 L 964.281249792024 838.4531251198496 L 964.9843752961606 838.7109375998843 L 966.4140625920263 839.015624704014 L 968.4140625920845 839.6015626238077 L 969.6000000000931 839.8571519999532 L 969.7751040001167 839.9974399999483 L 970.1949440001044 840.0445439998293 L 971.0694400000502 840.676351999864 L 971.5234375680448 841.4257817599573 L 972.0468746240949 841.9882813439472 L 973.8671872000559 842.292968447844 L 977.5063040000387 843.0643199999467 L 981.8101760000573 843.6264959998662 L 987.7565440000617 844.7037439998821 L 993.0703124480788 845.1523440639139 L 994.8593745920225 844.8945315838209 L 997.0234378241003 845.1289067519247 L 998.1808640001109 844.9177599999239 L 998.7758080000058 844.7303679998731 L 999.3707520000171 844.6842879999313 L 999.8593751040171 845.2226559998817 L 1000.3125002240413 845.5976560639101 L 1001.0143631360843 845.6444477438345 L 1001.0467573761125 845.9013744639233 L 1000.382812160009 846.0664063999429 L 1000.382812160009 846.4843745279359 L 1000.4889600000461 846.5326079998631 L 1000.4531200000201 846.7435519998544 L 1000.663040000014 847.0947840000154 L 1001.0480640000314 847.2586239998927 L 1007.2033280000906 848.0788479999173 L 1011.7519360000151 848.4546559998998 L 1014.4453120000544 848.2226565118181 L 1016.8944640001282 847.8023679998005 L 1018.8529039361165 847.1014635519241 L 1020.1155880960869 847.007931391825 L 1021.1635200001183 847.1255039998214 L 1022.1404160000966 847.3835519998684 L 1022.6513920000871 847.478783999919 L 1023.335937024036 847.386719231843 L 1023.825920000032 847.5484159998596 L 1024.0 847.5598853995616" fill="none"/><path stroke="#408040" stroke-width="3" d="M 624.7761763834424 1024.0 L 625.2134400000068 1016.4735999999975 L 625.2339199999988 1012.7257600000012 L 624.5785599999945 1011.5072 L 623.656959999993 1010.1657600000035 L 623.0220799999952 1008.3020800000013 L 623.0732799999969 1006.6841599999971 L 623.9744000000064 1004.3596800000014 L 624.107520000005 1001.6051200000002 L 624.3123199999973 999.905279999999 L 626.9849600000016 993.8739199999982 L 627.5891200000042 991.2934400000013 L 628.0806400000001 989.6857600000003 L 628.7872000000061 988.6003199999977 L 637.1839999999938 980.6745599999995 L 640.2150399999955 978.2476800000004 L 644.270080000002 975.9231999999975 L 652.7897599999997 972.1753600000011 L 660.2547199999972 968.1920000000027 L 662.4665600000008 967.0553599999985 L 665.0265599999984 966.4921600000016 L 669.7983999999997 967.1168000000034 L 674.2118400000036 967.7107200000028 L 685.6908799999946 968.4377600000007 L 689.2236799999955 967.7721600000004 L 697.1084799999953 965.5910399999993 L 703.508480000004 963.2665599999964 L 707.3279999999941 960.5734400000001 L 709.0687999999936 958.7097599999979 L 710.4307200000039 956.8051199999973 L 711.5366400000057 955.9347199999975 L 714.8031999999948 954.828800000003 L 720.5171200000041 954.0607999999993 L 733.02016 952.6988800000036 L 742.543359999996 951.9308799999999 L 745.9737599999935 951.9718399999983 L 753.6128000000026 952.8422399999981 L 784.302079999994 956.5491200000033 L 794.4806399999943 957.675519999997 L 804.9766399999935 958.3513600000006 L 824.4531200000056 959.6006399999969 L 844.2982400000037 960.6963200000027 L 861.9520000000048 961.1776000000027 L 885.4118400000007 961.4847999999984 L 890.531839999996 961.4438399999999 L 894.5151999999944 961.372159999999 L 898.6726400000043 960.890879999999 L 908.4928000000073 959.0783999999985 L 915.6710400000011 957.747199999998 L 934.6560000000027 954.3065599999973 L 944.1382400000002 953.6921599999987 L 957.8803199999966 953.0675199999969 L 990.689280000006 951.6851200000019 L 1024.0 950.3067453793119" fill="none"/></svg>