<svg xmlns="http://www.w3.org/2000/svg" width="1024" height="1024"><rect stroke="none" x="0" y="0" width="1024" height="1024" fill="white"/><path stroke="#000000" stroke-width="2" d="M 982.226496749121 0.0 L 982.0234373120475 36.44140646397136 L 982.0156252160086 61.22265599993989 L 982.0234373120475 81.70312499196734 L 981.8125004800386 99.7265623039566 L 981.8125004800386 103.41015654394869 L 981.9140628480236 118.15625011193333 L 981.9140628480236 127.98828134394716 L 981.7109370880644 166.1835939839366 L 980.8906250240398 178.3671879679314 L 980.9921873920248 182.66796851193067 L 981.3046876160079 190.34765619196696 L 981.1015628800378 207.85937510395888 L 981.9140628480236 213.39062476792606 L 981.8125004800386 222.39843737595947 L 981.7109370880644 240.52343705593375 L 981.6093747200212 255.98828134394716 L 981.6093747200212 266.84375039994484 L 981.6093747200212 296.74218700797064 L 981.4062499840511 348.9648435199633 L 981.4062499840511 370.57421823992627 L 981.3046876160079 383.98828134394716 L 981.7109370880644 386.6484377599554 L 981.5078123520361 389.824219135975 L 981.5078123520361 401.19140659197 L 981.4062499840511 423.5156254719477 L 981.4062499840511 451.98046924796654 L 981.2031252480228 500.1093754879548 L 981.2031252480228 510.8593745919643 L 981.1015628800378 516.2890629119356 L 980.8906250240398 594.4179691519239 L 980.6875002880115 619.609374719963 L 980.6875002880115 648.8945315839374 L 980.7890626560547 682.5859379199683 L 980.6875002880115 692.0078120959224 L 980.6875002880115 729.1796879359754 L 980.5859379200265 751.8085939199664 L 980.5859379200265 767.9882813439472 L 980.179687424039 777.0000005119364 L 980.179687424039 780.171875327942 L 980.382812160009 795.2265625599539 L 980.382812160009 799.2187504639733 L 980.4843745280523 807.1054684159462 L 980.4843745280523 833.3203128319583 L 980.5859379200265 837.1054684159462 L 980.5859379200265 841.921874943946 L 980.4843745280523 847.3476567039615 L 980.382812160009 860.8632811519201 L 980.382812160009 877.7617182719405 L 980.4843745280523 884.6210938879522 L 979.6640624640277 895.9882813439472 L 980.382812160009 911.4492190719466 L 980.382812160009 922.20312473597 L 980.179687424039 941.3515622399282 L 980.179687424039 954.7656253439491 L 980.281249792024 964.800781311933 L 980.281249792024 1004.5312501759618 L 980.4843745280523 1009.4453125119326 L 980.281249792024 1014.7695308799739 L 980.382812160009 1018.8671877119341 L 980.281249792024 1023.9882813439472 L 980.281249792024 1024.0" fill="none"/><path stroke="#000000" stroke-width="2" d="M 980.2812497920822 1024.0 L 980.2812497920822 1023.9882813440054 L 980.382812160009 1018.8671877119341 L 980.2812497920822 1014.7695308799157 L 980.4843745280523 1009.4453125119326 L 980.2812497920822 1004.53125017602 L 980.2812497920822 964.8007813119912 L 980.179687424039 954.7656253439491 L 980.179687424039 941.3515622399282 L 980.382812160009 922.2031247359118 L 980.382812160009 911.4492190718884 L 979.6640624640277 895.9882813439472 L 980.4843745280523 884.621093887894 L 980.382812160009 877.7617182719987 L 980.382812160009 860.8632811518619 L 980.4843745280523 847.3476567039033 L 980.5859379200265 841.9218749440042 L 980.5859379200265 837.1054684158298 L 980.4843745280523 833.3203128319583 L 980.4843745280523 807.105468415888 L 980.382812160009 799.2187504639151 L 980.382812160009 795.2265625598375 L 980.179687424039 780.171875327942 L 980.179687424039 777.0000005119946 L 980.5859379200265 767.9882813438307 L 980.5859379200265 751.8085939199082 L 980.6875002880697 729.1796879359754 L 980.6875002880697 692.0078120959224 L 980.7890626561712 682.5859379198519 L 980.6875002880697 648.8945315838209 L 980.6875002880697 619.6093747198465 L 980.8906250240398 594.4179691518657 L 981.1015628800378 516.2890629119356 L 981.2031252481393 510.8593745920225 L 981.2031252481393 500.1093754878384 L 981.4062499840511 451.9804692478501 L 981.4062499840511 423.5156254720059 L 981.5078123520943 401.19140659197 L 981.5078123520943 389.824219135975 L 981.7109370880644 386.6484377599554 L 981.3046876160079 383.98828134383075 L 981.4062499840511 370.57421823980985 L 981.4062499840511 348.96484352002153 L 981.6093747200212 296.74218700791243 L 981.6093747200212 266.84375039994484 L 981.6093747200212 255.98828134394716 L 981.7109370880644 240.52343705593375 L 981.8125004800968 222.39843737595947 L 981.9140628480236 213.39062476786785 L 981.1015628800378 207.85937510395888 L 981.3046876160079 190.34765619185055 L 980.992187392083 182.66796851193067 L 980.8906250240398 178.3671879679314 L 981.7109370880644 166.18359398387838 L 981.9140628480236 127.98828134388896 L 981.9140628480236 118.15625011193333 L 981.8125004800968 103.41015654383227 L 981.8125004800968 99.72656230389839 L 982.0234373121639 81.70312499196734 L 982.0156252160668 61.22265599993989 L 982.0234373121639 36.44140646397136 L 982.2264967491792 0.0" fill="none"/><path stroke="#408040" stroke-width="3" d="M 0.0 908.4441705931022 L 17.121280000006664 903.8745599999966 L 33.218559999993886 899.5840000000026 L 47.61599999999453 895.7952000000005 L 56.340479999998934 895.1296000000002 L 65.54623999999603 896.0716800000009 L 75.53023999999277 897.5155200000008 L 84.19328000000678 898.7647999999972 L 116.02943999999843 903.3625600000014 L 129.53599999999278 905.1750400000019 L 132.9664000000048 904.8268800000005 L 137.4617600000056 903.1065600000002 L 147.82464000000618 897.4335999999967 L 155.01312000000325 893.4809600000008 L 175.22688000000198 882.3910400000022 L 181.06368000000657 879.8515199999965 L 191.74400000000605 877.0559999999969 L 204.07296000000497 873.8713599999974 L 216.1356800000067 872.2534400000004 L 224.901119999995 870.8608000000022 L 231.36255999999412 867.9936000000016 L 239.04256000000169 864.1945600000035 L 242.6982399999979 863.590400000001 L 245.64736000000266 863.9590400000016 L 254.27968000000692 866.6419200000018 L 259.69663999999466 868.270080000002 L 264.1715200000035 868.8332799999989 L 288.9216000000015 869.0073600000032 L 294.35903999999573 868.4544000000024 L 300.9638399999967 865.9865599999976 L 318.77120000000286 857.6921599999987 L 323.14367999999376 855.4598400000032 L 327.5468799999944 852.5107199999984 L 331.4483199999959 850.0736000000034 L 334.87871999999334 848.6912000000011 L 342.12863999999536 847.6876800000027 L 347.4022399999958 847.6672000000035 L 366.5715199999977 847.5852799999993 L 416.665599999993 847.3702399999966 L 438.1900800000003 847.0016000000032 L 450.5292800000025 846.4793599999975 L 470.81471999999485 846.7353599999988 L 496.343040000007 846.6431999999986 L 523.6940800000011 846.7353599999988 L 529.5923199999961 848.2406400000036 L 532.8076799999981 849.899519999999 L 543.3446399999957 856.5760000000009 L 557.0867200000066 865.3004799999981 L 570.0198399999936 873.4003200000006 L 585.349119999999 879.7388799999972 L 643.5635199999961 903.5468800000017 L 651.0489600000001 906.6188800000018 L 654.6227199999994 908.0729599999977 L 659.0464000000065 909.3119999999981 L 664.6374400000059 909.6601599999995 L 672.7475200000044 909.5372799999968 L 686.8275200000062 909.3222400000013 L 731.8220799999981 908.5235200000025 L 737.5359999999928 907.7043199999971 L 744.386559999999 905.8713599999974 L 757.9443199999951 901.9699200000032 L 770.1196800000034 898.4576000000015 L 777.4105600000039 895.8464000000022 L 787.9679999999935 891.1155199999994 L 814.6841600000043 881.663999999997 L 855.551999999996 867.6556800000035 L 901.0483200000017 852.1318400000018 L 916.7052799999947 847.9846400000024 L 933.5705599999928 842.7007999999987 L 949.7395200000028 837.652479999997 L 958.6687999999995 836.4748800000016 L 964.5772799999977 836.5772799999977 L 972.8204799999949 836.9152000000031 L 980.3468799999973 837.2121600000028 L 984.4428800000023 837.4169600000023 L 986.296319999994 837.6729600000035 L 987.8323200000013 838.7276800000036 L 988.4057599999942 839.1884799999971 L 988.6412799999962 839.249920000002 L 988.8051200000045 840.0076800000024 L 985.4771199999959 840.386559999999 L 981.4527999999991 840.8780800000022 L 979.8963199999998 841.0726399999985" fill="none"/><path stroke="#408040" stroke-width="3" d="M 1024.0 835.641851123808 L 1016.1254400000034 836.5567999999985 L 1004.7692799999932 837.887999999999 L 1000.9804799999984 838.3283200000005 L 998.9427200000064 838.5228799999968 L 996.8947199999966 838.5433600000033 L 995.7990399999981 838.4921600000016 L 995.624960000001 838.4307199999967 L 995.3177600000054 838.3795200000022 L 994.2937600000005 838.2054399999979 L 993.607680000001 838.0415999999968 L 993.310719999994 837.9289599999975 L 992.4300800000055 837.4886400000032 L 991.7849600000045 836.99712 L 991.354879999999 836.5260800000033 L 990.883839999995 835.9628799999991 L 990.4230399999942 835.624960000001 L 989.9724799999967 835.4611199999999 L 989.8188800000062 835.4303999999975 L 989.7164800000028 835.4099199999982 L 989.7062399999995 835.4918400000024 L 989.6243200000026 835.8502399999998 L 989.5935999999929 836.03456 L 989.4707199999975 836.5772799999977 L 989.3580800000054 837.1200000000026 L 989.2044800000003 837.8982400000023 L 988.9587199999951 839.1270399999994 L 988.8051200000045 840.0076800000024 L 985.9174400000047 840.3353599999973 L 984.8012799999997 840.4582399999999 L 980.4390399999975 841.0112000000008 L 979.8963199999998 841.0726399999985" fill="none"/></svg>