<svg xmlns="http://www.w3.org/2000/svg" width="1024" height="1024"><rect stroke="none" x="0" y="0" width="1024" height="1024" fill="white"/><path stroke="#000000" stroke-width="2" d="M 996.8671877120505 1024.0 L 996.8671877120505 1020.4023439359735 L 996.7656253440073 1005.9648440319579 L 996.7656253440073 1002.4843745279359 L 996.6640629760223 998.3867187199648 L 996.6640629760223 974.6289059839328 L 996.7656253440073 966.2343751679291 L 996.7656253440073 946.5742182399263 L 996.6640629760223 940.8398438399308 L 996.562499584048 924.453125119966 L 996.562499584048 918.1054689279408 L 996.460937216063 902.7460935679264 L 996.6640629760223 896.0898437119322 L 996.460937216063 893.8359377919696 L 996.562499584048 890.3554682879476 L 996.562499584048 887.9999999999418 L 996.6640629760223 882.7773439999437 L 996.562499584048 877.5546879999456 L 996.562499584048 872.6406246399274 L 996.460937216063 866.2929684479604 L 996.562499584048 854.7187496959232 L 996.6640629760223 831.4765629439498 L 996.6640629760223 827.7890621439437 L 996.7656253440073 820.2109378559398 L 996.6640629760223 808.4374999039574 L 996.6640629760223 709.6210933759576 L 996.562499584048 701.1210936319549 L 996.562499584048 680.7421870079706 L 996.6640629760223 640.0898437119322 L 996.6640629760223 495.29687449592166 L 996.460937216063 488.6406246399274 L 996.3515627520392 465.9062497279374 L 996.460937216063 450.445311999938 L 996.460937216063 447.06640588794835 L 996.7656253440073 436.92968755192123 L 996.562499584048 432.11718758393545 L 996.460937216063 426.5859379199683 L 996.460937216063 413.6835942399339 L 996.562499584048 409.07421900791815 L 996.562499584048 398.6289059839328 L 996.460937216063 391.3593753599562 L 996.3515627520392 387.98046924796654 L 996.460937216063 384.29687500797445 L 996.562499584048 377.6367185919662 L 996.562499584048 373.2343746559345 L 996.460937216063 367.80859391996637 L 996.562499584048 362.07421849592356 L 996.562499584048 359.10546841594623 L 996.6640629760223 343.84765644796425 L 996.6640629760223 339.85156300792005 L 996.562499584048 334.3242188799195 L 996.6640629760223 331.55859353597043 L 996.7656161280465 325.82474854396423 L 996.562499584048 317.7343754239264 L 996.6640629760223 313.7421875199652 L 996.6640629760223 310.7695308799739 L 996.562499584048 306.2656245759572 L 996.7656253440073 299.4062499839347 L 996.6640629760223 295.10546841594623 L 996.6640629760223 292.44140646397136 L 996.562499584048 287.7304688639706 L 996.6640629760223 281.5859374079737 L 996.6640629760223 260.80078131193295 L 996.9687500800355 256.0898437119322 L 996.9687500800355 246.0546877439483 L 996.8671877120505 237.65625036793062 L 996.8671877120505 227.51953100797255 L 996.7656253440073 224.8593745919643 L 996.7656253440073 198.33593753597233 L 996.9687500800355 195.87890585593414 L 998.710937600059 192.60156211192952 L 1000.3515627520392 190.65624985593604 L 1001.476562944008 187.89062451192876 L 1001.7812500480213 184.4101560319541 L 1000.5546874880092 181.33984358393354 L 997.2812503040186 178.98437529592775 L 993.898437632015 177.1406254079193 L 990.8281251840526 174.6835937279393 L 991.5390627840534 171.0976563199656 L 992.2578124800348 168.43749990395736 L 994.8203120640246 165.3632808959228 L 998.1953126400476 162.5976565759629 L 1001.2734371840488 162.18749951996142 L 1005.7734379520407 163.51953100797255 L 1009.9765626880107 164.03125043195905 L 1012.3281254400499 162.0859371519182 L 1013.3515622400446 158.9140623359708 L 1013.3515622400446 155.01953126396984 L 1009.9765626880107 151.74609407992102 L 1004.5468753920286 150.10546892794082 L 1001.9843747840496 147.5468748799176 L 1003.4218752000597 144.6796871679253 L 1005.8828124160063 143.24609331192914 L 1008.1328128000605 142.42578124796273 L 1012.2265620480175 140.89062502392335 L 1015.6093747200212 140.273437695927 L 1020.0078120960388 139.8671871999395 L 1024.0 138.9500635363147" fill="none"/><path stroke="#000000" stroke-width="2" d="M 1024.0 138.95006353632198 L 1020.007812096097 139.8671871999395 L 1015.6093747200794 140.27343769581057 L 1012.2265620480175 140.89062502398156 L 1008.1328128001769 142.42578124784632 L 1005.8828124160063 143.24609331187094 L 1003.4218752001179 144.6796871678671 L 1001.9843747840496 147.5468748799176 L 1004.5468753920868 150.10546892794082 L 1009.9765626880107 151.74609407992102 L 1013.3515622400446 155.01953126391163 L 1013.3515622400446 158.9140623359126 L 1012.3281254400499 162.08593715185998 L 1009.9765626880107 164.03125043184264 L 1005.7734379520407 163.51953100791434 L 1001.2734371840488 162.1874995199032 L 998.1953126400476 162.5976565758465 L 994.8203120640246 165.3632808959228 L 992.257812480093 168.43749990389915 L 991.5390627841116 171.09765632002382 L 990.8281251841108 174.68359372782288 L 993.898437632015 177.14062540786108 L 997.2812503040768 178.98437529592775 L 1000.5546874880092 181.33984358381713 L 1001.7812500480795 184.4101560318959 L 1001.4765629440662 187.89062451187056 L 1000.3515627520974 190.65624985581962 L 998.710937600059 192.60156211192952 L 996.9687500800355 195.87890585593414 L 996.7656253440655 198.33593753597233 L 996.7656253440655 224.8593745919061 L 996.8671877121087 227.51953100785613 L 996.8671877121087 237.6562503678142 L 996.9687500800355 246.0546877439483 L 996.9687500800355 256.0898437118158 L 996.6640629760223 260.80078131187474 L 996.6640629760223 281.5859374079737 L 996.5624995841063 287.7304688638542 L 996.6640629760223 292.44140646391315 L 996.6640629760223 295.1054684158298 L 996.7656253440655 299.4062499838765 L 996.5624995841063 306.265624575899 L 996.6640629760223 310.7695308800321 L 996.6640629760223 313.7421875199652 L 996.5624995841063 317.7343754238682 L 996.7656161280465 325.82474854396423 L 996.6640629760223 331.55859353597043 L 996.5624995841063 334.3242188798031 L 996.6640629760223 339.85156300792005 L 996.6640629760223 343.84765644796425 L 996.5624995841063 359.10546841594623 L 996.5624995841063 362.07421849580714 L 996.460937216063 367.80859391990816 L 996.5624995841063 373.2343746558763 L 996.5624995841063 377.6367185919662 L 996.460937216063 384.29687500797445 L 996.3515627520974 387.98046924790833 L 996.460937216063 391.3593753600144 L 996.5624995841063 398.6289059838746 L 996.5624995841063 409.07421900780173 L 996.460937216063 413.68359423981747 L 996.460937216063 426.58593791991007 L 996.5624995841063 432.11718758381903 L 996.7656253440655 436.92968755192123 L 996.460937216063 447.06640588800656 L 996.460937216063 450.4453119998798 L 996.3515627520974 465.906249727821 L 996.460937216063 488.6406246398692 L 996.6640629760223 495.29687449580524 L 996.6640629760223 640.0898437118158 L 996.5624995841063 680.7421870079124 L 996.5624995841063 701.1210936318967 L 996.6640629760223 709.6210933758412 L 996.6640629760223 808.4374999038992 L 996.7656253440655 820.2109378559398 L 996.6640629760223 827.7890621439437 L 996.6640629760223 831.4765629439498 L 996.5624995841063 854.7187496959814 L 996.460937216063 866.2929684479022 L 996.5624995841063 872.6406246398692 L 996.5624995841063 877.5546879999456 L 996.6640629760223 882.7773439998855 L 996.5624995841063 888.0 L 996.5624995841063 890.3554682878894 L 996.460937216063 893.8359377919114 L 996.6640629760223 896.0898437119322 L 996.460937216063 902.7460935679264 L 996.5624995841063 918.1054689278244 L 996.5624995841063 924.453125119966 L 996.6640629760223 940.8398438398726 L 996.7656253440655 946.5742182398099 L 996.7656253440655 966.2343751678127 L 996.6640629760223 974.6289059838746 L 996.6640629760223 998.3867187199066 L 996.7656253440655 1002.4843745278195 L 996.7656253440655 1005.9648440318415 L 996.8671877121087 1020.4023439359735 L 996.8671877121087 1024.0" fill="none"/></svg>