<svg xmlns="http://www.w3.org/2000/svg" width="1024" height="1024"><rect stroke="none" x="0" y="0" width="1024" height="1024" fill="white"/><path stroke="#000000" stroke-width="2" d="M 1003.8030297965452 1024.0 L 1003.7499996160623 1023.8750003199093 L 1003.9375001600129 1023.0625003518653 L 1004.7500001280569 1022.8749998079729 L 1004.3125002240413 1021.2499998719431 L 1003.4375004160102 1017.3124997118721 L 1002.4999997440609 1011.6249999359716 L 1002.6875002880115 1009.7499996158876 L 1002.812499968044 1006.4999997438281 L 1006.3750000640866 1002.6250004479662 L 1012.1249996801489 996.6875002878369 L 1015.3124997120467 991.562500095868 L 1016.3125002240413 985.8125004798057 L 1022.0624998400453 975.5625000959262 L 1024.0 973.6249999359134" fill="none"/><path stroke="#000000" stroke-width="2" d="M 956.4374999040738 943.8125004798057 L 956.6250004480244 944.4374999039574 L 955.5000002560555 944.2500003839959 L 956.4374999040738 943.8125004798057" fill="none"/><path stroke="#000000" stroke-width="2" d="M 956.4999997440609 939.3124997118139 L 955.6547645440442 939.4296535038739 L 954.9956085760496 939.1961118718027 L 954.562499584048 938.4999997439445 L 956.0000000000582 938.4999997439445 L 956.4999997440609 939.3124997118139" fill="none"/><path stroke="#000000" stroke-width="2" d="M 951.1875000320142 938.3125002238085 L 952.4999997440609 939.7499996160041 L 955.0748303360888 939.5104808959295 L 955.1817093120189 939.4952212478966 L 956.3125002240995 940.5624995838152 L 958.562499584048 940.5624995838152 L 960.1249996800325 941.9999999998836 L 960.1249996800325 942.8124999679276 L 957.8750003200257 943.437500415952 L 957.1250001920853 943.1875000318978 L 956.4374999040738 943.1875000318978 L 955.6874997760169 943.0000005119364 L 953.4375004160102 942.999999487889 L 950.6875002880697 943.1875000318978 L 949.8750003200257 942.5624995838734 L 949.0625003520399 941.9999999998836 L 951.1875000320142 938.3125002238085" fill="none"/><path stroke="#000000" stroke-width="2" d="M 1024.0 948.7500001278822 L 1021.2499998721178 948.7500001278822 L 1018.0624998400453 947.6874997760169 L 1012.4374999040156 945.8750003200257 L 1009.2499998721178 945.4375004158355 L 1006.6875002880115 945.0625003518071 L 1002.812499968044 944.4374999039574 L 997.8750003200839 943.8125004798057 L 994.8124999681604 943.9999999999418 L 990.3125002240995 944.2500003839959 L 985.8125004800386 944.2500003839959 L 983.0625003520399 944.4374999039574 L 977.1250001920853 944.4374999039574 L 974.4374999040738 943.6249999359134 L 973.3124997120467 943.1875000318978 L 972.6875002880697 942.999999487889 L 972.0000000000582 942.5624995838734 L 969.9375001600129 941.9999999998836 L 965.1250001920853 941.562500095868 L 962.562499584048 941.3749995518592 L 960.9374996480183 941.1875000318978 L 960.812499968044 940.7500001278822 L 959.374999552092 939.3124997118139 L 958.6875002881279 938.6875002878369 L 956.6250004480244 937.5000002558227 L 955.3774858241086 937.0555811838713 L 952.6250004480244 936.0624998399289 L 955.8125004800968 932.5624995838152 L 956.812499968044 931.3124997118139 L 957.5625000961008 930.4999997440027 L 958.9999994880636 928.8749998079729 L 958.9999994880636 927.8750003199675 L 959.374999552092 927.2499998719431 L 959.8125004800968 926.6250004479662 L 960.4999997441191 925.8125004799222 L 961.1250001920853 922.9374996479601 L 963.823616000067 919.3932799999602 L 964.9500160000753 918.6764799999655 L 965.2331110400264 917.3081855998025 L 965.624999936088 915.562500095868 L 965.2868976640166 915.0130831358838 L 965.1548160000239 914.682879999862 L 965.1250001920853 913.6874997759587 L 965.1548160000239 912.8396799999755 L 965.1250001920853 912.6607841279474 L 965.1250001920853 912.4999997439445 L 965.0542530560633 912.224820223928 L 964.812499968044 911.2499998719431 L 964.4999997441191 910.4374999038992 L 963.0625003520399 907.7499996158294 L 961.624999936088 906.3125002238667 L 959.8919966720277 904.9443399679731 L 958.5698570240638 903.9005450239056 L 958.088192000112 903.4188799998956 L 955.3131980800536 901.5932262399001 L 954.2143436800106 900.8311173119 L 954.708992000029 900.0396799998707 L 956.6250004480244 899.1875000318396 L 959.4193920000107 897.8892799998866 L 962.0817920000409 895.9436799998512 L 964.3929835520103 894.9476167678367 L 964.6633707520668 894.8333178878529 L 965.3426042880747 894.5461893118336 L 966.3825920000672 894.1004799999646 L 970.4374999040156 889.7499996160041 L 971.8750003200839 888.750000127824 L 973.4375004160102 887.0625003518071 L 978.7500001281151 883.6249999358552 L 979.5228119040257 883.086372863967 L 980.812499968044 882.1874995200196 L 980.812499968044 879.6874997759587 L 981.6874997761333 879.6874997759587 L 983.249999872176 879.3124997119303 L 983.249999872176 877.437500415952 L 981.026816000056 877.2044799998985 L 980.8513873920892 875.8038548478507 L 980.5137920000707 873.1084799998789 L 980.6676049920497 872.2625105918851 L 980.9233920000261 870.8556799999205 L 980.0745082881185 869.327688704012 L 979.3515642880229 868.0263895040262 L 978.8753920000163 867.1692799999146 L 978.1585920000216 861.0252800000017 L 977.1250001920853 857.6249999358552 L 975.8033920000307 855.4956799999345 L 973.0385920000263 851.6044799999218 L 972.9999994881218 851.0625003519235 L 972.9361920001102 850.0684800000163 L 972.9361920001102 846.9964799999143 L 973.043416064058 845.3026252799318 L 973.3124997120467 842.2500003839377 L 973.4481920000981 840.6476799999364 L 973.4481920000981 838.7020799999591 L 974.7793920001714 834.1964799998677 L 974.990246912057 832.4630179839442 L 975.2499998721178 830.1874995199614 L 975.6874997760169 826.6875002879533 L 975.8750003201421 826.0624998398707 L 976.0624998401036 824.8124999678694 L 976.1874995200778 824.1874995200196 L 976.3750000640284 823.374999551801 L 976.812499968044 821.5625000958098 L 976.6875002880697 820.7500001279986 L 976.1874995200778 817.6874997759005 L 975.5625000960426 815.9999999998836 L 974.8749998080893 815.0000005118782 L 973.8125004800386 813.7499996159459 L 974.562499584048 813.5625000958098 L 973.5000002561137 813.1875000320142 L 970.7500001281151 808.8749998078565 L 970.7155169280595 808.8109598719166 L 970.3125002240413 808.0624998398707 L 971.0161336320452 805.7170544638648 L 971.0625003520399 805.5625000958098 L 971.374999552092 804.3750000639702 L 972.812499968044 800.6875002878951 L 973.3124997120467 796.5624995839316 L 972.9999994881218 795.5625000958098 L 969.9375001600129 784.4999997438863 L 970.1249996800325 782.437499903841 L 970.1249996800325 775.2499998718849 L 971.374999552092 767.8750003199093 L 972.0000000000582 764.437499903841 L 971.374999552092 763.812500479864 L 970.8749998080893 763.00000051182 L 970.562499584048 761.9375001599547 L 962.562499584048 756.625000447908 L 960.9374996480183 756.2500003838795 L 959.8125004800968 756.2500003838795 L 959.6874997760169 756.8124999678694 L 958.8749998080893 756.437499903841 L 957.8750003200257 756.2500003838795 L 957.8750003200257 755.6249999359716 L 957.7499996160623 754.8124999678112 L 959.374999552092 753.9999999999418 L 974.4374999040738 750.0624998398707 L 979.7499996160623 748.8749998078565 L 984.1874995200778 747.6249999360298 L 994.9999994881218 745.3749995519174 L 996.2500003840541 745.187500031956 L 1003.5000002561137 743.7499996158876 L 1011.624999936088 742.3125002239249 L 1022.0624998400453 740.2500003838795 L 1024.0 739.927083816503" fill="none"/></svg>