<svg xmlns="http://www.w3.org/2000/svg" width="1024" height="1024"><rect stroke="none" x="0" y="0" width="1024" height="1024" fill="white"/><path stroke="#000000" stroke-width="2" d="M 0.0 325.6246596809506 L 0.8533299200353213 321.6497766399407 L 1.1953121280530468 319.97265612793854 L 1.367187456053216 319.1484375039581 L 1.4702694400330074 318.69693644793006 L 1.5644467200618237 318.29332991992123 L 1.9762554880580865 316.36875263997354 L 2.46093721606303 314.25390591996256 L 2.9765621760161594 312.1015623679268 L 5.023437824042048 309.746094079921 L 8.555324416025542 306.1329817599617 L 21.76000000006752 292.83555327996146 L 24.729188352066558 289.85249177593505 L 33.79687526402995 281.07421900791815 L 36.46093721606303 278.4140625919681 L 51.20312524802284 263.66796902392525 L 54.968750080035534 259.47656294394983 L 58.39843737601768 256.02734387194505 L 70.93744128005346 243.42911487992387 L 75.06250035203993 239.29687449592166 L 91.65148160001263 222.70754815993132 L 116.84375040006125 197.8242191359168 L 128.61718732805457 186.25390591996256 L 139.16406272002496 175.19531212793663 L 149.9170816000551 164.64674815995386 L 161.28348160005407 152.9731481599738 L 164.4140625920263 149.80078079993837 L 168.59375001606531 145.60937471996294 L 176.57945395202842 137.63637043192284 L 180.87822336005047 133.34755327994935 L 189.42968729604036 124.79687475191895 L 193.1328122880659 121.12500019196887 L 212.0197099520592 102.23691980796866 L 214.86932992003858 99.41332991991658 L 217.68749977601692 96.5976565759629 L 222.0390625280561 92.25390591996256 L 229.99218790401937 84.36718796793139 L 239.82971699204063 74.52931276796153 L 242.9298513920512 71.4418841599254 L 247.50781235203613 66.95703142392449 L 256.31068160006544 58.150748159969226 L 279.24999987205956 35.41796863992931 L 299.1171870720573 15.757812735973857 L 310.5034895360586 4.513560575956944 L 315.07665140359313 0.0" fill="none"/></svg>