<svg xmlns="http://www.w3.org/2000/svg" width="1024" height="1024"><rect stroke="none" x="0" y="0" width="1024" height="1024" fill="white"/><path stroke="#408040" stroke-width="3" d="M 253.41127582165063 1024.0 L 249.56927999999607 1016.750079999998 L 240.15872000000672 1009.5206400000025 L 230.35903999999573 1006.2131200000003 L 222.72000000000116 1002.6803199999995 L 219.5353599999944 995.7273599999971 L 212.66431999999622 980.5823999999993 L 208.50688000000082 973.2915199999989 L 206.520319999996 969.6665599999978 L 205.9366399999999 965.642240000001 L 206.53055999999924 956.9279999999999 L 204.49280000000726 949.9852800000008 L 200.3353599999973 942.3155199999965 L 195.5225599999976 935.905279999999 L 191.37536000000546 926.8531199999998 L 185.02655999999843 922.1939199999979 L 168.47871999999916 913.8073599999989 L 162.28351999999722 912.3020800000013 L 154.2348800000036 914.1145600000018 L 141.97759999999835 911.5443200000009 L 132.1472000000067 910.3769600000014 L 118.91711999999825 906.1888000000035 L 98.94912000000477 906.1580800000011 L 94.41280000000552 905.2057599999971 L 93.00991999999678 902.4204800000007 L 97.83295999999973 894.4230400000015 L 100.43391999999585 880.9779199999975 L 104.857600000003 872.8883199999982 L 105.96352000000479 869.9289599999975 L 104.9395199999999 866.49856 L 104.7039999999979 863.1603200000027 L 105.74847999999474 858.7059200000003 L 106.85439999999653 852.1728000000003 L 103.21920000000682 841.4617599999983 L 100.4646400000056 835.5225599999976 L 100.56703999999445 831.9385600000023 L 103.59807999999612 822.886400000003 L 103.85408000000461 815.6774399999995 L 101.0790399999969 808.867839999999 L 95.18080000000191 797.7779200000004 L 88.10495999999694 788.8486399999965 L 85.86239999999816 777.9225599999991 L 83.88607999999658 764.3238399999973 L 83.07712000000174 755.6915200000003 L 78.97087999999349 744.796159999998 L 75.67359999999462 738.0480000000025 L 75.84768000000622 733.7164800000028 L 78.23360000000685 727.2345599999971 L 78.58176000000094 723.8963199999998 L 77.0457599999936 721.6025599999994 L 71.66976000000432 718.3257599999997 L 66.03776000000653 715.0387199999968 L 53.493759999997565 706.7955199999997 L 46.35648000000219 702.1260800000018 L 36.6284799999994 698.0198400000008 L 27.56608000000415 694.3539200000014 L 23.449600000007194 692.4800000000032 L 21.309439999997267 689.4694400000008 L 21.83168000000296 681.349119999999 L 22.241280000002007 674.4576000000015 L 17.653760000001057 668.9894399999976 L 11.233280000000377 662.7737599999964 L 7.014400000000023 656.9369599999991 L 5.416960000002291 648.8780800000022 L 6.328320000000531 641.5769599999985 L 5.693440000002738 635.0745600000009 L 3.461120000007213 629.114880000001 L 0.0 623.9383360932989" fill="none"/></svg>