<svg xmlns="http://www.w3.org/2000/svg" width="1024" height="1024"><rect stroke="none" x="0" y="0" width="1024" height="1024" fill="white"/><path stroke="#408040" stroke-width="3" d="M 0.0 787.5702153846141 L 0.337920000005397 787.4662400000016 L 1.9046399999933783 786.4934399999984 L 4.218880000000354 783.5443200000009 L 5.816319999998086 781.9468800000031 L 7.628800000005867 780.728320000002 L 14.458880000005593 777.8816000000006 L 20.008960000006482 775.1577600000019 L 21.217279999997118 774.9119999999966 L 23.183359999995446 774.9836799999975 L 27.135999999998603 776.2943999999989 L 32.1536000000051 778.47552 L 37.31455999999889 782.0902399999977 L 40.724480000004405 784.4044799999974 L 43.86815999999817 785.244160000002 L 60.50815999999759 785.6435199999978 L 61.90080000000307 785.7459200000012 L 62.01343999999517 789.8623999999982 L 61.95200000000477 802.2937600000005 L 61.90080000000307 812.6463999999978 L 61.798399999999674 845.7011199999979 L 61.798399999999674 853.0227200000008 L 61.88031999999657 854.0160000000033 L 62.627840000001015 855.1116800000018 L 64.5222400000057 856.0435199999993 L 67.91168000000471 856.1868800000011 L 77.9059200000047 856.2073600000003 L 80.99839999999676 856.3404799999989 L 81.9609599999967 856.6476800000019 L 83.19999999999709 857.5283199999976 L 85.20703999999387 859.3612799999974 L 87.0911999999953 859.9347199999975 L 99.20511999999871 859.9859199999992 L 117.47328000000562 859.9859199999992 L 124.37503999999899 859.1872000000003 L 127.4163200000039 858.8492800000022 L 133.1302399999986 858.8390399999989 L 149.9852799999935 858.8185599999997 L 150.01600000000326 873.0624000000025 L 149.9852799999935 913.7459200000012 L 149.96480000000156 921.1699200000003 L 149.94431999999506 926.5971199999985 L 149.47328000000562 928.1024000000034 L 148.47999999999593 929.1673599999995 L 147.3843199999974 929.8329599999997 L 142.0697599999985 931.2870400000029 L 141.0969599999953 931.6966400000019 L 140.18559999999707 932.4748800000016 L 139.70432000000437 933.8572799999965 L 140.31871999999566 935.1987200000003 L 140.7795199999964 935.7209599999987 L 140.55423999999766 935.8438400000014 L 140.36991999999736 936.0179199999984 L 140.20608000000357 936.3660799999998 L 139.93984000000637 937.7177599999995 L 138.72127999999793 939.1513600000035 L 137.287679999994 940.5542399999977 L 133.67295999999624 944.127999999997 L 128.9523199999967 948.6745599999995 L 125.16352000000188 951.4291200000007 L 117.52447999999276 956.846080000003 L 97.95583999999508 970.7622399999964 L 74.18880000000354 987.658239999997 L 63.28320000000531 995.5123200000016 L 58.859519999998156 999.7004799999995 L 54.9273600000015 1004.3187200000029 L 46.79679999999644 1013.6985599999971 L 44.97407999999996 1014.9785600000032 L 42.608640000005835 1016.0127999999968 L 38.03135999999358 1016.9548799999975 L 31.354879999998957 1018.1324800000002 L 29.19423999999708 1018.9619200000016 L 27.44319999999425 1020.1088000000018 L 26.101760000005015 1021.6550399999978 L 25.50784000000567 1023.0783999999985 L 25.46315636363579 1024.0" fill="none"/><path stroke="#408040" stroke-width="3" d="M 1024.0 936.8723176522399 L 1012.224000000002 936.7859200000021 L 1001.4208000000071 936.632319999997 L 971.366399999999 935.9667199999967 L 946.636799999993 935.4342400000023 L 927.6416000000027 935.3011199999964 L 912.6912000000011 934.9631999999983 L 902.6150400000042 934.1440000000002 L 883.1795200000051 932.4032000000007 L 834.0479999999952 927.9897599999967 L 793.7331200000044 924.3852800000022 L 782.8684800000046 923.4022400000031 L 776.6732800000027 922.8902400000006 L 766.3411199999973 921.7126399999979 L 753.3977600000071 920.094720000001 L 743.9974400000065 918.9273600000015 L 739.0412800000049 918.732799999998 L 734.4025600000023 918.9887999999992 L 724.8076799999981 919.5929600000018 L 714.3935999999958 920.4121599999999 L 709.2019200000068 920.8115200000029 L 703.764479999998 920.8320000000022 L 699.238400000002 920.1664000000019 L 695.0195200000016 919.1526400000002 L 690.4627199999959 918.0979200000002 L 688.2201599999971 917.7497599999988 L 681.1647999999986 917.5040000000008 L 672.4812800000072 917.4937599999976 L 665.6204799999978 917.3708800000022 L 655.9539199999999 917.350400000003 L 633.0982400000066 917.350400000003 L 609.7715199999948 917.3401599999997 L 547.9526400000032 917.360639999999 L 487.89504000000306 917.4015999999974 L 395.2537600000069 917.5347200000033 L 211.2716800000053 917.9955199999968 L 182.6918399999995 918.0979200000002 L 178.30912000000535 918.1388799999986 L 176.02559999999357 918.4563199999975 L 170.70080000000598 919.7568000000028 L 168.86784000000625 920.4940799999968 L 167.32159999999567 921.4976000000024 L 163.5737599999993 924.1600000000035 L 157.58336000000418 928.3993600000031 L 154.64448000000266 930.4883199999967 L 151.7260799999931 932.270080000002 L 144.16895999999542 935.5775999999969 L 140.47232000000076 937.7382399999988 L 137.6563199999946 940.1958400000003 L 129.2595200000069 948.4185599999983 L 121.89695999999822 953.7433600000004 L 103.52640000000247 966.7993599999973 L 82.23743999999715 981.9340799999991 L 68.4441599999991 991.754240000002 L 63.6108799999929 995.2563200000004 L 59.473920000004 999.0246400000033 L 50.62656000000425 1009.3670399999974 L 47.114239999995334 1013.4220799999966 L 45.4655999999959 1014.6816000000035 L 43.19232000000193 1015.7977600000013 L 38.737919999999576 1016.8422399999981 L 31.95904000000155 1017.9891199999984 L 29.736959999994724 1018.7059200000003 L 27.863039999996545 1019.7811199999996 L 26.34751999999571 1021.2966400000005 L 25.58976000000257 1022.7916800000021 L 25.424236712322454 1024.0" fill="none"/></svg>