<svg xmlns="http://www.w3.org/2000/svg" width="1024" height="1024"><rect stroke="none" x="0" y="0" width="1024" height="1024" fill="white"/><path stroke="#408040" stroke-width="3" d="M 382.9796247787599 1024.0 L 392.7244800000044 1017.6102400000018 L 407.4803200000024 1013.1456000000035 L 433.1622400000051 1005.2403199999972 L 444.75392000000284 1000.4684800000032 L 456.58112000000256 1000.376320000003 L 478.5766399999993 992.5222399999984 L 499.34335999999894 984.0844799999977 L 535.3062400000053 977.7049600000028 L 563.1487999999954 969.277439999998 L 604.9689599999983 950.9171199999982 L 640.5222400000057 931.624960000001 L 670.6380800000043 915.3638399999982 L 688.9369600000064 907.130879999997 L 704.5939199999993 900.0448000000033 L 710.9939199999935 893.7779200000004 L 717.3529600000038 889.5180800000016 L 738.0070399999968 882.7289600000004 L 761.7331200000044 869.3452800000014 L 773.8572799999965 861.6345599999986 L 789.0432000000001 857.5487999999968 L 797.7779199999932 855.0912000000026 L 803.6044799999945 848.9676800000016 L 813.0150399999984 839.9667199999967 L 832.2867200000037 825.9072000000015 L 841.2262400000036 817.0495999999985 L 848.4044799999974 806.4921600000016 L 860.3647999999957 797.2044800000003 L 876.0524799999985 780.8716799999966 L 883.7939199999964 771.1334399999978 L 889.9379199999967 764.9587200000024 L 897.2287999999971 761.149440000001 L 911.5647999999928 749.3631999999998 L 917.7599999999948 732.4569600000032 L 920.8934399999998 720.52736 L 931.5225599999976 716.1241599999994 L 940.738559999998 713.7382399999988 L 947.1487999999954 714.3731199999966 L 954.7571199999948 711.9974399999992 L 965.4169600000023 704.2047999999995 L 977.3977600000071 700.4774400000024 L 988.0985599999985 697.1801600000035 L 997.5295999999944 691.2511999999988 L 1004.8819199999998 681.8201600000029 L 1010.4627199999959 676.9663999999975 L 1020.5184000000008 676.2598399999988 L 1024.0 675.1090707692274" fill="none"/></svg>