<svg xmlns="http://www.w3.org/2000/svg" width="1024" height="1024"><rect stroke="none" x="0" y="0" width="1024" height="1024" fill="white"/><path stroke="#000000" stroke-width="2" d="M 1024.0 56.19865818094695 L 1023.5937495040125 56.207031295925844 L 1009.5625000960426 56.10156236792682 L 1005.6718745600083 56.10156236792682 L 998.0937502720626 55.99999999994179 L 900.6093752320157 55.99999999994179 L 895.4921871360275 56.10156236792682 L 871.1171870720573 56.10156236792682 L 858.8359372800332 55.99999999994179 L 850.6406246400438 55.99999999994179 L 825.9609374720603 56.10156236792682 L 800.3593748480198 56.10156236792682 L 773.023437824042 56.20312473597005 L 766.3671879680478 56.207031295925844 L 733.0859376640292 56.20312473597005 L 719.6718745600083 56.20312473597005 L 709.5312496640254 56.207031295925844 L 703.898437632015 56.20312473597005 L 695.0937497600098 56.207031295925844 L 689.5625000960426 56.20312473597005 L 684.4453120000544 56.207031295925844 L 679.9375001600129 56.207031295925844 L 675.6406251520384 56.20312473597005 L 661.6093747200212 56.207031295925844 L 647.1718748160638 56.207031295925844 L 639.4921871360275 56.51171839993913 L 625.0546872320119 56.30859366396908 L 603.445312512049 56.10156236792682 L 596.0703129600151 56.10156236792682 L 580.0000000000582 55.99999999994179 L 568.2187499520369 55.99999999994179 L 546.921875456057 56.10156236792682 L 532.6875002880115 56.20312473597005 L 526.6484377600136 56.30859366396908 L 518.2500003840541 56.4101560319541 L 511.4921871360275 56.10156236792682 L 484.0468746240367 56.10156236792682 L 475.74999961606227 55.99999999994179 L 469.9140628480236 55.99999999994179 L 451.8906245120452 56.20312473597005 L 444.62500044802437 56.10156236792682 L 433.05468723201193 55.99999999994179 L 383.79687526402995 55.99999999994179 L 357.2734371840488 56.10156236792682 L 316.3203123200219 56.10156236792682 L 262.14843699202174 56.207031295925844 L 255.4921871360275 55.99999999994179 L 220.57031270401785 56.10156236792682 L 161.69531289604492 56.10156236792682 L 158.61718732805457 56.207031295925844 L 152.17187532805838 55.99999999994179 L 149.9140628480236 56.10156236792682 L 128.92187545605702 56.10156236792682 L 112.9531248640269 56.20312473597005 L 108.5468753920286 56.10156236792682 L 104.4531251200242 56.10156236792682 L 100.96875008003553 56.207031295925844 L 94.51562496001134 55.99999999994179 L 29.695312896044925 55.99999999994179 L 18.640624640043825 56.10156236792682 L 0.0 56.10156236792682" fill="none"/><path stroke="#000000" stroke-width="2" d="M 0.0 56.10156236792682 L 18.640624640102033 56.10156236792682 L 29.695312896103133 55.999999999883585 L 94.51562496006954 55.999999999883585 L 100.96875008003553 56.20703129580943 L 104.4531251200242 56.10156236792682 L 108.5468753920286 56.10156236792682 L 112.95312486408511 56.20312473597005 L 128.92187545611523 56.10156236792682 L 149.9140628480818 56.10156236792682 L 152.17187532805838 55.999999999883585 L 158.61718732811278 56.20703129580943 L 161.69531289604492 56.10156236792682 L 220.57031270407606 56.10156236792682 L 255.4921871360275 55.999999999883585 L 262.14843699207995 56.20703129580943 L 316.3203123200219 56.10156236792682 L 357.2734371840488 56.10156236792682 L 383.79687526402995 55.999999999883585 L 433.05468723201193 55.999999999883585 L 444.62500044802437 56.10156236792682 L 451.8906245121034 56.20312473597005 L 469.9140628480236 55.999999999883585 L 475.74999961606227 55.999999999883585 L 484.0468746240367 56.10156236792682 L 511.4921871360857 56.10156236792682 L 518.2500003840541 56.410156031895895 L 526.6484377600136 56.30859366385266 L 532.6875002880115 56.20312473597005 L 546.921875456057 56.10156236792682 L 568.2187499520369 55.999999999883585 L 580.0000000001164 55.999999999883585 L 596.0703129600734 56.10156236792682 L 603.4453125121072 56.10156236792682 L 625.0546872320119 56.30859366385266 L 639.4921871360275 56.51171839993913 L 647.171874816122 56.20703129580943 L 661.6093747200212 56.20703129580943 L 675.6406251520384 56.20312473597005 L 679.9375001600129 56.20703129580943 L 684.4453120001126 56.20703129580943 L 689.5625000960426 56.20312473597005 L 695.093749760068 56.20703129580943 L 703.898437632015 56.20312473597005 L 709.5312496640836 56.20703129580943 L 719.6718745600083 56.20312473597005 L 733.0859376640292 56.20312473597005 L 766.3671879680478 56.20703129580943 L 773.023437824042 56.20312473597005 L 800.359374848078 56.10156236792682 L 825.9609374720603 56.10156236792682 L 850.6406246400438 55.999999999883585 L 858.8359372800332 55.999999999883585 L 871.1171870721155 56.10156236792682 L 895.4921871360857 56.10156236792682 L 900.6093752320157 55.999999999883585 L 998.0937502720626 55.999999999883585 L 1005.6718745600665 56.10156236792682 L 1009.5625000960426 56.10156236792682 L 1023.5937495040125 56.20703129580943 L 1024.0 56.19865818083781" fill="none"/></svg>