<svg xmlns="http://www.w3.org/2000/svg" width="1024" height="1024"><rect stroke="none" x="0" y="0" width="1024" height="1024" fill="white"/><path stroke="#000000" stroke-width="2" d="M 0.0 819.5458839893487 L 3.6468750336091036 819.5664062463911 L 7.782812467205804 819.5664062463911 L 11.592380825604778 819.5664062463911 L 24.064062464004383 819.5664062463911 L 25.4984374272055 819.5453124607914 L 26.82968739840435 819.5453124607914 L 28.26249994240934 819.5867187199881 L 29.6359374848078 819.6070311935852 L 33.62812497920822 819.4023438335862 L 34.918750003201424 819.3406251007924 L 38.9734375424101 819.3406251007924 L 41.390624972805384 819.3203124223859 L 45.28125009920914 819.2382812159834 L 46.715625062410254 819.2382812159834 L 49.479687577602455 819.1976562687894 L 51.098437427205496 819.1976562687894 L 53.94531246080296 819.1562500095927 L 57.34531256320188 819.1156250623869 L 60.68281241600634 819.0749999103834 L 61.317187584005296 819.0539063295931 L 62.34218741761288 818.9718749183928 L 65.61875005441252 819.0132811775896 L 66.35625000960427 819.0132811775896 L 68.7312500736094 818.9718749183928 L 76.6984374272055 818.9109374975902 L 77.33281259520444 818.9109374975902 L 81.96093747200212 818.8906250239932 L 93.47187507200287 818.8906250239932 L 96.72812503040768 818.8695312383934 L 101.54062499840511 818.8289062911878 L 102.95312506880146 818.8289062911878 L 109.01562490881187 818.8906250239932 L 114.27968757760246 818.8906250239932 L 118.76406251520385 818.9109374975902 L 124.86718750720611 818.8906250239932 L 134.41093754881294 818.8906250239932 L 135.78281246720582 818.8492187647847 L 140.3906250752043 818.8695312383934 L 144.26249994240933 818.8492187647847 L 147.23125002240994 818.8492187647847 L 153.4984374272055 818.8492187647847 L 154.89062502400483 818.8695312383934 L 161.48593745920806 818.8695312383934 L 165.64218757121125 818.8492187647847 L 167.62968739840434 818.8492187647847 L 169.2890624000109 818.8289062911878 L 171.5625000960077 818.8695312383934 L 179.2218750976026 818.8695312383934 L 183.37812500480794 818.8906250239932 L 187.16718755840557 818.8695312383934 L 190.42343751681037 818.8695312383934 L 191.14062499840512 818.9109374975902 L 193.8640625664033 818.9109374975902 L 194.43749990400391 818.8906250239932 L 196.58749992960367 818.8906250239932 L 200.0078125056112 818.8085938175907 L 201.07343749121065 818.8695312383934 L 202.58906255360927 818.8492187647847 L 204.6984374272055 818.8289062911878 L 206.23437496321276 818.8289062911878 L 207.2781250560074 818.8492187647847 L 210.5343750144122 818.8695312383934 L 222.3515625472064 818.8695312383934 L 223.9906250752043 818.9109374975902 L 225.93593753600726 818.8492187647847 L 243.4046875648084 818.8492187647847 L 249.2218750976026 818.8289062911878 L 253.2765624320018 818.7882813439937 L 255.8984374272055 818.7882813439937 L 259.2578125824104 818.8492187647847 L 264.1515624448075 818.8492187647847 L 268.759375052806 818.8289062911878 L 276.4187500544125 818.8289062911878 L 277.27968747520356 818.8492187647847 L 281.4984374272055 818.8906250239932 L 282.7890624512103 818.8492187647847 L 291.5125000192085 818.8492187647847 L 291.9843749888125 818.9929687039927 L 295.56874997760167 818.8695312383934 L 297.2468750336091 818.8906250239932 L 299.0906249216059 818.8906250239932 L 300.0124999680091 818.9109374975902 L 301.87656253441236 818.8906250239932 L 307.0984374272055 818.8492187647847 L 307.87656253441236 818.8289062911878 L 309.924999987206 818.8085938175907 L 313.4468749312102 818.8085938175907 L 314.90156257280614 818.8289062911878 L 317.9328124928055 818.8289062911878 L 321.82343741441144 818.7882813439937 L 323.19531253760215 818.7882813439937 L 324.7109376000124 818.8085938175907 L 326.5546874880092 818.7468750847853 L 328.2953125888016 818.6851563519915 L 331.306250035204 818.644531199988 L 332.6984374272055 818.7265624063905 L 335.03281254400497 818.8289062911878 L 343.26562508801 818.8289062911878 L 345.0062499840045 818.8085938175907 L 348.73437491200167 818.8085938175907 L 350.8437499904074 818.7882813439937 L 352.8921874432126 818.7882813439937 L 354.69374996480764 818.767187558394 L 358.4625000448083 818.7882813439937 L 359.20000000001164 818.767187558394 L 360.0796874752035 818.7468750847853 L 361.20625008640343 818.7882813439937 L 362.5171875840053 818.7468750847853 L 364.6671874048072 818.7882813439937 L 366.45000007681085 818.7468750847853 L 368.49687490561047 818.7468750847853 L 370.4015624192078 818.767187558394 L 372.79843758080386 818.767187558394 L 374.29374996480766 818.7468750847853 L 375.7468749824096 818.767187558394 L 376.46406246400437 818.767187558394 L 378.24531251200244 818.7468750847853 L 380.192187596811 818.7265624063905 L 381.5437500416068 818.7468750847853 L 382.9765625856118 818.7468750847853 L 383.8984374272055 818.767187558394 L 386.0484374528052 818.7265624063905 L 393.81093744640236 818.7265624063905 L 397.579687526403 818.7062499327934 L 400.5484374016058 818.7265624063905 L 401.40937502720624 818.7265624063905 L 409.43750000640284 818.6851563519915 L 413.26718750720613 818.767187558394 L 416.6250000384054 818.7468750847853 L 417.46562498561104 818.767187558394 L 418.7968749568099 818.767187558394 L 421.1312500736094 818.7468750847853 L 425.04218746881236 818.7468750847853 L 428.91406254080357 818.7265624063905 L 432.8453124096035 818.7468750847853 L 435.0984374272055 818.7265624063905 L 436.8796874752035 818.767187558394 L 438.0671875072061 818.767187558394 L 440.46406246400437 818.7265624063905 L 461.3124999168096 818.7265624063905 L 462.378124902409 818.7468750847853 L 469.91406243840464 818.7468750847853 L 472.59687505920886 818.7265624063905 L 479.2734375936096 818.7265624063905 L 480.5640624128049 818.9109374975902 L 481.3421875200118 818.7265624063905 L 486.2984374272055 818.7265624063905 L 487.2406249472057 818.603906252794 L 490.10781245441177 818.6851563519915 L 491.86875002881277 818.7062499327934 L 495.2687499264022 818.7265624063905 L 496.5171875840053 818.7265624063905 L 498.6687500288128 818.7468750847853 L 500.3687499776017 818.7468750847853 L 503.1734374400112 818.7468750847853 L 506.287500083202 818.7265624063905 L 511.6531249152031 818.7265624063905 L 514.7249999872059 818.7062499327934 L 516.485937561607 818.7265624063905 L 517.4281250816072 818.7265624063905 L 518.1859375104075 818.7062499327934 L 520.1312499712105 818.7062499327934 L 526.2343749632128 818.7468750847853 L 530.084374937613 818.7265624063905 L 537.4375000064028 818.7265624063905 L 539.832812544005 818.7468750847853 L 554.5375000576023 818.7468750847853 L 555.4796875776025 818.7265624063905 L 557.5078125568107 818.7265624063905 L 558.6546874368098 818.7468750847853 L 559.5546875904081 818.7062499327934 L 565.2078125056112 818.7062499327934 L 566.8249999360065 818.7265624063905 L 568.4234375168104 818.7265624063905 L 570.9421875200118 818.7062499327934 L 571.5765624832129 818.7062499327934 L 574.218749952002 818.7265624063905 L 579.4406250496046 818.7265624063905 L 580.814062592003 818.7062499327934 L 588.084374937613 818.7062499327934 L 588.759375052806 818.7265624063905 L 590.0093749248074 818.7265624063905 L 592.4468750336091 818.7062499327934 L 598.9593749504071 818.7062499327934 L 600.084374937613 818.7265624063905 L 602.1953124352033 818.7265624063905 L 602.9937500160071 818.7062499327934 L 603.832812544005 818.603906252794 L 603.8734374912107 819.1976562687894 L 603.853125017602 820.8562499583932 L 603.853125017602 830.4414062591852 L 603.832812544005 831.1984375807922 L 603.853125017602 832.8578125823872 L 603.853125017602 833.5132813311881 L 603.832812544005 834.4554688511882 L 603.832812544005 834.987499929592 L 603.853125017602 835.5203125247848 L 603.853125017602 840.3945312255877 L 603.8734374912107 841.1929688063916 L 603.8734374912107 845.4734374911874 L 603.853125017602 846.3742187519907 L 603.8734374912107 848.135937433585 L 603.853125017602 849.4671874047839 L 603.853125017602 854.443749990384 L 603.832812544005 855.4679687167867 L 603.832812544005 858.3960938495933 L 603.853125017602 860.1984374783933 L 603.853125017602 861.4679687167867 L 603.8734374912107 863.1882813439937 L 603.8734374912107 868.6773438463919 L 603.8937499648076 869.189062451187 L 603.8937499648076 870.4382812159835 L 603.8937499648076 870.4384862207924 L 603.8937499648076 872.4867186687886 L 603.8734374912107 876.6640625663916 L 603.8734374912107 879.3679687679862 L 603.8937499648076 881.1492188159842 L 603.8734374912107 883.3617186815943 L 603.8937499648076 884.1187500031898 L 603.8734374912107 886.3718750207918 L 603.8734374912107 893.0078124031891 L 603.853125017602 895.2804687871946 L 603.853125017602 895.915625062387 L 603.8734374912107 897.1445311487885 L 603.8734374912107 901.1171874815948 L 603.853125017602 904.803906150395 L 603.853125017602 907.0773438463918 L 603.8734374912107 907.8554687487892 L 603.853125017602 908.5312499711872 L 603.853125017602 910.0265625599889 L 603.8734374912107 911.1117187071941 L 603.853125017602 913.0570311679854 L 603.832812544005 913.8968750079861 L 603.853125017602 914.6343749631894 L 603.832812544005 915.8835937279858 L 603.853125017602 916.7640625151922 L 603.853125017602 917.4812499967869 L 603.832812544005 921.5976562687895 L 603.8937499648076 924.0343750655884 L 603.8937499648076 924.7101562879864 L 603.8734374912107 925.7960937471944 L 603.853125017602 928.6632812543888 L 603.853125017602 933.8851563519914 L 603.853125017602 933.8855124991853 L 603.853125017602 938.370312601584 L 603.792187596811 942.8351561727934 L 603.832812544005 943.4289061887888 L 603.832812544005 947.1976562687894 L 603.792187596811 950.2492186623858 L 603.853125017602 952.4812500991859 L 603.8937499648076 954.6929686527932 L 603.8734374912107 957.970312601584 L 603.853125017602 962.4554688511882 L 603.853125017602 962.9257811967866 L 603.832812544005 966.387500031991 L 603.832812544005 969.4390624255873 L 603.812500070408 970.8515624959837 L 603.812500070408 974.313281331188 L 603.7718749184045 975.807812403189 L 603.7718749184045 977.2210937855882 L 603.832812544005 977.9585937407916 L 603.792187596811 979.3507813375909 L 603.7718749184045 979.9453124607913 L 603.812500070408 980.3953125375905 L 603.7718749184045 981.2148436991847 L 603.7718749184045 981.9312500735862 L 603.7515624448075 982.7304687615949 L 603.792187596811 984.7578124287887 L 603.7718749184045 986.0273436671938 L 603.812500070408 987.3585938431904 L 603.7718749184045 990.6765625343891 L 603.7718749184045 991.352343756787 L 603.792187596811 992.0281249791849 L 603.7718749184045 993.5031250943896 L 603.7718749184045 996.4726562815835 L 603.792187596811 998.3976562687894 L 603.792187596811 1001.0187499519903 L 603.7718749184045 1005.8726561791846 L 603.792187596811 1009.6414062591851 L 603.792187596811 1020.9664063487901 L 603.812500070408 1023.3624999935855 L 603.7933382446296 1024.0" fill="none"/><path stroke="#000000" stroke-width="2" d="M 640.1640624128049 1023.3624999935855 L 642.0078125056112 1023.3828124671942 L 644.0562499584048 1023.3828124671942 L 647.0046875648084 1023.424218726391 L 648.7656249344116 1023.403906252794 L 650.690624921606 1023.403906252794 L 652.739062579209 1023.424218726391 L 654.0703125504078 1023.424218726391 L 659.0671874048072 1023.403906252794 L 661.6484374528052 1023.403906252794 L 665.7031249920022 1023.424218726391 L 666.4000000000117 1023.424218726391 L 673.0546874368098 1023.403906252794 L 680.8171874304069 1023.403906252794 L 683.5203125248081 1023.424218726391 L 688.3125000192085 1023.424218726391 L 690.9749999616063 1023.444531199988 L 705.1062499328051 1023.444531199988 L 708.1375000576023 1023.4648436735849 L 710.5749999616062 1023.4648436735849 L 712.1515624448075 1023.444531199988 L 715.7765625856118 1023.4648436735849 L 716.7187499008025 1023.4648436735849 L 718.1312499712105 1023.4851563519915 L 722.2687500288127 1023.4851563519915 L 722.8421875712113 1023.4648436735849 L 723.6609374208026 1023.4648436735849 L 726.3031250944128 1023.4851563519915 L 729.1296874496038 1023.4851563519915 L 730.1328125952044 1023.5062499327935 L 731.1156250624102 1023.5062499327935 L 732.8156250112108 1023.4851563519915 L 733.6359374848078 1023.4851563519915 L 734.9874999296037 1023.5265624063904 L 737.4031249408029 1023.5062499327935 L 740.8640624640044 1023.5062499327935 L 742.359375052806 1023.4851563519915 L 748.2781249536085 1023.4851563519915 L 748.9749999616063 1023.4648436735849 L 749.8546874368097 1023.444531199988 L 752.8453124096035 1023.444531199988 L 755.1390625792089 1023.4648436735849 L 758.9890625536093 1023.4851563519915 L 760.50468741121 1023.4851563519915 L 764.4984375296044 1023.4648436735849 L 766.5265625088126 1023.4648436735849 L 767.1609374720022 1023.4851563519915 L 791.3890625536093 1023.4851563519915 L 792.4328124416061 1023.5062499327935 L 795.4031249408029 1023.5062499327935 L 796.2421874688123 1023.5265624063904 L 799.1515625472064 1023.5062499327935 L 800.1546874880092 1023.5062499327935 L 801.9765624832129 1023.5265624063904 L 803.0218749952037 1023.5265624063904 L 804.0656250880099 1023.5062499327935 L 804.6593748992076 1023.5265624063904 L 809.2265625600121 1023.5265624063904 L 813.5281250304076 1023.5468750847853 L 815.392187596811 1023.5265624063904 L 818.4218750976027 1023.5265624063904 L 819.179687526403 1023.5468750847853 L 830.0546875392087 1023.5468750847853 L 832.0218750976026 1023.5671875583939 L 836.178125004808 1023.5468750847853 L 840.9296875520027 1023.5468750847853 L 842.5281249280088 1023.5671875583939 L 845.7421875200118 1023.5671875583939 L 847.9953125376021 1023.5468750847853 L 860.8578125824104 1023.5468750847853 L 862.3937499136082 1023.5265624063904 L 868.598437478405 1023.5265624063904 L 870.1546874880092 1023.5671875583939 L 872.2234374144115 1023.5468750847853 L 872.6937499648077 1023.7312499711873 L 873.8203125760076 1023.5265624063904 L 874.0568913920084 1023.540354047995 L 874.5171875840053 1023.5671875583939 L 880.8046874624094 1023.5671875583939 L 884.0406249472056 1023.5468750847853 L 884.9421875200118 1023.5671875583939 L 886.8046874624094 1023.5671875583939 L 887.9937499136082 1023.5882813439937 L 888.792187494412 1023.5671875583939 L 889.4671874048072 1023.5882813439937 L 891.8640625664033 1023.6085938175908 L 895.7140625408035 1023.6085938175908 L 899.3593749504071 1023.6289062911877 L 899.9531249664026 1023.6085938175908 L 901.0187499520019 1023.6085938175908 L 901.9609374720021 1023.5882813439937 L 903.4140624896041 1023.5882813439937 L 905.8718750720029 1023.6085938175908 L 907.8375000064028 1023.6085938175908 L 908.8625000448083 1023.6289062911877 L 910.8484374528052 1023.6085938175908 L 911.4218749952037 1023.6085938175908 L 912.8359374848078 1023.6289062911877 L 921.5187499008025 1023.6289062911877 L 922.5015625728062 1023.6492187647848 L 924.2218749952037 1023.6289062911877 L 925.3078124544118 1023.6492187647848 L 927.9906250752043 1023.6492187647848 L 931.7171875840053 1023.6289062911877 L 934.379687526403 1023.6289062911877 L 935.8343749632128 1023.6492187647848 L 939.5203125248081 1023.6492187647848 L 941.5687499776017 1023.6289062911877 L 944.1078124544117 1023.6289062911877 L 945.0093750272063 1023.6492187647848 L 956.7437500416069 1023.6492187647848 L 958.0750000128057 1023.6695312383933 L 959.1812499456107 1023.6492187647848 L 960.9421875200118 1023.6695312383933 L 962.8062500864035 1023.6492187647848 L 968.8687499264022 1023.6492187647848 L 972.084374937613 1023.6695312383933 L 975.2999999488122 1023.6695312383933 L 976.7734374400112 1023.6492187647848 L 977.9828125696047 1023.6695312383933 L 984.3312500736095 1023.6695312383933 L 985.2734375936095 1023.6906250239932 L 985.9890624512103 1023.6906250239932 L 987.1156250624102 1023.6695312383933 L 987.5468750848086 1023.935937535984 L 988.2421874688123 1023.6695312383933 L 994.1203124224091 1023.6695312383933 L 995.9218749440042 1023.6492187647848 L 996.5375000576023 1023.6492187647848 L 997.1515625472064 1023.6695312383933 L 1004.5250000896049 1023.6695312383933 L 1006.2031249408028 1023.6492187647848 L 1006.8171874304069 1023.6695312383933 L 1007.7390624768101 1023.6695312383933 L 1008.6406250496045 1023.6906250239932 L 1010.7093749760068 1023.6492187647848 L 1023.9187499008025 1023.6492187647848 L 1024.0 1023.65112925992" fill="none"/><path stroke="#000000" stroke-width="2" d="M 603.7933382446296 1024.0 L 603.812500070408 1023.3624999935855 L 611.5546875904081 1023.3624999935855 L 614.2984374272055 1023.3828124671942 L 630.7843749888125 1023.3828124671942 L 631.4609375232016 1023.3624999935855 L 634.0203124736087 1023.3624999935855 L 638.3625000960077 1023.3421875199886 L 640.1640624128049 1023.3624999935855" fill="none"/><path stroke="#000000" stroke-width="2" d="M 196.62607173940052 0.0 L 196.6296875008149 0.20234383357455954 L 194.66249994240934 0.4890623999875743 L 194.04843745280522 0.5093750783823907 L 192.98437509122306 0.611718758393522 L 192.61562490881187 0.52968755199106 L 189.78906255360926 0.4890623999875743 L 183.09218754561152 0.4890623999875743 L 179.79531243520324 0.4273436671937816 L 175.71875000320142 0.4273436671937816 L 173.22031247360866 0.4070311935851123 L 169.5750000640168 0.4273436671937816 L 169.1249999872176 0.4273436671937816 L 165.8265624576132 0.4070311935851123 L 165.21249996802072 0.4070311935851123 L 158.08593756160698 0.386718719976443 L 153.53906257920897 0.386718719976443 L 150.9171875840053 0.4070311935851123 L 144.1999998976127 0.386718719976443 L 129.76249999362045 0.386718719976443 L 127.89843742721715 0.3664062463794835 L 120.52500008960487 0.3664062463794835 L 118.68281241600634 0.3453124607913196 L 116.3468750848202 0.3453124607913196 L 114.03281244160607 0.32499998718265033 L 101.02812508161878 0.32499998718265033 L 98.18125004802133 0.2843750399770215 L 93.08281241601799 0.26406256636835224 L 90.89062502400483 0.26406256636835224 L 87.38906255360925 0.2843750399770215 L 85.40156252160668 0.24296878078018835 L 84.52187504641479 0.22265630717151907 L 83.68281251840526 0.24296878078018835 L 79.91406243840466 0.22265630717151907 L 74.60937502721791 0.22265630717151907 L 69.83750000640285 0.20234383357455954 L 68.67031244800891 0.26406256636835224 L 67.7281249280204 0.26406256636835224 L 65.55781242881203 0.24296878078018835 L 64.0218750976026 0.20234383357455954 L 58.20468756482005 0.12031242238595041 L 56.03437506561168 0.09999994877728113 L 55.3984374784166 0.12031242238595041 L 51.38437509122305 0.1406251007690571 L 50.217187532817476 0.20234383357455954 L 49.58281256960472 0.1820311551797431 L 48.928124928008764 0.1820311551797431 L 47.882812416017984 0.16093757437772638 L 47.14531246080296 0.16171868157107383 L 45.40468756480841 0.16171868157107383 L 44.74999992321246 0.1406251007690571 L 42.47656243200181 0.07968747516861185 L 39.5468750848202 0.07968747516861185 L 37.13125007362105 0.05859368959204403 L 34.284375040011945 0.03828121598348844 L 26.13281259520445 0.03828121598348844 L 25.3804384120187 0.0" fill="none"/><path stroke="#000000" stroke-width="2" d="M 212.62393405440963 409.2800634879852 L 212.82968739840436 409.29062502399324 L 213.4640625664033 409.29062502399324 L 215.02031257600757 409.35156244478424 L 215.79843747840496 409.35156244478424 L 217.2328124416061 409.3718749183929 L 217.70312499200227 409.35156244478424 L 220.18125004800967 409.4132811775896 L 221.43124992001103 409.4132811775896 L 222.94531256320187 409.39296870399266 L 227.92187494400423 409.3718749183929 L 228.65937489920762 409.39296870399266 L 230.2984374272055 409.3718749183929 L 231.83437496321275 409.4132811775896 L 233.35000002561137 409.39296870399266 L 235.1718750208034 409.39296870399266 L 237.3640624128049 409.35156244478424 L 240.8453124096035 409.35156244478424 L 242.13593743360835 409.33124997118716 L 246.4359374848078 409.33124997118716 L 250.10312499200228 409.35156244478424 L 250.90156257280614 409.35156244478424 L 253.05156259840587 409.33124997118716 L 254.36250009600772 409.3109374975902 L 255.97968752640298 409.33124997118716 L 257.22968739840434 409.3718749183929 L 259.31875000320144 409.3718749183929 L 263.12812503040766 409.39296870399266 L 268.779687526403 409.39296870399266 L 269.7421875200118 409.3718749183929 L 271.4015625216067 409.35156244478424 L 274.0640624640044 409.33124997118716 L 275.1906250752043 409.3109374975902 L 275.7843750912114 409.3109374975902 L 278.8562499584048 409.3718749183929 L 280.39218749441204 409.39296870399266 L 281.4984374272055 409.39296870399266 L 282.9734375424101 409.4539063295931 L 283.81250007040796 409.47499991038353 L 286.0249999360065 409.47499991038353 L 287.58124994561075 409.4539063295931 L 289.9968749568099 409.4539063295931 L 291.5125000192085 409.4335936511867 L 296.9203124224092 409.39296870399266 L 298.3125000192085 409.4132811775896 L 299.1515625472064 409.4132811775896 L 302.3265624064021 409.4335936511867 L 306.0124999680091 409.4539063295931 L 306.4015624192078 409.4335936511867 L 307.0984374272055 409.4335936511867 L 309.8015625216067 409.47499991038353 L 312.1765625856118 409.49531258878994 L 316.9906249728054 409.49531258878994 L 322.4578125824104 409.4539063295931 L 326.6968750080094 409.4539063295931 L 330.83437506561165 409.4335936511867 L 338.41249996800906 409.4335936511867 L 339.80468756480843 409.4132811775896 L 351.1499999232125 409.4132811775896 L 353.4031249408028 409.4335936511867 L 355.84062504960457 409.4335936511867 L 358.379687526403 409.4132811775896 L 360.8330076160026 409.4246512639918 L 362.7625000960077 409.4335936511867 L 383.8984374272055 409.4335936511867 L 388.3625000960077 409.4539063295931 L 390.18593751040754 409.4539063295931 L 391.41406248960413 409.4335936511867 L 394.998437478405 409.4335936511867 L 395.87968757760245 409.4539063295931 L 409.4156249088119 409.4539063295931 L 412.0781250560074 409.47499991038353 L 418.1609375744127 409.47499991038353 L 419.8609375232016 409.49531258878994 L 430.612500070408 409.49531258878994 L 432.1906249728054 409.515625062387 L 434.91406254080357 409.55625000959265 L 435.83593758720673 409.5773437951924 L 436.77812490240905 409.5976562687895 L 451.4203125760076 409.5976562687895 L 452.0765624320018 409.61796874238644 L 454.14531256320186 409.5976562687895 L 480.7281250304077 409.5976562687895 L 482.73437491200167 409.61796874238644 L 486.0734375936096 409.6382812159834 L 501.49374996480765 409.6382812159834 L 505.40624998400455 409.65859368959207 L 511.9187499008025 409.6382812159834 L 512.4312500224099 409.65859368959207 L 513.0046875648084 409.67968747519194 L 514.745312460803 409.67968747519194 L 515.2984375296044 409.65859368959207 L 517.8375000064028 409.67968747519194 L 537.6000000000116 409.67968747519194 L 538.7062499328051 409.6999999487889 L 540.2218749952037 409.6999999487889 L 540.9187500032131 409.67968747519194 L 541.9828125696047 409.67968747519194 L 546.0187500544125 409.72031242238586 L 559.3500000256114 409.72031242238586 L 563.2000000000116 409.6999999487889 L 567.2562499584049 409.72031242238586 L 570.4093749248074 409.72031242238586 L 581.8375000064028 409.7406251007924 L 586.5484374016057 409.76093757438935 L 588.7187499008025 409.7617186815944 L 593.5109376000124 409.7406251007924 L 597.524999987206 409.78203115519136 L 598.6718750720029 409.7406251007924 L 601.7437499392079 409.7406251007924 L 605.6765624320018 409.76093757438935 L 609.8953125888016 409.7406251007924 L 614.3187499008025 409.7406251007924 L 615.5062499328051 409.76093757438935 L 626.3812499456108 409.7617186815944 L 632.9968750592088 409.7406251007924 L 638.3421874176129 409.7406251007924 L 639.9187499008025 409.72031242238586 L 642.540625100804 409.72031242238586 L 645.1203125248081 409.7406251007924 L 652.8218750976026 409.9046875135857 L 653.557812428812 409.92499998719427 L 655.2781250560074 409.94531246079134 L 656.7125000192085 409.9867187199882 L 659.6406249472057 410.0273436671938 L 660.2765625344124 410.04843745279356 L 663.3890625536093 410.1093750783941 L 665.6625000448082 410.1914062847849 L 667.1359375360073 410.21171875839354 L 667.9156250624103 410.21171875839354 L 673.0765625344123 410.2937499647844 L 689.4593748992077 410.3554686975898 L 691.1187499008025 410.3757811711869 L 699.5562500096042 410.2937499647844 L 700.7234375680098 410.27343749118734 L 702.485937561607 410.2531250175904 L 704.6562500608037 410.2531250175904 L 710.9640624128049 410.21171875839354 L 713.8921875456115 410.21171875839354 L 716.7187499008025 410.1914062847849 L 717.7015625728061 410.1914062847849 L 721.2249999360065 410.2320312319905 L 727.4499999744119 410.1914062847849 L 729.9281250304077 410.1914062847849 L 731.9765624832129 410.1710938111879 L 742.2375000064028 410.1296875519911 L 747.1109376000124 410.1296875519911 L 750.2453125120024 410.1093750783941 L 764.7640625152038 410.0890623999876 L 768.0000000000116 410.06874992639064 L 769.1468750848086 410.06874992639064 L 769.9265624064021 410.0890623999876 L 770.4578125824104 410.0890623999876 L 771.5031250944128 410.0273436671938 L 772.6703124480089 410.0273436671938 L 810.3531249664026 410.0273436671938 L 814.4906250240049 410.06874992639064 L 818.012499968009 410.0890623999876 L 819.1187499008025 410.1093750783941 L 825.7140625408035 410.0273436671938 L 826.5328125952044 410.0273436671938 L 827.7203124224092 410.04843745279356 L 832.5124999168096 410.04843745279356 L 838.5546874880092 410.0273436671938 L 842.1171875840053 410.0273436671938 L 844.7187499008025 410.04843745279356 L 846.3359375360072 409.94531246079134 L 848.9171875840053 409.94531246079134 L 850.4124999680091 409.9664062463911 L 859.2593750016065 409.9664062463911 L 861.5734374400112 409.9867187199882 L 862.5765625856118 409.9867187199882 L 865.3421875200117 409.9664062463911 L 867.2671875072061 409.9664062463911 L 870.4625000448083 409.94531246079134 L 876.3609374720021 409.9664062463911 L 884.8390625280095 409.9664062463911 L 886.53906247681 409.9867187199882 L 894.6281250816071 409.9867187199882 L 895.7546874880093 409.9046875135857 L 899.0109374464024 409.9046875135857 L 902.2265624576015 409.88437503998864 L 906.7531249664025 409.9046875135857 L 908.410937548813 409.9046875135857 L 910.1937500160071 409.88437503998864 L 910.7265624064021 409.8640625663917 L 912.5890625536092 409.8429687807918 L 914.5562499072054 409.8023438335862 L 921.5187499008025 409.8023438335862 L 922.2359375872068 409.7617186815944 L 923.6078125056113 409.78203115519136 L 924.4468750336091 409.7406251007924 L 925.1640625152038 409.7617186815944 L 925.7984374784049 409.7406251007924 L 926.414062592003 409.78203115519136 L 927.1093749760068 409.7406251007924 L 929.3723248640075 409.76294297599236 L 931.3078124544118 409.78203115519136 L 935.6093749248073 409.78203115519136 L 938.9265625088126 409.8023438335862 L 942.9203124224092 409.82265630719485 L 945.1328124928056 409.82265630719485 L 947.1187499008025 409.8429687807918 L 951.3171875840053 409.8640625663917 L 959.3250000896048 409.8640625663917 L 959.8984374272055 409.88437503998864 L 960.6968750080093 409.8640625663917 L 963.1546875904081 409.8640625663917 L 966.0828125184053 409.8429687807918 L 967.2093749248073 409.8640625663917 L 967.8859374592081 409.88437503998864 L 968.8078125056112 409.88437503998864 L 972.7187499008025 409.9046875135857 L 976.0781250560074 409.8640625663917 L 979.4156249088119 409.8640625663917 L 983.3687500800122 409.9867187199882 L 983.7984374784049 409.9046875135857 L 986.03125002241 409.9046875135857 L 993.0546874368098 409.92499998719427 L 997.7250000896049 409.8640625663917 L 1004.7703126016073 409.8640625663917 L 1010.0328124416061 409.9046875135857 L 1016.9562499072053 409.92499998719427 L 1023.0171875328058 409.92499998719427 L 1023.7343750144122 409.94531246079134 L 1024.0 409.94531246079134" fill="none"/><path stroke="#000000" stroke-width="2" d="M 1024.0 1023.65112925992 L 1023.9187499008025 1023.6492187647848 L 1010.7093749760068 1023.6492187647848 L 1008.6406250496045 1023.6906250239932 L 1007.7390624768101 1023.6695312383933 L 1006.8171874304069 1023.6695312383933 L 1006.2031249408028 1023.6492187647848 L 1004.5250000896049 1023.6695312383933 L 997.1515625472064 1023.6695312383933 L 996.5375000576023 1023.6492187647848 L 995.9218749440042 1023.6492187647848 L 994.1203124224091 1023.6695312383933 L 988.2421874688123 1023.6695312383933 L 987.5468750848086 1023.935937535984 L 987.1156250624102 1023.6695312383933 L 985.9890624512103 1023.6906250239932 L 985.2734375936095 1023.6906250239932 L 984.3312500736095 1023.6695312383933 L 977.9828125696047 1023.6695312383933 L 976.7734374400112 1023.6492187647848 L 975.2999999488122 1023.6695312383933 L 972.084374937613 1023.6695312383933 L 968.8687499264022 1023.6492187647848 L 962.8062500864035 1023.6492187647848 L 960.9421875200118 1023.6695312383933 L 959.1812499456107 1023.6492187647848 L 958.0750000128057 1023.6695312383933 L 956.7437500416069 1023.6492187647848 L 945.0093750272063 1023.6492187647848 L 944.1078124544117 1023.6289062911877 L 941.5687499776017 1023.6289062911877 L 939.5203125248081 1023.6492187647848 L 935.8343749632128 1023.6492187647848 L 934.379687526403 1023.6289062911877 L 931.7171875840053 1023.6289062911877 L 927.9906250752043 1023.6492187647848 L 925.3078124544118 1023.6492187647848 L 924.2218749952037 1023.6289062911877 L 922.5015625728062 1023.6492187647848 L 921.5187499008025 1023.6289062911877 L 912.8359374848078 1023.6289062911877 L 911.4218749952037 1023.6085938175908 L 910.8484374528052 1023.6085938175908 L 908.8625000448083 1023.6289062911877 L 907.8375000064028 1023.6085938175908 L 905.8718750720029 1023.6085938175908 L 903.4140624896041 1023.5882813439937 L 901.9609374720021 1023.5882813439937 L 901.0187499520019 1023.6085938175908 L 899.9531249664026 1023.6085938175908 L 899.3593749504071 1023.6289062911877 L 895.7140625408035 1023.6085938175908 L 891.8640625664033 1023.6085938175908 L 889.4671874048072 1023.5882813439937 L 888.792187494412 1023.5671875583939 L 887.9937499136082 1023.5882813439937 L 886.8046874624094 1023.5671875583939 L 884.9421875200118 1023.5671875583939 L 884.0406249472056 1023.5468750847853 L 880.8046874624094 1023.5671875583939 L 874.5171875840053 1023.5671875583939 L 874.0568913920084 1023.540354047995 L 873.8203125760076 1023.5265624063904 L 872.6937499648077 1023.7312499711873 L 872.2234374144115 1023.5468750847853 L 870.1546874880092 1023.5671875583939 L 868.598437478405 1023.5265624063904 L 862.3937499136082 1023.5265624063904 L 860.8578125824104 1023.5468750847853 L 847.9953125376021 1023.5468750847853 L 845.7421875200118 1023.5671875583939 L 842.5281249280088 1023.5671875583939 L 840.9296875520027 1023.5468750847853 L 836.178125004808 1023.5468750847853 L 832.0218750976026 1023.5671875583939 L 830.0546875392087 1023.5468750847853 L 819.179687526403 1023.5468750847853 L 818.4218750976027 1023.5265624063904 L 815.392187596811 1023.5265624063904 L 813.5281250304076 1023.5468750847853 L 809.2265625600121 1023.5265624063904 L 804.6593748992076 1023.5265624063904 L 804.0656250880099 1023.5062499327935 L 803.0218749952037 1023.5265624063904 L 801.9765624832129 1023.5265624063904 L 800.1546874880092 1023.5062499327935 L 799.1515625472064 1023.5062499327935 L 796.2421874688123 1023.5265624063904 L 795.4031249408029 1023.5062499327935 L 792.4328124416061 1023.5062499327935 L 791.3890625536093 1023.4851563519915 L 767.1609374720022 1023.4851563519915 L 766.5265625088126 1023.4648436735849 L 764.4984375296044 1023.4648436735849 L 760.50468741121 1023.4851563519915 L 758.9890625536093 1023.4851563519915 L 755.1390625792089 1023.4648436735849 L 752.8453124096035 1023.444531199988 L 749.8546874368097 1023.444531199988 L 748.9749999616063 1023.4648436735849 L 748.2781249536085 1023.4851563519915 L 742.359375052806 1023.4851563519915 L 740.8640624640044 1023.5062499327935 L 737.4031249408029 1023.5062499327935 L 734.9874999296037 1023.5265624063904 L 733.6359374848078 1023.4851563519915 L 732.8156250112108 1023.4851563519915 L 731.1156250624102 1023.5062499327935 L 730.1328125952044 1023.5062499327935 L 729.1296874496038 1023.4851563519915 L 726.3031250944128 1023.4851563519915 L 723.6609374208026 1023.4648436735849 L 722.8421875712113 1023.4648436735849 L 722.2687500288127 1023.4851563519915 L 718.1312499712105 1023.4851563519915 L 716.7187499008025 1023.4648436735849 L 715.7765625856118 1023.4648436735849 L 712.1515624448075 1023.444531199988 L 710.5749999616062 1023.4648436735849 L 708.1375000576023 1023.4648436735849 L 705.1062499328051 1023.444531199988 L 690.9749999616063 1023.444531199988 L 688.3125000192085 1023.424218726391 L 683.5203125248081 1023.424218726391 L 680.8171874304069 1023.403906252794 L 673.0546874368098 1023.403906252794 L 666.4000000000117 1023.424218726391 L 665.7031249920022 1023.424218726391 L 661.6484374528052 1023.403906252794 L 659.0671874048072 1023.403906252794 L 654.0703125504078 1023.424218726391 L 652.739062579209 1023.424218726391 L 650.690624921606 1023.403906252794 L 648.7656249344116 1023.403906252794 L 647.0046875648084 1023.424218726391 L 644.0562499584048 1023.3828124671942 L 642.0078125056112 1023.3828124671942 L 640.1640624128049 1023.3624999935855 L 638.3625000960077 1023.3421875199886 L 634.0203124736087 1023.3624999935855 L 631.4609375232016 1023.3624999935855 L 630.7843749888125 1023.3828124671942 L 614.2984374272055 1023.3828124671942 L 611.5546875904081 1023.3624999935855 L 603.812500070408 1023.3624999935855 L 603.792187596811 1020.9664063487901 L 603.792187596811 1009.6414062591851 L 603.7718749184045 1005.8726561791846 L 603.792187596811 1001.0187499519903 L 603.792187596811 998.3976562687894 L 603.7718749184045 996.4726562815835 L 603.7718749184045 993.5031250943896 L 603.792187596811 992.0281249791849 L 603.7718749184045 991.352343756787 L 603.7718749184045 990.6765625343891 L 603.812500070408 987.3585938431904 L 603.7718749184045 986.0273436671938 L 603.792187596811 984.7578124287887 L 603.7515624448075 982.7304687615949 L 603.7718749184045 981.9312500735862 L 603.7718749184045 981.2148436991847 L 603.812500070408 980.3953125375905 L 603.7718749184045 979.9453124607913 L 603.792187596811 979.3507813375909 L 603.832812544005 977.9585937407916 L 603.7718749184045 977.2210937855882 L 603.7718749184045 975.807812403189 L 603.812500070408 974.313281331188 L 603.812500070408 970.8515624959837 L 603.832812544005 969.4390624255873 L 603.832812544005 966.387500031991 L 603.853125017602 962.9257811967866 L 603.853125017602 962.4554688511882 L 603.8734374912107 957.970312601584 L 603.8937499648076 954.6929686527932 L 603.853125017602 952.4812500991859 L 603.792187596811 950.2492186623858 L 603.832812544005 947.1976562687894 L 603.832812544005 943.4289061887888 L 603.792187596811 942.8351561727934 L 603.853125017602 938.370312601584 L 603.853125017602 933.8855124991853 L 603.853125017602 933.8851563519914 L 603.853125017602 928.6632812543888 L 603.8734374912107 925.7960937471944 L 603.8937499648076 924.7101562879864 L 603.8937499648076 924.0343750655884 L 603.832812544005 921.5976562687895 L 603.853125017602 917.4812499967869 L 603.853125017602 916.7640625151922 L 603.832812544005 915.8835937279858 L 603.853125017602 914.6343749631894 L 603.832812544005 913.8968750079861 L 603.853125017602 913.0570311679854 L 603.8734374912107 911.1117187071941 L 603.853125017602 910.0265625599889 L 603.853125017602 908.5312499711872 L 603.8734374912107 907.8554687487892 L 603.853125017602 907.0773438463918 L 603.853125017602 904.803906150395 L 603.8734374912107 901.1171874815948 L 603.8734374912107 897.1445311487885 L 603.853125017602 895.915625062387 L 603.853125017602 895.2804687871946 L 603.8734374912107 893.0078124031891 L 603.8734374912107 886.3718750207918 L 603.8937499648076 884.1187500031898 L 603.8734374912107 883.3617186815943 L 603.8937499648076 881.1492188159842 L 603.8734374912107 879.3679687679862 L 603.8734374912107 876.6640625663916 L 603.8937499648076 872.4867186687886 L 603.8937499648076 870.4384862207924 L 603.8937499648076 870.4382812159835 L 603.8937499648076 869.189062451187 L 603.8734374912107 868.6773438463919 L 603.8734374912107 863.1882813439937 L 603.853125017602 861.4679687167867 L 603.853125017602 860.1984374783933 L 603.832812544005 858.3960938495933 L 603.832812544005 855.4679687167867 L 603.853125017602 854.443749990384 L 603.853125017602 849.4671874047839 L 603.8734374912107 848.135937433585 L 603.853125017602 846.3742187519907 L 603.8734374912107 845.4734374911874 L 603.8734374912107 841.1929688063916 L 603.853125017602 840.3945312255877 L 603.853125017602 835.5203125247848 L 603.832812544005 834.987499929592 L 603.832812544005 834.4554688511882 L 603.853125017602 833.5132813311881 L 603.853125017602 832.8578125823872 L 603.832812544005 831.1984375807922 L 603.853125017602 830.4414062591852 L 603.853125017602 820.8562499583932 L 603.8734374912107 819.1976562687894 L 603.832812544005 818.603906252794 L 602.9937500160071 818.7062499327934 L 602.1953124352033 818.7265624063905 L 600.084374937613 818.7265624063905 L 598.9593749504071 818.7062499327934 L 592.4468750336091 818.7062499327934 L 590.0093749248074 818.7265624063905 L 588.759375052806 818.7265624063905 L 588.084374937613 818.7062499327934 L 580.814062592003 818.7062499327934 L 579.4406250496046 818.7265624063905 L 574.218749952002 818.7265624063905 L 571.5765624832129 818.7062499327934 L 570.9421875200118 818.7062499327934 L 568.4234375168104 818.7265624063905 L 566.8249999360065 818.7265624063905 L 565.2078125056112 818.7062499327934 L 559.5546875904081 818.7062499327934 L 558.6546874368098 818.7468750847853 L 557.5078125568107 818.7265624063905 L 555.4796875776025 818.7265624063905 L 554.5375000576023 818.7468750847853 L 539.832812544005 818.7468750847853 L 537.4375000064028 818.7265624063905 L 530.084374937613 818.7265624063905 L 526.2343749632128 818.7468750847853 L 520.1312499712105 818.7062499327934 L 518.1859375104075 818.7062499327934 L 517.4281250816072 818.7265624063905 L 516.485937561607 818.7265624063905 L 514.7249999872059 818.7062499327934 L 511.6531249152031 818.7265624063905 L 506.287500083202 818.7265624063905 L 503.1734374400112 818.7468750847853 L 500.3687499776017 818.7468750847853 L 498.6687500288128 818.7468750847853 L 496.5171875840053 818.7265624063905 L 495.2687499264022 818.7265624063905 L 491.86875002881277 818.7062499327934 L 490.10781245441177 818.6851563519915 L 487.2406249472057 818.603906252794 L 486.2984374272055 818.7265624063905 L 481.3421875200118 818.7265624063905 L 480.5640624128049 818.9109374975902 L 479.2734375936096 818.7265624063905 L 472.59687505920886 818.7265624063905 L 469.91406243840464 818.7468750847853 L 462.378124902409 818.7468750847853 L 461.3124999168096 818.7265624063905 L 440.46406246400437 818.7265624063905 L 438.0671875072061 818.767187558394 L 436.8796874752035 818.767187558394 L 435.0984374272055 818.7265624063905 L 432.8453124096035 818.7468750847853 L 428.91406254080357 818.7265624063905 L 425.04218746881236 818.7468750847853 L 421.1312500736094 818.7468750847853 L 418.7968749568099 818.767187558394 L 417.46562498561104 818.767187558394 L 416.6250000384054 818.7468750847853 L 413.26718750720613 818.767187558394 L 409.43750000640284 818.6851563519915 L 401.40937502720624 818.7265624063905 L 400.5484374016058 818.7265624063905 L 397.579687526403 818.7062499327934 L 393.81093744640236 818.7265624063905 L 386.0484374528052 818.7265624063905 L 383.8984374272055 818.767187558394 L 382.9765625856118 818.7468750847853 L 381.5437500416068 818.7468750847853 L 380.192187596811 818.7265624063905 L 378.24531251200244 818.7468750847853 L 376.46406246400437 818.767187558394 L 375.7468749824096 818.767187558394 L 374.29374996480766 818.7468750847853 L 372.79843758080386 818.767187558394 L 370.4015624192078 818.767187558394 L 368.49687490561047 818.7468750847853 L 366.45000007681085 818.7468750847853 L 364.6671874048072 818.7882813439937 L 362.5171875840053 818.7468750847853 L 361.20625008640343 818.7882813439937 L 360.0796874752035 818.7468750847853 L 359.20000000001164 818.767187558394 L 358.4625000448083 818.7882813439937 L 354.69374996480764 818.767187558394 L 352.8921874432126 818.7882813439937 L 350.8437499904074 818.7882813439937 L 348.73437491200167 818.8085938175907 L 345.0062499840045 818.8085938175907 L 343.26562508801 818.8289062911878 L 335.03281254400497 818.8289062911878 L 332.6984374272055 818.7265624063905 L 331.306250035204 818.644531199988 L 328.2953125888016 818.6851563519915 L 326.5546874880092 818.7468750847853 L 324.7109376000124 818.8085938175907 L 323.19531253760215 818.7882813439937 L 321.82343741441144 818.7882813439937 L 317.9328124928055 818.8289062911878 L 314.90156257280614 818.8289062911878 L 313.4468749312102 818.8085938175907 L 309.924999987206 818.8085938175907 L 307.87656253441236 818.8289062911878 L 307.0984374272055 818.8492187647847 L 301.87656253441236 818.8906250239932 L 300.0124999680091 818.9109374975902 L 299.0906249216059 818.8906250239932 L 297.2468750336091 818.8906250239932 L 295.56874997760167 818.8695312383934 L 291.9843749888125 818.9929687039927 L 291.5125000192085 818.8492187647847 L 282.7890624512103 818.8492187647847 L 281.4984374272055 818.8906250239932 L 277.27968747520356 818.8492187647847 L 276.4187500544125 818.8289062911878 L 268.759375052806 818.8289062911878 L 264.1515624448075 818.8492187647847 L 259.2578125824104 818.8492187647847 L 255.8984374272055 818.7882813439937 L 253.2765624320018 818.7882813439937 L 249.2218750976026 818.8289062911878 L 243.4046875648084 818.8492187647847 L 225.93593753600726 818.8492187647847 L 223.9906250752043 818.9109374975902 L 222.3515625472064 818.8695312383934 L 210.5343750144122 818.8695312383934 L 207.2781250560074 818.8492187647847 L 206.23437496321276 818.8289062911878 L 204.6984374272055 818.8289062911878 L 202.58906255360927 818.8492187647847 L 201.07343749121065 818.8695312383934 L 200.0078125056112 818.8085938175907 L 196.58749992960367 818.8906250239932 L 194.43749990400391 818.8906250239932 L 193.8640625664033 818.9109374975902 L 193.92656240640207 815.6343750655884 L 193.92656240640207 812.9101561855874 L 193.92499998720595 810.534375014389 L 193.92656240640207 808.9164062719908 L 193.92656240640207 805.3937500159839 L 193.90468751360896 803.2437499903841 L 193.90468751360896 801.6664061951917 L 193.92499998720595 800.7656249343884 L 193.92656240640207 797.6523438079864 L 193.92656240640207 795.768750079989 L 193.8640625664033 793.5976562687895 L 193.8437500928063 792.4507811839925 L 193.8437500928063 787.1875000319909 L 193.8640625664033 784.0742187007912 L 193.8640625664033 782.4156250111876 L 193.88437504001195 781.0023438335862 L 193.88437504001195 778.3398436863906 L 193.90468751360896 774.5304686591844 L 193.90468751360896 769.9023437823868 L 193.92656240640207 768.9601562623866 L 193.92656240640207 767.9976562687895 L 193.96718755840556 765.7445312511875 L 193.98750003200257 764.0039061503834 L 194.0078125056112 763.1031250943895 L 194.04843745280522 762.2429687807919 L 194.02812497920823 758.1054687231896 L 194.02812497920823 754.4398438399891 L 194.06874992640223 753.3749999615945 L 194.0078125056112 751.4906249215943 L 194.04843745280522 748.2140624895925 L 194.04843745280522 742.3976562687894 L 194.08906240001087 738.6499999743886 L 194.10937507840572 737.6664061951917 L 194.13124997121048 735.6593750015949 L 194.10937507840572 734.9015625727945 L 194.08906240001087 733.7140625407919 L 194.08906240001087 723.8835937279858 L 194.10937507840572 720.8726562815834 L 194.08906240001087 719.9312500735862 L 194.08906240001087 718.6820313087898 L 194.10937507840572 717.842187468789 L 194.06874992640223 716.7976562687894 L 194.04843745280522 715.8757812223863 L 194.04843745280522 712.1078124543885 L 194.02812497920823 710.8585936895921 L 194.02812497920823 709.752343756787 L 194.0078125056112 708.8304687103839 L 194.0078125056112 706.8234375167871 L 194.02812497920823 706.0249999359949 L 194.02812497920823 704.4070311935851 L 194.04843745280522 703.6289062911877 L 194.02812497920823 703.0960936959949 L 194.02812497920823 700.1882812415948 L 193.96718755840556 697.9148437503842 L 193.98750003200257 694.3718750207918 L 194.0078125056112 693.368750079989 L 193.96718755840556 691.7914062847849 L 193.94687508480857 691.1976562687894 L 193.96718755840556 688.7195312127936 L 193.96718755840556 685.4632812543889 L 193.98750003200257 684.0093749247841 L 193.98750003200257 683.1492188159842 L 194.0078125056112 681.0390624255873 L 194.0078125056112 676.2679687167868 L 194.0078125056112 669.5499999231891 L 193.96718755840556 668.9562499071938 L 193.96718755840556 665.5976562687895 L 193.94687508480857 662.4234375167871 L 193.94687508480857 660.33437491199 L 193.96718755840556 658.7164061695919 L 193.96718755840556 646.7351562239928 L 193.94687508480857 645.0968750079861 L 193.96718755840556 643.7453125631903 L 193.94687508480857 640.9804687359835 L 193.94687508480857 635.4921875455882 L 193.96718755840556 633.5664062463911 L 193.94687508480857 631.8460938239936 L 193.94687508480857 631.2523438079864 L 193.96718755840556 630.699218739185 L 193.98750003200257 628.89765621759 L 193.98750003200257 627.9554686975898 L 194.0078125056112 626.1734375423869 L 194.02812497920823 624.8218750975909 L 194.02812497920823 622.1390624767868 L 194.0078125056112 619.9273437183932 L 193.98750003200257 619.1695312895929 L 193.98750003200257 615.5242186751915 L 194.0078125056112 615.0320312319906 L 194.02812497920823 614.5203124223859 L 194.27343749121064 613.9671875583939 L 194.0078125056112 612.1242187775904 L 194.0078125056112 610.4445313023868 L 193.98750003200257 609.9531249663909 L 193.98750003200257 608.0281249791849 L 193.96718755840556 600.1226561535848 L 193.94687508480857 599.2015624191845 L 193.94687508480857 595.9859374079854 L 193.96718755840556 595.2281249791849 L 193.98750003200257 594.7570313215838 L 194.0078125056112 593.6304687103839 L 194.02812497920823 591.5828125695931 L 194.04843745280522 590.7429687295923 L 194.02812497920823 590.189843660791 L 194.02812497920823 589.6374999039923 L 194.0078125056112 589.0023438335862 L 194.0078125056112 588.0398438399891 L 194.02812497920823 586.9749999615946 L 193.94687508480857 586.1148436479853 L 193.96718755840556 584.3328124927939 L 193.98750003200257 583.0218749951921 L 194.02812497920823 580.2570311679854 L 194.0078125056112 579.5406249983935 L 194.0078125056112 578.7210938367876 L 193.98750003200257 577.4515625983943 L 193.98750003200257 576.8578125823872 L 193.96718755840556 575.8132811775897 L 193.96718755840556 569.7507813375909 L 193.94687508480857 566.2695313407924 L 193.94687508480857 563.9554686975898 L 193.96718755840556 563.2179687423865 L 193.98750003200257 561.5999999999883 L 193.98750003200257 557.7703124991851 L 194.0078125056112 556.9507813375909 L 193.98750003200257 553.735937433585 L 193.98750003200257 546.1578125311877 L 193.96718755840556 544.7453124607913 L 194.0078125056112 541.4679687167867 L 193.98750003200257 537.5976562687895 L 193.98750003200257 528.258593791991 L 193.96718755840556 526.6820313087898 L 193.96718755840556 517.73203128319 L 193.92499998720595 511.99765626878946 L 193.92656240640207 508.5367187455879 L 193.92656240640207 507.0210936831893 L 194.02812497920823 498.8085938175907 L 193.94687508480857 497.4570311679854 L 193.94687508480857 495.5109375999891 L 193.96718755840556 492.76640624639117 L 193.94687508480857 490.5546874879859 L 193.96718755840556 489.6945311743882 L 193.98750003200257 489.16250009598446 L 194.02812497920823 487.2781250559841 L 194.02812497920823 485.18906245118706 L 194.0078125056112 484.5539061759948 L 194.0078125056112 482.17890631678745 L 194.02812497920823 481.277343743993 L 194.0078125056112 480.2531250175904 L 194.02812497920823 479.0453125119908 L 194.0078125056112 473.2492187647847 L 193.98750003200257 471.42656245758985 L 193.98750003200257 470.0953124863911 L 193.96718755840556 469.2351561727934 L 193.96718755840556 465.4257813503849 L 193.94687508480857 462.53828116478394 L 193.98750003200257 460.67499991038346 L 193.96718755840556 459.99843758079226 L 193.96718755840556 450.74218741758955 L 193.94687508480857 448.32499998719436 L 193.94687508480857 444.16796876798617 L 193.92656240640207 437.3273438207922 L 193.92656240640207 436.1187500031898 L 193.94687508480857 435.1156250623869 L 193.94687508480857 428.6851563519915 L 193.94687508480857 423.8921875455883 L 193.92656240640207 421.25078118399256 L 193.92499998720595 419.0796875775908 L 193.92656240640207 416.2531250175904 L 193.92499998720595 415.4343749631895 L 193.92656240640207 413.05859379199103 L 193.92656240640207 409.4539063295931 L 194.6015625216067 409.47499991038353 L 197.30468741121004 409.4132811775896 L 197.8781249536085 409.4132811775896 L 199.08750008320203 409.3718749183929 L 200.56093757441266 409.35156244478424 L 201.032812544005 409.33124997118716 L 202.34375004160682 409.3109374975902 L 203.75624990720536 409.29062502399324 L 204.61562490881187 409.26953123839337 L 206.5828124672058 409.2492187647847 L 211.64062494720565 409.2492187647847 L 212.41875005441253 409.26953123839337 L 212.62393405440963 409.2800634879852" fill="none"/><path stroke="#000000" stroke-width="2" d="M 1024.0 409.94531246077963 L 1023.7343750144122 409.94531246077963 L 1023.0171875328058 409.9249999871827 L 1016.9562499072169 409.9249999871827 L 1010.0328124416061 409.904687513574 L 1004.7703126016189 409.8640625663917 L 997.7250000896165 409.8640625663917 L 993.0546874368214 409.9249999871827 L 986.03125002241 409.904687513574 L 983.7984374784049 409.904687513574 L 983.3687500800122 409.98671871997647 L 979.4156249088235 409.8640625663917 L 976.0781250560074 409.8640625663917 L 972.7187499008025 409.904687513574 L 968.8078125056229 409.88437503996533 L 967.8859374592197 409.88437503996533 L 967.2093749248073 409.8640625663917 L 966.0828125184169 409.8429687807802 L 963.1546875904198 409.8640625663917 L 960.696875008021 409.8640625663917 L 959.8984374272055 409.88437503996533 L 959.3250000896165 409.8640625663917 L 951.3171875840169 409.8640625663917 L 947.1187499008025 409.8429687807802 L 945.1328124928172 409.82265630717154 L 942.9203124224092 409.82265630717154 L 938.9265625088243 409.8023438335629 L 935.6093749248073 409.78203115516806 L 931.3078124544234 409.78203115516806 L 929.3723248640192 409.76294297599236 L 927.1093749760068 409.7406251007691 L 926.4140625920147 409.78203115516806 L 925.7984374784049 409.7406251007691 L 925.1640625152155 409.761718681606 L 924.4468750336091 409.7406251007691 L 923.6078125056229 409.78203115516806 L 922.2359375872184 409.761718681606 L 921.5187499008141 409.8023438335629 L 914.5562499072054 409.8023438335629 L 912.5890625536209 409.8429687807802 L 910.7265624064021 409.8640625663917 L 910.1937500160071 409.88437503996533 L 908.410937548813 409.904687513574 L 906.7531249664025 409.904687513574 L 902.2265624576015 409.88437503996533 L 899.0109374464024 409.904687513574 L 895.7546874880093 409.904687513574 L 894.6281250816188 409.98671871997647 L 886.53906247681 409.98671871997647 L 884.8390625280095 409.9664062463678 L 876.3609374720021 409.9664062463678 L 870.4625000448199 409.94531246077963 L 867.2671875072061 409.9664062463678 L 865.3421875200235 409.9664062463678 L 862.5765625856235 409.98671871997647 L 861.5734374400229 409.98671871997647 L 859.2593750016065 409.9664062463678 L 850.4124999680091 409.9664062463678 L 848.9171875840169 409.94531246077963 L 846.3359375360072 409.94531246077963 L 844.7187499008025 410.04843745277026 L 842.1171875840053 410.0273436671821 L 838.5546874880208 410.0273436671821 L 832.5124999168096 410.04843745277026 L 827.7203124224092 410.04843745277026 L 826.5328125952161 410.0273436671821 L 825.7140625408152 410.0273436671821 L 819.1187499008141 410.1093750783708 L 818.012499968009 410.0890623999876 L 814.4906250240165 410.0687499263789 L 810.3531249664026 410.0273436671821 L 772.6703124480089 410.0273436671821 L 771.5031250944245 410.0273436671821 L 770.4578125824104 410.0890623999876 L 769.9265624064021 410.0890623999876 L 769.1468750848086 410.0687499263789 L 768.0000000000116 410.0687499263789 L 764.7640625152038 410.0890623999876 L 750.2453125120024 410.1093750783708 L 747.1109376000124 410.1296875519795 L 742.2375000064145 410.1296875519795 L 731.9765624832129 410.1710938111646 L 729.9281250304077 410.1914062847733 L 727.4499999744119 410.1914062847733 L 721.2249999360065 410.2320312319905 L 717.7015625728061 410.1914062847733 L 716.7187499008141 410.1914062847733 L 713.8921875456115 410.21171875838195 L 710.9640624128049 410.21171875838195 L 704.6562500608037 410.2531250175671 L 702.4859375616186 410.2531250175671 L 700.7234375680098 410.27343749117574 L 699.556250009616 410.2937499647844 L 691.1187499008025 410.3757811711869 L 689.4593748992193 410.3554686975782 L 673.0765625344123 410.2937499647844 L 667.9156250624219 410.21171875838195 L 667.1359375360073 410.21171875838195 L 665.6625000448199 410.1914062847733 L 663.3890625536209 410.1093750783708 L 660.276562534424 410.04843745277026 L 659.6406249472057 410.0273436671821 L 656.7125000192085 409.98671871997647 L 655.278125056019 409.94531246077963 L 653.557812428812 409.9249999871827 L 652.8218750976026 409.904687513574 L 645.1203125248197 409.7406251007691 L 642.5406251008156 409.72031242237426 L 639.9187499008142 409.72031242237426 L 638.3421874176245 409.7406251007691 L 632.9968750592204 409.7406251007691 L 626.3812499456108 409.761718681606 L 615.5062499328051 409.76093757437775 L 614.3187499008142 409.7406251007691 L 609.8953125888016 409.7406251007691 L 605.6765624320018 409.76093757437775 L 601.7437499392196 409.7406251007691 L 598.6718750720145 409.7406251007691 L 597.524999987206 409.78203115516806 L 593.510937600024 409.7406251007691 L 588.7187499008025 409.761718681606 L 586.5484374016174 409.76093757437775 L 581.8375000064028 409.7406251007691 L 570.4093749248074 409.72031242237426 L 567.2562499584164 409.72031242237426 L 563.2000000000232 409.6999999487656 L 559.3500000256114 409.72031242237426 L 546.0187500544125 409.72031242237426 L 541.9828125696047 409.67968747520354 L 540.9187500032247 409.67968747520354 L 540.2218749952037 409.6999999487656 L 538.7062499328051 409.6999999487656 L 537.6000000000233 409.67968747520354 L 517.8375000064145 409.67968747520354 L 515.2984375296044 409.65859368958047 L 514.745312460803 409.67968747520354 L 513.0046875648084 409.67968747520354 L 512.4312500224216 409.65859368958047 L 511.9187499008025 409.6382812159718 L 505.40624998400455 409.65859368958047 L 501.4937499648193 409.6382812159718 L 486.0734375936096 409.6382812159718 L 482.73437491200167 409.61796874236313 L 480.72812503041933 409.5976562688011 L 454.14531256320186 409.5976562688011 L 452.0765624320135 409.61796874236313 L 451.4203125760076 409.5976562688011 L 436.77812490240905 409.5976562688011 L 435.8359375872184 409.5773437951924 L 434.9140625408152 409.55625000956934 L 432.19062497281703 409.5156250623986 L 430.612500070408 409.49531258878994 L 419.86093752321324 409.49531258878994 L 418.1609375744127 409.4749999103602 L 412.0781250560191 409.4749999103602 L 409.41562490882353 409.4539063295931 L 395.87968757760245 409.4539063295931 L 394.998437478405 409.433593651175 L 391.41406248960413 409.433593651175 L 390.1859375104192 409.4539063295931 L 388.3625000960077 409.4539063295931 L 383.8984374272171 409.433593651175 L 362.7625000960194 409.433593651175 L 360.8330076160026 409.4246512639918 L 358.3796875264146 409.41328117756643 L 355.84062504960457 409.433593651175 L 353.4031249408028 409.433593651175 L 351.1499999232241 409.41328117756643 L 339.80468756480843 409.41328117756643 L 338.4124999680207 409.433593651175 L 330.83437506561165 409.433593651175 L 326.69687500802104 409.4539063295931 L 322.45781258242204 409.4539063295931 L 316.9906249728054 409.49531258878994 L 312.1765625856118 409.49531258878994 L 309.8015625216067 409.4749999103602 L 307.09843742721716 409.433593651175 L 306.40156241921943 409.433593651175 L 306.01249996802073 409.4539063295931 L 302.3265624064021 409.433593651175 L 299.1515625472181 409.41328117756643 L 298.3125000192202 409.41328117756643 L 296.9203124224092 409.39296870399266 L 291.51250001922017 409.433593651175 L 289.99687495682156 409.4539063295931 L 287.5812499456224 409.4539063295931 L 286.02499993601816 409.4749999103602 L 283.8125000704196 409.4749999103602 L 282.9734375424101 409.4539063295931 L 281.4984374272055 409.39296870399266 L 280.3921874944237 409.39296870399266 L 278.8562499584048 409.3718749183812 L 275.7843750912114 409.3109374975902 L 275.19062507521596 409.3109374975902 L 274.0640624640044 409.33124997116397 L 271.4015625216067 409.3515624447725 L 269.7421875200118 409.3718749183812 L 268.779687526403 409.39296870399266 L 263.1281250304193 409.39296870399266 L 259.31875000320144 409.3718749183812 L 257.229687398416 409.3718749183812 L 255.97968752640298 409.33124997116397 L 254.36250009601935 409.3109374975902 L 253.05156259841752 409.33124997116397 L 250.9015625728178 409.3515624447725 L 250.10312499200228 409.3515624447725 L 246.4359374848078 409.33124997116397 L 242.13593743361997 409.33124997116397 L 240.8453124096035 409.3515624447725 L 237.3640624128049 409.3515624447725 L 235.1718750208034 409.39296870399266 L 233.35000002562302 409.39296870399266 L 231.8343749632244 409.41328117756643 L 230.29843742721715 409.3718749183812 L 228.65937489921924 409.39296870399266 L 227.92187494400423 409.3718749183812 L 222.94531256321352 409.39296870399266 L 221.43124992001103 409.41328117756643 L 220.18125004800967 409.41328117756643 L 217.70312499200227 409.3515624447725 L 217.2328124416177 409.3718749183812 L 215.79843747840496 409.3515624447725 L 215.0203125760192 409.3515624447725 L 213.4640625664033 409.29062502398153 L 212.82968739840436 409.29062502398153 L 212.62393405440963 409.2800634879852 L 212.41875005442415 409.26953123837006 L 211.6406249472173 409.2492187647615 L 206.5828124672058 409.2492187647615 L 204.61562490882352 409.26953123837006 L 203.75624990720536 409.29062502398153 L 202.34375004160682 409.3109374975902 L 201.032812544005 409.33124997116397 L 200.56093757441266 409.3515624447725 L 199.08750008321368 409.3718749183812 L 197.8781249536085 409.41328117756643 L 197.30468741122166 409.41328117756643 L 194.6015625216067 409.4749999103602 L 193.92656240640207 409.4539063295931 L 193.9249999872176 408.67578122238626 L 193.92656240640207 406.6281250815722 L 193.90468751360896 405.317187583982 L 193.90468751360896 403.55625000958094 L 193.8843750400236 402.94140620798566 L 193.90468751360896 400.58593751038427 L 193.8843750400236 399.62343751676383 L 193.8843750400236 394.64687493118686 L 193.90468751360896 392.51718758399363 L 193.90468751360896 391.69765621756665 L 193.8843750400236 388.74921881599585 L 193.8843750400236 385.77890631678747 L 193.8437500928063 383.99765626877775 L 193.8437500928063 381.9085936639924 L 193.82343741441144 378.037499903969 L 193.82343741441144 375.80546867199007 L 193.8031249408028 373.9625000959611 L 193.8031249408028 370.4804687871947 L 193.78281246721744 368.8835938303731 L 193.78281246721744 367.14218741757793 L 193.7624999936088 365.2585936895921 L 193.7624999936088 362.5140625407803 L 193.74218752002344 360.62968750077994 L 193.74218752002344 359.36015626238657 L 193.7624999936088 358.5203124223859 L 193.7624999936088 348.62890618876554 L 193.69999994882383 347.2156250111759 L 193.6796874752152 345.1882813439937 L 193.6796874752152 344.2664062975906 L 193.65937500160652 342.8531249151798 L 193.65937500160652 340.7234375679982 L 193.63906252802116 339.86328125437717 L 193.63906252802116 335.8078124031657 L 193.61875005441252 334.1085937663796 L 193.61875005441252 326.6125000703847 L 193.59843758080387 325.3015625728061 L 193.59843758080387 323.745312563167 L 193.57812490242068 321.7585938431672 L 193.57812490242068 313.9765624831664 L 193.57812490242068 311.80546867196676 L 193.57812490242068 306.56249999357385 L 193.57812490242068 300.37734379516917 L 193.53749995520337 295.42187499516876 L 193.53749995520337 293.78281246719416 L 193.5359375360189 291.5914061823627 L 193.57812490242068 290.9367187455995 L 193.55781242881204 289.9945312255877 L 193.55781242881204 281.5976562687662 L 193.5359375360189 278.9554687999887 L 193.53749995520337 277.2554688511649 L 193.5359375360189 276.27265617918454 L 193.53749995520337 274.77734379519245 L 193.5359375360189 272.4632811519899 L 193.53749995520337 268.7562500095926 L 193.51562506241027 266.58593751037256 L 193.51562506241027 255.95625000956932 L 193.4953125888016 253.5812499455758 L 193.4953125888016 249.87421880317856 L 193.45468743680976 237.36093757438937 L 193.4343749632244 235.8250000384054 L 193.41406248961576 234.82109378558812 L 193.45468743680976 233.16250009598446 L 193.45468743680976 230.39765626877784 L 193.4749999104184 229.72187504639146 L 193.4749999104184 226.01484369917307 L 193.4953125888016 224.92968755197944 L 193.4953125888016 222.7789062143886 L 193.51562506241027 220.17812500476134 L 193.5359375360189 217.7617186815944 L 193.5359375360189 216.36874997756672 L 193.55781242881204 214.4640624639694 L 193.55781242881204 211.06406256638002 L 193.57812490242068 210.2039062527707 L 193.57812490242068 207.09140623357382 L 193.59843758080387 205.88281241600635 L 193.59843758080387 193.08281241597138 L 193.61875005441252 191.40390625279394 L 193.61875005441252 178.56249999358556 L 193.65937500160652 175.98203125756697 L 193.63906252802116 172.50078126076846 L 193.63906252802116 167.85158963198774 L 193.59843758080387 164.57499996157128 L 193.57812490242068 163.141406310373 L 193.57812490242068 162.19921879039612 L 193.55781242881204 161.74843740160577 L 193.4953125888016 157.4070312959724 L 193.4749999104184 154.51953131518098 L 193.45468743680976 153.59765626877777 L 193.45468743680976 149.58359367677474 L 193.4343749632244 147.28984371196714 L 193.4343749632244 138.3601561599993 L 193.41406248961576 137.1312500735628 L 193.41406248961576 127.11718748158307 L 193.39375001600712 123.96328120318935 L 193.39375001600712 119.94921881598418 L 193.37343754242175 112.67812495358521 L 193.37343754242175 108.15234375678699 L 193.35312506881309 102.39765626878943 L 193.35156244480748 100.22656245758992 L 193.35312506881309 98.81328127996528 L 193.35156244480748 97.44140615677463 L 193.33124997122212 96.49921884158391 L 193.35312506881309 93.67265628157179 L 193.37343754242175 92.62890618877714 L 193.35312506881309 91.17421875196737 L 193.35312506881309 90.06874992637893 L 193.33124997122212 89.47499991036022 L 193.4343749632244 87.81562490877695 L 193.35312506881309 86.77109370878895 L 193.35156244480748 86.15703121917318 L 193.33124997122212 85.68593756159532 L 193.33124997122212 83.6374999039806 L 193.37343754242175 81.44609382399358 L 193.39375001600712 76.7976562687661 L 193.37343754242175 73.47968757757917 L 193.37343754242175 68.60546867197843 L 193.35312506881309 66.84453130239854 L 193.35312506881309 65.1648438271717 L 193.35156244480748 64.12031242236264 L 193.37343754242175 63.2195311615709 L 193.37343754242175 59.225781247962686 L 193.35312506881309 56.60390625280559 L 193.35156244480748 55.949218815960876 L 193.35312506881309 53.634375065576705 L 193.37343754242175 51.422656307206466 L 193.35312506881309 48.39140618236274 L 193.33124997122212 47.490624921571 L 193.35156244480748 46.09765621758993 L 193.35156244480748 44.4187500543776 L 193.31093749761348 43.292187443166085 L 193.29062502400484 41.776562585565216 L 193.29062502400484 38.58203115517972 L 193.27031255041948 36.16484372478442 L 193.27031255041948 34.58828124157151 L 193.25000007681084 30.84062494717068 L 193.22968739840434 27.235937484784472 L 193.35312506881309 25.59765626877777 L 193.29062502400484 22.73046876156002 L 193.27031255041948 21.296874905587174 L 193.22968739840434 17.528125030384444 L 193.20937492480735 13.678125055972487 L 193.14687508480856 12.2648436735617 L 192.98437509122306 0.611718758393522 L 194.04843745280522 0.5093750783823907 L 194.66249994240934 0.4890623999875743 L 196.6296875008149 0.20234383357455954 L 196.62607173940052 0.0" fill="none"/><path stroke="#000000" stroke-width="2" d="M 25.380438411587967 0.0 L 26.13281259520445 0.03828121598348844 L 34.284375040011945 0.03828121598348844 L 37.13125007360941 0.05859368959204403 L 39.54687508480856 0.07968747519191766 L 42.47656243200181 0.07968747519191766 L 44.74999992321246 0.1406251007923629 L 45.40468756480841 0.16171868159437963 L 47.14531246080296 0.16171868159437963 L 47.882812416006345 0.16093757438943612 L 48.928124928008764 0.18203115519133917 L 49.58281256960472 0.18203115519133917 L 50.21718753280584 0.2023438335861556 L 51.3843750912114 0.1406251007923629 L 55.39843747840496 0.12031242238595041 L 56.03437506561168 0.09999994878887719 L 58.20468756480841 0.12031242238595041 L 64.0218750976026 0.2023438335861556 L 65.55781242881203 0.2429687807918981 L 67.72812492800877 0.26406256639165804 L 68.67031244800891 0.26406256639165804 L 69.83750000640285 0.2023438335861556 L 74.60937502720626 0.22265630719482488 L 79.91406243840466 0.22265630719482488 L 83.68281251840526 0.2429687807918981 L 84.52187504640315 0.22265630719482488 L 85.40156252160668 0.2429687807918981 L 87.38906255360925 0.2843750399886176 L 90.89062502400483 0.26406256639165804 L 93.08281241600635 0.26406256639165804 L 98.18125004800967 0.2843750399886176 L 101.02812508160714 0.3249999871943601 L 114.03281244160607 0.3249999871943601 L 116.34687508480856 0.3453124607913196 L 118.68281241600634 0.3453124607913196 L 120.52500008960487 0.36640624639107955 L 127.8984374272055 0.36640624639107955 L 129.7624999936088 0.38671871998815277 L 144.1999998976127 0.38671871998815277 L 150.9171875840053 0.4070311935851123 L 153.53906257920897 0.38671871998815277 L 158.08593756160698 0.38671871998815277 L 165.21249996800907 0.4070311935851123 L 165.82656245760154 0.4070311935851123 L 169.12499998720597 0.4273436671937816 L 169.57500006400514 0.4273436671937816 L 173.22031247360866 0.4070311935851123 L 175.71875000320142 0.4273436671937816 L 179.79531243520324 0.4273436671937816 L 183.09218754561152 0.4890623999875743 L 189.78906255360926 0.4890623999875743 L 192.61562490881187 0.52968755199106 L 192.9843750912114 0.611718758393522 L 193.14687508480856 12.264843673585005 L 193.20937492480735 13.678125055984083 L 193.22968739840434 17.528125030384444 L 193.27031255040782 21.296874905587174 L 193.29062502400484 22.730468761583325 L 193.35312506880146 25.59765626878948 L 193.22968739840434 27.235937484784472 L 193.25000007681084 30.840624947193987 L 193.27031255040782 34.588281241594814 L 193.27031255040782 36.16484372478442 L 193.29062502400484 38.582031155191316 L 193.29062502400484 41.77656258558852 L 193.31093749760186 43.29218744318928 L 193.35156244480748 44.41875005438919 L 193.35156244480748 46.09765621758993 L 193.3312499712105 47.4906249215943 L 193.35312506880146 48.391406182385936 L 193.3734375424101 51.42265630719487 L 193.35312506880146 53.634375065588415 L 193.35156244480748 55.94921881598418 L 193.35312506880146 56.60390625279399 L 193.3734375424101 59.22578124798599 L 193.3734375424101 63.219531161594205 L 193.35156244480748 64.12031242238595 L 193.35312506880146 65.1648438271834 L 193.35312506880146 66.84453130238694 L 193.3734375424101 68.60546867199014 L 193.3734375424101 73.47968757759077 L 193.39375001600712 76.79765626878941 L 193.3734375424101 81.44609382399358 L 193.3312499712105 83.6374999039923 L 193.3312499712105 85.68593756158373 L 193.35156244480748 86.15703121918489 L 193.35312506880146 86.77109370878895 L 193.43437496321275 87.81562490878855 L 193.3312499712105 89.47499991038353 L 193.35312506880146 90.06874992639064 L 193.35312506880146 91.17421875199068 L 193.3734375424101 92.62890618878885 L 193.35312506880146 93.6726562815835 L 193.3312499712105 96.49921884158391 L 193.35156244480748 97.44140615678623 L 193.35312506880146 98.81328127998859 L 193.35156244480748 100.22656245758992 L 193.35312506880146 102.39765626878943 L 193.3734375424101 108.15234375678699 L 193.3734375424101 112.67812495358521 L 193.39375001600712 119.94921881598418 L 193.39375001600712 123.96328120318935 L 193.4140624896041 127.11718748159478 L 193.4140624896041 137.1312500735861 L 193.43437496321275 138.3601561599877 L 193.43437496321275 147.28984371199044 L 193.45468743680976 149.58359367678645 L 193.45468743680976 153.59765626878948 L 193.47499991040678 154.51953131519258 L 193.4953125888016 157.4070312959841 L 193.55781242881204 161.74843740159417 L 193.57812490240903 162.19921879038452 L 193.57812490240903 163.14140631038458 L 193.59843758080387 164.57499996159459 L 193.63906252800953 167.85158963198774 L 193.63906252800953 172.50078126079165 L 193.65937500160652 175.98203125759028 L 193.61875005441252 178.56249999358556 L 193.61875005441252 191.40390625279394 L 193.59843758080387 193.08281241599468 L 193.59843758080387 205.88281241599475 L 193.57812490240903 207.09140623358542 L 193.57812490240903 210.203906252794 L 193.55781242881204 211.0640625663916 L 193.55781242881204 214.46406246399272 L 193.53593753600725 216.36874997759003 L 193.53593753600725 217.7617186815944 L 193.51562506241027 220.17812500478465 L 193.4953125888016 222.7789062143886 L 193.4953125888016 224.92968755199104 L 193.47499991040678 226.01484369918467 L 193.47499991040678 229.72187504639146 L 193.45468743680976 230.39765626878943 L 193.45468743680976 233.16250009598446 L 193.4140624896041 234.82109378558812 L 193.43437496321275 235.8250000383938 L 193.45468743680976 237.36093757438937 L 193.4953125888016 249.87421880319016 L 193.4953125888016 253.5812499455875 L 193.51562506241027 255.95625000959262 L 193.51562506241027 266.58593751038427 L 193.53749995520337 268.7562500095926 L 193.53593753600725 272.4632811519899 L 193.53749995520337 274.77734379519245 L 193.53593753600725 276.27265617918454 L 193.53749995520337 277.2554688511882 L 193.53593753600725 278.9554687999887 L 193.55781242881204 281.5976562687895 L 193.55781242881204 289.9945312255877 L 193.57812490240903 290.9367187455879 L 193.53593753600725 291.591406182386 L 193.53749995520337 293.78281246719416 L 193.53749995520337 295.42187499519207 L 193.57812490240903 300.3773437951925 L 193.57812490240903 306.56249999358556 L 193.57812490240903 311.80546867199007 L 193.57812490240903 313.9765624831896 L 193.57812490240903 321.7585938431905 L 193.59843758080387 323.7453125631903 L 193.59843758080387 325.3015625727945 L 193.61875005441252 326.6125000703847 L 193.61875005441252 334.1085937663913 L 193.63906252800953 335.807812403189 L 193.63906252800953 339.8632812543889 L 193.65937500160652 340.7234375679866 L 193.65937500160652 342.8531249151914 L 193.67968747520354 344.2664062975906 L 193.67968747520354 345.1882813439937 L 193.69999994881218 347.2156250111875 L 193.7624999936088 348.62890618878885 L 193.7624999936088 358.5203124223859 L 193.74218752001178 359.36015626238657 L 193.74218752001178 360.62968750079165 L 193.7624999936088 362.5140625407919 L 193.7624999936088 365.2585936895921 L 193.78281246720582 367.14218741758964 L 193.78281246720582 368.8835938303848 L 193.8031249408028 370.4804687871947 L 193.8031249408028 373.9625000959844 L 193.82343741441144 375.80546867199007 L 193.82343741441144 378.0374999039923 L 193.8437500928063 381.9085936639924 L 193.8437500928063 383.99765626878946 L 193.88437504001195 385.77890631678747 L 193.88437504001195 388.74921881598425 L 193.90468751360896 391.69765621758995 L 193.90468751360896 392.51718758399363 L 193.88437504001195 394.64687493118686 L 193.88437504001195 399.62343751678713 L 193.90468751360896 400.58593751038427 L 193.88437504001195 402.94140620798566 L 193.90468751360896 403.55625000959265 L 193.90468751360896 405.3171875839937 L 193.92656240640207 406.6281250815839 L 193.92499998720595 408.67578122238626 L 193.92656240640207 409.4539063295931 L 193.92656240640207 413.05859379199103 L 193.92499998720595 415.4343749631895 L 193.92656240640207 416.2531250175904 L 193.92499998720595 419.0796875775908 L 193.92656240640207 421.25078118399256 L 193.94687508480857 423.8921875455883 L 193.94687508480857 428.6851563519915 L 193.94687508480857 435.1156250623869 L 193.92656240640207 436.1187500031898 L 193.92656240640207 437.3273438207922 L 193.94687508480857 444.16796876798617 L 193.94687508480857 448.32499998719436 L 193.96718755840556 450.74218741758955 L 193.96718755840556 459.99843758079226 L 193.98750003200257 460.67499991038346 L 193.94687508480857 462.53828116478394 L 193.96718755840556 465.4257813503849 L 193.96718755840556 469.2351561727934 L 193.98750003200257 470.0953124863911 L 193.98750003200257 471.42656245758985 L 194.0078125056112 473.2492187647847 L 194.02812497920823 479.0453125119908 L 194.0078125056112 480.2531250175904 L 194.02812497920823 481.277343743993 L 194.0078125056112 482.17890631678745 L 194.0078125056112 484.5539061759948 L 194.02812497920823 485.18906245118706 L 194.02812497920823 487.2781250559841 L 193.98750003200257 489.16250009598446 L 193.96718755840556 489.6945311743882 L 193.94687508480857 490.5546874879859 L 193.96718755840556 492.76640624639117 L 193.94687508480857 495.5109375999891 L 193.94687508480857 497.4570311679854 L 194.02812497920823 498.8085938175907 L 193.92656240640207 507.0210936831893 L 193.92656240640207 508.5367187455879 L 193.92499998720595 511.99765626878946 L 193.96718755840556 517.73203128319 L 193.96718755840556 526.6820313087898 L 193.98750003200257 528.258593791991 L 193.98750003200257 537.5976562687895 L 194.0078125056112 541.4679687167867 L 193.96718755840556 544.7453124607913 L 193.98750003200257 546.1578125311877 L 193.98750003200257 553.735937433585 L 194.0078125056112 556.9507813375909 L 193.98750003200257 557.7703124991851 L 193.98750003200257 561.5999999999883 L 193.96718755840556 563.2179687423865 L 193.94687508480857 563.9554686975898 L 193.94687508480857 566.2695313407924 L 193.96718755840556 569.7507813375909 L 193.96718755840556 575.8132811775897 L 193.98750003200257 576.8578125823872 L 193.98750003200257 577.4515625983943 L 194.0078125056112 578.7210938367876 L 194.0078125056112 579.5406249983935 L 194.02812497920823 580.2570311679854 L 193.98750003200257 583.0218749951921 L 193.96718755840556 584.3328124927939 L 193.94687508480857 586.1148436479853 L 194.02812497920823 586.9749999615946 L 194.0078125056112 588.0398438399891 L 194.0078125056112 589.0023438335862 L 194.02812497920823 589.6374999039923 L 194.02812497920823 590.189843660791 L 194.04843745280522 590.7429687295923 L 194.02812497920823 591.5828125695931 L 194.0078125056112 593.6304687103839 L 193.98750003200257 594.7570313215838 L 193.96718755840556 595.2281249791849 L 193.94687508480857 595.9859374079854 L 193.94687508480857 599.2015624191845 L 193.96718755840556 600.1226561535848 L 193.98750003200257 608.0281249791849 L 193.98750003200257 609.9531249663909 L 194.0078125056112 610.4445313023868 L 194.0078125056112 612.1242187775904 L 194.27343749121064 613.9671875583939 L 194.02812497920823 614.5203124223859 L 194.0078125056112 615.0320312319906 L 193.98750003200257 615.5242186751915 L 193.98750003200257 619.1695312895929 L 194.0078125056112 619.9273437183932 L 194.02812497920823 622.1390624767868 L 194.02812497920823 624.8218750975909 L 194.0078125056112 626.1734375423869 L 193.98750003200257 627.9554686975898 L 193.98750003200257 628.89765621759 L 193.96718755840556 630.699218739185 L 193.94687508480857 631.2523438079864 L 193.94687508480857 631.8460938239936 L 193.96718755840556 633.5664062463911 L 193.94687508480857 635.4921875455882 L 193.94687508480857 640.9804687359835 L 193.96718755840556 643.7453125631903 L 193.94687508480857 645.0968750079861 L 193.96718755840556 646.7351562239928 L 193.96718755840556 658.7164061695919 L 193.94687508480857 660.33437491199 L 193.94687508480857 662.4234375167871 L 193.96718755840556 665.5976562687895 L 193.96718755840556 668.9562499071938 L 194.0078125056112 669.5499999231891 L 194.0078125056112 676.2679687167868 L 194.0078125056112 681.0390624255873 L 193.98750003200257 683.1492188159842 L 193.98750003200257 684.0093749247841 L 193.96718755840556 685.4632812543889 L 193.96718755840556 688.7195312127936 L 193.94687508480857 691.1976562687894 L 193.96718755840556 691.7914062847849 L 194.0078125056112 693.368750079989 L 193.98750003200257 694.3718750207918 L 193.96718755840556 697.9148437503842 L 194.02812497920823 700.1882812415948 L 194.02812497920823 703.0960936959949 L 194.04843745280522 703.6289062911877 L 194.02812497920823 704.4070311935851 L 194.02812497920823 706.0249999359949 L 194.0078125056112 706.8234375167871 L 194.0078125056112 708.8304687103839 L 194.02812497920823 709.752343756787 L 194.02812497920823 710.8585936895921 L 194.04843745280522 712.1078124543885 L 194.04843745280522 715.8757812223863 L 194.06874992640223 716.7976562687894 L 194.10937507840572 717.842187468789 L 194.08906240001087 718.6820313087898 L 194.08906240001087 719.9312500735862 L 194.10937507840572 720.8726562815834 L 194.08906240001087 723.8835937279858 L 194.08906240001087 733.7140625407919 L 194.10937507840572 734.9015625727945 L 194.13124997121048 735.6593750015949 L 194.10937507840572 737.6664061951917 L 194.08906240001087 738.6499999743886 L 194.04843745280522 742.3976562687894 L 194.04843745280522 748.2140624895925 L 194.0078125056112 751.4906249215943 L 194.06874992640223 753.3749999615945 L 194.02812497920823 754.4398438399891 L 194.02812497920823 758.1054687231896 L 194.04843745280522 762.2429687807919 L 194.0078125056112 763.1031250943895 L 193.98750003200257 764.0039061503834 L 193.96718755840556 765.7445312511875 L 193.92656240640207 767.9976562687895 L 193.92656240640207 768.9601562623866 L 193.90468751360896 769.9023437823868 L 193.90468751360896 774.5304686591844 L 193.88437504001195 778.3398436863906 L 193.88437504001195 781.0023438335862 L 193.8640625664033 782.4156250111876 L 193.8640625664033 784.0742187007912 L 193.8437500928063 787.1875000319909 L 193.8437500928063 792.4507811839925 L 193.8640625664033 793.5976562687895 L 193.92656240640207 795.768750079989 L 193.92656240640207 797.6523438079864 L 193.92499998720595 800.7656249343884 L 193.90468751360896 801.6664061951917 L 193.90468751360896 803.2437499903841 L 193.92656240640207 805.3937500159839 L 193.92656240640207 808.9164062719908 L 193.92499998720595 810.534375014389 L 193.92656240640207 812.9101561855874 L 193.92656240640207 815.6343750655884 L 193.8640625664033 818.9109374975902 L 191.14062499840512 818.9109374975902 L 190.42343751681037 818.8695312383934 L 187.16718755840557 818.8695312383934 L 183.37812500480794 818.8906250239932 L 179.2218750976026 818.8695312383934 L 171.5625000960077 818.8695312383934 L 169.2890624000109 818.8289062911878 L 167.62968739840434 818.8492187647847 L 165.64218757121125 818.8492187647847 L 161.48593745920806 818.8695312383934 L 154.89062502400483 818.8695312383934 L 153.4984374272055 818.8492187647847 L 147.23125002240994 818.8492187647847 L 144.26249994240933 818.8492187647847 L 140.3906250752043 818.8695312383934 L 135.78281246720582 818.8492187647847 L 134.41093754881294 818.8906250239932 L 124.86718750720611 818.8906250239932 L 118.76406251520385 818.9109374975902 L 114.27968757760246 818.8906250239932 L 109.01562490881187 818.8906250239932 L 102.95312506880146 818.8289062911878 L 101.54062499840511 818.8289062911878 L 96.72812503040768 818.8695312383934 L 93.47187507200287 818.8906250239932 L 81.96093747200212 818.8906250239932 L 77.33281259520444 818.9109374975902 L 76.6984374272055 818.9109374975902 L 68.7312500736094 818.9718749183928 L 66.35625000960427 819.0132811775896 L 65.61875005441252 819.0132811775896 L 62.34218741761288 818.9718749183928 L 61.317187584005296 819.0539063295931 L 60.68281241600634 819.0749999103834 L 57.34531256320188 819.1156250623869 L 53.94531246080296 819.1562500095927 L 51.098437427205496 819.1976562687894 L 49.479687577602455 819.1976562687894 L 46.715625062410254 819.2382812159834 L 45.28125009920914 819.2382812159834 L 41.390624972805384 819.3203124223859 L 38.9734375424101 819.3406251007924 L 34.918750003201424 819.3406251007924 L 33.62812497920822 819.4023438335862 L 29.6359374848078 819.6070311935852 L 28.26249994240934 819.5867187199881 L 26.82968739840435 819.5453124607914 L 25.4984374272055 819.5453124607914 L 24.064062464004383 819.5664062463911 L 11.592380825604778 819.5664062463911 L 7.782812467205804 819.5664062463911 L 3.6468750336091036 819.5664062463911 L 0.0 819.5458839893487" fill="none"/><path stroke="#408040" stroke-width="3" d="M 57.702608979592334 1024.0 L 61.03449599999876 1021.5034880000006 L 70.74406399999862 1011.3679359999994 L 72.60569599999872 1008.5376000000003 L 77.51884800000116 1005.8403839999999 L 81.29331200000016 1003.2107520000005 L 86.89868800000113 1001.5518719999993 L 94.7343359999999 1001.5313920000001 L 99.62700799999875 1000.1182719999997 L 104.70604799999856 997.0913279999993 L 113.72544000000053 990.3063039999994 L 126.34316800000087 989.5198720000001 L 135.31545599999953 988.7129600000001 L 155.58860799999965 981.6248319999999 L 169.96966400000093 976.6440960000007 L 187.4575359999988 976.0542719999997 L 193.39673600000097 973.6417279999994 L 200.3046399999992 972.8409599999999 L 214.21875200000068 974.0595199999996 L 218.36185600000027 974.3400959999999 L 225.98041599999996 973.7687040000004 L 231.8499840000004 970.1744640000004 L 237.77484800000093 969.6542719999998 L 245.77433599999932 970.0270080000003 L 256.58163200000126 969.9430399999998 L 265.37983999999994 969.1545599999997 L 277.22752000000037 969.0480639999994 L 286.7814400000003 968.9292799999996 L 291.5717119999987 967.8847999999998 L 305.53497600000117 960.0122879999996 L 333.47993600000046 943.761408 L 338.5774080000003 940.3617280000005 L 341.70675200000113 937.1238400000002 L 348.33408000000054 930.0029439999998 L 358.6908159999992 918.8884479999994 L 363.29676800000016 913.8872319999995 L 369.8913280000008 903.8950400000001 L 374.42764800000003 896.4935679999995 L 378.580992 892.4733439999997 L 380.18867200000096 890.0710399999996 L 383.4982400000008 887.5601920000001 L 395.8210560000007 880.3471359999996 L 415.391743999999 869.0687999999994 L 438.96422399999864 859.1339519999995 L 448.86015999999944 855.5704320000004 L 489.2897280000005 844.4825599999997 L 522.7171839999995 834.6808319999997 L 531.6956160000002 834.4596479999993 L 543.1603200000012 834.5804799999999 L 547.9895040000004 833.3373439999996 L 556.8942080000008 829.9560960000002 L 562.2271999999997 827.0376959999994 L 565.6842239999999 824.426496 L 570.4335359999998 822.66112 L 573.014016000001 820.9285120000001 L 577.4213120000001 817.0270720000001 L 582.8218880000001 813.703168 L 585.7505280000012 812.0975359999996 L 591.3968640000006 811.0858240000001 L 597.993471999999 809.8058239999998 L 604.7928320000007 807.7414399999994 L 611.0965759999992 806.436864 L 617.814016000001 806.1030400000003 L 622.7599359999992 804.99712 L 630.9601280000003 803.2829440000002 L 636.4979200000001 803.0453760000004 L 649.019391999999 800.2334719999999 L 657.641472 799.0435840000006 L 662.7573759999999 797.6222720000005 L 667.0663679999998 796.1149439999994 L 670.9432319999993 795.6336639999994 L 675.4795520000014 795.5394560000001 L 679.6943360000005 794.5789439999993 L 700.8255999999994 795.0602239999993 L 707.960832 795.2261119999996 L 712.9128960000002 796.2255359999996 L 720.3184639999993 797.827072 L 728.1008639999985 796.9689599999998 L 743.1106559999986 796.8358399999997 L 760.7439359999989 795.4268160000007 L 767.3692160000006 794.6915840000001 L 774.1992960000003 791.6032000000007 L 777.2651520000014 790.9068799999993 L 783.1449599999993 790.7839999999997 L 792.9692160000006 790.8065279999995 L 799.9467520000005 790.523904 L 816.7116799999989 791.0399999999994 L 828.5020159999985 791.5479040000006 L 839.0799360000004 793.6143360000002 L 847.9498239999987 795.0069759999999 L 858.2840319999989 796.2091520000001 L 865.0813439999998 796.0944640000001 L 870.9099519999988 796.9443840000007 L 882.3214080000005 798.8367360000004 L 886.1470720000012 799.4777600000001 L 892.8952320000011 801.4929919999995 L 898.3797759999986 802.1893119999993 L 901.0401279999991 803.7273600000001 L 912.1259519999992 807.8458880000005 L 922.2410239999997 809.9000320000007 L 929.1202560000005 812.6341119999997 L 940.4313599999994 816.2693119999997 L 948.7134720000001 819.4273279999994 L 957.4993920000009 820.9797120000003 L 960.6574079999991 821.6412160000007 L 963.0351360000001 823.4495999999999 L 965.6831999999995 825.8498560000007 L 984.5350399999995 833.7776639999996 L 988.8563200000004 836.3868159999998 L 993.3496320000006 838.0887040000001 L 1000.7326720000012 841.0808319999996 L 1015.1608319999999 846.0083199999993 L 1024.0 849.7337380920013" fill="none"/><path stroke="#408040" stroke-width="3" d="M 3.4121253943274494 1024.0 L 3.9895040000003066 1022.1547519999992 L 4.018176000000676 1016.0189440000001 L 4.093952000001446 1000.6446079999994 L 4.091904000000795 986.3086079999994 L 4.087807999999495 967.5161600000007 L 4.081664000000456 955.5824640000006 L 2.7955199999996694 949.1496960000004 L 1.4295039999997243 946.2251520000005 L 1.6199679999990622 934.0579840000006 L 1.7489919999992707 925.5423999999999 L 0.0 911.2373179247181" fill="none"/><path stroke="#408040" stroke-width="3" d="M 127.3416871966183 0.0 L 137.11769600000116 7.067647999999508 L 151.34310399999958 16.730112000000418 L 181.29919999999984 31.7009919999997 L 233.41465599999938 64.38092800000015 L 233.52934400000086 71.70662400000003 L 246.62835199999972 79.2657919999998 L 252.182527999999 87.36153599999966 L 261.31251200000116 92.5552639999994 L 273.9343359999999 104.42956799999956 L 286.31654400000116 112.1320959999997 L 310.02828800000134 126.23871999999972 L 318.6565120000014 135.2622080000001 L 320.71475199999986 143.23507200000017 L 332.1221120000002 158.88793600000065 L 345.51603199999954 170.7663360000006 L 355.32595199999923 182.48703999999998 L 379.08070400000145 184.14796800000045 L 390.7420160000009 180.76671999999962 L 403.6546559999988 180.67251200000032 L 427.78624000000127 182.27814400000057 L 447.50438399999985 183.6175359999994 L 485.7692160000006 182.97446400000047 L 504.6558720000001 183.66873599999963 L 523.7514239999989 191.64774400000022 L 535.0236160000001 191.0292480000004 L 543.8484480000013 197.5193599999999 L 554.2440960000007 200.87603200000012 L 564.0478720000013 207.4603520000004 L 572.3852799999993 208.23244799999952 L 579.8993920000008 214.56691200000057 L 586.3567359999986 219.71148799999935 L 602.3557120000012 223.5023360000007 L 621.2915199999989 231.4301439999996 L 634.5338879999996 237.29766399999937 L 649.4187520000007 238.37081599999942 L 688.1239039999986 238.39129600000012 L 727.1751679999986 235.26195199999927 L 757.0472960000013 236.99865600000044 L 778.0331520000007 234.70899199999985 L 798.8756480000011 225.53395199999943 L 830.8838400000008 225.0895359999995 L 848.7198719999985 228.04889600000024 L 880.3328000000008 228.76979200000062 L 894.429183999999 223.5371520000001 L 904.0240640000004 223.5269119999997 L 956.5593599999993 222.7793919999997 L 986.6649600000004 223.12140800000054 L 1003.8763520000008 225.62611199999958 L 1022.0605440000014 225.8575360000002 L 1024.0 225.85630162118173" fill="none"/><path stroke="#408040" stroke-width="3" d="M 0.0 586.5836842384131 L 1.9415039999992587 591.1224319999994 L 3.180543999999645 595.1344639999995 L 5.662719999998808 597.776384 L 7.028735999998753 602.4642559999993 L 7.067647999999463 606.7220480000003 L 9.388031999999658 618.5431039999996 L 12.218367999998737 630.0200960000002 L 20.649984000000405 635.7278720000002 L 27.740160000001197 643.3751040000003 L 37.74054400000023 650.7991039999994 L 42.24819199999911 655.7573120000001 L 41.65836800000106 660.6172160000002 L 35.094528000001446 663.2878079999995 L 34.87948800000013 667.6869120000003 L 33.554431999998634 672.4362240000003 L 34.91840000000084 675.8973440000002 L 33.67936000000045 680.9006080000006 L 30.711807999998562 688.5068799999993 L 27.67462400000077 696.0414720000001 L 20.862976000001073 710.4921600000001 L 20.707328000001144 715.7882880000004 L 22.982655999998677 724.6172160000002 L 25.63276799999876 735.1767040000007 L 27.705343999998878 751.220736 L 31.832063999999082 763.7299199999994 L 33.11820799999987 772.9561600000001 L 32.18841599999869 792.4981759999995 L 30.539775999999257 796.7559680000006 L 30.568447999999627 800.4136960000003 L 26.830848000000696 805.4722559999994 L 23.63187200000102 807.6963839999996 L 20.13183999999892 813.9960319999998 L 18.46476799999946 821.0636799999993 L 14.229503999999725 833.3598719999994 L 8.560639999998966 846.6575360000003 L 2.283520000000135 865.921024 L 0.4648959999991348 879.8453760000004 L 0.0 893.0523684668588" fill="none"/><path stroke="#408040" stroke-width="3" d="M 0.0 911.0423459572442 L 1.6691200000001118 922.4724480000004 L 1.4151680000009947 938.4652799999997 L 1.3086719999992056 944.8263680000003 L 2.437119999999413 948.6499840000004 L 4.022271999999066 957.0693119999996 L 4.014079999999376 972.4866559999995 L 4.087807999999495 993.3885439999998 L 3.901439999998547 1022.3288320000007 L 3.457213160727406 1024.0" fill="none"/></svg>