<svg xmlns="http://www.w3.org/2000/svg" width="1024" height="1024"><rect stroke="none" x="0" y="0" width="1024" height="1024" fill="white"/><path stroke="#000000" stroke-width="2" d="M 0.0 1.7192907254648162 L 9.218750464031473 1.624999935971573 L 18.335937536030542 1.726562303956598 L 58.2656245760154 1.726562303956598 L 65.53906278405339 1.8320312319556251 L 83.25781299202936 1.8320312319556251 L 99.2265625600121 1.726562303956598 L 102.50781286403071 1.9335935999406502 L 117.45312460802961 1.8320312319556251 L 142.75000012805685 1.8320312319556251 L 180.2265620480175 1.726562303956598 L 183.29687449603807 1.8320312319556251 L 202.14062489604112 1.726562303956598 L 219.445312512049 1.9335935999406502 L 241.87500032002572 1.726562303956598 L 303.82812467205804 1.726562303956598 L 315.6015626240405 1.5234375679283403 L 394.9609379840549 1.5234375679283403 L 405.30468761600787 1.624999935971573 L 424.65624985605245 1.624999935971573 L 441.4531246080296 1.5234375679283403 L 444.3203123200219 1.5234375679283403 L 447.898437632015 1.624999935971573 L 479.33593702403596 1.624999935971573 L 505.9609374720603 1.5234375679283403 L 510.97656217601616 1.4218751999433152 L 513.5390627840534 0.7031255039619282 L 513.6065146880574 1.0299351039575413 L 514.9765621760162 7.667969023925252 L 516.812499968044 12.890625023923349 L 521.7343754240428 22.617187327938154 L 526.6484377600136 28.96875007991912 L 528.9999994880636 31.832031231955625 L 531.6640624640277 35.007812607917 L 533.6093747200212 37.3632808959228 L 539.2421877760207 45.453124607971404 L 542.6250004480244 49.957030911929905 L 544.0546877440647 51.90234419197077 L 545.79687526403 53.95312537596328 L 550.5078128640307 56.51171839993913 L 554.4999997440609 57.94531225593528 L 560.9531248640269 63.06640588794835 L 564.9453127680463 65.11328153597424 L 566.4765624320135 67.26562508795178 L 567.5078123520361 70.9492183039547 L 569.2421877760207 72.48828108794987 L 574.9765621760162 73.41015654394869 L 579.1796879360336 72.38281215995084 L 581.6328120320104 70.74609356792644 L 586.5468753920286 69.62109337595757 L 591.9765626880107 69.62109337595757 L 596.4843745280523 71.15624959993875 L 601.9140628480236 73.61328127991874 L 604.3671879680478 74.94531276792986 L 606.5156249600113 76.07031295995694 L 615.1171870720573 79.34765670396155 L 619.2187504640315 80.6796871679253 L 628.3281254400499 83.5468748799176 L 639.5937495040125 88.97265663993312 L 641.9453122560517 89.58593740797369 L 653.2109373440617 93.37499955191743 L 658.2343751680455 95.01562470395584 L 663.554688000062 97.06250035192352 L 668.3671879680478 99.10937497596024 L 672.6718750720611 101.16015615995275 L 678.4062504960457 105.15234406397212 L 680.3515627520392 107.19921868795063 L 681.6796876800363 109.5546879999456 L 683.2187504640315 111.80859391996637 L 686.390625280037 114.26562457595719 L 691.8203125760192 116.62109388795216 L 696.4296878080349 118.0546877439483 L 701.9531253760215 119.28515583992703 L 704.3125002240413 119.69140633597272 L 706.8671877120505 121.02343782392563 L 719.3671874560532 122.8671877119341 L 723.968749568041 124.09765580797102 L 734.2109378560563 127.16796825593337 L 736.8749998080311 127.88671897596214 L 739.4375004160102 128.19140607991721 L 741.8906245120452 128.39843737595947 L 750.390625280037 128.80859340797178 L 754.179687424039 128.4999997439445 L 757.3515622400446 128.4999997439445 L 760.53125017602 128.70312550396193 L 763.9062497280538 129.62499993597157 L 767.2890624000574 130.85546905593947 L 770.2578124800348 133.824219135975 L 786.5390622720588 142.22265651193447 L 788.6875002880115 143.44921907194657 L 792.5781248000567 146.21484339196468 L 795.0390620160615 148.26171903993236 L 800.0546877440647 150.8242186239222 L 809.2734371840488 154.61328076792415 L 814.9062502400484 156.96875007991912 L 823.2968744960381 159.93750015995465 L 826.6796871680417 161.16406271996675 L 829.648437248019 162.18749951996142 L 832.8203120640246 162.90625023993198 L 837.2265625600121 163.82812467194162 L 848.7968747520354 166.79687475191895 L 853.4062499840511 166.89843711996218 L 856.7812495360267 166.79687475191895 L 859.9609374720603 166.28515635192161 L 862.109375488013 165.8750003199675 L 867.5390627840534 164.03125043195905 L 872.9609379840549 163.92968703992665 L 874.9062502400484 165.05468723195372 L 877.5703121920233 167.0039060479612 L 881.0546872320119 169.56250009592623 L 882.7968747520354 171.30468761594966 L 885.1484375040163 174.47656243195524 L 887.8125004800386 177.75390617595986 L 891.3984378880123 182.36328140791738 L 894.2656245760154 184.30859366396908 L 896.8203120640246 185.02343782392563 L 900.1015623680432 187.37890611193143 L 906.3437496320112 190.453125119966 L 909.5234375680448 191.47656294394983 L 911.3671874560532 192.9101557759568 L 914.4374999040156 194.34374963195296 L 917.3046876160079 196.69921894394793 L 920.0703129600151 199.25781299197115 L 923.1406254080357 201.61328127991874 L 925.7031249920256 204.378906623926 L 928.1562501120497 206.01562521595042 L 930.6171873280546 207.34765670396155 L 934.0937502720626 209.08984422392678 L 939.2187504640315 210.62500044796616 L 941.0625003520399 211.85156300792005 L 946.179687424039 215.02734335995046 L 948.0234373120475 216.25781247991836 L 950.3750000640284 218.20312473597005 L 953.1406254080357 219.12500019196887 L 955.6015626240405 221.07031244796235 L 958.8749998080311 223.62890649592737 L 960.7187496960396 225.98437478393316 L 961.335937024036 227.82812467194162 L 961.7421875200234 230.08203161595156 L 962.562499584048 232.33203097595833 L 964.3046871040133 233.76562483195448 L 966.6562498560525 234.89453158393735 L 970.9609379840549 236.63281254394678 L 974.5468753920286 237.14453094394412 L 977.2031252480228 237.4531246079714 L 980.9921873920248 238.273437695927 L 985.195312128053 239.50000025593909 L 988.5703127040179 241.44531251193257 L 992.5703127040179 241.9570309119299 L 997.4843750400469 242.06249983992893 L 1001.476562944008 242.57421823992627 L 1005.164062720025 243.08593766397098 L 1010.179687424039 243.28906239994103 L 1013.8671872000559 242.57421823992627 L 1018.4765624320135 241.65234380797483 L 1022.5703127040179 242.3671879679314 L 1024.0 242.09039849595865" fill="none"/><path stroke="#000000" stroke-width="2" d="M 1024.0 242.090398495915 L 1022.5703127040761 242.36718796787318 L 1018.4765624320717 241.65234380785841 L 1013.8671872001141 242.57421823992627 L 1010.179687424039 243.28906239994103 L 1005.1640627200832 243.08593766385457 L 1001.476562944008 242.57421823992627 L 997.4843750401051 242.06249983987072 L 992.5703127040761 241.9570309119299 L 988.5703127040761 241.44531251187436 L 985.1953121281113 239.50000025582267 L 980.9921873920248 238.273437695927 L 977.2031252480228 237.4531246080296 L 974.5468753920868 237.1445309438277 L 970.9609379840549 236.632812544005 L 966.6562498560525 234.89453158387914 L 964.3046871040133 233.76562483195448 L 962.562499584048 232.33203097590012 L 961.7421875200234 230.08203161595156 L 961.335937024036 227.82812467199983 L 960.7187496960978 225.98437478393316 L 958.8749998080311 223.62890649586916 L 955.6015626240405 221.07031244802056 L 953.1406254080939 219.12500019191066 L 950.3750000640866 218.20312473597005 L 948.0234373120475 216.25781247991836 L 946.179687424039 215.02734335995046 L 941.0625003520981 211.85156300786184 L 939.2187504640315 210.62500044796616 L 934.0937502721208 209.08984422386857 L 930.6171873280546 207.34765670390334 L 928.1562501120497 206.01562521589221 L 925.7031249920838 204.3789066238096 L 923.1406254080357 201.61328127980232 L 920.0703129600151 199.25781299191294 L 917.3046876160661 196.69921894388972 L 914.4374999040156 194.34374963189475 L 911.3671874560532 192.9101557758404 L 909.5234375680448 191.47656294394983 L 906.3437496320694 190.45312511990778 L 900.1015623681014 187.37890611193143 L 896.8203120640828 185.02343782386743 L 894.2656245760736 184.30859366385266 L 891.3984378880705 182.36328140780097 L 887.8125004800386 177.75390617595986 L 885.1484375040745 174.47656243189704 L 882.7968747520354 171.30468761594966 L 881.0546872320119 169.56250009592623 L 877.5703121920233 167.0039060478448 L 874.9062502401066 165.05468723195372 L 872.9609379841131 163.92968703986844 L 867.5390627840534 164.03125043184264 L 862.109375488013 165.8750003198511 L 859.9609374720603 166.2851563518634 L 856.7812495360849 166.79687475191895 L 853.4062499840511 166.89843711996218 L 848.7968747520354 166.79687475191895 L 837.2265625600121 163.82812467188342 L 832.8203120640828 162.90625023981556 L 829.648437248019 162.1874995199032 L 826.6796871680417 161.16406271996675 L 823.2968744960963 159.93750015989644 L 814.9062502400484 156.9687500798609 L 809.273437184107 154.61328076786594 L 800.0546877441229 150.8242186239222 L 795.0390620160615 148.26171903993236 L 792.5781248000567 146.21484339190647 L 788.6875002880115 143.44921907183016 L 786.5390622720588 142.22265651193447 L 770.257812480093 133.824219135975 L 767.2890624001157 130.85546905588126 L 763.9062497280538 129.62499993597157 L 760.53125017602 128.70312550390372 L 757.3515622400446 128.4999997438863 L 754.1796874240972 128.4999997438863 L 750.3906252800953 128.80859340791358 L 741.8906245120452 128.39843737590127 L 739.4375004160684 128.19140607991721 L 736.8749998080311 127.88671897584572 L 734.2109378560563 127.16796825593337 L 723.9687495680992 124.09765580802923 L 719.3671874560532 122.8671877119923 L 706.8671877121087 121.02343782392563 L 704.3125002240995 119.69140633597272 L 701.9531253760215 119.28515583992703 L 696.4296878080349 118.0546877438901 L 691.8203125760192 116.62109388783574 L 686.390625280037 114.26562457584077 L 683.2187504640315 111.80859391990816 L 681.6796876800945 109.55468799988739 L 680.3515627520392 107.19921868789243 L 678.4062504961039 105.15234406397212 L 672.6718750721193 101.16015615989454 L 668.367187968106 99.10937497590203 L 663.554688000062 97.0625003518071 L 658.2343751681037 95.01562470401404 L 653.2109373440617 93.37499955185922 L 641.9453122561099 89.58593740791548 L 639.5937495040707 88.97265663987491 L 628.3281254401081 83.5468748799176 L 619.2187504640897 80.6796871679253 L 615.1171870720573 79.34765670384513 L 606.5156249600113 76.07031295995694 L 604.3671879680478 74.94531276792986 L 601.9140628480818 73.61328127991874 L 596.4843745280523 71.15624959993875 L 591.976562688069 69.62109337584116 L 586.5468753920868 69.62109337584116 L 581.6328120320104 70.74609356792644 L 579.1796879360336 72.38281215983443 L 574.9765621760744 73.41015654389048 L 569.2421877760207 72.48828108789166 L 567.5078123520361 70.9492183039547 L 566.4765624320135 67.26562508795178 L 564.9453127681045 65.11328153597424 L 560.9531248640269 63.06640588794835 L 554.4999997440609 57.94531225587707 L 550.5078128640889 56.51171839988092 L 545.7968752640882 53.953125375905074 L 544.0546877440647 51.90234419191256 L 542.6250004480244 49.957030911929905 L 539.2421877760789 45.453124607971404 L 533.6093747200212 37.36328089586459 L 531.6640624640859 35.00781260797521 L 528.9999994881218 31.832031231955625 L 526.6484377600718 28.968750079977326 L 521.7343754240428 22.617187327938154 L 516.812499968044 12.890625023865141 L 514.9765621760162 7.667969023925252 L 513.6065146881156 1.0299351039575413 L 513.5390627840534 0.7031255038455129 L 510.97656217607437 1.4218751998269 L 505.9609374720603 1.5234375678701326 L 479.33593702409416 1.6249999359133653 L 447.8984376320732 1.6249999359133653 L 444.3203123200801 1.5234375678701326 L 441.4531246080296 1.5234375678701326 L 424.65624985605245 1.6249999359133653 L 405.3046876160661 1.6249999359133653 L 394.9609379840549 1.5234375678701326 L 315.60156262409873 1.5234375678701326 L 303.82812467211625 1.7265623038983904 L 241.87500032002572 1.7265623038983904 L 219.4453125121072 1.9335935998824425 L 202.14062489609933 1.7265623038983904 L 183.29687449603807 1.8320312318392098 L 180.2265620480175 1.7265623038983904 L 142.75000012811506 1.8320312318392098 L 117.45312460802961 1.8320312318392098 L 102.50781286403071 1.9335935998824425 L 99.2265625600121 1.7265623038983904 L 83.25781299208757 1.8320312318392098 L 65.5390627841116 1.8320312318392098 L 58.2656245760154 1.7265623038983904 L 18.335937536030542 1.7265623038983904 L 9.218750464031473 1.6249999359133653 L 0.0 1.7192907254066085" fill="none"/></svg>