<svg xmlns="http://www.w3.org/2000/svg" width="1024" height="1024"><rect stroke="none" x="0" y="0" width="1024" height="1024" fill="white"/><path stroke="#000000" stroke-width="2" d="M 201.42187520005973 0.0 L 201.42187520005973 11.046875135973096 L 201.42187520005973 19.85156300792005 L 201.52343756804476 25.38281267194543 L 201.52343756804476 33.88281241594814 L 201.6328120320104 40.74218700797064 L 201.6328120320104 49.753906175959855 L 201.7343754240428 52.4179691519239 L 201.83593779202783 56.207031295925844 L 201.83593779202783 78.52734361594776 L 201.93750016001286 84.67187507194467 L 201.93750016001286 109.96484403195791 L 202.0390625280561 115.08593766397098 L 201.93750016001286 117.85156300792005 L 202.0390625280561 124.30078156793024 L 202.14062489604112 128.9101557759568 L 201.93750016001286 132.18749951996142 L 202.14062489604112 139.66015590395546 L 202.24218726402614 144.6796871679253 L 202.24218726402614 154.5078128639725 L 202.34374963201117 159.93750015995465 L 202.4453120000544 169.35546879994217 L 202.4453120000544 194.34374963195296 L 202.5468753920286 200.89453158393735 L 202.5468753920286 205.30078105593566 L 202.4453120000544 215.640625151922 L 202.34374963201117 223.93750015995465 L 202.34374963201117 233.25390643195715 L 202.24218726402614 239.19531212793663 L 202.24218726402614 242.98437529592775 L 202.5468753920286 253.42578175995732 L 202.5468753920286 256.1914060799172 L 202.55468748806743 258.85546905593947 L 202.4453120000544 263.8710937599535 L 202.4453120000544 266.53515673591755 L 202.65624985605245 278.0039065599558 L 202.5468753920286 281.2812503039604 L 202.55468748806743 288.1406248959247 L 202.65624985605245 293.46484326396603 L 202.65624985605245 315.99218790396117 L 202.5468753920286 318.24609382392373 L 202.5468753920286 335.34765670396155 L 202.65624985605245 338.4179691519239 L 202.5468753920286 348.558594047965 L 202.65624985605245 352.24218726396793 L 202.65624985605245 363.71093708794797 L 202.75781222403748 368.2187499519205 L 202.75781222403748 371.187500031956 L 202.65624985605245 378.558594047965 L 202.75781222403748 385.21484390395926 L 202.65624985605245 393.4101565439487 L 202.75781222403748 397.9140628479654 L 202.65624985605245 404.67187507194467 L 202.65624985605245 412.76171878393507 L 202.55468748806743 421.8750003199675 L 202.5468753920286 427.71093708794797 L 202.4453120000544 438.0546877439483 L 202.4453120000544 457.71484364796197 L 202.34374963201117 465.0898442239268 L 202.34374963201117 472.4609372159466 L 202.24218726402614 483.0078126079752 L 202.24218726402614 503.38671923195943 L 202.14062489604112 509.6328120319522 L 201.7343754240428 512.9101557759568 L 201.52343756804476 521.3046876159497 L 201.42187520005973 527.6562503679306 L 201.21875046403147 535.0273433599505 L 200.91406233602902 543.3203128319583 L 200.91406233602902 546.2929684479604 L 200.812499968044 550.2851563519216 L 200.71093760005897 556.7343749119318 L 200.71093760005897 559.7070315519231 L 200.60156211204594 565.746094079921 L 200.60156211204594 582.027343871945 L 200.49999974406091 586.2265620479593 L 200.39843737601768 588.7890626559383 L 200.29687500803266 598.1054689279408 L 200.29687500803266 603.4296872959239 L 200.19531264004763 607.7304688639706 L 200.19531264004763 610.7031255039619 L 200.29687500803266 618.277344255941 L 200.29687500803266 639.9882813439472 L 200.39843737601768 647.5664066559402 L 200.39843737601768 651.9687495679245 L 200.49999974406091 659.2382812159485 L 200.60156211204594 662.8242186239222 L 200.71093760005897 671.5273441279423 L 200.812499968044 676.9531248639687 L 200.812499968044 706.445311999938 L 200.71093760005897 714.1249996799743 L 200.60156211204594 721.8046873599524 L 200.49999974406091 725.082031103957 L 200.29687500803266 734.9140623359708 L 200.0937502720626 742.5937500159489 L 199.99218790401937 750.0664063999429 L 199.99218790401937 755.4960936959251 L 199.78906214406015 757.746094079921 L 199.78906214406015 764.7109375999426 L 199.6796876800363 767.9882813439472 L 199.68749977601692 772.3906252799206 L 199.47656294406625 779.1484375039581 L 199.27343718404882 785.19140659197 L 199.1718748160638 788.6718750719447 L 198.96875008003553 799.8359377919696 L 198.8671877120505 804.1367183359689 L 198.76562534406548 807.5156254719477 L 198.65624985605245 810.0742184959236 L 198.55468748806743 812.9414062079741 L 198.55468748806743 816.7304683519178 L 198.4531251200242 821.4414059519186 L 198.35156275203917 826.9687500799191 L 198.25000038405415 830.8593745919643 L 197.9453122560517 839.5664066559402 L 197.9453122560517 842.2265620479593 L 197.7343754240428 846.3242188799195 L 197.53124966402538 851.2382812159485 L 197.42968729604036 854.3125002239249 L 197.32812492805533 860.558594047965 L 197.02343782404205 870.3867187199648 L 196.82031206402462 874.4843745279359 L 196.71093760005897 880.3203123199637 L 196.60937523201574 884.3125002239249 L 196.4062504960457 887.8984376319568 L 196.30468710401328 891.8906245119288 L 196.30468710401328 894.9648435199633 L 196.20312473602826 899.4687498239218 L 195.68749977601692 924.453125119966 L 195.68749977601692 929.1640627199668 L 195.5859374080319 936.2304686079733 L 195.48437504004687 942.8867184639676 L 195.1796879360336 958.656249855936 L 195.0781245440594 962.5468753919704 L 195.0781245440594 966.1328127999441 L 194.8671877120505 973.9140628479654 L 194.56249958404806 984.1523435519193 L 194.46093721606303 988.9648435199633 L 194.05468774406472 1004.0195307519753 L 193.84374988806667 1015.285155839927 L 193.74218752002344 1018.9687500799191 L 193.53906278405339 1023.9882813439472 L 193.53867538903432 1024.0" fill="none"/><path stroke="#000000" stroke-width="2" d="M 193.53867538903432 1024.0 L 193.53906278405339 1023.9882813439472 L 193.74218752002344 1018.9687500799191 L 193.84374988806667 1015.285155839927 L 194.05468774406472 1004.0195307519753 L 194.46093721606303 988.9648435199633 L 194.56249958404806 984.1523435519193 L 194.8671877120505 973.9140628479654 L 195.0781245440594 966.1328127999441 L 195.0781245440594 962.5468753919704 L 195.1796879360336 958.656249855936 L 195.48437504004687 942.8867184639676 L 195.5859374080319 936.2304686079733 L 195.68749977601692 929.1640627199668 L 195.68749977601692 924.453125119966 L 196.20312473602826 899.4687498239218 L 196.30468710401328 894.9648435199633 L 196.30468710401328 891.8906245119288 L 196.4062504960457 887.8984376319568 L 196.60937523201574 884.3125002239249 L 196.71093760005897 880.3203123199637 L 196.82031206402462 874.4843745279359 L 197.02343782404205 870.3867187199648 L 197.32812492805533 860.558594047965 L 197.42968729604036 854.3125002239249 L 197.53124966402538 851.2382812159485 L 197.7343754240428 846.3242188799195 L 197.9453122560517 842.2265620479593 L 197.9453122560517 839.5664066559402 L 198.25000038405415 830.8593745919643 L 198.35156275203917 826.9687500799191 L 198.4531251200242 821.4414059519186 L 198.55468748806743 816.7304683519178 L 198.55468748806743 812.9414062079741 L 198.65624985605245 810.0742184959236 L 198.76562534406548 807.5156254719477 L 198.8671877120505 804.1367183359689 L 198.96875008003553 799.8359377919696 L 199.1718748160638 788.6718750719447 L 199.27343718404882 785.19140659197 L 199.47656294406625 779.1484375039581 L 199.68749977601692 772.3906252799206 L 199.6796876800363 767.9882813439472 L 199.78906214406015 764.7109375999426 L 199.78906214406015 757.746094079921 L 199.99218790401937 755.4960936959251 L 199.99218790401937 750.0664063999429 L 200.0937502720626 742.5937500159489 L 200.29687500803266 734.9140623359708 L 200.49999974406091 725.082031103957 L 200.60156211204594 721.8046873599524 L 200.71093760005897 714.1249996799743 L 200.812499968044 706.445311999938 L 200.812499968044 676.9531248639687 L 200.71093760005897 671.5273441279423 L 200.60156211204594 662.8242186239222 L 200.49999974406091 659.2382812159485 L 200.39843737601768 651.9687495679245 L 200.39843737601768 647.5664066559402 L 200.29687500803266 639.9882813439472 L 200.29687500803266 618.277344255941 L 200.19531264004763 610.7031255039619 L 200.19531264004763 607.7304688639706 L 200.29687500803266 603.4296872959239 L 200.29687500803266 598.1054689279408 L 200.39843737601768 588.7890626559383 L 200.49999974406091 586.2265620479593 L 200.60156211204594 582.027343871945 L 200.60156211204594 565.746094079921 L 200.71093760005897 559.7070315519231 L 200.71093760005897 556.7343749119318 L 200.812499968044 550.2851563519216 L 200.91406233602902 546.2929684479604 L 200.91406233602902 543.3203128319583 L 201.21875046403147 535.0273433599505 L 201.42187520005973 527.6562503679306 L 201.52343756804476 521.3046876159497 L 201.7343754240428 512.9101557759568 L 202.14062489604112 509.6328120319522 L 202.24218726402614 503.38671923195943 L 202.24218726402614 483.0078126079752 L 202.34374963201117 472.4609372159466 L 202.34374963201117 465.0898442239268 L 202.4453120000544 457.71484364796197 L 202.4453120000544 438.0546877439483 L 202.5468753920286 427.71093708794797 L 202.55468748806743 421.8750003199675 L 202.65624985605245 412.76171878393507 L 202.65624985605245 404.67187507194467 L 202.75781222403748 397.9140628479654 L 202.65624985605245 393.4101565439487 L 202.75781222403748 385.21484390395926 L 202.65624985605245 378.558594047965 L 202.75781222403748 371.187500031956 L 202.75781222403748 368.2187499519205 L 202.65624985605245 363.71093708794797 L 202.65624985605245 352.24218726396793 L 202.5468753920286 348.558594047965 L 202.65624985605245 338.4179691519239 L 202.5468753920286 335.34765670396155 L 202.5468753920286 318.24609382392373 L 202.65624985605245 315.99218790396117 L 202.65624985605245 293.46484326396603 L 202.55468748806743 288.1406248959247 L 202.5468753920286 281.2812503039604 L 202.65624985605245 278.0039065599558 L 202.4453120000544 266.53515673591755 L 202.4453120000544 263.8710937599535 L 202.55468748806743 258.85546905593947 L 202.5468753920286 256.1914060799172 L 202.5468753920286 253.42578175995732 L 202.24218726402614 242.98437529592775 L 202.24218726402614 239.19531212793663 L 202.34374963201117 233.25390643195715 L 202.34374963201117 223.93750015995465 L 202.4453120000544 215.640625151922 L 202.5468753920286 205.30078105593566 L 202.5468753920286 200.89453158393735 L 202.4453120000544 194.34374963195296 L 202.4453120000544 169.35546879994217 L 202.34374963201117 159.93750015995465 L 202.24218726402614 154.5078128639725 L 202.24218726402614 144.6796871679253 L 202.14062489604112 139.66015590395546 L 201.93750016001286 132.18749951996142 L 202.14062489604112 128.9101557759568 L 202.0390625280561 124.30078156793024 L 201.93750016001286 117.85156300792005 L 202.0390625280561 115.08593766397098 L 201.93750016001286 109.96484403195791 L 201.93750016001286 84.67187507194467 L 201.83593779202783 78.52734361594776 L 201.83593779202783 56.207031295925844 L 201.7343754240428 52.4179691519239 L 201.6328120320104 49.753906175959855 L 201.6328120320104 40.74218700797064 L 201.52343756804476 33.88281241594814 L 201.52343756804476 25.38281267194543 L 201.42187520005973 19.85156300792005 L 201.42187520005973 11.046875135973096 L 201.42187520005973 0.0" fill="none"/></svg>