<svg xmlns="http://www.w3.org/2000/svg" width="1024" height="1024"><rect stroke="none" x="0" y="0" width="1024" height="1024" fill="white"/><path stroke="#000000" stroke-width="2" d="M 1024.0 382.2785586754908 L 1023.1875000320142 382.34765619196696 L 1001.0658816000214 383.88514815992676 L 995.0242816000246 384.39714815997286 L 989.7031249920256 384.7031255039619 L 987.4464593920275 385.01156249595806 L 976.289062912052 385.7265623039566 L 960.921875456057 386.9570314239245 L 956.2146816000459 387.3667481599259 L 947.5078123520361 387.98046924796654 L 926.3138816000428 389.721948159975 L 918.1249996800325 390.33593753597233 L 915.2578129920294 390.02734387194505 L 905.8338816000614 391.2579481599387 L 895.3893816320342 392.4867133439402 L 862.8258816000307 395.04674815991893 L 853.9140628480236 395.66015590395546 L 849.6162816000287 395.9683481599204 L 833.1328122880077 397.0937497599516 L 821.4531246080296 398.11718758393545 L 816.0312504320173 398.6289059839328 L 808.8593745920225 398.93749964796007 L 767.0859376640292 402.3164057599497 L 756.53125017602 403.2382812159485 L 746.9090816000244 404.05794815992704 L 736.9762816000148 404.87714815995423 L 715.6796876800363 406.61718732793815 L 709.1250001920271 407.12890675192466 L 700.0098816000391 407.8467481599655 L 682.7042816000176 409.2803481599549 L 667.546874880034 410.5078128639725 L 657.5156254720059 411.3281249279389 L 639.0818816000246 412.55714815994725 L 635.6015626240405 412.8632811519201 L 623.8242816000129 413.68354815995554 L 617.0625003520399 414.29687500797445 L 600.3750000640284 415.7304688639706 L 596.3810816000332 416.0387481599464 L 585.3218816000153 416.9603481599479 L 578.1562501120497 417.57421875192085 L 573.8515630080365 417.98437478393316 L 557.7762816000613 419.31554815993877 L 554.8046878720634 419.51953100797255 L 525.2109373440617 422.07812505593756 L 512.0034816000261 423.104348159919 L 506.2690816000104 423.5139481599326 L 496.43749990401557 424.33203097595833 L 490.19531264004763 424.84375039994484 L 475.65148160001263 425.971548159956 L 470.42968780803494 426.277344255941 L 446.77468160004355 428.3267481599469 L 441.9618816000293 428.73634815996047 L 438.78906265605474 429.0429685759591 L 435.2034816000378 429.35074815992266 L 419.53628160001244 430.68194815993775 L 405.5074816000415 431.80834815994604 L 392.29687500803266 432.93359411193524 L 382.7734374400461 433.8554685439449 L 351.74999961606227 436.31250022392487 L 321.6418816000223 438.87394815991865 L 318.0546877440065 439.078124543943 L 313.9609374720603 439.48828159994446 L 289.48437504004687 441.53515622392297 L 270.6484377600136 442.9687500799191 L 260.4062504960457 443.78906214394374 L 248.42968780803494 444.8124999679276 L 238.08348160004243 445.6323481599684 L 223.1330816000118 446.96354815992527 L 219.445312512049 447.2695316479658 L 210.1249996800325 448.0898437119322 L 187.70268160005799 449.93314815993654 L 180.94428160000825 450.34274815995013 L 174.90268160001142 450.854748159938 L 156.46875033603283 452.39062527992064 L 146.23068160004914 453.2099481599289 L 117.55111116805347 456.0299479039386 L 109.7734379520407 456.7929692159523 L 101.37948160001542 457.61314815992955 L 84.179687424039 459.1484375039581 L 73.6328120320104 460.07031295995694 L 62.77468160004355 460.4803481599665 L 55.299481600057334 460.7875481599476 L 43.92933990404708 461.81190758396406 L 38.608281600056216 462.3235481599695 L 33.693081600009464 462.8355481599574 L 12.803481600014493 464.6787481599604 L 2.7682816000306047 465.70274815993616 L 0.0 465.9756773317713" fill="none"/><path stroke="#408040" stroke-width="3" d="M 1024.0 273.3077347231301 L 1011.2716800000053 275.59936000000016 L 967.0553599999985 278.12864000000263 L 953.5590399999928 302.3871999999974 L 914.1043199999986 332.3903999999966 L 921.4976000000024 348.04735999999684 L 904.5811200000026 371.5891199999969 L 844.4313600000023 366.2540799999988 L 804.5568000000058 346.5625599999985 L 717.2608000000037 324.13696000000346 L 591.462400000004 278.01600000000326 L 533.9955199999968 279.0604800000001 L 517.3555199999973 214.59967999999935 L 458.95679999999993 181.98528000000078 L 381.5935999999929 174.14143999999942 L 281.2415999999939 169.8918399999966 L 164.53631999999925 149.64736000000266 L 112.78336000000127 165.47839999999997 L 60.702720000001136 201.53343999999925 L 24.166400000001886 205.72159999999712 L 13.60895999999775 226.21184000000358 L 0.0 227.66361245400185" fill="none"/></svg>