<svg xmlns="http://www.w3.org/2000/svg" width="1024" height="1024"><rect stroke="none" x="0" y="0" width="1024" height="1024" fill="white"/><path stroke="#000000" stroke-width="2" d="M 706.6650215630798 0.0 L 707.2812503040186 4.390625279920641 L 708.812499968044 8.382812159950845 L 712.2968750080327 15.449219071946573 L 714.7578122240375 18.726562815951183 L 716.9062502400484 20.67187507194467 L 720.9999994880636 24.56249958393164 L 724.6875002880115 26.304687103955075 L 729.8046873600106 28.148436991963536 L 732.9843752960442 30.91406233597081 L 735.5390627840534 33.57421875192085 L 739.1250001920271 35.7265623039566 L 741.9921879040194 36.953124863968696 L 746.8046878720634 38.695312383933924 L 752.3359375360305 41.05078169592889 L 756.9453127680463 42.6875002879533 L 763.5000002560555 45.76171827194048 L 767.79687526403 49.753906175959855 L 770.2578124800348 53.33593702391954 L 771.6874997760169 56.207031295925844 L 773.023437824042 60.507812863972504 L 773.6328120320104 63.88671897596214 L 773.6328120320104 69.7226557439426 L 773.4296872960404 80.88281292794272 L 771.5859374080319 87.84765644796425 L 769.7421875200234 92.45312511996599 L 767.898437632015 94.91406233597081 L 759.5078123520361 99.92968703992665 L 755.2031252480228 101.87500031996751 L 750.9062502400484 105.05078169592889 L 747.3203128320165 107.30078105593566 L 737.898437632015 112.52343705593375 L 731.1406254080357 115.28906239994103 L 721.6171878400492 119.69140633597272 L 714.7578122240375 122.8671877119341 L 710.0468746240367 125.42578175995732 L 706.562499584048 127.88671897596214 L 702.9765621760162 131.3671874559368 L 705.2343746560509 133.824219135975 L 707.2812503040186 136.28124979196582 L 709.023437824042 138.33203097595833 L 712.710937600059 143.0390620159451 L 714.1406248960411 147.5468748799758 L 713.2187504640315 152.0507811839343 L 711.1718748160638 155.42968729592394 L 708.921875456057 157.68359423993388 L 706.3593748480198 159.11718707194086 L 703.3906247680425 159.62890649592737 L 700.8281251840526 159.42578175995732 L 697.8593751040171 158.9140623359708 L 693.968749568041 157.5820308479597 L 691.1015628800378 156.14843699196354 L 688.6406246400438 154.61328076792415 L 686.0859371520346 152.7695308799739 L 683.7265623040148 151.02734335995046 L 681.2734371840488 148.87890636792872 L 678.3046871040133 145.80468735995237 L 674.921875456057 143.34765670396155 L 672.3593748480198 144.98437529592775 L 669.5937495040125 146.92968755192123 L 666.6250004480244 148.7734374399297 L 663.3515622400446 150.31250022392487 L 659.968749568041 151.43750041595194 L 657.1015628800378 152.25781247991836 L 653.9296870400431 152.97265663993312 L 650.9609379840549 153.69140633597272 L 647.8906245120452 154.20312473597005 L 645.2265625600121 154.81640652794158 L 642.6640629760223 155.53515622392297 L 639.898437632015 156.35156275192276 L 635.3984378880123 157.68359423993388 L 632.53125017602 158.80859340797178 L 627.4062499840511 161.3710940159508 L 624.3359375360305 162.80468787194695 L 621.26562508801 164.33984409592813 L 618.3984373760177 165.97656268795254 L 615.2187504640315 167.51562547194771 L 612.7656253440655 168.6406246399274 L 609.6953128960449 169.76562483195448 L 606.5156249600113 170.89453158393735 L 603.546874880034 172.01953075197525 L 599.1484375040163 172.22265651193447 L 594.4374999040156 171.0976563199656 L 590.7500001280569 169.76562483195448 L 588.1874995200196 167.20703078393126 L 584.6015621120459 161.47265638393583 L 582.8671877120505 154.61328076792415 L 581.9453122560517 148.46875033597462 L 582.4531251200242 143.1406254079193 L 584.6015621120459 138.12499967997428 L 584.6015621120459 135.46484326396603 L 583.7890621440602 132.49218764796387 L 582.4531251200242 129.83203123195563 L 580.6093752320157 126.86328115192009 L 578.562499584048 122.55859404796502 L 576.109375488013 119.07812454394298 L 572.109375488013 116.4179691519239 L 568.53125017602 114.67578163195867 L 563.5078123520361 112.83203174395021 L 559.2109373440617 111.50000025593909 L 552.1406248960411 110.6835937279393 L 546.6171873280546 111.60156262392411 L 536.8828129280591 116.4179691519239 L 532.5859379200265 119.48828159994446 L 530.0234373120475 123.07421900791815 L 528.390625280037 125.7343754239264 L 527.7734379520407 128.39843737595947 L 527.4687498240382 130.6484377599554 L 527.3671874560532 133.92578150396002 L 527.8750003200257 138.7382814719458 L 528.8984371200204 142.7343749119318 L 531.2578129920294 146.62500044796616 L 534.53125017602 150.10546892794082 L 536.9921873920248 152.46093721594661 L 538.2187499520369 154.10156236792682 L 540.4687503360328 157.2734371839324 L 543.9531253760215 161.98437478393316 L 546.8203120640246 165.8750003199675 L 549.5859374080319 169.66406246396946 L 552.5546874880092 174.6835937279393 L 554.0937502720626 177.24218777596252 L 555.1171870720573 179.187500031956 L 556.1406248960411 180.92968755192123 L 556.2421872640261 183.89843763195677 L 555.1171870720573 186.66406297596404 L 553.2734371840488 190.453125119966 L 549.9921879040194 192.29296844796045 L 547.4375004160102 193.93359359994065 L 544.5703127040179 196.80078131193295 L 542.2109378560563 199.66796902392525 L 540.3671879680478 202.2265620479593 L 538.5234370560502 207.14453094394412 L 538.0156252160668 210.11328102392145 L 538.2187499520369 212.98046873597195 L 539.445312512049 217.17968793597538 L 540.5703127040179 220.35156275192276 L 541.9062497280538 223.42578175995732 L 543.7499996160623 226.5976565759629 L 545.898437632015 229.67187455995008 L 548.7656253440655 233.76562483195448 L 551.7343754240428 237.86328166397288 L 554.0859371520346 241.34375014394755 L 555.9296870400431 244.31250022392487 L 557.3671874560532 246.97656217595795 L 558.7968747520354 249.53515622392297 L 560.5390622720588 253.53124966396717 L 561.6640624640277 257.011719167931 L 561.9765626880107 260.902343679918 L 561.4609377280576 264.1796874239226 L 560.6406246400438 266.33203097595833 L 559.4140620800317 268.89062502392335 L 557.4687498240382 271.34765670396155 L 555.0078126080334 273.5000002559391 L 552.0390625280561 275.03515647992026 L 548.7656253440655 276.67187507194467 L 545.79687526403 278.4140625919681 L 543.4375004160102 279.2343746559345 L 539.2421877760207 280.66406297596404 L 532.7890626560547 281.79296870395774 L 527.3671874560532 282.5078128639725 L 523.3671874560532 282.9179688959266 L 520.0937502720626 283.01953126396984 L 514.3593748480198 282.8164065279416 L 510.6718750720611 282.40625049592927 L 507.6015626240405 281.5859374079737 L 502.6875002880115 279.84765644796425 L 498.4843745280523 278.20703129592584 L 495.82812467205804 276.98046873597195 L 492.0390625280561 275.03515647992026 L 490.0859371520346 272.3710935039562 L 488.5546874880092 269.9140628479654 L 487.2187504640315 266.53515673597576 L 487.01562470401404 263.15624959993875 L 486.60937523201574 259.3671874559368 L 486.914062336029 255.16796825593337 L 488.9609379840549 251.99218790396117 L 490.70312550402014 250.3554682879476 L 493.06250035203993 248.8203120639664 L 496.2343751680455 246.87499980797293 L 499.5078123520361 244.92968755192123 L 503.0937497600098 242.98437529592775 L 507.2968744960381 240.11718758393545 L 509.74999961606227 237.0429685759591 L 510.87499980803113 234.89453158393735 L 510.87499980803113 232.43359334394336 L 510.1640622080304 229.8750003199675 L 508.62500044802437 226.0859371519182 L 506.88281292805914 222.80859340797178 L 503.9140628480236 217.48437503993046 L 501.8671872000559 213.79687526397174 L 498.8984371200204 208.37109350395622 L 497.15624960005516 203.35546879994217 L 494.1874995200196 202.6367191039608 L 491.82812467205804 202.43359334394336 L 488.25000038405415 202.53515673597576 L 481.38281267206185 203.76171827194048 L 475.74999961606227 205.71093708794797 L 471.75781273603207 208.37109350395622 L 468.6875002880115 211.33984358393354 L 466.84375040006125 213.90234419197077 L 464.8984371200204 216.97265663993312 L 462.9531248640269 221.88671897596214 L 463.3671874560532 227.3164062719443 L 464.4921876480221 231.4101565439487 L 466.33593753603054 235.40624998393469 L 468.179687424039 240.52343705593375 L 469.1015628800378 243.69921843195334 L 471.24999987205956 246.0546877439483 L 473.39843788801227 248.61328076792415 L 474.42187468806515 250.8671877119341 L 475.546874880034 254.554687487951 L 474.7265628160094 257.7265623039566 L 472.07031296001514 260.4921876479639 L 469.1015628800378 261.824219135975 L 466.84375040006125 262.43749990395736 L 463.6718745600665 263.3593753599562 L 460.70312550402014 264.2812497919658 L 456.3984373760177 264.4882810879499 L 449.84374988806667 265.816406015947 L 446.97656217601616 267.55859353597043 L 445.0312499200227 269.81250047992216 L 443.1875000320142 272.8828129279427 L 442.5781248000567 275.74999961594585 L 442.2656245760154 278.7187496959232 L 442.47656243201345 282.20312473597005 L 444.8281251840526 285.6835942399339 L 446.7734374400461 287.4257817599573 L 448.921875456057 289.6757811199641 L 453.84374988806667 293.97656268795254 L 455.6796876800363 295.921874943946 L 459.26562508801 299.71093708794797 L 462.1328128000605 302.47656243195524 L 464.79687475203536 305.0390620159451 L 466.9453127680463 306.06249983992893 L 470.9374996480183 307.9062497279374 L 476.88281292805914 309.644531711936 L 482.10156236804323 310.4648437759606 L 485.07031244802056 310.56640614394564 L 489.37499955203384 310.66796851193067 L 492.4453120000544 310.4648437759606 L 497.8750003200257 309.85156300792005 L 502.9921873920248 308.92968755192123 L 506.3750000640284 308.21093785593985 L 511.6953128960449 307.187500031956 L 514.8671877120505 306.67578163195867 L 518.3515627520392 306.3671879679314 L 521.3203128320165 306.06249983992893 L 526.2343751680455 305.65234380797483 L 529.2031252480228 305.5507814399316 L 533.1015628800378 305.75390617595986 L 536.4765624320135 306.16406220797217 L 539.648437248019 307.085937663971 L 542.4140625920263 308.7226562559372 L 544.1562501120497 310.0546877439483 L 546.4062504960457 312.4101560319541 L 548.6640629760223 315.48046847997466 L 550.1953126400476 319.06640588794835 L 550.1953126400476 322.75390668795444 L 549.3828126720618 326.2343751679291 L 548.3515627520392 329.71484364796197 L 546.1015623680432 334.42578124796273 L 542.9296875520376 338.52343705593375 L 540.5703127040179 340.8789063679287 L 538.4218746880651 342.92578099196544 L 535.656250368047 345.48437503993046 L 532.7890626560547 348.25000038393773 L 529.4140620800317 350.5039063039585 L 525.4218752000597 352.75390668795444 L 520.6015621120459 356.1367183359689 L 517.6328120320104 358.4882810879499 L 514.7656253440655 361.0507816959289 L 511.39062476804247 364.3281254399335 L 508.3203123200219 368.2187499519205 L 504.42968780803494 371.39062476792606 L 502.1718753280584 373.03124991996447 L 498.79687475203536 375.1796879359754 L 495.10937497601844 377.53515622392297 L 492.0390625280561 378.9687500799191 L 487.93750016001286 380.097655807971 L 483.43750041601015 381.01953126396984 L 479.9531253760215 381.3242183679249 L 476.2656245760154 381.3242183679249 L 472.88281292805914 380.9140623359708 L 469.5078123520361 380.1992191999452 L 466.43749990401557 378.8671877119341 L 463.15624960005516 377.02343782392563 L 459.7812500480213 373.2343746559345 L 456.914062336029 368.2187499519205 L 455.6796876800363 363.0976563199656 L 455.9921879040194 358.5937500159489 L 456.4999997440609 355.10937497596024 L 457.01562470401404 352.34765619196696 L 458.1406248960411 348.66015641595004 L 459.57812531205127 346.3046871039551 L 461.4140620800317 344.0507811839343 L 464.078125056054 342.0039065599558 L 466.84375040006125 340.26171903993236 L 469.8125004800386 338.3164057599497 L 472.1718753280584 336.2695311359712 L 473.19531212805305 333.19531212793663 L 472.89062502403976 328.7929692159523 L 472.5781248000567 326.74609356792644 L 471.554688000062 323.6757811199641 L 469.8125004800386 320.8085934079718 L 466.84375040006125 317.4257817599573 L 463.15624960005516 314.558594047965 L 460.9062502400484 311.79687526397174 L 458.4453120000544 310.15625011193333 L 453.9453122560517 309.44140595191857 L 449.6406251520384 310.4648437759606 L 447.0781245440594 311.38671923195943 L 443.1875000320142 313.84374988795025 L 437.14843750401633 321.11328153597424 L 434.179687424039 322.6484377599554 L 431.4140620800317 323.7773434879491 L 428.0390625280561 327.46484326396603 L 426.19531264004763 330.43359334394336 L 424.3515627520392 333.0937497599516 L 422.0937502720626 335.9609374719439 L 421.38281267206185 339.33984358393354 L 422.60937523201574 342.61718732793815 L 422.812499968044 346.8164065279416 L 423.01562470401404 352.449218559952 L 423.6328120320104 356.6484377599554 L 424.9609379840549 361.3554687999422 L 426.9062502400484 366.47656243195524 L 425.57812531205127 370.3671879679314 L 424.0390625280561 374.4648437759606 L 422.812499968044 378.0468746239203 L 421.7890611200128 381.6328120319522 L 421.6874997760169 383.88671897596214 L 422.71093760005897 393.5117189119337 L 428.34374963201117 405.28515583992703 L 434.9999994880636 413.6835942399339 L 440.7343749120482 423.0039060479612 L 445.546874880034 427.4062499839347 L 449.0312499200227 429.9648440319579 L 452.921875456057 433.2421877759625 L 457.1171870720573 437.44140595191857 L 461.6249999360298 442.25390591996256 L 464.9999994880636 447.2695316479658 L 466.43749990401557 450.1367183359689 L 467.4609377280576 452.80078131193295 L 468.9921873920248 457.20312524796464 L 470.2265620480175 461.30078105593566 L 469.7109370880644 465.6015626239241 L 467.96874956804095 469.39062476792606 L 465.20312524802284 473.38281267194543 L 461.6249999360298 476.14843699196354 L 455.37499955203384 480.24218726396793 L 450.46093721606303 482.29296844796045 L 445.9531253760215 484.1328127999441 L 440.9374996480183 486.4882810879499 L 434.8984371200204 492.4296878079185 L 431.61718784004916 495.29687449592166 L 430.0859371520346 497.0390620159451 L 428.6484377600136 499.69921843195334 L 428.0390625280561 502.4648437759606 L 426.19531264004763 508.30078156793024 L 423.83593779202783 511.1679682559334 L 422.5078128640307 515.3671874559368 L 420.96875008003553 521.1015628799214 L 420.0468746240367 526.3242188799195 L 420.14843699202174 532.3632814079756 L 420.7656253440655 536.8710932479589 L 421.6874997760169 542.4023439359735 L 423.32812492805533 548.7500001279404 L 424.4531251200242 551.6171878399327 L 425.9843747840496 553.6640624639695 L 428.5468753920286 555.816406015947 L 431.4140620800317 557.7617182719405 L 433.7734379520407 559.0898442239268 L 435.8203125760192 560.8320317439502 L 437.66406246402767 563.289062399941 L 439.60937472002115 566.6679685119307 L 441.75781273603207 570.3554682879476 L 443.2968744960381 573.7343754239264 L 444.21093785605626 577.2148439039593 L 444.42187468806515 581.4140620799735 L 443.5000002560555 585.3046876159497 L 441.9609374720603 588.9921873919666 L 440.53125017601997 591.3476567039615 L 438.78906265605474 594.1132810239214 L 434.8984371200204 598.9257809919654 L 432.6406246400438 600.9726566399331 L 429.3671874560532 603.6367185919662 L 425.47656294406625 605.9921879039612 L 421.5859374080319 608.449218559952 L 415.9531253760215 611.8281246719416 L 411.9609374720603 614.2851563519216 L 405.20312524802284 618.277344255941 L 400.1796884480282 621.2500008959323 L 395.3671874560532 623.9101562879514 L 390.65624985605245 625.8554685439449 L 387.1796879360336 626.4726558719412 L 383.898437632015 626.8789063679287 L 380.7265628160094 627.085937663971 L 377.2421877760207 627.4960936959251 L 373.8671872000559 628.3125002239249 L 370.078125056054 629.644531711936 L 367.2109373440617 630.8749998079729 L 363.92968704004306 632.4101560319541 L 360.5546874880092 634.1523435519193 L 355.84374988806667 636.3007815679302 L 352.6718750720611 637.8359377919696 L 350.00781209603883 639.5781253119349 L 352.97656217601616 643.2656250879518 L 350.4140625920263 646.7460935679264 L 348.3671879680478 649.6132812799187 L 341.20312524802284 660.8789063679287 L 341.20312524802284 665.9960934399278 L 343.4531246080296 671.7304688639706 L 347.64843724801904 680.1289062399301 L 349.70312499202555 686.6835937279393 L 350.7265628160094 688.4218746879487 L 350.8281251840526 693.5429683199618 L 349.8046873600106 695.6914063359727 L 345.9140628480236 701.3242183679249 L 338.6406246400438 703.4765629439498 L 329.6328120320104 703.4765629439498 L 321.5390627840534 700.6093752319575 L 317.445312512049 697.7421875199652 L 314.2656245760154 693.644531711936 L 313.65625036804704 686.3750000639702 L 315.0859376640292 680.4335933439434 L 315.70312499202555 677.7734379519243 L 321.0312499200227 669.7851566079189 L 326.5546874880092 661.285155839927 L 328.0937502720626 656.9843752959277 L 329.52343756804476 652.277344255941 L 330.8593745920225 648.0781250559376 L 331.3671874560532 644.3906252799206 L 329.1171870720573 643.9804692479665 L 322.15625011204975 645.4140620799735 L 316.92968755203765 646.5429688319564 L 312.7343749120482 647.7695313919685 L 305.97656268801074 649.6132812799187 L 294.4062504960457 651.4570311679272 L 290.51562496001134 651.6601559039555 L 284.98437529604416 651.8671871999395 L 282.2187499520369 651.6601559039555 L 277.4062499840511 651.0468751359731 L 271.8750003200257 649.714843647962 L 264.60156211204594 647.9765626879525 L 255.89843763201497 647.2578129919712 L 250.88281292805914 647.6679690239253 L 246.47656243201345 649.2031252479646 L 243.60937472002115 650.5351567359758 L 240.74218700802885 652.4804689919692 L 238.28906291205203 655.9609374719439 L 237.36718745605322 660.7734374399297 L 237.26562508800998 664.8710932479589 L 238.18749952001963 669.5820308479597 L 241.46093772805762 673.6757811199641 L 246.78906265605474 677.7734379519243 L 250.2656245760154 680.4374999039574 L 253.546874880034 682.8945315839374 L 256.51562496001134 684.4296878079185 L 258.7656253440655 687.3984378879541 L 260.921875456057 690.3671879679314 L 262.4531251200242 693.85156300792 L 263.78906214406015 696.8203120639664 L 264.71093760005897 700.097655807971 L 265.42187520005973 702.0429690879537 L 265.6328120320104 705.6249999359716 L 265.2187504640315 710.027343871945 L 263.57812531205127 713.714843647962 L 261.5312496640254 716.8906250239233 L 259.0781245440594 720.167968767928 L 256.61718732805457 723.4453125119326 L 253.24218777602073 727.746094079921 L 250.57812480005668 730.3046871039551 L 247.29687449603807 732.453125119966 L 244.53125017601997 734.2968750079744 L 239.51562547206413 736.8593745919643 L 235.92968704004306 737.2695316479658 L 233.1718748160638 737.3710940159508 L 229.27343718404882 737.0625003519235 L 225.4921871360275 736.550780927937 L 222.4140625920263 736.2421872639679 L 219.1406254080357 736.0390625279397 L 215.75781273603207 735.7304688639706 L 212.07031296001514 735.4257817599573 L 208.59375001606531 735.0156247039558 L 204.60156211204594 734.7070310399286 L 201.83593779202783 734.7070310399286 L 198.35156275203917 735.6289064959274 L 193.74218752002344 737.4726563839358 L 188.00781209603883 738.3945308159455 L 183.50781235203613 739.5195310079725 L 180.42968780803494 740.7500001279404 L 176.9531248640269 743.0000005119364 L 173.98437478404958 745.6640624639695 L 172.4453120000544 747.917968383932 L 171.42187520005973 750.9882808319526 L 170.49999974406091 754.2656245759572 L 169.47656294406625 758.4648437759606 L 168.65624985605245 762.0468746239203 L 167.32812492805533 766.554687487951 L 165.89062451204518 772.2890629119356 L 164.8671877120505 777.4101565439487 L 163.74218752002344 783.3476567039615 L 163.74218752002344 788.3632814079756 L 164.25000038405415 791.539062783937 L 163.84374988806667 795.5312496639672 L 162.7187496960396 799.1171870719409 L 161.59374950401252 801.8828124159481 L 160.15625011204975 805.2617185279378 L 158.3125002240413 809.0507816959289 L 155.8593751040171 812.5312501759618 L 151.24999987205956 809.8671871999395 L 146.74218700802885 807.4101565439487 L 142.33593753603054 807.2070307839313 L 136.60156211204594 806.796874751919 L 133.02343782404205 805.9765626879525 L 127.89843763201497 804.7500001279404 L 123.80468736001058 803.4179686399293 L 120.6328125440632 801.7812500479631 L 116.12499968003249 799.1171870719409 L 111.71875020803418 796.453125119966 L 107.92968704004306 794.20312473597 L 104.14062489604112 791.3359370239195 L 102.30468710401328 788.8789063679287 L 100.86718771205051 785.8046873599524 L 99.74218752002344 782.4257812479627 L 98.51562496001134 778.3281254399335 L 95.43750041601015 773.92578150396 L 89.70312499202555 772.1874995199614 L 85.10156288003782 771.6757811199641 L 79.87500032002572 771.4687498239218 L 72.49999974406091 773.824219135975 L 68.10156236804323 778.023437311931 L 64.61718732805457 782.9374996479601 L 64.41406259202631 790.6171873279382 L 65.33593702403596 795.1250001919689 L 66.25781248003477 799.1171870719409 L 67.38281267206185 801.5742187519209 L 69.6328120320104 804.8515624959255 L 72.49999974406091 808.1289062399301 L 74.8593745920225 810.5859379199683 L 77.10937497601844 812.9414062079741 L 79.46874982403824 815.6015626239241 L 82.02343731204746 818.2656245759572 L 84.179687424039 820.5195315199671 L 86.93749964801827 823.078124543943 L 91.54687488003401 826.0468746239203 L 96.05468774406472 828.1992191999452 L 100.66406297602225 830.1445314559387 L 105.47656294406625 832.3984373759595 L 107.82812467205804 833.7304688639706 L 110.69531238405034 834.7539066879544 L 114.07812505605398 837.0039060479612 L 119.09374976000981 835.5703121919651 L 124.52343705605017 834.0351559679257 L 128.61718732805457 835.9804692479665 L 132.30468710401328 836.5937500159489 L 135.89062451204518 836.1874995199614 L 138.8593745920225 835.5703121919651 L 141.52343756804476 834.2421872639679 L 144.28124979202403 833.2148439039593 L 147.86718720005592 832.6015621119295 L 152.47656243201345 832.8085934079718 L 156.57031270401785 833.5234375679283 L 159.43750041601015 834.445311999938 L 162.92187545605702 835.3671874559368 L 167.11718707205728 835.7773434879491 L 170.0937502720626 835.3671874559368 L 174.69531238405034 834.8554690559395 L 178.69531238405034 834.9570314239245 L 181.7656248320127 835.3671874559368 L 185.4531246080296 835.9804692479665 L 188.82812518405262 837.0039060479612 L 192.10937548801303 838.8476559359697 L 194.56249958404806 841.3046876159497 L 195.5859374080319 843.3554687999422 L 196.4062504960457 845.8125004799222 L 197.12500019202707 849.3945313279401 L 197.53124966402538 853.4921871359693 L 197.42968729604036 856.3593748479616 L 196.812499968044 858.5078128639725 L 195.89843763201497 860.7617187839351 L 193.6406220800127 864.3476531199412 L 191.28906240005745 867.5195310079725 L 188.523436032061 870.4882790399715 L 184.6328125440632 874.0742184959236 L 181.66406246402767 876.5312501759618 L 178.48437452805229 878.5781247999403 L 173.7734379520407 880.8320317439502 L 167.83593779202783 882.7773439999437 L 161.79687526402995 883.4960936959251 L 156.46875033603283 883.8007807999384 L 150.01562521606684 883.187500031956 L 142.9531248640269 881.4453125119326 L 138.65624985605245 880.1171875839354 L 135.27343718404882 878.4765624319552 L 132.4062504960457 876.4296878079185 L 128.4140625920263 873.1523440639721 L 126.16406220803037 872.3320309759583 L 122.98437529604416 870.796874751919 L 119.71093708806438 868.8515624959255 L 116.84375040006125 866.5976565759629 L 107.82812467205804 859.2265625599539 L 105.27343718404882 858.3046871039551 L 103.01562470401404 857.1796879359754 L 99.64062515203841 855.746094079921 L 96.3593748480198 855.437500415952 L 92.16406220803037 854.5156249599531 L 81.92187494406244 860.453125119966 L 70.4531251200242 867.4179686399293 L 63.39062476804247 871.718750207976 L 59.18750003201421 874.3828121599508 L 52.74218700802885 878.4765624319552 L 47.3124997120467 881.8554685439449 L 45.06250035203993 884.6210938879522 L 43.11718707205728 887.6914063359727 L 41.679687680036295 891.1757813759614 L 42.499999744060915 895.8867189759621 L 43.82812467205804 898.9570314239245 L 45.6718745600665 901.6210933759576 L 48.5390622720588 905.1015628799214 L 50.69531238405034 907.7656248319545 L 52.74218700802885 910.0156252159504 L 54.99218739202479 911.9609374719439 L 58.16406220803037 914.2148433919647 L 63.39062476804247 916.980468735972 L 70.04687462403672 920.6679685119307 L 74.34374963201117 923.6367185919662 L 79.46874982403824 927.0156247039558 L 83.56250009604264 928.7539066879544 L 87.14843750401633 928.9609379839385 L 90.83593728003325 928.550780927937 L 96.87499980803113 927.8320312319556 L 101.27343718404882 927.0156247039558 L 104.35156275203917 925.9921879039612 L 108.03906252805609 924.2500003839377 L 111.00781260803342 923.6367185919662 L 113.97656268801074 923.7382809599512 L 119.29687449603807 924.7617187839351 L 124.00781209603883 927.1171870719409 L 126.3671879680478 928.8593745919643 L 129.03124992002267 932.7500001279404 L 130.97656217601616 935.1054684159462 L 132.4062504960457 938.3828121599508 L 132.0000000000582 943.0898442239268 L 130.97656217601616 946.0624998399289 L 128.92187545605702 949.4414059519186 L 123.90624972805381 954.9687500799191 L 120.73437491204822 958.554687487951 L 118.58593792002648 961.5234375679283 L 116.42968780803494 964.2890629119356 L 114.89843712002039 967.2578129919712 L 114.07812505605398 970.3281254399335 L 113.66406246402767 975.2460933119291 L 114.48437452805229 980.4687503359746 L 115.50781235203613 984.3593748479616 L 115.60937472002115 989.4804684799747 L 114.07812505605398 992.7539066879544 L 112.23437516804552 995.1093749759602 L 109.26556262403028 996.9531504639308 L 104.25000038405415 999.2070307839313 L 99.74218752002344 1000.2304686079733 L 95.95312537602149 1000.7421870079706 L 90.01562521600863 1001.4609377279412 L 86.42968780803494 1001.4609377279412 L 82.23437516804552 1000.6406246399274 L 79.05468723201193 1000.2304686079733 L 72.49999974406091 1002.1757808639668 L 66.66406297602225 1004.3281254399335 L 58.67968716804171 1005.5546879999456 L 50.89843712002039 1005.7617182719405 L 47.92968704004306 1005.1445309439441 L 42.499999744060915 1003.3007810559357 L 30.007812096038833 1001.8671871999395 L 23.65625036804704 1002.1757808639668 L 17.71875020803418 1002.9960939519224 L 12.289062912052032 1004.5312501759618 L 19.156249600055162 1020.4023439359735 L 20.202113647348597 1024.0" fill="none"/><path stroke="#000000" stroke-width="2" d="M 20.202113647348597 1024.0 L 19.156249600055162 1020.4023439359735 L 12.289062912052032 1004.5312501759618 L 17.71875020803418 1002.9960939519224 L 23.65625036804704 1002.1757808639668 L 30.007812096038833 1001.8671871999395 L 42.499999744060915 1003.3007810559357 L 47.92968704004306 1005.1445309439441 L 50.89843712002039 1005.7617182719405 L 58.67968716804171 1005.5546879999456 L 66.66406297602225 1004.3281254399335 L 72.49999974406091 1002.1757808639668 L 79.05468723201193 1000.2304686079733 L 82.23437516804552 1000.6406246399274 L 86.42968780803494 1001.4609377279412 L 90.01562521600863 1001.4609377279412 L 95.95312537602149 1000.7421870079706 L 99.74218752002344 1000.2304686079733 L 104.25000038405415 999.2070307839313 L 109.26556262403028 996.9531504639308 L 112.23437516804552 995.1093749759602 L 114.07812505605398 992.7539066879544 L 115.60937472002115 989.4804684799747 L 115.50781235203613 984.3593748479616 L 114.48437452805229 980.4687503359746 L 113.66406246402767 975.2460933119291 L 114.07812505605398 970.3281254399335 L 114.89843712002039 967.2578129919712 L 116.42968780803494 964.2890629119356 L 118.58593792002648 961.5234375679283 L 120.73437491204822 958.554687487951 L 123.90624972805381 954.9687500799191 L 128.92187545605702 949.4414059519186 L 130.97656217601616 946.0624998399289 L 132.0000000000582 943.0898442239268 L 132.4062504960457 938.3828121599508 L 130.97656217601616 935.1054684159462 L 129.03124992002267 932.7500001279404 L 126.3671879680478 928.8593745919643 L 124.00781209603883 927.1171870719409 L 119.29687449603807 924.7617187839351 L 113.97656268801074 923.7382809599512 L 111.00781260803342 923.6367185919662 L 108.03906252805609 924.2500003839377 L 104.35156275203917 925.9921879039612 L 101.27343718404882 927.0156247039558 L 96.87499980803113 927.8320312319556 L 90.83593728003325 928.550780927937 L 87.14843750401633 928.9609379839385 L 83.56250009604264 928.7539066879544 L 79.46874982403824 927.0156247039558 L 74.34374963201117 923.6367185919662 L 70.04687462403672 920.6679685119307 L 63.39062476804247 916.980468735972 L 58.16406220803037 914.2148433919647 L 54.99218739202479 911.9609374719439 L 52.74218700802885 910.0156252159504 L 50.69531238405034 907.7656248319545 L 48.5390622720588 905.1015628799214 L 45.6718745600665 901.6210933759576 L 43.82812467205804 898.9570314239245 L 42.499999744060915 895.8867189759621 L 41.679687680036295 891.1757813759614 L 43.11718707205728 887.6914063359727 L 45.06250035203993 884.6210938879522 L 47.3124997120467 881.8554685439449 L 52.74218700802885 878.4765624319552 L 59.18750003201421 874.3828121599508 L 63.39062476804247 871.718750207976 L 70.4531251200242 867.4179686399293 L 81.92187494406244 860.453125119966 L 92.16406220803037 854.5156249599531 L 96.3593748480198 855.437500415952 L 99.64062515203841 855.746094079921 L 103.01562470401404 857.1796879359754 L 105.27343718404882 858.3046871039551 L 107.82812467205804 859.2265625599539 L 116.84375040006125 866.5976565759629 L 119.71093708806438 868.8515624959255 L 122.98437529604416 870.796874751919 L 126.16406220803037 872.3320309759583 L 128.4140625920263 873.1523440639721 L 132.4062504960457 876.4296878079185 L 135.27343718404882 878.4765624319552 L 138.65624985605245 880.1171875839354 L 142.9531248640269 881.4453125119326 L 150.01562521606684 883.187500031956 L 156.46875033603283 883.8007807999384 L 161.79687526402995 883.4960936959251 L 167.83593779202783 882.7773439999437 L 173.7734379520407 880.8320317439502 L 178.48437452805229 878.5781247999403 L 181.66406246402767 876.5312501759618 L 184.6328125440632 874.0742184959236 L 188.523436032061 870.4882790399715 L 191.28906240005745 867.5195310079725 L 193.6406220800127 864.3476531199412 L 195.89843763201497 860.7617187839351 L 196.812499968044 858.5078128639725 L 197.42968729604036 856.3593748479616 L 197.53124966402538 853.4921871359693 L 197.12500019202707 849.3945313279401 L 196.4062504960457 845.8125004799222 L 195.5859374080319 843.3554687999422 L 194.56249958404806 841.3046876159497 L 192.10937548801303 838.8476559359697 L 188.82812518405262 837.0039060479612 L 185.4531246080296 835.9804692479665 L 181.7656248320127 835.3671874559368 L 178.69531238405034 834.9570314239245 L 174.69531238405034 834.8554690559395 L 170.0937502720626 835.3671874559368 L 167.11718707205728 835.7773434879491 L 162.92187545605702 835.3671874559368 L 159.43750041601015 834.445311999938 L 156.57031270401785 833.5234375679283 L 152.47656243201345 832.8085934079718 L 147.86718720005592 832.6015621119295 L 144.28124979202403 833.2148439039593 L 141.52343756804476 834.2421872639679 L 138.8593745920225 835.5703121919651 L 135.89062451204518 836.1874995199614 L 132.30468710401328 836.5937500159489 L 128.61718732805457 835.9804692479665 L 124.52343705605017 834.0351559679257 L 119.09374976000981 835.5703121919651 L 114.07812505605398 837.0039060479612 L 110.69531238405034 834.7539066879544 L 107.82812467205804 833.7304688639706 L 105.47656294406625 832.3984373759595 L 100.66406297602225 830.1445314559387 L 96.05468774406472 828.1992191999452 L 91.54687488003401 826.0468746239203 L 86.93749964801827 823.078124543943 L 84.179687424039 820.5195315199671 L 82.02343731204746 818.2656245759572 L 79.46874982403824 815.6015626239241 L 77.10937497601844 812.9414062079741 L 74.8593745920225 810.5859379199683 L 72.49999974406091 808.1289062399301 L 69.6328120320104 804.8515624959255 L 67.38281267206185 801.5742187519209 L 66.25781248003477 799.1171870719409 L 65.33593702403596 795.1250001919689 L 64.41406259202631 790.6171873279382 L 64.61718732805457 782.9374996479601 L 68.10156236804323 778.023437311931 L 72.49999974406091 773.824219135975 L 79.87500032002572 771.4687498239218 L 85.10156288003782 771.6757811199641 L 89.70312499202555 772.1874995199614 L 95.43750041601015 773.92578150396 L 98.51562496001134 778.3281254399335 L 99.74218752002344 782.4257812479627 L 100.86718771205051 785.8046873599524 L 102.30468710401328 788.8789063679287 L 104.14062489604112 791.3359370239195 L 107.92968704004306 794.20312473597 L 111.71875020803418 796.453125119966 L 116.12499968003249 799.1171870719409 L 120.6328125440632 801.7812500479631 L 123.80468736001058 803.4179686399293 L 127.89843763201497 804.7500001279404 L 133.02343782404205 805.9765626879525 L 136.60156211204594 806.796874751919 L 142.33593753603054 807.2070307839313 L 146.74218700802885 807.4101565439487 L 151.24999987205956 809.8671871999395 L 155.8593751040171 812.5312501759618 L 158.3125002240413 809.0507816959289 L 160.15625011204975 805.2617185279378 L 161.59374950401252 801.8828124159481 L 162.7187496960396 799.1171870719409 L 163.84374988806667 795.5312496639672 L 164.25000038405415 791.539062783937 L 163.74218752002344 788.3632814079756 L 163.74218752002344 783.3476567039615 L 164.8671877120505 777.4101565439487 L 165.89062451204518 772.2890629119356 L 167.32812492805533 766.554687487951 L 168.65624985605245 762.0468746239203 L 169.47656294406625 758.4648437759606 L 170.49999974406091 754.2656245759572 L 171.42187520005973 750.9882808319526 L 172.4453120000544 747.917968383932 L 173.98437478404958 745.6640624639695 L 176.9531248640269 743.0000005119364 L 180.42968780803494 740.7500001279404 L 183.50781235203613 739.5195310079725 L 188.00781209603883 738.3945308159455 L 193.74218752002344 737.4726563839358 L 198.35156275203917 735.6289064959274 L 201.83593779202783 734.7070310399286 L 204.60156211204594 734.7070310399286 L 208.59375001606531 735.0156247039558 L 212.07031296001514 735.4257817599573 L 215.75781273603207 735.7304688639706 L 219.1406254080357 736.0390625279397 L 222.4140625920263 736.2421872639679 L 225.4921871360275 736.550780927937 L 229.27343718404882 737.0625003519235 L 233.1718748160638 737.3710940159508 L 235.92968704004306 737.2695316479658 L 239.51562547206413 736.8593745919643 L 244.53125017601997 734.2968750079744 L 247.29687449603807 732.453125119966 L 250.57812480005668 730.3046871039551 L 253.24218777602073 727.746094079921 L 256.61718732805457 723.4453125119326 L 259.0781245440594 720.167968767928 L 261.5312496640254 716.8906250239233 L 263.57812531205127 713.714843647962 L 265.2187504640315 710.027343871945 L 265.6328120320104 705.6249999359716 L 265.42187520005973 702.0429690879537 L 264.71093760005897 700.097655807971 L 263.78906214406015 696.8203120639664 L 262.4531251200242 693.85156300792 L 260.921875456057 690.3671879679314 L 258.7656253440655 687.3984378879541 L 256.51562496001134 684.4296878079185 L 253.546874880034 682.8945315839374 L 250.2656245760154 680.4374999039574 L 246.78906265605474 677.7734379519243 L 241.46093772805762 673.6757811199641 L 238.18749952001963 669.5820308479597 L 237.26562508800998 664.8710932479589 L 237.36718745605322 660.7734374399297 L 238.28906291205203 655.9609374719439 L 240.74218700802885 652.4804689919692 L 243.60937472002115 650.5351567359758 L 246.47656243201345 649.2031252479646 L 250.88281292805914 647.6679690239253 L 255.89843763201497 647.2578129919712 L 264.60156211204594 647.9765626879525 L 271.8750003200257 649.714843647962 L 277.4062499840511 651.0468751359731 L 282.2187499520369 651.6601559039555 L 284.98437529604416 651.8671871999395 L 290.51562496001134 651.6601559039555 L 294.4062504960457 651.4570311679272 L 305.97656268801074 649.6132812799187 L 312.7343749120482 647.7695313919685 L 316.92968755203765 646.5429688319564 L 322.15625011204975 645.4140620799735 L 329.1171870720573 643.9804692479665 L 331.3671874560532 644.3906252799206 L 330.8593745920225 648.0781250559376 L 329.52343756804476 652.277344255941 L 328.0937502720626 656.9843752959277 L 326.5546874880092 661.285155839927 L 321.0312499200227 669.7851566079189 L 315.70312499202555 677.7734379519243 L 315.0859376640292 680.4335933439434 L 313.65625036804704 686.3750000639702 L 314.2656245760154 693.644531711936 L 317.445312512049 697.7421875199652 L 321.5390627840534 700.6093752319575 L 329.6328120320104 703.4765629439498 L 338.6406246400438 703.4765629439498 L 345.9140628480236 701.3242183679249 L 349.8046873600106 695.6914063359727 L 350.8281251840526 693.5429683199618 L 350.7265628160094 688.4218746879487 L 349.70312499202555 686.6835937279393 L 347.64843724801904 680.1289062399301 L 343.4531246080296 671.7304688639706 L 341.20312524802284 665.9960934399278 L 341.20312524802284 660.8789063679287 L 348.3671879680478 649.6132812799187 L 350.4140625920263 646.7460935679264 L 352.97656217601616 643.2656250879518 L 350.00781209603883 639.5781253119349 L 352.6718750720611 637.8359377919696 L 355.84374988806667 636.3007815679302 L 360.5546874880092 634.1523435519193 L 363.92968704004306 632.4101560319541 L 367.2109373440617 630.8749998079729 L 370.078125056054 629.644531711936 L 373.8671872000559 628.3125002239249 L 377.2421877760207 627.4960936959251 L 380.7265628160094 627.085937663971 L 383.898437632015 626.8789063679287 L 387.1796879360336 626.4726558719412 L 390.65624985605245 625.8554685439449 L 395.3671874560532 623.9101562879514 L 400.1796884480282 621.2500008959323 L 405.20312524802284 618.277344255941 L 411.9609374720603 614.2851563519216 L 415.9531253760215 611.8281246719416 L 421.5859374080319 608.449218559952 L 425.47656294406625 605.9921879039612 L 429.3671874560532 603.6367185919662 L 432.6406246400438 600.9726566399331 L 434.8984371200204 598.9257809919654 L 438.78906265605474 594.1132810239214 L 440.53125017601997 591.3476567039615 L 441.9609374720603 588.9921873919666 L 443.5000002560555 585.3046876159497 L 444.42187468806515 581.4140620799735 L 444.21093785605626 577.2148439039593 L 443.2968744960381 573.7343754239264 L 441.75781273603207 570.3554682879476 L 439.60937472002115 566.6679685119307 L 437.66406246402767 563.289062399941 L 435.8203125760192 560.8320317439502 L 433.7734379520407 559.0898442239268 L 431.4140620800317 557.7617182719405 L 428.5468753920286 555.816406015947 L 425.9843747840496 553.6640624639695 L 424.4531251200242 551.6171878399327 L 423.32812492805533 548.7500001279404 L 421.6874997760169 542.4023439359735 L 420.7656253440655 536.8710932479589 L 420.14843699202174 532.3632814079756 L 420.0468746240367 526.3242188799195 L 420.96875008003553 521.1015628799214 L 422.5078128640307 515.3671874559368 L 423.83593779202783 511.1679682559334 L 426.19531264004763 508.30078156793024 L 428.0390625280561 502.4648437759606 L 428.6484377600136 499.69921843195334 L 430.0859371520346 497.0390620159451 L 431.61718784004916 495.29687449592166 L 434.8984371200204 492.4296878079185 L 440.9374996480183 486.4882810879499 L 445.9531253760215 484.1328127999441 L 450.46093721606303 482.29296844796045 L 455.37499955203384 480.24218726396793 L 461.6249999360298 476.14843699196354 L 465.20312524802284 473.38281267194543 L 467.96874956804095 469.39062476792606 L 469.7109370880644 465.6015626239241 L 470.2265620480175 461.30078105593566 L 468.9921873920248 457.20312524796464 L 467.4609377280576 452.80078131193295 L 466.43749990401557 450.1367183359689 L 464.9999994880636 447.2695316479658 L 461.6249999360298 442.25390591996256 L 457.1171870720573 437.44140595191857 L 452.921875456057 433.2421877759625 L 449.0312499200227 429.9648440319579 L 445.546874880034 427.4062499839347 L 440.7343749120482 423.0039060479612 L 434.9999994880636 413.6835942399339 L 428.34374963201117 405.28515583992703 L 422.71093760005897 393.5117189119337 L 421.6874997760169 383.88671897596214 L 421.7890611200128 381.6328120319522 L 422.812499968044 378.0468746239203 L 424.0390625280561 374.4648437759606 L 425.57812531205127 370.3671879679314 L 426.9062502400484 366.47656243195524 L 424.9609379840549 361.3554687999422 L 423.6328120320104 356.6484377599554 L 423.01562470401404 352.449218559952 L 422.812499968044 346.8164065279416 L 422.60937523201574 342.61718732793815 L 421.38281267206185 339.33984358393354 L 422.0937502720626 335.9609374719439 L 424.3515627520392 333.0937497599516 L 426.19531264004763 330.43359334394336 L 428.0390625280561 327.46484326396603 L 431.4140620800317 323.7773434879491 L 434.179687424039 322.6484377599554 L 437.14843750401633 321.11328153597424 L 443.1875000320142 313.84374988795025 L 447.0781245440594 311.38671923195943 L 449.6406251520384 310.4648437759606 L 453.9453122560517 309.44140595191857 L 458.4453120000544 310.15625011193333 L 460.9062502400484 311.79687526397174 L 463.15624960005516 314.558594047965 L 466.84375040006125 317.4257817599573 L 469.8125004800386 320.8085934079718 L 471.554688000062 323.6757811199641 L 472.5781248000567 326.74609356792644 L 472.89062502403976 328.7929692159523 L 473.19531212805305 333.19531212793663 L 472.1718753280584 336.2695311359712 L 469.8125004800386 338.3164057599497 L 466.84375040006125 340.26171903993236 L 464.078125056054 342.0039065599558 L 461.4140620800317 344.0507811839343 L 459.57812531205127 346.3046871039551 L 458.1406248960411 348.66015641595004 L 457.01562470401404 352.34765619196696 L 456.4999997440609 355.10937497596024 L 455.9921879040194 358.5937500159489 L 455.6796876800363 363.0976563199656 L 456.914062336029 368.2187499519205 L 459.7812500480213 373.2343746559345 L 463.15624960005516 377.02343782392563 L 466.43749990401557 378.8671877119341 L 469.5078123520361 380.1992191999452 L 472.88281292805914 380.9140623359708 L 476.2656245760154 381.3242183679249 L 479.9531253760215 381.3242183679249 L 483.43750041601015 381.01953126396984 L 487.93750016001286 380.097655807971 L 492.0390625280561 378.9687500799191 L 495.10937497601844 377.53515622392297 L 498.79687475203536 375.1796879359754 L 502.1718753280584 373.03124991996447 L 504.42968780803494 371.39062476792606 L 508.3203123200219 368.2187499519205 L 511.39062476804247 364.3281254399335 L 514.7656253440655 361.0507816959289 L 517.6328120320104 358.4882810879499 L 520.6015621120459 356.1367183359689 L 525.4218752000597 352.75390668795444 L 529.4140620800317 350.5039063039585 L 532.7890626560547 348.25000038393773 L 535.656250368047 345.48437503993046 L 538.4218746880651 342.92578099196544 L 540.5703127040179 340.8789063679287 L 542.9296875520376 338.52343705593375 L 546.1015623680432 334.42578124796273 L 548.3515627520392 329.71484364796197 L 549.3828126720618 326.2343751679291 L 550.1953126400476 322.75390668795444 L 550.1953126400476 319.06640588794835 L 548.6640629760223 315.48046847997466 L 546.4062504960457 312.4101560319541 L 544.1562501120497 310.0546877439483 L 542.4140625920263 308.7226562559372 L 539.648437248019 307.085937663971 L 536.4765624320135 306.16406220797217 L 533.1015628800378 305.75390617595986 L 529.2031252480228 305.5507814399316 L 526.2343751680455 305.65234380797483 L 521.3203128320165 306.06249983992893 L 518.3515627520392 306.3671879679314 L 514.8671877120505 306.67578163195867 L 511.6953128960449 307.187500031956 L 506.3750000640284 308.21093785593985 L 502.9921873920248 308.92968755192123 L 497.8750003200257 309.85156300792005 L 492.4453120000544 310.4648437759606 L 489.37499955203384 310.66796851193067 L 485.07031244802056 310.56640614394564 L 482.10156236804323 310.4648437759606 L 476.88281292805914 309.644531711936 L 470.9374996480183 307.9062497279374 L 466.9453127680463 306.06249983992893 L 464.79687475203536 305.0390620159451 L 462.1328128000605 302.47656243195524 L 459.26562508801 299.71093708794797 L 455.6796876800363 295.921874943946 L 453.84374988806667 293.97656268795254 L 448.921875456057 289.6757811199641 L 446.7734374400461 287.4257817599573 L 444.8281251840526 285.6835942399339 L 442.47656243201345 282.20312473597005 L 442.2656245760154 278.7187496959232 L 442.5781248000567 275.74999961594585 L 443.1875000320142 272.8828129279427 L 445.0312499200227 269.81250047992216 L 446.97656217601616 267.55859353597043 L 449.84374988806667 265.816406015947 L 456.3984373760177 264.4882810879499 L 460.70312550402014 264.2812497919658 L 463.6718745600665 263.3593753599562 L 466.84375040006125 262.43749990395736 L 469.1015628800378 261.824219135975 L 472.07031296001514 260.4921876479639 L 474.7265628160094 257.7265623039566 L 475.546874880034 254.554687487951 L 474.42187468806515 250.8671877119341 L 473.39843788801227 248.61328076792415 L 471.24999987205956 246.0546877439483 L 469.1015628800378 243.69921843195334 L 468.179687424039 240.52343705593375 L 466.33593753603054 235.40624998393469 L 464.4921876480221 231.4101565439487 L 463.3671874560532 227.3164062719443 L 462.9531248640269 221.88671897596214 L 464.8984371200204 216.97265663993312 L 466.84375040006125 213.90234419197077 L 468.6875002880115 211.33984358393354 L 471.75781273603207 208.37109350395622 L 475.74999961606227 205.71093708794797 L 481.38281267206185 203.76171827194048 L 488.25000038405415 202.53515673597576 L 491.82812467205804 202.43359334394336 L 494.1874995200196 202.6367191039608 L 497.15624960005516 203.35546879994217 L 498.8984371200204 208.37109350395622 L 501.8671872000559 213.79687526397174 L 503.9140628480236 217.48437503993046 L 506.88281292805914 222.80859340797178 L 508.62500044802437 226.0859371519182 L 510.1640622080304 229.8750003199675 L 510.87499980803113 232.43359334394336 L 510.87499980803113 234.89453158393735 L 509.74999961606227 237.0429685759591 L 507.2968744960381 240.11718758393545 L 503.0937497600098 242.98437529592775 L 499.5078123520361 244.92968755192123 L 496.2343751680455 246.87499980797293 L 493.06250035203993 248.8203120639664 L 490.70312550402014 250.3554682879476 L 488.9609379840549 251.99218790396117 L 486.914062336029 255.16796825593337 L 486.60937523201574 259.3671874559368 L 487.01562470401404 263.15624959993875 L 487.2187504640315 266.53515673597576 L 488.5546874880092 269.9140628479654 L 490.0859371520346 272.3710935039562 L 492.0390625280561 275.03515647992026 L 495.82812467205804 276.98046873597195 L 498.4843745280523 278.20703129592584 L 502.6875002880115 279.84765644796425 L 507.6015626240405 281.5859374079737 L 510.6718750720611 282.40625049592927 L 514.3593748480198 282.8164065279416 L 520.0937502720626 283.01953126396984 L 523.3671874560532 282.9179688959266 L 527.3671874560532 282.5078128639725 L 532.7890626560547 281.79296870395774 L 539.2421877760207 280.66406297596404 L 543.4375004160102 279.2343746559345 L 545.79687526403 278.4140625919681 L 548.7656253440655 276.67187507194467 L 552.0390625280561 275.03515647992026 L 555.0078126080334 273.5000002559391 L 557.4687498240382 271.34765670396155 L 559.4140620800317 268.89062502392335 L 560.6406246400438 266.33203097595833 L 561.4609377280576 264.1796874239226 L 561.9765626880107 260.902343679918 L 561.6640624640277 257.011719167931 L 560.5390622720588 253.53124966396717 L 558.7968747520354 249.53515622392297 L 557.3671874560532 246.97656217595795 L 555.9296870400431 244.31250022392487 L 554.0859371520346 241.34375014394755 L 551.7343754240428 237.86328166397288 L 548.7656253440655 233.76562483195448 L 545.898437632015 229.67187455995008 L 543.7499996160623 226.5976565759629 L 541.9062497280538 223.42578175995732 L 540.5703127040179 220.35156275192276 L 539.445312512049 217.17968793597538 L 538.2187499520369 212.98046873597195 L 538.0156252160668 210.11328102392145 L 538.5234370560502 207.14453094394412 L 540.3671879680478 202.2265620479593 L 542.2109378560563 199.66796902392525 L 544.5703127040179 196.80078131193295 L 547.4375004160102 193.93359359994065 L 549.9921879040194 192.29296844796045 L 553.2734371840488 190.453125119966 L 555.1171870720573 186.66406297596404 L 556.2421872640261 183.89843763195677 L 556.1406248960411 180.92968755192123 L 555.1171870720573 179.187500031956 L 554.0937502720626 177.24218777596252 L 552.5546874880092 174.6835937279393 L 549.5859374080319 169.66406246396946 L 546.8203120640246 165.8750003199675 L 543.9531253760215 161.98437478393316 L 540.4687503360328 157.2734371839324 L 538.2187499520369 154.10156236792682 L 536.9921873920248 152.46093721594661 L 534.53125017602 150.10546892794082 L 531.2578129920294 146.62500044796616 L 528.8984371200204 142.7343749119318 L 527.8750003200257 138.7382814719458 L 527.3671874560532 133.92578150396002 L 527.4687498240382 130.6484377599554 L 527.7734379520407 128.39843737595947 L 528.390625280037 125.7343754239264 L 530.0234373120475 123.07421900791815 L 532.5859379200265 119.48828159994446 L 536.8828129280591 116.4179691519239 L 546.6171873280546 111.60156262392411 L 552.1406248960411 110.6835937279393 L 559.2109373440617 111.50000025593909 L 563.5078123520361 112.83203174395021 L 568.53125017602 114.67578163195867 L 572.109375488013 116.4179691519239 L 576.109375488013 119.07812454394298 L 578.562499584048 122.55859404796502 L 580.6093752320157 126.86328115192009 L 582.4531251200242 129.83203123195563 L 583.7890621440602 132.49218764796387 L 584.6015621120459 135.46484326396603 L 584.6015621120459 138.12499967997428 L 582.4531251200242 143.1406254079193 L 581.9453122560517 148.46875033597462 L 582.8671877120505 154.61328076792415 L 584.6015621120459 161.47265638393583 L 588.1874995200196 167.20703078393126 L 590.7500001280569 169.76562483195448 L 594.4374999040156 171.0976563199656 L 599.1484375040163 172.22265651193447 L 603.546874880034 172.01953075197525 L 606.5156249600113 170.89453158393735 L 609.6953128960449 169.76562483195448 L 612.7656253440655 168.6406246399274 L 615.2187504640315 167.51562547194771 L 618.3984373760177 165.97656268795254 L 621.26562508801 164.33984409592813 L 624.3359375360305 162.80468787194695 L 627.4062499840511 161.3710940159508 L 632.53125017602 158.80859340797178 L 635.3984378880123 157.68359423993388 L 639.898437632015 156.35156275192276 L 642.6640629760223 155.53515622392297 L 645.2265625600121 154.81640652794158 L 647.8906245120452 154.20312473597005 L 650.9609379840549 153.69140633597272 L 653.9296870400431 152.97265663993312 L 657.1015628800378 152.25781247991836 L 659.968749568041 151.43750041595194 L 663.3515622400446 150.31250022392487 L 666.6250004480244 148.7734374399297 L 669.5937495040125 146.92968755192123 L 672.3593748480198 144.98437529592775 L 674.921875456057 143.34765670396155 L 678.3046871040133 145.80468735995237 L 681.2734371840488 148.87890636792872 L 683.7265623040148 151.02734335995046 L 686.0859371520346 152.7695308799739 L 688.6406246400438 154.61328076792415 L 691.1015628800378 156.14843699196354 L 693.968749568041 157.5820308479597 L 697.8593751040171 158.9140623359708 L 700.8281251840526 159.42578175995732 L 703.3906247680425 159.62890649592737 L 706.3593748480198 159.11718707194086 L 708.921875456057 157.68359423993388 L 711.1718748160638 155.42968729592394 L 713.2187504640315 152.0507811839343 L 714.1406248960411 147.5468748799758 L 712.710937600059 143.0390620159451 L 709.023437824042 138.33203097595833 L 707.2812503040186 136.28124979196582 L 705.2343746560509 133.824219135975 L 702.9765621760162 131.3671874559368 L 706.562499584048 127.88671897596214 L 710.0468746240367 125.42578175995732 L 714.7578122240375 122.8671877119341 L 721.6171878400492 119.69140633597272 L 731.1406254080357 115.28906239994103 L 737.898437632015 112.52343705593375 L 747.3203128320165 107.30078105593566 L 750.9062502400484 105.05078169592889 L 755.2031252480228 101.87500031996751 L 759.5078123520361 99.92968703992665 L 767.898437632015 94.91406233597081 L 769.7421875200234 92.45312511996599 L 771.5859374080319 87.84765644796425 L 773.4296872960404 80.88281292794272 L 773.6328120320104 69.7226557439426 L 773.6328120320104 63.88671897596214 L 773.023437824042 60.507812863972504 L 771.6874997760169 56.207031295925844 L 770.2578124800348 53.33593702391954 L 767.79687526403 49.753906175959855 L 763.5000002560555 45.76171827194048 L 756.9453127680463 42.6875002879533 L 752.3359375360305 41.05078169592889 L 746.8046878720634 38.695312383933924 L 741.9921879040194 36.953124863968696 L 739.1250001920271 35.7265623039566 L 735.5390627840534 33.57421875192085 L 732.9843752960442 30.91406233597081 L 729.8046873600106 28.148436991963536 L 724.6875002880115 26.304687103955075 L 720.9999994880636 24.56249958393164 L 716.9062502400484 20.67187507194467 L 714.7578122240375 18.726562815951183 L 712.2968750080327 15.449219071946573 L 708.812499968044 8.382812159950845 L 707.2812503040186 4.390625279920641 L 713.2187504640315 4.390625279920641 L 726.3281254400499 4.597656575962901 L 741.9921879040194 4.699218943947926 L 761.0390620160615 4.699218943947926 L 769.5390627840534 4.593750015948899 L 786.7421870080288 4.699218943947926 L 807.7343754240428 4.699218943947926 L 819.8203125760192 4.593750015948899 L 823.7109370880644 4.492187647963874 L 837.3281249280553 4.593750015948899 L 850.7421870080288 4.800781311932951 L 876.9609379840549 5.003906047961209 L 882.7968747520354 5.003906047961209 L 893.9531253760215 5.109374975960236 L 914.0234373120475 5.312499711930286 L 925.1875000320142 5.210937343945261 L 930.4062504960457 5.109374975960236 L 937.2734371840488 5.105468415946234 L 943.828124672058 5.210937343945261 L 961.9453122560517 5.312499711930286 L 969.9375001600129 5.210937343945261 L 979.968749568041 5.105468415946234 L 991.648437248019 5.312499711930286 L 1002.6015621120459 5.312499711930286 L 1006.7968747520354 5.515625471947715 L 1013.1484375040163 5.414062079973519 L 1021.0312499200227 5.414062079973519 L 1024.0 5.43653971025924" fill="none"/><path stroke="#000000" stroke-width="2" d="M 1024.0 5.43653971025924 L 1021.0312499200227 5.414062079973519 L 1013.1484375040163 5.414062079973519 L 1006.7968747520354 5.515625471947715 L 1002.6015621120459 5.312499711930286 L 991.648437248019 5.312499711930286 L 979.968749568041 5.105468415946234 L 969.9375001600129 5.210937343945261 L 961.9453122560517 5.312499711930286 L 943.828124672058 5.210937343945261 L 937.2734371840488 5.105468415946234 L 930.4062504960457 5.109374975960236 L 925.1875000320142 5.210937343945261 L 914.0234373120475 5.312499711930286 L 893.9531253760215 5.109374975960236 L 882.7968747520354 5.003906047961209 L 876.9609379840549 5.003906047961209 L 850.7421870080288 4.800781311932951 L 837.3281249280553 4.593750015948899 L 823.7109370880644 4.492187647963874 L 819.8203125760192 4.593750015948899 L 807.7343754240428 4.699218943947926 L 786.7421870080288 4.699218943947926 L 769.5390627840534 4.593750015948899 L 761.0390620160615 4.699218943947926 L 741.9921879040194 4.699218943947926 L 726.3281254400499 4.597656575962901 L 713.2187504640315 4.390625279920641 L 707.2812503040186 4.390625279920641 L 706.6650215630798 0.0" fill="none"/><path stroke="#408040" stroke-width="3" d="M 1024.0 32.82369478548935 L 1022.9452799999999 26.439680000003136 L 1021.8803199999966 11.560960000002524 L 1021.6501470407238 0.0" fill="none"/></svg>