<svg xmlns="http://www.w3.org/2000/svg" width="1024" height="1024"><rect stroke="none" x="0" y="0" width="1024" height="1024" fill="white"/><path stroke="#000000" stroke-width="2" d="M 0.0 392.0081407381076 L 7.789062144118361 389.4140620798571 L 11.984374784165993 388.0820316160098 L 17.414062080031727 386.2421872639097 L 20.68750028812792 384.1914060799754 L 37.28125030401861 375.9999999999418 L 46.28906291211024 364.6328125439468 L 49.35937536001438 363.60937471990474 L 58.16406220803037 364.12109414389124 L 60.82812518411083 364.2226565119345 L 66.3593748480198 364.3281254398171 L 79.67187456000829 359.30859417596366 L 79.916009472101 359.21547775989166 L 85.30468761600787 357.16015615989454 L 90.32031232002191 355.3164062718861 L 93.90624972805381 353.88281241588993 L 96.87513088004198 350.9110988799366 L 98.00000000005821 349.7851566078025 L 101.5859374080901 345.6914063358563 L 100.46093721606303 337.1914065918536 L 125.34375014412217 321.11328153597424 L 126.97656217607437 319.98828134394716 L 135.99218790407758 314.0468746239203 L 145.20312524802284 311.89843763195677 L 165.89062451204518 306.98437529581133 L 168.0390625281143 306.47265587188303 L 193.23437465610914 300.3281254398753 L 220.98437529604416 304.8320317438338 L 254.7734374400461 310.4648437759606 L 271.25781299202936 313.3320314880111 L 296.5546874880092 312.61328076792415 L 299.624999936088 312.5117183998809 L 331.7812500480795 304.0117186558782 L 339.56250009615906 301.9648440319579 L 370.5859379200265 302.3750000639702 L 377.65625036810525 302.47656243183883 L 382.7734374400461 301.1445309438277 L 398.1328128000605 297.7656248319545 L 477.8046873600106 280.1523435518029 L 482.10156236804323 280.66406297596404 L 489.06250035209814 281.89453107182635 L 502.07031296007335 284.25000038399594 L 511.79687526402995 285.7851566078607 L 517.5312496640254 288.34765619185055 L 520.6015621120459 289.98437478393316 L 529.7187502080342 294.898437119904 L 542.7265628160094 302.17187532788375 L 546.7187496960978 304.3203123198473 L 549.9921879040194 305.75390617590165 L 572.3203123200801 310.0546877439483 L 583.6874997760169 312.20312473591184 L 590.2343751681037 313.3320314880111 L 595.4609377280576 313.53515622386476 L 612.6640629760223 314.4570316798636 L 632.4218746880651 307.4960936958669 L 638.7734374401043 305.2421877758461 L 642.460937216063 304.0117186558782 L 649.7343754240428 303.6054691839381 L 664.4765624320135 302.88671846385114 L 678.0937502721208 302.17187532788375 L 704.3125002240413 307.28906239994103 L 722.437499904132 316.71093759988435 L 729.8046873600688 320.4999997440027 L 766.7734374400461 329.30468761600787 L 803.023437824042 336.6796871679253 L 814.289062912052 352.2421872639097 L 819.1015628800378 359.5156254718895 L 822.8906250240398 374.56640614394564 L 824.0156252160086 380.40234393585706 L 823.7109370880062 384.1914060799754 L 823.1953121281695 388.4921876480221 L 822.6875002880115 392.48828108783346 L 835.7890621440602 403.03515647986205 L 850.7421870080288 403.33984358393354 L 856.9921873920248 402.9335941118188 L 875.0078126080916 401.4960936959251 L 880.4374999040156 397.81250047992216 L 888.8359372800915 399.6562503679306 L 892.4218746880069 397.30078105593566 L 894.7734374400461 395.7656248318963 L 897.1328122880659 394.3281254399335 L 899.7890621441184 392.7929692158941 L 903.273437184107 391.35937535983976 L 902.7578122240957 388.6992189439479 L 901.023437824042 385.93359359994065 L 903.476562944008 384.1914060799754 L 936.14843699208 361.1523440639721 L 958.0546877440065 355.8281246719416 L 989.5937495040125 357.3632808958064 L 1016.3203123200219 355.10937497596024 L 1022.7734374401043 356.44140646391315 L 1024.0 356.6910334926506" fill="none"/><path stroke="#000000" stroke-width="2" d="M 1024.0 356.6910334926506 L 1022.7734374401043 356.44140646391315 L 1016.3203123200219 355.10937497596024 L 989.5937495040125 357.3632808958064 L 958.0546877440065 355.8281246719416 L 936.14843699208 361.1523440639721 L 903.476562944008 384.1914060799754 L 901.023437824042 385.93359359994065 L 902.7578122240957 388.6992189439479 L 903.273437184107 391.35937535983976 L 899.7890621441184 392.7929692158941 L 897.1328122880659 394.3281254399335 L 894.7734374400461 395.7656248318963 L 892.4218746880069 397.30078105593566 L 888.8359372800915 399.6562503679306 L 880.4374999040156 397.81250047992216 L 875.0078126080916 401.4960936959251 L 856.9921873920248 402.9335941118188 L 850.7421870080288 403.33984358393354 L 835.7890621440602 403.03515647986205 L 822.6875002880115 392.48828108783346 L 823.1953121281695 388.4921876480221 L 823.7109370880062 384.1914060799754 L 824.0156252160086 380.40234393585706 L 822.8906250240398 374.56640614394564 L 819.1015628800378 359.5156254718895 L 814.289062912052 352.2421872639097 L 803.023437824042 336.6796871679253 L 766.7734374400461 329.30468761600787 L 729.8046873600688 320.4999997440027 L 722.437499904132 316.71093759988435 L 704.3125002240413 307.28906239994103 L 678.0937502721208 302.17187532788375 L 664.4765624320135 302.88671846385114 L 649.7343754240428 303.6054691839381 L 642.460937216063 304.0117186558782 L 638.7734374401043 305.2421877758461 L 632.4218746880651 307.4960936958669 L 612.6640629760223 314.4570316798636 L 595.4609377280576 313.53515622386476 L 590.2343751681037 313.3320314880111 L 583.6874997760169 312.20312473591184 L 572.3203123200801 310.0546877439483 L 549.9921879040194 305.75390617590165 L 546.7187496960978 304.3203123198473 L 542.7265628160094 302.17187532788375 L 529.7187502080342 294.898437119904 L 520.6015621120459 289.98437478393316 L 517.5312496640254 288.34765619185055 L 511.79687526402995 285.7851566078607 L 502.07031296007335 284.25000038399594 L 489.06250035209814 281.89453107182635 L 482.10156236804323 280.66406297596404 L 477.8046873600106 280.1523435518029 L 398.1328128000605 297.7656248319545 L 382.7734374400461 301.1445309438277 L 377.65625036810525 302.47656243183883 L 370.5859379200265 302.3750000639702 L 339.56250009615906 301.9648440319579 L 331.7812500480795 304.0117186558782 L 299.624999936088 312.5117183998809 L 296.5546874880092 312.61328076792415 L 271.25781299202936 313.3320314880111 L 254.7734374400461 310.4648437759606 L 220.98437529604416 304.8320317438338 L 193.23437465610914 300.3281254398753 L 168.0390625281143 306.47265587188303 L 165.89062451204518 306.98437529581133 L 145.20312524802284 311.89843763195677 L 135.99218790407758 314.0468746239203 L 126.97656217607437 319.98828134394716 L 125.34375014412217 321.11328153597424 L 100.46093721606303 337.1914065918536 L 101.5859374080901 345.6914063358563 L 98.00000000005821 349.7851566078025 L 96.87513088004198 350.9110988799366 L 93.90624972805381 353.88281241588993 L 90.32031232002191 355.3164062718861 L 85.30468761600787 357.16015615989454 L 79.916009472101 359.21547775989166 L 79.67187456000829 359.30859417596366 L 66.3593748480198 364.3281254398171 L 60.82812518411083 364.2226565119345 L 58.16406220803037 364.12109414389124 L 49.35937536001438 363.60937471990474 L 46.28906291211024 364.6328125439468 L 37.28125030401861 375.9999999999418 L 20.68750028812792 384.1914060799754 L 17.414062080031727 386.2421872639097 L 11.984374784165993 388.0820316160098 L 7.789062144118361 389.4140620798571 L 0.0 392.0081407381076" fill="none"/><path stroke="#408040" stroke-width="3" d="M 0.0 395.64170971428393 L 1.2595200000068871 395.5097600000008 L 9.021439999996801 391.3318399999989 L 31.457280000002356 381.9008000000031 L 62.597120000005816 371.2204800000036 L 98.45759999999427 354.8159999999989 L 111.30879999999888 342.7532799999972 L 134.98368000000482 333.00480000000243 L 151.6646400000027 328.14080000000104 L 162.50879999999597 321.64863999999943 L 167.72096000000602 315.14624000000185 L 177.38752000000386 310.7532799999972 L 193.78175999999803 310.1900800000003 L 208.92672000000312 312.52479999999923 L 222.36160000000382 315.93471999999747 L 242.39104000000225 316.23167999999714 L 260.68992000000435 315.5558400000009 L 273.99168000000645 316.65151999999944 L 286.7814400000061 317.0508800000025 L 295.76192000000447 320.39936000000307 L 308.9817599999951 319.7952000000005 L 318.45376000000397 317.54239999999845 L 330.3321600000054 312.6886400000003 L 340.224000000002 310.4051200000031 L 365.52704000000085 307.5891199999969 L 376.9856 307.79391999999643 L 388.1574399999954 303.7286400000012 L 412.01664000000164 302.36671999999817 L 432.2304000000004 300.00127999999677 L 475.96543999999994 294.2873600000021 L 489.63584000000264 294.04159999999683 L 501.4527999999991 296.4479999999967 L 522.3219200000021 298.1785600000003 L 540.0268800000049 306.1145600000018 L 559.7798400000029 311.35743999999977 L 570.2041599999939 314.0812799999985 L 577.2185599999939 318.56640000000334 L 593.674239999993 321.2595199999996 L 603.3612799999974 319.8668800000014 L 618.0966400000034 321.91487999999663 L 629.7190399999963 315.2691199999972 L 635.0335999999952 312.0844799999977 L 643.389439999999 312.39168000000063 L 656.3328000000038 311.62367999999697 L 670.2387199999939 312.0537600000025 L 684.5951999999961 313.2723199999964 L 700.9075199999934 312.30975999999646 L 709.1097600000066 313.20064000000275 L 714.4243200000055 316.65151999999944 L 726.0467199999985 325.6217600000018 L 729.2415999999939 329.92255999999907 L 736.8191999999981 331.2844800000021 L 757.9648000000016 336.5887999999977 L 778.1990400000068 339.52767999999924 L 794.0812799999985 342.3539200000014 L 799.1091199999937 345.1289600000018 L 806.9119999999966 354.9900800000032 L 809.3593600000022 364.8819199999998 L 809.2979199999972 370.52416000000085 L 806.4921599999943 376.0844799999977 L 804.5772799999977 381.5321600000025 L 805.662719999993 385.6895999999979 L 811.5609600000025 396.53375999999844 L 818.5446399999928 401.33632000000216 L 826.7878400000045 402.75968000000285 L 842.7417600000044 408.20736000000034 L 859.299840000007 410.0300799999968 L 883.6095999999961 406.4051200000031 L 891.8630399999965 403.4559999999983 L 898.273279999994 398.0185599999968 L 908.6361599999946 389.27360000000044 L 926.0236799999984 374.15935999999783 L 946.2783999999956 364.9945599999992 L 957.1225600000034 361.55391999999847 L 972.267519999994 360.9907200000016 L 1003.1923200000019 361.50271999999677 L 1024.0 363.34829031908885" fill="none"/><path stroke="#408040" stroke-width="3" d="M 1024.0 361.19787354838627 L 1023.7951999999932 361.1852799999979 L 1003.1411200000002 360.77567999999883 L 976.7526400000061 360.24319999999716 L 961.2492800000036 360.11007999999856 L 948.8588799999998 362.92607999999746 L 929.5257600000041 371.0054400000008 L 921.7433599999931 376.8729600000006 L 914.0121599999984 383.9692799999975 L 897.1980800000019 399.1449599999978 L 892.2112000000052 403.1897600000011 L 884.3161600000021 406.09792000000016 L 861.081600000005 409.7126399999979 L 849.4694400000008 409.7126399999979 L 841.7280000000028 407.7363200000036 L 832.6860799999995 403.68127999999706 L 824.5350400000025 402.4115200000015 L 818.4320000000007 401.16223999999784 L 812.9535999999935 397.4553599999999 L 807.249920000002 388.53631999999925 L 804.9561600000015 379.98591999999917 L 809.2364800000068 370.9849600000016 L 809.9532800000015 366.7251200000028 L 807.7004799999995 357.69344000000274 L 806.4102399999974 352.6860799999995 L 802.3654399999941 348.1907199999987 L 795.5660800000041 342.661119999997 L 780.2982400000037 339.6710400000011 L 762.5113600000041 337.48992 L 737.1673600000067 331.2230399999971 L 729.2723200000037 329.82016000000294 L 724.9407999999967 324.3110400000005 L 713.8815999999933 316.01664000000164 L 708.700159999993 312.9856 L 701.2249600000068 312.1664000000019 L 688.9676800000016 314.1632000000027 L 681.1852800000052 312.2176000000036 L 663.6748800000059 310.6406399999978 L 651.1001600000018 312.81152000000293 L 636.8767999999982 311.5827199999985 L 618.6086400000058 321.7612799999988 L 603.2281599999988 319.764479999998 L 593.2032000000036 321.19808000000194 L 576.174079999997 317.9724799999967 L 565.6473600000027 311.60319999999774 L 546.252800000002 308.4390399999975 L 528.834560000003 300.6463999999978 L 520.4889600000024 297.4924800000008 L 510.35136000000057 296.34560000000056 L 484.2598399999988 293.92895999999746 L 458.56767999999283 296.0179199999984 L 438.7225599999947 300.05247999999847 L 419.87072000000626 301.9366399999999 L 396.81024000000616 302.5715199999977 L 387.45088000000396 303.9334400000007 L 377.1494399999938 307.68127999999706 L 344.7807999999932 309.49375999999756 L 334.47935999999754 312.22783999999956 L 327.81312000000617 312.86271999999735 L 320.6348799999978 315.6684800000003 L 312.41216000000713 319.59040000000095 L 301.619200000001 320.2560000000012 L 291.66591999999946 319.3241599999965 L 283.5251200000057 316.93824000000313 L 271.0220799999952 315.72991999999795 L 257.14688000000024 315.9961600000024 L 238.4588800000056 316.04735999999684 L 225.86367999999493 316.8255999999965 L 220.70272000000114 315.0643199999977 L 206.8889599999966 311.64416000000347 L 192.69632000000274 310.12864000000263 L 175.31904000000213 310.83520000000135 L 167.17823999999382 315.46368000000075 L 162.59071999999287 321.361920000003 L 146.0838400000066 330.58815999999933 L 128.3891200000071 334.55103999999847 L 116.15231999999378 339.46624000000156 L 102.73791999999958 350.5561600000001 L 94.92479999999341 356.6489599999986 L 78.94015999999829 363.4176000000007 L 64.82944000000134 370.07360000000335 L 50.851840000002994 374.3027199999997 L 38.28736000000208 378.4806400000016 L 23.961599999995087 385.0239999999976 L 6.707200000004377 392.151039999997 L 0.0 395.5087956381685" fill="none"/></svg>