<svg xmlns="http://www.w3.org/2000/svg" width="1024" height="1024"><rect stroke="none" x="0" y="0" width="1024" height="1024" fill="white"/><path stroke="#000000" stroke-width="2" d="M 1024.0 65.52094693363324 L 1015.6093747200212 65.42187519994332 L 1003.3203128320165 65.52343756792834 L 994.5156249600113 65.62499993597157 L 960.921875456057 65.52343756792834 L 955.8046873600106 65.42187519994332 L 951.7109370880644 65.32031283195829 L 939.5234375680448 65.52343756792834 L 929.0781245440594 65.42187519994332 L 918.53125017602 65.52343756792834 L 909.1093749760184 65.42187519994332 L 875.2187504640315 65.42187519994332 L 870.4062504960457 65.21484390395926 L 866.8203120640246 65.32031283195829 L 855.554688000062 65.42187519994332 L 840.0937502720626 65.42187519994332 L 834.460937216063 65.32031283195829 L 790.7343749120482 65.32031283195829 L 781.5234375680448 65.42187519994332 L 768.4140625920263 65.32031283195829 L 760.3203123200219 65.21484390395926 L 705.335937024036 65.21484390395926 L 696.4296878080349 65.11328153597424 L 641.0312499200227 65.11328153597424 L 632.4296878080349 65.011719167931 L 599.554688000062 65.011719167931 L 578.1562501120497 64.91015577595681 L 568.6328125440632 64.80468787194695 L 560.1328128000605 64.70312550396193 L 547.4375004160102 64.70312550396193 L 536.2734376960434 64.60156211192952 L 526.0312504320173 64.4999997439445 L 511.5937495040125 64.4999997439445 L 504.7343749120482 64.39843737595947 L 497.05468723201193 64.29296844796045 L 493.6718745600083 64.29296844796045 L 490.0937502720626 64.19140607991721 L 472.2734376960434 64.19140607991721 L 462.2343751680455 63.988281343947165 L 456.3984373760177 63.988281343947165 L 451.1796879360336 63.88671897596214 L 440.9374996480183 63.78125004796311 L 419.74218752002344 63.578125311934855 L 414.62500044802437 63.47656294394983 L 409.2968744960381 63.47656294394983 L 398.33593753603054 63.374999551917426 L 387.6874997760169 63.374999551917426 L 383.5937495040125 63.26953164796578 L 366.5937500160653 63.26953164796578 L 355.84374988800846 63.167968255933374 L 345.2968744960381 63.167968255933374 L 342.52750233601546 63.119772671954706 L 333.6249999360298 62.964843519963324 L 310.5859379200265 62.86328115192009 L 302.69531238405034 62.757812223921064 L 291.9453122560517 62.757812223921064 L 282.2187499520369 62.964843519963324 L 279.3515622400446 62.65624985593604 L 239.41406208003173 62.65624985593604 L 228.04687462403672 62.554687487951014 L 206.85156249604188 62.554687487951014 L 197.12500019202707 62.45312511996599 L 188.62500044802437 62.34765619196696 L 164.14843699202174 62.34765619196696 L 157.9062497280538 62.24609382392373 L 152.9921873920248 62.24609382392373 L 137.52343756804476 62.144531455938704 L 126.46875033603283 61.941406719968654 L 122.37500006402843 61.83593779196963 L 118.37500006402843 62.04296908795368 L 114.58593792002648 61.83593779196963 L 108.85156249604188 61.941406719968654 L 97.38281267206185 61.941406719968654 L 84.99218739202479 62.04296908795368 L 58.37500006402843 61.83593779196963 L 36.66406297602225 61.734375423926394 L 27.140625408035703 61.6328120319522 L 11.679687680036295 61.53124966396717 L 5.429687296040356 61.53124966396717 L 0.0 61.43138563371758" fill="none"/><path stroke="#000000" stroke-width="2" d="M 0.0 61.43138563371758 L 5.429687296040356 61.53124966396717 L 11.679687680036295 61.53124966396717 L 27.140625408035703 61.63281203183578 L 36.66406297602225 61.734375423926394 L 58.375000064086635 61.83593779196963 L 84.99218739202479 62.04296908789547 L 97.38281267206185 61.94140671991045 L 108.85156249604188 61.94140671991045 L 114.58593792002648 61.83593779196963 L 118.37500006402843 62.04296908789547 L 122.37500006402843 61.83593779196963 L 126.46875033603283 61.94140671991045 L 137.52343756804476 62.144531455938704 L 152.992187392083 62.246093823807314 L 157.90624972811202 62.246093823807314 L 164.14843699202174 62.34765619185055 L 188.62500044802437 62.34765619185055 L 197.12500019202707 62.45312511990778 L 206.8515624961001 62.554687487951014 L 228.04687462409493 62.554687487951014 L 239.41406208003173 62.656249855819624 L 279.3515622401028 62.656249855819624 L 282.2187499520369 62.964843519963324 L 291.9453122561099 62.75781222386286 L 302.69531238405034 62.75781222386286 L 310.5859379200265 62.86328115192009 L 333.624999936088 62.964843519963324 L 342.52750233607367 63.1197726718965 L 345.2968744960963 63.16796825587517 L 355.84374988800846 63.16796825587517 L 366.5937500160653 63.269531648023985 L 383.5937495040125 63.269531648023985 L 387.68749977607513 63.37499955180101 L 398.33593753608875 63.37499955180101 L 409.2968744960381 63.47656294394983 L 414.6250004480826 63.47656294394983 L 419.74218752008164 63.57812531199306 L 440.9374996480183 63.7812500478467 L 451.1796879360918 63.88671897596214 L 456.3984373760759 63.98828134400537 L 462.2343751680455 63.98828134400537 L 472.2734376960434 64.19140607985901 L 490.0937502720626 64.19140607985901 L 493.6718745600665 64.29296844790224 L 497.05468723201193 64.29296844790224 L 504.7343749120482 64.39843737601768 L 511.5937495040125 64.49999974382808 L 526.0312504320173 64.49999974382808 L 536.2734376961016 64.60156211187132 L 547.4375004160684 64.70312550384551 L 560.1328128000605 64.70312550384551 L 568.6328125440632 64.80468787188875 L 578.1562501120497 64.9101557758404 L 599.554688000062 65.01171916781459 L 632.4296878080349 65.01171916781459 L 641.0312499200227 65.11328153585782 L 696.4296878080349 65.11328153585782 L 705.3359370240942 65.21484390390106 L 760.3203123200219 65.21484390390106 L 768.4140625920845 65.32031283195829 L 781.523437568103 65.4218751998269 L 790.7343749120482 65.32031283195829 L 834.4609372161212 65.32031283195829 L 840.0937502720626 65.4218751998269 L 855.5546880001202 65.4218751998269 L 866.8203120640828 65.32031283195829 L 870.4062504961039 65.21484390390106 L 875.2187504640315 65.4218751998269 L 909.1093749760767 65.4218751998269 L 918.53125017602 65.52343756787013 L 929.0781245441176 65.4218751998269 L 939.5234375680448 65.52343756787013 L 951.7109370881226 65.32031283195829 L 955.8046873600688 65.4218751998269 L 960.921875456057 65.52343756787013 L 994.5156249600113 65.62499993591337 L 1003.3203128320165 65.52343756787013 L 1015.6093747200212 65.4218751998269 L 1024.0 65.52094693356776" fill="none"/></svg>