<svg xmlns="http://www.w3.org/2000/svg" width="1024" height="1024"><rect stroke="none" x="0" y="0" width="1024" height="1024" fill="white"/><path stroke="#000000" stroke-width="2" d="M 553.4053094636038 1024.0 L 553.0625003520399 1023.4765629439498 L 549.7890621440602 1021.7343754239264 L 546.0000000000582 1019.2773437439464 L 545.3828126720618 1016.4101560319541 L 546.5078128640307 1013.5429683199618 L 548.9687500800355 1011.5976560639683 L 553.0625003520399 1011.9062497279374 L 558.289062912052 1012.7226562559372 L 562.9999994880636 1011.085937663971 L 566.4765624320135 1009.4453125119326 L 569.554688000062 1007.3984378879541 L 572.9296875520376 1004.2226565119345 L 575.1875000320142 1000.8437503999448 L 577.0312499200227 996.2382817279431 L 578.1562501120497 990.1953126399312 L 578.562499584048 985.2812503039604 L 577.9531253760215 979.7499996159459 L 576.2109378560563 975.3476567039615 L 574.8749998080311 972.5820313599543 L 574.0546877440065 968.8945315839374 L 574.1640622080304 964.6992189439479 L 574.4687503360328 961.5234375679283 L 575.0781245440594 955.3789061119314 L 576.2109378560563 949.1328122879495 L 577.4375004160102 945.2421877759625 L 577.335937024036 942.3750000639702 L 579.5859374080319 934.4882810879499 L 581.9453122560517 932.1367183359689 L 585.7343754240428 928.9609379839385 L 586.7578122240375 926.5039063039585 L 588.7031255040201 923.8398433279363 L 591.3671874560532 921.2812503039604 L 593.4140620800317 918.0039065599558 L 596.281249792024 915.5468748799758 L 598.8359372800332 913.3945313279401 L 603.445312512049 911.0390620159451 L 607.8515630080365 909.9140628479654 L 612.8671877120505 909.710937087948 L 616.3515627520392 910.2226565119345 L 620.5468753920286 910.6289059839328 L 624.8515624960419 910.9374996479601 L 628.1249996800325 909.3007810559357 L 630.6875002880115 907.9687495679245 L 634.3671879680478 905.816406015947 L 639.898437632015 904.4882810879499 L 642.8671877120505 904.2812497919658 L 645.8437498880085 903.6679690239253 L 648.0937502720626 902.7460935679264 L 651.7812500480213 900.1874995199614 L 654.5468753920286 897.8320312319556 L 655.9765626880107 895.7812500479631 L 657.4140620800317 892.8124999679276 L 659.5625000960426 890.1523435519193 L 661.9140628480236 888.1015623679268 L 664.4765624320135 886.8749998079729 L 667.0390620160615 886.3632814079756 L 670.9296875520376 886.3632814079756 L 674.2031247360283 886.5664061439456 L 676.6640629760223 886.6679685119307 L 679.8359377920278 886.7695308799739 L 684.9609379840549 885.644531711936 L 690.7968747520354 884.1093754879548 L 695.5078123520361 881.9570309119299 L 698.0624998400453 880.1171875839354 L 704.5156249600113 875.3007810559357 L 707.2812503040186 871.820312575961 L 709.5312496640254 869.0546872319537 L 712.0937502720626 866.5976565759629 L 714.7578122240375 863.7304688639706 L 716.289062912052 862.0937502719462 L 718.0312504320173 860.558594047965 L 719.5703121920233 858.8164065279416 L 724.078125056054 853.4921871359693 L 726.9453127680463 851.3398435839335 L 729.9140628480236 849.3945313279401 L 738.3046871040133 848.167968767928 L 742.1953126400476 847.7578127359739 L 748.9531248640269 849.7031249919673 L 754.5859379200265 848.4726558719412 L 758.1718753280584 847.5507814399316 L 761.7578127360321 846.7343749119318 L 764.8281251840526 845.5039057919639 L 767.1875000320142 844.0703129599569 L 773.8437498880085 840.1796874239226 L 776.2968750080327 837.7226557439426 L 778.1406248960411 836.0820316159516 L 782.9531248640269 834.445311999938 L 789.2031252480228 832.2929684479604 L 792.1718753280584 829.3242183679249 L 793.7031249920256 825.4335938559379 L 793.195312128053 821.2343746559345 L 793.0937497600098 816.4218746879487 L 795.2421877760207 813.9648440319579 L 803.3281249280553 810.0742184959236 L 807.1171870720573 807.4101565439487 L 810.7031255040201 803.3164062719443 L 820.2265620480175 795.2265625599539 L 828.5234370560502 787.6484372479608 L 841.5234375680448 778.3281254399335 L 843.5781253120513 776.0781250559376 L 843.9843747840496 772.800781311933 L 847.0546872320119 770.1367183359689 L 851.3593753600144 768.9101557759568 L 853.7109370880062 768.1914060799754 L 855.8593751040171 765.4257817599573 L 855.656250368047 761.535156223923 L 854.9374996480183 758.6679685119307 L 859.0390620160615 758.5664061439456 L 863.335937024036 759.3867192319594 L 867.023437824042 759.4882815999445 L 870.0937502720626 758.8749998079729 L 874.4999997440609 758.1562501119333 L 878.9062502400484 758.6679685119307 L 881.9945318400278 759.3360179199371 L 884.1249996800325 759.7968752639717 L 888.3203123200219 758.8749998079729 L 889.3515622400446 757.3398435839335 L 889.656250368047 754.9843752959277 L 888.1171875840519 752.2187499519205 L 885.968749568041 748.5312501759618 L 884.3281254400499 744.027343871945 L 883.7187502080342 740.3398440959281 L 884.4296878080349 737.3710940159508 L 884.0234373120475 733.2734371839324 L 882.281249792024 728.4609372159466 L 881.6640624640277 724.0585932799731 L 881.2578129920294 720.8828129279427 L 881.4609377280576 718.7343749119318 L 882.4843745280523 715.8671871999395 L 882.9999994880636 713.1015628799214 L 879.6171878400492 710.6445311999414 L 876.2421872640261 708.2890629119356 L 871.9375001600129 705.011719167931 L 865.898437632015 700.7109375999426 L 862.7265628160094 697.2304691199679 L 857.9140628480236 688.6289059839328 L 855.7578127360321 685.2499998719431 L 852.9921873920248 680.1289062399301 L 851.1484375040163 676.3398440959281 L 847.0546872320119 670.7070310399286 L 842.8593745920225 666.3046871039551 L 838.5546874880092 663.3359370239195 L 833.9453122560517 661.082031103957 L 827.1875000320142 658.7265628159512 L 822.7890626560547 656.167968767928 L 819.7187502080342 653.9140628479654 L 813.0625003520399 653.4023434239207 L 805.0703124480206 652.8906250239233 L 798.8281251840526 651.2499998719431 L 792.4765624320135 649.3046876159497 L 788.7890626560547 646.2343751679291 L 785.6171878400492 640.4999997439445 L 784.078125056054 638.347656191967 L 781.0078126080334 635.7890621439437 L 778.3437496320112 633.4335938559379 L 775.476562944008 631.078124543943 L 772.8203120640246 629.1328122879495 L 769.335937024036 626.5742182399263 L 766.1562501120497 624.9335941119352 L 762.6796871680417 622.3750000639702 L 759.6093747200212 619.5078123519197 L 756.7421870080288 616.2304686079733 L 754.078125056054 613.464843263966 L 750.9062502400484 612.031250431959 L 746.0859371520346 611.4179686399293 L 740.2500003840541 611.3164062719443 L 737.1796879360336 611.2148439039593 L 734.0078120960388 610.3945308159455 L 730.9374996480183 609.1640627199668 L 728.3750000640284 607.6289064959274 L 725.8125004800386 603.7382809599512 L 724.9921873920248 597.7968752639717 L 722.8437504000613 593.3945313279401 L 717.7265623040148 588.6835937279393 L 715.9843747840496 587.1484375039581 L 712.0937502720626 585.1015628799214 L 707.0781245440594 582.5429688319564 L 704.2109378560563 580.902343679918 L 700.3203123200219 578.8554690559395 L 697.2421877760207 577.7265623039566 L 694.2734376960434 577.011719167931 L 691.4062499840511 576.3984373759595 L 689.6640624640277 575.8867189759621 L 687.6171878400492 571.8906245119288 L 684.8515624960419 567.285155839927 L 683.0078126080334 565.1328122879495 L 681.1718748160638 563.4960936959251 L 678.5078128640307 562.2656245759572 L 675.6406251520384 561.6523438079748 L 672.2578124800348 561.8554685439449 L 667.7578127360321 562.6757816319587 L 662.53125017602 563.187500031956 L 659.4609377280576 563.4960936959251 L 655.1562496000552 564.5195315199671 L 652.390625280037 565.2343746559345 L 647.8906245120452 565.9531253759633 L 643.8906245120452 566.2578124799184 L 640.617854976037 566.0547287039226 L 636.0078120960388 562.7773439999437 L 631.8125004800386 559.0898442239268 L 629.554688000062 556.8398438399308 L 627.6093747200212 553.7656248319545 L 627.8203125760192 549.9765626879525 L 629.968749568041 545.0625003519235 L 631.2968744960381 542.2968750079744 L 632.3203123200219 539.5312496639672 L 633.2421877760207 535.539062783937 L 632.9374996480183 531.4453125119326 L 632.1171875840519 526.4257812479627 L 631.9140628480236 522.023437311931 L 632.3203123200219 517.4140620799735 L 633.4531246080296 512.9101557759568 L 635.1875000320142 508.5078128639725 L 636.8281251840526 504.5117183999391 L 636.7265628160094 495.0898442239268 L 634.3671879680478 482.906250239932 L 625.0546872320119 467.9570309119299 L 615.5312496640254 451.4687498239218 L 609.3828126720618 441.2304691199679 L 591.4687498240382 429.35156223992817 L 578.562499584048 416.550780927937 L 576.921875456057 413.1718748159474 L 586.2421872640261 410.40625049592927 L 589.0078126080334 408.0507811839343 L 589.6249999360298 398.93749964796007 L 585.015624704014 394.6367191039608 L 574.6718750720611 387.16406271996675 L 573.8515630080365 383.06640588794835 L 572.6250004480244 380.30078156793024 L 572.0078120960388 377.9453122559353 L 572.5234370560502 374.8749998079729 L 573.0312499200227 371.39062476792606 L 572.4218746880069 367.29687449592166 L 570.5781248000567 363.816406015947 L 568.3203123200219 361.4609377279412 L 566.1718753280584 359.4101565439487 L 564.0234373120475 357.2617185279378 L 561.3593753600144 355.3164062719443 L 558.390625280037 353.4726563839358 L 556.0390625280561 351.93750015995465 L 554.9062502400484 350.29687500797445 L 555.9296870400431 348.25000038393773 L 558.4921876480221 346.3046871039551 L 560.7421870080288 344.66406297596404 L 562.4843745280523 342.20703129592584 L 561.9765626880107 339.74999961594585 L 560.1328128000605 338.0117186559364 L 558.390625280037 335.6562503679306 L 558.289062912052 332.6835937279393 L 557.0625003520399 329.61328127991874 L 554.8046878720634 326.5429688319564 L 552.8593745920225 324.08203161595156 L 549.9921879040194 320.7031255039619 L 547.8437498880085 316.71093759994255 L 546.921875456057 314.15234355191933 L 546.2031247360283 311.078124543943 L 545.0781245440594 307.085937663971 L 544.562499584048 302.47656243195524 L 543.648437248019 298.1757808639668 L 542.0078120960388 295.10546841594623 L 540.0624998400453 293.3632808959228 L 535.8593751040171 292.33984409592813 L 530.7421870080288 292.2382817279431 L 527.5703121920233 291.62109337595757 L 524.7031255040201 289.98437478393316 L 523.5781253120513 287.62890649592737 L 520.7031255040201 281.38281267194543 L 516.3046871040133 278.7187496959232 L 513.0312499200227 277.39062476792606 L 511.1875000320142 276.05859327997314 L 508.52343705605017 275.2382812159485 L 504.7343749120482 273.9062497279374 L 500.53125017601997 272.3710935039562 L 497.4609377280576 271.0390620159451 L 495.5156254720059 269.81250047992216 L 493.3671874560532 267.96874956792453 L 491.01562470401404 265.61328127991874 L 489.1718748160638 263.0546872319537 L 486.71093760005897 260.08203161595156 L 484.0468746240367 257.52343756792834 L 481.5937495040125 255.26953164796578 L 479.33593702403596 253.94140671996865 L 475.2421877760207 251.5859374079737 L 470.7343749120482 248.71874969592318 L 467.25781299202936 246.25781247991836 L 463.97656268801074 243.9062497279374 L 460.70312550402014 240.93359411193524 L 458.0390625280561 238.6835937279393 L 455.8906245120452 236.3281254399335 L 454.0468746240367 234.07421849592356 L 451.898437632015 231.61718783993274 L 449.1328122880077 226.90625023993198 L 446.97656217601616 223.52734412794234 L 445.34375014400575 219.73828095995123 L 443.6015626240405 216.66406297596404 L 440.9374996480183 213.39062476792606 L 439.60937472002115 211.1367188479635 L 438.3750000640284 208.57812479994027 L 437.3515622400446 204.78906265593832 L 435.60937472002115 199.76953139196848 L 435.4062499840511 196.90234367991798 L 434.69531238405034 193.21484390395926 L 433.66406246402767 189.12109363195486 L 432.5390622720588 186.0468746239203 L 431.4140620800317 183.28515583992703 L 429.57031219202327 179.187500031956 L 426.80468787206337 174.37500006397022 L 424.25000038405415 170.277344255941 L 422.914062336029 168.02734387194505 L 419.74218752002344 164.75000012794044 L 417.6953128960449 162.90625023993198 L 414.62500044802437 160.34765619196696 L 411.2421877760207 157.88671897596214 L 408.88281292805914 156.35156275192276 L 406.83593728003325 154.9179688959266 L 404.4843745280523 153.69140633597272 L 400.8984371200204 152.15234355191933 L 398.33593753603054 150.8242186239222 L 395.47656294400804 149.4921871359693 L 391.57812531205127 147.74999961594585 L 388.20312473602826 145.80468735995237 L 385.1328122880077 143.65625036793062 L 382.57031680003274 141.40233830397483 L 380.62500044802437 139.66015590395546 L 378.6796871680417 137.4101565439487 L 376.2187499520369 133.824219135975 L 373.96874956804095 129.011719167931 L 372.1249996800325 117.85156300792005 L 372.02343731204746 113.5507814399316 L 372.6406246400438 110.16796876792796 L 373.3515622400446 107.30468761594966 L 374.2734376960434 104.64062463992741 L 376.6328125440632 99.21484390395926 L 377.9609374720603 94.91406233597081 L 378.2656245760154 90.81640652794158 L 376.83593728003325 84.67187507194467 L 375.60937472002115 79.96093747194391 L 375.546874880034 78.35546828794759 L 375.5078123520361 77.19531212793663 L 376.01562521600863 74.43359334394336 L 376.6328125440632 71.05468723195372 L 378.1640622080304 66.64843775995541 L 379.0859376640292 62.757812223921064 L 379.0859376640292 57.43359385593794 L 376.7343749120482 48.933594111935236 L 374.1718753280584 43.19921868795063 L 373.66406246402767 39.105468415946234 L 373.554688000062 36.44140646397136 L 374.07031296001514 32.34765619196696 L 375.19531212805305 29.07031244796235 L 376.42187468800694 25.99609343992779 L 378.06249984004535 22.51562495995313 L 379.1875000320142 18.523437055933755 L 379.9062497280538 14.222656511934474 L 379.8046873600106 9.71484364796197 L 378.98437529604416 5.414062079973519 L 377.8593751040171 2.6484377599554136 L 376.6382158596971 0.0" fill="none"/><path stroke="#000000" stroke-width="2" d="M 376.6382158596971 0.0 L 377.8593751040171 2.6484377599554136 L 378.98437529604416 5.414062079973519 L 379.8046873600106 9.71484364796197 L 379.9062497280538 14.222656511934474 L 379.1875000320142 18.523437055933755 L 378.06249984004535 22.51562495995313 L 376.42187468800694 25.99609343992779 L 375.19531212805305 29.07031244796235 L 374.07031296001514 32.34765619196696 L 373.554688000062 36.44140646397136 L 373.66406246402767 39.105468415946234 L 374.1718753280584 43.19921868795063 L 376.7343749120482 48.933594111935236 L 379.0859376640292 57.43359385593794 L 379.0859376640292 62.757812223921064 L 378.1640622080304 66.64843775995541 L 376.6328125440632 71.05468723195372 L 376.01562521600863 74.43359334394336 L 375.5078123520361 77.19531212793663 L 375.546874880034 78.35546828794759 L 375.60937472002115 79.96093747194391 L 376.83593728003325 84.67187507194467 L 378.2656245760154 90.81640652794158 L 377.9609374720603 94.91406233597081 L 376.6328125440632 99.21484390395926 L 374.2734376960434 104.64062463992741 L 373.3515622400446 107.30468761594966 L 372.6406246400438 110.16796876792796 L 372.02343731204746 113.5507814399316 L 372.1249996800325 117.85156300792005 L 373.96874956804095 129.011719167931 L 376.2187499520369 133.824219135975 L 378.6796871680417 137.4101565439487 L 380.62500044802437 139.66015590395546 L 382.57031680003274 141.40233830397483 L 385.1328122880077 143.65625036793062 L 388.20312473602826 145.80468735995237 L 391.57812531205127 147.74999961594585 L 395.47656294400804 149.4921871359693 L 398.33593753603054 150.8242186239222 L 400.8984371200204 152.15234355191933 L 404.4843745280523 153.69140633597272 L 406.83593728003325 154.9179688959266 L 408.88281292805914 156.35156275192276 L 411.2421877760207 157.88671897596214 L 414.62500044802437 160.34765619196696 L 417.6953128960449 162.90625023993198 L 419.74218752002344 164.75000012794044 L 422.914062336029 168.02734387194505 L 424.25000038405415 170.277344255941 L 426.80468787206337 174.37500006397022 L 429.57031219202327 179.187500031956 L 431.4140620800317 183.28515583992703 L 432.5390622720588 186.0468746239203 L 433.66406246402767 189.12109363195486 L 434.69531238405034 193.21484390395926 L 435.4062499840511 196.90234367991798 L 435.60937472002115 199.76953139196848 L 437.3515622400446 204.78906265593832 L 438.3750000640284 208.57812479994027 L 439.60937472002115 211.1367188479635 L 440.9374996480183 213.39062476792606 L 443.6015626240405 216.66406297596404 L 445.34375014400575 219.73828095995123 L 446.97656217601616 223.52734412794234 L 449.1328122880077 226.90625023993198 L 451.898437632015 231.61718783993274 L 454.0468746240367 234.07421849592356 L 455.8906245120452 236.3281254399335 L 458.0390625280561 238.6835937279393 L 460.70312550402014 240.93359411193524 L 463.97656268801074 243.9062497279374 L 467.25781299202936 246.25781247991836 L 470.7343749120482 248.71874969592318 L 475.2421877760207 251.5859374079737 L 479.33593702403596 253.94140671996865 L 481.5937495040125 255.26953164796578 L 484.0468746240367 257.52343756792834 L 486.71093760005897 260.08203161595156 L 489.1718748160638 263.0546872319537 L 491.01562470401404 265.61328127991874 L 493.3671874560532 267.96874956792453 L 495.5156254720059 269.81250047992216 L 497.4609377280576 271.0390620159451 L 500.53125017601997 272.3710935039562 L 504.7343749120482 273.9062497279374 L 508.52343705605017 275.2382812159485 L 511.1875000320142 276.05859327997314 L 513.0312499200227 277.39062476792606 L 516.3046871040133 278.7187496959232 L 520.7031255040201 281.38281267194543 L 523.5781253120513 287.62890649592737 L 524.7031255040201 289.98437478393316 L 527.5703121920233 291.62109337595757 L 530.7421870080288 292.2382817279431 L 535.8593751040171 292.33984409592813 L 540.0624998400453 293.3632808959228 L 542.0078120960388 295.10546841594623 L 543.648437248019 298.1757808639668 L 544.562499584048 302.47656243195524 L 545.0781245440594 307.085937663971 L 546.2031247360283 311.078124543943 L 546.921875456057 314.15234355191933 L 547.8437498880085 316.71093759994255 L 549.9921879040194 320.7031255039619 L 552.8593745920225 324.08203161595156 L 554.8046878720634 326.5429688319564 L 557.0625003520399 329.61328127991874 L 558.289062912052 332.6835937279393 L 558.390625280037 335.6562503679306 L 560.1328128000605 338.0117186559364 L 561.9765626880107 339.74999961594585 L 562.4843745280523 342.20703129592584 L 560.7421870080288 344.66406297596404 L 558.4921876480221 346.3046871039551 L 555.9296870400431 348.25000038393773 L 554.9062502400484 350.29687500797445 L 556.0390625280561 351.93750015995465 L 558.390625280037 353.4726563839358 L 561.3593753600144 355.3164062719443 L 564.0234373120475 357.2617185279378 L 566.1718753280584 359.4101565439487 L 568.3203123200219 361.4609377279412 L 570.5781248000567 363.816406015947 L 572.4218746880069 367.29687449592166 L 573.0312499200227 371.39062476792606 L 572.5234370560502 374.8749998079729 L 572.0078120960388 377.9453122559353 L 572.6250004480244 380.30078156793024 L 573.8515630080365 383.06640588794835 L 574.6718750720611 387.16406271996675 L 585.015624704014 394.6367191039608 L 589.6249999360298 398.93749964796007 L 589.0078126080334 408.0507811839343 L 586.2421872640261 410.40625049592927 L 576.921875456057 413.1718748159474 L 578.562499584048 416.550780927937 L 591.4687498240382 429.35156223992817 L 609.3828126720618 441.2304691199679 L 615.5312496640254 451.4687498239218 L 625.0546872320119 467.9570309119299 L 634.3671879680478 482.906250239932 L 636.7265628160094 495.0898442239268 L 636.8281251840526 504.5117183999391 L 635.1875000320142 508.5078128639725 L 633.4531246080296 512.9101557759568 L 632.3203123200219 517.4140620799735 L 631.9140628480236 522.023437311931 L 632.1171875840519 526.4257812479627 L 632.9374996480183 531.4453125119326 L 633.2421877760207 535.539062783937 L 632.3203123200219 539.5312496639672 L 631.2968744960381 542.2968750079744 L 629.968749568041 545.0625003519235 L 627.8203125760192 549.9765626879525 L 627.6093747200212 553.7656248319545 L 629.554688000062 556.8398438399308 L 631.8125004800386 559.0898442239268 L 636.0078120960388 562.7773439999437 L 640.617854976037 566.0547287039226 L 643.8906245120452 566.2578124799184 L 647.8906245120452 565.9531253759633 L 652.390625280037 565.2343746559345 L 655.1562496000552 564.5195315199671 L 659.4609377280576 563.4960936959251 L 662.53125017602 563.187500031956 L 667.7578127360321 562.6757816319587 L 672.2578124800348 561.8554685439449 L 675.6406251520384 561.6523438079748 L 678.5078128640307 562.2656245759572 L 681.1718748160638 563.4960936959251 L 683.0078126080334 565.1328122879495 L 684.8515624960419 567.285155839927 L 687.6171878400492 571.8906245119288 L 689.6640624640277 575.8867189759621 L 691.4062499840511 576.3984373759595 L 694.2734376960434 577.011719167931 L 697.2421877760207 577.7265623039566 L 700.3203123200219 578.8554690559395 L 704.2109378560563 580.902343679918 L 707.0781245440594 582.5429688319564 L 712.0937502720626 585.1015628799214 L 715.9843747840496 587.1484375039581 L 717.7265623040148 588.6835937279393 L 722.8437504000613 593.3945313279401 L 724.9921873920248 597.7968752639717 L 725.8125004800386 603.7382809599512 L 728.3750000640284 607.6289064959274 L 730.9374996480183 609.1640627199668 L 734.0078120960388 610.3945308159455 L 737.1796879360336 611.2148439039593 L 740.2500003840541 611.3164062719443 L 746.0859371520346 611.4179686399293 L 750.9062502400484 612.031250431959 L 754.078125056054 613.464843263966 L 756.7421870080288 616.2304686079733 L 759.6093747200212 619.5078123519197 L 762.6796871680417 622.3750000639702 L 766.1562501120497 624.9335941119352 L 769.335937024036 626.5742182399263 L 772.8203120640246 629.1328122879495 L 775.476562944008 631.078124543943 L 778.3437496320112 633.4335938559379 L 781.0078126080334 635.7890621439437 L 784.078125056054 638.347656191967 L 785.6171878400492 640.4999997439445 L 788.7890626560547 646.2343751679291 L 792.4765624320135 649.3046876159497 L 798.8281251840526 651.2499998719431 L 805.0703124480206 652.8906250239233 L 813.0625003520399 653.4023434239207 L 819.7187502080342 653.9140628479654 L 822.7890626560547 656.167968767928 L 827.1875000320142 658.7265628159512 L 833.9453122560517 661.082031103957 L 838.5546874880092 663.3359370239195 L 842.8593745920225 666.3046871039551 L 847.0546872320119 670.7070310399286 L 851.1484375040163 676.3398440959281 L 852.9921873920248 680.1289062399301 L 855.7578127360321 685.2499998719431 L 857.9140628480236 688.6289059839328 L 862.7265628160094 697.2304691199679 L 865.898437632015 700.7109375999426 L 871.9375001600129 705.011719167931 L 876.2421872640261 708.2890629119356 L 879.6171878400492 710.6445311999414 L 882.9999994880636 713.1015628799214 L 882.4843745280523 715.8671871999395 L 881.4609377280576 718.7343749119318 L 881.2578129920294 720.8828129279427 L 881.6640624640277 724.0585932799731 L 882.281249792024 728.4609372159466 L 884.0234373120475 733.2734371839324 L 884.4296878080349 737.3710940159508 L 883.7187502080342 740.3398440959281 L 884.3281254400499 744.027343871945 L 885.968749568041 748.5312501759618 L 888.1171875840519 752.2187499519205 L 889.656250368047 754.9843752959277 L 889.3515622400446 757.3398435839335 L 888.3203123200219 758.8749998079729 L 884.1249996800325 759.7968752639717 L 881.9945318400278 759.3360179199371 L 878.9062502400484 758.6679685119307 L 874.4999997440609 758.1562501119333 L 870.0937502720626 758.8749998079729 L 867.023437824042 759.4882815999445 L 863.335937024036 759.3867192319594 L 859.0390620160615 758.5664061439456 L 854.9374996480183 758.6679685119307 L 855.656250368047 761.535156223923 L 855.8593751040171 765.4257817599573 L 853.7109370880062 768.1914060799754 L 851.3593753600144 768.9101557759568 L 847.0546872320119 770.1367183359689 L 843.9843747840496 772.800781311933 L 843.5781253120513 776.0781250559376 L 841.5234375680448 778.3281254399335 L 828.5234370560502 787.6484372479608 L 820.2265620480175 795.2265625599539 L 810.7031255040201 803.3164062719443 L 807.1171870720573 807.4101565439487 L 803.3281249280553 810.0742184959236 L 795.2421877760207 813.9648440319579 L 793.0937497600098 816.4218746879487 L 793.195312128053 821.2343746559345 L 793.7031249920256 825.4335938559379 L 792.1718753280584 829.3242183679249 L 789.2031252480228 832.2929684479604 L 782.9531248640269 834.445311999938 L 778.1406248960411 836.0820316159516 L 776.2968750080327 837.7226557439426 L 773.8437498880085 840.1796874239226 L 767.1875000320142 844.0703129599569 L 764.8281251840526 845.5039057919639 L 761.7578127360321 846.7343749119318 L 758.1718753280584 847.5507814399316 L 754.5859379200265 848.4726558719412 L 748.9531248640269 849.7031249919673 L 742.1953126400476 847.7578127359739 L 738.3046871040133 848.167968767928 L 729.9140628480236 849.3945313279401 L 726.9453127680463 851.3398435839335 L 724.078125056054 853.4921871359693 L 719.5703121920233 858.8164065279416 L 718.0312504320173 860.558594047965 L 716.289062912052 862.0937502719462 L 714.7578122240375 863.7304688639706 L 712.0937502720626 866.5976565759629 L 709.5312496640254 869.0546872319537 L 707.2812503040186 871.820312575961 L 704.5156249600113 875.3007810559357 L 698.0624998400453 880.1171875839354 L 695.5078123520361 881.9570309119299 L 690.7968747520354 884.1093754879548 L 684.9609379840549 885.644531711936 L 679.8359377920278 886.7695308799739 L 676.6640629760223 886.6679685119307 L 674.2031247360283 886.5664061439456 L 670.9296875520376 886.3632814079756 L 667.0390620160615 886.3632814079756 L 664.4765624320135 886.8749998079729 L 661.9140628480236 888.1015623679268 L 659.5625000960426 890.1523435519193 L 657.4140620800317 892.8124999679276 L 655.9765626880107 895.7812500479631 L 654.5468753920286 897.8320312319556 L 651.7812500480213 900.1874995199614 L 648.0937502720626 902.7460935679264 L 645.8437498880085 903.6679690239253 L 642.8671877120505 904.2812497919658 L 639.898437632015 904.4882810879499 L 634.3671879680478 905.816406015947 L 630.6875002880115 907.9687495679245 L 628.1249996800325 909.3007810559357 L 624.8515624960419 910.9374996479601 L 620.5468753920286 910.6289059839328 L 616.3515627520392 910.2226565119345 L 612.8671877120505 909.710937087948 L 607.8515630080365 909.9140628479654 L 603.445312512049 911.0390620159451 L 598.8359372800332 913.3945313279401 L 596.281249792024 915.5468748799758 L 593.4140620800317 918.0039065599558 L 591.3671874560532 921.2812503039604 L 588.7031255040201 923.8398433279363 L 586.7578122240375 926.5039063039585 L 585.7343754240428 928.9609379839385 L 581.9453122560517 932.1367183359689 L 579.5859374080319 934.4882810879499 L 577.335937024036 942.3750000639702 L 577.4375004160102 945.2421877759625 L 576.2109378560563 949.1328122879495 L 575.0781245440594 955.3789061119314 L 574.4687503360328 961.5234375679283 L 574.1640622080304 964.6992189439479 L 574.0546877440065 968.8945315839374 L 574.8749998080311 972.5820313599543 L 576.2109378560563 975.3476567039615 L 577.9531253760215 979.7499996159459 L 578.562499584048 985.2812503039604 L 578.1562501120497 990.1953126399312 L 577.0312499200227 996.2382817279431 L 575.1875000320142 1000.8437503999448 L 572.9296875520376 1004.2226565119345 L 569.554688000062 1007.3984378879541 L 566.4765624320135 1009.4453125119326 L 562.9999994880636 1011.085937663971 L 558.289062912052 1012.7226562559372 L 553.0625003520399 1011.9062497279374 L 548.9687500800355 1011.5976560639683 L 546.5078128640307 1013.5429683199618 L 545.3828126720618 1016.4101560319541 L 546.0000000000582 1019.2773437439464 L 549.7890621440602 1021.7343754239264 L 553.0625003520399 1023.4765629439498 L 553.4053094636038 1024.0" fill="none"/><path stroke="#408040" stroke-width="3" d="M 883.640590197494 0.0 L 876.7692799999932 36.79232000000047 L 865.5052799999976 99.10272000000259 L 865.8227199999965 108.50304000000324 L 869.2223999999987 114.65727999999945 L 871.3318399999989 119.0604800000001 L 872.2636800000037 125.72671999999875 L 873.5129599999927 144.17919999999867 L 875.5302399999928 174.3052800000005 L 874.8031999999948 184.0332800000033 L 872.3660800000071 191.92831999999908 L 864.7987200000061 204.08320000000094 L 849.2134400000068 217.08800000000338 L 830.9452799999999 230.14400000000023 L 798.0236799999984 253.25568000000203 L 773.4374399999942 266.21951999999874 L 754.851840000003 273.0700799999977 L 735.5187199999928 275.7222400000028 L 711.5571199999977 276.4083200000023 L 673.116160000005 277.4835200000016 L 618.9772800000064 279.64416000000347 L 567.2960000000021 285.6857600000003 L 537.7433599999931 288.3379199999981 L 520.1715200000035 289.75104000000283 L 511.4777599999943 288.66560000000027 L 490.0454400000017 289.5052799999976 L 484.8332800000062 289.1571200000035 L 479.25247999999556 287.1296000000002 L 470.94783999999345 282.43968000000314 L 465.1929600000003 277.5142399999968 L 458.98751999999513 270.15168000000267 L 446.2899199999956 254.95552000000316 L 431.34975999999733 236.4620799999975 L 423.6697600000043 213.5859199999977 L 417.5769600000058 194.27328000000125 L 413.9929600000032 183.36768000000302 L 408.57600000000093 173.74208000000363 L 399.7900800000061 167.5775999999969 L 394.95679999999993 157.78815999999642 L 373.22752000000037 143.10399999999936 L 351.6313599999994 128.49152000000322 L 340.9305599999934 121.43615999999747 L 332.95359999999346 118.08767999999691 L 313.9481599999999 111.92319999999745 L 307.1385600000067 110.88895999999659 L 283.3920000000071 117.51423999999679 L 256.37888000000385 123.5558400000009 L 246.3948800000071 124.55935999999929 L 229.1814400000003 120.05376000000251 L 218.22464000000036 120.02304000000004 L 212.45952000000398 121.49760000000242 L 195.860480000003 126.69952000000194 L 168.14079999999376 134.58432000000175 L 159.528959999996 135.4137600000031 L 152.86272000000463 137.6255999999994 L 144.59904000000097 142.24384000000282 L 133.8675199999998 144.36351999999897 L 119.66464000000269 146.78016000000207 L 110.29503999999724 148.03968000000168 L 99.85023999999976 146.9337599999999 L 85.55520000000251 145.41823999999906 L 74.33216000000539 146.1145600000018 L 37.57055999999284 156.35455999999976 L 0.0 166.76968992404727" fill="none"/></svg>