<svg xmlns="http://www.w3.org/2000/svg" width="1024" height="1024"><rect stroke="none" x="0" y="0" width="1024" height="1024" fill="white"/><path stroke="#000000" stroke-width="2" d="M 0.0 0.8201973418472335 L 4.664893440087326 0.8248934398288839 L 20.408564736077096 0.8365957118803635 L 45.367187456053216 0.9101557760150172 L 75.98437478410779 0.9101557760150172 L 81.3124997120467 1.0117191679310054 L 127.4921871360857 1.0117191679310054 L 133.57096960011404 0.9102233598241583 L 165.57510656001978 0.9102233598241583 L 199.53777664003428 0.9386700798058882 L 216.38567526405677 0.9500354559277184 L 241.66406246402767 1.0117191679310054 L 305.8125004800968 1.0117191679310054 L 322.53155328001594 1.0239999999757856 L 329.74999961606227 1.0117191679310054 L 355.5390627841116 1.0117191679310054 L 378.59586355200736 0.9117235198500566 L 379.2213299201103 0.9102233598241583 L 411.9893299200339 0.8533299198606983 L 435.8826700801146 0.8248934398288839 L 440.7265628160676 0.8085934079717845 L 442.0369285120978 0.806748159811832 L 466.84508160006953 0.806748159811832 L 509.95548160001636 0.7043481598957442 L 532.9954816000536 0.7043481598957442 L 550.4218746880651 0.6367191039025784 L 558.6488934400259 0.6257766399066895 L 570.6596485120244 0.6019481599796563 L 596.2786816000589 0.6019481599796563 L 610.5005393920583 0.5282600959762931 L 626.2265620480175 0.4999997440027073 L 638.9765621760744 0.4999997440027073 L 696.6328125440632 0.3984373759594746 L 710.0468746240367 0.3984373759594746 L 722.1249996800325 0.4999997440027073 L 725.0937497600098 0.3984373759594746 L 732.6796871680999 0.3203123198472895 L 737.1953121281113 0.30859366396907717 L 767.4921871360275 0.4999997440027073 L 805.8914816000615 0.19234815990785137 L 824.221081600117 0.19234815990785137 L 831.7374617601163 0.15360409580171108 L 847.1129231360392 0.11849727999651805 L 854.9410816000309 0.19234815990785137 L 860.0610816000262 0.19234815990785137 L 875.523481600103 0.08994815999176353 L 883.4082816001028 0.08994815999176353 L 902.4985067520174 0.015666175924707204 L 909.7656248320127 1.0238727554678917e-06 L 921.0234378241003 0.015625215892214328 L 951.1970816000248 0.08994815999176353 L 964.5449175040121 0.08994815999176353 L 969.6314634240698 0.10258431994589046 L 974.3359621120617 0.29460479982662946 L 974.4453120001126 7.566406655823812 L 974.5468753920286 10.945312767929863 L 974.3359375360305 13.300781055819243 L 974.3437496320694 18.316405759833287 L 974.2343751681037 31.42578175989911 L 974.2343751681037 37.05859379185131 L 974.1328128000605 42.89453158399556 L 974.0312504320173 50.77734399982728 L 974.1328128000605 59.99218790384475 L 974.0312504320173 67.98046924796654 L 973.9296870401013 76.89062502392335 L 974.1328128000605 91.22656255983748 L 974.1328128000605 95.4257817598409 L 974.2343751681037 100.44140646385495 L 974.2343751681037 106.58593791996827 L 974.1328128000605 116.21093785593985 L 974.1328128000605 122.96875007997733 L 974.0312504320173 126.96484351996332 L 973.9296870401013 129.8320312318392 L 974.0312504320173 133.7226557440008 L 974.1328128000605 138.43359334388515 L 974.1328128000605 143.14453094394412 L 974.0312504320173 146.62500044796616 L 974.0312504320173 156.35156275180634 L 974.1328128000605 167.10546841582982 L 974.1328128000605 181.95312537590507 L 974.2343751681037 196.90234367991798 L 974.2343751681037 208.57812479988206 L 974.1328128000605 212.4687503359164 L 974.3359375360305 215.84765644784784 L 974.5468753920286 225.67578111990588 L 974.4453120001126 232.43749990395736 L 974.6484377600718 240.01171865582 L 974.3437496320694 245.6445317118778 L 974.2343751681037 254.65624985587783 L 974.4453120001126 256.7031255039037 L 974.5468753920286 259.57031219184864 L 974.5468753920286 262.43749990389915 L 974.6484377600718 264.89453158393735 L 974.7500001281151 267.1484375039581 L 974.6484377600718 269.40234342380427 L 974.7500001281151 284.8632811519201 L 974.9531248640851 299.8164060160052 L 974.9531248640851 314.558594047965 L 975.1562496000552 329.30468761589145 L 975.1562496000552 334.7343749119318 L 975.0546872320119 337.80468735983595 L 974.9531248640851 344.3593748479616 L 974.9531248640851 350.0937502718298 L 975.0546872320119 359.105468415888 L 975.1562496000552 370.2656245759572 L 975.5703121920233 374.8749998079729 L 975.2578129920294 383.2695316479658 L 975.0546872320119 386.03515596786747 L 974.9531248640851 388.5937500159489 L 974.7500001281151 397.19531212793663 L 974.7500001281151 407.43750041583553 L 974.6484377600718 411.7382809599512 L 974.8515624960419 418.1874995199614 L 975.0546872320119 426.89453158382094 L 975.1562496000552 433.5507814399316 L 975.1562496000552 453.003906047903 L 975.0546872320119 463.0390620158869 L 975.0546872320119 480.5507809278206 L 975.2578129920294 485.8750003199093 L 975.1562496000552 489.1523440639139 L 975.1562496000552 493.6562503678724 L 975.0546872320119 500.51953151996713 L 974.8515624960419 511.57812531181844 L 975.2578129920294 518.0273438718286 L 975.2578129920294 522.2265620479593 L 975.4687498240964 539.3281249278225 L 975.4687498240964 549.7734379518079 L 975.5703121920233 552.9492183038965 L 975.5703121920233 560.933594111877 L 975.7734379520407 566.6679685118725 L 975.7734379520407 579.6718745599501 L 975.8750003200839 584.7929692159523 L 975.8750003200839 592.7812495359685 L 975.7734379520407 603.1250001919107 L 975.9765626880107 611.2148439038428 L 975.9765626880107 624.7304683518596 L 976.078125056054 627.0859376640292 L 975.9765626880107 633.5351562238066 L 976.281249792024 640.4999997439445 L 976.4921876480221 658.0117186558782 L 976.5937500160653 662.8242186239804 L 976.5937500160653 673.4726563838194 L 976.4921876480221 679.4101565439487 L 976.5937500160653 687.8085939199082 L 976.7968747520354 695.3867192320176 L 976.6953123841085 699.5859374079155 L 976.6953123841085 702.6562498558778 L 976.5937500160653 705.6249999359134 L 976.7968747520354 717.812500479864 L 976.6953123841085 729.8945310718263 L 976.7968747520354 732.3515627518645 L 976.8984371200786 747.1992186880088 L 976.7968747520354 753.8554685439449 L 976.6953123841085 758.3632814079174 L 977.1015628800378 762.8671877118759 L 976.8984371200786 767.9882813439472 L 977.3124997120467 772.6992189438315 L 977.203125248081 776.7929692159523 L 977.203125248081 780.9921873919084 L 977.3124997120467 784.6796871679253 L 977.203125248081 795.1250001919107 L 977.203125248081 799.3203128318419 L 977.5156254721223 821.0312499199063 L 977.4140620800899 825.640625151922 L 977.3124997120467 829.1210936318384 L 977.4140620800899 834.2421872639679 L 977.4140620800899 842.6367191039026 L 977.6171878400492 853.390624767926 L 977.4140620800899 856.8710932479007 L 977.6171878400492 860.0468746239203 L 977.6171878400492 863.8320312318392 L 977.7187502080924 875.6093747199047 L 977.7187502080924 895.5781253118184 L 977.8203125760192 911.3476567039615 L 978.1249996800325 947.800780799822 L 978.3359375360305 980.1601566720055 L 978.4374999040738 986.7148441598983 L 978.539062272117 998.5937500159489 L 978.6406246400438 1016.613280767866 L 978.6406246400438 1021.531249663909 L 978.8366177436401 1024.0" fill="none"/><path stroke="#000000" stroke-width="2" d="M 978.8366177436401 1024.0 L 978.6406246400438 1021.5312496639672 L 978.6406246400438 1016.6132807679242 L 978.5390622720588 998.5937500159489 L 978.4374999040156 986.7148441599566 L 978.3359375360305 980.1601566719473 L 978.1249996800325 947.8007807999384 L 977.8203125760192 911.3476567039615 L 977.7187502080342 895.5781253119349 L 977.7187502080342 875.609374719963 L 977.6171878400492 863.8320312319556 L 977.6171878400492 860.0468746239203 L 977.4140620800317 856.8710932479589 L 977.6171878400492 853.390624767926 L 977.4140620800317 842.6367191039608 L 977.4140620800317 834.2421872639679 L 977.3124997120467 829.1210936319549 L 977.4140620800317 825.640625151922 L 977.5156254720641 821.0312499199645 L 977.2031252480228 799.3203128319583 L 977.2031252480228 795.1250001919689 L 977.3124997120467 784.6796871679253 L 977.2031252480228 780.9921873919666 L 977.2031252480228 776.7929692159523 L 977.3124997120467 772.6992189439479 L 976.8984371200204 767.9882813439472 L 977.1015628800378 762.8671877119341 L 976.6953123840503 758.3632814079174 L 976.7968747520354 753.8554685439449 L 976.8984371200204 747.1992186879506 L 976.7968747520354 732.3515627519228 L 976.6953123840503 729.8945310719428 L 976.7968747520354 717.8125004799222 L 976.5937500160071 705.6249999359716 L 976.6953123840503 702.656249855936 L 976.6953123840503 699.5859374079737 L 976.7968747520354 695.3867192319594 L 976.5937500160071 687.8085939199664 L 976.4921876480221 679.4101565439487 L 976.5937500160071 673.4726563839358 L 976.5937500160071 662.8242186239222 L 976.4921876480221 658.0117186559364 L 976.281249792024 640.4999997439445 L 975.9765626880107 633.535156223923 L 976.078125056054 627.085937663971 L 975.9765626880107 624.7304683519178 L 975.9765626880107 611.2148439039593 L 975.7734379520407 603.1250001919689 L 975.8750003200257 592.7812495359685 L 975.8750003200257 584.7929692159523 L 975.7734379520407 579.6718745599501 L 975.7734379520407 566.6679685119307 L 975.5703121920233 560.9335941119352 L 975.5703121920233 552.9492183039547 L 975.4687498240382 549.7734379519243 L 975.4687498240382 539.3281249279389 L 975.2578129920294 522.2265620479593 L 975.2578129920294 518.027343871945 L 974.8515624960419 511.57812531193485 L 975.0546872320119 500.51953151996713 L 975.1562496000552 493.6562503679306 L 975.1562496000552 489.1523440639721 L 975.2578129920294 485.8750003199675 L 975.0546872320119 480.550780927937 L 975.0546872320119 463.0390620159451 L 975.1562496000552 453.0039060479612 L 975.1562496000552 433.5507814399316 L 975.0546872320119 426.89453158393735 L 974.8515624960419 418.1874995199614 L 974.6484377600136 411.7382809599512 L 974.7500001280569 407.43750041595194 L 974.7500001280569 397.19531212793663 L 974.9531248640269 388.5937500159489 L 975.0546872320119 386.0351559679257 L 975.2578129920294 383.2695316479658 L 975.5703121920233 374.8749998079729 L 975.1562496000552 370.2656245759572 L 975.0546872320119 359.10546841594623 L 974.9531248640269 350.0937502719462 L 974.9531248640269 344.3593748479616 L 975.0546872320119 337.80468735995237 L 975.1562496000552 334.7343749119318 L 975.1562496000552 329.30468761594966 L 974.9531248640269 314.558594047965 L 974.9531248640269 299.816406015947 L 974.7500001280569 284.8632811519201 L 974.6484377600136 269.4023434239207 L 974.7500001280569 267.1484375039581 L 974.6484377600136 264.89453158393735 L 974.5468753920286 262.43749990395736 L 974.5468753920286 259.57031219196506 L 974.4453120000544 256.7031255039619 L 974.2343751680455 254.65624985593604 L 974.3437496320112 245.644531711936 L 974.6484377600136 240.01171865593642 L 974.4453120000544 232.43749990395736 L 974.5468753920286 225.67578111996409 L 974.3359375360305 215.84765644796425 L 974.1328128000605 212.4687503359164 L 974.2343751680455 208.57812479994027 L 974.2343751680455 196.90234367991798 L 974.1328128000605 181.95312537596328 L 974.1328128000605 167.10546841594623 L 974.0312504320173 156.35156275192276 L 974.0312504320173 146.62500044796616 L 974.1328128000605 143.14453094394412 L 974.1328128000605 138.43359334394336 L 974.0312504320173 133.7226557439426 L 973.9296870400431 129.83203123195563 L 974.0312504320173 126.96484351996332 L 974.1328128000605 122.96875007991912 L 974.1328128000605 116.21093785593985 L 974.2343751680455 106.58593791996827 L 974.2343751680455 100.44140646397136 L 974.1328128000605 95.42578175995732 L 974.1328128000605 91.22656255995389 L 973.9296870400431 76.89062502392335 L 974.0312504320173 67.98046924796654 L 974.1328128000605 59.99218790396117 L 974.0312504320173 50.777343999943696 L 974.1328128000605 42.89453158393735 L 974.2343751680455 37.05859379196772 L 974.2343751680455 31.425781759957317 L 974.3437496320112 18.316405759949703 L 974.3359375360305 13.300781055935659 L 974.5468753920286 10.945312767929863 L 974.4453120000544 7.566406655940227 L 974.3359621120617 0.2946047999430448 L 1003.1138816000312 0.2947481599403545 L 1011.3046876160079 0.3984373759594746 L 1023.4921871360275 0.2968750079162419 L 1024.0 0.3031682000437286" fill="none"/></svg>