<svg xmlns="http://www.w3.org/2000/svg" width="1024" height="1024"><rect stroke="none" x="0" y="0" width="1024" height="1024" fill="white"/><path stroke="#000000" stroke-width="2" d="M 978.8366177436401 0.0 L 978.8437504000613 0.08984371193218976 L 978.8437504000613 4.289062911935616 L 978.7421870080871 7.359375359897967 L 978.8437504000613 14.52734361588955 L 979.0468751360313 22.105468927824404 L 979.0468751360313 31.937500159954652 L 979.3593753600726 41.4609377279412 L 979.4609377280576 46.57812479994027 L 979.6640624640859 51.699218431836925 L 979.7656248320127 58.558594047965016 L 979.7656248320127 61.83593779185321 L 980.0703129600151 65.93359359994065 L 980.0703129600151 75.96874956792453 L 980.4843745281105 95.01562470389763 L 980.5859379200265 100.64843775995541 L 980.789062656113 111.29687449592166 L 980.789062656113 114.67578163190046 L 980.992187392083 120.51171839988092 L 981.203125248081 125.7343754239264 L 981.203125248081 128.191406079859 L 981.3046876160079 134.2343751679291 L 981.3046876160079 140.99218739190837 L 981.4062499840511 145.1914065919118 L 981.4062499840511 147.33984358387534 L 981.3046876160079 151.02734335995046 L 981.3046876160079 154.60937523201574 L 981.203125248081 157.7851566078025 L 981.1015628800378 162.08593715180177 L 980.992187392083 169.56250009586802 L 980.8906250240398 177.75390617584344 L 980.6875002880697 180.8242186238058 L 980.5859379200265 184.9218754559406 L 980.4843745281105 191.88671897590393 L 980.4843745281105 195.26562508795178 L 980.58588160004 198.54114815988578 L 980.6875002880697 201.30468761594966 L 980.6875002880697 203.55859353602864 L 980.3828121600673 209.50000025582267 L 980.3828121600673 215.94921881583286 L 980.281249792024 221.47656294394983 L 980.1796874240972 230.5937500158907 L 980.0703129600151 239.6015626238077 L 979.9687495680992 243.49609369580867 L 979.8671872000559 248.51171839999733 L 979.6640624640859 255.98828134383075 L 979.7656248320127 259.4687498238054 L 979.4609377280576 330.63671910384437 L 979.3593753600726 335.8593751039589 L 979.3593753600726 354.29296844790224 L 979.2578129920294 365.8632816639147 L 979.2578129920294 382.8593745918479 L 978.7421870080871 396.99218739185017 L 979.0468751360313 406.31250022392487 L 978.9453127681045 420.648437759839 L 978.9453127681045 432.8320317439502 L 978.8437504000613 463.1445309440023 L 978.8437504000613 494.17187532794196 L 978.7421870080871 511.9882813440054 L 978.2265620480175 530.4179691518075 L 978.2343751681037 537.7929687039577 L 978.3359375360305 548.9531248638523 L 978.3359375360305 554.0742184959236 L 978.2265620480175 557.5546879999456 L 978.3359375360305 571.4804684799165 L 978.1249996800325 575.0664058879483 L 977.7187502080924 603.0195312639698 L 977.8203125760192 608.5507809278788 L 977.8203125760192 617.0507816959289 L 977.9218749440624 622.9882808318362 L 977.9218749440624 626.0624998398125 L 978.0234373121057 640.4999997439445 L 977.9218749440624 645.0039060478448 L 977.8203125760192 651.8671871999395 L 977.8203125760192 656.7812495359103 L 977.6171878400492 673.0625003519817 L 977.7187502080924 675.9296870399266 L 977.6171878400492 679.2070307839313 L 977.6171878400492 684.8398438398144 L 977.7187502080924 714.1249996798579 L 977.7187502080924 734.2968750079162 L 977.8203125760192 740.4414064639714 L 977.7187440640992 743.5156254719477 L 977.8203125760192 746.5859379199101 L 977.8203125760192 752.218749951804 L 977.7187502080924 762.5585940479068 L 977.6171878400492 767.9882813439472 L 977.4140620800899 803.1093749759602 L 977.4140620800899 811.6093747199047 L 977.5156254721223 817.3437501438311 L 977.7187502080924 842.2265620479593 L 977.8203125760192 864.5507809278206 L 977.9218749440624 867.109374975902 L 978.0234373121057 869.464843263966 L 978.0234373121057 872.2304686079733 L 978.1249996800325 893.5312496639672 L 978.0234373121057 896.6015621119295 L 977.8203125760192 901.109374975902 L 977.9218749440624 909.7109370878898 L 977.8203125760192 928.2421872639679 L 977.8203125760192 939.5078123519779 L 977.5156254721223 943.5000002558227 L 977.6171878400492 952.6132807679242 L 977.6171878400492 957.1210936318967 L 977.7187502080924 965.1054684159462 L 977.7187502080924 978.5234370559338 L 977.8203125760192 982.1054689278244 L 977.8203125760192 985.9960934398114 L 977.7187502080924 999.2070307838148 L 977.6171878400492 1002.9960939518642 L 977.5156254721223 1015.1796879359172 L 977.3124997120467 1018.2539059200208 L 977.6171878400492 1023.988281343889 L 977.6171878400492 1024.0" fill="none"/><path stroke="#000000" stroke-width="2" d="M 977.6171878400492 1024.0 L 977.6171878400492 1023.9882813439472 L 977.3124997120467 1018.2539059199626 L 977.5156254720641 1015.1796879359172 L 977.6171878400492 1002.9960939519224 L 977.7187502080342 999.2070307839313 L 977.8203125760192 985.9960934399278 L 977.8203125760192 982.1054689279408 L 977.7187502080342 978.5234370559338 L 977.7187502080342 965.1054684159462 L 977.6171878400492 957.1210936319549 L 977.6171878400492 952.6132807679242 L 977.5156254720641 943.5000002559391 L 977.8203125760192 939.5078123519197 L 977.8203125760192 928.2421872639679 L 977.9218749440624 909.710937087948 L 977.8203125760192 901.1093749759602 L 978.0234373120475 896.6015621119295 L 978.1249996800325 893.5312496639672 L 978.0234373120475 872.2304686079733 L 978.0234373120475 869.464843263966 L 977.9218749440624 867.1093749759602 L 977.8203125760192 864.550780927937 L 977.7187502080342 842.2265620479593 L 977.5156254720641 817.3437501439475 L 977.4140620800317 811.609374719963 L 977.4140620800317 803.1093749759602 L 977.6171878400492 767.9882813439472 L 977.7187502080342 762.558594047965 L 977.8203125760192 752.2187499519205 L 977.8203125760192 746.5859379199683 L 977.718744064041 743.5156254719477 L 977.8203125760192 740.4414064639714 L 977.7187502080342 734.2968750079744 L 977.7187502080342 714.1249996799743 L 977.6171878400492 684.8398438399308 L 977.6171878400492 679.2070307839313 L 977.7187502080342 675.9296870399266 L 977.6171878400492 673.0625003519235 L 977.8203125760192 656.7812495359685 L 977.8203125760192 651.8671871999395 L 977.9218749440624 645.0039060479612 L 978.0234373120475 640.4999997439445 L 977.9218749440624 626.0624998399289 L 977.9218749440624 622.9882808319526 L 977.8203125760192 617.0507816959289 L 977.8203125760192 608.550780927937 L 977.7187502080342 603.0195312639698 L 978.1249996800325 575.0664058879483 L 978.3359375360305 571.4804684799165 L 978.2265620480175 557.5546879999456 L 978.3359375360305 554.0742184959236 L 978.3359375360305 548.9531248639687 L 978.2343751680455 537.7929687039577 L 978.2265620480175 530.4179691519239 L 978.7421870080288 511.98828134394716 L 978.8437504000613 494.17187532794196 L 978.8437504000613 463.1445309439441 L 978.9453127680463 432.8320317439502 L 978.9453127680463 420.6484377599554 L 979.0468751360313 406.31250022392487 L 978.7421870080288 396.9921873919666 L 979.2578129920294 382.8593745919643 L 979.2578129920294 365.8632816639729 L 979.3593753600144 354.29296844796045 L 979.3593753600144 335.8593751039589 L 979.4609377280576 330.6367191039608 L 979.7656248320127 259.4687498239218 L 979.6640624640277 255.98828134394716 L 979.8671872000559 248.51171839993913 L 979.968749568041 243.49609369592508 L 980.0703129600151 239.6015626239241 L 980.179687424039 230.5937500159489 L 980.281249792024 221.47656294394983 L 980.382812160009 215.94921881594928 L 980.382812160009 209.50000025593909 L 980.6875002880115 203.55859353597043 L 980.6875002880115 201.30468761594966 L 980.58588160004 198.541148159944 L 980.4843745280523 195.26562508795178 L 980.4843745280523 191.88671897596214 L 980.5859379200265 184.9218754559406 L 980.6875002880115 180.8242186239222 L 980.8906250240398 177.75390617595986 L 980.9921873920248 169.56250009592623 L 981.1015628800378 162.0859371519182 L 981.2031252480228 157.7851566079189 L 981.3046876160079 154.60937523195753 L 981.3046876160079 151.02734335995046 L 981.4062499840511 147.33984358393354 L 981.4062499840511 145.19140659197 L 981.3046876160079 140.99218739196658 L 981.3046876160079 134.2343751679291 L 981.2031252480228 128.19140607991721 L 981.2031252480228 125.7343754239264 L 980.9921873920248 120.51171839993913 L 980.7890626560547 114.67578163195867 L 980.7890626560547 111.29687449592166 L 980.5859379200265 100.64843775995541 L 980.4843745280523 95.01562470395584 L 980.0703129600151 75.96874956792453 L 980.0703129600151 65.93359359994065 L 979.7656248320127 61.83593779196963 L 979.7656248320127 58.558594047965016 L 979.6640624640277 51.69921843195334 L 979.4609377280576 46.57812479994027 L 979.3593753600144 41.4609377279412 L 979.0468751360313 31.937500159954652 L 979.0468751360313 22.10546892794082 L 978.8437504000613 14.527343615947757 L 978.7421870080288 7.359375359956175 L 978.8437504000613 4.289062911935616 L 978.8437504000613 0.08984371193218976 L 978.8366177436401 0.0" fill="none"/></svg>