<svg xmlns="http://www.w3.org/2000/svg" width="1024" height="1024"><rect stroke="none" x="0" y="0" width="1024" height="1024" fill="white"/><path stroke="#000000" stroke-width="2" d="M 1024.0 1.7499996159458533 L 1023.3749995520338 1.7499996159458533 L 1021.2734371840488 1.7812500479631126 L 1011.5000002560555 1.9375001599546522 L 1006.3035750400159 2.268181503925007 L 1004.6484377600136 2.34374963195296 L 1001.3182300160406 2.4270049279439263 L 992.4374999040156 2.56249958393164 L 984.562499584048 2.56249958393164 L 959.79687526403 2.7539066879544407 L 955.8046873600106 2.5468753919703886 L 949.5625000960426 2.5468753919703886 L 937.5625000960426 2.56249958393164 L 928.9765621760162 2.56249958393164 L 914.3125002240413 2.3750000639702193 L 875.6154234880232 2.3750000639702193 L 873.0625003520399 2.34374963195296 L 859.4375004160102 2.56249958393164 L 856.1718753280584 2.5468753919703886 L 844.9062502400484 2.34374963195296 L 793.195312128053 2.34374963195296 L 787.3658972160192 2.3750000639702193 L 774.2500003840541 2.3750000639702193 L 767.0625003520399 2.56249958393164 L 758.8749998080311 2.7500001279404387 L 758.6884915200062 2.748639231955167 L 744.9374996480183 2.56249958393164 L 738.0000000000582 2.7500001279404387 L 714.4374999040156 2.7500001279404387 L 704.6484377600136 2.925780991965439 L 700.6250004480244 2.957031423924491 L 697.6718745600083 2.9296875519212335 L 690.3750000640284 2.7500001279404387 L 676.562499584048 2.7500001279404387 L 665.7499996160623 3.101562879921403 L 663.0468751360313 3.1601561599527486 L 658.7500001280569 3.3749995519174263 L 653.1875000320142 3.3749995519174263 L 647.8750003200257 3.562500095926225 L 640.1171875840519 3.7499996159458533 L 637.648437248019 3.7773434879491106 L 616.8593745920225 3.7773434879491106 L 616.0234373120475 3.7499996159458533 L 613.3749995520338 3.562500095926225 L 576.9999994880636 3.562500095926225 L 573.3124997120467 3.3749995519174263 L 567.5078123520361 3.3671874559368007 L 561.5390627840534 3.3749995519174263 L 554.3125002240413 3.3749995519174263 L 549.3828126720618 3.5703121919650584 L 530.1249996800325 3.1601561599527486 L 526.1328128000605 3.1601561599527486 L 524.6609448960517 3.129094143921975 L 521.3124997120467 3.0000005119363777 L 515.8260592640145 3.0000005119363777 L 511.79687526402995 2.957031423924491 L 509.85156300803646 2.925780991965439 L 505.06250035203993 2.7500001279404387 L 501.43750041601015 2.7500001279404387 L 486.1874995200196 2.56249958393164 L 467.96874956804095 2.56249958393164 L 466.3046871040133 2.531250175961759 L 457.6249999360298 2.3750000639702193 L 436.68632678402355 2.3750000639702193 L 434.79687475203536 2.34374963195296 L 433.9498496000306 2.3202283519203775 L 430.87499980803113 2.1249996799742803 L 427.8125004800386 2.1249996799742803 L 423.8125004800386 2.56249958393164 L 403.06250035203993 2.56249958393164 L 391.57812531205127 2.5468753919703886 L 386.7656253440073 2.5468753919703886 L 382.43749990401557 2.56249958393164 L 381.34375014400575 2.5078128639725037 L 373.37499955203384 2.1249996799742803 L 361.37499955203384 2.1249996799742803 L 321.74999961606227 1.9375001599546522 L 297.56250009604264 1.9375001599546522 L 296.6875002880115 1.9257815039600246 L 281.1875000320142 1.7499996159458533 L 245.74999961606227 1.7499996159458533 L 244.67187507206108 1.7031249919673428 L 241.56250009604264 1.5625000959262252 L 226.92368691205047 1.5625000959262252 L 222.82812518405262 1.5234375679283403 L 200.19531264004763 1.5234375679283403 L 193.97069209604524 1.4967132159508765 L 176.56249958404806 1.3124997119302861 L 158.1249996800325 1.3124997119302861 L 151.24999987205956 1.1250001919688657 L 141.93750016001286 1.3124997119302861 L 130.1249996800325 1.3124997119302861 L 126.97656217601616 1.3203128319582902 L 115.18750003201421 1.3124997119302861 L 111.5000002560555 1.3124997119302861 L 82.93749964801827 1.1250001919688657 L 75.36718745605322 1.113281535974238 L 71.17187481600558 1.113281535974238 L 59.68749977601692 1.1250001919688657 L 55.94531225605169 1.1015628799214028 L 31.56250009604264 0.9374996479600668 L 11.87500032002572 1.3124997119302861 L 0.0 1.7152858044937602" fill="none"/><path stroke="#000000" stroke-width="2" d="M 0.0 1.715285804377345 L 11.87500032002572 1.3124997118138708 L 31.56250009604264 0.9374996478436515 L 55.94531225605169 1.1015628799214028 L 59.68749977601692 1.1250001918524504 L 71.17187481600558 1.113281535974238 L 75.36718745605322 1.113281535974238 L 82.93749964807648 1.1250001918524504 L 111.50000025611371 1.3124997118138708 L 115.18750003207242 1.3124997118138708 L 126.97656217607437 1.3203128319582902 L 130.1249996800907 1.3124997118138708 L 141.93750016001286 1.3124997118138708 L 151.24999987211777 1.1250001918524504 L 158.1249996800325 1.3124997118138708 L 176.56249958410626 1.3124997118138708 L 193.97069209610345 1.4967132160090841 L 200.19531264004763 1.523437567811925 L 222.82812518405262 1.523437567811925 L 226.92368691205047 1.5625000958680175 L 241.56250009610085 1.5625000958680175 L 244.67187507206108 1.7031249919673428 L 245.74999961606227 1.749999615829438 L 281.1875000320724 1.749999615829438 L 296.6875002880697 1.9257815038436092 L 297.56250009604264 1.9375001598964445 L 321.74999961606227 1.9375001598964445 L 361.37499955203384 2.124999679857865 L 373.37499955203384 2.124999679857865 L 381.34375014406396 2.5078128639725037 L 382.4374999040738 2.562499583873432 L 386.7656253440073 2.5468753918539733 L 391.5781253121095 2.5468753918539733 L 403.06250035209814 2.562499583873432 L 423.8125004800386 2.562499583873432 L 427.8125004800968 2.124999679857865 L 430.87499980803113 2.124999679857865 L 433.9498496000306 2.3202283519203775 L 434.7968747520936 2.3437496318365447 L 436.68632678402355 2.3750000639120117 L 457.624999936088 2.3750000639120117 L 466.3046871040133 2.5312501759035513 L 467.96874956809916 2.562499583873432 L 486.1874995200196 2.562499583873432 L 501.43750041606836 2.750000127882231 L 505.06250035203993 2.750000127882231 L 509.85156300803646 2.925780991965439 L 511.79687526402995 2.957031423866283 L 515.8260592640727 3.0000005119363777 L 521.3124997121049 3.0000005119363777 L 524.6609448961099 3.129094143921975 L 526.1328128001187 3.160156159894541 L 530.1249996800907 3.160156159894541 L 549.3828126720618 3.570312191906851 L 554.3125002240413 3.3749995518592186 L 561.5390627840534 3.3749995518592186 L 567.5078123520361 3.367187455878593 L 573.3124997120467 3.3749995518592186 L 576.9999994880636 3.562500095926225 L 613.374999552092 3.562500095926225 L 616.0234373121057 3.7499996158876456 L 616.8593745920807 3.777343487890903 L 637.648437248019 3.777343487890903 L 640.1171875841101 3.7499996158876456 L 647.8750003200839 3.562500095926225 L 653.1875000320724 3.3749995518592186 L 658.7500001281151 3.3749995518592186 L 663.0468751360313 3.160156159894541 L 665.7499996161205 3.1015628798049875 L 676.5624995841063 2.750000127882231 L 690.3750000640866 2.750000127882231 L 697.6718745600083 2.929687551863026 L 700.6250004480826 2.957031423866283 L 704.6484377600718 2.925780991965439 L 714.4374999040156 2.750000127882231 L 738.0000000001164 2.750000127882231 L 744.9374996480183 2.562499583873432 L 758.6884915200062 2.7486392318969592 L 758.8749998080893 2.750000127882231 L 767.0625003520399 2.562499583873432 L 774.2500003841124 2.3750000639120117 L 787.3658972160192 2.3750000639120117 L 793.195312128053 2.3437496318365447 L 844.9062502401066 2.3437496318365447 L 856.1718753280584 2.5468753918539733 L 859.4375004160684 2.562499583873432 L 873.0625003520981 2.3437496318365447 L 875.6154234880232 2.3750000639120117 L 914.3125002240413 2.3750000639120117 L 928.9765621760162 2.562499583873432 L 937.5625000961008 2.562499583873432 L 949.5625000961008 2.5468753918539733 L 955.8046873600688 2.5468753918539733 L 959.79687526403 2.7539066879544407 L 984.5624995841063 2.562499583873432 L 992.4374999040156 2.562499583873432 L 1001.3182300160406 2.427004927827511 L 1004.6484377600718 2.3437496318365447 L 1006.3035750400741 2.268181503866799 L 1011.5000002561137 1.9375001598964445 L 1021.2734371840488 1.781250047904905 L 1023.3749995520338 1.749999615829438 L 1024.0 1.749999615829438" fill="none"/></svg>