<svg xmlns="http://www.w3.org/2000/svg" width="1024" height="1024"><rect stroke="none" x="0" y="0" width="1024" height="1024" fill="white"/><path stroke="#000000" stroke-width="2" d="M 1024.0 3.6753249645553296 L 1023.3906247680425 3.675781119905878 L 1018.6796871680417 3.675781119905878 L 986.9374996480183 3.570312192023266 L 977.5156254720641 3.570312192023266 L 971.9843747841078 3.671874559833668 L 967.1718748160638 3.7773434879491106 L 959.8984376320732 3.3671874559368007 L 956.7265628160094 3.265625087893568 L 952.2187499520369 3.0585937919677235 L 944.9531248640269 3.0585937919677235 L 941.4687498240382 3.265625087893568 L 938.0937502721208 3.4687498239800334 L 935.015624704014 3.3671874559368007 L 931.7421875200816 3.0585937919677235 L 926.7265628160094 2.6484377599554136 L 923.9609374721185 2.3437496318947524 L 920.2734376960434 1.9335935998824425 L 916.382812160009 1.3203128318418749 L 913.9218749441206 1.2148439039010555 L 895.3906247680425 0.6015621119295247 L 888.6649578677898 0.0" fill="none"/><path stroke="#000000" stroke-width="2" d="M 888.6649578677316 0.0 L 895.3906247680425 0.6015621119295247 L 913.9218749440624 1.2148439039592631 L 916.382812160009 1.3203128319582902 L 920.2734376960434 1.9335935999406502 L 923.9609374720603 2.34374963195296 L 926.7265628160094 2.6484377599554136 L 931.7421875200234 3.0585937919677235 L 935.015624704014 3.3671874559368007 L 938.0937502720626 3.4687498239218257 L 941.4687498240382 3.2656250879517756 L 944.9531248640269 3.0585937919677235 L 952.2187499520369 3.0585937919677235 L 956.7265628160094 3.2656250879517756 L 959.898437632015 3.3671874559368007 L 967.1718748160638 3.7773434879491106 L 971.9843747840496 3.6718745599500835 L 977.5156254720641 3.5703121919650584 L 986.9374996480183 3.5703121919650584 L 1018.6796871680417 3.6757811199640855 L 1023.3906247680425 3.6757811199640855 L 1024.0 3.6753249646208133" fill="none"/><path stroke="#408040" stroke-width="3" d="M 718.1634512149612 0.0 L 720.1894400000019 13.455359999999928 L 761.886719999995 40.79615999999805 L 799.0476800000033 55.35743999999977 L 824.258560000002 66.37567999999737 L 845.6499199999962 80.28160000000207 L 883.8656000000046 84.8281599999973 L 975.6671999999962 92.74367999999959 L 1007.1859200000035 104.20223999999871 L 1021.5424000000057 122.04032000000007 L 1024.0 126.77369279235427" fill="none"/></svg>