<svg xmlns="http://www.w3.org/2000/svg" width="1024" height="1024"><rect stroke="none" x="0" y="0" width="1024" height="1024" fill="white"/><path stroke="#408040" stroke-width="3" d="M 1024.0 985.0079182259797 L 1021.726720000006 985.395199999999 L 999.3727999999974 978.2272000000012 L 953.9686400000064 972.7692800000004 L 927.8668800000014 962.8876799999998 L 900.0652799999953 976.291839999998 L 889.6614399999962 988.6924799999979 L 871.3011200000037 988.9996800000008 L 846.7251200000028 994.9286399999983 L 800.3174399999989 1023.7132800000036 L 800.0186764922692 1024.0" fill="none"/><path stroke="#408040" stroke-width="3" d="M 660.5519725714112 1024.0 L 658.6982399999979 1023.5494400000025 L 626.8313599999965 1015.2857599999988 L 609.5974399999977 1010.9849600000016 L 597.7804800000013 1019.6684800000003 L 565.5040000000008 1012.1011199999994 L 535.439360000004 1002.7724799999996 L 506.01983999999356 979.0463999999993 L 490.7827200000029 972.9638399999967 L 454.01088000000163 975.8003200000021 L 403.99872000000323 1014.886400000003 L 390.7276799999963 1004.1241599999994 L 352.5836799999961 1012.7769600000029 L 317.0304000000033 1021.1737599999979 L 313.458540032836 1024.0" fill="none"/><path stroke="#408040" stroke-width="3" d="M 1024.0 985.1685857456832 L 1021.726720000006 985.395199999999 L 1010.1657600000035 980.6950399999987 L 999.3727999999974 978.2272000000012 L 991.2115199999971 979.6607999999978 L 979.1795200000051 978.7084800000011 L 966.4409600000072 978.6675200000027 L 953.9686400000064 972.7692800000004 L 943.400959999999 966.9631999999983 L 927.8668800000014 962.8876799999998 L 917.0227199999936 970.3731199999966 L 900.0652799999953 976.291839999998 L 889.6614399999962 988.6924799999979 L 883.8246400000062 990.1670400000003 L 871.3011200000037 988.9996800000008 L 859.3920000000071 992.2867199999964 L 846.7251200000028 994.9286399999983 L 816.5171200000041 1008.9369599999991 L 800.3174399999989 1023.7132800000036 L 800.0186764922692 1024.0" fill="none"/><path stroke="#408040" stroke-width="3" d="M 665.9295049504435 1024.0 L 658.6982399999979 1023.5494400000025 L 641.3824000000022 1021.2147200000036 L 632.8627200000046 1019.1564799999978 L 626.8313599999965 1015.2857599999988 L 609.5974399999977 1010.9849600000016 L 597.7804800000013 1019.6684800000003 L 587.6531200000027 1020.9894399999976 L 579.7785600000061 1019.0438399999985 L 573.3990400000039 1014.3334400000022 L 565.5040000000008 1012.1011199999994 L 547.3075200000021 1011.7734399999972 L 535.439360000004 1002.7724799999996 L 520.7039999999979 993.1878399999987 L 514.3552000000054 988.5388800000001 L 506.01983999999356 979.0463999999993 L 500.459520000004 973.2198399999979 L 490.7827200000029 972.9638399999967 L 473.70239999999467 972.1855999999971 L 454.01088000000163 975.8003200000021 L 435.517439999996 992.9011200000023 L 421.30431999999564 1006.264320000002 L 403.99872000000323 1014.886400000003 L 400.7936000000045 1013.4527999999991 L 399.2780800000037 1008.2099200000011 L 390.7276799999963 1004.1241599999994 L 352.5836799999961 1012.7769600000029 L 333.3017600000021 1013.6883200000011 L 323.7580799999996 1016.268799999998 L 317.0304000000033 1021.1737599999979 L 314.1883267226949 1024.0" fill="none"/><path stroke="#408040" stroke-width="3" d="M 320.0438221117947 1024.0 L 321.2390400000004 1022.3411199999973 L 323.18464000000677 1019.7094399999987 L 326.6764799999946 1018.1324800000002 L 333.5167999999976 1017.7126399999979 L 338.02240000000165 1017.7126399999979 L 345.3235200000054 1016.6067200000034 L 349.10207999999693 1016.8217599999989 L 357.1302399999986 1017.5999999999985 L 366.7251200000028 1016.678399999997 L 370.13503999999375 1015.6748799999987 L 373.39135999999417 1013.4937599999976 L 378.3680000000022 1011.1385599999994 L 381.9520000000048 1010.370560000003 L 384.8908800000063 1008.8140799999965 L 388.4441599999991 1006.8275199999989 L 390.8915200000047 1007.3190400000021 L 393.06239999999525 1009.1008000000002 L 396.0934399999969 1012.6745599999995 L 396.73855999999796 1015.132160000001 L 399.8310400000046 1018.9414400000023 L 401.80736000000616 1020.846080000003 L 403.7017599999963 1021.6448000000019 L 410.75711999999476 1021.7574400000012 L 416.06144000000495 1022.3001599999989 L 418.3552000000054 1018.5625599999985 L 422.5843199999945 1012.234239999998 L 425.1545599999954 1008.6399999999994 L 431.42144000000553 1004.0422400000025 L 437.86239999999816 998.9222399999999 L 440.67840000000433 995.8502399999998 L 446.37184000000707 985.6921599999987 L 450.03776000000653 981.0022400000016 L 453.24288000000524 978.862079999999 L 457.3593600000022 976.6195200000002 L 466.79039999999804 973.864959999999 L 475.1564800000051 974.6431999999986 L 479.93855999999505 975.3292799999981 L 482.0582399999985 976.0460800000001 L 483.2768000000069 975.3292799999981 L 485.08928000000014 973.9571199999991 L 487.4035200000071 973.5167999999976 L 490.21951999999874 973.4451199999967 L 492.9843200000032 973.7318400000004 L 494.3052800000005 975.4828800000032 L 496.4249600000039 975.7388799999972 L 500.11135999999533 975.0937600000034 L 501.24800000000687 974.7763199999972 L 501.104640000005 974.0800000000017 L 500.4799999999959 973.0048000000024 L 500.695040000006 971.356160000003 L 500.8998399999982 970.5369599999976 L 500.1420800000051 970.3833599999998 L 499.41504000000714 970.9875200000024 L 497.94048000000475 972.7078400000028 L 497.1110400000034 973.4963199999984 L 496.51712000000407 973.209600000002 L 496.9779200000048 972.7692800000004 L 499.37407999999414 973.0355199999976 L 502.83520000000135 974.8377600000022 L 505.395199999999 977.8483199999973 L 507.56608000000415 982.2719999999972 L 513.2799999999988 987.658239999997 L 515.9731199999951 990.4947200000024 L 519.4956800000073 992.7987199999989 L 528.4454399999959 997.3248000000021 L 541.1020799999969 1007.9743999999992 L 543.3036799999973 1010.0838399999993 L 546.682879999993 1011.7119999999995 L 554.9465599999967 1012.234239999998 L 563.3331199999957 1012.2035200000028 L 567.8080000000045 1012.2035200000028 L 572.2624000000069 1013.6371199999994 L 578.6316800000059 1018.3270399999965 L 582.307839999994 1020.6515199999994 L 586.5676799999928 1021.2147200000036 L 594.554879999996 1020.2521599999964 L 599.4598399999959 1019.1974400000036 L 602.357759999999 1017.0265599999984 L 604.0780800000066 1014.0160000000033 L 606.0032000000065 1012.1932799999995 L 607.9283200000064 1011.3740800000014 L 612.4032000000007 1011.3228799999997 L 616.4992000000057 1012.6233599999978 L 624.7833600000013 1014.1696000000011 L 631.377919999999 1018.347520000003 L 635.5251200000057 1020.4467199999999 L 639.7849600000045 1021.1737599999979 L 648.5503999999928 1021.9724799999967 L 656.4454399999959 1023.6723199999979 L 664.4735999999975 1023.0579199999993 L 668.8255999999965 1023.2422399999996 L 672.2267088372028 1024.0" fill="none"/><path stroke="#408040" stroke-width="3" d="M 800.3416131147533 1024.0 L 801.6486399999994 1022.9555200000032 L 807.7004799999995 1017.2108799999987 L 811.601920000001 1012.2137599999987 L 815.2063999999955 1009.6742400000003 L 822.1081600000034 1007.6774399999995 L 827.3408000000054 1005.4348800000007 L 840.4377600000007 997.9084799999982 L 849.3875200000039 994.3142399999997 L 862.1465599999938 991.7132800000036 L 869.7548799999931 989.1840000000011 L 882.5344000000041 990.228479999998 L 888.2483199999988 989.8188799999989 L 890.5625600000058 988.0473599999968 L 891.8732799999998 986.0812799999985 L 895.098880000005 981.288959999998 L 898.5804800000042 977.9404799999975 L 901.6217599999945 975.2064000000028 L 906.0044800000032 973.0150399999984 L 915.0566399999952 971.130879999997 L 921.3235200000054 968.2739199999996 L 925.726720000006 964.1881599999979 L 928.4505599999975 962.9286399999983 L 931.4303999999975 962.7136000000028 L 939.3254400000005 965.5091200000024 L 947.0361600000033 968.632319999997 L 957.6243200000026 974.8889599999966 L 964.8742400000046 978.2169599999979 L 970.9772800000064 979.3638399999982 L 978.0736000000034 978.616320000001 L 985.3337599999941 979.4969599999968 L 992.2252799999987 979.9577599999975 L 994.8160000000062 979.9065600000031 L 998.0415999999968 978.790399999998 L 1003.3561599999957 978.1657600000035 L 1009.2851200000005 980.4288000000015 L 1016.4326399999991 983.4291200000007 L 1023.7747200000013 985.9481599999999 L 1024.0 985.9377273516657" fill="none"/></svg>