<svg xmlns="http://www.w3.org/2000/svg" width="1024" height="1024"><rect stroke="none" x="0" y="0" width="1024" height="1024" fill="white"/><path stroke="#000000" stroke-width="2" d="M 0.0 164.8050421111693 L 0.8203120640246198 163.82812467194162 L 0.4140625920263119 160.65234329592204 L 0.0078120960388332605 158.19531263993122 L 2.1562501120497473 156.14843699196354 L 5.023437824042048 154.40625049592927 L 8.91406233602902 155.32812492793892 L 13.109374976018444 158.29687500797445 L 23.45312460802961 165.56640665594023 L 44.750000128056854 180.51953151996713 L 55.507812352036126 187.99218790396117 L 59.804687360010576 190.96484351996332 L 77.42187520005973 203.24999987194315 L 105.78125004802132 223.11718707194086 L 111.41406208003173 227.0078126079752 L 128.21093785605626 238.78515609592432 L 134.55468748806743 241.9570309119299 L 137.42187520005973 238.47656243195524 L 138.34374963201117 236.63281254394678 L 139.2656250880682 234.48437452793587 L 141.41406208003173 231.20703078393126 L 143.25781299202936 228.2382817279431 L 144.49218764802208 226.0859371519182 L 146.74218700802885 223.3203128319583 L 148.28124979202403 221.37499955191743 L 150.01562521606684 218.61328076792415 L 151.14843750401633 216.46093721594661 L 152.88281292805914 213.6953128959285 L 154.62500044802437 210.92968755192123 L 157.0859376640292 208.47265587194124 L 158.00781209603883 206.3242188799195 L 160.3593748480198 203.66015590395546 L 162.92187545605702 200.69140582391992 L 164.66406297602225 198.13281279994408 L 166.812499968044 195.87890585593414 L 168.8593745920225 193.3203128319583 L 171.62499993602978 190.04296908795368 L 173.7734379520407 187.48046847997466 L 175.3124997120467 185.12500019196887 L 176.9531248640269 181.95312537596328 L 179.10156288003782 178.67578163195867 L 182.58593792002648 173.76171827194048 L 184.53125017601997 170.58593791996827 L 186.3671879680478 167.4101565439487 L 188.3203123200219 164.33984409592813 L 189.85156300803646 161.3710940159508 L 191.4921871360275 158.0937502719462 L 193.1328122880659 155.12500019196887 L 195.2812503040186 150.4140625919681 L 197.83593779202783 146.52343705593375 L 199.6796876800363 143.44921907194657 L 201.7343754240428 139.4570311679272 L 203.16406272002496 137.00000051193638 L 204.70312550402014 134.5429688319564 L 206.75000012805685 131.46874982392183 L 208.49218764802208 128.60156211192952 L 210.33593753603054 126.75781222392106 L 212.6875002880115 125.6328120319522 L 214.42968780803494 123.2773437439464 L 215.75781273603207 120.30859366396908 L 217.09374976006802 117.644531711936 L 220.06249984004535 114.7773439999437 L 226.10156236804323 110.27343769592699 L 229.07031244802056 109.5546879999456 L 232.65624985605245 108.83984383993084 L 235.52343756804476 105.86718719993951 L 238.18749952001963 105.35546879994217 L 241.35937536001438 104.33203097595833 L 245.86718720005592 101.97656268795254 L 248.83593728003325 98.90625023993198 L 251.29687449603807 95.52734412794234 L 253.03124992002267 91.83984332793625 L 255.39062476804247 89.69140633597272 L 256.21093785605626 85.79687526397174 L 258.7656253440655 83.74999961594585 L 261.2265625600121 81.49609369592508 L 262.7656253440655 78.93749964796007 L 265.01562470401404 76.37890662392601 L 268.28906291205203 74.3281254399335 L 272.5937500160653 73.00000051193638 L 276.179687424039 71.97656268795254 L 281.2968744960381 70.74609356792644 L 284.57031270401785 69.92578150396002 L 288.6718750720611 66.85546905593947 L 288.57031270401785 70.54296883195639 L 287.5390627840534 73.71484364796197 L 286.8281251840526 77.40234342392068 L 287.23437465605093 80.57812479994027 L 286.92968755203765 85.69531289592851 L 286.10937548801303 88.66796851193067 L 286.10937548801303 92.45312511996599 L 286.92968755203765 95.52734412794234 L 289.0781245440594 97.67578111996409 L 291.32812492805533 96.55078092793701 L 294.3046871040133 93.48046847997466 L 298.80468787206337 90.20312473597005 L 302.39062528003706 87.12890675192466 L 305.25781299202936 86.61718732793815 L 307.5078123520361 87.02734335995046 L 309.4531246080296 87.33593702391954 L 310.89062502403976 85.28515583992703 L 313.75781273603207 82.92968755192123 L 315.70312499202555 80.06249983992893 L 318.97656217601616 77.40234342392068 L 322.15625011204975 76.6835937279393 L 327.1718748160638 75.96874956792453 L 330.65624985605245 73.41015654394869 L 334.4453120000544 70.02734387194505 L 337.7187502080342 67.16015615995275 L 340.5859379200265 63.167968255933374 L 342.9374996480183 58.96875007991912 L 346.01562521606684 55.58984396792948 L 348.4687503360328 54.05468774394831 L 350.4140625920263 51.187500031956006 L 353.2812503040186 47.29687449592166 L 354.8203120640246 43.50781235191971 L 356.3515627520392 39.92187494394602 L 359.1171870720573 37.261718527937774 L 360.1406248960411 35.21484390395926 L 362.9062502400484 32.65234329592204 L 366.5937500160653 33.06250035192352 L 369.4609377280576 33.88281241594814 L 372.6406246400438 31.218750463973265 L 375.60937472002115 26.917968895926606 L 376.83593728003325 22.71874969592318 L 378.6796871680417 20.160156671947334 L 381.1328122880659 18.62500044796616 L 384.4140625920263 17.804687359952368 L 388.3046871040133 18.214843391964678 L 389.02343782404205 21.08203110395698 L 390.25000038405415 24.97265663993312 L 395.88281241606455 24.460937215946615 L 398.6484377600136 25.691406335972715 L 399.25781299202936 29.992187903961167 L 401.4140620800317 31.218750463973265 L 408.07031296001514 35.21484390395926 L 410.2187499520369 31.7304688639706 L 413.6953128960449 30.5039063039585 L 416.46093721606303 28.761718783935066 L 418.51562496001134 25.894531071942765 L 421.78906214406015 21.49218713596929 L 423.93750016001286 17.60156262392411 L 427.1171870720573 14.937499647960067 L 428.8515624960419 10.738281471945811 L 432.2343751680455 7.1562495999387465 L 435.20312524802284 3.5703121919650584 L 437.7656248320127 0.7031255039619282 L 438.4468028215342 0.0" fill="none"/><path stroke="#000000" stroke-width="2" d="M 438.4468028215342 0.0 L 437.7656248320127 0.7031255039619282 L 435.20312524802284 3.5703121919650584 L 432.2343751680455 7.1562495999387465 L 428.8515624960419 10.738281471945811 L 427.1171870720573 14.937499647960067 L 423.93750016001286 17.60156262392411 L 421.78906214406015 21.49218713596929 L 418.51562496001134 25.894531071942765 L 416.46093721606303 28.761718783935066 L 413.6953128960449 30.5039063039585 L 410.2187499520369 31.7304688639706 L 408.07031296001514 35.21484390395926 L 401.4140620800317 31.218750463973265 L 399.25781299202936 29.992187903961167 L 398.6484377600136 25.691406335972715 L 395.88281241606455 24.460937215946615 L 390.25000038405415 24.97265663993312 L 389.02343782404205 21.08203110395698 L 388.3046871040133 18.214843391964678 L 384.4140625920263 17.804687359952368 L 381.1328122880659 18.62500044796616 L 378.6796871680417 20.160156671947334 L 376.83593728003325 22.71874969592318 L 375.60937472002115 26.917968895926606 L 372.6406246400438 31.218750463973265 L 369.4609377280576 33.88281241594814 L 366.5937500160653 33.06250035192352 L 362.9062502400484 32.65234329592204 L 360.1406248960411 35.21484390395926 L 359.1171870720573 37.261718527937774 L 356.3515627520392 39.92187494394602 L 354.8203120640246 43.50781235191971 L 353.2812503040186 47.29687449592166 L 350.4140625920263 51.187500031956006 L 348.4687503360328 54.05468774394831 L 346.01562521606684 55.58984396792948 L 342.9374996480183 58.96875007991912 L 340.5859379200265 63.167968255933374 L 337.7187502080342 67.16015615995275 L 334.4453120000544 70.02734387194505 L 330.65624985605245 73.41015654394869 L 327.1718748160638 75.96874956792453 L 322.15625011204975 76.6835937279393 L 318.97656217601616 77.40234342392068 L 315.70312499202555 80.06249983992893 L 313.75781273603207 82.92968755192123 L 310.89062502403976 85.28515583992703 L 309.4531246080296 87.33593702391954 L 307.5078123520361 87.02734335995046 L 305.25781299202936 86.61718732793815 L 302.39062528003706 87.12890675192466 L 298.80468787206337 90.20312473597005 L 294.3046871040133 93.48046847997466 L 291.32812492805533 96.55078092793701 L 289.0781245440594 97.67578111996409 L 286.92968755203765 95.52734412794234 L 286.10937548801303 92.45312511996599 L 286.10937548801303 88.66796851193067 L 286.92968755203765 85.69531289592851 L 287.23437465605093 80.57812479994027 L 286.8281251840526 77.40234342392068 L 287.5390627840534 73.71484364796197 L 288.57031270401785 70.54296883195639 L 288.6718750720611 66.85546905593947 L 284.57031270401785 69.92578150396002 L 281.2968744960381 70.74609356792644 L 276.179687424039 71.97656268795254 L 272.5937500160653 73.00000051193638 L 268.28906291205203 74.3281254399335 L 265.01562470401404 76.37890662392601 L 262.7656253440655 78.93749964796007 L 261.2265625600121 81.49609369592508 L 258.7656253440655 83.74999961594585 L 256.21093785605626 85.79687526397174 L 255.39062476804247 89.69140633597272 L 253.03124992002267 91.83984332793625 L 251.29687449603807 95.52734412794234 L 248.83593728003325 98.90625023993198 L 245.86718720005592 101.97656268795254 L 241.35937536001438 104.33203097595833 L 238.18749952001963 105.35546879994217 L 235.52343756804476 105.86718719993951 L 232.65624985605245 108.83984383993084 L 229.07031244802056 109.5546879999456 L 226.10156236804323 110.27343769592699 L 220.06249984004535 114.7773439999437 L 217.09374976006802 117.644531711936 L 215.75781273603207 120.30859366396908 L 214.42968780803494 123.2773437439464 L 212.6875002880115 125.6328120319522 L 210.33593753603054 126.75781222392106 L 208.49218764802208 128.60156211192952 L 206.75000012805685 131.46874982392183 L 204.70312550402014 134.5429688319564 L 203.16406272002496 137.00000051193638 L 201.7343754240428 139.4570311679272 L 199.6796876800363 143.44921907194657 L 197.83593779202783 146.52343705593375 L 195.2812503040186 150.4140625919681 L 193.1328122880659 155.12500019196887 L 191.4921871360275 158.0937502719462 L 189.85156300803646 161.3710940159508 L 188.3203123200219 164.33984409592813 L 186.3671879680478 167.4101565439487 L 184.53125017601997 170.58593791996827 L 182.58593792002648 173.76171827194048 L 179.10156288003782 178.67578163195867 L 176.9531248640269 181.95312537596328 L 175.3124997120467 185.12500019196887 L 173.7734379520407 187.48046847997466 L 171.62499993602978 190.04296908795368 L 168.8593745920225 193.3203128319583 L 166.812499968044 195.87890585593414 L 164.66406297602225 198.13281279994408 L 162.92187545605702 200.69140582391992 L 160.3593748480198 203.66015590395546 L 158.00781209603883 206.3242188799195 L 157.0859376640292 208.47265587194124 L 154.62500044802437 210.92968755192123 L 152.88281292805914 213.6953128959285 L 151.14843750401633 216.46093721594661 L 150.01562521606684 218.61328076792415 L 148.28124979202403 221.37499955191743 L 146.74218700802885 223.3203128319583 L 144.49218764802208 226.0859371519182 L 143.25781299202936 228.2382817279431 L 141.41406208003173 231.20703078393126 L 139.2656250880682 234.48437452793587 L 138.34374963201117 236.63281254394678 L 137.42187520005973 238.47656243195524 L 134.55468748806743 241.9570309119299 L 128.21093785605626 238.78515609592432 L 111.41406208003173 227.0078126079752 L 105.78125004802132 223.11718707194086 L 77.42187520005973 203.24999987194315 L 59.804687360010576 190.96484351996332 L 55.507812352036126 187.99218790396117 L 44.750000128056854 180.51953151996713 L 23.45312460802961 165.56640665594023 L 13.109374976018444 158.29687500797445 L 8.91406233602902 155.32812492793892 L 5.023437824042048 154.40625049592927 L 2.1562501120497473 156.14843699196354 L 0.0078120960388332605 158.19531263993122 L 0.4140625920263119 160.65234329592204 L 0.8203120640246198 163.82812467194162 L 0.0 164.8050421111693" fill="none"/></svg>