<svg xmlns="http://www.w3.org/2000/svg" width="1024" height="1024"><rect stroke="none" x="0" y="0" width="1024" height="1024" fill="white"/><path stroke="#000000" stroke-width="2" d="M 1024.0 379.3789061119387 L 1020.8281251840526 379.5859374079737 L 1018.3750000640284 379.48046847997466 L 1001.9843747840496 378.8671877119341 L 990.3125002240413 378.4570316799218 L 984.6796871680417 378.0468746239203 L 979.3593753600144 377.53515622392297 L 970.3437496320112 376.7187496959232 L 963.3828126720618 376.3085936639691 L 959.5937495040125 376.1015623679268 L 951.2968744960381 375.38671923195943 L 949.0468751360313 375.28515583992703 L 945.0546872320119 374.97656217595795 L 940.7500001280569 374.8749998079729 L 927.4375004160102 374.3632814079756 L 916.6875002880115 373.746094079921 L 913.7187502080342 373.644531711936 L 906.8593745920225 373.33984358393354 L 900.1015623680432 372.92968755192123 L 896.0000000000582 372.7226562559372 L 892.109375488013 372.51953151996713 L 880.7421870080288 372.0078120959224 L 876.4453120000544 371.80078079993837 L 864.9765621760162 371.28906239994103 L 854.4296878080349 370.7773439999437 L 845.6249999360298 370.3671879679314 L 837.4296872960404 369.9570309119299 L 821.0468751360313 369.2421877759625 L 815.4140620800317 368.93359411193524 L 802.5156249600113 368.0117186559364 L 799.0312499200227 367.80859391996637 L 796.4687503360328 367.70703155192314 L 793.195312128053 367.5000002559391 L 789.1015628800378 367.29687449592166 L 774.3515627520392 366.47656243195524 L 767.0859376640292 365.7617182719405 L 754.3828121600673 364.83984383993084 L 750.1874995200196 364.53125017596176 L 743.6328120320104 364.2226565119345 L 735.5390627840534 363.71093708794797 L 729.195312128053 363.5078123519197 L 724.7890626560547 363.19921868795063 L 720.390625280037 362.89453158393735 L 717.828124672058 362.5859379199683 L 709.7343754240428 361.8671871999395 L 702.6718750720611 361.3554687999422 L 699.7031249920256 361.0507816959289 L 693.2499998720596 360.5390622719424 L 687.9296870400431 360.02734387194505 L 684.0390625280561 359.71875020791776 L 674.7187496960396 359.30859417596366 L 668.1640622080304 359.10546841594623 L 662.8359372800332 358.8984371199622 L 656.7968747520354 358.5937500159489 L 640.6171873280546 358.38671871996485 L 634.9843752960442 358.4882810879499 L 628.7421870080288 358.2851563519216 L 620.7500001280569 357.97656268795254 L 613.7890621440602 357.7734379519243 L 611.5390627840534 357.6718745599501 L 605.7031249920256 357.5664066559402 L 602.3203123200219 356.75000012794044 L 597.4062499840511 357.46484326396603 L 585.6328120320104 357.2617185279378 L 582.5546874880092 357.16015615995275 L 573.648437248019 357.0546872319537 L 569.0390620160615 356.9531248639687 L 562.7968747520354 356.85156249592546 L 554.3984373760177 356.5429688319564 L 544.1562501120497 356.5429688319564 L 539.648437248019 356.6484377599554 L 533.2031252480228 356.5429688319564 L 526.5468753920286 356.5429688319564 L 514.9765621760162 356.33984409592813 L 511.79687526402995 356.2382817279431 L 504.3203123200219 355.92968703992665 L 498.69531238405034 357.6718745599501 L 489.06250035203993 360.84375039994484 L 472.1718753280584 366.47656243195524 L 467.15624960005516 368.11718758393545 L 466.33593753603054 364.4296878079185 L 460.70312550402014 363.71093708794797 L 459.46874982403824 370.67578163195867 L 447.0781245440594 375.1796879359754 L 444.3203123200219 373.85156300792005 L 441.75781273603207 372.0078120959224 L 437.24999987205956 368.6289059839328 L 431.82812467205804 364.6328125439468 L 426.9062502400484 361.0507816959289 L 424.3515627520392 359.10546841594623 L 419.9453122560517 355.8281246719416 L 414.3125002240413 355.92968703992665 L 403.7656248320127 356.2382817279431 L 384.921875456057 356.5429688319564 L 356.46093721606303 357.3632808959228 L 329.42187520005973 358.08203161595156 L 308.1249996800325 358.6953123839339 L 295.6328120320104 359.0000005119364 L 292.96875008003553 359.10546841594623 L 276.9921873920248 359.10546841594623 L 256.10937548801303 359.5156254719477 L 251.5000002560555 359.4101565439487 L 246.37500006402843 359.4101565439487 L 242.38281216006726 359.5156254719477 L 236.64843776001362 359.71875020791776 L 230.0937502720626 359.921874943946 L 217.5000002560555 360.2304686079733 L 206.4453120000544 360.43359334394336 L 202.75781222403748 360.5390622719424 L 200.0937502720626 360.6406246399274 L 191.4921871360275 360.84375039994484 L 187.0859376640292 360.74218700797064 L 169.98437478404958 361.25390643195715 L 162.30468710401328 361.3554687999422 L 159.64843724801904 361.3554687999422 L 156.06249984004535 361.4609377279412 L 149.20312524802284 361.5625000959262 L 134.55468748800922 361.5625000959262 L 128.4140625920263 361.66406246396946 L 114.79687475203536 361.8671871999395 L 99.74218752002344 362.07421849592356 L 95.95312537602149 362.1757808639668 L 90.21874995203689 362.38281215995084 L 82.02343731204746 362.6875002879533 L 74.8593745920225 362.89453158393735 L 72.49999974406091 362.89453158393735 L 62.3671879680478 363.0976563199656 L 55.39843788801227 363.30078105593566 L 47.71875020803418 363.4062499839347 L 26.320312320021912 363.816406015947 L 18.74218700802885 364.01953075197525 L 12.804687872063369 364.12109414394945 L 5.820766091346741e-11 364.3281254399335 L 0.0 364.3281254399335" fill="none"/><path stroke="#000000" stroke-width="2" d="M 0.0 364.3281254399335 L 5.820766091346741e-11 364.3281254399335 L 12.804687872063369 364.12109414394945 L 18.74218700802885 364.01953075197525 L 26.320312320021912 363.816406015947 L 47.71875020803418 363.4062499839347 L 55.39843788801227 363.30078105593566 L 62.3671879680478 363.0976563199656 L 72.49999974406091 362.89453158393735 L 74.8593745920225 362.89453158393735 L 82.02343731204746 362.6875002879533 L 90.21874995203689 362.38281215995084 L 95.95312537602149 362.1757808639668 L 99.74218752002344 362.07421849592356 L 114.79687475203536 361.8671871999395 L 128.4140625920263 361.66406246396946 L 134.55468748800922 361.5625000959262 L 149.20312524802284 361.5625000959262 L 156.06249984004535 361.4609377279412 L 159.64843724801904 361.3554687999422 L 162.30468710401328 361.3554687999422 L 169.98437478404958 361.25390643195715 L 187.0859376640292 360.74218700797064 L 191.4921871360275 360.84375039994484 L 200.0937502720626 360.6406246399274 L 202.75781222403748 360.5390622719424 L 206.4453120000544 360.43359334394336 L 217.5000002560555 360.2304686079733 L 230.0937502720626 359.921874943946 L 236.64843776001362 359.71875020791776 L 242.38281216006726 359.5156254719477 L 246.37500006402843 359.4101565439487 L 251.5000002560555 359.4101565439487 L 256.10937548801303 359.5156254719477 L 276.9921873920248 359.10546841594623 L 292.96875008003553 359.10546841594623 L 295.6328120320104 359.0000005119364 L 308.1249996800325 358.6953123839339 L 329.42187520005973 358.08203161595156 L 356.46093721606303 357.3632808959228 L 384.921875456057 356.5429688319564 L 403.7656248320127 356.2382817279431 L 414.3125002240413 355.92968703992665 L 419.9453122560517 355.8281246719416 L 424.3515627520392 359.10546841594623 L 426.9062502400484 361.0507816959289 L 431.82812467205804 364.6328125439468 L 437.24999987205956 368.6289059839328 L 441.75781273603207 372.0078120959224 L 444.3203123200219 373.85156300792005 L 447.0781245440594 375.1796879359754 L 459.46874982403824 370.67578163195867 L 460.70312550402014 363.71093708794797 L 466.33593753603054 364.4296878079185 L 467.15624960005516 368.11718758393545 L 472.1718753280584 366.47656243195524 L 489.06250035203993 360.84375039994484 L 498.69531238405034 357.6718745599501 L 504.3203123200219 355.92968703992665 L 511.79687526402995 356.2382817279431 L 514.9765621760162 356.33984409592813 L 526.5468753920286 356.5429688319564 L 533.2031252480228 356.5429688319564 L 539.648437248019 356.6484377599554 L 544.1562501120497 356.5429688319564 L 554.3984373760177 356.5429688319564 L 562.7968747520354 356.85156249592546 L 569.0390620160615 356.9531248639687 L 573.648437248019 357.0546872319537 L 582.5546874880092 357.16015615995275 L 585.6328120320104 357.2617185279378 L 597.4062499840511 357.46484326396603 L 602.3203123200219 356.75000012794044 L 605.7031249920256 357.5664066559402 L 611.5390627840534 357.6718745599501 L 613.7890621440602 357.7734379519243 L 620.7500001280569 357.97656268795254 L 628.7421870080288 358.2851563519216 L 634.9843752960442 358.4882810879499 L 640.6171873280546 358.38671871996485 L 656.7968747520354 358.5937500159489 L 662.8359372800332 358.8984371199622 L 668.1640622080304 359.10546841594623 L 674.7187496960396 359.30859417596366 L 684.0390625280561 359.71875020791776 L 687.9296870400431 360.02734387194505 L 693.2499998720596 360.5390622719424 L 699.7031249920256 361.0507816959289 L 702.6718750720611 361.3554687999422 L 709.7343754240428 361.8671871999395 L 717.828124672058 362.5859379199683 L 720.390625280037 362.89453158393735 L 724.7890626560547 363.19921868795063 L 729.195312128053 363.5078123519197 L 735.5390627840534 363.71093708794797 L 743.6328120320104 364.2226565119345 L 750.1874995200196 364.53125017596176 L 754.3828121600673 364.83984383993084 L 767.0859376640292 365.7617182719405 L 774.3515627520392 366.47656243195524 L 789.1015628800378 367.29687449592166 L 793.195312128053 367.5000002559391 L 796.4687503360328 367.70703155192314 L 799.0312499200227 367.80859391996637 L 802.5156249600113 368.0117186559364 L 815.4140620800317 368.93359411193524 L 821.0468751360313 369.2421877759625 L 837.4296872960404 369.9570309119299 L 845.6249999360298 370.3671879679314 L 854.4296878080349 370.7773439999437 L 864.9765621760162 371.28906239994103 L 876.4453120000544 371.80078079993837 L 880.7421870080288 372.0078120959224 L 892.109375488013 372.51953151996713 L 896.0000000000582 372.7226562559372 L 900.1015623680432 372.92968755192123 L 906.8593745920225 373.33984358393354 L 913.7187502080342 373.644531711936 L 916.6875002880115 373.746094079921 L 927.4375004160102 374.3632814079756 L 940.7500001280569 374.8749998079729 L 945.0546872320119 374.97656217595795 L 949.0468751360313 375.28515583992703 L 951.2968744960381 375.38671923195943 L 959.5937495040125 376.1015623679268 L 963.3828126720618 376.3085936639691 L 970.3437496320112 376.7187496959232 L 979.3593753600144 377.53515622392297 L 984.6796871680417 378.0468746239203 L 990.3125002240413 378.4570316799218 L 1001.9843747840496 378.8671877119341 L 1018.3750000640284 379.48046847997466 L 1020.8281251840526 379.5859374079737 L 1024.0 379.3789061119387" fill="none"/></svg>