<svg xmlns="http://www.w3.org/2000/svg" width="1024" height="1024"><rect stroke="none" x="0" y="0" width="1024" height="1024" fill="white"/><path stroke="#000000" stroke-width="2" d="M 1024.0 66.22029467902757 L 1023.6328120320104 66.3203123199637 L 993.26562508801 66.08593715191819 L 982.3281254400499 66.03515596792568 L 976.1484369920217 65.9570309119299 L 974.6250004480244 65.94531225593528 L 972.5859379200265 65.91796838393202 L 961.335937024036 65.83203123195563 L 939.9296870400431 65.83203123195563 L 928.1015623680432 65.66406246396946 L 918.3046871040133 65.5468748799176 L 903.1171870720573 66.06249983992893 L 900.6406246400438 66.14843699196354 L 896.4140625920263 66.34374963195296 L 884.4140625920263 66.28515635192161 L 875.5312496640254 66.27734425594099 L 869.2734371840488 66.29687500797445 L 864.1562501120497 66.34374963195296 L 855.6406251520384 66.34374963195296 L 854.0703129600151 66.34765619196696 L 846.9531248640269 66.37500006397022 L 832.7187496960396 66.44531199993799 L 828.281249792024 66.44531199993799 L 815.8828124160646 66.47656243195524 L 812.3125002240413 66.52734361594776 L 811.4609377280576 66.54687539197039 L 800.8906250240398 66.47656243195524 L 795.8828124160646 66.44921855995199 L 790.2109378560563 66.4140625919681 L 790.1953126400476 66.34374963195296 L 780.289062912052 66.34374963195296 L 768.2109378560563 66.24218726396793 L 747.2187504640315 66.34374963195296 L 725.9140628480236 66.34374963195296 L 710.5546874880092 66.44531199993799 L 704.3125002240413 66.44531199993799 L 697.4531246080296 66.54687539197039 L 693.968749568041 66.44531199993799 L 681.9843747840496 66.44531199993799 L 676.562499584048 66.34374963195296 L 563.4062499840511 66.34374963195296 L 548.460937216063 66.44531199993799 L 501.96874956804095 66.44531199993799 L 492.8515624960419 66.2382817279431 L 480.3593748480198 66.13671833596891 L 477.8046873600106 66.24218726396793 L 472.3750000640284 66.24218726396793 L 468.07031296001514 66.24218726396793 L 458.7578122240375 66.13671833596891 L 447.1875000320142 66.24218726396793 L 441.0390620160615 66.24218726396793 L 437.96874956804095 66.24218726396793 L 434.5312593920389 66.24043929594336 L 426.4999997440609 66.2382817279431 L 417.2812503040186 66.13671833596891 L 396.70312550402014 66.13671833596891 L 384.4140625920263 66.2382817279431 L 379.70312499202555 66.24218726396793 L 370.179687424039 66.24218726396793 L 364.0390625280561 66.34374963195296 L 353.4921871360275 66.2382817279431 L 341.4062499840511 66.24218726396793 L 319.898437632015 66.24218726396793 L 310.5859379200265 66.2382817279431 L 298.70312550402014 66.2382817279431 L 289.6953128960449 66.13671833596891 L 247.0937497600098 66.13671833596891 L 235.42187520005973 66.2382817279431 L 227.53906278405339 66.13671833596891 L 221.1875000320142 66.24218726396793 L 214.42968780803494 66.24218726396793 L 204.60156211204594 66.13671833596891 L 192.10937548801303 66.03515596792568 L 168.9609379840549 66.03515596792568 L 154.2187499520369 65.83203123195563 L 148.9921873920248 65.83203123195563 L 140.49999974406091 65.7304688639706 L 132.92187545605702 65.83203123195563 L 127.89843763201497 65.83203123195563 L 120.53125017601997 65.7265623039566 L 115.30468761600787 65.7265623039566 L 106.9062502400484 65.83203123195563 L 105.85047859203769 65.78663935995428 L 104.4531251200242 65.7265623039566 L 98.30468710401328 65.62499993597157 L 21.710937088064384 65.62499993597157 L 4.406250496045686 65.62499993597157 L 0.2109378560562618 65.52343756792834 L 0.0 65.52094693363324" fill="none"/><path stroke="#000000" stroke-width="2" d="M 0.0 65.52094693356776 L 0.21093785611446947 65.52343756787013 L 4.406250496103894 65.62499993591337 L 21.710937088064384 65.62499993591337 L 98.30468710401328 65.62499993591337 L 104.4531251200824 65.7265623039566 L 105.8504785920959 65.78663935989607 L 106.9062502400484 65.83203123183921 L 115.30468761606608 65.7265623039566 L 120.53125017607817 65.7265623039566 L 127.89843763207318 65.83203123183921 L 132.92187545605702 65.83203123183921 L 140.49999974406091 65.7304688639706 L 148.992187392083 65.83203123183921 L 154.2187499520369 65.83203123183921 L 168.96093798411312 66.03515596792568 L 192.10937548801303 66.03515596792568 L 204.60156211204594 66.13671833596891 L 214.42968780809315 66.24218726385152 L 221.18750003207242 66.24218726385152 L 227.53906278405339 66.13671833596891 L 235.42187520011794 66.2382817278849 L 247.09374976006802 66.13671833596891 L 289.69531289610313 66.13671833596891 L 298.70312550407834 66.2382817278849 L 310.5859379200847 66.2382817278849 L 319.8984376320732 66.24218726385152 L 341.4062499840511 66.24218726385152 L 353.4921871360275 66.2382817278849 L 364.0390625281143 66.34374963189475 L 370.179687424039 66.24218726385152 L 379.70312499202555 66.24218726385152 L 384.4140625920263 66.2382817278849 L 396.70312550402014 66.13671833596891 L 417.2812503040768 66.13671833596891 L 426.4999997440609 66.2382817278849 L 434.5312593920971 66.24043929600157 L 437.96874956809916 66.24218726385152 L 441.0390620161197 66.24218726385152 L 447.1875000320724 66.24218726385152 L 458.7578122240957 66.13671833596891 L 468.07031296007335 66.24218726385152 L 472.37500006408663 66.24218726385152 L 477.8046873600688 66.24218726385152 L 480.359374848078 66.13671833596891 L 492.8515624960419 66.2382817278849 L 501.96874956804095 66.44531199993799 L 548.4609372161212 66.44531199993799 L 563.4062499840511 66.34374963189475 L 676.562499584048 66.34374963189475 L 681.9843747841078 66.44531199993799 L 693.968749568041 66.44531199993799 L 697.4531246080296 66.54687539185397 L 704.3125002240413 66.44531199993799 L 710.5546874880674 66.44531199993799 L 725.9140628480236 66.34374963189475 L 747.2187504640315 66.34374963189475 L 768.2109378560563 66.24218726385152 L 780.289062912052 66.34374963189475 L 790.1953126400476 66.34374963189475 L 790.2109378561145 66.4140625919681 L 795.8828124160646 66.44921855995199 L 800.8906250240398 66.47656243195524 L 811.4609377280576 66.54687539185397 L 812.3125002240413 66.52734361588955 L 815.8828124160646 66.47656243195524 L 828.281249792024 66.44531199993799 L 832.7187496960978 66.44531199993799 L 846.9531248640269 66.37500006391201 L 854.0703129600151 66.34765619190875 L 855.6406251520966 66.34374963189475 L 864.156250112108 66.34374963189475 L 869.273437184107 66.29687500803266 L 875.5312496640254 66.27734425594099 L 884.4140625920263 66.28515635192161 L 896.4140625920263 66.34374963189475 L 900.6406246400438 66.14843699202174 L 903.1171870721155 66.06249983987072 L 918.3046871040133 65.54687487980118 L 928.1015623680432 65.66406246396946 L 939.9296870401013 65.83203123183921 L 961.335937024036 65.83203123183921 L 972.5859379200847 65.91796838393202 L 974.6250004480826 65.94531225593528 L 976.14843699208 65.95703091181349 L 982.3281254400499 66.03515596792568 L 993.26562508801 66.08593715185998 L 1023.6328120320104 66.3203123199637 L 1024.0 66.22029467902757" fill="none"/></svg>