<svg xmlns="http://www.w3.org/2000/svg" width="1024" height="1024"><rect stroke="none" x="0" y="0" width="1024" height="1024" fill="white"/><path stroke="#000000" stroke-width="2" d="M 0.0 5.43653971025924 L 10.4453120000544 5.515625471947715 L 15.87500032002572 5.621093375957571 L 19.76562483201269 5.722655743942596 L 28.468750336032826 5.515625471947715 L 37.992187904019374 5.414062079973519 L 45.26562508800998 5.312499711930286 L 55.19531212805305 5.414062079973519 L 64.92187545605702 5.515625471947715 L 74.03906252805609 5.515625471947715 L 83.0468751360313 5.621093375957571 L 101.38281267206185 5.621093375957571 L 109.16406272002496 5.8242191359749995 L 118.07031296001514 5.8242191359749995 L 124.62500044802437 6.02734387194505 L 132.5078128640307 5.925781503960025 L 155.1406254080357 5.925781503960025 L 160.05468774406472 6.02734387194505 L 165.48437504004687 6.031250431959052 L 173.57031219202327 6.132812799944077 L 181.66406246402767 6.132812799944077 L 185.4531246080296 6.02734387194505 L 188.10937548801303 6.02734387194505 L 196.60937523201574 5.925781503960025 L 209.71875020803418 5.8242191359749995 L 222.10937548801303 5.621093375957571 L 233.1718748160638 5.515625471947715 L 245.7656248320127 5.312499711930286 L 254.15625011204975 5.210937343945261 L 264.3984373760177 4.902343679917976 L 282.42187468806515 4.800781311932951 L 300.4453120000544 4.800781311932951 L 318.57031270401785 5.003906047961209 L 346.42187468806515 4.800781311932951 L 364.24218726402614 4.800781311932951 L 371.3890232320409 4.853302271920256 L 378.06249984004535 4.902343679917976 L 397.3124997120467 4.902343679917976 L 413.39062476804247 5.003906047961209 L 427.3203128320165 5.003906047961209 L 438.07031296001514 5.105468415946234 L 445.445312512049 5.105468415946234 L 448.921875456057 5.109374975960236 L 457.83593779202783 5.210937343945261 L 472.6796871680417 5.312499711930286 L 480.0546877440647 5.414062079973519 L 500.53125017601997 5.414062079973519 L 507.2968744960381 5.515625471947715 L 511.898437632015 5.621093375957571 L 518.2500003840541 5.8242191359749995 L 524.8046878720634 6.132812799944077 L 527.7734379520407 6.132812799944077 L 546.5156249600113 6.234375167929102 L 551.5312496640254 6.3359375359723344 L 557.6718745600665 6.234375167929102 L 569.2421877760207 6.3359375359723344 L 583.3749995520338 6.3359375359723344 L 589.4218752000597 6.234375167929102 L 662.8359372800332 6.234375167929102 L 672.9765621760162 6.234375167929102 L 681.1718748160638 6.132812799944077 L 688.8515624960419 6.02734387194505 L 691.3046876160661 6.132812799944077 L 696.53125017602 6.02734387194505 L 716.7031255040201 5.722655743942596 L 729.3984378880123 5.722655743942596 L 732.6718750720611 5.621093375957571 L 766.8749998080311 5.621093375957571 L 785.5156254720641 5.515625471947715 L 789.3046876160661 5.414062079973519 L 812.7500001280569 5.414062079973519 L 815.7187502080342 5.515625471947715 L 821.7656248320127 5.621093375957571 L 825.656250368047 5.722655743942596 L 829.7499996160623 5.722655743942596 L 836.921875456057 5.8242191359749995 L 842.9609379840549 5.925781503960025 L 849.3124997120467 6.02734387194505 L 862.6171873280546 6.234375167929102 L 872.5546874880092 5.925781503960025 L 881.6640624640277 5.8242191359749995 L 885.3515622400446 5.722655743942596 L 895.898437632015 5.414062079973519 L 941.164062720025 5.414062079973519 L 946.7968747520354 5.312499711930286 L 977.8203125760192 5.312499711930286 L 981.7109370880644 5.210937343945261 L 996.8671877120505 5.210937343945261 L 1006.4921876480221 5.109374975960236 L 1015.0937497600098 5.109374975960236 L 1020.3203123200219 5.105468415946234 L 1023.898437632015 5.109374975960236 L 1024.0 5.110833881015424" fill="none"/><path stroke="#000000" stroke-width="2" d="M 1024.0 5.110833881015424 L 1023.898437632015 5.109374975960236 L 1020.3203123200219 5.105468415946234 L 1015.0937497600098 5.109374975960236 L 1006.4921876480221 5.109374975960236 L 996.8671877120505 5.210937343945261 L 981.7109370880644 5.210937343945261 L 977.8203125760192 5.312499711930286 L 946.7968747520354 5.312499711930286 L 941.164062720025 5.414062079973519 L 895.898437632015 5.414062079973519 L 885.3515622400446 5.722655743942596 L 881.6640624640277 5.8242191359749995 L 872.5546874880092 5.925781503960025 L 862.6171873280546 6.234375167929102 L 849.3124997120467 6.02734387194505 L 842.9609379840549 5.925781503960025 L 836.921875456057 5.8242191359749995 L 829.7499996160623 5.722655743942596 L 825.656250368047 5.722655743942596 L 821.7656248320127 5.621093375957571 L 815.7187502080342 5.515625471947715 L 812.7500001280569 5.414062079973519 L 789.3046876160661 5.414062079973519 L 785.5156254720641 5.515625471947715 L 766.8749998080311 5.621093375957571 L 732.6718750720611 5.621093375957571 L 729.3984378880123 5.722655743942596 L 716.7031255040201 5.722655743942596 L 696.53125017602 6.02734387194505 L 691.3046876160661 6.132812799944077 L 688.8515624960419 6.02734387194505 L 681.1718748160638 6.132812799944077 L 672.9765621760162 6.234375167929102 L 662.8359372800332 6.234375167929102 L 589.4218752000597 6.234375167929102 L 583.3749995520338 6.3359375359723344 L 569.2421877760207 6.3359375359723344 L 557.6718745600665 6.234375167929102 L 551.5312496640254 6.3359375359723344 L 546.5156249600113 6.234375167929102 L 527.7734379520407 6.132812799944077 L 524.8046878720634 6.132812799944077 L 518.2500003840541 5.8242191359749995 L 511.898437632015 5.621093375957571 L 507.2968744960381 5.515625471947715 L 500.53125017601997 5.414062079973519 L 480.0546877440647 5.414062079973519 L 472.6796871680417 5.312499711930286 L 457.83593779202783 5.210937343945261 L 448.921875456057 5.109374975960236 L 445.445312512049 5.105468415946234 L 438.07031296001514 5.105468415946234 L 427.3203128320165 5.003906047961209 L 413.39062476804247 5.003906047961209 L 397.3124997120467 4.902343679917976 L 378.06249984004535 4.902343679917976 L 371.3890232320409 4.853302271920256 L 364.24218726402614 4.800781311932951 L 346.42187468806515 4.800781311932951 L 318.57031270401785 5.003906047961209 L 300.4453120000544 4.800781311932951 L 282.42187468806515 4.800781311932951 L 264.3984373760177 4.902343679917976 L 254.15625011204975 5.210937343945261 L 245.7656248320127 5.312499711930286 L 233.1718748160638 5.515625471947715 L 222.10937548801303 5.621093375957571 L 209.71875020803418 5.8242191359749995 L 196.60937523201574 5.925781503960025 L 188.10937548801303 6.02734387194505 L 185.4531246080296 6.02734387194505 L 181.66406246402767 6.132812799944077 L 173.57031219202327 6.132812799944077 L 165.48437504004687 6.031250431959052 L 160.05468774406472 6.02734387194505 L 155.1406254080357 5.925781503960025 L 132.5078128640307 5.925781503960025 L 124.62500044802437 6.02734387194505 L 118.07031296001514 5.8242191359749995 L 109.16406272002496 5.8242191359749995 L 101.38281267206185 5.621093375957571 L 83.0468751360313 5.621093375957571 L 74.03906252805609 5.515625471947715 L 64.92187545605702 5.515625471947715 L 55.19531212805305 5.414062079973519 L 45.26562508800998 5.312499711930286 L 37.992187904019374 5.414062079973519 L 28.468750336032826 5.515625471947715 L 19.76562483201269 5.722655743942596 L 15.87500032002572 5.621093375957571 L 10.4453120000544 5.515625471947715 L 0.0 5.43653971025924" fill="none"/><path stroke="#408040" stroke-width="3" d="M 132.7855614143191 1024.0 L 126.48447999999917 1003.3151999999973 L 114.68799999999464 962.9593600000007 L 104.5503999999928 929.7203200000004 L 101.73440000000119 918.9990400000024 L 97.52576000000408 907.1615999999995 L 90.11199999999371 883.6300800000026 L 80.54783999999927 853.0739200000025 L 76.24704000000202 837.6729600000035 L 76.16512000000512 827.6787200000035 L 75.86815999999817 785.5513599999977 L 76.08319999999367 772.8537599999981 L 76.10368000000017 756.3673599999966 L 80.53759999999602 722.790399999998 L 84.69504000000597 694.896639999999 L 88.20736000000034 665.0265599999984 L 90.58303999999771 647.0144 L 94.51519999999437 629.5756800000017 L 103.81312000000617 584.2943999999989 L 103.76192000000447 565.4015999999974 L 99.43039999999746 555.2332800000004 L 95.26271999999881 543.8771199999974 L 89.29279999999562 527.5955200000026 L 82.7494399999996 509.7881599999964 L 72.40704000000551 481.61791999999696 L 68.42368000000715 470.78399999999965 L 64.77823999999964 459.05920000000333 L 62.689280000005965 453.10975999999937 L 59.54559999999765 446.66879999999946 L 56.61695999999938 438.722560000002 L 54.568960000004154 430.6739200000011 L 54.13887999999861 417.2902400000021 L 53.77023999999801 405.1967999999979 L 50.57536000000255 390.76864000000205 L 42.95679999999993 361.48223999999755 L 35.53280000000086 334.63296000000264 L 34.60095999999612 326.7583999999988 L 35.051519999993616 318.7916800000021 L 36.32128000000375 296.151039999997 L 37.67295999999624 272.46592000000237 L 37.754879999993136 254.638079999997 L 37.60128000000259 243.85536000000138 L 36.6079999999929 234.21951999999874 L 32.430080000005546 204.6975999999995 L 31.252479999995558 196.98687999999675 L 27.5251200000057 187.54559999999765 L 19.456000000005588 167.8643200000006 L 11.120639999993728 147.5379200000025 L 9.564159999994445 143.4623999999967 L 9.11359999999695 139.3868799999982 L 9.1443200000067 121.31328000000212 L 9.16479999999865 101.55008000000089 L 9.1750400000019 90.04032000000007 L 8.017919999998412 81.19296000000031 L 2.047999999995227 45.21983999999793 L 0.0 32.82369478548935" fill="none"/></svg>