<svg xmlns="http://www.w3.org/2000/svg" width="1024" height="1024"><rect stroke="none" x="0" y="0" width="1024" height="1024" fill="white"/><path stroke="#000000" stroke-width="2" d="M 1024.0 6.73169017201144 L 1023.3906247681007 6.746093567810021 L 1011.6171878401074 6.539062271884177 L 1007.4140620800317 6.539062271884177 L 998.609375232074 6.542968831956387 L 976.6953123840503 6.542968831956387 L 929.1796879360336 6.644531199999619 L 878.6953123841085 6.644531199999619 L 863.1328122880077 6.542968831956387 L 836.0000000001164 6.539062271884177 L 822.2734376960434 6.542968831956387 L 814.6953123840503 6.542968831956387 L 783.5703121920815 6.437499903840944 L 767.3906247680425 6.437499903840944 L 754.078125056054 6.3359375359723344 L 749.3671874561114 6.3359375359723344 L 716.3906252800953 6.132812799944077 L 707.4843750400469 6.132812799944077 L 697.656250368047 6.027343871828634 L 694.789062656113 6.031250431900844 L 691.6093747200212 6.027343871828634 L 680.7578122240375 5.925781503960025 L 627.4062499841093 5.925781503960025 L 608.3593748480198 5.8242191359749995 L 581.3281249281135 5.8242191359749995 L 577.335937024036 5.722655743826181 L 554.2968750080327 5.621093375957571 L 517.2265625600121 5.515625471947715 L 491.82812467211625 5.515625471947715 L 445.2421877760207 5.312499711813871 L 415.0312499200227 5.312499711813871 L 403.3593753600726 5.210937343945261 L 383.39062476804247 5.210937343945261 L 367.51562547212234 5.109374975902028 L 357.78906214406015 5.003906047844794 L 344.07031296001514 5.003906047844794 L 319.69531289610313 4.800781311932951 L 297.9843747841078 4.6992189438897185 L 255.39062476804247 4.492187647963874 L 244.1249996800907 4.492187647963874 L 215.0468751360313 4.390625279920641 L 172.75000012811506 4.390625279920641 L 169.06250035203993 4.289062911877409 L 133.32812492805533 4.289062911877409 L 127.39062476810068 4.1874995199614204 L 122.78124953608494 4.289062911877409 L 111.41406208003173 4.1874995199614204 L 100.76562534400728 4.1874995199614204 L 48.953124864026904 3.8789058559923433 L 35.53906278411159 3.8789058559923433 L 24.375000064028427 3.7773434879491106 L 10.140624896099325 3.675781119905878 L 4.609375232015736 3.671874559833668 L 0.0 3.6753249645553296" fill="none"/><path stroke="#000000" stroke-width="2" d="M 0.0 3.6753249646208133 L 4.609375232015736 3.6718745599500835 L 10.140624896041118 3.6757811199640855 L 24.375000064028427 3.7773434879491106 L 35.539062784053385 3.8789058559341356 L 48.953124864026904 3.8789058559341356 L 100.76562534400728 4.1874995199614204 L 111.41406208003173 4.1874995199614204 L 122.78124953602673 4.289062911935616 L 127.39062476804247 4.1874995199614204 L 133.32812492805533 4.289062911935616 L 169.06250035203993 4.289062911935616 L 172.75000012805685 4.390625279920641 L 215.0468751360313 4.390625279920641 L 244.1249996800325 4.492187647963874 L 255.39062476804247 4.492187647963874 L 297.9843747840496 4.699218943947926 L 319.6953128960449 4.800781311932951 L 344.07031296001514 5.003906047961209 L 357.78906214406015 5.003906047961209 L 367.51562547206413 5.109374975960236 L 383.39062476804247 5.210937343945261 L 403.3593753600144 5.210937343945261 L 415.0312499200227 5.312499711930286 L 445.2421877760207 5.312499711930286 L 491.82812467205804 5.515625471947715 L 517.2265625600121 5.515625471947715 L 554.2968750080327 5.621093375957571 L 577.335937024036 5.722655743942596 L 581.3281249280553 5.824219135916792 L 608.3593748480198 5.824219135916792 L 627.4062499840511 5.925781503960025 L 680.7578122240375 5.925781503960025 L 691.6093747200212 6.02734387194505 L 694.7890626560547 6.031250431959052 L 697.656250368047 6.02734387194505 L 707.4843750400469 6.132812799944077 L 716.390625280037 6.132812799944077 L 749.3671874560532 6.3359375359723344 L 754.078125056054 6.3359375359723344 L 767.3906247680425 6.4374999039573595 L 783.5703121920233 6.4374999039573595 L 814.6953123840503 6.542968831956387 L 822.2734376960434 6.542968831956387 L 836.0000000000582 6.5390622719423845 L 863.1328122880077 6.542968831956387 L 878.6953123840503 6.644531199941412 L 929.1796879360336 6.644531199941412 L 976.6953123840503 6.542968831956387 L 998.6093752320157 6.542968831956387 L 1007.4140620800317 6.5390622719423845 L 1011.6171878400492 6.5390622719423845 L 1023.3906247680425 6.746093567926437 L 1024.0 6.731690172098752" fill="none"/><path stroke="#408040" stroke-width="3" d="M 0.0 126.77369279235427 L 10.414080000002286 146.8313599999965 L 28.518400000000838 165.8367999999973 L 57.68192000000272 181.4323199999999 L 64.61440000000584 204.02176000000327 L 64.56320000000414 242.84159999999974 L 81.36703999999736 266.37311999999656 L 85.06368000000657 286.0748800000001 L 101.43743999999424 313.53856000000087 L 101.84703999999329 322.59072000000015 L 113.7459200000012 332.0934399999969 L 130.11968000000343 353.78175999999803 L 149.46304000000237 380.8153600000005 L 159.3651200000022 409.98911999999837 L 180.53119999999763 431.20640000000276 L 190.30015999999887 453.69344000000274 L 199.06560000000172 477.20448000000033 L 200.9395199999999 504.6067200000034 L 202.40383999999904 526.1516800000027 L 213.57567999999446 542.4844799999992 L 254.83263999999326 577.4950400000016 L 286.66879999999946 617.4515200000023 L 296.7039999999979 629.0739200000025 L 313.8150400000013 639.3856000000014 L 318.0441600000049 650.1888000000035 L 320.88064000000304 662.5484799999977 L 325.22239999999874 693.6473600000027 L 326.19520000000193 761.9993600000016 L 322.1503999999986 784.4147200000007 L 329.1545599999954 802.1094400000002 L 345.1699200000003 838.6457599999994 L 366.3359999999957 887.0604800000001 L 375.12192000000505 961.9455999999991 L 362.732535777046 1024.0" fill="none"/></svg>