<svg xmlns="http://www.w3.org/2000/svg" width="1024" height="1024"><rect stroke="none" x="0" y="0" width="1024" height="1024" fill="white"/><path stroke="#000000" stroke-width="2" d="M 0.0 1023.2768351797349 L 12.390625280037057 1023.3749995519174 L 42.80468787206337 1023.3749995519174 L 51.30468761600787 1023.4765629439498 L 105.06250035203993 1023.4765629439498 L 112.9531248640269 1023.5781253119349 L 126.57031270401785 1023.7812500479631 L 131.1796879360336 1023.8867189759621 L 135.89062451204518 1023.9882813439472 L 209.10156288003782 1023.9882813439472 L 209.48016602310236 1024.0" fill="none"/><path stroke="#000000" stroke-width="2" d="M 221.5330611417303 1024.0 L 222.7265628160094 1023.9882813439472 L 355.6406251520384 1023.9882813439472 L 356.79806923220167 1024.0" fill="none"/><path stroke="#000000" stroke-width="2" d="M 356.7980692285055 1024.0 L 355.6406251520966 1023.9882813440054 L 222.7265628160094 1023.9882813440054 L 221.53306114561565 1024.0" fill="none"/><path stroke="#000000" stroke-width="2" d="M 209.48016602188 1024.0 L 209.10156288003782 1023.9882813440054 L 135.89062451204518 1023.9882813440054 L 131.1796879360918 1023.8867189759621 L 126.57031270407606 1023.7812500478467 L 112.95312486408511 1023.5781253119931 L 105.06250035203993 1023.4765629439498 L 51.304687616066076 1023.4765629439498 L 42.80468787206337 1023.374999551801 L 12.390625280095264 1023.374999551801 L 0.0 1023.2768351797276" fill="none"/><path stroke="#408040" stroke-width="3" d="M 752.4335979097959 0.0 L 772.2393600000069 13.301760000002105 L 813.9263999999966 17.162239999997837 L 851.496960000004 48.834560000002966 L 883.7836799999932 74.55743999999686 L 963.7785600000061 93.51168000000325 L 1024.0 118.72444165260822" fill="none"/></svg>