<svg xmlns="http://www.w3.org/2000/svg" width="1024" height="1024"><rect stroke="none" x="0" y="0" width="1024" height="1024" fill="white"/><path stroke="#000000" stroke-width="2" d="M 315.07665140359313 1024.0 L 322.8706816000631 1016.3075481599662 L 330.65624985605245 1008.5234370559338 L 334.1346816000296 1005.1459481599741 L 346.11548160004895 993.267548159929 L 349.9062497280538 989.4804684799165 L 356.04828160005854 983.5395481599262 L 365.77628160006134 973.9139481599559 L 370.6914816000499 968.9987481599674 L 378.98437529604416 960.8085934079718 L 385.1328122880659 954.664062975964 L 407.4530816000188 932.5443481599214 L 419.12668160005705 920.9731481599738 L 422.60937523201574 917.5937495039543 L 427.93308160005836 912.2691481599468 L 439.6874997760169 900.3320309759583 L 439.7265623040148 900.2968750079744 L 445.9453122560517 894.1445314559387 L 452.10156236804323 888.1015623679268 L 459.87632537604077 880.3907461119234 L 468.7265628160676 871.6640624639695 L 474.62748160003684 865.8819481599494 L 484.11394764803117 856.5294284799602 L 488.8610816000146 851.8531481599202 L 497.4626816000673 843.3539481599582 L 502.48028160003014 838.541148159944 L 510.8984371200204 830.1249996799743 L 513.9375001600129 827.1367188479635 L 521.9296870400431 819.285155839927 L 524.6484377600136 816.6015621119295 L 539.9609374720603 801.5742187519209 L 557.0625003520399 784.7812495359685 L 574.2656245760154 767.9882813439472 L 603.446681600064 739.4179481599713 L 632.8359372800332 710.7460935679264 L 640.515481600014 703.1683481599321 L 646.7656253440655 697.0234378239256 L 669.1874816000345 675.110748159932 L 698.5781248000567 646.3359375359723 L 705.2343746560509 639.9882813439472 L 737.3858816000284 608.44834815996 L 743.5312496640254 602.5078118399251 L 766.8770816000178 579.6739481599652 L 769.539481600048 577.1139481599675 L 781.6249999360298 565.4414059519186 L 794.2178816000232 553.2547471359721 L 796.1260421120678 554.2088284159545 L 796.3828121600673 554.5234370559338 L 798.460937216063 555.4921871359693 L 798.8437504000613 555.5703121919651 L 799.952281600039 556.1219481599401 L 800.5279897600412 556.2041917439201 L 800.881776640017 556.4302233599592 L 802.078125056054 556.4882810879499 L 802.5937500160653 556.4999997439445 L 802.8194816000178 556.5315481599537 L 806.4034816000494 558.0675481599174 L 813.4531246080296 560.1914060799172 L 813.5078123520361 560.980468735972 L 813.6116858880268 561.0432255999185 L 813.880893440044 561.2088934399653 L 814.8749998080311 561.1250001919689 L 815.1635404800181 560.7818700799253 L 815.5859374080319 560.7265628159512 L 815.8435532800504 561.0666700799484 L 816.3828121600673 561.0390620159451 L 816.812499968044 560.9257809919654 L 817.8671872000559 560.1835939839366 L 817.9134607360465 560.125752319931 L 817.976562688069 560.1171875839354 L 822.7890626560547 558.171875327942 L 825.7570816000225 557.965148159943 L 828.6173143040505 559.058766847942 L 828.9848934400361 559.5591065599583 L 829.5537766400375 559.5591065599583 L 830.4062504960457 559.2187504639733 L 830.4071065600147 558.8903260159423 L 831.5938816000125 558.477148159931 L 835.0754816000117 557.5555481599295 L 838.7578122240375 557.3515622399282 L 841.6290816000546 556.633948159928 L 841.7031249920256 556.656249855936 L 841.7564467200427 556.7146700799349 L 841.8758010880556 556.7044392959215 L 844.3731824640417 557.4179768319591 L 844.3560724480194 557.4546411519405 L 844.3125002240413 557.539062783937 L 844.7431065600249 557.6817766399472 L 844.8749998080311 557.6562503679306 L 847.3593753600144 558.9882808319526 L 847.5763834880199 559.0715617279639 L 847.3593753600144 559.5859374079737 L 847.3606379520497 559.5860326399561 L 847.3600000000442 559.58755327994 L 849.2779110400588 559.7302179839462 L 850.5390622720588 560.2187499519205 L 852.1697157120216 560.8706815999467 L 852.6250004480244 561.1250001919689 L 852.7561041920562 561.1524597759708 L 855.7578127360321 563.187500031956 L 856.0674314240459 563.4727587839589 L 855.2960000000312 563.5413299199427 L 854.9831065600156 563.996446719917 L 855.4375004160684 564.5937500159489 L 857.8560000000289 565.8453299199464 L 858.6250004480244 565.9023441919708 L 859.335937024036 565.7617182719405 L 861.1875000320142 564.8203120639664 L 862.0657766400254 564.0817766399705 L 862.1094297600212 563.964707839943 L 862.1562501120497 563.8476564479643 L 863.7496606720379 562.1644195839181 L 865.79687526403 562.9843752959277 L 868.8128061440657 563.9885230079526 L 869.1484375040163 564.2539059199626 L 870.0302233600523 564.5084467199631 L 871.7653299200465 564.5368934399448 L 872.4921876480221 564.4179691519239 L 874.3962941440404 564.4163491839427 L 876.0851302400115 565.5979816959589 L 876.1484369920217 565.6484372479608 L 876.1953126400476 565.6757811199641 L 876.4450816000463 565.8499481599429 L 878.1874995200196 567.6953128959285 L 878.4110131200287 567.7348392959684 L 878.612588544027 568.2865244159475 L 878.7890626560547 568.7773439999437 L 879.2344176640618 569.1034879999352 L 879.5591065600165 569.3439999999246 L 880.6684467200539 569.3439999999246 L 880.9583759360248 568.9272217599209 L 881.1250001920271 568.6914058239199 L 880.5390827520168 568.1289267199463 L 880.9506816000212 568.2051481599337 L 885.3538816000219 568.1027481599594 L 885.79687526403 568.2617190399324 L 886.1874995200196 568.7187496959232 L 887.3528934400529 569.1448934399523 L 888.045286400069 569.0639636479318 L 888.2210816000588 569.1267481599352 L 893.2343746560509 569.8437498879503 L 896.2082816000329 571.3795481599518 L 896.4458465280477 571.4508175359224 L 896.7964467200218 572.5013299199636 L 897.4218752000597 572.7578122239211 L 897.905776640051 572.4159999999683 L 897.8301603840664 571.8677790719667 L 898.2562816000427 571.9939481599722 L 901.8427535360679 573.0192455679644 L 902.099551232066 573.1540643839398 L 902.2577766400645 573.4968934399658 L 903.1680000000633 574.2648934399476 L 906.0000000000582 575.2109373439453 L 908.6786795520457 576.8950435839361 L 908.373329920054 577.3937766399467 L 908.7146700800513 577.735106559936 L 909.3973299200297 577.7635532799177 L 910.4374999040156 577.4531246079714 L 913.6162816000287 578.4451481599244 L 913.8508892160608 579.7354864639346 L 913.4364467200357 580.636446719931 L 913.8346700800466 581.518223359948 L 914.2343751680455 581.8554726399598 L 914.4909731840598 583.4294783999212 L 913.9453122560517 584.019530751917 L 913.9453122560517 585.3281249279389 L 913.8112757760682 585.7260472319322 L 913.6924467200297 586.0693299199338 L 914.4604467200115 586.4106700799312 L 916.4231065600179 585.8417766399216 L 917.5893299200688 584.6471065599471 L 917.3203128320165 584.0664063999429 L 918.1249996800325 583.5664066559402 L 920.8875325440313 583.1606108159176 L 921.0311065600254 583.4808934399625 L 922.0551065600594 583.3102233599639 L 921.9062497280538 583.011719167931 L 922.3202816000558 582.9507481599576 L 924.1171875840519 584.8828129279427 L 924.0950343680452 584.9426268159295 L 924.0746700800373 584.9884467199445 L 924.4444467200665 585.7279999999446 L 923.8186700800434 586.8657766399556 L 923.8203125760192 586.8671877119341 L 924.615106560057 587.2071065599448 L 926.0088934400119 586.8373299199739 L 927.1559290880687 586.7627263999311 L 931.0468751360313 588.347656191967 L 930.8984371200204 589.539062783937 L 931.6977766400669 589.6817766399472 L 932.345068544033 589.1227535359212 L 932.9531248640269 588.6015621119295 L 933.4687498240382 588.378906623926 L 934.2013972480199 588.378906623926 L 937.6802816000418 589.6067481599166 L 940.6638213120168 590.1128785919282 L 942.3046871040133 589.4843750399305 L 942.4005468160613 589.3819269119413 L 942.5937500160653 589.3007810559357 L 944.9531248640269 587.8671871999395 L 948.6406246400438 586.4335933439434 L 949.5552163840621 586.5211996159633 L 951.1250001920271 586.9531248639687 L 952.3908382720547 586.685351935972 L 953.9697766400641 586.3537766399677 L 954.0250972160138 585.3165096959565 L 954.678681600024 584.8963481599349 L 957.2386816000217 582.8483481599251 L 957.5962234880426 582.6584043519688 L 957.9520000000484 582.5991065599374 L 959.2031252480228 582.9414062079741 L 960.0568934400217 583.3102233599639 L 960.6257766400231 583.0826700799516 L 960.5703127040179 582.6835937279393 L 959.7734379520407 582.4570316799218 L 959.2031252480228 582.2851563519216 L 958.9232865280355 581.9534018559498 L 960.5156249600113 581.1093749759602 L 962.3673436160316 581.1957319679204 L 962.4453120000544 581.4062499839347 L 963.1015628800378 581.4062499839347 L 963.4536591360229 581.247461375955 L 964.6972170240479 581.3066782719688 L 964.9493299200549 581.5751065599616 L 965.1875061760657 581.6015697919647 L 966.3125002240413 582.4765624319552 L 965.828124672058 582.796874751919 L 965.8139412480523 583.3476618239656 L 965.8026700800401 583.7084467199165 L 966.570670080022 583.8791065599653 L 967.4233108480694 583.9075307519524 L 968.2204467200208 584.6186700799735 L 968.8203120640246 584.6757816319587 L 968.9921873920248 584.3046871039551 L 968.8749998080311 584.1210951679386 L 969.6290816000546 584.5891481599538 L 969.7158338560257 584.6951792639447 L 969.5000002560555 584.8749998079729 L 969.5000002560555 585.187500031956 L 969.7564467200427 585.5857766399276 L 970.5238661120529 585.9268485119683 L 971.0364467200125 587.2071065599448 L 971.6906700800173 587.1502233599313 L 971.826325504051 587.1715747839189 L 974.2697011200362 589.4464419839205 L 974.2915368960239 589.5493877759436 L 974.3046871040133 589.6249999359716 L 973.7102520320332 590.1368688639486 L 973.195312128053 590.2500003839377 L 972.5724467200343 590.1937766399351 L 971.6328120320686 590.1914060799172 L 970.4374999040156 590.5624995839316 L 969.898437632015 591.0468751359731 L 970.0390625280561 591.5039057919639 L 970.6093752320157 591.7304688639706 L 971.7191065600491 591.7582233599387 L 973.8240000000224 591.1608934399555 L 974.2791065600468 590.7911065599183 L 976.3593748480198 589.5664066559402 L 976.8984371200204 588.7695308799739 L 976.7725762560149 588.3483811839251 L 976.6968934400356 588.08889343997 L 976.3281254400499 587.6914063359727 L 976.0554618880269 587.6135024639661 L 976.1824696320691 587.4566103039542 L 979.5624519680277 586.9453199359705 L 980.5597255680477 588.644465663936 L 980.7343749120482 590.2500003839377 L 981.2480000000214 590.7626700799447 L 981.9022233600263 591.0471065599704 L 982.1698805760243 591.0745610239683 L 983.4530570240458 594.726679551939 L 982.914062336029 595.6640624639695 L 981.1626700800261 597.0773299199645 L 980.7644467200153 597.7031065599294 L 980.7343749120482 598.3281254399335 L 981.445312512049 598.7578122239211 L 982.6702233600663 598.8408934399486 L 984.3593748480198 599.2968744959217 L 984.4765624320135 599.3359370239195 L 984.6250024960609 599.3671813119436 L 984.8888934400165 599.4382233599317 L 984.9453127680463 599.437500415952 L 987.7499996160623 600.0507811839343 L 987.7034291200689 600.4047175679589 L 987.6691353600472 600.644773887936 L 987.445312512049 600.804687871947 L 987.3351065600291 601.4862233599415 L 987.4972559360322 601.8479288319359 L 987.2418816000572 603.6355481599458 L 987.2418816000572 603.8008831999614 L 986.5078128640307 604.0468746239203 L 986.0546877440647 605.6679690239253 L 986.5390622720588 606.550780927937 L 987.4218752000597 606.976562175958 L 988.4453120000544 606.7500001279404 L 989.546874880034 606.4023439359735 L 991.7474816000322 606.4003481599502 L 991.4843750400469 607.4687498239218 L 991.2031252480228 607.5429683199618 L 990.492446720018 608.2559999999357 L 989.8097766400315 609.8488934399211 L 990.678749184066 610.7724359679269 L 990.6172446720302 611.007597567921 L 985.9062497280538 610.0859371519182 L 983.1353149440256 609.9220234239474 L 983.3018777600373 609.4992107519647 L 983.4687498240382 609.082031103957 L 982.7271065600216 608.597329919925 L 982.2435532800155 608.483553279948 L 981.8125004800386 608.453125119966 L 981.3046876160661 608.5117183999391 L 980.7031255040201 609.082031103957 L 980.5078128640307 609.535156223923 L 980.7890626560547 610.0781250559376 L 981.6718745600665 610.3320309759583 L 981.9843747840496 610.6445311999414 L 980.9376460800413 612.4489666559384 L 980.2500003840541 612.378906623926 L 980.2500003840541 614.4843745279359 L 980.3593748480198 614.6953123839339 L 980.0619868160575 616.8982476799283 L 979.7656248320127 616.7890626559383 L 979.2000000000116 617.045329919958 L 979.0108456960297 617.4236375039327 L 978.914062336029 617.6132812799187 L 979.2853299200651 618.2968934399541 L 979.3564088320127 618.6048972799326 L 978.3754362880136 620.2682859519264 L 978.0312504320173 620.656249855936 L 977.7309204480262 621.2130140159279 L 977.521776640031 621.5964467199519 L 977.3511065600323 622.591999999946 L 977.2649963520234 623.9267266559182 L 977.2031252480228 624.3203123199637 L 977.2499998720596 624.3867187199648 L 978.0312504320173 626.0351559679257 L 979.343750144064 627.1445309439441 L 982.8977766400203 628.7359999999171 L 982.9502627840266 628.9255331839668 L 983.0382366720587 630.975990783947 L 980.6875002880115 632.1015623679268 L 978.8437504000613 631.1796879359172 L 978.4140625920263 631.1640627199668 L 978.2897766400129 630.8693299199222 L 977.0666700800648 630.8977766399621 L 976.4062504960457 631.085937663971 L 976.1826816000394 631.0787481599255 L 976.1177026560181 631.1356047359295 L 976.0546877440647 631.187500031956 L 975.388446720026 631.3813299199683 L 974.5545093120309 632.5033983999165 L 974.289062912052 632.8242186239222 L 971.8897766400478 633.8844467199524 L 971.8919669760508 633.8861240319675 L 971.8906245120452 633.8867189759621 L 972.8281251840526 634.6054686719435 L 972.7535185920424 634.7010590719292 L 972.7010816000402 634.7651481599314 L 970.1244037120487 636.3397836799268 L 969.4687498240382 636.273437695927 L 967.8203125760192 637.2421877759625 L 967.9770265600528 637.6472545279539 L 968.2773299200344 638.4355532799382 L 968.9031065600575 649.5573299199459 L 969.1875020800508 675.187500031956 L 968.7890626560547 689.2656250879518 L 968.4516116480227 693.3978716159472 L 967.7858816000517 701.1203481599223 L 972.905881600047 711.7699481599266 L 972.8046878720634 712.0664063999429 L 972.0859371520346 712.7617187839351 L 972.0859371520346 714.1835939839366 L 971.4915532800369 716.1457766399253 L 971.6015626240405 716.343749631953 L 971.5887810560525 716.4183101439266 L 971.5746816000319 716.4803481599665 L 970.1139107840136 718.2486497279606 L 969.6406251520384 718.3085936639691 L 969.3281249280553 719.1601561599527 L 969.2421877760207 719.7031249919673 L 969.6711065600393 720.4408934399253 L 969.8671872000559 721.1953121279366 L 970.0064317440265 722.5147084799246 L 969.6142233600258 723.4559999999474 L 969.6142233600258 724.1671065599658 L 969.898437632015 724.4804689919692 L 970.960958464013 724.5508188159438 L 973.0078126080334 728.3593748479616 L 973.023320064065 728.7647815679666 L 972.9991065600188 729.0311065599672 L 973.0275532800588 732.5297766399453 L 973.0988349440158 732.6927042559255 L 973.1718748160638 732.8671877119341 L 973.2109373440617 733.8867189759621 L 972.3984373760177 735.5117189119337 L 971.9751065600431 735.8293299199431 L 971.9296870400431 736.453125119966 L 971.881881600013 736.5507481599343 L 971.8903582720668 736.7372369919321 L 971.7734379520407 737.1953121279366 L 971.976562688069 738.656249855936 L 971.9843747840496 738.804687871947 L 972.0000000000582 738.8359372799168 L 973.5390627840534 741.6054691839381 L 973.945309184026 741.6171898879693 L 974.3359375360305 742.1835939839366 L 974.6484377600136 743.1601561599527 L 974.7031255040201 744.2187499519205 L 975.1562496000552 744.7890626559383 L 975.1562496000552 747.2539064319571 L 974.4213299200637 748.1173299199436 L 974.9048934400198 748.8853299199254 L 975.2895426560426 749.5617884159437 L 975.7265623040148 750.3359375359723 L 973.9662233600393 752.8959999999497 L 974.3504803840187 753.6645140479668 L 974.1328128000605 754.1640622079722 L 973.1718748160638 755.7617182719405 L 972.8828129280591 756.023437311931 L 972.5703127040179 756.6796871679253 L 972.1718753280584 757.5898439679295 L 972.0320000000647 761.3724467199645 L 976.7812495360267 766.6054686719435 L 977.6924467200297 767.5733299199492 L 980.8749998080311 771.7812500479631 L 982.1297766400385 773.1199999999371 L 985.6956057600328 775.457597439934 L 988.265881600033 776.6915481599281 L 988.4727705600671 776.7605114879552 L 988.615106560057 777.2159999999567 L 989.4140620800317 777.8437498879503 L 993.0312499200227 778.2812497919658 L 993.1796879360336 778.3320309759583 L 996.2531553280423 778.9443850239622 L 999.7783971840399 780.7070064639556 L 1001.5312496640254 781.5976560639683 L 1003.9686778880423 782.5630668799276 L 1016.4258816000656 787.5459481599391 L 1022.3415306240204 789.7807493119617 L 1024.0 790.4207553142187" fill="none"/></svg>