<svg xmlns="http://www.w3.org/2000/svg" width="1024" height="1024"><rect stroke="none" x="0" y="0" width="1024" height="1024" fill="white"/><path stroke="#408040" stroke-width="3" d="M 1024.0 97.08797394532303 L 998.5023999999976 97.49504000000161 L 964.270080000002 101.74463999999716 L 952.0639999999985 101.87776000000304 L 930.9286399999983 111.26784000000043 L 905.3900799999974 117.30943999999727 L 877.7625600000028 123.8732799999998 L 863.6723199999979 129.75104000000283 L 831.5596800000058 139.36639999999898 L 820.0089600000065 142.63296000000264 L 798.9043200000015 148.62335999999777 L 737.8944000000047 171.26400000000285 L 723.0975999999937 179.3024000000005 L 715.2332800000004 181.2992000000013 L 678.2976000000053 181.39136000000144 L 603.494399999996 180.96128000000317 L 574.9964800000016 181.04320000000007 L 565.5654400000058 179.3024000000005 L 556.8614399999933 180.77696000000287 L 533.5552000000025 187.21792000000278 L 521.6255999999994 195.2358400000012 L 485.8470399999933 210.18624000000273 L 466.75968000000285 223.5801599999977 L 446.61759999999776 226.50880000000325 L 415.03744000000006 236.1241599999994 L 400.6912000000011 239.18592000000353 L 383.8975999999966 239.28831999999966 L 373.0841599999985 246.241280000002 L 365.148159999997 252.56960000000254 L 359.3011200000037 254.3206399999981 L 318.4742399999959 254.39231999999902 L 292.77184000000125 254.43327999999747 L 247.94112000000314 253.736960000002 L 212.59264000000258 242.71871999999712 L 202.54720000000088 240.05632000000332 L 193.136639999997 240.02560000000085 L 168.8064000000013 239.95391999999993 L 158.7097599999979 241.1929600000003 L 144.66048000000592 251.58656000000337 L 96.84991999999329 275.84511999999813 L 88.54528000000573 277.94432000000234 L 71.91551999999501 278.07744000000093 L 55.86943999999494 278.8147200000021 L 32.63487999999779 284.38528000000224 L 0.0 292.2430165249243" fill="none"/></svg>