<svg xmlns="http://www.w3.org/2000/svg" width="1024" height="1024"><rect stroke="none" x="0" y="0" width="1024" height="1024" fill="white"/><path stroke="#000000" stroke-width="2" d="M 663.0203109033464 0.0 L 669.2890624000574 0.3984373759594746 L 677.6874997760169 0.49999974394449964 L 689.6640624640277 0.7031255039619282 L 695.0946723840316 0.6016215039417148 L 702.9765621760162 1.113281535974238 L 718.3359375360305 1.2148439039592631 L 733.5937495040125 1.4218751999433152 L 746.2968750080327 1.5234375679283403 L 755.5078123520361 1.624999935971573 L 767.3906247680425 1.726562303956598 L 771.898437632015 1.8320312319556251 L 777.2187504640315 1.9335935999406502 L 783.8750003200257 2.035155967925675 L 789.8125004800386 2.136718335968908 L 792.8906250240398 2.136718335968908 L 799.9531253760215 2.242187263967935 L 804.7656253440073 2.34374963195296 L 808.7578122240375 2.34374963195296 L 815.3124997120467 2.445311999937985 L 824.0156252160086 2.445311999937985 L 828.2109378560563 3.3671874559368007 L 829.2904028160265 3.1968972799368203 L 834.0546877440647 2.445311999937985 L 835.3474744320265 2.460576767974999 L 842.6562498560525 2.5468753919703886 L 859.9609374720603 2.5468753919703886 L 870.3046871040133 2.6484377599554136 L 881.2900618240237 2.7008235519751906 L 892.4218746880069 2.7539066879544407 L 895.3906247680425 2.7539066879544407 L 900.4062504960457 2.8554690559394658 L 939.0078126080334 2.8554690559394658 L 944.0312504320173 2.957031423924491 L 961.335937024036 3.0585937919677235 L 977.8203125760192 3.0585937919677235 L 985.195312128053 2.957031423924491 L 1002.1953126400476 2.8554690559394658 L 1024.0 2.8554690559394658" fill="none"/><path stroke="#000000" stroke-width="2" d="M 1024.0 2.8554690559394658 L 1002.1953126400476 2.8554690559394658 L 985.195312128053 2.957031423924491 L 977.8203125760192 3.0585937919677235 L 961.335937024036 3.0585937919677235 L 944.0312504320173 2.957031423924491 L 939.0078126080334 2.8554690559394658 L 900.4062504960457 2.8554690559394658 L 895.3906247680425 2.7539066879544407 L 892.4218746880069 2.7539066879544407 L 881.2900618240237 2.7008235519751906 L 870.3046871040133 2.6484377599554136 L 859.9609374720603 2.5468753919703886 L 842.6562498560525 2.5468753919703886 L 835.3474744320265 2.460576767974999 L 834.0546877440647 2.445311999937985 L 829.2904028160265 3.1968972799368203 L 828.2109378560563 3.3671874559368007 L 824.0156252160086 2.445311999937985 L 815.3124997120467 2.445311999937985 L 808.7578122240375 2.34374963195296 L 804.7656253440073 2.34374963195296 L 799.9531253760215 2.242187263967935 L 792.8906250240398 2.136718335968908 L 789.8125004800386 2.136718335968908 L 783.8750003200257 2.035155967925675 L 777.2187504640315 1.9335935999406502 L 771.898437632015 1.8320312319556251 L 767.3906247680425 1.726562303956598 L 755.5078123520361 1.624999935971573 L 746.2968750080327 1.5234375679283403 L 733.5937495040125 1.4218751999433152 L 718.3359375360305 1.2148439039592631 L 702.9765621760162 1.113281535974238 L 695.0946723840316 0.6016215039417148 L 689.6640624640277 0.7031255039619282 L 677.6874997760169 0.49999974394449964 L 669.2890624000574 0.3984373759594746 L 663.0203109033464 0.0" fill="none"/></svg>