<svg xmlns="http://www.w3.org/2000/svg" width="1024" height="1024"><rect stroke="none" x="0" y="0" width="1024" height="1024" fill="white"/><path stroke="#000000" stroke-width="2" d="M 0.0 423.161973928487 L 4.507812864030711 426.48437452793587 L 8.60156211204594 429.5546879999456 L 13.312499712046701 433.1406254079193 L 16.999999488005415 435.5976560639683 L 20.99218739202479 438.15625011193333 L 24.578124800056685 440.8203120639664 L 58.67968716804171 466.52343705593375 L 64.51562496001134 470.92578099196544 L 69.53124966402538 474.71484415995656 L 78.23437516804552 481.16406271996675 L 89.9140628480236 489.97265612793854 L 97.69531289604492 495.80859391996637 L 124.52343705605017 513.2148439039593 L 127.08593766402919 514.7539066879544 L 136.71093760005897 522.023437311931 L 165.37499955203384 543.5273441279423 L 170.19531264004763 547.5195310079725 L 174.18749952001963 550.0820316159516 L 176.74218700802885 552.027343871945 L 205.10937497601844 573.2226559999399 L 255.0781245440594 610.7031255039619 L 257.5390627840534 612.3398440959281 L 294.19531264004763 639.7812500479631 L 327.2734371840488 662.2070312959258 L 335.6718745600083 668.558594047965 L 338.1249996800325 670.4023439359735 L 354.921875456057 683.0976563199656 L 361.1718748160056 687.8085939199664 L 374.2734376960434 697.8437498879503 L 383.28906240005745 704.4999997439445 L 399.05468723201193 716.277344255941 L 403.0468751360313 719.3476567039615 L 428.6484377600136 738.3945308159455 L 459.16406272002496 760.2070312959258 L 466.33593753603054 765.3242183679249 L 470.1249996800325 768.0898437119322 L 474.3203123200219 771.4687498239218 L 476.98437529604416 773.4140620799735 L 484.14843699202174 778.6367191039608 L 498.8984371200204 789.4921871359693 L 505.3515622400446 794.20312473597 L 512.1015623680432 798.7070310399286 L 515.5859374080319 801.0625003519235 L 533.5078123520361 814.5781247999403 L 538.2187499520369 818.0624998399289 L 552.2500003840541 828.6093752319575 L 558.390625280037 833.3203128319583 L 564.6328125440632 837.92578150396 L 568.8359372800332 841.2031252479646 L 582.1484369920217 851.2382812159485 L 596.4843745280523 861.9921879039612 L 608.7734374400461 871.2070307839313 L 628.3281254400499 886.0546877439483 L 639.0781245440594 894.1445314559387 L 642.6640629760223 896.7031255039619 L 657.5156254720059 907.6601559039555 L 671.7499996160623 918.3125002239249 L 693.5625000960426 934.5937500159489 L 697.554688000062 937.5625000959262 L 708.710937600059 945.9570309119299 L 730.7343749120482 962.343749631953 L 736.460937216063 966.7460935679264 L 751.5156254720059 977.9062497279374 L 767.0781245440594 988.558594047965 L 773.2265625600121 993.0625003519235 L 777.8359377920278 996.4414064639714 L 791.9609374720603 1007.0898442239268 L 814.2720860758709 1024.0" fill="none"/><path stroke="#000000" stroke-width="2" d="M 814.2720860760019 1024.0 L 791.9609374720603 1007.0898442239268 L 777.835937792086 996.4414064639132 L 773.2265625600121 993.0625003518071 L 767.0781245440594 988.5585940478486 L 751.5156254720059 977.9062497279956 L 736.4609372161212 966.7460935678682 L 730.7343749120482 962.3437496320112 L 708.710937600059 945.9570309119299 L 697.554688000062 937.562500095868 L 693.5625000961008 934.5937500159489 L 671.7499996161205 918.3125002238085 L 657.5156254720641 907.6601559038972 L 642.6640629760223 896.7031255040201 L 639.0781245441176 894.1445314559387 L 628.3281254400499 886.0546877439483 L 608.7734374400461 871.2070307839313 L 596.4843745281105 861.9921879040194 L 582.14843699208 851.2382812158903 L 568.8359372800915 841.2031252478482 L 564.6328125441214 837.92578150396 L 558.390625280037 833.3203128318419 L 552.2500003841124 828.6093752319575 L 538.2187499520369 818.0624998399289 L 533.5078123520361 814.5781247999403 L 515.5859374080319 801.0625003518071 L 512.1015623680432 798.7070310398121 L 505.3515622400446 794.2031247358536 L 498.8984371200204 789.4921871359693 L 484.14843699202174 778.6367191039026 L 476.98437529610237 773.4140620799153 L 474.3203123200219 771.4687498238636 L 470.1249996800907 768.0898437119322 L 466.33593753608875 765.3242183679249 L 459.16406272002496 760.2070312959258 L 428.64843776007183 738.3945308159455 L 403.0468751360313 719.3476567038451 L 399.05468723201193 716.277344255941 L 383.28906240005745 704.4999997438281 L 374.2734376960434 697.843749887892 L 361.1718748160638 687.80859391985 L 354.921875456057 683.0976563199656 L 338.1249996800907 670.4023439360317 L 335.6718745600083 668.558594047965 L 327.273437184107 662.2070312959258 L 294.19531264004763 639.7812500479049 L 257.5390627840534 612.3398440958699 L 255.0781245441176 610.7031255039619 L 205.10937497601844 573.2226559998817 L 176.74218700808706 552.027343871945 L 174.18749952007784 550.0820316158934 L 170.19531264004763 547.5195310079725 L 165.37499955203384 543.5273441280005 L 136.71093760005897 522.0234373118146 L 127.08593766402919 514.7539066879544 L 124.52343705610838 513.2148439038428 L 97.69531289604492 495.80859391984995 L 89.91406284808181 489.9726561278803 L 78.23437516810372 481.16406271996675 L 69.53124966408359 474.71484415995656 L 64.51562496006954 470.92578099190723 L 58.67968716804171 466.52343705581734 L 24.578124800114892 440.8203120639082 L 20.992187392082997 438.1562501118751 L 16.999999488005415 435.5976560639683 L 13.31249971210491 433.1406254078611 L 8.60156211204594 429.5546879998292 L 4.507812864030711 426.48437452781945 L 0.0 423.1619739284288" fill="none"/></svg>