<svg xmlns="http://www.w3.org/2000/svg" width="1024" height="1024"><rect stroke="none" x="0" y="0" width="1024" height="1024" fill="white"/><path stroke="#000000" stroke-width="2" d="M 0.0 310.7723238034523 L 0.0034816000261344016 310.77154815994436 L 4.101562368043233 309.03124991996447 L 6.968750080035534 304.6289059839328 L 9.62745446403278 302.1714503679541 L 12.598681600007694 301.65794815996196 L 16.489881600020453 303.29634815995814 L 19.561881600006018 304.42274815996643 L 22.121881600061897 304.42274815996643 L 24.88668160000816 304.3203481599339 L 27.037081600050442 304.3203481599339 L 29.59374950401252 304.6289059839328 L 29.08508160006022 306.5731481599505 L 30.723481600056402 309.64514815993607 L 31.747481600032188 313.33154815994203 L 33.89788160001626 316.4035481599276 L 37.17187481606379 317.5312496639672 L 40.55468748800922 317.42968729592394 L 43.830681600025855 317.2227481599548 L 47.109374976018444 316.60937523195753 L 49.66748160001589 315.5843481599586 L 51.51068160001887 314.5603481599246 L 53.45628160005435 313.8435481599299 L 56.016281600052025 313.6387481599231 L 59.08828160003759 312.61474815994734 L 61.34375014406396 311.89843763195677 L 63.2986204160261 311.59051263995934 L 65.96875161601929 312.61327667196747 L 67.71093708800618 314.9687500799191 L 67.10156288003782 318.24609382392373 L 68.22656204801751 321.6249999359716 L 67.4062499840511 324.6992189439479 L 68.93749964801827 328.38281215995084 L 70.57812480005668 330.1249996799743 L 71.19531212805305 333.19921868795063 L 70.78906265605474 335.4492190719466 L 72.93749964801827 337.6015626239241 L 75.70312499202555 339.6484372479608 L 78.15625011204975 340.57031270395964 L 80.41406259202631 343.640625151922 L 81.12500019202707 347.12500019196887 L 82.76562534400728 349.99218790396117 L 85.53124966402538 351.01562470395584 L 88.09375027206261 352.449218559952 L 89.93750016001286 354.7031255039619 L 92.80468787206337 355.3164062719443 L 95.25781299202936 355.51953100797255 L 99.14843750401633 357.57031219196506 L 101.81250048003858 360.6406246399274 L 105.60156262404053 362.48437452793587 L 107.03124992002267 365.66015590395546 L 105.39843788801227 367.39843788795406 L 102.93749964801827 368.6289059839328 L 100.38281216000905 371.39062476792606 L 100.38281216000905 374.25781247991836 L 101.09374976000981 376.3085936639691 L 100.99218739202479 378.4570316799218 L 102.73437491204822 380.30078156793024 L 100.48437452805229 381.8359377919696 L 97.51562547200592 385.4218751999433 L 98.84375040006125 387.4687498239218 L 101.19531212805305 387.2656250879518 L 104.25781248003477 387.2656250879518 L 108.97656217601616 388.5976565759629 L 111.43750041601015 390.43749990395736 L 114.00000000005821 391.7695313919685 L 116.64843776001362 392.07421849592356 L 119.83593779202783 390.74609356792644 L 123.50781235203613 390.74609356792644 L 125.87500032002572 389.92578150396 L 128.1328128000605 389.10546841594623 L 132.42968780803494 387.3671874559368 L 135.81250048003858 386.75390668795444 L 138.78124953602673 386.34374963195296 L 142.04687462403672 385.7304688639706 L 146.04687462403672 387.3671874559368 L 149.3203128320165 387.0585937919677 L 151.37499955203384 388.1874995199614 L 154.34374963201117 388.902343679918 L 155.57031219202327 391.15624959993875 L 157.41406208003173 393.30468761594966 L 160.179687424039 396.17187532794196 L 162.74218700802885 397.6054691839381 L 164.78906265605474 398.42578124796273 L 167.55468800006201 399.0390620159451 L 169.79687526402995 399.1406254079193 L 172.46875033603283 398.11718758393545 L 175.1328122880077 396.6835937279393 L 179.82812467205804 396.378906623926 L 183.6328120320104 399.34765670396155 L 187.21875046403147 401.70312499196734 L 191.10937497601844 402.7265628159512 L 194.9921873920248 404.67187507194467 L 198.37500006402843 408.56249958393164 L 199.19531212805305 412.76171878393507 L 201.1406254080357 417.0625003519235 L 203.70312499202555 420.1367183359689 L 206.05468774400651 422.5937500159489 L 206.46875033603283 425.4609377279412 L 207.79687526402995 428.12109414394945 L 204.3125002240413 429.1445309439441 L 199.29687449603807 431.39843788795406 L 195.60937472002115 433.8554685439449 L 192.74218700802885 436.21093785593985 L 191.41406208003173 438.0546877439483 L 189.97656268801074 439.89843763195677 L 187.62499993602978 442.0468746239203 L 185.26562508800998 443.48046847997466 L 183.6328120320104 444.4023439359735 L 185.16406272002496 446.453125119966 L 186.60156211204594 448.6015621119295 L 187.10937497601844 451.3671874559368 L 186.18749952001963 454.6445311999414 L 184.9609379840549 458.6367191039608 L 183.3203128320165 462.42578124796273 L 180.14843699202174 465.29296895995503 L 178.4062504960457 467.74999961594585 L 176.7734374400461 471.02734335995046 L 175.03124992002267 474.3046871039551 L 176.66406297602225 477.1718748159474 L 175.85156300803646 479.01562470395584 L 174.00781209603883 481.0625003519235 L 172.97656217601616 484.85156249592546 L 169.9062497280538 489.5625000959262 L 172.46875033603283 490.7890626559383 L 176.25781248003477 490.277344255941 L 179.74218752002344 490.07421849592356 L 181.89062451204518 489.25390643195715 L 184.1328128000605 488.43749990395736 L 187.3203128320165 490.07421849592356 L 191.21093734406168 490.7890626559383 L 194.78124953602673 491.60937471996294 L 197.14843750401633 490.89453158393735 L 200.6328125440632 488.84375039994484 L 205.23437465605093 488.1289062399301 L 207.57812531205127 488.02734387194505 L 211.38281267206185 489.1523440639721 L 216.07812505605398 488.9492183039547 L 219.6718745600083 489.0507816959289 L 223.0468751360313 489.3554687999422 L 226.32812544004992 488.2304686079733 L 230.01562521600863 488.5390622719424 L 234.11718758405186 489.3554687999422 L 237.0859376640292 489.97265612793854 L 238.92187545605702 490.9960939519224 L 235.9531253760215 493.7617182719405 L 233.80468736001058 495.80859391996637 L 232.6796871680417 497.75390617595986 L 234.42187468800694 499.5976560639683 L 235.445312512049 502.3632814079174 L 235.445312512049 506.15234355191933 L 237.0859376640292 509.01953126396984 L 240.05468774400651 511.2695316479658 L 241.1796879360336 513.7304688639706 L 241.89843763201497 517.4140620799735 L 242.60937523201574 521.4101565439487 L 244.25000038405415 524.171875327942 L 245.68749977601692 526.2226565119345 L 245.27343718404882 529.19140659197 L 245.89062451204518 532.0585932799731 L 242.92187545605702 534.0039065599558 L 240.7734374400461 535.539062783937 L 239.1328122880077 537.3828126719454 L 237.59374950401252 538.9179688959266 L 229.19531212805305 541.9921879039612 L 230.01562521600863 545.2695316479658 L 231.1406254080357 548.4414064639714 L 228.9921873920248 552.1289062399301 L 226.42968780803494 553.5625000959262 L 223.46093772805762 556.1210941439494 L 221.00781260803342 558.171875327942 L 221.92968704004306 560.7304683519178 L 227.24999987205956 563.6992184319533 L 230.734368768055 566.2617190399324 L 231.0390620160615 570.4570316799218 L 229.71093708800618 575.6796876799199 L 228.9921873920248 578.8554690559395 L 230.6328125440632 580.6992189439479 L 232.37500006402843 581.92578150396 L 236.7734374400461 582.1328127999441 L 239.6406251520384 582.2343751679291 L 242.0000000000582 583.3593753599562 L 245.57812531205127 586.1249996799743 L 245.37499955203384 588.0703129599569 L 244.35156275203917 589.8125004799222 L 239.84374988800846 592.2695311359712 L 237.28906240005745 592.6796871679253 L 233.70312499202555 593.8046873599524 L 230.6328125440632 595.7499996159459 L 228.58593792002648 598.0039065599558 L 230.01562521600863 603.2265625599539 L 229.71093708800618 605.9921879039612 L 231.8593751040171 607.7304688639706 L 235.43750041601015 607.5273441279423 L 238.3125002240413 607.9375001599547 L 244.85156249604188 607.8359377919696 L 249.37499955203384 609.6757811199641 L 253.97656268801074 611.5195310079725 L 256.2187499520369 611.4179686399293 L 258.38281216000905 613.9765626879525 L 262.07031296001514 617.5625000959262 L 264.52343705605017 618.9960939519224 L 267.70312499202555 620.2226565119345 L 272.0000000000582 622.273437695927 L 273.6406251520384 625.7539061759599 L 273.5390627840534 630.1562501119333 L 272.4140625920263 634.664062975964 L 272.20312473602826 637.5312496639672 L 273.1250001920271 641.2148439039593 L 271.39062476804247 643.8789058559341 L 268.10937548801303 646.4374999039574 L 268.92968755203765 649.3046876159497 L 270.87499980803113 650.5351567359176 L 272.7187496960396 651.3554687999422 L 273.84374988800846 653.710937087948 L 276.4062504960457 658.3164057599497 L 274.8671877120505 660.7734374399297 L 272.20312473602826 662.4140625919681 L 271.5937495040125 664.5624995839316 L 271.4921871360275 667.2265625599539 L 266.98437529604416 669.6835942399339 L 266.3671879680478 673.7812500479631 L 267.28906240005745 676.5429688319564 L 266.6796871680417 679.3085941759637 L 266.78124953602673 681.9726561279385 L 267.70312499202555 685.1445309439441 L 270.46093721606303 690.3671879679314 L 273.84374988800846 692.2109378559398 L 278.25000038405415 696.4101560319541 L 282.24218726402614 696.6132807679242 L 284.80468787206337 699.0742190079181 L 287.7734379520407 699.7890621439437 L 288.69531238405034 703.6796876799199 L 290.74218700802885 704.8085934079718 L 292.07031296001514 708.0820316159516 L 293.5078123520361 710.7460935679264 L 296.47656243201345 714.7382814719458 L 299.9531253760215 716.6835937279393 L 303.1328122880077 717.5039057919639 L 304.2578124800348 719.5507814399316 L 304.66406297602225 721.8046873599524 L 307.02343782404205 724.5703127039596 L 309.78906214406015 725.7968752639717 L 312.1406248960411 727.3359370239195 L 315.82812467205804 728.7695308799739 L 319.92187494406244 730.8164065279416 L 321.8671872000559 733.0703124479624 L 324.3281254400499 735.0156247039558 L 326.9921873920248 737.8828124159481 L 328.11718758405186 740.7500001279404 L 326.3750000640284 743.3085941759637 L 321.8593751040171 744.2304686079733 L 318.28906291205203 744.027343871945 L 316.03125043201726 745.3554687999422 L 316.6484377600136 749.0429685759591 L 315.10937497601844 752.8320317439502 L 315.42187520005973 754.7773439999437 L 318.28906291205203 757.5429683199618 L 319.2421877760207 758.5624995839316 L 319.5859445760143 758.5000089599635 L 322.2734376960434 761.5625000959262 L 324.3984373760177 764.8124999679276 L 327.5859374080319 766.2500003839377 L 333.9609374720603 768.3125002239249 L 338.02343731204746 769.7499996159459 L 341.33593702403596 770.7500001279404 L 345.64843724801904 773.6249999359716 L 350.14843699202174 775.6874997759587 L 354.52343705605017 778.9374996479601 L 358.02343731204746 782.8749998079729 L 359.52343756804476 785.5000002559391 L 361.2734371840488 789.8125004799222 L 362.83593728003325 793.6874997759587 L 367.83593779202783 798.1874995199614 L 371.33593702403596 800.6875002879533 L 372.33593753603054 804.1249996799743 L 376.7734374400461 807.0000005119364 L 379.7109370880062 809.8750003199675 L 384.83593728003325 812.1249996799743 L 388.71093760005897 815.187500031956 L 391.52343756804476 816.8749998079729 L 393.33593702403596 819.3124997119303 L 397.52343756804476 821.7499996159459 L 398.20312473602826 822.1210941439494 L 398.7734374400461 822.1562501119333 L 399.48437504004687 822.8203120639664 L 401.64843724801904 823.9999999999418 L 405.9609374720603 826.8749998079729 L 410.83593728003325 828.7500001279404 L 413.33593702403596 832.8124999679276 L 416.5859379200265 834.4374999039574 L 416.7734374400461 834.902343679918 L 416.8984371200204 834.9570314239245 L 417.0078126080334 835.5078123519197 L 417.898437632015 837.7499996159459 L 419.7734379520407 842.6250004479662 L 419.5000002560555 843.4140620799735 L 419.56250009604264 843.5585935359704 L 417.8203125760192 848.5781247999403 L 417.57031219202327 848.9374996479601 L 417.39843788801227 849.437500415952 L 415.7734379520407 852.4999997439445 L 418.52343705605017 857.0000005119364 L 418.70312550402014 857.9726561279385 L 419.14843750401633 858.3046871039551 L 419.14843750401633 860.3242188799195 L 419.33593702403596 861.3124997119303 L 421.2109373440617 865.0000005119364 L 424.8984371200204 866.6250004479662 L 427.2109373440617 868.6875002879533 L 430.5859379200265 871.5000002559391 L 434.5859379200265 872.3750000639702 L 440.83593728003325 871.9375032319222 L 444.21093785605626 870.6875002879533 L 444.3281254400499 871.1406254079193 L 444.4453120000544 871.1054684159462 L 444.5468753920286 872.0039065599558 L 445.14843750401633 874.3750000639702 L 444.66406297602225 875.6015626239241 L 444.34374963201117 877.1445309439441 L 443.84374988800846 877.6601559039555 L 443.83593779202783 877.6874997759587 L 443.7109370880062 877.8007807999384 L 441.88281241600635 879.7070315519231 L 438.71093760005897 882.7773439999437 L 437.8671872000559 883.4960936959251 L 434.52343705605017 888.3125002239249 L 436.83593728003325 892.6250004479662 L 440.33593753603054 895.6874997759587 L 448.52343705605017 901.2499998719431 L 451.898437632015 903.6874997759587 L 455.39843788801227 906.7500001279404 L 464.5859379200265 908.6250004479662 L 468.5859379200265 906.5624995839316 L 473.33593702403596 905.7499996159459 L 478.14852096000686 906.3125063679181 L 483.83602278406033 907.187494911952 L 492.2734387200326 906.3125043199398 L 496.9609461760265 905.5000063999323 L 501.39843788801227 908.8124999679276 L 505.4609377280576 913.9375001599547 L 504.9453127680463 914.453125119966 L 501.7343754240428 917.8398433279363 L 501.0859376640292 921.3124997119303 L 501.01562470401404 921.3710940159508 L 492.5859379200265 928.8749998079729 L 499.9609374720603 934.6250004479662 L 506.21093785605626 937.5000002559391 L 510.46093721606303 939.9375001599547 L 514.8984381440096 940.5624934399384 L 519.3984378880123 942.1874995199614 L 522.460937216063 944.8749998079729 L 523.26562508801 946.0898437119322 L 524.921875456057 948.6015621119295 L 525.1484375040163 948.9374996479601 L 526.2734376960434 953.2499998719431 L 527.0859376640292 957.9375001599547 L 530.3359375360305 958.7500001279404 L 538.1484369920217 960.1874995199614 L 542.3360215040157 959.9999938559486 L 547.7734389760299 959.1875061759492 L 552.4765624320135 957.6328120319522 L 558.2109378560563 961.011719167931 L 561.4843750400469 964.2890629119356 L 562.8359372800332 969.187500031956 L 563.9453122560517 976.4726558719412 L 560.6640629760223 979.4453125119326 L 557.4921871360275 982.8242186239222 L 559.4375004160102 985.2812503039604 L 560.6171873280546 986.0546877439483 L 563.3281249280553 987.8398433279363 L 566.6093752320157 988.9687500799191 L 567.2187504640315 992.8593745919643 L 565.6874997760169 995.2148439039593 L 565.7890621440602 997.7734379519243 L 564.9687500800355 1000.4335933439434 L 564.6640629760223 1003.0976563199656 L 568.1406248960411 1006.273437695927 L 570.4374999040156 1008.980468735972 L 570.4999997440609 1009.0625003519235 L 571.5234375680448 1010.2656245759572 L 575.2109373440617 1014.7734374399297 L 575.6171878400492 1017.0234378239256 L 573.2578129920294 1019.9921879039612 L 570.7031255040201 1021.9375001599547 L 568.3185901032994 1024.0" fill="none"/><path stroke="#000000" stroke-width="2" d="M 568.3185901032994 1024.0 L 570.7031255040783 1021.9375001598964 L 573.2578129920876 1019.9921879039612 L 575.6171878401074 1017.0234378239256 L 575.2109373440617 1014.7734374398133 L 571.523437568103 1010.2656245758408 L 570.4999997440609 1009.0625003518071 L 570.4374999040156 1008.9804687360302 L 568.1406248960411 1006.2734376958688 L 564.6640629760805 1003.0976563198492 L 564.9687500800937 1000.4335933438851 L 565.7890621441184 997.7734379518661 L 565.6874997760751 995.2148439040175 L 567.2187504640897 992.8593745920225 L 566.609375232074 988.9687500798609 L 563.3281249280553 987.8398433279363 L 560.6171873281128 986.0546877439483 L 559.4375004160102 985.2812503040186 L 557.4921871360275 982.8242186238058 L 560.6640629760805 979.4453125118744 L 563.9453122561099 976.4726558719412 L 562.8359372800332 969.187500031956 L 561.4843750401051 964.2890629119356 L 558.2109378561145 961.011719167931 L 552.4765624320135 957.632812031894 L 547.7734389760881 959.1875061759492 L 542.3360215040157 959.9999938559486 L 538.1484369920217 960.1874995199032 L 530.3359375360305 958.7500001279404 L 527.0859376640292 957.9375001599547 L 526.2734376960434 953.2499998720014 L 525.1484375040745 948.9374996478437 L 524.921875456057 948.6015621119295 L 523.26562508801 946.0898437118158 L 522.460937216063 944.8749998079729 L 519.3984378880705 942.1874995199032 L 514.8984381440096 940.5624934398802 L 510.46093721612124 939.9375001598964 L 506.21093785605626 937.5000002558809 L 499.9609374720603 934.6250004479662 L 492.5859379200265 928.8749998079729 L 501.01562470401404 921.3710940158344 L 501.0859376640292 921.3124997118139 L 501.734375424101 917.839843327878 L 504.9453127681045 914.453125119966 L 505.4609377281158 913.9375001598964 L 501.3984378880705 908.8124999679276 L 496.9609461760265 905.5000063998741 L 492.2734387200326 906.3125043198816 L 483.83602278411854 907.1874949120102 L 478.14852096000686 906.3125063679181 L 473.33593702409416 905.7499996158294 L 468.5859379200847 906.5624995838734 L 464.5859379200847 908.6250004479662 L 455.3984378880705 906.7500001278822 L 451.898437632015 903.6874997759587 L 448.5234370561084 901.2499998719431 L 440.33593753603054 895.6874997760169 L 436.83593728003325 892.6250004479662 L 434.52343705605017 888.3125002238667 L 437.8671872000559 883.4960936959251 L 438.7109376001172 882.7773439998855 L 441.88281241606455 879.7070315518067 L 443.7109370880062 877.8007807998802 L 443.83593779202783 877.6874997759587 L 443.84374988806667 877.6601559039555 L 444.3437496320694 877.1445309438859 L 444.66406297608046 875.6015626238077 L 445.14843750407454 874.375000063912 L 444.5468753920286 872.0039065598976 L 444.4453120001126 871.105468415888 L 444.3281254400499 871.1406254078029 L 444.21093785605626 870.6875002878369 L 440.83593728003325 871.9375032319804 L 434.5859379200265 872.3750000638538 L 430.5859379200265 871.5000002558809 L 427.2109373441199 868.6875002880115 L 424.8984371200204 866.6250004479662 L 421.2109373440617 865.0000005119364 L 419.33593702409416 861.3124997119885 L 419.14843750401633 860.3242188798613 L 419.14843750401633 858.3046871038387 L 418.70312550402014 857.9726561279385 L 418.52343705605017 857.0000005119364 L 415.7734379520989 852.4999997439445 L 417.39843788801227 849.437500415952 L 417.5703121920815 848.9374996478437 L 417.8203125760192 848.5781247999403 L 419.56250009610085 843.5585935359122 L 419.5000002561137 843.4140620799735 L 419.7734379520989 842.6250004479662 L 417.898437632015 837.7499996160041 L 417.0078126080916 835.5078123518033 L 416.8984371200204 834.9570314239245 L 416.7734374400461 834.902343679918 L 416.5859379200265 834.4374999039574 L 413.33593702403596 832.8124999679276 L 410.83593728003325 828.750000127824 L 405.96093747211853 826.8749998079729 L 401.64843724807724 823.9999999998836 L 399.4843750401051 822.8203120639082 L 398.7734374400461 822.1562501118751 L 398.20312473602826 822.1210941438912 L 397.52343756804476 821.7499996158294 L 393.33593702409416 819.3124997119303 L 391.52343756810296 816.8749998079147 L 388.7109376001172 815.1875000318978 L 384.83593728009146 812.1249996799743 L 379.7109370880644 809.8750003199675 L 376.7734374401043 807.0000005119364 L 372.33593753603054 804.1249996799743 L 371.33593702403596 800.6875002879533 L 367.83593779202783 798.187499519845 L 362.83593728003325 793.6874997759587 L 361.273437184107 789.8125004799222 L 359.52343756810296 785.5000002558227 L 358.02343731204746 782.8749998079147 L 354.52343705605017 778.9374996479601 L 350.14843699202174 775.6874997759005 L 345.64843724801904 773.6249999359134 L 341.33593702403596 770.750000127824 L 338.02343731204746 769.7499996159459 L 333.9609374720603 768.3125002238085 L 327.5859374080319 766.2500003839377 L 324.3984373760759 764.8124999678694 L 322.2734376960434 761.5625000958098 L 319.5859445760143 758.5000089600217 L 319.24218777607894 758.5624995838734 L 318.28906291205203 757.5429683199618 L 315.42187520011794 754.7773439998273 L 315.10937497607665 752.8320317439502 L 316.6484377600136 749.0429685759591 L 316.03125043207547 745.355468799884 L 318.28906291205203 744.027343871945 L 321.8593751040753 744.2304686078569 L 326.37500006408663 743.3085941759637 L 328.11718758405186 740.7500001279404 L 326.9921873920248 737.8828124158899 L 324.3281254400499 735.0156247038394 L 321.8671872000559 733.0703124479624 L 319.92187494412065 730.8164065279416 L 315.82812467205804 728.7695308799157 L 312.1406248960993 727.3359370238613 L 309.78906214406015 725.7968752638553 L 307.02343782410026 724.5703127039596 L 304.66406297602225 721.8046873599524 L 304.257812480093 719.5507814399316 L 303.1328122880077 717.5039057919057 L 299.9531253760797 716.6835937278811 L 296.47656243207166 714.7382814718294 L 293.50781235209433 710.7460935679264 L 292.07031296001514 708.0820316158934 L 290.74218700802885 704.8085934079718 L 288.69531238410855 703.6796876798035 L 287.7734379520407 699.7890621439437 L 284.80468787206337 699.0742190078017 L 282.24218726402614 696.6132807679242 L 278.25000038405415 696.4101560318377 L 273.84374988800846 692.2109378559398 L 270.46093721612124 690.3671879678732 L 267.70312499202555 685.1445309438859 L 266.78124953608494 681.9726561278803 L 266.6796871680417 679.3085941758472 L 267.28906240005745 676.54296883184 L 266.367187968106 673.7812500479049 L 266.98437529604416 669.6835942398175 L 271.4921871360275 667.2265625600121 L 271.5937495040125 664.5624995838152 L 272.20312473602826 662.4140625919099 L 274.8671877121087 660.7734374399297 L 276.4062504961039 658.3164057598915 L 273.84374988800846 653.710937087948 L 272.7187496960396 651.3554687998258 L 270.87499980803113 650.5351567358011 L 268.92968755203765 649.3046876158915 L 268.10937548801303 646.437499903841 L 271.3906247681007 643.8789058559341 L 273.1250001920853 641.214843903901 L 272.20312473602826 637.5312496639672 L 272.4140625920263 634.6640629758476 L 273.5390627840534 630.1562501118751 L 273.6406251520966 625.7539061759599 L 272.0000000000582 622.2734376958106 L 267.70312499202555 620.2226565118763 L 264.52343705605017 618.996093951806 L 262.07031296001514 617.5625000959262 L 258.38281216006726 613.9765626879525 L 256.2187499520951 611.4179686398711 L 253.97656268801074 611.5195310079143 L 249.37499955209205 609.6757811198477 L 244.85156249604188 607.8359377919114 L 238.3125002240413 607.9375001599547 L 235.43750041601015 607.5273441279423 L 231.8593751040171 607.7304688639706 L 229.71093708806438 605.9921879038448 L 230.01562521606684 603.2265625598375 L 228.58593792002648 598.0039065599558 L 230.6328125441214 595.7499996160041 L 233.70312499202555 593.8046873598942 L 237.28906240005745 592.6796871678671 L 239.84374988806667 592.2695311358548 L 244.35156275203917 589.8125004799222 L 245.37499955209205 588.0703129599569 L 245.57812531205127 586.1249996799743 L 242.00000000011642 583.3593753598398 L 239.64062515209662 582.2343751678127 L 236.7734374400461 582.1328127999441 L 232.37500006402843 581.9257815038436 L 230.6328125441214 580.6992189439479 L 228.992187392083 578.8554690559395 L 229.71093708806438 575.6796876799199 L 231.0390620160615 570.4570316798054 L 230.734368768055 566.261719039816 L 227.24999987205956 563.6992184318951 L 221.92968704004306 560.7304683518014 L 221.00781260809163 558.1718753278838 L 223.46093772805762 556.1210941438912 L 226.42968780803494 553.5625000958098 L 228.992187392083 552.1289062398137 L 231.1406254080357 548.4414064639132 L 230.01562521606684 545.2695316479658 L 229.19531212805305 541.992187903903 L 237.59374950407073 538.9179688959266 L 239.1328122880077 537.3828126718872 L 240.7734374400461 535.5390627838788 L 242.92187545611523 534.003906560014 L 245.8906245121034 532.0585932800313 L 245.27343718404882 529.1914065919118 L 245.68749977601692 526.2226565118181 L 244.25000038411235 524.1718753278255 L 242.60937523207394 521.4101565438905 L 241.89843763201497 517.4140620799735 L 241.1796879360918 513.7304688639124 L 240.05468774406472 511.2695316479658 L 237.0859376640874 509.0195312638534 L 235.445312512049 506.1523435518611 L 235.445312512049 502.3632814079174 L 234.42187468800694 499.5976560639101 L 232.6796871680417 497.75390617590165 L 233.80468736006878 495.8085939200246 L 235.9531253760215 493.76171827182407 L 238.92187545611523 490.9960939519224 L 237.0859376640874 489.9726561278803 L 234.11718758411007 489.3554687999422 L 230.01562521606684 488.5390622718842 L 226.32812544010812 488.2304686079151 L 223.0468751360895 489.3554687999422 L 219.6718745600665 489.0507816958125 L 216.07812505611219 488.9492183038965 L 211.38281267206185 489.1523440638557 L 207.57812531205127 488.02734387182863 L 205.23437465610914 488.12890623987187 L 200.6328125440632 488.84375039988663 L 197.14843750401633 490.89453158387914 L 194.78124953602673 491.60937471996294 L 191.21093734406168 490.7890626559383 L 187.3203128320165 490.07421849592356 L 184.1328128001187 488.43749990384094 L 181.89062451204518 489.25390643189894 L 179.74218752008164 490.07421849592356 L 176.25781248009298 490.277344255941 L 172.46875033609103 490.7890626559383 L 169.9062497280538 489.562500095868 L 172.97656217601616 484.85156249580905 L 174.00781209609704 481.0625003519235 L 175.85156300803646 479.01562470389763 L 176.66406297608046 477.17187481588917 L 175.03124992002267 474.30468710383866 L 176.77343744010432 471.02734335995046 L 178.4062504960457 467.74999961588765 L 180.14843699202174 465.29296895995503 L 183.3203128320165 462.42578124796273 L 184.9609379840549 458.63671910384437 L 186.18749952001963 454.6445311999414 L 187.10937497601844 451.3671874558786 L 186.60156211210415 448.6015621119295 L 185.16406272002496 446.453125119966 L 183.6328120320104 444.4023439359735 L 185.2656250880682 443.48046848003287 L 187.62499993602978 442.0468746238039 L 189.97656268806895 439.89843763184035 L 191.41406208003173 438.0546877438319 L 192.74218700802885 436.21093785599805 L 195.60937472007936 433.8554685440031 L 199.29687449603807 431.39843788789585 L 204.3125002240413 429.1445309439441 L 207.79687526402995 428.12109414383303 L 206.46875033603283 425.460937727883 L 206.05468774406472 422.5937500158907 L 203.70312499202555 420.1367183358525 L 201.1406254080939 417.0625003519817 L 199.19531212811125 412.76171878393507 L 198.37500006408663 408.56249958387343 L 194.9921873920248 404.67187507194467 L 191.10937497601844 402.726562815893 L 187.21875046408968 401.7031249918509 L 183.6328120320104 399.34765670396155 L 179.82812467211625 396.378906623926 L 175.1328122880659 396.6835937278229 L 172.46875033609103 398.11718758381903 L 169.79687526402995 399.1406254078611 L 167.55468800006201 399.0390620158869 L 164.78906265605474 398.42578124802094 L 162.74218700802885 397.6054691839963 L 160.1796874240972 396.17187532794196 L 157.41406208003173 393.30468761594966 L 155.57031219208147 391.15624959988054 L 154.34374963201117 388.90234367985977 L 151.37499955203384 388.1874995199614 L 149.3203128320165 387.0585937919677 L 146.04687462409493 387.3671874559368 L 142.04687462409493 385.7304688638542 L 138.78124953602673 386.34374963195296 L 135.81250048003858 386.75390668789623 L 132.42968780809315 387.3671874559368 L 128.1328128000605 389.105468415888 L 125.87500032008393 389.9257815038436 L 123.50781235203613 390.74609356786823 L 119.83593779208604 390.74609356786823 L 116.64843776001362 392.07421849580714 L 114.00000000005821 391.76953139185207 L 111.43750041606836 390.43749990389915 L 108.97656217607437 388.5976565759047 L 104.25781248009298 387.2656250879518 L 101.19531212805305 387.2656250879518 L 98.84375040011946 387.4687498238054 L 97.51562547200592 385.4218751998851 L 100.4843745281105 381.8359377918532 L 102.73437491210643 380.30078156781383 L 100.992187392083 378.45703167980537 L 101.09374976000981 376.30859366391087 L 100.38281216006726 374.25781247997656 L 100.38281216006726 371.39062476792606 L 102.93749964807648 368.628905983991 L 105.39843788807048 367.39843788795406 L 107.03124992008088 365.66015590389725 L 105.60156262404053 362.48437452787766 L 101.81250048003858 360.6406246398692 L 99.14843750407454 357.57031219190685 L 95.25781299202936 355.51953100797255 L 92.80468787212158 355.3164062718861 L 89.93750016001286 354.7031255039619 L 88.09375027206261 352.4492185598356 L 85.53124966402538 351.0156247038394 L 82.76562534406548 349.99218790390296 L 81.12500019208528 347.12500019185245 L 80.41406259202631 343.6406251518638 L 78.15625011210795 340.57031270395964 L 75.70312499202555 339.64843724801904 L 72.93749964801827 337.6015626238659 L 70.78906265611295 335.44921907188836 L 71.19531212805305 333.19921868800884 L 70.57812480011489 330.1249996800325 L 68.93749964801827 328.38281215983443 L 67.4062499840511 324.6992189438315 L 68.22656204807572 321.62499993585516 L 67.10156288003782 318.24609382392373 L 67.71093708806438 314.9687500799191 L 65.9687516160775 312.61327667190926 L 63.2986204160261 311.59051263995934 L 61.34375014412217 311.89843763195677 L 59.08828160003759 312.61474815994734 L 56.016281600052025 313.6387481599231 L 53.45628160005435 313.8435481599299 L 51.51068160007708 314.5603481599246 L 49.6674816000741 315.5843481599004 L 47.10937497607665 316.6093752318411 L 43.83068160008406 317.2227481599548 L 40.55468748806743 317.42968729586573 L 37.171874816122 317.53124966390897 L 33.89788160007447 316.4035481598112 L 31.747481600032188 313.33154815994203 L 30.723481600056402 309.6451481599943 L 29.08508160011843 306.5731481598923 L 29.59374950401252 304.62890598381637 L 27.03708160010865 304.3203481599339 L 24.886681600066368 304.3203481599339 L 22.121881600061897 304.4227481599082 L 19.561881600064225 304.4227481599082 L 16.48988160007866 303.29634816001635 L 12.598681600065902 301.65794815996196 L 9.627454464090988 302.1714503679541 L 6.968750080093741 304.62890598381637 L 4.101562368043233 309.03124991990626 L 0.0034816000261344016 310.77154815988615 L 0.0 310.7723238033941" fill="none"/></svg>