<svg xmlns="http://www.w3.org/2000/svg" width="1024" height="1024"><rect stroke="none" x="0" y="0" width="1024" height="1024" fill="white"/><path stroke="#408040" stroke-width="3" d="M 12.298240000003716 265.0214399999968 L 0.0 265.96253860326397" fill="none"/><path stroke="#408040" stroke-width="3" d="M 0.0 241.45247354128514 L 9.052160000006552 235.00800000000163 L 11.735039999999572 214.44608000000153 L 18.083840000006603 188.59008000000176 L 23.388160000002244 183.54176000000007 L 39.33183999999892 180.31616000000213 L 54.435840000005555 177.18271999999706 L 68.85375999999815 165.8367999999973 L 94.32064000000537 139.87840000000142 L 104.41727999999421 128.62464000000182 L 118.26175999999396 122.23488000000361 L 130.40640000000712 119.82847999999649 L 145.715200000006 111.59552000000258 L 172.34944000000542 97.18783999999869 L 189.22496000000683 86.93759999999747 L 218.767359999998 60.67199999999866 L 233.0726399999985 45.588479999998526 L 247.65439999999944 35.10272000000259 L 269.68064000000595 14.110719999996945 L 288.51304489796166 0.0" fill="none"/><path stroke="#408040" stroke-width="3" d="M 0.0 17.204948292681365 L 3.0412800000049174 17.254399999997986 L 10.567679999992833 18.86207999999897 L 12.943360000004759 13.158400000000256 L 17.060626971637248 0.0" fill="none"/><path stroke="#408040" stroke-width="3" d="M 17.28606580363703 0.0 L 12.021760000003269 19.804159999999683 L 12.185599999997066 55.66464000000269 L 12.625920000005863 120.6374399999986 L 17.203200000003562 184.49407999999676 L 7.618560000002617 235.3868799999982 L 7.004159999996773 247.31648000000132 L 12.298240000003716 265.0214399999968" fill="none"/><path stroke="#408040" stroke-width="3" d="M 0.0 175.25133373134304 L 1.925119999999879 175.79007999999885 L 4.003840000004857 176.34303999999975 L 4.771840000001248 176.4864000000016 L 5.898239999994985 176.6195200000002 L 6.993919999993523 176.66047999999864 L 12.584959999992861 176.6707200000019 L 13.332479999997304 176.66047999999864 L 13.486080000002403 176.65024000000267 L 13.578240000002552 176.71168000000034 L 13.977599999998347 176.7526399999988 L 14.714879999999539 176.8038400000005 L 14.909440000003087 176.83456000000297 L 15.319040000002133 176.92672000000312 L 15.759359999996377 177.10080000000016 L 16.005120000001625 177.244160000002 L 16.240640000003623 177.4284800000023 L 16.46592000000237 177.66399999999703 L 16.65024000000267 177.94047999999748 L 16.773119999998016 178.21695999999793 L 16.844800000006217 178.45247999999992 L 16.885760000004666 178.6675200000027 L 16.957439999998314 179.26144000000204 L 16.947199999995064 180.34687999999733 L 16.895999999993364 180.76671999999962 L 16.732159999999567 181.28895999999804 L 16.51712000000407 181.8521600000022 L 16.32256000000052 182.46656000000075 L 16.230400000000373 182.90688000000227 L 16.199680000005173 183.34719999999652 L 16.230400000000373 183.68512000000192 L 16.36351999999897 184.20736000000034 L 16.844800000006217 185.48735999999917 L 16.957439999998314 185.86624000000302 L 17.049599999998463 186.56255999999848 L 17.100800000000163 187.03360000000248 L 17.111040000003413 187.0540800000017 L 17.192960000000312 187.12576000000263 L 17.17247999999381 187.5046399999992 L 17.152000000001863 188.139519999997 L 17.141759999998612 189.09184000000096 L 17.111040000003413 192.03072000000247 L 17.141759999998612 193.0751999999993 L 17.131519999995362 193.85343999999895 L 17.131519999995362 194.5497600000017 L 17.121280000006664 195.2870400000029 L 17.080319999993662 195.69664000000193 L 17.059840000001714 196.41343999999663 L 17.059840000001714 197.652479999997 L 17.029120000006515 198.32832000000053 L 16.926720000003115 199.14751999999862 L 16.742400000002817 199.92575999999826 L 16.53759999999602 200.55040000000008 L 16.43520000000717 200.8371199999965 L 16.240640000003623 201.28768000000127 L 15.52383999999438 202.7007999999987 L 15.032319999998435 203.63264000000345 L 14.376959999994142 204.9638399999967 L 13.8035200000013 206.08000000000175 L 13.475839999999152 206.68415999999706 L 12.933120000001509 207.95391999999993 L 12.759040000004461 208.39424000000145 L 12.462079999997513 209.3260799999989 L 11.745280000002822 212.36735999999655 L 11.11040000000503 215.10143999999855 L 10.84415999999328 216.35072000000218 L 10.762239999996382 216.9548799999975 L 10.711039999994682 217.59999999999854 L 10.700800000005984 219.238400000002 L 10.670079999996233 223.0783999999985 L 10.649600000004284 225.66911999999866 L 10.659839999992982 228.5772799999977 L 10.649600000004284 229.43744000000152 L 10.649600000004284 229.6012800000026 L 10.536959999997634 229.77535999999964 L 10.536959999997634 229.7856000000029 L 10.495999999999185 230.11327999999776 L 10.383360000007087 230.66623999999865 L 10.19904000000679 231.2294400000028 L 9.850879999998142 231.8847999999998 L 9.594880000004196 232.36607999999978 L 9.390079999997397 232.7551999999996 L 9.1750400000019 233.47200000000157 L 8.980479999998352 233.88160000000062 L 8.888319999998203 234.08640000000014 L 8.642559999992955 234.40383999999904 L 8.540160000004107 234.53695999999763 L 8.028160000001662 235.04896000000008 L 7.444480000005569 235.5199999999968 L 6.983680000004824 235.8886399999974 L 6.758400000006077 236.1241599999994 L 6.277119999998831 236.85119999999733 L 5.9494399999966845 237.34272000000055 L 5.591039999999339 237.86495999999897 L 5.212159999995492 238.45887999999832 L 5.068799999993644 238.65344000000186 L 4.894719999996596 238.99136 L 4.741120000006049 239.5135999999984 L 4.689920000004349 239.9334400000007 L 4.700159999993048 240.18944000000192 L 4.771840000001248 240.62976000000344 L 4.925440000006347 241.23391999999876 L 5.038079999998445 241.7766399999964 L 5.048320000001695 242.1145600000018 L 5.099520000003395 242.26815999999963 L 5.109760000006645 242.57536000000255 L 5.150720000005094 243.57888000000094 L 5.171199999997043 244.39807999999903 L 5.191680000003544 244.6643200000035 L 5.263359999997192 244.94079999999667 L 5.365760000000591 245.2992000000013 L 5.621759999994538 245.770239999998 L 5.928960000004736 246.17983999999706 L 6.574080000005779 246.72256000000198 L 6.737919999999576 246.86591999999655 L 6.932480000003125 247.15264000000025 L 7.045119999995222 247.44959999999992 L 7.096319999996922 247.6646400000027 L 7.168000000005122 248.44288000000233 L 7.208960000003572 248.59648000000016 L 7.526400000002468 249.08800000000338 L 7.669760000004317 249.23135999999795 L 8.714240000001155 250.03007999999681 L 10.506240000002435 251.40224000000308 L 12.492800000007264 252.95872000000236 L 12.81024000000616 253.21472000000358 L 12.89216000000306 253.29664000000048 L 12.90240000000631 253.5833599999969 L 12.90240000000631 254.638079999997 L 12.89216000000306 255.0476800000033 L 12.912639999995008 256.7065599999987 L 12.912639999995008 257.91487999999663 L 12.89216000000306 259.0720000000001 L 12.89216000000306 262.4716800000024 L 12.871679999996559 263.1168000000034 L 12.881919999999809 263.9872000000032 L 12.636159999994561 264.1817599999995 L 12.605439999999362 264.24319999999716 L 12.472320000000764 264.34560000000056 L 11.91935999999987 264.77567999999883 L 12.267519999993965 265.0214399999968 L 12.298240000003716 265.0214399999968" fill="none"/><path stroke="#408040" stroke-width="3" d="M 184.9246493136452 1024.0 L 156.48768000000564 972.9536000000007 L 144.40447999999742 944.762880000002 L 138.95679999999993 918.3846399999966 L 140.3596799999941 886.3334400000022 L 151.15264000000025 853.0841599999985 L 153.52831999999762 837.4374400000015 L 150.5075199999992 823.377919999999 L 130.61119999999937 805.3862399999998 L 124.59007999999449 799.1398400000035 L 125.09183999999368 789.6575999999986 L 125.55263999999443 776.9907200000016 L 120.61695999999938 770.9695999999967 L 107.72479999999632 753.0905599999969 L 106.41408000000229 730.7776000000013 L 116.99199999999837 705.0239999999976 L 133.3145599999989 661.1456000000035 L 140.6668800000043 639.7235199999996 L 143.72864000000118 622.745600000002 L 139.14112000000023 608.1945600000035 L 123.7196799999947 583.2089600000036 L 127.27296000000206 571.8732799999998 L 130.69311999999627 537.0060799999992 L 130.87743999999657 504.1356799999994 L 135.97695999999996 493.37344000000303 L 134.98368000000482 476.41599999999744 L 132.4748799999943 453.77535999999964 L 123.00288 423.52640000000247 L 104.82687999999325 391.9872000000032 L 74.65983999999298 338.0940800000026 L 62.45376000000397 324.97664000000077 L 40.06912000000011 322.6521599999978 L 12.431360000002314 305.39775999999983 L 0.0 292.9310082277516" fill="none"/><path stroke="#408040" stroke-width="3" d="M 0.0 266.1785600000003 L 10.465280000003986 266.1785600000003 L 12.298240000003716 265.0214399999968" fill="none"/></svg>