<svg xmlns="http://www.w3.org/2000/svg" width="1024" height="1024"><rect stroke="none" x="0" y="0" width="1024" height="1024" fill="white"/><path stroke="#000000" stroke-width="2" d="M 1024.0 18.162665635580197 L 1020.6250004480244 16.68750028789509 L 1018.6875002880115 16.68750028789509 L 1010.812499968044 11.562500095926225 L 1006.3750000640866 6.062499839812517 L 1003.8030297965452 0.0" fill="none"/><path stroke="#000000" stroke-width="2" d="M 244.51352709287312 1024.0 L 243.92187494406244 1003.9179683838156 L 243.92187494406244 962.1367183359689 L 244.02343731210567 935.4101565439487 L 244.02343731210567 902.1328128000023 L 243.8203125760192 894.9648435199051 L 243.60937472002115 891.4804684799165 L 243.60937472002115 881.2421877759625 L 243.7187502080924 878.1718753278838 L 243.60937472002115 872.4335933439434 L 243.8203125760192 869.8750003199675 L 243.92187494406244 864.9609379838221 L 243.92187494406244 856.9726566398749 L 243.8203125760192 851.9570309118135 L 243.8203125760192 839.2578129919129 L 243.92187494406244 835.9804692478501 L 243.8203125760192 824.6132807679242 L 243.8203125760192 818.8789063679287 L 243.7187502080924 800.1406248959247 L 243.60937472002115 792.3593748479616 L 243.60937472002115 786.2148433918483 L 243.61718784004916 782.6328125438886 L 243.61718784004916 780.218749951804 L 243.60937472002115 775.9726561278803 L 243.7187502080924 767.9882813438307 L 243.71093708806438 766.0429690879537 L 243.50781235209433 748.6328125438886 L 243.48441395204281 747.7007820798899 L 245.12000000005355 747.4780159998918 L 248.2114560001064 746.5666559998062 L 248.33593753603054 746.4101560319541 L 249.6942080000881 745.8641919998918 L 251.83593779202783 745.5390627838206 L 253.25875200005248 745.1637759999721 L 254.2366720000282 744.6722559998743 L 255.02515200007474 744.4848639998236 L 256.24218726408435 744.3437496318948 L 256.7578122240957 744.08593715186 L 258.3623680001474 743.569407999923 L 259.1804938240675 743.1951155198622 L 260.0970936320955 742.9726576638641 L 260.5390622720588 742.8671877118759 L 260.92909465607954 742.6674728958751 L 261.40329267201014 742.427259903925 L 262.02343731204746 742.117187583819 L 262.403674112109 742.0547614718671 L 263.06250035203993 741.9531253759633 L 264.6718750720611 741.5039057918475 L 265.26720000011846 741.0595839999733 L 266.1498880000436 740.7083519998705 L 266.8748800000758 740.5670399998198 L 268.13542400003644 740.1687039999524 L 269.0816000000341 740.0048639998422 L 272.74218700802885 738.7148441600148 L 273.0223237121245 738.5808127998025 L 273.72780339204473 738.2472355839564 L 273.75781273603207 738.2343751678709 L 274.12684800004354 738.0582399999839 L 275.0390620161197 737.7304688638542 L 276.14843699202174 737.5664066558238 L 276.3846154240309 737.3367889919318 L 276.5859379200265 737.1445309438277 L 277.56250009615906 736.7226562559372 L 280.1796874241554 735.8789058558759 L 281.0190284800483 735.7054167038295 L 281.09374976012623 735.6914063359145 L 282.1640622080886 735.3164062719443 L 283.3671874560532 735.0117191678146 L 284.56249958410626 734.5664061438874 L 285.5731200000155 734.3534079999081 L 286.20312473602826 734.0507811838179 L 287.02343782415846 733.4414059518604 L 288.9453127681045 732.4570316798054 L 289.5390627840534 732.2617190399324 L 289.42968729609856 732.0078120958642 L 290.7734374400461 731.5585935359704 L 291.8046873600688 731.0156247038976 L 292.98437529604416 730.3281254399335 L 294.42968780803494 729.6132812799187 L 296.10937548807124 729.3085941759637 L 296.98841190402163 728.9667471359717 L 297.8710937600117 728.6269532158622 L 299.1660154880374 728.490234879835 L 300.8671877121087 727.7128908798331 L 301.4921871361439 727.1132815358578 L 302.3051171841216 726.9057976318873 L 303.3613281280268 726.6386718718568 L 303.84480460808845 726.3790428158827 L 304.4999997440609 726.0312504319008 L 305.37626624002587 725.5619491838152 L 305.97851545602316 725.3027348479372 L 306.78124953602673 725.2695316478494 L 308.0937502721208 725.1640627199085 L 308.39654400007566 725.0487941119354 L 308.78515609604074 724.9042964478722 L 309.73242163209943 724.2949222398456 L 310.69531238410855 724.0507811839343 L 311.7812500480213 723.2402339840191 L 312.197163008037 723.0858741759439 L 312.921875456057 722.8203120640246 L 313.32033331203274 722.6894458878087 L 313.7226557441172 722.560546815861 L 315.4414059520932 721.7402347518364 L 316.4824217600981 720.9667973119067 L 317.806640128023 720.8730470398441 L 318.626953216095 720.4511723519536 L 319.16406272002496 720.0292966400157 L 320.10937548801303 719.5625000959262 L 321.37499955209205 719.0859376638546 L 321.70318336004857 718.9257533439086 L 322.0332032000297 718.7675781119033 L 322.7578122240957 718.6992189440061 L 323.97460889606737 717.9707033598097 L 325.06250035203993 717.7968752639717 L 326.29492224007845 717.4082027519471 L 326.9882808321272 717.3847654398414 L 328.25000038411235 716.2617190399324 L 330.2985390080139 714.8550533118541 L 331.435546624125 714.5722654719721 L 332.1640622080886 714.6445311999414 L 332.9531248640851 714.2265620480175 L 334.60742144007236 713.8144532479346 L 335.4453125121072 712.7734374399297 L 336.02343731210567 712.3671879679314 L 336.3164426241419 712.0292556798086 L 336.61132800008636 711.6933591038687 L 338.2343751680455 710.7343749118154 L 339.98828134418 710.2910156798898 L 340.87109324801713 709.8925783039303 L 341.3769533440354 709.1894527999684 L 342.1347655680729 709.1074222078896 L 343.3007810560521 709.1660154878045 L 344.5402234881185 708.6536335358978 L 344.75000012817327 708.8867184639093 L 345.19531212811125 708.7304683519178 L 345.28906240005745 708.6523432958056 L 345.5392860160209 708.4491335678031 L 346.52343705605017 708.0742184959236 L 347.18200729612727 707.5582269439474 L 347.6249999360298 707.4882816000027 L 348.10156236810144 707.2304691199097 L 348.3827886080835 706.8086292478838 L 349.45536000007996 706.4340479999664 L 350.2438400000101 706.4340479999664 L 350.9063680000836 706.2937600000296 L 351.3823498240672 705.5905259518768 L 351.6640624640859 705.4765629438916 L 351.98054400016554 705.4274559998303 L 351.9843747840496 705.4257817599573 L 352.35840000014286 705.0526719999034 L 353.1171870721737 704.8203120639664 L 353.4315520001692 704.491519999865 L 354.47656243207166 703.9765626878361 L 354.9153280000901 703.3907199999085 L 355.9260160000413 702.82956799987 L 356.9039360000752 702.5479679998825 L 357.53574400005164 702.525439999823 L 358.4843745280523 702.5976565759629 L 359.2734371840488 702.4804689920275 L 360.7265628160676 701.5898439678713 L 361.2917760000564 701.3550079999259 L 361.7966080000624 701.2618239998701 L 362.17548800003715 701.0744319998194 L 362.6485760001815 700.9812479999382 L 363.1544391681091 700.793637887924 L 363.8203125760192 700.6523432958056 L 364.25830400001723 700.4426239999011 L 364.7656253440655 700.0703129599569 L 364.92187545611523 699.8359377918532 L 365.6796876800363 699.4375004158937 L 366.6257920000353 698.7581439999049 L 368.1095680000144 698.1027839998715 L 368.5201920000836 697.8211839998257 L 369.03013068804285 697.6326440958073 L 369.46874982403824 697.4726563838194 L 370.07031296007335 697.3320314879529 L 370.7578122240375 697.4257817599573 L 370.80025907210074 697.4823761919397 L 370.82419200008735 697.5180799998925 L 370.82669056009036 697.517619199818 L 370.82812518411083 697.5195310079143 L 371.32812492811354 697.4257817599573 L 371.83593779202783 697.0507816959289 L 372.24550400004955 696.418303999817 L 372.65612800011877 696.2309119999409 L 373.31865600001765 696.1141759999446 L 374.1399040000979 695.6697599999025 L 375.0859376640874 695.3671874558786 L 376.2265620480175 694.4531251198496 L 376.4453120000544 693.9843747838167 L 376.9531248640269 693.5859374078573 L 377.4873600000283 693.3524479998741 L 377.71085414406843 693.140703231853 L 378.7187496960396 692.7929692160105 L 379.37664000003133 692.7636479999055 L 379.85156300803646 692.7460935678682 L 379.85484800004633 692.7441919999546 L 381.87622400012333 691.0361599999596 L 382.5387520000804 690.8487679999089 L 383.7812500480213 689.9609374719439 L 384.2343751680455 689.6093747199047 L 385.3649920001044 688.8570879999315 L 386.1249996800325 688.5039063040167 L 387.54201600013766 687.5668479999295 L 388.0785920000635 687.6139519998687 L 388.39062528003706 687.7070315519231 L 389.5000002560555 687.7070315519231 L 390.00781209609704 687.4492190718884 L 390.50775552005507 686.6993049598532 L 390.921875456057 686.3242188798031 L 391.7109370881226 685.8320312318392 L 392.49510400003055 685.4809600000153 L 394.00781209615525 685.5507814398734 L 394.1718753281166 685.6210933758412 L 394.6718750720611 685.5507814398734 L 395.5875840000808 684.5890559998807 L 396.8203120640246 683.6289064959274 L 397.13382400007686 683.2066559998784 L 398.1742080000113 682.4099840000272 L 399.5627520001144 681.6133119999431 L 400.28906291211024 681.0039060480194 L 400.7301120000193 680.1838079998852 L 401.5175680000684 679.0594559998135 L 401.6752640000195 678.4972799998941 L 401.96054630406434 678.0513832959114 L 402.21184000012 677.9811839999165 L 402.812499968044 676.9765621758997 L 403.66406246402767 676.4140625919681 L 404.54656000004616 676.0130559998797 L 408.30361600010656 675.8952959999442 L 408.71093760005897 675.7148436478456 L 409.2497920001042 675.4734079999616 L 410.1017600001069 674.8641279999283 L 410.7656253441819 674.1835939838202 L 411.8056960001122 673.3414399998146 L 412.2808647680213 672.6841231359285 L 412.43648000009125 672.614399999904 L 412.75238400005037 672.6614282239461 L 413.10003200004576 672.8488959998358 L 413.13177600014023 673.598463999806 L 413.35623680008575 673.8100838398677 L 413.47656294412445 673.92578150396 L 414.1718753280584 674.1835939838202 L 415.74999961606227 674.1601566718891 L 419.0078126080334 673.6914063358563 L 420.9921873920248 672.824218623864 L 421.33913600002415 672.5427199999685 L 422.89062502403976 671.816406015947 L 425.00096000003396 670.3400959999417 L 425.44524800014915 670.1289369599544 L 426.07411200006027 670.0584959999542 L 426.16912384011084 669.9597823999939 L 426.2343751680455 669.8945310718263 L 427.5578880000394 669.0979839999927 L 427.70312499208376 669.0468751360313 L 429.73593600001186 668.3013119999086 L 431.2832000000635 667.9971839998616 L 434.4719360000454 666.2635519999312 L 435.6718745601247 665.9609374720021 L 436.9062502401066 665.3046876159497 L 440.0000000000582 664.2968750079162 L 440.914062336029 664.2500003838213 L 441.35424000007333 663.898111999908 L 442.8697600000305 662.9611519998871 L 443.6953128960449 662.5624995839316 L 444.05857484810986 662.279155711818 L 444.4805120000965 661.9535359998117 L 444.74218700808706 661.8671871998813 L 445.1112960000755 661.7425919998204 L 446.3114240001305 660.5721599999233 L 448.5859379200847 658.6757816318423 L 449.43750041601015 658.3710935040144 L 450.3224320000154 657.597439999925 L 453.2592640001094 656.1925119999214 L 454.679552000016 655.7470719999983 L 455.5960320000886 655.0681599998497 L 456.14297497604275 654.7221452798694 L 456.6718750720611 654.3906252798624 L 456.72651366406353 654.3238440958085 L 457.20678400003817 653.7799679998425 L 457.74336000013864 653.2413439998636 L 457.9609374720603 653.0078126078006 L 458.2187499520951 652.7265628160094 L 458.4687503360328 652.7031255038455 L 460.5859379200265 652.7500001279404 L 462.6380800000625 652.1180159998476 L 464.627712000045 651.8609919998562 L 465.3864960000501 651.6264959999244 L 465.76537600002484 651.4391039998736 L 467.093749760068 650.2226565119345 L 470.408192000119 648.1848319998244 L 471.48437504004687 646.828125183878 L 472.11718758411007 646.3593748478452 L 472.9374996480183 645.9843747838167 L 474.8625920000486 645.8910719999694 L 476.09446400002344 645.4231039999868 L 477.0426880000159 644.8609279998345 L 477.5792640001164 644.7206399998977 L 478.46400000009453 644.6735359999584 L 478.9374996480765 644.4648437759024 L 479.94880000007106 643.7611519999919 L 480.8046878721216 643.386719231843 L 482.890625024098 642.0507811839925 L 483.4242560000275 641.7715199999511 L 483.8361600001226 641.4550517759053 L 484.281249792024 641.1171870719409 L 485.8516254720744 640.273111039889 L 487.21203200001037 639.5443199999281 L 487.717888000072 639.2831999998307 L 488.22272000007797 639.2606719999458 L 488.98437529604416 638.5820313598961 L 489.74218752002344 638.1132810238632 L 491.16406272008317 637.5039057919057 L 492.2675200000522 636.8255999998073 L 492.83593728014966 636.5703127040179 L 494.1328128000605 635.5859374078573 L 495.33593702409416 634.9765621758997 L 496.18636800005333 634.3679989759694 L 499.06250035203993 633.3398435838171 L 500.73702400003094 632.4500479999697 L 501.14764800010016 632.1459199999226 L 502.66406297608046 631.3046876159497 L 504.02343731204746 630.6953123838175 L 505.3194240000448 629.9228159998311 L 505.7617920000921 629.7589759999537 L 506.04646400007186 629.4077439999674 L 506.55468748812564 629.2187504639733 L 507.4062499841675 628.6132807678077 L 507.59475200012093 628.3315199998906 L 508.1328128000605 627.9570309118135 L 508.64062464016024 627.7695313918521 L 509.144064000051 627.4181119998102 L 510.53465600009076 626.9972479998833 L 510.6137630720623 626.9037578239222 L 510.69531238410855 626.8124999678694 L 511.07031244802056 626.6484377598972 L 512.2365440001013 625.7203199999058 L 512.6471680000541 625.4745599999442 L 513.9353600000613 624.9820159999654 L 514.9767680001096 624.3717119998764 L 515.2956364800339 624.0675839999458 L 515.576832000108 624.0675839999458 L 515.7980160000152 623.8095359998988 L 516.8437504000613 622.9882808318944 L 517.1828561921138 622.5952255998272 L 517.533696000115 622.192640000023 L 518.955008000019 620.7866879999056 L 519.5233280000393 620.364799999923 L 520.5022720000707 619.9429119999404 L 523.4391040000482 618.8410879999283 L 528.1136640001205 615.8878719998174 L 529.0926080000936 615.3717759998981 L 530.8928000000305 614.2945279998821 L 531.9669760000543 614.0364799998351 L 532.631683072017 613.263036415854 L 532.8824320000713 613.19270399987 L 532.9141760000493 613.0759679998155 L 534.4624640000984 611.8103039998678 L 534.9687500800355 611.5078123519779 L 535.8530560000218 611.2481279999483 L 535.9823493120493 611.104142335942 L 536.1718753281166 610.8984371198458 L 537.8125004800386 610.0078120959224 L 540.179687424039 609.1875000318978 L 541.3816320000333 608.8806399999303 L 542.992187392083 608.3437496318365 L 545.7418240000261 607.7317119998625 L 546.9429760000203 607.755263999803 L 548.1748480000533 607.4736639999319 L 549.9125760000315 606.840831999958 L 551.0502400000696 606.7466239998466 L 551.3666560000274 606.676991999906 L 552.0000000000582 606.2070312959258 L 552.1246330880676 605.9733432319481 L 552.8197120000259 605.4584319998394 L 553.6093747200794 605.1562495999387 L 555.5691520000692 604.7088639998692 L 559.5822080001235 602.9752319999388 L 562.6484377600136 601.2187504639151 L 563.6259840000421 600.4684799998649 L 564.4800000000978 599.3205759998527 L 565.2377600000473 598.5710079998826 L 566.1542400001199 597.9627519999049 L 566.9765120000229 597.5644159998628 L 567.8593751041335 596.9804687358555 L 568.9062502401648 595.8554685438285 L 569.91539200017 594.9880319999065 L 571.5015680000652 593.7909759999602 L 571.7187502080342 593.6289064959274 L 572.5071360000875 593.2083199998015 L 572.853248000145 592.9441279999446 L 570.9803520001587 591.4787839998608 L 585.9614720000536 579.458047999884 L 588.1958400000585 580.7851519999676 L 589.0734080000548 579.4140159998788 L 589.5227064320352 578.8419174398296 L 589.8671872000559 578.4062504958129 L 590.2753873920301 577.237550079939 L 590.4015360000194 577.1898879999062 L 590.3883653120138 576.748219391855 L 590.3750000640866 576.1601566719473 L 590.6250004480244 573.3476567039033 L 591.0390620161779 571.8750003200257 L 591.091192832042 571.7257185279159 L 591.4787840000936 570.7028479999863 L 591.6047360000666 570.1171199998935 L 593.3455360000371 566.8382719999645 L 594.0736000000616 564.5199359998805 L 594.0880670720944 564.2212700159289 L 594.109375488013 563.8632816639729 L 594.2343751681037 563.3007810558775 L 595.6874240000616 560.0010239999974 L 596.1015623680432 559.273437183816 L 596.4154880000278 559.0405119998031 L 597.523437568103 558.7851560958661 L 597.9609374721185 558.7851560958661 L 598.3447040001047 558.9002239998663 L 598.6918400001014 559.4388479998452 L 599.6400640000356 560.3993599998066 L 600.6796871680417 561.2187504639733 L 601.2499998721178 561.5000002559391 L 601.822208000056 561.6179199998733 L 602.5078128640307 561.6132812798605 L 604.0033280000207 561.5953919998137 L 605.554688000062 561.2929689598386 L 606.7578122240957 560.9882808320108 L 606.8515624960419 560.8945315838791 L 608.8124999681022 559.8398433278198 L 611.093749760068 558.2226565118763 L 611.8515630080947 557.5937495039543 L 613.4620160001796 556.422144000011 L 613.898437632015 556.0351559678093 L 614.3544535040855 555.6270120958798 L 615.6171878400492 554.5039063039585 L 616.53125017602 553.8242191358586 L 617.3542400000151 553.3552640000125 L 619.7903360000346 552.2319359998219 L 619.9326146560488 552.1076520959614 L 620.1406248960993 551.9296870398102 L 620.390625280037 551.9062497278792 L 620.486656000081 551.7168639999582 L 620.9397053440916 551.3303900159663 L 621.3124997121049 551.0156247039558 L 621.8623027200229 550.4402493438101 L 622.3226880001021 549.9617279998492 L 623.146746880142 549.469754367834 L 624.156250112108 549.2148439038428 L 625.9921879040194 549.0976563198492 L 627.2578129921458 548.8164065278834 L 630.1685760000837 547.7642239999259 L 630.8984371200786 547.3437501438311 L 631.562500096159 546.828125183878 L 632.8903680000803 546.3132159999222 L 634.8528742400231 544.8390328318346 L 637.1635200001183 543.411199999915 L 640.2421872640261 541.1875000318396 L 641.7656248320127 540.1328127998859 L 647.2343746561091 535.1640627199668 L 647.4240000000573 535.1639039998408 L 647.8671872000559 534.9531248639687 L 649.2578129920876 534.648437759839 L 651.6953128960449 533.3593753599562 L 651.8321971200639 533.2583413759712 L 653.1796879360918 532.281249792024 L 654.15884800005 531.3904639999382 L 654.8858880000189 530.4063999998616 L 655.4869760000729 529.0946559999138 L 655.6394516480505 528.3554795518867 L 655.6491520000272 528.2904616959277 L 655.6718745601829 528.1796874238644 L 655.6669757440686 528.1709916158579 L 655.6675317761838 528.1672632318223 L 655.5176960000535 527.9006719999015 L 655.5166720000561 527.3384959999239 L 655.7378560000216 526.9872639998212 L 655.9169597441796 525.7891430399613 L 656.0234373121639 525.0898442238686 L 656.1846722560585 524.7799695358844 L 656.5273600001237 524.1292799998191 L 656.9062400000985 523.0991359998588 L 658.2031247360865 520.9218754558824 L 658.7421870080288 520.1953126398148 L 660.320258048072 518.5781770239118 L 661.3984378880705 518.0624998398707 L 662.0000000001746 517.992187903903 L 662.6626652160776 518.0389642239315 L 663.0530150401755 518.3655147519312 L 663.1349780480377 518.4370227198233 L 663.9616000000387 519.7240319998236 L 664.2109378560563 520.0976558079128 L 664.5626880000345 520.333311999857 L 665.1637760000303 520.4500479998533 L 666.2400000000489 520.4500479998533 L 667.820583936118 520.0804874239257 L 667.9453992960625 520.0536401919089 L 670.639217664022 519.090345983801 L 670.7957760000718 519.1137279999093 L 670.921875456057 519.1601561599527 L 671.1093749760184 519.6054691838217 L 672.281249792024 520.4023439359153 L 672.9427783680148 520.9860444158548 L 672.9453127680463 521.0668605439714 L 672.9453127680463 521.339626495901 L 672.0624998400453 521.8750003200257 L 671.8095360000152 522.1345279999077 L 671.695846400049 522.5888266239199 L 671.5546880001202 523.1406254079193 L 670.6583848960581 523.8199275518418 L 670.140789760102 524.203289600031 L 670.0703129600734 524.265624575899 L 670.0703129600734 524.4999997438281 L 670.890625024098 525.0156247038976 L 671.5859374081483 524.9218754558242 L 671.8117713921238 524.9919610878569 L 671.9687495680992 525.390624767926 L 672.1249996800325 525.4843750399887 L 675.7672960000345 524.8788479999639 L 679.6257280000718 524.2398719998309 L 679.6574720000499 523.8886399999028 L 679.3437501441222 523.1171870719409 L 679.118848000071 522.2266879999079 L 679.2765603840235 522.1096755198669 L 679.7187502080342 522.1562501118169 L 679.9421992960852 522.1562501118169 L 680.2265620480175 523.281250303844 L 680.3203123200801 523.3281249278807 L 680.3828121600673 523.6562503678724 L 680.8281251840526 523.9609374719439 L 681.7771520001115 523.8650879999623 L 682.0703129600734 523.7539061758434 L 682.4417280000634 523.6080639999709 L 682.6328125440632 523.4921871359111 L 684.5624995841063 523.1875000318396 L 684.6875002880697 523.0937497599516 L 685.164062720025 522.6953123838175 L 687.2499998720596 521.187500031956 L 687.8132531200536 520.7772293119342 L 689.212416000024 519.766015999834 L 693.1671040001092 517.3299199998146 L 695.033856000111 515.2696320000105 L 695.033856000111 515.0586880000192 L 695.2890624000574 514.7539066878962 L 696.1138104320853 513.9351265279693 L 696.1734225921682 513.8406553599052 L 696.4296878080931 513.4648432639078 L 696.6057871361263 513.0950348799815 L 696.9016320000519 512.48230399983 L 696.867840000079 511.9416319998563 L 697.150464000064 510.920703999931 L 697.6874997760169 510.2421872638515 L 698.890625024098 509.6562503679306 L 700.2812497920822 509.3281249279389 L 700.7895408641198 508.76542668795446 L 701.2956160000758 508.555263999966 L 702.2141440000269 508.41394687996944 L 704.080896000145 508.3443199999747 L 704.5560320001678 508.15692799992394 L 705.0946560000884 507.78214399982244 L 705.5397509120521 507.64639436785365 L 705.580050432065 507.6418559998856 L 706.2343680000631 507.6418559998856 L 706.6142720000353 507.7585919998819 L 707.1796879360918 508.10937548801303 L 707.5156254721223 508.093750271888 L 707.6034058241057 508.0874803200131 L 708.0390625280561 508.0624998398125 L 708.7022080000606 507.7114879998262 L 710.1265920000733 507.2670719999587 L 711.6462080000201 507.12678400002187 L 712.2812497920822 506.5429688318982 L 713.0703124480788 506.26171903993236 L 713.8906245121034 506.097655807971 L 715.2265625600121 506.0039065598394 L 716.1093754881294 505.7460940798046 L 716.2675200000522 505.58156799984863 L 716.8046878721798 505.39453132794006 L 717.9140628480236 505.3242183678085 L 718.9296875520376 505.3710940159508 L 718.9609379840549 505.2304691199097 L 719.3374720001011 504.9722879998153 L 720.2890629121684 503.8242191358586 L 721.0465280000935 503.07583999988856 L 722.6015621120459 501.97656268795254 L 723.0078126080334 501.8593751040171 L 724.2109378560563 501.9999999998836 L 724.8749998080893 502.21093785588164 L 726.1406248960411 502.1406248958083 L 727.2509440000285 501.929983999813 L 728.3906560001196 501.0636799998465 L 730.8595200001146 500.5721599999233 L 733.835937792086 500.5039063039003 L 735.0703124480206 500.99609395186417 L 736.3046871040133 500.90234367985977 L 737.2216320001171 500.714495999855 L 737.7865195521154 500.4640440318617 L 737.8748559360392 500.4339681278216 L 738.7421870080288 500.36328140780097 L 738.9306880001677 500.1062399999355 L 739.2187504640897 499.9179683838738 L 739.564544000139 499.4969599999022 L 739.9761920000892 499.26348799985135 L 740.1172551680356 499.2163338238606 L 740.7031255040201 499.02734335995046 L 740.7091865600669 499.01846527995076 L 740.712018944032 499.01751807995606 L 741.1484375041327 498.3750000640284 L 741.656250368047 498.0468746238621 L 741.9082731520757 497.744119807845 L 742.3828121601255 497.17968793580076 L 743.3984378880123 496.2656245758408 L 743.8080000000191 495.3774079999421 L 744.5703127041343 494.4648437759024 L 745.423872000014 493.12972799985437 L 745.495185408101 492.97176371188834 L 745.5217305601109 492.9206108158105 L 745.5622410241049 492.874746879912 L 745.9388815360726 492.4942397440318 L 746.4999997441773 492.31250022386666 L 746.8184801280731 492.0522782719345 L 747.7995520000113 491.84255999996094 L 748.3064320000121 491.4913279999746 L 748.7812495360267 490.8593745919061 L 750.2694400001201 489.9225599998608 L 750.53125017602 489.88671897590393 L 751.0927360000205 489.8058239998645 L 751.2514560001437 489.5252479999326 L 751.6671109121526 489.36061849584803 L 752.1406248960411 489.17578137590317 L 752.2236416001106 488.94748467195313 L 752.2376048640581 488.922118143877 L 753.0250240000314 488.28518399992026 L 754.5139200000558 487.62982399988687 L 755.4641920001013 487.34924799995497 L 756.8885760001722 487.18540799984476 L 757.7109370881808 487.25781299185473 L 758.156250112108 487.5156254718895 L 758.6328125440632 487.3515622399864 L 760.5309440000565 485.8757119998918 L 760.8166400000337 485.5480319999042 L 763.2237363200402 484.8958924798644 L 763.6412518401048 484.6657935359399 L 763.9531253760797 484.49609420791967 L 764.7754240001668 483.81747199984966 L 765.9219824640895 482.38538035185775 L 766.5149081600248 481.450463231944 L 767.6640624640859 479.6523438079166 L 768.2426880000276 479.2156159998267 L 769.7094983681454 478.8285040638875 L 772.0546877441229 478.61718732787995 L 773.4140620800899 478.03125043195905 L 773.7890621441766 478.03125043195905 L 774.2343751681037 478.1953126398148 L 774.6381209600368 478.62079897592776 L 774.7446190080373 478.73675673583057 L 774.8395919361501 478.8664688638528 L 775.2816640000674 479.4808319999138 L 776.1059840000817 480.0194559999509 L 776.4531251201406 480.1601566718309 L 777.562500096159 480.01953075185884 L 778.6406246400438 479.6914063359727 L 780.0312504320755 479.10546841600444 L 780.6934917120379 478.73373900790466 L 784.1126400000649 475.4728959999047 L 784.99999948818 474.0898437118158 L 785.4765629440662 473.66796902392525 L 786.2024407041026 473.2699064320186 L 787.2778240001062 473.0593279999448 L 788.7339520000969 473.1760639999411 L 789.0468751360313 473.2695316479658 L 789.2725760000176 473.456639999873 L 789.2725760000176 474.01881599985063 L 789.8750003200839 474.74609356781 L 790.2873600000166 475.3766399999731 L 790.951936000085 475.84460799995577 L 791.3011200000183 475.915263999952 L 792.2821120001609 475.9142399998964 L 793.898437632015 475.6562503679306 L 795.445629952068 475.0504939518869 L 796.5245440000435 474.36800000001676 L 797.5703121920815 473.85156300792005 L 798.3605760000646 473.59385599999223 L 799.9140167681035 472.32816332782386 L 800.6717440001084 472.0711679998785 L 801.2093440000317 471.57964799995534 L 802.181832704111 471.32248883193824 L 802.9885040640947 471.1127193599823 L 803.1036200960516 471.1010877438239 L 805.6422400000156 470.8997119998676 L 807.6718745600665 470.52343705587555 L 809.0931200000341 470.07948799984297 L 809.853952000034 469.9852799999062 L 810.3915520000737 469.3299199998728 L 810.6817484800704 469.11723827180685 L 810.7403243521112 469.0716784638935 L 811.1831040000543 468.93158399983076 L 813.0519040001091 469.0483199998853 L 813.8752000000677 469.001215999946 L 815.0476800000761 468.76671999983955 L 815.720284160052 468.5275924479938 L 817.2953600000474 467.61881599982735 L 817.8348052480142 467.03248076798627 L 818.7842560000136 466.3306239998201 L 819.828124672058 465.8164060158306 L 821.7917440001038 465.3475839999737 L 824.2656245761318 465.08984422386857 L 825.0546872320119 464.92578099190723 L 826.1328128001187 465.01953126391163 L 827.5558400000446 465.6732160000247 L 828.3791360000614 465.8370559999021 L 829.1072000000277 465.6732160000247 L 830.2796800001524 465.134591999813 L 831.9921879040776 464.8320317439502 L 832.7812495360267 464.45703167998 L 834.0390625280561 463.61718783993274 L 834.3984373760759 463.378906111815 L 835.8533120000502 462.2786559998058 L 837.1200000000536 460.9198079998023 L 837.4923048961209 460.59672575996956 L 837.8515630080365 460.2890629118192 L 838.828967936046 459.6794101759442 L 840.890625024098 459.0000005119364 L 841.3962240000837 459.0469119998161 L 842.1913364480133 459.2863662079908 L 842.5359360000584 459.74937599990517 L 843.4218752000597 461.29687449580524 L 843.834368000098 461.50553599983687 L 844.4687503360328 461.6015626238077 L 844.7250503681134 461.584311295941 L 845.1286763520329 461.5599390718271 L 846.0546877440647 461.5078123519779 L 846.812499968044 461.2734371838742 L 847.1211028480902 461.23396505595883 L 847.5703121920815 461.1796879359172 L 847.9198494720622 461.24959436786594 L 847.8454743041075 461.5383244798286 L 847.5390627841116 461.7617182719405 L 847.6640624640859 461.97265612793854 L 848.5546874881256 462.4687503359746 L 849.533952000027 463.2166399999405 L 849.7265623040148 463.12109363195486 L 849.5974400000996 462.46707199991215 L 849.408000000054 462.09228799986886 L 849.1875000320142 461.85937510384247 L 849.0312499200809 461.53124966390897 L 849.0625003520399 461.34375014394755 L 849.1875000320142 461.24999987188494 L 851.5312496640254 460.85156249598367 L 852.3857920000446 460.5235199999297 L 853.968749568041 459.6132812798023 L 855.7740093441098 458.3473520639236 L 857.5805440000258 457.3870079999906 L 858.7847680000123 457.1299839998246 L 859.9879680000595 457.1535359999398 L 862.8695040001767 457.9737599999644 L 864.1996800000197 458.11404799990123 L 864.4526080000214 458.3024639998912 L 865.7793945600279 458.4135976958787 L 865.852855296107 458.422675455804 L 866.331143168034 458.3827619839576 L 867.3996800000314 458.3024639998912 L 869.2343746560509 458.02343731198926 L 870.8208640000666 457.5313919999171 L 871.7109370881226 457.0390620158287 L 873.4218752000597 455.84765644784784 L 874.0244019200909 455.1007231999538 L 874.3700480000698 454.6754559999099 L 876.9999994881218 452.75781222392106 L 877.666304000013 451.93728000001283 L 878.0781250561704 451.3281249279971 L 878.3046871040133 450.29687500797445 L 878.4609372161212 450.0664063998847 L 878.9086812160676 449.7895761919208 L 879.1879680000711 449.6189439998707 L 879.4794803200639 449.620457471814 L 879.8075453441124 448.83053670387017 L 880.0468746240949 448.26171903993236 L 880.3918325760751 448.14484684780473 L 881.4694400000153 448.42598399997223 L 881.6977920000791 448.39423999987775 L 881.6953128960449 448.35044249595376 L 881.6953128960449 448.2851563518634 L 881.8288640000974 448.111615999951 L 881.0574417920434 447.9342335999245 L 880.7734374401043 447.7460940798046 L 880.7734374401043 447.4886666240054 L 882.109375488013 445.99218790396117 L 882.3281254400499 445.25390643195715 L 882.4545280000311 444.82047999993665 L 883.5645440000226 442.73663999995915 L 883.5338240001001 442.08127999992575 L 883.249999872176 441.40234342380427 L 883.376128000149 440.67532799986657 L 883.4990254080622 440.62277836789144 L 883.5348480000976 440.60569599992596 L 884.2187468800112 439.4843729918939 L 884.2343751680455 439.4570311679272 L 884.2352424960118 439.434307583957 L 884.246536192135 439.3874534398783 L 884.3078144001192 437.80991692788666 L 884.488572928065 437.46821427199757 L 884.6796871680417 437.11718707188265 L 884.9453127680463 436.8203120639664 L 885.2812503040768 436.43749990389915 L 885.5664640000323 435.82975999981863 L 885.5545896960539 435.69519001600565 L 885.4653327360284 434.81306931196013 L 885.4140620801481 434.33203097595833 L 885.4453125121072 433.55859353602864 L 886.1718753281166 432.1757808639086 L 886.5575383040123 431.190293503867 L 886.8087152640219 430.7208499198314 L 887.3779200001154 429.6714240000001 L 887.456348160049 429.4557562878472 L 887.4921932800207 429.37219788786024 L 887.5712256000261 429.1328337918967 L 887.8233600000385 428.43033599987393 L 887.9542794240406 427.8070333439391 L 888.1131458560121 427.11753011192195 L 888.185266176064 426.7230494719697 L 888.2031247360865 426.6406246399274 L 888.2193694720627 426.54925004794495 L 888.2370560001 426.46425599983195 L 888.7500001280569 425.6445317118196 L 888.8996526081464 425.4005329918582 L 889.0708930560504 425.1256248319405 L 889.1182766080601 425.06142617587466 L 889.2192071680329 424.8875448319013 L 889.5078123520943 424.42578124796273 L 889.5127654400421 424.39730278385105 L 889.5347589120502 424.3015198719804 L 889.5523420160171 424.247690239863 L 889.5625000960426 424.1795348478481 L 889.6020480001462 424.0056319999276 L 889.5581624320475 423.2815278079361 L 889.546874880034 423.0585937919677 L 889.539584000071 422.9754879998509 L 889.6665600000415 422.6478079998051 L 889.7033932800987 422.2763120639138 L 889.7656248321291 421.6874997759587 L 890.1249996800325 421.2304691198515 L 890.3046871040133 421.0078126078006 L 890.3091240960639 420.89690419181716 L 890.3671879680478 420.07421849580714 L 890.8749998080893 419.3710940158926 L 891.0960640000994 418.8784639998921 L 891.3515622400446 418.71484415989835 L 891.8266910720267 418.59800883196294 L 893.3140480001457 418.71564799989574 L 893.9796480000368 418.95014399982756 L 894.7087360000587 418.88051199988695 L 896.2421872640261 418.20312473597005 L 896.5150720001548 418.06028799986234 L 896.7772160000168 417.8309119998012 L 897.3515622400446 417.48828159982804 L 897.4950789121212 417.33707571186824 L 897.7930240000132 417.02809599996544 L 898.0551680000499 416.74956799985375 L 898.4999997440609 416.20703129598405 L 899.0711930880207 415.5925084158662 L 899.1562496000552 415.5039057920221 L 899.2981043200707 415.2623697919189 L 899.4478080000845 415.0128639998147 L 899.7578127360903 414.3632814079174 L 900.0446248960798 413.7388748799567 L 900.480000000156 412.86655999999493 L 900.8404480000609 411.65414399985457 L 900.9580810240586 411.19430451182416 L 901.0234378241003 410.9492183039547 L 901.0390620161197 410.67187507182825 L 901.0312499200227 410.57031270395964 L 901.0234378241003 410.4257812478463 L 901.0069575681118 410.30877081595827 L 900.987904000096 410.1468159999349 L 900.9715200000792 409.83551999984775 L 900.9950883840211 409.68688537582057 L 901.0263019520789 409.4074941438739 L 901.0390620161197 409.3124997118721 L 901.0802442240529 409.11688499187585 L 901.1353600000148 408.8688639999018 L 901.1025920000393 408.4428799999296 L 901.1025920000393 408.22988799994346 L 901.1189760001143 408.0824319999665 L 901.1681280000485 408.0005119998823 L 901.2664320000331 407.90220799995586 L 901.3671874561696 407.8203125759028 L 901.4302720000269 407.6728319998947 L 901.4630400001188 407.4270719999331 L 901.4630400001188 407.16492799989646 L 901.546874880034 406.9179688959266 L 901.6953128960449 406.7890626558801 L 901.8898503680248 406.65677619184135 L 902.0546877441229 406.60937523195753 L 902.2364723200444 406.5332469759742 L 902.3045959680458 406.519418879936 L 902.4952320000157 406.49318399996264 L 902.8437504001195 406.4101560318377 L 903.2031252480228 406.2656245758408 L 903.4609367040684 406.2148382718442 L 904.2656245760736 406.1835939838202 L 904.3957493760972 406.1761904639425 L 904.6436689920374 406.1735014398582 L 904.7278069761232 406.15591833594954 L 905.2343746561091 406.1015623678686 L 905.5625000960426 405.98437478387496 L 905.6901120000402 405.8705919999047 L 905.8359377920278 405.75781273585744 L 906.0546877441229 405.6249999359716 L 906.2968750080327 405.44531251181616 L 906.5093120000674 405.21523199992953 L 906.6731520000612 404.93670399993425 L 906.8697600000887 404.52710399992066 L 907.1810560001759 404.11750399984885 L 907.3612800000119 403.8062079999363 L 907.5578880000976 403.46214399981545 L 907.5871815680293 403.29614848003257 L 907.6093747200794 403.1835934718838 L 907.7578127361485 402.8242186238058 L 907.9062497280538 402.5937500158907 L 908.0859371520346 402.2343751678127 L 908.1616537601221 401.9551703039324 L 908.2132480000146 401.77459199988516 L 908.2296320000896 401.52883199992357 L 908.3443200000329 401.10284799995134 L 908.7734374400461 400.02343731181463 L 909.0160640000249 399.3661439999705 L 909.374999552092 398.07421849586535 L 909.9651788800838 395.9343718398013 L 910.0930641921004 395.8545305599109 L 911.7944883200107 394.95655014383374 L 913.656250368047 393.97656268795254 L 914.0775618560147 393.5244226559298 L 914.3048253440647 393.3004666878842 L 915.1887360000983 392.33740799996303 L 915.2473395200213 392.307939327904 L 915.3799536640872 392.2258647038834 L 917.6484372480772 390.90234367980156 L 918.2354155520443 389.8729185279226 L 918.468750336091 389.4687498238054 L 923.8389186560526 386.9300049919402 L 924.1015623680432 386.80859340785537 L 925.7359360000119 384.4526079998468 L 926.2500003840541 383.4296872958075 L 928.2968750080909 379.2304691198515 L 934.0312504320755 378.8203120639664 L 943.3515622400446 368.58203135983786 L 948.9843752961024 368.6835937278811 L 958.710937600059 363.7695313919103 L 958.992187392083 358.03125043190084 L 959.0149918720126 357.4953523199074 L 959.2343746561091 353.0078126078006 L 959.734375424101 342.6718750720029 L 959.5772610561689 341.62395033583743 L 959.3232209920534 339.9091824638308 L 960.2447360000224 339.6014079999295 L 966.2890629121684 333.8671871999977 L 968.7161364480853 328.9443000318133 L 973.968749568041 318.30078156787204 L 974.4793600001722 315.43500799982576 L 977.554688000062 316.0507811839343 L 983.3881600001478 313.4894079998485 L 989.2265625600121 310.8281251838198 L 997.2109373440617 310.4179691518075 L 999.6223825920606 308.8657756160246 L 1004.7500001280569 305.6874997759587 L 1006.3962357760174 305.7542399998638 L 1009.3984378880123 306.0156252158922 L 1015.5316439041635 303.43990988790756 L 1017.7499996161787 302.56249958387343 L 1018.8582307840115 302.56249958387343 L 1021.6874997760169 302.63671910384437 L 1022.5115125760785 302.6949375999393 L 1023.1875000320724 302.8124999679276 L 1024.0 302.71029874945816" fill="none"/><path stroke="#000000" stroke-width="2" d="M 243.50781235203613 748.6328125439468 L 243.71093708806438 766.0429690879537 L 243.71875020803418 767.9882813439472 L 243.60937472002115 775.9726561279385 L 243.61718784004916 780.2187499519205 L 243.61718784004916 782.6328125439468 L 243.60937472002115 786.2148433919647 L 243.60937472002115 792.3593748479616 L 243.71875020803418 800.1406248959247 L 243.8203125760192 818.8789063679287 L 243.8203125760192 824.6132807679242 L 243.92187494406244 835.9804692479665 L 243.8203125760192 839.2578129919712 L 243.8203125760192 851.9570309119299 L 243.92187494406244 856.9726566399331 L 243.92187494406244 864.9609379839385 L 243.8203125760192 869.8750003199675 L 243.60937472002115 872.4335933439434 L 243.71875020803418 878.171875327942 L 243.60937472002115 881.2421877759625 L 243.60937472002115 891.4804684799747 L 243.8203125760192 894.9648435199633 L 244.02343731204746 902.1328127999441 L 244.02343731204746 935.4101565439487 L 243.92187494406244 962.1367183359689 L 243.92187494406244 1003.917968383932 L 244.51352709287312 1024.0" fill="none"/><path stroke="#000000" stroke-width="2" d="M 0.0 847.3009827973146 L 0.1034240000299178 847.2698879999225 L 0.19660800002748147 847.2074239999638 L 0.57241600000998 847.1685119999456 L 0.8222720000194386 847.1214079999481 L 0.9301258240593597 847.1133439999539 L 1.0403840000508353 847.1295999999274 L 1.149952000065241 847.0978559999494 L 1.259520000021439 847.0978559999494 L 1.416192000033334 847.0671359999687 L 1.5093760000308976 847.0200319999713 L 1.838080000015907 846.9186559999362 L 2.1186560000642203 846.785535999923 L 2.2753280000179075 846.7077119999449 L 2.4156160000129603 846.6216959999292 L 2.60300800006371 846.5592319999705 L 2.790400000056252 846.4885759999743 L 2.9470720000681467 846.4107519999379 L 3.024896000046283 846.316543999943 L 3.0955520000425167 846.1752319999505 L 3.603456000040751 845.9653119999566 L 3.759104000055231 845.9028479999397 L 3.8850560000282712 845.879295999941 L 4.072448000020813 845.8321919999435 L 4.400128000066616 845.7308159999666 L 4.697088000015356 845.6755199999316 L 4.931584000063594 845.5669759999728 L 5.1660800000536256 845.4184959999402 L 5.49376000004122 845.3007359999465 L 5.696349184028804 845.2539064319571 L 5.8515630080364645 845.2539064319571 L 6.054687744064722 845.3085941759637 L 6.25971200002823 845.3324799999245 L 6.400000000023283 845.2700159999658 L 6.478848000057042 845.1368959999527 L 6.524928000057116 844.9966079999576 L 6.603776000032667 844.8952319999225 L 6.681600000010803 844.816383999947 L 6.8372480000252835 844.7231999999494 L 7.118848000012804 844.5982719999738 L 7.196672000049148 844.5511679999181 L 7.541760000050999 844.3873279999243 L 7.698432000062894 844.3084799999488 L 7.870464000036009 844.2388479999499 L 8.135680000064895 844.0739839999587 L 8.30771200003801 843.9490559999249 L 8.525824000011198 843.847679999948 L 8.69785600004252 843.8087679999298 L 8.854528000054415 843.7780479999492 L 8.947712000051979 843.7381119999336 L 9.323520000034478 843.5671039999579 L 9.604096000024583 843.4728959999629 L 9.853952000034042 843.2936959999497 L 9.99526400002651 843.175935999956 L 10.245120000035968 843.0039039999247 L 10.41715200006729 842.941439999966 L 10.572800000023562 842.8943359999685 L 10.839040000049863 842.8247039999696 L 10.994688000064343 842.7458559999359 L 11.073536000039894 842.6997759999358 L 11.166720000037458 842.6055679999408 L 11.213824000034947 842.5349119999446 L 11.291648000013083 842.3874559999676 L 11.35411200003 842.2615039999364 L 11.448320000024978 842.1294079999207 L 11.58860800002003 842.0351999999257 L 11.713536000053864 841.9655679999269 L 12.276736000028905 841.5979519999237 L 12.6044160000165 841.3870079999324 L 12.963840000040364 841.1842559999204 L 13.291520000027958 841.0193919999292 L 13.573120000015479 840.9026559999329 L 13.79225600004429 840.8084479999379 L 14.089216000051238 840.6681599999429 L 14.182400000048801 840.5514239999466 L 14.27660800004378 840.472575999971 L 14.38515200006077 840.3558399999747 L 14.44761600001948 840.1838079999434 L 14.479360000055749 839.871487999917 L 14.541824000014458 839.7936639999389 L 14.526464000053238 839.6994559999439 L 14.464000000036322 839.3789439999382 L 14.416896000038832 839.160831999965 L 14.354432000021916 838.9181439999375 L 14.354432000021916 838.8321279999218 L 14.369792000041343 838.7461119999643 L 14.381171712011565 838.7237191679305 L 14.406250496045686 838.6835937279393 L 14.540082176041324 838.668478463951 L 14.6328125440632 838.7148441599566 L 14.67968716804171 838.800781311933 L 14.710937600058969 838.8710932479589 L 14.75781222403748 838.9648435199633 L 14.804687872063369 839.0664058879483 L 15.023437824042048 839.4492190719466 L 15.117187072057277 839.5820308479597 L 15.179687936033588 839.6914063359727 L 15.289062400057446 839.7851566079189 L 15.398437888012268 839.917968383932 L 15.460937728057615 840.0351559679257 L 15.523437568044756 840.1757808639668 L 15.570312192023266 840.2695311359712 L 15.601562624040525 840.4179691519239 L 15.617187840049155 840.5273436159478 L 15.691776000021491 840.5432319999672 L 15.807488000020385 840.5350399999297 L 15.807488000020385 840.4101119999541 L 15.792128000059165 840.2616319999215 L 15.760384000022896 840.1919999999227 L 15.620096000027843 839.941119999974 L 15.588352000049781 839.832575999957 L 15.510528000013437 839.7230079999426 L 15.47980800003279 839.6451839999645 L 15.4327040000353 839.5356159999501 L 15.354880000057165 839.3635839999188 L 15.260672000062186 839.2069119999651 L 15.15110400004778 839.0348799999338 L 15.166464000067208 838.8014079999411 L 15.323136000020895 838.7225599999656 L 15.604736000066623 838.6918399999267 L 15.773437952040695 838.6992189439479 L 16.010240000032354 838.7153919999255 L 16.323584000056144 838.7071999999462 L 16.588800000026822 838.6764799999655 L 16.713728000060655 838.6529279999668 L 16.88576000003377 838.5904639999499 L 17.13561600004323 838.4184319999185 L 17.354752000013832 838.1286399999517 L 17.52576000004774 837.9258879999397 L 17.729536000057124 837.7774079999654 L 17.901568000030238 837.660671999969 L 18.166784000059124 837.5121919999365 L 18.51084800006356 837.4179839999415 L 18.72896000003675 837.3483519999427 L 19.025920000043698 837.2387839999283 L 19.167232000036165 837.1834879999515 L 19.338240000011865 837.0585599999176 L 19.49491200002376 836.9489919999614 L 19.651584000035655 836.8168959999457 L 19.807232000050135 836.5823999999557 L 19.992576000047848 836.4472319999477 L 20.229120000032708 836.4492799999425 L 20.51072000002023 836.3868159999256 L 20.603904000017792 836.3243519999669 L 20.760576000029687 836.2536959999707 L 20.870144000044093 836.1912319999537 L 21.010432000039145 836.1215999999549 L 21.21420800004853 836.059135999938 L 21.43232000002172 836.02739199996 L 21.55724800005555 835.9884799999418 L 21.791744000045583 835.9024639999261 L 21.948416000057478 835.8092799999285 L 22.166528000030667 835.6833279999555 L 22.32320000004256 835.6136959999567 L 22.495232000015676 835.527679999941 L 22.729728000063915 835.495935999963 L 23.026688000012655 835.4498559999629 L 23.401472000055946 835.4570239999448 L 23.69619763205992 835.4336491519352 L 23.948288000014145 835.4498559999629 L 24.275968000059947 835.4099199999473 L 24.557568000047468 835.2849919999717 L 24.682496000023093 835.152895999956 L 24.822784000018146 835.0504959999234 L 24.97945600003004 834.9183999999659 L 25.136128000041936 834.8006399999722 L 25.26105600001756 834.7146239999565 L 25.448448000010103 834.5978879999602 L 25.6665600000415 834.5118719999446 L 25.91641600005096 834.5118719999446 L 26.135552000021562 834.4575999999652 L 26.593750016065314 834.3867187199648 L 26.86976000003051 834.2773759999545 L 27.073536000039894 834.1370879999595 L 27.19846400001552 834.0275199999451 L 27.370496000046842 833.8483199999318 L 27.58860800002003 833.7305599999381 L 27.83846400002949 833.6138239999418 L 28.01049600006081 833.5431679999456 L 28.197888000053354 833.4571519999299 L 28.417024000023957 833.3168639999349 L 28.55731200001901 833.215487999958 L 28.79180800006725 833.0741759999655 L 29.08876800001599 832.8796159999329 L 29.353984000044875 832.7464959999197 L 29.57312000001548 832.6215679999441 L 29.885440000041854 832.4884479999309 L 30.119936000031885 832.4024319999735 L 30.354432000021916 832.285695999919 L 30.573568000050727 832.0747519999277 L 30.84697600005893 831.9416319999727 L 31.839232000056654 831.480831999972 L 32.79155200003879 831.183871999965 L 34.05721600004472 830.785535999923 L 37.74464000004809 828.7621119999676 L 38.734374912048224 827.8437498879503 L 38.77580800006399 827.7698559999699 L 39.79161600006046 827.8005759999505 L 44.65152000001399 825.8478079999331 L 46.29196800006321 825.2692479999387 L 52.21683200006373 821.2828159999335 L 52.35156275203917 821.1953121279366 L 52.84375040006125 820.8632811519201 L 52.996768768061884 820.5531084799441 L 53.136384000012185 820.2772479999694 L 55.65235200006282 818.9337599999271 L 58.12121600005776 817.5902719999431 L 59.308032000029925 817.3086719999555 L 62.31250022404129 816.4804689919692 L 66.99999948806362 814.2929684479604 L 68.45358899206622 813.4208153599175 L 70.32422400003998 812.3013119999669 L 73.13893478404498 811.7464268799522 L 75.41760000004433 811.9029759999248 L 76.812499968044 811.6640624639695 L 77.9018240000587 811.4728959999629 L 81.0588160000625 809.4023679999518 L 83.17153587203939 808.0744314879412 L 84.92187545605702 808.2226565119345 L 85.12499814404873 808.0859330559615 L 86.53125017601997 807.1523440639721 L 86.58178457606118 807.0901473279228 L 86.70116147201043 806.9509539839346 L 86.76562534406548 806.8789063679287 L 86.9359104000614 806.7705425919266 L 86.97650380805135 806.7963463679189 L 87.06250035203993 806.8554690559395 L 88.39062528003706 806.5976565759629 L 91.57812531205127 805.3867192319594 L 94.9531248640269 803.1679682559334 L 96.51302400004352 803.1918079999741 L 98.93478400004096 803.090431999939 L 101.32812492805533 802.097655807971 L 105.23437465605093 799.6210933759576 L 107.23437465605093 799.0507816959289 L 108.59375001606531 798.3164057599497 L 110.93749964801827 796.9179688959266 L 116.5468753920286 793.6679690239253 L 118.78124953602673 792.3007815679302 L 119.3124997120467 791.714843647962 L 122.46875033603283 790.1054689279408 L 123.96874956804095 789.292968959955 L 127.60937472002115 787.5117189119337 L 128.23437516804552 787.1289067519247 L 129.83036211202852 786.3360163839534 L 130.49218764802208 786.3593748479616 L 130.9673287680489 786.5696839679731 L 132.4453120000544 787.4335938559379 L 133.17324800003553 787.6454399999348 L 135.18950400006725 787.4570239999448 L 135.66406246402767 787.3398435839335 L 137.7734379520407 786.5195315199671 L 140.39062528003706 785.9101562879514 L 141.05468723201193 785.8398433279363 L 143.3845760000404 786.0244479999528 L 144.74218700802885 785.9062497279374 L 145.87392000004184 785.6721919999691 L 147.10272000002442 785.2974079999258 L 149.68749977601692 784.664062975964 L 151.4531246080296 784.0546877439483 L 154.25781248003477 783.5859374079737 L 154.9921873920248 783.5000002559391 L 155.26912000001175 783.4654719999526 L 156.07031296001514 783.5039057919639 L 159.07031244802056 782.8632811519201 L 161.3864960000501 781.9223039999488 L 164.64281600003596 780.3391999999294 L 168.03125043201726 778.3320309759583 L 168.99999948806362 777.5937495039543 L 170.0352000000421 776.6640639999532 L 170.4140625920263 776.3867187199648 L 170.9301760000526 775.9646719999728 L 171.37499955203384 775.390624767926 L 171.52614400006132 775.3830399999279 L 171.68749977601692 775.2656250879518 L 172.21939200005727 775.1485439999378 L 173.546874880034 775.078124543943 L 174.99340800003847 774.8208639999502 L 176.56934400001774 774.750207999954 L 177.48437504004687 774.8203120639664 L 178.61718732805457 774.656249855936 L 181.04524800006766 773.7896959999343 L 182.93749964801827 773.4843750399305 L 184.73437491204822 773.0390620159451 L 185.80582400003914 772.6407679999247 L 186.68953600001987 772.1492479999433 L 189.62124800001038 770.2282239999622 L 190.75781222403748 769.3398435839335 L 191.00781260803342 769.3164062719443 L 191.10186803201213 768.8943257599603 L 191.48437504004687 768.6367191039608 L 193.19705600006273 767.9416319999727 L 195.57580800005235 767.0947839999571 L 197.53062400006456 766.0165119999438 L 199.26528000005055 765.1737599999178 L 200.65177600004245 764.3074559999513 L 201.88281241606455 763.464843263966 L 202.22873600001913 763.0192639999441 L 202.92187545605702 762.3867187199648 L 203.33558579202509 762.1525422079721 L 203.83641600003466 762.0823039999232 L 204.0576000000583 761.8949119999306 L 205.22393600002397 762.0126719999244 L 206.39027200004784 761.9184639999294 L 207.62009600002784 761.6849919999368 L 208.44032000005245 761.3337599999504 L 209.17376307205996 760.81711308792 L 209.6718745600665 760.4687503359746 L 212.57031270401785 758.9453127679299 L 213.23437465605093 758.664062975964 L 213.96093747206032 758.1249996799743 L 216.76646400004392 756.4861439999659 L 218.56249958404806 755.6210933759576 L 219.2578560000402 755.0822399999597 L 219.70312499202555 754.9179688959266 L 220.29824000003282 754.3326719999313 L 220.58291200001258 754.3091199999326 L 221.27616000006674 754.2620159999351 L 221.6406251520384 753.9101562879514 L 221.8042511360254 753.7493503999431 L 222.09638400003314 753.4663679999649 L 222.75781222403748 753.187500031956 L 227.3287557120202 751.9688724479638 L 228.05468774406472 752.1093754879548 L 230.48437452805229 753.0703124479624 L 231.5560960000148 753.0711039999733 L 232.4705280000344 752.8140799999237 L 233.9532800000161 752.0645119999535 L 235.02343782404205 751.6679690239253 L 236.1328128000605 751.4335938559379 L 237.1406254080357 750.8710932479589 L 239.7255680000526 749.9356159999734 L 240.32812544004992 749.2343746559345 L 242.15625011204975 748.0624998399289 L 242.88051200006157 747.7821419519605 L 243.48441395204281 747.7007820799481 L 243.50781235203613 748.6328125439468" fill="none"/><path stroke="#408040" stroke-width="3" d="M 1024.0 381.6047690076666 L 1013.4630400000024 390.7481600000028 L 951.3267199999973 431.02208000000246 L 875.110400000005 489.2569599999988 L 858.6649599999946 497.70496000000276 L 836.1574399999954 499.0566400000025 L 813.5065599999944 502.1183999999994 L 775.9872000000032 518.3795200000022 L 739.2051199999987 539.5865600000034 L 697.5897600000026 551.8028800000029 L 652.6566400000011 556.257279999998 L 633.8457599999965 572.2111999999979 L 613.9289600000047 591.8924800000023 L 588.9843200000032 601.0265599999984 L 542.4640000000072 621.3529599999965 L 450.1196800000034 668.9177599999966 L 418.82623999999487 681.6255999999994 L 393.6255999999994 699.0438399999985 L 329.13408000000345 725.3708800000022 L 284.5593599999993 743.8745599999966 L 246.9785600000032 762.5523200000025 L 224.40959999999905 786.616320000001 L 193.83295999999973 814.6124800000034 L 159.9795199999935 844.0422400000025 L 122.82880000000296 860.8153600000005 L 26.972160000004806 909.2300800000012 L 0.0 926.021658646343" fill="none"/></svg>