<svg xmlns="http://www.w3.org/2000/svg" width="1024" height="1024"><rect stroke="none" x="0" y="0" width="1024" height="1024" fill="white"/><path stroke="#000000" stroke-width="2" d="M 519.2041472000419 430.8846120959497 L 522.6562498560525 431.0898442239268 L 530.1249996800325 430.273437695927 L 536.2734376960434 429.6562503679306 L 542.9296875520376 430.273437695927 L 550.4062504960457 430.9882808319526 L 555.0078126080334 431.5000002559391 L 562.6875002880115 432.42187468794873 L 569.554688000062 433.1406254079193 L 575.2890624000574 433.44531251193257 L 579.898437632015 433.5507814399316 L 586.0390625280561 433.65234380797483 L 594.2343751680455 433.9570309119299 L 603.9609374720603 434.2656245759572 L 607.0312499200227 434.3671879679314 L 611.3281249280553 434.57421823992627 L 617.1718748160638 434.7773439999437 L 621.164062720025 434.98437529592775 L 625.7734379520407 435.187500031956 L 640.2109378560563 435.4960936959251 L 662.0156252160668 435.4960936959251 L 667.2421877760207 435.4960936959251 L 681.3749995520338 435.39062476792606 L 692.3281254400499 435.28906239994103 L 699.1875000320142 435.187500031956 L 708.921875456057 435.187500031956 L 711.2734371840488 435.28906239994103 L 736.6718750720611 436.0078120959224 L 746.2968750080327 436.1093754879548 L 755.1015628800378 436.31250022392487 L 757.7656248320127 436.4179691519239 L 764.7265628160676 436.8242186239222 L 768.2109378560563 437.03124991996447 L 776.3984373760177 437.2343746559345 L 792.2734376960434 437.5429683199618 L 805.6874997760169 437.746094079921 L 810.0885022720322 437.8872883199365 L 812.1406248960411 437.9531253759633 L 816.3359375360305 437.9531253759633 L 826.7812495360267 438.15625011193333 L 832.109375488013 438.25781247991836 L 839.0703124480206 438.25781247991836 L 843.0625003520399 438.3632814079756 L 849.6171878400492 439.28515583992703 L 855.0468751360313 439.6914063359727 L 857.9062497280538 439.79687526397174 L 864.6718750720611 440.1015623679268 L 867.7421875200234 440.3085936639691 L 870.914062336029 440.4101560319541 L 873.9843747840496 440.61328076792415 L 879.8203125760192 440.8203120639664 L 884.3281254400499 440.9218754559406 L 888.2187499520369 441.02343782392563 L 895.2890624000574 441.12500019196887 L 910.0312504320173 441.7421875199652 L 913.3124997120467 441.84374988795025 L 919.7578127360321 442.15234355191933 L 922.7265628160676 442.3554682879476 L 938.8046878720634 443.07421900791815 L 943.1093749760184 443.07421900791815 L 948.1249996800325 443.1757813759614 L 953.656250368047 443.2773437439464 L 960.6171873280546 443.3789061119314 L 963.7890621440602 443.3789061119314 L 967.1718748160638 443.48046847997466 L 975.4687498240382 443.89062451192876 L 978.3359375360305 444.097655807971 L 985.8046873600106 444.5078128639725 L 993.3828126720618 444.9140623359708 L 1004.5468753920286 445.6328120319522 L 1011.9218749440624 445.93750015995465 L 1016.1171875840519 446.453125119966 L 1020.109375488013 446.8593745919643 L 1024.0 446.8630802427797" fill="none"/><path stroke="#000000" stroke-width="2" d="M 0.0 851.0592062844516 L 0.515624960011337 850.3164057599497 L 3.078124544059392 846.6289059839328 L 7.273437184048817 840.2812497919658 L 10.75781222403748 835.0585937919677 L 14.132812800060492 829.9414067199687 L 24.476562432013452 814.6835937279393 L 29.804687360010576 806.796874751919 L 32.054684672039 803.4179583999212 L 34.82031206402462 799.4257817599573 L 40.859374592022505 790.4140625919681 L 42.80468787206337 787.85156300792 L 44.64843776001362 785.19140659197 L 48.23437516804552 780.277344255941 L 50.796874752035365 777.0000005119364 L 57.757812736032065 767.8867189759621 L 60.32031232002191 764.7109375999426 L 62.57031270401785 761.7421875199652 L 68.30468710401328 752.7304683519178 L 81.51562547206413 733.5820308479597 L 84.17187532805838 730.9179688959266 L 95.43750041601015 714.1249996799743 L 99.02343782404205 712.1796874239226 L 102.30468710401328 710.3359375359723 L 106.80468787206337 709.2109373439453 L 110.39062528003706 708.2890629119356 L 112.43749990401557 707.9804692479665 L 115.71875020803418 707.2656250879518 L 117.96874956804095 705.3203128319583 L 120.21874995203689 703.6796876799199 L 122.88281292805914 702.8593745919643 L 125.64843724801904 701.0195312639698 L 129.02343782404205 696.9218754559406 L 133.2265625600121 692.9296875519212 L 135.99218790401937 690.2656245759572 L 137.52343756804476 687.3984378879541 L 140.49999974406091 685.5546879999456 L 143.46874982403824 683.4062499839347 L 145.20312524802284 682.1757808639668 L 148.28124979202403 679.0039060479612 L 150.93749964801827 679.0000005119364 L 154.01562521606684 677.2617185279378 L 158.4140625920263 675.1093749759602 L 161.89843763201497 672.9609379839385 L 165.1718748160638 671.3203128319583 L 167.21875046403147 670.2968750079744 L 170.0937502720626 668.8632811519201 L 173.16406272002496 668.1484369919635 L 177.46093772805762 667.0195312639698 L 182.78906265605474 666.5078128639725 L 186.37500006402843 665.0742190079181 L 189.85156300803646 664.1523435519193 L 193.43750041601015 663.746094079921 L 197.12500019202707 661.183593471942 L 201.11718707205728 659.85156300792 L 203.36718745605322 658.1132810239214 L 205.00781260803342 656.9843752959277 L 207.87500032002572 656.2695311359712 L 210.64062464004382 653.4023434239207 L 211.56250009604264 656.3710935039562 L 213.71093708806438 659.6484372479608 L 214.2265620480175 663.3359370239195 L 215.8593751040171 667.1250001919689 L 219.34375014406396 668.0468746239203 L 222.92968755203765 667.9414067199687 L 225.79687526402995 667.3281249279389 L 229.5859374080319 669.7851566079189 L 232.75781222403748 672.2421872639679 L 235.92968704004306 673.6757811199641 L 238.9062502400484 675.9296870399266 L 240.9531248640269 676.7500001279404 L 244.6328125440632 675.6210933759576 L 248.01562521606684 676.1328127999441 L 249.96093747206032 677.464843263966 L 252.00781209603883 678.796874751919 L 255.89843763201497 678.2851563519216 L 258.56249958404806 678.3867187199648 L 261.9453122560517 677.8750003199675 L 266.34374963201117 676.2382817279431 L 269.4140620800317 673.5742187519209 L 272.39062528003706 673.6757811199641 L 275.25781299202936 674.3945308159455 L 278.53125017601997 674.3945308159455 L 280.3750000640284 675.2148439039593 L 282.83593728003325 676.5429688319564 L 286.21093785605626 677.8750003199675 L 288.6718750720611 679.820312575961 L 290.61718732805457 679.7187502079178 L 293.38281267206185 679.921874943946 L 298.70312550402014 680.7421870079706 L 299.92968704004306 678.8984371199622 L 301.16406272002496 676.8515624959255 L 301.57031219202327 674.2929684479604 L 299.0078126080334 669.5820308479597 L 293.8906245120452 668.9648435199633 L 289.1796879360336 667.6367185919662 L 286.3125002240413 665.3828126719454 L 284.1640622080304 662.7187496959232 L 283.2421877760207 660.3671879679314 L 283.445312512049 657.292968959955 L 283.9609374720603 654.7343749119318 L 282.42187468806515 652.277344255941 L 279.65625036804704 649.0000005119364 L 279.96874956804095 645.824219135975 L 277.8125004800386 643.9804692479665 L 276.78906265605474 641.6249999359716 L 274.9453127680463 639.8867189759621 L 272.79687475203536 635.9921879039612 L 272.9999994880636 632.7187496959232 L 276.1718753280584 630.2578124799184 L 276.1718753280584 626.1640622079722 L 277.4062499840511 622.9882808319526 L 274.84375040006125 620.0195307519753 L 271.57031219202327 620.1210941439494 L 267.46874982403824 619.0976563199656 L 267.47656294406625 616.2304686079733 L 267.6796876800363 613.2617185279378 L 265.1171870720573 611.7265623039566 L 265.52343756804476 608.449218559952 L 265.6328120320104 605.0703124479624 L 265.01562470401404 601.9960934399278 L 267.9843747840496 600.8710932479589 L 271.25781299202936 601.4843750399305 L 273.51562547206413 599.437500415952 L 277.1015628800378 597.5937495039543 L 278.83593728003325 596.0585932799731 L 279.8593751040171 594.4179691519239 L 282.01562521606684 593.4960936959251 L 283.0390620160615 591.5507814399316 L 285.39062476804247 591.3476567039615 L 286.92968755203765 589.6054691839381 L 287.9531253760215 587.2499998719431 L 288.7734374400461 583.6679690239253 L 287.0312499200227 579.2656250879518 L 291.74218752002344 575.7812500479631 L 292.25000038405415 571.7890621439437 L 289.48437504004687 568.7187496959232 L 292.96875008003553 565.746094079921 L 291.84374988806667 561.2421877759625 L 290.8203120640246 557.3515622399282 L 292.14843699202174 555.0976563199656 L 296.0390625280561 553.8671871999395 L 298.29687500803266 551.5156254719477 L 300.6484377600136 550.2851563519216 L 304.03125043201726 549.2617185279378 L 306.9999994880636 548.7500001279404 L 309.24999987205956 548.1328127999441 L 310.4843745280523 546.5976565759629 L 311.8125004800386 544.347656191967 L 312.01562521606684 541.3749995519756 L 311.9140628480236 537.6914063359727 L 311.0937497600098 533.5937495039543 L 310.47656243201345 530.0117186559364 L 309.8671872000559 527.0390620159451 L 309.4531246080296 524.277344255941 L 310.6875002880115 519.6679690239253 L 309.14843750401633 515.0585937919677 L 307.1015628800378 512.4999997439445 L 309.554688000062 508.71093759994255 L 309.3515622400446 503.79687526397174 L 308.1249996800325 500.51953151996713 L 307.1015628800378 497.8554685439449 L 305.4609377280576 493.5546879999456 L 303.51562547206413 489.66406246396946 L 300.9609379840549 488.43359334394336 L 299.10937497601844 487.0039060479612 L 299.52343756804476 484.75000012794044 L 299.42187520005973 481.88281241594814 L 298.80468787206337 478.5039063039585 L 299.1171870720573 475.6367185919662 L 302.1874995200196 474.61328076792415 L 307.20312524802284 473.5859374079737 L 307.20312524802284 471.53906278393697 L 308.84375040006125 468.26171903993236 L 311.5078123520361 464.57812479994027 L 313.9609374720603 460.277344255941 L 316.8281251840526 458.43359334394336 L 316.92968755203765 453.4140620799735 L 317.546874880034 449.21484390395926 L 316.00781209603883 445.6328120319522 L 316.52343705605017 442.3554682879476 L 319.1875000320142 441.9453122559353 L 321.9531253760215 442.25390591996256 L 325.42968729604036 441.7421875199652 L 327.9921879040194 441.43359385593794 L 330.65624985605245 438.8749998079729 L 330.24218726402614 435.4960936959251 L 329.01562470401404 431.9101562879514 L 330.34374963201117 429.24999987194315 L 329.01562470401404 426.89453158393735 L 328.0937502720626 424.02734387194505 L 329.93750016001286 421.97656268795254 L 338.6406246400438 421.8750003199675 L 342.02343731204746 421.97656268795254 L 358.0937502720626 422.1835939839366 L 382.87499980803113 422.5937500159489 L 391.37499955203384 422.6953123839339 L 401.8203125760192 422.79687475191895 L 408.6796871680417 422.8984371199622 L 413.0859376640292 423.20703078393126 L 427.0078126080334 424.33203097595833 L 446.97656217601616 425.97265612793854 L 451.1796879360336 426.277344255941 L 461.82812467205804 427.19921868795063 L 468.5859379200265 427.71093708794797 L 472.78124953602673 428.12109414394945 L 476.4687503360328 428.4296878079185 L 489.9843747840496 429.5546879999456 L 493.6718745600665 429.6562503679306 L 504.42968780803494 429.9648440319579 L 512.2109378560563 430.273437695927 L 515.2812503040186 430.47656243195524 L 517.5312496640254 430.7851560959243 L 519.2041472000419 430.8846120959497" fill="none"/><path stroke="#000000" stroke-width="2" d="M 0.0 415.3203128319583 L 16.078125056053977 415.3203128319583 L 29.906249728053808 415.4257817599573 L 41.06250035203993 415.4257817599573 L 54.99218739202479 415.52734412794234 L 67.48437504004687 415.52734412794234 L 69.53124966402538 411.53515622392297 L 71.6796876800363 407.43750041595194 L 75.88281241606455 399.4492190719466 L 77.82812467205804 395.66015590395546 L 79.25781299202936 393.0000005119364 L 81.8203125760192 393.0000005119364 L 88.89062502403976 393.20312524796464 L 92.06249984004535 393.20312524796464 L 105.88281241606455 393.5117189119337 L 125.54687488003401 393.921874943946 L 128.21093785605626 393.921874943946 L 132.92187545605702 394.02343731193105 L 136.29687500803266 394.1249996799743 L 139.26562508800998 394.1249996799743 L 150.6328125440632 394.3281254399335 L 154.7265628160676 394.3281254399335 L 159.53906278405339 394.53515673597576 L 164.66406297602225 394.6367191039608 L 177.15624960005516 395.24999987194315 L 200.19531264004763 395.55859353597043 L 203.06250035203993 395.66015590395546 L 210.33593753603054 395.8671871999395 L 215.65625036804704 395.96874956792453 L 234.80468787206337 396.378906623926 L 251.60156262404053 396.58203135995427 L 256.21093785605626 396.6835937279393 L 269.6249999360298 396.89062502392335 L 279.0468751360313 396.9921873919666 L 291.32812492805533 396.9921873919666 L 302.9062502400484 397.0937497599516 L 314.3750000640284 397.0937497599516 L 325.84374988806667 397.19531212793663 L 341.20312524802284 397.30078105593566 L 350.21093785605626 397.30078105593566 L 355.2265625600121 397.4023434239207 L 360.8593745920225 397.6054691839381 L 357.9921879040194 400.16796876792796 L 329.93750016001286 421.97656268795254 L 328.0937502720626 424.02734387194505 L 329.01562470401404 426.89453158393735 L 330.34374963201117 429.24999987194315 L 329.01562470401404 431.9101562879514 L 330.24218726402614 435.4960936959251 L 330.65624985605245 438.8749998079729 L 327.9921879040194 441.43359385593794 L 325.42968729604036 441.7421875199652 L 321.9531253760215 442.25390591996256 L 319.1875000320142 441.9453122559353 L 316.52343705605017 442.3554682879476 L 316.00781209603883 445.6328120319522 L 317.546874880034 449.21484390395926 L 316.92968755203765 453.4140620799735 L 316.8281251840526 458.43359334394336 L 313.9609374720603 460.277344255941 L 311.5078123520361 464.57812479994027 L 308.84375040006125 468.26171903993236 L 307.20312524802284 471.53906278393697 L 307.20312524802284 473.5859374079737 L 302.1874995200196 474.61328076792415 L 299.1171870720573 475.6367185919662 L 298.80468787206337 478.5039063039585 L 299.42187520005973 481.88281241594814 L 299.52343756804476 484.75000012794044 L 299.10937497601844 487.0039060479612 L 300.9609379840549 488.43359334394336 L 303.51562547206413 489.66406246396946 L 305.4609377280576 493.5546879999456 L 307.1015628800378 497.8554685439449 L 308.1249996800325 500.51953151996713 L 309.3515622400446 503.79687526397174 L 309.554688000062 508.71093759994255 L 307.1015628800378 512.4999997439445 L 309.14843750401633 515.0585937919677 L 310.6875002880115 519.6679690239253 L 309.4531246080296 524.277344255941 L 309.8671872000559 527.0390620159451 L 310.47656243201345 530.0117186559364 L 311.0937497600098 533.5937495039543 L 311.9140628480236 537.6914063359727 L 312.01562521606684 541.3749995519756 L 311.8125004800386 544.347656191967 L 310.4843745280523 546.5976565759629 L 309.24999987205956 548.1328127999441 L 306.9999994880636 548.7500001279404 L 304.03125043201726 549.2617185279378 L 300.6484377600136 550.2851563519216 L 298.29687500803266 551.5156254719477 L 296.0390625280561 553.8671871999395 L 292.14843699202174 555.0976563199656 L 290.8203120640246 557.3515622399282 L 291.84374988806667 561.2421877759625 L 292.96875008003553 565.746094079921 L 289.48437504004687 568.7187496959232 L 292.25000038405415 571.7890621439437 L 291.74218752002344 575.7812500479631 L 287.0312499200227 579.2656250879518 L 288.7734374400461 583.6679690239253 L 287.9531253760215 587.2499998719431 L 286.92968755203765 589.6054691839381 L 285.39062476804247 591.3476567039615 L 283.0390620160615 591.5507814399316 L 282.01562521606684 593.4960936959251 L 279.8593751040171 594.4179691519239 L 278.83593728003325 596.0585932799731 L 277.1015628800378 597.5937495039543 L 273.51562547206413 599.437500415952 L 271.25781299202936 601.4843750399305 L 267.9843747840496 600.8710932479589 L 265.01562470401404 601.9960934399278 L 265.6328120320104 605.0703124479624 L 265.52343756804476 608.449218559952 L 265.1171870720573 611.7265623039566 L 267.6796876800363 613.2617185279378 L 267.47656294406625 616.2304686079733 L 267.46874982403824 619.0976563199656 L 271.57031219202327 620.1210941439494 L 274.84375040006125 620.0195307519753 L 277.4062499840511 622.9882808319526 L 276.1718753280584 626.1640622079722 L 276.1718753280584 630.2578124799184 L 272.9999994880636 632.7187496959232 L 272.79687475203536 635.9921879039612 L 274.9453127680463 639.8867189759621 L 276.78906265605474 641.6249999359716 L 277.8125004800386 643.9804692479665 L 279.96874956804095 645.824219135975 L 279.65625036804704 649.0000005119364 L 282.42187468806515 652.277344255941 L 283.9609374720603 654.7343749119318 L 283.445312512049 657.292968959955 L 283.2421877760207 660.3671879679314 L 284.1640622080304 662.7187496959232 L 286.3125002240413 665.3828126719454 L 289.1796879360336 667.6367185919662 L 293.8906245120452 668.9648435199633 L 299.0078126080334 669.5820308479597 L 301.57031219202327 674.2929684479604 L 301.16406272002496 676.8515624959255 L 299.92968704004306 678.8984371199622 L 298.70312550402014 680.7421870079706 L 293.38281267206185 679.921874943946 L 290.61718732805457 679.7187502079178 L 288.6718750720611 679.820312575961 L 286.21093785605626 677.8750003199675 L 282.83593728003325 676.5429688319564 L 280.3750000640284 675.2148439039593 L 278.53125017601997 674.3945308159455 L 275.25781299202936 674.3945308159455 L 272.39062528003706 673.6757811199641 L 269.4140620800317 673.5742187519209 L 266.34374963201117 676.2382817279431 L 261.9453122560517 677.8750003199675 L 258.56249958404806 678.3867187199648 L 255.89843763201497 678.2851563519216 L 252.00781209603883 678.796874751919 L 249.96093747206032 677.464843263966 L 248.01562521606684 676.1328127999441 L 244.6328125440632 675.6210933759576 L 240.9531248640269 676.7500001279404 L 238.9062502400484 675.9296870399266 L 235.92968704004306 673.6757811199641 L 232.75781222403748 672.2421872639679 L 229.5859374080319 669.7851566079189 L 225.79687526402995 667.3281249279389 L 222.92968755203765 667.9414067199687 L 219.34375014406396 668.0468746239203 L 215.8593751040171 667.1250001919689 L 214.2265620480175 663.3359370239195 L 213.71093708806438 659.6484372479608 L 211.56250009604264 656.3710935039562 L 210.64062464004382 653.4023434239207 L 207.87500032002572 656.2695311359712 L 205.00781260803342 656.9843752959277 L 203.36718745605322 658.1132810239214 L 201.11718707205728 659.85156300792 L 197.12500019202707 661.183593471942 L 193.43750041601015 663.746094079921 L 189.85156300803646 664.1523435519193 L 186.37500006402843 665.0742190079181 L 182.78906265605474 666.5078128639725 L 177.46093772805762 667.0195312639698 L 173.16406272002496 668.1484369919635 L 170.0937502720626 668.8632811519201 L 167.21875046403147 670.2968750079744 L 165.1718748160638 671.3203128319583 L 161.89843763201497 672.9609379839385 L 158.4140625920263 675.1093749759602 L 154.01562521606684 677.2617185279378 L 150.93749964801827 679.0000005119364 L 148.28124979202403 679.0039060479612 L 145.20312524802284 682.1757808639668 L 143.46874982403824 683.4062499839347 L 140.49999974406091 685.5546879999456 L 137.52343756804476 687.3984378879541 L 135.99218790401937 690.2656245759572 L 133.2265625600121 692.9296875519212 L 129.02343782404205 696.9218754559406 L 125.64843724801904 701.0195312639698 L 122.88281292805914 702.8593745919643 L 120.21874995203689 703.6796876799199 L 117.96874956804095 705.3203128319583 L 115.71875020803418 707.2656250879518 L 112.43749990401557 707.9804692479665 L 110.39062528003706 708.2890629119356 L 106.80468787206337 709.2109373439453 L 102.30468710401328 710.3359375359723 L 99.02343782404205 712.1796874239226 L 95.43750041601015 714.1249996799743 L 84.17187532805838 730.9179688959266 L 81.51562547206413 733.5820308479597 L 68.30468710401328 752.7304683519178 L 62.57031270401785 761.7421875199652 L 60.32031232002191 764.7109375999426 L 57.757812736032065 767.8867189759621 L 50.796874752035365 777.0000005119364 L 48.23437516804552 780.277344255941 L 44.64843776001362 785.19140659197 L 42.80468787206337 787.85156300792 L 40.859374592022505 790.4140625919681 L 34.82031206402462 799.4257817599573 L 32.054684672039 803.4179583999212 L 29.804687360010576 806.796874751919 L 24.476562432013452 814.6835937279393 L 14.132812800060492 829.9414067199687 L 10.75781222403748 835.0585937919677 L 7.273437184048817 840.2812497919658 L 3.078124544059392 846.6289059839328 L 0.515624960011337 850.3164057599497 L 0.0 851.0592062844516" fill="none"/><path stroke="#000000" stroke-width="2" d="M 1024.0 446.8630802427797 L 1020.109375488013 446.8593745919643 L 1016.1171875840519 446.453125119966 L 1011.9218749440624 445.93750015995465 L 1004.5468753920286 445.6328120319522 L 993.3828126720618 444.9140623359708 L 985.8046873600106 444.5078128639725 L 978.3359375360305 444.097655807971 L 975.4687498240382 443.89062451192876 L 967.1718748160638 443.48046847997466 L 963.7890621440602 443.3789061119314 L 960.6171873280546 443.3789061119314 L 953.656250368047 443.2773437439464 L 948.1249996800325 443.1757813759614 L 943.1093749760184 443.07421900791815 L 938.8046878720634 443.07421900791815 L 922.7265628160676 442.3554682879476 L 919.7578127360321 442.15234355191933 L 913.3124997120467 441.84374988795025 L 910.0312504320173 441.7421875199652 L 895.2890624000574 441.12500019196887 L 888.2187499520369 441.02343782392563 L 884.3281254400499 440.9218754559406 L 879.8203125760192 440.8203120639664 L 873.9843747840496 440.61328076792415 L 870.914062336029 440.4101560319541 L 867.7421875200234 440.3085936639691 L 864.6718750720611 440.1015623679268 L 857.9062497280538 439.79687526397174 L 855.0468751360313 439.6914063359727 L 849.6171878400492 439.28515583992703 L 843.0625003520399 438.3632814079756 L 839.0703124480206 438.25781247991836 L 832.109375488013 438.25781247991836 L 826.7812495360267 438.15625011193333 L 816.3359375360305 437.9531253759633 L 812.1406248960411 437.9531253759633 L 805.6874997760169 437.746094079921 L 792.2734376960434 437.5429683199618 L 776.3984373760177 437.2343746559345 L 768.2109378560563 437.03124991996447 L 764.7265628160676 436.8242186239222 L 757.7656248320127 436.4179691519239 L 755.1015628800378 436.31250022392487 L 746.2968750080327 436.1093754879548 L 736.6718750720611 436.0078120959224 L 711.2734371840488 435.28906239994103 L 708.921875456057 435.187500031956 L 699.1875000320142 435.187500031956 L 692.3281254400499 435.28906239994103 L 681.3749995520338 435.39062476792606 L 667.2421877760207 435.4960936959251 L 640.2109378560563 435.4960936959251 L 625.7734379520407 435.187500031956 L 621.164062720025 434.98437529592775 L 617.1718748160638 434.7773439999437 L 611.3281249280553 434.57421823992627 L 607.0312499200227 434.3671879679314 L 603.9609374720603 434.2656245759572 L 594.2343751680455 433.9570309119299 L 586.0390625280561 433.65234380797483 L 579.898437632015 433.5507814399316 L 575.2890624000574 433.44531251193257 L 569.554688000062 433.1406254079193 L 562.6875002880115 432.42187468794873 L 555.0078126080334 431.5000002559391 L 550.4062504960457 430.9882808319526 L 542.9296875520376 430.273437695927 L 536.2734376960434 429.6562503679306 L 530.1249996800325 430.273437695927 L 522.6562498560525 431.0898442239268 L 517.5312496640254 430.7851560959243 L 515.2812503040186 430.47656243195524 L 512.2109378560563 430.273437695927 L 504.42968780803494 429.9648440319579 L 493.6718745600665 429.6562503679306 L 489.9843747840496 429.5546879999456 L 476.4687503360328 428.4296878079185 L 472.78124953602673 428.12109414394945 L 468.5859379200265 427.71093708794797 L 461.82812467205804 427.19921868795063 L 451.1796879360336 426.277344255941 L 446.97656217601616 425.97265612793854 L 427.0078126080334 424.33203097595833 L 413.0859376640292 423.20703078393126 L 408.6796871680417 422.8984371199622 L 401.8203125760192 422.79687475191895 L 391.37499955203384 422.6953123839339 L 382.87499980803113 422.5937500159489 L 358.0937502720626 422.1835939839366 L 342.02343731204746 421.97656268795254 L 338.6406246400438 421.8750003199675 L 329.93750016001286 421.97656268795254 L 357.9921879040194 400.16796876792796 L 360.8593745920225 397.6054691839381 L 355.2265625600121 397.4023434239207 L 350.21093785605626 397.30078105593566 L 341.20312524802284 397.30078105593566 L 325.84374988806667 397.19531212793663 L 314.3750000640284 397.0937497599516 L 302.9062502400484 397.0937497599516 L 291.32812492805533 396.9921873919666 L 279.0468751360313 396.9921873919666 L 269.6249999360298 396.89062502392335 L 256.21093785605626 396.6835937279393 L 251.60156262404053 396.58203135995427 L 234.80468787206337 396.378906623926 L 215.65625036804704 395.96874956792453 L 210.33593753603054 395.8671871999395 L 203.06250035203993 395.66015590395546 L 200.19531264004763 395.55859353597043 L 177.15624960005516 395.24999987194315 L 164.66406297602225 394.6367191039608 L 159.53906278405339 394.53515673597576 L 154.7265628160676 394.3281254399335 L 150.6328125440632 394.3281254399335 L 139.26562508800998 394.1249996799743 L 136.29687500803266 394.1249996799743 L 132.92187545605702 394.02343731193105 L 128.21093785605626 393.921874943946 L 125.54687488003401 393.921874943946 L 105.88281241606455 393.5117189119337 L 92.06249984004535 393.20312524796464 L 88.89062502403976 393.20312524796464 L 81.8203125760192 393.0000005119364 L 79.25781299202936 393.0000005119364 L 77.82812467205804 395.66015590395546 L 75.88281241606455 399.4492190719466 L 71.6796876800363 407.43750041595194 L 69.53124966402538 411.53515622392297 L 67.48437504004687 415.52734412794234 L 54.99218739202479 415.52734412794234 L 41.06250035203993 415.4257817599573 L 29.906249728053808 415.4257817599573 L 16.078125056053977 415.3203128319583 L 0.0 415.3203128319583" fill="none"/></svg>