<svg xmlns="http://www.w3.org/2000/svg" width="1024" height="1024"><rect stroke="none" x="0" y="0" width="1024" height="1024" fill="white"/><path stroke="#000000" stroke-width="2" d="M 1024.0 1023.6796876798617 L 1023.4921871360275 1023.6796876798617 L 1004.9531248640269 1023.5781253118184 L 998.0937502721208 1023.6796876798617 L 984.6796871680999 1023.6796876798617 L 962.6640629760223 1023.6796876798617 L 943.8203125760192 1023.5781253118184 L 934.3716010781645 1024.0" fill="none"/><path stroke="#000000" stroke-width="2" d="M 930.3038407517743 1024.0 L 918.3281254401081 1023.4765629439498 L 900.8203120640828 1023.3710940158926 L 898.359374848078 1023.3749995518592 L 895.4921871360275 1023.6796876798617 L 819.8203125760774 1023.6796876798617 L 811.0078126080334 1023.5781253118184 L 790.1249996800907 1023.5781253118184 L 767.4921871360857 1023.7812500479049 L 556.3437496320694 1023.7812500479049 L 537.5000002560555 1023.6796876798617 L 473.2968744960381 1023.6796876798617 L 427.52343756804476 1023.5781253118184 L 397.10937497607665 1023.5781253118184 L 383.3906247681007 1023.6796876798617 L 288.57031270401785 1023.6796876798617 L 254.67187507206108 1023.5781253118184 L 196.92187545611523 1023.5781253118184 L 154.62500044808257 1023.4765629439498 L 150.42968780803494 1023.5781253118184 L 127.39062476804247 1023.0664058878901 L 92.88281292805914 1023.0664058878901 L 88.2734376960434 1023.4765629439498 L 87.26358178938972 1024.0" fill="none"/><path stroke="#000000" stroke-width="2" d="M 87.26358178937517 1024.0 L 88.2734376960434 1023.4765629439498 L 92.88281292805914 1023.0664058879483 L 127.39062476804247 1023.0664058879483 L 150.42968780803494 1023.5781253119349 L 154.62500044802437 1023.4765629439498 L 196.92187545605702 1023.5781253119349 L 254.67187507206108 1023.5781253119349 L 288.57031270401785 1023.6796876799199 L 383.39062476804247 1023.6796876799199 L 397.10937497601844 1023.5781253119349 L 427.52343756804476 1023.5781253119349 L 473.2968744960381 1023.6796876799199 L 537.5000002560555 1023.6796876799199 L 556.3437496320112 1023.7812500479631 L 767.4921871360275 1023.7812500479631 L 790.1249996800325 1023.5781253119349 L 811.0078126080334 1023.5781253119349 L 819.8203125760192 1023.6796876799199 L 895.4921871360275 1023.6796876799199 L 898.3593748480198 1023.3749995519174 L 900.8203120640246 1023.3710940159508 L 918.3281254400499 1023.4765629439498 L 930.3038407506392 1024.0" fill="none"/><path stroke="#000000" stroke-width="2" d="M 934.3716010796925 1024.0 L 943.8203125760192 1023.5781253119349 L 962.6640629760223 1023.6796876799199 L 984.6796871680417 1023.6796876799199 L 998.0937502720626 1023.6796876799199 L 1004.9531248640269 1023.5781253119349 L 1023.4921871360275 1023.6796876799199 L 1024.0 1023.6796876799199" fill="none"/><path stroke="#408040" stroke-width="3" d="M 0.0 445.0755900351869 L 69.47840000000724 461.0150399999984 L 234.81343999999808 481.3414399999965 L 462.61247999999614 537.8559999999998 L 532.9203200000047 542.9555200000032 L 604.2419200000004 569.9072000000015 L 644.5363199999993 610.2835199999972 L 721.3977600000071 643.0105600000024 L 891.0233600000065 705.781759999998 L 1024.0 764.9162183312365" fill="none"/></svg>