<svg xmlns="http://www.w3.org/2000/svg" width="1024" height="1024"><rect stroke="none" x="0" y="0" width="1024" height="1024" fill="white"/><path stroke="#000000" stroke-width="2" d="M 0.0 11.249999871943146 L 5.820766091346741e-11 11.249999871943146 L 19.46093772817403 11.355468799825758 L 23.351562240044586 11.355468799825758 L 41.78125004807953 11.45703116786899 L 45.98437478404958 11.558593535912223 L 60.625000448024366 11.558593535912223 L 70.35156275203917 11.660155903955456 L 77.31249971216312 11.660155903955456 L 94.00781209603883 11.558593535912223 L 98.20312473608647 11.660155903955456 L 106.80468787217978 11.660155903955456 L 110.28906291216845 11.761718271940481 L 118.17187532811658 11.761718271940481 L 129.03124992002267 11.8671871998813 L 139.06250035203993 11.355468799825758 L 142.4453120000544 12.070312959840521 L 154.42187468812335 12.070312959840521 L 167.42968729609856 12.171875327883754 L 175.61718784004916 12.070312959840521 L 178.28124979202403 12.171875327883754 L 180.6328125440632 12.171875327883754 L 191.18750003213063 12.480468991852831 L 196.3046871040715 12.480468991852831 L 202.5468753920286 12.582031359896064 L 208.39062528009526 12.683593727939297 L 217.5000002561137 12.789062655821908 L 221.80468736001058 12.890625023865141 L 227.32812492811354 12.890625023865141 L 232.55468748806743 12.992187391908374 L 242.1796874240972 13.093749759951606 L 247.81250048003858 13.093749759951606 L 256.0000000001746 13.199218687834218 L 270.75000012805685 13.503905791963916 L 275.56250009615906 13.503905791963916 L 279.65625036810525 13.605469183879904 L 284.4687503360328 13.71093708788976 L 287.64843724807724 13.71093708788976 L 293.07031244802056 13.812500479863957 L 305.05468723201193 14.015625215892214 L 307.50781235215254 14.015625215892214 L 311.8125004800968 14.117187583935447 L 315.8046873600688 14.117187583935447 L 330.7578122240375 14.3242188799195 L 340.07031296001514 14.527343615947757 L 353.0781245440594 14.734374911931809 L 371.20312524808105 14.937499647960067 L 382.87499980803113 15.144530943944119 L 387.0781245441758 15.246093311929144 L 397.7265623040148 15.550781439989805 L 405.20312524802284 15.656250367872417 L 405.7109370881808 23.539062783878762 L 407.9609374720603 36.648437759897206 L 408.5781248000567 40.2304686079151 L 409.5000002561137 45.249999871943146 L 410.320317440026 50.16406118380837 L 410.83593728003325 56.51171839988092 L 411.445312512049 59.89062451192876 L 412.78124953602673 68.2890629118192 L 413.9062497280538 74.02343731198926 L 414.51562496001134 77.50390579190571 L 415.1328122880659 80.78124953596853 L 416.7734374401043 88.56249958393164 L 417.2812503040186 91.12500019185245 L 417.5937495040125 93.48046847997466 L 418.3046871040133 97.0625003518071 L 419.1250001920271 102.08203161589336 L 420.7656253440655 110.68359372788109 L 422.71093760005897 120.51171839982271 L 423.83593779202783 126.5546874878346 L 424.8593745920225 132.18749951996142 L 425.2734371840488 134.644531199825 L 425.9843747840496 138.02343731193105 L 425.37499955203384 143.34765670396155 L 428.24218726414256 149.90234419185435 L 429.46874982403824 156.76171878387686 L 431.0078126080334 164.85156249586726 L 431.92968704004306 169.35546879982576 L 433.97656268801074 180.31250022380846 L 434.69531238410855 183.38671923195943 L 435.7187502080342 188.9140623358544 L 437.4531246080296 197.51562547194771 L 442.98437529610237 225.47265638393583 L 444.21093785611447 231.41015654389048 L 445.4453125121072 237.86328166391468 L 446.46875033609103 242.2656245759572 L 449.23437465610914 256.0898437119904 L 451.78906214411836 268.3789066239842 L 452.5078128640889 271.9609374719439 L 453.32812492811354 275.85156300780363 L 457.11707443202613 293.2611491839052 L 457.7343754241592 296.2304686078569 L 458.34374963201117 299.1992186878924 L 459.5781253121095 304.730468351976 L 460.28906291216845 308.21093785582343 L 461.6249999360298 314.15234355197754 L 462.4453120000544 318.1445314558223 L 463.46874982403824 322.85546905593947 L 464.28124979208224 326.5429688319564 L 468.4843745280523 345.6914063359727 L 468.9921873920248 348.0468746238621 L 469.7109370881226 351.4257817598991 L 471.75781273603207 360.5390622719424 L 474.6250004480826 373.5429683198454 L 477.3906247681007 384.4999997438863 L 477.3906247681007 386.6484377598972 L 478.8281251840526 394.02343731187284 L 480.46093721612124 402.4179691518657 L 484.14843699207995 421.5664066558238 L 485.1718748160638 426.07421849592356 L 487.93750016007107 438.66796851187246 L 491.52343756810296 454.84765593596967 L 492.64843776007183 459.8671871998231 L 493.06250035203993 461.914062847849 L 493.46874982409645 463.8593751039007 L 494.4921876480803 468.3632814078592 L 495.61718784004916 474.71484415989835 L 496.8515624960419 481.16406271990854 L 497.7734379520989 486.69531238399213 L 498.7968747520936 489.9726561278221 L 499.8203125760192 494.06640639994293 L 500.5312501760782 497.9570309119299 L 501.56250009610085 502.7734374398715 L 502.1718753280584 505.12500019196887 L 503.39843788801227 510.8593745919643 L 504.42968780803494 514.4453119998216 L 505.24218777613714 518.031250431959 L 505.65625036804704 520.2812497919076 L 506.5781248001731 524.378906623926 L 507.2968744960963 527.3476567039615 L 509.0312499200809 535.9492188158329 L 509.64843724801904 538.8164065278252 L 510.6718750721193 543.1171870718244 L 511.1875000320142 545.3710940159508 L 511.59374950407073 547.9296870399266 L 512.2109378561145 550.0820316158351 L 513.7421875200234 557.35156223987 L 514.9765621760162 562.5742182398099 L 517.2265625600121 572.9140623358544 L 520.6015621120459 587.8671871998813 L 522.4453120001708 595.5468748798594 L 523.6796876800945 601.6914063359145 L 525.828124672058 611.5195310078561 L 526.9531248640851 616.7421870079706 L 527.8750003200257 621.1445309438859 L 530.7421870080871 634.2539059199044 L 531.9687495681574 639.8867189759039 L 534.4296878080349 651.558593535854 L 538.4218746880651 670.1953126398148 L 542.2109378560563 687.9101562880096 L 544.2578124800348 698.5585940478486 L 544.9765621761326 702.0429690878373 L 546.9218754561152 712.2812497919076 L 548.0468746241531 717.9140628479654 L 549.2734371840488 723.9570309119299 L 549.7890621440602 726.2070312958094 L 550.7109376001172 730.7148441598401 L 551.5312496641418 734.8085934078554 L 553.6796876800945 745.0507816959289 L 554.7031255040201 750.3750000638538 L 556.6484377600136 760.2070312958676 L 557.6718745600665 765.1210936319549 L 558.4921876480221 768.9101557758986 L 559.3124997120467 773.0039060478448 L 561.5625000960426 784.0624998398707 L 565.2499998721178 802.2929684479604 L 566.5859379200265 808.8437503998866 L 567.3984378880705 813.0429685758427 L 567.8125004800386 815.1953121278202 L 568.7343749121064 819.4960936959251 L 569.3437501441222 823.9999999998254 L 569.9609374720603 826.1523435518611 L 571.2968744960381 832.9101557758404 L 574.8749998080311 851.0351564799203 L 576.4140625920263 858.6132807679242 L 577.1328122881241 861.8867189758457 L 579.1796879360336 871.718750207976 L 580.921875456057 879.910156287835 L 584.1953126400476 895.8867189758457 L 585.7343754240428 907.7656248319545 L 586.9609379840549 914.726562815893 L 591.5703121920815 938.6875002878369 L 591.9765626880107 941.2499998718267 L 593.7187502080342 949.9531253759633 L 594.640624640102 954.6640629758476 L 595.4609377281158 959.2695316478494 L 596.0703129600734 962.6484377599554 L 598.2265620480175 973.4023434239789 L 601.7031249920838 991.5273441278841 L 603.343750144064 999.8203125759028 L 604.7812495360267 1007.6015626239241 L 607.4375004160684 1021.3242183678085 L 608.3593748480198 1023.8867189759039 L 608.3807424797851 1024.0" fill="none"/><path stroke="#000000" stroke-width="2" d="M 608.3807424797706 1024.0 L 608.3593748480198 1023.8867189759621 L 607.4375004160102 1021.3242183679249 L 604.7812495360267 1007.6015626239241 L 603.343750144064 999.820312575961 L 601.7031249920256 991.5273441279423 L 598.2265620480175 973.4023434239207 L 596.0703129600151 962.6484377599554 L 595.4609377280576 959.2695316479658 L 594.6406246400438 954.664062975964 L 593.7187502080342 949.9531253759633 L 591.9765626880107 941.2499998719431 L 591.5703121920233 938.6875002879533 L 586.9609379840549 914.7265628159512 L 585.7343754240428 907.7656248319545 L 584.1953126400476 895.8867189759621 L 580.921875456057 879.9101562879514 L 579.1796879360336 871.718750207976 L 577.1328122880659 861.8867189759621 L 576.4140625920263 858.6132807679242 L 574.8749998080311 851.0351564799203 L 571.2968744960381 832.9101557759568 L 569.9609374720603 826.1523435519193 L 569.343750144064 823.9999999999418 L 568.7343749120482 819.4960936959251 L 567.8125004800386 815.1953121279366 L 567.3984378880123 813.0429685759591 L 566.5859379200265 808.8437503999448 L 565.2499998720596 802.2929684479604 L 561.5625000960426 784.0624998399289 L 559.3124997120467 773.0039060479612 L 558.4921876480221 768.9101557759568 L 557.6718745600665 765.1210936319549 L 556.6484377600136 760.2070312959258 L 554.7031255040201 750.3750000639702 L 553.6796876800363 745.0507816959289 L 551.5312496640254 734.8085934079718 L 550.710937600059 730.7148441599566 L 549.7890621440602 726.2070312959258 L 549.2734371840488 723.9570309119299 L 548.0468746240367 717.9140628479654 L 546.921875456057 712.2812497919658 L 544.9765621760162 702.0429690879537 L 544.2578124800348 698.558594047965 L 542.2109378560563 687.9101562879514 L 538.4218746880651 670.1953126399312 L 534.4296878080349 651.5585935359704 L 531.968749568041 639.8867189759621 L 530.7421870080288 634.2539059199626 L 527.8750003200257 621.1445309439441 L 526.9531248640269 616.7421870079706 L 525.828124672058 611.5195310079725 L 523.6796876800363 601.6914063359727 L 522.4453120000544 595.5468748799758 L 520.6015621120459 587.8671871999395 L 517.2265625600121 572.9140623359708 L 514.9765621760162 562.5742182399263 L 513.7421875200234 557.3515622399282 L 512.2109378560563 550.0820316159516 L 511.5937495040125 547.9296870399266 L 511.1875000320142 545.3710940159508 L 510.6718750720611 543.1171870719409 L 509.64843724801904 538.8164065279416 L 509.0312499200227 535.9492188159493 L 507.2968744960381 527.3476567039615 L 506.5781248000567 524.378906623926 L 505.65625036804704 520.2812497919658 L 505.2421877760207 518.031250431959 L 504.42968780803494 514.445311999938 L 503.39843788801227 510.8593745919643 L 502.1718753280584 505.12500019196887 L 501.56250009604264 502.7734374399297 L 500.53125017601997 497.9570309119299 L 499.8203125760192 494.06640639994293 L 498.79687475203536 489.97265612793854 L 497.7734379520407 486.6953123839339 L 496.8515624960419 481.16406271996675 L 495.61718784004916 474.71484415995656 L 494.4921876480221 468.3632814079756 L 493.46874982403824 463.8593751039589 L 493.06250035203993 461.9140628479654 L 492.6484377600136 459.8671871999395 L 491.52343756804476 454.84765593596967 L 487.93750016001286 438.66796851193067 L 485.1718748160638 426.07421849592356 L 484.14843699202174 421.5664066559402 L 480.46093721606303 402.4179691519239 L 478.8281251840526 394.02343731193105 L 477.39062476804247 386.6484377599554 L 477.39062476804247 384.4999997439445 L 474.62500044802437 373.5429683199618 L 471.75781273603207 360.5390622719424 L 469.7109370880644 351.4257817599573 L 468.9921873920248 348.0468746239203 L 468.4843745280523 345.6914063359727 L 464.281249792024 326.5429688319564 L 463.46874982403824 322.85546905593947 L 462.4453120000544 318.1445314559387 L 461.6249999360298 314.15234355191933 L 460.28906291205203 308.21093785593985 L 459.57812531205127 304.730468351976 L 458.34374963201117 299.19921868795063 L 457.7343754240428 296.2304686079733 L 457.11707443202613 293.2611491839634 L 453.32812492805533 275.85156300792005 L 452.5078128640307 271.9609374719439 L 451.78906214406015 268.378906623926 L 449.23437465605093 256.0898437119322 L 446.4687503360328 242.2656245759572 L 445.445312512049 237.86328166397288 L 444.21093785605626 231.4101565439487 L 442.98437529604416 225.47265638393583 L 437.4531246080296 197.51562547194771 L 435.7187502080342 188.9140623359708 L 434.69531238405034 183.38671923195943 L 433.97656268801074 180.31250022392487 L 431.92968704004306 169.35546879994217 L 431.0078126080334 164.85156249592546 L 429.46874982403824 156.76171878393507 L 428.24218726402614 149.90234419197077 L 425.37499955203384 143.34765670396155 L 425.9843747840496 138.02343731193105 L 425.2734371840488 134.6445311999414 L 424.8593745920225 132.18749951996142 L 423.83593779202783 126.55468748795101 L 422.71093760005897 120.51171839993913 L 420.7656253440655 110.6835937279393 L 419.1250001920271 102.08203161595156 L 418.3046871040133 97.06250035192352 L 417.5937495040125 93.48046847997466 L 417.2812503040186 91.12500019196887 L 416.7734374400461 88.56249958393164 L 415.1328122880659 80.78124953596853 L 414.51562496001134 77.50390579196392 L 413.9062497280538 74.02343731193105 L 412.78124953602673 68.28906291193562 L 411.445312512049 59.89062451192876 L 410.83593728003325 56.51171839993913 L 410.320317440026 50.16406118392479 L 409.5000002560555 45.249999871943146 L 408.5781248000567 40.23046860797331 L 407.9609374720603 36.648437759955414 L 405.7109370880644 23.53906278393697 L 405.20312524802284 15.656250367930625 L 410.9374996480183 15.757812735973857 L 414.8281251840526 15.859375103958882 L 439.7109370880644 16.16796876792796 L 456.914062336029 16.371093503956217 L 474.11718758405186 16.57812479994027 L 477.70312499202555 16.679687167925294 L 490.60156211204594 16.781249535968527 L 491.01487308804644 16.795388927974273 L 493.57031219202327 16.882812927942723 L 497.4609377280576 16.882812927942723 L 508.62500044802437 16.984375295927748 L 512.0000000000582 17.089844223926775 L 514.562499584048 17.191406591970008 L 527.3593753600144 17.292968959955033 L 538.3203123200219 16.984375295927748 L 546.1015623680432 17.394531327940058 L 553.8828124160646 17.394531327940058 L 583.4765629440662 17.500000255939085 L 587.8828124160646 17.500000255939085 L 591.1562496000552 17.496093695925083 L 598.53125017602 17.394531327940058 L 601.9140628480236 17.496093695925083 L 605.3906247680425 17.496093695925083 L 615.3281249280553 17.394531327940058 L 635.1875000320142 17.394531327940058 L 646.0468746240367 17.191406591970008 L 651.4687498240382 16.984375295927748 L 654.3359375360305 16.781249535968527 L 657.8203125760192 16.882812927942723 L 660.5859379200265 16.781249535968527 L 666.4218746880651 16.781249535968527 L 670.7265628160094 16.679687167925294 L 673.79687526403 16.57812479994027 L 683.3203128320165 16.371093503956217 L 688.5390622720588 16.371093503956217 L 692.53125017602 16.269531135971192 L 696.2187499520369 16.16796876792796 L 699.1875000320142 16.16796876792796 L 705.0312499200227 15.960937471943907 L 708.6093752320157 15.960937471943907 L 711.1718748160638 15.859375103958882 L 715.4687498240382 15.859375103958882 L 718.4453120000544 15.757812735973857 L 722.3359375360305 15.757812735973857 L 728.2734376960434 15.550781439931598 L 731.343750144064 15.449219071946573 L 735.9531253760215 15.449219071946573 L 740.6640629760223 15.347656703961547 L 744.1406248960411 15.347656703961547 L 747.6249999360298 15.246093311929144 L 750.4921876480221 15.140625407919288 L 752.7421870080288 15.550781439931598 L 761.8593751040171 15.144530943944119 L 774.6562498560525 14.937499647960067 L 779.5781253120513 14.835937279975042 L 788.0703129600151 14.835937279975042 L 791.554688000062 14.734374911931809 L 797.4921871360275 14.734374911931809 L 801.0781245440594 14.628905983932782 L 808.8593745920225 14.632812543946784 L 816.8515624960419 14.425781247962732 L 822.7890626560547 14.425781247962732 L 826.6796871680417 14.3242188799195 L 832.6171873280546 14.3242188799195 L 838.0468746240367 14.222656511934474 L 845.5234375680448 14.3242188799195 L 857.195312128053 14.222656511934474 L 861.1875000320142 14.117187583935447 L 865.6953128960449 14.015625215950422 L 872.7578122240375 14.015625215950422 L 876.5468753920286 13.914062847965397 L 880.0312504320173 13.914062847965397 L 888.9374996480183 13.812500479922164 L 909.5234375680448 13.812500479922164 L 915.4609377280576 13.710937087947968 L 920.5781248000567 13.710937087947968 L 925.7031249920256 13.812500479922164 L 938.3984373760177 13.605469183938112 L 969.7343754240428 13.605469183938112 L 977.4140620800317 13.503905791963916 L 985.3984378880123 13.300781055935659 L 997.6874997760169 13.195312127936631 L 1014.6875002880115 12.992187391966581 L 1024.0 12.693613009992987" fill="none"/><path stroke="#000000" stroke-width="2" d="M 1024.0 12.693613009992987 L 1014.6875002880115 12.992187391966581 L 997.6874997760169 13.195312127936631 L 985.3984378880123 13.300781055935659 L 977.4140620800317 13.503905791963916 L 969.7343754240428 13.605469183938112 L 938.3984373760177 13.605469183938112 L 925.7031249920256 13.812500479922164 L 920.5781248000567 13.710937087947968 L 915.4609377280576 13.710937087947968 L 909.5234375680448 13.812500479922164 L 888.9374996480183 13.812500479922164 L 880.0312504320173 13.914062847965397 L 876.5468753920286 13.914062847965397 L 872.7578122240375 14.015625215950422 L 865.6953128960449 14.015625215950422 L 861.1875000320142 14.117187583935447 L 857.195312128053 14.222656511934474 L 845.5234375680448 14.3242188799195 L 838.0468746240367 14.222656511934474 L 832.6171873280546 14.3242188799195 L 826.6796871680417 14.3242188799195 L 822.7890626560547 14.425781247962732 L 816.8515624960419 14.425781247962732 L 808.8593745920225 14.632812543946784 L 801.0781245440594 14.628905983932782 L 797.4921871360275 14.734374911931809 L 791.554688000062 14.734374911931809 L 788.0703129600151 14.835937279975042 L 779.5781253120513 14.835937279975042 L 774.6562498560525 14.937499647960067 L 761.8593751040171 15.144530943944119 L 752.7421870080288 15.550781439931598 L 750.4921876480221 15.140625407919288 L 747.6249999360298 15.246093311929144 L 744.1406248960411 15.347656703961547 L 740.6640629760223 15.347656703961547 L 735.9531253760215 15.449219071946573 L 731.343750144064 15.449219071946573 L 728.2734376960434 15.550781439931598 L 722.3359375360305 15.757812735973857 L 718.4453120000544 15.757812735973857 L 715.4687498240382 15.859375103958882 L 711.1718748160638 15.859375103958882 L 708.6093752320157 15.960937471943907 L 705.0312499200227 15.960937471943907 L 699.1875000320142 16.16796876792796 L 696.2187499520369 16.16796876792796 L 692.53125017602 16.269531135971192 L 688.5390622720588 16.371093503956217 L 683.3203128320165 16.371093503956217 L 673.79687526403 16.57812479994027 L 670.7265628160094 16.679687167925294 L 666.4218746880651 16.781249535968527 L 660.5859379200265 16.781249535968527 L 657.8203125760192 16.882812927942723 L 654.3359375360305 16.781249535968527 L 651.4687498240382 16.984375295927748 L 646.0468746240367 17.191406591970008 L 635.1875000320142 17.394531327940058 L 615.3281249280553 17.394531327940058 L 605.3906247680425 17.496093695925083 L 601.9140628480236 17.496093695925083 L 598.53125017602 17.394531327940058 L 591.1562496000552 17.496093695925083 L 587.8828124160646 17.500000255939085 L 583.4765629440662 17.500000255939085 L 553.8828124160646 17.394531327940058 L 546.1015623680432 17.394531327940058 L 538.3203123200219 16.984375295927748 L 527.3593753600144 17.292968959955033 L 514.562499584048 17.191406591970008 L 512.0000000000582 17.089844223926775 L 508.62500044802437 16.984375295927748 L 497.4609377280576 16.882812927942723 L 493.57031219202327 16.882812927942723 L 491.01487308804644 16.795388927974273 L 490.60156211204594 16.781249535968527 L 477.70312499202555 16.679687167925294 L 474.11718758405186 16.57812479994027 L 456.914062336029 16.371093503956217 L 439.7109370880644 16.16796876792796 L 414.8281251840526 15.859375103958882 L 410.9374996480183 15.757812735973857 L 405.20312524802284 15.656250367930625 L 397.7265623040148 15.550781439931598 L 387.0781245440594 15.246093311929144 L 382.87499980803113 15.144530943944119 L 371.20312524802284 14.937499647960067 L 353.0781245440594 14.734374911931809 L 340.07031296001514 14.527343615947757 L 330.7578122240375 14.3242188799195 L 315.8046873600106 14.117187583935447 L 311.8125004800386 14.117187583935447 L 307.5078123520361 14.015625215950422 L 305.05468723201193 14.015625215950422 L 293.07031244802056 13.812500479922164 L 287.64843724801904 13.710937087947968 L 284.4687503360328 13.710937087947968 L 279.65625036804704 13.605469183938112 L 275.56250009604264 13.503905791963916 L 270.75000012805685 13.503905791963916 L 256.0000000000582 13.199218687950633 L 247.81250048003858 13.093749759951606 L 242.179687424039 13.093749759951606 L 232.55468748806743 12.992187391966581 L 227.32812492805533 12.890625023923349 L 221.80468736001058 12.890625023923349 L 217.5000002560555 12.789062655938324 L 208.39062528003706 12.683593727939297 L 202.5468753920286 12.582031359954271 L 196.30468710401328 12.480468991969246 L 191.1875000320142 12.480468991969246 L 180.6328125440632 12.171875327941962 L 178.28124979202403 12.171875327941962 L 175.61718784004916 12.070312959956937 L 167.42968729604036 12.171875327941962 L 154.42187468806515 12.070312959956937 L 142.4453120000544 12.070312959956937 L 139.06250035203993 11.355468799942173 L 129.03124992002267 11.867187199939508 L 118.17187532805838 11.761718271940481 L 110.28906291205203 11.761718271940481 L 106.80468787206337 11.660155903955456 L 98.20312473602826 11.660155903955456 L 94.00781209603883 11.55859353597043 L 77.3124997120467 11.660155903955456 L 70.35156275203917 11.660155903955456 L 60.625000448024366 11.55859353597043 L 45.98437478404958 11.55859353597043 L 41.78125004802132 11.457031167927198 L 23.351562240044586 11.355468799942173 L 19.460937728057615 11.355468799942173 L 5.820766091346741e-11 11.249999871943146 L 0.0 11.249999871943146" fill="none"/></svg>