<svg xmlns="http://www.w3.org/2000/svg" width="1024" height="1024"><rect stroke="none" x="0" y="0" width="1024" height="1024" fill="white"/><path stroke="#000000" stroke-width="2" d="M 373.4008113275486 0.0 L 372.2265620480175 0.6015621118131094 L 383.0781245440594 0.8066406398429535 L 401.20312524802284 1.0117191679310054 L 427.0078126080916 0.7031255039037205 L 447.898437632015 0.8066406398429535 L 450.56249958404806 0.8066406398429535 L 458.3437496320694 0.7050782719743438 L 462.75000012811506 0.6015621118131094 L 472.3750000640284 0.6015621118131094 L 485.8906245121034 1.0117191679310054 L 492.4453120001126 1.0117191679310054 L 496.33593753614696 1.1132815359160304 L 502.47656243201345 1.2167966718552634 L 511.5937495040125 1.3183590398984961 L 514.6640640001278 1.0117242878186516 L 525.7265623041312 1.0117191679310054 L 539.8593751040753 0.9082030078861862 L 545.8984376320732 0.9101557759568095 L 561.8750003200257 0.9082030078861862 L 567.5078123520361 1.0117191679310054 L 575.79687526403 1.0117191679310054 L 582.8671877120505 1.1132815359160304 L 588.9062502400484 1.0117191679310054 L 600.2734376960434 1.0117191679310054 L 612.8671877120505 0.9101557759568095 L 618.4999997441191 1.0117191679310054 L 625.4609377280576 1.0117191679310054 L 640.109375488013 0.9082030078861862 L 646.0468746240367 0.9101557759568095 L 658.3359375360305 1.0117191679310054 L 663.4531246080878 1.0117191679310054 L 668.468750336091 0.9101557759568095 L 680.9609379840549 0.8066406398429535 L 702.6718750720611 0.8066406398429535 L 724.179687424039 0.9101557759568095 L 728.8828129280591 0.9082030078861862 L 749.4687498240382 0.9101557759568095 L 754.179687424039 0.8066406398429535 L 760.3203123200801 0.8066406398429535 L 767.898437632015 0.7031255039037205 L 771.5859374080319 0.49999974394449964 L 779.7812500480213 0.6015621118131094 L 786.9453127680463 0.7050782719743438 L 794.2187499520369 0.8066406398429535 L 809.4765629441245 0.9082030078861862 L 835.38281267212 0.9082030078861862 L 842.7578122240375 1.3183590398984961 L 860.1640622081468 0.9082030078861862 L 884.6204211201402 0.9099243519594893 L 895.8984376320732 0.9082030078861862 L 900.0000000001746 1.1132815359160304 L 954.0624998401618 1.1132815359160304 L 962.4609372161212 0.6015621118131094 L 966.4531251200242 1.1132815359160304 L 999.3281249280553 1.1132815359160304 L 1003.1171870720573 1.0117191679310054 L 1019.3984378880705 1.1132815359160304 L 1024.0 1.0286701795339468" fill="none"/><path stroke="#000000" stroke-width="2" d="M 1024.0 1.0286701795448607 L 1019.3984378880123 1.113281535974238 L 1003.1171870720573 1.0117191679310054 L 999.3281249280553 1.113281535974238 L 966.4531251200242 1.113281535974238 L 962.460937216063 0.6015621119295247 L 954.0624998400453 1.113281535974238 L 900.0000000000582 1.113281535974238 L 895.898437632015 0.9082030079443939 L 884.6204211200238 0.9099243519594893 L 860.1640622080304 0.9082030079443939 L 842.7578122240375 1.3183590399567038 L 835.3828126720618 0.9082030079443939 L 809.4765629440662 0.9082030079443939 L 794.2187499520369 0.8066406399593689 L 786.9453127680463 0.7050782719743438 L 779.7812500480213 0.6015621119295247 L 771.5859374080319 0.49999974394449964 L 767.898437632015 0.7031255039619282 L 760.3203123200219 0.8066406399593689 L 754.179687424039 0.8066406399593689 L 749.4687498240382 0.9101557759568095 L 728.8828129280591 0.9082030079443939 L 724.179687424039 0.9101557759568095 L 702.6718750720611 0.8066406399593689 L 680.9609379840549 0.8066406399593689 L 668.4687503360328 0.9101557759568095 L 663.4531246080296 1.0117191679310054 L 658.3359375360305 1.0117191679310054 L 646.0468746240367 0.9101557759568095 L 640.109375488013 0.9082030079443939 L 625.4609377280576 1.0117191679310054 L 618.4999997440609 1.0117191679310054 L 612.8671877120505 0.9101557759568095 L 600.2734376960434 1.0117191679310054 L 588.9062502400484 1.0117191679310054 L 582.8671877120505 1.113281535974238 L 575.79687526403 1.0117191679310054 L 567.5078123520361 1.0117191679310054 L 561.8750003200257 0.9082030079443939 L 545.898437632015 0.9101557759568095 L 539.8593751040171 0.9082030079443939 L 525.7265623040148 1.0117191679310054 L 514.6640640000114 1.011724287935067 L 511.5937495040125 1.3183590399567038 L 502.47656243201345 1.2167966719716787 L 496.33593753603054 1.113281535974238 L 492.4453120000544 1.0117191679310054 L 485.8906245120452 1.0117191679310054 L 472.3750000640284 0.6015621119295247 L 462.75000012805685 0.6015621119295247 L 458.34374963201117 0.7050782719743438 L 450.56249958404806 0.8066406399593689 L 447.898437632015 0.8066406399593689 L 427.0078126080334 0.7031255039619282 L 401.20312524802284 1.0117191679310054 L 383.0781245440594 0.8066406399593689 L 372.2265620480175 0.6015621119295247 L 373.4008113277814 0.0" fill="none"/><path stroke="#408040" stroke-width="3" d="M 0.0 752.471311762205 L 14.243839999995544 747.6326399999998 L 51.630080000002636 736.1331199999986 L 82.9030400000047 722.7494399999996 L 120.76032000000123 712.1612800000003 L 152.00255999999354 704.6553600000007 L 186.12223999999696 698.9311999999991 L 219.1359999999986 691.2819200000013 L 301.00479999999516 669.0099200000004 L 437.49375999999756 632.02304 L 514.6521599999978 611.0617600000005 L 544.2457600000052 603.412479999999 L 574.392319999999 596.8179200000013 L 614.3590399999957 584.6425600000002 L 672.3481599999941 569.1903999999995 L 692.5107200000057 563.8348799999985 L 709.9084799999982 561.6537600000011 L 737.843200000003 560.0153600000012 L 750.7967999999964 560.4454399999995 L 785.1212800000067 567.6953600000015 L 797.1123200000002 571.48416 L 806.4204800000007 573.1020800000006 L 837.9391999999934 574.4435200000007 L 841.3081600000005 576.3071999999993 L 843.8579199999949 580.6899200000007 L 848.2611199999956 585.0419199999997 L 854.671359999993 587.9295999999995 L 874.5779199999961 590.2438399999992 L 893.8700799999933 592.3737599999986 L 902.9427200000064 595.9577600000011 L 909.5475199999928 598.4563200000011 L 915.3024000000005 602.9619200000016 L 925.9008000000031 611.2972799999989 L 936.9190399999934 620.1036800000002 L 967.0451199999952 639.5084800000004 L 980.162559999997 652.8307200000017 L 993.0137600000016 668.610560000001 L 1012.9919999999984 689.367040000001 L 1024.0 701.3990400000039" fill="none"/></svg>