<svg xmlns="http://www.w3.org/2000/svg" width="1024" height="1024"><rect stroke="none" x="0" y="0" width="1024" height="1024" fill="white"/><path stroke="#000000" stroke-width="2" d="M 1024.0 284.25000151788845 L 997.1718748160638 284.2500024319743 L 992.0546877440647 284.35156275192276 L 974.9531248640269 284.35156275192276 L 962.9765621760162 284.25000038393773 L 958.8749998080311 284.25000038393773 L 947.7187502080342 284.35156275192276 L 943.0078126080334 284.35156275192276 L 934.812499968044 284.453125119966 L 923.546874880034 284.0468746239203 L 907.9843747840496 284.453125119966 L 899.2812503040186 284.35156275192276 L 891.6015626240405 284.35156275192276 L 886.8906250240398 284.25000038393773 L 871.8359377920278 284.25000038393773 L 848.390625280037 284.14843699196354 L 816.0312504320173 284.14843699196354 L 805.4843750400469 284.0468746239203 L 793.5000002560555 284.0468746239203 L 781.1093749760184 283.94140671996865 L 777.9375001600129 284.14843699196354 L 774.1484369920217 284.0468746239203 L 768.3125002240413 283.83984332793625 L 762.9843752960442 283.94140671996865 L 748.2421872640261 284.0468746239203 L 743.9375001600129 283.94140671996865 L 735.7499996160623 283.94140671996865 L 730.5234370560502 283.83984332793625 L 711.6796876800363 283.7382809599512 L 706.0546877440647 283.7382809599512 L 701.9531253760215 283.6367185919662 L 696.2187499520369 283.7382809599512 L 684.9609379840549 284.0468746239203 L 677.1718748160638 284.14843699196354 L 672.7734374400461 284.66015641595004 L 670.4140625920263 284.9687500799191 L 662.3281254400499 283.94140671996865 L 658.3359375360305 283.94140671996865 L 653.9296870400431 284.0468746239203 L 640.3125002240413 284.0468746239203 L 634.5781248000567 283.94140671996865 L 629.2499998720596 283.94140671996865 L 613.1718748160638 283.83984332793625 L 606.7265628160676 283.83984332793625 L 600.7812495360267 283.94140671996865 L 591.1562496000552 284.0468746239203 L 588.0859371520346 284.14843699196354 L 576.0078120960388 284.14843699196354 L 570.6796871680417 283.94140671996865 L 567.9140628480236 283.83984332793625 L 551.5312496640254 283.7382809599512 L 544.460937216063 283.7382809599512 L 537.6015626240405 283.83984332793625 L 503.7109370880644 283.83984332793625 L 493.46874982403824 284.0468746239203 L 487.2265625600121 284.0468746239203 L 477.6015626240405 284.14843699196354 L 473.39843788801227 284.14843699196354 L 464.281249792024 283.7382809599512 L 445.64843724801904 283.94140671996865 L 434.281249792024 284.14843699196354 L 430.0859371520346 284.0468746239203 L 419.32812492805533 284.0468746239203 L 399.05468723201193 283.83984332793625 L 393.7343754240428 283.83984332793625 L 384.3125002240413 283.7382809599512 L 349.5937495040125 283.7382809599512 L 342.02343731204746 283.6367185919662 L 337.8203125760192 283.7382809599512 L 315.1875000320142 283.7382809599512 L 307.1015628800378 283.6367185919662 L 300.6484377600136 283.7382809599512 L 286.10937548801303 283.7382809599512 L 283.1406254080357 283.6367185919662 L 263.6796876800363 283.6367185919662 L 240.74218700802885 283.7382809599512 L 236.5468753920286 283.6367185919662 L 230.812499968044 283.6367185919662 L 228.25000038405415 283.7382809599512 L 209.10156288003782 283.7382809599512 L 205.55753472005017 283.65073305595433 L 196.60937523201574 283.42968729592394 L 192.92187545605702 283.7382809599512 L 176.9531248640269 283.7382809599512 L 161.59374950401252 283.6367185919662 L 148.6875002880115 283.6367185919662 L 117.0468751360313 283.7382809599512 L 111.92968704004306 283.7382809599512 L 96.87499980803113 283.83984332793625 L 80.89843712002039 283.83984332793625 L 70.35156275203917 283.94140671996865 L 41.37499955203384 283.94140671996865 L 34.30468710401328 284.0468746239203 L 20.687500288011506 284.0468746239203 L 9.62499993602978 284.14843699196354 L 0.4140625920263119 284.0468746239203 L 0.0 284.0468746239203" fill="none"/><path stroke="#000000" stroke-width="2" d="M 438.4468028215342 1024.0 L 441.0390620160615 1021.3242183679249 L 448.4140625920263 1015.6914063359727 L 451.1796879360336 1011.8007807999384 L 453.6328120320104 1009.9570309119299 L 455.78906214406015 1008.5234370559338 L 458.4453120000544 1005.2499998719431 L 452.60937523201574 1001.4609377279412 L 450.8671877120505 999.0000005119364 L 447.4921871360275 997.464843263966 L 444.62500044802437 996.9531248639687 L 441.8593751040171 994.2929684479604 L 439.093749760068 991.3203128319583 L 441.9609374720603 988.3515627519228 L 445.445312512049 985.2812503039604 L 448.4140625920263 982.7187496959232 L 451.38281267206185 980.6718750719447 L 454.25000038405415 977.7031249919673 L 456.19531264004763 975.3476567039615 L 458.5468753920286 973.6054691839381 L 460.60156211204594 971.0468751359731 L 462.8515624960419 969.0000005119364 L 465.2109373440617 967.6679690239253 L 467.4609377280576 965.92578150396 L 470.2265620480175 962.6484377599554 L 475.2421877760207 959.5781253119349 L 478.92968755203765 956.4023439359735 L 482.20312473602826 954.8671877119341 L 485.9921879040194 953.3320314879529 L 489.06250035203993 950.8749998079729 L 490.70312550402014 948.1093754879548 L 494.1874995200196 945.2421877759625 L 495.4140620800317 941.4531246079714 L 497.7656248320127 938.4843745279359 L 499.60937472002115 937.0507816959289 L 501.8671872000559 935.7187502079178 L 502.9921873920248 932.9531248639687 L 504.83593728003325 932.4414064639714 L 507.0859376640292 930.7031255039619 L 509.445312512049 927.9375001599547 L 512.8203120640246 925.2734371839324 L 515.3828126720618 923.1250001919689 L 517.3281249280553 920.5624995839316 L 522.4453120000544 917.6953128959285 L 525.5234375680448 915.6484372479608 L 528.9999994880636 913.6015626239241 L 534.3281254400499 911.7578127359739 L 537.7031249920256 913.4960936959251 L 542.0078120960388 911.3476567039615 L 546.0000000000582 908.6835937279393 L 549.0703124480206 907.9687495679245 L 552.9609379840549 907.6601559039555 L 555.4218752000597 905.4101565439487 L 557.6718745600665 903.3593753599562 L 559.3124997120467 901.1093749759602 L 561.5625000960426 899.7773434879491 L 564.2265620480175 897.5234375679283 L 567.3984378880123 894.656249855936 L 570.8828129280591 891.7890621439437 L 573.546874880034 888.9218754559406 L 575.6953128960449 884.8242186239222 L 576.5156249600113 881.4453125119326 L 576.8203120640246 878.8867184639676 L 579.0781245440594 876.7343749119318 L 581.3281249280553 874.1757808639668 L 583.5781253120513 871.2070307839313 L 585.7343754240428 868.3398440959281 L 589.2109373440617 866.1874995199614 L 593.2031252480228 864.550780927937 L 596.281249792024 863.1171870719409 L 601.6015626240405 860.2500003839377 L 605.8046873600106 856.5624995839316 L 608.5703127040179 854.1054689279408 L 609.6953128960449 852.0585932799731 L 607.1328122880659 849.0898442239268 L 604.1640622080304 847.9609374719439 L 600.9921873920248 845.710937087948 L 598.53125017602 842.3281254399335 L 594.0234373120475 841.4101565439487 L 589.828124672058 837.5156254719477 L 587.164062720025 835.9804692479665 L 585.8359377920278 833.1132815359742 L 587.2656250880682 829.8359377919696 L 588.289062912052 826.0468746239203 L 584.2968750080327 825.9453122559353 L 581.7343754240428 823.1796879359754 L 579.1796879360336 822.5664061439456 L 576.8203120640246 822.6679685119307 L 575.4921871360275 821.2343746559345 L 576.921875456057 819.187500031956 L 580.6093752320157 815.8085939199664 L 583.4765629440662 812.4296878079185 L 590.2343751680455 806.5937500159489 L 592.9999994880636 804.3398440959281 L 596.4843745280523 800.8593745919643 L 598.7343749120482 797.6835942399339 L 601.9140628480236 794.5078128639725 L 603.7499996160623 792.2578124799184 L 605.4921871360275 790.4140625919681 L 607.0312499200227 788.3632814079174 L 608.460937216063 786.2148433919647 L 609.6953128960449 783.0390620159451 L 609.5937495040125 779.5585935359704 L 611.1250001920271 776.3828121599508 L 614.1953126400476 774.1328127999441 L 611.9453122560517 772.0820316159516 L 609.5937495040125 769.8320312319556 L 607.2343746560509 767.2695316479658 L 603.0390620160615 764.1992191999452 L 598.3281254400499 762.2539059199626 L 595.2578129920294 761.1250001919689 L 595.8671872000559 758.6679685119307 L 597.3046876160661 756.6210938879522 L 599.1484375040163 754.7773439999437 L 601.6015626240405 752.0117186559364 L 603.445312512049 750.3750000639702 L 606.0078120960388 747.609374719963 L 609.3828126720618 744.027343871945 L 611.1250001920271 742.2851563519216 L 611.8437498880667 739.9296870399266 L 613.6874997760169 736.550780927937 L 616.5546874880674 736.1406248959247 L 618.9062502400484 734.9140623359708 L 621.3671874560532 733.7851566079189 L 623.0078126080334 731.8398433279363 L 624.8515624960419 729.7929687039577 L 626.078125056054 727.8476564479643 L 627.4062499840511 724.5703127039596 L 628.9453127680463 722.0117186559364 L 630.9921873920248 720.2695311359712 L 633.8593751040171 718.3242188799195 L 636.4218746880651 715.7617182719405 L 638.6718750720611 713.3046876159497 L 640.3125002240413 711.5664066559402 L 644.5078128640307 708.2890629119356 L 647.8906245120452 706.343749631953 L 649.3203128320165 702.9648435199633 L 651.164062720025 699.1757813759614 L 654.6484377600136 698.4570316799218 L 656.390625280037 696.8203120639664 L 658.3359375360305 693.644531711936 L 659.968749568041 689.2421877759625 L 661.6093747200212 688.0117186559364 L 662.6328125440632 686.1718743039528 L 664.0703129600151 684.3281254399335 L 665.2968744960381 681.9726561279385 L 667.0390620160615 679.6171878399327 L 669.0859376640292 677.1601561599527 L 669.2890624000574 673.1640627199668 L 673.4921871360275 669.3749995519174 L 676.562499584048 667.0195312639698 L 675.8437498880667 663.539062783937 L 666.9374996480183 660.7734374399297 L 664.3750000640284 660.1601566719473 L 658.5390622720588 658.6250004479662 L 655.9765626880107 658.1132810239214 L 654.1328128000605 657.8046873599524 L 649.1171870720573 655.8593751039589 L 651.2656250880682 653.8125004799222 L 653.2109373440617 651.8671871999395 L 654.8515624960419 650.023437311931 L 657.1015628800378 647.1562495999387 L 659.968749568041 644.1874995199614 L 662.9374996480183 640.3984373759595 L 664.1718753280584 637.9414067199687 L 665.5000002560555 635.7890621439437 L 668.2656245760154 632.4101560319541 L 670.8281251840526 628.5195315199671 L 671.648437248019 625.6523438079748 L 668.8828129280591 624.2187499519205 L 664.8828129280591 623.2968744959217 L 665.8046873600106 621.1445309439441 L 665.6015626240405 616.6406246399274 L 663.0468751360313 614.3867187199648 L 661.2031252480228 613.1601561599527 L 658.6406246400438 610.906250239932 L 656.5937500160653 608.652343295922 L 655.4687498240382 605.1718748159474 L 655.7734379520407 602.4062504959293 L 657.6171878400492 599.9492188159493 L 658.7421870080288 597.5937495039543 L 660.281249792024 596.0585932799731 L 662.7343749120482 594.4179691519239 L 664.9921873920248 592.3710935039562 L 667.445312512049 588.8906250239233 L 668.4687503360328 585.816406015947 L 667.343750144064 582.7460935679264 L 664.7812495360267 579.5703121919651 L 662.6328125440632 576.4999997439445 L 664.9921873920248 574.9648435199633 L 667.8593751040171 572.8124999679276 L 669.2890624000574 569.9453122559353 L 669.0859376640292 566.7734374399297 L 668.7812495360267 562.3671879679314 L 669.9062497280538 559.6054691839381 L 670.0078120960388 557.2499998719431 L 669.9062497280538 553.1523440639721 L 666.2187499520369 550.796874751919 L 668.1640622080304 547.6210933759576 L 670.9296875520376 548.2382817279431 L 677.7890621440602 552.6406246399274 L 685.7734379520407 557.7617182719405 L 694.0703129600151 562.9843752959277 L 696.8359372800332 564.8242186239222 L 701.1328122880659 567.4882815999445 L 706.2578124800348 570.7656253439491 L 709.9453122560517 573.1210936319549 L 713.4218752000597 575.2695316479658 L 716.6015621120459 577.2148439039593 L 729.093749760068 584.8945315839374 L 743.2265625600121 592.9843752959277 L 745.5781253120513 594.4179691519239 L 754.9999994880636 599.746094079921 L 768.3125002240413 609.1640627199668 L 773.023437824042 611.8281246719416 L 778.7578122240375 615.820312575961 L 782.1328128000605 618.0742184959236 L 789.7109370880644 622.8867184639676 L 798.7265628160676 629.5429683199618 L 813.164062720025 639.4765629439498 L 817.2578129920294 642.0351559679257 L 821.7656248320127 644.800781311933 L 826.6796871680417 647.9765626879525 L 832.8203120640246 651.6601559039555 L 835.4843750400469 653.6054691839381 L 838.3515627520392 655.4492190719466 L 843.2656250880682 659.0351564799203 L 848.179687424039 662.2070312959258 L 862.8281251840526 672.652343295922 L 866.1015623680432 674.4960942079197 L 869.6874997760169 676.5429688319564 L 873.3749995520338 678.6953123839339 L 877.3671874560532 680.9492183039547 L 880.2343751680455 682.5859379199683 L 885.1484375040163 685.7617182719405 L 896.8203120640246 693.3398435839335 L 903.9921879040194 698.1523435519193 L 908.289062912052 701.0195312639698 L 913.1015628800378 704.3984373759595 L 917.7109370880644 707.1601561599527 L 921.3984378880123 709.5156254719477 L 928.1562501120497 713.6132812799187 L 942.6953123840503 722.9296875519212 L 947.8203125760192 726.2070312959258 L 953.9609374720603 730.20312473597 L 961.4375004160684 735.1171870719409 L 964.3046871040133 736.9609379839385 L 967.8906245120452 739.3164062719443 L 971.8828124160646 741.7734379519243 L 983.656250368047 749.0429685759591 L 990.109375488013 753.9570309119299 L 993.1796879360336 754.9843752959277 L 1000.7578122240375 759.9999999999418 L 1003.2187504640315 761.640625151922 L 1006.0859371520346 763.4804684799747 L 1009.1562496000552 765.4257817599573 L 1013.0468751360313 767.8867189759621 L 1017.1406254080357 770.5468753919704 L 1024.0 774.8582682695414" fill="none"/><path stroke="#000000" stroke-width="2" d="M 0.0 556.0776887666216 L 0.31250022404128686 556.2226565119345 L 3.078124544059392 558.171875327942 L 6.453125120024197 559.1953121279366 L 10.4453120000544 560.8320317439502 L 12.804687872063369 561.4453125119326 L 16.796874752035365 562.6757816319587 L 21.09374976006802 564.3125002239249 L 25.5000002560555 567.3867192319594 L 27.445312512048986 568.4101560319541 L 30.210937856056262 569.8437498879503 L 32.25781248003477 572.4023439359735 L 35.02343782404205 574.7578122239211 L 37.68749977601692 574.554687487951 L 43.726562304014806 573.1210936319549 L 45.46874982403824 570.1523435519193 L 44.85156249604188 565.9531253759633 L 42.39843737601768 564.1093754879548 L 40.859374592022505 562.2656245759572 L 44.750000128056854 560.6289059839328 L 46.18749952001963 558.167968767928 L 43.82812467205804 555.3046876159497 L 41.78125004802132 552.1289062399301 L 43.42187520005973 549.6718745599501 L 47.71875020803418 549.1601561599527 L 51.20312524802284 547.7265623039566 L 54.687500288011506 546.7031255039619 L 57.24218777602073 544.7539066879544 L 60.10937548801303 541.9921879039612 L 62.3671879680478 538.20312473597 L 59.90624972805381 535.0273433599505 L 59.18750003201421 531.7499996159459 L 62.16406220803037 529.0898442239268 L 65.43750041601015 527.6562503679306 L 67.17968793603359 526.4257812479627 L 70.14843699202174 525.710937087948 L 74.34374963201117 525.3007810559357 L 77.10937497601844 525.3007810559357 L 84.78906265605474 526.2226565119345 L 86.42968780803494 524.171875327942 L 87.75781273603207 521.0000005119364 L 88.78124953602673 518.2343751679291 L 92.98437529604416 515.7773434879491 L 95.64843724801904 512.4999997439445 L 97.4921871360275 509.8359377919696 L 98.82031206402462 506.25390591996256 L 98.30468710401328 502.97656217595795 L 97.79687526402995 500.21093785593985 L 101.68749977601692 499.39062476792606 L 106.70312550402014 499.5976560639683 L 109.7734379520407 498.4687503359746 L 111.41406208003173 493.9648440319579 L 110.28906291205203 490.9960939519224 L 110.49218764802208 487.30859417596366 L 114.179687424039 487.10546841594623 L 116.64062464004382 488.74218700797064 L 119.39843788801227 489.25390643195715 L 123.39843788801227 490.1757808639668 L 126.2656245760154 490.1757808639668 L 128.3125002240413 488.84375039994484 L 129.33593702403596 486.8984371199622 L 130.76562534406548 484.44140646397136 L 133.84374988806667 479.62890649592737 L 132.60937523201574 476.0468746239203 L 132.60937523201574 472.9726566399331 L 136.49999974406091 471.2304691199679 L 140.18749952001963 470.20703129592584 L 142.9531248640269 468.4687503359746 L 148.89062502403976 462.3242188799195 L 152.2734376960434 457.5117189119337 L 152.6796871680417 453.4140620799735 L 152.2734376960434 451.2656250879518 L 155.96093747206032 448.4999997439445 L 158.92968755203765 447.88671897596214 L 161.38281267206185 446.554687487951 L 163.9453122560517 443.89062451192876 L 167.6328120320104 443.6874997759587 L 170.29687500803266 444.4023439359735 L 173.88281241606455 445.2226559999399 L 176.75000012805685 447.06640588794835 L 179.92187494406244 448.7031255039619 L 183.19531212805305 449.8320312319556 L 184.93749964801827 449.7265623039566 L 187.60156262404053 448.4999997439445 L 189.74999961606227 445.5312496639672 L 190.7734374400461 443.3789061119314 L 189.74999961606227 440.20312473597005 L 187.60156262404053 437.44140595191857 L 184.6328125440632 434.47265587194124 L 180.74218700802885 433.5507814399316 L 178.179687424039 431.70703155192314 L 177.66406246402767 427.0976563199656 L 177.97656268801074 424.1289062399301 L 179.20312524802284 420.2382817279431 L 183.81250048003858 419.62109337595757 L 186.06249984004535 416.8593745919643 L 187.70312499202555 414.70703103992855 L 189.85156300803646 413.6835942399339 L 192.10937548801303 411.6367185919662 L 192.51562496001134 408.8710932479589 L 193.9453122560517 405.183593471942 L 196.30468710401328 401.6015626239241 L 199.99218790401937 402.4179691519239 L 203.2656250880682 403.1367188479635 L 205.7265623040148 404.57031270395964 L 208.07812710403232 403.5468789759325 L 209.51562547206413 399.9609374719439 L 209.10156288003782 396.48046899196925 L 208.28906291205203 393.61328127991874 L 206.33593753603054 389.0039060479612 L 204.18749952001963 384.8085934079718 L 203.78125004802132 380.5078128639725 L 207.15624960005516 379.3789061119314 L 208.179687424039 376.4101560319541 L 208.179687424039 374.15625011193333 L 210.74218700802885 371.085937663971 L 214.1249996800325 370.3671879679314 L 222.62500044802437 371.9062497279374 L 227.02343782404205 367.6054691839381 L 229.5859374080319 363.30468761594966 L 235.00781260803342 362.48437452793587 L 238.9062502400484 360.1289062399301 L 240.43749990401557 362.89453158393735 L 237.06250035203993 369.2421877759625 L 233.57812531205127 371.085937663971 L 233.28936857602093 371.7499832319445 L 231.21875046403147 376.5117183999391 L 229.07031244802056 380.30078156793024 L 228.04687462403672 386.5468753919704 L 232.0390625280561 387.7773434879491 L 234.70312550402014 389.10937497596024 L 237.87500032002572 389.4140620799735 L 241.7734379520407 390.02734387194505 L 244.64062464004382 389.10937497596024 L 247.09374976006802 387.57031219196506 L 250.06249984004535 385.7265623039566 L 252.92968755203765 384.4999997439445 L 255.89843763201497 383.1679682559334 L 258.66406297602225 382.8593745919643 L 262.25000038405415 383.57812531193485 L 265.52343756804476 384.8085934079718 L 267.6796876800363 385.8320312319556 L 270.75000012805685 388.1874995199614 L 272.39062528003706 392.2812497919658 L 272.39062528003706 395.4570311679272 L 269.0078126080334 398.42578124796273 L 266.55468748806743 399.75781273597386 L 263.2734371840488 400.3710935039562 L 260.60937523201574 402.62500044796616 L 258.56249958404806 403.6484372479608 L 256.61718732805457 401.70312499196734 L 254.05468774406472 399.4492190719466 L 250.06249984004535 399.1445309439441 L 247.4062499840511 399.34765670396155 L 244.32812544004992 399.4492190719466 L 241.25781299202936 399.75781273597386 L 239.41406208003173 400.2695311359712 L 237.6718745600665 400.6796871679253 L 235.82812467205804 402.2148433919647 L 234.19531264004763 403.44531251193257 L 229.99218790401937 404.7734374399297 L 227.74218752002344 407.640625151922 L 230.71093760005897 411.83984332793625 L 234.29687500803266 413.99218790396117 L 236.0390625280561 416.550780927937 L 237.2656250880682 419.62109337595757 L 238.49218764802208 422.4882810879499 L 241.25781299202936 424.6406246399274 L 243.50781235203613 426.38281215995084 L 246.37500006402843 428.2226565119345 L 249.4531246080296 429.35156223992817 L 252.10937548801303 428.7343749119318 L 254.97656217601616 428.53125017596176 L 258.46093721606303 430.273437695927 L 262.0468746240367 429.7617182719405 L 263.6796876800363 427.60937471996294 L 265.52343756804476 425.1523440639721 L 267.46874982403824 423.71875020791776 L 270.03125043201726 423.30859417596366 L 271.97656268801074 423.30859417596366 L 273.4140620800317 427.60937471996294 L 274.02343731204746 431.0898442239268 L 274.1249996800325 433.34375014394755 L 274.6406246400438 435.187500031956 L 277.7109370880644 439.078124543943 L 280.5781248000567 443.48046847997466 L 281.9062497280538 446.1445314559387 L 285.9062497280538 446.8593745919643 L 289.2812503040186 447.2695316479658 L 293.1718748160638 448.4999997439445 L 295.5312496640254 451.0585937919677 L 297.6796876800363 452.80078131193295 L 299.6249999360298 454.6445311999414 L 302.1874995200196 455.25781299197115 L 306.5859379200265 456.07812505593756 L 309.8671872000559 456.7929692159523 L 313.9609374720603 458.3281254399335 L 315.5000002560555 460.9921873919666 L 317.0312499200227 464.2695311359712 L 320.3125002240413 465.80468735995237 L 323.2812503040186 466.52343705593375 L 326.55468748806743 467.6484372479608 L 332.70312550402014 470.61718732793815 L 336.69531238405034 470.51562495995313 L 339.66406246402767 471.02734335995046 L 341.60937472002115 472.56249958393164 L 344.3750000640284 474.3046871039551 L 347.9609374720603 475.12500019196887 L 350.4140625920263 475.94140671996865 L 352.3593748480198 476.453125119966 L 354.7187496960396 476.558594047965 L 356.66406297602225 476.14843699196354 L 360.3515627520392 475.5312496639672 L 363.01562470401404 475.01953126396984 L 366.28906291205203 474.8164065279416 L 370.4843745280523 474.8164065279416 L 375.7109370880644 474.1015623679268 L 379.6015626240405 473.1796879359754 L 384.0000000000582 471.640625151922 L 386.0546877440647 471.53906278393697 L 389.5312496640254 472.0507811839343 L 395.6796876800363 473.79296870395774 L 399.25781299202936 475.6367185919662 L 401.619006464025 476.3181055999594 L 403.15624960005516 476.76171878393507 L 405.3046876160661 479.11718707194086 L 409.5000002560555 477.48046847997466 L 412.98437529604416 475.42968729592394 L 415.74999961606227 474.5078128639725 L 419.32812492805533 474.9179688959266 L 417.898437632015 478.8085934079718 L 418.8203120640246 480.65234329592204 L 420.8671877120505 482.1874995199614 L 422.812499968044 483.3164062719443 L 426.3984373760177 483.62109337595757 L 430.4921876480221 484.33984409592813 L 433.66406246402767 486.1835939839366 L 436.9453127680463 488.6406246399274 L 440.11718758405186 490.277344255941 L 443.5000002560555 491.917968383932 L 446.1640622080304 491.71093708794797 L 450.0546877440647 490.5859379199683 L 454.7578122240375 489.97265612793854 L 457.93750016001286 490.07421849592356 L 460.70312550402014 490.6875002879533 L 464.69531238405034 490.277344255941 L 468.5859379200265 489.66406246396946 L 472.78124953602673 488.43749990395736 L 475.445312512049 488.02734387194505 L 478.10937548801303 488.2304686079733 L 482.0000000000582 487.4101565439487 L 487.6328120320104 486.6953123839339 L 490.2968739840435 486.69531545595964 L 492.6484377600136 487.30859417596366 L 499.20312524802284 489.3554687999422 L 502.78906265605474 490.5859379199683 L 507.39843788801227 492.4296878079185 L 512.0000000000582 492.6328125439468 L 519.2734371840488 493.24999987194315 L 522.7578122240375 493.6562503679306 L 525.4140620800317 492.6328125439468 L 528.9999994880636 492.01953075197525 L 532.4843745280523 492.83984383993084 L 534.53125017602 493.9648440319579 L 537.5000002560555 495.0898442239268 L 540.9843752960442 495.5000002559391 L 543.9531253760215 494.9882808319526 L 549.0703124480206 491.4062499839347 L 551.9375001600129 484.9531248639687 L 551.7343754240428 481.7812500479631 L 550.5078128640307 479.52734412794234 L 549.8906245120452 476.66015641595004 L 552.7578122240375 473.48437503993046 L 557.6718745600665 472.9726566399331 L 560.9531248640269 473.1796879359754 L 563.2031252480228 472.56249958393164 L 564.1249996800325 468.7734374399297 L 560.6406246400438 466.8281251839362 L 555.3203128320165 465.9062497279374 L 553.5781253120513 465.29296895995503 L 551.2265625600121 461.5039057919639 L 553.3749995520338 459.55859353597043 L 557.0625003520399 459.55859353597043 L 559.5156254720641 459.96874956792453 L 563.5078123520361 461.4023434239207 L 567.093749760068 464.57812479994027 L 569.2421877760207 466.8281251839362 L 571.6015626240405 469.79687526397174 L 575.4921871360275 472.0507811839343 L 578.2578124800348 470.20703129592584 L 578.1562501120497 466.2148433919647 L 576.7187496960396 462.83593727997504 L 574.5703127040179 460.07031295995694 L 576.109375488013 457.30468761594966 L 578.9687500800355 457.4101565439487 L 582.6562498560525 458.53515673591755 L 584.4999997440609 461.19531212793663 L 586.6562498560525 464.06249983992893 L 588.7031255040201 465.39453132794006 L 593.4140620800317 465.70312499196734 L 596.078125056054 463.0390620159451 L 594.0234373120475 458.43359334394336 L 590.8515624960419 454.6445311999414 L 589.3124997120467 453.0039060479612 L 587.164062720025 451.3671874559368 L 585.015624704014 450.6484377599554 L 582.1484369920217 449.6249999359716 L 579.3828126720618 448.6015621119295 L 575.3906247680425 446.9648435199633 L 572.0078120960388 444.1992191999452 L 569.1406254080357 442.66406297596404 L 566.1718753280584 441.2304691199679 L 563.6093747200212 439.79687526397174 L 561.5625000960426 438.25781247991836 L 559.5156254720641 436.4179691519239 L 557.0625003520399 433.65234380797483 L 555.6249999360298 431.5000002559391 L 554.6015621120459 429.1445309439441 L 554.4999997440609 426.5859379199683 L 555.1171870720573 424.2304686079733 L 555.828124672058 422.4882810879499 L 557.8750003200257 421.2617185279378 L 562.8984371200204 419.4179686399293 L 567.2968744960381 418.5976565759629 L 569.656250368047 418.5976565759629 L 572.2109378560563 419.10937497596024 L 577.8437498880667 420.9531248639687 L 580.4062504960457 421.6718745599501 L 582.6562498560525 422.2851563519216 L 585.5234375680448 423.20703078393126 L 591.0546872320119 426.07421849592356 L 592.7968747520354 427.5078123519197 L 594.9453127680463 428.7382814719458 L 599.3515622400446 430.06640639994293 L 602.0156252160668 430.7851560959243 L 604.2656245760154 431.29687449592166 L 607.2343746560509 431.39843788795406 L 612.7656253440655 430.06640639994293 L 616.2500003840541 428.53125017596176 L 619.4218752000597 424.6406246399274 L 618.8046878720634 422.1835939839366 L 617.4765629440662 420.1328127999441 L 615.015624704014 418.29296844796045 L 611.6406251520384 416.1406248959247 L 608.9765621760162 415.01562470395584 L 603.9609374720603 412.76171878393507 L 601.195312128053 411.3281249279389 L 596.6875002880115 408.25781247991836 L 593.4140620800317 406.31250022392487 L 590.5468753920286 403.85156300792005 L 588.1874995200196 401.6015626239241 L 586.0390625280561 398.83593727997504 L 583.8906245120452 396.48046899196925 L 582.1484369920217 394.7382814719458 L 580.6093752320157 392.6914058239199 L 580.1015623680432 389.62109337595757 L 581.6328120320104 386.9570314239245 L 583.8906245120452 385.52343756792834 L 589.0078126080334 384.4999997439445 L 592.4921876480221 384.8085934079718 L 601.195312128053 387.98046924796654 L 604.4687503360328 388.80078131193295 L 612.460937216063 391.4609377279412 L 615.6328120320104 392.38281215995084 L 618.9062502400484 393.4101565439487 L 621.7734379520407 395.7617182719405 L 623.8203125760192 397.19531212793663 L 627.2031252480228 398.83593727997504 L 630.1718753280584 400.06249983992893 L 633.0390620160615 400.7812495359685 L 637.9531253760215 401.0898442239268 L 640.921875456057 400.47265587194124 L 642.6640629760223 397.6054691839381 L 640.3125002240413 394.7382814719458 L 635.8046873600106 391.0546872319537 L 632.9374996480183 388.1874995199614 L 631.5078123520361 385.93359359994065 L 631.6093747200212 382.65624985593604 L 632.8359372800332 380.30078156793024 L 635.0859376640292 379.3789061119314 L 638.6718750720611 378.76562534394907 L 641.1328122880659 378.4570316799218 L 643.6874997760169 378.66406297596404 L 647.1718748160638 379.99218790396117 L 649.7343754240428 381.6328120319522 L 651.4687498240382 382.554687487951 L 653.4140620800317 383.06640588794835 L 658.0234373120475 383.06640588794835 L 661.3046876160661 381.3242183679249 L 661.7109370880644 377.9453122559353 L 659.0468751360313 374.56640614394564 L 656.5937500160653 372.8242186239222 L 656.078125056054 370.16406220797217 L 657.9218749440624 368.6289059839328 L 660.281249792024 368.0117186559364 L 663.656250368047 368.11718758393545 L 670.4140625920263 369.9570309119299 L 673.898437632015 370.47265587194124 L 678.812499968044 371.187500031956 L 682.0859371520346 371.69921843195334 L 684.1406248960411 372.7226562559372 L 687.2109373440617 373.5429683199618 L 692.2265620480175 374.7734374399297 L 695.7109370880644 375.5898439679295 L 698.4765624320135 376.7187496959232 L 702.2656245760154 377.6367185919662 L 709.8437498880667 379.78906214394374 L 719.8750003200257 383.47656294394983 L 724.179687424039 385.4218751999433 L 726.7343749120482 386.34374963195296 L 729.2968744960381 387.4687498239218 L 734.5156249600113 388.6992189439479 L 736.8749998080311 389.0039060479612 L 742.1953126400476 389.10937497596024 L 745.6796876800363 389.5156254719477 L 750.6953123840503 390.2343751679291 L 753.6640624640277 388.1874995199614 L 754.3828121600673 384.6015621119295 L 754.6875002880115 381.3242183679249 L 756.3281254400499 377.53515622392297 L 761.0390620160615 371.90234419197077 L 763.3984378880123 369.0390620159451 L 766.6718750720611 366.6835937279393 L 771.3828126720618 363.816406015947 L 775.4765629440662 360.02734387194505 L 779.164062720025 357.3632808959228 L 782.4374999040156 355.21484390395926 L 786.0234373120475 353.4726563839358 L 788.6875002880115 352.449218559952 L 791.554688000062 350.9140623359708 L 793.9140628480236 348.8632811519201 L 794.9374996480183 346.5078128639725 L 794.0156252160668 344.4609372159466 L 791.4531246080296 342.7187496959232 L 789.2031252480228 340.7734374399297 L 786.4374999040156 338.62500044796616 L 785.3046876160661 335.9609374719439 L 787.4609377280576 333.0937497599516 L 790.3281254400499 331.8671871999395 L 798.8281251840526 331.96874956792453 L 802.6171873280546 331.96874956792453 L 804.8671877120505 331.66015590395546 L 810.1953126400476 331.55859353597043 L 812.2421872640261 331.7617182719405 L 815.7187502080342 331.1484375039581 L 818.3828121600673 329.4101565439487 L 820.1249996800325 327.5664066559402 L 823.2968744960381 324.39062527992064 L 824.7343749120482 321.8320312319556 L 826.6796861440525 318.7578101759427 L 828.3203123200219 317.2226559999399 L 830.6718750720611 316.1992191999452 L 833.2343746560509 314.66406297596404 L 835.0781245440594 313.43359385593794 L 836.812499968044 312.3085936639691 L 839.8906245120452 311.79687526397174 L 842.7578122240375 311.38671923195943 L 846.0312504320173 311.6914063359727 L 849.8203125760192 312.1015623679268 L 854.53125017602 313.12500019196887 L 856.9921873920248 313.53515622392297 L 861.9062497280538 315.07421900791815 L 866.1015623680432 316.8124999679276 L 867.1421798400115 316.9106012159609 L 869.3749995520338 317.12109363195486 L 872.8593745920225 316.9140623359708 L 875.9296870400431 317.12109363195486 L 880.1328128000605 317.7343754239264 L 882.6875002880115 318.34765619196696 L 886.2734376960434 319.7812500479631 L 888.1171875840519 320.4999997439445 L 890.1640622080304 320.8085934079718 L 893.445312512049 321.4218751999433 L 896.7187496960396 321.8320312319556 L 900.4062504960457 322.75390668795444 L 903.0703124480206 323.3671874559368 L 905.3203128320165 323.87890585593414 L 910.5468753920286 325.21093734394526 L 913.7187502080342 325.5156254719477 L 916.6875002880115 326.33593753597233 L 919.8593751040171 327.3593753599562 L 922.6250004480244 328.4882810879499 L 924.5703127040179 329.61328127991874 L 927.0312499200227 331.8671871999395 L 928.6718750720611 333.5039057919639 L 931.3281249280553 335.75781273597386 L 934.1953126400476 336.57812479994027 L 936.7578122240375 336.6796871679253 L 939.7265623040148 336.6796871679253 L 944.6406246400438 339.03515647992026 L 948.6406246400438 342.20703129592584 L 950.8906250240398 344.0507811839343 L 954.7812495360267 347.5312496639672 L 956.3203123200219 348.66015641595004 L 959.4921871360275 351.3203128319583 L 962.1562501120497 353.16406271996675 L 963.7890621440602 354.5976565759629 L 967.0703124480206 356.33984409592813 L 970.2421872640261 359.30859417596366 L 972.390625280037 362.5859379199683 L 974.1328128000605 364.53125017596176 L 976.5937500160653 366.17187532794196 L 980.4843745280523 368.42187468794873 L 983.1484375040163 370.06249983992893 L 987.1406254080357 373.03124991996447 L 988.8828129280591 375.6914063359727 L 991.648437248019 379.6874997759587 L 994.2031247360283 382.24609382392373 L 996.7656253440655 384.7031255039619 L 999.3281249280553 388.902343679918 L 1002.2968750080327 391.8710937599535 L 1004.6484377600136 394.6367191039608 L 1006.7968747520354 397.5039057919639 L 1008.0312504320173 399.24609331192914 L 1009.2578129920294 400.98437529592775 L 1010.8984371200204 403.1367188479635 L 1013.2499998720596 406.20703129592584 L 1016.3203123200219 407.746094079921 L 1019.7031249920256 408.7695308799739 L 1021.648437248019 409.07421900791815 L 1024.0 408.6640629759713" fill="none"/><path stroke="#000000" stroke-width="2" d="M 1024.0 774.8582682695414 L 1017.1406254080357 770.5468753919704 L 1013.0468751360313 767.8867189759621 L 1009.1562496000552 765.4257817599573 L 1006.0859371520346 763.4804684799747 L 1003.2187504640315 761.640625151922 L 1000.7578122240375 759.9999999999418 L 993.1796879360336 754.9843752959277 L 990.109375488013 753.9570309119299 L 983.656250368047 749.0429685759591 L 971.8828124160646 741.7734379519243 L 967.8906245120452 739.3164062719443 L 964.3046871040133 736.9609379839385 L 961.4375004160684 735.1171870719409 L 953.9609374720603 730.20312473597 L 947.8203125760192 726.2070312959258 L 942.6953123840503 722.9296875519212 L 928.1562501120497 713.6132812799187 L 921.3984378880123 709.5156254719477 L 917.7109370880644 707.1601561599527 L 913.1015628800378 704.3984373759595 L 908.289062912052 701.0195312639698 L 903.9921879040194 698.1523435519193 L 896.8203120640246 693.3398435839335 L 885.1484375040163 685.7617182719405 L 880.2343751680455 682.5859379199683 L 877.3671874560532 680.9492183039547 L 873.3749995520338 678.6953123839339 L 869.6874997760169 676.5429688319564 L 866.1015623680432 674.4960942079197 L 862.8281251840526 672.652343295922 L 848.179687424039 662.2070312959258 L 843.2656250880682 659.0351564799203 L 838.3515627520392 655.4492190719466 L 835.4843750400469 653.6054691839381 L 832.8203120640246 651.6601559039555 L 826.6796871680417 647.9765626879525 L 821.7656248320127 644.800781311933 L 817.2578129920294 642.0351559679257 L 813.164062720025 639.4765629439498 L 798.7265628160676 629.5429683199618 L 789.7109370880644 622.8867184639676 L 782.1328128000605 618.0742184959236 L 778.7578122240375 615.820312575961 L 773.023437824042 611.8281246719416 L 768.3125002240413 609.1640627199668 L 754.9999994880636 599.746094079921 L 745.5781253120513 594.4179691519239 L 743.2265625600121 592.9843752959277 L 729.093749760068 584.8945315839374 L 716.6015621120459 577.2148439039593 L 713.4218752000597 575.2695316479658 L 709.9453122560517 573.1210936319549 L 706.2578124800348 570.7656253439491 L 701.1328122880659 567.4882815999445 L 696.8359372800332 564.8242186239222 L 694.0703129600151 562.9843752959277 L 685.7734379520407 557.7617182719405 L 677.7890621440602 552.6406246399274 L 670.9296875520376 548.2382817279431 L 668.1640622080304 547.6210933759576 L 666.2187499520369 550.796874751919 L 669.9062497280538 553.1523440639721 L 670.0078120960388 557.2499998719431 L 669.9062497280538 559.6054691839381 L 668.7812495360267 562.3671879679314 L 669.0859376640292 566.7734374399297 L 669.2890624000574 569.9453122559353 L 667.8593751040171 572.8124999679276 L 664.9921873920248 574.9648435199633 L 662.6328125440632 576.4999997439445 L 664.7812495360267 579.5703121919651 L 667.343750144064 582.7460935679264 L 668.4687503360328 585.816406015947 L 667.445312512049 588.8906250239233 L 664.9921873920248 592.3710935039562 L 662.7343749120482 594.4179691519239 L 660.281249792024 596.0585932799731 L 658.7421870080288 597.5937495039543 L 657.6171878400492 599.9492188159493 L 655.7734379520407 602.4062504959293 L 655.4687498240382 605.1718748159474 L 656.5937500160653 608.652343295922 L 658.6406246400438 610.906250239932 L 661.2031252480228 613.1601561599527 L 663.0468751360313 614.3867187199648 L 665.6015626240405 616.6406246399274 L 665.8046873600106 621.1445309439441 L 664.8828129280591 623.2968744959217 L 668.8828129280591 624.2187499519205 L 671.648437248019 625.6523438079748 L 670.8281251840526 628.5195315199671 L 668.2656245760154 632.4101560319541 L 665.5000002560555 635.7890621439437 L 664.1718753280584 637.9414067199687 L 662.9374996480183 640.3984373759595 L 659.968749568041 644.1874995199614 L 657.1015628800378 647.1562495999387 L 654.8515624960419 650.023437311931 L 653.2109373440617 651.8671871999395 L 651.2656250880682 653.8125004799222 L 649.1171870720573 655.8593751039589 L 654.1328128000605 657.8046873599524 L 655.9765626880107 658.1132810239214 L 658.5390622720588 658.6250004479662 L 664.3750000640284 660.1601566719473 L 666.9374996480183 660.7734374399297 L 675.8437498880667 663.539062783937 L 676.562499584048 667.0195312639698 L 673.4921871360275 669.3749995519174 L 669.2890624000574 673.1640627199668 L 669.0859376640292 677.1601561599527 L 667.0390620160615 679.6171878399327 L 665.2968744960381 681.9726561279385 L 664.0703129600151 684.3281254399335 L 662.6328125440632 686.1718743039528 L 661.6093747200212 688.0117186559364 L 659.968749568041 689.2421877759625 L 658.3359375360305 693.644531711936 L 656.390625280037 696.8203120639664 L 654.6484377600136 698.4570316799218 L 651.164062720025 699.1757813759614 L 649.3203128320165 702.9648435199633 L 647.8906245120452 706.343749631953 L 644.5078128640307 708.2890629119356 L 640.3125002240413 711.5664066559402 L 638.6718750720611 713.3046876159497 L 636.4218746880651 715.7617182719405 L 633.8593751040171 718.3242188799195 L 630.9921873920248 720.2695311359712 L 628.9453127680463 722.0117186559364 L 627.4062499840511 724.5703127039596 L 626.078125056054 727.8476564479643 L 624.8515624960419 729.7929687039577 L 623.0078126080334 731.8398433279363 L 621.3671874560532 733.7851566079189 L 618.9062502400484 734.9140623359708 L 616.5546874880674 736.1406248959247 L 613.6874997760169 736.550780927937 L 611.8437498880667 739.9296870399266 L 611.1250001920271 742.2851563519216 L 609.3828126720618 744.027343871945 L 606.0078120960388 747.609374719963 L 603.445312512049 750.3750000639702 L 601.6015626240405 752.0117186559364 L 599.1484375040163 754.7773439999437 L 597.3046876160661 756.6210938879522 L 595.8671872000559 758.6679685119307 L 595.2578129920294 761.1250001919689 L 598.3281254400499 762.2539059199626 L 603.0390620160615 764.1992191999452 L 607.2343746560509 767.2695316479658 L 609.5937495040125 769.8320312319556 L 611.9453122560517 772.0820316159516 L 614.1953126400476 774.1328127999441 L 611.1250001920271 776.3828121599508 L 609.5937495040125 779.5585935359704 L 609.6953128960449 783.0390620159451 L 608.460937216063 786.2148433919647 L 607.0312499200227 788.3632814079174 L 605.4921871360275 790.4140625919681 L 603.7499996160623 792.2578124799184 L 601.9140628480236 794.5078128639725 L 598.7343749120482 797.6835942399339 L 596.4843745280523 800.8593745919643 L 592.9999994880636 804.3398440959281 L 590.2343751680455 806.5937500159489 L 583.4765629440662 812.4296878079185 L 580.6093752320157 815.8085939199664 L 576.921875456057 819.187500031956 L 575.4921871360275 821.2343746559345 L 576.8203120640246 822.6679685119307 L 579.1796879360336 822.5664061439456 L 581.7343754240428 823.1796879359754 L 584.2968750080327 825.9453122559353 L 588.289062912052 826.0468746239203 L 587.2656250880682 829.8359377919696 L 585.8359377920278 833.1132815359742 L 587.164062720025 835.9804692479665 L 589.828124672058 837.5156254719477 L 594.0234373120475 841.4101565439487 L 598.53125017602 842.3281254399335 L 600.9921873920248 845.710937087948 L 604.1640622080304 847.9609374719439 L 607.1328122880659 849.0898442239268 L 609.6953128960449 852.0585932799731 L 608.5703127040179 854.1054689279408 L 605.8046873600106 856.5624995839316 L 601.6015626240405 860.2500003839377 L 596.281249792024 863.1171870719409 L 593.2031252480228 864.550780927937 L 589.2109373440617 866.1874995199614 L 585.7343754240428 868.3398440959281 L 583.5781253120513 871.2070307839313 L 581.3281249280553 874.1757808639668 L 579.0781245440594 876.7343749119318 L 576.8203120640246 878.8867184639676 L 576.5156249600113 881.4453125119326 L 575.6953128960449 884.8242186239222 L 573.546874880034 888.9218754559406 L 570.8828129280591 891.7890621439437 L 567.3984378880123 894.656249855936 L 564.2265620480175 897.5234375679283 L 561.5625000960426 899.7773434879491 L 559.3124997120467 901.1093749759602 L 557.6718745600665 903.3593753599562 L 555.4218752000597 905.4101565439487 L 552.9609379840549 907.6601559039555 L 549.0703124480206 907.9687495679245 L 546.0000000000582 908.6835937279393 L 542.0078120960388 911.3476567039615 L 537.7031249920256 913.4960936959251 L 534.3281254400499 911.7578127359739 L 528.9999994880636 913.6015626239241 L 525.5234375680448 915.6484372479608 L 522.4453120000544 917.6953128959285 L 517.3281249280553 920.5624995839316 L 515.3828126720618 923.1250001919689 L 512.8203120640246 925.2734371839324 L 509.445312512049 927.9375001599547 L 507.0859376640292 930.7031255039619 L 504.83593728003325 932.4414064639714 L 502.9921873920248 932.9531248639687 L 501.8671872000559 935.7187502079178 L 499.60937472002115 937.0507816959289 L 497.7656248320127 938.4843745279359 L 495.4140620800317 941.4531246079714 L 494.1874995200196 945.2421877759625 L 490.70312550402014 948.1093754879548 L 489.06250035203993 950.8749998079729 L 485.9921879040194 953.3320314879529 L 482.20312473602826 954.8671877119341 L 478.92968755203765 956.4023439359735 L 475.2421877760207 959.5781253119349 L 470.2265620480175 962.6484377599554 L 467.4609377280576 965.92578150396 L 465.2109373440617 967.6679690239253 L 462.8515624960419 969.0000005119364 L 460.60156211204594 971.0468751359731 L 458.5468753920286 973.6054691839381 L 456.19531264004763 975.3476567039615 L 454.25000038405415 977.7031249919673 L 451.38281267206185 980.6718750719447 L 448.4140625920263 982.7187496959232 L 445.445312512049 985.2812503039604 L 441.9609374720603 988.3515627519228 L 439.093749760068 991.3203128319583 L 441.8593751040171 994.2929684479604 L 444.62500044802437 996.9531248639687 L 447.4921871360275 997.464843263966 L 450.8671877120505 999.0000005119364 L 452.60937523201574 1001.4609377279412 L 458.4453120000544 1005.2499998719431 L 455.78906214406015 1008.5234370559338 L 453.6328120320104 1009.9570309119299 L 451.1796879360336 1011.8007807999384 L 448.4140625920263 1015.6914063359727 L 441.0390620160615 1021.3242183679249 L 438.4468028215342 1024.0" fill="none"/><path stroke="#000000" stroke-width="2" d="M 205.55753472005017 283.6507330557215 L 209.10156288015423 283.7382809597184 L 228.25000038417056 283.7382809597184 L 230.8124999681022 283.63671859167516 L 236.54687539220322 283.63671859167516 L 240.74218700826168 283.7382809597184 L 263.6796876801527 283.63671859167516 L 283.1406254080939 283.63671859167516 L 286.10937548807124 283.7382809597184 L 300.64843776024645 283.7382809597184 L 307.10156288015423 283.63671859167516 L 315.18750003213063 283.7382809597184 L 337.82031257625204 283.7382809597184 L 342.02343731210567 283.63671859167516 L 349.5937495040125 283.7382809597184 L 384.3125002240995 283.7382809597184 L 393.73437542427564 283.8398433277616 L 399.05468723207014 283.8398433277616 L 419.32812492811354 284.0468746236875 L 430.0859371520928 284.0468746236875 L 434.28124979225686 284.1484369917307 L 445.64843724807724 283.9414067196776 L 464.28124979208224 283.7382809597184 L 473.39843788801227 284.1484369917307 L 477.60156262421515 284.1484369917307 L 487.2265625600121 284.0468746236875 L 493.46874982421286 284.0468746236875 L 503.7109370880644 283.8398433277616 L 537.6015626241569 283.8398433277616 L 544.4609372161794 283.7382809597184 L 551.5312496642582 283.7382809597184 L 567.9140628480818 283.8398433277616 L 570.6796871681581 283.9414067196776 L 576.007812096097 284.1484369917307 L 588.0859371520928 284.1484369917307 L 591.1562496001134 284.0468746236875 L 600.7812495362596 283.9414067196776 L 606.726562816184 283.8398433277616 L 613.1718748160638 283.8398433277616 L 629.2499998720596 283.9414067196776 L 634.5781248002895 283.9414067196776 L 640.3125002242741 284.0468746236875 L 653.9296870401595 284.0468746236875 L 658.335937536147 283.9414067196776 L 662.3281254402245 283.9414067196776 L 670.4140625921427 284.9687500796281 L 672.7734374400461 284.660156415659 L 677.1718748161802 284.1484369917307 L 684.9609379842877 284.0468746236875 L 696.2187499521533 283.7382809597184 L 701.9531253761379 283.63671859167516 L 706.0546877442976 283.7382809597184 L 711.6796876802109 283.7382809597184 L 730.5234370562248 283.8398433277616 L 735.7499996161787 283.9414067196776 L 743.9375001601293 283.9414067196776 L 748.2421872641426 284.0468746236875 L 762.9843752961024 283.9414067196776 L 768.3125002241577 283.8398433277616 L 774.1484369921382 284.0468746236875 L 777.9375001602457 284.1484369917307 L 781.1093749760184 283.9414067196776 L 793.5000002562301 284.0468746236875 L 805.4843750402215 284.0468746236875 L 816.0312504321919 284.1484369917307 L 848.3906252802699 284.1484369917307 L 871.8359377922607 284.2500003836467 L 886.8906250242726 284.2500003836467 L 891.6015626241569 284.3515627516899 L 899.2812503040768 284.3515627516899 L 907.984374784166 284.45312511973316 L 923.5468748801504 284.0468746236875 L 934.8124999682186 284.45312511973316 L 943.0078126081498 284.3515627516899 L 947.7187502080342 284.3515627516899 L 958.8749998081475 284.2500003836467 L 962.9765621761908 284.2500003836467 L 974.9531248641433 284.3515627516899 L 992.0546877442393 284.3515627516899 L 997.1718748162966 284.25000243168324 L 1024.0 284.2500015175974" fill="none"/><path stroke="#000000" stroke-width="2" d="M 1024.0 408.66406297577487 L 1021.648437248019 409.0742190077435 L 1019.7031249922584 408.76953087968286 L 1016.3203123200801 407.74609407963 L 1013.2499998720596 406.207031295693 L 1010.8984371201368 403.13671884773066 L 1009.2578129920876 400.9843752957531 L 1008.0312504321337 399.2460933116963 L 1006.7968747520936 397.5039057917311 L 1004.6484377602465 394.63671910378616 L 1002.2968750081491 391.8710937597789 L 999.3281249281717 388.90234367968515 L 996.7656253442401 384.7031255037873 L 994.2031247360865 382.2460938237491 L 991.6484372480772 379.6874997756677 L 988.8828129281756 375.6914063356817 L 987.1406254080939 373.03124991973164 L 983.1484375040163 370.0624998396961 L 980.4843745280523 368.4218746877159 L 976.5937500161817 366.17187532770913 L 974.1328128001187 364.53125017578714 L 972.390625280037 362.58593791967724 L 970.2421872642008 359.3085941756726 L 967.0703124480206 356.3398440957535 L 963.7890621442348 354.5976565757883 L 962.1562501122826 353.1640627197339 L 959.4921871362021 351.32031283172546 L 956.3203123201383 348.6601564157754 L 954.7812495360267 347.53124966373434 L 950.8906250242144 344.0507811837597 L 948.6406246402184 342.2070312957512 L 944.640624640102 339.03515647980385 L 939.7265623041312 336.67968716763426 L 936.7578122241539 336.67968716763426 L 934.1953126400476 336.57812479976565 L 931.32812492823 335.757812735741 L 928.6718750720611 333.5039057917893 L 927.0312499201391 331.8671871997067 L 924.5703127040179 329.6132812796277 L 922.6250004481408 328.48828108777525 L 919.8593751041335 327.35937535978155 L 916.6875002881279 326.3359375357977 L 913.7187502082088 325.5156254717731 L 910.546875392145 325.21093734371243 L 905.3203128320747 323.8789058557595 L 903.0703124480788 323.36718745570397 L 900.4062504962203 322.7539066877798 L 896.7187496962724 321.8320312316646 L 893.445312512049 321.4218751996523 L 890.1640622081468 320.80859340785537 L 888.1171875841683 320.49999974365346 L 886.2734376961016 319.7812500476721 L 882.6875002880697 318.3476561916759 L 880.1328128000605 317.73437542375177 L 875.9296870402177 317.12109363178024 L 872.8593745921971 316.9140623358544 L 869.3749995522085 317.12109363178024 L 867.1421798401861 316.9106012157281 L 866.1015623682761 316.81249996763654 L 861.906249728112 315.0742190076853 L 856.9921873921994 313.53515622374834 L 854.5312501760782 313.12500019173604 L 849.8203125760192 312.1015623677522 L 846.0312504320173 311.6914063357399 L 842.7578122242121 311.3867192317848 L 839.8906245121616 311.7968752637971 L 836.812499968044 312.30859366367804 L 835.0781245440594 313.4335938557051 L 833.2343746562256 314.664062975673 L 830.6718750722939 316.1992191997124 L 828.3203123200801 317.22265599964885 L 826.6796861441107 318.7578101756517 L 824.7343749120482 321.8320312316646 L 823.2968744961545 324.3906252796878 L 820.1249996801489 327.5664066557074 L 818.3828121602419 329.41015654377406 L 815.7187502081506 331.1484375037253 L 812.2421872640844 331.76171827176586 L 810.195312640164 331.5585935357376 L 804.8671877120505 331.6601559037226 L 802.6171873280546 331.9687495677499 L 798.8281251840526 331.9687495677499 L 790.3281254401663 331.8671871997067 L 787.4609377282322 333.093749759777 L 785.3046876160661 335.9609374718275 L 786.4374999042484 338.62500044779154 L 789.2031252480228 340.77343743969686 L 791.4531246080296 342.71874969563214 L 794.015625216125 344.460937215772 L 794.9374996480183 346.5078128637979 L 793.9140628481982 348.86328115168726 L 791.554688000062 350.9140623356798 L 788.6875002882443 352.44921855971916 L 786.0234373122803 353.472656383703 L 782.437499904132 355.21484390372643 L 779.1640627202578 357.36328089568997 L 775.4765629440662 360.027343871654 L 771.3828126722365 363.81640601571416 L 766.6718750720611 366.6835937277647 L 763.3984378880705 369.03906201565405 L 761.0390620161197 371.90234419173794 L 756.3281254400499 377.53515622369014 L 754.6875002880115 381.3242183678085 L 754.3828121603001 384.6015621116385 L 753.6640624640859 388.1874995196704 L 750.6953123841085 390.23437516769627 L 745.6796876800363 389.5156254717149 L 742.1953126400476 389.1093749756692 L 736.8749998080311 389.0039060477284 L 734.515624960186 388.6992189436569 L 729.2968744962127 387.468749823689 L 726.7343749122228 386.3437496316619 L 724.1796874242136 385.4218751997687 L 719.8750003202003 383.476562943717 L 709.8437498881831 379.7890621437109 L 702.2656245760736 377.63671859173337 L 698.4765624320717 376.71874969563214 L 695.7109370880644 375.58984396763844 L 692.2265620480757 374.77343743975507 L 687.2109373441781 373.5429683197872 L 684.1406248961575 372.72265625576256 L 682.0859371522674 371.6992184317787 L 678.812499968044 371.1875000317232 L 673.8984376321314 370.4726558717084 L 670.4140625921427 369.9570309117553 L 663.6562503682217 368.1171875837608 L 660.2812497920822 368.0117186557036 L 657.9218749441789 368.62890598364174 L 656.0781250561122 370.1640622076811 L 656.5937500161235 372.82421862363117 L 659.0468751360895 374.566406143771 L 661.7109370881808 377.94531225570245 L 661.3046876161825 381.3242183678085 L 658.0234373122803 383.0664058877737 L 653.4140620801481 383.0664058877737 L 651.4687498242711 382.5546874877182 L 649.734375424101 381.6328120317776 L 647.1718748162966 379.99218790372834 L 643.6874997761915 378.6640629757894 L 641.1328122882987 378.45703167963075 L 638.6718750721775 378.76562534365803 L 635.085937664262 379.3789061116986 L 632.8359372802079 380.3007815676974 L 631.6093747201958 382.6562498557614 L 631.5078123521525 385.9335935996496 L 632.9374996480183 388.1874995196704 L 635.8046873601852 391.0546872317209 L 640.3125002242741 394.7382814716548 L 642.6640629760805 397.6054691836471 L 640.9218754561734 400.4726558717666 L 637.9531253760215 401.08984422363574 L 633.0390620160615 400.7812495357939 L 630.1718753281166 400.0624998397543 L 627.2031252481393 398.835937279684 L 623.8203125761938 397.195312127762 L 621.7734379522735 395.76171827170765 L 618.9062502400484 393.41015654371586 L 615.6328120321268 392.3828121596598 L 612.4609372161794 391.4609377277666 L 604.468750336091 388.8007813116419 L 601.1953121282277 387.9804692478501 L 592.4921876481385 384.80859340779716 L 589.0078126081498 384.4999997437699 L 583.8906245121616 385.5234375676373 L 581.6328120321268 386.95703142363345 L 580.1015623682179 389.62109337566653 L 580.6093752320157 392.6914058236289 L 582.1484369922546 394.7382814716548 L 583.8906245121616 396.4804689917946 L 586.0390625281725 398.835937279684 L 588.1874995202525 401.6015626236913 L 590.5468753922032 403.851563007629 L 593.4140620801481 406.31250022375025 L 596.6875002880115 408.2578124796273 L 601.1953121282277 411.3281249277643 L 603.9609374722932 412.76171878376044 L 608.9765621761326 415.0156247036648 L 611.6406251521548 416.1406248956919 L 615.0156247041305 418.2929684476694 L 617.4765629440662 420.13281279976945 L 618.8046878721798 422.18359398370376 L 619.4218752001761 424.64062463963637 L 616.2500003841706 428.5312501757289 L 612.7656253441819 430.0664063997683 L 607.2343746562256 431.39843788772123 L 604.2656245762482 431.2968744956306 L 602.015625216125 430.7851560957497 L 599.351562240161 430.0664063997683 L 594.9453127681045 428.7382814716548 L 592.7968747521518 427.5078123516869 L 591.0546872320701 426.07421849569073 L 585.5234375681612 423.2070307836402 L 582.6562498562271 422.285156351747 L 580.4062504960457 421.67187455977546 L 577.8437498882413 420.9531248637941 L 572.2109378561727 419.1093749757274 L 569.6562503681635 418.59765657573007 L 567.2968744960381 418.59765657573007 L 562.8984371200786 419.4179686397547 L 557.8750003200839 421.26171852776315 L 555.8281246722909 422.48828108765883 L 555.1171870721737 424.2304686078569 L 554.4999997441773 426.58593791979365 L 554.6015621122788 429.1445309437695 L 555.624999936088 431.50000025576446 L 557.0625003521563 433.6523438078002 L 559.5156254721223 436.4179691518075 L 561.5625000960426 438.25781247974373 L 563.609374720254 439.7968752636807 L 566.1718753281748 441.23046911967685 L 569.1406254081521 442.6640629757312 L 572.007812096097 444.1992191997706 L 575.3906247680425 446.9648435196723 L 579.38281267212 448.6015621117549 L 582.1484369922546 449.62499993579695 L 585.0156247040723 450.6484377597808 L 587.164062720025 451.3671874557622 L 589.3124997121631 453.00390604767017 L 590.8515624962165 454.6445311996504 L 594.0234373120475 458.4335933437105 L 596.0781250561704 463.03906201571226 L 593.4140620801481 465.7031249916763 L 588.7031255041366 465.3945313277072 L 586.6562498562271 464.0624998396961 L 584.4999997440609 461.1953121277038 L 582.6562498562271 458.5351567356847 L 578.968750080152 457.41015654365765 L 576.1093754881294 457.30468761571683 L 574.5703127040179 460.0703129597241 L 576.718749696156 462.8359372798004 L 578.1562501120497 466.21484339173185 L 578.257812480093 470.2070312956348 L 575.4921871360857 472.05078118364327 L 571.6015626240405 469.7968752637971 L 569.2421877761371 466.8281251837034 L 567.0937497602426 464.57812479964923 L 563.5078123521525 461.40234342362965 L 559.5156254721223 459.9687495676335 L 557.0625003521563 459.5585935357958 L 553.374999552092 459.5585935357958 L 551.2265625602449 461.5039057916729 L 553.5781253121677 465.292968959664 L 555.3203128320747 465.90624972776277 L 560.6406246402767 466.8281251837034 L 564.1249996802653 468.7734374398133 L 563.2031252481393 472.5624995836988 L 560.9531248641433 473.17968793574255 L 557.6718745601829 472.9726566396421 L 552.7578122242703 473.4843750396976 L 549.8906245121034 476.660156415659 L 550.5078128641471 479.5273441277095 L 551.7343754240428 481.7812500477885 L 551.9375001602457 484.95312486373587 L 549.0703124480788 491.40624998376006 L 543.9531253761379 494.98828083177796 L 540.9843752961606 495.50000025570625 L 537.5000002561719 495.08984422369394 L 534.53125017602 493.96484403166687 L 532.4843745282851 492.8398438396398 L 528.9999994882965 492.0195307516842 L 525.4140620802063 492.63281254365575 L 522.7578122240375 493.6562503676978 L 519.2734371840488 493.2499998716521 L 512.0000000000582 492.63281254365575 L 507.3984378881287 492.4296878076275 L 502.78906265628757 490.58593791973544 L 499.20312524819747 489.35546879965113 L 492.64843776018824 487.30859417573083 L 490.2968739841599 486.695315455785 L 487.6328120320686 486.6953123837011 L 482.0000000001164 487.41015654377406 L 478.10937548818765 488.2304686077987 L 475.4453125122236 488.0273438717122 L 472.78124953625957 488.43749990372453 L 468.5859379202011 489.66406246379483 L 464.69531238405034 490.27734425576637 L 460.70312550419476 490.6875002877787 L 457.93750016007107 490.0742184956325 L 454.7578122240957 489.9726561277639 L 450.05468774412293 490.58593791973544 L 446.1640622080886 491.71093708771514 L 443.5000002562301 491.917968383641 L 440.1171875841683 490.27734425576637 L 436.9453127682209 488.640624639811 L 433.66406246402767 486.18359398364555 L 430.4921876482549 484.3398440956371 L 426.3984373761341 483.62109337572474 L 422.8124999681022 483.31640627165325 L 420.8671877121669 482.1874995197286 L 418.8203120640246 480.6523432956892 L 417.8984376322478 478.80859340779716 L 419.32812492811354 474.9179688956938 L 415.7499996162951 474.50781286368147 L 412.98437529610237 475.4296872957493 L 409.5000002561137 477.4804684796836 L 405.3046876161825 479.11718707182445 L 403.156249600288 476.76171878370224 L 401.6190064641414 476.31810559978476 L 399.2578129922622 475.63671859167516 L 395.6796876800363 473.7929687036667 L 389.5312496640836 472.05078118364327 L 386.05468774418114 471.53906278376235 L 384.0000000001746 471.64062515163096 L 379.6015626240405 473.17968793574255 L 375.7109370881808 474.1015623676358 L 370.4843745281105 474.81640652765054 L 366.28906291205203 474.81640652765054 L 363.01562470413046 475.019531263737 L 360.3515627522138 475.53124966379255 L 356.66406297602225 476.1484369917307 L 354.7187496960396 476.558594047674 L 352.3593748481362 476.45312511973316 L 350.4140625920263 475.9414067196776 L 347.9609374720603 475.12500019179424 L 344.3750000640284 474.30468710372224 L 341.609374720254 472.5624995836988 L 339.6640624641441 471.0273433596594 L 336.69531238416675 470.5156249597785 L 332.70312550419476 470.6171873276471 L 326.55468748824205 467.648437247728 L 323.281250304135 466.5234370557009 L 320.3125002241577 465.80468735971954 L 317.0312499202555 464.26953113568015 L 315.5000002560555 460.99218739179196 L 313.96093747217674 458.3281254397589 L 309.86718720011413 456.7929692156613 L 306.5859379201429 456.0781250556465 L 302.18749952019425 455.2578129917965 L 299.6249999361462 454.6445311996504 L 297.6796876802691 452.80078131181654 L 295.5312496640254 451.0585937917931 L 293.1718748162966 448.49999974371167 L 289.281250304135 447.26953164767474 L 285.90624972828664 446.8593745917897 L 281.90624972822843 446.14453145564767 L 280.5781248001731 443.4804684796836 L 277.7109370881226 439.07812454376835 L 274.64062464021845 435.18750003166497 L 274.1249996802071 433.34375014383113 L 274.0234373121639 431.08984422375215 L 273.4140620800317 427.6093747197301 L 271.97656268818537 423.30859417578904 L 270.03125043207547 423.30859417578904 L 267.46874982415466 423.7187502076267 L 265.5234375682194 425.1523440637975 L 263.6796876801527 427.6093747197301 L 262.04687462421134 429.76171827176586 L 258.46093721617945 430.27343769569416 L 254.97656217613257 428.5312501757289 L 252.10937548818765 428.7343749117572 L 249.45312460814603 429.35156223975355 L 246.37500006408663 428.22265651170164 L 243.50781235203613 426.3828121596598 L 241.25781299214577 424.64062463963637 L 238.4921876481385 422.48828108765883 L 237.2656250880682 419.62109337578295 L 236.0390625281725 416.5507809277042 L 234.29687500809086 413.99218790372834 L 230.71093760005897 411.8398433276452 L 227.74218752008164 407.64062515168916 L 229.99218790407758 404.77343743963866 L 234.19531264004763 403.44531251175795 L 235.82812467217445 402.21484339179005 L 237.6718745601247 400.67968716775067 L 239.41406208014814 400.26953113573836 L 241.25781299214577 399.7578127356828 L 244.32812544016633 399.44921907171374 L 247.40624998422572 399.3476567036705 L 250.06249984004535 399.1445309436531 L 254.05468774412293 399.44921907171374 L 256.61718732805457 401.7031249917345 L 258.5624995842227 403.6484372477862 L 260.60937523213215 402.6250004477333 L 263.27343718422344 400.3710935037816 L 266.55468748830026 399.7578127356828 L 269.00781260820804 398.4257812476717 L 272.39062528003706 395.45703116763616 L 272.39062528003706 392.2812497917912 L 270.7500001282897 388.1874995196704 L 267.6796876801527 385.832031231781 L 265.5234375682194 384.80859340779716 L 262.250000384287 383.57812531176023 L 258.6640629761969 382.85937459167326 L 255.89843763207318 383.16796825564234 L 252.92968755221227 384.4999997437699 L 250.06249984004535 385.72656230366556 L 247.09374976006802 387.5703121917322 L 244.64062464010203 389.1093749756692 L 241.7734379521571 390.0273438717704 L 237.87500032020034 389.4140620797407 L 234.70312550413655 389.1093749756692 L 232.0390625281725 387.7773434876581 L 228.04687462409493 386.54687539179577 L 229.07031244813697 380.3007815676974 L 231.2187504641479 376.5117183997063 L 233.28936857625376 371.74998323171167 L 233.5781253122259 371.08593766367994 L 237.06250035221456 369.2421877756715 L 240.4374999042484 362.8945315836463 L 238.9062502401066 360.12890623969724 L 235.00781260814983 362.48437452776125 L 229.5859374081483 363.3046876156586 L 227.02343782421667 367.6054691837635 L 222.62500044814078 371.90624972770456 L 214.12499968026532 370.36718796769856 L 210.74218700802885 371.08593766367994 L 208.1796874240972 374.1562501117587 L 208.1796874240972 376.41015603166306 L 207.156249600288 379.3789061116986 L 203.78125004825415 380.5078128637979 L 204.18749952001963 384.80859340779716 L 206.33593753626337 389.0039060477284 L 208.28906291205203 393.6132812797441 L 209.10156288015423 396.4804689917946 L 209.51562547212234 399.9609374717693 L 208.07812710414873 403.54687897575786 L 205.72656230413122 404.570312703785 L 203.2656250882428 403.13671884773066 L 199.9921879041358 402.4179691517493 L 196.3046871041879 401.6015626236913 L 193.9453122560517 405.18359347165097 L 192.51562496006954 408.8710932477261 L 192.10937548824586 411.63671859173337 L 189.85156300815288 413.68359423975926 L 187.70312499225838 414.7070310396375 L 186.06249984010356 416.85937459167326 L 183.812500480155 419.62109337578295 L 179.20312524808105 420.23828172765207 L 177.97656268801074 424.12890623963904 L 177.6640624642023 427.09765631967457 L 178.17968742427183 431.7070315516903 L 180.74218700820347 433.550781439757 L 184.63281254417961 434.4726558716502 L 187.60156262415694 437.44140595168574 L 189.7499996162951 440.20312473585363 L 190.77343744027894 443.3789061116404 L 189.7499996162951 445.53124966367614 L 187.60156262415694 448.49999974371167 L 184.9374996481929 449.7265623038402 L 183.19531212816946 449.8320312317228 L 179.92187494429527 448.7031255037291 L 176.75000012811506 447.0664058877155 L 173.88281241629738 445.22265599970706 L 170.29687500814907 444.40234393568244 L 167.63281203212682 443.6874997758423 L 163.9453122561099 443.89062451169593 L 161.38281267229468 446.55468748766 L 158.92968755203765 447.8867189756711 L 155.96093747206032 448.49999974371167 L 152.27343769627623 451.26562508771894 L 152.6796871680417 453.4140620796825 L 152.27343769627623 457.5117189117009 L 148.89062502403976 462.3242188798031 L 142.9531248640851 468.4687503356836 L 140.18749952007784 470.2070312956348 L 136.49999974423554 471.23046911979327 L 132.60937523207394 472.9726566396421 L 132.60937523207394 476.0468746236875 L 133.84374988806667 479.62890649575274 L 130.7656253441237 484.4414064636803 L 129.33593702415237 486.89843711978756 L 128.3125002241577 488.8437503997702 L 126.26562457624823 490.17578086367575 L 123.39843788801227 490.17578086367575 L 119.39843788801227 489.2539064317825 L 116.64062464016024 488.742187007796 L 114.179687424039 487.1054684157134 L 110.49218764808029 487.30859417573083 L 110.28906291222665 490.99609395174775 L 111.41406208026456 493.96484403166687 L 109.77343795221532 498.4687503358 L 106.70312550407834 499.5976560637937 L 101.68749977607513 499.3906247676932 L 97.79687526402995 500.2109378557652 L 98.3046871041297 502.9765621756669 L 98.82031206414104 506.25390591972973 L 97.4921871360275 509.835937791795 L 95.64843724807724 512.4999997436535 L 92.98437529621879 515.7773434877163 L 88.78124953614315 518.2343751677545 L 87.7578127362649 521.0000005117618 L 86.42968780815136 524.1718753277091 L 84.78906265605474 526.2226565117016 L 77.10937497601844 525.3007810557028 L 74.34374963201117 525.3007810557028 L 70.14843699213816 525.7109370877151 L 67.17968793615 526.4257812477299 L 65.43750041606836 527.6562503676978 L 62.164062208204996 529.089844223694 L 59.18750003218884 531.749999615713 L 59.90624972817022 535.0273433597758 L 62.3671879680478 538.2031247357954 L 60.10937548824586 541.9921879037865 L 57.24218777602073 544.7539066877216 L 54.687500288011506 546.7031255036709 L 51.20312524802284 547.726562303782 L 47.71875020803418 549.1601561597781 L 43.42187520011794 549.671874559659 L 41.78125004819594 552.1289062396972 L 43.828124672174454 555.3046876157168 L 46.18749952001963 558.1679687676951 L 44.750000128056854 560.6289059836417 L 40.85937459213892 562.2656245757244 L 42.39843737601768 564.1093754876638 L 44.8515624962165 565.9531253757305 L 45.46874982403824 570.1523435516283 L 43.72656230413122 573.121093631722 L 37.687499776133336 574.5546874877182 L 35.02343782427488 574.75781222363 L 32.257812480209395 572.4023439357406 L 30.210937856289092 569.8437498876592 L 27.4453125121654 568.4101560316631 L 25.50000025628833 567.3867192317266 L 21.093749760242645 564.3125002237502 L 16.796874752035365 562.6757816316676 L 12.804687872063369 561.4453125116997 L 10.445312000112608 560.8320317436592 L 6.453125120024197 559.1953121276456 L 3.0781245441758074 558.1718753277091 L 0.31250022421590984 556.2226565118181 L 0.0 556.0776887664251" fill="none"/><path stroke="#000000" stroke-width="2" d="M 0.0 284.0468746236875 L 0.4140625920263119 284.0468746236875 L 9.624999936087988 284.1484369917307 L 20.68750028818613 284.0468746236875 L 34.3046871041297 284.0468746236875 L 41.374999552208465 283.9414067196776 L 70.35156275215559 283.9414067196776 L 80.89843712002039 283.8398433277616 L 96.87499980826396 283.8398433277616 L 111.9296870402759 283.7382809597184 L 117.04687513608951 283.7382809597184 L 148.68750028818613 283.63671859167516 L 161.59374950412894 283.63671859167516 L 176.9531248640851 283.7382809597184 L 192.92187545623165 283.7382809597184 L 196.60937523201574 283.4296872957493 L 205.55753472005017 283.6507330557215" fill="none"/><path stroke="#408040" stroke-width="3" d="M 800.0186764922692 0.0 L 785.8380800000014 13.60895999999775 L 770.2937600000005 13.783040000002075 L 728.0025599999935 16.394240000001446 L 660.5519725714112 0.0" fill="none"/><path stroke="#408040" stroke-width="3" d="M 313.458540032836 0.0 L 293.3862400000071 15.882239999999001 L 242.18623999999545 22.04671999999846 L 222.9247999999934 13.025280000001658 L 203.05920000000333 26.214399999997113 L 193.51552000000083 38.543360000003304 L 182.476800000004 45.4860800000024 L 165.62175999999454 37.72415999999794 L 155.93472000000475 43.5199999999968 L 135.14751999999862 34.46783999999752 L 66.49856000000727 22.712319999998726 L 14.807039999999688 9.451520000002347 L 0.0 6.681743227789411" fill="none"/><path stroke="#408040" stroke-width="3" d="M 800.0186764922692 0.0 L 785.8380800000014 13.60895999999775 L 778.0351999999984 15.636480000001029 L 770.2937600000005 13.783040000002075 L 750.8684800000046 14.960639999997511 L 741.1199999999953 17.500160000003234 L 728.0025599999935 16.394240000001446 L 707.9628800000064 10.987520000002405 L 691.3126400000037 6.707199999997101 L 675.2972799999989 0.5836800000033691 L 665.9295049504435 0.0" fill="none"/><path stroke="#408040" stroke-width="3" d="M 314.1883267226949 0.0 L 306.00191999999515 8.140800000001036 L 300.8512000000046 13.17887999999948 L 293.3862400000071 15.882239999999001 L 265.19551999999385 21.309439999997267 L 251.56608000000415 23.21407999999792 L 242.18623999999545 22.04671999999846 L 222.9247999999934 13.025280000001658 L 203.05920000000333 26.214399999997113 L 193.51552000000083 38.543360000003304 L 190.16704000000027 44.70784000000276 L 182.476800000004 45.4860800000024 L 174.16191999999864 38.14400000000023 L 165.62175999999454 37.72415999999794 L 155.93472000000475 43.5199999999968 L 135.14751999999862 34.46783999999752 L 110.76608000000124 29.081599999997707 L 66.49856000000727 22.712319999998726 L 14.807039999999688 9.451520000002347 L 0.0 8.084407006113906" fill="none"/><path stroke="#408040" stroke-width="3" d="M 232.66303999999946 14.417919999999867 L 234.2092799999955 15.042560000001686 L 236.30848000000697 17.684480000003532 L 238.4076800000039 19.968000000000757 L 241.25440000000526 21.012479999997595 L 246.2924800000037 22.855680000000575 L 249.85599999999977 24.248319999998785 L 256.09216000000015 26.183680000001914 L 261.0995200000034 26.388480000001437 L 263.6492799999978 27.12576000000263 L 264.44800000000396 27.340799999998126 L 265.2774400000053 26.531840000003285 L 266.24000000000524 25.958400000003166 L 269.0457599999936 24.913919999999052 L 271.462400000004 23.74655999999959 L 284.1088000000018 19.384319999997388 L 290.2630400000053 17.704960000002757 L 297.08288000000175 16.45567999999912 L 304.49663999999757 13.619200000001001 L 310.46656000000075 9.850879999998142 L 315.29984000000695 6.584320000001753 L 320.0438221117947 0.0" fill="none"/><path stroke="#408040" stroke-width="3" d="M 672.2267088372028 0.0 L 672.7782399999996 0.122880000002624 L 676.823040000003 1.0956799999985378 L 679.8847999999998 2.815999999998894 L 687.5545600000041 4.843520000002172 L 695.1014399999985 8.857600000003004 L 699.1564800000051 9.973760000000766 L 704.4300800000055 10.04544000000169 L 710.5843199999945 12.30847999999969 L 714.1785600000003 13.864959999998973 L 718.9504000000015 14.469120000001567 L 724.4697600000072 15.124479999998584 L 730.9926399999968 17.438719999998284 L 736.645120000001 17.704960000002757 L 742.9836800000048 17.28512000000046 L 752.0255999999936 14.745600000002014 L 757.0227199999936 13.588479999998526 L 763.2486400000053 13.158400000000256 L 771.9731199999951 14.366719999998168 L 776.560639999996 15.636480000001029 L 781.3427200000006 15.616000000001804 L 785.2032000000036 14.23359999999957 L 788.3673600000038 11.458559999999125 L 794.6137599999929 4.5772799999977 L 800.3416131147533 0.0" fill="none"/></svg>