<svg xmlns="http://www.w3.org/2000/svg" width="1024" height="1024"><rect stroke="none" x="0" y="0" width="1024" height="1024" fill="white"/><path stroke="#000000" stroke-width="2" d="M 0.0 1.484713599056704 L 2.3046871040714905 1.4960936958086677 L 4.7138816000078805 1.5235481598065235 L 31.235481600102503 1.6259481598972343 L 32.85822976002237 1.6259481598972343 L 41.102223360096104 1.6497766398824751 L 42.268446720030624 1.6497766398824751 L 48.86975488002645 1.6762367999181151 L 56.42588160006562 1.7283481598133221 L 73.28906240005745 1.785156607918907 L 87.4097766400082 1.8488934398046695 L 95.62214400002267 1.8717982718953863 L 107.82812467211625 1.9335935998242348 L 125.82031257607741 2.0039065598975867 L 133.97332992008887 2.0479999998933636 L 147.445312512049 2.109375488013029 L 171.42108160001226 2.240348159801215 L 197.32812492811354 2.3437496318365447 L 236.24028160009766 2.547548159956932 L 240.51780915202107 2.547548159956932 L 251.25022617611103 2.5875937279197387 L 255.28906240005745 2.7539066879544407 L 290.6250004480826 2.7539066879544407 L 296.60679987201 2.7791380478302017 L 304.8515624960419 2.8554690559394658 L 337.3765242880909 2.9542225918849 L 372.28124979208224 3.1015628799796104 L 434.4843745280523 3.414062079915311 L 459.2265625600703 3.3671874558203854 L 490.3984373760759 3.3671874558203854 L 532.078125056054 3.2656250879517756 L 549.2778536960832 3.215610879822634 L 568.2031247360865 3.187500031897798 L 624.0606146560749 3.059548159944825 L 631.1970816000248 3.059548159944825 L 640.8906250240398 3.0234378238674253 L 658.6015621121041 2.9882808319525793 L 678.5578885120922 2.957148160028737 L 697.0402816000278 2.957148160028737 L 738.921875456057 2.8554690559394658 L 746.8046878720634 2.8554690559394658 L 759.1953121281113 2.8554690559394658 L 770.0593305600341 2.8017612798139453 L 780.2031247360865 2.7890626559383236 L 795.3046876160079 2.7539066879544407 L 816.8515624960419 2.7539066879544407 L 840.7578122240957 2.6406246399274096 L 875.0908477440826 2.547548159956932 L 895.1842816000571 2.547548159956932 L 936.8593745920225 2.4453119998797774 L 958.8749998080893 2.3437496318365447 L 982.5312501760782 2.4453119998797774 L 986.2178816000815 2.547548159956932 L 1020.0098816000391 2.547548159956932 L 1023.1875000320142 2.3437496318365447 L 1024.0 2.3284826262606657" fill="none"/></svg>