<svg xmlns="http://www.w3.org/2000/svg" width="1024" height="1024"><rect stroke="none" x="0" y="0" width="1024" height="1024" fill="white"/><path stroke="#408040" stroke-width="3" d="M 0.0 313.1179562073303 L 5.39647999999579 311.91040000000066 L 14.254079999998794 309.91359999999986 L 31.01695999999356 306.145279999997 L 48.977920000004815 302.11071999999695 L 66.06848000000173 298.2809599999964 L 75.57120000000577 296.22271999999793 L 99.58400000000256 291.4713600000032 L 136.2022399999987 284.22144000000117 L 144.52735999999277 282.59328000000096 L 154.52159999999276 280.83200000000215 L 201.1750400000019 272.65024000000267 L 219.67871999999625 269.4144000000015 L 230.55359999999928 267.53024000000005 L 239.21663999999873 266.27072000000044 L 258.59071999999287 263.50592000000324 L 270.4383999999991 261.8060800000021 L 290.6009599999961 258.92863999999827 L 313.9276799999934 255.61088000000018 L 319.32416000000376 254.7916800000021 L 322.2323199999955 254.15679999999702 L 331.6735999999946 251.61727999999857 L 352.61440000000584 245.98528000000078 L 382.32064000000537 237.9878400000016 L 384.665599999993 237.23008000000118 L 388.4748799999943 235.6736000000019 L 394.32192000000214 232.9907200000016 L 406.0876799999969 227.59423999999854 L 422.2156799999939 220.20096000000194 L 441.87648000000627 211.15903999999864 L 459.1513600000035 203.21280000000115 L 462.68416000000434 201.58464000000095 L 466.7494399999996 199.8847999999998 L 470.06720000000496 198.81983999999647 L 474.9004799999966 197.50912000000244 L 492.8819199999998 192.66560000000027 L 515.2460799999972 186.6342399999994 L 529.2134400000068 182.85568000000058 L 552.9088000000047 176.45567999999912 L 577.2083200000052 169.4924800000008 L 600.6272000000026 162.77504000000044 L 617.4208000000071 157.9212800000023 L 634.3475199999957 151.8284799999965 L 640.2457600000052 149.70880000000034 L 644.1574399999954 148.28543999999965 L 647.2908800000005 146.94400000000314 L 649.4515200000023 145.84831999999733 L 651.345920000007 144.74240000000282 L 653.9571200000064 142.9606399999975 L 656.8959999999934 140.5440000000017 L 659.691519999993 137.68703999999707 L 662.067200000005 134.7583999999988 L 664.1049599999969 132.2086399999971 L 665.6409600000043 130.32448000000295 L 667.5251200000057 128.33791999999812 L 670.6790400000027 125.59360000000015 L 684.6156800000026 115.38431999999739 L 712.9600000000064 94.69952000000194 L 763.7606399999931 57.692159999998694 L 823.0092799999984 14.510080000000016 L 828.0985599999985 10.874880000003031 L 831.1500800000067 9.144319999999425 L 833.8124799999932 7.936000000001513 L 836.823040000003 6.8608000000022 L 840.4889600000024 5.92895999999746 L 846.9606400000048 4.597759999996924 L 864.8499199999933 0.9318399999974645 L 868.2483952941111 0.0" fill="none"/></svg>