<svg xmlns="http://www.w3.org/2000/svg" width="1024" height="1024"><rect stroke="none" x="0" y="0" width="1024" height="1024" fill="white"/><path stroke="#000000" stroke-width="2" d="M 1024.0 3.8789058559341356 L 1015.9138816000195 3.8789058559341356 L 1006.6953123840503 3.8789058559341356 L 981.4062499840511 4.082031615951564 L 976.179687424039 4.082031615951564 L 972.289062912052 4.1874995199614204 L 966.0468746240367 4.1874995199614204 L 925.1875000320142 4.492187647963874 L 901.1250001920271 4.699218943947926 L 895.6953128960449 4.699218943947926 L 882.281249792024 4.800781311932951 L 878.4921876480221 4.800781311932951 L 874.3984373760177 4.902343679917976 L 857.195312128053 4.902343679917976 L 847.6718745600083 5.003906047961209 L 843.9843747840496 5.003906047961209 L 838.4531251200242 5.109374975960236 L 819.9218749440624 5.210937343945261 L 803.2265625600121 5.414062079973519 L 799.7499996160623 5.312499711930286 L 786.1249996800325 5.414062079973519 L 774.4531251200242 5.414062079973519 L 767.4921871360275 5.515625471947715 L 743.2187504640315 5.722655743942596 L 720.6953123840503 6.02734387194505 L 717.1093749760184 6.02734387194505 L 704.2109378560563 6.234375167929102 L 694.2734376960434 6.234375167929102 L 677.0703124480206 6.644531199941412 L 647.5781253120513 6.746093567926437 L 639.4921871360275 6.644531199941412 L 606.0078120960388 6.644531199941412 L 600.5781248000567 6.542968831956387 L 583.8906245120452 6.4374999039573595 L 562.6953123840503 6.4374999039573595 L 550.914062336029 6.3359375359723344 L 533.6093747200212 6.3359375359723344 L 525.828124672058 6.234375167929102 L 512.8203120640246 6.234375167929102 L 508.10937548801303 6.3359375359723344 L 492.1406248960411 6.3359375359723344 L 476.2656245760154 6.234375167929102 L 473.9140628480236 6.132812799944077 L 423.7343754240428 6.02734387194505 L 394.65624985605245 6.02734387194505 L 383.4921871360275 6.542968831956387 L 377.554688000062 6.542968831956387 L 363.52343756804476 6.746093567926437 L 305.97656268801074 6.746093567926437 L 300.5468753920286 6.644531199941412 L 240.74218700802885 6.644531199941412 L 219.96093747206032 6.746093567926437 L 163.74218752002344 6.746093567926437 L 146.84375040006125 6.847655935969669 L 0.0 6.847655935969669" fill="none"/><path stroke="#000000" stroke-width="2" d="M 0.0 6.847655935969669 L 146.84375040006125 6.847655935969669 L 163.74218752002344 6.746093567926437 L 219.96093747206032 6.746093567926437 L 240.74218700802885 6.644531199941412 L 300.5468753920286 6.644531199941412 L 305.97656268801074 6.746093567926437 L 363.52343756804476 6.746093567926437 L 377.554688000062 6.542968831956387 L 383.4921871360275 6.542968831956387 L 394.65624985605245 6.02734387194505 L 423.7343754240428 6.02734387194505 L 473.9140628480236 6.132812799944077 L 476.2656245760154 6.234375167929102 L 492.1406248960411 6.3359375359723344 L 508.10937548801303 6.3359375359723344 L 512.8203120640246 6.234375167929102 L 525.828124672058 6.234375167929102 L 533.6093747200212 6.3359375359723344 L 550.914062336029 6.3359375359723344 L 562.6953123840503 6.4374999039573595 L 583.8906245120452 6.4374999039573595 L 600.5781248000567 6.542968831956387 L 606.0078120960388 6.644531199941412 L 639.4921871360275 6.644531199941412 L 647.5781253120513 6.746093567926437 L 677.0703124480206 6.644531199941412 L 694.2734376960434 6.234375167929102 L 704.2109378560563 6.234375167929102 L 717.1093749760184 6.02734387194505 L 720.6953123840503 6.02734387194505 L 743.2187504640315 5.722655743942596 L 767.4921871360275 5.515625471947715 L 774.4531251200242 5.414062079973519 L 786.1249996800325 5.414062079973519 L 799.7499996160623 5.312499711930286 L 803.2265625600121 5.414062079973519 L 819.9218749440624 5.210937343945261 L 838.4531251200242 5.109374975960236 L 843.9843747840496 5.003906047961209 L 847.6718745600083 5.003906047961209 L 857.195312128053 4.902343679917976 L 874.3984373760177 4.902343679917976 L 878.4921876480221 4.800781311932951 L 882.281249792024 4.800781311932951 L 895.6953128960449 4.699218943947926 L 901.1250001920271 4.699218943947926 L 925.1875000320142 4.492187647963874 L 966.0468746240367 4.1874995199614204 L 972.289062912052 4.1874995199614204 L 976.179687424039 4.082031615951564 L 981.4062499840511 4.082031615951564 L 1006.6953123840503 3.8789058559341356 L 1015.9138816000195 3.8789058559341356 L 1024.0 3.8789058559341356" fill="none"/><path stroke="#408040" stroke-width="3" d="M 1024.0 263.440945687762 L 1014.4358400000056 263.7516800000012 L 972.2265599999955 257.21856000000116 L 870.133759999997 232.94976000000315 L 852.6848000000027 231.8643200000006 L 831.4572800000024 235.65312000000267 L 813.7318399999931 229.14048000000184 L 740.1676799999987 217.7433600000004 L 649.7177599999995 146.50368000000162 L 636.8051200000045 136.18175999999949 L 612.4339199999959 122.27584000000206 L 584.6732800000027 117.85216000000219 L 586.0249599999952 109.62943999999698 L 588.4620799999975 92.13951999999699 L 568.279039999994 84.40832000000228 L 551.7004799999995 68.13696000000346 L 537.8764800000063 42.987520000002405 L 532.7155199999979 24.30975999999646 L 528.7628799999948 16.383999999998196 L 531.5276799999992 7.966719999996712 L 531.9720602150628 0.0" fill="none"/></svg>