<svg xmlns="http://www.w3.org/2000/svg" width="1024" height="1024"><rect stroke="none" x="0" y="0" width="1024" height="1024" fill="white"/><path stroke="#000000" stroke-width="2" d="M 823.9140628480236 1021.531249663909 L 835.5859374080319 1021.6328120319522 L 859.1406254080939 1021.6328120319522 L 884.3298816000461 1021.7347481599427 L 894.6722816000693 1021.7347481599427 L 923.2418816000572 1021.8371481598588 L 926.726579200069 1021.8371778559522 L 959.1796879360336 1022.1445314558805 L 994.5122816000949 1022.6563481599442 L 1009.7275535360095 1022.7463792638737 L 1015.7314600960817 1022.833292287949 L 1024.0 1022.989563195988" fill="none"/><path stroke="#000000" stroke-width="2" d="M 249.66646613193734 1024.0 L 248.82031206402462 1023.0546872318955 L 248.1337927680579 1022.127956991957 L 247.96252876805374 1021.8671871998813 L 275.96874956804095 1021.8671871998813 L 292.8671877120505 1021.839843327878 L 368.5410816000076 1021.8371481598588 L 374.15625011204975 1021.800780799822 L 383.74400000006426 1021.7813299199333 L 407.4097766401246 1021.7813299199333 L 464.04389683215413 1021.7347481599427 L 515.0754816000117 1021.7347481599427 L 521.5155988481129 1021.6810803198605 L 527.3281249281717 1021.667969023867 L 575.3203128320165 1021.6406251518638 L 607.3378816000186 1021.7347481599427 L 638.672281600011 1021.7347481599427 L 653.3124997121049 1021.6328120319522 L 697.1406254080357 1021.6328120319522 L 714.9837803520495 1021.5629271038924 L 752.8359372800332 1021.5546879999456 L 763.9921879040776 1021.531249663909 L 823.9140628480236 1021.531249663909" fill="none"/></svg>