<svg xmlns="http://www.w3.org/2000/svg" width="1024" height="1024"><rect stroke="none" x="0" y="0" width="1024" height="1024" fill="white"/><path stroke="#000000" stroke-width="2" d="M 831.8173117904807 1024.0 L 826.3750000640284 1022.7578122239211 L 820.8437504000613 1022.7578122239211 L 817.9765626880107 1022.8593745919643 L 809.7812500480213 1022.7578122239211 L 774.5546874880092 1022.7578122239211 L 767.1875000320142 1022.8593745919643 L 757.7656248320127 1022.8593745919643 L 753.9765626880107 1022.9648435199633 L 735.7499996160623 1023.0625003519235 L 730.1249996800325 1022.8749998079729 L 650.4374999040156 1022.8749998079729 L 648.645960704016 1022.844763135945 L 639.1875000320142 1022.6875002879533 L 629.7499996160623 1022.6875002879533 L 593.5156254720641 1022.8593745919643 L 572.6250004480244 1022.8593745919643 L 567.5000002560555 1022.8749998079729 L 562.562499584048 1022.8749998079729 L 552.5546874880092 1023.0664058879483 L 542.812499968044 1023.0625003519235 L 502.9999994880636 1023.0625003519235 L 489.42606131202774 1023.2422871039598 L 484.14843699202174 1023.2695316479658 L 470.83593728003325 1023.2695316479658 L 464.9531248640269 1023.3124997119303 L 452.62500044802437 1023.3124997119303 L 427.7265623040148 1023.5000002559391 L 416.25000038405415 1023.4765629439498 L 413.6406251520384 1023.5000002559391 L 405.3124997120467 1023.5000002559391 L 386.1249996800325 1023.6874997759587 L 385.898437632015 1023.6679690239253 L 383.8125004800386 1023.5000002559391 L 370.9999994880636 1023.5000002559391 L 360.5546874880092 1023.6796876799199 L 358.3046871040133 1023.6796876799199 L 352.25000038405415 1023.6874997759587 L 322.2578124800348 1023.6796876799199 L 312.3203123200219 1023.6796876799199 L 306.06249984004535 1023.6874997759587 L 297.56250009604264 1023.6874997759587 L 277.5000002560555 1023.8750003199675 L 255.1875000320142 1023.8750003199675 L 247.5000002542365 1024.0" fill="none"/><path stroke="#000000" stroke-width="2" d="M 247.5000002542365 1024.0 L 255.1875000320142 1023.8750003199675 L 277.5000002560555 1023.8750003199675 L 297.56250009604264 1023.6874997759587 L 306.06249984004535 1023.6874997759587 L 312.3203123200219 1023.6796876799199 L 322.2578124800348 1023.6796876799199 L 352.25000038405415 1023.6874997759587 L 358.3046871040133 1023.6796876799199 L 360.5546874880092 1023.6796876799199 L 370.9999994880636 1023.5000002559391 L 383.8125004800386 1023.5000002559391 L 385.898437632015 1023.6679690239253 L 386.1249996800325 1023.6874997759587 L 405.3124997120467 1023.5000002559391 L 413.6406251520384 1023.5000002559391 L 416.25000038405415 1023.4765629439498 L 427.7265623040148 1023.5000002559391 L 452.62500044802437 1023.3124997119303 L 464.9531248640269 1023.3124997119303 L 470.83593728003325 1023.2695316479658 L 484.14843699202174 1023.2695316479658 L 489.42606131202774 1023.2422871039598 L 502.9999994880636 1023.0625003519235 L 542.812499968044 1023.0625003519235 L 552.5546874880092 1023.0664058879483 L 562.562499584048 1022.8749998079729 L 567.5000002560555 1022.8749998079729 L 572.6250004480244 1022.8593745919643 L 593.5156254720641 1022.8593745919643 L 629.7499996160623 1022.6875002879533 L 639.1875000320142 1022.6875002879533 L 648.645960704016 1022.844763135945 L 650.4374999040156 1022.8749998079729 L 730.1249996800325 1022.8749998079729 L 735.7499996160623 1023.0625003519235 L 753.9765626880107 1022.9648435199633 L 757.7656248320127 1022.8593745919643 L 767.1875000320142 1022.8593745919643 L 774.5546874880092 1022.7578122239211 L 809.7812500480213 1022.7578122239211 L 817.9765626880107 1022.8593745919643 L 820.8437504000613 1022.7578122239211 L 826.3750000640284 1022.7578122239211 L 831.8173117904807 1024.0" fill="none"/><path stroke="#408040" stroke-width="3" d="M 601.5817700177286 0.0 L 599.8592000000062 4.976640000000771 L 592.9471999999951 19.722240000002785 L 573.276159999994 67.51232000000164 L 572.4467200000072 85.57568000000174 L 579.7273600000044 109.04576000000088 L 594.0736000000034 140.42111999999906 L 603.176959999997 164.1267200000002 L 617.9123200000031 180.21375999999873 L 656.0972800000018 208.13824000000022 L 682.8339200000046 203.58144000000175 L 714.0351999999984 205.07648000000336 L 750.7046399999963 205.49631999999838 L 772.1472000000067 210.36031999999977 L 787.732480000006 223.5494400000025 L 789.4527999999991 241.1724800000011 L 794.9721600000048 289.5257599999968 L 802.6111999999994 332.02176000000327 L 810.9772800000064 360.857600000003 L 824.5760000000009 404.65408000000025 L 839.7619200000045 442.2963200000013 L 848.1791999999987 474.8185599999997 L 850.1964799999987 522.1478399999978 L 849.735679999998 555.4892800000016 L 842.3014399999956 572.5696000000025 L 827.9449599999934 601.5999999999985 L 796.139519999997 660.643839999997 L 792.494080000004 677.1507199999978 L 801.136639999997 696.2380800000028 L 809.0726399999985 712.0998400000026 L 810.229760000002 728.4838400000008 L 794.9209600000031 770.1606400000019 L 787.6607999999978 783.5648000000001 L 780.3392000000022 794.9824000000008 L 779.2332800000004 808.6528000000035 L 782.5920000000042 831.5699200000017 L 792.6681600000011 847.7593599999964 L 798.5868800000026 867.4099199999982 L 798.0134399999952 887.3574399999998 L 800.3379200000054 926.9145599999974 L 799.6620799999946 962.8979200000031 L 815.3292800000054 1008.8038400000005 L 820.2601120107574 1024.0" fill="none"/></svg>