<svg xmlns="http://www.w3.org/2000/svg" width="1024" height="1024"><rect stroke="none" x="0" y="0" width="1024" height="1024" fill="white"/><path stroke="#408040" stroke-width="3" d="M 0.0 959.3634997073168 L 17.070080000004964 958.5152000000016 L 41.79967999999644 952.9856 L 82.8006400000013 944.4147200000007 L 110.48960000000079 943.226880000002 L 173.0969599999953 929.1673599999995 L 216.20736000000034 923.2179200000028 L 241.78687999999966 916.1113600000026 L 263.3318399999989 908.5747199999969 L 282.7161599999963 906.168319999997 L 305.3977600000071 905.6972800000003 L 326.4716800000024 900.8947199999966 L 432.127999999997 903.3011199999964 L 467.8041599999997 904.1305599999978 L 492.5644800000009 909.1276799999978 L 529.5923199999961 917.1353600000002 L 568.5043199999927 912.8447999999989 L 643.5532799999928 912.1791999999987 L 731.7196799999947 905.1340800000035 L 764.846080000003 901.4579200000007 L 798.9964800000016 886.0160000000033 L 814.325760000007 882.5343999999968 L 843.7247999999963 881.9199999999983 L 892.846080000003 882.0326399999976 L 927.7337600000028 880.6195200000002 L 1011.5583999999944 883.1999999999971 L 1024.0 883.735959145386" fill="none"/></svg>