<svg xmlns="http://www.w3.org/2000/svg" width="1024" height="1024"><rect stroke="none" x="0" y="0" width="1024" height="1024" fill="white"/><path stroke="#408040" stroke-width="3" d="M 481.0946672527498 1024.0 L 494.090240000005 1017.7740800000029 L 506.4704000000056 1014.415359999999 L 516.5158399999927 1012.2547199999972 L 540.0883199999953 1012.5004800000024 L 545.6281599999929 1012.5721600000034 L 551.8847999999998 1011.5891199999969 L 568.7091199999995 1007.8515199999965 L 582.0108800000016 1002.1785600000003 L 596.6848000000027 995.624960000001 L 617.3696000000054 986.5625599999985 L 636.8153599999932 976.2201599999971 L 640.5632000000041 975.237119999998 L 644.7308800000028 974.745600000002 L 654.1312000000034 973.6601599999995 L 668.9279999999999 971.9398399999991 L 676.0243199999968 971.120640000001 L 682.7827200000029 969.7280000000028 L 697.7126399999979 965.6319999999978 L 712.3558400000038 961.5974399999977 L 717.0355200000049 960.5427199999976 L 724.8588799999998 959.6108800000002 L 747.837440000003 957.1635200000019 L 790.4665600000008 952.6374399999986 L 797.491200000004 952.2483199999988 L 804.1881600000052 952.7910399999964 L 833.1263999999937 956.1907199999987 L 841.9123200000031 955.5763200000001 L 850.5856000000058 953.5590400000001 L 867.9936000000016 949.2377600000036 L 911.0425600000017 938.5574399999969 L 938.0351999999984 931.870719999999 L 952.6681600000011 928.5324800000017 L 960.5222400000057 927.6825600000011 L 967.5468799999944 924.6003199999977 L 974.8787199999933 921.5590400000001 L 993.351680000007 916.6131200000018 L 1011.4252799999958 911.8003200000021 L 1024.0 908.4441705931022" fill="none"/></svg>