<svg xmlns="http://www.w3.org/2000/svg" width="1024" height="1024"><rect stroke="none" x="0" y="0" width="1024" height="1024" fill="white"/><path stroke="#408040" stroke-width="3" d="M 1024.0 47.89351822692697 L 1015.3267199999973 47.87200000000303 L 993.1263999999937 52.88960000000225 L 975.8003199999948 41.973760000000766 L 928.2764800000004 26.347520000002987 L 771.8092800000013 19.26144000000204 L 672.0819199999969 41.43104000000312 L 567.1116800000018 59.4534399999975 L 446.2284800000052 62.81216000000131 L 398.44864000000234 68.72063999999955 L 339.0361600000033 66.69312000000355 L 291.26656000000366 98.1299199999994 L 275.8348799999949 110.55103999999847 L 258.0275200000033 112.26112000000285 L 199.73119999999471 111.31904000000213 L 123.38176000000385 109.54752000000008 L 66.27327999999397 114.13504000000103 L 0.0 137.89224941389693" fill="none"/><path stroke="#408040" stroke-width="3" d="M 1024.0 47.94922480349487 L 1022.9247999999934 47.953919999999925 L 1017.9788799999951 47.605759999998554 L 1013.9033599999966 48.10751999999775 L 1003.9398400000064 50.58559999999852 L 991.4777599999943 53.30943999999727 L 989.1635200000019 53.48352000000159 L 986.9619200000016 53.09440000000177 L 984.4121600000071 51.660799999997835 L 982.6611200000043 49.489919999999984 L 979.4252799999958 45.41440000000148 L 976.834560000003 42.885119999999006 L 972.8409600000014 39.700479999999516 L 967.2908800000005 36.075519999998505 L 964.1779200000019 34.672639999997045 L 961.7203199999931 33.15712000000349 L 958.8531199999998 32.19456000000355 L 955.1359999999986 31.41631999999663 L 951.4188799999974 30.228479999997944 L 944.1689599999954 28.078079999999318 L 937.2262400000036 26.798080000000482 L 926.0339200000017 26.19391999999789 L 911.4828799999959 24.31999999999971 L 893.0713600000017 23.75680000000284 L 855.7363199999963 22.53824000000168 L 817.0905599999969 20.684800000002724 L 783.7593599999964 19.148800000002666 L 776.2329599999939 18.964480000002368 L 769.6691200000059 19.527679999999236 L 761.6819200000027 21.278720000002068 L 752.4147200000007 24.09472000000096 L 717.209600000002 34.85695999999734 L 708.8435199999949 37.17119999999704 L 697.456640000004 38.6764800000019 L 667.1564800000051 41.973760000000766 L 640.9830400000064 44.820480000002135 L 634.0300799999968 45.639680000000226 L 626.124800000005 47.26784000000043 L 611.9526400000032 50.45247999999992 L 585.4617600000056 56.39168000000063 L 572.4159999999974 59.043839999998454 L 564.1830400000035 59.473919999996724 L 534.1593600000051 59.16672000000108 L 515.7580799999996 58.98240000000078 L 498.79039999999804 59.07456000000093 L 467.5379200000025 61.21472000000358 L 453.59103999999934 62.16704000000027 L 442.88000000000466 63.22176000000036 L 426.47552000000724 66.2323200000028 L 418.4780800000008 67.97312000000238 L 413.4400000000023 68.80255999999645 L 406.5280000000057 69.17119999999704 L 391.76192000000447 68.29056000000128 L 358.8198399999965 66.17087999999785 L 352.14336000000185 65.74079999999958 L 345.5795199999993 65.7305600000036 L 340.6643199999962 66.3654400000014 L 335.45216000000073 67.67616000000271 L 328.42751999999746 70.68671999999788 L 323.37919999999576 74.08640000000014 L 316.80512000000454 80.50688000000082 L 312.5862400000042 84.18304000000353 L 306.9132799999934 87.79776000000129 L 296.98047999999835 94.08512000000337 L 292.2086399999971 97.30047999999806 L 288.79872000000614 100.48511999999755 L 280.8524800000014 107.82719999999972 L 277.20703999999387 109.97759999999835 L 273.15200000000186 111.41120000000228 L 268.30848000000697 112.17919999999867 L 264.21248000000196 112.24064000000362 L 255.06815999999526 112.26112000000285 L 235.85791999999492 112.32256000000052 L 210.20672000000195 111.84128000000055 L 202.49599999999919 111.53407999999763 L 192.4505599999975 110.49983999999677 L 160.56320000000414 107.13087999999698 L 153.48735999999917 106.94655999999668 L 145.26463999999396 107.18207999999868 L 121.58976000000257 109.76256000000285 L 115.83487999999488 110.1209600000002 L 107.28448000000208 109.78304000000207 L 91.2896000000037 108.90239999999903 L 85.16607999999542 109.04576000000088 L 80.29184000000532 110.13120000000345 L 64.49151999999594 114.64704000000347 L 58.70591999999306 116.30591999999888 L 53.28896000000532 118.26176000000123 L 40.622080000001006 123.65823999999702 L 10.659839999992982 136.40703999999823 L 7.188479999997071 137.51296000000002 L 2.9183999999950174 138.15808000000106 L 0.0 138.3044304424766" fill="none"/></svg>