<svg xmlns="http://www.w3.org/2000/svg" width="1024" height="1024"><rect stroke="none" x="0" y="0" width="1024" height="1024" fill="white"/><path stroke="#000000" stroke-width="2" d="M 986.2790117863478 1024.0 L 987.8425600000191 1023.6262399999541 L 990.1718753280584 1023.6289064959274 L 992.76800000004 1023.0896639999701 L 994.3756800000556 1022.8326399999205 L 995.3984378880123 1023.183593471942 L 995.6718745600665 1023.6992184319533 L 995.6718745600665 1024.0" fill="none"/><path stroke="#000000" stroke-width="2" d="M 755.3828126720618 136.93749964796007 L 754.0703385600355 137.4999889919418 L 752.4454338560463 137.3124997119303 L 753.2579338240321 136.93749964796007 L 755.5078051840537 136.3125360639533 L 755.3828126720618 136.93749964796007" fill="none"/><path stroke="#000000" stroke-width="2" d="M 775.3828126720618 126.25000038393773 L 775.2578129920294 127.06250035192352 L 776.5079336960334 127.06250035192352 L 778.4454338560463 126.43749990395736 L 779.5704340480152 125.62499993597157 L 780.1953996800585 125.25002035195939 L 781.0078126080334 125.43750041595194 L 781.8203125760192 126.06249983992893 L 782.4454338560463 126.06249983992893 L 783.2579338240321 125.87500031996751 L 783.8828124160646 125.87500031996751 L 784.382812160009 126.06249983992893 L 784.0078120960388 126.87499980797293 L 784.1953126400476 127.31249971193029 L 784.8203120640246 127.68749977595871 L 786.0079339520307 127.31249971193029 L 786.4454338560463 126.87499980797293 L 787.1329331200104 126.25000038393773 L 788.0703129600151 126.25000038393773 L 789.0704332800233 126.43749375996413 L 790.945433600049 126.25000038393773 L 791.6329338880605 125.87500031996751 L 793.8203125760192 125.87500031996751 L 794.0078120960388 126.25000038393773 L 793.5078123520361 126.6875002879533 L 792.382812160009 126.87499980797293 L 791.5703121920233 127.06250035192352 L 790.9453137920354 127.31250585592352 L 787.3828126720618 127.68749977595871 L 786.8203120640246 128.12499967997428 L 785.3203128320165 129.56250009592623 L 784.2578124800348 129.93750015995465 L 782.2578124800348 129.93750015995465 L 781.195312128053 130.12499967997428 L 779.5703121920233 131.00000051193638 L 776.8203120640246 131.56250009592623 L 773.6328120320104 131.9999999999418 L 772.3203123200219 132.37500006397022 L 770.4453120000544 132.62500044796616 L 769.3203128320165 132.62500044796616 L 768.0078120960388 133.00000051193638 L 765.9453122560517 133.81250047992216 L 764.9453127680463 134.62500044796616 L 764.3203420160571 134.87498751992825 L 762.382812160009 134.62500044796616 L 760.7578122240375 134.87499980797293 L 758.8829337600619 134.87499980797293 L 758.1954334720504 134.62500044796616 L 757.4454333440517 133.81250047992216 L 757.1329341440578 132.62500044796616 L 758.6954332160531 131.81250047992216 L 760.0079339520307 131.187500031956 L 761.3204336640192 130.37500006397022 L 762.8829337600619 128.93749964796007 L 763.5079331840388 128.12499967997428 L 763.6329338880605 127.31249971193029 L 764.1329336320632 126.87499980797293 L 764.9453127680463 126.87499980797293 L 765.445312512049 127.31249971193029 L 766.2579333120375 127.50000025593909 L 767.0704332800233 127.06250035192352 L 767.5704340480152 126.25000038393773 L 768.5078128640307 126.25000038393773 L 769.1328122880659 126.43749990395736 L 770.2579333120375 126.43749990395736 L 771.6954337280476 126.25000038393773 L 773.7579335680348 125.24999987194315 L 774.5703127040179 125.24999987194315 L 775.2578129920294 125.62499993597157 L 775.3828126720618 126.25000038393773" fill="none"/><path stroke="#000000" stroke-width="2" d="M 786.2578124800348 125.62499993597157 L 785.5079178240267 125.87496550392825 L 785.3204336640192 125.43750041595194 L 785.9454341120436 124.81249996792758 L 786.8204339200165 124.43749990395736 L 789.0703124480206 124.43749990395736 L 789.3828126720618 125.00000051193638 L 787.6953128960449 125.24999987194315 L 786.2578124800348 125.62499993597157" fill="none"/><path stroke="#000000" stroke-width="2" d="M 795.0703124480206 124.18749951996142 L 794.0079083520104 124.43747737596277 L 793.5079331840388 123.99999999994179 L 794.3204331520246 123.37499955191743 L 795.4453729280503 123.18751027196413 L 796.5703127040179 123.37499955191743 L 796.0703129600151 123.99999999994179 L 795.0703124480206 124.18749951996142" fill="none"/><path stroke="#000000" stroke-width="2" d="M 802.0078120960388 122.9999994879472 L 801.195312128053 123.00000051193638 L 800.6953267200151 123.18749183992622 L 798.9453127680463 122.9999994879472 L 797.6954337280476 122.9999994879472 L 797.8204334080219 122.37500006397022 L 798.945433600049 120.93749964796007 L 800.0704337920179 120.75000012794044 L 801.2579338240321 119.68749977595871 L 802.5079336960334 119.31249971193029 L 804.5704335360206 118.6875002879533 L 805.0704332800233 118.25000038393773 L 805.8829332480091 118.06249983992893 L 806.382812160009 118.06249983992893 L 806.0078120960388 118.6875002879533 L 805.195312128053 119.31249971193029 L 805.0703124480206 120.31250022392487 L 806.0703129600151 120.75000012794044 L 804.2578124800348 121.12500019196887 L 803.445312512049 121.74999961594585 L 803.5078123520361 122.56249958393164 L 802.8203120640246 122.9999994879472 L 802.0078120960388 122.9999994879472" fill="none"/><path stroke="#000000" stroke-width="2" d="M 778.2578124800348 113.56250009592623 L 777.8203125760192 114.18749951996142 L 778.4454338560463 114.18749951996142 L 779.4454333440517 113.74999961594585 L 780.3828889600118 113.37501695996616 L 781.195312128053 113.56250009592623 L 781.0078126080334 114.56249958393164 L 780.382812160009 115.00000051193638 L 780.6953123840503 115.62499993597157 L 781.1328122880659 115.99999999994179 L 780.5078128640307 116.81249996792758 L 780.0078120960388 117.06250035192352 L 778.8828129280591 117.24999987194315 L 777.9453777920571 117.4374871039181 L 777.1329331200104 117.24999987194315 L 776.945433600049 116.81249996792758 L 777.7579335680348 115.99999999994179 L 775.6953128960449 115.99999999994179 L 774.6329374720226 116.24997068796074 L 774.7579340800294 115.37499955191743 L 774.3829340160592 114.9999994879472 L 773.6329338880605 114.9999994879472 L 773.1329331200104 114.81249996792758 L 773.3204336640192 114.18749951996142 L 773.7579335680348 113.74999961594585 L 774.6329333760659 113.37499955191743 L 776.0079339520307 112.93749964796007 L 777.9454074880341 112.12501094397157 L 779.5703121920233 112.31250022392487 L 778.7578122240375 112.93749964796007 L 778.2578124800348 113.56250009592623" fill="none"/><path stroke="#000000" stroke-width="2" d="M 792.0703733760165 106.62501887994586 L 793.3203128320165 107.00000051193638 L 794.6328125440632 106.9999994879472 L 795.5703121920233 107.43750041595194 L 796.2578124800348 108.25000038393773 L 796.0703129600151 108.87499980797293 L 795.8828124160646 109.87500031996751 L 795.445312512049 110.31250022392487 L 793.8203125760192 110.4999997439445 L 793.195312128053 111.68749977595871 L 792.8828129280591 112.56249958393164 L 792.1953126400476 112.93749964796007 L 791.8828124160646 113.56250009592623 L 790.4453120000544 113.99999999994179 L 789.3828126720618 114.18749951996142 L 787.8828124160646 114.81249996792758 L 787.1329331200104 114.81249996792758 L 786.3204331520246 114.56249958393164 L 785.5079331840388 113.99999999994179 L 785.1954339840449 113.37499955191743 L 784.0704337920179 113.37499955191743 L 783.2579338240321 113.12500019196887 L 783.1329341440578 112.75000012794044 L 783.7579335680348 112.31250022392487 L 784.5079336960334 111.93750015995465 L 785.9454341120436 110.87499980797293 L 786.2579333120375 109.87500031996751 L 786.7579340800294 109.43750041595194 L 787.5704340480152 108.87499980797293 L 787.7579335680348 108.25000038393773 L 788.3829340160592 107.62499993597157 L 790.5079336960334 107.187500031956 L 791.4454333440517 106.81249996792758 L 792.0703733760165 106.62501887994586" fill="none"/><path stroke="#000000" stroke-width="2" d="M 848.0703129600151 98.18749951996142 L 847.3828659200226 98.62496665597428 L 846.8829337600619 98.37500006397022 L 847.2579338240321 97.56250009592623 L 848.0704337920179 96.75000012794044 L 849.1329331200104 94.12499967997428 L 849.6954337280476 93.06250035192352 L 850.2579333120375 92.6875002879533 L 851.6954337280476 92.25000038393773 L 852.6954332160531 91.87500031996751 L 854.0079339520307 91.87500031996751 L 854.7579340800294 91.43750041595194 L 855.445312512049 91.43750041595194 L 855.8828124160646 92.6875002879533 L 855.7578127360321 94.12499967997428 L 855.1328122880659 94.75000012794044 L 853.8203125760192 95.56250009592623 L 849.5078144000145 96.9999994879472 L 848.8203120640246 97.00000051193638 L 848.0703129600151 98.18749951996142" fill="none"/><path stroke="#000000" stroke-width="2" d="M 1024.0 93.31249971193029 L 1023.6953128960449 93.31249971193029 L 1023.0703124480206 93.87500031996751 L 1022.4453120000544 94.93749964796007 L 1022.1328128000605 95.56250009592623 L 1022.2578124800348 96.37500006397022 L 1022.7578122240375 97.99999999994179 L 1023.5078123520361 100.06249983992893 L 1024.0 100.7023432984497" fill="none"/><path stroke="#000000" stroke-width="2" d="M 1024.0 103.20313032047125 L 1023.0704322560341 103.31249356793705 L 1021.1328122880659 103.50000025593909 L 1020.8203120640246 104.56249958393164 L 1021.5703121920233 105.99999999994179 L 1021.2578129920294 107.43750041595194 L 1021.3203128320165 108.06249983992893 L 1021.7578127360321 108.43749990395736 L 1023.0703124480206 110.31250022392487 L 1023.8203125760192 110.6875002879533 L 1024.0 110.8671877119341" fill="none"/><path stroke="#000000" stroke-width="2" d="M 1024.0 137.74999961594585 L 1023.8203125760192 137.74999961594585 L 1023.0703124480206 137.93750015995465 L 1022.0703129600151 138.31250022392487 L 1021.1328122880659 138.56249958393164 L 1019.8828124160646 138.56249958393164 L 1019.0078126080334 138.75000012794044 L 1018.2578124800348 139.187500031956 L 1016.7578122240375 139.9999999999418 L 1013.7578127360321 139.9999999999418 L 1011.9453122560517 140.37500006397022 L 1010.6953123840503 141.187500031956 L 1010.1953126400476 141.62499993597157 L 1008.6328125440632 142.62500044796616 L 1007.195312128053 143.43750041595194 L 1004.9453127680463 143.8750003199675 L 1003.6328120320104 144.6875002879533 L 1003.0078136320226 144.87500492791878 L 1000.1328128000605 145.12500019196887 L 999.0078126080334 145.3124997119303 L 997.5078123520361 145.93750015995465 L 996.5703127040179 146.12499967997428 L 994.3203123200219 146.56249958393164 L 992.0703129600151 147.12500019196887 L 990.1953126400476 147.37499955191743 L 987.2579338240321 147.37499955191743 L 985.6954337280476 147.12500019196887 L 984.7578122240375 147.12500019196887 L 982.4453120000544 147.37499955191743 L 980.8828129280591 147.56250009592623 L 978.4453120000544 148.56249958393164 L 976.5078128640307 148.81249996792758 L 975.5703121920233 149.187500031956 L 974.0078120960388 149.62499993597157 L 971.8828124160646 149.9999999999418 L 968.5078128640307 150.81249996792758 L 967.195312128053 151.43750041595194 L 964.0078120960388 152.6875002879533 L 963.195312128053 153.3124997119303 L 962.7578122240375 154.12499967997428 L 962.2578124800348 154.75000012794044 L 961.445312512049 154.93749964796007 L 960.1328128000605 154.93749964796007 L 958.6953134080395 155.31250585592352 L 956.1954334720504 155.562493951933 L 955.0078126080334 155.74999961594585 L 953.4453811200219 156.18748006393434 L 952.7578122240375 155.93750015995465 L 952.1328128000605 156.18749951996142 L 951.195312128053 156.75000012794044 L 949.9453122560517 157.00000051193638 L 947.8203125760192 158.18749951996142 L 947.1954339840449 158.18749951996142 L 946.0703129600151 157.9999999999418 L 944.6328125440632 158.18749951996142 L 942.0078120960388 158.81249996792758 L 939.445312512049 160.06249983992893 L 937.5703121920233 161.06250035192352 L 937.0703124480206 161.50000025593909 L 936.3203123200219 162.12499967997428 L 935.6328611840145 162.31248691194924 L 934.6328125440632 162.12499967997428 L 933.8828124160646 162.4999997439445 L 931.5078123520361 162.93749964796007 L 930.0078120960388 162.93749964796007 L 928.6953123840503 163.93750015995465 L 927.2578129920294 164.56249958393164 L 925.8828124160646 165.37499955191743 L 924.382812160009 165.56250009592623 L 922.8203120640246 166.37500006397022 L 922.1328128000605 166.81249996792758 L 921.0704332800233 166.81249996792758 L 921.3204336640192 166.18749951996142 L 920.3829340160592 165.9999999999418 L 918.7578122240375 165.9999999999418 L 917.6328120320104 166.37500006397022 L 917.0703124480206 166.62500044796616 L 916.6953123840503 167.43750041595194 L 919.3827758080442 167.00002508796751 L 918.4453120000544 167.62499993597157 L 916.8828129280591 168.06249983992893 L 915.7578127360321 168.25000038393773 L 914.6328125440632 168.62500044796616 L 913.8203125760192 169.50000025593909 L 912.382812160009 170.06249983992893 L 908.8203120640246 171.12500019196887 L 907.5703121920233 171.3124997119303 L 906.8828129280591 171.74999961594585 L 906.3203123200219 172.12499967997428 L 905.5078123520361 173.187500031956 L 904.6953123840503 173.9999999999418 L 904.8203120640246 174.81249996792758 L 904.0703129600151 175.187500031956 L 904.0078120960388 176.25000038393773 L 902.5704232960125 176.43749273591675 L 901.5079331840388 175.81250047992216 L 900.5079336960334 175.62499993597157 L 899.1954339840449 175.43750041595194 L 898.2578124800348 175.62499993597157 L 894.3828131840564 175.62500505591743 L 892.4453120000544 175.81250047992216 L 890.7578572800267 176.24998911994044 L 889.1328122880659 175.9999999999418 L 887.3828126720618 176.87499980797293 L 886.5078947840375 177.062482943933 L 885.1329341440578 176.43749990395736 L 884.1328128000605 176.43749990395736 L 883.0078801920172 176.87497318396345 L 881.7579335680348 176.25000038393773 L 880.6328125440632 176.25000038393773 L 876.3203123200219 176.87499980797293 L 874.3203123200219 177.43750041595194 L 872.8828129280591 178.25000038393773 L 871.445312512049 178.4999997439445 L 869.6953128960449 178.87499980797293 L 865.5078123520361 179.93750015995465 L 864.7578122240375 180.12499967997428 L 864.0703129600151 180.75000012794044 L 862.5078128640307 180.75000012794044 L 861.0703790080152 180.93749145593029 L 859.8829332480091 180.75000012794044 L 858.0079339520307 180.12499967997428 L 856.7579340800294 179.6874997759587 L 853.0704332800233 179.31250585592352 L 851.0704332800233 178.4999997439445 L 850.6329333760659 178.06249983992893 L 849.5079331840388 177.06250035192352 L 848.3829340160592 176.25000038393773 L 846.7579340800294 175.43750041595194 L 844.5704335360206 174.18749951996142 L 841.3204336640192 173.187500031956 L 839.5704340480152 172.75000012794044 L 838.0704337920179 172.56249958393164 L 836.632885248051 172.937480191933 L 835.6954337280476 172.56249958393164 L 834.8828129280591 172.31250022392487 L 833.8203125760192 172.56249958393164 L 833.132896256051 172.9374535679235 L 832.6329333760659 172.31250022392487 L 831.5704340480152 172.12499967997428 L 831.0704332800233 171.50000025593909 L 829.7579335680348 171.12500019196887 L 828.945433600049 170.4999997439445 L 828.8204339200165 169.50000025593909 L 829.0079334400361 168.87499980797293 L 829.8829332480091 167.62499993597157 L 829.4454333440517 166.81249996792758 L 829.4454333440517 165.9999999999418 L 829.5704340480152 164.37500006397022 L 829.6329338880605 162.93749964796007 L 827.8829332480091 161.50000025593909 L 827.3204336640192 160.6875002879533 L 826.3829340160592 158.43749990395736 L 825.1329341440578 157.187500031956 L 823.6329338880605 156.18749951996142 L 822.5704335360206 155.3124997119303 L 821.4454333440517 154.4999997439445 L 820.4454338560463 153.6874997759587 L 819.6329338880605 153.3124997119303 L 817.8829332480091 152.87499980797293 L 816.945433600049 152.6875002879533 L 815.5078133760253 152.68749414396007 L 813.7578127360321 152.4999997439445 L 810.6953134080395 152.50000486394856 L 806.8203120640246 152.87499980797293 L 803.4454333440517 152.87499980797293 L 801.5704340480152 152.4999997439445 L 793.3828126720618 152.4999997439445 L 792.382874624047 152.68748799996683 L 791.4454333440517 152.4999997439445 L 789.0079334400361 152.4999997439445 L 787.7579335680348 152.25000038393773 L 786.6329333760659 152.06249983992893 L 786.1329336320632 151.8750003199675 L 785.6329338880605 151.24999987194315 L 785.1954339840449 149.62499993597157 L 785.5079331840388 148.81249996792758 L 786.1329336320632 148.18749951996142 L 787.5704340480152 147.37499955191743 L 789.3204336640192 146.93749964796007 L 790.4454338560463 146.56249958393164 L 790.945433600049 146.31250022392487 L 792.2579333120375 145.3124997119303 L 793.0079334400361 144.87499980797293 L 793.3829335040646 144.25000038393773 L 794.4454338560463 143.24999987194315 L 794.7579340800294 143.06250035192352 L 795.5704340480152 141.62499993597157 L 796.0704337920179 140.62500044796616 L 796.5704335360206 139.56250009592623 L 797.1954339840449 138.93749964796007 L 799.4454333440517 137.50000025593909 L 799.5704340480152 136.6875002879533 L 798.6954332160531 136.31250022392487 L 798.1954334720504 135.50000025593909 L 799.0079334400361 134.43749990395736 L 800.3829340160592 133.43750041595194 L 802.1954334720504 132.62500044796616 L 804.8829337600619 130.75000012794044 L 807.0079334400361 129.74999961594585 L 810.5079336960334 127.87500031996751 L 811.5079331840388 127.31249971193029 L 812.2579333120375 127.06250035192352 L 814.3204331520246 125.87500031996751 L 815.5079331840388 124.9999994879472 L 816.4454338560463 124.18749951996142 L 817.2579338240321 122.9999994879472 L 818.1954334720504 122.75000012794044 L 819.1329331200104 122.56249958393164 L 820.5079336960334 121.56250009592623 L 821.0704332800233 120.12499967997428 L 821.0704332800233 119.31249971193029 L 820.7579340800294 118.06249983992893 L 819.3204336640192 117.06250035192352 L 818.1954334720504 116.62500044796616 L 817.2578129920294 116.43749990395736 L 815.8203596800449 116.81248767994111 L 814.6954332160531 116.62500044796616 L 812.3203123200219 116.81249996792758 L 811.0078126080334 117.43750041595194 L 810.1954334720504 117.43750041595194 L 809.6954337280476 117.24999987194315 L 810.0079339520307 116.25000038393773 L 809.1954339840449 115.37499955191743 L 807.8203125760192 115.187500031956 L 806.0079339520307 115.62497023993637 L 806.0079339520307 115.187500031956 L 806.5079336960334 114.81249996792758 L 807.4454333440517 114.37500006397022 L 808.5704335360206 114.37500006397022 L 809.0704332800233 114.18749951996142 L 809.6954337280476 113.74999961594585 L 811.3204336640192 113.37499955191743 L 812.7579340800294 111.93750015995465 L 813.8829332480091 111.31249971193029 L 815.1328122880659 111.31249971193029 L 815.8203125760192 111.50000025593909 L 816.6328125440632 112.12499967997428 L 817.2579338240321 112.12499967997428 L 818.8829337600619 111.31249971193029 L 819.0079334400361 110.4999997439445 L 819.1954339840449 109.68749977595871 L 819.6329338880605 109.06250035192352 L 820.1329336320632 108.87499980797293 L 821.4454333440517 108.25000038393773 L 823.0704332800233 108.06249983992893 L 826.0704337920179 106.62500044796616 L 826.5704335360206 106.62500044796616 L 828.945433600049 105.56250009592623 L 830.3829340160592 105.18749593594112 L 833.9453132800409 104.93750374391675 L 834.5704325120314 104.93749247991946 L 836.6329333760659 104.75000012794044 L 838.0704337920179 104.37500006397022 L 838.8829337600619 103.74999961594585 L 841.0079334400361 102.4999997439445 L 842.2579333120375 102.06249471992487 L 844.5078138880199 101.87500543997157 L 845.8203125760192 102.06249983992893 L 847.8829332480091 101.87500031996751 L 849.3204336640192 101.50000025593909 L 851.5704340480152 100.43749990395736 L 852.5079336960334 99.62499993597157 L 852.8829337600619 99.24999987194315 L 854.3204331520246 98.81249996792758 L 855.4454333440517 98.18749951996142 L 856.3829340160592 97.37499955191743 L 857.0079334400361 96.9999994879472 L 858.4454338560463 95.93750015995465 L 859.6329338880605 94.4999997439445 L 861.0079334400361 94.12499967997428 L 861.6954337280476 93.68749977595871 L 862.0079339520307 93.06250035192352 L 862.1329336320632 92.25000038393773 L 862.8204339200165 91.62499993597157 L 863.7579335680348 91.06250035192352 L 864.2579333120375 90.18749951996142 L 865.2579338240321 88.9999994879472 L 865.8204334080219 87.74999961594585 L 865.8829332480091 86.93749964796007 L 865.8204334080219 86.31250022392487 L 864.7579340800294 85.50000025593909 L 865.1954339840449 85.12500019196887 L 865.8203125760192 85.12500019196887 L 867.445312512049 85.31249971193029 L 868.945433600049 85.31249971193029 L 869.5079331840388 85.12500019196887 L 869.5079331840388 84.4999997439445 L 860.6954332160531 84.4999997439445 L 859.7579335680348 84.25000038393773 L 858.6329333760659 84.06249983992893 L 857.6953128960449 84.06249983992893 L 856.8828129280591 84.25000038393773 L 856.382812160009 84.6875002879533 L 856.1953126400476 85.50000025593909 L 856.2578124800348 86.4999997439445 L 855.8828124160646 86.93749964796007 L 854.0078120960388 87.93750015995465 L 853.0703124480206 88.56249958393164 L 852.382812160009 89.62499993597157 L 851.9453122560517 89.99999999994179 L 850.6328125440632 90.18749951996142 L 849.6329338880605 90.18749951996142 L 849.0079334400361 89.62499993597157 L 846.9453127680463 89.81250047992216 L 846.2578124800348 90.18749951996142 L 845.1328122880659 90.18749951996142 L 843.5703121920233 90.43749990395736 L 843.0703124480206 90.81249996792758 L 842.4453120000544 92.25000038393773 L 842.1328128000605 93.31249971193029 L 842.3203123200219 93.87500031996751 L 842.8828129280591 94.31250022392487 L 843.3828126720618 94.93749964796007 L 843.0703124480206 95.56250009592623 L 842.5703127040179 95.74999961594585 L 842.2578124800348 96.56249958393164 L 836.3203123200219 97.56250009592623 L 833.1328122880659 97.99999999994179 L 832.6953123840503 98.62500044796616 L 832.6953123840503 100.6875002879533 L 831.195312128053 101.24999987194315 L 829.5703121920233 101.87500031996751 L 827.8203125760192 102.06249983992893 L 827.3203128320165 102.31250022392487 L 826.5703127040179 102.4999997439445 L 825.6329338880605 102.4999997439445 L 824.7579340800294 102.06249983992893 L 824.1328128000605 102.06249983992893 L 823.6328120320104 102.31250022392487 L 823.3828126720618 103.12500019196887 L 823.0078126080334 103.74999961594585 L 820.7578122240375 104.12499967997428 L 825.882775552047 104.74999295995804 L 819.3828126720618 104.56249958393164 L 818.6953123840503 104.93749964796007 L 816.945345536049 105.56248883192893 L 815.5079331840388 105.37499955191743 L 814.6954332160531 105.187500031956 L 814.1953126400476 104.93749964796007 L 813.2578129920294 105.37499955191743 L 813.7578127360321 105.99999999994179 L 813.8828124160646 106.62500044796616 L 812.8828129280591 107.187500031956 L 811.6329338880605 107.187500031956 L 809.7579335680348 106.81249996792758 L 809.0703124480206 107.00000051193638 L 807.9453122560517 108.25000038393773 L 806.6328125440632 108.25000038393773 L 806.0703129600151 108.62500044796616 L 806.3203123200219 109.24999987194315 L 805.6953128960449 109.43750041595194 L 805.2578129920294 110.31250022392487 L 804.5703127040179 110.4999997439445 L 801.5079331840388 110.4999997439445 L 801.0079334400361 110.06249983992893 L 801.0704332800233 109.43750041595194 L 801.2579338240321 108.43749990395736 L 800.5704335360206 108.25000038393773 L 799.4454333440517 108.25000038393773 L 798.8204339200165 107.62499993597157 L 799.3204336640192 107.187500031956 L 800.6954332160531 107.187500031956 L 801.2579338240321 106.81249996792758 L 801.6954337280476 106.18749951996142 L 801.6954337280476 105.56250009592623 L 801.3829335040646 104.93749964796007 L 802.3829340160592 104.56249958393164 L 803.4454333440517 104.56249958393164 L 803.9454341120436 103.74999961594585 L 804.6954332160531 103.50000025593909 L 805.1954339840449 102.93749964796007 L 804.6954332160531 102.4999997439445 L 803.9453122560517 102.4999997439445 L 802.6328125440632 103.50000025593909 L 801.5703746560612 103.74998527992284 L 800.5704335360206 103.50000025593909 L 801.0079334400361 102.4999997439445 L 800.0704337920179 102.31250022392487 L 799.5704340480152 102.06249983992893 L 800.2579333120375 101.24999987194315 L 800.4454338560463 100.25000038393773 L 801.1954339840449 99.62499993597157 L 801.8204334080219 99.24999987194315 L 802.3829340160592 98.37500006397022 L 802.6329333760659 97.81250047992216 L 802.0079339520307 96.75000012794044 L 800.2578124800348 97.00000051193638 L 799.1328829440172 97.18748876795871 L 798.3204331520246 96.9999994879472 L 797.6954337280476 96.75000012794044 L 800.6954332160531 95.56250009592623 L 801.6954337280476 94.12499967997428 L 801.0704332800233 93.68749977595871 L 800.0703129600151 94.12499967997428 L 799.5704340480152 94.12499967997428 L 800.3829340160592 93.31249971193029 L 801.0704332800233 92.6875002879533 L 801.1954339840449 91.87500031996751 L 800.2579333120375 91.62499993597157 L 802.0079339520307 90.43749990395736 L 803.0079334400361 90.43749990395736 L 804.4454338560463 89.37499955191743 L 805.6954337280476 88.75000012794044 L 806.5079336960334 88.18749951996142 L 807.6328837120091 87.75001907197293 L 808.3203123200219 87.93750015995465 L 808.6328125440632 88.56249958393164 L 809.2579338240321 88.56249958393164 L 809.6954337280476 88.18749951996142 L 810.3204331520246 87.93750015995465 L 811.9454341120436 87.93750015995465 L 812.1329336320632 87.37499955191743 L 811.4454333440517 87.12500019196887 L 811.9454341120436 86.31250022392487 L 812.7578122240375 86.31250022392487 L 813.3829335040646 86.4999997439445 L 814.8829337600619 85.31249971193029 L 815.6329338880605 85.31249971193029 L 816.2579333120375 85.12500019196887 L 817.5704340480152 84.4999997439445 L 819.1954339840449 83.87500031996751 L 820.7579340800294 82.81249996792758 L 820.3204331520246 82.43749990395736 L 821.0704332800233 81.62499993597157 L 821.0704332800233 80.9999994879472 L 820.5079336960334 80.81249996792758 L 820.4454338560463 80.18749951996142 L 821.3829335040646 79.12500019196887 L 820.0079339520307 79.12500019196887 L 820.1329336320632 78.56249958393164 L 820.945433600049 78.31250022392487 L 821.8829332480091 78.31250022392487 L 822.6954332160531 77.50000025593909 L 823.3204336640192 77.31249971193029 L 825.4454333440517 76.06249983992893 L 826.6954332160531 75.24999987194315 L 829.1329341440578 74.62500044796616 L 831.0704332800233 73.81250047992216 L 833.1329331200104 73.187500031956 L 834.0704337920179 72.9999994879472 L 835.8829332480091 71.99999999994179 L 837.1329331200104 70.75000012794044 L 837.6329338880605 70.56249958393164 L 839.6954337280476 68.93749964796007 L 840.3204331520246 68.31250022392487 L 841.5079331840388 67.06250035192352 L 842.8829337600619 66.43749990395736 L 843.6954337280476 66.06249983992893 L 844.5078128640307 66.06249983992893 L 845.3203128320165 66.25000038393773 L 845.8203125760192 66.6875002879533 L 846.5704335360206 66.6875002879533 L 847.0704332800233 66.25000038393773 L 847.0704332800233 65.43750041595194 L 847.5704340480152 65.24999987194315 L 848.0704337920179 64.81249996792758 L 848.5704335360206 64.18749951996142 L 850.6329333760659 63.187500031956006 L 853.3204336640192 61.93750015995465 L 855.0704332800233 61.312499711930286 L 857.0079334400361 60.4999997439445 L 858.1329336320632 60.31250022392487 L 862.1329336320632 58.6875002879533 L 863.7579335680348 58.25000038393773 L 865.5079331840388 57.87500031996751 L 867.0079334400361 57.06250035192352 L 868.3829340160592 56.81249996792758 L 872.4454338560463 55.187500031956006 L 872.945433600049 54.99999948794721 L 875.4454333440517 53.562500095926225 L 877.7579335680348 52.75000012794044 L 880.6329333760659 52.12499967997428 L 882.8204339200165 51.312499711930286 L 883.6329338880605 51.125000191968866 L 885.4454333440517 50.4999997439445 L 885.9454341120436 50.25000038393773 L 887.6954337280476 49.68749977595871 L 889.1329341440578 48.87499980797293 L 890.0704337920179 48.62500044796616 L 890.8829337600619 48.25000038393773 L 891.3204336640192 47.62499993597157 L 892.945433600049 47.187500031956006 L 896.8204339200165 45.99999999994179 L 898.4454338560463 45.187500031956006 L 898.8829337600619 44.56249958393164 L 901.1329331200104 43.500000255939085 L 901.9454341120436 43.312499711930286 L 903.8829332480091 42.31250022392487 L 905.1954339840449 42.06249983992893 L 907.3829335040646 41.500000255939085 L 910.7579340800294 39.812500479922164 L 911.3829335040646 39.62499993597157 L 912.1954334720504 38.62500044796616 L 912.6954035200179 38.375014399935026 L 914.2579333120375 38.62500044796616 L 915.7579335680348 37.812500479922164 L 917.0079334400361 37.187500031956006 L 918.945433600049 36.56249958393164 L 920.6954332160531 35.93750015995465 L 923.7579335680348 35.125000191968866 L 924.3829340160592 34.4999997439445 L 925.5079331840388 34.12499967997428 L 928.7579340800294 32.87499980797293 L 931.1329341440578 32.06249983992893 L 932.2579333120375 31.875000319967512 L 933.0704332800233 31.624999935971573 L 934.0079339520307 31.249999871943146 L 935.0079334400361 30.62500044796616 L 937.5704340480152 29.812500479922164 L 939.4454333440517 29.374999551917426 L 946.0704337920179 26.937499647960067 L 947.3829335040646 26.4999997439445 L 948.1329336320632 26.31250022392487 L 948.7579340800294 25.937500159954652 L 949.4454333440517 25.687499775958713 L 951.6329338880605 25.062500351923518 L 952.7579340800294 24.6875002879533 L 953.9454341120436 24.062499839928932 L 954.8829337600619 23.875000319967512 L 957.0079334400361 23.875000319967512 L 957.7579335680348 23.624999935971573 L 959.0704332800233 23.062500351923518 L 960.5079336960334 22.62500044796616 L 961.9454341120436 21.624999935971573 L 963.1954339840449 21.624999935971573 L 964.6954332160531 20.999999487947207 L 966.5704335360206 20.18749951996142 L 968.0079339520307 19.562500095926225 L 969.0079334400361 19.562500095926225 L 969.6329338880605 18.937499647960067 L 970.5703751680558 18.750011391937733 L 971.5703121920233 18.937499647960067 L 972.1954334720504 18.937499647960067 L 972.8829337600619 18.56249958393164 L 975.2579338240321 17.687499775958713 L 975.8829332480091 17.312499711930286 L 976.8829337600619 17.125000191968866 L 979.2579338240321 16.4999997439445 L 980.5079336960334 15.875000319967512 L 981.5079331840388 15.437500415951945 L 983.6329338880605 15.062500351923518 L 985.8829332480091 14.43749990395736 L 988.0704337920179 13.999999999941792 L 989.1954339840449 13.437500415951945 L 989.8829332480091 12.625000447966158 L 991.0079334400361 12.18749951996142 L 993.0704332800233 11.749999615945853 L 993.8204334080219 10.937499647960067 L 995.3204336640192 10.312500223924872 L 997.3829335040646 9.937500159954652 L 998.6328125440632 9.937500159954652 L 1000.8829337600619 9.749999615945853 L 1003.0079334400361 9.749999615945853 L 1004.4454338560463 9.500000255939085 L 1004.945433600049 9.125000191968866 L 1005.8829332480091 8.312500223924872 L 1006.5079336960334 7.687499775958713 L 1007.5079331840388 7.500000255939085 L 1008.8204339200165 6.625000447966158 L 1010.0704337920179 6.4374999039573595 L 1010.8204339200165 6.0624998399289325 L 1011.5079331840388 5.437500415951945 L 1012.3203829760314 5.25001113594044 L 1013.4454333440517 5.437500415951945 L 1014.5079336960334 4.999999487947207 L 1016.1329336320632 4.1874995199614204 L 1017.1329341440578 3.562500095926225 L 1018.2579333120375 3.3749995519174263 L 1019.8204334080219 3.187500031956006 L 1021.9454341120436 3.187500031956006 L 1022.8829337600619 2.7500001279404387 L 1024.0 2.58243968863826" fill="none"/><path stroke="#000000" stroke-width="2" d="M 1024.0 20.87960007158108 L 1023.5079331840388 20.81249996792758 L 1021.2578129920294 20.81249996792758 L 1017.8828124160646 21.624999935971573 L 1017.2578129920294 21.812500479922164 L 1016.3203123200219 22.43749990395736 L 1015.0703124480206 22.62500044796616 L 1012.6328125440632 22.62500044796616 L 1011.3203128320165 22.81249996792758 L 1010.5703127040179 23.437500415951945 L 1009.8828124160646 24.25000038393773 L 1009.8828124160646 25.062500351923518 L 1010.6953123840503 26.4999997439445 L 1011.6328120320104 27.125000191968866 L 1013.1328122880659 27.562500095926225 L 1014.5079336960334 27.312499711930286 L 1016.5079336960334 26.31250022392487 L 1017.1329341440578 26.31250022392487 L 1018.0704337920179 25.937500159954652 L 1019.195395072049 25.312521215935703 L 1020.6328125440632 25.687499775958713 L 1021.3203128320165 26.31250022392487 L 1022.6953123840503 26.75000012794044 L 1022.7578122240375 27.125000191968866 L 1022.0703129600151 27.562500095926225 L 1021.5703121920233 28.37500006397022 L 1021.7578127360321 29.000000511936378 L 1021.632814080047 29.56249087996548 L 1020.1328128000605 29.374999551917426 L 1019.0703124480206 29.999999999941792 L 1019.6328120320104 30.62500044796616 L 1021.5703121920233 31.249999871943146 L 1020.9453127680463 32.6875002879533 L 1021.7578127360321 33.68749977595871 L 1024.0 34.27754946296045" fill="none"/><path stroke="#000000" stroke-width="2" d="M 353.1480258560623 49.006233599968255 L 352.8796160000493 49.13254399993457 L 352.32256000005873 49.03833599993959 L 351.591424000042 49.24927999993088 L 350.9245409280411 50.04462387197418 L 349.9462891520234 50.445313023927156 L 349.86623897601385 50.49287270393688 L 349.8147840000456 50.67571199993836 L 349.0488320000586 50.97881599992979 L 347.72582400002284 50.862079999933485 L 347.5517440000549 50.53439999994589 L 347.52348876802716 49.82295039994642 L 345.29120256000897 49.0372116479557 L 344.175780864025 48.96679731196491 L 343.4444800000638 48.82636799995089 L 342.95705600001384 48.545791999960784 L 342.7481600000174 48.17100799991749 L 342.85305958404206 47.63267583993729 L 345.0133524480625 46.720673791947775 L 345.638672384026 46.42773401591694 L 345.8719569920213 45.93018982396461 L 345.9522560000187 45.45843199995579 L 346.2666240000399 45.38777599995956 L 346.5397114880616 45.94100428791717 L 347.10156185604865 46.41601638396969 L 348.21484441601206 46.65039052796783 L 348.9472655360587 46.720703487924766 L 351.20898457604926 46.93164031993365 L 352.25390592002077 47.400390655966476 L 352.8110080000479 47.98566399991978 L 353.5769600000349 48.33689599996433 L 353.5769600000349 48.59391999995569 L 353.289299968048 48.680124415957835 L 353.2577495040605 48.72710451192688 L 353.2277760000434 48.96870399994077 L 353.1480258560623 49.006233599968255" fill="none"/><path stroke="#000000" stroke-width="2" d="M 443.41796864004573 34.25195315195015 L 442.2859243520652 34.77611417596927 L 442.10825728002237 35.220106239954475 L 442.0577280000434 35.51436799991643 L 441.81401600001846 35.794943999964744 L 441.25869056006195 36.00545279996004 L 440.70117171201855 36.33398476795992 L 439.9003904000274 36.45117235195357 L 439.23763200006215 36.988927999918815 L 438.365184000053 37.129215999972075 L 437.52960000000894 37.01247999991756 L 436.83328000002075 37.33913599996595 L 436.55203635204816 37.19747993594501 L 435.6852387840627 37.26821580796968 L 435.6147200000123 37.50399999995716 L 435.1969280000194 37.854207999946084 L 432.68659200001275 38.67515289597213 L 431.50540800002636 39.28166399995098 L 431.2560711680562 39.26961663994007 L 429.8075944960583 39.793124351941515 L 428.6853120000451 40.19507199997315 L 427.9889920000569 40.87295999994967 L 427.90239334403304 40.873003007960506 L 427.1013314560405 41.09573119995184 L 426.9445120000164 41.247743999934755 L 426.4919040000532 41.200639999937266 L 426.18355916801374 41.21261158393463 L 425.20507801603526 41.78710937593132 L 424.3333120000316 42.16012799995951 L 423.53254400001606 42.207231999957 L 423.11475200002315 41.973759999964386 L 422.8357734400197 41.341094911971595 L 423.0110443520243 40.666723327944055 L 423.0440960000269 40.19609599997057 L 423.7364797440241 39.77447731193388 L 424.29699276800966 38.697139199939556 L 424.4008960000356 38.464511999918614 L 424.8869355520583 38.06584831996588 L 425.3061120000202 37.388287999958266 L 425.50646988803055 37.307555839943234 L 425.71138764801435 37.222410239919554 L 426.6987520000548 36.78003199992236 L 427.0817280000192 36.68582399992738 L 428.18460979202064 36.54673715191893 L 428.68326400005026 36.241407999943476 L 429.03142400004435 36.14822399994591 L 429.54527744004736 36.18134425592143 L 430.19921920006163 36.169921535940375 L 430.9492193280603 35.5136727039353 L 432.654336000036 34.650111999944784 L 434.0820305920206 34.34570342395455 L 435.9105730560259 34.38082969596144 L 436.13696000003256 34.298879999958444 L 436.8686182400561 34.13490073592402 L 438.2265630720649 34.11132825596724 L 439.41102796804626 33.97083135996945 L 440.0371097600437 33.29101516795345 L 440.7343749120482 33.08007833594456 L 442.68858982401434 33.12839270394761 L 443.4155520000495 33.26873599993996 L 443.59065600001486 33.7838079999201 L 443.41796864004573 34.25195315195015" fill="none"/><path stroke="#000000" stroke-width="2" d="M 423.1802880000323 32.757759999949485 L 423.4240000000573 33.17862399993464 L 422.6928640000406 33.1550719999359 L 421.3002240000642 33.74079999997048 L 420.49843200005125 33.76435199996922 L 418.0602859520586 34.372818943927996 L 417.67731200001435 34.34905599994818 L 417.4684160000179 34.139135999954306 L 417.74592000001576 33.81145599996671 L 418.6982113280101 33.48188159993151 L 419.0200965120457 33.318417407921515 L 419.1406080000452 33.22675199992955 L 419.69467084802454 33.388110847969074 L 420.5332029440324 32.990233599964995 L 421.5531735040131 32.990956543944776 L 422.3795200000168 32.96870399994077 L 422.97139200003585 32.710655999951996 L 423.1802880000323 32.757759999949485" fill="none"/><path stroke="#000000" stroke-width="2" d="M 448.11776000005193 28.848127999925055 L 448.0133120000246 29.26899199996842 L 447.7347840000293 29.596671999956015 L 447.2463360000402 29.666303999954835 L 446.6487142400583 29.63867647992447 L 446.0139673600206 29.644040191953536 L 445.74924800003646 29.666303999954835 L 445.1225600000471 29.549567999958526 L 444.32076800003415 29.73695999995107 L 444.00742400001036 29.643775999953505 L 444.0770560000092 29.339647999964654 L 444.66892800002825 28.917759999923874 L 444.8081920000259 28.895231999922544 L 445.62381004804047 28.95558246393921 L 445.74999961606227 28.96289075195091 L 446.06608896004036 28.877039615937974 L 446.75891200004844 28.684287999931257 L 447.87404800002696 28.73036799993133 L 448.11776000005193 28.848127999925055" fill="none"/><path stroke="#000000" stroke-width="2" d="M 457.41772800002946 28.16921599995112 L 457.41772800002946 28.543999999936204 L 457.06956800003536 28.59007999993628 L 456.4826685440494 28.511459327943157 L 456.0580669440096 28.5557422079728 L 455.4400235520443 29.16411903995322 L 455.4670080000651 29.409279999963474 L 455.29292800003896 29.502463999961037 L 454.3528960000258 29.432831999962218 L 454.1604935680516 29.444632575963624 L 453.6555520000402 29.842665471951477 L 453.6555520000402 29.970431999943685 L 453.3770240000449 30.06361599994125 L 453.08924108801875 30.036208639969118 L 452.4550778880366 30.197265407943632 L 452.28133273602 30.33507839991944 L 452.2280960000353 30.531583999923896 L 451.90929305605823 30.63017574395053 L 451.65612134401454 30.83098828792572 L 451.5307520000497 30.99955199996475 L 451.07622809603345 30.847153151931707 L 450.6298122240114 30.85735628794646 L 450.4166400000104 30.952447999967262 L 449.99884800001746 31.256575999956112 L 448.7792640000116 31.3036799999536 L 448.60518400004366 31.11628799996106 L 449.30150400003185 30.975999999966007 L 449.65068800002337 31.023103999963496 L 449.776500736014 30.92442726396257 L 449.710700544063 30.599064575973898 L 449.4407680000295 30.50803199992515 L 448.88371200003894 30.718975999916438 L 448.53555200004485 30.625791999918874 L 448.57036800001515 30.25100799993379 L 448.8488960000104 30.134271999937482 L 449.3711360000307 30.06361599994125 L 449.72298649605364 29.847688191919588 L 449.8490327040199 29.64776959992014 L 449.96403200004715 29.33862399996724 L 450.24256000004243 29.152255999972112 L 451.1477760000271 28.82457599992631 L 451.4204385280609 28.76631859195186 L 452.2988277760451 28.470703103928827 L 453.2734371840488 28.517577727965545 L 454.1445314560551 28.283202559920028 L 454.77149696002016 27.65429657592904 L 455.5019530240097 27.65429657592904 L 456.37304627202684 27.2324218879221 L 457.34809600003064 27.256831999926362 L 457.80070400005206 27.491327999916393 L 457.80070400005206 27.888639999961015 L 457.41772800002946 28.16921599995112" fill="none"/><path stroke="#000000" stroke-width="2" d="M 415.3824348160415 29.79371929593617 L 413.94790400005877 29.859839999931864 L 413.80864000006113 29.648895999940578 L 413.94790400005877 29.391871999949217 L 414.1219840000267 29.344767999951728 L 414.95756800001254 29.157375999959186 L 416.8386560000363 28.922879999969155 L 418.0224000000162 28.548095999925863 L 418.4053760000388 28.127231999940705 L 418.8231680000317 27.893759999948088 L 420.4935618560412 27.705416703945957 L 421.1592775680474 27.423686655936763 L 421.9576320000342 27.144191999919713 L 422.09689600003185 27.21382399991853 L 422.09792000002926 27.56505599996308 L 421.60972902405774 27.892921343969647 L 420.5649920000578 28.40780799993081 L 420.37352140806615 28.40800563193625 L 419.10351564805023 28.47851622395683 L 417.74489600001834 29.274111999955494 L 415.4808320000302 29.78918399993563 L 415.3824348160415 29.79371929593617" fill="none"/><path stroke="#000000" stroke-width="2" d="M 442.4696401920519 26.339233791921288 L 442.4601600000169 26.351615999941714 L 442.43456000002334 26.48371199995745 L 442.4581120000221 26.623999999952503 L 442.4325120000285 26.73151999997208 L 442.35878400004003 26.805247999960557 L 442.1867520000669 26.870783999969717 L 442.1734400000423 26.953727999934927 L 442.12428800005 27.084799999953248 L 442.0372480000369 27.192319999972824 L 441.88979200005997 27.207679999934044 L 441.7423360000248 27.240447999967728 L 441.6327680000104 27.149311999964993 L 441.5354880000232 27.08275199995842 L 441.5129436160205 27.041528831934556 L 441.31488563201856 27.016398847918026 L 441.19244800001616 27.07353599992348 L 441.0572800000664 27.13907199993264 L 440.84940800000913 27.138047999935225 L 440.66508800000884 27.11244799994165 L 440.3353600000264 27.062271999951918 L 439.8213120000437 26.97727999993367 L 439.73632000002544 26.886143999930937 L 439.8223360000411 26.85337599995546 L 439.9329280000529 26.854399999952875 L 440.07936000003247 26.846207999973558 L 440.20224000001326 26.863615999929607 L 440.43468800006667 26.83084799995413 L 440.7050240000244 26.766335999942385 L 440.92620800004806 26.651647999940906 L 441.1115520000458 26.49497599992901 L 441.2968960000435 26.347519999952056 L 441.49248000001535 26.31475199991837 L 441.57503692805767 26.342844415921718 L 441.6729651200585 26.349514751927927 L 441.7628160000313 26.30758399993647 L 441.81299200002104 26.183679999958258 L 441.99731200002134 26.08537599997362 L 442.22976000001654 26.06182399991667 L 442.40179200004786 26.07103999995161 L 442.4867840000661 26.186751999950502 L 442.51033600006485 26.286079999932554 L 442.4696401920519 26.339233791921288" fill="none"/><path stroke="#000000" stroke-width="2" d="M 422.87929651205195 25.87854540796252 L 422.7235840000212 26.34854399994947 L 422.5843200000236 26.419199999945704 L 421.5798312960542 26.281613311963156 L 420.94796800002223 26.676223999937065 L 420.5291520000319 26.88716799992835 L 419.65875200001756 26.88716799992835 L 419.4150400000508 26.5830399999395 L 419.37920000002487 25.99935999995796 L 419.7621760000475 25.7423359999666 L 420.52147712005535 25.741284351970535 L 421.8933319680509 25.295103999960702 L 422.82803200004855 25.180159999930765 L 423.14137600001413 25.27334399992833 L 423.0021120000165 25.50783999991836 L 422.87929651205195 25.87854540796252" fill="none"/><path stroke="#000000" stroke-width="2" d="M 446.9329920000164 22.97753599996213 L 446.3749120000284 22.97753599996213 L 446.44454400002724 22.556671999918763 L 447.90394470404135 21.483313151926268 L 448.84960972802946 21.220703231927473 L 450.06835916801356 21.197265919938218 L 450.12272435205523 21.19390003196895 L 451.1477760000271 21.083135999972 L 451.4959360000212 21.059583999973256 L 451.84409600001527 21.19987199996831 L 451.5307520000497 21.784575999947265 L 449.68448000005446 22.18188799993368 L 448.3604480000213 22.392829951946624 L 446.9329920000164 22.97753599996213" fill="none"/><path stroke="#000000" stroke-width="2" d="M 435.29625600005966 19.961855999950785 L 435.1681044480647 20.18316083191894 L 435.2714844160364 20.169921535940375 L 436.3961927680648 20.068482047936413 L 436.72473600006197 19.914751999953296 L 437.07289600005606 19.914751999953296 L 437.2131840000511 20.218879999942146 L 436.5854720000643 20.780031999922357 L 435.7148436480202 21.01367193594342 L 433.45100800006185 20.943871999974363 L 431.70898432005197 21.716796415974386 L 430.9511710720253 22.216797183966264 L 431.8671872000559 22.568358911958057 L 432.8593745920225 22.322265087917913 L 434.11328102403786 22.533202943974175 L 435.29687552002724 22.3691407359438 L 436.0356096000178 22.413160447962582 L 436.93465600005584 21.902335999940988 L 437.4568960000179 21.878783999942243 L 438.000840704015 22.311943167936988 L 438.15429632004816 22.392578047933057 L 438.9715968000237 22.302006271958817 L 439.3728000000119 22.206463999929838 L 439.6306647040183 22.22854246397037 L 440.3183953920379 21.96926054393407 L 440.45312000002014 21.878783999942243 L 440.80128000001423 21.80812799994601 L 441.3273405440268 22.10986393596977 L 442.61273600003915 21.925887999939732 L 443.03052800003206 22.135807999933604 L 443.1001600000309 22.228991999931168 L 442.16022323205834 22.744074239919428 L 441.3941760000307 23.539711999939755 L 440.48793600004865 23.82028799992986 L 440.203524096054 23.868387327936944 L 437.35347200004617 24.42854399996577 L 435.6850022400613 25.290812415943947 L 434.6331985920551 26.32508313591825 L 433.60937472002115 27.037109247932676 L 433.923828736064 28.14648422395112 L 434.16285388806136 28.27674111991655 L 434.8467200000305 28.45081599993864 L 435.09043200005544 28.872703999921214 L 435.12524800002575 29.106175999972038 L 433.9066880000173 29.85471999994479 L 433.31481600005645 29.808639999944717 L 432.8942940160632 29.451484159973916 L 432.63862272002734 29.318244351947214 L 431.95883212803164 29.57158092793543 L 431.7818880000268 29.761535999947228 L 430.77784678403987 29.761535999947228 L 430.427991040051 29.81916671997169 L 430.1624985600356 30.37038079992635 L 430.07590400002664 30.721023999969475 L 429.72774400003254 31.11833599995589 L 428.4446955520543 31.56214271992212 L 427.4636800000444 31.867903999926057 L 426.94144000002416 32.33587199996691 L 426.21030400006566 32.33587199996691 L 425.16582400002517 32.780287999950815 L 424.12032000004547 32.89804799994454 L 423.8417920000502 32.73420799995074 L 423.7721600000514 32.61747199995443 L 424.1374085120624 32.336629759927746 L 424.4511713280226 31.763672063942067 L 423.25120921601774 31.284783103968948 L 421.8204160000314 31.167487999948207 L 421.7507840000326 30.932991999958176 L 421.8204160000314 30.69951999996556 L 422.8934758400428 30.301915135933086 L 423.3870663680136 29.482117119943723 L 423.49158400006127 29.224959999963176 L 424.1843609600328 28.782052351918537 L 425.8874501120299 28.39019007992465 L 426.1038080000435 28.312575999938417 L 426.5330882560229 28.20976537594106 L 426.5917972480529 28.19335884792963 L 427.60189337603515 27.574158335919492 L 428.04884889605455 26.85160652792547 L 427.8330746880383 26.116250623948872 L 427.73913600004744 25.903103999968152 L 427.9132160000154 25.436159999924712 L 428.08729600004153 25.202687999932095 L 428.2541291520465 25.18011596793076 L 428.8554690560559 24.849609727971256 L 429.4465269760112 24.592119807959534 L 429.79296870401595 23.42382796795573 L 429.51101747201756 22.66200575995026 L 429.1233525760472 22.492342271958478 L 428.15590400004294 22.30169599992223 L 427.91219200001797 22.161407999927178 L 427.87737600004766 21.880831999937072 L 428.0166400000453 21.669887999945786 L 428.7129600000335 21.669887999945786 L 429.516080128029 21.622086655930616 L 430.3155957760173 21.07282329595182 L 430.35033600003226 20.804607999918517 L 430.8725760000525 20.827135999919847 L 431.0811136000557 20.94351359992288 L 432.16210944001796 20.96679731196491 L 432.92773478402523 20.451172351953574 L 434.06054707203293 20.333983743970748 L 434.09585254406556 20.329200639971532 L 434.321408000018 20.288511999940965 L 435.156992000062 19.89119999995455 L 435.29625600005966 19.961855999950785" fill="none"/><path stroke="#000000" stroke-width="2" d="M 395.6531200000318 21.14355199993588 L 394.74780057603493 21.167081471940037 L 394.22464000002947 20.957183999940753 L 394.1191680000629 20.39603199996054 L 394.3280640000594 20.185087999969255 L 394.89173094404396 20.14495027193334 L 395.15234406403033 20.087889919930603 L 395.75741849601036 19.529798655945342 L 396.4528640000499 19.64543999993475 L 396.4876800000202 19.879935999924783 L 396.18918707204284 20.16087039996637 L 395.7418792960234 20.798194687929936 L 395.8272000000579 21.003263999940827 L 395.6531200000318 21.14355199993588" fill="none"/><path stroke="#000000" stroke-width="2" d="M 452.08268800005317 11.446271999971941 L 451.8451200000127 11.51590399997076 L 451.1488000000245 11.468799999973271 L 450.31219200004125 11.468799999973271 L 450.033664000046 11.352063999918755 L 449.96403200004715 11.142143999924883 L 450.4166400000104 10.7673599999398 L 451.32606771204155 10.486710271972697 L 452.08985600003507 10.533887999947183 L 452.36838400003035 10.814463999937288 L 452.1594880000339 11.422719999973197 L 452.08268800005317 11.446271999971941" fill="none"/><path stroke="#000000" stroke-width="2" d="M 80.05960996299109 0.0 L 80.25058099202579 0.11673599993810058 L 80.14510899205925 0.6041599999298342 L 79.48360499204136 1.2328959999722429 L 79.34331699204631 1.9578879999462515 L 79.40161433606409 2.1244190719444305 L 79.73012377601117 2.8088115199352615 L 79.75349964800989 2.820744191936683 L 80.33090355206514 2.9582233599503525 L 80.70069043204421 2.9866700799320824 L 81.98069043201394 2.588446719921194 L 82.25778073602123 2.6291957759531215 L 83.15743539202958 2.8736563199199736 L 84.22165299201151 2.8241919999709353 L 85.1975249920506 3.0576639999635518 L 85.9286609920091 3.479551999946125 L 86.37524889601627 4.515421183954459 L 87.0153502720641 5.347553279949352 L 88.5494589440641 6.0293826559209265 L 89.09527859202353 6.438748159969691 L 91.6552785920212 6.950748159957584 L 93.5954862080398 7.280217087944038 L 95.85736499202903 7.548927999916486 L 97.4599249920575 7.923711999959778 L 98.81877299206099 8.531967999937478 L 100.28104499203619 9.678847999952268 L 101.71826380805578 11.073796095966827 L 103.62690355203813 12.145776639925316 L 103.78708889603149 12.192727039917372 L 104.24163942405721 12.474862591945566 L 104.2718013440608 12.483154943969566 L 105.19029964803485 12.60400844796095 L 105.27669043204514 12.629329919931479 L 107.01179699203931 12.885329919925425 L 107.1845007360098 12.86640332796378 L 108.14167859201552 12.992348159954417 L 108.8971653120243 12.8881428479217 L 110.24354099202901 12.534783999959473 L 110.9584394240519 12.60382924793521 L 111.11127859202679 12.58274815994082 L 111.31476070405915 12.638242815970443 L 111.9505489920266 12.699647999950685 L 113.7609809920541 13.191167999932077 L 114.43426816002466 13.489017855958082 L 114.49047859205166 13.50434815994231 L 117.15287859202363 14.118748159962706 L 118.90427289606305 14.118748159962706 L 119.85685299203033 14.035967999952845 L 120.3033231360605 14.118748159962706 L 120.3272785920417 14.118748159962706 L 122.34315264003817 13.894762495940086 L 123.86376499204198 13.686783999961335 L 125.60793292801827 13.908312063955236 L 125.75447859201813 13.913948159955908 L 126.5320007680566 14.08673075196566 L 127.46005299204262 14.27353599993512 L 127.91163699206663 14.380031999957282 L 128.05912371200975 14.42609151994111 L 128.5192785920226 14.528348159918096 L 128.79546777601354 14.462935039948206 L 130.39312691206578 14.8195532799582 L 131.18957363202935 14.734223359962925 L 131.73002035205718 14.392893439973705 L 132.44172390404856 13.577396223961841 L 133.1560417280416 12.9063710719347 L 133.5180369920563 12.262399999948684 L 134.21333299204707 10.928127999941353 L 135.0141009920626 10.343423999962397 L 136.1282129920437 10.20211199996993 L 137.28692428802606 10.238600191951264 L 140.85443891206523 9.687001087935641 L 143.67447859206004 9.510748159955256 L 146.07864524802426 9.12608051195275 L 148.80942899204092 8.677375999919605 L 153.54645299201366 7.926783999952022 L 153.69033011206193 7.916183551948052 L 154.46395187202143 7.6718827519216575 L 156.47669043205678 7.480893439962529 L 157.61446707200957 6.855106559931301 L 157.92735027201707 6.456893439928535 L 157.8178805760108 6.210584575950634 L 158.04939776001265 5.916737535968423 L 158.21384499204578 5.16607999993721 L 158.91016499203397 4.440063999965787 L 159.4313809920568 3.1539199999533594 L 159.81538099201862 2.8958719999645837 L 160.3772385280463 2.9240268799476326 L 160.53018931206316 2.7115939839277416 L 160.98244096001144 2.7226255359710194 L 161.06875699205557 2.6388479999732226 L 161.10357299202587 1.9834879999398254 L 161.03394099202706 1.6793599999509752 L 161.31349299201975 1.1888639999669977 L 161.1383889920544 0.11673599993810058 L 160.9008209920139 0.11673599993810058 L 160.92354441185307 0.0" fill="none"/><path stroke="#000000" stroke-width="2" d="M 169.11967088315578 0.0 L 169.33791641605785 0.11673599993810058 L 169.35291699203663 0.11673599993810058 L 169.4249717760249 0.16330035193823278 L 169.47927859204356 0.19234815996605903 L 169.76219852804206 0.19234815996605903 L 170.1869035520358 0.42667007993441075 L 171.4100203520502 0.5119999999296851 L 172.74690355203347 0.31289343995740637 L 173.12566835904727 0.0" fill="none"/><path stroke="#000000" stroke-width="2" d="M 424.46449023636524 0.0 L 424.42816512001446 0.14757273596478626 L 424.4364369920222 0.41779199993470684 L 424.75285299203824 0.7331839999533258 L 425.0078289920348 1.006591999961529 L 425.17293772805715 1.1582474239403382 L 425.3709844480618 1.3007810559356585 L 425.6374415360624 1.6540753919398412 L 425.8229329920141 1.8841599999577738 L 426.4793169920449 2.5559039999498054 L 426.90463436802384 2.913210367958527 L 427.4178590720403 3.2656250879517756 L 428.16785920003895 3.5312496639671735 L 428.4725473280414 4.097655807971023 L 428.85699174401816 4.188837887952104 L 429.05160499201156 4.19942399993306 L 429.5195729920524 3.920895999937784 L 430.3060049920459 3.6515839999192394 L 431.1170129920356 3.4723839999642223 L 431.6202598400414 3.3995212799636647 L 432.9178593280376 2.9687500799191184 L 434.754386944056 2.844047359947581 L 435.2451624960522 2.64140902395593 L 435.2481812480255 2.638595071970485 L 437.36177664005663 2.5031065599177964 L 439.2960000000312 1.9057766399346292 L 440.68977664003614 0.7395532799419016 L 441.7929442260938 0.0" fill="none"/><path stroke="#000000" stroke-width="2" d="M 495.81689117473434 0.0 L 495.7931520000566 0.11673599993810058 L 495.5146240000613 0.4741119999671355 L 494.7493580800365 0.6459750399226323 L 493.8944675840321 0.8574361599166878 L 493.7369600000093 1.1141119999228977 L 492.8307200000272 1.1141119999228977 L 492.4119040000369 1.4878719999687746 L 492.1459036160377 1.4998681599390693 L 491.305205760058 1.84114175994182 L 491.22713600005955 1.8851839999551885 L 490.7038720000419 2.0725759999477305 L 489.9353569280356 2.002832383965142 L 489.3102080000099 2.2824959999416023 L 488.92620800004806 2.3050239999429323 L 488.2298880000599 2.1176319999503903 L 487.53254400001606 2.2118399999453686 L 487.4667878400651 2.2280232959310524 L 485.1618160640355 2.889588735939469 L 485.16096000006655 2.9829119999194518 L 484.9172480000416 3.3566719999653287 L 484.6028800000204 3.4273279999615625 L 484.3360931840143 3.3049917439348064 L 483.541016576055 3.140624383930117 L 483.2381235200446 3.2105451519601047 L 483.13958400004776 3.3095679999678396 L 481.5011840000516 3.6136959999566898 L 479.8289920000243 4.268031999934465 L 479.5146240000613 4.197375999938231 L 479.5146240000613 4.104191999940667 L 479.699953664036 3.880817663972266 L 479.1676293120254 3.332907007948961 L 477.7379840000649 3.682303999958094 L 475.6469760000473 4.0560639999457635 L 475.3692856320413 3.9980277759605087 L 474.3925780480495 4.033203199971467 L 471.5345920000109 4.5004799999296665 L 470.83912089600926 4.80583270394709 L 471.1505920000491 5.225471999961883 L 471.2202240000479 5.458943999954499 L 470.802432000055 5.646335999947041 L 470.10508800001116 5.529599999950733 L 468.0837120000506 5.879807999939658 L 468.04635443206644 5.887597567925695 L 465.34943334403215 6.650405887921806 L 465.19193600001745 6.88537599996198 L 464.668672000058 6.861823999963235 L 464.68638617603574 6.707081215921789 L 464.3302789120353 6.110894079960417 L 464.02761011203984 6.050731007941067 L 463.3794560000533 6.113279999932274 L 463.25477273605065 5.897965567943174 L 462.6308587520616 5.400390655966476 L 460.80078131204937 5.505859583965503 L 460.06886400002986 5.832703999942169 L 459.26809600001434 5.8552319999434985 L 458.25740800006315 5.621759999950882 L 456.3404800000135 5.691391999949701 L 455.2949760000338 5.902335999940988 L 454.49420800001826 6.439935999922454 L 453.76204800006235 6.8382719999644905 L 453.4345318400301 6.701025279937312 L 451.64500172802946 6.441072639951017 L 449.92921600001864 6.534143999917433 L 447.90784000005806 6.8382719999644905 L 446.26138009602437 7.330757631920278 L 444.52903936005896 7.923247103928588 L 444.38835200003814 8.171519999974407 L 444.1062584320316 8.23457587196026 L 443.7968732160516 8.46288998395903 L 443.37890611204784 9.537108991935384 L 444.28515635203803 9.572264959919266 L 445.05078067205613 9.572264959919266 L 446.0267520000343 9.22419199993601 L 447.00865126401186 9.460979711962864 L 447.45523200003663 9.761791999917477 L 447.5593574400409 9.945888767950237 L 447.98315929603996 10.207490047963802 L 448.18636800005333 10.253311999957077 L 448.7444480000413 10.159103999962099 L 449.1274240000639 10.159103999962099 L 449.19705600006273 10.510335999948438 L 449.0926080000354 10.627071999944746 L 445.5048939520493 10.79084543994395 L 443.69203200004995 10.370047999953385 L 443.40912230405957 10.239753215922974 L 442.0983685120591 10.113023999962024 L 440.7654400000465 10.557439999945927 L 440.17254400003003 10.604543999943417 L 439.47622400004184 10.511359999945853 L 438.3163586560404 10.442128383961972 L 437.1432857600157 10.685751295939554 L 436.75976601603907 11.330078719940502 L 436.3613276160322 12.583984127966687 L 436.52757299202494 13.097388031950686 L 436.79334400006337 13.505535999953281 L 436.7218595840386 13.697388543921988 L 436.75976601603907 13.81445324793458 L 437.7735925760353 14.192442367959302 L 437.9432960000122 14.136319999932311 L 438.6635345920222 14.112436223949771 L 438.7121264640591 14.119084031961393 L 440.17356800002744 14.370815999922343 L 440.0343040000298 14.463999999919906 L 439.19769600004656 14.69747199997073 L 437.2807680000551 15.469567999942228 L 436.20117196801584 15.56445286393864 L 435.3300787200569 15.79882803192595 L 433.79687526402995 15.822266367962584 L 431.93940992001444 16.203883519920055 L 431.6723200000124 16.359423999965657 L 429.75641600001836 17.08543999993708 L 429.09388800006127 17.178623999934644 L 427.87532800005283 17.01580799993826 L 426.96656691201497 17.438824447919615 L 426.35979366401443 18.045549567963462 L 426.3146823680145 18.550843391916715 L 426.3772160000517 18.957311999925878 L 426.3782400000491 19.21433599991724 L 426.0290560000576 19.28499199997168 L 425.2513075200259 18.93614899192471 L 424.94417920004344 18.871027711953502 L 424.8906465280452 18.86261452792678 L 423.9135764480452 19.025144831917714 L 423.1731200000504 19.21535999997286 L 422.3506442240323 19.14441625593463 L 422.0865187840536 19.126555647933856 L 420.7339520000387 19.847167999949306 L 420.55987200001255 19.80108799994923 L 420.4751452160417 19.709882367926184 L 419.23830681602703 19.101252607943024 L 418.03532390401233 18.866643967921846 L 417.2851568640326 19.21679769596085 L 416.5888000000268 19.146751999971457 L 415.9262720000115 19.404799999960233 L 415.5781120000174 19.381247999961488 L 415.195136000053 19.21740799996769 L 414.5326080000377 18.867199999920558 L 413.55673600005684 18.65625599992927 L 412.09360793605447 19.219090431928635 L 411.46842214401113 19.79132108791964 L 411.43296000006376 19.990527999936603 L 411.11961600003997 20.294655999925453 L 410.859503616055 20.35339775995817 L 409.7933199360268 20.62364467192674 L 408.785920000053 20.903935999958776 L 408.5428992000525 20.83399065595586 L 407.9125749760424 20.8935495679616 L 407.6718080000137 20.97459199995501 L 407.4270720000495 20.881407999957446 L 406.8359833600116 20.64359731192235 L 406.9379635200603 19.875122175959405 L 406.1367183360271 19.24414054391673 L 404.6387200000463 19.245055999956094 L 404.08166400005575 19.549183999944944 L 403.69868800003314 19.596287999942433 L 403.3929308160441 19.446679551969282 L 403.0610790400533 19.36355020792689 L 401.71443200006615 19.92336895992048 L 401.60972800001036 20.67251199996099 L 400.18124800006626 20.697087999957148 L 400.14074572804384 20.46373068797402 L 399.61781043204246 20.092179455969017 L 399.44908800005214 20.04172799992375 L 398.960640000063 19.52767999994103 L 398.7507200000109 18.381823999923654 L 398.57561600004556 17.516543999954592 L 397.48387840006035 16.59920895996038 L 396.65186816005735 16.18431999994209 L 395.47392000001855 16.18431999994209 L 394.6711040000664 15.670271999959368 L 394.14886400004616 15.577087999961805 L 393.9399680000497 15.367167999967933 L 394.0433920000214 15.156223999918438 L 395.18725120002637 14.805726207967382 L 395.9960934400442 14.919921663939022 L 396.9540833280189 14.403897343960125 L 397.03961600002367 14.288895999954548 L 397.30844774405705 14.173887487966567 L 398.0480552960653 13.56500070396578 L 399.37939660804113 13.163009023934137 L 400.5917962240637 12.662109183962457 L 401.42773350403877 12.064452607941348 L 402.12491571204737 11.876936703920364 L 403.20312524802284 11.302733823948074 L 402.7173754880205 9.595925503934268 L 401.84183091204613 8.205130751943216 L 401.04038400005084 7.78444799996214 L 400.2037760000094 7.45779199997196 L 399.9252480000141 7.293951999919955 L 398.635008000012 6.218751999957021 L 395.04384000005666 4.560895999951754 L 394.97281126404414 4.489345023932401 L 393.8650982400286 3.941875711956527 L 393.7884160000249 3.906559999973979 L 392.812544000044 3.742719999921974 L 391.8710937600117 3.861327871971298 L 389.5039057920221 4.3066408959566616 L 386.6464849920594 5.033202687918674 L 385.2187504640315 5.337890815921128 L 384.53906329604797 6.001953791943379 L 384.5986406400334 6.483534847968258 L 384.8354785280535 6.975598591961898 L 384.52224000002025 7.3021439999574795 L 383.91032115201233 7.4628351999563165 L 383.0649856000091 7.996112895954866 L 383.0446080000256 8.187903999933042 L 382.76608000003034 8.30463999992935 L 382.55335526401177 8.333335551957134 L 381.89405286405236 8.818461695918813 L 380.70898483204655 8.912109567958396 L 380.0820305920206 9.216796671971679 L 379.10528000001796 10.034175999928266 L 377.6061440000194 10.734591999964323 L 376.8401920000324 10.805247999960557 L 376.71803289605305 10.870722559920978 L 375.93170329602435 11.309602815948892 L 375.68921600002795 11.459583999938332 L 373.4589440000127 12.019711999921128 L 373.3712752640131 12.042946559959091 L 371.7181972480612 12.521078783960547 L 371.47238400002243 12.626943999959622 L 370.3572480000439 12.953599999949802 L 368.65039052802604 13.818359807948582 L 366.97656217601616 15.220703231927473 L 366.8008601600304 16.13435084791854 L 364.74368000001414 17.67628799995873 L 363.38483200001065 18.541567999927793 L 362.443359232042 19.3144524799427 L 360.91084800002864 19.64031999994768 L 360.179687424039 20.013671423948836 L 359.1327313920483 20.64672972797416 L 358.7499991040095 21.48632780794287 L 359.443366912019 24.037114879931323 L 359.96679680002853 24.669922303932253 L 360.7656243200181 25.931640831928235 L 360.4863272960647 28.294922239962034 L 360.5546874880092 29.34570291195996 L 361.02343782404205 30.154296319931746 L 361.70312499202555 30.958985215926077 L 362.05500416003633 31.50130687991623 L 363.54764800006524 32.62156799994409 L 363.89580800005933 33.08953599992674 L 364.37843456002884 34.064183295937255 L 364.8554680320667 34.61523455992574 L 365.5644538880442 35.42773452796973 L 366.7832033280283 37.837890559923835 L 366.79892070405185 37.86765516793821 L 367.3036800000118 38.751231999951415 L 367.40879155206494 39.0222561279661 L 368.52148428803775 40.482421759923454 L 368.79925657605054 41.143102463916875 L 368.69427200005157 41.628671999962535 L 368.57250611204654 41.804158975952305 L 368.7285155840218 42.7285155839636 L 368.9374996480183 43.35742156795459 L 369.09390643204097 44.86177484795917 L 369.43790489604 45.2822712319321 L 370.1186560000642 45.86291199992411 L 370.06637977604987 46.04879462393001 L 370.064126976009 46.31547289591981 L 370.3961600000621 46.822399999946356 L 370.0586014720611 46.96199065592373 L 369.5791779840365 47.28250163194025 L 369.3844480000553 47.64057599991793 L 369.10592000006 47.52383999992162 L 367.43680000002496 46.42303999996511 L 367.1930880000582 46.236671999969985 L 366.5326080000377 45.72159999993164 L 366.42682060803054 45.591440383926965 L 364.9086679040338 44.99966156797018 L 364.47846400004346 44.410879999923054 L 363.9570309120463 43.89648383995518 L 362.6713548800326 43.4165503999684 L 362.3905280000181 43.357183999964036 L 361.3112320000655 42.912767999921925 L 359.7793280000333 42.02393599995412 L 358.97856000001775 41.602047999971546 L 357.0991861760267 40.9704939519288 L 356.33356800006004 40.4787199999555 L 356.29863321606535 40.24393420794513 L 356.00341811205726 39.93446195195429 L 355.4631680000457 39.776255999924615 L 355.6121415680391 39.524289535940625 L 355.604826112045 38.75447705591796 L 355.497984000016 38.70105599996168 L 355.67308800003957 38.32627199991839 L 355.80535193602555 38.25981644797139 L 356.0478515200666 37.85156300792005 L 356.0371169280261 37.62524979194859 L 355.881984000036 37.46099199994933 L 356.0091668480309 37.03601459192578 L 355.9873638400459 36.59621580794919 L 355.15551641600905 36.12925951991929 L 354.87334400002146 35.286015999969095 L 353.06291200005217 34.67673599993577 L 351.9843747840496 34.39648460794706 L 351.14122035203036 34.102652927918825 L 349.79629977606237 33.88215091195889 L 346.447265792056 33.90429695992498 L 342.1276160000125 34.27737599995453 L 340.62950400001137 34.27737599995453 L 339.3761280000326 34.60403199994471 L 337.8083840000327 34.67468799994094 L 335.9628912640619 34.97851596795954 L 334.0820316160098 35.048828927916475 L 332.8286720000324 35.37510399991879 L 331.67872000002535 35.51539199997205 L 329.9379200000549 35.93625599995721 L 328.3005440000561 36.49843199993484 L 327.6042240000097 36.87219199992251 L 325.7241600000416 37.45689599995967 L 324.71309824002674 38.34706943994388 L 324.3653120000381 38.79014399996959 L 323.84307200001786 38.859775999968406 L 323.0064640000346 38.97753599996213 L 322.1709486080217 39.53864191996399 L 321.7890631680493 40.169921535940375 L 321.26566400006413 41.5037439999287 L 320.4300800000201 42.041343999968376 L 319.73437440005364 42.39257804793306 L 319.19508992001647 43.08039270393783 L 318.2887618560344 44.358028287941124 L 318.2366720000282 44.52044799993746 L 317.6833320960286 45.373992959968746 L 317.2431728640222 46.96157286391826 L 317.2271011840203 47.02360371191753 L 317.5235133440583 48.33394892793149 L 318.79492198402295 49.00976537592942 L 319.97851545602316 49.384765439957846 L 321.371094016009 49.40820377593627 L 322.8671877120505 49.572265983966645 L 323.9464960000478 49.94662399991648 L 325.17129420803394 50.630476799968164 L 325.68729600001825 51.186687999928836 L 325.7917440000456 51.678207999968436 L 325.1884922880563 52.62363955192268 L 325.009766400035 53.00976537592942 L 325.3403688960243 53.924335615942255 L 325.8265600000159 54.27404799993383 L 325.8265600000159 54.5751900159521 L 325.86263449606486 55.537084415962454 L 326.5576960000326 55.93497599993134 L 326.6273280000314 56.402943999972194 L 326.03545600001235 56.754175999958534 L 325.0954240000574 57.080831999948714 L 324.4339200000395 57.4556159999338 L 323.9464960000478 57.4556159999338 L 322.5126072320272 57.43390105594881 L 320.2461214720388 58.10567679995438 L 319.9784960000543 58.24921599996742 L 317.4717440000386 58.9516799999401 L 316.11461222404614 59.06837094394723 L 313.88671897602035 59.04492134397151 L 309.63814400002593 60.12108799995622 L 308.6991360000102 60.54297599993879 L 307.9331840000232 60.96383999992395 L 304.83558400004404 62.01651199994376 L 303.75628800003324 62.46092799992766 L 303.72135321603855 62.48809983994579 L 303.1358709760243 62.98248294391669 L 302.9565440000151 63.16339199995855 L 301.2113633280387 63.59013171197148 L 300.83379200001946 64.05222399992635 L 300.6945280000218 64.26316799991764 L 300.63396454404574 64.2902835199493 L 300.60476825601654 64.82066739193397 L 300.6945280000218 64.98815999994986 L 300.48563200002536 65.19807999994373 L 300.06784000003245 65.3393919999362 L 299.7869864960667 65.3393919999362 L 294.51979264005786 67.30364108795766 L 294.0482027520193 68.6637803519261 L 293.9095040000393 69.15276799997082 L 293.80541030404856 69.3160519679659 L 293.97380505601177 69.68829235195881 L 294.2228480000631 69.87775999994483 L 293.98016000003554 70.06515199993737 L 292.8694312960142 70.34507263993146 L 291.96289024001453 70.65039052796783 L 291.19716864003567 71.39652095997008 L 291.09145600005286 71.60934399993857 L 289.804288000043 71.93702399992617 L 287.6119040000485 72.19507199997315 L 285.10720000002766 72.71014399995329 L 284.30643200001214 72.99174399994081 L 281.9062497280538 74.185546751949 L 281.1064320000587 74.81651199993212 L 279.05331200006185 75.5660799999605 L 278.28838400001405 76.05759999994189 L 277.55720806401223 76.17537843197351 L 276.75781324802665 76.5488281599246 L 276.18462003202876 77.56995379197178 L 276.2362880000146 77.81273599993438 L 276.44518400001107 78.28070399991702 L 276.1666560000158 78.60838399996283 L 275.36765440006275 78.81817292794585 L 274.35923353605904 78.91242188797332 L 273.83794278401183 80.06960025592707 L 273.9066880000173 80.24575999996159 L 273.7504849920515 80.55125503992895 L 273.6656650240184 81.01986201596446 L 273.7684480000171 81.11206399992807 L 273.59436800004914 81.43871999991825 L 273.04029184003593 81.62599628797034 L 272.14021836803295 81.83866777596995 L 272.09932800004026 82.04799999995157 L 271.4293985280092 81.99723724793876 L 270.603366400057 81.77249996794853 L 269.2450037760427 81.93254092795542 L 268.56835891201627 82.40039116796106 L 268.5859379200265 83.52929689595476 L 269.4570311680436 83.82617190392921 L 270.39669145602966 83.78011443192372 L 270.7087360000587 84.06015999993542 L 270.81420800002525 84.48102399992058 L 270.361600000062 84.59775999991689 L 269.8203678720165 84.61855948792072 L 268.87890636804514 84.85351526393788 L 268.81486336002126 84.88000409596134 L 268.692480000027 85.06675199995516 L 268.0657920000376 85.27769599994645 L 267.82517657603603 85.28934707195731 L 267.7880862720194 85.30468761594966 L 266.66274304001126 85.60343347192975 L 266.32758272002684 86.17794662393862 L 266.32704000006197 86.23718399996869 L 265.45552281604614 86.5187143679359 L 264.5370910720667 86.69336166395806 L 264.34457600006135 86.8935679999413 L 263.8233600000385 86.8935679999413 L 263.6305059840088 86.83478323195595 L 261.8440099840518 87.45688166393666 L 261.7712640000391 88.06297599995742 L 260.8105472000316 88.83398451196263 L 261.1261265920475 89.15473715192638 L 261.2858880000422 89.18527999991784 L 261.3903360000113 89.30303999996977 L 261.18144000001485 89.46687999996357 L 259.1638405120466 89.35032422392396 L 258.68628992006416 89.85780223994516 L 258.7822080000187 90.09971199993743 L 258.50368000002345 90.28607999993255 L 256.8011079680291 90.49797427194426 L 255.90579200006323 90.97625599993626 L 255.15429683204275 91.17382758395979 L 254.21312000002945 91.45343999995384 L 254.1409495040425 91.5096483839443 L 253.11646822403418 92.34208870393923 L 252.8901120000519 92.55219199997373 L 251.56812800001353 92.97305599995889 L 250.83596800005762 93.65094399993541 L 250.57652736001182 93.7321492479532 L 249.57952409604331 94.26295705593657 L 249.54880000004778 94.28172799997265 L 248.01689600001555 94.60838399996283 L 247.07717632001732 95.23895807994995 L 246.69335859204875 96.30273433594266 L 246.92469043203164 96.63486054394161 L 247.10963200003607 96.75980799994431 L 247.45779200003017 96.82943999994313 L 247.27953510405496 97.10905958391959 L 248.5076848640456 97.7705625599483 L 249.02246400003787 97.9066879999591 L 249.26515200006543 98.11763199995039 L 249.1955200000666 98.351103999943 L 247.90835200005677 98.58457599993562 L 246.79492198402295 98.60742143995594 L 245.2988272640505 98.39648460794706 L 244.22380748804426 98.6847139839665 L 244.04684800002724 98.88665599992964 L 243.5246080000652 99.05049599992344 L 242.82931200001622 99.07302399992477 L 239.8554685440613 99.47070361592341 L 239.33042688004207 99.91136358393123 L 239.28012800001306 100.07756799994968 L 238.9678080000449 100.1471999999485 L 238.6544640000211 99.96083199995337 L 238.58377113606548 99.84179711993784 L 237.13220198405907 99.84243404795416 L 236.18560000002617 99.58502399997087 L 234.89344819204416 99.56249907193705 L 233.22851635201368 99.98242201592075 L 233.12384000001475 100.29226188792381 L 233.12384000001475 100.6602239999338 L 232.84531200001948 100.75340799993137 L 232.5319680000539 100.58956799993757 L 232.4672000000137 100.3696127999574 L 232.4062504960457 100.33007820794592 L 231.4251274240669 100.37795327993808 L 230.6887680000509 101.08006399992155 L 230.3931852800306 101.19693414395442 L 229.99257497605868 102.38845030392986 L 228.91406233602902 102.76367155194748 L 228.25390694400994 102.81054105592193 L 227.6269527040422 103.05663999996614 L 227.7789102080278 103.34814924793318 L 228.0785920000635 103.51206399995135 L 228.11340800003381 103.83974399993895 L 227.83488000003854 104.02611199993407 L 227.10374400002183 104.35379199992167 L 226.86003200005507 104.49407999991672 L 226.58817331201863 104.41567027196288 L 225.53860812803032 104.72844390396494 L 225.434624000045 104.82073599996511 L 224.77312000002712 104.60979199997382 L 224.04300800006604 104.68044799997006 L 222.3390720000607 105.19449599995278 L 221.88671897602035 105.77929625596153 L 220.1118720000377 106.38643199997023 L 219.20768000005046 106.64345599996159 L 218.51169280003523 106.94757580792066 L 216.720702464052 107.2285153279663 L 215.86876723205205 108.3265075199306 L 215.24275200004922 108.81843199994182 L 214.68569600005867 108.91161599993939 L 213.85905254405225 108.95848755195038 L 213.01719859201694 109.4135613439721 L 212.86182809603633 109.77446502394741 L 212.80768000002718 110.17420799995307 L 212.45952000003308 110.43123199994443 L 211.90348800003994 110.68825599993579 L 211.4160640000482 111.24940799997421 L 210.1988587520318 111.62308915192261 L 209.4684160000179 111.66924799996195 L 209.3220823040465 111.52183807996335 L 209.2343756800401 111.51171788794454 L 208.396170240012 111.31903999997303 L 207.973376000009 111.31903999997303 L 207.68531353602884 111.16114534396911 L 206.86213427205803 111.07235327991657 L 206.7558400000562 111.15519999992102 L 206.16595865605632 111.20120422396576 L 205.20846950402483 111.7522862079204 L 205.01708800002234 111.99692799994955 L 204.63626342406496 112.09602969593834 L 204.20163686404703 112.35714252793696 L 204.00844800006598 112.55807999992976 L 203.2783360000467 112.44031999993604 L 202.33027174405288 112.23131340794498 L 200.81042227201397 112.53344051196473 L 200.17528217606014 113.45143091195496 L 200.14796800003387 113.49299199995585 L 199.47595571202692 113.96160716796294 L 198.51342950406251 114.11359334393637 L 197.8171545600635 114.68612403195584 L 197.12204800004838 115.05971199995838 L 196.67046400002437 115.19999999995343 L 195.98614425602136 115.29317171196453 L 195.1694970880635 115.90301900793565 L 194.5347205120488 116.16847155196592 L 194.40947200002847 116.25267199997324 L 193.89585612801602 116.18578431993956 L 193.11930368002504 116.20844031992601 L 192.53279436804587 116.55668121593772 L 191.62828800006537 116.5567999999621 L 190.93359411205165 116.65039052796783 L 189.71582054405008 116.3164057599497 L 189.33786828804296 116.91642777592642 L 189.472768000036 117.18860799993854 L 189.29868800000986 117.37497599993367 L 188.88089600001695 117.39852799993241 L 188.4520417280146 117.31003391992999 L 188.10742169601144 117.3339852799545 L 188.25866444804706 117.99769087997265 L 188.2900480000535 118.03033599996706 L 188.3248640000238 118.40511999995215 L 187.42067200003657 118.8259839999373 L 187.17798400000902 118.94271999993362 L 186.79500800004462 118.96627199993236 L 186.9051883520442 118.5514741759398 L 186.75943526404444 118.17032294394448 L 184.82277580804657 118.10061721596867 L 184.22169600002235 118.4286719999509 L 183.2488960000337 119.05945599992992 L 182.17062400002033 119.3175039999187 L 181.92847872001585 119.2598046719213 L 181.24906803201884 119.69674239994492 L 181.40569600003073 119.85510399995837 L 181.2326400000602 120.04249599995092 L 180.78003200003877 120.13567999994848 L 180.32844800001476 120.11212799994973 L 179.14572800003225 119.38713599991752 L 179.1117168640485 119.38257817592239 L 178.27734323201003 119.3300787199405 L 177.93684070406016 119.69961676793173 L 177.85958400001982 119.85510399995837 L 177.68550400005188 119.90220799995586 L 177.12947200005874 119.59807999996701 L 176.29491200001212 119.62163199996576 L 175.356928000052 120.1367039999459 L 174.79732121602865 120.6055802879273 L 173.4972364800633 121.24826726393076 L 173.3754880000488 121.46995199995581 L 172.50702745601302 121.51725977595197 L 171.98387200001162 121.04908799997065 L 171.28857600002084 121.09619199996814 L 171.05117081606295 120.92179763194872 L 170.15969280002173 120.80293375992915 L 170.00243200006662 120.93235199997434 L 169.44640000001527 120.90982399997301 L 169.38480947201606 120.90522931196028 L 167.72444467205787 120.82804019196192 L 166.5317027840647 121.3984880639473 L 165.5870279680239 122.33834803191712 L 165.44870400003856 122.5011199999717 L 164.74477670405759 122.78249267191859 L 163.60742195206694 123.03710924793268 L 163.57796659204178 123.67858073592652 L 163.6413440000615 123.95110399991972 L 163.46828800003277 124.41907199996058 L 163.05049600003986 124.74675199994817 L 162.32038400002057 124.74675199994817 L 161.5898439680459 124.2792970239534 L 160.8785571840126 123.4857553919428 L 160.02759577601682 123.61314611195121 L 159.47820134402718 124.3009822719614 L 159.43475200003013 124.49075199995423 L 159.15724800003227 124.65459199994802 L 158.4967680000118 124.5368319999543 L 158.3746990080108 124.41989222395932 L 157.42197862401372 124.3268136959523 L 156.30602547206217 123.36897945596138 L 155.6796876800363 123.20507903996622 L 154.66809548804304 123.2302366719232 L 153.87304652802413 123.53320243192138 L 154.10546790400986 124.41210982395569 L 154.85015552002005 124.91498905594926 L 155.85484800004633 125.73081599996658 L 155.6817920000176 126.22233599994797 L 154.98649600002682 126.73740799992811 L 154.0839843840222 127.15820236795116 L 152.93749964801827 127.53320345596876 L 151.957278720045 127.66315519995987 L 151.37887334404513 127.96291379194008 L 151.3164800000377 128.11263999994844 L 149.54496000002837 129.02707199996803 L 148.87628800002858 129.1550719999359 L 148.2147840000107 129.04345599992666 L 147.05664000002434 128.3758079999243 L 146.99056742404355 128.37108019192237 L 145.61340313602705 128.3300823039608 L 144.54886400001124 128.48025599995162 L 143.62112000002526 128.77721599995857 L 143.1592960000271 128.8058879999444 L 142.92995686404174 128.76843417593045 L 141.9359395840438 128.7207208959735 L 141.62636800005566 128.7854079999379 L 139.36537600005977 129.2369919999619 L 138.54720000003 129.22572799993213 L 137.88876800006256 128.9768959999201 L 136.3148800000199 128.57855999993626 L 135.58110310405027 128.58726911991835 L 134.8467230720562 128.5983825919684 L 132.93772800004808 128.67174399993382 L 131.5019530240097 128.8261724159238 L 127.90272000001278 130.47091199993156 L 127.4327040000353 130.62143999995897 L 126.1895680000307 130.90201599994907 L 124.45081600005506 131.57887999992818 L 123.78931200003717 132.16358399996534 L 123.1288320000167 132.23321599996416 L 122.46875033603283 132.63085977593437 L 120.8678400000208 134.40716799994698 L 119.51171891205013 135.52929689595476 L 118.6777344000293 135.97460889595095 L 117.21625600004336 136.44083199993474 L 116.20864000002621 136.48691199993482 L 114.63671808002982 136.35742105596 L 113.65429657604545 136.5449215999688 L 113.62640384002589 136.94575513596646 L 113.73977600003127 137.11769599997206 L 113.6056545280153 137.2439275519573 L 113.60156262404053 137.30273382394807 L 113.89354598405771 137.81053235195577 L 114.08691200002795 137.95839999994496 L 114.08691200002795 138.28607999993255 L 113.5298560000374 138.44991999992635 L 112.52224000002025 138.98751999996603 L 112.17408000002615 138.96396799996728 L 111.54944000003161 138.56563199992524 L 109.77792000002228 137.46687999996357 L 107.93676800001413 136.01587199995993 L 107.90375936002238 135.99510015995475 L 106.58192179206526 135.26814310392365 L 103.99367372802226 135.30914303992176 L 103.89416243205778 135.31571199995233 L 102.82217472005868 135.66153011191636 L 102.6877440000535 135.7813759999699 L 101.98740070406348 136.29661286395276 L 101.07226521603297 136.56445337593323 L 100.56640614406206 137.30664038396208 L 100.21888000005856 138.09459199995035 L 99.52358400000958 138.16422399994917 L 98.23828172805952 137.81445324793458 L 97.50976512004854 137.83789055992384 L 95.73580800002674 138.3505919999443 L 93.26796800002921 138.3505919999443 L 91.07763200002955 138.77043199993204 L 90.4531251200242 139.14452684792923 L 90.4525465600309 139.96975923195714 L 90.44633600005182 140.6945279999636 L 90.1038080000435 141.0631679999642 L 89.16582400002517 141.3437439999543 L 87.60115200001746 141.55366399994818 L 86.10707353602629 141.7636270079529 L 85.37702400004491 141.76358399994206 L 84.96025600004941 141.53011199994944 L 84.64069324801676 141.24871372792404 L 83.34372556803282 140.2780078079668 L 80.84394803206669 140.49343385593966 L 80.79052800004138 140.49996799993096 L 80.70028697606176 140.52587724797195 L 77.93034240003908 141.37555251194863 L 76.41088000003947 142.13734399992973 L 76.31738265603781 142.1522933759261 L 75.53016115201171 142.29901516792597 L 75.13902489602333 142.54726348794065 L 74.77760000003036 142.86233599996194 L 73.93756262405077 143.04243507195497 L 73.90568857605103 143.05097420793027 L 72.06707200006349 144.63897599995835 L 71.8597652480239 144.75556351995328 L 70.82506240002112 145.68250163196353 L 70.58984345605131 146.5449215999688 L 72.62304768001195 147.79492147197016 L 72.65820262406487 148.56835891195806 L 73.66415564803174 149.59656447992893 L 73.62890649604378 150.5097656319267 L 73.38878259202465 151.84451583994087 L 74.2195200000424 152.75519999995595 L 73.62867200002074 153.15251199994236 L 71.61344000004465 153.54982399992878 L 69.80710400006501 153.40953599993372 L 68.5905920000514 153.76076799992006 L 67.79187200003071 153.92460799997207 L 66.08896000002278 153.03577599994605 L 65.28906240005745 152.75585945596686 L 64.42187468806515 152.72070348792477 L 64.07625420804834 153.3581322239479 L 64.03906252805609 154.01757798396284 L 64.80468684801599 154.85742182395188 L 66.04808192001656 155.62704281596234 L 67.68742400006158 156.70783999993 L 67.68742400006158 156.91775999992387 L 67.51334400003543 156.9884159999201 L 66.73155891202623 157.00668927992228 L 66.27081625605933 157.0683463679743 L 65.74218752002344 157.80664115195395 L 64.72884121601237 158.11423539195675 L 64.17817600001581 158.43839999992633 L 63.83104000001913 158.55513599992264 L 63.03129600005923 158.57868799992139 L 62.02470400003949 159.07020799996099 L 61.98105907201534 159.05761996796355 L 61.39318988804007 158.91687014396302 L 60.02715955203166 158.90686668793205 L 59.41898854402825 159.39881471992703 L 58.96704000001773 160.63692799996352 L 58.639439872058574 160.72792780795135 L 55.563264000054915 161.7838079999201 L 54.27929702401161 161.99414067197358 L 51.39453132805647 162.5097656319267 L 50.49218764802208 162.74414079997223 L 48.96256000001449 163.4447359999176 L 48.06041600002209 163.86559999996098 L 46.70566400006646 163.95980799995596 L 46.25408000004245 163.89017599995714 L 45.440861184033565 163.56470067193732 L 44.59631001605885 163.26723686396144 L 43.523489792016335 163.1128739839187 L 42.5019535360625 163.09570252796402 L 38.73973043204751 163.0990387199563 L 37.031249920022674 163.57617151993327 L 36.38974976004101 164.82474495994393 L 35.867648000014015 165.20191999996314 L 35.20716800005175 165.13228799996432 L 34.91666534403339 165.06373324792366 L 34.327511040028185 164.9634508799645 L 33.64454400003888 164.94489599997178 L 30.656249856052455 164.87695257592713 L 29.31948236800963 165.26248857594328 L 28.645041152019985 166.02100121596595 L 28.53906124801142 166.79492198396474 L 28.750000128056854 167.5878901759279 L 29.39417088002665 168.1987112959614 L 29.5127040000516 168.24422399996547 L 29.55975270405179 168.31802572793094 L 30.242428928031586 168.68845363194123 L 32.22323200001847 169.50681599992095 L 32.36249600001611 169.62355199991725 L 32.36249600001611 169.99731199996313 L 31.94572800002061 170.72230399993714 L 31.181824000028428 171.1441919999197 L 30.070784000039566 171.21484799997415 L 29.34169600001769 171.6357119999593 L 28.646400000026915 171.72889599995688 L 27.777773568057455 171.96593663992826 L 27.43091200001072 172.82867199997418 L 27.130945536016952 172.9529958399362 L 26.321848320018034 173.55297996796435 L 25.348096000030637 173.71750399994198 L 24.029184000042733 174.18547199992463 L 23.776089088059962 174.13698457594728 L 23.081098240043502 174.03060940792784 L 23.02156800002558 174.02265599992825 L 22.015192064049188 174.65440563193988 L 21.077748736017384 174.88877055991907 L 19.340288000064902 174.7015679999604 L 18.194432000047527 174.79577599995537 L 17.013760000059847 175.26476799993543 L 15.381504000048153 175.40505599993048 L 13.333504000038374 175.99078399996506 L 12.246760448033456 176.27364556794055 L 10.277888000011444 176.48332799994387 L 7.6728320000111125 176.57855999993626 L 6.562500608037226 176.71875379193807 L 5.2776960000628605 177.2574719999684 L 2.8815360000589862 177.60972799995216 L 1.1941427200217731 177.70421145594446 L 0.0 178.07277257693204" fill="none"/></svg>