<svg xmlns="http://www.w3.org/2000/svg" width="1024" height="1024"><rect stroke="none" x="0" y="0" width="1024" height="1024" fill="white"/><path stroke="#000000" stroke-width="2" d="M 1024.0 0.9101557758403942 L 1017.656250368047 0.9101557758403942 L 985.91406284814 0.8085934079717845 L 969.9375001600129 0.8085934079717845 L 961.2343746560509 0.08984371181577444 L 957.5468748800922 0.7031255039619282 L 942.7968747520354 0.7031255039619282 L 931.023437824042 0.601562111871317 L 919.6562503681052 0.601562111871317 L 896.6171873280546 0.4999997438280843 L 890.6796871680999 0.601562111871317 L 882.179687424039 0.8085934079717845 L 879.2109373440617 0.7031255039619282 L 875.5234375681612 0.601562111871317 L 862.007812096097 0.601562111871317 L 857.6015626240405 0.7031255039619282 L 840.7031255040201 0.601562111871317 L 834.7656253440655 0.601562111871317 L 825.8593751040171 0.7031255039619282 L 816.9531248640269 0.8085934079717845 L 812.1406248960993 1.011719167989213 L 801.6953128960449 1.011719167989213 L 789.6093747200212 1.113281535974238 L 784.1796874241554 1.113281535974238 L 768.2109378561145 1.2148439038428478 L 752.4374999040738 1.2148439038428478 L 730.9374996480183 1.3203128319582902 L 707.5859374080319 1.3203128319582902 L 702.9765621760162 1.421875200001523 L 672.9765621760744 1.3203128319582902 L 626.4843745281105 1.3203128319582902 L 620.3437496320694 1.421875200001523 L 589.3124997120467 1.421875200001523 L 579.4843750401051 1.523437567811925 L 567.7109370880644 1.6249999358551577 L 560.9531248641433 1.6249999358551577 L 548.460937216063 1.7265623038983904 L 544.1562501120497 1.7265623038983904 L 540.1640622080886 1.8320312320138328 L 534.9453127680463 1.7265623038983904 L 525.2109373440617 1.7265623038983904 L 520.6093752320157 1.6249999358551577 L 512.2109378560563 1.6249999358551577 L 508.42187468806515 1.523437567811925 L 471.3515622400446 1.523437567811925 L 458.4453120001126 1.421875200001523 L 451.78906214406015 1.523437567811925 L 447.4921871361439 1.3203128319582902 L 440.3203123200219 1.2148439038428478 L 437.0468751360313 1.2148439038428478 L 429.16406272008317 1.113281535974238 L 417.4921871360275 1.113281535974238 L 399.3671874560532 1.2148439038428478 L 387.0781245440594 1.011719167989213 L 384.0000000001164 0.9101557758403942 L 377.4531246080296 0.9101557758403942 L 373.14843750401633 0.8046878718305379 L 367.92968704004306 0.8085934079717845 L 364.0390625281143 0.8085934079717845 L 359.32812492811354 0.7031255039619282 L 329.01562470407225 0.7031255039619282 L 319.4921871360857 0.8085934079717845 L 290.8203120640828 0.8085934079717845 L 288.0546877440647 0.9101557758403942 L 281.3984378880705 0.9101557758403942 L 276.5859379200265 0.8085934079717845 L 256.21093785605626 0.9101557758403942 L 253.445312512049 0.9101557758403942 L 246.4999782401137 0.6697175038862042 L 244.53125017601997 0.601562111871317 L 244.51352709287312 0.0" fill="none"/><path stroke="#000000" stroke-width="2" d="M 244.51352709287312 0.0 L 244.53125017601997 0.6015621119295247 L 246.4999782400555 0.6697175039444119 L 253.445312512049 0.9101557759568095 L 256.21093785605626 0.9101557759568095 L 276.5859379200265 0.8085934079717845 L 281.39843788801227 0.9101557759568095 L 288.0546877440647 0.9101557759568095 L 290.8203120640246 0.8085934079717845 L 319.4921871360275 0.8085934079717845 L 329.01562470401404 0.7031255039619282 L 359.32812492805533 0.7031255039619282 L 364.0390625280561 0.8085934079717845 L 367.92968704004306 0.8085934079717845 L 373.14843750401633 0.8046878719469532 L 377.4531246080296 0.9101557759568095 L 384.0000000000582 0.9101557759568095 L 387.0781245440594 1.0117191679310054 L 399.3671874560532 1.2148439039592631 L 417.4921871360275 1.113281535974238 L 429.16406272002496 1.113281535974238 L 437.0468751360313 1.2148439039592631 L 440.3203123200219 1.2148439039592631 L 447.4921871360275 1.3203128319582902 L 451.78906214406015 1.5234375679283403 L 458.4453120000544 1.4218751999433152 L 471.3515622400446 1.5234375679283403 L 508.42187468806515 1.5234375679283403 L 512.2109378560563 1.624999935971573 L 520.6093752320157 1.624999935971573 L 525.2109373440617 1.726562303956598 L 534.9453127680463 1.726562303956598 L 540.1640622080304 1.8320312319556251 L 544.1562501120497 1.726562303956598 L 548.460937216063 1.726562303956598 L 560.9531248640269 1.624999935971573 L 567.7109370880644 1.624999935971573 L 579.4843750400469 1.5234375679283403 L 589.3124997120467 1.4218751999433152 L 620.3437496320112 1.4218751999433152 L 626.4843745280523 1.3203128319582902 L 672.9765621760162 1.3203128319582902 L 702.9765621760162 1.4218751999433152 L 707.5859374080319 1.3203128319582902 L 730.9374996480183 1.3203128319582902 L 752.4374999040156 1.2148439039592631 L 768.2109378560563 1.2148439039592631 L 784.179687424039 1.113281535974238 L 789.6093747200212 1.113281535974238 L 801.6953128960449 1.0117191679310054 L 812.1406248960411 1.0117191679310054 L 816.9531248640269 0.8085934079717845 L 825.8593751040171 0.7031255039619282 L 834.7656253440655 0.6015621119295247 L 840.7031255040201 0.6015621119295247 L 857.6015626240405 0.7031255039619282 L 862.0078120960388 0.6015621119295247 L 875.5234375680448 0.6015621119295247 L 879.2109373440617 0.7031255039619282 L 882.179687424039 0.8085934079717845 L 890.6796871680417 0.6015621119295247 L 896.6171873280546 0.49999974394449964 L 919.656250368047 0.6015621119295247 L 931.023437824042 0.6015621119295247 L 942.7968747520354 0.7031255039619282 L 957.546874880034 0.7031255039619282 L 961.2343746560509 0.08984371193218976 L 969.9375001600129 0.8085934079717845 L 985.9140628480236 0.8085934079717845 L 1017.656250368047 0.9101557759568095 L 1024.0 0.9101557759568095" fill="none"/></svg>