<svg xmlns="http://www.w3.org/2000/svg" width="1024" height="1024"><rect stroke="none" x="0" y="0" width="1024" height="1024" fill="white"/><path stroke="#000000" stroke-width="2" d="M 919.3515622400446 6.542968831956387 L 923.1406254080357 9.101562879921403 L 919.7578127360321 10.843750399944838 L 918.2265620480175 14.117187583935447 L 915.0468751360313 17.500000255939085 L 913.82031155203 20.160159743973054 L 910.4453120000544 19.339843583933543 L 909.7265623040148 22.10546892794082 L 909.828124672058 24.257812479918357 L 905.5234375680448 25.691406335972715 L 904.2968750080327 28.761718783935066 L 901.4296872960404 31.425781759957317 L 900.6093752320157 33.88281241594814 L 899.4843750400469 36.851562495925464 L 901.7343754240428 38.79687475191895 L 904.2968750080327 39.71875020797597 L 905.3203128320165 41.4609377279412 L 901.2265625600121 42.48437452793587 L 903.4765629440662 45.5546879999456 L 905.9375001600129 47.60546918393811 L 907.0625003520399 50.367187967931386 L 904.812499968044 49.753906175959855 L 903.4765629440662 48.11718758393545 L 900.710937600059 47.60156262392411 L 898.3593748480198 46.57812479994027 L 896.109375488013 45.863281663972884 L 894.2656245760154 47.39843788795406 L 895.0859376640292 50.98437529592775 L 896.1015623680432 54.05468774394831 L 897.5390627840534 55.79687526397174 L 898.562499584048 57.43359385593794 L 900.0000000000582 58.76562534394907 L 902.3515627520392 58.15234355191933 L 904.6093752320157 58.45703167992178 L 905.6249999360298 60.40234393597348 L 907.0625003520399 62.8593745919643 L 909.1093749760184 66.03515596792568 L 906.7578122240375 65.93359359994065 L 903.0703124480206 65.62499993597157 L 901.7343754240428 68.39062527992064 L 899.8906245120452 67.77734348794911 L 898.1562501120497 66.34374963195296 L 895.898437632015 64.4999997439445 L 894.0546877440647 62.964843519963324 L 891.9062497280538 63.578125311934855 L 889.554688000062 66.13671833596891 L 890.7812495360267 69.7226557439426 L 888.6328125440632 71.4609377279412 L 886.1718753280584 73.00000051193638 L 884.0234373120475 74.12499967997428 L 880.1328128000605 76.58203135995427 L 876.0390625280561 76.17187532794196 L 873.164062720025 74.73828147194581 L 869.4843750400469 73.1015628799214 L 866.2031247360283 71.76953139196848 L 863.8515630080365 70.84765593596967 L 861.4921871360275 73.71484364796197 L 861.5937495040125 76.48046899196925 L 862.5156249600113 80.16796876792796 L 863.1328122880659 84.05859327997314 L 862.6250004480244 87.02734335995046 L 859.648437248019 86.51562495995313 L 857.3984378880123 84.57031270395964 L 855.656250368047 83.03515647992026 L 853.2031252480228 82.01171865593642 L 850.8437504000613 83.23828121594852 L 849.5156254720641 85.39062476792606 L 849.1015628800378 87.33593702391954 L 846.2343751680455 90.20312473597005 L 842.3437496320112 91.94140671996865 L 839.1718748160638 92.45312511996599 L 839.0703124480206 95.93750015995465 L 836.6093752320157 100.03125043195905 L 833.1328122880659 102.79687475191895 L 830.3671879680478 104.64062463992741 L 828.0078120960388 105.25390643195715 L 824.53125017602 104.12890623993007 L 821.6640624640277 108.12109414394945 L 821.554688000062 111.80859391996637 L 820.0234373120475 110.06640639994293 L 818.3828121600673 108.94140620797407 L 816.0312504320173 108.83984383993084 L 814.9062502400484 111.08984422392678 L 816.2343751680455 115.08593766397098 L 817.9765626880107 118.0546877439483 L 815.9296870400431 119.89843763195677 L 813.3671874560532 122.76562534394907 L 808.3515627520392 121.53515622392297 L 804.7656253440655 119.28515583992703 L 804.7656253440655 116.92968755192123 L 805.5859374080319 114.7773439999437 L 803.4375004160102 114.7773439999437 L 801.6953128960449 116.92968755192123 L 801.2812503040186 119.99999999994179 L 799.1328122880659 122.0468746239203 L 799.0312499200227 124.60937523195753 L 796.7812495360267 124.09765580797102 L 792.8828129280591 123.37890611193143 L 788.6875002880115 123.37890611193143 L 786.4374999040156 124.71093759994255 L 783.2578129920294 124.81249996792758 L 780.4999997440609 124.09765580797102 L 778.1406248960411 123.99218790396117 L 775.2734371840488 125.32421836792491 L 777.3203128320165 128.9101557759568 L 779.5703121920233 130.9570314239245 L 782.8515624960419 132.49218764796387 L 780.1874995200196 134.5429688319564 L 778.5468753920286 137.5117189119337 L 774.4531251200242 136.48828108794987 L 771.4843750400469 136.07812505593756 L 770.1562501120497 138.43359334394336 L 770.2578124800348 141.19921868795063 L 770.8671877120505 143.75781273597386 L 770.9765621760162 147.5468748799758 L 767.3906247680425 147.74999961594585 L 764.8281251840526 147.5468748799758 L 765.1328122880659 151.02734335995046 L 764.2187499520369 155.32812492793892 L 767.1875000320142 156.8632811519201 L 769.5390627840534 157.5820308479597 L 768.109375488013 158.80859340797178 L 765.9531253760215 159.3203128319583 L 763.8046873600106 159.01562470395584 L 760.8359372800332 159.3203128319583 L 757.2499998720596 158.0937502719462 L 756.6406246400438 155.12500019196887 L 750.5937500160653 155.2265625599539 L 747.828124672058 161.3710940159508 L 746.7031255040201 165.26171852793777 L 745.7812500480213 169.15234406397212 L 749.9843747840496 170.99609395192238 L 750.5937500160653 174.47656243195524 L 749.9843747840496 177.34375014394755 L 748.6484377600136 182.15625011193333 L 745.7812500480213 186.15234355191933 L 742.4062504960457 187.07031244796235 L 736.460937216063 184.8203120639664 L 733.1875000320142 181.95312537596328 L 730.6250004480244 180.51953151996713 L 727.656250368047 179.80078079993837 L 726.1249996800325 182.3632814079756 L 726.9374996480183 185.74218751996523 L 724.4843745280523 187.17578137596138 L 722.0234373120475 190.1445314559387 L 719.5703121920233 190.453125119966 L 717.3124997120467 187.78906214394374 L 714.1406248960411 185.43359385593794 L 711.5781253120513 187.2773437439464 L 710.2500003840541 189.94140671996865 L 712.2968750080327 192.9101557759568 L 714.9609379840549 193.62499993597157 L 717.1093749760184 195.16015615995275 L 716.7031255040201 197.824219135975 L 715.7812500480213 200.28124979196582 L 712.914062336029 202.2265620479593 L 709.4296872960404 202.94531276792986 L 707.2812503040186 203.55859353597043 L 704.3125002240413 204.378906623926 L 702.2656245760154 205.81250047992216 L 702.1562501120497 208.2695311359712 L 698.9843752960442 210.00781209592242 L 696.1171875840519 212.87890636792872 L 692.4296878080349 215.640625151922 L 692.6328125440632 218.61328076792415 L 694.0703129600151 222.5039063039585 L 694.5859379200265 226.90625023993198 L 696.3203123200219 231.51562547194771 L 697.343750144064 234.277344255941 L 695.0937497600098 237.4531246079714 L 694.1718753280584 239.50000025593909 L 696.2187499520369 241.65234380797483 L 693.8671872000559 244.62109388795216 L 697.0390620160615 247.28515583992703 L 695.195312128053 248.9218754559406 L 690.4843745280523 249.640625151922 L 689.4609377280576 252.09765580797102 L 689.3593753600144 255.06640588794835 L 683.3203128320165 259.0585937919677 L 681.4765629440662 261.5156254719477 L 677.0703124480206 264.4882810879499 L 676.6640629760223 267.55859353597043 L 673.6953128960449 267.7617182719405 L 669.9062497280538 267.7617182719405 L 666.7265628160676 269.71093708794797 L 665.3984378880123 273.19140659197 L 664.0703129600151 275.2382812159485 L 662.6328125440632 277.183593471942 L 662.1249996800325 282.40625049592927 L 662.4296878080349 287.62890649592737 L 662.53125017602 290.29296844796045 L 664.5781248000567 293.46484326396603 L 665.5000002560555 297.4609377279412 L 667.343750144064 300.83984383993084 L 668.5703127040179 302.7851560959243 L 666.6250004480244 304.42187468794873 L 663.8593751040171 305.75390617595986 L 661.9140628480236 308.51953151996713 L 664.0703129600151 310.8749998079729 L 670.7265628160676 312.61328076792415 L 673.1796879360336 313.7421875199652 L 675.4375004160102 315.89062451192876 L 677.4843750400469 319.98828134394716 L 673.79687526403 325.62109337595757 L 677.5859374080319 327.3593753599562 L 683.9375001600129 326.43749990395736 L 687.6171878400492 326.6445311999414 L 691.9218749440624 328.6914058239199 L 695.2968744960381 330.53515673597576 L 697.4531246080296 332.378906623926 L 698.3750000640284 334.7343749119318 L 700.3203123200219 338.21483724797145 L 704.3125002240413 338.3164057599497 L 706.9765621760162 337.70312499196734 L 710.8671877120505 338.0117186559364 L 713.4218752000597 339.44531251193257 L 715.164062720025 341.28515583992703 L 715.6796876800363 344.8710932479589 L 717.5234375680448 347.3281249279389 L 720.4921876480221 350.5039063039585 L 724.179687424039 354.0859371519182 L 726.9374996480183 355.8281246719416 L 729.8046873600106 357.0546872319537 L 732.8828129280591 358.1835939839366 L 735.648437248019 359.0039060479612 L 737.6953128960449 360.6406246399274 L 739.6406251520384 363.60937471996294 L 743.2187504640315 365.4531246079714 L 746.2968750080327 366.88671846396755 L 749.6721817600192 367.39849011192564 L 756.2265620480175 368.52343705593375 L 760.6328125440632 370.16406220797217 L 764.2109378560563 372.4179691519239 L 766.0546877440647 374.8749998079729 L 768.921875456057 376.5117183999391 L 770.562499584048 378.4570316799218 L 771.5859374080319 381.6328120319522 L 773.9453122560517 382.8632811519201 L 776.812499968044 384.3984373759595 L 776.6015621120459 386.9570314239245 L 775.0703124480206 390.33593753597233 L 781.1093749760184 394.2265620479593 L 785.2031252480228 397.19531212793663 L 788.6875002880115 398.3242188799195 L 792.0703129600151 398.42578124796273 L 796.3671879680478 399.75781273597386 L 802.4062504960457 398.3242188799195 L 808.7578122240375 398.52734361594776 L 815.3124997120467 399.75781273597386 L 819.2031252480228 400.98437529592775 L 822.0703129600151 403.6484372479608 L 822.6875002880115 406.20703129592584 L 827.3984378880123 404.67187507194467 L 831.1875000320142 403.5468748799758 L 834.0546877440647 402.52343705593375 L 838.5546874880674 401.9062497279374 L 843.0625003520399 402.11328102392145 L 845.6249999360298 401.9062497279374 L 848.390625280037 401.6015626239241 L 852.281249792024 403.03515647992026 L 857.195312128053 405.28515583992703 L 860.4687503360328 407.12890675192466 L 858.6250004480244 409.79296870395774 L 855.656250368047 408.66796851193067 L 852.6875002880115 409.07421900791815 L 850.2265620480175 409.79296870395774 L 849.1015628800378 411.6367185919662 L 849.7187502080342 413.99218790396117 L 849.7187502080342 417.0625003519235 L 852.0703129600151 418.80468787194695 L 853.8125004800386 419.10937497596024 L 856.1718753280584 419.51953100797255 L 860.8828129280591 420.2382817279431 L 865.4843750400469 422.1835939839366 L 863.2343746560509 425.4609377279412 L 861.0859376640292 428.7343749119318 L 861.5937495040125 430.7851560959243 L 866.1015623680432 431.39843788795406 L 869.7890621440602 432.93359411193524 L 873.1718748160638 434.57421823992627 L 876.7500001280569 436.4179691519239 L 878.9062502400484 439.48828159994446 L 880.7421870080288 443.07421900791815 L 880.2343751680455 445.3242183679249 L 880.8515624960419 448.4999997439445 L 884.1249996800325 449.93359359994065 L 886.4843745280523 450.75390668795444 L 889.656250368047 449.8320312319556 L 891.7031249920256 448.7031255039619 L 895.2890624000574 449.011719167931 L 898.562499584048 452.08203161595156 L 897.1328122880659 455.8710937599535 L 899.7890621440602 458.2265620479593 L 904.6015621120459 458.53515673597576 L 909.0078126080334 461.4023434239207 L 910.9531248640269 464.7812495359685 L 912.9999994880636 469.183593471942 L 916.5859379200265 470.1054689279408 L 918.0156252160668 473.79296870395774 L 919.1484375040163 478.6054686719435 L 922.5234370560502 479.52734412794234 L 925.5937495040125 479.4257817599573 L 928.4687503360328 478.3984373759595 L 932.6640629760223 479.01562470395584 L 937.5781253120513 480.550780927937 L 941.4687498240382 484.2382817279431 L 944.0312504320173 487.20703078393126 L 938.7031255040201 490.7890626559383 L 935.015624704014 494.57812479994027 L 937.8828124160646 496.2187499519205 L 942.6953123840503 497.5507814399316 L 943.9296870400431 499.4960936959251 L 945.3593753600144 503.48828159994446 L 949.554688000062 507.5859374079737 L 952.8359372800332 509.8359377919696 L 956.8281251840526 510.65624985593604 L 959.6953128960449 509.8359377919696 L 964.2031247360283 508.30078156793024 L 966.3515627520392 508.5078128639725 L 969.1171870720573 510.1445314559387 L 969.015624704014 514.9570314239245 L 970.6562498560525 518.1328127999441 L 973.9296870400431 518.6445311999414 L 975.8750003200257 520.1796874239226 L 978.3359375360305 522.5351567359758 L 980.9921873920248 524.5820313599543 L 983.554688000062 525.710937087948 L 985.5000002560555 526.9374996479601 L 988.1640622080304 528.6796871679253 L 990.8281251840526 529.292968959955 L 994.0000000000582 528.4726558719412 L 997.6874997760169 529.8046873599524 L 1000.8593745920225 530.9296875519212 L 1003.2187504640315 532.3671879679314 L 1005.26562508801 533.6953128959285 L 1008.1328128000605 534.7187496959232 L 1011.3046876160661 535.9492188159493 L 1015.9140628480236 537.4843750399305 L 1020.3203123200219 540.3515627519228 L 1023.4921871360275 540.0468746239203 L 1024.0 540.0636724833748" fill="none"/><path stroke="#000000" stroke-width="2" d="M 0.0 12.899374843473197 L 0.515624960011337 12.992187391966581 L 21.203125248022843 12.890625023923349 L 44.4453120000544 12.890625023923349 L 49.976562688010745 12.789062655938324 L 54.070312960015144 12.890625023923349 L 60.00781209603883 12.890625023923349 L 64.61718732805457 12.992187391966581 L 72.91406233602902 12.890625023923349 L 129.03124992002267 12.890625023923349 L 146.43749990401557 12.992187391966581 L 178.28124979202403 12.992187391966581 L 186.6796871680417 12.890625023923349 L 192.7187496960396 12.890625023923349 L 196.10156236804323 12.789062655938324 L 204.18749952001963 12.789062655938324 L 213.81250048003858 12.683593727939297 L 230.30468710401328 12.683593727939297 L 246.37500006402843 12.582031359954271 L 256.10156236804323 12.582031359954271 L 260.3046871040133 12.683593727939297 L 270.6484377600136 12.683593727939297 L 274.2343751680455 12.789062655938324 L 285.0859376640292 12.789062655938324 L 289.1796879360336 12.890625023923349 L 300.0390625280561 12.890625023923349 L 324.60937523201574 13.093749759951606 L 330.7578122240375 13.199218687950633 L 334.33593753603054 13.195312127936631 L 348.3671879680478 13.300781055935659 L 357.5859374080319 13.402343423920684 L 362.80468787206337 13.402343423920684 L 375.19531212805305 13.503905791963916 L 384.10937548801303 13.605469183938112 L 389.1250001920271 13.710937087947968 L 388.921875456057 8.078125055937562 L 391.8906245120452 8.078125055937562 L 410.01562521606684 7.976562687952537 L 416.46093721606303 7.976562687952537 L 422.60937523201574 7.87109375995351 L 436.3281254400499 7.87109375995351 L 445.445312512049 7.769531391968485 L 453.74218752002344 7.769531391968485 L 457.2187504640315 7.667969023925252 L 461.42187520005973 7.667969023925252 L 489.9843747840496 7.359375359956175 L 499.61718784004916 7.1562495999387465 L 502.5859379200265 7.1562495999387465 L 513.023437824042 7.0546872319537215 L 528.179687424039 6.02734387194505 L 539.1406254080357 6.644531199941412 L 549.6874997760169 6.4374999039573595 L 562.179687424039 6.234375167929102 L 566.0703129600151 6.132812799944077 L 573.546874880034 6.02734387194505 L 577.5390627840534 5.925781503960025 L 624.9531248640269 5.312499711930286 L 632.53125017602 5.210937343945261 L 635.3984378880123 5.210937343945261 L 640.1015623680432 5.109374975960236 L 647.2734371840488 5.003906047961209 L 652.6015621120459 4.902343679917976 L 656.078125056054 4.902343679917976 L 660.179687424039 4.800781311932951 L 663.4531246080296 4.699218943947926 L 667.648437248019 4.699218943947926 L 679.3281249280553 4.492187647963874 L 683.2187504640315 4.390625279920641 L 686.5937500160653 4.390625279920641 L 693.8671872000559 4.1874995199614204 L 701.648437248019 3.980469247966539 L 718.9531248640269 3.4687498239218257 L 724.7890626560547 3.3671874559368007 L 728.4765624320135 3.2656250879517756 L 732.0624998400453 3.1601561599527486 L 741.6874997760169 2.8554690559394658 L 749.4687498240382 2.6484377599554136 L 768.109375488013 2.136718335968908 L 784.390625280037 1.726562303956598 L 789.7109370880644 1.624999935971573 L 807.1171870720573 1.113281535974238 L 821.8671872000559 0.7031255039619282 L 825.1406254080357 0.6015621119295247 L 828.5234370560502 0.6015621119295247 L 837.8437498880667 0.49999974394449964 L 846.4453120000544 0.49999974394449964 L 857.6015626240405 0.19140607997542247 L 864.0357598340925 0.0" fill="none"/><path stroke="#000000" stroke-width="2" d="M 913.9267489986378 0.0 L 915.1562496000552 1.0117191679310054 L 917.4062499840511 1.624999935971573 L 919.2499998720596 3.7773434879491106 L 919.3515622400446 6.542968831956387" fill="none"/><path stroke="#000000" stroke-width="2" d="M 864.0357598340925 0.0 L 857.6015626240405 0.19140607997542247 L 846.4453120000544 0.49999974394449964 L 837.8437498880667 0.49999974394449964 L 828.5234370560502 0.6015621119295247 L 825.1406254080357 0.6015621119295247 L 821.8671872000559 0.7031255039619282 L 807.1171870720573 1.113281535974238 L 789.7109370880644 1.624999935971573 L 784.390625280037 1.726562303956598 L 768.109375488013 2.136718335968908 L 749.4687498240382 2.6484377599554136 L 741.6874997760169 2.8554690559394658 L 732.0624998400453 3.1601561599527486 L 728.4765624320135 3.2656250879517756 L 724.7890626560547 3.3671874559368007 L 718.9531248640269 3.4687498239218257 L 701.648437248019 3.980469247966539 L 693.8671872000559 4.1874995199614204 L 686.5937500160653 4.390625279920641 L 683.2187504640315 4.390625279920641 L 679.3281249280553 4.492187647963874 L 667.648437248019 4.699218943947926 L 663.4531246080296 4.699218943947926 L 660.179687424039 4.800781311932951 L 656.078125056054 4.902343679917976 L 652.6015621120459 4.902343679917976 L 647.2734371840488 5.003906047961209 L 640.1015623680432 5.109374975960236 L 635.3984378880123 5.210937343945261 L 632.53125017602 5.210937343945261 L 624.9531248640269 5.312499711930286 L 577.5390627840534 5.925781503960025 L 573.546874880034 6.02734387194505 L 566.0703129600151 6.132812799944077 L 562.179687424039 6.234375167929102 L 549.6874997760169 6.4374999039573595 L 539.1406254080357 6.644531199941412 L 528.179687424039 6.02734387194505 L 513.023437824042 7.0546872319537215 L 502.5859379200265 7.1562495999387465 L 499.61718784004916 7.1562495999387465 L 489.9843747840496 7.359375359956175 L 461.42187520005973 7.667969023925252 L 457.2187504640315 7.667969023925252 L 453.74218752002344 7.769531391968485 L 445.445312512049 7.769531391968485 L 436.3281254400499 7.87109375995351 L 422.60937523201574 7.87109375995351 L 416.46093721606303 7.976562687952537 L 410.01562521606684 7.976562687952537 L 391.8906245120452 8.078125055937562 L 388.921875456057 8.078125055937562 L 389.1250001920271 13.710937087947968 L 384.10937548801303 13.605469183938112 L 375.19531212805305 13.503905791963916 L 362.80468787206337 13.402343423920684 L 357.5859374080319 13.402343423920684 L 348.3671879680478 13.300781055935659 L 334.33593753603054 13.195312127936631 L 330.7578122240375 13.199218687950633 L 324.60937523201574 13.093749759951606 L 300.0390625280561 12.890625023923349 L 289.1796879360336 12.890625023923349 L 285.0859376640292 12.789062655938324 L 274.2343751680455 12.789062655938324 L 270.6484377600136 12.683593727939297 L 260.3046871040133 12.683593727939297 L 256.10156236804323 12.582031359954271 L 246.37500006402843 12.582031359954271 L 230.30468710401328 12.683593727939297 L 213.81250048003858 12.683593727939297 L 204.18749952001963 12.789062655938324 L 196.10156236804323 12.789062655938324 L 192.7187496960396 12.890625023923349 L 186.6796871680417 12.890625023923349 L 178.28124979202403 12.992187391966581 L 146.43749990401557 12.992187391966581 L 129.03124992002267 12.890625023923349 L 72.91406233602902 12.890625023923349 L 64.61718732805457 12.992187391966581 L 60.00781209603883 12.890625023923349 L 54.070312960015144 12.890625023923349 L 49.976562688010745 12.789062655938324 L 44.4453120000544 12.890625023923349 L 21.203125248022843 12.890625023923349 L 0.515624960011337 12.992187391966581 L 0.0 12.899374843473197" fill="none"/><path stroke="#000000" stroke-width="2" d="M 1024.0 540.0636724832584 L 1023.4921871360275 540.0468746238039 L 1020.3203123200801 540.3515627518063 L 1015.9140628480236 537.4843750399887 L 1011.3046876160661 535.9492188158911 L 1008.1328128000605 534.7187496958068 L 1005.26562508801 533.6953128958703 L 1003.2187504640897 532.3671879679314 L 1000.8593745920225 530.929687551863 L 997.6874997760751 529.804687359836 L 994.0000000001164 528.4726558718248 L 990.8281251840526 529.292968959955 L 988.1640622080886 528.6796871678089 L 985.5000002560555 526.9374996479601 L 983.554688000062 525.7109370878898 L 980.9921873920248 524.5820313598961 L 978.3359375360887 522.5351567359758 L 975.8750003200257 520.1796874238062 L 973.9296870400431 518.6445311999414 L 970.6562498560525 518.1328127998859 L 969.015624704014 514.9570314238663 L 969.1171870721155 510.1445314559387 L 966.3515627520392 508.5078128638561 L 964.2031247360865 508.30078156793024 L 959.6953128961031 509.8359377919696 L 956.8281251840526 510.6562498558196 L 952.8359372800332 509.8359377919696 L 949.554688000062 507.5859374079155 L 945.3593753600144 503.48828159982804 L 943.9296870400431 499.4960936959251 L 942.6953123840503 497.5507814398734 L 937.8828124161228 496.21874995186226 L 935.0156247040723 494.57812479994027 L 938.7031255040201 490.7890626558219 L 944.0312504320755 487.20703078393126 L 941.4687498240382 484.2382817279431 L 937.5781253121095 480.5507809278206 L 932.6640629760223 479.01562470395584 L 928.468750336091 478.3984373759595 L 925.5937495040125 479.4257817598409 L 922.5234370561084 479.52734412788413 L 919.1484375040745 478.6054686719435 L 918.015625216125 473.7929687038413 L 916.5859379200265 470.1054689279408 L 912.9999994881218 469.1835934720002 L 910.9531248640269 464.7812495359103 L 909.0078126080334 461.40234342380427 L 904.6015621121041 458.53515673585935 L 899.7890621440602 458.2265620479593 L 897.1328122881241 455.8710937598953 L 898.5624995841063 452.08203161595156 L 895.2890624001157 449.0117191678728 L 891.7031249920838 448.7031255039037 L 889.656250368047 449.8320312318974 L 886.4843745281105 450.753906687838 L 884.1249996800325 449.93359359994065 L 880.8515624960419 448.4999997438863 L 880.2343751681037 445.3242183679249 L 880.7421870080288 443.07421900791815 L 878.9062502401066 439.48828159988625 L 876.7500001281151 436.4179691519821 L 873.171874816122 434.57421823980985 L 869.7890621440602 432.93359411199344 L 866.1015623681014 431.39843788789585 L 861.5937495040125 430.7851560959243 L 861.0859376640874 428.7343749119318 L 863.2343746560509 425.4609377279412 L 865.4843750400469 422.1835939838784 L 860.8828129281173 420.2382817278267 L 856.1718753280584 419.51953100791434 L 853.8125004800968 419.109374975902 L 852.0703129600151 418.80468787183054 L 849.7187502080924 417.0625003518071 L 849.7187502080924 413.99218790390296 L 849.1015628800378 411.636718591908 L 850.2265620480757 409.79296870389953 L 852.6875002880697 409.07421900791815 L 855.656250368047 408.66796851181425 L 858.6250004480244 409.79296870389953 L 860.4687503360328 407.12890675180824 L 857.195312128053 405.2851558398688 L 852.281249792024 403.03515647992026 L 848.390625280037 401.6015626238659 L 845.6249999360298 401.906249727821 L 843.0625003520399 402.11328102392145 L 838.5546874881256 401.906249727821 L 834.0546877440647 402.52343705593375 L 831.1875000320142 403.5468748799176 L 827.3984378880123 404.6718750720029 L 822.6875002880115 406.20703129586764 L 822.0703129600151 403.6484372479608 L 819.2031252480228 400.98437529592775 L 815.3124997121049 399.75781273585744 L 808.7578122240957 398.52734361588955 L 802.4062504960457 398.3242188798031 L 796.3671879680478 399.75781273585744 L 792.0703129600734 398.4257812478463 L 788.6875002880115 398.3242188798031 L 785.2031252480228 397.19531212793663 L 781.1093749760184 394.2265620478429 L 775.0703124480206 390.3359375359141 L 776.6015621121041 386.9570314238081 L 776.8124999681022 384.3984373759595 L 773.9453122560517 382.8632811518619 L 771.5859374080319 381.6328120319522 L 770.5624995841063 378.45703167980537 L 768.921875456057 376.5117183998809 L 766.0546877441229 374.8749998079729 L 764.2109378561145 372.4179691518075 L 760.6328125440632 370.16406220785575 L 756.2265620480175 368.52343705593375 L 749.6721817600192 367.39849011186743 L 746.2968750080909 366.88671846385114 L 743.2187504640315 365.4531246079714 L 739.6406251520384 363.60937471996294 L 737.6953128960449 360.6406246398692 L 735.648437248019 359.0039060479612 L 732.8828129280591 358.1835939839366 L 729.8046873600106 357.0546872318955 L 726.9374996480765 355.82812467199983 L 724.1796874240972 354.0859371518018 L 720.4921876480221 350.5039063038421 L 717.5234375680448 347.3281249278225 L 715.6796876800945 344.8710932479589 L 715.164062720025 341.28515583992703 L 713.4218752001179 339.4453125119908 L 710.8671877121087 338.0117186559364 L 706.9765621760744 337.70312499196734 L 704.3125002240995 338.3164057598915 L 700.3203123200219 338.21483724785503 L 698.3750000640284 334.7343749118736 L 697.4531246080878 332.3789066238096 L 695.2968744960963 330.53515673597576 L 691.9218749440624 328.6914058238617 L 687.6171878400492 326.6445311999414 L 683.9375001600129 326.43749990401557 L 677.5859374080901 327.3593753599562 L 673.7968752640882 325.62109337589936 L 677.4843750400469 319.9882813440054 L 675.4375004160102 315.89062451181235 L 673.1796879360336 313.7421875198488 L 670.7265628161258 312.61328076792415 L 664.0703129600151 310.87499980803113 L 661.9140628480236 308.5195315199089 L 663.8593751040171 305.75390617590165 L 666.6250004480244 304.42187468794873 L 668.5703127040761 302.7851560958661 L 667.343750144064 300.83984383998904 L 665.5000002560555 297.460937727883 L 664.5781248001149 293.46484326396603 L 662.5312501760782 290.29296844796045 L 662.4296878080349 287.62890649592737 L 662.1249996800325 282.40625049581286 L 662.6328125441214 277.183593471942 L 664.0703129600151 275.2382812158903 L 665.3984378880123 273.19140659197 L 666.7265628160676 269.71093708794797 L 669.906249728112 267.76171827182407 L 673.6953128960449 267.76171827182407 L 676.6640629760223 267.55859353597043 L 677.0703124480788 264.48828108783346 L 681.4765629441245 261.5156254720059 L 683.3203128320747 259.0585937919677 L 689.3593753600726 255.06640588789014 L 689.4609377280576 252.09765580797102 L 690.4843745281105 249.6406251518638 L 695.195312128053 248.9218754558824 L 697.0390620161197 247.28515583986882 L 693.8671872000559 244.62109388783574 L 696.2187499520951 241.65234380797483 L 694.1718753280584 239.50000025593909 L 695.0937497600098 237.4531246079132 L 697.3437501441222 234.27734425582457 L 696.3203123200219 231.5156254718895 L 694.5859379200265 226.90625023987377 L 694.0703129600151 222.5039063039585 L 692.6328125440632 218.61328076792415 L 692.4296878080349 215.6406251518638 L 696.1171875840519 212.87890636792872 L 698.9843752960442 210.007812095806 L 702.1562501120497 208.26953113591298 L 702.2656245760736 205.81250047998037 L 704.3125002240995 204.378906623926 L 707.2812503040768 203.55859353602864 L 709.4296872960404 202.94531276792986 L 712.914062336029 202.2265620478429 L 715.7812500480213 200.28124979196582 L 716.7031255040201 197.82421913585858 L 717.1093749760767 195.16015615989454 L 714.9609379841131 193.62499993602978 L 712.2968750080327 192.9101557759568 L 710.2500003840541 189.94140671996865 L 711.5781253120513 187.27734374383 L 714.1406248960993 185.43359385582153 L 717.3124997120467 187.78906214388553 L 719.5703121920815 190.45312511984957 L 722.0234373120475 190.1445314558805 L 724.4843745281105 187.1757813760196 L 726.9374996480765 185.74218751996523 L 726.1249996800325 182.36328140791738 L 727.656250368047 179.80078079993837 L 730.6250004480244 180.51953151985072 L 733.1875000320724 181.95312537590507 L 736.460937216063 184.82031206402462 L 742.4062504960457 187.07031244790414 L 745.7812500480795 186.15234355180291 L 748.6484377600136 182.15625011193333 L 749.9843747840496 177.34375014383113 L 750.5937500160653 174.47656243201345 L 749.9843747840496 170.99609395186417 L 745.7812500480795 169.1523440638557 L 746.7031255040201 165.26171852782136 L 747.828124672058 161.3710940158344 L 750.5937500160653 155.2265625599539 L 756.640624640102 155.12500019191066 L 757.2499998721178 158.0937502720044 L 760.8359372800332 159.32031283190008 L 763.8046873600106 159.01562470383942 L 765.9531253760797 159.32031283190008 L 768.1093754880712 158.80859340791358 L 769.5390627841116 157.58203084784327 L 767.1875000320724 156.86328115186188 L 764.2187499520951 155.3281249278225 L 765.1328122880659 151.02734335995046 L 764.8281251840526 147.5468748799758 L 767.3906247680425 147.74999961588765 L 770.9765621760744 147.5468748799758 L 770.8671877120505 143.75781273591565 L 770.257812480093 141.19921868783422 L 770.1562501120497 138.43359334382694 L 771.4843750401051 136.07812505593756 L 774.4531251200824 136.48828108794987 L 778.5468753920868 137.5117189119337 L 780.1874995200196 134.54296883189818 L 782.8515624961001 132.49218764790567 L 779.5703121920815 130.95703142386628 L 777.3203128320165 128.9101557758404 L 775.273437184107 125.3242183678085 L 778.1406248960411 123.99218790396117 L 780.4999997440609 124.09765580791282 L 783.2578129920876 124.81249996798579 L 786.4374999040156 124.71093759994255 L 788.6875002880115 123.37890611193143 L 792.8828129280591 123.37890611193143 L 796.7812495360267 124.09765580791282 L 799.0312499200227 124.60937523189932 L 799.1328122880659 122.04687462397851 L 801.2812503040186 119.99999999988358 L 801.6953128961031 116.92968755192123 L 803.4375004160102 114.7773439999437 L 805.5859374080319 114.7773439999437 L 804.7656253441237 116.92968755192123 L 804.7656253441237 119.28515583981061 L 808.3515627520392 121.53515622392297 L 813.3671874560532 122.76562534383265 L 815.9296870400431 119.89843763184035 L 817.976562688069 118.0546877439483 L 816.2343751680455 115.08593766391277 L 814.9062502400484 111.08984422386857 L 816.0312504320173 108.83984383998904 L 818.3828121601255 108.94140620797407 L 820.0234373120475 110.06640639988473 L 821.554688000062 111.80859391984995 L 821.6640624640277 108.12109414394945 L 824.5312501760782 104.12890623987187 L 828.0078120960388 105.25390643195715 L 830.367187968106 104.64062463992741 L 833.1328122880659 102.79687475191895 L 836.609375232074 100.03125043184264 L 839.0703124480206 95.93750015989644 L 839.1718748160638 92.45312511990778 L 842.3437496320694 91.94140671985224 L 846.2343751681037 90.20312473602826 L 849.1015628800378 87.33593702380313 L 849.5156254721223 85.39062476792606 L 850.8437504001195 83.23828121589031 L 853.203125248081 82.01171865582 L 855.656250368047 83.03515647980385 L 857.3984378880123 84.57031270390144 L 859.648437248019 86.51562495995313 L 862.6250004480244 87.02734336000867 L 863.1328122881241 84.05859327991493 L 862.5156249600695 80.16796876798617 L 861.5937495040125 76.48046899191104 L 861.4921871360275 73.71484364790376 L 863.8515630080947 70.84765593585325 L 866.2031247360283 71.76953139185207 L 869.4843750400469 73.10156287980499 L 873.1640627200832 74.7382814718876 L 876.0390625280561 76.17187532794196 L 880.1328128000605 76.58203135995427 L 884.0234373121057 74.12499967991607 L 886.1718753280584 73.00000051199459 L 888.6328125440632 71.46093772788299 L 890.7812495360849 69.72265574382618 L 889.5546880001202 66.13671833596891 L 891.9062497280538 63.57812531181844 L 894.0546877440647 62.96484351984691 L 895.898437632015 64.49999974388629 L 898.1562501120497 66.34374963195296 L 899.8906245121034 67.77734348794911 L 901.7343754240428 68.39062527992064 L 903.0703124480788 65.62499993591337 L 906.7578122240375 65.93359359994065 L 909.1093749760767 66.03515596792568 L 907.0625003520399 62.8593745919643 L 905.624999936088 60.402343936031684 L 904.6093752320157 58.45703167992178 L 902.3515627520974 58.15234355191933 L 900.0000000000582 58.76562534389086 L 898.5624995841063 57.43359385593794 L 897.5390627840534 55.79687526385533 L 896.1015623681014 54.05468774383189 L 895.0859376640292 50.98437529592775 L 894.2656245760736 47.39843788789585 L 896.109375488013 45.86328166385647 L 898.3593748480198 46.57812479994027 L 900.710937600059 47.601562623807695 L 903.4765629441245 48.11718758387724 L 904.8124999681022 49.753906175959855 L 907.0625003520399 50.367187967989594 L 905.9375001600129 47.6054691838217 L 903.4765629441245 45.55468799988739 L 901.2265625600703 42.48437452787766 L 905.3203128320747 41.4609377279412 L 904.2968750080909 39.718750207917765 L 901.7343754240428 38.796874751802534 L 899.4843750400469 36.851562495925464 L 900.6093752320157 33.88281241583172 L 901.4296872960404 31.42578175989911 L 904.2968750080909 28.761718783935066 L 905.5234375680448 25.691406336030923 L 909.828124672058 24.25781247980194 L 909.7265623040148 22.105468927824404 L 910.4453120001126 19.339843583817128 L 913.82031155203 20.16015974403126 L 915.0468751360313 17.50000025582267 L 918.2265620480175 14.11718758387724 L 919.7578127360321 10.84375039988663 L 923.1406254080357 9.101562879863195 L 919.3515622400446 6.542968831839971 L 919.2499998721178 3.7773434878326952 L 917.4062499840511 1.624999935971573 L 915.1562496001134 1.0117191679310054 L 913.9267489987396 0.0" fill="none"/></svg>