<svg xmlns="http://www.w3.org/2000/svg" width="1024" height="1024"><rect stroke="none" x="0" y="0" width="1024" height="1024" fill="white"/><path stroke="#000000" stroke-width="2" d="M 83.42444630948012 1024.0 L 83.25781299202936 1022.656249855936 L 82.74218700802885 1020.1992191999452 L 81.61718784004916 1016.3085936639691 L 80.79687475203536 1011.5976560639683 L 79.97656268801074 1007.0898442239268 L 78.33593753603054 1004.9414062079741 L 76.39062528003706 1003.609374719963 L 73.42187520005973 1002.3828121599508 L 71.6796876800363 998.8984371199622 L 71.17187481600558 994.7031255039619 L 70.96875008003553 992.347656191967 L 71.68749977601692 989.6835942399339 L 71.07031244802056 986.7148441599566 L 69.83593779202783 983.539062783937 L 66.66406297602225 980.0585932799731 L 62.97656217601616 978.4179691519239 L 60.92968755203765 975.5507814399316 L 59.39843788801227 972.277344255941 L 58.2656245760154 968.7929692159523 L 58.47656243201345 964.6992189439479 L 58.2656245760154 960.9101557759568 L 55.60937472002115 957.6328120319522 L 52.640624640043825 954.4570316799218 L 50.69531238405034 952.9218754559406 L 48.74218700802885 951.7968752639717 L 45.882812416006345 949.0312499199645 L 41.47656294400804 946.1640622079722 L 36.765625344007276 946.1640622079722 L 32.97656217601616 945.7539061759599 L 29.906249728053808 945.0351564799203 L 25.398437888012268 943.7070315519231 L 21.093749760009814 941.2499998719431 L 19.56250009604264 938.7890626559383 L 18.437499904015567 937.0507816959289 L 18.5390622720588 935.0000005119364 L 17.921874944062438 932.4414064639714 L 18.335937536030542 929.6757811199641 L 20.078125056053977 927.4257817599573 L 22.6328125440632 925.4804684799165 L 25.804687360010576 924.1484369919635 L 31.031249920022674 923.7382809599512 L 34.82031206402462 923.4296872959239 L 41.37499955203384 922.6132807679242 L 43.92968704004306 920.9726566399331 L 45.98437478404958 918.2070312959258 L 46.59375001600711 915.1367188479635 L 47.617187840049155 912.9843752959277 L 49.56250009604264 910.6328125439468 L 49.976562688010745 907.5585935359704 L 50.28124979202403 902.6445311999414 L 51.4062499840511 900.0820316159516 L 51.71875020803418 896.6015621119295 L 54.78906265605474 894.0429690879537 L 57.96093747206032 891.9921879039612 L 60.42187468800694 889.1250001919689 L 63.07812454405939 886.7734374399297 L 67.07812454405939 883.187500031956 L 66.56249958404806 878.8867184639676 L 66.05468774400651 876.019530751917 L 66.15625011204975 872.7421870079706 L 66.46093721606303 869.6718745599501 L 67.28125030401861 866.2929684479604 L 70.76562534400728 863.7304688639706 L 73.93750016001286 862.1953126399312 L 77.00781260803342 860.8632811519201 L 79.46874982403824 858.8164065279416 L 80.49218764802208 855.9492188159493 L 79.67187456000829 851.3398435839335 L 77.3124997120467 848.5781247999403 L 73.21875046403147 846.6328125439468 L 68.00000000005821 846.1171875839354 L 65.03124992002267 843.6601559039555 L 63.08593766402919 841.6132812799187 L 61.648437248019036 838.8476559359697 L 60.42187468800694 835.6757811199641 L 57.351562240044586 833.4218751999433 L 54.99218739202479 831.3749995519174 L 52.84375040006125 829.0195312639698 L 49.56250009604264 826.4570316799218 L 45.570312192023266 824.1015623679268 L 41.47656294400804 821.644531711936 L 37.07031244802056 818.4726558719412 L 34.718749696039595 814.3750000639702 L 34.20312473602826 811.5078123519197 L 34.921878528024536 809.1523461119505 L 36.66406297602225 806.4882810879499 L 38.609375232015736 803.6210933759576 L 41.57812531205127 798.9140623359708 L 43.11718707205728 795.9414067199687 L 45.06250035203993 792.5624995839316 L 45.773437952040695 789.6953128959285 L 45.16406272002496 786.7265628159512 L 43.523437568044756 781.710937087948 L 42.19531264004763 775.8710937599535 L 40.14062489604112 772.2890629119356 L 37.585937408031896 767.9882813439472 L 36.765625344007276 765.1210936319549 L 34.82031206402462 762.0468746239203 L 32.15625011204975 758.5664061439456 L 29.906249728053808 756.0078120959224 L 27.343750144005753 753.8554685439449 L 24.476562432013452 751.6054691839381 L 21.710937088006176 749.9648440319579 L 19.046875136031304 748.3281254399335 L 16.69531238405034 746.8945315839374 L 12.289062912052032 744.027343871945 L 9.42187520005973 741.0546872319537 L 9.320312832016498 737.2656250879518 L 11.265625088009983 733.7851566079189 L 13.007812608033419 731.3281249279389 L 15.05468723201193 728.1523435519193 L 15.773437952040695 724.8789063679287 L 15.05468723201193 722.3164057599497 L 13.007812608033419 719.5507814399316 L 10.4453120000544 717.5039057919639 L 7.57812531205127 715.9687495679245 L 3.8906245120451786 714.1249996799743 L 0.9218754560570233 713.0000005119364 L 0.0 712.8409868542731" fill="none"/><path stroke="#000000" stroke-width="2" d="M 0.0 712.8409868542512 L 0.9218754560570233 713.0000005119364 L 3.8906245120451786 714.1249996798579 L 7.578125312109478 715.9687495678663 L 10.4453120000544 717.5039057919639 L 13.007812608149834 719.5507814399316 L 15.054687232070137 722.3164057598915 L 15.773437952040695 724.8789063678123 L 15.054687232070137 728.1523435518029 L 13.007812608149834 731.3281249278225 L 11.265625088068191 733.7851566078025 L 9.320312832016498 737.2656250879518 L 9.42187520005973 741.0546872318373 L 12.289062912052032 744.0273438720033 L 16.69531238405034 746.8945315838209 L 19.04687513614772 748.3281254398753 L 21.710937088006176 749.9648440319579 L 24.476562432013452 751.6054691838799 L 27.34375014406396 753.8554685438867 L 29.906249728170224 756.0078120959224 L 32.15625011204975 758.5664061439456 L 34.82031206402462 762.0468746239203 L 36.765625344007276 765.1210936318967 L 37.585937408031896 767.988281343889 L 40.14062489604112 772.2890629119938 L 42.19531264004763 775.8710937599535 L 43.52343756810296 781.7109370878316 L 45.16406272002496 786.726562815893 L 45.7734379520989 789.6953128958121 L 45.06250035209814 792.5624995839316 L 43.11718707205728 795.9414067199104 L 41.57812531210948 798.9140623359708 L 38.60937523213215 803.6210933759576 L 36.66406297608046 806.4882810878335 L 34.92187852808274 809.1523461119505 L 34.203124736086465 811.5078123518615 L 34.7187496960978 814.375000063912 L 37.07031244802056 818.4726558719995 L 41.47656294400804 821.6445317118196 L 45.570312192023266 824.101562367985 L 49.56250009610085 826.4570316799218 L 52.84375040011946 829.0195312639698 L 54.992187392141204 831.3749995518592 L 57.351562240102794 833.4218751998851 L 60.42187468800694 835.6757811199059 L 61.648437248019036 838.8476559358533 L 63.085937664087396 841.6132812798605 L 65.03124992002267 843.6601559039555 L 68.00000000011642 846.117187583819 L 73.21875046408968 846.6328125439468 L 77.3124997120467 848.5781247998239 L 79.6718745600665 851.3398435839335 L 80.49218764808029 855.9492188159493 L 79.46874982409645 858.8164065278252 L 77.00781260809163 860.8632811519201 L 73.93750016001286 862.1953126399312 L 70.76562534400728 863.7304688639706 L 67.28125030401861 866.2929684479604 L 66.46093721612124 869.6718745598919 L 66.15625011210795 872.7421870079706 L 66.05468774406472 876.0195307518588 L 66.56249958404806 878.8867184639093 L 67.07812454405939 883.187500031956 L 63.07812454405939 886.7734374399879 L 60.42187468800694 889.1250001919107 L 57.96093747211853 891.9921879039612 L 54.78906265605474 894.0429690878955 L 51.71875020803418 896.6015621118713 L 51.4062499840511 900.0820316158934 L 50.281249792082235 902.6445311999414 L 49.97656268806895 907.5585935359122 L 49.56250009610085 910.6328125438886 L 47.61718784010736 912.9843752958113 L 46.59375001600711 915.1367188479635 L 45.98437478404958 918.2070312959258 L 43.92968704004306 920.9726566399331 L 41.37499955203384 922.6132807679824 L 34.82031206402462 923.4296872958657 L 31.031249920022674 923.7382809598348 L 25.804687360068783 924.1484369918471 L 22.6328125440632 925.4804684798 L 20.078125056053977 927.4257817599573 L 18.33593753608875 929.6757811199641 L 17.921874944120646 932.4414064639714 L 18.5390622720588 935.00000051182 L 18.437499904015567 937.0507816958125 L 19.562500096159056 938.7890626559383 L 21.09374976006802 941.2499998719431 L 25.398437888012268 943.7070315519231 L 29.906249728170224 945.035156479862 L 32.97656217601616 945.7539061758434 L 36.765625344007276 946.1640622078557 L 41.47656294400804 946.1640622078557 L 45.88281241612276 949.0312499199063 L 48.74218700808706 951.7968752639135 L 50.69531238405034 952.9218754559406 L 52.640624640043825 954.4570316798054 L 55.60937472002115 957.6328120319522 L 58.265624576073606 960.9101557759568 L 58.47656243212987 964.6992189440061 L 58.265624576073606 968.7929692158941 L 59.39843788801227 972.2773442558828 L 60.92968755203765 975.5507814399316 L 62.97656217601616 978.4179691519239 L 66.66406297608046 980.0585932799731 L 69.83593779202783 983.5390627838206 L 71.07031244802056 986.7148441598401 L 71.68749977601692 989.6835942399339 L 70.96875008009374 992.347656191967 L 71.17187481600558 994.7031255039619 L 71.6796876800945 998.8984371198458 L 73.42187520005973 1002.3828121598344 L 76.39062528003706 1003.6093747199047 L 78.33593753603054 1004.9414062079159 L 79.97656268801074 1007.0898442239268 L 80.79687475203536 1011.5976560638519 L 81.61718784004916 1016.3085936639109 L 82.74218700808706 1020.1992191999452 L 83.25781299208757 1022.6562498558778 L 83.42444630953833 1024.0" fill="none"/></svg>