<svg xmlns="http://www.w3.org/2000/svg" width="1024" height="1024"><rect stroke="none" x="0" y="0" width="1024" height="1024" fill="white"/><path stroke="#000000" stroke-width="2" d="M 1024.0 622.0041987010845 L 1022.6722816000693 621.965148159943 L 1019.8050816000323 621.2483481598902 L 1016.9378816001117 622.0675481598591 L 1013.7634816000937 622.477148159931 L 1011.1010816001799 621.4531481599552 L 1009.3602816000348 618.99554815999 L 1008.2338816001429 616.128348159953 L 1006.3906816000817 612.6467481600121 L 1003.9330816001748 609.5747481599101 L 1001.475481600035 606.2979481600341 L 998.9154816000373 604.6595481599797 L 994.0002816000488 603.1235481598414 L 990.9282816001796 601.9971481599496 L 987.2418816001154 601.2803481599549 L 983.248281600012 601.2803481599549 L 980.7906816000468 602.3043481599307 L 977.1042816001573 604.6595481599797 L 975.2610816000961 607.3219481599517 L 971.9842816001037 609.7795481599751 L 969.5266816000221 612.3395481598563 L 963.8946816000389 615.5139481598162 L 959.9010816000518 617.1523481598706 L 954.678681600024 617.1523481598706 L 949.8658816000097 617.2547481600195 L 945.360281600093 617.5619481599424 L 941.7762816000613 617.5619481599424 L 937.5778816000093 616.3331481599598 L 935.2226816000184 612.2371481599403 L 933.6866816001129 608.3459481599275 L 931.945881600026 605.5811481598066 L 926.3138816000428 602.7139481599443 L 922.5250816000625 597.3891481599421 L 920.272281600046 595.4435481599648 L 916.4834816000657 591.7571481599589 L 913.5138816001127 589.0947481599869 L 910.953881600115 587.8659481600043 L 907.9842816000455 579.1619481599191 L 914.9474816000438 575.2707481599646 L 918.8386816001148 571.0723481599707 L 919.0434816000634 566.3619481598726 L 920.5794816000853 562.5731481600087 L 921.6034816000611 559.0915481598931 L 921.0914816000732 556.3267481599469 L 921.1938816001639 553.7667481598328 L 922.8322816000436 550.3875481598079 L 928.2594816000783 544.03874815983 L 929.2834816001123 541.5811481598648 L 929.7954816001002 538.8163481599186 L 930.0002816000488 535.539548159868 L 925.8018816001713 530.0099481599755 L 924.9826816001441 527.9619481599075 L 923.5490816000383 525.5043481598841 L 917.8146816000808 514.7523481599637 L 915.5618816001224 510.6563481599442 L 913.1042816000408 508.1987481599208 L 910.953881600115 506.3555481598596 L 909.5202816000092 504.61474815988913 L 907.4722816000576 501.64514815993607 L 905.219481600041 498.8803481598152 L 903.888281600026 496.8323481599218 L 901.8402816000162 494.47714815981453 L 898.7682816000306 492.1219481599401 L 895.593881600129 489.1523481598124 L 894.0578816001071 487.00194816000294 L 891.9074816000648 485.97794816002715 L 888.7330816001049 485.46594815986464 L 884.8418816000922 484.85154815996066 L 882.0770816000877 483.72514815989416 L 879.7218816000968 483.6227481599781 L 876.8546816000598 483.31554815982236 L 874.1922816000297 482.4963481599116 L 871.2226816000184 481.3699481600197 L 864.8738816000405 479.3219481598935 L 862.3138816000428 478.0931481599109 L 860.265881600033 477.1715481598512 L 857.9106816000422 476.14754815993365 L 855.2482816001284 475.43074815988075 L 852.1762816000846 474.20194815989817 L 850.2306816000491 471.9491481599398 L 848.6946816000273 468.9795481598121 L 847.9778816000326 466.52194815984694 L 848.0802816000651 463.5523481598939 L 848.5922816001112 460.8899481598637 L 849.8210816000355 457.81794815981993 L 851.5618816000642 454.2339481599629 L 852.58588160004 450.854748159938 L 850.4354816001141 437.95234815991716 L 848.6946816000273 428.32674815988867 L 848.1826816000394 425.5619481599424 L 847.3634816000122 420.85154816001887 L 844.291481600143 404.05794815986883 L 842.5506816001725 393.51074815989705 L 841.8338816000614 389.5171481599682 L 838.5570816000691 383.68034815980354 L 836.6114816000918 380.7107481598505 L 826.1666816000943 363.91714815987507 L 823.0946816001087 359.0019481598865 L 818.8962816000567 352.1411481599789 L 817.0530816000537 345.1779481598642 L 813.9810816000099 333.1971481599612 L 812.7522816000273 328.0771481599659 L 810.7042816000176 320.60194815992145 L 809.7826816000743 316.9155481599155 L 809.0658816000214 313.7411481599556 L 809.1682816000539 308.1091481599724 L 809.7826816000743 291.72514815989416 L 809.8850816000486 287.6291481598746 L 810.0898816001136 281.8947481599753 L 778.2434816000168 260.2883481599274 L 777.9362816000357 255.68034815991996 L 776.6050816000788 230.69474815990543 L 775.9906816000585 220.96674815990264 L 775.4786816000124 216.35874815989519 L 767.6962816001032 205.6067481599166 L 763.907481600123 200.38434815983055 L 761.6546816000482 197.2099481598707 L 758.8898816000437 193.52354815986473 L 755.5106816000189 188.71074815985048 L 750.2882816001074 166.79714815987973 L 748.9570816000341 160.55074815981789 L 742.3010816000751 152.1539481599466 L 736.7714816001244 145.39554815989686 L 734.109081600036 144.0643481599982 L 721.8210816000355 137.81794815993635 L 707.0754816000699 138.22754815994995 L 699.6002816000255 137.40834815986454 L 692.6370816000272 129.31874815991614 L 691.5106816000771 127.68034815986175 L 690.3842816000106 125.63234815996839 L 687.312281600025 123.37954816001002 L 689.4626816000673 118.15714815992396 L 689.9746816000552 112.21794815995963 L 694.377881600114 95.01474815991241 L 693.8658816001262 92.24994816002436 L 692.9442816000083 88.87074815982487 L 691.3058816000703 86.00354815996252 L 686.1858816000749 82.62434815993765 L 682.8066816000501 80.98594815988326 L 678.6082816001144 79.14274815982208 L 668.4706805760507 76.78755225596251 L 663.8626816000324 76.68514816003153 L 654.2370816000621 72.79394815984415 L 648.0930816000327 72.69154815992806 L 640.720281600079 69.92674815980718 L 635.7026816001162 67.05954815994482 L 629.5586816001451 61.017948159889784 L 626.3842816000688 57.12674815993523 L 625.6674816000741 54.669148159911856 L 624.9506816001376 52.416348160011694 L 624.0290816000197 49.753948159806896 L 622.697881600121 46.57954815996345 L 621.5714816000545 44.01954815990757 L 620.9570816000341 40.53794815996662 L 621.5714816000545 37.05634815985104 L 624.4386816000915 34.49634815991158 L 633.7570816000225 29.888348159904126 L 637.6482816000935 26.816348159860354 L 638.36508160003 23.027548159996513 L 636.521881600027 20.467548159882426 L 628.841881600034 18.829148159828037 L 622.3906816001399 12.787548159831204 L 610.6146816000692 2.6499481599312276 L 609.6095288497891 0.0" fill="none"/></svg>