<svg xmlns="http://www.w3.org/2000/svg" width="1024" height="1024"><rect stroke="none" x="0" y="0" width="1024" height="1024" fill="white"/><path stroke="#000000" stroke-width="2" d="M 911.6391508468514 1024.0 L 911.7499996160623 1023.8750003199675 L 914.3125002240413 1022.2500003839377 L 917.4375004160684 1019.9492188159493 L 917.4843750400469 1018.7929692159523 L 917.164062720025 1016.4843745279359 L 916.8906250240398 1015.1796879359172 L 916.5859379200265 1010.9843752959277 L 917.1796879360336 1010.4726558719412 L 917.1875000320142 1010.3750000639702 L 917.4843750400469 1010.2226565119345 L 918.6328125440632 1009.2421877759625 L 920.4453120000544 1008.6757816319587 L 921.5000002560555 1008.1249996799743 L 926.812499968044 1008.3125002239249 L 926.7500001280569 1007.3242183679249 L 926.5156249600113 1006.8867184639676 L 926.3125002240413 1002.6875002879533 L 929.2812503040186 999.5156254719477 L 929.3515622400446 999.535156223923 L 929.5625000960426 999.3124997119303 L 935.3906247680425 1001.4101565439487 L 935.8671872000559 1001.5507814399316 L 939.7578127360321 1000.7617187839351 L 940.4453120000544 996.031250431959 L 940.8593745920225 995.6132812799187 L 940.9374996480183 995.2499998719431 L 942.0078120960388 994.4687503359746 L 943.3124997120467 993.1640627199668 L 946.7968747520354 989.8867189759621 L 944.6406246400438 986.20312473597 L 942.6953123840503 982.8242186239222 L 942.7890626560547 982.5039063039585 L 942.6875002880115 982.3125002239249 L 943.0625003520399 981.5156254719477 L 943.6171878400492 979.5468748799176 L 944.2578124800348 979.0039060479612 L 944.4374999040156 978.6250004479662 L 945.3046876160661 978.1093754879548 L 945.6640624640277 977.8046873599524 L 946.2968750080327 977.5273441279423 L 947.1875000320142 977.0000005119364 L 952.9374996480183 974.5624995839316 L 956.4374999040156 973.3124997119303 L 959.1093749760184 971.5117189119337 L 956.0078120960388 969.5117189119337 L 953.4531246080296 967.8710937599535 L 955.3984378880123 964.5976565759629 L 955.79687526403 964.6054686719435 L 956.0000000000582 964.3125002239249 L 960.4999997440609 964.6875002879533 L 964.8515624960419 963.921874943946 L 965.4140620800317 963.4609377279412 L 968.3750000640284 959.187500031956 L 968.8437504000613 958.66015641595 L 971.4687498240382 955.6874997759587 L 971.7656248320127 955.3398435839335 L 973.7265623040148 951.183593471942 L 973.4765629440662 950.3632814079174 L 971.7812500480213 947.187500031956 L 971.7499996160623 947.1250001919689 L 974.4765624320135 946.378906623926 L 976.8984371200204 945.6523438079748 L 979.2578129920294 945.2421877759625 L 980.2343751680455 945.4960936959251 L 981.1875000320142 945.437500415952 L 981.968749568041 945.9414067199687 L 982.4296878080349 946.0624998399289 L 985.4921871360275 947.9375001599547 L 988.2500003840541 947.9375001599547 L 990.0000000000582 946.7851560959243 L 989.9218749440624 944.5742182399263 L 989.5078123520361 943.7812500479631 L 985.8046873600688 941.6562503679306 L 982.5156249600113 940.3164057599497 L 982.4062504960457 940.2578124799184 L 979.7656248320127 938.7890626559383 L 979.352189952042 938.4996587519418 L 974.6484377600136 935.2070307839313 L 975.3828126720618 933.820312575961 L 975.4062499840511 933.8007807999384 L 975.976562688069 932.7500001279404 L 978.8437504000613 932.5429688319564 L 979.0312499200227 932.5742182399263 L 982.1249996800325 932.9374996479601 L 986.1874995200196 932.7500001279404 L 989.6874997760169 930.9374996479601 L 991.6640624640277 926.9843752959277 L 991.7343754240428 926.4648437759606 L 991.5781253120513 921.7187502079178 L 991.4218752000597 921.2265625599539 L 987.3281249280553 918.8203120639664 L 982.9374996480183 918.6171873279382 L 980.281249792024 922.5078128639725 L 978.3359375360305 924.9648435199633 L 978.1249996800325 924.9218754559406 L 977.9375001600129 925.187500031956 L 974.1249996800325 924.1874995199614 L 971.9921879040194 922.6289059839328 L 971.4687498240382 922.3046871039551 L 970.0390625280561 919.1289067519247 L 969.2187504640315 915.7499996159459 L 967.9921879040194 910.2226565119345 L 968.3593748480198 909.4101565439487 L 969.7656248320127 906.1445314559387 L 970.3437496320112 904.0781250559376 L 970.8593745920225 900.902343679918 L 970.9296875520376 900.8437503999448 L 970.9374996480183 900.8124999679276 L 973.8125004800386 898.5624995839316 L 976.3750000640284 897.1250001919689 L 980.9999994880636 895.6874997759587 L 981.1562496000552 895.6953128959285 L 981.2031252480228 895.6796876799199 L 983.8046873600688 895.8046873599524 L 985.5000002560555 895.8750003199675 L 986.812499968044 892.1874995199614 L 988.4921876480221 889.9999999999418 L 989.1875000320142 889.0234378239256 L 985.8125004800386 887.078124543943 L 981.093749760068 883.5976560639683 L 981.2031252480228 880.0117186559364 L 980.7890626560547 876.4296878079185 L 980.7031255040201 875.3124997119303 L 980.6875002880115 875.187500031956 L 980.3750000640284 871.3124997119303 L 980.390625280037 871.2304691199679 L 980.3828121600673 871.1054684159462 L 980.5859379200265 868.031250431959 L 982.0156252160668 864.347656191967 L 978.7421870080288 862.7070310399286 L 980.179687424039 859.4296872959239 L 975.7734379520407 858.097655807971 L 974.3125002240413 855.9062497279374 L 974.0000000000582 855.5625000959262 L 970.562499584048 852.6875002879533 L 969.6718745600665 850.7070310399286 L 968.6093752320157 848.6796871679253 L 966.0468746240367 842.7382814719458 L 964.6093752320157 839.464843263966 L 963.3828126720618 837.4140620799735 L 960.109375488013 833.4218751999433 L 956.9296875520376 830.2460938239237 L 957.0468751360313 827.7773434879491 L 956.9999994880636 826.2500003839377 L 957.7499996160623 823.3710940159508 L 957.8515630080365 822.976562175958 L 958.5156249600113 822.0156252159504 L 959.3749995520338 820.4999997439445 L 962.8749998080311 818.0624998399289 L 964.0624998400453 813.078124543943 L 963.7890621440602 811.609374719963 L 963.7343754240428 810.5195315199671 L 963.1875000320142 808.0624998399289 L 963.5859374080319 807.820312575961 L 966.9374996480183 805.8085939199664 L 969.4218752000597 800.3203123199637 L 969.4218752000597 798.7031255039619 L 968.921875456057 795.7812500479631 L 968.812499968044 795.2265625599539 L 968.8203120640246 795.1757813759614 L 968.812499968044 795.1250001919689 L 969.0781245440594 794.0117186559364 L 969.8359377920278 790.6171873279382 L 972.6015621120459 783.6562503679306 L 972.9687500800355 783.0039060479612 L 973.1250001920271 782.6250004479662 L 974.5859379200265 779.8476564479643 L 973.5234375680448 775.6679690239253 L 971.3671874560532 772.902343679918 L 967.6796876800363 769.3203128319583 L 965.023437824042 765.0195312639698 L 962.7656253440655 761.1250001919689 L 961.6406251520384 756.8242186239222 L 961.7890621440602 756.1835939839366 L 961.6249999360298 755.3749995519174 L 962.5703127040179 753.3359370239195 L 963.1796879360336 751.5000002559391 L 962.1562501120497 748.2226565119345 L 956.8281251840526 749.1445309439441 L 954.5781248000567 746.4843745279359 L 955.6953128960449 743.4179686399293 L 956.4999997440609 741.0625003519235 L 960.4999997440609 735.1250001919689 L 963.2499998720596 731.437500415952 L 963.3593753600144 731.3554687999422 L 963.3828126720618 731.3281249279389 L 963.8125004800386 731.0273433599505 L 966.9374996480183 728.7500001279404 L 967.2031252480228 728.558594047965 L 969.5234375680448 726.6171873279382 L 969.9609374720603 726.5273436159478 L 970.2500003840541 726.3125002239249 L 974.562499584048 725.5000002559391 L 977.4218752000597 723.7343754239264 L 978.0234373120475 722.8281251839362 L 980.281249792024 721.3945313279401 L 981.7421875200234 721.0429685759591 L 981.8125004800386 721.0000005119364 L 987.1250001920271 717.5117189119337 L 990.2109378560563 713.921874943946 L 990.9296875520376 709.7226557439426 L 990.9531248640269 708.4882810879499 L 990.9999994880636 704.8124999679276 L 991.0468751360313 704.2929684479604 L 991.1328122880659 701.5312496639672 L 989.5937495040125 699.2773437439464 L 989.6874997760169 699.1054684159462 L 989.5000002560555 698.8749998079729 L 990.9374996480183 695.8125004799222 L 993.8750003200257 693.9375001599547 L 997.3749995520338 694.1874995199614 L 1002.8749998080311 695.3749995519174 L 1008.4374999040156 695.187500031956 L 1012.7500001280569 694.3750000639702 L 1018.1874995200196 692.3125002239249 L 1021.4375004160684 691.3124997119303 L 1024.0 690.6593135757648" fill="none"/><path stroke="#000000" stroke-width="2" d="M 1024.0 690.6593135757648 L 1021.4375004160684 691.3124997119303 L 1018.1874995200196 692.3125002239249 L 1012.7500001280569 694.3750000639702 L 1008.4374999040156 695.187500031956 L 1002.8749998080311 695.3749995519174 L 997.3749995520338 694.1874995199614 L 993.8750003200257 693.9375001599547 L 990.9374996480183 695.8125004799222 L 989.5000002560555 698.8749998079729 L 989.6874997760169 699.1054684159462 L 989.5937495040125 699.2773437439464 L 991.1328122880659 701.5312496639672 L 991.0468751360313 704.2929684479604 L 990.9999994880636 704.8124999679276 L 990.9531248640269 708.4882810879499 L 990.9296875520376 709.7226557439426 L 990.2109378560563 713.921874943946 L 987.1250001920271 717.5117189119337 L 981.8125004800386 721.0000005119364 L 981.7421875200234 721.0429685759591 L 980.281249792024 721.3945313279401 L 978.0234373120475 722.8281251839362 L 977.4218752000597 723.7343754239264 L 974.562499584048 725.5000002559391 L 970.2500003840541 726.3125002239249 L 969.9609374720603 726.5273436159478 L 969.5234375680448 726.6171873279382 L 967.2031252480228 728.558594047965 L 966.9374996480183 728.7500001279404 L 963.8125004800386 731.0273433599505 L 963.3828126720618 731.3281249279389 L 963.3593753600144 731.3554687999422 L 963.2499998720596 731.437500415952 L 960.4999997440609 735.1250001919689 L 956.4999997440609 741.0625003519235 L 955.6953128960449 743.4179686399293 L 954.5781248000567 746.4843745279359 L 956.8281251840526 749.1445309439441 L 962.1562501120497 748.2226565119345 L 963.1796879360336 751.5000002559391 L 962.5703127040179 753.3359370239195 L 961.6249999360298 755.3749995519174 L 961.7890621440602 756.1835939839366 L 961.6406251520384 756.8242186239222 L 962.7656253440655 761.1250001919689 L 965.023437824042 765.0195312639698 L 967.6796876800363 769.3203128319583 L 971.3671874560532 772.902343679918 L 973.5234375680448 775.6679690239253 L 974.5859379200265 779.8476564479643 L 973.1250001920271 782.6250004479662 L 972.9687500800355 783.0039060479612 L 972.6015621120459 783.6562503679306 L 969.8359377920278 790.6171873279382 L 969.0781245440594 794.0117186559364 L 968.812499968044 795.1250001919689 L 968.8203120640246 795.1757813759614 L 968.812499968044 795.2265625599539 L 968.921875456057 795.7812500479631 L 969.4218752000597 798.7031255039619 L 969.4218752000597 800.3203123199637 L 966.9374996480183 805.8085939199664 L 963.5859374080319 807.820312575961 L 963.1875000320142 808.0624998399289 L 963.7343754240428 810.5195315199671 L 963.7890621440602 811.609374719963 L 964.0624998400453 813.078124543943 L 962.8749998080311 818.0624998399289 L 959.3749995520338 820.4999997439445 L 958.5156249600113 822.0156252159504 L 957.8515630080365 822.976562175958 L 957.7499996160623 823.3710940159508 L 956.9999994880636 826.2500003839377 L 957.0468751360313 827.7773434879491 L 956.9296875520376 830.2460938239237 L 960.109375488013 833.4218751999433 L 963.3828126720618 837.4140620799735 L 964.6093752320157 839.464843263966 L 966.0468746240367 842.7382814719458 L 968.6093752320157 848.6796871679253 L 969.6718745600665 850.7070310399286 L 970.562499584048 852.6875002879533 L 974.0000000000582 855.5625000959262 L 974.3125002240413 855.9062497279374 L 975.7734379520407 858.097655807971 L 980.179687424039 859.4296872959239 L 978.7421870080288 862.7070310399286 L 982.0156252160668 864.347656191967 L 980.5859379200265 868.031250431959 L 980.3828121600673 871.1054684159462 L 980.390625280037 871.2304691199679 L 980.3750000640284 871.3124997119303 L 980.6875002880115 875.187500031956 L 980.7031255040201 875.3124997119303 L 980.7890626560547 876.4296878079185 L 981.2031252480228 880.0117186559364 L 981.093749760068 883.5976560639683 L 985.8125004800386 887.078124543943 L 989.1875000320142 889.0234378239256 L 988.4921876480221 889.9999999999418 L 986.812499968044 892.1874995199614 L 985.5000002560555 895.8750003199675 L 983.8046873600688 895.8046873599524 L 981.2031252480228 895.6796876799199 L 981.1562496000552 895.6953128959285 L 980.9999994880636 895.6874997759587 L 976.3750000640284 897.1250001919689 L 973.8125004800386 898.5624995839316 L 970.9374996480183 900.8124999679276 L 970.9296875520376 900.8437503999448 L 970.8593745920225 900.902343679918 L 970.3437496320112 904.0781250559376 L 969.7656248320127 906.1445314559387 L 968.3593748480198 909.4101565439487 L 967.9921879040194 910.2226565119345 L 969.2187504640315 915.7499996159459 L 970.0390625280561 919.1289067519247 L 971.4687498240382 922.3046871039551 L 971.9921879040194 922.6289059839328 L 974.1249996800325 924.1874995199614 L 977.9375001600129 925.187500031956 L 978.1249996800325 924.9218754559406 L 978.3359375360305 924.9648435199633 L 980.281249792024 922.5078128639725 L 982.9374996480183 918.6171873279382 L 987.3281249280553 918.8203120639664 L 991.4218752000597 921.2265625599539 L 991.5781253120513 921.7187502079178 L 991.7343754240428 926.4648437759606 L 991.6640624640277 926.9843752959277 L 989.6874997760169 930.9374996479601 L 986.1874995200196 932.7500001279404 L 982.1249996800325 932.9374996479601 L 979.0312499200227 932.5742182399263 L 978.8437504000613 932.5429688319564 L 975.976562688069 932.7500001279404 L 975.4062499840511 933.8007807999384 L 975.3828126720618 933.820312575961 L 974.6484377600136 935.2070307839313 L 979.352189952042 938.4996587519418 L 979.7656248320127 938.7890626559383 L 982.4062504960457 940.2578124799184 L 982.5156249600113 940.3164057599497 L 985.8046873600688 941.6562503679306 L 989.5078123520361 943.7812500479631 L 989.9218749440624 944.5742182399263 L 990.0000000000582 946.7851560959243 L 988.2500003840541 947.9375001599547 L 985.4921871360275 947.9375001599547 L 982.4296878080349 946.0624998399289 L 981.968749568041 945.9414067199687 L 981.1875000320142 945.437500415952 L 980.2343751680455 945.4960936959251 L 979.2578129920294 945.2421877759625 L 976.8984371200204 945.6523438079748 L 974.4765624320135 946.378906623926 L 971.7499996160623 947.1250001919689 L 971.7812500480213 947.187500031956 L 973.4765629440662 950.3632814079174 L 973.7265623040148 951.183593471942 L 971.7656248320127 955.3398435839335 L 971.4687498240382 955.6874997759587 L 968.8437504000613 958.66015641595 L 968.3750000640284 959.187500031956 L 965.4140620800317 963.4609377279412 L 964.8515624960419 963.921874943946 L 960.4999997440609 964.6875002879533 L 956.0000000000582 964.3125002239249 L 955.79687526403 964.6054686719435 L 955.3984378880123 964.5976565759629 L 953.4531246080296 967.8710937599535 L 956.0078120960388 969.5117189119337 L 959.1093749760184 971.5117189119337 L 956.4374999040156 973.3124997119303 L 952.9374996480183 974.5624995839316 L 947.1875000320142 977.0000005119364 L 946.2968750080327 977.5273441279423 L 945.6640624640277 977.8046873599524 L 945.3046876160661 978.1093754879548 L 944.4374999040156 978.6250004479662 L 944.2578124800348 979.0039060479612 L 943.6171878400492 979.5468748799176 L 943.0625003520399 981.5156254719477 L 942.6875002880115 982.3125002239249 L 942.7890626560547 982.5039063039585 L 942.6953123840503 982.8242186239222 L 944.6406246400438 986.20312473597 L 946.7968747520354 989.8867189759621 L 943.3124997120467 993.1640627199668 L 942.0078120960388 994.4687503359746 L 940.9374996480183 995.2499998719431 L 940.8593745920225 995.6132812799187 L 940.4453120000544 996.031250431959 L 939.7578127360321 1000.7617187839351 L 935.8671872000559 1001.5507814399316 L 935.3906247680425 1001.4101565439487 L 929.5625000960426 999.3124997119303 L 929.3515622400446 999.535156223923 L 929.2812503040186 999.5156254719477 L 926.3125002240413 1002.6875002879533 L 926.5156249600113 1006.8867184639676 L 926.7500001280569 1007.3242183679249 L 926.812499968044 1008.3125002239249 L 921.5000002560555 1008.1249996799743 L 920.4453120000544 1008.6757816319587 L 918.6328125440632 1009.2421877759625 L 917.4843750400469 1010.2226565119345 L 917.1875000320142 1010.3750000639702 L 917.1796879360336 1010.4726558719412 L 916.5859379200265 1010.9843752959277 L 916.8906250240398 1015.1796879359172 L 917.164062720025 1016.4843745279359 L 917.4843750400469 1018.7929692159523 L 917.4375004160684 1019.9492188159493 L 914.3125002240413 1022.2500003839377 L 911.7499996160623 1023.8750003199675 L 911.6391508468514 1024.0" fill="none"/></svg>