<svg xmlns="http://www.w3.org/2000/svg" width="1024" height="1024"><rect stroke="none" x="0" y="0" width="1024" height="1024" fill="white"/><path stroke="#000000" stroke-width="2" d="M 33.41273804800585 545.140408319945 L 32.38916608004365 549.7464821759495 L 27.370496000046842 551.0768639999442 L 27.055595520010684 551.1443425279576 L 26.734374912048224 551.2109373439453 L 25.93750016001286 551.3828126719454 L 25.90798848005943 551.3811732479371 L 24.91406233602902 551.2812503039604 L 13.343750144005753 549.3359370239195 L 8.432864256028552 547.801517055952 L 12.753257472009864 548.0950702079572 L 12.929687552037649 548.1093754879548 L 15.184896000020672 547.595263999945 L 22.561958912061527 542.887063551927 L 25.52729600004386 543.7050879999297 L 26.551296000019647 544.012287999969 L 27.78125004802132 544.2187499519205 L 33.41273804800585 545.140408319945" fill="none"/><path stroke="#000000" stroke-width="2" d="M 0.0 545.8581570870883 L 0.0312504320172593 545.8554685439449 L 2.2824960000580177 545.6496639999677 L 2.896896000020206 545.6496639999677 L 3.4070036480552517 545.5476428799448 L 3.609374720021151 545.7539061759599 L 4.60156211204594 546.0546877439483 L 5.825536000018474 546.7658239999437 L 7.153664000041317 547.8830079999752 L 7.5048960000276566 548.2096639999654 L 7.507812352036126 548.2109378559398 L 12.299134976055939 549.6292177919531 L 20.46566400001757 552.0465919999406 L 21.429687296040356 552.1015623679268 L 25.52729600004386 552.3056639999268 L 25.78125004802132 552.2226565119345 L 25.83554764802102 552.2032639999525 L 26.14169600000605 552.2032639999525 L 31.979520000051707 550.9744639999699 L 32.3891200000071 550.7706879999605 L 33.3124997120467 550.4648437759606 L 34.326528000005055 550.1491199999582 L 35.966976000054274 549.8132479999331 L 41.710937088006176 548.3125002239249 L 33.31260108802235 549.6439900159603 L 34.13281280006049 545.2421877759625 L 42.83593728003325 541.8632816639729 L 42.81922252802178 541.8675937279477 L 42.83392000006279 541.8618879999267 L 33.31072000000859 544.3194879999501 L 27.677696000027936 542.7834879999282 L 26.656249856052455 542.4765624319552 L 25.629696000018157 542.3738879999728 L 21.2265625600121 541.7578127359739 L 13.444277248054277 546.8783441919368 L 7.406249984051101 543.6015626239241 L 0.3359375360305421 542.6796871679253 L 0.0 542.720301651716" fill="none"/><path stroke="#408040" stroke-width="3" d="M 1024.0 933.7889755473589 L 1020.6924799999979 930.3756799999974 L 999.4444800000056 903.5980800000034 L 963.1129599999986 847.9539199999999 L 949.5142400000041 827.1462400000019 L 943.4521600000007 812.2060800000036 L 940.8614399999933 802.0991999999969 L 936.8371199999965 786.3193600000013 L 931.8502399999998 766.8428799999965 L 920.3609600000054 722.0019200000024 L 904.1919999999955 668.1190399999978 L 893.4195199999958 635.0745600000009 L 883.1999999999971 617.8406400000022 L 863.9487999999983 585.7177599999995 L 851.7427199999947 565.3708800000022 L 840.0179199999984 549.6831999999995 L 804.8127999999997 515.4815999999992 L 769.1775999999954 486.45120000000315 L 698.9516799999983 431.47263999999996 L 683.5814399999945 419.58400000000256 L 674.2016000000003 410.27584000000206 L 673.0547200000001 400.4864000000016 L 672.901119999995 377.3030399999989 L 672.6963200000027 346.78783999999723 L 672.4812800000072 297.0624000000025 L 672.2150399999955 257.3414399999965 L 672.7167999999947 248.48384000000078 L 675.7683200000029 244.8281599999973 L 691.98848 232.97024000000238 L 704.6246399999945 223.764479999998 L 715.3766400000022 215.4291200000007 L 717.7523199999996 203.22303999999713 L 730.1324800000002 169.83039999999892 L 738.5292800000025 136.36607999999978 L 739.153919999997 124.62079999999696 L 735.1910400000052 109.95711999999912 L 723.5481600000057 77.63968000000023 L 715.8169599999965 52.4288000000015 L 702.1670400000003 45.44511999999668 L 688.0460800000001 44.22656000000279 L 681.1033599999937 37.61151999999856 L 674.8160000000062 21.62688000000344 L 666.2377041938453 0.0" fill="none"/></svg>