<svg xmlns="http://www.w3.org/2000/svg" width="1024" height="1024"><rect stroke="none" x="0" y="0" width="1024" height="1024" fill="white"/><path stroke="#000000" stroke-width="2" d="M 1024.0 94.89303826478863 L 1022.2656245760154 95.83203123183921 L 1019.7031249920838 97.67578111984767 L 1015.2968744960381 100.95312486391049 L 1011.8203125760192 104.12890623993007 L 1010.1796874240972 106.38281215995084 L 1008.1328128000605 109.55468799982918 L 1005.8750003200839 112.93359411193524 L 1002.7031255040201 117.64453171181958 L 999.6328120320104 120.51171839993913 L 995.6406251520966 123.68749977595871 L 991.9531253760215 125.53124966396717 L 987.445312512049 127.47656294394983 L 983.968749568041 129.4218751998269 L 980.992187392083 131.98046924790833 L 978.2343751681037 134.84765593585325 L 975.5703121920233 138.63671910384437 L 972.6015621120459 144.88281292794272 L 970.5468753920286 148.46875033597462 L 966.2500003841124 155.2265625599539 L 963.7890621440602 157.37499955191743 L 960.3125002240413 159.11718707194086 L 955.1875000320142 161.7812500479049 L 950.7890626560547 165.16015615995275 L 944.2343751680455 170.89453158387914 L 940.7500001280569 173.453124607855 L 936.9609379840549 176.0117186558782 L 931.023437824042 180.51953151990892 L 928.4609372161212 183.79687526391353 L 926.4140625920845 188.30078156787204 L 924.9843752960442 192.39843737595947 L 924.1640622080886 195.87890585587593 L 924.1640622080886 199.76953139191028 L 924.6718750721193 202.2265620478429 L 926.9296875520959 206.7343749118736 L 929.0781245440594 211.03515647992026 L 930.1015623680432 214.5156249598367 L 930.6171873280546 218.40625049587106 L 930.4062504960457 223.83203123189742 L 929.2812503040186 228.5429688319564 L 928.359374848078 231.20703078381484 L 926.9296875520959 234.58593791985186 L 925.5937495040707 238.47656243195524 L 923.546874880034 242.47265587182483 L 921.093749760068 245.74609407992102 L 919.0468751360895 248.71874969592318 L 915.8671872001141 252.19921919994522 L 914.1249996800907 253.94140671996865 L 912.8984371200204 255.57812531187665 L 910.9531248640269 260.5937500158907 L 906.9609379840549 275.5468748799176 L 905.523437568103 281.9960934399278 L 906.7578122240957 285.99218790384475 L 910.2343751680455 298.6875002880115 L 910.4453120000544 303.9101562879514 L 908.4999997440609 310.97656217589974 L 905.8359377920278 315.5859374079155 L 903.3749995520338 324.1874995199614 L 901.5312496640254 331.8671871998813 L 899.4843750401051 336.0624998398707 L 896.5156249600113 339.03515647980385 L 892.5234370561084 341.2851558398106 L 887.2968744960381 344.3593748479616 L 882.5859379200847 347.2265625600121 L 875.5234375680448 350.6054686718853 L 866.0000000000582 354.6992189438315 L 861.0859376640292 357.26171852782136 L 856.5781248000567 359.5156254719477 L 844.7031255040201 365.5546879999456 L 833.5390627840534 371.08593766385457 L 826.7812495360849 372.21093785593985 L 822.5859379200265 372.5195315199089 L 816.7421870080871 372.1093754878966 L 807.5312496640254 370.7773439998855 L 800.359374848078 370.2656245759572 L 794.0156252160668 370.16406220791396 L 790.3281254401081 370.3671879678732 L 786.0234373121057 370.57421823992627 L 770.156250112108 370.2656245759572 L 766.4687503360328 370.57421823992627 L 761.7578127360321 371.39062476780964 L 758.6875002880115 372.3125002239831 L 755.2031252480228 374.0546877439483 L 753.4609377280576 374.66796851187246 L 751.2109373440617 375.17968793580076 L 748.6484377600136 375.58984396781307 L 745.1718748160638 375.9999999998254 L 741.1718748160638 376.61328076792415 L 737.8984376320732 377.3320314878365 L 734.1093754880712 378.1523435518611 L 730.4218746880651 378.9687500799191 L 726.6328125440632 379.5859374078573 L 723.6640624640277 380.1992191998288 L 720.179687424039 380.8124999679276 L 715.9843747840496 381.53124966390897 L 712.4999997440609 382.1445314559387 L 708.2031247360865 383.37499955197563 L 675.3281249281135 396.07031296001514 L 666.9374996480765 399.6562503678142 L 661.1015628800378 403.2382812158321 L 658.3359375360305 405.1835934718838 L 655.4687498240964 407.7460940798046 L 650.5468753920286 414.1953126398148 L 644.7109376001172 422.08203161589336 L 640.3125002240995 428.01953075197525 L 635.0859376640292 435.80078079993837 L 633.2421877760789 437.2343746559345 L 629.5625000961008 439.6914063359727 L 626.4843745281105 441.7421875199652 L 612.8671877120505 451.16015615983633 L 609.0781245440594 456.07812505587935 L 607.9531253760215 458.84375039988663 L 607.3359370240942 463.34765670396155 L 608.0546877440647 468.26171903993236 L 610.7187496960396 472.25781247980194 L 613.6874997760169 474.30468710389687 L 620.0390625281143 476.66015641589183 L 626.5859379200265 478.093750271888 L 630.2734376961016 480.34765619196696 L 632.9374996480765 483.109374975902 L 637.2421877760789 488.43749990389915 L 639.7968752640882 491.71093708788976 L 646.6562498561107 500.21093785582343 L 648.6015621120459 504.5117183999391 L 651.26562508801 513.0117191678146 L 651.5781253120513 518.74609356781 L 651.3671874560532 522.1249996799161 L 650.3437496320694 528.167968767928 L 648.7109376001172 533.5937495039543 L 647.374999552092 537.1796879359172 L 645.5312496640836 541.2734371839324 L 643.38281267212 544.550780927937 L 641.2343746560509 548.1328127998277 L 639.7968752640882 550.8984371199622 L 638.2656245760736 553.7656248319545 L 636.8281251841108 556.6328125438304 L 634.9843752960442 561.2421877758461 L 633.656250368047 565.9531253759051 L 633.0390620160615 570.8671877118759 L 633.3437501441222 575.374999551801 L 633.8593751040171 578.1367183359107 L 634.9843752960442 581.4140620799735 L 636.109375488013 584.281249792024 L 637.3437501441222 587.2499998718849 L 638.4687503360328 589.5039057919057 L 639.7968752640882 592.269531135913 L 641.5390627840534 596.7734374398715 L 642.4609372161212 601.179687935859 L 642.6640629760223 606.1953126398148 L 642.6640629760223 609.3710940158344 L 642.562499584048 612.3398440959281 L 642.156250112108 615.3085941759637 L 639.0781245440594 622.6835937279393 L 636.9296875520376 624.6289059838164 L 633.9609374720603 626.367187967815 L 630.5859379200265 628.3125002239249 L 624.1328128000605 630.3632814078592 L 617.4765629441245 631.6914063359727 L 611.9453122561099 632.1015623678104 L 602.1171875841101 632.4101560319541 L 599.0468751360895 633.1250001920271 L 596.8906250240398 634.4570316798054 L 594.7421870080871 636.4023439358571 L 592.0781250561122 634.3554682878894 L 590.0312504320173 633.0234378238092 L 586.5468753920286 631.9999999999418 L 583.4765629440662 631.285155839927 L 580.921875456057 630.4648437759024 L 578.156250112108 629.746094079921 L 574.5703127040761 628.8242186239804 L 570.7812495360267 629.6445317118778 L 564.8437504000613 635.9921879038448 L 560.640624640102 639.2695316479076 L 556.6484377600136 639.5781253118766 L 552.5546874880092 639.4765629438334 L 548.0468746240367 638.656249855936 L 547.1250001920271 635.9921879038448 L 548.14843699208 633.9453122558771 L 549.6874997760751 631.4882815999445 L 548.8671877120505 629.3398435838753 L 544.8749998080311 630.6679685118143 L 540.6718750720611 631.8984376319568 L 536.9921873920248 632.5117183998227 L 533.2031252480228 632.9218754559406 L 529.3124997120467 632.2070312959258 L 527.3671874561114 630.2578124798019 L 524.9062502401066 626.7773439998273 L 523.1640832000412 624.523463679885 L 521.5234375680448 621.7617182719405 L 522.0390625280561 618.0742184958654 L 523.9843747840496 613.0546872318373 L 523.4687498240382 610.1874995200196 L 518.5546874880092 611.7265623038984 L 513.0312499200227 612.1328127999441 L 509.546874880034 611.4179686399293 L 506.5781248000567 610.8046878718305 L 504.73437491210643 609.2656250879518 L 502.07031296001514 607.2187504640315 L 498.38281216006726 605.8867189758457 L 495.10937497607665 605.5820308478433 L 492.1406248960993 605.2734371838742 L 488.0390625280561 603.9414067199687 L 484.96875008003553 600.6640629759058 L 484.3593748480198 596.4687503359746 L 485.48437504004687 593.0898442238686 L 488.25000038405415 589.6054691838799 L 490.0937502720626 587.2499998718849 L 492.0390625280561 583.7695313919685 L 491.92968704010127 580.8007813118747 L 487.6328120320104 579.9804692478501 L 483.02343782404205 579.4687498239218 L 480.3593748480198 578.0351559678675 L 478.10937548801303 576.0898437118158 L 478.51562496006954 571.5859374078573 L 482.20312473602826 568.5117183998809 L 486.3046871040715 565.7460940798046 L 488.25000038405415 561.8554685439449 L 487.7343754240428 557.6562503678142 L 485.78906214406015 554.7890626559965 L 483.2265625600703 553.9726561279385 L 480.7734374401043 553.9726561279385 L 476.6718750720611 554.1757808639668 L 472.6796871680417 554.5859379199101 L 467.14843750407454 554.8945315838791 L 462.4453120001126 554.7890626559965 L 458.0390625280561 554.1757808639668 L 453.84374988806667 553.460937727883 L 449.9453122561099 552.5390622718842 L 446.6718750721193 551.921874943946 L 443.0859376640874 550.6953123838757 L 439.39843788801227 549.160156160011 L 434.8984371200204 546.4960942079197 L 432.2343751681037 544.3476561919088 L 429.6718745600665 541.6835942398175 L 428.1406248960411 538.8164065279998 L 427.0078126080916 534.4140625919099 L 424.7578122240375 528.7812495358521 L 423.01562470401404 525.0937497599516 L 419.74218752002344 520.5898434558767 L 416.15625011210795 517.7226557438262 L 408.5781248000567 514.5468753919122 L 404.38281216000905 513.214843903901 L 400.9999994880636 511.98828134383075 L 396.4999997440609 509.5312496639672 L 392.19531264004763 507.07421900785994 L 389.6328120320686 504.718749695865 L 387.68749977607513 501.6445317118196 L 386.66406297608046 497.34375014394755 L 387.0781245440594 493.9648440318415 L 390.3515627520392 485.0546872319537 L 390.96875008009374 475.738280959893 L 389.6328120320686 471.02734335983405 L 386.7656253441237 468.4687503358582 L 384.0000000001164 467.5468748799176 L 377.0390620160615 466.21484339190647 L 373.86718720011413 465.80468735989416 L 370.5859379200847 465.39453132788185 L 364.24218726408435 463.9609374718857 L 360.4531251200824 463.1445309438277 L 354.0000000001164 461.6054691838217 L 336.8984371200204 459.8671871999395 L 325.9453122560517 457.71484364796197 L 322.3593748480198 455.5664066558238 L 318.3671879680478 452.6992189439479 L 316.21093785605626 449.4218751998851 L 316.00781209609704 445.12109363183845 L 317.445312512049 441.7421875199652 L 322.05468774412293 432.21874995180406 L 321.1328122881241 429.1445309438277 L 318.6718750720611 426.58593791985186 L 310.89062502403976 421.7734379519243 L 299.7265623040148 417.0625003518653 L 294.914062336029 414.70703103987034 L 289.79687526408816 410.40625049592927 L 286.6171873281128 408.0507811839343 L 276.78906265611295 395.66015590389725 L 269.2109373440617 395.9687495678663 L 265.6328120320686 396.17187532782555 L 255.79687526408816 396.58203135983786 L 242.58593792002648 396.99218739185017 L 239.51562547206413 397.0937497598934 L 235.82812467211625 397.30078105587745 L 219.24218777602073 397.81250047980575 L 209.51562547206413 398.22265651181806 L 205.21093734406168 398.3242188798613 L 190.46875033609103 398.83593727991683 L 179.30468761606608 399.1445309438859 L 171.62499993602978 399.5507814399316 L 163.12500019202707 399.9609374719439 L 134.14843699202174 401.39453132794006 L 127.79687526408816 401.49609369580867 L 119.39843788807048 401.80468735995237 L 95.53906278405339 402.4179691518075 L 85.60937472002115 402.7265628159512 L 79.87500032002572 402.8281251838198 L 75.88281241606455 402.929687551863 L 61.95312537602149 403.33984358387534 L 58.265624576073606 403.6484372478444 L 55.710937088064384 403.85156300780363 L 53.04687513608951 404.0585932798567 L 48.85156249604188 404.0585932798567 L 39.2265625600121 404.26171903981594 L 29.906249728112016 404.3632814078592 L 18.124999680090696 404.67187507182825 L 0.31250022404128686 404.98046873597195 L 0.0 404.987589678487" fill="none"/><path stroke="#000000" stroke-width="2" d="M 540.1692711623182 1024.0 L 538.5234370560502 1021.5312496639672 L 536.0703129600151 1016.2070312959258 L 527.6718745600665 1003.3046876159497 L 524.9062502400484 1000.027343871945 L 518.9687500800355 989.6835942399339 L 517.2265625600121 986.20312473597 L 518.2500003840541 981.6953128959285 L 519.1718748160638 977.8046873599524 L 522.5468753920286 965.2109373439453 L 521.2187504640315 961.7265623039566 L 516.710937600059 951.3867192319594 L 514.562499584048 944.5234370559338 L 511.79687526402995 933.5664066559402 L 510.97656217601616 929.7812500479631 L 510.6718750720611 926.3984373759595 L 509.546874880034 923.2265625599539 L 508.52343705605017 921.0742190079181 L 507.39843788801227 918.3125002239249 L 506.5781248000567 915.4453125119326 L 505.65625036804704 912.2695311359712 L 504.93750374403317 908.6835927039501 L 504.3203123200219 906.1249996799743 L 503.7109370880644 902.8476559359697 L 502.89062502403976 899.8789058559341 L 501.8671872000559 897.6249999359716 L 501.14843750401633 894.2460938239237 L 501.3515622400446 890.3554682879476 L 501.0468751360313 886.7734374399297 L 500.3281254400499 883.6992184319533 L 500.1249996800325 880.3203123199637 L 500.2265620480175 876.3281254399335 L 500.02343731204746 872.2304686079733 L 502.07031296001514 866.3945308159455 L 503.60937472002115 863.2187504639733 L 502.6875002880115 859.3281249279389 L 499.60937472002115 848.167968767928 L 498.8984371200204 843.8671871999395 L 498.6875002880115 839.8710937599535 L 499.4062499840511 834.8554690559395 L 500.6406246400438 830.656249855936 L 503.19531212805305 827.0742190079181 L 506.78124953602673 823.078124543943 L 506.78124953602673 819.187500031956 L 505.0390620160615 813.2499998719431 L 504.53125017601997 809.6640624639695 L 504.83593728003325 804.6484377599554 L 506.1640622080304 799.2187504639733 L 507.5000002560555 793.9960934399278 L 507.70312499202555 788.1601566719473 L 505.65625036804704 783.0390620159451 L 506.3750000640284 778.7382814719458 L 508.10937548801303 775.5664066559402 L 510.6718771200394 772.8007823359221 L 513.5390627840534 770.9570314239245 L 514.9765621760162 768.8085934079718 L 518.1484369920217 764.3007815679302 L 521.1171870720573 759.4882815999445 L 522.0390625280561 754.0624998399289 L 519.7890621440602 748.8398438399308 L 519.1718748160638 743.5156254719477 L 519.4765629440662 739.1093749759602 L 521.015624704014 734.8085934079718 L 522.3437496320112 731.1250001919689 L 523.8828124160646 728.1523435519193 L 525.6249999360298 724.6718750719447 L 535.1484375040163 708.800781311933 L 537.3984378880123 705.1132815359742 L 540.2656245760154 700.1992191999452 L 541.9062497280538 696.5117183999391 L 543.335937024036 692.8242186239222 L 544.1562501120497 689.6523438079748 L 545.898437632015 682.4843745279359 L 547.1250001920271 679.4101565439487 L 548.8671877120505 676.2382817279431 L 550.812499968044 673.3710940159508 L 554.1953126400476 669.1718748159474 L 555.9296870400431 667.2265625599539 L 558.289062912052 664.5624995839316 L 561.6640624640277 660.980468735972 L 564.6406246400438 657.19140659197 L 567.8125004800386 652.7890626559383 L 570.9843752960442 650.3281254399335 L 574.1640622080304 648.5898434559349 L 577.8437498880667 647.1562495999387 L 581.2265625600121 645.824219135975 L 584.2968750080327 644.6992189439479 L 587.164062720025 643.0585937919677 L 591.4687498240382 639.4765629439498 L 594.7421870080288 636.4023439359735 L 596.8906250240398 634.4570316799218 L 599.0468751360313 633.1250001919689 L 602.1171875840519 632.4101560319541 L 611.9453122560517 632.1015623679268 L 617.4765629440662 631.6914063359727 L 624.1328128000605 630.3632814079174 L 630.5859379200265 628.3125002239249 L 633.9609374720603 626.3671879679314 L 636.9296875520376 624.6289059839328 L 639.0781245440594 622.6835937279393 L 642.1562501120497 615.3085941759637 L 642.562499584048 612.3398440959281 L 642.6640629760223 609.3710940159508 L 642.6640629760223 606.1953126399312 L 642.460937216063 601.1796879359172 L 641.5390627840534 596.7734374399297 L 639.79687526403 592.2695311359712 L 638.4687503360328 589.5039057919639 L 637.343750144064 587.2499998719431 L 636.109375488013 584.2812497919658 L 634.9843752960442 581.4140620799735 L 633.8593751040171 578.1367183359689 L 633.343750144064 575.3749995519174 L 633.0390620160615 570.8671877119341 L 633.656250368047 565.9531253759633 L 634.9843752960442 561.2421877759625 L 636.8281251840526 556.6328125439468 L 638.2656245760154 553.7656248319545 L 639.79687526403 550.8984371199622 L 641.2343746560509 548.1328127999441 L 643.3828126720618 544.550780927937 L 645.5312496640254 541.2734371839324 L 647.3749995520338 537.1796879359172 L 648.710937600059 533.5937495039543 L 650.3437496320112 528.167968767928 L 651.3671874560532 522.1249996799743 L 651.5781253120513 518.7460935679264 L 651.26562508801 513.011719167931 L 648.6015621120459 504.5117183999391 L 646.6562498560525 500.21093785593985 L 639.79687526403 491.71093708794797 L 637.2421877760207 488.43749990395736 L 632.9374996480183 483.10937497596024 L 630.2734376960434 480.34765619196696 L 626.5859379200265 478.0937502719462 L 620.0390625280561 476.66015641595004 L 613.6874997760169 474.3046871039551 L 610.7187496960396 472.25781247991836 L 608.0546877440647 468.26171903993236 L 607.335937024036 463.34765670396155 L 607.9531253760215 458.84375039994484 L 609.0781245440594 456.07812505593756 L 612.8671877120505 451.16015615995275 L 626.4843745280523 441.7421875199652 L 629.5625000960426 439.6914063359727 L 633.2421877760207 437.2343746559345 L 635.0859376640292 435.80078079993837 L 640.3125002240413 428.01953075197525 L 644.710937600059 422.08203161595156 L 650.5468753920286 414.1953126399312 L 655.4687498240382 407.746094079921 L 658.3359375360305 405.183593471942 L 661.1015628800378 403.2382812159485 L 666.9374996480183 399.6562503679306 L 675.3281249280553 396.07031295995694 L 708.2031247360283 383.3749995519174 L 712.4999997440609 382.1445314559387 L 715.9843747840496 381.5312496639672 L 720.179687424039 380.8124999679276 L 723.6640624640277 380.1992191999452 L 726.6328125440632 379.5859374079737 L 730.4218746880651 378.9687500799191 L 734.109375488013 378.15234355191933 L 737.898437632015 377.3320314879529 L 741.1718748160638 376.61328076792415 L 745.1718748160638 375.9999999999418 L 748.6484377600136 375.5898439679295 L 751.2109373440617 375.1796879359172 L 753.4609377280576 374.66796851193067 L 755.2031252480228 374.0546877439483 L 758.6875002880115 372.31250022392487 L 761.7578127360321 371.39062476792606 L 766.4687503360328 370.57421823992627 L 770.1562501120497 370.2656245759572 L 786.0234373120475 370.57421823992627 L 790.3281254400499 370.3671879679314 L 794.0156252160086 370.16406220797217 L 800.3593748480198 370.2656245759572 L 807.5312496640254 370.7773439999437 L 816.7421870080288 372.1093754879548 L 822.5859379200265 372.51953151996713 L 826.7812495360267 372.21093785593985 L 833.5390627840534 371.085937663971 L 844.7031255040201 365.5546879999456 L 856.5781248000567 359.5156254719477 L 861.0859376640292 357.2617185279378 L 866.0000000000582 354.6992189439479 L 875.5234375680448 350.6054686719435 L 882.5859379200265 347.2265625599539 L 887.2968744960381 344.3593748479616 L 892.5234370560502 341.28515583992703 L 896.5156249600113 339.03515647992026 L 899.4843750400469 336.06249983992893 L 901.5312496640254 331.8671871999395 L 903.3749995520338 324.1874995199614 L 905.8359377920278 315.5859374079737 L 908.4999997440609 310.97656217595795 L 910.4453120000544 303.9101562879514 L 910.2343751680455 298.6875002879533 L 906.7578122240375 285.99218790396117 L 905.5234375680448 281.9960934399278 L 906.9609379840549 275.5468748799176 L 910.9531248640269 260.5937500159489 L 912.8984371200204 255.57812531193485 L 914.1249996800325 253.94140671996865 L 915.8671872000559 252.19921919994522 L 919.0468751360313 248.71874969592318 L 921.0937497600098 245.74609407992102 L 923.546874880034 242.47265587194124 L 925.5937495040125 238.47656243195524 L 926.9296875520376 234.58593791996827 L 928.3593748480198 231.20703078393126 L 929.2812503040186 228.5429688319564 L 930.4062504960457 223.83203123195563 L 930.6171873280546 218.40625049592927 L 930.1015623680432 214.51562495995313 L 929.0781245440594 211.03515647992026 L 926.9296875520376 206.7343749119318 L 924.6718750720611 202.2265620479593 L 924.1640622080304 199.76953139196848 L 924.1640622080304 195.87890585593414 L 924.9843752960442 192.39843737595947 L 926.4140625920263 188.30078156793024 L 928.460937216063 183.79687526397174 L 931.023437824042 180.51953151996713 L 936.9609379840549 176.01171865593642 L 940.7500001280569 173.4531246079714 L 944.2343751680455 170.89453158393735 L 950.7890626560547 165.16015615995275 L 955.1875000320142 161.7812500479631 L 960.3125002240413 159.11718707194086 L 963.7890621440602 157.37499955191743 L 966.2500003840541 155.2265625599539 L 970.5468753920286 148.46875033597462 L 972.6015621120459 144.88281292794272 L 975.5703121920233 138.6367191039608 L 978.2343751680455 134.84765593596967 L 980.9921873920248 131.98046924796654 L 983.968749568041 129.42187519994332 L 987.445312512049 127.47656294394983 L 991.9531253760215 125.53124966396717 L 995.6406251520384 123.68749977595871 L 999.6328120320104 120.51171839993913 L 1002.7031255040201 117.644531711936 L 1005.8750003200257 112.93359411193524 L 1008.1328128000605 109.5546879999456 L 1010.179687424039 106.38281215995084 L 1011.8203125760192 104.12890623993007 L 1015.2968744960381 100.9531248639687 L 1019.7031249920256 97.67578111996409 L 1022.2656245760154 95.83203123195563 L 1024.0 94.89303826486139" fill="none"/><path stroke="#000000" stroke-width="2" d="M 276.78906265605474 395.66015590395546 L 286.61718732805457 408.0507811839343 L 289.79687526402995 410.40625049592927 L 294.914062336029 414.70703103992855 L 299.7265623040148 417.0625003519235 L 310.89062502403976 421.7734379519243 L 318.6718750720611 426.5859379199683 L 321.1328122880659 429.1445309439441 L 322.0546877440647 432.2187499519205 L 317.445312512049 441.7421875199652 L 316.00781209603883 445.12109363195486 L 316.21093785605626 449.4218751999433 L 318.3671879680478 452.6992189439479 L 322.3593748480198 455.5664066559402 L 325.9453122560517 457.71484364796197 L 336.8984371200204 459.8671871999395 L 354.0000000000582 461.6054691839381 L 360.4531251200242 463.1445309439441 L 364.24218726402614 463.9609374719439 L 370.5859379200265 465.39453132794006 L 373.8671872000559 465.80468735995237 L 377.0390620160615 466.2148433919647 L 384.0000000000582 467.5468748799176 L 386.7656253440655 468.4687503359746 L 389.6328120320104 471.02734335995046 L 390.96875008003553 475.7382809599512 L 390.3515627520392 485.0546872319537 L 387.0781245440594 493.9648440319579 L 386.66406297602225 497.34375014394755 L 387.6874997760169 501.644531711936 L 389.6328120320104 504.7187496959232 L 392.19531264004763 507.07421900791815 L 396.4999997440609 509.5312496639672 L 400.9999994880636 511.98828134394716 L 404.38281216000905 513.2148439039593 L 408.5781248000567 514.5468753919704 L 416.15625011204975 517.7226557439426 L 419.74218752002344 520.5898434559349 L 423.01562470401404 525.0937497599516 L 424.7578122240375 528.7812495359685 L 427.0078126080334 534.4140625919681 L 428.1406248960411 538.8164065279416 L 429.6718745600665 541.6835942399339 L 432.2343751680455 544.347656191967 L 434.8984371200204 546.4960942079197 L 439.39843788801227 549.1601561599527 L 443.0859376640292 550.6953123839339 L 446.6718750720611 551.921874943946 L 449.9453122560517 552.5390622719424 L 453.84374988806667 553.4609377279412 L 458.0390625280561 554.1757808639668 L 462.4453120000544 554.7890626559383 L 467.14843750401633 554.8945315839374 L 472.6796871680417 554.5859379199683 L 476.6718750720611 554.1757808639668 L 480.7734374400461 553.9726561279385 L 483.2265625600121 553.9726561279385 L 485.78906214406015 554.7890626559383 L 487.7343754240428 557.6562503679306 L 488.25000038405415 561.8554685439449 L 486.3046871040133 565.746094079921 L 482.20312473602826 568.5117183999391 L 478.51562496001134 571.5859374079737 L 478.10937548801303 576.0898437119322 L 480.3593748480198 578.0351559679257 L 483.02343782404205 579.4687498239218 L 487.6328120320104 579.9804692479665 L 491.92968704004306 580.800781311933 L 492.0390625280561 583.7695313919685 L 490.0937502720626 587.2499998719431 L 488.25000038405415 589.6054691839381 L 485.48437504004687 593.0898442239268 L 484.3593748480198 596.4687503359746 L 484.96875008003553 600.664062975964 L 488.0390625280561 603.9414067199687 L 492.1406248960411 605.2734371839324 L 495.10937497601844 605.5820308479597 L 498.38281216000905 605.8867189759621 L 502.07031296001514 607.2187504639733 L 504.7343749120482 609.2656250879518 L 506.5781248000567 610.804687871947 L 509.546874880034 611.4179686399293 L 513.0312499200227 612.1328127999441 L 518.5546874880092 611.7265623039566 L 523.4687498240382 610.1874995199614 L 523.9843747840496 613.0546872319537 L 522.0390625280561 618.0742184959236 L 521.5234375680448 621.7617182719405 L 523.1640832000412 624.5234636799432 L 524.9062502400484 626.7773439999437 L 527.3671874560532 630.2578124799184 L 529.3124997120467 632.2070312959258 L 533.2031252480228 632.9218754559406 L 536.9921873920248 632.5117183999391 L 540.6718750720611 631.8984376319568 L 544.8749998080311 630.6679685119307 L 548.8671877120505 629.3398435839335 L 549.6874997760169 631.4882815999445 L 548.1484369920217 633.9453122559353 L 547.1250001920271 635.9921879039612 L 548.0468746240367 638.656249855936 L 552.5546874880092 639.4765629439498 L 556.6484377600136 639.5781253119349 L 560.6406246400438 639.2695316479658 L 564.8437504000613 635.9921879039612 L 570.7812495360267 629.644531711936 L 574.5703127040179 628.8242186239222 L 578.1562501120497 629.746094079921 L 580.921875456057 630.4648437759606 L 583.4765629440662 631.285155839927 L 586.5468753920286 631.9999999999418 L 590.0312504320173 633.0234378239256 L 592.078125056054 634.3554682879476 L 594.7421870080288 636.4023439359735 L 591.4687498240382 639.4765629439498 L 587.164062720025 643.0585937919677 L 584.2968750080327 644.6992189439479 L 581.2265625600121 645.824219135975 L 577.8437498880667 647.1562495999387 L 574.1640622080304 648.5898434559349 L 570.9843752960442 650.3281254399335 L 567.8125004800386 652.7890626559383 L 564.6406246400438 657.19140659197 L 561.6640624640277 660.980468735972 L 558.289062912052 664.5624995839316 L 555.9296870400431 667.2265625599539 L 554.1953126400476 669.1718748159474 L 550.812499968044 673.3710940159508 L 548.8671877120505 676.2382817279431 L 547.1250001920271 679.4101565439487 L 545.898437632015 682.4843745279359 L 544.1562501120497 689.6523438079748 L 543.335937024036 692.8242186239222 L 541.9062497280538 696.5117183999391 L 540.2656245760154 700.1992191999452 L 537.3984378880123 705.1132815359742 L 535.1484375040163 708.800781311933 L 525.6249999360298 724.6718750719447 L 523.8828124160646 728.1523435519193 L 522.3437496320112 731.1250001919689 L 521.015624704014 734.8085934079718 L 519.4765629440662 739.1093749759602 L 519.1718748160638 743.5156254719477 L 519.7890621440602 748.8398438399308 L 522.0390625280561 754.0624998399289 L 521.1171870720573 759.4882815999445 L 518.1484369920217 764.3007815679302 L 514.9765621760162 768.8085934079718 L 513.5390627840534 770.9570314239245 L 510.6718771200394 772.8007823359221 L 508.10937548801303 775.5664066559402 L 506.3750000640284 778.7382814719458 L 505.65625036804704 783.0390620159451 L 507.70312499202555 788.1601566719473 L 507.5000002560555 793.9960934399278 L 506.1640622080304 799.2187504639733 L 504.83593728003325 804.6484377599554 L 504.53125017601997 809.6640624639695 L 505.0390620160615 813.2499998719431 L 506.78124953602673 819.187500031956 L 506.78124953602673 823.078124543943 L 503.19531212805305 827.0742190079181 L 500.6406246400438 830.656249855936 L 499.4062499840511 834.8554690559395 L 498.6875002880115 839.8710937599535 L 498.8984371200204 843.8671871999395 L 499.60937472002115 848.167968767928 L 502.6875002880115 859.3281249279389 L 503.60937472002115 863.2187504639733 L 502.07031296001514 866.3945308159455 L 500.02343731204746 872.2304686079733 L 500.2265620480175 876.3281254399335 L 500.1249996800325 880.3203123199637 L 500.3281254400499 883.6992184319533 L 501.0468751360313 886.7734374399297 L 501.3515622400446 890.3554682879476 L 501.14843750401633 894.2460938239237 L 501.8671872000559 897.6249999359716 L 502.89062502403976 899.8789058559341 L 503.7109370880644 902.8476559359697 L 504.3203123200219 906.1249996799743 L 504.93750374403317 908.6835927039501 L 505.65625036804704 912.2695311359712 L 506.5781248000567 915.4453125119326 L 507.39843788801227 918.3125002239249 L 508.52343705605017 921.0742190079181 L 509.546874880034 923.2265625599539 L 510.6718750720611 926.3984373759595 L 510.97656217601616 929.7812500479631 L 511.79687526402995 933.5664066559402 L 514.562499584048 944.5234370559338 L 516.710937600059 951.3867192319594 L 521.2187504640315 961.7265623039566 L 522.5468753920286 965.2109373439453 L 519.1718748160638 977.8046873599524 L 518.2500003840541 981.6953128959285 L 517.2265625600121 986.20312473597 L 518.9687500800355 989.6835942399339 L 524.9062502400484 1000.027343871945 L 527.6718745600665 1003.3046876159497 L 536.0703129600151 1016.2070312959258 L 538.5234370560502 1021.5312496639672 L 540.1692711623182 1024.0" fill="none"/><path stroke="#000000" stroke-width="2" d="M 0.0 404.987589678487 L 0.31250022404128686 404.98046873597195 L 18.124999680032488 404.67187507194467 L 29.906249728053808 404.3632814079174 L 39.2265625600121 404.26171903993236 L 48.85156249604188 404.05859327997314 L 53.046875136031304 404.05859327997314 L 55.710937088064384 403.85156300792005 L 58.2656245760154 403.6484372479608 L 61.95312537602149 403.33984358393354 L 75.88281241606455 402.92968755192123 L 79.87500032002572 402.8281251839362 L 85.60937472002115 402.7265628159512 L 95.53906278405339 402.4179691519239 L 119.39843788801227 401.80468735995237 L 127.79687526402995 401.4960936959251 L 134.14843699202174 401.39453132794006 L 163.12500019202707 399.9609374719439 L 171.62499993602978 399.5507814399316 L 179.30468761606608 399.1445309439441 L 190.46875033603283 398.83593727997504 L 205.21093734406168 398.3242188799195 L 209.51562547206413 398.2226565119345 L 219.24218777602073 397.81250047992216 L 235.82812467205804 397.30078105593566 L 239.51562547206413 397.0937497599516 L 242.58593792002648 396.9921873919666 L 255.79687526402995 396.58203135995427 L 265.6328120320104 396.17187532794196 L 269.2109373440617 395.96874956792453 L 276.78906265605474 395.66015590395546" fill="none"/></svg>