<svg xmlns="http://www.w3.org/2000/svg" width="1024" height="1024"><rect stroke="none" x="0" y="0" width="1024" height="1024" fill="white"/><path stroke="#408040" stroke-width="3" d="M 0.0 518.5177141492532 L 1.679359999994631 517.7958399999989 L 5.171199999997043 516.7001600000003 L 15.421440000005532 514.6521599999978 L 26.009600000004866 512.6143999999986 L 30.863360000003013 511.7849599999972 L 36.2598399999988 511.46751999999833 L 44.56448000000091 511.9692799999975 L 47.20639999999548 512.1126399999994 L 50.30912000000535 511.9283199999991 L 52.520959999994375 511.5494400000025 L 55.0297600000049 510.8428799999965 L 59.013120000003255 509.12256000000343 L 72.622080000001 502.7430400000012 L 78.82752000000619 499.84511999999813 L 82.2681600000069 498.2579199999964 L 84.51072000000568 497.3875199999966 L 87.76704000000609 496.4351999999999 L 91.5353599999944 495.7491200000004 L 94.77120000000286 495.4828800000032 L 99.89119999999821 495.47263999999996 L 118.49727999999595 495.50336000000243 L 129.86367999999493 495.52384000000166 L 149.48351999999431 495.5443200000009 L 152.58624000000418 495.3600000000006 L 153.82528000000457 495.1961599999995 L 157.58336000000418 494.3769600000014 L 168.1715200000035 491.5609600000025 L 174.73536000000604 490.0147199999992 L 179.78367999999318 489.3286399999997 L 185.35424000000057 489.08288000000175 L 191.7337600000028 489.11359999999695 L 208.02559999999357 489.2057599999971 L 222.00320000000647 489.2876800000013 L 254.59712000000582 489.4105599999966 L 263.7311999999947 489.4412799999991 L 266.53695999999763 489.48223999999755 L 269.5987199999945 489.71775999999954 L 274.47295999999915 490.4345600000015 L 277.81119999999646 490.9670400000032 L 280.60671999999613 491.2537599999996 L 283.0335999999952 491.2332800000004 L 285.511679999996 490.9670400000032 L 291.4406400000007 490.1273599999986 L 294.9836800000048 489.9123200000031 L 299.81695999999647 489.90207999999984 L 305.38752000000386 489.90207999999984 L 308.9510399999999 489.8099199999997 L 311.2652800000069 489.3081600000005 L 312.8831999999966 488.64256000000023 L 313.80479999999807 488.0998400000026 L 315.2179199999955 486.9631999999983 L 316.78463999999803 485.2838399999964 L 319.30367999999726 482.5497600000017 L 321.0240000000049 481.0751999999993 L 324.58752000000095 478.64832000000024 L 327.1577600000019 476.91775999999663 L 329.0214399999968 475.86303999999654 L 331.2025600000052 475.1667200000011 L 333.57824000000255 474.9004799999966 L 342.1388799999986 474.8799999999974 L 358.2361600000004 474.85951999999816 L 390.43072000000393 474.83903999999893 L 429.63967999999295 474.8492800000022 L 447.05792000000656 474.8185599999997 L 453.08928000000014 474.89024000000063 L 458.5164800000057 475.4329599999983 L 462.5715199999977 476.17023999999947 L 466.2169600000052 477.07136000000173 L 475.91423999999824 479.6108800000002 L 482.252800000002 481.1776000000027 L 485.3350400000054 481.64863999999943 L 487.8847999999998 481.85343999999895 L 496.3737600000022 481.90464000000065 L 514.0991999999969 481.9251199999999 L 527.7900800000061 481.9455999999991 L 549.9289600000047 481.9968000000008 L 562.6879999999946 482.2323200000028 L 577.4438400000072 482.2016000000003 L 588.4416000000056 482.0582399999985 L 599.6441599999962 482.08896000000095 L 613.6217599999945 482.2835199999972 L 629.0022400000016 482.14016000000265 L 661.1763199999987 482.22207999999955 L 675.8195200000046 482.263039999998 L 681.523199999996 482.2937600000005 L 685.8342399999965 482.69312000000355 L 689.6025599999994 483.4406400000007 L 697.6204799999978 485.4476799999975 L 707.7273600000044 487.97695999999996 L 711.7926399999997 488.74496000000363 L 715.345920000007 488.84735999999975 L 717.6499199999962 488.64256000000023 L 720.2201599999971 488.1305599999978 L 723.3638400000054 487.0758399999977 L 727.121920000005 485.0790399999969 L 739.5430400000041 477.7574400000012 L 743.0451199999952 475.719680000002 L 745.7075199999963 474.70592000000033 L 748.2777599999972 474.2655999999988 L 752.2304000000004 474.2655999999988 L 758.5689600000042 474.3987199999974 L 763.3100799999957 474.62400000000343 L 768.235520000002 475.4432000000015 L 773.7753599999996 476.6310400000002 L 785.7049600000028 479.1910399999979 L 800.2867200000037 482.252800000002 L 804.4953600000008 482.8159999999989 L 808.878079999995 483.08224000000337 L 817.2032000000036 482.9184000000023 L 821.7190399999963 482.69312000000355 L 827.2793600000005 482.2118400000036 L 833.8022400000045 481.8636800000022 L 839.4137599999958 481.77152000000206 L 848.7833600000013 481.3107200000013 L 865.6691200000059 481.7305600000036 L 888.6476799999946 481.7407999999996 L 902.5945599999977 481.80223999999725 L 912.4249600000039 482.3142399999997 L 917.6064000000042 482.6316799999986 L 923.3408000000054 482.8364799999981 L 928.9318400000047 482.64192000000185 L 933.2940800000069 482.2323200000028 L 938.3219200000021 481.83295999999973 L 944.9779200000048 481.6281600000002 L 959.3139200000005 481.58720000000176 L 976.5887999999977 481.58720000000176 L 980.4697600000072 482.0991999999969 L 983.1935999999987 482.8672000000006 L 990.0851200000034 485.39648000000307 L 1002.403839999999 489.9123200000031 L 1022.0339200000017 497.10080000000016 L 1024.0 497.66657841726555" fill="none"/></svg>