<svg xmlns="http://www.w3.org/2000/svg" width="1024" height="1024"><rect stroke="none" x="0" y="0" width="1024" height="1024" fill="white"/><path stroke="#000000" stroke-width="2" d="M 0.1100404278258793 0.0 L 0.1093754880130291 0.08984371193218976 L 0.31250022404128686 41.05078169592889 L 0.6171873280545697 81.08984422392678 L 0.6171873280545697 85.59374950395431 L 0.7187496960395947 118.87499980797293 L 0.8203120640246198 127.57812531193485 L 0.7187496960395947 130.75390668795444 L 0.8203120640246198 136.48828108794987 L 0.8203120640246198 139.55859353597043 L 1.2343746560509317 172.3281254399335 L 1.2343746560509317 197.7226557439426 L 1.3359370240359567 207.5507814399316 L 1.3359370240359567 225.7812500479631 L 1.4375004160101525 233.8710937599535 L 1.5390627840533853 255.26953164796578 L 2.562499584048055 285.6835942399339 L 2.664062976022251 305.0390620159451 L 2.8749998080311343 334.93749964796007 L 3.078124544059392 378.9687500799191 L 3.078124544059392 398.0156252159504 L 3.3828126720618457 429.0429685759591 L 3.687499776016921 454.2343751679291 L 3.687499776016921 457.20312524796464 L 3.7890621440601535 461.71093708794797 L 3.898437632014975 475.5312496639672 L 4.000000000058208 488.74218700797064 L 4.203124736028258 512.0898437119322 L 4.000000000058208 567.7968752639717 L 4.000000000058208 676.6484377599554 L 3.8906245120451786 691.5976560639683 L 3.8906245120451786 754.2656245759572 L 3.898437632014975 757.5429683199618 L 3.898437632014975 768.0898437119322 L 3.8906245120451786 772.6992189439479 L 3.5859374080318958 799.7304688639706 L 3.5859374080318958 803.6210933759576 L 3.3828126720618457 813.4531246079714 L 3.179687936033588 832.0898437119322 L 3.179687936033588 835.9804692479665 L 3.281250304018613 861.5820308479597 L 3.179687936033588 866.2929684479604 L 2.9765621760161594 895.2695316479658 L 2.8671877120505087 901.3124997119303 L 2.8671877120505087 940.3281254399335 L 2.8749998080311343 944.3203123199637 L 2.765625344007276 950.5664061439456 L 2.765625344007276 965.7226557439426 L 2.664062976022251 970.8437503999448 L 2.664062976022251 999.820312575961 L 2.765625344007276 1016.7187496959232 L 2.765625344007276 1024.0" fill="none"/><path stroke="#000000" stroke-width="2" d="M 2.7656253440654837 1024.0 L 2.7656253440654837 1016.7187496958068 L 2.664062976022251 999.8203125758446 L 2.664062976022251 970.8437503999448 L 2.7656253440654837 965.7226557439426 L 2.7656253440654837 950.5664061438292 L 2.8749998080311343 944.3203123199055 L 2.8671877121087164 940.3281254399335 L 2.8671877121087164 901.3124997118139 L 2.976562176074367 895.2695316478494 L 3.179687936033588 866.292968447844 L 3.2812503040768206 861.5820308479597 L 3.179687936033588 835.9804692479665 L 3.179687936033588 832.0898437119322 L 3.3828126721200533 813.4531246079714 L 3.5859374080901034 803.6210933758412 L 3.5859374080901034 799.7304688639124 L 3.8906245121033862 772.6992189438315 L 3.898437632014975 768.0898437118158 L 3.898437632014975 757.5429683198454 L 3.8906245121033862 754.2656245759572 L 3.8906245121033862 691.5976560640265 L 4.000000000058208 676.648437759839 L 4.000000000058208 567.7968752639717 L 4.203124736028258 512.089843711874 L 4.000000000058208 488.7421870078542 L 3.898437632014975 475.5312496639672 L 3.7890621440601535 461.7109370880062 L 3.687499776016921 457.2031252479064 L 3.687499776016921 454.2343751678127 L 3.3828126721200533 429.0429685759591 L 3.0781245441175997 398.0156252158922 L 3.0781245441175997 378.9687500799191 L 2.8749998080311343 334.9374996480183 L 2.664062976022251 305.0390620159451 L 2.5624995841062628 285.6835942398757 L 1.5390627840533853 255.26953164790757 L 1.4375004160683602 233.87109376001172 L 1.3359370240941644 225.7812500478467 L 1.3359370240941644 207.5507814399316 L 1.2343746560509317 197.7226557439426 L 1.2343746560509317 172.3281254398753 L 0.8203120640828274 139.55859353591222 L 0.8203120640828274 136.48828108800808 L 0.7187496960395947 130.75390668783803 L 0.8203120640828274 127.57812531181844 L 0.7187496960395947 118.87499980785651 L 0.6171873281127773 85.5937495038379 L 0.6171873281127773 81.08984422398498 L 0.3125002240994945 41.05078169592889 L 0.1093754880130291 0.08984371199039742 L 0.1100404278258793 0.0" fill="none"/></svg>