<svg xmlns="http://www.w3.org/2000/svg" width="1024" height="1024"><rect stroke="none" x="0" y="0" width="1024" height="1024" fill="white"/><path stroke="#000000" stroke-width="2" d="M 0.0 649.1388886658533 L 0.3125002240994945 649.3124997118139 L 1.4375004161265679 649.5000002558809 L 3.1875000320142135 649.7499996158294 L 4.000000000058208 649.7499996158294 L 4.687500288011506 649.9375001598964 L 4.795383808028419 649.9375001598964 L 5.3124997120467015 649.9375001598964 L 8.99999948812183 649.7499996158294 L 16.499999744119123 648.4999997438281 L 20.250000384054147 647.6874997760169 L 24.187499520019628 646.0624998399871 L 30.124999680032488 648.3125002238667 L 35.62499993602978 647.0625003518653 L 42.69497651210986 649.7541355519206 L 48.193359872093424 651.8144532478764 L 68.877312000026 655.2985600000247 L 79.1183360000723 658.47295999981 L 97.4479360000114 658.47295999981 L 99.70073600002797 659.5993599998765 L 111.37536000012187 661.7497599999188 L 115.98336000001291 663.1833599999081 L 125.19936000002781 664.6169599999557 L 127.6569600001094 665.9481599998544 L 148.85478400008287 667.5865599999088 L 158.27558400004636 667.6889599998249 L 167.59500800003298 669.9417599999579 L 169.95020800002385 670.044159999874 L 174.2510080000502 671.7849599998444 L 176.1966080000857 672.2969599998323 L 187.87020800006576 672.1945599999162 L 195.85740800009808 673.5257599998149 L 199.23763200012036 674.0377599998028 L 201.59283200005302 674.5487359998515 L 207.48185600002762 675.9864319998887 L 214.1880320000928 676.0847359998152 L 218.18163200002164 675.9823359998991 L 220.02483200002462 676.5967359998031 L 230.9816320000682 676.0847359998152 L 236.20505600009346 674.9583359999233 L 241.4274560000631 674.9583359999233 L 245.52345600002445 674.6511360000004 L 246.64985600009095 675.5727359998273 L 248.90265600004932 678.542335999955 L 257.6066560000763 681.1023359998944 L 260.6786560000619 682.4335359999677 L 275.83488000003854 685.9151359999087 L 278.4972800000687 688.5775359999388 L 286.9964800000889 691.3423359998851 L 290.4791040000273 691.8543359998148 L 292.73190400004387 692.6735359999584 L 294.06310400005896 694.6191359999357 L 293.1415040001157 695.9503359998926 L 293.1415040001157 697.076735999959 L 292.9367040001671 697.9983359999605 L 292.01408000005176 697.1791359998751 L 291.19385600002715 697.1801599999308 L 292.4216320000123 695.8489599998575 L 292.01203200005693 695.6441600000253 L 291.50003200001083 696.0537599998643 L 290.78323200007435 696.975359999924 L 289.0393600001116 697.0787839998957 L 290.88563200010685 697.589759999828 L 289.96300800004974 698.5113599998294 L 290.27020800008904 699.5353599998052 L 289.8595840000198 700.2531839999137 L 286.0656640001107 699.1278079999029 L 284.21836800005985 698.5144319999381 L 278.4747520001256 700.464127999905 L 276.94387200003257 701.077503999928 L 274.04595200001495 702.2325759998057 L 270.82854400010547 703.5596799998893 L 270.6124800000689 704.4945919999736 L 265.6931840000325 706.4422399999457 L 265.06956800009357 706.143231999944 L 265.2856320000719 705.3137919998844 L 259.6485120000434 705.9343359999475 L 257.4479360000114 707.5194879999617 L 257.37460940814344 709.6321443838533 L 256.87142400006996 709.5971839999547 L 255.6723200000124 709.2490239999024 L 253.29152000002796 708.5055999998585 L 250.76121600001352 709.3729279999388 L 248.416256000055 709.3954559998238 L 245.96070400008466 709.3657599998987 L 243.35872000007657 709.2817919998779 L 240.93900800013216 709.6473599999445 L 239.48185600008583 710.0815359998378 L 242.83648000005633 710.3641599999391 L 250.51136000006227 710.4573439998203 L 253.9837440000847 709.7518079998554 L 255.0435840000864 710.8085759998066 L 256.72089600010077 711.2396799998241 L 256.7444480000413 711.4158079998451 L 254.86950400006026 713.2497919998714 L 251.67155200004345 714.6250239999499 L 248.98867200006498 715.8517759999959 L 246.16038400004618 716.6033919999609 L 245.01145600003656 717.0447359998943 L 247.2888320001075 716.6935039999662 L 251.97158400004264 714.9557759998715 L 255.15417600004002 713.5969279998681 L 256.5806080000475 713.3286399998469 L 256.75571200007107 712.9169919999549 L 257.27385600010166 712.7736319999676 L 258.9788160001044 711.6554239998222 L 259.5164160000277 710.6570239999564 L 261.4036480000941 711.006207999948 L 261.18246400007047 711.7086719998624 L 263.7127680000849 710.9611519998871 L 262.6754570240155 710.1296650239383 L 261.20089600002393 710.395903999859 L 258.68800000002375 709.4210559999337 L 259.3331200000248 707.7130239999387 L 269.7656320001115 706.0592639999231 L 274.0490240000654 704.3020799998776 L 278.5515520001063 702.2602239999105 L 278.9068800000241 702.0943359998055 L 286.28070400003344 701.3775359998108 L 288.32870400015963 703.6303359999438 L 286.17830400005914 704.6543359999196 L 286.28070400003344 704.9615359998425 L 288.6359040000243 704.5519360000035 L 291.2983040000545 706.9071359998779 L 290.6839040000341 707.9311359999701 L 289.9671040000394 710.1839359999285 L 293.75590400001965 708.3407359998673 L 295.39430400007404 708.2383359999512 L 296.8279040000634 709.876735999831 L 297.9543040000717 710.7983359998325 L 302.152704000182 709.3647359998431 L 305.736704000039 708.3407370239729 L 308.3991040000692 709.3647359998431 L 310.0375040001236 710.5935359998257 L 315.87532800011104 713.3583359999466 L 323.86252800002694 718.4773119998281 L 331.84972800005926 723.8021119998302 L 336.3563520000316 727.283712000004 L 342.95091200008756 730.7878399999463 L 347.7923840000294 734.2100479999208 L 352.92467200005194 737.0557439999538 L 354.0418560000835 737.5411199999508 L 354.55078400007915 737.808383999858 L 364.41600000002654 740.4103679999826 L 364.77030400006333 740.5189119998249 L 375.474176000047 743.9749119998305 L 380.6054400000721 746.1857279999531 L 383.46240000007674 748.3781119998312 L 386.6368000000366 749.8117119998788 L 398.4128000000492 756.3653119998635 L 405.9914240001235 758.9253119999194 L 406.9130240000668 760.358911999967 L 407.6298240000615 760.7685119998641 L 418.9962240001187 766.195711999957 L 422.887424000015 769.370111999975 L 432.9236480000545 774.8986879999284 L 445.6212480000104 779.3018879998708 L 459.75347200006945 782.578687999805 L 460.57267200009665 782.578687999805 L 469.7589760000119 782.7886079999153 L 476.90035200008424 782.9852159999427 L 477.26387200003956 782.9882879998768 L 477.67961600009585 782.8285439999308 L 497.64249600010226 774.8986879999284 L 504.60569600004237 769.9834879999398 L 511.0579200000502 767.6282879998907 L 513.5155200000154 768.0378879999625 L 528.4659200001042 766.1946879999014 L 532.2772480000276 764.6474239999079 L 543.6221440000227 760.6650879998342 L 549.0493440000573 759.9482879998395 L 554.8861440000474 758.105087999953 L 557.037568000087 757.3882879999001 L 562.0551680000499 756.9786879998865 L 568.5063680000603 755.237887999916 L 579.8737920001149 750.6298879999085 L 583.7649920000113 748.3770879999502 L 592.7761920000776 747.1482879999676 L 599.5356160001247 748.2746879998012 L 612.7452160001267 744.5882879998535 L 623.6006400000188 741.0042879998218 L 626.775040000095 742.4378879998112 L 640.2928640000755 741.4138879998936 L 640.2928640000755 741.100543999928 L 641.2361472000484 740.8717035518494 L 641.978368000011 740.6909439999145 L 643.1313920000684 740.2926079998724 L 644.3499520001351 740.4789759998093 L 645.0862080000225 740.4554239998688 L 646.3354880000115 740.1502719998825 L 647.9370240001008 739.4938879999681 L 650.5963520000223 738.8610559998197 L 652.0381440000492 738.8600319999387 L 654.4404480000376 738.5313279998372 L 655.2739840000286 738.624511999893 L 656.1382400000584 738.6480639998335 L 658.5743360000197 739.1150079999352 L 659.5383746561129 738.9041448958451 L 660.4318720001029 738.9265920000034 L 661.7139200001257 739.1836159999366 L 663.7649920000113 739.0187519999454 L 666.2645760001033 738.4084479998564 L 668.5071360000293 737.9865599998739 L 669.5639040000387 737.4714879998355 L 670.7496960001299 737.1663359998493 L 671.3262080000131 736.8622079998022 L 673.5042560000438 736.8376319999225 L 674.2732800000231 736.5806079999311 L 674.721792000113 736.603135999816 L 676.1329725440592 737.1887831040076 L 677.1251200000406 737.1182079998543 L 678.0549120000214 737.3281279999646 L 678.7276800000109 737.8431999998284 L 679.0481920000166 738.4750079999212 L 679.5612160000601 739.0607359999558 L 680.2339840000495 739.3648639998864 L 680.8432640000829 739.4344960000017 L 682.9260800000629 739.2706559998915 L 684.1108480000403 739.0361599999596 L 685.8731520000729 738.2394879998756 L 686.2581760000321 738.1463039998198 L 687.9569920000504 738.0991999999387 L 689.6865280001075 737.4899199999054 L 690.6163200000883 737.2554239999736 L 692.5701120000449 736.9512959998683 L 694.0119040000136 736.5529599998263 L 695.6144640001003 736.5529599998263 L 696.4152320000576 736.4126719998894 L 696.960000000021 736.4126719998894 L 698.8185600001598 736.6461439999403 L 700.3248640000238 736.5294079998857 L 701.830144000065 736.2252799998387 L 702.8879360000137 735.8975999998511 L 703.6887040000292 735.5463679998647 L 704.3614720000187 735.6395519999205 L 704.8427520000259 736.0839679999626 L 705.1632640000898 736.8806399998721 L 705.9322880001273 737.7930239998386 L 706.4125440000207 737.9804159998894 L 707.9833600000129 738.2149119998212 L 709.521408000146 738.2384639999946 L 710.3549440000788 738.3316479998757 L 712.7255040000309 739.1743999999017 L 713.1422720000846 739.1979519999004 L 714.2635520000476 739.1518719999003 L 717.9161600000807 738.8712959999684 L 720.0307200000389 738.5671679998632 L 720.3829760000808 738.6839039999177 L 721.3127680000616 739.2460799998371 L 723.0740480000968 739.3402879998321 L 724.4840960000874 739.0361599999596 L 725.3493760001729 738.7084799999138 L 726.0866560000577 738.5907199998619 L 727.2079360000789 738.7084799999138 L 729.7720320001245 738.4043519998668 L 730.7335680000251 738.5456639999175 L 731.6951040001004 739.0136319999001 L 732.6873600000399 739.1774719998357 L 734.3861760001164 739.8338559999247 L 734.8981760001043 739.9741439998616 L 737.205248000042 740.0212479998008 L 739.7048320000758 739.7416959999246 L 741.2428800000926 739.8594559998601 L 741.435392000014 739.1334399998304 L 742.1399040000979 739.0167039999506 L 743.1649280001293 739.2276479999418 L 746.2410240001045 739.6259839998093 L 747.0735360000399 739.486719999928 L 747.8108160000993 739.5563519998686 L 748.4211200000136 739.3935359998723 L 748.7416320000775 739.3935359998723 L 749.5096320000594 739.9086079999106 L 750.3104000000167 740.1902079999563 L 750.91968000005 740.2598399998969 L 753.4827520000981 739.980287999846 L 753.5790080000297 739.8635519998497 L 754.2200320001575 739.7703679999686 L 755.4058240001323 739.7468159999698 L 757.5848960001022 739.3269759998075 L 758.6744320000289 739.2573439998669 L 759.5069440000225 739.4682879998581 L 759.8274560000282 739.6321279999684 L 760.5964800000656 739.5389439999126 L 762.0382720000343 738.9306879999349 L 762.6158080000896 739.0248959999299 L 762.8390400000499 739.3290239998023 L 763.0960640000412 739.4928639999125 L 763.640832000121 739.4232319999719 L 766.3964160000323 738.6521599998232 L 767.2616960001178 738.254847999895 L 767.5504640000872 737.9967999999644 L 768.2990080001764 737.8350079999072 L 772.6694400000852 736.7567359999521 L 773.6944640000584 736.3583999999682 L 774.0794880000758 736.3819519999088 L 775.7137920000241 736.7557119998964 L 776.00256000011 736.9195520000067 L 776.00256000011 737.0362879998283 L 776.6753280000412 737.1294719998841 L 778.3096320001059 737.0117119999486 L 778.9824000000954 736.8949759999523 L 779.2384000000893 736.9175039998372 L 780.0719360000221 736.5662719998509 L 780.4876800000202 736.1679359998088 L 780.6474240000825 735.62931199983 L 780.8399360000622 735.62931199983 L 781.6089600000414 736.2140159998089 L 784.1730560000287 736.3071999998647 L 786.9614080000902 736.1884159998735 L 787.8901760000736 736.0245759999962 L 790.0375040001236 735.9764479998266 L 791.9278080001823 735.2739839999122 L 793.0163200001116 735.0630399999209 L 796.060672000167 734.756863999879 L 797.566976000031 734.522367999889 L 799.5852800001157 733.8905599998543 L 799.9057920000632 733.679615999863 L 800.7065600000205 733.3744639998768 L 801.8595840000198 733.2106239999994 L 803.0146560000139 733.4676479999325 L 804.8046080000349 733.0672639999539 L 805.1609600000666 732.9525759998942 L 806.1224960000254 732.8583679999574 L 807.3410560000921 733.0222079998348 L 808.3660800000653 733.0211839999538 L 809.2313600000925 732.9044479998993 L 810.7376640000148 733.2321279999451 L 811.3141760000726 733.5833599998732 L 811.9879680000595 734.3083519998472 L 812.4682240001275 734.4250879998435 L 814.7752960001235 734.6360319998348 L 815.8965760000283 734.5182719999575 L 818.0121600001003 734.8459519999451 L 819.2624640000286 734.7988479998894 L 820.6725120000192 734.541823999898 L 822.6590720000677 734.4476159999031 L 823.6851200000965 734.2602239998523 L 825.2866560000111 733.6273919998785 L 826.2799360000645 733.019135999959 L 827.4974720000173 732.5511679998017 L 828.3576320000575 731.8927359998925 L 828.39552000002 731.8487039998872 L 828.7477770240512 731.7544970238232 L 830.5418240000727 731.941887999943 L 831.2145920000621 732.2460159998154 L 831.6641280000913 732.9484799999045 L 832.0481280001113 733.1829759998946 L 832.4331520000123 733.3468159999466 L 833.6824320000596 733.1112959999591 L 834.1954560000449 733.2751359998365 L 834.5323520001839 733.679615999863 L 834.6449920000741 733.7431039998191 L 834.5487360000843 734.2356479998562 L 834.9009920001263 734.4691199998488 L 835.0617600000696 734.8439039999503 L 835.4785280000651 735.0312959998264 L 836.9203200000338 734.9606400000048 L 839.1956480000517 735.4296319998684 L 840.8616960000363 735.6631039999193 L 841.2139520000783 735.6631039999193 L 841.5027200000477 735.5463679998647 L 841.7587200000416 735.2657919999328 L 842.0147200000938 735.1715839999961 L 842.9127680000965 735.3825279999874 L 845.2833280000486 735.2186879998771 L 846.1168640000978 735.4060799999279 L 846.7578880001092 735.7347840000293 L 847.879168000014 735.6641279999749 L 848.263168000034 735.5238399998052 L 848.583680000098 735.1961599998176 L 850.4760320001515 734.9626879999414 L 854.0651520000538 733.9560959998053 L 858.6485760000651 732.3647999998648 L 859.7698560001445 732.1077759998734 L 862.4302080000634 731.2424959999043 L 863.0712320000166 730.9373439998017 L 863.6477440001327 730.5400319998153 L 865.2830720000202 729.9082239999552 L 866.9173760000267 729.5580159999081 L 870.6048000001465 727.6390399999218 L 872.3174400000717 727.4956799998763 L 873.2016640001093 727.3123839998152 L 873.8426880001207 726.9140479999478 L 874.5154560000519 726.9375999998883 L 875.5087360001053 727.1024639998795 L 876.5347840000177 726.9386240000022 L 876.7272960000555 727.0318079998833 L 876.7590400000336 727.3369599998114 L 876.854272000026 727.4065919999848 L 876.854272000026 728.0158719999599 L 876.5972480000346 728.9753599998658 L 877.1420160000562 729.5375359998434 L 878.5192960000713 730.0300799998222 L 879.3200640000287 730.2174719998729 L 881.4991360000568 730.4990719999187 L 883.2296960001113 731.0847999999532 L 883.6464640001068 731.3663999998244 L 884.4800000000396 731.5302399999346 L 885.0565120000974 731.4841599999345 L 885.9228160001803 731.2496640000027 L 887.3011200000183 731.4800639999448 L 887.4362880000845 731.4800639999448 L 888.2933760000742 731.4380799999344 L 889.287680000125 731.2988159998786 L 890.4407040001242 731.5097599998699 L 891.4984960001311 731.4165759999887 L 896.3072000000975 730.2256639998523 L 897.2707840000512 730.086399999971 L 899.0976000000373 729.9921919998014 L 900.4759040000499 729.6399359999341 L 900.7964160001138 729.6870399998152 L 901.3422080000746 730.1079039999167 L 901.7589760000701 730.2481919998536 L 902.9765120000229 730.4120319999638 L 904.034304000088 730.7151359999552 L 905.3480960000888 730.8789759998908 L 907.9121920000762 730.5267200000235 L 908.7129600000335 730.2451199998031 L 909.0652160000755 730.0106239998713 L 909.2249600000796 729.5426559998887 L 909.4492160000955 729.1443199998466 L 909.8332160001155 728.8627199998591 L 910.9862400001148 728.324095999822 L 913.3895680000423 727.8551039999584 L 914.9276160000591 727.6431359999115 L 915.5368960000342 727.7373439998482 L 917.2049920000718 728.1807360000093 L 918.5832960001426 728.7429119999288 L 920.3466240000562 729.7720319999498 L 920.9241600001114 729.9123199999449 L 922.5256960000261 730.0526079998817 L 923.6162560001248 730.3792639998137 L 924.1292800001102 730.6137599999201 L 925.2188160000369 731.7370879999362 L 928.9052160001011 732.2511359999189 L 930.3787520000478 732.5317120000254 L 932.1748480000533 732.5081599998521 L 932.8158720000647 732.9054719998385 L 933.5848960001022 733.2331519998261 L 934.546432000061 733.4440959998174 L 936.1807360000676 733.5833599998732 L 938.2318080000696 733.9581439999747 L 938.6813440000406 734.2387199999066 L 939.5138560000923 735.1285759998718 L 941.0529280001065 735.6200959999696 L 941.1164160000626 735.736831999966 L 941.3406720000785 735.7132799998508 L 942.4312320001773 736.0174079998978 L 945.1223040000186 735.8535679998458 L 947.1744000000181 735.6426239998545 L 947.8471680001239 735.4777599998633 L 949.6739840001101 734.7292159999488 L 952.5258240001276 734.2366719999118 L 953.070592000091 734.3534079999663 L 953.7433600000222 734.6821119998349 L 954.4488960001036 735.3610239998088 L 955.089920000115 736.3205119998893 L 955.1534080000129 737.0465279999189 L 955.2496640000609 737.186815999914 L 955.7944320000242 737.4438399999053 L 957.7492480000365 737.8657279998879 L 961.6916480000946 737.957887999888 L 962.5569280001218 738.1452799998806 L 963.6147200001287 738.6839039999177 L 964.5117440001341 739.2696320000105 L 966.5945600000559 740.2055679999175 L 967.6840960000409 740.5803519998444 L 968.9978880001581 740.5803519998444 L 974.4128000001074 740.2536959999125 L 975.0220800000243 740.4646399999037 L 975.6958720000111 741.002239999827 L 976.1433600000455 741.8695679999073 L 976.1433600000455 742.3610879998305 L 976.3041280000471 742.7583999999915 L 976.9768960000365 743.3676800000248 L 977.4243840000709 744.3271679998725 L 979.0586880000192 745.7331199998152 L 979.8594560000929 746.1775359998574 L 981.1087360000238 746.505215999845 L 984.4725760000874 746.7868159998907 L 987.6766720000305 746.4130559998448 L 989.3120000000345 746.272767999908 L 990.4332800000557 746.4376319998992 L 993.3496320000268 746.4611839998397 L 995.2399360000272 746.3915519998991 L 998.2504960001097 747.0950399999274 L 998.2822400000878 747.3991679999745 L 997.833728000056 747.5630079998518 L 997.0974720001104 747.4923519998556 L 995.9116800000193 747.1175679999287 L 995.5276800001739 747.1175679999287 L 995.5276800001739 747.4452479999745 L 995.6229120000498 747.5159039999708 L 995.6229120000498 747.6797439999063 L 995.2389120000298 748.1948159999447 L 995.3024000001024 748.4293119998765 L 996.5199360000552 749.2485120000201 L 996.4226560001262 750.1383679999853 L 996.5506560000358 750.2315519998665 L 997.1916800000472 750.466047999973 L 997.4794240001356 750.7005439999048 L 997.543936000031 751.1449599999469 L 997.3831680000876 751.7777919999207 L 997.5429120000335 751.9180799998576 L 997.7671680000494 751.941632000031 L 998.9857280000579 750.0687359998119 L 999.7240320000565 748.7580159998033 L 999.7557760000345 748.2429439999396 L 999.6605440001586 748.0555519998888 L 998.9877760000527 747.5865600000252 L 999.051264000067 747.3059839999187 L 999.5642880001105 747.0960639998084 L 1001.9031040000846 747.0264319998678 L 1004.5644800001173 746.7223039998207 L 1006.294016000058 746.3249919998343 L 1007.5125760001247 746.208255999838 L 1008.3133440001402 746.2789119998342 L 1009.2421120000654 746.4908799999394 L 1010.074624000059 746.9352959999815 L 1010.6511360000586 747.0530559998588 L 1011.7724160000216 747.0295039999182 L 1015.0727680000127 746.3464960000128 L 1016.836096000101 745.9788799999515 L 1017.7013760000118 746.002431999892 L 1018.7581440000795 746.1898239999427 L 1020.9699840000831 746.1447679998819 L 1021.5147520000464 746.2389759998186 L 1024.0 746.0527640701039" fill="none"/><path stroke="#408040" stroke-width="3" d="M 0.0 993.7401218543091 L 19.14879999999539 994.1503999999986 L 45.12768000000506 994.7136000000028 L 59.17695999999705 995.0310400000017 L 72.03840000000491 994.7647999999972 L 87.55199999999604 993.2902400000021 L 105.84063999999489 993.3312000000005 L 153.40544000000227 993.6281600000002 L 167.9360000000015 993.6691199999987 L 177.73567999999796 991.9385600000023 L 196.75135999999475 985.4976000000024 L 206.9401599999983 982.0467199999985 L 214.712320000006 979.9167999999991 L 220.46719999999914 979.0771200000017 L 234.47552000000724 978.4832000000024 L 258.1811199999938 977.6844800000035 L 268.55423999999766 978.1759999999995 L 280.0332800000033 979.9680000000008 L 290.61119999999937 981.4527999999991 L 303.5136000000057 981.1456000000035 L 316.0371199999936 980.2956800000029 L 327.1577600000019 978.2681599999996 L 337.6947199999995 976.4147200000007 L 346.99263999999675 975.4931199999992 L 375.85920000000624 974.6022400000002 L 396.9024000000063 976.1791999999987 L 425.093120000005 975.2883199999997 L 436.3878399999958 976.0051200000016 L 449.59743999999773 977.9097600000023 L 466.15552000000025 982.0160000000033 L 482.82623999999487 987.729919999998 L 498.73919999999634 993.3004799999981 L 513.843200000003 1001.1238400000002 L 529.9609599999967 1007.9641600000032 L 534.5075199999992 1008.9164799999999 L 540.6412799999962 1009.2953599999964 L 550.2156799999939 1009.6025599999994 L 558.6636799999978 1010.6470400000035 L 567.5110399999976 1012.4083200000023 L 573.3478400000022 1014.5996799999994 L 579.4611200000072 1018.1632000000027 L 585.2364800000068 1021.7881599999964 L 589.5372800000041 1023.5494400000025 L 591.5536750617321 1024.0" fill="none"/></svg>