<svg xmlns="http://www.w3.org/2000/svg" width="1024" height="1024"><rect stroke="none" x="0" y="0" width="1024" height="1024" fill="white"/><path stroke="#000000" stroke-width="2" d="M 492.4453120000544 23.53906278393697 L 492.1406248960411 32.65234329592204 L 492.1406248960411 51.08593766397098 L 492.24218726402614 57.94531225593528 L 492.24218726402614 69.92578150396002 L 492.24218726402614 72.07812505593756 L 492.24218726402614 95.32031283195829 L 492.1406248960411 110.6835937279393 L 492.1406248960411 113.75390617595986 L 492.24218726402614 121.23046911996789 L 492.24218726402614 139.76171827194048 L 492.1406248960411 154.5078128639725 L 492.24218726402614 158.70703103992855 L 492.24218726402614 193.11328153597424 L 492.34374963201117 197.0039060479612 L 492.24218726402614 199.97656268795254 L 492.1406248960411 214.10546892794082 L 492.24218726402614 217.07421900791815 L 492.24218726402614 223.21875046397327 L 492.34374963201117 240.52343705593375 L 492.24218726402614 248.20703129592584 L 492.1406248960411 254.65624985593604 L 492.1406248960411 271.34765670396155 L 492.0390625280561 284.35156275192276 L 492.1406248960411 287.4257817599573 L 492.1406248960411 364.2226565119345 L 492.24218726402614 383.3749995519174 L 492.1406248960411 402.62500044796616 L 492.1406248960411 458.7382814719458 L 492.24218726402614 467.2382812159485 L 492.24218726402614 471.33593702391954 L 492.34374963201117 478.8085934079718 L 492.34374963201117 498.16406220797217 L 492.34374963201117 512.6015621119295 L 492.34374963201117 523.2499998719431 L 492.24218726402614 538.8164065279416 L 492.34374963201117 550.2851563519216 L 492.6484377600136 564.2109378559398 L 492.6484377600136 567.1796879359172 L 492.5468753920286 571.8906245119288 L 492.5468753920286 577.3203128319583 L 492.4453120000544 584.2812497919658 L 492.5468753920286 589.9140628479654 L 492.5468753920286 609.9843747839332 L 492.34374963201117 627.5976560639683 L 492.34374963201117 635.9921879039612 L 492.4453120000544 639.9882813439472 L 492.34374963201117 643.0585937919677 L 492.24218726402614 654.6289059839328 L 492.34374963201117 664.664062975964 L 492.24218726402614 667.8398433279363 L 492.24218726402614 682.4843745279359 L 492.34374963201117 687.5000002559391 L 492.4453120000544 692.3125002239249 L 492.4453120000544 704.0898437119322 L 492.75000012805685 711.1562495999387 L 492.6484377600136 726.8242186239222 L 492.4453120000544 740.031250431959 L 492.5468753920286 744.5390622719424 L 492.6484377600136 750.7851560959243 L 492.8515624960419 766.2460938239237 L 492.8515624960419 769.3203128319583 L 492.75000012805685 772.3906252799206 L 492.75000012805685 775.8710937599535 L 492.6484377600136 779.0468751359731 L 492.6484377600136 804.3398440959281 L 492.75000012805685 809.0507816959289 L 492.6484377600136 815.8085939199664 L 492.6484377600136 820.5195315199671 L 492.5468753920286 825.9453122559353 L 492.34374963201117 832.3984373759595 L 492.24218726402614 835.8789058559341 L 492.24218726402614 840.6914058239199 L 492.34374963201117 846.0156252159504 L 492.4453120000544 848.6796871679253 L 492.34374963201117 859.2265625599539 L 492.5468753920286 870.2851563519216 L 492.4453120000544 874.9960939519224 L 492.34374963201117 883.187500031956 L 492.34374963201117 887.3867192319594 L 492.4453120000544 890.3554682879476 L 492.5468753920286 895.9882813439472 L 492.5468753920286 902.7460935679264 L 492.34374963201117 917.082031103957 L 492.4453120000544 920.7695308799739 L 492.4453120000544 938.9960939519224 L 492.5468753920286 947.187500031956 L 492.6484377600136 950.8749998079729 L 492.6484377600136 960.1914060799172 L 492.4453120000544 970.7382814719458 L 492.4453120000544 976.2695311359712 L 492.75000012805685 981.6953128959285 L 492.4453120000544 992.1406248959247 L 492.34374963201117 995.8281246719416 L 492.4453120000544 999.5156254719477 L 492.6484377600136 1008.8320317439502 L 492.5468753920286 1013.2343746559345 L 492.5468753920286 1024.0" fill="none"/><path stroke="#000000" stroke-width="2" d="M 0.0 148.23237703008635 L 2.8538880000123754 147.80825599993113 L 5.0964480000548065 147.19487999996636 L 6.4296878080349416 146.43359334394336 L 7.108608000038657 146.6306559999357 L 7.179687936033588 146.7734374399297 L 7.273437184048817 146.9531248639687 L 7.609374720021151 147.08203110395698 L 8.483942400023807 146.82302259193966 L 8.13670400006231 149.0073599999305 L 8.140867584035732 149.00629196793307 L 8.140624896041118 149.007812607917 L 8.296875008032657 148.96875007991912 L 8.412160000065342 148.93055999994976 L 8.512220160046127 148.8739686399349 L 8.54746726405574 148.85933977592504 L 8.944640000059735 148.8363519999548 L 9.039062016061507 148.74218700797064 L 10.658533376059495 148.1598300159676 L 11.909942272061016 147.98286028794246 L 13.591861248016357 147.74781132792123 L 13.867187200055923 147.71093708794797 L 14.502661120030098 147.55572121596197 L 16.684032000019215 147.02899199991953 L 17.304687616066076 146.9570314239245 L 18.87744000001112 146.77094399993075 L 21.10156800004188 146.79347199993208 L 22.640624640043825 146.62890598393278 L 24.484374528052285 146.16015667194733 L 24.7992320000194 145.995775999967 L 25.867187200055923 145.71484364796197 L 27.585937408031896 145.03515647992026 L 28.335937536030542 144.9179688959266 L 31.81772800005274 145.12639999995008 L 36.73861222405685 144.3287039999268 L 37.27052800002275 144.3287039999268 L 37.35937536001438 144.3242188799195 L 38.750000128056854 144.21484339196468 L 39.37075200001709 144.1638399999356 L 43.976562688010745 143.2265625599539 L 46.765625344065484 142.07812505593756 L 47.3124997120467 141.74218751996523 L 47.36061747203348 141.71059199993033 L 47.382812672061846 141.42968729592394 L 48.25781248003477 140.9609379839385 L 50.24023449601373 140.84570316795725 L 51.150390272028744 140.82617139193462 L 52.03906252805609 141.24218777596252 L 54.39062528003706 141.20703078393126 L 57.6718745600665 141.06445311993593 L 58.98437529604416 140.9218754559406 L 59.65449113602517 140.95681945595425 L 60.25781248003477 140.99023462395417 L 61.109374976018444 141.01562470395584 L 62.09375027206261 140.96875007991912 L 64.10937548801303 140.69921894394793 L 65.28906240005745 140.66406297596404 L 67.51562547206413 140.0859371519182 L 70.0859371520346 139.42578175995732 L 71.15245056001004 139.0487910399679 L 72.22265651205089 138.67382783995708 L 73.12890675204108 138.38085939193843 L 74.43842867203057 138.0625971199479 L 74.91406233602902 137.94921881594928 L 75.18809190404136 137.87863551994087 L 75.43083417601883 137.8182707199594 L 75.5859374080319 138.07031295995694 L 76.6310400000657 137.81299199996283 L 77.38368000002811 137.743359999964 L 78.0728320000344 137.9543039999553 L 79.76550400000997 137.57951999997022 L 80.04812800005311 137.57951999997022 L 80.51814400003059 137.39212799991947 L 81.11411200003931 137.39212799991947 L 81.86572800006252 137.6737279999652 L 83.21093734406168 137.5820308479597 L 85.87500032002572 137.20703078393126 L 88.88627200003248 136.97228799993172 L 91.42476800002623 136.48076799995033 L 92.70988800004125 136.129535999964 L 94.62169600004563 136.03635199996643 L 96.34374963201117 135.5937495039543 L 98.03776000003563 135.38099199993303 L 98.88281292805914 135.1406254079193 L 102.04979200003436 134.23411199991824 L 105.65632000006735 132.80665599997155 L 106.43749990401557 132.62109388795216 L 107.38281267206185 132.1757808639668 L 108.94745600002352 131.80108799994923 L 110.39027200004784 131.2860159999691 L 111.73785600002157 130.747391999932 L 111.96013977605617 130.5826088959584 L 113.27343718404882 129.9999999999418 L 114.21491200005403 129.34246399992844 L 114.812499968044 129.01562470395584 L 115.4921871360275 128.88671846396755 L 115.9140628480236 128.80859340797178 L 116.27595776005182 128.7375892479322 L 116.78906265605474 128.6406246399274 L 118.65088000003016 127.94675199995982 L 119.73437542404281 127.58593740797369 L 120.27205529605271 127.45071206393186 L 121.51416012801928 127.14209996792488 L 121.62499993602978 127.11718707194086 L 121.7734379520407 127.07812454394298 L 122.01875148806721 126.96347545593744 L 122.14062489604112 126.91015577595681 L 122.31250022404129 126.82812518393621 L 122.49999974406091 126.74218700797064 L 122.93120000005001 126.53977599996142 L 124.00000000005821 125.76953139196848 L 124.22706892801216 125.67479705595179 L 124.93749964801827 125.39062476792606 L 125.09374976006802 125.32421836792491 L 125.21093734406168 125.29296895995503 L 126.35156275203917 124.97265663993312 L 128.19531264004763 124.09375027194619 L 132.01323724805843 122.88840499194339 L 133.6796876800363 122.36328140791738 L 133.7343754240428 122.34765619196696 L 134.1542400000617 122.31270399992354 L 135.60252108803252 122.19938611192629 L 135.82812467205804 122.18359398393659 L 138.4325120000285 121.75871999992523 L 140.68940800003475 121.17196799995145 L 143.19531212805305 120.11718758393545 L 146.48729600006482 118.85055999993347 L 147.42968729604036 118.35937484796159 L 147.71093708806438 118.35937484796159 L 147.99218790401937 118.26562457595719 L 148.23775232001208 118.25051340792561 L 149.3073920000461 118.19315199996345 L 150.4358400000492 118.0057599999709 L 151.03180800005794 117.793791999924 L 152.38281216006726 117.1367188479635 L 154.9531248640269 115.58984396792948 L 159.36921600002097 113.36396799993236 L 160.9062502400484 112.84765593596967 L 162.75781222403748 112.42578124796273 L 163.41406208003173 112.16796876792796 L 164.4158136320184 111.91006719996221 L 166.2656245760154 111.816406015947 L 166.955008000019 111.67539199994644 L 167.86718720005592 111.183593471942 L 170.0937502720626 110.5039063039585 L 172.19531264004763 109.58984396792948 L 173.9453122560517 109.30859417596366 L 175.8593751040171 108.67578163195867 L 176.57812480005668 108.58203135995427 L 177.27343718404882 108.88671846396755 L 178.0859371520346 108.95703142392449 L 179.02343782404205 108.81640652794158 L 179.9062497280538 108.53515673591755 L 180.5563617280568 108.19287961593363 L 182.3203123200219 107.26953164796578 L 184.70312550402014 106.49609420791967 L 185.42187520005973 106.07421849592356 L 186.45606400002725 105.62867199996253 L 188.27468800003408 105.20678399992175 L 189.5000002560555 104.76171878393507 L 190.90841600002022 103.9185919999727 L 191.50781235203613 103.47265638393583 L 192.6963200000464 102.84031999995932 L 194.64062464004382 101.57421875192085 L 195.8942720000632 100.7554559999262 L 196.33216204802739 100.33965465595247 L 196.58593792002648 100.10156236792682 L 196.6796871680417 99.67968767991988 L 197.11718707205728 99.14062540791929 L 197.807104000065 98.74124799994752 L 198.18749952001963 98.27343769592699 L 199.24991897604195 97.68754892796278 L 199.75168000004487 97.28921599994646 L 199.90835200005677 96.9840639999602 L 200.12851200002478 96.79667199996766 L 200.23374336003326 96.56063795194495 L 200.35156275203917 96.30468710395508 L 200.6328125440632 95.97656268795254 L 201.66553600004409 95.20435199997155 L 202.00810598401586 95.08745113597251 L 202.16406220803037 95.88281241594814 L 202.60659200005466 95.90681599994423 L 203.01562470401404 95.78906214394374 L 203.20312524802284 93.56250009592623 L 203.39097600005334 93.02527999994345 L 203.61081548803486 92.76863078394672 L 203.98483558406588 92.53507583995815 L 204.64843776001362 92.4179691519239 L 205.1796879360336 92.4179691519239 L 205.5859374080319 92.62890598393278 L 205.92968704004306 92.95703142392449 L 205.93357209605165 93.02695526392199 L 206.179687424039 101.57812531193485 L 206.30468710401328 101.78906214394374 L 206.79577600001357 102.15731199993752 L 207.84374988806667 102.63281254394678 L 209.8203125760192 102.98437529592775 L 210.2265620480175 103.19531212793663 L 210.4125450240099 103.4045429759426 L 210.44428800005699 103.87251199997263 L 209.91353139205603 105.06136678392068 L 208.31155097601004 107.12850329594221 L 207.33593702403596 108.7695308799739 L 206.83673600002658 109.33043199992971 L 206.39846400002716 109.61203199991724 L 205.64582400006475 110.29094399994938 L 205.48915200005285 110.64217599993572 L 205.50262886402197 111.09831782395486 L 205.51562547206413 111.66796902392525 L 204.17126400006237 112.63385599997127 L 204.26547200005734 112.77414399996633 L 204.92390400002478 113.00863999995636 L 205.70726400002604 113.00863999995636 L 206.24076800001785 113.14892799995141 L 206.33346150402213 114.58718003192917 L 206.23974400002044 116.49843199993484 L 206.1334353920538 116.96586854394991 L 205.9531253760215 117.73828095995123 L 205.97417472006055 118.24347238393966 L 205.98886400001356 118.67750399996294 L 206.12516761606093 118.98380697594257 L 206.17187532805838 119.09765631996561 L 206.46312652801862 119.36650342395296 L 206.67801600001985 119.56735999992816 L 207.46137600002112 120.01279999996768 L 208.43315200001234 120.38758399995277 L 208.80998400005046 120.41113599995151 L 208.812499968044 120.4101560319541 L 208.99999948806362 120.12890623993007 L 207.4921871360275 119.47265638393583 L 206.89062502403976 118.93749964796007 L 206.80468787206337 118.86328115192009 L 206.80468787206337 117.97409382392652 L 207.24224000005051 118.02111999993213 L 207.81250048003858 118.55468748795101 L 207.99218790401937 118.72656281595118 L 208.18125926406356 118.97092812793562 L 208.4024320000317 119.26323199993931 L 208.65331200003857 119.4270719999331 L 208.9062502400484 119.40234342392068 L 208.9062502400484 118.88671846396755 L 208.68912537605502 118.67659775994252 L 207.62457804806763 117.62820607994217 L 207.24326400004793 116.99097599997185 L 207.275008000026 114.88255999993999 L 207.4315356160514 113.17219020792982 L 207.2844165120623 112.87712255993392 L 206.89062502403976 112.07812505593756 L 206.8512194560608 112.00775987195084 L 206.83673600002658 111.97849599993788 L 206.4609310720116 111.41785292793065 L 206.4531251200242 111.26562508795178 L 206.42968780803494 110.92578099196544 L 206.64843776001362 110.5039063039585 L 207.10937497601844 110.01953075191705 L 207.93750016001286 109.14453094394412 L 209.11839232005877 107.48274892795598 L 209.75781273603207 106.5898434559349 L 209.850710016035 106.39243571192492 L 210.12438835203648 105.83325491193682 L 210.2265620480175 105.62890649592737 L 210.63259238406317 105.04328806395642 L 211.22764800005825 104.59955199994147 L 211.41532569605624 104.59955199994147 L 211.5727360000601 104.8340479999315 L 211.9485440000426 104.73983999993652 L 212.02663628803566 104.5775708159199 L 212.10937548801303 104.4140625919681 L 211.92187494406244 103.47656294394983 L 211.70312499202555 103.21875046397327 L 210.83304857602343 102.59292159992037 L 210.82907136005815 102.59221606393112 L 210.82031206402462 102.58593791996827 L 209.18931558402255 102.30269439995755 L 208.15564800001448 102.25663999991957 L 207.8423040000489 102.13887999992585 L 207.8203125760192 102.11718758393545 L 207.41406208003173 101.77343795192428 L 206.87052800005767 100.92031999991741 L 206.87052800005767 100.12467199994717 L 206.99648000003072 99.84307199995965 L 207.56250009604264 99.58593740797369 L 207.65625036804704 99.42187519994332 L 206.99999948806362 98.36718796793139 L 206.99999948806362 98.21530931192683 L 207.15624960005516 91.48046847997466 L 208.56955699203536 90.98854399996344 L 208.97382400004426 90.98854399996344 L 209.6322560000117 91.19948799995473 L 210.19531264004763 91.644531711936 L 210.38281216006726 91.90234419197077 L 210.40241254406283 91.96440780797275 L 210.5078128640307 92.34765619196696 L 210.47656243201345 94.89843711996218 L 209.97656268801074 95.85937510395888 L 209.59948800003622 96.25907199992798 L 209.5360000000219 100.40524799993727 L 209.66092800005572 100.59263999992982 L 210.00781209603883 100.64062463992741 L 210.1249996800325 100.53125017596176 L 210.1015674880473 96.91479347192217 L 210.3838720000349 96.32972799992422 L 211.16723200003617 95.74399999994785 L 211.21926041605184 95.39826483192155 L 211.26562508800998 95.10937497596024 L 211.35937536001438 92.58203135995427 L 211.7656248320127 92.18359398393659 L 212.17187532805838 92.06640639994293 L 213.05192243203055 91.99631359992782 L 214.24230400001397 92.11391999997431 L 214.8671877120505 92.51171839993913 L 215.9656960000284 94.31551999994554 L 216.21657600003527 95.39379199995892 L 216.59375001606531 95.60546918393811 L 217.43750041601015 95.55859353597043 L 217.62764800002333 95.41734399995767 L 217.66982963203918 95.32303462392883 L 217.75781273603207 95.1367188479635 L 217.8203125760192 94.01171865593642 L 218.68350771203404 91.6389775359421 L 219.04076800006442 90.66188799997326 L 219.53906278405339 90.57031270395964 L 219.60491110401927 90.61485772795277 L 219.6684800000512 90.66188799997326 L 219.57427200005623 90.8492799999658 L 219.60251596802846 92.05013401596807 L 219.61718784004916 92.7734374399297 L 219.69531289604492 96.07421849592356 L 220.29687500803266 96.0039065599558 L 220.29312000004575 95.38429849594831 L 220.29312000004575 94.71487999992678 L 220.3484323840239 94.64634163194569 L 220.39062528003706 94.5976565759629 L 220.3593820160604 90.66101964795962 L 220.51562496001134 90.58593791996827 L 220.7344640000374 90.47449599992251 L 221.89540454401867 90.75706879992504 L 222.01192448002985 90.90863923192956 L 222.04687462403672 91.24218777596252 L 222.36364800005686 95.11423999996623 L 222.67699200002244 95.41836799995508 L 223.17875200003618 95.60575999994762 L 223.99488000001293 95.46547199995257 L 224.7168993280502 94.83364351995988 L 227.66406246402767 94.2265620479593 L 229.23437465605093 94.13281279994408 L 232.6824960000231 93.5475199999637 L 233.06250035203993 93.33593702391954 L 233.10744268802227 93.28050790395355 L 233.49960089602973 92.82077491196105 L 234.15705600002548 92.32998399995267 L 234.53125017601997 92.19140607991721 L 234.68758630403318 92.25800601596711 L 234.812499968044 92.53906227194238 L 234.81466060801176 92.53906227194238 L 234.81548800005112 92.54092799994396 L 235.50566400005482 92.54092799994396 L 235.50781235203613 92.53906227194238 L 235.60156262404053 92.26171903993236 L 235.78828800003976 92.14259199996013 L 236.69531238405034 92.07421849592356 L 237.1993600000278 91.86201599997003 L 238.57949798402842 90.83203174395021 L 238.92187545605702 90.83203174395021 L 239.5832320000627 91.04383999994025 L 240.52428800001508 90.94963199994527 L 242.18726400006562 90.50521599996137 L 244.00781209603883 89.7343754239264 L 244.34259660803946 89.64575539191719 L 247.86432000005152 88.72755199996755 L 248.9016320000519 88.25958399992669 L 250.94144000002416 86.8321279999218 L 252.00758784002392 86.2227845119196 L 252.66688000003342 85.96582399995532 L 255.55468800006201 85.47656294394983 L 256.19531264004763 85.42968729592394 L 259.633152000024 85.00531199993566 L 263.9921879040194 84.72265625593718 L 267.53638400003547 84.27417599991895 L 273.7187502080342 84.13281279994408 L 278.13785600004485 83.44985599996289 L 280.52343705605017 83.21484390395926 L 282.9999994880636 82.69921894394793 L 285.88281241606455 82.18359398393659 L 286.89062502403976 82.08984371193219 L 287.33719756803475 81.96087603195338 L 287.79929600004107 81.82988799992017 L 289.93126400001347 81.00966399995377 L 293.0677760000108 79.97849599993788 L 293.38112000003457 79.95494399993913 L 293.47532800002955 79.8842879999429 L 295.70252800005255 79.69689599995036 L 297.5859374080319 79.10937497596024 L 302.0062720000278 77.44614399992861 L 302.20312473602826 77.35937535995618 L 305.67731200001435 75.80671999993501 L 306.20979200006695 75.75961599993752 L 307.2421877760207 76.15625011193333 L 307.99872000003234 76.20403199992143 L 308.43699200003175 76.04019199992763 L 311.41683200001717 75.33670399995754 L 315.6203520000563 74.00140799995279 L 317.5000002560555 73.34765670396155 L 319.5422720000497 72.82995199994184 L 323.02343782404205 71.42578175995732 L 324.1874995200196 70.65234329592204 L 324.5937500160653 70.65234329592204 L 325.1875000320142 70.88671846396755 L 325.97656268801074 70.79296921595233 L 326.9150720000616 70.51161599997431 L 328.7971840000246 70.11327999993227 L 330.74278400006006 69.55110399995465 L 332.43648000003304 68.8721919999225 L 333.5342080000555 68.5434879999375 L 334.1874995200196 68.42187468794873 L 335.2606720000622 68.2158079999499 L 336.6410240000114 67.70073599996977 L 339.14843750401633 66.97656217595795 L 341.4097920000204 66.15551999997115 L 343.42187520005973 65.59374950395431 L 345.2734371840488 64.70312550396193 L 353.93126400001347 61.05190399993444 L 356.41036800004076 60.48972799995681 L 357.85156300803646 60.42187468794873 L 359.60937472002115 59.95312537596328 L 361.0869760000496 59.203583999944385 L 361.96759244805435 58.969057279929984 L 364.0859371520346 58.949218303954694 L 366.16396800003713 58.92607999994652 L 366.39062528003706 58.92578099196544 L 367.83593779202783 58.714844159956556 L 369.14843750401633 58.808593407971784 L 370.6875002880115 58.69140582391992 L 376.5258240000112 57.99014399992302 L 377.9062497280538 57.92187494394602 L 378.3750000640284 57.82812467194162 L 384.2031237120391 55.95702476793667 L 388.5547520000255 54.548479999939445 L 389.81027123203967 53.82159974396927 L 390.6252800000366 53.938175999966916 L 391.57031219202327 53.84374988795025 L 396.16080384003 52.34979327995097 L 396.7656253440655 52.15625011193333 L 397.33593702403596 51.96874956792453 L 398.97088000003714 51.52153599995654 L 404.5547520000255 49.50425599992741 L 407.5078123520361 48.73046835191781 L 410.5468753920286 47.44140595191857 L 412.0859371520346 46.4101560319541 L 412.67989504005527 46.19925094395876 L 413.74218752002344 46.363281407917384 L 415.1015628800378 46.26953113597119 L 417.60870400001295 45.44716799992602 L 419.6015626240405 45.09765324793989 L 419.74218752002344 45.074219007918146 L 421.46816000004765 44.55628799996339 L 422.62937600002624 44.55628799996339 L 425.0777600000147 44.18047999992268 L 425.38281267206185 44.10546892794082 L 426.54607769602444 43.81137305597076 L 427.15624960005516 43.660155903955456 L 428.1528320000507 43.40735999995377 L 430.50598400004674 42.54003199993167 L 431.1250001920271 42.363281407917384 L 431.8906245120452 42.1406248959247 L 433.4921871360275 41.4609377279412 L 434.52416000002995 41.13407999993069 L 435.5340748800663 40.488147967960685 L 435.6249999360298 40.43359334394336 L 436.3482490880415 40.18596044793958 L 437.2858880000422 39.868415999924764 L 438.63552000001073 39.68102399993222 L 438.7201249280479 39.65282201592345 L 438.83593728003325 39.61718783993274 L 439.46874982403824 39.402343423920684 L 440.7377920000581 38.97855999995954 L 441.6483573760488 38.82162790396251 L 441.9609374720603 38.7695308799739 L 442.01254297606647 38.748889087932184 L 443.2179200000246 38.29862399992999 L 445.38281267206185 37.3632808959228 L 446.41894400003366 37.009407999925315 L 446.42187468806515 37.007812607917 L 446.4531251200242 36.917968895926606 L 448.71093760005897 35.55859353597043 L 449.3046876160661 35.324218367924914 L 449.554688000062 35.3710940159508 L 450.44056268804707 35.74588723195484 L 450.58333798404783 35.806701567955315 L 450.65624985605245 35.83984332793625 L 451.5993600000511 35.790847999975085 L 454.20312473602826 34.73828147194581 L 455.05468723201193 34.15234355191933 L 454.33036800002446 33.09772799996426 L 454.9888000000501 32.72294399992097 L 455.6799979520147 32.48845209594583 L 456.5859379200265 33.00390604796121 L 456.87499980803113 32.95703142392449 L 457.4064640000579 32.25395199994091 L 457.4064640000579 31.64569599996321 L 457.15624960005516 30.566406143945642 L 457.15624960005516 30.098239487968385 L 457.43820800003596 29.583359999931417 L 457.81504000001587 29.279231999942567 L 458.12532224005554 29.302553599933162 L 458.1428889600211 29.399175167956855 L 458.1601280000177 29.5137279999326 L 457.9611484160414 29.691318271972705 L 457.84374988806667 29.79296870395774 L 457.8125004800386 30.566406143945642 L 458.12838400003966 31.48185599996941 L 458.1857280000113 31.595921407919377 L 458.2187499520369 31.667969023925252 L 458.2217635840643 31.667600383923855 L 458.22259200003464 31.669247999961954 L 458.59942400001455 31.622143999964464 L 458.8515624960419 31.339843583933543 L 458.8515624960419 30.3791871999274 L 459.16467200004263 30.169087999965996 L 459.1406254080357 29.88671897596214 L 459.1328122880659 29.816406015946995 L 458.91424563201144 29.30385100794956 L 458.9762560000527 29.02118399995379 L 459.9490560000413 28.669951999967452 L 460.1813381120446 28.355890175967943 L 460.29687500803266 28.20312473597005 L 460.5468753920286 28.10937548795482 L 460.70312550402014 28.156250111933332 L 460.8593745920225 28.39062527992064 L 461.8004480000236 32.81715199997416 L 461.7610475520487 34.38746931194328 L 461.7343754240428 35.34765670396155 L 462.0820480000111 35.580927999923006 L 462.0859371520346 35.582030847959686 L 462.92968755203765 35.53515622392297 L 463.33593702403596 35.46484326396603 L 464.84375040006125 35.769531391968485 L 465.5000002560555 35.69921843195334 L 465.5032320000464 35.698687999974936 L 465.53497600002447 35.62905599991791 L 465.46604748803657 35.536249855940696 L 465.38281267206185 35.41796863992931 L 464.59822592005366 35.12713011197047 L 464.3125002240413 35.01953126396984 L 463.1183360000141 34.3162879999727 L 462.71093760005897 33.70703155192314 L 462.42968780803494 31.527344127942342 L 462.21093785605626 30.824218623922206 L 462.2734376960434 29.960937471943907 L 462.39474585605785 29.866923007939477 L 462.55468748806743 29.749999615945853 L 462.812499968044 29.69531289592851 L 463.39843788801227 29.585937407973688 L 465.3515622400446 29.6328120319522 L 466.5078128640307 29.44531251193257 L 467.3593753600144 29.16406271996675 L 467.7656248320127 28.90625023993198 L 468.51891200005775 28.78873599995859 L 469.5869440000388 28.413951999973506 L 472.78899200004525 27.805695999937598 L 476.0227840000298 27.525119999947492 L 479.78906214406015 26.542968831956387 L 479.94763161602896 26.378390527970623 L 481.736704000039 25.98092799994629 L 482.867200000037 25.51295999996364 L 485.47656294406625 24.81249996792758 L 486.89062502403976 24.695312383933924 L 488.1428480000468 24.319999999948777 L 489.8385920000146 23.593983999919146 L 492.4531251200242 22.929687551921234 L 492.4453120000544 23.53906278393697" fill="none"/><path stroke="#000000" stroke-width="2" d="M 492.5468753920286 1024.0 L 492.5468753920286 1013.2343746559345 L 492.6484377600136 1008.8320317439502 L 492.4453120000544 999.5156254719477 L 492.34374963201117 995.8281246719416 L 492.4453120000544 992.1406248959247 L 492.75000012805685 981.6953128959285 L 492.4453120000544 976.2695311359712 L 492.4453120000544 970.7382814719458 L 492.6484377600136 960.1914060799172 L 492.6484377600136 950.8749998079729 L 492.5468753920286 947.187500031956 L 492.4453120000544 938.9960939519224 L 492.4453120000544 920.7695308799739 L 492.34374963201117 917.082031103957 L 492.5468753920286 902.7460935679264 L 492.5468753920286 895.9882813439472 L 492.4453120000544 890.3554682879476 L 492.34374963201117 887.3867192319594 L 492.34374963201117 883.187500031956 L 492.4453120000544 874.9960939519224 L 492.5468753920286 870.2851563519216 L 492.34374963201117 859.2265625599539 L 492.4453120000544 848.6796871679253 L 492.34374963201117 846.0156252159504 L 492.24218726402614 840.6914058239199 L 492.24218726402614 835.8789058559341 L 492.34374963201117 832.3984373759595 L 492.5468753920286 825.9453122559353 L 492.6484377600136 820.5195315199671 L 492.6484377600136 815.8085939199664 L 492.75000012805685 809.0507816959289 L 492.6484377600136 804.3398440959281 L 492.6484377600136 779.0468751359731 L 492.75000012805685 775.8710937599535 L 492.75000012805685 772.3906252799206 L 492.8515624960419 769.3203128319583 L 492.8515624960419 766.2460938239237 L 492.6484377600136 750.7851560959243 L 492.5468753920286 744.5390622719424 L 492.4453120000544 740.031250431959 L 492.6484377600136 726.8242186239222 L 492.75000012805685 711.1562495999387 L 492.4453120000544 704.0898437119322 L 492.4453120000544 692.3125002239249 L 492.34374963201117 687.5000002559391 L 492.24218726402614 682.4843745279359 L 492.24218726402614 667.8398433279363 L 492.34374963201117 664.664062975964 L 492.24218726402614 654.6289059839328 L 492.34374963201117 643.0585937919677 L 492.4453120000544 639.9882813439472 L 492.34374963201117 635.9921879039612 L 492.34374963201117 627.5976560639683 L 492.5468753920286 609.9843747839332 L 492.5468753920286 589.9140628479654 L 492.4453120000544 584.2812497919658 L 492.5468753920286 577.3203128319583 L 492.5468753920286 571.8906245119288 L 492.6484377600136 567.1796879359172 L 492.6484377600136 564.2109378559398 L 492.34374963201117 550.2851563519216 L 492.24218726402614 538.8164065279416 L 492.34374963201117 523.2499998719431 L 492.34374963201117 512.6015621119295 L 492.34374963201117 498.16406220797217 L 492.34374963201117 478.8085934079718 L 492.24218726402614 471.33593702391954 L 492.24218726402614 467.2382812159485 L 492.1406248960411 458.7382814719458 L 492.1406248960411 402.62500044796616 L 492.24218726402614 383.3749995519174 L 492.1406248960411 364.2226565119345 L 492.1406248960411 287.4257817599573 L 492.0390625280561 284.35156275192276 L 492.1406248960411 271.34765670396155 L 492.1406248960411 254.65624985593604 L 492.24218726402614 248.20703129592584 L 492.34374963201117 240.52343705593375 L 492.24218726402614 223.21875046397327 L 492.24218726402614 217.07421900791815 L 492.1406248960411 214.10546892794082 L 492.24218726402614 199.97656268795254 L 492.34374963201117 197.0039060479612 L 492.24218726402614 193.11328153597424 L 492.24218726402614 158.70703103992855 L 492.1406248960411 154.5078128639725 L 492.24218726402614 139.76171827194048 L 492.24218726402614 121.23046911996789 L 492.1406248960411 113.75390617595986 L 492.1406248960411 110.6835937279393 L 492.24218726402614 95.32031283195829 L 492.24218726402614 72.07812505593756 L 492.24218726402614 69.92578150396002 L 492.24218726402614 57.94531225593528 L 492.1406248960411 51.08593766397098 L 492.1406248960411 32.65234329592204 L 492.4453120000544 23.53906278393697 L 492.4531251200242 22.929687551921234 L 493.4184960000566 22.681599999952596 L 494.3651799040381 22.5085757439374 L 495.0859376640292 22.378906623926014 L 495.31907993601635 22.30048563197488 L 496.5937500160653 21.88671897596214 L 498.06540800002404 21.23161599994637 L 499.72100608004257 20.363088895974215 L 501.4609377280576 19.453124607971404 L 505.9531253760215 18.238281727943104 L 506.53125017601997 17.98046924796654 L 507.48825600004056 17.557503999967594 L 509.84448000002885 16.223231999960262 L 512.2119680000469 15.321087999967858 L 513.2615680000163 14.746623999963049 L 513.79687526403 14.804687871946953 L 514.1406248960411 14.839843839930836 L 515.2071680000518 14.65241599996807 L 516.2734376960434 14.066406399942935 L 517.2499998720596 13.222655999939889 L 517.9062497280538 12.98828083195258 L 518.3281254400499 12.906250239931978 L 519.0552033280255 12.76083404792007 L 520.6406246400438 12.449218559951987 L 520.8705699840211 12.458604543935508 L 522.6158080000314 12.539903999946546 L 523.2812503040186 12.386718719964847 L 523.7816576000187 12.266902527946513 L 524.216320000065 12.165119999961462 L 528.2672640000237 10.827775999961887 L 528.9124167680275 10.519518207933288 L 529.0546872320119 10.45312511996599 L 529.5859374080319 10.335937535972334 L 529.8046873600106 10.148436991963536 L 530.3359375360305 10.031250431959052 L 531.1984046080615 9.992168447934091 L 531.4062499840511 9.984374783933163 L 532.3828121600673 9.749999615945853 L 533.6685987840174 9.248112639936153 L 537.1514880000614 7.896063999971375 L 537.40236800001 7.84116940794047 L 537.6874997760169 7.781250047963113 L 538.1091758080292 7.754855423932895 L 538.9096960000461 7.708671999920625 L 540.8245760000427 7.192575999943074 L 542.6769920000224 6.419455999974161 L 546.2265620480175 5.503905791963916 L 548.8629760000622 4.449279999942519 L 550.6640629760223 4.046874623920303 L 550.7451176960603 4.027610111923423 L 550.9999994880636 4.050781183934305 L 551.0623283200548 3.9572889599367045 L 552.4453120000544 3.605469183938112 L 552.8671877120505 3.4726563839358278 L 555.1749120000168 2.738175999955274 L 555.1885363200563 2.7082915839273483 L 555.2109373440617 2.667968511930667 L 557.343750144064 2.035155967925675 L 558.7578122240375 1.496093695925083 L 559.2883200000506 1.1919359999592416 L 559.7578127360321 1.0273433599504642 L 560.5468753920286 0.7460935679264367 L 561.8001920000534 0.30822399992030114 L 562.2766192970885 0.0" fill="none"/><path stroke="#408040" stroke-width="3" d="M 770.451855609761 0.0 L 714.1068800000066 22.364159999997355 L 659.5686399999977 43.76576000000205 L 615.8335999999981 55.90015999999741 L 567.0092799999984 58.06079999999929 L 502.712320000006 58.93119999999908 L 463.73888000000443 78.05952000000252 L 431.26784000000043 87.65439999999944 L 395.8067199999932 98.9184000000023 L 358.29760000000533 113.88928000000305 L 322.4575999999943 137.96351999999752 L 309.49375999999756 149.93407999999908 L 280.18687999999383 163.39968000000226 L 251.19744000000355 175.52384000000166 L 212.73600000000442 177.90976000000228 L 141.8854399999982 221.69600000000355 L 105.03168000000005 233.85087999999814 L 31.10911999999371 236.6975999999995 L 0.0 240.392387241307" fill="none"/></svg>