<svg xmlns="http://www.w3.org/2000/svg" width="1024" height="1024"><rect stroke="none" x="0" y="0" width="1024" height="1024" fill="white"/><path stroke="#408040" stroke-width="3" d="M 25.46315636363579 0.0 L 25.42591999999422 0.7679999999963911 L 25.917440000004717 2.263039999998 L 28.12927999999374 5.519359999998414 L 30.15679999999702 9.062400000002526 L 32.419840000002296 15.97439999999915 L 32.76799999999639 17.889280000003055 L 32.79872000000614 19.78368000000046 L 32.73728000000119 23.490559999998368 L 32.614400000005844 33.73056000000361 L 33.04447999999684 35.52255999999761 L 34.57024000000092 38.15424000000348 L 36.37248000000545 40.20223999999871 L 37.42720000000554 41.84064000000217 L 38.09279999999853 43.5711999999985 L 38.37952000000223 45.86495999999897 L 38.42048000000068 48.26112000000285 L 38.768639999994775 50.68800000000192 L 39.659520000001066 52.879359999999 L 40.09983999999531 54.47679999999673 L 39.49568000000727 55.79776000000129 L 38.74816000000283 56.39168000000063 L 34.70335999999952 57.53856000000087 L 25.876480000006268 59.6070400000026 L 20.664319999996223 60.77440000000206 L 14.950400000001537 61.28639999999723 L 12.144639999998617 61.19423999999708 L 9.205759999997099 60.86656000000221 L 8.908800000004703 60.63104000000021 L 8.960000000006403 60.252159999996366 L 9.512959999992745 60.04735999999684 L 10.874880000003031 60.28287999999884 L 11.192320000001928 60.211199999997916 L 11.560960000002524 59.340799999998126 L 11.560960000002524 58.71616000000358 L 11.386880000005476 58.34752000000299 L 11.130879999996978 57.90720000000147 L 10.85439999999653 57.456639999996696 L 11.089919999998529 57.38496000000305 L 11.847680000006221 57.180160000003525 L 13.158400000000256 57.036800000001676 L 13.5987199999945 56.9548799999975 L 13.578240000002552 56.57600000000093 L 12.974079999999958 55.910400000000664" fill="none"/><path stroke="#408040" stroke-width="3" d="M 0.0 60.72055741935037 L 2.7648000000044703 60.887040000001434 L 5.314559999998892 61.05088000000251 L 5.43743999999424 61.10207999999693 L 5.785600000002887 61.14304000000266 L 6.328320000000531 61.20448000000033 L 7.423999999999069 61.34784000000218 L 7.966719999996712 61.50144 L 8.407040000005509 61.747199999997974 L 8.857600000003004 62.054400000000896 L 9.2262400000036 62.25920000000042 L 10.209279999995488 62.48447999999917 L 10.803199999994831 61.10207999999693 L 11.192320000001928 60.211199999997916 L 11.560960000002524 59.340799999998126 L 11.622399999992922 59.06431999999768 L 11.560960000002524 58.71616000000358 L 11.386880000005476 58.34752000000299 L 11.130879999996978 57.90720000000147 L 10.85439999999653 57.456639999996696 L 11.089919999998529 57.38496000000305 L 11.847680000006221 57.180160000003525 L 12.349440000005416 57.04703999999765 L 13.158400000000256 57.036800000001676 L 13.434880000000703 57.036800000001676 L 13.5987199999945 56.9548799999975 L 13.680640000005951 56.84223999999813 L 13.69087999999465 56.75007999999798 L 13.6499199999962 56.637439999998605 L 13.578240000002552 56.57600000000093 L 13.086720000006608 56.22783999999956 L 12.994560000006459 55.99231999999756 L 12.974079999999958 55.910400000000664" fill="none"/><path stroke="#408040" stroke-width="3" d="M 25.424236712322454 0.0 L 25.384959999995772 0.2867199999964214 L 25.77408000000287 1.955840000002354 L 27.842560000004596 5.109759999999369 L 29.982719999999972 8.64256000000023 L 31.15008000000671 12.021760000003269 L 32.358399999997346 15.759359999996377 L 32.80895999999484 19.22048000000359 L 32.63487999999779 29.224959999999555 L 32.57343999999284 33.31072000000131 L 32.89088000000629 35.05152000000089 L 34.12992000000668 37.580800000003364 L 37.191680000003544 41.42079999999987 L 38.000639999998384 43.24352000000363 L 38.35903999999573 45.11744000000181 L 38.41023999999743 47.81055999999808 L 38.63551999999618 50.257919999996375 L 40.08960000000661 54.13887999999861 L 39.761920000004466 55.45984000000317 L 38.901759999993374 56.299520000000484 L 37.49887999999919 56.8729600000006 L 35.205119999998715 57.4259200000015 L 28.037119999993593 59.095040000000154 L 21.749760000006063 60.55935999999929 L 18.44224000000395 61.09184000000096 L 15.60576000000583 61.276160000001255 L 13.137919999993755 61.25568000000203 L 9.390079999997397 60.91775999999663 L 8.867840000006254 60.47744000000239 L 9.08288000000175 60.13951999999699 L 10.874880000003031 60.28287999999884 L 11.192320000001928 60.211199999997916 L 11.417600000000675 59.6889599999995 L 11.622399999992922 59.06431999999768 L 11.386880000005476 58.34752000000299 L 11.130879999996978 57.90720000000147 L 10.85439999999653 57.456639999996696 L 11.089919999998529 57.38496000000305 L 11.847680000006221 57.180160000003525 L 13.158400000000256 57.036800000001676 L 13.5987199999945 56.9548799999975 L 13.69087999999465 56.75007999999798 L 12.994560000006459 55.99231999999756 L 12.974079999999958 55.910400000000664" fill="none"/><path stroke="#408040" stroke-width="3" d="M 901.171199999997 810.3219200000021 L 861.3990400000039 809.5027199999968 L 861.0713600000017 819.8963199999998 L 856.0639999999985 825.231359999998 L 826.9823999999935 846.6534400000019 L 814.1004799999937 857.2518399999972 L 817.0393599999952 866.8467200000014 L 816.8550399999949 880.4761599999983 L 816.5785599999945 900.9459199999983 L 812.1343999999954 909.2915199999989 L 800.5017599999992 922.1427200000035 L 795.9756800000032 928.409599999999 L 794.9107199999999 933.1097599999994 L 796.4569599999959 944.4351999999999 L 794.4601600000024 965.7036799999987 L 793.8764800000063 984.0537600000025 L 793.5897600000026 996.1779200000019 L 791.6031999999977 1005.7830400000021 L 786.7391999999963 1010.9337599999999 L 779.1718399999954 1014.9375999999975 L 760.6272000000026 1023.6416000000027 L 759.0874074074236 1024.0" fill="none"/><path stroke="#408040" stroke-width="3" d="M 901.171199999997 810.3219200000021 L 901.1916800000035 808.0281600000017 L 901.2223999999987 806.9017600000006 L 901.4886399999959 806.7481600000028 L 900.99712 806.5843200000018 L 899.389439999999 805.2019199999995 L 896.3891200000071 802.49856 L 895.6825600000011 802.088960000001 L 894.0953600000066 801.9763200000016 L 885.360639999999 801.8227199999965 L 883.1385600000067 801.7407999999996 L 881.500159999996 801.7407999999996 L 879.7286400000012 801.5360000000001 L 877.5270400000009 801.3516799999998 L 875.8271999999997 801.2287999999971 L 874.0966400000034 800.7372800000012 L 869.6012800000026 798.9452799999999 L 867.1027199999953 798.156799999997 L 862.2592000000004 796.9484799999991 L 856.8012799999997 795.5967999999993 L 835.0720000000001 790.9273600000015 L 815.4112000000023 787.4969599999968 L 811.8579199999949 786.9030399999974 L 805.5091200000024 786.0531199999969 L 793.1801600000035 785.6025599999994 L 787.8246400000062 784.9983999999968 L 783.1961600000068 784.0460800000001 L 779.9705600000016 782.9504000000015 L 777.8611200000014 781.9161600000007 L 775.6492799999978 780.4518400000015 L 773.703680000006 778.6700800000035 L 768.5632000000041 773.3043200000029 L 760.9446400000015 764.9996800000008 L 759.3267199999973 762.8697600000014 L 758.3334400000022 761.1289600000018 L 757.2787200000021 758.9990400000024 L 755.4764799999975 757.6985599999971 L 753.3772800000006 757.2787200000021 L 752.0563200000033 757.3913600000014 L 749.4963200000057 758.0876799999969 L 746.5369599999976 758.6304000000018 L 737.2902400000021 758.7532799999972 L 729.3132800000021 758.8044799999989 L 726.2515200000053 759.1628800000035 L 722.8415999999997 759.9104000000007 L 717.2608000000037 761.6716799999995 L 707.6761600000027 764.7641599999988 L 698.8083199999965 767.6211200000034 L 694.1286399999954 769.136639999997 L 689.1827199999971 770.5088000000032 L 684.0012799999968 771.143680000001 L 675.645439999993 771.6044800000018 L 666.1734399999987 772.6182400000034 L 662.2719999999972 773.0278400000025 L 656.6297599999962 773.1609600000011 L 653.8444799999997 772.5772799999977 L 651.8169599999965 771.6659199999995 L 649.4003200000006 769.9251199999999 L 646.1542400000035 768.0512000000017 L 638.6585599999962 764.2111999999979 L 630.5177600000025 760.0332800000033 L 626.4729599999991 758.2208000000028 L 621.8956800000014 756.7974400000021 L 617.03168 755.8758400000006 L 611.3689600000071 755.4867200000008 L 605.7164800000028 755.7734399999972 L 600.7705600000045 756.4185599999983 L 591.3600000000006 757.6473600000027 L 555.3356800000038 762.3680000000022 L 550.2771199999988 763.3510400000014 L 545.6691200000059 764.6924799999979 L 541.0099199999968 766.3001599999989 L 538.6854400000011 766.7097599999979 L 536.0435200000065 766.7712000000029 L 533.4937599999976 766.4127999999982 L 530.1657600000035 765.5731200000009 L 523.9193599999999 763.9859199999992 L 513.2083200000052 761.2723199999964 L 498.5344000000041 758.0569600000017 L 482.0991999999969 754.851840000003 L 460.1139200000034 750.1414399999994 L 457.1033599999937 749.6806399999987 L 454.6969600000011 749.5679999999993 L 451.03104000000167 749.8240000000005 L 448.25599999999395 750.3769600000014 L 439.49056000000564 752.8755200000014 L 430.16191999999864 755.4457600000023 L 422.43072000000393 757.8726400000014 L 417.9456000000064 759.859199999999 L 410.5830399999977 762.8492800000022 L 404.08064000000013 764.6003199999977 L 396.5644800000009 766.6585600000035 L 390.0723200000066 768.880640000003 L 382.40256000000227 771.7376000000004 L 357.1507200000051 781.1584000000003 L 339.76320000000123 787.6607999999978 L 335.0937600000034 789.4118400000007 L 331.6326399999962 790.9580799999967 L 328.18176000000676 792.8729600000006 L 325.7856000000029 793.8969599999982 L 320.6041600000026 795.3612799999974 L 314.24512000000686 797.3068799999965 L 311.0809600000066 797.8598399999973 L 308.1523199999938 798.0236799999984 L 301.79327999999805 798.1772800000035 L 295.2089600000036 798.5664000000033 L 291.1744000000035 799.3856000000014 L 288.43008000000555 800.2560000000012 L 283.668479999993 802.5292800000025 L 275.6198399999994 806.9222399999999 L 273.0291200000065 807.5878400000001 L 271.53407999999763 807.7004799999995 L 269.36320000000705 807.5264000000025 L 266.53695999999763 806.6355200000035 L 264.34560000000056 805.232640000002 L 257.01376000000164 800.2150400000028 L 255.03744000000006 798.9452799999999 L 252.97920000000158 798.0748800000001 L 249.45664000000397 797.3580799999982 L 238.89919999999984 797.255680000002 L 229.8675199999998 797.2249599999996 L 220.85632000000624 797.1020799999969 L 215.4803200000024 796.3852800000022 L 210.6982399999979 795.0950400000002 L 206.31552000000374 793.2416000000012 L 202.78272000000288 791.1116800000018 L 193.46431999999913 784.6297600000034 L 189.06111999999848 781.5577600000033 L 187.24864000000525 780.4723200000008 L 185.53856000000087 779.7862400000013 L 180.36736000000383 778.5574399999969 L 173.94688000000315 777.0419200000033 L 151.86943999999494 771.1027200000026 L 132.50560000000405 765.8188799999989 L 127.62111999999615 763.6787200000035 L 118.5382399999944 758.9478400000007 L 110.34623999999894 754.6880000000019 L 105.5436800000025 752.8550400000022 L 88.04352000000654 748.9536000000007 L 77.3529600000038 746.5779200000034 L 74.96704000000318 745.8406400000022 L 72.71424000000115 744.5401599999968 L 69.06879999999364 740.8742399999974 L 65.44384000000719 737.7407999999996 L 56.69887999999628 731.2076799999995 L 49.858559999993304 725.8931200000006 L 41.95328000000154 720.0665599999993 L 35.82975999999326 715.3459199999998 L 32.481280000007246 712.7449600000036 L 30.760959999999614 711.5775999999969 L 28.702720000001136 710.7071999999971 L 26.378240000005462 710.2054399999979 L 23.64415999999619 710.0927999999985 L 10.690560000002733 710.359040000003 L 0.0 710.4907174133914" fill="none"/><path stroke="#408040" stroke-width="3" d="M 901.171199999997 810.3219200000021 L 901.1916800000035 808.0281600000017 L 901.4886399999959 806.7481600000028 L 899.389439999999 805.2019199999995 L 896.3891200000071 802.49856 L 894.0953600000066 801.9763200000016 L 886.302720000007 801.8124800000005 L 882.9235199999966 801.1059200000018 L 882.7801599999948 799.6927999999971 L 883.3740799999941 797.5321600000025 L 886.0979200000002 791.132160000001 L 887.3369600000005 788.8998399999982 L 888.7910399999964 787.261440000002 L 889.0060800000065 784.3327999999965 L 890.3884799999942 780.9433599999975 L 893.9417600000015 772.6592000000019 L 895.528959999996 770.1196800000034 L 896.6246399999945 769.607680000001 L 904.1817600000068 769.5462400000033 L 916.6643199999962 769.5667200000025 L 920.9343999999983 769.4335999999967 L 927.119359999997 768.245759999998 L 936.4787199999992 766.6175999999978 L 940.0422399999952 766.4127999999982 L 940.9843200000032 766.6585600000035 L 940.9945600000065 767.2627199999988 L 940.267519999994 767.4265599999999 L 939.6223999999929 766.8531199999998 L 938.6496000000043 763.176959999997 L 936.5196799999976 756.0703999999969 L 934.5126400000008 750.1823999999979 L 931.9014400000015 742.615039999997 L 929.8329599999997 736.5529600000009 L 928.3174399999989 731.96544 L 928.2867200000037 728.3097599999965 L 928.4300800000055 720.3123199999973 L 928.7577599999931 701.2761600000013 L 929.0342399999936 685.8035200000013 L 929.1673600000067 678.0211199999976 L 929.3209599999973 675.3075200000021 L 929.9456000000064 673.3824000000022 L 930.7852799999964 671.109120000001 L 933.2633599999972 664.3507200000022 L 934.778879999998 660.2444800000012 L 938.3731200000038 650.6291199999978 L 942.3974400000006 644.9356800000023 L 954.7878400000045 628.643839999997 L 976.5171200000041 600.1664000000019 L 979.3024000000005 596.5209600000017 L 981.770239999998 594.5958400000018 L 991.703039999993 590.264320000002 L 994.744319999998 588.7488000000012 L 996.7206399999995 586.8236800000013 L 998.2156799999939 583.5161599999992 L 1002.0966400000034 574.228479999998 L 1008.6297599999962 558.6022400000002 L 1010.554879999996 553.6358400000026 L 1011.4764799999975 546.7238399999987 L 1012.8998399999982 535.2448000000004 L 1013.2582399999956 530.9747199999983 L 1012.8281600000046 528.6092799999969 L 1009.0598400000017 516.9356800000023 L 1008.4761600000056 513.9865599999976 L 1008.8243199999997 510.7609599999996 L 1009.4284800000023 506.0607999999993 L 1010.2374399999972 503.3267199999973 L 1012.2854400000069 497.4591999999975 L 1011.7836799999932 494.3871999999974 L 1010.2271999999939 490.23999999999796 L 1009.1008000000002 485.7036799999987 L 1008.7424000000028 478.8223999999973 L 1009.2748799999972 476.60031999999774 L 1010.4934400000056 474.0607999999993 L 1013.0944000000018 470.4563199999975 L 1015.5212800000008 467.1999999999971 L 1020.0985599999985 461.05599999999686 L 1024.0 455.814300611768" fill="none"/></svg>