<svg xmlns="http://www.w3.org/2000/svg" width="1024" height="1024"><rect stroke="none" x="0" y="0" width="1024" height="1024" fill="white"/><path stroke="#408040" stroke-width="3" d="M 812.4378026513732 0.0 L 818.8006400000013 42.895360000002256 L 818.8825599999982 101.93920000000071 L 819.0771200000017 170.8032000000021 L 819.1590399999986 198.15424000000348 L 814.735360000006 218.91071999999986 L 812.9843200000032 300.00127999999677 L 814.6739200000011 364.5644800000009 L 809.1852800000052 421.4886400000032 L 803.9423999999999 456.1305599999978 L 805.5193600000057 494.39744000000064 L 819.02592 511.1603200000027 L 823.2140800000052 527.1859200000035 L 825.8047999999981 580.9663999999975 L 824.2176000000036 601.866240000003 L 825.9686400000064 619.7145600000003 L 826.1939200000052 658.1247999999978 L 824.4633599999943 694.2105599999995 L 831.0169599999936 708.8742399999974 L 834.4678399999975 724.4083200000023 L 837.2428800000052 758.3027199999997 L 837.877760000003 793.2108799999987 L 839.7004799999995 810.3219200000021 L 855.3676799999957 836.4953600000008 L 866.8671999999933 847.7286400000012 L 882.0121599999984 872.8985600000015 L 884.3468799999973 881.8790399999998 L 889.7331200000044 893.7881599999964 L 904.5401600000041 917.0636799999993 L 919.1935999999987 936.3456000000006 L 937.738240000006 968.2329600000012 L 951.8284799999965 985.9072000000015 L 960.1024000000034 1000.5606400000033 L 975.9546977215214 1024.0" fill="none"/></svg>