<svg xmlns="http://www.w3.org/2000/svg" width="1024" height="1024"><rect stroke="none" x="0" y="0" width="1024" height="1024" fill="white"/><path stroke="#000000" stroke-width="2" d="M 815.8281943040201 303.0629806079669 L 816.7500001280569 309.4101565439487 L 814.702851072012 307.67023615993094 L 814.0892160000512 303.98361599992495 L 815.8281943040201 303.0629806079669" fill="none"/><path stroke="#000000" stroke-width="2" d="M 839.1777351680212 286.8833925119252 L 840.0985036800266 287.90646886394825 L 834.3672422400559 288.3162142719375 L 834.5697505280259 287.5996456959401 L 836.4140625920263 287.70312499196734 L 839.1777351680212 286.8833925119252" fill="none"/><path stroke="#000000" stroke-width="2" d="M 965.4531246080296 268.3671879679314 L 964.5555404800107 267.3814937599236 L 965.4563840000192 268.3668479999178 L 991.3756866560434 290.7359518719604 L 965.4531246080296 268.3671879679314" fill="none"/><path stroke="#000000" stroke-width="2" d="M 912.7014400000335 257.0854399999371 L 912.4967690240592 258.108794879925 L 907.3767884800327 257.1878215679317 L 912.390625280037 256.57421823992627 L 912.7014400000335 257.0854399999371" fill="none"/><path stroke="#000000" stroke-width="2" d="M 941.9792445440544 247.77171046397416 L 938.6086400000495 249.20166399993468 L 936.8678400000208 246.9488639999181 L 938.097664000059 244.08166399993934 L 941.9878400000161 247.7680639999453 L 941.9792445440544 247.77171046397416" fill="none"/><path stroke="#000000" stroke-width="2" d="M 915.4662400000379 235.78726399992593 L 912.6013511680649 237.1163678719313 L 912.5084866560646 236.7552276479546 L 912.3942400000524 236.2982399999164 L 917.5142400000477 234.55906406394206 L 917.5142400000477 235.48006399994483 L 916.2854400000651 235.78726399992593 L 915.4662400000379 235.78726399992593" fill="none"/><path stroke="#000000" stroke-width="2" d="M 965.4531246080296 268.3671879679314 L 997.5920640000259 296.10086399991997 L 1004.9649336320581 296.61301555193495 L 1005.9477401600452 298.7520655359258 L 1006.7024066560552 300.4007731199381 L 995.8512640000554 297.43206399993505 L 983.9718400000129 289.03526399994735 L 975.6796876800363 282.378906623926 L 976.0870400000131 279.81926399993245 L 972.9126400000532 277.87366399995517 L 971.1718400000245 278.79526399995666 L 966.4616345600225 275.3130158079439 L 966.7686400000239 274.2896639999235 L 968.710937600059 274.5976565759629 L 968.7112273920211 274.5963888639235 L 968.7142400000594 274.5968639999628 L 968.9190400000662 273.6752639999613 L 964.5158400000655 269.47686399996746 L 962.1606400000164 269.16966399992816 L 958.7814400000498 267.1216639999184 L 962.1640622080304 269.1679682559334 L 958.7819038720336 267.1214899199549 L 961.2421877760207 266.1992191999452 L 960.7265628160094 265.6874997759587 L 956.2214400000521 261.28486399992835 L 955.0950400000438 260.36326399992686 L 950.6953123840503 255.5507814399316 L 950.6568570880336 255.51232614397304 L 949.5654400000349 254.32166399993002 L 947.2734371840488 251.88281241594814 L 946.3046871040133 250.85546905593947 L 945.0859376640292 249.6367185919662 L 943.2187504640315 247.35937535995618 L 938.9687500800355 242.75000012794044 L 937.892862976063 243.46726092795143 L 936.2031247360283 242.47265587194124 L 934.8208640000666 241.11206399992807 L 932.9772042240365 238.65320038393838 L 932.5703127040179 237.52734412794234 L 932.4687503360328 236.5039063039585 L 931.7652459520614 235.64201164792757 L 931.1344640000607 234.86566399992444 L 930.6280478720437 234.86566399992444 L 931.648437248019 234.3554682879476 L 931.3392640000093 233.63686399994185 L 931.9536640000297 233.32966399996076 L 931.236864000035 232.20326399995247 L 930.0083578880294 232.1008885759511 L 930.5390622720588 231.44531251193257 L 930.5292277760454 231.4059765759739 L 930.417664000066 230.87206399993738 L 928.3712419840158 230.87109324795892 L 929.7031249920256 230.0507811839343 L 928.3696640000562 230.1552639999427 L 929.8046873600106 229.43750041595194 L 928.7812495360267 227.69921843195334 L 929.6008919040323 227.08253593597328 L 930.6235566080431 226.77777407993563 L 932.2792960000224 229.3698559999466 L 932.5859379200265 229.94531225593528 L 932.9843752960442 230.6875002879533 L 933.4024611840141 231.4459525119164 L 933.5920640000259 231.79366399993887 L 934.5136640000273 232.92006399994716 L 935.6400640000356 234.35366399993654 L 936.4604200960603 235.27676006394904 L 938.1790720000281 237.50092799996492 L 939.3469798400183 239.16003123193514 L 940.390625280037 240.6484377599554 L 940.4198184960405 240.6751979519613 L 941.5792640000582 241.93126399995526 L 942.4453120000544 242.92968755192123 L 943.6160000000382 244.27315199992154 L 945.3671874560532 246.43749990395736 L 946.1015623680432 247.44921907194657 L 946.1319208960631 247.4871674879687 L 947.0924800000503 248.77004799991846 L 948.3125002240413 249.89843763195677 L 949.4737920000334 251.15955199993914 L 950.5390622720588 252.34374963195296 L 951.5078123520361 253.6054691839381 L 952.1787340800511 254.27639091195306 L 952.6707200000528 254.7711999999592 L 953.4590402560425 255.71501465595793 L 953.6718745600665 255.97265612793854 L 954.8211200000369 257.1263999999501 L 955.8287370240432 258.3336949759396 L 956.8901120000519 259.4913279999164 L 957.9074560000445 260.6100479999441 L 959.8315520000178 262.54131199995754 L 962.1493760000449 264.95948799996404 L 963.3216000000248 266.32319999992615 L 963.7990400000126 266.6096639999305 L 964.0819998720544 266.8926238719723 L 963.79687526403 266.60937523195753 L 964.3880960000097 267.19871999992756 L 965.4531246080296 268.3671879679314" fill="none"/><path stroke="#000000" stroke-width="2" d="M 1024.0 165.77535999996326 L 1019.8149120000307 167.078911999939 L 1018.0741120000603 167.3861119999201 L 1016.5381120000384 168.4101119999541 L 1009.267712000059 170.56051199993817 L 1007.7317120000371 170.66291199997067 L 1004.2501120000379 172.40268799994374 L 997.7989120000275 176.2938879999565 L 994.8282880000188 179.77548799995566 L 991.5514880000264 181.51628799992613 L 988.8768000000273 182.63039999996545 L 984.7930880000349 184.2810879999306 L 981.2090880000615 184.3834879999631 L 972.914688000048 190.32268799992744 L 971.1738880000194 190.52748799993424 L 968.7162880000542 192.9850879999576 L 963.6986880000331 194.6234879999538 L 962.8794880000642 196.56908799993107 L 960.4218880000408 200.66508799995063 L 959.2314880000195 201.06188799993834 L 957.72876800003 201.6604159999406 L 955.5066880000522 202.6096639999305 L 953.8283520000405 202.64140799996676 L 952.9190400000662 202.87283199996455 L 952.3225600000587 203.20255999994697 L 951.1930880000582 204.37811199994758 L 948.7472640000633 204.96486399992136 L 946.1872640000656 206.19366399996215 L 944.4464640000369 207.72966399992583 L 943.251968000026 207.7347839999711 L 941.9888640000136 207.83206399995834 L 940.0432640000363 209.26566399994772 L 935.8448640000424 210.5968639999628 L 932.0560640000622 213.66886399994837 L 928.8816640000441 216.33126399992034 L 927.6528640000615 217.25286399992183 L 928.574464000063 221.55366399994818 L 929.4352271360112 222.9012776959571 L 931.1328122880659 225.5468748799176 L 933.8241658880142 224.75031551992288 L 929.0864640000509 226.26406399992993 L 927.8593751040171 226.16015667194733 L 927.0781245440594 225.2812503039604 L 926.028143616044 223.71612262394046 L 924.5808640000178 221.55366399994818 L 924.2736640000367 221.4512639999739 L 924.0688640000299 221.65606399992248 L 925.707264000026 224.31846399995266 L 922.3280640000594 226.87846399995033 L 919.7680640000617 225.44486399996094 L 918.7421870080288 225.23828121594852 L 919.2560640000156 225.85446399997454 L 920.6872872960521 226.67230617592577 L 920.3824640000239 227.28806399996392 L 918.9488640000345 226.05926399992313 L 918.9473085440113 226.0603013119544 L 918.9453127680463 226.05859327997314 L 918.0234373120475 226.67187507194467 L 920.4833402880467 228.10637516796123 L 919.6648273920291 228.82354892796138 L 917.0032640000572 227.18566399993142 L 916.9999994880636 227.187500031956 L 916.6953123840503 227.4921871359693 L 919.3576939520426 229.13177702395478 L 918.4368640000466 229.7456639999291 L 915.876864000049 228.3120639999397 L 915.8846248960472 228.31788441597018 L 915.8750003200257 228.31250022392487 L 916.2864640000626 228.6192639999208 L 915.5703121920233 228.51562495995313 L 915.572989952052 228.5173391359276 L 915.5696640000097 228.5168639999465 L 918.1296640000655 230.1552639999427 L 917.1062374400208 230.5646346239373 L 914.7504640000407 229.2336639999412 L 914.3408640000271 229.5408639999223 L 916.4904151040246 230.97389772796305 L 916.0624998400453 231.2734371839324 L 915.6392960000667 231.44345599994995 L 915.0468751360313 231.7304688639706 L 914.4531251200242 232.15625011193333 L 913.262080000015 232.72345599991968 L 911.5937495040125 233.66796902392525 L 908.3984373760177 235.68359423993388 L 908.2968750080327 235.88671897596214 L 908.2991933440208 235.88673331192695 L 908.2982400000328 235.88863999996101 L 908.914062336029 235.89062451192876 L 908.6004787200363 235.88863999996101 L 908.9126400000532 235.88863999996101 L 917.6171530240099 231.28193433594424 L 917.5234375680448 233.14453094394412 L 917.5198720000335 233.2375039999606 L 909.7318400000222 236.6054399999557 L 908.6015621120459 237.42578175995732 L 910.8581468160264 237.52728883194504 L 910.5510400000494 238.34623999992618 L 916.797440000053 236.29926399997203 L 918.8454400000628 238.96063999994658 L 911.6774400000577 241.82783999992535 L 911.8822400000645 242.03263999993214 L 919.0476195840165 239.47357593593188 L 919.3452390400344 239.84138854395133 L 920.2790328320116 241.0086307839374 L 914.6470400000107 243.05663999996614 L 914.5446400000365 243.56863999995403 L 920.8934400000144 241.62303999991855 L 922.2246400000295 243.36383999994723 L 916.5937500160653 245.4101565439487 L 916.5948426240357 245.41103923192713 L 916.5926400000462 245.411839999957 L 917.1015628800378 245.820312575961 L 917.1046400000341 245.8214399999706 L 922.633129984024 243.77385164797306 L 923.9654400000582 245.5142399999313 L 917.8203125760192 247.56250009592623 L 918.8437504000613 248.38281215995084 L 924.5793474560487 246.33361612795852 L 925.5156254720641 247.5468748799176 L 927.464186880039 250.06182399991667 L 928.7782400000142 251.76063999993494 L 927.7542400000384 253.19423999992432 L 925.6093747200212 253.9648440319579 L 922.6342400000431 255.0374399999273 L 920.7910400000401 255.5494399999734 L 915.3671874560532 253.39843788795406 L 915.3286021120148 253.36306790396338 L 910.4486400000169 248.38143999996828 L 910.4472360960208 248.384774143924 L 910.4453120000544 248.38281215995084 L 910.1056747520342 249.19598182395566 L 909.6365035520284 250.31026380794356 L 910.1414400000358 247.86943999992218 L 902.6662400000496 241.82783999992535 L 901.0312499200227 241.51953100797255 L 899.1846400000504 242.03263999993214 L 899.4918400000315 242.33983999997145 L 899.5937495040125 242.6484377599554 L 900.1062400000519 243.36383999994723 L 900.413440000033 244.59263999992982 L 898.0546877440647 244.69531238393392 L 898.4680837120395 245.51430451194756 L 900.0038400000194 245.9238399999449 L 901.8470400000224 248.38143999996828 L 899.9014400000451 247.86943999992218 L 894.8984371200204 248.554687487951 L 893.3984378880123 250.58203135995427 L 898.9765621760162 254.42187468794873 L 898.0974254080211 254.99407257593703 L 897.2391137280501 255.54939289594768 L 896.1126400000649 255.0374399999273 L 893.656250368047 254.3203123199637 L 891.0937497600098 255.85546854394488 L 886.3334400000167 253.19423999992432 L 893.6229539840133 257.94696499191923 L 885.872640000016 253.80863999994472 L 891.9976949760458 258.56733081594575 L 885.1562496000552 253.9101562879514 L 883.3515622400446 255.17187481594738 L 883.107842048048 255.34464307193412 L 881.8790400000289 256.0614399999613 L 888.5350400000461 260.87423999991734 L 887.9928340480546 261.2168703999487 L 887.4218752000597 261.57421875192085 L 886.5865308160428 262.10118860792136 L 883.210240000044 259.95263999997405 L 879.5234375680448 262.1015623679268 L 875.8359377920278 260.66796851193067 L 875.0151680000126 261.4174719999428 L 875.3984378880123 261.71875020791776 L 879.982592000044 265.28870399994776 L 876.8593745920225 267.8359377919696 L 876.249193472031 268.2456043519196 L 870.256640000036 264.61183999996865 L 868.7031255040201 265.51953100797255 L 866.6171873280546 266.71093759994255 L 868.9756160000106 266.301439999952 L 867.5403560960549 267.5301427199738 L 865.8012160000508 267.42783999996027 L 864.4001822720165 269.76289587194333 L 863.648437248019 271.011719167931 L 866.0078120960388 270.4999997439445 L 867.9531253760215 270.3984373759595 L 870.0049141760101 271.32451532792766 L 863.3749995520338 272.0039065599558 L 862.4220160000259 272.7526399999624 L 862.3319040000206 276.11033599992516 L 870.2699520000606 276.6335999999428 L 870.7164160000393 277.25823999993736 L 875.015624704014 278.1289062399301 L 874.7100160000264 278.79423999995925 L 864.6748160000425 278.69183999992674 L 872.2524160000612 280.9446399999433 L 867.746816000028 280.9446399999433 L 871.2265625600121 282.48046899196925 L 872.5590097920503 285.2441815039492 L 868.5655040000565 283.0545919999713 L 868.562499584048 283.0546872319537 L 868.2672640000237 283.2931461119442 L 867.746816000028 283.7094399999478 L 869.9980800000485 285.71391999995103 L 870.4062504960457 286.3710935039562 L 868.4510965760564 286.7992985599558 L 860.5781248000567 281.0468751359731 L 861.3984378880123 284.2226565119345 L 864.8789012480411 286.2690191359725 L 862.5234370560502 285.9609374719439 L 864.8796160000493 286.26943999994546 L 862.5244160000584 285.96223999996437 L 860.3740160000161 287.39583999995375 L 858.4284160000389 287.39583999995375 L 858.3260160000646 280.2278399999486 L 857.8867200000095 281.1054079999449 L 857.4044160000631 283.1974399999599 L 856.1718753280584 283.71093708794797 L 855.5612160000601 285.45023999991827 L 856.8906250240398 286.2695311359712 L 853.9227914240328 286.574124031933 L 853.8203125760192 280.3281254399335 L 852.9999994880636 280.3281254399335 L 852.6940160000231 286.78041599993594 L 851.7724160000216 287.80441599996993 L 849.0078126080334 287.9062497279374 L 847.8828124160646 288.315835391928 L 847.8828124160646 287.6015626239241 L 846.3452160000452 286.37081599992234 L 847.5740160000278 285.75641599996015 L 848.0860160000157 283.5036159999436 L 845.7343733760645 282.3789107199409 L 845.2188160000369 281.0460159999202 L 843.9377920000115 279.6124159999308 L 843.0684160000528 279.6124159999308 L 843.0684160000528 284.52761599991936 L 844.8086630400503 287.4962728959508 L 842.5564160000649 287.59961599996313 L 842.2500003840541 285.6523438079166 L 841.023437824042 284.6289059839328 L 839.7187502080342 283.5859374079737 L 839.3892392960261 283.32507545594126 L 838.9724160000333 282.9916159999557 L 836.1015623680432 282.273437695927 L 831.2890624000574 283.0429685759591 L 831.9068160000606 283.6060159999179 L 836.6171873280546 284.42578124796273 L 836.921875456057 286.57421823992627 L 832.9308160000364 285.75641599996015 L 831.7499996160623 285.6015626239241 L 832.4687503360328 287.19140659197 L 832.8281282560201 287.90624767995905 L 831.5576320000109 287.99129599996377 L 829.9609374720603 287.4960936959251 L 828.0156160000479 287.70201599993743 L 827.7084160000086 289.3404159999336 L 824.2268160000094 290.4668159999419 L 821.1548160000239 292.5148159999517 L 821.974016000051 293.23161599994637 L 822.6908160000457 292.617215999926 L 823.7141422080458 292.5160785919288 L 822.8956160000525 294.05081599997357 L 819.4140620800317 300.3984373759595 L 818.6953123840503 300.70703103992855 L 818.2568960000644 300.9559889919474 L 818.2265620480175 301.007812607917 L 818.3897968640085 301.11663513595704 L 818.0828160000383 301.4236159999273 L 818.0312504320173 301.39062476792606 L 818.0304117760388 301.39217305596685 L 818.0276838400168 301.39053670392605 L 817.9292160000186 301.57721599994693 L 817.7656248320127 301.7226557439426 L 817.3660160000436 302.0380159999477 L 816.4453120000544 301.7304688639706 L 815.113216000027 301.2188159999205 L 815.1093749760184 301.21875046397327 L 813.6796876800363 302.34374963195296 L 813.1676160000497 301.8332159999409 L 813.1658496000455 301.8338047999423 L 813.164062720025 301.8320312319556 L 812.5532160000294 302.0380159999477 L 811.6305920000304 306.5436159999226 L 810.914062336029 308.07812505593756 L 811.3203128320165 308.79687475191895 L 811.4204323840095 309.40960563195404 L 811.5128320000367 309.9934719999437 L 812.2265620480175 311.10937497596024 L 814.2929920000606 312.38041599997086 L 815.3718620160362 313.1221391359577 L 815.9296870400431 313.5078123519197 L 815.4193920000107 314.9726719999453 L 815.0466560000204 315.74118399992585 L 813.9843747840496 318.42187468794873 L 812.859392000013 319.2412159999367 L 812.7578122240375 320.16406220797217 L 814.1874995200196 320.7773439999437 L 814.1905920000281 320.77721599995857 L 815.2484618240269 320.1532487679506 L 816.3593748480198 321.6484372479608 L 821.5595950080315 319.24353126395727 L 817.3649920000462 321.80121599993436 L 813.8828124160646 323.2343746559345 L 817.0546872320119 326.71484415995656 L 818.1841920000152 327.8428159999312 L 818.0654622720322 328.3771013119258 L 817.9765626880107 328.76562534394907 L 818.1412362240371 329.95127193594817 L 818.2865920000477 331.01721599994926 L 820.3359375360305 332.0429690879537 L 824.3267092480091 331.1214202879346 L 821.9765626880107 333.9824691199465 L 821.9765626880107 333.1679682559334 L 819.6171878400492 333.2695316479658 L 819.9218012160272 336.0344883199432 L 815.9296870400431 335.6249999359716 L 813.3713920000591 338.6972159999423 L 814.4981647360255 338.8006092799478 L 814.8044339200133 339.617326079926 L 811.4218752000597 341.4609377279412 L 812.7569920000387 342.6908159999293 L 812.2422272000113 343.30464051192394 L 809.7890621440602 342.7929692159523 L 810.812499968044 340.9492183039547 L 809.4796093440382 341.6663306239643 L 808.865792000026 341.15481599996565 L 806.8198082560557 342.8939028479508 L 806.0000000000582 341.8710937599535 L 805.9985920000472 341.87161599996034 L 804.7497748480528 343.1204331519548 L 804.562499584048 343.30468761594966 L 805.8955110400566 344.8404305919539 L 803.8481920000631 345.250815999927 L 804.2445209600264 346.0434728959226 L 804.460937216063 346.48046899196925 L 805.6923514880473 346.48046899196925 L 806.6093752320157 347.29687449592166 L 809.7873920000275 349.44921599992085 L 813.5761920000659 349.14201599993976 L 816.2305372160627 351.427599359944 L 816.3125002240413 351.5000002559391 L 816.3302983680624 351.90713651193073 L 816.3409920000122 352.2140159999253 L 809.6864040960209 354.67109478393104 L 807.5345920000109 353.1356159999268 L 804.3593748480198 352.3164057599497 L 802.4145920000155 353.08441599993967 L 801.0833920000587 353.4428159999661 L 801.0027581440518 353.9266191359493 L 800.8749998080311 354.67187507194467 L 801.1328122880659 355.33593702391954 L 801.9531253760215 356.20703129592584 L 799.6497920000111 355.9004159999313 L 798.6257920000353 355.0812159999623 L 796.3729920000187 355.4908159999177 L 793.195312128053 354.8749998079729 L 792.2769920000574 354.9788159999298 L 791.5601920000627 354.6716159999487 L 790.9453127680463 354.8749998079729 L 786.7473920000484 354.9788159999298 L 783.0625003520399 353.74999961594585 L 780.3985920000123 354.0572159999283 L 775.7890621440602 354.4648437759606 L 774.1484369920217 355.28515583992703 L 775.7887016960303 355.3544693759177 L 775.8671872000559 355.3593753599562 L 777.6315095040482 356.9246259199572 L 776.4039680000278 357.1292159999721 L 774.5607680000248 357.74361599993426 L 767.0464634880191 353.23554611194413 L 766.9082030080608 353.18649958394235 L 767.0468751360313 353.2343746559345 L 766.7195514880586 353.1195781119168 L 766.725059584016 353.12327167997137 L 766.7187496960396 353.12109363195486 L 766.9844940800103 353.29726156796096 L 766.9992652800283 353.3475287039182 L 766.6391040000599 353.283071999962 L 766.5648404480307 353.21809100796236 L 766.5653770240606 353.2211967999465 L 766.562499584048 353.21875046397327 L 766.6324828160577 353.6092610559426 L 766.7865600000368 353.80735999991884 L 766.740500480053 353.89026713592466 L 766.7031255040201 353.9531253759633 L 766.555571200035 353.9375933439587 L 766.1475840000203 353.72543999995105 L 765.6640624640277 353.1015628799214 L 765.5086080000619 352.971775999933 L 764.9687500800355 352.30078156793024 L 764.3453440000303 351.71020799991675 L 764.1159680000274 351.4480639999383 L 763.3984378880123 351.30078105593566 L 762.7578122240375 351.085937663971 L 762.0546877440647 351.0468751359731 L 761.8713600000483 351.0384639999247 L 760.9047040000441 351.2678399999277 L 760.5934008320328 351.40619673597394 L 760.1640622080304 351.5937495039543 L 759.4629120000172 352.0215039999457 L 758.6764800000237 352.28364799992414 L 758.3979520000285 352.5457919999608 L 758.5454080000636 352.74239999993006 L 758.955008000019 352.77516799996374 L 759.6949053440476 352.7265884159715 L 760.2165760000353 352.8407039999729 L 760.5468753920286 352.89062502392335 L 761.5932559360517 352.98823475197423 L 762.4296878080349 353.1367188479635 L 763.5589120000368 353.4960639999481 L 764.5390622720588 353.83984332793625 L 765.2795217920211 353.98793523194036 L 765.5078123520361 354.2656245759572 L 765.1015628800378 354.2812497919658 L 764.7031255040201 354.11718758393545 L 764.1978880000534 353.9220479999203 L 763.5234375680448 353.78906214394374 L 762.4765624320135 353.6914063359727 L 761.8877440000651 353.4632959999726 L 760.609792000032 353.31583999993745 L 760.0390625280561 353.3632808959228 L 759.1516160000465 353.4632959999726 L 758.6271569920355 353.72548403195105 L 757.5459840000258 354.0039679999463 L 757.0233251840109 354.3632957439404 L 756.5156249600113 354.4296878079185 L 756.1874995200196 354.29687500797445 L 756.1562501120497 354.07031295995694 L 756.3515627520392 353.62890649592737 L 756.8281251840526 353.3320314879529 L 757.2684800000279 352.8079359999392 L 757.3440286720288 352.6442475519725 L 757.4687498240382 352.38281215995084 L 757.9238400000613 351.8904319999274 L 758.6484377600136 351.3671874559368 L 760.2421872640261 350.5937500159489 L 760.5703127040179 350.42578124796273 L 760.8238080000156 350.2847999999649 L 761.510912000027 350.1209599999711 L 762.2578124800348 349.98828134394716 L 761.3521920000203 349.24441599997226 L 759.3593753600144 349.29296895995503 L 757.256192000059 349.34681599994656 L 753.6718745600665 349.0390620159451 L 749.269898240047 350.779559935967 L 751.1121920000296 349.03961599996546 L 751.10127001605 348.12415999994846 L 747.8353920000372 348.83481599995866 L 747.8353920000372 350.472747007967 L 745.3749995520338 350.8828129279427 L 747.5281920000562 352.0092159999185 L 747.9375001600129 354.4687503359164 L 752.9553920000326 353.7500159999472 L 754.2881812480628 352.8287334399647 L 754.7985920000356 352.93081599992 L 756.6406246400438 351.70312499196734 L 754.7972126720124 354.05816217593383 L 751.2109373440617 356.51562495995313 L 749.5781253120513 357.3320314879529 L 747.4257920000236 357.43641599995317 L 744.865792000026 355.0812159999623 L 743.022592000023 350.37081599992234 L 741.17939200002 349.44921599992085 L 740.8721920000389 349.14201599993976 L 739.0289920000359 349.03961599996546 L 735.34259200003 349.14201599993976 L 734.7147038720432 348.93271961592836 L 735.343750144064 349.1406254079193 L 734.4209920000285 348.83481599995866 L 731.0417920000618 345.9665919999243 L 731.1441920000361 344.020991999947 L 731.0417920000618 341.5633919999236 L 728.382812160009 339.4140620799735 L 726.2265620480175 339.10546841594623 L 724.0785920000635 339.92499199992744 L 722.8497920000227 341.9729919999372 L 723.3617920000106 342.0753919999697 L 724.18087526405 341.1539230719209 L 724.7953920000582 341.9729919999372 L 724.6929920000257 343.0993919999455 L 724.7953920000582 344.8401919999742 L 724.7968747520354 344.84630835196003 L 724.7968747520354 344.97656217595795 L 724.7711959040607 348.9801932799164 L 724.7277475840528 355.7542850559694 L 724.6640629760223 365.6835942399339 L 725.3046876160661 419.007812607917 L 725.3046876160661 437.644531711936 L 725.2031252480228 447.1679682559334 L 725.2031252480228 472.25781247991836 L 725.1015628800378 477.88671897596214 L 725.1015628800378 489.97265612793854 L 724.9921873920248 507.89062451192876 L 724.6875002880115 512.0898437119322 L 724.5859379200265 516.0820316159516 L 724.5859379200265 522.4335933439434 L 724.4843745280523 532.8789063679287 L 724.281249792024 572.097655807971 L 724.281249792024 581.6210933759576 L 724.179687424039 587.6601559039555 L 724.179687424039 592.2695311359712 L 724.0703129600151 596.7734374399297 L 723.968749568041 640.0898437119322 L 723.968749568041 691.9023441919708 L 724.0703129600151 694.8749998079729 L 724.179687424039 696.8203120639664 L 724.179687424039 698.664062975964 L 724.0703129600151 702.7578122239211 L 724.179687424039 710.9492183039547 L 723.968749568041 718.8359372799168 L 723.8671872000559 721.9062497279374 L 723.8671872000559 733.4804684799165 L 723.3593753600144 767.2695316479658 L 723.3593753600144 774.1328127999441 L 723.4609377280576 786.7265628159512 L 723.3593753600144 793.9960934399278 L 723.3593753600144 797.5820308479597 L 723.2578129920294 808.4374999039574 L 723.0468751360313 832.9101557759568 L 723.0468751360313 839.5664066559402 L 723.2578129920294 853.183593471942 L 723.2578129920294 863.0156247039558 L 723.2578129920294 876.9414062079741 L 723.3593753600144 897.3203128319583 L 723.4609377280576 907.4570311679272 L 723.2578129920294 911.4492190719466 L 723.2578129920294 922.5078128639725 L 723.0468751360313 930.0859371519182 L 722.9453127680463 937.4609377279412 L 722.8437504000613 943.2968744959217 L 722.5390622720588 947.9062497279374 L 718.7500001280569 949.1328122879495 L 715.164062720025 949.644531711936 L 712.812499968044 949.5429683199618 L 710.3515627520392 949.746094079921 L 707.1796879360336 950.5664061439456 L 704.0000000000582 952.20312473597 L 701.445312512049 952.6132807679242 L 697.9609374720603 952.9218754559406 L 695.5078123520361 953.6367185919662 L 692.53125017602 954.8671877119341 L 688.7421870080288 955.9921879039612 L 686.289062912052 957.2226559999399 L 683.828124672058 959.0664058879483 L 681.0625003520399 962.6484377599554 L 679.3281249280553 966.5390622719424 L 678.4062504960457 969.0000005119364 L 677.4843750400469 971.5585935359704 L 676.9687500800355 974.7343749119318 L 674.8203120640246 977.19140659197 L 672.460937216063 980.3671879679314 L 672.5703127040179 984.6679685119307 L 673.0781245440594 989.8867189759621 L 672.1562501120497 993.9843747839332 L 671.0312499200227 996.3398440959281 L 668.6718750720611 998.3867187199648 L 666.1171875840519 1000.2304686079733 L 665.6015626240405 1002.8945315839374 L 665.0937497600098 1006.4765624319552 L 662.0156252160086 1008.5234370559338 L 658.0234373120475 1009.8554685439449 L 654.5468753920286 1010.2656245759572 L 652.289062912052 1010.4726558719412 L 649.7343754240428 1010.1640622079722 L 647.7890621440602 1009.9570309119299 L 645.8437498880085 1009.8554685439449 L 643.7890621440602 1009.7539061759599 L 641.5390627840534 1009.0390620159451 L 638.7734374400461 1007.9101562879514 L 633.9609374720603 1006.6835937279393 L 630.9921873920248 1005.7617182719405 L 626.5859379200265 1005.1445309439441 L 621.7734379520407 1003.917968383932 L 617.3749995520338 1001.8710937599535 L 614.812499968044 1000.7421870079706 L 612.6640629760223 999.4101565439487 L 610.0000000000582 998.4882810879499 L 607.8515630080365 997.7734379519243 L 605.8046873600106 996.8515624959255 L 602.4218746880651 996.031250431959 L 599.1484375040163 996.2382817279431 L 595.7656248320127 996.4414064639714 L 593.1015628800378 996.6484377599554 L 590.8515624960419 997.3632808959228 L 588.289062912052 998.2851563519216 L 585.1171870720573 999.2070307839313 L 582.5546874880092 1000.1289062399301 L 578.7656253440655 1001.8671871999395 L 575.79687526403 1003.710937087948 L 573.2421877760207 1005.5546879999456 L 571.0859376640292 1007.3984378879541 L 569.554688000062 1010.4726558719412 L 569.1406254080357 1013.85156300792 L 567.9140628480236 1016.20312473597 L 566.5859379200265 1018.1523435519193 L 565.1484375040163 1019.7890621439437 L 563.2031252480228 1022.0429690879537 L 561.5625000960426 1023.5781253119349 L 561.3522729110555 1024.0" fill="none"/><path stroke="#000000" stroke-width="2" d="M 763.445312512049 350.75390668795444 L 763.4459648000193 350.75550924794516 L 763.4421760000405 350.75430399994366 L 763.5355760640232 350.9834455039236 L 764.4237332480261 351.57943398394855 L 764.3224576000357 351.4453309439705 L 763.9459840000491 350.9145599999465 L 763.445312512049 350.75390668795444" fill="none"/><path stroke="#000000" stroke-width="2" d="M 768.6071552000358 358.68449484795565 L 768.8673280000221 358.70617599994875 L 770.2108160000644 358.6897919999319 L 770.4074240000336 358.73894399992423 L 770.6040320000611 358.8536319999257 L 770.5712640000274 358.9355519999517 L 770.227200000023 359.11577599996235 L 770.1125120000215 359.295999999973 L 769.6701440000325 359.27961599995615 L 769.0639360000496 359.32876799994847 L 768.8345600000466 359.5089919999591 L 768.654336000036 359.73836799996207 L 768.6379520000191 359.8694399999222 L 768.4741120000253 359.9513599999482 L 768.2283520000638 359.65644799993606 L 767.9498240000103 359.11577599996235 L 767.8187520000502 359.06662399997003 L 767.4910720000626 359.0502399999532 L 767.3600000000442 358.9683199999272 L 767.2944640000351 358.8044799999334 L 767.1306240000413 358.70617599994875 L 766.9012480000383 358.73894399992423 L 766.7865600000368 359.06662399997003 L 766.6391040000599 359.2632319999393 L 766.2786560000386 359.36153599992394 L 765.950976000051 359.32876799994847 L 765.1809280000161 358.9683199999272 L 764.8696320000454 358.90278399991803 L 764.8532480000285 358.73894399992423 L 764.96793600003 358.49318399996264 L 764.8040960000362 358.37849599996116 L 764.7385600000271 358.32934399996884 L 764.7549440000439 358.1818879999337 L 765.8526720000664 357.9033599999384 L 766.9340160000138 357.9525119999307 L 766.9340160000138 358.0344319999567 L 766.9667840000475 358.1982719999505 L 767.1797760000336 358.3948799999198 L 767.8515200000256 358.57510399993043 L 768.2775040000561 358.65702399995644 L 768.6071552000358 358.68449484795565" fill="none"/><path stroke="#000000" stroke-width="2" d="M 804.9796065280098 358.0288317439263 L 804.5649920000578 358.15321599994786 L 802.7217920000548 357.84601599996677 L 805.0769920000457 357.1292159999721 L 810.708992000029 356.3100159999449 L 804.9796065280098 358.0288317439263" fill="none"/><path stroke="#000000" stroke-width="2" d="M 785.5185920000658 356.0028159999638 L 780.1927680000663 358.25561599992216 L 775.6871680000331 358.05081599997357 L 781.4225920000463 357.33401599992067 L 785.5185920000658 356.0028159999638" fill="none"/><path stroke="#000000" stroke-width="2" d="M 744.0138240000233 355.83897599997 L 743.9974400000647 356.11750399996527 L 743.9319040000555 356.15027199994074 L 743.6861440000357 356.1830399999744 L 743.4895360000664 355.95366399997147 L 743.2437760000466 355.95366399997147 L 742.8669440000085 355.5604479999165 L 743.063552000036 355.4293759999564 L 743.5223040000419 355.2163839999703 L 743.8499840000295 355.5112959999242 L 744.0138240000233 355.83897599997" fill="none"/><path stroke="#000000" stroke-width="2" d="M 743.3129246720346 357.2088125439477 L 743.213056000066 357.2121599999373 L 742.8997120000422 357.1660799999372 L 742.1952000000165 356.60902399994666 L 741.228541952034 355.970052095945 L 740.5240320000448 355.2655359999626 L 740.5240320000448 355.0197759999428 L 740.9991680000094 355.0197759999428 L 741.1957760000369 355.08531199995195 L 741.3432320000138 355.1508479999611 L 741.6053760000505 355.4293759999564 L 742.1296640000655 355.9208959999378 L 742.8014080000576 356.3796479999437 L 743.5059200000251 356.9203199999174 L 743.5386880000588 357.0903039999539 L 743.3963520000107 357.2060159999528 L 743.3129246720346 357.2088125439477" fill="none"/><path stroke="#000000" stroke-width="2" d="M 766.6718720000354 355.3474559999304 L 767.4091520000366 355.52767999994103 L 767.7204480000655 355.675135999918 L 768.6051840000437 356.36326399992686 L 769.0311680000159 356.5762559999712 L 769.3916160000372 356.77286399994045 L 769.2933120000525 356.9039359999588 L 769.0639360000496 356.96947199996794 L 768.4741120000253 356.9039359999588 L 767.753216000041 356.4615679999697 L 767.0978560000658 356.2485759999254 L 766.4752640000661 356.1666559999576 L 765.5086080000619 356.15027199994074 L 764.6730240000179 355.87174399994547 L 764.2470400000457 355.6423679999425 L 763.8865920000244 355.78982399991946 L 763.0346240000217 355.65875199995935 L 762.3628800000297 355.5112959999242 L 761.8877440000651 355.5112959999242 L 761.4453760000179 355.60959999996703 L 761.1668480000226 355.70790399995167 L 760.4131840000628 355.87174399994547 L 759.9872000000323 355.82259199995315 L 759.6922880000202 355.8553599999286 L 759.4629120000172 356.11750399996527 L 759.8233600000385 356.64179199992213 L 760.2493440000108 357.13331199996173 L 761.068544000038 357.3790719999233 L 761.6911360000377 357.5265279999585 L 762.3628800000297 357.59206399996765 L 763.0673920000554 357.6903679999523 L 763.5752960000536 357.72313599992776 L 763.6736000000383 357.7886719999369 L 763.5261440000613 357.9852799999644 L 762.6086400000495 357.9525119999307 L 761.6092160000117 357.9525119999307 L 761.3143040000577 357.83782399992924 L 761.0030080000288 357.64121599995997 L 760.6589440000243 357.5265279999585 L 760.0035840000492 357.1660799999372 L 759.4956800000509 356.740095999965 L 759.0533120000619 356.1830399999744 L 758.9058560000267 355.8553599999286 L 758.7420160000329 355.5112959999242 L 758.5290240000468 355.3474559999304 L 758.2504960000515 355.16723199991975 L 758.2013440000592 355.03615999995964 L 758.3979520000285 354.79039999993984 L 760.839168000035 354.5610239999369 L 761.9532800000161 354.51187199994456 L 762.5431040000403 354.51187199994456 L 763.3295360000338 354.7412479999475 L 764.9351680000545 355.1508479999611 L 766.6718720000354 355.3474559999304" fill="none"/><path stroke="#000000" stroke-width="2" d="M 739.9833600000129 352.44748799991794 L 740.507648000028 353.0045439999667 L 740.7206400000141 353.2175359999528 L 740.7206400000141 353.3813759999466 L 740.5404160000617 353.52883199992357 L 740.0488960000221 353.39775999996345 L 739.6392960000085 353.07007999991765 L 739.37715200003 352.82431999995606 L 739.0167040000088 352.6277119999286 L 738.7709440000472 352.66047999996226 L 738.9020160000655 352.8407039999729 L 739.2296960000531 353.0373119999422 L 738.934784000041 353.053695999959 L 738.5415680000442 352.971775999933 L 738.1319680000306 352.82431999995606 L 737.4274560000631 352.61132799996994 L 736.8540160000557 352.16895999992266 L 736.3952640000498 351.7757439999259 L 736.1986560000223 351.3661439999705 L 736.2641920000315 351.2350719999522 L 736.7557120000129 351.30060799996136 L 737.5749120000401 351.5627519999398 L 738.8856320000486 351.98873599997023 L 739.9833600000129 352.44748799991794" fill="none"/><path stroke="#000000" stroke-width="2" d="M 742.6856847360614 354.1782425599522 L 742.6539520000224 354.18419199995697 L 741.8839040000457 353.9056639999617 L 741.5234560000245 353.56159999995725 L 740.9500160000171 353.0373119999422 L 740.7370240000309 352.7915519999224 L 740.5568000000203 352.6277119999286 L 740.278272000025 352.44748799991794 L 739.6229120000498 351.92319999996107 L 737.2144640000188 351.13676799996756 L 737.2144640000188 350.9401599999401 L 737.4110720000463 350.8582399999723 L 738.0008960000123 350.80908799992176 L 738.852864000015 350.6288639999693 L 740.1963520000572 350.5469439999433 L 741.1302400000277 350.64524799992796 L 741.4579200000153 350.6616319999448 L 741.6872960000183 350.8254719999386 L 742.1952000000165 351.30060799996136 L 742.5064960000454 351.7593599999673 L 742.6375680000638 352.381951999967 L 743.0471680000192 353.053695999959 L 743.0307840000605 353.9056639999617 L 742.916096000059 354.13503999996465 L 742.6856847360614 354.1782425599522" fill="none"/><path stroke="#000000" stroke-width="2" d="M 732.9068881920539 349.03237427194836 L 732.8849920000648 349.03961599996546 L 731.0417920000618 347.29779199993936 L 731.656192000024 347.4012159999693 L 733.499392000027 348.83481599995866 L 732.9068881920539 349.03237427194836" fill="none"/><path stroke="#000000" stroke-width="2" d="M 830.1021511680447 335.9263231999357 L 828.5265920000384 336.751615999965 L 827.7073920000112 334.8060159999295 L 829.0385920000263 334.2940159999416 L 831.2913920000428 334.4988159999484 L 830.6769920000224 335.6252159999567 L 830.1021511680447 335.9263231999357" fill="none"/><path stroke="#000000" stroke-width="2" d="M 831.6699740160257 319.46785279992037 L 829.4481920000399 320.98201599996537 L 828.8337920000195 320.1628159999382 L 830.0636160000577 319.2412159999367 L 831.7020160000538 319.4460159999435 L 831.6699740160257 319.46785279992037" fill="none"/><path stroke="#000000" stroke-width="2" d="M 833.8625945600215 327.7374535679701 L 833.8513920000405 327.7404159999569 L 836.002816000022 326.8188159999554 L 838.4217845760286 326.0191498239292 L 840.2012160000158 324.5660159999388 L 842.0444160000188 321.39161599992076 L 842.1468160000513 319.2412159999367 L 841.6348160000634 317.1932159999269 L 839.689216000028 315.04281599994283 L 841.5324160000309 316.1692159999511 L 842.5564160000649 318.0124159999541 L 842.9660160000203 319.5484159999178 L 842.2492160000256 322.51801599992905 L 840.0988160000416 325.385215999966 L 837.493103616056 326.77753753593424 L 833.8625945600215 327.7374535679701" fill="none"/><path stroke="#000000" stroke-width="2" d="M 826.7738542080624 313.2769566719653 L 826.5820160000585 313.91641599993454 L 825.8652160000638 313.30201599997235 L 826.8892160000396 312.89241599995876 L 826.7738542080624 313.2769566719653" fill="none"/><path stroke="#000000" stroke-width="2" d="M 839.1772160000401 310.6396159999422 L 841.1228160000173 311.86841599992476 L 838.4604160000454 311.2540159999626 L 835.4908160000341 311.2540159999626 L 837.846016000025 309.3084159999271 L 839.1772160000401 310.6396159999422" fill="none"/><path stroke="#000000" stroke-width="2" d="M 991.2422400000505 302.1424639999168 L 991.3446400000248 305.0096639999538 L 985.2006400000537 303.2688639999251 L 982.7430400000303 300.9136639999342 L 987.0438400000567 300.7088639999274 L 991.2422400000505 302.1424639999168" fill="none"/><path stroke="#000000" stroke-width="2" d="M 837.2316160000628 308.0796159999445 L 834.6716160000651 311.2540159999626 L 830.166016000032 311.76601599995047 L 822.5884160000132 310.1276159999543 L 823.4076160000404 308.6940159999649 L 826.3772160000517 309.8204159999732 L 823.2028160000336 302.95961599994916 L 830.0636160000577 296.40601599996444 L 838.9724160000333 295.27961599995615 L 837.6412160000182 298.2492159999674 L 840.2012160000158 302.2428159999545 L 836.2076160000288 307.5676159999566 L 837.2316160000628 308.0796159999445" fill="none"/><path stroke="#000000" stroke-width="2" d="M 961.6486400000285 284.9392639999278 L 973.2198400000343 292.3120639999397 L 974.7558400000562 294.3600639999495 L 972.2982400000328 292.7216639999533 L 969.943040000042 292.6192639999208 L 966.1542400000617 289.75206399994204 L 966.5638400000171 288.52326399995945 L 965.3350400000345 288.83046399994055 L 961.3414400000474 285.758463999955 L 959.0886400000309 284.9392639999278 L 961.6486400000285 284.9392639999278" fill="none"/><path stroke="#000000" stroke-width="2" d="M 561.3522729110555 1024.0 L 561.5625000960426 1023.5781253119349 L 563.2031252480228 1022.0429690879537 L 565.1484375040163 1019.7890621439437 L 566.5859379200265 1018.1523435519193 L 567.9140628480236 1016.20312473597 L 569.1406254080357 1013.85156300792 L 569.554688000062 1010.4726558719412 L 571.0859376640292 1007.3984378879541 L 573.2421877760207 1005.5546879999456 L 575.79687526403 1003.710937087948 L 578.7656253440655 1001.8671871999395 L 582.5546874880092 1000.1289062399301 L 585.1171870720573 999.2070307839313 L 588.289062912052 998.2851563519216 L 590.8515624960419 997.3632808959228 L 593.1015628800378 996.6484377599554 L 595.7656248320127 996.4414064639714 L 599.1484375040163 996.2382817279431 L 602.4218746880651 996.031250431959 L 605.8046873600106 996.8515624959255 L 607.8515630080365 997.7734379519243 L 610.0000000000582 998.4882810879499 L 612.6640629760223 999.4101565439487 L 614.812499968044 1000.7421870079706 L 617.3749995520338 1001.8710937599535 L 621.7734379520407 1003.917968383932 L 626.5859379200265 1005.1445309439441 L 630.9921873920248 1005.7617182719405 L 633.9609374720603 1006.6835937279393 L 638.7734374400461 1007.9101562879514 L 641.5390627840534 1009.0390620159451 L 643.7890621440602 1009.7539061759599 L 645.8437498880085 1009.8554685439449 L 647.7890621440602 1009.9570309119299 L 649.7343754240428 1010.1640622079722 L 652.289062912052 1010.4726558719412 L 654.5468753920286 1010.2656245759572 L 658.0234373120475 1009.8554685439449 L 662.0156252160086 1008.5234370559338 L 665.0937497600098 1006.4765624319552 L 665.6015626240405 1002.8945315839374 L 666.1171875840519 1000.2304686079733 L 668.6718750720611 998.3867187199648 L 671.0312499200227 996.3398440959281 L 672.1562501120497 993.9843747839332 L 673.0781245440594 989.8867189759621 L 672.5703127040179 984.6679685119307 L 672.460937216063 980.3671879679314 L 674.8203120640246 977.19140659197 L 676.9687500800355 974.7343749119318 L 677.4843750400469 971.5585935359704 L 678.4062504960457 969.0000005119364 L 679.3281249280553 966.5390622719424 L 681.0625003520399 962.6484377599554 L 683.828124672058 959.0664058879483 L 686.289062912052 957.2226559999399 L 688.7421870080288 955.9921879039612 L 692.53125017602 954.8671877119341 L 695.5078123520361 953.6367185919662 L 697.9609374720603 952.9218754559406 L 701.445312512049 952.6132807679242 L 704.0000000000582 952.20312473597 L 707.1796879360336 950.5664061439456 L 710.3515627520392 949.746094079921 L 712.812499968044 949.5429683199618 L 715.164062720025 949.644531711936 L 718.7500001280569 949.1328122879495 L 722.5390622720588 947.9062497279374 L 722.8437504000613 943.2968744959217 L 722.9453127680463 937.4609377279412 L 723.0468751360313 930.0859371519182 L 723.2578129920294 922.5078128639725 L 723.2578129920294 911.4492190719466 L 723.4609377280576 907.4570311679272 L 723.3593753600144 897.3203128319583 L 723.2578129920294 876.9414062079741 L 723.2578129920294 863.0156247039558 L 723.2578129920294 853.183593471942 L 723.0468751360313 839.5664066559402 L 723.0468751360313 832.9101557759568 L 723.2578129920294 808.4374999039574 L 723.3593753600144 797.5820308479597 L 723.3593753600144 793.9960934399278 L 723.4609377280576 786.7265628159512 L 723.3593753600144 774.1328127999441 L 723.3593753600144 767.2695316479658 L 723.8671872000559 733.4804684799165 L 723.8671872000559 721.9062497279374 L 723.968749568041 718.8359372799168 L 724.179687424039 710.9492183039547 L 724.0703129600151 702.7578122239211 L 724.179687424039 698.664062975964 L 724.179687424039 696.8203120639664 L 724.0703129600151 694.8749998079729 L 723.968749568041 691.9023441919708 L 723.968749568041 640.0898437119322 L 724.0703129600151 596.7734374399297 L 724.179687424039 592.2695311359712 L 724.179687424039 587.6601559039555 L 724.281249792024 581.6210933759576 L 724.281249792024 572.097655807971 L 724.4843745280523 532.8789063679287 L 724.5859379200265 522.4335933439434 L 724.5859379200265 516.0820316159516 L 724.6875002880115 512.0898437119322 L 724.9921873920248 507.89062451192876 L 725.1015628800378 489.97265612793854 L 725.1015628800378 477.88671897596214 L 725.2031252480228 472.25781247991836 L 725.2031252480228 447.1679682559334 L 725.3046876160661 437.644531711936 L 725.3046876160661 419.007812607917 L 724.6640629760223 365.6835942399339 L 724.7277475840528 355.7542850559694 L 724.7711959040607 348.9801932799164 L 724.7968747520354 344.97656217595795 L 724.823653376021 344.956769279961 L 724.8281600000337 344.97535999992397 L 724.9765621760162 344.84375039994484 L 725.0937497600098 344.3203123199637 L 725.3203128320165 343.99218790396117 L 725.4999040000257 343.5991039999644 L 725.3203128320165 342.8281251839362 L 725.2213760000304 341.92793599993456 L 725.3203128320165 341.2226559999399 L 725.4531246080296 340.6835937279393 L 725.5341977600474 340.48804556793766 L 725.6015626240405 340.33984409592813 L 726.2885529600317 339.9313285119715 L 726.4181248000241 339.89989785593934 L 726.8270080000511 339.81439999997383 L 727.7421875200234 339.9960934399278 L 728.8671877120505 340.4609372159466 L 728.8984391680569 340.47655833594035 L 729.5625000960426 340.8632811519201 L 730.0218880000175 341.55110399995465 L 730.3168000000296 342.3866879999405 L 730.3659520000219 343.18950399995083 L 730.4296878080349 343.8281246719416 L 730.218496000045 344.05785599997034 L 730.0234373120475 343.7304688639706 L 729.898437632015 343.4179686399293 L 729.8972651520162 343.42115123197436 L 729.8959360000445 343.4178559999564 L 729.8416640000651 343.56633599993074 L 729.8744320000405 344.05785599997034 L 729.8744320000405 344.4838399999426 L 729.5937495040125 344.74609356792644 L 729.5057930240291 344.79513599997154 L 729.1389460480423 345.1049175039516 L 728.8906250240398 345.02343782392563 L 728.7734374400461 345.0898442239268 L 728.9062502400484 345.4687498239218 L 728.921875456057 345.746094079921 L 728.710937600059 346.17187532794196 L 728.8258560000104 346.9250559999491 L 729.0388480000547 347.89171199995326 L 729.4976000000606 348.514303999953 L 730.0382720000343 348.79283199994825 L 731.0704640000477 349.2198399999179 L 732.562499584048 349.7617182719405 L 732.8203120640246 350.02343731193105 L 733.3124997120467 350.2695311359712 L 733.3645742080407 350.45652479992714 L 733.3969920000527 350.5797119999188 L 733.4921871360275 350.66015641595004 L 733.4952960000373 350.6616319999448 L 733.7890621440602 350.6796871679253 L 734.0525803520577 350.7765688319341 L 734.4128000000492 351.16953599994304 L 734.5564538880135 351.3929973759223 L 734.8515624960419 351.8593751039589 L 735.3960519680404 352.30857932794606 L 735.6308480000589 352.5043199999491 L 736.3952640000498 352.93900799995754 L 738.3593748480198 353.66015590395546 L 739.4765629440662 354.15234355191933 L 739.8203125760192 354.38281215995084 L 740.2265620480175 354.9531248639687 L 740.2109378560563 355.3164062719443 L 740.4968816640321 355.4725468159304 L 740.8025600000401 355.6423679999425 L 741.5070720000658 356.2977279999177 L 742.4062504960457 357.1015628799214 L 743.5224125440582 357.526950911968 L 743.6093501440482 357.86444799992023 L 743.6016076800297 358.36036812793463 L 743.470875648025 358.2732134399703 L 742.98163200001 357.9361279999721 L 742.6867200000561 357.9361279999721 L 742.5703127040179 358.14843699196354 L 742.2607360000256 358.1818879999337 L 741.9985920000472 358.3621119999443 L 742.2279680000502 358.4276479999535 L 742.4737280000118 358.54233599995496 L 742.4215408640448 358.6780221439549 L 742.390625280037 358.75390668795444 L 742.3590400000103 358.90278399991803 L 742.5392640000209 358.98470399994403 L 742.9158410240198 359.0010767359636 L 743.211008000013 359.1813119999715 L 743.5703121920233 359.19921868795063 L 743.8046873600106 359.1015628799214 L 744.4561920000124 359.0010879999609 L 745.2917760000564 359.16492799995467 L 746.0937502720626 358.9687500799191 L 747.1431680000387 358.90278399991803 L 749.0468751360313 358.445311999938 L 750.7500001280569 358.34765619196696 L 751.975424000062 357.8214399999706 L 752.4843745280523 357.44531251193257 L 753.0403840000508 356.88755199994193 L 753.6328120320104 356.60937523195753 L 754.367488000018 356.1338879999239 L 754.6484377600136 356.01953075191705 L 755.3671874560532 355.75781273597386 L 756.1562501120497 355.42968729592394 L 757.1185448960168 355.4457354239421 L 758.0047360000317 355.7242879999685 L 758.5781248000567 355.93750015995465 L 758.6764800000237 356.1830399999744 L 758.6093752320157 356.2148433919647 L 758.6250004480244 356.52734361594776 L 758.8567040000344 356.9203199999174 L 759.26562508801 357.2656250879518 L 759.4765629440662 357.5937495039543 L 759.7414400000125 357.72313599992776 L 760.2165760000353 357.91974399995524 L 760.3471677440102 358.0829839359503 L 760.1178490880411 358.13266943994677 L 759.2812503040186 357.9999999999418 L 758.7265628160094 357.70703155192314 L 758.562499584048 357.2304691199679 L 758.3359375360305 356.75781222392106 L 758.3515627520392 356.47656243195524 L 758.1171875840519 356.445311999938 L 757.8046873600106 356.67578163195867 L 757.5132160000503 356.8711679999251 L 757.4917560320464 356.94270054396475 L 757.4609868800617 357.0350079999189 L 757.0234296320123 357.0350079999189 L 757.0078126080334 356.7382814719458 L 756.8742400000338 356.3304959999514 L 756.71040000004 356.3468799999682 L 756.7419340800261 356.5762559999712 L 756.3827200000524 356.5762559999712 L 756.0234373120475 356.1835939839366 L 755.5312496640254 355.88671897596214 L 755.0720000000438 356.0847359999316 L 754.5781248000567 356.5117183999391 L 754.562499584048 356.9218754559406 L 754.7421870080288 357.1484375039581 L 755.2522240000544 357.411839999957 L 756.2656245760154 357.60937471996294 L 757.1363840000122 357.6575999999186 L 757.6406251520384 357.83984332793625 L 758.5617920000223 358.21465599996736 L 759.5937495040125 358.80468787194695 L 760.4295680000214 358.8372479999671 L 761.4609377280576 358.72265318396967 L 762.382812160009 358.6406246399274 L 762.9999994880636 358.5429688319564 L 763.3593753600144 358.60937523195753 L 763.2640000000247 358.8372479999671 L 763.1001600000309 359.16492799995467 L 763.6093747200212 359.70703155192314 L 764.1640622080304 360.14843699196354 L 765.195312128053 360.57421823992627 L 765.445312512049 360.5078128639725 L 765.6246876160149 360.3440353279584 L 766.2109378560563 360.11718758393545 L 766.4752640000661 360.2462719999603 L 766.5546874880092 360.67187507194467 L 766.3441920000478 360.9016319999355 L 765.7871360000572 361.3603839999414 L 765.3906247680425 361.640625151922 L 765.0312499200227 361.8359377919696 L 764.9843200000469 362.2615039999364 L 765.2109373440617 362.7382814719458 L 765.3283840000513 363.1298559999559 L 766.0001280000433 363.490303999919 L 766.4921876480221 363.5078123519197 L 767.2944640000351 363.490303999919 L 767.7187502080342 363.34375014394755 L 768.8359372800332 362.6054686719435 L 770.0156252160086 361.820312575961 L 770.7842560000136 361.42591999995057 L 771.6340787200606 361.06638028792804 L 772.390625280037 361.0507816959289 L 773.0937497600098 361.1484375039581 L 773.2254720000201 361.2784639999736 L 773.208317952056 361.4218383359257 L 774.3359375360305 361.917968383932 L 774.3395840000594 361.91743999993196 L 775.1669760000659 361.4013439999544 L 775.2898560000467 361.18015999993077 L 775.5390627840534 360.6054686719435 L 775.8814894080278 360.2786078719655 L 776.6333440000308 360.09881599992514 L 777.8457600000547 359.57452799996827 L 778.53125017602 359.5429683199618 L 779.4186240000417 359.49260799994227 L 780.450816000055 359.73836799996207 L 781.1796879360336 359.80468735995237 L 781.3027840000577 359.7547519999207 L 781.7579141120659 359.73849702393636 L 781.8125004800386 359.8554685439449 L 781.9388221440604 359.864553471969 L 782.2764615680207 359.6645621759235 L 782.6800640000147 359.3451519999653 L 782.8848640000215 359.3041919999523 L 784.2201600000262 358.6734079999733 L 785.514496000018 358.1491199999582 L 786.2517760000192 357.7395199999446 L 786.4450969600584 357.7234104319359 L 786.350080000062 358.05081599997357 L 785.9218749440624 358.4609372159466 L 785.3984378880123 358.8710932479589 L 785.4375004160102 359.7617182719405 L 786.0101120000472 360.020991999947 L 786.2136412160471 359.8174638079363 L 786.1718753280584 359.60937471996294 L 786.562499584048 359.3632808959228 L 786.6412830720656 359.32243046397343 L 786.9907015680219 359.1491532799555 L 787.4296872960404 359.3124997119303 L 787.9256750080385 359.3888430079678 L 787.9724840960116 359.33357875194633 L 788.0000000000582 359.30468761594966 L 787.939588096051 359.1166074879584 L 788.222344192036 359.0385899519315 L 788.5462394880597 358.6569922559429 L 788.9059840000118 358.64063795196125 L 788.9632645120146 358.66085683193523 L 789.1406254080357 358.66406297596404 L 789.2496629760135 358.6810316799674 L 789.3296650240663 358.6099189759698 L 789.5626229760237 358.6922577919322 L 789.7780039680656 358.7710556159727 L 790.1184000000358 358.82905599992955 L 790.2337003520224 358.8048230399727 L 790.6406246400438 359.03515647992026 L 791.2325120000169 359.16492799995467 L 791.5438080000458 359.23046399996383 L 791.584407552029 359.3319618559326 L 792.1328128000605 359.640625151922 L 792.8437504000613 359.8750003199675 L 792.9531248640269 359.89062451192876 L 793.1171870720573 359.78906214394374 L 793.6901120000402 360.0005119999405 L 794.4929280000506 359.9185919999727 L 795.1646720000426 359.5581439999514 L 795.5742720000562 359.132159999921 L 795.7217280000332 358.8372479999671 L 796.1804800000391 358.5095679999213 L 796.4753920000512 358.49318399996264 L 796.8849920000648 358.5095679999213 L 797.2782080000616 358.6406399999396 L 797.3434982400504 358.87016345595475 L 797.1799040000187 358.9683199999272 L 796.9683251200477 358.87066828797106 L 796.9245399040519 358.82234777591657 L 796.4426240000175 359.0911999999662 L 796.4590080000344 359.23046399996383 L 796.1953126400476 359.52343756792834 L 795.5906560000149 359.85305599996354 L 795.164062720025 360.3281254399335 L 794.755072000029 360.6886399999494 L 794.5912320000352 360.827903999947 L 794.4437770240474 361.5324159999727 L 794.5234370560502 361.57421875192085 L 794.8359372800332 362.1289062399301 L 795.0000588800176 362.4728719359264 L 795.1484375040163 363.01562470395584 L 795.9183360000607 363.27731199993286 L 796.8828129280591 363.5000002559391 L 797.2722513920162 363.5394559999695 L 797.5715829760302 363.5394559999695 L 797.7343754240428 363.5898439679295 L 798.8828129280591 363.6054691839381 L 799.3671874560532 362.97656217595795 L 799.3811568640522 362.95036927994806 L 799.4002524160314 362.92002713592956 L 799.3753968640231 362.67147059197305 L 799.5883520000498 362.4581119999639 L 799.71817267203 362.41483878396684 L 799.7656248320127 362.34374963195296 L 800.1328128000605 361.28515583992703 L 800.179687424039 361.03124991996447 L 800.8203120640246 360.277344255941 L 801.3742080000229 359.68921599996975 L 802.3244800000102 359.3451519999653 L 803.3730560000404 359.0010879999609 L 803.6874997760169 358.93749964796007 L 803.9921879040194 358.8710932479589 L 804.5527040000306 358.98470399994403 L 804.7656253440655 359.2304691199679 L 804.7812495360267 359.2734371839324 L 804.8749998080311 359.30078105593566 L 805.4865920000593 359.0993919999455 L 806.289062912052 358.7890626559383 L 807.0625003520399 358.60937523195753 L 807.6789483520552 358.6567792639253 L 807.335937024036 358.902343679918 L 807.3124997120467 358.94531276792986 L 807.4280960000469 359.3779199999408 L 807.4296872960404 359.3789061119314 L 808.4999997440609 359.19921868795063 L 809.9594240000588 359.23046399996383 L 811.8845440000296 359.2632319999393 L 812.5760061440524 358.7126527999644 L 812.752890880045 358.5751080959453 L 812.9239183360478 358.44480102392845 L 813.5781253120513 358.2812497919658 L 814.2848000000231 358.08358399994904 L 814.6343772160471 357.920990207931 L 814.9921873920248 357.75781273597386 L 815.9140628480236 356.8789063679287 L 816.4311019520392 356.3059240959701 L 816.8529920000583 355.5932159999502 L 818.1874995200196 351.70312499196734 L 817.6074741760385 350.5485803519259 L 816.9553920000326 349.24441599997226 L 816.1361920000636 346.7868159999489 L 815.0097920000553 344.2268159999512 L 816.0337920000311 342.6908159999293 L 814.9073920000228 342.6908159999293 L 816.1361920000636 341.25721599993994 L 817.5691438080394 340.95015526394127 L 816.545792000019 341.76921599992784 L 819.5142533120234 342.0779827199294 L 818.6953123840503 343.20312524796464 L 821.2578129920294 345.4570311679272 L 822.9999994880636 345.4570311679272 L 823.3043886080268 344.73898700793507 L 824.8401920000324 346.0700159999542 L 824.8437504000613 346.07031295995694 L 828.1171875840519 345.4570311679272 L 827.4001920000301 342.79321599996183 L 828.1171875840519 341.7695313919685 L 826.6833920000354 340.95001599995885 L 830.0625920000602 338.594815999968 L 832.1099038720131 338.4924508159165 L 833.5441920000594 339.20921599993017 L 833.5430195200606 339.2051138559473 L 833.546874880034 339.20703078393126 L 832.7265628160094 336.34374963195296 L 834.466834432038 335.216084991931 L 836.5137920000125 336.1372159999446 L 836.7576657920144 337.72239564795746 L 837.1250001920271 340.1289062399301 L 837.1271639040206 340.1241354239173 L 837.1281920000329 340.13081599993166 L 839.5857920000562 334.7036159999552 L 841.8362716160482 335.2150886399322 L 843.3749995520338 336.34374963195296 L 843.9903559680097 335.9348111359286 L 844.1406248960411 337.007812607917 L 844.1421486080508 337.0044887039694 L 844.1425920000183 337.00761599995894 L 844.3991285760421 336.4454840319231 L 845.6258334720624 336.7509698559297 L 846.2428160000127 337.4684159999597 L 846.1406248960411 336.1367183359689 L 844.706816000049 335.3180159999174 L 844.1953126400476 334.1914060799172 L 839.4833920000237 332.75801599991973 L 837.1272724480368 335.82907084794715 L 833.445312512049 332.0429690879537 L 834.4519290880417 331.221781503933 L 836.5260021760478 329.5402106879628 L 837.2343746560509 328.9687500799191 L 842.4540160000324 325.2828159999335 L 844.706816000049 321.08441599993967 L 844.2972160000354 317.705215999973 L 841.2265625600121 314.12109414394945 L 842.3516160000581 311.56121599994367 L 839.8940160000348 309.8204159999732 L 839.5112693760311 308.16184831992723 L 839.281853440043 307.15888844797155 L 845.3205872640247 309.51297126396094 L 846.2421872640261 313.71093708794797 L 848.2888540160493 314.22312550392235 L 847.4687498240382 316.06640639994293 L 847.4729676800198 316.0637757439399 L 847.4716160000535 316.0668159999186 L 848.2901196800522 315.5552511999267 L 849.8265088000335 316.374138879939 L 849.5703121920233 316.47656243195524 L 850.0316160000511 317.65401599992765 L 850.7484160000458 318.7292159999488 L 850.4924160000519 318.8316159999231 L 850.1874995200196 319.2617185279378 L 850.1329981440213 319.65101977594895 L 849.8750003200257 319.70312499196734 L 849.5764162560226 320.026815487945 L 849.5589550080476 320.1315839999588 L 849.5156254720641 320.3671879679314 L 849.2109373440617 320.4179691519239 L 849.7244160000118 321.80121599993436 L 848.9062502400484 322.4140625919681 L 847.5740160000278 322.51801599992905 L 847.574256640044 322.5192202239414 L 847.5703121920233 322.51953151996713 L 847.7055344640394 323.1756103679654 L 847.7788160000346 323.54201599996304 L 847.7808936960646 323.5412367359386 L 847.7812500480213 323.5429683199618 L 848.5989672960131 323.23535052791703 L 850.2343751680455 324.15625011193333 L 850.0312504320173 325.48828159994446 L 851.3583595520467 324.2629294079379 L 851.0546872320119 325.79296870395774 L 852.8980439040461 327.2278149119229 L 852.382812160009 328.8671877119341 L 853.3046876160661 329.48046847991645 L 853.419114496035 329.811311615922 L 853.4828902400332 330.00148684793385 L 854.4374999040156 329.6874997759587 L 853.4140620800317 328.76562534394907 L 854.0252160000382 327.8428159999312 L 853.3084160000435 325.9996159999282 L 852.6954741760273 325.6914882559213 L 853.8203125760192 324.97656217595795 L 855.2578129920294 325.38671923195943 L 854.5390622720588 324.56640614394564 L 853.5132160000503 324.361215999932 L 851.2604907520581 322.92748595192097 L 851.8889113600599 321.84203263995005 L 852.3895377920126 320.98233651195187 L 854.1249996800325 321.187500031956 L 853.6156160000246 321.80121599993436 L 854.2812160000321 322.41561599995475 L 854.5372180480626 322.3132211199263 L 855.7660160000087 323.23583999992115 L 857.1996160000563 323.54303999996046 L 857.2874844160397 323.6894873599522 L 857.3515622400446 323.80078079993837 L 858.6328125440632 324.26171903993236 L 859.7578137600212 323.9531284479308 L 861.3980160000501 325.18143999995664 L 862.1148160000448 326.8198399999528 L 864.9843752960442 327.640625151922 L 868.6684160000295 327.1270399999339 L 872.8668160000234 331.73503999994136 L 873.9932160000317 331.42783999996027 L 878.8046878720634 332.554687487951 L 880.9531248640269 334.9101557759568 L 882.8984371200204 335.4218751999433 L 883.9260160000413 335.3702399999602 L 883.9260160000413 335.36478719994193 L 883.9504312320496 335.36343039997155 L 885.0524160000496 337.3670399999246 L 884.9500160000171 337.3670399999246 L 885.8716160000185 338.2886399999261 L 885.8720716800308 338.2861342719407 L 885.8750003200257 338.2890629119356 L 886.078125056054 337.16406271996675 L 885.7692160000443 336.0358399999677 L 884.2343751680455 334.9101557759568 L 885.8750003200257 335.011719167931 L 886.486016000039 334.49983999994583 L 884.7452160000103 333.8342399999383 L 882.8987258880516 334.6014423039742 L 881.2109373440617 334.1914060799172 L 880.95641600003 334.29503999993904 L 880.5472296960652 333.06748211191734 L 880.1406248960411 331.8359377919696 L 873.1731640320504 330.4026091519627 L 872.2524160000612 329.0726399999694 L 871.7421875200234 328.66406297596404 L 872.0476160000544 328.0486399999354 L 871.1260160000529 326.4102399999392 L 870.1020160000189 325.8470399999642 L 869.7958983680583 325.8980597759364 L 868.6563717120443 325.45551155193243 L 867.6406251520384 325.1796879359172 L 867.3363404800184 325.1796879359172 L 866.5180160000455 323.54303999996046 L 862.8316160000395 322.00703999993857 L 862.7397437440231 321.88454399997136 L 862.6796871680417 321.80078079993837 L 861.8076160000637 322.00703999993857 L 858.735991808062 321.39094937592745 L 858.9404160000267 320.4710399999167 L 857.6092160000117 319.6518399999477 L 856.6876672000508 319.1398686719476 L 856.892416000017 318.2182399999583 L 855.3595914240577 317.7062768639298 L 855.3749995520338 317.6523438079166 L 855.1015628800378 317.5507814399316 L 855.1328122880659 317.2773437439464 L 855.1307960320264 317.2781885439181 L 855.1310878720251 317.27556607994484 L 854.8444160000654 317.3980159999337 L 855.2574566400144 316.16902655991726 L 857.0972160000238 316.06783999997424 L 853.515679744014 313.4062469119672 L 855.4609377280576 313.30468761594966 L 854.8444160000654 312.07321599993156 L 853.0002012160257 312.37887283193413 L 848.086481920036 304.9059246079414 L 849.6227491840255 303.98572339193197 L 849.9503237120225 304.92750131193316 L 850.4374999040156 306.33984409592813 L 850.4384983040509 306.3310039039352 L 850.4412160000647 306.33881599997403 L 850.6536130560562 304.4272414719453 L 850.7500001280569 303.57421875192085 L 852.5937500160653 303.2656250879518 L 847.4716160000535 302.4476159999613 L 848.5534228480537 300.28400230396073 L 850.5468702720245 296.304696319974 L 859.1452160000335 299.1718399999663 L 856.2780160000548 303.0630399999209 L 856.2851594240637 303.05719603196485 L 856.281249792024 303.0625003519235 L 858.5308160000131 301.2198399999179 L 859.4524160000146 302.551039999933 L 857.8125004800386 305.3164062719443 L 858.5156249600113 307.12890675192466 L 858.5173667840427 307.1253309439635 L 858.5185280000442 307.1283199999598 L 859.2474757120362 305.6262768639717 L 859.1706808320596 307.39255295996554 L 859.0390620160615 310.33203097595833 L 861.704788992065 311.35727513593156 L 865.2887900160276 315.2497039359296 L 865.1995975680184 315.472686079971 L 865.2341575680184 315.5133859839407 L 865.26562508801 315.5546879999456 L 867.2348160000402 315.96543999994174 L 866.6204160000198 315.14623999997275 L 868.8203120640246 315.71093708794797 L 869.0780160000431 315.55583999992814 L 870.5078128640307 316.47656243195524 L 871.4296872960404 317.39843788795406 L 871.433216000034 317.3990399999311 L 872.5078128640307 317.24609331192914 L 871.3308160000597 316.47743999992963 L 870.4092160000582 315.24863999994704 L 868.3614064640133 315.0431743999361 L 868.5660160000552 314.32703999994555 L 866.1084160000319 314.32703999994555 L 861.7052160000312 309.9238399999449 L 862.4931614720263 305.1946321919677 L 862.3203123200219 303.7812500479631 L 864.8673699840438 304.69436723191757 L 863.8593751040171 303.6757811199641 L 863.6157337600598 303.2244910079171 L 863.2923801600118 302.6136893439689 L 862.9374996480183 301.93750015995465 L 865.0844160000561 302.2438399999519 L 865.9036160000251 304.18943999992916 L 868.0546877440647 304.70703103992855 L 866.6388551680138 303.7917716479278 L 870.4059525120538 305.62145177595085 L 868.7697479680646 307.59040204796474 L 867.8492160000606 308.6950399999623 L 868.770816000062 309.6166399999638 L 872.9697280000546 310.673919999972 L 872.9598248960101 310.66963148792274 L 872.9687500800355 310.67187507194467 L 868.8749998080311 308.8984371199622 L 872.1500160000287 305.31583999993745 L 869.5937495040125 302.9609379839385 L 866.7255992320133 301.11922892794246 L 872.5598412800464 302.8585820159642 L 875.7343754240428 307.6718745599501 L 875.7343754240428 306.6484377599554 L 877.4765629440662 306.44140646397136 L 875.11961600004 306.13503999996465 L 874.2641100800247 304.210151423933 L 873.4843750400469 302.449218559952 L 868.9773598720203 301.21896857593674 L 869.1804160000174 301.1174399999436 L 871.1250001920271 300.4023439359735 L 871.1235676160431 300.40154214395443 L 871.1260160000529 300.4006399999489 L 868.5660160000552 298.9670399999595 L 869.0781245440594 298.14843699196354 L 870.6155560960178 297.2275394559256 L 873.8906245120452 299.99218790396117 L 875.2220160000143 300.1958399999421 L 874.9151098880102 299.0705172479502 L 879.6249999360298 299.99218790396117 L 881.8750003200257 300.0937502719462 L 883.6171878400492 300.9140623359708 L 883.6141967360163 300.9104660479352 L 883.6188160000602 300.9126399999368 L 882.5948160000262 299.6838399999542 L 880.5480796160409 299.5815034879488 L 882.1852160000126 298.864639999927 L 883.4140160000534 298.9158399999724 L 883.766481920029 298.82038067193935 L 883.3125007360359 298.6601543679717 L 885.8750003200257 298.25000038393773 L 881.3671874560532 298.25000038393773 L 878.4218746880651 298.43359334394336 L 878.0911575040664 298.45282201597 L 878.8060160000459 297.63583999994444 L 877.5781253120513 297.94140671996865 L 876.4515082240105 297.6360284159309 L 875.0205603840295 297.02287359995535 L 875.938816000009 296.91903999994975 L 874.7123640320497 295.4860421119374 L 878.7036160000134 296.50943999993615 L 878.7000647680252 296.5070305279223 L 878.7031255040201 296.5078128639725 L 875.8387712000404 294.5644287999603 L 878.7036160000134 295.28063999995356 L 875.5312496640254 292.92578099196544 L 879.9324160000542 293.5398399999249 L 875.5312496640254 291.082031103957 L 875.938816000009 288.72703999996884 L 876.0937502720626 288.52343705593375 L 876.1422141440562 288.45584281592164 L 876.2460160000483 288.31743999995524 L 877.6796160000376 288.21503999992274 L 880.8540160000557 285.96223999996437 L 882.4924160000519 284.0166399999289 L 883.4140160000534 283.9142399999546 L 887.8182400000514 284.0166399999289 L 887.813841920055 284.0154757119599 L 887.8203125760192 284.0156252159504 L 884.3360552960658 283.09378047991777 L 885.8750003200257 278.6914058239199 L 881.26562508801 278.7929692159523 L 881.164062720025 278.4882810879499 L 881.265604608052 278.1797498879605 L 885.7734379520407 277.97656268795254 L 886.8984371200204 277.0546872319537 L 891.7094400000642 275.5174399999669 L 896.0102400000324 274.2886399999261 L 896.1383936000639 271.0848061439465 L 896.3125002240413 266.8124999679276 L 896.3125002240413 266.7321343999356 L 896.3142666240456 266.6879723519669 L 896.3203123200219 266.60937523195753 L 898.1606512640137 266.60937523195753 L 898.2630400000489 273.3670399999246 L 898.2651514880126 273.3366384639521 L 898.2656245760154 273.3671874559368 L 898.7749109760625 265.9960934399278 L 898.8359372800332 265.9960934399278 L 898.861890560016 265.9942399999709 L 900.8204093440436 265.9942399999709 L 900.921875456057 268.1445314559387 L 900.9245368320262 268.12567347195 L 900.9254400000209 268.14463999995496 L 901.1970938880113 266.2058905599406 L 901.2343746560509 265.1757813759614 L 903.1127040000283 265.28153599996585 L 903.6796876800363 264.8710932479589 L 903.7270773760392 264.5976565759629 L 905.0546872320119 264.5976565759629 L 906.0741120000603 264.55654399993364 L 907.1718400000245 264.0486399999354 L 909.1174420480384 264.04863897594623 L 909.2485120000201 264.9579519999679 L 909.4765629440662 265.38281267194543 L 909.4778880000231 265.38393599994015 L 909.6100812800578 265.20216985594016 L 909.8730485760607 264.846391295956 L 910.26550476806 265.47739852796076 L 910.7031255040201 266.1874995199614 L 911.0630400000373 267.42783999996027 L 911.7812500480213 267.5312496639672 L 911.8671872000559 265.4726563839358 L 911.9846400000388 262.5126399999717 L 913.1094753280631 262.5126399999717 L 913.2016998400213 263.3587967999629 L 913.4182400000282 265.3798399999505 L 914.7500001280569 265.5859374079737 L 914.95424000005 261.48863999993773 L 915.9765626880107 261.1819427839364 L 915.9765626880107 265.78906214394374 L 918.313975808036 266.45667532796506 L 918.8437504000613 266.60937523195753 L 917.1015628800378 270.6015621119295 L 917.1109130240511 270.58784767996985 L 917.1046400000341 270.60223999992013 L 920.382812160009 265.78906214394374 L 921.0478653440368 264.36129996791715 L 921.1015628800378 264.25390591996256 L 922.327040000062 264.3558399999165 L 922.7343749120482 268.75781222392106 L 922.7355228160159 268.7470346239279 L 922.7366400000174 268.75903999991715 L 923.1482828800217 264.8686571519356 L 924.170240000065 265.277439999918 L 925.6015626240405 265.9960934399278 L 925.7031249920256 268.75781222392106 L 925.7057341440232 268.7453798399656 L 925.7062400000286 268.75903999991715 L 926.218569728022 266.3016376319574 L 927.2422400000505 266.9158399999724 L 927.9590400000452 268.75903999991715 L 929.2890624000574 268.0429690879537 L 929.2890624000574 268.75781222392106 L 929.2902400000603 268.7574794239481 L 929.2902400000603 268.75903999991715 L 930.0065351680387 268.55504895997 L 929.4921871360275 269.3749995519174 L 930.5156249600113 268.8632811519201 L 930.826240000024 269.06623999995645 L 929.5937495040125 270.3984373759595 L 929.6006420480553 270.39397068793187 L 929.5974400000414 270.39743999997154 L 931.3382307840511 269.2710451199673 L 931.6454400000512 269.47583999997005 L 930.6214400000172 270.60223999992013 L 930.628920320014 270.59725311992224 L 930.6250004480244 270.6015621119295 L 932.1567948800512 269.5786700799363 L 934.8203120640246 272.24218726396793 L 933.7975736320368 270.50118860794464 L 934.7174400000367 271.2166399999405 L 935.3830963200307 271.9847055359278 L 936.0468746240367 272.75390668795444 L 936.0441190400161 272.7474227199564 L 936.0486400000518 272.7526399999624 L 935.7668904960155 272.0952248319518 L 935.4380349440617 271.32157030393137 L 937.8918400000548 272.9574399999692 L 934.2054400000488 269.27103999996325 L 931.3382400000119 267.0182399999467 L 930.0122214400326 267.426249727956 L 930.9296875520376 266.71093759994255 L 926.3203123200219 264.9687500799191 L 924.0678400000324 263.6390399999218 L 918.4382914560265 260.2613125119242 L 922.0234373120475 258.4179691519239 L 922.327040000062 258.31423999991966 L 922.8390400000499 258.31423999991966 L 927.8566400000127 260.87423999991734 L 932.7073280000477 266.06591999996454 L 935.1250001920271 268.65624985593604 L 935.1270400000503 268.65663999994285 L 938.4059525120538 267.0196797439712 L 940.6713487360394 268.5640826879535 L 941.1718748160638 268.906250239932 L 941.7109370880644 269.2773437439464 L 941.8579865600332 269.3729259519605 L 942.0156252160086 269.48437503993046 L 942.8203120640246 270.03125043195905 L 942.9071534080431 269.98893055994995 L 945.4684395520599 271.8318069759407 L 942.3974400000297 274.1862399999518 L 943.207424000022 275.2389119999716 L 943.5231610880583 275.41466214397224 L 943.4982400000445 275.4652159999241 L 943.4218752000597 275.5156254719477 L 943.4231623680098 275.51626854395727 L 943.4214400000637 275.5174399999669 L 944.1382400000584 275.824639999948 L 944.1406248960411 275.8242191359168 L 947.9277813760564 273.4699345919653 L 951.3046876160661 275.7226557439426 L 947.8246400000644 278.17983999993885 L 950.6918400000432 280.2278399999486 L 955.6070400000317 283.9142399999546 L 959.8054400000256 286.78246399993077 L 972.0937502720626 295.5898439679295 L 973.6294400000479 296.81766399997286 L 977.5230187520501 294.5666478079511 L 977.9292835840606 294.87134617596166 L 974.6534400000237 296.92006399994716 L 974.8593745920225 297.84374988795025 L 977.0297917440184 296.7558881279547 L 978.4756162560661 296.03297587193083 L 979.3600788480253 295.593376767938 L 976.803840000066 298.66086399991764 L 980.1808394240215 296.6141972479527 L 980.6945269760326 297.022813183954 L 977.8283530240296 298.9716541439411 L 978.0312504320173 299.99218790396117 L 979.6710400000447 299.68486399995163 L 979.8758400000515 300.5040639999206 L 983.6641986560426 298.5586903039366 L 984.3814400000265 299.07046399993123 L 980.6950400000205 301.5280639999546 L 983.8671872000559 304.3945308159455 L 990.0134400000097 305.93126399995526 L 988.3750000640284 307.16015615995275 L 989.3990400000475 307.67206399992574 L 994.8273285120376 302.86008012795355 L 995.2342282240279 303.1678566399496 L 989.9110400000354 307.77446399995824 L 991.9609374720603 307.57031219196506 L 995.2348712960375 304.80568115192 L 996.2578124800348 306.85156249592546 L 995.6031631360529 308.56923955195816 L 995.6073062400101 308.56576511997264 L 995.4406400000444 309.0032639999408 L 991.0374400000437 310.0272639999166 L 991.546874880034 310.43749990395736 L 995.0648320000619 309.5838719999301 L 996.5670400000527 309.2080639999476 L 997.6940533760353 306.14015590393683 L 997.3862400000216 309.2080639999476 L 997.2838400000473 311.4608639999642 L 993.3926400000346 311.1536639999249 L 995.2358400000376 312.7920639999211 L 998.9222400000435 312.7920639999211 L 998.923264000041 304.4976639999659 L 999.3328988160356 304.60078796796734 L 999.6390400000382 311.0512639999506 L 999.843840000045 312.6896639999468 L 1000.0496640000492 304.90726399992127 L 1000.4592640000628 304.90726399992127 L 1000.8678400000208 313.6112639999483 L 1001.1760640000575 305.62406399997417 L 1001.4832640000386 305.62406399997417 L 1001.687040000048 313.508863999974 L 1002.097664000059 305.72646399994846 L 1002.7120640000212 305.72646399994846 L 1002.7120640000212 311.5632639999385 L 1002.4048640000401 312.8944639999536 L 1001.4822400000412 314.0208639999619 L 1003.1206400000374 315.55686399992555 L 1004.9648640000378 315.76166399993235 L 1005.6816640000325 307.05766399996355 L 1008.0368640000233 308.18406399997184 L 1007.4224640000612 316.37606399995275 L 1007.3200640000287 317.60486399993533 L 1007.5248640000354 319.0384639999247 L 1008.8560640000505 319.8576639999519 L 1009.6752640000195 319.9600639999262 L 1009.777664000052 316.27366399992025 L 1010.2896640000399 309.6176639999612 L 1011.5184640000225 310.2320639999234 L 1010.8016640000278 314.94246399996337 L 1010.9040640000603 318.6288639999693 L 1010.4944640000467 318.8336639999179 L 1010.3920640000142 320.5744639999466 L 1012.2352640000172 322.7248639999307 L 1011.9280640000361 323.54406399995787 L 1010.6992640000535 321.7008639999549 L 1009.8800640000263 321.5984639999224 L 1009.3680640000384 323.03206399997 L 1008.9584640000248 323.95366399997147 L 1009.6752640000195 324.05606399994576 L 1010.3920640000142 323.03206399997 L 1011.3136640000157 324.46566399995936 L 1013.7712640000391 324.05606399994576 L 1021.4512640000321 325.59206399996765 L 1024.0 325.3334965796821" fill="none"/><path stroke="#000000" stroke-width="2" d="M 1024.0 309.6791551999413 L 1022.2704640000593 308.90086399996653 L 1020.7344640000374 308.90086399996653 L 1011.4160640000482 306.13606399996206 L 1007.3200640000287 303.1664639999508 L 1010.596864000021 300.7088639999274 L 1015.8192640000489 302.0400639999425 L 1024.0 306.8341512257175" fill="none"/></svg>