<svg xmlns="http://www.w3.org/2000/svg" width="1024" height="1024"><rect stroke="none" x="0" y="0" width="1024" height="1024" fill="white"/><path stroke="#000000" stroke-width="2" d="M 445.70929664008145 1024.0 L 445.64828160003526 1023.8851481599268 L 444.82908160000807 1022.1443481599563 L 443.1906816000701 1019.5843481598422 L 440.1186816000845 1015.0787481599837 L 441.2450816000346 1008.5251481599407 L 438.99228160001803 1005.0435481598251 L 432.2338816000847 1003.5075481598615 L 431.00508160010213 1001.8691481598653 L 428.75228160002735 996.6467481599539 L 430.08348160004243 992.5507481598761 L 430.49308160011424 987.1235481599579 L 429.57148160005454 983.8467481598491 L 427.42108160001226 975.5523481598939 L 426.49948160001077 971.9683481598622 L 425.475481600035 968.0771481598495 L 424.4514816000592 965.0051481599803 L 421.3794816000154 962.1379481599433 L 415.4402816001093 958.9635481599253 L 413.4946816000156 957.1203481598641 L 412.4706816000398 952.9219481599284 L 410.93468160001794 947.5971481598681 L 409.50108160008676 944.83234815998 L 407.453081600077 941.1459481599741 L 405.8146816000226 938.8931481598411 L 403.15228160010884 936.7427481600316 L 396.4962816000916 932.5443481598631 L 383.49148160009645 924.1475481598172 L 381.13628160004737 923.0211481599254 L 367.31227648002096 923.2259502079687 L 360.9634816000471 906.329948159866 L 348.77788160013733 901.4147481598775 L 345.80828160000965 900.6979481598828 L 342.9410816000309 899.1619481599191 L 336.69468160008546 897.3187481598579 L 331.1650816000183 895.8851481598685 L 327.88828160002595 894.8611481598928 L 310.17308160010725 888.8195481598377 L 297.3730816000607 884.2115481598303 L 289.59068160003517 878.6819481598213 L 288.8738816000405 874.2787481598207 L 287.5426816000254 871.5139481598744 L 269.110681600112 858.7139481598279 L 264.50268160010455 855.6419481599587 L 262.55708160001086 854.925148159964 L 258.8706816001213 854.8227481598151 L 255.79868160007754 855.1299481599708 L 243.20348160003778 855.9491481598816 L 236.03548160003265 855.0275481598801 L 232.4514816000592 853.0819481598446 L 230.81308160012122 849.1907481598901 L 229.37948160001542 843.7635481599136 L 226.61468160006916 839.2579481598223 L 225.28348160005407 836.8003481598571 L 225.38588160008658 833.0115481599933 L 225.79548160004197 829.3251481598127 L 224.77148160000797 826.5603481598664 L 223.1330816001282 823.0787481599255 L 221.8018816000549 821.2355481598643 L 220.06108160008444 820.1091481599724 L 211.35708160011563 817.4467481600004 L 184.73308160004672 786.9315481599187 L 178.3842816000688 780.9923481599544 L 168.2466816001106 771.2643481600098 L 165.78908160002902 768.2947481598239 L 155.65148160007084 755.9043481598492 L 152.78428160003386 752.2179481598432 L 149.2002816000604 744.7427481600316 L 145.71868160006125 742.0803481598268 L 132.81628160004038 727.8467481599073 L 127.59388160007074 725.4915481598582 L 124.93148160004057 725.5939481599489 L 110.28828160010744 726.8227481599315 L 106.70428160013398 725.2867481598514 L 105.37308160006069 723.2387481598998 L 102.19868160004262 717.0947481599869 L 99.33148160012206 711.0531481599319 L 94.5186816000496 705.011548159935 L 87.76028160005808 703.5779481598875 L 79.26108160003787 704.3971481600311 L 69.73788160004187 703.5779481598875 L 67.6898816000321 702.2467481598142 L 62.36508160002995 696.3075481598498 L 61.033881600014865 693.3379481598968 L 59.39548160007689 689.7539481598651 L 53.14908160001505 675.3155481599388 L 55.606681600096636 664.5635481599602 L 55.19708160002483 662.2083481599111 L 46.390681600081734 650.2275481600082 L 30.723481600056402 649.3059481599485 L 19.459481600031722 639.8851481599268 L 16.48988160007866 637.7347481598845 L 3.075481600011699 627.3923481598031 L 0.0 625.1751404947281" fill="none"/><path stroke="#408040" stroke-width="3" d="M 1024.0 946.8405298107937 L 644.99712 843.1923199999983 L 540.5593599999993 805.5807999999997 L 492.9843200000032 819.3433599999989 L 434.75968000000285 822.2720000000008 L 313.9174400000047 844.0832000000009 L 229.90847999999824 790.5587200000009 L 175.06303999999363 719.5648000000001 L 106.97728000000643 667.3100799999993 L 0.0 591.3170019308891" fill="none"/></svg>