<svg xmlns="http://www.w3.org/2000/svg" width="1024" height="1024"><rect stroke="none" x="0" y="0" width="1024" height="1024" fill="white"/><path stroke="#000000" stroke-width="2" d="M 0.0 0.8067481599282473 L 13.622681600041687 0.8067481599282473 L 35.742187520023435 0.9101557759568095 L 61.34375014406396 1.0117191679310054 L 88.37500006402843 1.0117191679310054 L 109.67187456000829 0.9101557759568095 L 120.42968780803494 1.0117191679310054 L 123.90624972805381 1.0117191679310054 L 127.07812454405939 0.9101557759568095 L 142.1328128000605 0.9101557759568095 L 165.81025792006403 0.8248934399452992 L 185.96977664006408 0.8248934399452992 L 226.2187499520369 0.8554690559394658 L 261.5078123520361 0.8085934079717845 L 283.9609374720603 0.9101557759568095 L 327.1718748160638 0.9101557759568095 L 350.0066816000617 0.8067481599282473 L 383.59388160001254 0.7043481599539518 L 420.35548160003964 0.8067481599282473 L 440.3234816000331 0.7043481599539518 L 485.5859558400116 0.7043543039471842 L 511.59388160001254 0.8067481599282473 L 539.7538816000451 0.7043481599539518 L 643.4850816000253 0.7043481599539518 L 664.4770816000528 0.6019481599214487 L 687.8242816000129 0.6019481599214487 L 713.4218752000597 0.49999974394449964 L 767.5937495040125 0.49999974394449964 L 842.3458816000493 0.2947481599403545 L 845.9894200320123 0.24803635192802176 L 857.8275532800471 0.22755327995400876 L 880.8716083200416 0.19234815996605903 L 1019.9074816000648 0.19234815996605903 L 1023.898442752019 0.09001574391731992 L 1024.0 0.08951321701897541" fill="none"/></svg>