<svg xmlns="http://www.w3.org/2000/svg" width="1024" height="1024"><rect stroke="none" x="0" y="0" width="1024" height="1024" fill="white"/><path stroke="#408040" stroke-width="3" d="M 362.732535777046 0.0 L 362.13760000000184 2.9798399999999674 L 363.1206399999937 64.61439999999857 L 371.12832000000344 106.34240000000136 L 391.0860799999937 168.66303999999946 L 394.40383999999904 199.0758399999977 L 382.4640000000072 226.42687999999907 L 385.7920000000013 249.78431999999884 L 381.05087999999523 265.8816000000006 L 361.90207999999984 299.4585599999991 L 362.58815999999933 326.29759999999806 L 369.26463999999396 346.65471999999863 L 440.9753599999967 381.8188799999989 L 476.9792000000016 411.48416 L 497.36703999999736 431.8105599999981 L 538.357759999999 477.736960000002 L 555.4073599999974 503.6646400000027 L 567.0809600000066 521.4207999999999 L 595.3331199999957 531.9270400000023 L 626.7187200000044 549.0892800000001 L 632.1561599999986 561.2134399999995 L 629.2684799999988 572.7948800000013 L 629.0739199999953 605.9315199999983 L 623.6159999999945 633.0675199999969 L 614.8505600000062 674.2732800000013 L 621.383679999999 724.1215999999986 L 626.0531199999969 765.3580799999982 L 632.0742400000017 783.7286400000012 L 652.7692799999932 810.3731199999966 L 673.7612800000061 848.3225600000005 L 681.8508799999981 860.6924799999979 L 679.7926399999997 878.7967999999964 L 678.840320000003 937.8508799999981 L 682.0792793115543 1024.0" fill="none"/></svg>