<svg xmlns="http://www.w3.org/2000/svg" width="1024" height="1024"><rect stroke="none" x="0" y="0" width="1024" height="1024" fill="white"/><path stroke="#000000" stroke-width="2" d="M 976.156678457206 0.0 L 976.179687424039 1.113281535974238 L 976.1826723840204 1.113510911935009 L 989.4921871360275 2.136718335968908 L 996.0468746240367 2.136718335968908 L 1023.2890624000574 2.242187263967935 L 1024.0 2.242187263967935" fill="none"/><path stroke="#000000" stroke-width="2" d="M 1024.0 2.242187263967935 L 1023.2890624000574 2.242187263967935 L 996.0468746240367 2.136718335968908 L 989.4921871360275 2.136718335968908 L 976.1826723840204 1.113510911935009 L 976.179687424039 1.113281535974238 L 976.156678457206 0.0" fill="none"/><path stroke="#408040" stroke-width="3" d="M 624.7594421663962 0.0 L 612.8435199999949 8.325120000001334 L 579.4815999999992 26.869760000001406 L 574.2592000000004 31.692799999997078 L 580.2495999999956 37.857279999996535 L 592.6399999999994 51.43551999999909 L 604.6208000000042 65.38240000000224 L 603.4022399999958 79.65696000000025 L 618.0351999999984 101.58080000000336 L 624.2304000000004 130.20160000000033 L 623.8310400000046 173.02528000000166 L 616.2636800000037 186.94144000000233 L 598.9273600000015 195.85023999999976 L 573.0611199999985 201.73823999999877 L 558.2336000000068 218.03007999999681 L 545.7510400000028 227.34848000000056 L 541.5628799999977 240.91647999999986 L 541.6345600000059 254.78143999999884 L 532.9407999999967 266.10687999999936 L 508.4569599999959 277.42207999999664 L 481.62815999999293 283.51488000000245 L 454.09279999999853 268.05247999999847 L 435.0361600000033 250.65471999999863 L 393.87136000000464 252.64128000000346 L 338.6982399999979 267.03871999999683 L 295.4035200000071 254.85311999999976 L 229.5295999999944 284.62079999999696 L 215.5929599999945 294.66623999999865 L 195.4611200000072 292.3622400000022 L 131.71712000000116 287.9283199999991 L 99.61471999999776 287.4777600000016 L 99.15391999999702 262.9324800000031 L 106.22976000000199 258.69312000000355 L 108.58495999999286 249.5590400000001 L 111.61599999999453 244.96128000000317" fill="none"/><path stroke="#408040" stroke-width="3" d="M 78.75223173755512 0.0 L 102.85056000000623 15.267840000000433 L 110.75583999999799 31.969279999997525 L 111.15519999999378 55.79776000000129 L 111.48287999999593 78.90944000000309 L 110.26432000000204 100.50559999999678 L 105.758719999998 117.07392000000254 L 105.1443200000067 132.52608000000328 L 89.97887999999512 153.04703999999765 L 85.75999999999476 178.94400000000314 L 79.14496000000509 190.48447999999917 L 82.12480000000505 205.27103999999963 L 90.78784000000451 221.67551999999705 L 88.22784000000684 240.47615999999834 L 87.05023999999685 244.49023999999918 L 92.36479999999574 245.0636799999993 L 111.61599999999453 244.96128000000317" fill="none"/><path stroke="#408040" stroke-width="3" d="M 0.0 237.69351737188117 L 0.06144000000494998 237.71136000000115 L 5.703680000005988 239.9846400000024 L 13.434880000000703 241.244160000002 L 38.60480000000098 240.9369599999991 L 52.531199999997625 240.09728000000177 L 61.52191999999923 239.52384000000166 L 66.36543999999412 239.89248000000225 L 75.16160000000673 241.1212799999994 L 83.82464000000618 241.20320000000356 L 85.90335999999661 242.0121599999984 L 86.5382399999944 242.95423999999912 L 86.7737599999964 245.5142399999968 L 87.33696000000054 247.7465599999996 L 88.61695999999938 248.8729600000006 L 92.0576000000001 249.4771200000032 L 103.27039999999397 249.5590400000001 L 108.22655999999552 249.5590400000001 L 111.51360000000568 249.54879999999685 L 111.62623999999778 246.20032000000356 L 111.54432000000088 245.0124799999976" fill="none"/><path stroke="#408040" stroke-width="3" d="M 241.61157568603812 1024.0 L 243.2511999999988 1004.8204800000021 L 246.241280000002 994.6419200000018 L 256.72703999999794 984.0435199999993 L 276.5619199999928 964.6796800000011 L 309.93408000000636 931.2460799999972 L 360.79615999999805 890.9721599999975 L 362.11711999999534 834.252800000002 L 355.2256000000052 818.206720000002 L 338.7801599999948 799.3036799999973 L 322.6009599999961 784.1689600000027 L 312.2176000000036 770.5599999999977 L 304.43520000000717 759.4393599999967 L 293.7344000000012 748.7488000000012 L 281.2415999999939 731.4636800000007 L 280.8217600000062 707.1744000000035 L 277.6371199999994 692.0294399999984 L 263.34208000000217 682.5676800000001 L 224.5017599999992 657.663999999997 L 179.47647999999754 634.3372799999997 L 168.8883199999982 622.9094400000031 L 152.36096000000543 612.0038399999976 L 112.09728000000177 582.5945599999977 L 89.86624000000302 563.5174400000033 L 89.66143999999622 547.4611199999999 L 107.25376000000688 524.9536000000007 L 111.61599999999453 512.7782399999996 L 111.68768000000273 489.0726399999985 L 102.97344000000157 443.8220799999981 L 97.93536000000313 405.91359999999986 L 97.57696000000578 375.7670399999988 L 101.1302399999986 338.0838399999993 L 99.52255999999761 305.0700799999977 L 98.25280000000203 261.98015999999916 L 92.45695999999589 255.72351999999955 L 92.76416000000609 249.9276800000007 L 111.62623999999778 248.43263999999908 L 111.54432000000088 245.0124799999976" fill="none"/></svg>