<svg xmlns="http://www.w3.org/2000/svg" width="1024" height="1024"><rect stroke="none" x="0" y="0" width="1024" height="1024" fill="white"/><path stroke="#000000" stroke-width="2" d="M 817.9062497280538 978.4921876479639 L 818.3750000640284 978.656249855936 L 819.350528000039 978.4903679999406 L 819.6172840960207 978.5826672639232 L 819.6352624640567 978.7013253119658 L 819.6536320000305 978.841599999927 L 819.5156254720641 979.0273433599505 L 819.3515622400446 979.1445309439441 L 819.2624640000286 979.1795199999469 L 818.6093752320157 979.4257817599573 L 818.2077440000139 979.730431999953 L 817.7715200000093 979.870719999948 L 817.5384401920601 979.894028287963 L 817.335937024036 979.7304688639706 L 817.2031252480228 979.3789061119314 L 816.53125017602 979.2382812159485 L 816.4341186560341 979.0278287359397 L 816.393216000055 978.9347839999245 L 816.2578124800348 978.8398438399308 L 814.2755840000464 978.7955199999269 L 814.0738560000318 978.7013119999319 L 814.0078120960388 978.4218746879487 L 814.2740889600245 978.2812293119496 L 815.7890621440602 978.2343751679291 L 816.390625280037 978.0703129599569 L 817.164062720025 977.9999999999418 L 817.9062497280538 978.4921876479639" fill="none"/><path stroke="#000000" stroke-width="2" d="M 727.6171878400492 952.6328125439468 L 725.968749568041 952.656249855936 L 724.4241100800573 952.469021695957 L 724.2265620480175 952.3046871039551 L 724.1563422720646 951.9769907199661 L 724.3584532480454 951.7665822719573 L 724.562499584048 951.6992184319533 L 725.8046873600106 951.7226557439426 L 727.7187502080342 951.9804692479665 L 727.8221916160546 952.0676556799444 L 727.9892480000271 952.2124799999292 L 727.9721123840427 952.3313879039488 L 727.9531253760215 952.445311999938 L 727.6171878400492 952.6328125439468" fill="none"/><path stroke="#000000" stroke-width="2" d="M 567.3607362560579 947.8625279999687 L 566.9908480000449 947.8625279999687 L 566.7891200000304 947.7693439999712 L 566.8229120000615 947.2778239999316 L 567.1260160000529 946.7863039999502 L 567.7656248320127 946.1328127999441 L 567.9441387520637 946.0169687039452 L 568.1346560000675 945.8964479999267 L 568.7031255040201 945.8984376319568 L 568.7717017600662 945.9651092479471 L 568.8401920000324 946.0367359999218 L 568.8401920000324 946.3644159999676 L 568.6718750720611 946.5976565759629 L 568.6718750720611 947.1367188479635 L 568.5703127040179 947.183593471942 L 568.1015623680432 947.2773437439464 L 567.8653440000489 947.5819519999204 L 567.3607362560579 947.8625279999687" fill="none"/><path stroke="#000000" stroke-width="2" d="M 0.0 334.99472965351015 L 0.6768640000373125 334.95859199995175 L 1.0629120000521652 334.9063679999672 L 3.070312448020559 334.4609372159466 L 5.078124544059392 334.15625011193333 L 6.398437376017682 333.8750003199675 L 7.968749568040948 333.5000002559391 L 9.664062464027666 333.1015628799214 L 12.350464000017382 332.2787839999655 L 14.151680000009947 331.8804479999235 L 14.900224000040907 331.76268799992977 L 17.143808000022545 331.24761599994963 L 20.06732800003374 330.33318399993004 L 22.073344000033103 329.63071999995736 L 24.793088000034913 328.7162879999378 L 27.649024000042118 327.94214399997145 L 28.635136000055354 327.8018559999182 L 29.03921152005205 327.8018559999182 L 29.3124997120467 329.7695313919685 L 29.35091200005263 330.4929279999342 L 29.459207168023568 330.6419363839668 L 29.48437504004687 330.6796871679253 L 29.48437504004687 330.9609379839385 L 28.874999808031134 331.0546872319537 L 27.00781260803342 331.078124543943 L 26.781249536026735 331.183593471942 L 26.562499584048055 331.28906239994103 L 25.850620928045828 332.22657843196066 L 25.62499993602978 332.2304686079733 L 25.406464000057895 332.2367999999551 L 21.123072000045795 332.32281599997077 L 20.476928000047337 332.48665599996457 L 19.39062476804247 333.3281249279389 L 18.74218700802885 333.60937471996294 L 17.726562304014806 333.93750015995465 L 16.78906265605474 334.3710935039562 L 16.926644224033225 335.4253281279234 L 16.97656217601616 335.4609377279412 L 16.97656217601616 335.51953100797255 L 17.488465920032468 336.0919920639717 L 17.624064000032376 336.1853439999395 L 17.67747174401302 336.3148165119346 L 18.06643200002145 336.7935999999172 L 18.358772736042738 337.03816089592874 L 18.5390622720588 337.19140659197 L 19.05468723201193 337.5429683199618 L 20.039062528056093 337.84765644796425 L 23.678976000053808 338.4063999999198 L 24.906250240048394 338.3593748479616 L 25.85395200003404 338.14835199993104 L 26.124999680032488 338.11718758393545 L 26.43251200002851 338.0787199999322 L 26.4530513920472 338.0500889599207 L 26.468750336032826 338.03125043195905 L 26.5000960000325 337.98451199993724 L 26.87385600002017 337.8913279999397 L 28.640624640043825 337.8671871999395 L 29.252295680053066 337.6092661759467 L 31.2265625600121 337.5156254719477 L 34.04687462403672 336.9531248639687 L 35.95312537602149 336.48437452793587 L 38.09375027206261 336.15625011193333 L 38.14064128004247 336.1464811519254 L 40.25781248003477 335.7812500479631 L 43.2265625600121 335.2656250879518 L 44.484374528052285 334.79687475191895 L 46.11718758405186 333.9062497279374 L 46.490783744025975 333.9062497279374 L 46.52343705605017 333.97656268795254 L 46.796874752035365 333.88281241594814 L 47.30675200006226 333.5075839999481 L 47.429627904028166 333.3172643839498 L 47.445312512048986 333.29687449592166 L 47.51562547206413 333.24999987194315 L 47.68051200004993 333.132799999963 L 47.95289600006072 332.8051199999172 L 48.0542720000376 332.5716479999246 L 47.98668800003361 332.10265599994455 L 47.57811200001743 331.65823999996064 L 47.54687488003401 331.5664066559402 L 47.527215104026254 331.5192227839725 L 47.50950400001602 331.4708479999681 L 47.485084672051016 331.25958553596865 L 47.445312512048986 330.88671846396755 L 48.0542720000376 330.4652799999458 L 52.91724800004158 329.224191999936 L 53.393408000061754 329.1770879999385 L 55.53561600006651 328.7787519999547 L 59.92187494406244 327.5625000959262 L 61.382812672061846 327.21093734394526 L 63.25781299202936 326.6484377599554 L 71.71875020803418 324.42578124796273 L 73.66406246402767 323.83984332793625 L 77.56250009604264 322.88671846396755 L 77.77587200002745 322.83340799994767 L 81.85856000002241 322.15449599997373 L 84.85156249604188 321.71093708794797 L 87.30009600002086 321.2431359999464 L 91.65625036804704 320.8242186239222 L 101.89062451204518 319.35156223992817 L 106.24614400003338 318.8602879999671 L 112.7426682880614 317.76166399993235 L 117.88281241606455 317.1796879359172 L 120.6005760000553 316.6883839999209 L 123.24999987205956 316.550780927937 L 125.02220800000941 316.5040639999206 L 127.83593779202783 316.76171878393507 L 130.10534400003962 316.87577599997167 L 132.9609379840549 316.8984371199622 L 137.48531200003345 317.10617599997204 L 138.4531251200242 317.20703078393126 L 138.84620800003177 317.2464639999671 L 144.7987200000207 317.5475199999637 L 145.9140628480236 317.6328120319522 L 148.20312473602826 317.80468735995237 L 151.09222400002182 317.91923199995654 L 153.81299200002104 317.9182079999591 L 158.43749990401557 318.1992191999452 L 162.75763200002257 318.57049599994207 L 174.59375001606531 320.3710935039562 L 176.53125017601997 320.558594047965 L 178.33593753603054 320.7695308799739 L 184.18749952001963 321.98437478393316 L 187.723776000028 322.5210879999213 L 190.17216000001645 323.03615999995964 L 191.94060800003354 323.27065599994967 L 194.04687462403672 323.644531711936 L 196.83593728003325 324.3710935039562 L 200.24218726402614 324.7695308799739 L 202.38131200004136 325.095423999941 L 203.84358400001656 325.42310399992857 L 206.22438400005922 325.79788799997186 L 208.67276800004765 326.3600639999495 L 209.99884800001746 326.5710079999408 L 220.2009600000456 327.60217599995667 L 222.61452800006373 327.69638399995165 L 224.60416000004625 327.97747199994046 L 224.85913600004278 328.047615999938 L 233.19040000002133 328.8217599999625 L 236.04633600002853 328.9159679999575 L 238.3593748480198 329.10546841594623 L 241.0792960000108 329.19961599993985 L 243.11910400004126 329.3173759999336 L 246.82812518405262 329.6953128959285 L 248.01562521606684 329.88281241594814 L 255.37945600005332 330.37516799994046 L 255.84374988806667 330.38671871996485 L 256.83593728003325 330.2812497919658 L 259.1825920000556 330.32601599994814 L 264.52343705605017 330.6289059839328 L 266.493952000048 330.79091199993854 L 276.0151040000492 330.55129599996144 L 283.66406246402767 330.5039063039585 L 286.65624985605245 330.6406246399274 L 292.43749990401557 330.5937500159489 L 298.69531238405034 329.98437478393316 L 303.14843750401633 329.2812503039604 L 305.5984640000388 329.2313599999179 L 307.5706880000653 328.9507839999278 L 313.5897600000608 328.69273599993903 L 314.4744960000389 328.552447999944 L 316.0719360000221 328.52889599994523 L 318.8281251840526 328.1796874239226 L 322.9062502400484 327.96874956792453 L 328.96102400001837 327.73222399991937 L 330.2777456640615 327.65163519995986 L 330.8671877120505 327.61718783993274 L 333.5859374080319 327.71093708794797 L 335.0781245440594 327.66406246396946 L 337.8370560000185 327.2427519999328 L 339.1969280000194 327.26630399993155 L 342.7338240000536 327.3594879999291 L 344.4999997440609 327.4531246079714 L 349.7728000000352 327.5007999999216 L 351.4736640000483 327.43116799992276 L 355.24999987205956 327.57421875192085 L 359.3593753600144 327.87890585593414 L 360.6875002880115 328.0429690879537 L 362.96875008003553 328.24218726396793 L 363.2421877760207 328.277344255941 L 365.4154240000644 328.27801599993836 L 368.00781209603883 328.42187468794873 L 370.5859379200265 328.7734374399297 L 377.0449920000392 328.7511039999663 L 379.7309440000099 328.77465599996503 L 380.71705600002315 328.72857599996496 L 381.7343754240428 328.75390668795444 L 383.47656294406625 328.8710932479589 L 383.6631040000357 328.86425599997165 L 384.4372480000602 328.84531199996127 L 389.16406272002496 329.4531246079714 L 392.2595840000431 329.5436799999443 L 393.31328000006033 329.6604159999406 L 397.8700800000224 329.9614719999372 L 400.11531980801374 330.03119206393603 L 402.11718758405186 330.31250022392487 L 402.9062502400484 330.33593753597233 L 403.72019200003706 330.38028799992753 L 406.47656243201345 330.9648435199633 L 408.1406248960411 331.1523440639721 L 414.1249996800325 332.1093754879548 L 416.6082560000359 332.62182399997255 L 419.19531212805305 332.9960939519224 L 422.56249958404806 333.183593471942 L 428.13644800003385 333.1112959999591 L 432.35225600004196 333.321215999953 L 436.0937502720626 333.2734371839324 L 438.43749990401557 333.15624959993875 L 441.02343782404205 332.94530969596235 L 445.2044800000149 332.734463999921 L 448.8757596160285 332.734463999921 L 450.27123200002825 332.898303999973 L 454.3203123200219 333.085937663971 L 456.15625011204975 333.29687449592166 L 462.7187496960396 333.15624959993875 L 462.98437529604416 333.10937497596024 L 463.93750016001286 333.0625003519235 L 466.11718758405186 333.6249999359716 L 467.07031244802056 333.6484372479608 L 468.4625920000253 333.5546879999456 L 475.7043200000189 333.321215999953 L 476.89420800004154 333.41439999995055 L 477.9827200000291 333.4379519999493 L 484.2734376960434 333.0429685759591 L 489.6796876800363 332.8828129279427 L 494.5390622720588 332.34374963195296 L 497.80736000003526 332.11084799992386 L 502.2578124800348 331.9960934399278 L 502.87499980803113 331.9492188159493 L 510.5937500160653 331.34375014394755 L 511.8627840000554 331.0735359999235 L 512.8281251840526 330.80468787194695 L 515.9864320000634 330.2399999999325 L 517.0078126080334 330.1015623679268 L 518.3662080000504 329.7710079999524 L 519.8612480000593 329.3255679999711 L 523.7370880000526 328.31795199995395 L 526.5254400000558 327.871487999917 L 529.0078126080334 327.5664066559402 L 530.3359375360305 327.2382812159485 L 532.8148480000673 326.3938559999224 L 536.4869120000512 324.9182719999226 L 538.562499584048 324.12109414394945 L 541.9612160000252 322.99724799994146 L 543.2187504640315 322.20312473597005 L 544.6796871680417 321.5468748799176 L 547.4687498240382 320.7031255039619 L 549.648437248019 320.2812497919658 L 549.6892221440212 320.26571775996126 L 551.8551040000166 319.5770879999618 L 552.7038883840432 319.2498462719377 L 555.2578129920294 318.7343749119318 L 559.8515630080365 317.98437478393316 L 562.2958080000244 317.2823039999348 L 565.4589440000127 316.43852799996966 L 568.9296875520376 315.48046847991645 L 569.6406251520384 315.1523440639721 L 571.2752640000544 314.3321599999326 L 575.6953128960449 312.43749990395736 L 579.1662080000388 311.2427519999328 L 581.4140620800317 310.60937523195753 L 582.7031255040201 310.07421849592356 L 585.5948800000479 308.66841599997133 L 587.4329600000638 308.1062399999355 L 589.8437498880667 307.47656294394983 L 591.343750144064 307.19531212793663 L 595.5962880000588 306.18931199994404 L 597.8081280000624 305.9537919999566 L 598.5937500160653 305.79296870395774 L 598.7942400000175 305.7909759999602 L 599.0625003520399 305.6914063359727 L 601.2109373440617 305.20703078393126 L 602.3359375360305 304.902343679918 L 606.3125002240413 303.89843763195677 L 609.1406254080357 303.42968729592394 L 612.0632320000441 302.7281919999514 L 617.100288000016 301.3488639999414 L 619.1796879360336 300.6484377599554 L 620.6406246400438 300.0156252159504 L 620.710937600059 299.96874956792453 L 622.2031247360283 299.4101565439487 L 627.1406254080357 297.8671871999395 L 628.2280960000353 297.44537599995965 L 630.4374999040156 296.8164065279416 L 633.7109370880644 295.9960934399278 L 635.5793920000433 295.66873599996325 L 637.0937497600098 295.1679682559334 L 637.2812503040186 295.15624959993875 L 637.4296872960404 295.10546841594623 L 638.6093752320157 294.94531276792986 L 639.8750003200257 294.6289059839328 L 641.3046876160661 294.33593753597233 L 643.2109373440617 293.70312499196734 L 645.3203128320165 293.11718707194086 L 649.7902919680346 291.31281817593845 L 651.2940871680621 291.7024030719185 L 650.8984371200204 292.3164057599497 L 649.9453122560517 292.8085934079718 L 649.164062720025 293.0898442239268 L 647.7343754240428 293.1367188479635 L 647.5625000960426 293.30078105593566 L 647.4609377280576 293.7226557439426 L 647.5061913600657 293.88751052797306 L 647.5663360000472 294.1214719999698 L 647.7701120000565 294.37849599996116 L 649.5068160000374 295.26732799992897 L 651.0039040000411 295.96876799996244 L 652.8749998080311 296.4140625919681 L 653.6253440000582 296.52889599994523 L 654.5100800000364 296.458239999949 L 655.2913920000428 296.1991679999628 L 655.8046873600106 295.89453107194277 L 655.9718400000129 295.6728319999529 L 656.686080000014 295.2161279999418 L 657.978368000011 294.8884479999542 L 658.390625280037 294.6289059839328 L 658.8282880000188 294.2320639999234 L 659.0620549120358 293.8102292479598 L 659.1015628800378 293.7421875199652 L 659.2734371840488 293.085937663971 L 659.2348160000402 292.3130879999371 L 659.1328122880659 292.07812505593756 L 658.8281251840526 291.7265623039566 L 658.4455710720504 291.47914956795285 L 658.1114880000241 291.2604159999173 L 656.5468753920286 290.98046873597195 L 655.2862720000558 291.0740479999222 L 653.4843750400469 291.28515583992703 L 652.6488729600096 291.54283417592524 L 651.8906245120452 291.20703078393126 L 651.8764328960096 291.19283916795393 L 651.8543278080178 291.1666329599684 L 651.8007101440453 291.056092159939 L 651.7734379520407 290.9960939519224 L 651.6093747200212 290.8749998079729 L 651.023437824042 290.1796874239226 L 651.8508175360621 289.6490864639636 L 653.0734080000548 289.60153599997284 L 653.8906245120452 289.5546879999456 L 655.4921871360275 289.1328122879495 L 657.3281249280553 288.33593753597233 L 659.2993280000519 287.4695679999422 L 662.7696640000213 286.1342719999375 L 664.2116761600482 285.5875409919536 L 665.1171870720573 285.24609331192914 L 665.7265623040148 284.94140620797407 L 667.2261120000621 284.3535359999514 L 668.2122240000172 283.83743999997387 L 672.2263040000107 281.84780799993314 L 674.6419200000237 280.86374399997294 L 678.0456960000447 279.50591999996686 L 681.9932160000317 278.218751999957 L 688.0163840000168 275.9700479999301 L 691.015624704014 274.9882808319526 L 692.6093752320157 274.4023439359735 L 693.7681920000468 273.8862079999526 L 696.1162240000558 272.8806399999303 L 697.445312512049 272.2265620479593 L 700.3359375360305 271.1484375039581 L 703.1961600000504 270.16499199991813 L 705.171456000011 269.29868799995165 L 707.6904960000538 268.0115199999418 L 710.3109120000154 266.93529599992326 L 711.2968744960381 266.445311999938 L 712.0156252160668 266.0937502719462 L 715.0090240000281 265.06342399993446 L 718.2734376960434 264.1992191999452 L 719.8437498880667 263.8710937599535 L 721.7848320000339 263.0512639999506 L 722.4528076800634 262.7645695999381 L 723.4218752000597 262.35156275192276 L 724.9843752960442 261.88281241594814 L 727.1976960000466 261.4845439999481 L 728.9006080000545 261.0636799999629 L 731.3515622400446 260.550780927937 L 733.5312496640254 259.9648440319579 L 737.1069440000574 259.14572799997404 L 741.7036800000351 257.81350399996154 L 744.8359372800332 257.1367188479635 L 745.9604244480142 256.9727313919575 L 747.6633600000641 256.8560639999341 L 750.1484369920217 255.98046924796654 L 753.4479360000114 254.6411519999383 L 756.0000000000582 253.7773434879491 L 758.0456960000447 253.33247999992454 L 760.7890626560547 252.53906227194238 L 762.5420800000429 252.65663999994285 L 763.2906240000157 252.60953599994536 L 767.8828124160646 252.0039065599558 L 769.8800640000263 251.67257599992445 L 771.1395840000478 251.50873599993065 L 773.0114560000366 251.20358399994439 L 774.3437496320112 251.06250035192352 L 778.7663360000588 250.91993599996204 L 780.706816000049 250.73151999997208 L 781.6939520000597 250.52057599992258 L 786.3255040000658 249.9809279999463 L 789.8671872000559 249.7226557439426 L 793.1037409280543 249.45719398395158 L 794.460937216063 249.34765670396155 L 797.3570560000371 249.27436799992574 L 802.8743680000189 248.40703999996185 L 805.4296872960404 247.8242191359168 L 806.109184000059 247.7271039999323 L 807.3671874560532 247.6953128959285 L 808.730624000018 247.65644799993606 L 812.5112320000189 247.16390399995726 L 815.5760640000226 246.50854399992386 L 820.0376320000505 245.80607999995118 L 821.8437498880667 245.4101565439487 L 823.4424320000107 245.0565119999228 L 828.5859379200265 244.3554682879476 L 829.648437248019 244.0859371519182 L 830.150159360026 243.9568619519705 L 834.9532160000526 243.48876799992286 L 836.0089600000647 243.30137599993031 L 837.8818560000509 242.9040639999439 L 838.3593748480198 242.85546905593947 L 839.6523520000628 242.71667199995136 L 841.6328120320104 242.6484377599554 L 844.5234370560502 242.15625011193333 L 846.8046878720634 242.03906252793968 L 849.3281249280553 242.03906252793968 L 852.3223040000303 242.25075199996354 L 853.4118400000152 242.36748799995985 L 861.8593751040171 241.97265612793854 L 864.9609379840549 241.97265612793854 L 867.2737280000583 242.11353599996073 L 868.8593745920225 242.3554682879476 L 869.8961920000147 242.51187199994456 L 871.9052800000645 242.70028799993452 L 880.0078120960388 242.9140623359708 L 883.0390620160615 243.28906239994103 L 883.3126410240657 243.2890859519248 L 885.6289280000492 243.6413439999451 L 890.7031255040201 244.30078156793024 L 895.898437632015 244.75781222392106 L 898.8805120000616 244.9530879999511 L 909.8125004800386 245.2773437439464 L 911.5146240000613 245.36883199994918 L 914.6480640000664 245.8828799999319 L 917.3043200000538 246.2781439999235 L 924.6945280000218 246.81369599996833 L 927.8965760000283 247.187455999956 L 931.4062499840511 247.46874982392183 L 934.9109760000138 247.4199039999512 L 940.8358400000143 247.4188799999538 L 944.5826560000423 247.6994559999439 L 947.2734371840488 247.9101562879514 L 954.7265628160094 248.0039065599558 L 958.921875456057 247.9570309119299 L 963.0390620160615 247.3242183679249 L 965.3203128320165 247.30078105593566 L 970.3608320000349 246.7153919999255 L 972.7447040000116 246.31807999993907 L 977.3749995520338 246.03906252793968 L 980.7500001280569 245.7578147839522 L 984.5268480000668 245.57158399996115 L 986.8437504000613 245.3164062719443 L 990.078125056054 244.61328076792415 L 993.9921879040194 243.53906278393697 L 997.1292160000303 242.57945599994855 L 999.7527040000423 241.59743999992497 L 1000.9108480000286 241.106943999941 L 1005.9520000000484 239.3999359999434 L 1009.6998400000157 237.9980799999321 L 1011.4375004160102 237.24999987194315 L 1012.8680960000493 236.75903999991715 L 1014.5390622720588 236.3164057599497 L 1017.7064960000571 235.6142079999554 L 1021.2187504640315 235.12500019196887 L 1023.9170560000348 234.49292799993418 L 1024.0 234.48258377192542" fill="none"/><path stroke="#000000" stroke-width="2" d="M 1024.0 270.67589267705625 L 1023.9140628480236 270.74218700797064 L 1023.8710947840591 270.82421657594386 L 1023.3559040000546 271.7491199999349 L 1022.8046878720634 272.2304686079733 L 1022.3691407360602 272.61523455992574 L 1020.1864560640533 274.3929036799236 L 1020.1528320000507 274.4391679999535 L 1020.0624998400453 274.4921876479639 L 1019.8560829440248 274.703874047962 L 1019.8516346880351 274.72247603192227 L 1019.8437498880667 274.74218700797064 L 1019.2343746560509 275.34765670396155 L 1018.2109378560563 276.4980469759321 L 1017.7003520000144 276.9879039999214 L 1017.0193920000456 277.50297599995974 L 1016.6637312000385 277.87560243194457 L 1016.4374999040156 278.1093754879548 L 1016.3203123200219 278.1445314559387 L 1013.9531253760215 280.85156249592546 L 1013.9140628480236 280.89453158393735 L 1012.9999994880636 281.98046924796654 L 1012.7890626560547 282.2265620479593 L 1012.3750676480122 282.65522790391697 L 1011.3281249280553 283.7226557439426 L 1011.2153088000487 283.81400780793047 L 1010.4453120000544 284.7695308799739 L 1009.5078123520361 286.15234355191933 L 1009.1152343040449 286.7402342399582 L 1007.2734371840488 289.12890675192466 L 1006.4296878080349 290.34374963195296 L 1005.6718745600665 291.5117189119337 L 1005.1593236480257 292.16265932796523 L 1003.3571840000222 294.4378879999276 L 1001.2794880000292 297.7136639999226 L 1001.1778426880483 297.9157503999304 L 1001.0078126080334 298.24609382392373 L 1000.2020259840647 299.8576650239411 L 999.269531648024 301.71289087994955 L 999.0297600000631 302.32268799992744 L 998.5195315200253 303.7246095359442 L 998.0966666240129 304.4661370879621 L 997.8359377920278 304.9179688959266 L 997.3989816320245 305.7771192319342 L 996.9531248640269 306.6484377599554 L 996.812499968044 307.3749995519174 L 996.3348633600399 308.4843775999616 L 996.0829890560126 309.2273684479296 L 996.0736040960182 309.2882298879558 L 996.0624998400453 309.34375014394755 L 995.9843747840496 309.5000002559391 L 995.7734379520407 310.07812505593756 L 995.7485742080607 310.2210897919722 L 995.7242880000267 310.3487999999197 L 995.043328000058 312.4776959999581 L 995.0074900480104 314.9576939519611 L 994.8593745920225 315.2617185279378 L 994.1874995200196 316.8320317439502 L 994.1551974400645 318.00436223996803 L 994.0156252160668 319.0507816959289 L 993.9886018560501 319.100323839928 L 993.9666933760163 319.1353774079471 L 993.8125004800386 320.0351559679257 L 993.591736320057 320.9548595199594 L 993.5390627840534 321.2304691199679 L 993.3671874560532 321.78906214394374 L 993.3265223680646 322.2007941119373 L 993.3025280000293 322.42175999993924 L 993.2788572160644 322.50859212793875 L 993.2499998720596 322.6054686719435 L 993.164062720025 324.29296844796045 L 993.2034048000351 324.52793036797084 L 993.3007810560521 325.1347660799511 L 993.7339217920671 326.2026813439443 L 993.8094080000301 326.3068159999675 L 993.8094080000301 326.34051071992144 L 994.0768133120146 326.7666442239424 L 994.289062912052 327.10937497596024 L 994.5220802560216 327.3872035839595 L 994.6931200000108 327.59398399991915 L 994.6931200000108 327.6791193599347 L 994.7233873920632 327.7221140479669 L 994.8297236480284 327.84129126393236 L 994.9609379840549 327.99218790396117 L 994.9874851840432 328.18333081592573 L 994.9982720000553 328.2728959999513 L 993.9169515520334 328.4358072319301 L 993.656250368047 328.5898434559349 L 993.3652346880408 329.7792972799507 L 993.8046873600106 330.2812497919658 L 993.8085939200246 330.2832035839674 L 994.4531251200242 330.4238284799503 L 995.4456719360314 330.2128220159211 L 996.084736000048 330.07513599994127 L 996.1871360000223 330.1447679999401 L 996.1871360000223 330.40281599992886 L 995.7785600000643 331.1278079999611 L 995.5399680000264 331.33875199995236 L 995.4140620800317 331.34765670396155 L 994.442615808046 331.8018293759669 L 994.5200640000403 331.8999039999326 L 994.5200640000403 332.1333759999252 L 994.3515627520392 332.2265620479593 L 993.1821701120352 332.09403187193675 L 992.3125002240413 331.71093708794797 L 991.4140620800317 331.46484326396603 L 990.7988326400518 331.85041612794157 L 990.2694400000619 332.17945599992527 L 989.79687526403 332.7304683519178 L 989.8494801920606 332.8105195519165 L 989.9609374720603 332.906250239932 L 990.0624998400453 333.1523440639721 L 990.1004236800363 333.2068597759353 L 990.1238149120472 333.24380364792887 L 990.2011811840348 333.28027852793457 L 990.2128455680213 333.3152737279306 L 990.2343751680455 333.39062476792606 L 991.1171870720573 334.02343731193105 L 992.1249996800325 333.62890649592737 L 992.2734376960434 333.4687498239218 L 992.5078128640307 333.33984358393354 L 993.4218752000597 332.65234329592204 L 994.5555681280675 332.85748633596813 L 995.0312499200227 332.67187507194467 L 995.4375680000521 332.6259199999622 L 995.5389204480452 332.78972108796006 L 995.4375004160102 333.25781299197115 L 994.9765621760162 334.02734387194505 L 994.80859340803 334.4628910079482 L 994.7187496960396 334.76562534394907 L 994.6171873280546 335.4101565439487 L 994.4656865280122 335.6332799999509 L 994.2262927360134 336.15529062395217 L 993.9140628480236 336.8281251839362 L 993.9046400000225 336.8601599999238 L 993.8359705600305 338.6866370559437 L 993.7109370880644 340.06640639994293 L 993.664572416048 340.62112358392915 L 993.5937495040125 341.4179686399293 L 993.5234375680448 343.01562470395584 L 993.4590115840547 343.27117619191995 L 993.3559091200586 344.85761843196815 L 993.1484375040163 345.9648440319579 L 993.0468751360313 347.6015626239241 L 992.3984373760177 351.3203128319583 L 991.9570227200165 352.8887285759556 L 991.9032002560562 353.2331438079709 L 991.8515630080365 353.5429683199618 L 991.8144501760253 353.67518207995454 L 991.7184000000125 353.9886079999269 L 991.6160000000382 354.94809599994915 L 991.207424000022 356.5864959999453 L 991.1584378880216 356.70406143995933 L 991.1015628800378 356.8320317439502 L 990.9999994880636 357.078124543943 L 990.8984371200204 357.75390617595986 L 990.812499968044 359.57031219196506 L 990.7968501760624 360.00249651196646 L 990.5930240000598 361.4781439999351 L 990.4906240000273 361.71161599992774 L 990.4374999040156 362.02343731193105 L 990.4218746880651 362.1328127999441 L 990.3515627520392 362.38281215995084 L 990.2858240000205 362.6239999999525 L 990.2167398400488 363.8162513919524 L 990.0134400000097 364.4958719999413 L 990.0000000000582 364.84765593596967 L 989.9601920000277 366.0668139519403 L 989.9531253760215 366.2187499519205 L 989.9438080000109 366.55513599992264 L 989.8423644160503 367.34335180796916 L 989.7390080000623 369.73772799992 L 989.3281249280553 371.820312575961 L 989.2578129920294 372.01953075191705 L 989.2212541440385 372.13606092793634 L 989.1932160000433 372.21785599994473 L 989.1810529280338 372.3863039999269 L 989.1562496000552 372.6875002879533 L 989.1354101760662 372.76877311995486 L 989.0448670720216 373.08091187191894 L 988.9531248640269 373.38671923195943 L 988.8515624960419 374.3242188799195 L 988.8466278400156 374.6079692799249 L 988.8184320000582 375.8223359999247 L 988.7812495360267 376.1093754879548 L 988.7146301440662 376.66041036794195 L 988.7031255040201 376.7265628159512 L 988.6623795200139 377.0858629119466 L 988.6136320000514 377.4832639999222 L 988.4765624320135 377.9999999999418 L 988.460937216063 378.1328127999441 L 988.3750000640284 378.9531248639687 L 988.3359375360305 379.29296895995503 L 988.3094927360653 379.5679969279445 L 988.289062912052 379.74999961594585 L 988.2625935360556 380.0093798399321 L 988.2343751680455 380.24218726396793 L 988.1726996480138 380.596820991952 L 988.0000000000582 381.5312496639672 L 987.9843747840496 381.70312499196734 L 987.9765626880107 381.80859391996637 L 987.9727513600374 381.9019714559545 L 987.9654400000582 381.9991039999295 L 987.8848727040458 382.24066867196234 L 987.8437498880667 382.3554682879476 L 987.7578127360321 382.6054686719435 L 987.7528596480261 382.7292887039366 L 987.7265623040148 383.07421900791815 L 987.717526528053 383.1035863039433 L 987.6961648640572 383.16193177591776 L 987.656250368047 383.2617185279378 L 987.6406251520384 383.97656268795254 L 987.6171878400492 384.259477503947 L 987.5540357120335 384.93806796794524 L 987.5234375680448 385.2265625599539 L 987.1875000320142 386.5039063039585 L 987.254784000048 387.1221759999171 L 987.3955706880661 387.5317391359713 L 987.4218752000597 387.61328127991874 L 987.4218752000597 388.3632814079174 L 987.3981480960501 388.48586751992116 L 987.3203128320165 388.85546905593947 L 987.1851520000491 389.8367999999318 L 987.092230144015 390.09250918397447 L 987.0468751360313 390.21093785593985 L 986.9687500800355 390.7929692159523 L 986.9127680000383 391.240703999938 L 986.8593745920225 391.38281267194543 L 986.810368000064 391.5223039999255 L 986.7927736320416 392.01856511994265 L 986.7734374400461 392.5039063039585 L 986.7991910400451 392.61722111993004 L 986.8437504000613 392.8320317439502 L 986.9445120000164 393.97887999995146 L 986.9765621760162 394.1914060799172 L 986.9905192960287 394.2653808639734 L 987.0120960000204 394.3997439999366 L 987.0458880000515 395.4995199999539 L 987.1093749760184 396.0156252159504 L 987.1093749760184 397.93359359994065 L 986.9944268800318 398.2987223039381 L 986.8400640000473 398.7763199999463 L 986.5676800000365 400.7649279999314 L 986.4296878080349 401.2812503039604 L 986.2949406720581 402.33704243192915 L 986.2265620480175 403.1757813759614 L 986.2734376960434 403.33984358393354 L 986.3280885760323 403.5037962239585 L 986.4218746880651 406.20312473597005 L 986.4275138560333 406.26233036792837 L 986.4284160000389 406.2873599999584 L 986.0859371520346 407.33984358393354 L 986.0546877440647 408.58203135995427 L 986.289062912052 409.60937471996294 L 986.390625280037 409.7265623039566 L 986.3180820480338 410.76115865592146 L 986.2226749440306 412.06772223993903 L 986.1867520000669 415.15724799997406 L 986.5078128640307 416.47265587194124 L 986.863616000046 417.9189759999281 L 986.863616000046 418.90201599994907 L 986.6926080000121 420.16563199996017 L 986.6250004480244 421.03124991996447 L 986.6926080000121 421.14764799992554 L 986.7264634880121 421.3820723199169 L 986.7578122240375 421.61718783993274 L 986.8052070400445 421.6260741119622 L 986.8593745920225 421.640625151922 L 987.195312128053 422.80468787194695 L 987.2569251840468 423.20297062397003 L 987.3018880000454 423.51206399995135 L 987.3015080960467 424.0935024639475 L 987.2968744960381 424.94140620797407 L 987.300908032048 425.0119915519608 L 987.300864000048 425.0798079999513 L 987.5000002560555 427.39453132794006 L 987.6718745600665 428.49609420791967 L 987.9062497280538 429.082031103957 L 988.0453120000311 429.90079999994487 L 988.1466880000662 429.9704319999437 L 988.6609879040625 431.34565171191934 L 988.6875002880115 431.4218751999433 L 988.7372759040445 431.49880217592 L 988.7800985600334 431.5680102399201 L 988.7890626560547 431.5859374079737 L 988.7968747520354 431.62109337595757 L 988.8281251840526 431.7265623039566 L 988.8370862080483 431.7342207999318 L 988.9606932480237 431.8201395199285 L 988.926976000017 431.98361599992495 L 989.0625003520399 432.2656245759572 L 989.332480000041 433.2933119999361 L 989.3792962560547 433.3459630079451 L 989.4062499840511 433.3789061119314 L 989.5700480000232 433.73875199991744 L 989.8189629440312 435.46088038396556 L 989.9062497280538 436.07812505593756 L 989.9417600000161 436.523007999931 L 990.3482880000374 437.60025599994697 L 990.6534400000237 438.37235199991846 L 990.6872320000548 438.6764799999655 L 990.7675330560305 438.7316367359599 L 990.95859200001 439.23763199994573 L 990.9921873920248 439.4492190719466 L 991.1250001920271 439.5429683199618 L 991.2154562560609 439.8102261759341 L 991.295396864065 440.053439487936 L 991.324251136044 440.5987880959292 L 991.3281249280553 440.7343749119318 L 991.5312496640254 441.29687449592166 L 991.5929344000178 441.3380474879523 L 991.6511733760126 441.4635438079713 L 991.7343754240428 441.6484372479608 L 991.9859374080552 442.24424345593434 L 992.1771520000184 442.70182399993064 L 992.2265620480175 442.902343679918 L 992.4140625920263 443.6367185919662 L 992.5468753920286 443.84765644796425 L 992.6484377600136 444.15234355191933 L 992.710937600059 444.2226565119345 L 992.7500001280569 444.2695311359712 L 992.9251205120236 444.6653030399466 L 992.9461268480518 444.71378739195643 L 992.9531248640269 444.7382814719458 L 993.2953600000474 445.34681599994656 L 993.3593753600144 445.5312496639672 L 993.4653440000257 445.6038399999379 L 993.4296872960404 445.69921843195334 L 994.0390625280561 446.51562495995313 L 994.060904448037 446.5620398079627 L 994.584576000052 447.75731199997244 L 994.7187496960396 448.15625011193333 L 994.787328000064 448.2252799999551 L 995.0914560000529 449.7694719999563 L 995.1406254080357 449.83984332793625 L 995.1938560000272 449.90975999995135 L 995.2009512960212 450.26729983993573 L 995.2187504640315 451.39453132794006 L 994.7500001280569 452.4609372159466 L 994.6484377600136 452.6484377599554 L 994.4062504960457 453.16406271996675 L 994.2968750080327 453.84765644796425 L 994.2031247360283 454.4023439359735 L 994.0000000000582 455.011719167931 L 993.7978286080179 455.3849589759484 L 993.628160000022 455.31545599992387 L 993.1192320000264 455.24479999992764 L 992.810353664041 455.4672435199609 L 992.3804364800453 455.78576998395147 L 993.3905920000398 456.2278399999486 L 993.695744000026 456.2749439999461 L 994.2187499520369 456.4882810879499 L 994.2722560000257 456.50841599993873 L 995.222528000013 456.62617599993246 L 995.6956825600355 456.765879295941 L 995.968984064064 456.9538283519214 L 996.0366080000531 457.16479999996955 L 996.0692285440164 458.39928217593115 L 996.1707520000637 459.2711679999484 L 996.7462400000659 460.9320959999459 L 996.9500160000171 461.0959359999397 L 996.914062336029 461.2343746559345 L 996.9152000000468 461.23622399993474 L 997.0857175040292 461.33190860797185 L 997.3203128320165 461.98437478393316 L 997.0468751360313 462.31250022392487 L 996.914062336029 462.5468753919704 L 996.8803840000182 463.1316479999223 L 997.0379386880668 463.4443786239717 L 997.1484375040163 463.6718745599501 L 997.3882880000165 463.99795199994696 L 997.5781253120513 464.11718758393545 L 997.6341626880458 464.14894182392163 L 997.693440000061 464.1853439999395 L 997.8972160000121 464.48947199992836 L 997.9609374720603 465.0976563199656 L 997.9296870400431 465.61328127991874 L 997.8593751040171 465.7421875199652 L 997.8373079040321 465.78770124795847 L 997.7937920000404 465.86982399993576 L 997.3186560000177 466.57228799996665 L 997.2496844800189 466.7154575359309 L 997.1796879360336 466.85156249592546 L 996.3984373760177 467.7656248319545 L 996.3359375360305 467.83984332793625 L 996.265920512029 467.9293091839645 L 993.6249999360298 468.4648437759606 L 992.7031255040201 468.67578163195867 L 991.8593751040171 468.8164065279416 L 991.2463360000402 468.91007999994326 L 990.6012160000391 469.33196799992584 L 990.0546877440647 469.5664066559402 L 989.1406254080357 469.8242191359168 L 988.3290787840378 470.29138739191694 L 987.4810880000587 470.59558399993693 L 987.0302320640185 470.68632268795045 L 986.6640629760223 470.75781222392106 L 986.5794191360474 470.7633326079231 L 985.1093749760184 470.8281251839362 L 982.7734374400461 471.25781299197115 L 982.189056000032 471.3666559999692 L 981.0360995840165 471.647215615958 L 980.0859371520346 472.34765619196696 L 979.3402880000649 472.7234559999197 L 978.4924160000519 472.9569279999705 L 977.3731840000255 473.4013439999544 L 976.1171875840519 474.52343705593375 L 974.7275909120217 475.50638899195474 L 972.4887040000176 476.7006719999481 L 971.8097920000437 477.2147199999308 L 971.5384320000303 477.51884799991967 L 970.4901765120449 478.125731839973 L 969.7751040000585 478.38515199994436 L 969.7734379520407 478.38671871996485 L 969.7075200000545 478.66572799993446 L 969.9112960000639 478.87667199992575 L 969.9450746880611 479.29736806394067 L 969.8426880000625 479.5084799999604 L 969.6015626240405 479.78906214394374 L 969.189219328051 480.1389291519299 L 968.8205076480517 480.44910489593167 L 968.4520960000227 480.7720959999715 L 968.281249792024 481.0039060479612 L 968.2493440000108 481.56774399994174 L 968.0117760000285 482.0582399999257 L 967.6718745600665 483.25390643195715 L 967.4353745920234 484.2348062719684 L 966.8593745920225 484.35156275192276 L 966.5220894720405 484.84021145594306 L 966.5124413440353 484.9919436799246 L 966.4843745280523 485.5429683199618 L 966.6549760000198 486.48089599993546 L 966.6875002880115 488.0507811839343 L 966.6171873280546 488.5429688319564 L 966.4512000000104 488.7039999999688 L 966.3128780800616 488.9222154239542 L 966.2109378560563 489.078124543943 L 966.078125056054 489.1718748159474 L 966.1460480000242 489.54675199993653 L 966.2474240000593 489.66348799993284 L 966.2474240000593 489.7576959999278 L 966.3488000000361 489.82732799992664 L 966.354828288022 489.8477168639656 L 966.3593748480198 489.8750003199675 L 966.3828121600673 489.9453122559353 L 966.4843745280523 490.0859371519182 L 966.4843745280523 490.1796874239226 L 966.5525760000455 490.2256639999687 L 966.6875002880115 490.76562534394907 L 966.6539520000224 492.2623999999487 L 966.7890626560547 493.3632808959228 L 967.023437824042 494.25390591996256 L 967.4670080000651 495.9129599999287 L 967.5312496640254 496.17187532794196 L 967.5899320320459 496.3515903999214 L 967.6707840000163 496.6154239999596 L 967.7091328000533 496.7746314239339 L 967.7343754240428 496.89453158393735 L 968.1953331200639 497.90263910393696 L 968.4500480000279 498.46374399994966 L 968.551424000063 498.83852799993474 L 968.7421870080288 499.2265625599539 L 968.813516800059 499.3666744319489 L 968.9579520000261 499.65772799996193 L 968.9917440000572 499.89119999995455 L 969.7343754240428 500.9218754559406 L 969.8359377920278 501.15624959993875 L 970.0761600000551 501.4128639999544 L 970.0460318720434 501.47494707192527 L 970.0468746240367 501.47656294394983 L 970.0822855680599 501.52120422397275 L 970.2106357760495 501.64566425594967 L 970.177536000032 501.740543999942 L 970.2187499520369 501.7617182719405 L 970.2494392320514 501.7732270079432 L 970.2789120000671 501.7866239999421 L 970.2545776640181 501.8883870719583 L 970.2421872640261 501.92968703992665 L 970.3813120000414 502.0682239999296 L 970.4866836480214 502.30531071993755 L 970.6484377600136 502.67578163195867 L 970.8892160000396 503.51923199993325 L 970.9810524160275 503.5823114239611 L 970.9999994880636 503.6562503679306 L 971.023437824042 503.8242191359168 L 971.1148544000462 503.8855004159268 L 971.1394150400301 503.93497599993134 L 971.195312128053 504.1054689279408 L 971.5671040000161 504.5247999999556 L 971.5590789120179 504.5571379199391 L 971.546874880034 504.5937500159489 L 971.5312496640254 504.66406297596404 L 971.648437248019 504.8203120639664 L 971.7157468160149 504.90618879994145 L 971.8712320000632 505.11052799993195 L 971.9050240000361 505.4842879999196 L 971.9531253760215 505.62109337595757 L 971.97260800004 505.67167999997037 L 972.006400000013 506.139647999953 L 972.078125056054 506.2812497919658 L 972.1562501120497 506.42578124796273 L 972.9531248640269 507.94140671996865 L 973.0029813760193 507.97381324792514 L 973.0918400000664 508.03507199994056 L 973.4296872960404 508.6445311999414 L 973.4983680000296 508.78463999996893 L 973.5997440000647 508.90137599996524 L 973.7031249920256 509.0429685759591 L 974.0062720000278 509.34579199994914 L 974.1098915840266 509.44432844792027 L 974.2734376960434 509.6054691839381 L 974.9917491200613 509.9471656959504 L 975.395840000012 510.1414399999194 L 977.2017633280484 510.96563097595936 L 978.5466880000313 511.64876799995545 L 978.7883520000614 511.9815679999301 L 978.7883520000614 512.3338239999721 L 979.4296872960404 512.8281251839362 L 981.396480000054 514.256895999948 L 982.4137123840628 515.755427839933 L 983.3277440000675 516.7144959999714 L 983.7004800000577 517.2295679999515 L 983.8359377920278 517.3242183679249 L 984.0390625280561 517.6757811199641 L 984.7812495360267 518.6328125439468 L 985.7656248320127 519.6874997759587 L 986.6171873280546 520.8867184639676 L 987.3909760000533 521.8406399999512 L 987.5078123520361 522.1054689279408 L 987.5234375680448 522.1445314559387 L 987.6953128960449 522.3554682879476 L 987.6953128960449 522.449218559952 L 987.79687526403 522.5195315199671 L 987.9103436800651 522.7734425599338 L 987.9296870400431 522.8242186239222 L 988.1015623680432 523.0351564799203 L 988.1015623680432 523.1523440639721 L 988.7421870080288 524.019530751917 L 989.4218752000597 524.6250004479662 L 991.3515622400446 525.9140628479654 L 992.8984371200204 526.8281251839362 L 994.367488000018 527.6927999999607 L 997.7876480000559 529.3793279999518 L 999.3809920000494 530.0582399999257 L 1003.1400960000465 531.3218559999368 L 1004.3593748480198 531.6523438079166 L 1005.0365440000314 531.7672959999181 L 1008.4239360000356 532.7749119999353 L 1010.3879680000246 533.0565119999228 L 1010.4266526720603 533.0672967679566 L 1010.4687503360328 533.082031103957 L 1010.5546874880674 533.1054684159462 L 1012.9609379840549 533.3398435839335 L 1015.3984378880123 533.6914063359727 L 1017.0625003520399 533.8398433279363 L 1017.8058240000391 533.9033599999384 L 1019.3633280000649 534.1378559999284 L 1023.2968744960381 534.4218746879487 L 1023.9140628480236 534.4218746879487 L 1024.0 534.4034674372379" fill="none"/><path stroke="#000000" stroke-width="2" d="M 1024.0 1019.9935580119272 L 1023.9354880000465 1019.9705599999288 L 1023.5136000000639 1019.8302719999338 L 1022.2656245760154 1019.0585937919677 L 1020.3203123200219 1017.7226557439426 L 1018.1015623680432 1016.4570316799218 L 1016.1171875840519 1015.4726563839358 L 1012.6950400000205 1014.1624319999246 L 1011.2522240000544 1013.5295999999507 L 1009.6742400000221 1012.9674239999731 L 1007.7935380480485 1012.5691699199378 L 1004.0985600000131 1011.3034239999251 L 1000.9088000000338 1010.5303039999562 L 1000.1356800000649 1010.4360959999613 L 998.7890626560547 1010.6914058239199 L 998.2581719040172 1010.5968660479411 L 998.0200960000511 1010.5528319999576 L 993.4192640000256 1008.8663039999665 L 992.613376000023 1008.7024639999727 L 991.6395520000369 1008.655359999917 L 989.9253760000574 1008.326655999932 L 988.6494720000192 1008.1392639999394 L 987.6768184320536 1007.881526271929 L 987.0039040000411 1007.5770879999618 L 984.6147297280258 1006.7190702079679 L 982.6406246400438 1006.0078120959224 L 981.7343754240428 1005.5625000959262 L 980.8631326720351 1005.2009789439617 L 980.219904000056 1004.9320959999459 L 980.219904000056 1004.8860159999458 L 980.0546877440647 1004.8164065279416 L 979.6171878400492 1004.5351567359176 L 977.9691520000342 1003.7145599999349 L 977.26562508801 1003.4804684799165 L 976.1208320000442 1002.9895679999609 L 974.0390400000615 1002.3106559999287 L 972.9609379840549 1002.0507811839343 L 971.0859376640292 1001.4687498239218 L 969.7730560000637 1000.975359999924 L 968.5964800000656 1000.6947839999339 L 967.0850560000399 1000.29644799995 L 965.3381120000267 1000.4602879999438 L 964.6325760000618 1000.4838399999426 L 959.6953128960449 999.2187504639733 L 958.7187496960396 999.078124543943 L 957.445312512049 999.0546872319537 L 956.7031255040201 999.1953121279366 L 956.1640622080304 999.1718748159474 L 954.3515627520392 998.8203120639664 L 951.6308480000589 998.9396479999414 L 948.5731840000371 998.3078399999649 L 947.935232000018 998.3784959999612 L 946.893824000028 998.6119679999538 L 945.1120640000445 998.0037119999179 L 942.8275200000498 996.83430399996 L 940.8828129280591 996.1328127999441 L 937.8906245120452 995.3124997119303 L 936.578048000054 995.104767999961 L 935.0318080000579 994.9880319999647 L 933.0503680000547 994.9409279999672 L 932.2424320000573 994.9409279999672 L 931.4365440000547 995.1754239999573 L 930.4289280000376 995.6904959999374 L 929.6558080000104 995.9014399999287 L 928.5816320000449 995.9720959999249 L 928.2785280000535 996.0652799999225 L 927.9764480000595 996.0191999999224 L 927.5729920000304 995.9024639999261 L 927.5330560000148 995.8185164799215 L 927.4765629440662 995.6914063359727 L 927.2734371840488 995.4335938559379 L 926.4296878080349 994.9179688959266 L 925.1562496000552 994.3828121599508 L 924.8203120640246 994.1249996799743 L 924.0780800000648 993.8667519999435 L 923.4063360000146 993.9374079999398 L 921.827328000043 994.4760319999186 L 921.0552320000133 995.0382079999545 L 920.6179840000113 995.4365439999383 L 920.3834880000213 995.5061759999371 L 919.6441600000253 995.4129919999395 L 919.5781253120513 995.1093749759602 L 920.2821120000444 994.4995839999174 L 920.281249792024 993.6796876799199 L 919.8125004800386 992.4179691519239 L 919.2048640000285 991.6682239999645 L 918.901760000037 991.2002559999237 L 918.8476825600374 991.0871357439319 L 918.8046878720634 990.9921873919666 L 918.6328125440632 990.7304683519178 L 917.6565760000376 989.9837439999683 L 916.7500001280569 989.539062783937 L 915.7421875200234 989.1171870719409 L 914.9374996480183 988.6757816319587 L 914.7343749120482 988.4414064639714 L 913.8593751040171 987.8554685439449 L 912.6171873280546 987.2460933119291 L 911.0698823680286 986.7106150399195 L 910.1953126400476 986.0546877439483 L 909.4218752000597 985.7499996159459 L 908.0094720000634 985.2835839999607 L 907.4718720000237 985.0501119999681 L 906.1249996800325 984.3242188799195 L 904.1418240000494 983.530495999963 L 901.4531246080296 982.6171873279382 L 900.3108567040181 982.1044428799651 L 898.9644800000242 981.2633599999244 L 897.2830720000202 980.0243199999677 L 895.9296870400431 979.5117189119337 L 895.4951680000522 979.4416639999254 L 894.8749998080311 979.1601561599527 L 893.7656248320127 978.4101560319541 L 893.7656248320127 978.3164057599497 L 893.4296872960404 978.2226565119345 L 892.2500003840541 977.4492190719466 L 890.4374999040156 976.8164065279416 L 887.7499996160623 976.019530751917 L 886.4765624320135 975.2031252479646 L 885.5654400000349 974.7558399999398 L 884.3203123200219 974.3320309759583 L 883.546874880034 974.2382817279431 L 882.3750000640284 974.3554682879476 L 881.7031249920256 974.167968767928 L 881.5703121920233 973.9101562879514 L 881.0937497600098 973.5820308479597 L 879.7890621440602 973.2070307839313 L 878.710937600059 973.0429685759591 L 876.3229358080425 972.9493207039195 L 874.0078120960388 972.4804689919692 L 871.5849523200304 972.6443397119292 L 870.1399040000397 972.3627519999282 L 869.2992000000668 972.3156479999307 L 868.3243520000251 972.0575999999419 L 867.8205440000165 972.1282559999381 L 866.0703129600151 973.085937663971 L 865.1954944000463 973.2968304639217 L 864.5591040000436 973.3437439999543 L 863.4163200000185 973.6007679999457 L 862.0707840000396 973.5772159999469 L 861.3314560000435 973.4594559999532 L 860.6562498560525 973.5312496639672 L 860.0545280000661 973.7646079999395 L 859.247616000066 974.2325759999221 L 857.7031249920256 974.7929692159523 L 856.390625280037 975.0742190079181 L 855.3124997120467 975.4726563839358 L 854.8444160000654 975.4951679999358 L 854.1050880000112 975.3077759999433 L 853.9062497280538 975.19140659197 L 853.8357760000508 975.0271999999532 L 853.5336960000568 974.9104639999568 L 853.0625003520399 974.7226562559372 L 852.6093752320157 974.445311999938 L 852.5250560000422 974.3953919999185 L 852.2905600000522 973.8567679999396 L 852.2265620480175 973.5976560639683 L 852.1474908160162 973.4153533439385 L 852.0888320000377 973.2720639999607 L 852.0487014400424 972.9802086399286 L 852.0234373120475 972.7812495359685 L 851.9218749440624 972.3593748479616 L 851.9546880000271 971.7739519999595 L 852.1902080000145 971.3991679999745 L 852.7656253440655 970.906250239932 L 852.6950400000205 970.5103359999484 L 852.4595200000331 970.2993919999572 L 851.1150080000516 970.1816319999634 L 850.780121088028 970.1122047999525 L 850.611200000043 969.9481599999708 L 850.5108480000636 969.7372159999213 L 850.469709824014 969.3096314879367 L 850.4453120000544 969.0351564799203 L 850.5278904320439 968.8464066559682 L 850.611200000043 968.660991999961 L 850.8828129280591 968.4726558719412 L 851.2839680000325 968.0056319999276 L 851.2187504640315 967.6289064959274 L 850.7125760000199 966.5075199999264 L 850.3125002240413 966.1562501119333 L 848.7968747520354 965.640625151922 L 847.9218749440624 965.2187504639733 L 847.656250368047 964.9609379839385 L 847.4218752000597 964.5664061439456 L 846.9811200000113 964.3775999999489 L 846.3431680000504 964.3775999999489 L 846.0738560000318 964.4707839999464 L 846.0703129600151 964.4726558719412 L 845.9062497280538 964.7265628159512 L 845.26562508801 965.1718748159474 L 844.5937500160653 965.5468748799176 L 844.1577103360323 965.5468748799176 L 843.9921879040194 965.4531246079714 L 844.1579520000378 965.2428799999179 L 844.7968747520354 964.7500001279404 L 844.7969280000543 964.0028159999638 L 844.6640629760223 963.746094079921 L 844.53125017602 963.3710940159508 L 844.2593280000146 962.996223999944 L 844.0238080000272 962.8088319999515 L 844.0576000000583 962.715647999954 L 843.9562240000232 962.6685439999565 L 843.8906245120452 962.4804689919692 L 843.6874997760169 962.1992191999452 L 843.0468751360313 961.7773434879491 L 841.9061760000186 961.2636159999529 L 840.59545600001 961.0301439999603 L 840.0240640000557 960.959487999964 L 839.2187504640315 961.0507816959289 L 838.109375488013 961.285155839927 L 837.2343746560509 961.4960936959251 L 836.7578122240375 961.4726563839358 L 835.9546880000271 961.3107199999504 L 834.7812495360267 961.3789061119314 L 834.0390625280561 961.2148439039593 L 833.3984378880123 961.2382812159485 L 832.2578124800348 961.7539061759599 L 832.1249996800325 961.6367185919662 L 832.1562501120497 961.4531246079714 L 832.6953123840503 961.1484375039581 L 832.6640629760223 960.8906250239233 L 832.6607564800652 960.8910069759586 L 832.6604800000205 960.8888319999678 L 832.2570240000496 960.9359359999653 L 831.3124997120467 961.5664066559402 L 831.0468751360313 961.8476564479643 L 830.8749998080311 961.9648440319579 L 830.1383680000436 962.0357119999244 L 829.7656248320127 962.3398440959281 L 829.7656248320127 962.8320317439502 L 829.8995251200395 962.9616117759724 L 830.004224000033 963.0658559999429 L 830.3744225280243 963.2770119679626 L 830.4752640000661 963.5102719999268 L 830.3750000640284 963.5781253119349 L 829.8671872000559 963.7421875199652 L 829.8671872000559 964.0937502719462 L 829.6328120320104 964.2109378559398 L 828.8281251840526 964.3281254399335 L 828.1874995200196 964.6796871679253 L 827.8190080000204 964.9848319999292 L 827.7499996160623 965.289062399941 L 827.7186560000409 965.9914239999489 L 827.617280000064 966.0139519999502 L 827.0120960000204 966.0846079999465 L 826.6762240000535 966.5054719999316 L 826.8441600000369 967.0440959999687 L 827.1472640000284 967.4649599999539 L 827.4140620800317 967.6289064959274 L 827.8828124160646 967.816406015947 L 827.9656724480446 967.9683153919177 L 828.020736000035 968.074239999929 L 828.0559083520202 968.2325155839208 L 828.0859371520346 968.378906623926 L 828.2578124800348 968.5195315199671 L 828.9609379840549 968.5195315199671 L 828.9617920000455 968.1679124479415 L 830.743552000029 968.0506879999302 L 831.0781245440594 968.003907583945 L 831.9207178240176 968.0273121279315 L 832.390625280037 968.167968767928 L 832.6932480000542 968.5422079999698 L 832.794624000031 968.7295999999624 L 832.9609379840549 968.8710932479589 L 833.26562508801 968.9179688959266 L 833.6718745600665 968.8710932479589 L 833.9375001600129 968.7539066879544 L 834.4424919040175 968.8238284799736 L 834.476032000035 968.963071999955 L 834.2033295360161 969.1990435839398 L 833.9384320000536 969.3143039999413 L 833.367040000041 969.3614079999388 L 832.9929000960547 969.5566120959702 L 832.4218746880651 969.85156300792 L 832.2578124800348 969.7812500479631 L 832.0234373120475 969.4531246079714 L 831.8203125760192 969.3124997119303 L 831.3487360000145 969.3849599999376 L 831.2404725760571 969.513934847957 L 831.1093749760184 969.6640624639695 L 830.9765621760162 970.1093754879548 L 830.9765621760162 970.5312501759618 L 830.4374999040156 970.976562175958 L 830.2560860160156 971.1052011519205 L 830.004224000033 971.2803839999251 L 829.6328120320104 971.5859374079737 L 829.2968744960381 972.0507811839343 L 829.164062720025 972.4960942079197 L 829.2311040000641 973.5976959999534 L 828.8593745920225 974.1601566719473 L 828.8593745920225 974.9531248639687 L 828.7948800000595 975.2350719999522 L 828.7500001280569 975.2695316479658 L 828.1559040000429 975.7501439999323 L 827.1472640000284 976.2652159999707 L 826.5391196160344 976.5702840319718 L 824.0546877440647 977.1562495999387 L 823.4844160000212 977.3660159999272 L 822.3069583360339 978.1391359999543 L 821.9043840000522 978.1391359999543 L 821.7364480000106 978.0449279999593 L 821.4687498240382 977.5544883199618 L 821.4687498240382 977.1796879359172 L 821.5703121920233 976.804687871947 L 821.9062497280538 976.3593748479616 L 822.6796871680417 975.5195310079725 L 823.2499998720596 975.1679682559334 L 824.2575360000483 974.9780479999608 L 824.8281251840526 974.5820313599543 L 825.3992960000178 974.0656639999361 L 825.8046873600106 973.5742187519209 L 826.0720640000654 973.0590719999745 L 827.015624704014 972.167968767928 L 826.9455360000138 971.982847999956 L 826.6772480000509 971.7247999999672 L 825.9041280000238 971.8190079999622 L 825.1328122880659 972.1914060799172 L 824.6250004480244 972.5898434559349 L 824.3232696320629 972.5666334719281 L 823.8192640000489 972.0063999999547 L 823.5171840000548 971.9367679999559 L 822.7778560000588 971.8896639999584 L 822.3437496320112 971.7968752639717 L 822.3437496320112 971.3515622399282 L 822.7440640000277 971.09401599993 L 823.015624704014 970.7421870079706 L 823.015624704014 970.4609372159466 L 822.6796871680417 970.273437695927 L 822.1726720000152 970.0648959999671 L 822.0078120960388 969.8789058559341 L 821.8046873600106 969.5976560639683 L 821.9062497280538 969.1992186879506 L 822.1406248960411 968.9414062079741 L 822.6088960000197 968.6138879999635 L 822.8444160000654 968.3322879999178 L 822.7768320000614 968.0046079999302 L 822.7303690240369 967.8747013119282 L 822.6796871680417 967.7226557439426 L 822.3437496320112 967.5585935359704 L 821.7016320000403 967.6543999999412 L 819.9218749440624 968.2617190399324 L 819.1796879360336 968.449218559952 L 818.8749998080311 968.7070310399286 L 818.7734374400461 968.9414062079741 L 819.1467520000297 969.2927999999374 L 819.1682570240228 969.3524285439635 L 819.2109373440617 969.4804684799165 L 819.2109373440617 970.1328127999441 L 818.6406246400438 970.5781247999403 L 818.1718753280584 970.5312501759618 L 817.5000002560555 970.3906252799206 L 816.8284160000621 970.2758399999584 L 816.4921876480221 970.1796874239226 L 815.6508160000667 970.1119999999646 L 814.6421760000521 969.9010559999733 L 814.4066560000647 969.5733759999275 L 814.4066560000647 969.2231679999386 L 814.812499968044 968.8476559359697 L 814.812499968044 968.4960942079197 L 814.6093752320157 968.3085936639691 L 814.0000000000582 968.3554682879476 L 813.5000002560555 968.5898434559349 L 813.3281249280553 968.800781311933 L 812.8281251840526 969.1054684159462 L 812.256581632013 969.1758991359384 L 811.2812503040186 969.2695316479658 L 810.8437504000613 969.3867192319594 L 809.7013760000118 970.0659199999645 L 808.9293905920349 970.1835069439257 L 808.289180672029 969.996128255967 L 808.1879040000495 969.8324479999719 L 808.0875520000118 969.5283199999249 L 808.3593748480198 969.1992186879506 L 808.826880000066 968.8023039999534 L 808.9296875520376 968.6835937279393 L 809.127361536026 968.5230264319689 L 810.2031247360283 968.3359375359723 L 810.4765624320135 968.1484369919635 L 810.710937600059 967.7265623039566 L 810.6979102720506 967.6562155519496 L 810.6752000000561 967.5151359999436 L 810.136576000019 966.8362239999697 L 810.1610588160111 966.3613972479361 L 810.1718753280584 966.1796874239226 L 809.7477529600146 965.8781849599327 L 809.0265600000275 965.3616639999673 L 808.8586240000441 965.2920319999685 L 807.6154880000395 965.4087679999648 L 807.0768640000606 965.244927999971 L 806.6068480000249 965.2920319999685 L 806.3037440000335 965.573631999956 L 806.3359375360305 965.9023441919708 L 806.4374999040156 966.0624998399289 L 806.4163942400482 966.1733048319584 L 806.3713280000375 966.3918079999276 L 806.0693381120218 966.7429345279234 L 805.7343754240428 967.0000005119364 L 805.4994370560162 967.0702591999434 L 803.7812500480213 966.906250239932 L 803.546874880034 966.8124999679276 L 802.9429760000203 966.4163839999237 L 801.865833472053 966.2064844799461 L 801.4622720000334 966.042623999936 L 801.0937497600098 965.5976560639683 L 800.9609379840549 965.2695316479658 L 801.0934394880314 964.9421721599647 L 801.2968744960381 964.7773439999437 L 801.275765760045 964.7013509119279 L 801.2605440000189 964.6376959999325 L 800.6250004480244 964.0546877439483 L 798.7734374400461 962.7656253439491 L 798.1328128000605 962.5781247999403 L 796.148736000061 961.8544639999745 L 795.2752640000544 961.6670719999238 L 794.5687040000339 961.597439999925 L 793.5600640000193 961.6445439999225 L 792.4843745280523 961.92578150396 L 789.2265625600121 962.0429690879537 L 788.3489280000213 962.2077439999557 L 787.7109370880644 962.5117183999391 L 787.1395840000478 963.0975999999209 L 786.9374996480183 963.3789061119314 L 786.6685440000147 963.6597759999568 L 786.5956935680588 963.7871257599327 L 786.53125017602 963.8945310719428 L 786.0305920000537 964.2219519999344 L 785.2255150080309 964.386441215931 L 783.8125004800386 964.0117186559364 L 782.702592000016 963.9434239999391 L 782.1640622080304 963.6835942399339 L 781.9284480000497 963.4047999999602 L 779.9765626880107 962.3984373759595 L 778.3639040000271 961.7919999999576 L 777.4894080000231 961.6517119999626 L 775.2343746560509 961.3945313279401 L 773.5234375680448 961.0898442239268 L 772.8515624960419 960.7187496959232 L 771.8046873600106 959.8750003199675 L 770.8968960000202 959.2678399999277 L 769.8882560000638 958.7527679999475 L 769.0465280000353 958.5428479999537 L 767.9170560000348 958.3810559999547 L 765.2751360000111 958.0298239999684 L 763.023437824042 958.0507811839343 L 761.8447360000573 958.2612479999661 L 761.8119680000236 958.3554559999611 L 761.335937024036 958.8242186239222 L 760.9702400000533 959.1039999999339 L 759.9921879040194 959.3124997119303 L 759.3891840000288 959.5002879999229 L 758.9181440000539 959.8515199999674 L 758.4808960000519 959.9918079999625 L 757.9422720000148 960.1085439999588 L 757.1015680000419 960.1085439999588 L 756.7994880000479 959.9907839999651 L 756.5649920000578 959.546367999923 L 756.2280960000353 959.4286079999292 L 755.5937495040125 958.9609379839385 L 754.3828121600673 958.3750000639702 L 753.2421877760207 957.8828124159481 L 751.96108800004 956.9945599999628 L 751.2187504640315 956.6406246399274 L 750.716928000038 956.5491199999233 L 749.8437498880667 956.4765624319552 L 749.6093747200212 956.4062504959293 L 748.801024000044 955.8927359999507 L 743.9605760000413 953.9481599999708 L 742.5156249600113 953.5039057919639 L 741.7753600000287 953.1750399999437 L 740.9684480000287 952.9640959999524 L 740.0601600000518 952.9640959999524 L 739.3884160000598 953.05727999995 L 738.6818560000393 953.0337279999512 L 737.4376960000372 952.7992319999612 L 734.9525729280431 952.2140159999253 L 734.7500001280569 951.9101562879514 L 734.7187496960396 951.7695313919685 L 735.5893760000472 951.6523519999464 L 735.9928320000181 951.4178559999564 L 736.1280000000261 951.2314879999612 L 736.1280000000261 950.8095999999205 L 735.6907520000241 950.3180799999391 L 735.5566080000135 949.8030079999589 L 735.2890624000574 949.4062499839347 L 734.8838400000241 949.1240959999268 L 734.4128000000492 948.960255999933 L 732.2951680000406 948.6551039999467 L 732.1262080000597 948.5619199999492 L 732.1272320000571 948.2342399999616 L 730.4458240000531 948.3274239999591 L 729.8046873600106 948.445311999938 L 729.6015626240405 948.5859379199683 L 729.5269017600222 948.7472046079347 L 729.40236800001 949.0063359999331 L 729.4361600000411 949.3811199999182 L 729.6015626240405 949.6171878399327 L 729.5703121920233 949.8476564479643 L 729.3984378880123 949.9882813439472 L 729.1668480000226 949.943295999954 L 727.923712000018 948.7022079999442 L 727.0830080000451 948.7022079999442 L 725.8750003200257 949.0507816959289 L 724.9296875520376 949.1210936319549 L 719.6804331520107 948.582108159957 L 719.3476392960292 948.4430346239242 L 719.2135680000647 948.2557439999655 L 719.8863360000541 947.6003839999321 L 720.5580800000462 947.2030719999457 L 721.1328122880659 946.9218754559406 L 721.601536000031 946.594815999968 L 721.7031249920256 946.2890629119356 L 721.6353280000621 945.8923519999371 L 721.0639360000496 945.2369919999619 L 720.055296000035 944.4177919999347 L 718.5418240000145 943.4583039999707 L 717.4296872960404 942.9179688959266 L 716.1210880000144 942.3810559999547 L 715.078656000027 941.913087999972 L 714.6076160000521 941.7727999999188 L 713.5989760000375 941.6550399999251 L 712.1858560000546 941.7256959999213 L 711.3749995520338 941.9570309119299 L 710.5372160000261 941.9356159999734 L 708.6202880000346 941.6785919999238 L 707.0078126080334 940.9531248639687 L 706.8385280000512 940.695551999961 L 706.8385280000512 940.4375039999723 L 707.2757760000532 940.1333759999252 L 707.3761280000326 939.9930879999301 L 707.445312512049 939.4296872959239 L 707.0390620160615 938.9140623359708 L 706.6406246400438 938.5429688319564 L 705.3593753600144 937.7692794879549 L 705.3593753600144 937.6523438079166 L 705.1247728640446 937.6522239999613 L 703.1726080000517 936.6231039999402 L 700.1484369920217 935.3124997119303 L 698.3984373760177 934.7500001279404 L 691.7656248320127 932.1757808639668 L 689.2789760000305 931.2880639999639 L 688.33792000002 930.8897279999219 L 686.7890626560547 930.445311999938 L 684.4374999040156 929.9296870399266 L 682.0454400000162 929.4632959999726 L 680.0271360000479 929.1827199999243 L 673.4325760000502 928.5068799999426 L 671.0108160000527 928.5539839999401 L 667.6469760000473 928.7188479999313 L 665.4609377280576 928.9296875519212 L 662.9374996480183 929.0937497599516 L 659.5133440000354 929.6588799999445 L 659.2343746560509 929.7031249919673 L 658.2968750080327 929.9375001599547 L 657.3203128320165 930.4062504959293 L 656.0390625280561 930.804687871947 L 655.164062720025 931.1562495999387 L 654.0234373120475 931.4609377279412 L 653.5859374080319 931.6953128959285 L 653.0546872320119 932.031250431959 L 649.7884160000249 934.0856319999439 L 648.5790720000514 935.1393279999611 L 648.4111360000097 935.4444799999474 L 648.0078120960388 936.6132807679242 L 648.109375488013 937.2226559999399 L 648.2790400000522 937.9952639999683 L 647.3369600000442 938.018815999967 L 647.0676480000257 938.2297599999583 L 646.8669440000667 938.6045439999434 L 646.8331520000356 939.2363519999199 L 646.6965913600288 939.4008514559246 L 645.9296870400431 939.609374719963 L 645.5234375680448 939.8906245119288 L 645.3203128320165 940.0078120959224 L 644.9172480000416 939.7288959999569 L 644.4124160000356 939.7053439999581 L 644.078125056054 939.8906245119288 L 644.0765440000105 939.8927359999507 L 644.0765440000105 940.103679999942 L 644.3437496320112 940.4765624319552 L 645.015624704014 941.2031252479646 L 645.053440000047 941.4840319999494 L 644.6796871680417 941.6484372479608 L 644.4144640000304 941.951999999932 L 644.2126387200551 942.0460892159608 L 644.0785920000635 941.8823679999332 L 643.8125004800386 941.7656248319545 L 643.2378880000324 941.7185279999394 L 642.0234373120475 941.9062497279374 L 641.015624704014 942.023437311931 L 640.7500001280569 942.1171875839354 L 640.3328706560424 942.5632522239466 L 639.9062497280538 942.6679685119307 L 639.5156254720641 942.7500001279404 L 639.4140620800317 942.9374996479601 L 639.164062720025 943.3124997119303 L 639.0312499200227 943.6171878399327 L 638.8971520000487 944.0153599999612 L 638.390625280037 944.4843745279359 L 638.0624998400453 944.9570314239245 L 637.9843747840496 945.0664058879483 L 637.5833600000478 945.4192639999674 L 637.4819840000127 945.746943999955 L 637.6171520000207 946.0510719999438 L 637.5833600000478 946.566143999924 L 637.0447360000107 946.9870079999673 L 636.8747520000325 947.0576639999636 L 636.1354240000364 946.9870079999673 L 635.4609377280576 946.8671877119341 L 634.9250560000655 946.5651199999265 L 634.6250004480244 946.2617190399324 L 634.390625280037 945.9101562879514 L 634.3738388480269 945.5173601279384 L 634.3557120000478 944.9963519999292 L 634.2205440000398 944.8325119999354 L 634.0864000000292 944.5048319999478 L 634.1562501120497 944.1523435519193 L 634.8281251840526 943.2656250879518 L 634.8625920000486 942.632959999959 L 634.728448000038 942.3749119999702 L 634.6280960000586 941.8137599999318 L 634.5588357120287 941.7251624959172 L 634.4296878080349 941.5546879999456 L 633.9218749440624 941.390624767926 L 633.8549760000315 940.5962239999208 L 633.452544000058 939.9869439999457 L 632.9843752960442 939.4960936959251 L 632.078125056054 938.7929692159523 L 631.4375004160102 938.1367183359689 L 630.6969600000302 937.6686079999199 L 629.8593751040171 937.3398435839335 L 628.5117440000176 937.1074559999397 L 627.5696640000097 936.3814399999683 L 626.1565440000268 936.0527359999251 L 625.2499998720596 936.1445314559387 L 624.878587904037 935.9820390399545 L 624.814416896028 935.331724287942 L 624.7812495360267 934.976562175958 L 624.5099520000513 934.600703999924 L 624.5607618560316 934.3897671679733 L 624.6484377600136 934.0390625279397 L 624.7812495360267 933.85156300792 L 624.7812495360267 933.4062499839347 L 624.7500001280569 933.1484375039581 L 625.2513280000421 932.7052799999365 L 625.2890624000574 932.2382817279431 L 625.0168320000521 931.7693439999712 L 624.4140625920263 931.2539064319571 L 623.6047360000666 931.0658559999429 L 623.556111360027 930.9641410559416 L 623.5078123520361 930.8554690559395 L 623.5719680000329 930.761727999954 L 624.0468746240367 930.6210938879522 L 624.281249792024 930.4335933439434 L 624.3067514880095 930.3666524159489 L 624.3461120000575 930.27123199997 L 624.3461120000575 929.872895999928 L 624.1105920000118 929.4520319999428 L 624.0778240000363 929.2646399999503 L 623.6405760000343 928.6092799999169 L 623.3046876160661 928.2343751679291 L 623.2043520000298 928.0942079999368 L 623.0390620160615 927.9999999999418 L 622.9374996480183 927.7890621439437 L 620.7187496960396 926.2421872639679 L 619.9062497280538 925.8437498879503 L 618.7343749120482 925.4453125119326 L 617.6695296000107 925.14190950396 L 616.6118400000269 924.8378879999509 L 615.0645760000334 924.2757119999733 L 611.8021120000631 923.2916479999549 L 610.4531251200242 923.1015628799214 L 609.4141440000385 923.0335999999661 L 607.7656248320127 923.1015628799214 L 607.1930880000582 923.3367039999575 L 606.5204561920254 923.8281246719416 L 606.1171875840519 923.8281246719416 L 605.648437248019 923.7343754239264 L 605.343750144064 923.4765629439498 L 605.1093749760184 923.1015628799214 L 604.6361600000528 922.7274239999242 L 604.5009950720123 922.4939499519533 L 604.5347840000177 922.1191679999465 L 604.7037440000568 921.6511999999639 L 604.6361600000528 921.3931519999169 L 604.3359375360305 921.0195312639698 L 604.1323520000442 920.854527999938 L 602.6875002880115 920.3867187199648 L 602.0464640000137 920.1285119999666 L 596.2968750080327 919.3789061119314 L 593.8359377920278 919.2382812159485 L 588.6894080000347 919.4014719999395 L 587.2424960000208 919.6124159999308 L 586.8380160000524 919.5888639999321 L 584.8197120000259 920.431615999958 L 584.1484369920217 920.8749998079729 L 582.9355520000099 921.0859519999358 L 581.8906245120452 921.437500415952 L 581.2499998720596 922.1874995199614 L 580.9838080000482 922.7714559999295 L 581.1171870720573 923.4257817599573 L 580.7812495360267 923.8476564479643 L 580.3112069120398 924.0820930559421 L 578.8303360000136 924.1518079999369 L 577.3515622400446 924.0585932799731 L 576.3399680000148 924.0350719999406 L 575.9365120000439 924.1292799999355 L 575.3984378880123 924.4335933439434 L 575.0609920000425 924.8317439999664 L 574.5546874880674 925.0664058879483 L 573.3120000000345 925.2300799999502 L 572.9761280000093 925.5577599999378 L 572.1681920000119 925.6744959999342 L 572.0002560000285 925.8147839999292 L 571.4609377280576 925.9062497279374 L 571.1562496000552 926.0507811839343 L 570.890240000037 926.3994879999664 L 570.890240000037 926.8213759999489 L 571.023437824042 927.0312499199645 L 571.0919680000516 927.8044159999699 L 571.2265625600121 927.9921879039612 L 571.8671872000559 928.4374999039574 L 572.944504832034 928.5780193279497 L 573.1097794560483 928.6929059839458 L 573.2421877760207 929.183593471942 L 572.3359375360305 930.4257812479627 L 572.0002560000285 930.706431999919 L 571.764736000041 930.7299839999177 L 570.5871360000456 930.6132479999214 L 569.9143680000561 930.566143999924 L 569.5447040000581 930.6828799999203 L 569.1074560000561 930.7299839999177 L 568.568832000019 930.6828799999203 L 568.2968750080327 930.7539066879544 L 567.8611210240633 930.9873459199443 L 566.5843200000236 931.3617919999524 L 566.3509350400418 931.5241676799487 L 566.078125056054 931.710937087948 L 565.6406251520384 932.3671879679314 L 565.6406251520384 933.7265623039566 L 565.7027348480187 933.8197278719745 L 565.7774080000236 933.9371519999695 L 566.1484369920217 934.3593748479616 L 566.6519040000276 934.6621439999435 L 567.2265625600121 934.8515624959255 L 568.1229711360647 934.9228677119245 L 568.9395200000145 934.9898239999311 L 569.0312499200227 935.0351564799203 L 569.1410524160601 935.0829189119395 L 569.2421632000478 935.292993535928 L 569.0390620160615 935.5039057919639 L 568.2343751680455 935.5976560639683 L 567.4260480000521 935.7854719999596 L 567.2243200000376 935.9728639999521 L 567.1229440000607 936.3240959999384 L 566.7500001280569 936.6992189439479 L 566.2822400000296 936.7920639999211 L 564.3653109760489 936.7920670719468 L 563.828124672058 936.5351567359176 L 562.5156249600113 936.2070312959258 L 562.0111360000446 935.8796799999545 L 561.8897612800356 935.7111490559182 L 561.7109370880644 935.4570311679272 L 560.4296878080349 935.4101565439487 L 560.0624998400453 935.1992186879506 L 560.0937502720626 934.4765624319552 L 559.7900800000643 934.1480959999608 L 559.3866240000352 933.8439679999719 L 558.1424640000332 933.7968639999744 L 557.8046873600106 933.7031249919673 L 555.1484375040163 931.714843647962 L 554.2734376960434 931.2460933119291 L 553.0625003520399 930.8476559359697 L 549.898437632015 930.031250431959 L 548.7890626560547 929.820312575961 L 547.4426880000392 929.7971199999447 L 546.4999997440609 930.0078120959224 L 545.656250368047 930.4062504959293 L 545.2890624000574 930.4765624319552 L 545.0546872320119 930.1953126399312 L 544.6830080000218 929.9855359999347 L 544.6796871680417 929.9843747839332 L 543.9765626880107 929.9843747839332 L 543.8437498880667 929.9140628479654 L 543.8326036480139 929.7680465919548 L 543.8085120000178 929.4008319999557 L 543.236096000066 928.9093119999743 L 542.53125017602 928.5117183999391 L 541.1502080000355 928.1136639999459 L 538.5932800000301 927.4357759999693 L 536.4060160000226 926.8510719999322 L 535.195312128053 926.664062975964 L 534.7265628160094 926.4765624319552 L 533.1730042880517 926.0784148479579 L 532.9725440000184 925.939711999963 L 532.9025679360493 925.809042431938 L 532.8749998080311 925.7539061759599 L 531.8625280000269 925.3079039999284 L 528.0624998400453 925.3320314879529 L 520.1879040000495 924.6115839999402 L 519.211008000013 924.6126079999376 L 516.4185600000201 924.5429759999388 L 513.3593753600144 924.66015641595 L 511.8976000000257 924.7334399999236 L 507.7109370880644 925.2226559999399 L 504.483840000059 925.7134079999523 L 501.4531246080296 926.343749631953 L 498.9992960000527 926.9995519999648 L 496.97656217601616 927.7695313919685 L 494.58995200000936 928.4720639999723 L 493.6140800000285 928.9635839999537 L 491.56250009604264 929.7578127359739 L 490.7878400000627 930.1094399999711 L 489.9123200000613 930.5528319999576 L 488.1623040000559 931.7928959999699 L 487.05228800006444 932.167679999955 L 486.2105600000359 932.5885439999402 L 485.20089600002393 933.2664319999167 L 484.4267520000576 933.8982399999513 L 482.94707200000994 934.5996799999266 L 482.4062504960457 935.2070307839313 L 481.83593779202783 935.4882815999445 L 481.56672000006074 936.0035839999327 L 481.3649920000462 936.2380799999228 L 481.02809600002365 936.4019199999166 L 480.3515627520392 936.6132807679242 L 479.2421877760207 937.2656250879518 L 478.40358400001423 937.6645119999303 L 476.61718732805457 938.1093754879548 L 476.4190720000188 938.2256639999687 L 476.0468746240367 938.3203123199637 L 475.9676723200246 938.4336537599447 L 475.341824000061 939.3029119999264 L 474.9062502400484 939.6054691839381 L 473.9609374720603 940.167968767928 L 473.8046873600106 940.2812497919658 L 472.10937548801303 941.4804684799165 L 470.9374996480183 941.9687495679245 L 470.1614080000436 942.5090559999226 L 469.42105600005016 943.1173119999585 L 468.1718753280584 944.2890629119356 L 466.35929600003874 945.4100479999324 L 464.9453127680463 946.652343295922 L 464.87499980803113 946.7109375999426 L 462.6257920000353 948.6397439999273 L 461.95302400004584 948.9438719999744 L 461.34375014406396 949.5078123519197 L 460.9443840000313 950.0200959999347 L 460.6406246400438 950.6054686719435 L 460.1328128000605 951.1679682559334 L 458.3888394240639 952.3835484159645 L 457.1406254080357 952.8984371199622 L 456.9753600000404 953.062399999937 L 455.9667200000258 954.1160959999543 L 455.775292416045 954.3352668159641 L 455.5390627840534 954.6015621119295 L 455.4550200320664 954.7019468799699 L 455.39430400001584 954.7714559999295 L 454.95705600001384 955.099135999917 L 454.25000038405415 955.4023434239207 L 452.0990720000118 957.0416639999603 L 451.89973606402054 957.1314329599263 L 451.52343756804476 957.2968744959217 L 451.16746444802266 957.5672780799214 L 450.5859379200265 957.9999999999418 L 449.30867200001376 958.4230399999651 L 447.52343756804476 959.8046873599524 L 447.50446080003167 959.8236641279655 L 446.71897600003285 960.5294079999439 L 446.4843745280523 960.8789063679287 L 446.179687424039 961.0898442239268 L 446.14958694402594 961.1575695359497 L 446.1137920000474 961.2318719999166 L 445.6775680000428 961.6537599999574 L 445.07031244802056 962.1210941439494 L 444.66892800002825 962.2855679999338 L 444.23168000002624 962.6132479999214 L 443.82822400005534 963.1518719999585 L 443.42187520005973 963.714843647962 L 442.51562496001134 964.6015621119295 L 441.9450880000368 965.3985279999324 L 441.0040320000262 966.0774399999646 L 440.36505600000964 966.9898239999311 L 439.7250560000539 967.6390399999218 L 439.6249999360298 967.7382809599512 L 438.98437529604416 968.5351567359176 L 438.3125002240413 969.7304688639706 L 436.5004800000461 972.1395199999679 L 433.91283200006 975.0190079999738 L 433.27385600004345 975.4869759999565 L 432.803840000066 975.7214719999465 L 431.66105600004084 976.5642239999725 L 428.6328125440632 978.6953123839339 L 427.89683200005675 978.9757439999375 L 424.771584000031 979.9833599999547 L 423.2601600000635 980.5926399999298 L 421.4118400000152 981.6688639999484 L 420.10112000006484 982.535167999973 L 418.5221120000351 983.1444479999482 L 415.898437632015 984.8789063679287 L 414.69235200004186 985.5795199999702 L 414.1874995200196 985.9765626879525 L 414.02060800004983 986.2348799999454 L 412.9116160000558 987.1247359999688 L 411.6684800000512 987.968511999934 L 410.4601600000169 989.32633599994 L 409.48437504004687 990.5664061439456 L 408.9453127680463 990.9648435199633 L 407.5000002560555 991.5507814399316 L 407.10144000005675 991.9016959999572 L 406.3593748480198 992.3945308159455 L 405.7241600000416 992.9082879999187 L 405.3515622400446 993.3554687999422 L 405.18686208006693 993.6504330239259 L 404.918272000039 994.1258239999297 L 404.51562496001134 995.2031252479646 L 404.38169600005494 995.2737279999419 L 404.4140625920263 995.390624767926 L 403.4062499840511 996.2109378559398 L 403.2737280000583 996.5844479999505 L 403.20312524802284 996.7500001279404 L 403.10579200001666 996.8650239999406 L 403.13958400004776 997.0288639999344 L 403.24096000002464 997.356543999922 L 403.34233600005973 998.3160319999442 L 402.97472000005655 999.9319039999391 L 402.8916490240372 1000.1400883199531 L 402.80468787206337 1000.3515627519228 L 402.403328000044 1000.6108159999712 L 401.39673600002425 1001.8754559999215 L 400.9921873920248 1002.2500003839377 L 400.96286412805784 1002.3159787519253 L 400.92672000004677 1002.3915519999573 L 399.81875200005015 1003.4677759999176 L 399.013888000045 1004.7088639999274 L 398.4820736000547 1005.3769932799623 L 397.83593779202783 1006.1835939839366 L 397.70312499202555 1006.4179691519239 L 397.4031360000372 1006.6995199999656 L 396.2624000000651 1008.314367999963 L 396.1879091200535 1008.4403558399645 L 396.02343731204746 1008.7109375999426 L 395.9748546560295 1008.7615436799242 L 395.92652800004 1008.8069119999418 L 395.8261760000605 1009.1110399999307 L 395.52343756804476 1009.5546879999456 L 395.2187504640315 1009.9531253759633 L 394.8195840000408 1010.3050239999429 L 394.55232000001706 1010.7494399999268 L 394.4509440000402 1010.7965439999243 L 394.179687424039 1011.2656250879518 L 393.60937472002115 1012.0156252159504 L 393.0091520000133 1012.7871999999625 L 392.57031270401785 1013.2070307839313 L 391.7342720000306 1014.6365439999499 L 391.4659840000095 1015.3390079999226 L 391.39843788801227 1015.8320312319556 L 391.19531212805305 1016.343749631953 L 391.16406272002496 1016.8593745919643 L 391.1321600000374 1017.117695999972 L 391.0312499200227 1017.6523438079166 L 390.9353052160586 1018.2028830719646 L 390.8648960000137 1018.5922559999744 L 390.4624640000402 1018.8031999999657 L 388.34374963201117 1019.5078123519197 L 385.93024000001606 1020.7252479999443 L 384.7578152960632 1021.4023475199356 L 383.8976000000257 1021.8506239999551 L 383.53100800001994 1021.9919359999476 L 382.9999994880636 1022.3671879679314 L 381.28906240005745 1023.609374719963 L 380.921875456057 1023.6796876799199 L 380.9198080000351 1023.6815359999309 L 380.6923337143089 1024.0" fill="none"/></svg>