<svg xmlns="http://www.w3.org/2000/svg" width="1024" height="1024"><rect stroke="none" x="0" y="0" width="1024" height="1024" fill="white"/><path stroke="#000000" stroke-width="2" d="M 104.57303230687103 1024.0 L 104.77384294412332 1023.9222947838716 L 104.84886862139683 1024.0" fill="none"/><path stroke="#000000" stroke-width="2" d="M 106.40865369985113 1024.0 L 106.55063040007371 1023.7949214718537 L 106.6328125440632 1023.7949224959593 L 106.65554636809975 1023.9929569278611 L 106.65225632241345 1024.0" fill="none"/><path stroke="#000000" stroke-width="2" d="M 100.93749964801827 1020.625000447908 L 100.90665164811071 1020.6732011519489 L 100.77928243204951 1020.6504673279705 L 100.7081318400451 1021.0072791039711 L 100.56249958410626 1021.2499998718267 L 100.60661350411829 1021.3382277118508 L 100.36754841607763 1021.5173079038505 L 99.79687526402995 1021.4199214078253 L 100.40234393603168 1021.7480468479334 L 100.9674024960259 1022.0598015998839 L 101.03124992002267 1022.191406079859 L 101.03716556809377 1022.2372505598469 L 101.04336179204984 1022.313794560032 L 100.88236646418227 1022.8413542399067 L 100.79492198402295 1023.009765375813 L 100.43554713606136 1023.3378908158047 L 100.51562496012775 1023.6640624639695 L 100.56249958410626 1023.8128435199033 L 100.56249958410626 1024.0" fill="none"/><path stroke="#000000" stroke-width="2" d="M 98.43269270884048 1024.0 L 98.3125002240995 1023.6874997759005 L 96.87499980803113 1021.6249999358552 L 96.68750028806971 1020.625000447908 L 96.69531238410855 1020.5488281598664 L 96.7187496960396 1020.4707031039288 L 96.76562534406548 1020.0605470719165 L 96.58593792002648 1019.4453125118744 L 96.60228198411642 1019.3699686398031 L 97.19531212805305 1019.1386716159759 L 97.24065792001784 1019.1343114239862 L 97.5859374080319 1019.1113277439727 L 98.43750092806295 1019.0449223678443 L 99.25620633608196 1019.0098339838441 L 99.812500480155 1019.1191408638842 L 99.85937510401709 1019.1269529599231 L 100.71093760011718 1019.373046783905 L 101.32031283213291 1019.8613278719713 L 101.46093772805762 1020.2011719678412 L 101.51991091202945 1020.4628664319171 L 101.55247923207935 1020.6172149758786 L 100.93749964801827 1020.625000447908" fill="none"/><path stroke="#000000" stroke-width="2" d="M 93.60937472013757 1013.5878901758697 L 93.50000025611371 1013.8750003199093 L 92.6875002880115 1012.8124999678694 L 92.57812480005668 1012.0820316160098 L 93.5859374080319 1013.3769533438026 L 93.60937472013757 1013.5878901758697" fill="none"/><path stroke="#000000" stroke-width="2" d="M 91.9531253760797 1009.8515630078618 L 91.74999961617868 1010.1874995199614 L 90.8124999681022 1008.3125002239831 L 90.62500044802437 1007.5000002559391 L 90.91101593605708 1007.7860157439718 L 91.40624998410931 1008.4277340159169 L 91.70312499202555 1009.0175784960156 L 91.9492188161239 1009.5917967358255 L 91.9531253760797 1009.726576639805 L 91.9531253760797 1009.8515630078618" fill="none"/><path stroke="#000000" stroke-width="2" d="M 78.00000000011642 959.00000051182 L 78.49620480003068 959.0875658238656 L 79.07031244807877 959.2441405440331 L 80.95312486414332 959.7988280318095 L 84.21875507204095 961.6904867839767 L 84.71856742410455 962.3356999679818 L 84.37500006414484 962.6875002878951 L 84.51348275208147 962.7201976319193 L 84.11718758411007 962.798827519815 L 83.52734310406959 962.6660157440347 L 83.27462195203407 962.3617433598265 L 83.12500019202707 962.0624998398125 L 82.1249996800907 961.2499998718267 L 82.08593817602377 961.2402339840191 L 82.05092352011707 961.2358901760308 L 80.812499968044 961.0000005118782 L 80.93749964801827 961.0976563198492 L 80.51562496006954 961.0449223678443 L 79.4664775680285 960.8502036478603 L 80.98828185605817 961.4042961918167 L 81.59374950412894 961.7675786238979 L 82.0413470720523 962.1364592639147 L 82.12993536010617 962.0105656319647 L 82.20157849602401 961.9141888000304 L 82.59375001612352 962.2597652479308 L 83.29687449609628 962.7832033279701 L 84.46093721606303 962.8964843518916 L 85.06640691205394 962.9121095680166 L 85.75585894408869 963.3378908159211 L 86.179687424039 963.8222653439734 L 86.47513497603359 964.2740735998377 L 86.46731571201235 964.3200430079596 L 84.87499980803113 964.6875002878951 L 83.74999961612048 964.6875002878951 L 82.71093760005897 964.8847656958969 L 82.36164505610941 964.911933439842 L 82.05882777605439 964.8792422399856 L 80.812499968044 964.6875002878951 L 79.39401932811597 964.8901396479341 L 79.07031244807877 964.8613283839077 L 77.30078105611028 964.4199219198781 L 77.29687449603807 964.4199219198781 L 77.19573094404768 964.5016145919217 L 74.13281280006049 963.4902343678987 L 74.15625011210795 963.4062499838765 L 74.15366144001018 963.4065991679672 L 74.15408435201971 963.4050682879752 L 73.56250009610085 963.4863278078265 L 73.50000025611371 963.5000002558809 L 73.43750041601015 963.5000002558809 L 72.00000000005821 963.2499998718267 L 70.78928998403717 962.46040678391 L 70.812499968044 962.4062504958711 L 70.9167022081092 962.1040957439109 L 71.06250035215635 961.812500479864 L 71.27343718404882 961.4335938558215 L 71.51757824007655 961.177734144032 L 72.24218726408435 960.2539059199626 L 72.62500044802437 959.8125004798057 L 72.83936358412029 959.6383303679759 L 73.57991731201764 959.1465912318672 L 74.53125017601997 959.2089845758164 L 75.4062499840511 959.2890623998246 L 75.66406246408587 959.3105469438597 L 76.02343833609484 959.1933593599242 L 76.21467852807837 959.0855966719682 L 76.49999974406091 959.00000051182 L 77.61414758401224 959.00000051182 L 77.78906214411836 959.0136719359434 L 77.85937510401709 959.00000051182 L 78.00000000011642 959.00000051182" fill="none"/><path stroke="#000000" stroke-width="2" d="M 64.816406528058 941.4824222719762 L 66.375583744084 942.5982832638547 L 67.68749977601692 943.6249999359716 L 67.96093747211853 943.7890621438273 L 68.34374963201117 944.1347655679565 L 68.25116774410708 944.1116200959659 L 68.12500070402166 944.0722657279694 L 67.9140628480236 943.9160156159778 L 67.86718720005592 943.8886717439746 L 67.09374976012623 943.646484479832 L 66.3593748480198 943.4316410878673 L 65.814453248051 943.3183600640041 L 65.14257817610633 943.1230464000255 L 64.71679692808539 943.1230474238982 L 64.56870912009617 943.187500031956 L 64.3125002240995 943.187500031956 L 64.23437516810372 943.435546623834 L 64.09375027217902 943.646484479832 L 64.06250086403452 944.1542973439209 L 64.43749990407377 945.3183590399567 L 64.52343705616659 945.6249999358552 L 64.33339801611146 945.9790469119325 L 64.22656307206489 946.0371097598108 L 63.996094464033376 945.7753907199367 L 63.99313510413049 945.776448511926 L 63.99218790407758 945.7753907199367 L 63.898298368032556 945.8103480318678 L 63.81250048009679 945.6874997758423 L 62.992187392083 945.9765626878943 L 62.803032064053696 945.9900784638594 L 61.87308339215815 945.8980782078579 L 61.752854528022 945.8807091198978 L 61.61718784010736 945.8730465279077 L 61.07812454405939 946.0371097598108 L 61.341797376051545 946.1347655680147 L 61.76562483201269 946.1347655680147 L 61.98223564802902 946.3394713598536 L 62.012496896029916 946.3999938559136 L 62.05468774406472 946.4902348799515 L 62.03125043207547 946.8886722559109 L 62.30468710401328 947.2832030719728 L 62.4843745281687 947.6269527039258 L 62.45363609609194 947.7760337918298 L 62.43707801605342 947.8472847358207 L 62.42187468818156 947.9042969598086 L 62.40537907218095 947.9867750398116 L 62.3574220801238 948.2011719678994 L 62.27343769610161 948.6933596158633 L 62.55468748806743 948.5761720319279 L 62.621093888010364 948.2675783679588 L 62.882812928117346 948.1035151358228 L 62.945312768104486 947.7871093758149 L 62.86100582405925 947.6268595198635 L 62.687500288069714 946.8749998078565 L 62.36242841609055 946.8749998078565 L 62.321511424088385 946.7587952639442 L 62.47656243207166 946.5097656318103 L 62.687500288069714 946.3144529919373 L 63.15832115209196 946.2677596160211 L 64.09375027217902 946.3496089599212 L 65.1406254080357 946.5136721918825 L 65.53710899211 946.7753912318149 L 66.02734387211967 947.4628904959536 L 66.1914071040228 947.8320312318392 L 66.35156275209738 948.2011719678994 L 66.94531276810449 949.0527344639413 L 67.34375014406396 949.7109370878316 L 67.56036608008435 950.0580290559446 L 68.10937548801303 950.3613276159158 L 68.07830220810138 950.143820799829 L 68.18749952001963 950.1874995199032 L 67.81250048009679 949.3749995518592 L 67.18750003213063 948.7500001279404 L 66.88281292811735 948.1347655678401 L 66.52343705605017 947.3652346879244 L 66.39062528003706 946.9570314238081 L 66.75000012805685 947.0214840318658 L 66.83007795212325 946.7597660158644 L 66.09375027206261 946.5136721918825 L 66.01562521612504 946.4511723518954 L 65.62499993608799 946.0624998398125 L 65.3124997120467 945.2499998718267 L 64.93749964807648 944.6250004478497 L 64.89277542405762 944.60583321593 L 64.57031270413427 944.269531135913 L 64.71093760005897 943.9140628479072 L 64.8593745920225 943.7558589439141 L 65.11088332801592 943.4828994558775 L 65.85937510401709 943.4980464638211 L 66.4531251200242 943.8105466878624 L 66.7485276160296 943.7600174079416 L 67.46874982403824 944.1386721280287 L 68.37109350401442 944.5292963838438 L 69.28906240005745 945.087890431867 L 69.48176998406416 945.4010378239327 L 69.62499993608799 945.6874997758423 L 69.67594598402502 946.095070207899 L 69.70301132806344 946.3765463039745 L 69.7265623040148 946.6621091839625 L 69.84374988806667 947.8417971198214 L 70.17187532805838 948.7402342399582 L 70.812499968044 950.181640191935 L 70.86719283211278 951.2110448640306 L 70.9062502400484 952.0332031999133 L 71.15105484804371 952.8092866559164 L 71.27148441609461 953.1972648958908 L 71.34375014406396 953.6542965758708 L 71.19531212805305 953.8007807999384 L 71.08724326401716 953.8683248639572 L 70.67968716804171 953.7402347518946 L 70.43749990401557 953.4375004158937 L 70.2656245760736 953.5468748799176 L 70.12304691202007 953.4746091519482 L 69.73088665603427 953.8033500158344 L 69.74783795204712 953.840878591931 L 69.75781273609027 953.8691409919411 L 69.94314547203248 954.1164328958257 L 70.03906252805609 954.2636718078284 L 70.13833523209905 954.5510410239804 L 70.18555596808437 954.6933329920284 L 70.06249984010356 955.0625003519235 L 69.95191603212152 955.2836679678294 L 69.64843724801904 955.7050777598633 L 69.58398464007769 955.9667978238431 L 69.9453122560517 955.7714841599227 L 70.28906291211024 955.5429683199036 L 70.4764579840703 955.4150778879412 L 70.75000012805685 955.3124997118721 L 70.57031270401785 955.0175784958992 L 70.51757772802375 954.7871088639367 L 70.30738636804745 954.463481855928 L 70.507824128028 954.3359303678735 L 70.77343744004611 954.169921535824 L 71.23828121606493 954.2285158398445 L 71.48454195208615 954.2465003519319 L 72.0199608320836 955.5622809598572 L 72.45965721609537 956.7917393918033 L 72.74218700808706 957.5878901759279 L 71.36686796805589 959.5641456638114 L 71.18750003213063 959.8125004798057 L 71.14843750401633 959.8652344318107 L 70.6328125440632 960.4902348798933 L 70.22265651205089 960.8339845118462 L 70.16046182409627 960.890099711949 L 69.3124997120467 961.6249999360298 L 68.08593715209281 961.6249999360298 L 68.00998604815686 961.603577855858 L 67.45597337605432 961.1716444159392 L 67.24999987211777 961.0000005118782 L 66.25000038405415 959.8125004798057 L 61.93750016001286 951.812500479864 L 59.68749977601692 947.9375001598964 L 59.68749977601692 947.5097651198157 L 59.720702976046596 947.2519536638283 L 59.68749977601692 947.1619112958433 L 59.68749977601692 946.8749998078565 L 58.99999948818004 946.4999997438281 L 58.94793728005607 946.4390389758628 L 58.57421824004268 946.0371097598108 L 58.562621440098155 945.9986585599254 L 58.56249958410626 945.4398935039644 L 58.72070348809939 945.3183590399567 L 58.65624985611066 945.105468415888 L 58.565621760091744 945.0416865279549 L 58.73609216010664 943.9052185599576 L 58.869140480062924 943.8417971198796 L 59.35937536001438 943.7285160960164 L 59.76910438406048 943.7597327359254 L 59.761942528013606 943.6750766078476 L 59.757812736032065 943.5800780800055 L 59.7766256640316 943.4728427518276 L 59.80093747214414 943.3580943358829 L 60.312500224099495 943.00000051182 L 60.98437529604416 942.2871091198758 L 61.046875136031304 942.2363279359415 L 61.34375014412217 941.9746088958345 L 61.29687449603807 941.9472660479369 L 61.53237196808914 941.6705658878782 L 61.65625036804704 941.5996098559117 L 62.28124979202403 941.1796879359172 L 62.312499200052116 941.1562506238115 L 62.98437529604416 940.7597660159227 L 64.93749964807648 942.4062504958129 L 65.12500019202707 942.5624995839316 L 63.87956531211967 940.6646958078491 L 63.9453122561099 940.6738278398989 L 64.25000038411235 940.9199216638808 L 64.47436902404297 941.1412172799464 L 64.816406528058 941.4824222719762" fill="none"/><path stroke="#000000" stroke-width="2" d="M 62.69531238405034 938.3125002238667 L 61.85450598405441 938.3125002238667 L 61.76764108805219 938.1739284478826 L 61.71875020803418 937.5019530239515 L 61.636718592082616 936.8964843518916 L 61.47656294418266 936.6269532159204 L 61.5390627841698 936.2246092799469 L 61.36304435215425 935.9461509119719 L 60.8124999681022 935.6249999359716 L 60.12499968003249 935.187500031956 L 59.90637977607548 934.1490524160326 L 60.6916843521758 934.9981685759849 L 61.56250009604264 936.0624998398125 L 62.671875072061084 936.4335933439434 L 62.97655091207707 937.1797452798346 L 62.78124953608494 938.1406248959247 L 62.69531238405034 938.3125002238667" fill="none"/><path stroke="#000000" stroke-width="2" d="M 56.687500288011506 935.0664058879483 L 56.18749952001963 935.6249999359716 L 56.00000000005821 934.8124999679858 L 56.18749952001963 933.5625000959262 L 56.50720460811863 934.0192204798805 L 56.57421926403185 934.2089840639383 L 56.665617408114485 934.6901913598413 L 56.703125504020136 934.8964843518334 L 56.687500288011506 935.0664058879483" fill="none"/><path stroke="#000000" stroke-width="2" d="M 57.851563008036464 931.9472660479369 L 58.62304768001195 932.1933598719188 L 59.24218777602073 932.4550778879202 L 59.802734592114575 932.6503905279678 L 59.91406284814002 932.7656253438909 L 59.96874956804095 933.0390620159451 L 59.96679680002853 933.095703551895 L 59.91991603205679 933.2115251198993 L 59.37499955203384 933.3749995519174 L 58.78124953608494 933.3749995519174 L 58.4453120000544 933.3574215678964 L 58.36577484809095 933.3749995519174 L 57.62499993602978 933.3749995519174 L 56.93749964807648 933.187500031956 L 56.19531264004763 932.564453375875 L 56.69441843213281 932.1433313279413 L 57.00000051205279 932.1777346559684 L 57.12868966406677 932.0624895999208 L 56.88355737604434 931.9824517118395 L 56.93749964807648 931.9375001598964 L 57.81250048003858 931.9375001598964 L 57.851563008036464 931.9472660479369" fill="none"/><path stroke="#000000" stroke-width="2" d="M 55.43638016009936 932.597985279921 L 55.624999936146196 932.9374996479019 L 55.21021952002775 933.1794544638833 L 54.953124864026904 933.095703551895 L 54.74032332806382 933.3067939839675 L 54.919921664113645 933.6191406078287 L 55.11718809604645 934.0761712638778 L 55.248047104047146 934.8964843518334 L 55.17968793603359 935.4199214079417 L 55.14324992004549 935.5890995198279 L 55.066405888064764 935.927734271856 L 55.061265408061445 935.9842764798668 L 55.05468723207014 936.0253911039326 L 55.04810803208966 936.1290168318665 L 55.035156480094884 936.2714849279146 L 55.23046912008431 936.6972651519463 L 55.78906214406015 936.8613283838495 L 56.14453760004835 936.5576110079419 L 56.50991001614602 936.371426303871 L 56.65520742407534 936.2993448959314 L 56.78710886405315 936.4707031039288 L 57.03124992008088 937.0917969919392 L 57.39062476810068 937.7128908799496 L 57.83593779208604 937.5996088319225 L 58.03336192003917 937.3638789120014 L 58.17148108803667 937.3184849918471 L 58.41015603201231 937.4199214079999 L 58.47442124807276 937.9281264638412 L 58.29492121603107 938.3027343358845 L 57.71875020803418 938.5996093439753 L 57.247334400133695 938.9588490239112 L 57.851563008036464 938.8925777918776 L 58.17187532805838 938.9003909119638 L 58.64062464010203 939.2363284479361 L 58.64254976005759 939.2518891519285 L 58.62304665602278 939.2558602239005 L 58.687500288069714 939.615234047873 L 59.11718707205728 939.7285160959 L 59.14973491203273 939.6634204159491 L 59.16534476802917 939.6355461119674 L 59.3124997120467 939.6132812798023 L 59.3124997120467 939.3124997118721 L 58.687500288069714 936.6250004478497 L 57.74999961606227 935.4375004158355 L 57.43750041606836 934.8124999679858 L 57.570312192023266 934.3808593918802 L 57.77263616002165 934.225225727947 L 58.85156249610009 934.4394526718534 L 59.24999987205956 934.4921876479057 L 59.6393656321452 934.6101903359522 L 60.03125043201726 935.4550783998566 L 60.474609664059244 936.4042967038695 L 60.75000012811506 936.748047359928 L 61.273437184107024 937.1894527999102 L 61.5390627841698 937.6503910399624 L 61.632812032010406 938.435547135945 L 61.75950643204851 938.7952670718078 L 61.84882790414849 939.0569461758132 L 61.34068838402163 939.2553195518558 L 59.3124997120467 939.7499996158876 L 56.12499968003249 941.187500031956 L 55.3124997120467 939.9375001598964 L 55.26562508806819 939.6230471680174 L 55.27343718404882 939.484375039814 L 55.28125030407682 939.3027348479372 L 55.361181696061976 938.9440010239487 L 55.109943296120036 939.0076702718507 L 53.023437824100256 935.8476564478478 L 52.74218700808706 935.3730467838468 L 52.625000448024366 935.1308595199371 L 52.312500224099495 934.3750000639702 L 52.625000448024366 933.5625000959262 L 52.65720832004445 933.4856038399739 L 52.75781222403748 933.3730467838468 L 52.85937459208071 933.0449223679607 L 52.84402176004369 933.0193346558372 L 52.83858432015404 933.0071797759156 L 52.93749964807648 932.7500001279404 L 51.664062464027666 932.9316403199336 L 52.134245376102626 930.4421908479999 L 52.72498073603492 930.3576463359641 L 53.55467468802817 930.8568381438381 L 54.64843776001362 931.5976560639101 L 54.820312064141035 932.0292966399575 L 55.27929651201703 932.4550789120258 L 55.43638016009936 932.597985279921" fill="none"/><path stroke="#000000" stroke-width="2" d="M 39.81250048003858 906.7500001279404 L 38.937499648018274 906.7500001279404 L 38.81381171208341 906.6634188798489 L 38.52343705605017 906.4238284799503 L 38.37500006414484 905.8339839999098 L 38.43224985606503 905.5656284158467 L 38.4709888001089 905.395638271817 L 38.61160652816761 905.219866623811 L 38.863130624056794 905.1270082559786 L 38.885084160079714 904.8158648319659 L 38.8984371200786 904.6542970879818 L 38.687500288011506 904.4970414078562 L 38.687500288011506 904.3125002238667 L 38.32922521617729 903.7153751039295 L 38.37500006414484 903.5195310079143 L 38.39843737601768 903.4042972159223 L 38.409603072097525 903.3638236159459 L 38.414215168042574 903.348448255856 L 38.50195353612071 903.1308595199371 L 38.54054297611583 903.0097940479754 L 39.05585766409058 902.3398860798916 L 39.10937497607665 902.3417968638823 L 39.335937024094164 902.5214842878631 L 39.50000025611371 902.8496097279713 L 39.648437248019036 903.2128911359468 L 40.24023449613014 904.20898406388 L 40.85937459208071 904.5722654719721 L 42.56010854401393 905.5495413758326 L 41.56250009604264 905.9375001598964 L 40.75000012811506 906.5624995838734 L 39.81250048003858 906.7500001279404" fill="none"/><path stroke="#000000" stroke-width="2" d="M 39.35418982402189 890.6061352959368 L 39.87500032002572 890.9550776318647 L 39.991525376040954 891.140466687968 L 40.25000038405415 891.8125004798057 L 39.81684224004857 892.0723947519436 L 39.617357824055944 892.1737431038637 L 39.3124997120467 891.6249999359134 L 39.18116044817725 891.4061015038169 L 38.994137088011485 890.9082040319336 L 38.99282227206277 890.909889535862 L 38.99218739202479 890.908203007828 L 38.765625344065484 891.2011714559048 L 38.726562816125806 891.4160158719169 L 38.625000448024366 891.6249999359134 L 38.61718835210195 891.6601559039555 L 38.453125120082404 891.7910159359453 L 38.43749990413198 892.3144529918791 L 38.91406233608723 893.662109695957 L 38.96093798405491 893.7910159360035 L 39.382812672061846 893.9199221758172 L 39.81258137605619 893.888808959804 L 40.00781209609704 894.216797183908 L 40.304557056108024 894.365168639808 L 40.25000038405415 894.6796871679253 L 40.093750272120815 894.8847656959551 L 39.484375040163286 895.4277345279115 L 39.632812032010406 895.7089843198773 L 39.742187520023435 895.8847651839606 L 39.93750016001286 896.4999997438281 L 39.95312537602149 896.6054686719435 L 39.92817664006725 896.6638714878354 L 39.86328166403109 896.8066406399012 L 39.94531737611396 896.9785262078512 L 40.02343731204746 897.1503902719123 L 40.23773900803644 897.2873052159557 L 40.512455680116545 897.4660751358024 L 40.620290048012976 897.5373957118136 L 40.687500288011506 897.5839846399613 L 40.92010188801214 897.7836052479106 L 41.20703180809505 898.0332032000297 L 41.209629696037155 898.0320808959077 L 41.210937344061676 898.0332032000297 L 41.55013427202357 897.8850447359146 L 41.501953024126124 897.6074219518923 L 41.42187520005973 897.5507814398152 L 41.56250009604264 897.3124997118721 L 41.921874944120646 897.0058598398464 L 42.03906252817251 897.0683596798335 L 42.664062976138666 897.0996090878034 L 42.8814909440116 897.157457919966 L 42.99999948812183 897.7499996158294 L 42.83528192003723 898.0794367998024 L 42.531250176078174 898.4746096638846 L 41.859375104133505 899.0175784959574 L 41.872386048024055 899.1646003199276 L 41.89453107205918 899.4589839359396 L 42.43554713606136 899.5253903359408 L 42.664062976138666 899.7050777599216 L 43.20312524808105 900.0488284158055 L 43.87500032002572 900.2441410558531 L 44.234375168103725 900.541016063944 L 44.31250022404129 900.6250004479662 L 44.404827136022504 900.6480824318132 L 44.97460940806195 900.9160161279724 L 46.10156236815965 901.8085939199664 L 46.184322048095055 901.8715248638764 L 46.28473139205016 901.9508357119048 L 46.15647027204977 902.6394808318582 L 45.24999987211777 903.0625003518653 L 44.625000448024366 903.4589839358232 L 44.51562496001134 903.5058595839655 L 43.18750003207242 903.6874997760169 L 42.446334976062644 902.9992744958727 L 42.30468710407149 902.8496097279713 L 42.25000038405415 902.802734079829 L 41.749999616178684 902.2500003838213 L 39.93750016001286 900.3750000639702 L 39.62499993608799 899.5625000959262 L 39.12500019208528 898.5624995838734 L 38.82031206408283 897.8593751040171 L 38.703125504020136 897.541015551833 L 38.19531264010584 896.8535152638215 L 38.14062489604112 896.7734374398133 L 37.87500032008393 895.8750003198511 L 36.87499980808934 893.8750003198511 L 36.06249984016176 892.8124999679858 L 35.43750041601015 891.3749995519174 L 35.43750041601015 890.9594327039667 L 35.45502412802307 890.3180922879255 L 35.43750041601015 890.2324213758693 L 35.43750041601015 890.187499519845 L 35.257812992087565 888.8027340798872 L 35.65625036804704 888.4316405759309 L 36.70198374404572 888.2053222399554 L 37.34317260805983 888.3987711998634 L 37.521440768032335 888.4810495999409 L 37.7167964160908 888.8574218238355 L 38.05128908803454 889.3309419519501 L 38.18749952001963 889.5625000959262 L 38.46093721606303 889.8007807999966 L 39.091796992055606 890.4316405759891 L 39.35418982402189 890.6061352959368" fill="none"/><path stroke="#000000" stroke-width="2" d="M 29.210937344061676 879.8144532479928 L 29.617116160108708 880.3391006718157 L 30.425781248079147 881.3886719999136 L 30.701428736036178 883.7602693119552 L 30.734374912048224 884.0703129598405 L 30.718749696039595 884.4042967038695 L 30.973239296174143 884.6965401598136 L 30.99999948812183 884.8124999679858 L 30.99999948812183 884.9453127678717 L 30.965879808121826 885.140813823964 L 30.814525440044235 885.4944737278274 L 30.7656253441819 885.5996098559699 L 31.03124992008088 885.8242191359168 L 31.2265625600121 886.5937500158325 L 31.2265625600121 886.6816409599269 L 31.437500416010153 887.2714844158618 L 31.68568729609251 887.4512148478534 L 31.919602688169107 887.985879039974 L 32.015625216125045 888.4003901438555 L 32.88134553609416 889.9891824639053 L 33.37499955209205 891.0000005119946 L 33.5000002560555 891.9999999999418 L 33.53509273607051 892.0912404478295 L 33.64255641604541 892.5187061758479 L 33.695312896044925 892.7363276799442 L 33.78125004802132 893.0703124478459 L 33.68749977601692 893.8750003198511 L 33.64062515203841 893.8750003198511 L 33.55468800012022 893.7558589439141 L 33.02328217617469 893.8750003198511 L 32.43749990401557 893.8750003198511 L 30.625000448024366 893.4375004158355 L 30.166407168086153 893.2995338239707 L 30.000000000058208 893.2011714559048 L 29.673025536118075 892.7446753279073 L 29.31249971210491 892.1874995199032 L 28.797889536013827 891.9150591998477 L 28.246093824098352 891.5800780799473 L 28.233479168033227 891.5419832319021 L 28.226562048017513 891.5117189118173 L 28.188653568038717 891.4066083839862 L 28.144280576030724 891.2726026238524 L 28.062499840103555 891.0000005119946 L 28.382812160125468 890.8515624959837 L 28.953124864026904 890.6113279999117 L 29.52539033605717 890.4628899839008 L 30.1328128001187 890.4160153598641 L 30.210937856056262 890.2402344959555 L 30.281249792024028 890.0878909438034 L 30.473974784079473 889.7701550080092 L 30.572265472030267 889.6113285119645 L 30.601562112162355 889.3027348479372 L 30.632812544121407 888.8906250238069 L 30.359374848019797 888.8574218238355 L 30.31054745602887 889.3652346879244 L 29.655206912080757 889.4822123518097 L 29.23012710403418 889.3961820159457 L 29.007812608091626 889.3144535038155 L 29.016466432076413 889.2630999039393 L 29.187500032014214 888.7500001278822 L 29.5000002560555 887.9375001598964 L 29.812500480096787 886.8749998079729 L 30.124999680032488 885.6874997759587 L 30.11718758411007 885.6523438079748 L 30.03125043201726 885.453124607855 L 29.68749977601692 884.6250004480244 L 29.5000002560555 883.6249999359134 L 29.187500032014214 882.5624995838734 L 28.437499904015567 881.5625000959262 L 27.74999961606227 880.9374996478437 L 27.3124997120467 879.9375001598964 L 26.312500224099495 879.9375001598964 L 25.812500480096787 880.3125002238667 L 25.57451366406167 880.3125002238667 L 25.55816550407326 880.301366271975 L 25.54687488003401 880.2910156798316 L 25.358306304086 880.3125002238667 L 24.882812928117346 880.3125002238667 L 25.173795840062667 879.879855103849 L 25.32992000010563 879.6506245119963 L 25.36054476816207 879.0195496959495 L 25.37499955209205 878.8749998080311 L 24.874999808031134 878.4999997438281 L 24.874999808031134 876.8749998079729 L 25.61446195206372 877.2183214079123 L 26.5761710080551 877.7363281918224 L 29.210937344061676 879.8144532479928" fill="none"/><path stroke="#000000" stroke-width="2" d="M 21.812500480096787 874.6250004479662 L 21.843749888066668 874.6542970878654 L 21.734375424101017 874.7402342399582 L 22.75000012817327 875.5546879999456 L 22.75000012817327 875.5996098559117 L 22.656249856052455 876.0722657279111 L 22.250000384112354 876.3808593919384 L 21.18750003213063 877.0625003518071 L 20.375000064028427 876.6250004478497 L 20.687500288069714 874.6250004479662 L 20.605947904055938 874.6476390398457 L 20.382430208090227 874.7399536639568 L 16.375000064028427 876.2500003838213 L 21.812500480096787 873.1875000318978 L 21.220817920053378 872.1816401918768 L 23.78125004802132 872.1816401918768 L 24.171875328058377 872.472655871883 L 24.187521024083253 872.4896061439067 L 24.195579904015176 872.4990085119498 L 24.223777792067267 872.5846886399668 L 21.812500480096787 874.6250004479662" fill="none"/><path stroke="#000000" stroke-width="2" d="M 19.851563008094672 867.0195312638534 L 19.437500416126568 867.4375004160102 L 18.75000012817327 866.8124999679276 L 18.703125504020136 866.7675781119615 L 18.76562534412369 866.5507809278206 L 18.16535859211581 866.2622494719108 L 17.68749977601692 865.8125004799804 L 17.62499993602978 865.1875000318978 L 17.31249971210491 864.5624995838734 L 16.874999808031134 864.1249996798579 L 16.499999744119123 862.9374996478437 L 16.000000000116415 862.4999997438281 L 15.782029312103987 861.7915944959386 L 16.109375488071237 861.5800780798309 L 16.375000064028427 861.5000002558227 L 17.085667328094132 861.335999487841 L 17.18750003213063 861.6308592639398 L 17.466796032036655 862.0722657279694 L 17.59374950401252 862.791015424009 L 17.623545856040437 862.9447700479068 L 17.506837504100986 863.5712511998718 L 17.49804646411212 863.6621096958406 L 18.85937561612809 865.529296896013 L 19.15429683215916 865.6933591038105 L 19.12109363207128 865.8886717439163 L 19.203125248022843 866.1191403519479 L 19.562500096100848 866.2480465918197 L 19.81250048003858 866.6894530558493 L 19.848046592087485 866.8652328958269 L 19.851563008094672 866.9355663359165 L 19.851563008094672 867.0195312638534" fill="none"/><path stroke="#000000" stroke-width="2" d="M 0.0 805.8478200778591 L 0.33177600003546104 806.5443839998916 L 1.765376000024844 809.2067839999218 L 4.015625216066837 813.4062499838765 L 5.140625408093911 815.9648440318997 L 5.823488000023644 817.3847265279037 L 6.270976000116207 818.320383999846 L 7.192576000059489 820.1635839999071 L 10.878976000123657 827.3315839999705 L 12.41406259208452 830.3007815678138 L 15.945312256051693 837.4687498238054 L 17.125376000010874 839.7219839998288 L 20.914062336087227 847.0937497598352 L 25.210937344061676 854.6718750719447 L 28.35156275209738 860.6445311999414 L 29.820312576019205 863.27148441592 L 32.68750028812792 868.802734079829 L 33.710937088064384 870.6464839678374 L 34.63281254412141 872.4882810880081 L 35.54687488009222 874.089843711874 L 38.32031232008012 878.9394534399617 L 38.625000448024366 879.6562503678724 L 40.12321792001603 882.336420863925 L 41.03410483204061 883.9718615039019 L 41.1406254080357 884.1699215359404 L 42.10937548801303 885.902344192029 L 44.87499980808934 890.6132807678077 L 45.898437632014975 892.2519531518919 L 49.070312448136974 897.5761715198169 L 49.890624512161594 898.8046878718887 L 56.95897600002354 910.4783359998255 L 57.24581171211321 910.8793262078543 L 57.968749568099156 911.8964848638861 L 66.48217600007774 923.79033599986 L 73.10539878404234 931.7243330558413 L 63.03090176009573 931.0232637438457 L 62.898437120136805 930.9570314238081 L 62.828125184052624 931.007812607917 L 61.41656883206451 930.9103288319893 L 61.1573760000756 930.6511359998258 L 59.92968704015948 929.8320312319556 L 55.62777600012487 928.2959359999513 L 53.477376000082586 927.0671359999687 L 53.37872486410197 925.5873617919278 L 53.85559961601393 926.5198940159753 L 54.29657600010978 927.4275839999318 L 54.294132736104075 927.3774499839055 L 54.29687500803266 927.3828126718872 L 54.19531264010584 925.3261721599847 L 55.93750016001286 925.0195312638534 L 53.992187904019374 924.9160161279724 L 53.89526425610529 924.0697333759745 L 53.78457600012189 923.0735359998653 L 52.250000384112354 920.3085936639691 L 52.866882560017984 917.6478013439337 L 53.68217600003118 917.9535359998699 L 52.968750080035534 917.1347660799511 L 52.45337600004859 914.3695360000129 L 46.31250022404129 908.2246092798887 L 44.67187507211929 906.0761722879251 L 44.28906291216845 905.562500095868 L 44.146944000036456 905.3765621759812 L 43.94018406403484 905.1007467519958 L 43.71875020809239 904.8007813118165 L 43.445312512048986 904.437499903841 L 47.84537600004114 902.3887359998771 L 47.234247680113185 902.2868807679624 L 46.79339212802006 901.498685439874 L 46.20697600004496 900.4431359998416 L 45.701588992087636 899.7692856318317 L 45.289062400057446 899.214843903901 L 42.47126732801553 893.985705983825 L 39.86227200005669 889.1381759998039 L 39.34617600002093 888.2575359998737 L 38.57525555207394 887.2149790718686 L 37.60937472002115 885.904296959925 L 37.29687449609628 885.6972656639409 L 37.605376000050455 886.7225599998492 L 35.250074624083936 887.8476206078194 L 34.32857600005809 884.9817599998787 L 33.820312576019205 884.1621094399015 L 33.69237504014745 882.0511487999465 L 33.61217945604585 880.6878115839208 L 34.63281254412141 882.9335941119352 L 34.1237760001095 883.5481599998311 L 34.94297600002028 884.8793599999626 L 35.23551641602535 885.1719004159677 L 35.554688000062015 885.4941409279127 L 37.09374976006802 885.2890623998246 L 36.47897600004217 884.4697599998908 L 35.557376000040676 882.5241599999135 L 35.12201625603484 881.2185497599421 L 34.84375040011946 880.373047296016 L 33.88281241606455 878.5624995838152 L 32.99999948806362 876.8925777919358 L 30.820312064082827 875.1972659199382 L 30.234375168045517 874.638671871915 L 29.31249971210491 872.7968747519772 L 29.822976000024937 872.3865599998389 L 29.496315904019866 871.8965698558604 L 29.210937344061676 871.464843263966 L 26.648437760130037 871.9765626879525 L 26.4453120000544 871.464843263966 L 26.4453120000544 870.3378903038683 L 26.434801664028782 870.121097215917 L 26.398437376017682 869.2109373439453 L 26.343749632011168 867.9433594879229 L 26.343749632011168 867.8808596479357 L 25.78246963204583 866.9302220799727 L 24.489871360070538 864.733164543868 L 24.296875008032657 864.3984373758431 L 23.476562944066245 862.8632811519783 L 21.8358394880197 860.4058552319766 L 21.221376000030432 857.9481599999126 L 20.40217600017786 857.0265599998529 L 18.76562534412369 855.082031103957 L 18.40966860804474 854.6008299518726 L 18.390625280095264 854.5722654719721 L 17.95312537602149 853.9765626878943 L 17.638922240119427 853.5543521280051 L 17.378998272062745 853.2013977598981 L 17.06250035215635 852.7675781118451 L 16.882691072125454 852.5275494398666 L 14.462976000097115 849.2441599998856 L 14.054730752133764 848.11730841588 L 14.667776000103913 847.9129599999869 L 14.289920000126585 847.3589759999886 L 13.572096000018064 846.3144959999481 L 12.968750080035534 845.4316410879255 L 10.878976000123657 842.3843840000336 L 10.367187968047801 839.9257815038436 L 8.62617600010708 837.9811839998583 L 7.909376000054181 835.4211839999189 L 6.7829760001040995 833.5779839998577 L 6.101532672124449 832.4876738558523 L 5.249999872059561 831.1191408639424 L 1.6640624640276656 824.976562175958 L 1.257812992145773 823.748046847817 L 0.8437760000815615 823.4403840000159 L 0.0 822.2577159520806" fill="none"/><path stroke="#000000" stroke-width="2" d="M 46.82031206408283 905.0507816958125 L 48.76697600004263 905.767935999902 L 48.25781248003477 904.5390622718842 L 46.82031206408283 905.0507816958125" fill="none"/><path stroke="#000000" stroke-width="2" d="M 0.0 844.8556809205875 L 0.5351557121030055 845.9667967999121 L 0.6386718720314093 846.2753904638812 L 2.070312960073352 849.7558589438559 L 3.9140628480236046 854.7714846719173 L 4.990520320017822 857.9967047678656 L 5.125000192085281 858.4374999039574 L 5.171196928073186 858.5125703678932 L 5.468749824038241 859.1171870718827 L 5.522825216059573 859.2191907838569 L 5.5527342080604285 859.2792975358898 L 7.343750144122168 861.5722659840249 L 7.65625036804704 862.4062504958711 L 8.585937920026481 865.1191408640007 L 8.812499968043994 865.8125004799804 L 8.983480320021044 866.1710069758119 L 10.6718750721775 869.927734271856 L 11.160858624090906 870.2701516798115 L 11.242187776078936 870.3300782078295 L 11.695312896103133 870.6445311999414 L 12.027836416033097 871.2306391039747 L 12.621093888010364 872.283203583851 L 14.771484672033694 876.5839841279667 L 15.63623424002435 876.4887654398335 L 15.062500352039933 877.0625003518071 L 15.078124544059392 877.091796991881 L 14.97506918408908 877.1980369919329 L 17.5351562241558 881.4980464639375 L 18.65819955203915 883.9799255039543 L 19.351562240044586 885.5175782398437 L 19.623966720013414 886.1142732799053 L 19.863275520154275 886.6425651199534 L 19.882812416064553 886.6894530559075 L 19.992187904019374 886.9238282238366 L 21.320312832016498 889.0761717758724 L 23.95250278408639 889.5819110398879 L 23.847831552149728 889.6003829758265 L 21.734375424101017 889.7910159358871 L 21.888671744032763 890.1347655678401 L 22.365234176104423 891.1542968318099 L 24.08984371216502 894.8105461758678 L 24.171602944028564 895.0159912959207 L 24.234375168045517 895.1816407038714 L 24.36741529603023 895.5043543038773 L 25.08469555201009 897.2862095358432 L 25.187500032014214 897.562500095868 L 25.761908736021724 897.562500095868 L 28.896778240101412 898.0014469119487 L 28.625273856101558 897.7792358400184 L 28.41406259208452 897.6035153918201 L 28.375953408016358 897.5692175359 L 28.250000384054147 896.9374996478437 L 27.62499993608799 895.8750003198511 L 26.640678912051953 894.7051427839324 L 27.442311168066226 894.4654356478713 L 27.423156224016566 894.608487423975 L 27.39062476804247 894.822265855968 L 27.5260528640938 895.0618695680168 L 27.591796736058313 895.1816407038714 L 28.210937856172677 895.6894535679603 L 28.589843456051312 895.9707023358787 L 28.91558400017675 896.2012262399658 L 29.093749760184437 896.3300782078877 L 29.787109376164153 896.7871098878677 L 31.359375360014383 896.7714836478117 L 32.016320512164384 896.1761966079939 L 32.062499840103555 896.1249996800325 L 32.09598156803986 895.790178303956 L 32.16406220803037 895.5917967358837 L 32.16406220803037 895.5799275519093 L 32.25976524804719 895.0019522558432 L 32.70312550407834 894.4472657919978 L 33.42196019203402 894.3966167039471 L 33.78125004802132 894.9550776318065 L 34.468750336091034 895.8222653439734 L 34.750000128056854 896.5253908479353 L 35.00620595208602 897.3528401920339 L 35.03767347213579 897.5573800958227 L 35.12500019208528 898.2285158399027 L 35.39062476804247 899.2285153278499 L 35.405775872059166 900.1618626559502 L 34.656249856052455 899.7714841599227 L 33.63671859202441 899.6386723839678 L 32.79895244806539 899.7711380479159 L 31.851563008094672 899.5917967358255 L 30.93359308806248 899.5917967358255 L 30.581334016053006 899.5428065279266 L 30.437499904073775 899.3749995518592 L 30.000000000058208 899.0000005119364 L 29.96480204805266 898.9648025598726 L 29.933593600115273 898.9199216638808 L 29.425780736026354 898.3300782079459 L 29.109374976018444 898.1386721279123 L 30.062499840045348 899.8652344318107 L 30.124999680032488 899.9999999999418 L 30.17968742409721 899.9863285758183 L 30.671875072061084 900.0488284158055 L 32.53125017601997 900.1113282559672 L 33.65234380803304 900.1464842239511 L 34.76594790403033 900.5138984958758 L 34.80468787206337 900.541016063944 L 34.88670720002847 900.7121879039332 L 34.98046873603016 900.9160161279724 L 35.2265625600121 901.3925785598112 L 35.58593843202107 901.8691409918829 L 35.7109370881808 902.216797183908 L 35.81559603201458 902.4927160320221 L 35.88085964805214 902.6699223038158 L 36.929687552154064 904.1113282558508 L 37.06250035203993 904.3125002238667 L 37.19531212805305 904.5253908479353 L 37.648437248077244 905.3574215678382 L 37.96093747206032 905.8652344319271 L 38.0338544640108 905.9967447039089 L 38.17578188801417 906.2597652478144 L 38.25000038417056 906.4374999038992 L 38.00000000005821 906.9374996479019 L 37.717933056061156 907.0503270398476 L 37.355468800116796 907.1582023679512 L 36.70996172807645 907.1928535038023 L 36.48776908806758 907.0761625599698 L 36.22656204801751 906.9316403199336 L 36.185299968055915 906.8959334398969 L 35.73437542404281 906.4863283199375 L 35.554688000062015 905.9316408319864 L 35.47265536012128 905.7167964159162 L 35.09374976006802 905.5878901758697 L 34.52343705605017 906.0117186559364 L 34.18749952001963 906.1249996798579 L 34.3148001281661 906.1595525118755 L 34.20312473602826 906.1562501118751 L 33.914062848023605 906.1425776638789 L 33.63281203212682 906.353515519877 L 33.835586560016964 906.723966975871 L 33.86718720005592 906.6855464959517 L 34.3593748480198 906.455077887862 L 34.859374592022505 906.2929684479604 L 34.937499648018274 906.3125002239249 L 35.180375040043145 905.9481866238639 L 35.21788313606521 905.9984824319254 L 35.42964531201869 906.3009996799519 L 35.648437248019036 906.6191411198233 L 36.109375488129444 907.1113277439144 L 36.57031270407606 907.3886719999136 L 38.3125002241577 908.1269534718595 L 38.37500006414484 908.1874995199032 L 39.62499993608799 908.1874995199032 L 41.24999987211777 907.9999999999418 L 41.39062476810068 907.9999999999418 L 41.890624512103386 908.1113282559672 L 43.24999987205956 908.6503905279678 L 44.318359552067704 909.666016255971 L 45.040500736038666 911.0610309118056 L 45.22214707208332 911.3521633279743 L 45.27343718404882 911.4375004158355 L 47.726562304014806 916.9160161279724 L 47.77929728018353 916.9511720959563 L 47.77024921606062 917.0131927038892 L 47.72685926401755 917.2224860159331 L 47.695312896044925 917.365234687808 L 47.771484160097316 917.8066411518957 L 51.08593766402919 924.9355468798312 L 51.340855296119116 925.9712522239424 L 51.37499955203384 926.1874995199032 L 51.3124997120467 927.4375004158355 L 50.953124864026904 927.5722659839666 L 50.74218700802885 927.5722659839666 L 50.793957376037724 927.7177139199339 L 50.733078528021 928.0221081598429 L 50.687500288069714 928.2402344958973 L 50.64062464010203 928.3925780478166 L 51.29687449603807 928.7519528958946 L 51.03710924816551 931.1113287679618 L 50.72461004805518 933.2089845758164 L 49.21875046403147 933.7324216319248 L 48.75617484806571 933.8462760958937 L 49.35937536007259 934.9433589758701 L 49.37499955209205 935.00000051182 L 49.64062515203841 934.9394534399034 L 50.18487500806805 934.8655779840192 L 50.406250496103894 935.085937663971 L 50.687500288069714 935.4375004158355 L 50.816233472083695 935.4857748479117 L 51.01036032004049 935.6638730239356 L 51.90429696015781 936.5019535359461 L 52.85546905611409 938.1738280958962 L 53.82534451212268 940.0354887678404 L 54.062499840103555 940.5624995838734 L 54.56249958410626 941.5625000959262 L 54.99999948818004 942.8124999679858 L 54.961101824068464 942.8902963199653 L 54.808229888032656 943.052884991921 L 54.781249536026735 943.0898442238104 L 54.46093721606303 943.5957032958977 L 54.804687872121576 943.4316410878673 L 55.24999987205956 943.1855472638854 L 55.56248883204535 943.062504447822 L 55.62433433602564 943.1266416638391 L 56.06249984004535 943.744140287803 L 56.224118784070015 944.0344555519405 L 56.32723353605252 944.2242672638968 L 56.421874688065145 944.4023439359735 L 56.437499904073775 944.4374999040156 L 56.53048422402935 944.5832386559341 L 56.86718771205051 945.1347660798347 L 57.046875136031304 945.7753907199367 L 57.294921728083864 946.169921535824 L 57.439528960036114 946.731081727834 L 57.55468800012022 947.1855472638272 L 57.69760768010747 947.3967749119038 L 58.179545088030864 948.119489535864 L 58.09765580802923 948.3144529918209 L 58.058592256042175 948.4238325759652 L 58.01562521606684 948.5332029439742 L 57.99999795202166 948.5878968319739 L 57.98047232005047 948.6425702399574 L 57.93750016001286 948.7500001279404 L 57.984374784107786 948.7500001279404 L 58.29492121603107 948.9863280639402 L 58.29687500803266 948.9863280639402 L 58.49218764802208 948.7500001279404 L 58.64062464010203 948.7500001279404 L 58.74056806409499 948.9726996480022 L 58.81802854401758 949.1505274879746 L 57.48117606411688 949.7063823358621 L 57.60742195212515 949.9394529278507 L 57.60937472007936 949.9394529278507 L 58.96645836805692 949.3818408958032 L 59.637141504033934 950.4732303359197 L 60.53906227211701 951.9472660478204 L 61.37166438403074 953.5606517759734 L 62.38620672014076 955.535861759854 L 62.5917972480529 956.5566402559052 L 62.671875072061084 956.8046878718887 L 62.69335859210696 956.8652339198743 L 63.5000002560555 958.0713543678285 L 63.5000002560555 958.9074790399172 L 63.24391424009809 958.8207400958054 L 62.874999808031134 958.5624995839316 L 62.974121984036174 958.7277025278308 L 62.78906265611295 958.6660157439183 L 62.791342080105096 958.6697461759322 L 62.788905984081794 958.6689515518956 L 63.78906214406015 960.3027343358262 L 64.12499968003249 960.7558594559669 L 65.66406246402767 961.0605465598637 L 66.25000038405415 962.0390625278815 L 66.56249958410626 962.6875002878951 L 67.68890368007123 963.0553057278157 L 69.55468800017843 963.826171903871 L 72.82812518411083 964.6464839678956 L 73.44531251204899 965.8730465279659 L 73.44531251204899 964.6464839678956 L 78.15625011210795 965.9785154558485 L 78.5468753920286 965.8964848638279 L 79.56250009604264 965.7499996158876 L 81.12500019208528 965.7499996158876 L 81.53710899216821 965.7714841599227 L 83.07031244807877 966.490234879835 L 83.07213414402213 966.490171391808 L 83.19531212805305 966.3671879679314 L 83.68749977601692 965.8730465279659 L 87.78125004802132 965.9785154558485 L 90.34374963206938 969.1503902718541 L 90.5468753920286 969.7675786238979 L 91.36718745605322 970.9941401598626 L 91.86723737604916 972.1880821759696 L 92.56850432005012 974.323308543826 L 92.54687232006108 974.3710904319887 L 92.39062835206278 974.5800775678945 L 93.72265574405901 976.6269532159204 L 93.91992115211906 979.2871096318122 L 93.99218790407758 979.3183590399567 L 93.95052032009698 979.7923174398602 L 93.92773427203065 980.0292966398993 L 93.94335948803928 980.2988277758704 L 94.1245716480189 982.4916531198542 L 94.10156236804323 982.5742182399263 L 94.05008793604793 982.5941811198718 L 93.95310899202013 982.9277900800225 L 93.85156300809467 983.2636723199394 L 93.80201984004816 983.3268398080254 L 93.76992153603351 983.3647738879663 L 93.88818329601781 983.3288570878212 L 93.87500032002572 983.3749995519174 L 94.12499968003249 984.7500001279986 L 94.03862016001949 985.0955192319234 L 93.79604070412461 985.824416767864 L 93.71875020809239 986.0449218559661 L 93.81250048003858 988.1289062398719 L 93.81250048003858 988.2500003838795 L 92.99999948812183 989.3124997118721 L 90.43749990401557 990.1249996798579 L 89.3124997120467 990.4999997438863 L 88.06249984004535 990.9374996479019 L 87.79687526414637 991.0839838719112 L 86.85937459208071 991.4746091518318 L 86.80273408011999 991.5761715198751 L 85.84374988806667 991.9746088958345 L 85.82031257613562 992.0156252158922 L 85.09374976006802 992.5097656319267 L 84.29687500803266 992.9082030078862 L 82.91322470409796 993.00000051182 L 82.75000012811506 993.00000051182 L 82.38134067208739 993.3932369920076 L 81.84179609612329 993.93164083187 L 81.84179609612329 993.9687516159611 L 81.81250048003858 993.9999999998254 L 80.44039372802945 995.1908485119347 L 80.39062528009526 995.1425781758735 L 80.38777958403807 995.1802818558645 L 80.37930496007903 995.2462561278953 L 80.3797626880114 995.2853831678513 L 80.11718758411007 995.4902343678987 L 80.4843745281105 995.7558589439141 L 80.70133862405783 996.6887403518776 L 81.29687449603807 996.4082032639999 L 81.39843788807048 996.357422079891 L 81.62499993608799 996.2500003838795 L 81.84374988806667 996.0820316158351 L 82.43749990401557 995.6874997758423 L 82.43749990401557 995.9687495678081 L 82.35156275209738 997.2089845759328 L 82.71280025603482 998.8131041279412 L 82.97364480007673 999.984079871967 L 82.99226009607082 1000.0206745598116 L 83.00781260809163 1000.0566405119607 L 82.86718771210872 1000.3808593918802 L 82.45784064003965 1000.7910154238925 L 82.68750028812792 1000.7910154238925 L 82.62500044814078 1000.9374996479019 L 82.65625088009983 1000.999999487889 L 82.55468748806743 1001.0996090878616 L 84.29687500803266 1004.5800785918836 L 84.22656204807572 1005.2109373438288 L 84.18749952001963 1005.4375004158937 L 84.19465523207327 1005.450022911944 L 84.19691212807084 1005.4943528958829 L 84.19531264010584 1005.5019530239515 L 86.24218726402614 1010.4160153599223 L 86.55468748806743 1010.4160153599223 L 86.77343744004611 1010.3281254399335 L 86.85156249604188 1009.6171878399327 L 86.93749964807648 1009.3749995519174 L 85.58808883203892 1006.2588753918535 L 85.91406284808181 1006.5527347199386 L 87.27148441615282 1007.7558589440305 L 88.50000076805009 1009.9042969598668 L 88.59111014404334 1011.0992230398115 L 87.56250009604264 1010.1874995199614 L 86.99924787209602 1010.3862947838497 L 86.75781222403748 1010.4160153599223 L 86.67205427202862 1010.5017743358621 L 86.49999974406091 1010.5624995839316 L 86.5390622720588 1010.634765311901 L 86.4514191360795 1010.7250155518414 L 87.57812531205127 1012.5683589119581 L 88.44249907211633 1012.7544207359315 L 89.02238412806764 1012.8859914238565 L 89.24218777613714 1013.0722652159748 L 89.7265623040148 1013.4902343678987 L 89.95312537602149 1014.1074216958368 L 90.10971955215791 1014.5483827199787 L 89.93750016001286 1014.2050785279134 L 89.93852108810097 1014.2167592959013 L 89.93381273606792 1014.2075146238785 L 90.03125043201726 1015.2905635838979 L 90.03125043201726 1015.3339842559071 L 90.5468753920286 1016.2558597119059 L 92.38909952004906 1017.0741104638437 L 91.87934310408309 1017.688925183902 L 91.8859397120541 1017.6856227839016 L 91.88281241606455 1017.6894535679021 L 92.39843737607589 1017.4296872958657 L 92.70312550402014 1017.285155839927 L 93.005859840021 1017.5839846398449 L 93.10742220806424 1018.0996095999144 L 92.83593728009146 1018.3671879679896 L 92.18614579207497 1019.0183608318912 L 93.45312460802961 1020.6796871679253 L 92.99999948812183 1021.2499998718267 L 93.02870118402643 1021.3456721919356 L 93.00597145606298 1021.3734973439714 L 93.10742118407506 1021.7832028159173 L 93.15624960011337 1021.7832028159173 L 93.18750003207242 1021.8750003199093 L 93.84915763203753 1021.8750003199093 L 93.71875020809239 1022.0253911039908 L 93.49660979217151 1022.2868643838447 L 93.3124997120467 1022.4374999038992 L 93.32274483208312 1022.4917084159679 L 93.3124997120467 1022.5019535358297 L 93.71875020809239 1023.5253903359408 L 93.80719206406502 1023.4926530559314 L 94.1061263360316 1023.5489382398664 L 93.82510182406986 1023.8300784639432 L 94.84355379204499 1023.8320568319177 L 94.82688756431162 1024.0" fill="none"/><path stroke="#000000" stroke-width="2" d="M 114.73096366692334 1024.0 L 115.92089804803254 1023.3559971838258 L 116.25000038405415 1023.4238279678975 L 117.06835968012456 1023.8339839999098 L 117.27667758260213 1024.0" fill="none"/><path stroke="#000000" stroke-width="2" d="M 118.6337944563711 1024.0 L 118.6650091521442 1023.9525631999131 L 119.06250035203993 1023.8750003199675 L 119.118750162801 1024.0" fill="none"/><path stroke="#000000" stroke-width="2" d="M 120.18269214699103 1024.0 L 120.14330982405227 1023.6586874879431 L 120.3447582720546 1023.3199462399352 L 119.93659392005065 1023.4235586559516 L 117.23587174405111 1022.6225111038075 L 116.93749964801827 1021.2499998718267 L 116.87499980803113 1021.2109373440035 L 116.86718771210872 1021.1699220478768 L 115.85316761606373 1020.5787463678862 L 115.62499993608799 1020.437499903841 L 108.43749990401557 1019.3749995519756 L 107.74999961606227 1019.0000005118782 L 106.8124999681022 1019.0000005118782 L 105.03042150405236 1019.1620075518149 L 104.77534924808424 1019.1659868159331 L 104.68945305602392 1019.1074211839004 L 104.68953292805236 1019.1088087039534 L 104.68750028806971 1019.1074222078314 L 104.69531238416675 1019.2089845758746 L 104.62541312002577 1019.2747110398486 L 104.1249996800907 1019.6249999359716 L 103.43750041606836 1019.812500479864 L 102.6875002880115 1018.750000127824 L 102.06249984004535 1017.9375001599547 L 101.24999987205956 1017.3124997119303 L 100.25000038405415 1016.7500001279404 L 98.93749964807648 1016.1249996799161 L 97.50000025611371 1015.5000002559391 L 97.4642114561284 1015.4951168000116 L 96.34374963201117 1015.4902343679569 L 96.28124979202403 1015.5000002559391 L 95.43750041606836 1015.5000002559391 L 94.64062464004382 1015.0703124479624 L 94.4531251200242 1014.6953123839339 L 94.4104806400137 1014.6149990399135 L 94.33984409610275 1014.4746096638846 L 94.34374963206938 1014.3046871040133 L 94.43749990401557 1013.6874997758423 L 94.19531264004763 1013.443359743862 L 93.96289024001453 1013.0800783358864 L 93.75781273603207 1012.6992189439479 L 93.68749977607513 1012.2500003838795 L 93.3124997120467 1010.5624995839316 L 92.87499980803113 1010.0 L 92.42968780803494 1009.5507814399316 L 92.27539046417223 1009.0996090878616 L 92.17968742409721 1008.8828129278263 L 92.04160512011731 1008.5761525758426 L 91.87500032008393 1007.9375001599547 L 90.93749964807648 1006.6875002879533 L 90.67968716804171 1006.3496089598048 L 90.37500006402843 1005.7558589439723 L 90.04687462403672 1006.0527339518885 L 90.17826713609975 1006.6740439038258 L 89.44057856011204 1005.7682124798885 L 89.39257856004406 1005.6738283518935 L 88.57421824010089 1004.6113279998535 L 88.32360243209405 1004.0609372158651 L 86.31250022404129 999.3124997118721 L 86.1249996801489 998.6875002879533 L 85.82031257613562 997.2832030719728 L 86.4531251200242 996.5917972479947 L 88.84375040011946 996.2050785279134 L 90.31250022404129 996.0624998398125 L 96.56249958410626 990.1249996798579 L 97.37499955203384 989.0625003519235 L 97.20478105603252 988.4951029758085 L 97.25051699217875 988.19803443196 L 97.50000025611371 987.2499998718267 L 97.76597606408177 985.6541460479493 L 97.8203125760192 985.4316410879255 L 97.8203125760192 984.5097656319267 L 97.86718720011413 984.1953126398148 L 98.00000000005821 983.7499996158876 L 98.00000000005821 983.33032550395 L 98.12917657603975 982.4874680319335 L 98.3125002240995 981.9375001598964 L 98.3125002240995 977.00000051182 L 97.81250048003858 975.5625000959844 L 97.50000025611371 974.3125002239249 L 96.06249984004535 972.0624998398707 L 94.93749964807648 970.2500003838795 L 93.81250048003858 968.3750000639702 L 90.1249996801489 964.4999997438863 L 89.18750003207242 963.6874997758423 L 88.18749952001963 962.437499903841 L 87.45496371207992 960.0567551998538 L 88.39843737601768 959.1171870718827 L 88.27364966401365 959.1091466239304 L 88.37500006414484 959.00000051182 L 86.43749990401557 959.00000051182 L 84.812499968044 956.3125002239249 L 84.40536473604152 957.4742466558237 L 82.47656243207166 957.291015167837 L 81.3124997120467 957.1250001919107 L 82.82812518405262 955.4941409279709 L 85.32812492805533 952.8710932479589 L 85.68982732808217 951.0475089918473 L 85.93944985605776 949.7988444159273 L 88.39686041604728 949.182035967824 L 90.34374963206938 951.2324218879803 L 93.41429043211974 953.6900249598548 L 93.42968729609856 953.7285160958418 L 93.95312537602149 954.933594111877 L 94.00000000005821 955.0625003519235 L 94.10937548801303 955.292968959955 L 94.29212774406187 955.7114060798194 L 94.74609459214844 956.7597660159227 L 94.83557888009818 957.3853081599227 L 94.91406233602902 957.9589847038151 L 94.93749964807648 958.1874995199032 L 94.99999948806362 958.3144529918209 L 95.66796902404167 959.9355463678367 L 98.12499660806498 965.9785164799541 L 99.35156224004459 968.6386718719732 L 103.65429760009283 976.9355468798894 L 104.88281292805914 979.2910151679534 L 104.992187392083 979.5117189119337 L 105.14062540809391 979.8027335678344 L 105.90624972805381 981.3378908158047 L 105.97659955202835 981.4733783039264 L 106.11328204808524 981.7441402879194 L 106.74218700808706 982.923828223953 L 107.64843724801904 984.61132799997 L 108.6042142721708 986.4434513919405 L 108.87499980803113 986.9667973119649 L 110.61718732811278 989.8339839999098 L 112.07812505611219 992.3027343360009 L 112.60937523207394 993.1972648958908 L 113.59124275209615 994.8592056319467 L 113.96012441604398 995.4856376319658 L 114.55468748812564 996.5019535358297 L 115.35800320003182 997.8627481599106 L 115.69335910404334 998.4355471358285 L 116.1249996800907 999.1660154878628 L 116.65624985611066 1000.0761722879834 L 118.77622681605862 1003.4879283198388 L 119.83398502401542 1005.1933593598078 L 123.04450457607163 1010.5218734078808 L 124.07031296001514 1012.2324213759857 L 124.4556421120651 1012.8650905598188 L 124.64648396801203 1013.1816407039296 L 126.20312473602826 1015.5644528638222 L 127.15429683204275 1017.0136719359434 L 128.94803660805337 1019.7559080959181 L 128.98437529604416 1019.8144532479346 L 129.65625036816346 1020.8378910719184 L 130.07031296013156 1021.4785157118458 L 130.79368294402957 1022.3725281278603 L 131.72814131207997 1023.5336990719079 L 131.92874905612553 1023.7904404478613 L 131.9845557663648 1024.0" fill="none"/><path stroke="#408040" stroke-width="3" d="M 23.134017899283208 1024.0 L 0.0 975.9929207937785" fill="none"/></svg>