<svg xmlns="http://www.w3.org/2000/svg" width="1024" height="1024"><rect stroke="none" x="0" y="0" width="1024" height="1024" fill="white"/><path stroke="#000000" stroke-width="2" d="M 1024.0 391.54501121375506 L 997.3828126720618 389.7226557439426 L 982.7343749120482 389.10937497596024 L 973.2109373440617 388.6992189439479 L 953.0390620160615 387.7773434879491 L 945.2578129920294 387.4687498239218 L 935.3281249280553 387.0585937919677 L 926.4140625920263 386.6484377599554 L 910.5468753920286 386.0351559679257 L 904.2968750080327 385.7265623039566 L 896.0000000000582 385.52343756792834 L 889.7578127360321 385.4218751999433 L 876.7500001280569 385.011719167931 L 865.898437632015 384.8085934079718 L 851.2578129920294 384.3984373759595 L 848.9999994880636 384.29296844796045 L 838.0468746240367 383.88671897596214 L 831.4921871360275 383.57812531193485 L 824.2187499520369 383.47656294394983 L 819.3046876160661 383.47656294394983 L 815.5156254720641 383.37499955197563 L 813.0625003520399 383.2695316479658 L 810.8046878720634 383.2695316479658 L 806.2968750080327 383.1679682559334 L 797.2890624000574 383.06640588794835 L 792.6796871680417 382.9648435199633 L 788.5859379200265 382.9648435199633 L 778.5546874880674 382.65624985593604 L 771.1796879360336 382.554687487951 L 768.0000000000582 382.8593745919643 L 761.554688000062 382.453125119966 L 752.7421870080288 382.453125119966 L 749.5703121920233 382.34765619196696 L 746.2968750080327 382.34765619196696 L 741.0703124480206 383.06640588794835 L 726.53125017602 382.554687487951 L 722.8437504000613 382.9648435199633 L 720.4921876480221 383.2695316479658 L 717.5234375680448 384.1914060799754 L 713.4218752000597 384.6015621119295 L 699.5000002560555 384.4999997439445 L 691.5078123520361 384.4999997439445 L 683.9296870400431 385.7265623039566 L 676.0468746240367 386.34374963195296 L 665.9140628480236 386.6484377599554 L 660.8906250240398 386.9570314239245 L 657.3124997120467 387.0585937919677 L 644.3046871040133 387.57031219196506 L 633.656250368047 388.08203161595156 L 630.9921873920248 388.39062527992064 L 625.5625000960426 388.6992189439479 L 620.9609379840549 388.80078131193295 L 612.3593748480198 389.10937497596024 L 601.7031249920256 389.5156254719477 L 596.5859379200265 389.824219135975 L 587.7812500480213 390.02734387194505 L 583.0703124480206 390.2343751679291 L 579.2812503040186 390.5429688319564 L 576.5156249600113 390.33593753597233 L 572.0078120960388 390.9492183039547 L 569.2421877760207 391.0546872319537 L 566.3750000640284 391.25781299197115 L 563.1015628800378 391.4609377279412 L 558.9062502400484 391.66796902392525 L 540.5703127040179 392.7929692159523 L 537.6015626240405 393.1015628799214 L 523.6796876800363 394.2265620479593 L 512.2109378560563 394.2265620479593 L 509.74999961606227 394.3281254399335 L 506.1640622080304 394.3281254399335 L 503.19531212805305 394.2265620479593 L 478.3125002240413 393.816406015947 L 458.34374963201117 393.4101565439487 L 439.8125004800386 393.1015628799214 L 435.7187502080342 393.0000005119364 L 432.74218700802885 393.0000005119364 L 423.01562470401404 392.7929692159523 L 417.5937495040125 392.6914058239199 L 405.9140628480236 392.38281215995084 L 384.0000000000582 391.8710937599535 L 380.2187499520369 391.8710937599535 L 368.33593753603054 391.66796902392525 L 364.5468753920286 391.5664066559402 L 342.1249996800325 390.9492183039547 L 329.93750016001286 391.0546872319537 L 313.2421877760207 390.2343751679291 L 303.0078126080334 389.92578150396 L 287.1328122880659 389.4140620799735 L 285.0859376640292 389.21093734394526 L 281.6015626240405 389.0039060479612 L 274.5390622720588 388.6992189439479 L 268.28906291205203 388.5937500159489 L 262.8671877120505 388.4921876479639 L 255.59374950401252 388.2890629119356 L 253.1328122880659 388.2890629119356 L 247.39843788801227 388.08203161595156 L 243.71875020803418 387.98046924796654 L 237.36718745605322 387.7773434879491 L 233.98437478404958 387.6757811199641 L 229.78906214406015 387.57031219196506 L 226.82031206402462 387.4687498239218 L 215.8593751040171 387.2656250879518 L 211.46093772805762 387.0585937919677 L 202.14062489604112 386.6484377599554 L 171.82812467205804 387.0585937919677 L 158.7265628160094 386.5468753919704 L 143.46874982403824 385.93359359994065 L 139.16406272002496 385.7265623039566 L 128.10937548801303 385.21484390395926 L 103.6328120320104 383.98828134394716 L 97.59374950401252 383.6796876799199 L 95.03124992002267 383.57812531193485 L 81.92187494406244 382.9648435199633 L 77.62499993602978 382.8593745919643 L 73.11718707205728 382.65624985593604 L 66.66406297602225 382.24609382392373 L 44.750000128056854 380.9140623359708 L 40.96093798405491 380.8124999679276 L 33.59374950401252 380.5078128639725 L 27.140625408035703 379.89062451192876 L 24.273437696043402 380.097655807971 L 20.484374528052285 379.99218790396117 L 10.4453120000544 379.6874997759587 L 5.820766091346741e-11 379.3789061119314 L 0.0 379.3789061119387" fill="none"/><path stroke="#000000" stroke-width="2" d="M 0.0 379.3789061119387 L 5.820766091346741e-11 379.3789061119314 L 10.4453120000544 379.6874997759587 L 20.484374528052285 379.99218790396117 L 24.273437696043402 380.097655807971 L 27.140625408035703 379.89062451192876 L 33.59374950401252 380.5078128639725 L 40.96093798405491 380.8124999679276 L 44.750000128056854 380.9140623359708 L 66.66406297602225 382.24609382392373 L 73.11718707205728 382.65624985593604 L 77.62499993602978 382.8593745919643 L 81.92187494406244 382.9648435199633 L 95.03124992002267 383.57812531193485 L 97.59374950401252 383.6796876799199 L 103.6328120320104 383.98828134394716 L 128.10937548801303 385.21484390395926 L 139.16406272002496 385.7265623039566 L 143.46874982403824 385.93359359994065 L 158.7265628160094 386.5468753919704 L 171.82812467205804 387.0585937919677 L 202.14062489604112 386.6484377599554 L 211.46093772805762 387.0585937919677 L 215.8593751040171 387.2656250879518 L 226.82031206402462 387.4687498239218 L 229.78906214406015 387.57031219196506 L 233.98437478404958 387.6757811199641 L 237.36718745605322 387.7773434879491 L 243.71875020803418 387.98046924796654 L 247.39843788801227 388.08203161595156 L 253.1328122880659 388.2890629119356 L 255.59374950401252 388.2890629119356 L 262.8671877120505 388.4921876479639 L 268.28906291205203 388.5937500159489 L 274.5390622720588 388.6992189439479 L 281.6015626240405 389.0039060479612 L 285.0859376640292 389.21093734394526 L 287.1328122880659 389.4140620799735 L 303.0078126080334 389.92578150396 L 313.2421877760207 390.2343751679291 L 329.93750016001286 391.0546872319537 L 342.1249996800325 390.9492183039547 L 364.5468753920286 391.5664066559402 L 368.33593753603054 391.66796902392525 L 380.2187499520369 391.8710937599535 L 384.0000000000582 391.8710937599535 L 405.9140628480236 392.38281215995084 L 417.5937495040125 392.6914058239199 L 423.01562470401404 392.7929692159523 L 432.74218700802885 393.0000005119364 L 435.7187502080342 393.0000005119364 L 439.8125004800386 393.1015628799214 L 458.34374963201117 393.4101565439487 L 478.3125002240413 393.816406015947 L 503.19531212805305 394.2265620479593 L 506.1640622080304 394.3281254399335 L 509.74999961606227 394.3281254399335 L 512.2109378560563 394.2265620479593 L 523.6796876800363 394.2265620479593 L 537.6015626240405 393.1015628799214 L 540.5703127040179 392.7929692159523 L 558.9062502400484 391.66796902392525 L 563.1015628800378 391.4609377279412 L 566.3750000640284 391.25781299197115 L 569.2421877760207 391.0546872319537 L 572.0078120960388 390.9492183039547 L 576.5156249600113 390.33593753597233 L 579.2812503040186 390.5429688319564 L 583.0703124480206 390.2343751679291 L 587.7812500480213 390.02734387194505 L 596.5859379200265 389.824219135975 L 601.7031249920256 389.5156254719477 L 612.3593748480198 389.10937497596024 L 620.9609379840549 388.80078131193295 L 625.5625000960426 388.6992189439479 L 630.9921873920248 388.39062527992064 L 633.656250368047 388.08203161595156 L 644.3046871040133 387.57031219196506 L 657.3124997120467 387.0585937919677 L 660.8906250240398 386.9570314239245 L 665.9140628480236 386.6484377599554 L 676.0468746240367 386.34374963195296 L 683.9296870400431 385.7265623039566 L 691.5078123520361 384.4999997439445 L 699.5000002560555 384.4999997439445 L 713.4218752000597 384.6015621119295 L 717.5234375680448 384.1914060799754 L 720.4921876480221 383.2695316479658 L 722.8437504000613 382.9648435199633 L 726.53125017602 382.554687487951 L 741.0703124480206 383.06640588794835 L 746.2968750080327 382.34765619196696 L 749.5703121920233 382.34765619196696 L 752.7421870080288 382.453125119966 L 761.554688000062 382.453125119966 L 768.0000000000582 382.8593745919643 L 771.1796879360336 382.554687487951 L 778.5546874880674 382.65624985593604 L 788.5859379200265 382.9648435199633 L 792.6796871680417 382.9648435199633 L 797.2890624000574 383.06640588794835 L 806.2968750080327 383.1679682559334 L 810.8046878720634 383.2695316479658 L 813.0625003520399 383.2695316479658 L 815.5156254720641 383.37499955197563 L 819.3046876160661 383.47656294394983 L 824.2187499520369 383.47656294394983 L 831.4921871360275 383.57812531193485 L 838.0468746240367 383.88671897596214 L 848.9999994880636 384.29296844796045 L 851.2578129920294 384.3984373759595 L 865.898437632015 384.8085934079718 L 876.7500001280569 385.011719167931 L 889.7578127360321 385.4218751999433 L 896.0000000000582 385.52343756792834 L 904.2968750080327 385.7265623039566 L 910.5468753920286 386.0351559679257 L 926.4140625920263 386.6484377599554 L 935.3281249280553 387.0585937919677 L 945.2578129920294 387.4687498239218 L 953.0390620160615 387.7773434879491 L 973.2109373440617 388.6992189439479 L 982.7343749120482 389.10937497596024 L 997.3828126720618 389.7226557439426 L 1024.0 391.54501121375506" fill="none"/></svg>