<svg xmlns="http://www.w3.org/2000/svg" width="1024" height="1024"><rect stroke="none" x="0" y="0" width="1024" height="1024" fill="white"/><path stroke="#000000" stroke-width="2" d="M 1024.0 57.43155869234033 L 1023.5937495040125 57.43359385593794 L 941.8750003200257 57.43359385593794 L 920.1718753280584 57.43359385593794 L 915.4609377280576 57.33203148795292 L 904.1953126400476 57.33203148795292 L 895.5937495040125 57.53515622392297 L 874.3984373760177 57.53515622392297 L 862.7265628160094 57.43359385593794 L 848.7968747520354 57.43359385593794 L 844.1874995200196 57.33203148795292 L 840.4999997440609 57.43359385593794 L 809.7812500480213 57.43359385593794 L 793.9140628480236 57.33203148795292 L 776.2968750080327 57.33203148795292 L 772.4062504960457 57.23046911996789 L 767.5937495040125 57.12890675192466 L 753.6640624640277 57.23046911996789 L 745.9843747840496 57.125000191968866 L 742.4062504960457 57.125000191968866 L 729.9140628480236 57.23046911996789 L 715.0625003520399 57.23046911996789 L 703.1875000320142 57.125000191968866 L 682.0859371520346 57.125000191968866 L 669.8046873600106 57.23046911996789 L 649.4218752000597 57.23046911996789 L 645.023437824042 57.125000191968866 L 640.4140625920263 57.02343782392563 L 612.9687500800355 57.43359385593794 L 602.6250004480244 57.53515622392297 L 593.5156254720641 57.53515622392297 L 584.2968750080327 57.640625151921995 L 581.023437824042 57.640625151921995 L 573.343750144064 57.53515622392297 L 550.6093752320157 57.53515622392297 L 535.8593751040171 57.43359385593794 L 531.1484375040163 57.43359385593794 L 511.28906240005745 57.23046911996789 L 500.84375040006125 57.33203148795292 L 489.37499955203384 57.43359385593794 L 480.97656217601616 57.23046911996789 L 453.32812492805533 57.23046911996789 L 448.3125002240413 57.125000191968866 L 433.8750003200257 57.02343782392563 L 419.84374988800846 57.02343782392563 L 389.02343782404205 57.125000191968866 L 383.5937495040125 57.02343782392563 L 380.3203123200219 57.02343782392563 L 369.4609377280576 57.12890675192466 L 363.52343756804476 57.02343782392563 L 350.61718732805457 56.92187545594061 L 341.1015628800378 56.82031206396641 L 326.4531251200242 56.92188057594467 L 323.898437632015 56.82031206396641 L 317.64843724801904 56.92187545594061 L 306.69531238405034 56.92187545594061 L 298.19531264004763 57.02343782392563 L 284.57031270401785 57.125000191968866 L 279.24999987205956 57.02343782392563 L 276.281249792024 56.92187545594061 L 255.59374950401252 56.82031206396641 L 247.19531212805305 56.82031206396641 L 240.85156249604188 56.92187545594061 L 180.02343731204746 56.92187545594061 L 169.78125004802132 56.82031206396641 L 158.82812518405262 56.92187545594061 L 141.52343756804476 56.92187545594061 L 128.10937548801303 56.82031206396641 L 104.75781222403748 56.82031206396641 L 65.1328122880077 56.92187545594061 L 52.74218700802885 56.82031206396641 L 43.82812467205804 56.82031206396641 L 26.83593728003325 56.92187545594061 L 22.6328125440632 56.82031206396641 L 0.0 56.82031206396641" fill="none"/><path stroke="#000000" stroke-width="2" d="M 0.0 56.820312063908204 L 22.632812544121407 56.820312063908204 L 26.83593728003325 56.92187545582419 L 43.82812467205804 56.820312063908204 L 52.74218700802885 56.820312063908204 L 65.1328122880077 56.92187545582419 L 104.75781222409569 56.820312063908204 L 128.10937548807124 56.820312063908204 L 141.52343756810296 56.92187545582419 L 158.82812518405262 56.92187545582419 L 169.78125004802132 56.820312063908204 L 180.02343731210567 56.92187545582419 L 240.85156249604188 56.92187545582419 L 247.19531212805305 56.820312063908204 L 255.59374950401252 56.820312063908204 L 276.281249792024 56.92187545582419 L 279.24999987211777 57.023437823867425 L 284.57031270401785 57.12500019191066 L 298.19531264004763 57.023437823867425 L 306.69531238405034 56.92187545582419 L 317.64843724807724 56.92187545582419 L 323.8984376320732 56.820312063908204 L 326.4531251200824 56.92188057594467 L 341.101562880096 56.820312063908204 L 350.61718732805457 56.92187545582419 L 363.52343756810296 57.023437823867425 L 369.4609377280576 57.12890675198287 L 380.3203123200219 57.023437823867425 L 383.5937495040125 57.023437823867425 L 389.02343782404205 57.12500019191066 L 419.84374988800846 57.023437823867425 L 433.8750003200839 57.023437823867425 L 448.3125002240413 57.12500019191066 L 453.32812492811354 57.2304691200261 L 480.97656217601616 57.2304691200261 L 489.37499955203384 57.433593855879735 L 500.84375040011946 57.3320314878365 L 511.28906240005745 57.2304691200261 L 531.1484375040163 57.433593855879735 L 535.8593751040171 57.433593855879735 L 550.609375232074 57.53515622392297 L 573.3437501441222 57.53515622392297 L 581.023437824042 57.64062515180558 L 584.2968750080327 57.64062515180558 L 593.5156254721223 57.53515622392297 L 602.6250004480244 57.53515622392297 L 612.9687500800355 57.433593855879735 L 640.4140625920845 57.023437823867425 L 645.0234378241003 57.12500019191066 L 649.4218752000597 57.2304691200261 L 669.8046873600688 57.2304691200261 L 682.0859371520346 57.12500019191066 L 703.1875000320142 57.12500019191066 L 715.0625003520399 57.2304691200261 L 729.9140628480236 57.2304691200261 L 742.4062504961039 57.12500019191066 L 745.9843747841078 57.12500019191066 L 753.6640624640859 57.2304691200261 L 767.5937495040125 57.12890675198287 L 772.4062504960457 57.2304691200261 L 776.2968750080909 57.3320314878365 L 793.9140628480818 57.3320314878365 L 809.7812500480795 57.433593855879735 L 840.4999997440609 57.433593855879735 L 844.1874995200778 57.3320314878365 L 848.7968747520936 57.433593855879735 L 862.7265628160094 57.433593855879735 L 874.3984373760759 57.53515622392297 L 895.5937495040707 57.53515622392297 L 904.1953126401058 57.3320314878365 L 915.4609377280576 57.3320314878365 L 920.1718753280584 57.433593855879735 L 941.8750003200839 57.433593855879735 L 1023.5937495040707 57.433593855879735 L 1024.0 57.431558692282124" fill="none"/></svg>