<svg xmlns="http://www.w3.org/2000/svg" width="1024" height="1024"><rect stroke="none" x="0" y="0" width="1024" height="1024" fill="white"/><path stroke="#000000" stroke-width="2" d="M 494.68831535516074 0.0 L 495.0078126080334 0.19140607997542247 L 498.8984371200204 0.49999974394449964 L 500.00285436570994 0.0" fill="none"/><path stroke="#000000" stroke-width="2" d="M 508.9701070148003 0.0 L 512.109375488013 0.9101557759568095 L 517.9453122560517 1.0117191679310054 L 522.3437496320112 1.2148439039592631 L 525.6249999360298 2.957031423924491 L 526.5468753920286 8.28124979196582 L 526.9531248640269 12.070312959956937 L 528.7968747520354 15.859375103958882 L 533.1015628800378 15.449219071946573 L 536.0703129600151 14.527343615947757 L 540.4687503360328 13.605469183938112 L 547.6406251520384 16.16796876792796 L 548.7656253440655 20.160156671947334 L 547.7421875200234 23.640625151921995 L 545.3828126720618 26.097655807971023 L 543.335937024036 27.535156223922968 L 539.9609374720603 27.6367185919662 L 536.4765624320135 27.42968729592394 L 531.1484375040163 27.83984332793625 L 528.078125056054 30.605468671943527 L 527.7734379520407 36.03125043195905 L 529.9218749440624 37.97656268795254 L 533.5078123520361 38.89843711996218 L 536.8828129280591 39.41015654394869 L 540.6796871680417 41.05078169592889 L 539.9609374720603 42.996093951922376 L 538.0156252160668 45.656250367930625 L 535.8593751040171 47.80859391996637 L 533.6093747200212 49.85546854394488 L 531.2578129920294 52.21093785593985 L 528.9999994880636 53.74609407992102 L 525.9296870400431 55.691406335972715 L 521.4218752000597 55.691406335972715 L 517.8359377920278 54.7695308799739 L 514.460937216063 55.48828159994446 L 515.3828126720618 58.86718771193409 L 519.3749995520338 61.22265599993989 L 522.9609379840549 63.47656294394983 L 520.812499968044 65.7265623039566 L 518.0468746240367 65.011719167931 L 515.2812503040186 64.80859340797178 L 512.109375488013 64.80859340797178 L 510.2656245760154 67.77734348794911 L 512.2109378560563 71.25781299197115 L 515.3828126720618 74.2265620479593 L 522.3437496320112 74.63671910396079 L 524.9062502400484 74.53515673591755 L 527.6718745600665 74.73828147194581 L 530.0234373120475 74.94531276792986 L 531.7656248320127 76.58203135995427 L 528.4921876480221 79.34765670396155 L 524.7031255040201 82.92968755192123 L 528.078125056054 85.69531289592851 L 532.8906250240398 87.23437465593452 L 535.968749568041 89.07421900791815 L 537.5000002560555 91.01953126396984 L 538.1171875840519 95.21875046397327 L 536.7812495360267 99.10937497596024 L 537.8046873600106 101.87500031996751 L 541.1875000320142 103.00390604796121 L 543.8515630080365 99.00781260797521 L 544.0546877440647 94.91406233597081 L 543.7499996160623 91.22656255995389 L 545.0781245440594 88.0507811839343 L 549.5859374080319 87.23046911996789 L 551.5312496640254 89.2812503039604 L 552.9609379840549 92.25000038393773 L 555.6249999360298 93.07031244796235 L 558.1874995200196 93.07031244796235 L 561.0546872320119 93.48046847997466 L 563.2031252480228 94.91406233597081 L 565.5625000960426 97.67578111996409 L 570.4765624320135 100.13281279994408 L 572.6250004480244 101.16015615995275 L 575.5937495040125 102.69531238393392 L 577.5390627840534 105.15234406397212 L 579.2812503040186 107.91796838393202 L 580.921875456057 111.9101562879514 L 583.9921879040194 114.06249983992893 L 586.8593745920225 115.08593766397098 L 589.9296870400431 116.00781209592242 L 592.078125056054 116.92968755192123 L 593.9218749440624 118.56640614394564 L 594.7421870080288 120.71874969592318 L 594.8437504000613 123.2773437439464 L 594.9453127680463 129.3203128319583 L 596.9921873920248 133.0039060479612 L 600.3750000640284 134.2343751679291 L 603.343750144064 134.2343751679291 L 605.8046873600106 136.28124979196582 L 602.4218746880651 138.02343731193105 L 599.1484375040163 138.2265620479593 L 595.1562496000552 138.84375039994484 L 591.0546872320119 139.76171827194048 L 590.9531248640269 143.14453094394412 L 595.2578129920294 145.39453132794006 L 598.9374996480183 147.23828121594852 L 598.53125017602 149.39062476792606 L 597.3046876160661 151.2304691199679 L 594.7421870080288 154.5078128639725 L 593.8203125760192 156.96484351996332 L 596.5859379200265 157.99218790396117 L 598.9374996480183 158.29687500797445 L 601.3984378880123 158.60546867194353 L 603.1406254080357 161.3710940159508 L 604.1640622080304 164.85156249592546 L 605.8046873600106 167.820312575961 L 608.8749998080311 170.1757808639668 L 611.3281249280553 171.816406015947 L 613.1718748160638 173.14453094394412 L 614.812499968044 174.57812479994027 L 615.2265625600121 178.3671879679314 L 615.6328120320104 183.58984396792948 L 613.2734371840488 188.9140623359708 L 612.562499584048 193.7265623039566 L 616.6562498560525 195.67578111996409 L 618.6015621120459 194.9570314239245 L 620.1406248960411 193.42187519994332 L 622.9062502400484 190.453125119966 L 624.9531248640269 187.6874997759587 L 627.5078123520361 186.15234355191933 L 629.8671872000559 187.37890611193143 L 631.6093747200212 190.04296908795368 L 634.7812495360267 192.9101557759568 L 636.6250004480244 197.0039060479612 L 637.7499996160623 201.30468761594966 L 640.921875456057 202.6367191039608 L 645.1250001920271 203.0468751359731 L 648.1953126400476 204.78906265593832 L 649.6328120320104 206.52734361594776 L 650.8593745920225 208.78124953596853 L 653.5234375680448 210.3164057599497 L 656.5937500160653 210.8281251839362 L 660.281249792024 211.44531251193257 L 662.1249996800325 212.46875033597462 L 664.6796871680417 215.640625151922 L 668.2656245760154 218.20312473597005 L 671.546874880034 218.61328076792415 L 674.4062504960457 218.9179688959266 L 676.562499584048 220.453125119966 L 677.3828126720618 225.3710940159508 L 676.9687500800355 228.03125043195905 L 679.9375001600129 230.69531238393392 L 685.164062720025 230.1835939839366 L 688.9531248640269 229.56640665594023 L 690.9999994880636 229.3632808959228 L 692.8437504000613 231.71875020791776 L 690.179687424039 234.48437452793587 L 687.7187502080342 235.71093708794797 L 683.7265623040148 237.86328166397288 L 682.3984373760177 240.11718758393545 L 684.8515624960419 242.57421823992627 L 687.6171878400492 243.39062476792606 L 691.9218749440624 242.67578163195867 L 697.554688000062 241.0390620159451 L 704.2109378560563 241.1406254079193 L 705.5390627840534 243.59765606396832 L 703.4921871360275 245.03124991996447 L 700.109375488013 245.74609407992102 L 697.8593751040171 246.66796851193067 L 695.3984378880123 250.66406297596404 L 694.8906250240398 254.34765619196696 L 691.7187502080342 255.88671897596214 L 689.4609377280576 256.6015621119295 L 687.3124997120467 258.24218726396793 L 683.828124672058 261.3124997119303 L 681.9843747840496 264.1796874239226 L 684.1406248960411 266.1249996799743 L 686.390625280037 267.96874956792453 L 689.9765626880107 270.3242188799195 L 693.6640624640277 271.24609331192914 L 696.6328125440632 271.9609374719439 L 697.9609374720603 273.4960936959251 L 698.6796871680417 278.92578099196544 L 699.8046873600106 281.2812503039604 L 700.109375488013 284.453125119966 L 701.9531253760215 286.5039063039585 L 704.6171873280546 288.1406248959247 L 705.7421875200234 291.51953100797255 L 706.7656253440655 294.38671871996485 L 709.4296872960404 298.6875002879533 L 714.4453120000544 300.7382814719458 L 719.7734379520407 304.2187499519205 L 719.4687498240382 307.28906239994103 L 716.6015621120459 309.33984358393354 L 714.6562498560525 311.28515583992703 L 714.0390625280561 314.25390591996256 L 716.0859371520346 317.12109363195486 L 719.7734379520407 320.0898437119322 L 720.078125056054 322.75390668795444 L 716.6015621120459 325.824219135975 L 713.5234375680448 328.5898434559349 L 712.3984373760177 331.1484375039581 L 714.7578122240375 332.07031295995694 L 719.7734379520407 329.921874943946 L 722.3359375360305 330.02343731193105 L 722.6406246400438 333.6054691839381 L 722.4374999040156 336.98437529592775 L 724.5859379200265 338.52343705593375 L 727.0390620160615 339.1367188479635 L 729.0937497600098 339.44531251193257 L 731.0390620160615 336.98437529592775 L 733.4921871360275 332.07031295995694 L 735.9531253760215 332.9921873919666 L 737.3828126720618 334.83593727997504 L 739.2265625600121 337.6015626239241 L 742.1953126400476 339.44531251193257 L 744.1406248960411 342.7187496959232 L 746.2968750080327 344.56249958393164 L 748.8515624960419 345.38281267194543 L 752.0312504320173 346.40625049592927 L 754.4843745280523 347.94140671996865 L 757.3515622400446 350.0937502719462 L 760.3203123200219 351.3203128319583 L 763.2968744960381 351.62890649592737 L 767.3906247680425 350.6054686719435 L 770.7656253440655 348.66015641595004 L 775.3749995520338 346.9179688959266 L 778.0390625280561 346.40625049592927 L 780.1874995200196 347.94140671996865 L 783.1562496000552 349.6835942399339 L 786.5390622720588 352.75390668795444 L 792.5781248000567 355.51953100797255 L 793.195312128053 359.4101565439487 L 793.9140628480236 361.97265612793854 L 795.8593751040171 364.4296878079185 L 799.2343746560509 365.5546879999456 L 802.0000000000582 367.6054691839381 L 800.9765621760162 370.3671879679314 L 799.648437248019 372.8242186239222 L 798.6250004480244 374.66796851193067 L 800.5703127040179 377.3320314879529 L 803.6406251520384 382.1445314559387 L 806.5078128640307 383.57812531193485 L 809.2734371840488 383.88671897596214 L 812.1406248960411 383.47656294394983 L 815.9296870400431 382.34765619196696 L 819.4062499840511 381.3242183679249 L 823.195312128053 382.24609382392373 L 828.3203123200219 383.1679682559334 L 831.5937495040125 382.24609382392373 L 833.023437824042 380.60937523195753 L 832.921875456057 377.9453122559353 L 832.6171873280546 375.078124543943 L 832.0078120960388 371.69921843195334 L 830.7734374400461 369.1406254079193 L 828.4218746880651 365.5546879999456 L 829.8515630080365 362.1757808639668 L 832.4140625920263 360.43359334394336 L 836.0000000000582 359.30859417596366 L 841.6249999360298 359.5156254719477 L 844.9062502400484 361.66406246396946 L 843.7812500480213 364.4296878079185 L 842.3437496320112 368.0117186559364 L 844.0859371520346 371.5976560639683 L 846.9531248640269 375.6914063359727 L 844.8046878720634 378.76562534394907 L 841.5234375680448 380.30078156793024 L 837.7343754240428 383.06640588794835 L 837.6328120320104 386.1367183359689 L 840.1953126400476 388.6992189439479 L 843.164062720025 390.84765593596967 L 847.0546872320119 389.21093734394526 L 850.7421870080288 387.2656250879518 L 855.554688000062 389.4140620799735 L 853.7109370880644 392.5898434559349 L 851.3593753600144 395.55859353597043 L 851.5625000960426 400.3710935039562 L 855.1484375040163 401.29296895995503 L 861.1875000320142 399.8593751039589 L 863.4375004160102 400.3710935039562 L 864.1562501120497 404.05859327997314 L 863.335937024036 407.2304691199679 L 862.6171873280546 412.453125119966 L 863.6406251520384 416.8593745919643 L 867.8437498880667 418.1874995199614 L 871.3281249280553 418.7031255039619 L 874.3984373760177 416.9609379839385 L 876.9609379840549 415.8359377919696 L 879.2109373440617 414.6054686719435 L 882.6875002880115 415.3203128319583 L 887.195312128053 416.1406248959247 L 890.9843752960442 419.0078126079752 L 893.343750144064 423.20703078393126 L 894.5703127040179 427.60937471996294 L 895.6953128960449 431.29687449592166 L 896.4140625920263 433.75390617595986 L 894.7734394880245 436.51953459193464 L 892.5234370560502 437.9531253759633 L 888.9374996480183 438.25781247991836 L 885.968749568041 438.7734374399297 L 879.5156254720641 439.28515583992703 L 877.0625003520399 439.9999999999418 L 876.4453120000544 443.5859374079737 L 879.4140620800317 445.01953126396984 L 883.5078123520361 446.0429690879537 L 886.9921873920248 448.8085934079718 L 886.3750000640284 452.4921876479639 L 886.6875002880115 456.5898434559349 L 889.0390620160615 458.3281254399335 L 895.0781245440594 459.55859353597043 L 897.5390627840534 459.1484375039581 L 899.3828126720618 457.20312524796464 L 901.3281249280553 453.0039060479612 L 904.6015621120459 451.0585937919677 L 909.0078126080334 451.57031219196506 L 913.2031252480228 450.9570314239245 L 919.0468751360313 451.4687498239218 L 917.9140628480236 454.33593753597233 L 917.3046876160661 457.20312524796464 L 921.5000002560555 457.5117189119337 L 926.3125002240413 456.2812497919658 L 930.1015623680432 455.66796902392525 L 933.1718748160638 454.74609356792644 L 937.3749995520338 455.25781299197115 L 941.4687498240382 455.15624959993875 L 944.3359375360305 454.9492183039547 L 946.6875002880115 454.74609356792644 L 949.2499998720596 456.07812505593756 L 950.3750000640284 459.3554687999422 L 954.4765624320135 462.2226565119345 L 957.343750144064 465.70312499196734 L 958.6718750720611 469.082031103957 L 958.0546877440647 473.1796879359754 L 961.7421875200234 474.9179688959266 L 966.5546874880674 474.3046871039551 L 970.7578122240375 475.01953126396984 L 973.828124672058 476.558594047965 L 974.4453120000544 479.21875046397327 L 974.5468753920286 481.88281241594814 L 976.4921876480221 483.0078126079752 L 978.8437504000613 481.88281241594814 L 980.5859379200265 476.35156275192276 L 980.078125056054 473.6914063359727 L 979.0468751360313 471.746094079921 L 978.1249996800325 469.183593471942 L 978.2343751680455 464.47265587194124 L 981.5078123520361 462.42578124796273 L 984.7812495360267 463.6562503679306 L 985.8046873600106 467.5468748799176 L 986.9374996480183 468.8789063679287 L 989.5937495040125 469.5937495039543 L 992.2578124800348 471.640625151922 L 994.7187496960396 473.38281267194543 L 998.5078128640307 472.66796851193067 L 1003.3203128320165 470.51562495995313 L 1006.289062912052 471.9492188159493 L 1007.2109373440617 474.8164065279416 L 1008.7421870080288 477.2734371839324 L 1012.53125017602 477.7851566079189 L 1015.9140628480236 477.5820308479597 L 1018.0624998400453 475.94140671996865 L 1020.6250004480244 472.66406297596404 L 1021.7499996160623 471.02734335995046 L 1023.6953128960449 468.8789063679287 L 1024.0 468.8025270500948" fill="none"/><path stroke="#000000" stroke-width="2" d="M 1024.0 495.95399498337065 L 1015.2968744960381 501.9531253759633 L 1004.9609379840549 508.9140623359708 L 1001.2734371840488 511.88671897596214 L 995.5390627840534 515.6757811199641 L 979.8671872000559 526.4257812479627 L 972.1874995200196 531.7499996159459 L 959.79687526403 541.6835942399339 L 942.289062912052 554.0742184959236 L 934.6093752320157 559.6015626239241 L 924.9843752960442 566.2578124799184 L 910.3359375360305 576.4999997439445 L 904.2968750080327 580.6992189439479 L 896.5156249600113 586.1249996799743 L 883.9218749440624 594.8281251839362 L 875.7265623040148 600.4609372159466 L 870.3046871040133 604.1484369919635 L 864.9765621760162 607.8359377919696 L 853.4062499840511 615.6171878399327 L 834.460937216063 628.3125002239249 L 829.445312512049 631.7968752639717 L 816.6406246400438 640.7031255039619 L 803.9453122560517 649.816406015947 L 801.79687526403 651.2499998719431 L 799.546874880034 652.8906250239233 L 792.8828129280591 657.4960936959251 L 784.5937500160653 663.437500415952 L 777.1171870720573 668.558594047965 L 768.109375488013 674.7031255039619 L 763.5000002560555 678.1835939839366 L 752.8515624960419 685.5546879999456 L 749.164062720025 688.1171875839354 L 741.8906245120452 693.2343746559345 L 739.023437824042 695.078124543943 L 736.3593748480198 697.0234378239256 L 729.9140628480236 701.5312496639672 L 727.554688000062 703.0664058879483 L 725.2031252480228 704.8085934079718 L 716.0859371520346 711.9765626879525 L 713.2187504640315 714.023437311931 L 709.7421875200234 716.0703129599569 L 707.4843750400469 717.3007810559357 L 704.921875456057 719.4492190719466 L 701.546874880034 721.4960936959251 L 699.1875000320142 724.6718750719447 L 697.554688000062 728.4609372159466 L 694.7890626560547 731.2265625599539 L 691.6093747200212 733.6835942399339 L 688.5390622720588 734.2968750079744 L 686.0859371520346 734.7070310399286 L 683.2187504640315 735.6289064959274 L 679.7343754240428 736.347656191967 L 676.460937216063 736.652343295922 L 672.7734374400461 736.7539066879544 L 672.9765621760162 740.031250431959 L 672.7734374400461 743.3085941759637 L 668.8828129280591 744.8437503999448 L 666.7265628160676 747.816406015947 L 664.2734376960434 750.5781247999403 L 660.9921873920248 751.8085939199664 L 657.6171878400492 752.5234370559338 L 652.6015621120459 753.0390620159451 L 649.7343754240428 753.9570309119299 L 647.2734371840488 755.085937663971 L 644.2031247360283 755.6992184319533 L 641.0312499200227 756.9296875519212 L 636.9296875520376 757.85156300792 L 633.554688000062 757.85156300792 L 629.8671872000559 758.1562501119333 L 625.3593753600144 759.1796879359754 L 621.26562508801 760.3085936639691 L 618.0859371520346 761.2304691199679 L 614.914062336029 762.3554682879476 L 609.898437632015 763.2773437439464 L 606.9296875520376 764.4023439359735 L 602.1171875840519 764.8124999679276 L 598.1249996800325 766.0429690879537 L 595.2578129920294 767.0664058879483 L 591.6718745600665 768.3984373759595 L 588.289062912052 769.1132815359742 L 585.2187504640315 770.5468753919704 L 581.6328120320104 771.3671874559368 L 577.6406251520384 771.2656250879518 L 574.0546877440647 771.2656250879518 L 572.0078120960388 772.2890629119356 L 570.3750000640284 773.92578150396 L 567.8125004800386 774.1328127999441 L 565.2499998720596 774.1328127999441 L 561.1562496000552 775.9765626879525 L 557.9843747840496 778.1249996799743 L 555.5234375680448 779.8671871999395 L 551.1171870720573 779.8671871999395 L 548.0468746240367 782.5273436159478 L 546.0000000000582 782.4257812479627 L 544.1562501120497 782.6289059839328 L 541.3906247680425 782.7343749119318 L 538.1171875840519 783.3476567039615 L 534.9374996480183 784.2695311359712 L 531.4609377280576 785.8046873599524 L 528.5937500160653 786.5234370559338 L 525.6249999360298 788.1601566719473 L 523.8828124160646 791.3359370239195 L 520.6093752320157 793.4843750399305 L 517.6328120320104 793.1796879359754 L 515.4843750400469 791.1289067519247 L 511.4921871360275 792.664062975964 L 508.42187468806515 793.8945310719428 L 506.06249984004535 795.1250001919689 L 503.60937472002115 796.3515627519228 L 502.89062502403976 798.7070310399286 L 499.20312524802284 801.3710940159508 L 496.33593753603054 802.5976565759629 L 493.8750003200257 804.7500001279404 L 491.3203128320165 806.2851563519216 L 487.2265625600121 804.5429688319564 L 484.0468746240367 804.7500001279404 L 482.0000000000582 805.464843263966 L 479.33593702403596 808.027343871945 L 479.74999961606227 810.8945315839374 L 477.0859376640292 812.4296878079185 L 473.70312499202555 812.2226565119345 L 470.6328125440632 812.3281254399335 L 467.96874956804095 813.9648440319579 L 464.8984371200204 815.6054691839381 L 460.9062502400484 815.2968744959217 L 459.16406272002496 815.6054691839381 L 456.812499968044 816.5234370559338 L 453.83593779202783 818.4687503359746 L 451.1796879360336 819.9062497279374 L 448.51562496001134 821.4414059519186 L 445.1328122880659 823.1796879359754 L 442.78124953602673 824.6132807679242 L 439.60937472002115 826.4570316799218 L 434.078125056054 829.2226559999399 L 431.61718784004916 830.656249855936 L 428.0390625280561 832.1914060799754 L 424.3515627520392 833.5234375679283 L 421.6874997760169 834.9570314239245 L 419.43750041601015 835.7773434879491 L 416.97656217601616 837.5156254719477 L 416.46093721606303 839.6679690239253 L 413.8046873600106 841.6132812799187 L 411.546874880034 842.8437503999448 L 407.96874956804095 843.8671871999395 L 404.6875002880115 845.6054691839381 L 402.74218700802885 846.3242188799195 L 399.97656268801074 847.6562503679306 L 397.3124997120467 849.7031249919673 L 393.7343754240428 850.9296875519212 L 391.37499955203384 852.1601566719473 L 387.48437504004687 854.4140625919681 L 384.8203120640246 856.2578124799184 L 381.34375014406396 859.9414067199687 L 377.65625036804704 863.4257817599573 L 375.0937497600098 865.8828124159481 L 371.3046876160661 866.1874995199614 L 367.4140620800317 867.0078126079752 L 362.9062502400484 869.3632808959228 L 360.3515627520392 870.0820316159516 L 357.9921879040194 868.7500001279404 L 354.61718732805457 869.3632808959228 L 352.46093721606303 873.5625000959262 L 350.21093785605626 875.710937087948 L 346.3203123200219 876.4296878079185 L 344.2734376960434 877.2499998719431 L 340.281249792024 878.8867184639676 L 336.5937500160653 881.8554685439449 L 333.92968704004306 883.5976560639683 L 331.46874982403824 885.2343746559345 L 328.60156211204594 885.3359370239195 L 326.3515627520392 883.5976560639683 L 323.58593945601024 884.5195335679455 L 319.1875000320142 886.7734374399297 L 312.7343749120482 888.6132807679242 L 308.02343731204746 891.0742190079181 L 302.39062528003706 892.7109375999426 L 300.24218726402614 894.656249855936 L 297.06250035203993 895.9882813439472 L 294.0937502720626 897.5234375679283 L 291.1250001920271 899.2656250879518 L 288.15625011204975 899.2656250879518 L 284.98437529604416 900.6992189439479 L 283.0390620160615 902.7460935679264 L 280.2734376960434 906.023437311931 L 280.3750000640284 909.3007810559357 L 282.3203123200219 912.0664063999429 L 284.1640622080304 915.1367188479635 L 284.06249984004535 918.6171873279382 L 284.98437529604416 922.20312473597 L 284.4687503360328 925.9921879039612 L 282.01562521606684 929.7812500479631 L 283.445312512049 932.9531248639687 L 285.1875000320142 938.277344255941 L 287.85156300803646 941.0429685759591 L 289.6953128960449 943.7070315519231 L 288.0546877440647 946.2656245759572 L 283.64843724801904 946.9843752959277 L 280.1718753280584 949.644531711936 L 280.5781248000567 952.5117183999391 L 280.47656243201345 955.6874997759587 L 281.8046873600106 958.2460938239237 L 283.546874880034 961.4218751999433 L 284.1640622080304 964.5937500159489 L 283.64843724801904 967.2578129919712 L 283.546874880034 970.7382814719458 L 283.64843724801904 973.6054691839381 L 283.64843724801904 977.8046873599524 L 281.8125004800386 980.1601566719473 L 278.6328125440632 980.4687503359746 L 275.4609377280576 979.6484372479608 L 272.9999994880636 978.9296875519212 L 268.39062528003706 979.2382812159485 L 264.29687500803266 980.1601566719473 L 262.65624985605245 981.6953128959285 L 262.3515627520392 983.640625151922 L 262.3515627520392 985.8945310719428 L 261.02343782404205 988.66015641595 L 260.812499968044 990.9140623359708 L 260.0000000000582 994.1874995199614 L 258.15625011204975 997.9765626879525 L 255.79687526402995 999.7187502079178 L 253.03124992002267 997.3632808959228 L 249.65625036804704 996.2382817279431 L 247.39843788801227 996.031250431959 L 244.1249996800325 997.7734379519243 L 240.1328128000605 999.820312575961 L 238.28906291205203 1002.4843745279359 L 236.24218726402614 1004.1210941439494 L 234.60156211204594 1006.6835937279393 L 231.01562470401404 1008.3203123199637 L 227.9453122560517 1008.6289059839328 L 226.5078128640307 1011.390624767926 L 224.87499980803113 1013.1328122879495 L 223.43750041601015 1014.8749998079729 L 220.16406220803037 1015.5898439679295 L 215.3515622400446 1016.2070312959258 L 211.66406246402767 1017.9453122559353 L 209.10156288003782 1016.6132807679242 L 207.46874982403824 1014.6679685119307 L 204.60156211204594 1015.6914063359727 L 200.0937502720626 1016.6132807679242 L 197.12500019202707 1016.8203120639664 L 193.84374988806667 1016.9218754559406 L 190.87499980803113 1018.3554682879476 L 187.60156262404053 1017.1250001919689 L 184.6328125440632 1017.7421875199652 L 181.55468800006201 1019.5859374079737 L 179.20312524802284 1017.7421875199652 L 175.00781260803342 1019.1757813759614 L 174.55777955825033 1024.0" fill="none"/><path stroke="#000000" stroke-width="2" d="M 174.55777955825033 1024.0 L 175.00781260803342 1019.1757813759614 L 179.20312524802284 1017.7421875199652 L 181.55468800006201 1019.5859374079737 L 184.6328125440632 1017.7421875199652 L 187.60156262404053 1017.1250001919689 L 190.87499980803113 1018.3554682879476 L 193.84374988806667 1016.9218754559406 L 197.12500019202707 1016.8203120639664 L 200.0937502720626 1016.6132807679242 L 204.60156211204594 1015.6914063359727 L 207.46874982403824 1014.6679685119307 L 209.10156288003782 1016.6132807679242 L 211.66406246402767 1017.9453122559353 L 215.3515622400446 1016.2070312959258 L 220.16406220803037 1015.5898439679295 L 223.43750041601015 1014.8749998079729 L 224.87499980803113 1013.1328122879495 L 226.5078128640307 1011.390624767926 L 227.9453122560517 1008.6289059839328 L 231.01562470401404 1008.3203123199637 L 234.60156211204594 1006.6835937279393 L 236.24218726402614 1004.1210941439494 L 238.28906291205203 1002.4843745279359 L 240.1328128000605 999.820312575961 L 244.1249996800325 997.7734379519243 L 247.39843788801227 996.031250431959 L 249.65625036804704 996.2382817279431 L 253.03124992002267 997.3632808959228 L 255.79687526402995 999.7187502079178 L 258.15625011204975 997.9765626879525 L 260.0000000000582 994.1874995199614 L 260.812499968044 990.9140623359708 L 261.02343782404205 988.66015641595 L 262.3515627520392 985.8945310719428 L 262.3515627520392 983.640625151922 L 262.65624985605245 981.6953128959285 L 264.29687500803266 980.1601566719473 L 268.39062528003706 979.2382812159485 L 272.9999994880636 978.9296875519212 L 275.4609377280576 979.6484372479608 L 278.6328125440632 980.4687503359746 L 281.8125004800386 980.1601566719473 L 283.64843724801904 977.8046873599524 L 283.64843724801904 973.6054691839381 L 283.546874880034 970.7382814719458 L 283.64843724801904 967.2578129919712 L 284.1640622080304 964.5937500159489 L 283.546874880034 961.4218751999433 L 281.8046873600106 958.2460938239237 L 280.47656243201345 955.6874997759587 L 280.5781248000567 952.5117183999391 L 280.1718753280584 949.644531711936 L 283.64843724801904 946.9843752959277 L 288.0546877440647 946.2656245759572 L 289.6953128960449 943.7070315519231 L 287.85156300803646 941.0429685759591 L 285.1875000320142 938.277344255941 L 283.445312512049 932.9531248639687 L 282.01562521606684 929.7812500479631 L 284.4687503360328 925.9921879039612 L 284.98437529604416 922.20312473597 L 284.06249984004535 918.6171873279382 L 284.1640622080304 915.1367188479635 L 282.3203123200219 912.0664063999429 L 280.3750000640284 909.3007810559357 L 280.2734376960434 906.023437311931 L 283.0390620160615 902.7460935679264 L 284.98437529604416 900.6992189439479 L 288.15625011204975 899.2656250879518 L 291.1250001920271 899.2656250879518 L 294.0937502720626 897.5234375679283 L 297.06250035203993 895.9882813439472 L 300.24218726402614 894.656249855936 L 302.39062528003706 892.7109375999426 L 308.02343731204746 891.0742190079181 L 312.7343749120482 888.6132807679242 L 319.1875000320142 886.7734374399297 L 323.58593945601024 884.5195335679455 L 326.3515627520392 883.5976560639683 L 328.60156211204594 885.3359370239195 L 331.46874982403824 885.2343746559345 L 333.92968704004306 883.5976560639683 L 336.5937500160653 881.8554685439449 L 340.281249792024 878.8867184639676 L 344.2734376960434 877.2499998719431 L 346.3203123200219 876.4296878079185 L 350.21093785605626 875.710937087948 L 352.46093721606303 873.5625000959262 L 354.61718732805457 869.3632808959228 L 357.9921879040194 868.7500001279404 L 360.3515627520392 870.0820316159516 L 362.9062502400484 869.3632808959228 L 367.4140620800317 867.0078126079752 L 371.3046876160661 866.1874995199614 L 375.0937497600098 865.8828124159481 L 377.65625036804704 863.4257817599573 L 381.34375014406396 859.9414067199687 L 384.8203120640246 856.2578124799184 L 387.48437504004687 854.4140625919681 L 391.37499955203384 852.1601566719473 L 393.7343754240428 850.9296875519212 L 397.3124997120467 849.7031249919673 L 399.97656268801074 847.6562503679306 L 402.74218700802885 846.3242188799195 L 404.6875002880115 845.6054691839381 L 407.96874956804095 843.8671871999395 L 411.546874880034 842.8437503999448 L 413.8046873600106 841.6132812799187 L 416.46093721606303 839.6679690239253 L 416.97656217601616 837.5156254719477 L 419.43750041601015 835.7773434879491 L 421.6874997760169 834.9570314239245 L 424.3515627520392 833.5234375679283 L 428.0390625280561 832.1914060799754 L 431.61718784004916 830.656249855936 L 434.078125056054 829.2226559999399 L 439.60937472002115 826.4570316799218 L 442.78124953602673 824.6132807679242 L 445.1328122880659 823.1796879359754 L 448.51562496001134 821.4414059519186 L 451.1796879360336 819.9062497279374 L 453.83593779202783 818.4687503359746 L 456.812499968044 816.5234370559338 L 459.16406272002496 815.6054691839381 L 460.9062502400484 815.2968744959217 L 464.8984371200204 815.6054691839381 L 467.96874956804095 813.9648440319579 L 470.6328125440632 812.3281254399335 L 473.70312499202555 812.2226565119345 L 477.0859376640292 812.4296878079185 L 479.74999961606227 810.8945315839374 L 479.33593702403596 808.027343871945 L 482.0000000000582 805.464843263966 L 484.0468746240367 804.7500001279404 L 487.2265625600121 804.5429688319564 L 491.3203128320165 806.2851563519216 L 493.8750003200257 804.7500001279404 L 496.33593753603054 802.5976565759629 L 499.20312524802284 801.3710940159508 L 502.89062502403976 798.7070310399286 L 503.60937472002115 796.3515627519228 L 506.06249984004535 795.1250001919689 L 508.42187468806515 793.8945310719428 L 511.4921871360275 792.664062975964 L 515.4843750400469 791.1289067519247 L 517.6328120320104 793.1796879359754 L 520.6093752320157 793.4843750399305 L 523.8828124160646 791.3359370239195 L 525.6249999360298 788.1601566719473 L 528.5937500160653 786.5234370559338 L 531.4609377280576 785.8046873599524 L 534.9374996480183 784.2695311359712 L 538.1171875840519 783.3476567039615 L 541.3906247680425 782.7343749119318 L 544.1562501120497 782.6289059839328 L 546.0000000000582 782.4257812479627 L 548.0468746240367 782.5273436159478 L 551.1171870720573 779.8671871999395 L 555.5234375680448 779.8671871999395 L 557.9843747840496 778.1249996799743 L 561.1562496000552 775.9765626879525 L 565.2499998720596 774.1328127999441 L 567.8125004800386 774.1328127999441 L 570.3750000640284 773.92578150396 L 572.0078120960388 772.2890629119356 L 574.0546877440647 771.2656250879518 L 577.6406251520384 771.2656250879518 L 581.6328120320104 771.3671874559368 L 585.2187504640315 770.5468753919704 L 588.289062912052 769.1132815359742 L 591.6718745600665 768.3984373759595 L 595.2578129920294 767.0664058879483 L 598.1249996800325 766.0429690879537 L 602.1171875840519 764.8124999679276 L 606.9296875520376 764.4023439359735 L 609.898437632015 763.2773437439464 L 614.914062336029 762.3554682879476 L 618.0859371520346 761.2304691199679 L 621.26562508801 760.3085936639691 L 625.3593753600144 759.1796879359754 L 629.8671872000559 758.1562501119333 L 633.554688000062 757.85156300792 L 636.9296875520376 757.85156300792 L 641.0312499200227 756.9296875519212 L 644.2031247360283 755.6992184319533 L 647.2734371840488 755.085937663971 L 649.7343754240428 753.9570309119299 L 652.6015621120459 753.0390620159451 L 657.6171878400492 752.5234370559338 L 660.9921873920248 751.8085939199664 L 664.2734376960434 750.5781247999403 L 666.7265628160676 747.816406015947 L 668.8828129280591 744.8437503999448 L 672.7734374400461 743.3085941759637 L 672.9765621760162 740.031250431959 L 672.7734374400461 736.7539066879544 L 676.460937216063 736.652343295922 L 679.7343754240428 736.347656191967 L 683.2187504640315 735.6289064959274 L 686.0859371520346 734.7070310399286 L 688.5390622720588 734.2968750079744 L 691.6093747200212 733.6835942399339 L 694.7890626560547 731.2265625599539 L 697.554688000062 728.4609372159466 L 699.1875000320142 724.6718750719447 L 701.546874880034 721.4960936959251 L 704.921875456057 719.4492190719466 L 707.4843750400469 717.3007810559357 L 709.7421875200234 716.0703129599569 L 713.2187504640315 714.023437311931 L 716.0859371520346 711.9765626879525 L 725.2031252480228 704.8085934079718 L 727.554688000062 703.0664058879483 L 729.9140628480236 701.5312496639672 L 736.3593748480198 697.0234378239256 L 739.023437824042 695.078124543943 L 741.8906245120452 693.2343746559345 L 749.164062720025 688.1171875839354 L 752.8515624960419 685.5546879999456 L 763.5000002560555 678.1835939839366 L 768.109375488013 674.7031255039619 L 777.1171870720573 668.558594047965 L 784.5937500160653 663.437500415952 L 792.8828129280591 657.4960936959251 L 799.546874880034 652.8906250239233 L 801.79687526403 651.2499998719431 L 803.9453122560517 649.816406015947 L 816.6406246400438 640.7031255039619 L 829.445312512049 631.7968752639717 L 834.460937216063 628.3125002239249 L 853.4062499840511 615.6171878399327 L 864.9765621760162 607.8359377919696 L 870.3046871040133 604.1484369919635 L 875.7265623040148 600.4609372159466 L 883.9218749440624 594.8281251839362 L 896.5156249600113 586.1249996799743 L 904.2968750080327 580.6992189439479 L 910.3359375360305 576.4999997439445 L 924.9843752960442 566.2578124799184 L 934.6093752320157 559.6015626239241 L 942.289062912052 554.0742184959236 L 959.79687526403 541.6835942399339 L 972.1874995200196 531.7499996159459 L 979.8671872000559 526.4257812479627 L 995.5390627840534 515.6757811199641 L 1001.2734371840488 511.88671897596214 L 1004.9609379840549 508.9140623359708 L 1015.2968744960381 501.9531253759633 L 1024.0 495.95399498337065" fill="none"/><path stroke="#000000" stroke-width="2" d="M 1024.0 468.8025270500948 L 1023.6953128960449 468.8789063679287 L 1021.7499996160623 471.02734335995046 L 1020.6250004480244 472.66406297596404 L 1018.0624998400453 475.94140671996865 L 1015.9140628480236 477.5820308479597 L 1012.53125017602 477.7851566079189 L 1008.7421870080288 477.2734371839324 L 1007.2109373440617 474.8164065279416 L 1006.289062912052 471.9492188159493 L 1003.3203128320165 470.51562495995313 L 998.5078128640307 472.66796851193067 L 994.7187496960396 473.38281267194543 L 992.2578124800348 471.640625151922 L 989.5937495040125 469.5937495039543 L 986.9374996480183 468.8789063679287 L 985.8046873600106 467.5468748799176 L 984.7812495360267 463.6562503679306 L 981.5078123520361 462.42578124796273 L 978.2343751680455 464.47265587194124 L 978.1249996800325 469.183593471942 L 979.0468751360313 471.746094079921 L 980.078125056054 473.6914063359727 L 980.5859379200265 476.35156275192276 L 978.8437504000613 481.88281241594814 L 976.4921876480221 483.0078126079752 L 974.5468753920286 481.88281241594814 L 974.4453120000544 479.21875046397327 L 973.828124672058 476.558594047965 L 970.7578122240375 475.01953126396984 L 966.5546874880674 474.3046871039551 L 961.7421875200234 474.9179688959266 L 958.0546877440647 473.1796879359754 L 958.6718750720611 469.082031103957 L 957.343750144064 465.70312499196734 L 954.4765624320135 462.2226565119345 L 950.3750000640284 459.3554687999422 L 949.2499998720596 456.07812505593756 L 946.6875002880115 454.74609356792644 L 944.3359375360305 454.9492183039547 L 941.4687498240382 455.15624959993875 L 937.3749995520338 455.25781299197115 L 933.1718748160638 454.74609356792644 L 930.1015623680432 455.66796902392525 L 926.3125002240413 456.2812497919658 L 921.5000002560555 457.5117189119337 L 917.3046876160661 457.20312524796464 L 917.9140628480236 454.33593753597233 L 919.0468751360313 451.4687498239218 L 913.2031252480228 450.9570314239245 L 909.0078126080334 451.57031219196506 L 904.6015621120459 451.0585937919677 L 901.3281249280553 453.0039060479612 L 899.3828126720618 457.20312524796464 L 897.5390627840534 459.1484375039581 L 895.0781245440594 459.55859353597043 L 889.0390620160615 458.3281254399335 L 886.6875002880115 456.5898434559349 L 886.3750000640284 452.4921876479639 L 886.9921873920248 448.8085934079718 L 883.5078123520361 446.0429690879537 L 879.4140620800317 445.01953126396984 L 876.4453120000544 443.5859374079737 L 877.0625003520399 439.9999999999418 L 879.5156254720641 439.28515583992703 L 885.968749568041 438.7734374399297 L 888.9374996480183 438.25781247991836 L 892.5234370560502 437.9531253759633 L 894.7734394880245 436.51953459193464 L 896.4140625920263 433.75390617595986 L 895.6953128960449 431.29687449592166 L 894.5703127040179 427.60937471996294 L 893.343750144064 423.20703078393126 L 890.9843752960442 419.0078126079752 L 887.195312128053 416.1406248959247 L 882.6875002880115 415.3203128319583 L 879.2109373440617 414.6054686719435 L 876.9609379840549 415.8359377919696 L 874.3984373760177 416.9609379839385 L 871.3281249280553 418.7031255039619 L 867.8437498880667 418.1874995199614 L 863.6406251520384 416.8593745919643 L 862.6171873280546 412.453125119966 L 863.335937024036 407.2304691199679 L 864.1562501120497 404.05859327997314 L 863.4375004160102 400.3710935039562 L 861.1875000320142 399.8593751039589 L 855.1484375040163 401.29296895995503 L 851.5625000960426 400.3710935039562 L 851.3593753600144 395.55859353597043 L 853.7109370880644 392.5898434559349 L 855.554688000062 389.4140620799735 L 850.7421870080288 387.2656250879518 L 847.0546872320119 389.21093734394526 L 843.164062720025 390.84765593596967 L 840.1953126400476 388.6992189439479 L 837.6328120320104 386.1367183359689 L 837.7343754240428 383.06640588794835 L 841.5234375680448 380.30078156793024 L 844.8046878720634 378.76562534394907 L 846.9531248640269 375.6914063359727 L 844.0859371520346 371.5976560639683 L 842.3437496320112 368.0117186559364 L 843.7812500480213 364.4296878079185 L 844.9062502400484 361.66406246396946 L 841.6249999360298 359.5156254719477 L 836.0000000000582 359.30859417596366 L 832.4140625920263 360.43359334394336 L 829.8515630080365 362.1757808639668 L 828.4218746880651 365.5546879999456 L 830.7734374400461 369.1406254079193 L 832.0078120960388 371.69921843195334 L 832.6171873280546 375.078124543943 L 832.921875456057 377.9453122559353 L 833.023437824042 380.60937523195753 L 831.5937495040125 382.24609382392373 L 828.3203123200219 383.1679682559334 L 823.195312128053 382.24609382392373 L 819.4062499840511 381.3242183679249 L 815.9296870400431 382.34765619196696 L 812.1406248960411 383.47656294394983 L 809.2734371840488 383.88671897596214 L 806.5078128640307 383.57812531193485 L 803.6406251520384 382.1445314559387 L 800.5703127040179 377.3320314879529 L 798.6250004480244 374.66796851193067 L 799.648437248019 372.8242186239222 L 800.9765621760162 370.3671879679314 L 802.0000000000582 367.6054691839381 L 799.2343746560509 365.5546879999456 L 795.8593751040171 364.4296878079185 L 793.9140628480236 361.97265612793854 L 793.195312128053 359.4101565439487 L 792.5781248000567 355.51953100797255 L 786.5390622720588 352.75390668795444 L 783.1562496000552 349.6835942399339 L 780.1874995200196 347.94140671996865 L 778.0390625280561 346.40625049592927 L 775.3749995520338 346.9179688959266 L 770.7656253440655 348.66015641595004 L 767.3906247680425 350.6054686719435 L 763.2968744960381 351.62890649592737 L 760.3203123200219 351.3203128319583 L 757.3515622400446 350.0937502719462 L 754.4843745280523 347.94140671996865 L 752.0312504320173 346.40625049592927 L 748.8515624960419 345.38281267194543 L 746.2968750080327 344.56249958393164 L 744.1406248960411 342.7187496959232 L 742.1953126400476 339.44531251193257 L 739.2265625600121 337.6015626239241 L 737.3828126720618 334.83593727997504 L 735.9531253760215 332.9921873919666 L 733.4921871360275 332.07031295995694 L 731.0390620160615 336.98437529592775 L 729.0937497600098 339.44531251193257 L 727.0390620160615 339.1367188479635 L 724.5859379200265 338.52343705593375 L 722.4374999040156 336.98437529592775 L 722.6406246400438 333.6054691839381 L 722.3359375360305 330.02343731193105 L 719.7734379520407 329.921874943946 L 714.7578122240375 332.07031295995694 L 712.3984373760177 331.1484375039581 L 713.5234375680448 328.5898434559349 L 716.6015621120459 325.824219135975 L 720.078125056054 322.75390668795444 L 719.7734379520407 320.0898437119322 L 716.0859371520346 317.12109363195486 L 714.0390625280561 314.25390591996256 L 714.6562498560525 311.28515583992703 L 716.6015621120459 309.33984358393354 L 719.4687498240382 307.28906239994103 L 719.7734379520407 304.2187499519205 L 714.4453120000544 300.7382814719458 L 709.4296872960404 298.6875002879533 L 706.7656253440655 294.38671871996485 L 705.7421875200234 291.51953100797255 L 704.6171873280546 288.1406248959247 L 701.9531253760215 286.5039063039585 L 700.109375488013 284.453125119966 L 699.8046873600106 281.2812503039604 L 698.6796871680417 278.92578099196544 L 697.9609374720603 273.4960936959251 L 696.6328125440632 271.9609374719439 L 693.6640624640277 271.24609331192914 L 689.9765626880107 270.3242188799195 L 686.390625280037 267.96874956792453 L 684.1406248960411 266.1249996799743 L 681.9843747840496 264.1796874239226 L 683.828124672058 261.3124997119303 L 687.3124997120467 258.24218726396793 L 689.4609377280576 256.6015621119295 L 691.7187502080342 255.88671897596214 L 694.8906250240398 254.34765619196696 L 695.3984378880123 250.66406297596404 L 697.8593751040171 246.66796851193067 L 700.109375488013 245.74609407992102 L 703.4921871360275 245.03124991996447 L 705.5390627840534 243.59765606396832 L 704.2109378560563 241.1406254079193 L 697.554688000062 241.0390620159451 L 691.9218749440624 242.67578163195867 L 687.6171878400492 243.39062476792606 L 684.8515624960419 242.57421823992627 L 682.3984373760177 240.11718758393545 L 683.7265623040148 237.86328166397288 L 687.7187502080342 235.71093708794797 L 690.179687424039 234.48437452793587 L 692.8437504000613 231.71875020791776 L 690.9999994880636 229.3632808959228 L 688.9531248640269 229.56640665594023 L 685.164062720025 230.1835939839366 L 679.9375001600129 230.69531238393392 L 676.9687500800355 228.03125043195905 L 677.3828126720618 225.3710940159508 L 676.562499584048 220.453125119966 L 674.4062504960457 218.9179688959266 L 671.546874880034 218.61328076792415 L 668.2656245760154 218.20312473597005 L 664.6796871680417 215.640625151922 L 662.1249996800325 212.46875033597462 L 660.281249792024 211.44531251193257 L 656.5937500160653 210.8281251839362 L 653.5234375680448 210.3164057599497 L 650.8593745920225 208.78124953596853 L 649.6328120320104 206.52734361594776 L 648.1953126400476 204.78906265593832 L 645.1250001920271 203.0468751359731 L 640.921875456057 202.6367191039608 L 637.7499996160623 201.30468761594966 L 636.6250004480244 197.0039060479612 L 634.7812495360267 192.9101557759568 L 631.6093747200212 190.04296908795368 L 629.8671872000559 187.37890611193143 L 627.5078123520361 186.15234355191933 L 624.9531248640269 187.6874997759587 L 622.9062502400484 190.453125119966 L 620.1406248960411 193.42187519994332 L 618.6015621120459 194.9570314239245 L 616.6562498560525 195.67578111996409 L 612.562499584048 193.7265623039566 L 613.2734371840488 188.9140623359708 L 615.6328120320104 183.58984396792948 L 615.2265625600121 178.3671879679314 L 614.812499968044 174.57812479994027 L 613.1718748160638 173.14453094394412 L 611.3281249280553 171.816406015947 L 608.8749998080311 170.1757808639668 L 605.8046873600106 167.820312575961 L 604.1640622080304 164.85156249592546 L 603.1406254080357 161.3710940159508 L 601.3984378880123 158.60546867194353 L 598.9374996480183 158.29687500797445 L 596.5859379200265 157.99218790396117 L 593.8203125760192 156.96484351996332 L 594.7421870080288 154.5078128639725 L 597.3046876160661 151.2304691199679 L 598.53125017602 149.39062476792606 L 598.9374996480183 147.23828121594852 L 595.2578129920294 145.39453132794006 L 590.9531248640269 143.14453094394412 L 591.0546872320119 139.76171827194048 L 595.1562496000552 138.84375039994484 L 599.1484375040163 138.2265620479593 L 602.4218746880651 138.02343731193105 L 605.8046873600106 136.28124979196582 L 603.343750144064 134.2343751679291 L 600.3750000640284 134.2343751679291 L 596.9921873920248 133.0039060479612 L 594.9453127680463 129.3203128319583 L 594.8437504000613 123.2773437439464 L 594.7421870080288 120.71874969592318 L 593.9218749440624 118.56640614394564 L 592.078125056054 116.92968755192123 L 589.9296870400431 116.00781209592242 L 586.8593745920225 115.08593766397098 L 583.9921879040194 114.06249983992893 L 580.921875456057 111.9101562879514 L 579.2812503040186 107.91796838393202 L 577.5390627840534 105.15234406397212 L 575.5937495040125 102.69531238393392 L 572.6250004480244 101.16015615995275 L 570.4765624320135 100.13281279994408 L 565.5625000960426 97.67578111996409 L 563.2031252480228 94.91406233597081 L 561.0546872320119 93.48046847997466 L 558.1874995200196 93.07031244796235 L 555.6249999360298 93.07031244796235 L 552.9609379840549 92.25000038393773 L 551.5312496640254 89.2812503039604 L 549.5859374080319 87.23046911996789 L 545.0781245440594 88.0507811839343 L 543.7499996160623 91.22656255995389 L 544.0546877440647 94.91406233597081 L 543.8515630080365 99.00781260797521 L 541.1875000320142 103.00390604796121 L 537.8046873600106 101.87500031996751 L 536.7812495360267 99.10937497596024 L 538.1171875840519 95.21875046397327 L 537.5000002560555 91.01953126396984 L 535.968749568041 89.07421900791815 L 532.8906250240398 87.23437465593452 L 528.078125056054 85.69531289592851 L 524.7031255040201 82.92968755192123 L 528.4921876480221 79.34765670396155 L 531.7656248320127 76.58203135995427 L 530.0234373120475 74.94531276792986 L 527.6718745600665 74.73828147194581 L 524.9062502400484 74.53515673591755 L 522.3437496320112 74.63671910396079 L 515.3828126720618 74.2265620479593 L 512.2109378560563 71.25781299197115 L 510.2656245760154 67.77734348794911 L 512.109375488013 64.80859340797178 L 515.2812503040186 64.80859340797178 L 518.0468746240367 65.011719167931 L 520.812499968044 65.7265623039566 L 522.9609379840549 63.47656294394983 L 519.3749995520338 61.22265599993989 L 515.3828126720618 58.86718771193409 L 514.460937216063 55.48828159994446 L 517.8359377920278 54.7695308799739 L 521.4218752000597 55.691406335972715 L 525.9296870400431 55.691406335972715 L 528.9999994880636 53.74609407992102 L 531.2578129920294 52.21093785593985 L 533.6093747200212 49.85546854394488 L 535.8593751040171 47.80859391996637 L 538.0156252160668 45.656250367930625 L 539.9609374720603 42.996093951922376 L 540.6796871680417 41.05078169592889 L 536.8828129280591 39.41015654394869 L 533.5078123520361 38.89843711996218 L 529.9218749440624 37.97656268795254 L 527.7734379520407 36.03125043195905 L 528.078125056054 30.605468671943527 L 531.1484375040163 27.83984332793625 L 536.4765624320135 27.42968729592394 L 539.9609374720603 27.6367185919662 L 543.335937024036 27.535156223922968 L 545.3828126720618 26.097655807971023 L 547.7421875200234 23.640625151921995 L 548.7656253440655 20.160156671947334 L 547.6406251520384 16.16796876792796 L 540.4687503360328 13.605469183938112 L 536.0703129600151 14.527343615947757 L 533.1015628800378 15.449219071946573 L 528.7968747520354 15.859375103958882 L 526.9531248640269 12.070312959956937 L 526.5468753920286 8.28124979196582 L 525.6249999360298 2.957031423924491 L 522.3437496320112 1.2148439039592631 L 517.9453122560517 1.0117191679310054 L 512.109375488013 0.9101557759568095 L 508.9701070148003 0.0" fill="none"/><path stroke="#000000" stroke-width="2" d="M 500.00285436570994 0.0 L 498.8984371200204 0.49999974394449964 L 495.0078126080334 0.19140607997542247 L 494.68831535516074 0.0" fill="none"/></svg>