<svg xmlns="http://www.w3.org/2000/svg" width="1024" height="1024"><rect stroke="none" x="0" y="0" width="1024" height="1024" fill="white"/><path stroke="#408040" stroke-width="3" d="M 786.7377717894706 0.0 L 788.1215999999986 13.6704000000027 L 809.0419200000033 85.45279999999912 L 817.3465600000054 149.76000000000204 L 828.9382400000031 182.40512000000308 L 846.5612799999944 215.17311999999947 L 878.2336000000068 274.1862400000027 L 895.3139200000005 308.83840000000055 L 911.7491199999931 342.722560000002 L 931.1948799999955 368.5171199999968 L 941.5884800000058 382.27967999999964 L 943.1859200000035 393.52320000000327 L 945.2032000000036 413.6345599999986 L 949.5040000000008 454.6457599999994 L 954.767359999998 474.72639999999956 L 965.703680000006 504.04351999999926 L 968.642559999993 517.171199999997 L 960.3993599999958 526.99136 L 934.3590399999957 546.3756799999974 L 896.0716799999936 577.3107200000013 L 855.551999999996 606.4947200000024 L 788.4083200000023 671.6620800000019 L 696.3814399999974 769.0444799999968 L 630.6611200000043 844.2675200000012 L 625.715200000006 859.7503999999972 L 625.7766399999964 875.5097600000008 L 622.5305599999992 914.1964799999987 L 613.7344000000012 944.4044799999974 L 605.9315199999983 985.640959999997 L 605.8598400000046 1011.6403199999986 L 601.5817700177286 1024.0" fill="none"/></svg>