<svg xmlns="http://www.w3.org/2000/svg" width="1024" height="1024"><rect stroke="none" x="0" y="0" width="1024" height="1024" fill="white"/><path stroke="#000000" stroke-width="2" d="M 133.3084569956991 0.0 L 151.65788160008378 0.08994815999176353 L 264.2355527681066 0.08994815999176353 L 276.5084467200213 0.11377663991879672 L 297.68749977607513 0.1367183358524926 L 303.4146816001157 0.19234815990785137 L 377.0402816000278 0.19234815990785137 L 383.38908160006395 0.2947481598239392 L 386.56249958410626 0.3984373759594746 L 390.4531251200242 0.3984373759594746 L 452.71093760005897 0.4999997440027073 L 472.5781248000567 0.3984373759594746 L 510.97656217601616 0.3984373759594746 L 513.8466816000291 0.6019481599796563 L 545.5906816000352 0.6019481599796563 L 562.078125056054 0.4999997440027073 L 569.4531246080878 0.4999997440027073 L 571.2187504640315 0.4296878078021109 L 579.6439111680957 0.4352194559178315 L 581.1250001920271 0.4999997440027073 L 583.0971074560075 0.43787263985723257 L 588.242582528037 0.44182630389695987 L 593.2031252480228 0.4999997440027073 L 646.0390625281143 0.4999997440027073 L 652.8000000001048 0.5119999999878928 L 692.4231065600761 0.5404467199696228 L 699.0565724160406 0.547900415956974 L 706.4610816000495 0.6019481599796563 L 731.9586816000519 0.7043481598957442 L 743.4296872960404 0.8085934079717845 L 755.6171878400492 0.6132807678659447 L 757.5567104000365 0.61414297594456 L 767.3890816001222 0.7043481598957442 L 771.8946816000971 0.806748159811832 L 774.8828129280591 0.6367191039025784 L 781.0781245440594 0.6445311999414116 L 789.0978816000279 0.7043481598957442 L 791.1328122880659 0.6523432959220372 L 839.5565434880555 0.6019481599796563 L 896.5154816000722 0.6019481599796563 L 909.2109373441199 1.0117191679310054 L 972.2914816000266 0.806748159811832 L 978.3330816000234 0.7043481598957442 L 1022.5698816000368 0.6019481599796563 L 1024.0 0.6019481599796563" fill="none"/></svg>