<svg xmlns="http://www.w3.org/2000/svg" width="1024" height="1024"><rect stroke="none" x="0" y="0" width="1024" height="1024" fill="white"/><path stroke="#000000" stroke-width="2" d="M 180.45007257605903 1009.0330347520066 L 187.3066700801137 1012.1386700798175 L 191.0971156480373 1010.1885040639318 L 191.21868800010998 1010.131967999856 L 194.64315289614024 1009.8294804479228 L 203.1486187520204 1009.1073187838774 L 204.9177600001567 1013.0360319998581 L 209.7694720000727 1017.4146559998044 L 212.0817766400287 1019.4773299198714 L 223.31975987215992 1018.9841623039101 L 242.2814720001188 1018.2430719999829 L 243.99360000004526 1023.9498239999521 L 244.0066814495076 1024.0" fill="none"/><path stroke="#000000" stroke-width="2" d="M 292.3029071758938 1024.0 L 292.35548160003964 1023.9875481599593 L 304.90051686402876 1020.6218065918656 L 320.8247459841077 1023.8586357759195 L 321.4370816000155 1023.9875481599593 L 321.49934070663585 1024.0" fill="none"/><path stroke="#000000" stroke-width="2" d="M 328.29319562578166 1024.0 L 328.40028160007205 1023.9875481599593 L 330.88765542407054 1023.6235417599673 L 334.56355328008067 1023.1466700798483 L 334.6008535041474 1023.0728222718462 L 334.6466816000175 1023.0659481598996 L 338.51437568006804 1018.6893475838006 L 341.88365004811203 1022.0085166079225 L 341.9887933440623 1022.1136599038146 L 343.8751334402041 1024.0" fill="none"/><path stroke="#000000" stroke-width="2" d="M 128.36415327416034 1024.0 L 128.3676160001196 1023.9518719999469 L 136.39938662416534 1023.4763458559755 L 136.84622336004395 1023.5164467199356 L 140.68622336006956 1019.3351065599127 L 147.28532992012333 1019.3919999998761 L 157.58222336007748 1013.4471065598773 L 161.90577664010925 1012.4515532798832 L 168.64083456003573 1009.2681871358654 L 169.20739942404907 1009.0068367358181 L 176.6238566400716 1007.9081041919417 L 177.5841280000168 1007.7695999999414 L 180.45007257605903 1009.0330347520066" fill="none"/></svg>