<svg xmlns="http://www.w3.org/2000/svg" width="1024" height="1024"><rect stroke="none" x="0" y="0" width="1024" height="1024" fill="white"/><path stroke="#408040" stroke-width="3" d="M 463.00160000000324 3.553280000000086 L 462.7046399999963 3.553280000000086 L 462.1516799999954 3.573759999999311 L 462.16191999999864 3.9321599999966566 L 462.18240000000515 4.63872000000265 L 462.2233600000036 5.345280000001367 L 462.325760000007 7.393279999996594 L 462.41792000000714 9.308160000000498 L 462.61247999999614 12.974079999999958 L 462.755839999998 15.380479999999807 L 462.84799999999814 15.800320000002102 L 463.08352000000014 16.240640000003623 L 464.0972800000018 17.71519999999873 L 465.46944000000076 19.711999999999534 L 467.3536000000022 22.53824000000168 L 469.6576000000059 25.91743999999744 L 471.49056000000564 28.559359999999288 L 471.62368000000424 28.71295999999711 L 471.5827200000058 28.743679999999586 L 471.55199999999604 28.835839999999735 L 471.5929599999945 28.917759999996633 L 471.8284799999965 28.989439999997558 L 472.0127999999968 28.876799999998184 L 472.02304000000004 28.835839999999735 L 472.8319999999949 28.71295999999711 L 473.93791999999667 28.62079999999696 L 475.7913600000029 28.364800000003015 L 476.7641600000061 28.32383999999729 L 479.38559999999416 28.753920000002836 L 480.0819199999969 28.825599999996484 L 481.01376000000164 28.989439999997558 L 482.6214400000026 29.28639999999723 L 483.93215999999666 29.521919999999227 L 486.8095999999932 30.044159999997646 L 489.2262400000036 30.392319999999017 L 490.2092799999955 30.484479999999166 L 490.80319999999483 30.525439999997616 L 491.2742399999988 30.627840000001015 L 492.1139200000034 30.679040000002715 L 493.12768000000506 30.709759999997914 L 495.48287999999593 30.750719999996363 L 497.15200000000186 30.801919999998063 L 498.616320000001 31.04768000000331 L 499.79391999999643 31.447039999999106 L 500.695040000006 31.9180800000031 L 501.5040000000008 32.52223999999842 L 501.96480000000156 32.983039999999164 L 502.41535999999905 33.63840000000346 L 503.1628800000035 35.00031999999919 L 503.7977600000013 36.177920000001905 L 504.15615999999864 36.84352000000217 L 504.60671999999613 37.93920000000071 L 504.924159999995 39.270400000001246 L 504.9958400000032 40.07936000000336 L 504.9651199999935 41.16479999999865 L 504.76032000000123 42.32192000000214 L 504.23807999999553 44.328959999998915 L 503.97183999999834 45.6704000000027 L 503.9001600000047 46.80703999999969 L 503.9308799999999 49.72544000000198 L 503.94112000000314 51.763200000001234 L 503.99232000000484 56.739840000002005 L 504.02304000000004 59.443200000001525 L 504.07424000000174 60.794880000001285 L 504.4019200000039 62.73023999999714 L 505.1187199999986 64.77823999999964 L 505.53856000000087 65.62816000000021 L 505.95840000000317 66.35519999999815 L 507.09504000000015 67.97312000000238 L 509.921279999995 71.29088000000047 L 513.1673600000067 75.0694399999993 L 515.1436799999938 77.28128000000288 L 516.5465600000025 78.39744000000064 L 517.5398399999976 78.99135999999999 L 518.604800000001 79.5135999999984 L 521.1955199999938 80.54783999999927 L 523.7145599999931 81.62303999999858 L 524.8409600000014 82.27840000000288 L 525.7523199999996 82.9337599999999 L 527.7183999999979 84.59264000000258 L 528.8652799999982 85.56543999999849 L 529.9302400000015 86.29247999999643 L 531.0975999999937 86.94784000000072 L 532.0601599999936 87.38816000000224 L 535.0911999999953 88.5555200000017 L 540.7641600000061 90.72639999999956 L 543.0681599999953 91.61727999999857 L 545.3926400000055 92.57983999999851 L 547.2972799999989 93.64480000000185 L 549.2838400000037 94.86336000000301 L 553.6768000000011 97.55647999999928 L 557.6601599999995 100.00383999999758 L 560.0051200000016 101.48864000000322 L 561.2339199999988 102.42048000000068 L 562.2988800000021 103.37279999999737 L 564.4390399999975 105.59487999999692 L 565.7907200000045 107.00800000000163 L 566.9478399999934 107.98079999999754 L 568.6579199999978 109.02528000000166 L 570.7468800000061 109.90591999999742 L 573.8188800000062 110.70464000000356 L 576.5939199999993 111.3804799999998 L 579.2460799999972 112.27135999999882 L 581.5603200000041 113.38751999999658 L 583.5980799999961 114.71871999999712 L 585.093120000005 116.03968000000168 L 586.2707200000004 117.41184000000067 L 587.304959999994 119.1116800000018 L 587.8681599999982 120.52479999999923 L 588.9024000000063 123.57632000000012 L 590.0288 126.87359999999899 L 590.6022399999929 128.04095999999845 L 591.3804800000071 129.1571200000035 L 592.0460800000001 129.92511999999988 L 593.0188800000033 130.85695999999734 L 593.8790399999998 131.53280000000086 L 595.1897599999938 132.38272000000143 L 597.8009599999932 133.69344000000274 L 603.6275199999945 136.46848000000318 L 609.6179200000042 139.32544000000053 L 613.8060799999948 141.35295999999653 L 615.2601600000053 142.3052800000005 L 616.0691200000001 143.00160000000324 L 617.1238400000002 144.14848000000347 L 617.6563199999946 144.96768000000156 L 618.0351999999984 145.72544000000198 L 618.5779199999961 147.3740800000014 L 619.0387199999968 148.9305600000007 L 619.3151999999973 149.83168000000296 L 619.7350399999996 150.8249599999981 L 620.2265599999955 151.65439999999944 L 620.7590400000045 152.36095999999816 L 621.7830399999948 153.39519999999902 L 622.6534399999946 154.09152000000176 L 623.6159999999945 154.70592000000033 L 625.5103999999992 155.62752000000182 L 627.732480000006 156.38528000000224 L 632.4019200000039 157.94176000000152 L 635.2691199999972 158.9248000000007 L 636.8051200000045 159.66208000000188 L 638.0646399999969 160.4505599999975 L 639.0579200000066 161.24928000000364 L 639.9590400000016 162.20160000000033 L 641.9251199999999 165.0790399999969 L 644.9664000000048 169.71775999999954 L 649.7689600000012 176.86527999999817 L 652.1446399999986 179.76320000000123 L 654.9094400000031 182.76352000000043 L 660.6643199999962 188.93824000000313 L 661.0227199999936 189.4502399999983 L 661.360639999999 190.1056000000026 L 661.5449599999993 190.77120000000286 L 661.6064000000042 191.45728000000236 L 661.5244799999928 192.22527999999875 L 661.1968000000052 193.1059200000018 L 660.8281600000046 193.69984000000113 L 659.9577600000048 194.71360000000277 L 657.8278399999981 197.14048000000184 L 655.0118400000065 200.3353599999973 L 654.1209600000002 201.3900799999974 L 653.7523199999996 202.03519999999844 L 653.5065599999944 202.86463999999978 L 653.5270400000009 203.9398399999991 L 653.7113600000012 204.55423999999766 L 654.4383999999991 205.78304000000207 L 656.2508800000069 208.44544000000315 L 656.834560000003 209.48991999999998 L 656.9881599999935 210.0633600000001 L 657.0291200000065 210.87232000000222 L 656.7219199999963 211.98847999999998 L 656.0665600000066 212.96128000000317 L 655.400959999999 213.5859199999977 L 652.9228799999983 215.0604800000001 L 650.7724799999996 216.27904000000126 L 648.7449599999964 217.43615999999747 L 647.3215999999957 218.35775999999896 L 645.7856000000029 219.53536000000167 L 644.6387200000026 220.5491200000033 L 644.0448000000033 221.14304000000266 L 642.8979200000031 222.44352000000072 L 641.7100800000044 224.04095999999845 L 640.9625599999999 225.30047999999806 L 640.2457600000052 226.82624000000214 L 639.2832000000053 229.8367999999973 L 638.218240000002 233.5436800000025 L 634.8697600000014 245.08415999999852 L 634.3680000000022 246.20032000000356 L 633.9481599999999 246.89663999999902 L 633.0777600000001 248.0332800000033 L 632.1971199999971 248.94464000000153 L 628.7872000000061 251.84255999999732 L 626.9132799999934 253.42975999999908 L 625.8687999999966 254.4537599999967 L 625.1622400000051 255.3651200000022 L 624.7321599999996 256.1024000000034 L 624.1791999999987 257.5564799999993 L 623.9948799999984 259.06175999999687 L 624.0563200000033 259.96287999999913 L 624.1894400000019 260.6182400000034 L 624.4761600000056 261.47839999999997 L 624.9471999999951 262.46143999999913 L 627.5276799999992 267.29471999999805 L 628.7462399999931 269.5987200000018 L 629.2480000000069 271.0937600000034 L 629.360639999999 271.97439999999915 L 629.360639999999 272.65024000000267 L 629.1763199999987 273.8585600000006 L 628.6745599999995 275.1897600000011 L 627.9475200000015 276.3571200000006 L 626.8211199999932 277.59616000000096 L 625.5411199999944 278.6099200000026 L 623.7593599999964 279.62367999999697 L 622.2438399999955 280.22783999999956 L 620.677119999993 280.67839999999705 L 618.9158400000015 280.9958400000032 L 616.8473599999998 281.14944000000105 L 614.2771199999988 281.1187199999986 L 613.3657600000006 281.1289600000018 L 612.1369600000035 281.2723199999964 L 610.8876799999998 281.58976000000257 L 609.8739199999982 281.98911999999837 L 608.9830400000064 282.4806400000016 L 608.2150399999955 283.07456000000093 L 607.590400000001 283.72991999999795 L 607.0886400000018 284.4467199999999 L 605.9929600000032 286.09535999999935 L 604.8767999999982 287.77472000000125 L 603.648000000001 289.6281600000002 L 603.1052800000034 290.4473599999983 L 602.4704000000056 291.2358400000012 L 601.7331200000044 291.8399999999965 L 600.8729599999933 292.3622400000022 L 599.8899200000014 292.761599999998 L 598.6815999999963 293.0688000000009 L 596.2649600000004 293.2531200000012 L 593.0393599999952 293.4169600000023 L 589.1584000000003 293.61151999999856 L 586.9055999999982 293.85727999999654 L 584.4889600000024 294.40000000000146 L 582.1542400000035 295.2089600000036 L 580.1779200000019 296.19200000000274 L 578.3449600000022 297.4412799999991 L 576.8089599999948 298.885119999999 L 575.6313599999994 300.48255999999674 L 574.8224000000046 302.10048000000097 L 573.8598400000046 304.1791999999987 L 571.883520000003 308.5823999999993 L 571.5353599999944 309.3196800000005 L 570.9823999999935 310.12864000000263 L 570.3065599999973 310.7635200000004 L 569.6102399999945 311.23455999999715 L 567.6953599999979 312.0844799999977 L 565.7292799999996 312.86271999999735 L 561.500159999996 314.5523200000025 L 557.4348800000007 316.20096000000194 L 553.328640000007 318.19776000000275 L 547.4201599999942 321.16735999999946 L 539.7401600000012 325.0175999999992 L 536.084480000005 326.85055999999895 L 534.6303999999946 327.58784000000014 L 533.0022400000016 328.52992000000086 L 531.6505599999946 329.4617599999983 L 530.4832000000024 330.3833599999998 L 529.4591999999975 331.3254400000005 L 528.2508800000069 332.6259199999986 L 526.2336000000068 335.1449599999978 L 524.5747200000042 337.21343999999954 L 519.6697600000043 343.33696000000054 L 517.1302399999986 346.5011200000008 L 516.4134400000039 347.4022400000031 L 515.686400000006 348.4262400000007 L 515.2460799999972 349.5731200000009 L 515.1436799999938 350.4537599999967 L 515.0617599999969 356.03456000000006 L 514.9695999999967 356.7923200000005 L 514.5702400000009 357.71392000000196 L 514.0377600000065 358.3897599999982 L 513.1980800000019 359.0758399999977 L 512.3174399999989 359.5673600000009 L 511.62111999999615 359.85407999999734 L 510.45376000000397 360.3148799999981 L 506.12223999999696 362.03519999999844 L 502.62016000000585 363.4892800000016 L 498.49344000000565 365.47583999999915 L 494.41792000000714 367.37023999999656 L 489.8918399999966 369.1212799999994 L 489.2057599999971 369.44896000000153 L 488.50943999999436 369.9302400000015 L 488.00767999999516 370.4832000000024 L 487.57760000000417 371.3228799999997 L 487.50591999999597 372.10111999999936 L 487.679999999993 372.8179200000013 L 488.2534400000004 373.67807999999786 L 488.9395199999999 374.26176000000123 L 490.75199999999313 375.49055999999837 L 492.82047999999486 376.8831999999966 L 497.8483200000046 380.27264000000287 L 498.7187200000044 380.78463999999803 L 500.0191999999952 381.27616000000125 L 503.13215999999375 382.3104000000021 L 505.5590399999928 383.3139200000005 L 508.49791999999434 384.6348799999978 L 512.6246399999945 386.5497600000017 L 514.2323199999955 387.6556800000035 L 515.5737599999993 388.8844800000006 L 518.2464000000036 391.40351999999984 L 519.0656000000017 392.3148799999981 L 519.7926399999997 393.48223999999755 L 520.622080000001 395.2844800000021 L 521.2979199999972 396.728320000002 L 522.0556800000049 398.34623999999894 L 522.5676799999928 399.4316800000015 L 523.0899199999985 400.34303999999975 L 524.5644800000009 402.1862400000027 L 524.6668800000043 402.4115200000015 L 524.7795199999964 402.60607999999775 L 525.2300799999939 403.47647999999754 L 525.2608000000037 403.742720000002 L 525.1993599999987 404.02943999999843 L 525.0867200000066 404.15232000000105 L 524.6566400000011 404.3059199999989 L 520.1715200000035 404.2956800000029 L 518.6662400000059 404.36735999999655 L 511.35487999999896 406.02623999999923 L 505.75359999999637 407.3164800000013" fill="none"/><path stroke="#408040" stroke-width="3" d="M 463.00160000000324 3.553280000000086 L 462.7046399999963 3.553280000000086 L 462.1516799999954 3.573759999999311 L 462.16191999999864 3.9321599999966566 L 462.18240000000515 4.63872000000265 L 462.2233600000036 5.345280000001367 L 462.325760000007 7.393279999996594 L 462.41792000000714 9.308160000000498 L 462.61247999999614 12.974079999999958 L 462.6534399999946 13.772799999998824 L 462.755839999998 15.380479999999807 L 462.84799999999814 15.800320000002102 L 463.08352000000014 16.240640000003623 L 464.0972800000018 17.71519999999873 L 464.8038399999932 18.759680000002845 L 465.46944000000076 19.711999999999534 L 466.3295999999973 21.022720000000845 L 467.3536000000022 22.53824000000168 L 468.4492800000007 24.09472000000096 L 469.6576000000059 25.91743999999744 L 470.5894399999961 27.217920000002778 L 471.49056000000564 28.559359999999288 L 471.6441599999962 28.692479999997886 L 471.62368000000424 28.71295999999711 L 471.5827200000058 28.743679999999586 L 471.55199999999604 28.835839999999735 L 471.5929599999945 28.917759999996633 L 471.6953599999979 28.979200000001583 L 471.8284799999965 28.989439999997558 L 471.94112000000314 28.94847999999911 L 472.0127999999968 28.876799999998184 L 472.02304000000004 28.835839999999735 L 472.3507200000022 28.76415999999881 L 472.8319999999949 28.71295999999711 L 473.4054400000023 28.68224000000191 L 473.93791999999667 28.62079999999696 L 475.7913600000029 28.364800000003015 L 476.41599999999744 28.313600000001315 L 476.7641600000061 28.32383999999729 L 479.38559999999416 28.753920000002836 L 479.4675200000056 28.76415999999881 L 479.6108799999929 28.73344000000361 L 480.0819199999969 28.825599999996484 L 480.69632000000274 28.927999999999884 L 481.01376000000164 28.989439999997558 L 481.66912000000593 29.11232000000018 L 482.6214400000026 29.28639999999723 L 483.93215999999666 29.521919999999227 L 486.8095999999932 30.044159999997646 L 488.39680000000226 30.30015999999887 L 489.2262400000036 30.392319999999017 L 491.366399999999 30.55616000000009 L 493.52704000000085 30.586880000002566 L 495.34975999999733 30.55616000000009 L 500.1523199999938 30.474240000003192 L 514.5907199999929 30.228479999997944 L 521.8099199999997 30.105600000002596 L 528.7526400000061 29.97247999999672 L 529.674239999993 29.962240000000747 L 531.2307200000068 29.97247999999672 L 533.9545599999983 30.07488000000012 L 537.2108799999987 30.228479999997944 L 543.3241600000038 30.484479999999166 L 545.4848000000056 30.494720000002417 L 547.5635199999961 30.463999999999942 L 549.468160000004 30.433279999997467 L 553.2774400000053 30.382080000003043 L 560.3942399999942 30.269439999996393 L 564.2035199999955 30.054400000000896 L 572.119040000005 29.5833599999969 L 577.7510400000028 29.24543999999878 L 580.5158399999927 29.143040000002657 L 584.3763199999958 29.15327999999863 L 590.5715199999977 29.24543999999878 L 597.2684799999988 29.33759999999893 L 601.1494399999938 29.358079999998154 L 603.6582400000043 29.34784000000218 L 604.8051200000045 29.306879999996454 L 609.4233600000007 29.20448000000033 L 611.5532799999928 29.16352000000188 L 614.7481600000028 29.030400000003283 L 616.9190399999934 28.917759999996633 L 621.0662400000001 28.702720000001136 L 624.7424000000028 28.487679999998363 L 627.4252799999958 28.364800000003015 L 630.1184000000067 28.200960000001942 L 632.5760000000009 28.108800000001793 L 633.8457599999965 28.03712000000087 L 636.4159999999974 27.90400000000227 L 638.7302400000044 27.81184000000212 L 639.9078399999999 27.80159999999887 L 641.0854399999953 27.84255999999732 L 643.2563200000004 27.94496000000072 L 645.4374399999942 28.057600000000093 L 650.5574400000041 28.32383999999729 L 654.8070399999997 28.538880000000063 L 659.496960000004 28.80511999999726 L 660.6643199999962 28.917759999996633 L 661.8009599999932 29.081599999997707 L 663.1014399999985 29.317119999999704 L 664.2176000000036 29.552640000001702 L 666.0915200000018 30.06463999999687 L 668.0678400000033 30.750719999996363 L 671.9180800000031 32.32768000000215 L 675.8092800000013 33.93536000000313 L 679.8335999999981 35.58400000000256 L 681.8099199999997 36.4441599999991 L 682.7519999999931 36.92543999999907 L 683.5200000000041 37.35551999999734 L 685.1584000000003 38.338559999996505 L 686.7865599999932 39.301119999996445 L 687.7491199999931 39.782399999996414 L 688.6195199999929 40.140800000001036 L 689.6435199999978 40.46848000000318 L 690.7391999999963 40.77567999999883 L 693.0739199999953 41.43104000000312 L 695.2550400000036 42.04544000000169 L 696.6272000000026 42.403839999999036 L 697.7535999999964 42.62911999999778 L 698.9209600000031 42.77247999999963 L 700.0883199999953 42.86463999999978 L 701.255680000002 42.96704000000318 L 702.3001599999989 43.10016000000178 L 703.5801599999977 43.356160000003 L 704.5939199999993 43.64287999999942 L 706.5190399999992 44.339200000002165 L 707.389439999999 44.64639999999781 L 708.2393600000069 44.89216000000306 L 709.3248000000021 45.07648000000336 L 710.3283200000005 45.13792000000103 L 711.3215999999957 45.09696000000258 L 712.3148800000054 44.97407999999996 L 714.5881599999993 44.677120000000286 L 715.5814399999945 44.61568000000261 L 716.0934399999969 44.61568000000261 L 716.7590400000045 44.666879999997036 L 717.7113600000012 44.83071999999811 L 718.6534399999946 45.09696000000258 L 719.1142399999953 45.28128000000288 L 720.0460800000001 45.71136000000115 L 721.0188800000033 46.172160000001895 L 722.9542400000064 47.083520000000135 L 723.7939199999964 47.45216000000073 L 724.8281600000046 47.8310399999973 L 725.7497600000061 48.12799999999697 L 726.8556799999933 48.40447999999742 L 728.0947199999937 48.65024000000267 L 729.1187199999986 48.79359999999724 L 731.4431999999942 48.998399999996764 L 733.4297599999991 49.16223999999784 L 735.8873599999934 49.36703999999736 L 736.8703999999998 49.489919999999984 L 737.8534400000062 49.67424000000028 L 740.1881600000052 50.145279999997 L 741.3350400000054 50.268159999999625 L 742.307839999994 50.319360000001325 L 745.113599999997 50.45247999999992 L 747.4278400000039 50.55488000000332 L 752.1894400000019 50.759680000002845 L 757.104640000005 50.97471999999834 L 759.6236800000042 51.097600000000966 L 760.8729599999933 51.19999999999709 L 761.9788799999951 51.39456000000064 L 763.0233600000065 51.711999999999534 L 763.883520000003 52.049919999997655 L 766.156799999997 52.971519999999146 L 768.1638399999938 53.76000000000204 L 770.078720000005 54.425600000002305 L 773.9084799999982 55.736320000003616 L 775.9667199999967 56.44288000000233 L 776.857600000003 56.739840000002005 L 777.9123200000031 57.036800000001676 L 778.8543999999965 57.221120000001974 L 779.8271999999997 57.36447999999655 L 781.9468800000031 57.52831999999762 L 786.0428799999936 57.79456000000209 L 794.6956800000044 58.36800000000221 L 804.8025599999964 59.03360000000248 L 807.4137599999958 59.20767999999953 L 808.8985600000015 59.299839999999676 L 809.9839999999967 59.3203199999989 L 811.1206399999937 59.299839999999676 L 812.4313600000023 59.21792000000278 L 813.7318399999931 59.0847999999969 L 814.8479999999981 58.910719999999856 L 816.4249600000039 58.58303999999771 L 817.500159999996 58.29632000000129 L 819.7222400000028 57.559040000000095 L 821.0636800000066 57.118719999998575 L 822.261759999994 56.80127999999968 L 823.4188799999974 56.57600000000093 L 824.3711999999941 56.45311999999831 L 825.5283199999976 56.36095999999816 L 826.6854400000011 56.340479999998934 L 827.8220799999981 56.39168000000063 L 828.9587199999951 56.51456000000326 L 830.2284800000052 56.739840000002005 L 831.334400000007 56.99584000000323 L 833.4745600000024 57.53856000000087 L 835.4815999999992 58.040320000000065 L 836.5465600000025 58.29632000000129 L 837.5295999999944 58.470399999998335 L 838.8095999999932 58.572800000001735 L 839.8233599999949 58.562559999998484 L 840.796159999998 58.480640000001586 L 841.9225600000063 58.30655999999726 L 844.0217600000033 57.95840000000317 L 844.9945600000065 57.86624000000302 L 846.110719999997 57.84575999999652 L 848.2508800000069 57.87647999999899 L 849.2339199999988 57.89695999999822 L 850.2271999999939 57.86624000000302 L 851.2204800000036 57.78431999999884 L 852.1830400000035 57.651200000000244 L 854.5689600000042 57.262080000000424 L 855.5315200000041 57.1391999999978 L 856.6784000000043 57.088000000003376 L 858.9823999999935 57.169920000000275 L 863.744000000006 57.35424000000057 L 868.5363199999993 57.548799999996845 L 869.7856000000029 57.610240000001795 L 871.1065600000002 57.77408000000287 L 872.1817600000068 58.00959999999759 L 873.4003200000006 58.35775999999896 L 875.3561599999957 58.94144000000233 L 877.619200000001 59.62752000000182 L 879.7491199999931 60.24192000000039 L 880.9881599999935 60.52863999999681 L 881.9199999999983 60.72320000000036 L 883.9782399999967 61.11232000000018 L 885.8521599999949 61.52191999999923 L 887.5315200000041 62.02367999999842 L 889.6614399999962 62.709759999997914 L 890.531839999996 62.90432000000146 L 891.6582400000043 63.04768000000331 L 892.8153599999932 63.068160000002536 L 893.6345600000059 63.006719999997586 L 894.2796800000069 62.91455999999744 L 895.2115199999971 62.69952000000194 L 896.1843200000003 62.43327999999747 L 898.2118400000036 61.89055999999982 L 902.0825599999953 60.825599999996484 L 904.1612800000003 60.17023999999947 L 906.229760000002 59.484159999999974 L 910.2131200000003 58.16320000000269 L 911.4214400000055 57.80479999999807 L 912.4966399999976 57.53856000000087 L 914.5344000000041 57.128960000001825 L 916.4799999999959 56.8729600000006 L 918.415359999999 56.729599999998754 L 922.8390400000062 56.56575999999768 L 927.4265600000072 56.40191999999661 L 928.5836799999961 56.36095999999816 L 929.546239999996 56.38143999999738 L 930.5395200000057 56.45311999999831 L 931.6659199999995 56.606720000003406 L 932.6899200000043 56.8217599999989 L 933.5295999999944 57.0572800000009 L 934.5228800000041 57.40544000000227 L 935.3420800000022 57.76383999999962 L 937.1340800000035 58.572800000001735 L 938.6700799999962 59.25888000000123 L 940.4211199999991 60.03712000000087 L 941.2608000000037 60.405760000001465 L 942.3052800000005 60.753920000002836 L 943.2473599999939 60.94847999999911 L 944.3840000000055 61.08159999999771 L 948.0806400000001 61.14304000000266 L 955.6582400000043 61.21472000000358 L 957.1942399999971 61.24543999999878 L 958.1670400000003 61.29664000000048 L 959.3139200000005 61.38880000000063 L 961.0649600000033 61.6038400000034 L 965.1404800000018 62.136319999997795 L 966.9836800000048 62.37183999999979 L 968.1919999999955 62.55616000000009 L 969.4719999999943 62.81216000000131 L 970.700800000006 63.109120000000985 L 973.4553600000072 63.8668800000014 L 976.6809599999979 64.74751999999717 L 977.9199999999983 65.06496000000334 L 978.3910400000022 65.14688000000024 L 979.0668799999985 65.20831999999791 L 980.2137599999987 65.20831999999791 L 981.6576000000059 65.04447999999684 L 983.2960000000021 64.83967999999732 L 984.5964799999929 64.72703999999794 L 987.3715200000006 64.6041600000026 L 988.4057599999942 64.5529600000009 L 989.4809600000008 64.48127999999997 L 990.3308799999941 64.34816000000137 L 991.098880000005 64.15359999999782 L 993.4233600000007 63.447039999999106 L 994.5907199999929 63.160320000002685 L 995.7273600000044 62.97600000000239 L 996.8435199999949 62.88384000000224 L 997.7548799999931 62.86336000000301 L 998.8300799999997 62.90432000000146 L 1000.0896000000066 63.04768000000331 L 1002.6700799999962 63.42655999999988 L 1004.6668800000043 63.71328000000358 L 1005.5372800000041 63.80543999999645 L 1006.7251200000028 63.8668800000014 L 1007.8310400000046 63.877119999997376 L 1008.834560000003 63.82592000000295 L 1010.124800000005 63.69279999999708 L 1010.9644799999951 63.55967999999848 L 1011.7427199999947 63.40608000000066 L 1012.695040000006 63.18080000000191 L 1013.5859199999977 62.91455999999744 L 1014.6201600000059 62.54591999999684 L 1016.1356800000067 61.88031999999657 L 1017.8969599999982 61.06111999999848 L 1018.6137599999929 60.835839999999735 L 1019.5455999999976 60.64128000000346 L 1020.375039999999 60.55935999999929 L 1020.9075199999934 60.54912000000331 L 1022.0032000000065 60.60031999999774 L 1024.0 60.72055741935037" fill="none"/><path stroke="#408040" stroke-width="3" d="M 358.06586292994325 1024.0 L 359.39328000000387 1022.6892799999987 L 368.0153600000049 1016.5555200000017 L 367.892479999995 1008.3225600000005 L 376.6169599999994 1004.8819199999998 L 382.5459200000041 997.3862399999998 L 399.00160000000324 993.9455999999991 L 410.9721600000048 991.4675199999983 L 424.0998399999953 985.7433600000004 L 434.60607999999775 983.6851200000019 L 439.7670400000061 974.4383999999991 L 443.6889599999995 967.4239999999991 L 448.43008000000555 951.8796799999982 L 454.16448000000673 946.9747199999983 L 459.0489600000001 934.4512000000032 L 471.13215999999375 909.4246399999975 L 477.04064000000653 896.1535999999978 L 487.18847999999707 887.2140799999979 L 500.6848000000027 870.2054399999979 L 506.1529600000067 853.3299199999965 L 516.331520000007 834.744319999998 L 526.1619199999986 820.3673599999966 L 531.691519999993 816.117760000001 L 540.5081599999976 814.3974400000006 L 572.8563200000062 800.716800000002 L 584.8064000000013 795.0336000000025 L 594.0940799999953 785.7868799999997 L 595.1180800000002 775.0758399999977 L 598.8454400000046 767.6006399999969 L 609.7612800000061 751.3497599999973 L 614.1542400000035 744.0076800000024 L 620.1651200000051 740.3007999999973 L 635.5046399999992 740.1267200000002 L 646.1952000000019 738.4371200000023 L 651.9091199999966 730.8595199999982 L 656.2201599999971 721.5411200000017 L 667.5967999999993 715.8271999999997 L 677.7139199999947 713.1545600000027 L 687.3497599999973 703.8975999999966 L 695.9411200000031 693.2684799999988 L 695.848960000003 663.1219199999978 L 696.4633599999943 644.4339200000031 L 696.2995200000005 640.1331199999986 L 700.3238399999973 636.9587200000024 L 701.4604799999943 633.8355200000005 L 701.9008000000031 619.2230399999971 L 701.8496000000014 609.3004799999981 L 702.3616000000038 597.6883200000011 L 703.8054399999965 597.1865600000019 L 700.0371199999936 597.1558399999994 L 689.0495999999985 595.3228799999997 L 679.5776000000042 590.8479999999981 L 671.5596800000058 581.242879999998 L 670.6380800000043 575.0067199999976 L 667.5865599999961 568.5657599999977 L 660.2444799999939 564.6233599999978 L 628.5107200000057 545.9148799999966 L 618.1273599999986 541.2966400000005 L 610.2937600000005 534.6099200000026 L 604.549119999996 529.5206400000025 L 588.2060800000036 521.5436800000025 L 573.5731200000009 514.0582399999985 L 566.0569600000017 509.8496000000014 L 562.5139199999976 504.25856000000203 L 559.1142399999953 497.23391999999876 L 554.0659199999936 492.00127999999677 L 545.4336000000039 490.27072000000044 L 541.9724799999967 485.02784000000247 L 541.5321600000025 472.8217599999989 L 542.4230399999942 453.4374400000015 L 540.5286400000041 444.90752000000066 L 540.7231999999931 428.08320000000094 L 534.6918399999995 414.0748800000001 L 529.8278399999981 408.09472000000096 L 525.7216000000044 403.3843199999974 L 518.8095999999932 404.3468799999973 L 505.75359999999637 407.3164800000013" fill="none"/><path stroke="#408040" stroke-width="3" d="M 435.8407154585002 0.0 L 436.5209599999944 0.25600000000122236 L 447.77472000000125 0.5836800000033691 L 451.9423999999999 3.2870400000028894 L 453.0483200000017 3.819519999997283 L 454.2054400000052 3.819519999997283 L 461.2198400000052 3.5942399999985355 L 463.00160000000324 3.553280000000086" fill="none"/><path stroke="#408040" stroke-width="3" d="M 463.00160000000324 3.553280000000086 L 462.7046399999963 3.553280000000086 L 462.1516799999954 3.573759999999311 L 462.13120000000345 3.2358400000011898 L 462.090240000005 2.508800000003248 L 462.0390400000033 1.4438399999999092 L 461.9878400000016 0.3891199999998207 L 460.60543999999936 0.4095999999990454 L 457.4412799999991 0.49152000000322005 L 455.5366400000057 0.5120000000024447 L 453.8364135849115 0.0" fill="none"/><path stroke="#408040" stroke-width="3" d="M 1024.0 710.4907174133914 L 1021.3888000000006 710.5228799999968 L 999.1577600000019 710.3897599999982 L 989.9724799999967 710.4204800000007 L 985.395199999999 710.3385599999965 L 982.2719999999972 709.8470400000006 L 979.8860799999966 709.1200000000026 L 977.715200000006 708.1471999999994 L 975.6467200000043 706.8159999999989 L 972.1753599999938 703.7030400000003 L 966.2156799999939 698.3065599999973 L 964.5158399999927 697.0982399999994 L 962.2016000000003 695.8796799999982 L 958.3104000000021 694.5382400000017 L 955.5558400000009 693.831680000003 L 950.9785600000032 692.6233599999978 L 947.2307200000068 691.3126399999965 L 940.267519999994 688.1382400000002 L 937.3388799999957 687.3804799999998 L 934.9939199999935 687.1449599999978 L 929.9660799999983 686.8377600000022 L 909.2812799999956 685.5065600000016 L 903.485440000004 684.8511999999973 L 899.5123199999944 683.7862400000013 L 895.2115199999971 681.8918399999966 L 891.412479999999 679.7823999999964 L 887.551999999996 677.9392000000007 L 885.104640000005 677.3964800000031 L 882.360320000007 677.2736000000004 L 877.4655999999959 677.3043200000029 L 872.4172799999942 677.3452800000014 L 862.2284800000052 677.2940799999997 L 856.02304 676.351999999999 L 852.3059199999989 675.2972799999989 L 849.735679999998 674.324480000003 L 845.6294400000043 672.235520000002 L 842.3116799999989 669.98272 L 838.6662400000059 667.412479999999 L 835.0105599999952 665.0368000000017 L 830.6687999999995 663.2857599999988 L 826.357759999999 661.7497599999988 L 822.1081600000034 659.752959999998 L 817.8995200000063 656.9472000000023 L 810.8134399999981 650.5779200000034 L 804.7308800000028 644.6080000000002 L 799.5801599999977 639.0169600000008 L 796.8563200000062 636.0780799999993 L 793.9072000000015 633.384960000003 L 780.718080000006 624.4966399999976 L 775.6902399999963 621.2403199999972 L 772.6387200000026 620.1958400000003 L 768.7884800000029 619.7452800000028 L 765.0304000000033 619.0182399999976 L 760.6988799999963 617.3183999999965 L 756.654079999993 615.3830400000006 L 752.1587200000067 613.6012800000026 L 747.6940800000011 612.5363199999993 L 738.2937600000005 610.5190399999992 L 736.061440000005 609.843200000003 L 733.921279999995 608.8499200000006 L 732.0780800000066 607.6006399999969 L 729.651199999993 605.1840000000011 L 728.6476799999946 604.2316799999971 L 727.1321599999937 603.2281599999988 L 724.7564799999964 602.2758400000021 L 704.2457600000052 597.9238400000031 L 691.2921599999972 595.9577599999975 L 687.697920000006 594.8211200000005 L 681.0009600000049 591.6876800000027 L 678.5638400000025 590.1312000000034 L 677.3452799999941 589.0764800000034 L 675.8297599999933 587.3356799999965 L 671.8566399999982 581.6831999999995 L 670.8428799999965 579.870719999999 L 670.4947200000024 577.5769599999985 L 670.6687999999995 574.4435200000007 L 670.4640000000072 572.7027200000011 L 669.7676800000045 571.0233599999992 L 668.6822399999946 569.5999999999985 L 667.1257599999954 568.2176000000036 L 665.4054400000023 567.203840000002 L 661.7087999999931 565.360639999999 L 656.4249600000039 562.7187199999971 L 652.1139200000034 560.1996799999979 L 649.2774400000053 558.2131200000003 L 641.4438400000072 552.6732800000027 L 637.0918399999937 549.6934400000027 L 634.0300799999968 548.1574400000027 L 620.0422399999952 542.4025600000023 L 617.267200000002 540.6924799999979 L 612.6694399999978 536.7091199999995 L 608.3379200000054 532.869120000003 L 605.6447999999946 530.4832000000024 L 602.4089600000007 527.6979199999987 L 598.8454400000046 525.5679999999993 L 590.0595199999952 522.229760000002 L 581.6217599999945 519.1168000000034 L 577.8124799999932 517.242879999998 L 574.7404799999931 514.9388800000015 L 571.1872000000003 512.5734400000001 L 567.3676799999957 510.6790400000027 L 565.5142400000041 509.40927999999985 L 564.2649600000004 508.09855999999854 L 563.4048000000039 506.64448000000266 L 562.8313599999965 505.1187199999986 L 561.6230400000059 501.8214399999997 L 559.9539199999999 498.4422399999967 L 557.8444799999997 495.4112000000023 L 556.8512000000046 493.99807999999757 L 555.345920000007 492.66687999999704 L 553.4924800000008 491.78624000000127 L 551.3318399999989 491.3049600000013 L 547.0207999999984 490.8134399999981 L 545.0342399999936 490.0761599999969 L 543.3855999999942 488.867839999999 L 542.4332799999975 487.4649599999975 L 542.1158399999986 486.133759999997 L 541.726720000006 483.1334399999978 L 541.276159999994 479.67231999999785 L 541.0406400000065 476.95872000000236 L 541.3888000000006 473.91743999999744 L 542.1158399999986 467.99872000000323 L 542.5151999999944 454.4921600000016 L 542.3206400000054 452.85375999999815 L 541.511679999996 450.50880000000325 L 540.7436799999996 448.46080000000075 L 540.4467200000072 446.4742400000032 L 540.8870400000014 437.96480000000156 L 540.8870400000014 429.15840000000026 L 540.5900799999945 427.4688000000024 L 539.668479999993 424.6835199999987 L 538.1939200000052 420.4646399999983 L 536.9856 417.3926399999982 L 535.2652800000069 414.77120000000286 L 530.5036799999943 409.01632000000245 L 527.0425600000017 403.8758400000006 L 526.090240000005 403.4355199999991 L 525.4348800000007 403.3843199999974 L 521.9225600000063 404.20352000000275 L 519.270399999994 404.2956800000029 L 516.6079999999929 404.8179200000013 L 507.8937600000063 406.8249599999981 L 505.75359999999637 407.3164800000013" fill="none"/><path stroke="#408040" stroke-width="3" d="M 0.0 110.41763506086863 L 5.027839999995194 113.04959999999846 L 7.383040000000619 113.53087999999843 L 12.564480000000913 113.89951999999903 L 13.301760000002105 114.68800000000192 L 12.83071999999811 115.92704000000231 L 13.107199999998556 117.19679999999789 L 17.704960000002757 119.4803200000024 L 21.07391999999527 125.4502399999983 L 23.265280000006896 127.18080000000191 L 29.583360000004177 131.9423999999999 L 39.93600000000151 135.51615999999922 L 43.407359999997425 137.40032000000065 L 47.66719999999623 143.12447999999858 L 48.33280000000377 145.0598400000017 L 47.902719999998226 148.68480000000272 L 50.94400000000314 153.4566399999967 L 51.98847999999998 157.78815999999642 L 57.63072000000102 164.2598399999988 L 69.78560000000289 179.7734399999972 L 71.78239999999641 183.38816000000224 L 76.46207999999751 187.5558400000009 L 77.10719999999856 190.0031999999992 L 78.24383999999554 191.45728000000236 L 81.8790399999998 195.5225599999976 L 97.78175999999803 204.10368000000017 L 121.87648000000627 210.13504000000103 L 130.80576000000292 214.38463999999658 L 135.81312000000617 218.1836800000019 L 136.86784000000625 219.91423999999824 L 137.43103999999585 222.07488000000012 L 139.26399999999558 224.53248000000167 L 146.9542400000064 229.6012800000026 L 151.5827200000058 232.5196799999976 L 157.72672000000603 234.7520000000004 L 168.4172799999942 237.90591999999742 L 176.30207999999402 241.1110400000034 L 176.68095999999787 242.53439999999682 L 175.09376000000339 244.01920000000246 L 174.4383999999991 245.4323199999999 L 174.99136 246.76352000000043 L 181.59616000000096 249.9788800000024 L 186.54207999999926 253.49119999999675 L 196.9459199999983 256.19456000000355 L 207.50336000000243 257.5769599999985 L 219.3203199999989 257.6793600000019 L 223.4470399999991 257.27999999999884 L 230.23616000000038 258.01728 L 243.72224000000278 260.8640000000014 L 310.8556799999933 279.3983999999982 L 316.5081599999976 281.395199999999 L 322.4678399999975 285.1942399999971 L 338.67776000000595 294.6252800000002 L 349.7779199999932 305.8278399999981 L 353.14688000000024 310.1081600000034 L 355.2563200000004 313.67167999999947 L 354.9695999999967 319.3958399999974 L 356.00384000000486 323.16416000000027 L 357.8880000000063 325.47839999999997 L 362.11711999999534 328.4377600000007 L 384.3379200000054 343.3983999999982 L 388.2086399999971 347.12576000000263 L 390.8300799999997 351.2320000000036 L 396.8512000000046 354.79551999999967 L 400.88576000000467 358.0518400000001 L 417.5359999999928 371.84511999999813 L 424.4889600000024 377.8457599999965 L 431.4419199999975 380.8153600000005 L 436.0191999999952 382.80191999999806 L 441.456640000004 385.91487999999663 L 445.9929600000032 386.8876799999998 L 451.58400000000256 385.7100799999971 L 461.2812799999956 385.6895999999979 L 470.59967999999935 386.64192000000185 L 476.67200000000594 386.0684800000017 L 481.78175999999803 384.5529600000009 L 486.543359999996 383.1603200000027 L 491.3254400000005 382.90432000000146 L 498.1145600000018 383.25248000000283 L 499.60959999999614 383.60063999999693 L 499.81440000000293 386.8159999999989 L 499.7836799999932 394.00448000000324 L 501.01248000000487 397.4963199999984 L 502.476800000004 400.49663999999757 L 505.75359999999637 407.3164800000013" fill="none"/></svg>