<svg xmlns="http://www.w3.org/2000/svg" width="1024" height="1024"><rect stroke="none" x="0" y="0" width="1024" height="1024" fill="white"/><path stroke="#000000" stroke-width="2" d="M 0.0 138.9500635363147 L 0.9218754560570233 138.7382814719458 L 5.125000192027073 138.94531276792986 L 8.812499968043994 139.35546879994217 L 11.984374784049578 138.12499967997428 L 15.570312192023266 136.69140582391992 L 17.820312576019205 134.84765593596967 L 18.124999680032488 131.05859379196772 L 16.796874752035365 126.96484351996332 L 16.59379302401794 123.27702220797073 L 16.89843712002039 121.02343782392563 L 18.234375168045517 119.07812454394298 L 19.56250009604264 117.13281228794949 L 20.890625024039764 114.36718796793139 L 22.328125440049917 111.50000025593909 L 24.273437696043402 107.60937471996294 L 23.960937472060323 103.51562547194771 L 23.96874956804095 100.33984409592813 L 22.94531276804628 96.24218726396793 L 21.507812352036126 92.96484351996332 L 19.867187200055923 90.40625049592927 L 19.96874956804095 87.43750041595194 L 22.6328125440632 86.61718732793815 L 26.01562521600863 85.69531289592851 L 28.468750336032826 85.59374950395431 L 32.77343744004611 85.39062476792606 L 36.765625344007276 84.87890636792872 L 39.11718707205728 83.5468748799176 L 40.14062489604112 79.44921907194657 L 40.75781222403748 76.27343769592699 L 41.679687680036295 73.61328127991874 L 40.75781222403748 70.54296883195639 L 39.015624704014044 68.80078131193295 L 35.2265625600121 67.77734348794911 L 32.25781248003477 65.32031283195829 L 31.74999961606227 61.53124966396717 L 33.59374950401252 58.76562534394907 L 36.46093721606303 57.02343782392563 L 38.406250496045686 53.644531711936 L 38.91406233602902 50.06249983992893 L 39.835937792027835 47.910156287951395 L 39.93750016001286 45.5546879999456 L 36.968750080035534 44.73437491193181 L 33.59374950401252 44.53125017596176 L 30.10937548801303 44.019530751917046 L 26.421874688006938 43.71093708794797 L 23.45312460802961 42.6875002879533 L 21.914062848023605 39.30859417596366 L 23.65625036804704 36.03125043195905 L 26.52343705605017 33.78125004796311 L 28.88281292805914 32.65234329592204 L 32.15625011204975 32.34765619196696 L 35.33593702403596 31.527344127942342 L 39.11718707205728 29.683594239933882 L 42.906250240048394 28.558594047965016 L 44.953124864026904 26.097655807971023 L 45.67187456000829 22.617187327938154 L 46.906250240048394 20.367187967931386 L 48.5390622720588 18.214843391964678 L 50.58593792002648 16.574218239926267 L 52.74218700802885 15.859375103958882 L 55.60937472002115 15.960937471943907 L 60.00781209603883 16.16796876792796 L 63.59374950401252 14.937499647960067 L 65.84374988800846 12.171875327941962 L 65.43750041601015 8.898437119962182 L 64.00000000005821 6.847655935969669 L 62.46875033603283 4.800781311932951 L 61.031249920022674 2.6484377599554136 L 59.289062400057446 0.8085934079717845 L 58.66446625626122 0.0" fill="none"/><path stroke="#000000" stroke-width="2" d="M 58.66446625637764 0.0 L 59.289062400057446 0.8085934078553692 L 61.03124992013909 2.648437759897206 L 62.46875033603283 4.800781311932951 L 64.00000000011642 6.847655935853254 L 65.43750041601015 8.89843712002039 L 65.84374988806667 12.171875327883754 L 63.59374950407073 14.937499648018274 L 60.00781209603883 16.16796876792796 L 55.60937472002115 15.960937471827492 L 52.742187008145265 15.859375103958882 L 50.58593792002648 16.574218239926267 L 48.5390622720588 18.214843391848262 L 46.906250240048394 20.367187967931386 L 45.6718745600665 22.617187327938154 L 44.95312486414332 26.097655807912815 L 42.906250240048394 28.558594047965016 L 39.11718707205728 29.683594239817467 L 35.33593702403596 31.527344127825927 L 32.15625011204975 32.34765619185055 L 28.88281292805914 32.65234329580562 L 26.52343705605017 33.781250047904905 L 23.656250368105248 36.03125043195905 L 21.914062848023605 39.30859417584725 L 23.45312460802961 42.6875002879533 L 26.421874688006938 43.71093708783155 L 30.109375488071237 44.01953075180063 L 33.59374950407073 44.53125017596176 L 36.96875008009374 44.7343749118736 L 39.93750016007107 45.5546879999456 L 39.835937792027835 47.91015628783498 L 38.914062336145435 50.062499839870725 L 38.406250496045686 53.644531711936 L 36.46093721606303 57.02343782380922 L 33.59374950407073 58.76562534383265 L 31.749999616120476 61.531249663908966 L 32.25781248003477 65.32031283190008 L 35.2265625600121 67.7773434878327 L 39.015624704014044 68.80078131187474 L 40.75781222409569 70.54296883183997 L 41.679687680036295 73.61328127980232 L 40.75781222409569 76.27343769586878 L 40.14062489604112 79.44921907188836 L 39.11718707205728 83.54687487980118 L 36.765625344007276 84.87890636792872 L 32.77343744004611 85.39062476780964 L 28.468750336032826 85.5937495038961 L 26.015625216125045 85.6953128958121 L 22.6328125440632 86.61718732787995 L 19.96874956804095 87.43750041583553 L 19.86718720017234 90.40625049587106 L 21.507812352036126 92.96484351984691 L 22.94531276804628 96.24218726390973 L 23.96874956804095 100.33984409586992 L 23.96093747211853 103.5156254718895 L 24.273437696043402 107.60937471990474 L 22.328125440049917 111.50000025599729 L 20.89062502409797 114.36718796781497 L 19.562500096159056 117.13281228789128 L 18.234375168045517 119.07812454400118 L 16.89843712002039 121.02343782398384 L 16.59379302401794 123.27702220797073 L 16.796874752093572 126.96484351990512 L 18.124999680090696 131.05859379196772 L 17.820312576077413 134.84765593591146 L 15.570312192081474 136.69140582391992 L 11.984374784049578 138.12499967997428 L 8.812499968102202 139.35546879988397 L 5.125000192027073 138.94531276787166 L 0.9218754560570233 138.7382814719458 L 0.0 138.95006353632198" fill="none"/></svg>