<svg xmlns="http://www.w3.org/2000/svg" width="1024" height="1024"><rect stroke="none" x="0" y="0" width="1024" height="1024" fill="white"/><path stroke="#000000" stroke-width="2" d="M 438.14427494189295 0.0 L 438.2734376960434 0.08984371193218976 L 455.6796876800363 12.480468991969246 L 464.078125056054 18.62500044796616 L 471.0390620160615 23.53906278393697 L 486.4062504960457 34.5976565759629 L 510.97656217601616 52.21093785593985 L 516.1015623680432 56.207031295925844 L 525.7265623040148 63.06640588794835 L 537.2968744960381 71.4609377279412 L 542.109375488013 74.94531276792986 L 551.3281249280553 81.60156262392411 L 562.4843745280523 89.69140633597272 L 574.3671879680478 98.18749951996142 L 578.8671877120505 101.46484326396603 L 585.6249999360298 106.27734425594099 L 607.648437248019 122.15234355191933 L 610.3046871040133 124.09765580797102 L 615.8359377920278 128.0898437119322 L 638.9765621760162 144.6796871679253 L 642.460937216063 147.44531251193257 L 664.9921873920248 163.62109337595757 L 683.4218752000597 176.93359411193524 L 688.5390622720588 180.51953151996713 L 697.554688000062 186.96875007991912 L 714.9609379840549 199.4609377279412 L 720.179687424039 203.24999987194315 L 732.0624998400453 211.85156300792005 L 738.5156249600113 216.46093721594661 L 747.5234375680448 222.9140623359708 L 754.7968747520354 228.13281279994408 L 761.2421877760207 232.74218700797064 L 766.9765621760162 236.94140620797407 L 773.6328120320104 241.75390617595986 L 788.7890626560547 252.81249996792758 L 793.195312128053 256.0898437119322 L 805.3828126720618 264.6914058239199 L 818.078125056054 273.9062497279374 L 826.8828129280591 280.3593748479616 L 834.6640629760223 285.99218790396117 L 846.0312504320173 294.2851563519216 L 855.656250368047 301.24999987194315 L 869.6874997760169 311.28515583992703 L 882.4843745280523 320.6015621119295 L 892.5234370560502 327.8710937599535 L 895.0859376640292 329.71484364796197 L 914.1249996800325 343.43750041595194 L 919.656250368047 347.42968729592394 L 924.3671879680478 350.8085934079718 L 939.1171870720573 361.4609377279412 L 951.0937497600098 369.9570309119299 L 955.0859376640292 372.92968755192123 L 958.4687503360328 375.28515583992703 L 962.6640629760223 378.3554682879476 L 968.0937502720626 382.24609382392373 L 970.5546874880092 384.0898437119322 L 973.1093749760184 386.0351559679257 L 983.2499998720596 393.921874943946 L 991.335937024036 399.8593751039589 L 1000.0390625280561 406.20703129592584 L 1011.2031252480228 414.29687500797445 L 1016.4296878080349 417.98437478393316 L 1023.0859376640292 422.4882810879499 L 1024.0 423.161973928487" fill="none"/><path stroke="#000000" stroke-width="2" d="M 1024.0 423.1619739284288 L 1023.0859376640874 422.4882810879499 L 1016.4296878080349 417.98437478387496 L 1011.2031252480228 414.29687500797445 L 1000.0390625281143 406.20703129580943 L 991.335937024036 399.85937510384247 L 983.2499998721178 393.9218749438878 L 973.1093749760184 386.03515596780926 L 970.5546874880092 384.0898437119322 L 968.0937502721208 382.2460938238655 L 962.6640629760223 378.3554682878312 L 958.468750336091 375.28515583992703 L 955.0859376640292 372.929687551863 L 951.093749760068 369.9570309119299 L 939.1171870721155 361.4609377279994 L 924.3671879680478 350.8085934079136 L 919.656250368047 347.4296872958075 L 914.1249996800325 343.43750041583553 L 895.0859376640874 329.7148436480202 L 892.5234370560502 327.8710937599535 L 882.4843745280523 320.6015621118713 L 869.6874997760169 311.2851558398106 L 855.6562503681052 301.24999987194315 L 846.0312504320173 294.2851563518634 L 834.6640629760805 285.99218790396117 L 826.8828129280591 280.3593748479616 L 818.078125056054 273.9062497278792 L 805.3828126720618 264.6914058238617 L 793.1953121281113 256.089843711874 L 788.7890626560547 252.81249996781116 L 773.6328120320104 241.75390617595986 L 766.9765621760744 236.94140620785765 L 761.2421877760789 232.74218700802885 L 754.7968747520354 228.13281279988587 L 747.5234375680448 222.9140623359126 L 738.5156249600695 216.4609372158302 L 732.0624998401036 211.85156300792005 L 720.1796874240972 203.24999987182673 L 714.9609379841131 199.460937727883 L 697.554688000062 186.9687500798609 L 688.539062272117 180.51953152002534 L 683.4218752000597 176.93359411181882 L 664.9921873920248 163.62109337601578 L 642.460937216063 147.44531251193257 L 638.9765621760162 144.6796871679253 L 615.8359377920278 128.0898437119904 L 610.3046871040133 124.09765580791282 L 607.6484372480772 122.15234355180291 L 585.624999936088 106.27734425588278 L 578.8671877121087 101.46484326390782 L 574.3671879680478 98.187499519845 L 562.4843745281105 89.69140633591451 L 551.3281249280553 81.60156262392411 L 542.109375488013 74.94531276781345 L 537.2968744960963 71.46093772782478 L 525.7265623040148 63.066405887831934 L 516.1015623680432 56.20703129580943 L 510.97656217601616 52.21093785593985 L 486.4062504960457 34.597656575846486 L 471.0390620160615 23.539062783995178 L 464.0781250561122 18.625000447849743 L 455.6796876800363 12.480468991911039 L 438.2734376960434 0.08984371193218976 L 438.14427494189295 0.0" fill="none"/></svg>