<svg xmlns="http://www.w3.org/2000/svg" width="1024" height="1024"><rect stroke="none" x="0" y="0" width="1024" height="1024" fill="white"/><path stroke="#000000" stroke-width="2" d="M 970.3435859110905 1024.0 L 970.3437496320112 1023.9882813439472 L 970.5468753920286 1016.4101560319541 L 970.3437496320112 1008.3203123199637 L 970.4453120000544 1002.6875002879533 L 970.5546874880092 995.2148439039593 L 970.5468753920286 989.6835942399339 L 970.7578122240375 956.6093752319575 L 970.9609379840549 938.1757808639668 L 971.0625003520399 923.5312496639672 L 971.164062720025 910.1171875839354 L 971.164062720025 902.1328127999441 L 971.26562508801 895.3749995519174 L 971.26562508801 878.0664063999429 L 971.3671874560532 867.4179686399293 L 971.476562944008 832.9101557759568 L 971.4687498240382 827.2773437439464 L 971.4687498240382 813.2499998719431 L 971.5781253120513 789.082031103957 L 971.5781253120513 783.8593751039589 L 971.5703121920233 781.0937497599516 L 971.5781253120513 778.023437311931 L 971.6796876800363 767.9882813439472 L 971.7812500480213 730.5078128639725 L 971.8828124160646 709.3124997119303 L 971.8828124160646 685.2499998719431 L 971.9843747840496 668.2500003839377 L 971.9843563520117 648.4867491839686 L 971.8828124160646 639.9882813439472 L 971.7812500480213 617.4609377279412 L 971.7812500480213 612.2382817279431 L 971.6796876800363 593.6015626239241 L 971.5781253120513 562.8789063679287 L 971.5781253120513 551.0000005119364 L 971.4687498240382 526.7343749119318 L 969.3209026560071 514.4446044159704 L 971.3671874560532 511.98828134394716 L 971.3671874560532 472.0507811839343 L 971.4687498240382 459.66015590395546 L 971.4722816000576 457.29935155191924 L 971.4722816000576 451.74474854394794 L 971.4687498240382 449.52343756792834 L 971.4687498240382 434.47265587194124 L 971.476562944008 421.2617185279378 L 971.476562944008 417.57421875192085 L 971.4687498240382 406.8242186239222 L 971.476562944008 402.52343705593375 L 971.4687498240382 396.17187532794196 L 971.4687498240382 392.4882810879499 L 971.476562944008 383.47656294394983 L 971.5781253120513 364.6328125439468 L 971.5703121920233 354.80468787194695 L 971.5781263360404 347.73794815992005 L 971.7812500480213 295.61718783993274 L 971.8828124160646 280.15234355191933 L 971.8828124160646 255.57812531193485 L 971.9843747840496 238.88671846396755 L 971.9843747840496 204.99218739196658 L 972.0859371520346 195.46874982392183 L 972.0859371520346 145.80468735995237 L 972.1874995200196 140.07031295995694 L 972.1874995200196 119.48828159994446 L 972.0859371520346 102.48828108794987 L 972.0859371520346 68.5937500159489 L 971.9843747840496 60.40234393597348 L 971.9843747840496 43.19921868795063 L 971.8828124160646 32.34765619196696 L 971.8828124160646 28.558594047965016 L 971.7812500480213 6.02734387194505 L 971.7812500480213 0.0" fill="none"/><path stroke="#000000" stroke-width="2" d="M 971.7812500480213 0.0 L 971.7812500480213 6.02734387194505 L 971.8828124160646 28.558594047965016 L 971.8828124160646 32.34765619196696 L 971.9843747840496 43.19921868795063 L 971.9843747840496 60.40234393597348 L 972.0859371520346 68.5937500159489 L 972.0859371520346 102.48828108794987 L 972.1874995200196 119.48828159994446 L 972.1874995200196 140.07031295995694 L 972.0859371520346 145.80468735995237 L 972.0859371520346 195.46874982392183 L 971.9843747840496 204.99218739196658 L 971.9843747840496 238.88671846396755 L 971.8828124160646 255.57812531193485 L 971.8828124160646 280.15234355191933 L 971.7812500480213 295.61718783993274 L 971.5781263360404 347.73794815992005 L 971.5703121920233 354.80468787194695 L 971.5781253120513 364.6328125439468 L 971.476562944008 383.47656294394983 L 971.4687498240382 392.4882810879499 L 971.4687498240382 396.17187532794196 L 971.476562944008 402.52343705593375 L 971.4687498240382 406.8242186239222 L 971.476562944008 417.57421875192085 L 971.476562944008 421.2617185279378 L 971.4687498240382 434.47265587194124 L 971.4687498240382 449.52343756792834 L 971.4722816000576 451.74474854394794 L 971.4722816000576 457.29935155191924 L 971.4687498240382 459.66015590395546 L 971.3671874560532 472.0507811839343 L 971.3671874560532 511.98828134394716 L 969.3209026560071 514.4446044159704 L 971.4687498240382 526.7343749119318 L 971.5781253120513 551.0000005119364 L 971.5781253120513 562.8789063679287 L 971.6796876800363 593.6015626239241 L 971.7812500480213 612.2382817279431 L 971.7812500480213 617.4609377279412 L 971.8828124160646 639.9882813439472 L 971.9843563520117 648.4867491839686 L 971.9843747840496 668.2500003839377 L 971.8828124160646 685.2499998719431 L 971.8828124160646 709.3124997119303 L 971.7812500480213 730.5078128639725 L 971.6796876800363 767.9882813439472 L 971.5781253120513 778.023437311931 L 971.5703121920233 781.0937497599516 L 971.5781253120513 783.8593751039589 L 971.5781253120513 789.082031103957 L 971.4687498240382 813.2499998719431 L 971.4687498240382 827.2773437439464 L 971.476562944008 832.9101557759568 L 971.3671874560532 867.4179686399293 L 971.26562508801 878.0664063999429 L 971.26562508801 895.3749995519174 L 971.164062720025 902.1328127999441 L 971.164062720025 910.1171875839354 L 971.0625003520399 923.5312496639672 L 970.9609379840549 938.1757808639668 L 970.7578122240375 956.6093752319575 L 970.5468753920286 989.6835942399339 L 970.5546874880092 995.2148439039593 L 970.4453120000544 1002.6875002879533 L 970.3437496320112 1008.3203123199637 L 970.5468753920286 1016.4101560319541 L 970.3437496320112 1023.9882813439472 L 970.3435859110905 1024.0" fill="none"/></svg>