<svg xmlns="http://www.w3.org/2000/svg" width="1024" height="1024"><rect stroke="none" x="0" y="0" width="1024" height="1024" fill="white"/><path stroke="#000000" stroke-width="2" d="M 0.0 102.7369932610527 L 2.46093721606303 103.30859417596366 L 4.507812864030711 103.92187494394602 L 6.554687488009222 104.23046860797331 L 8.398437376017682 105.05078169592889 L 10.656249856052455 105.56250009592623 L 13.312499712046701 105.76562483195448 L 16.179687424039003 105.66406246396946 L 20.070312960015144 105.35546879994217 L 23.757812736032065 104.74218700797064 L 27.34375014406396 103.820312575961 L 31.031249920022674 102.89843711996218 L 35.43750041601015 101.77343795192428 L 38.609375232015736 101.05468723195372 L 41.679687680036295 100.64843775995541 L 44.14062489604112 100.85156249592546 L 46.906250240048394 101.26171852793777 L 50.796874752035365 102.18359398393659 L 54.47656243201345 103.30859417596366 L 57.45312460802961 104.33203097595833 L 61.445312512048986 105.97265612793854 L 64.00000000005821 107.30468761594966 L 66.3593748480198 108.63281254394678 L 71.17187481606379 113.03906201594509 L 74.14062489604112 117.644531711936 L 74.5468753920286 121.74218751996523 L 73.93750016001286 125.12109363195486 L 72.812499968044 127.26953164796578 L 70.4531251200242 130.24218726396793 L 67.78906214406015 132.39062527992064 L 64.61718732805457 134.6445311999414 L 62.57031270401785 136.38281215995084 L 59.804687360010576 140.48046899196925 L 58.781249536026735 145.9062497279374 L 60.32031232002191 149.5937495039543 L 62.874999808031134 152.7695308799739 L 65.84374988800846 155.12500019196887 L 72.09375027206261 159.7304688639706 L 75.57812531205127 162.49609420791967 L 78.9531248640269 164.5429688319564 L 82.02343731204746 166.1835939839366 L 84.48437452805229 167.61718783993274 L 91.34375014406396 169.35546879994217 L 96.97656217601616 169.97265612793854 L 100.04687462403672 170.07421849592356 L 104.25000038405415 169.66406246396946 L 108.5468753920286 169.56250009592623 L 112.64062464004382 169.8710937599535 L 117.24999987205956 171.816406015947 L 121.85937510401709 175.19531212793663 L 124.42187468806515 177.85546854394488 L 125.64843724801904 179.80078079993837 L 126.97656217601616 183.17968793597538 L 127.07812454405939 191.16796825593337 L 126.77343744004611 197.41406207997352 L 125.34375014406396 201.1015628799214 L 121.03906201606151 208.47265587194124 L 118.07031296001514 210.92968755192123 L 114.179687424039 212.67187507194467 L 110.28906291205203 213.6953128959285 L 106.09375027206261 214.20703129592584 L 101.89062451204518 214.51562495995313 L 97.69531289604492 214.71874969592318 L 94.10937548801303 214.71874969592318 L 89.5000002560555 214.8242186239222 L 85.81250048003858 214.8242186239222 L 82.94531276804628 214.71874969592318 L 80.39062528003706 214.92578099196544 L 78.13281280006049 215.02734335995046 L 75.98437478404958 215.43750041595194 L 73.83593779202783 215.94921881594928 L 71.37499955203384 217.17968793597538 L 68.60937523201574 219.2265625599539 L 66.46093721606303 222.0937502719462 L 65.84374988800846 225.26562508795178 L 65.9453122560517 227.62109337595757 L 66.46093721606303 230.1835939839366 L 67.89843763201497 232.43359334394336 L 69.84374988800846 234.48437452793587 L 72.49999974406091 236.7382814719458 L 75.16406272002496 238.78515609592432 L 78.5468753920286 240.93359411193524 L 81.51562547206413 242.87890636792872 L 84.28124979202403 244.31250022392487 L 86.83593728003325 245.44140595191857 L 88.67968716804171 246.0546877439483 L 90.62500044802437 246.46484377596062 L 93.90624972805381 246.46484377596062 L 98.7187496960396 245.74609407992102 L 104.03906252805609 244.10937548795482 L 107.82812467205804 242.16406220797217 L 119.19531212805305 235.0976563199656 L 121.45312460802961 234.1757808639668 L 124.62500044802437 233.4609377279412 L 126.87499980803113 233.0507816959289 L 130.97656217601616 232.6406246399274 L 137.11718707205728 234.58593791996827 L 140.18749952001963 238.273437695927 L 142.64843776001362 242.57421823992627 L 143.97656268801074 252.19921919994522 L 142.9531248640269 256.4999997439445 L 140.39062528003706 263.15624959993875 L 133.02343782404205 271.75781273597386 L 127.39062476804247 275.9570309119299 L 121.55468800006201 278.61718732793815 L 118.6875002880115 279.746094079921 L 110.9062502400484 281.6914063359727 L 102.40625049604569 282.5078128639725 L 98.61718732805457 282.097655807971 L 93.90624972805381 281.1796879359754 L 89.60156262404053 279.9492188159493 L 85.4062499840511 278.4140625919681 L 81.71875020803418 276.57031270395964 L 79.67187456000829 275.44531251193257 L 77.21093734406168 274.11328102392145 L 73.6328120320104 272.06249983992893 L 70.76562534406548 270.3242188799195 L 68.30468710401328 268.58203135995427 L 65.84374988800846 266.94531276792986 L 63.18750003201421 265.20312524796464 L 60.421874688065145 263.66796902392525 L 57.554688000062015 262.2343751679291 L 55.093749760009814 261.21093734394526 L 51.92187494406244 260.4921876479639 L 48.74218700802885 260.1874995199614 L 45.98437478404958 260.39062527992064 L 43.62499993602978 261.5156254719477 L 41.37499955203384 262.74609356792644 L 38.812499968043994 264.4882810879499 L 36.35156275203917 266.3281254399335 L 34.00000000005821 269.19531212793663 L 31.437500416010153 272.57812479994027 L 29.804687360010576 276.16015667194733 L 29.492187136027496 280.56249958393164 L 29.804687360010576 284.558594047965 L 30.61718732805457 289.0625003519235 L 32.25781248003477 298.9960939519224 L 32.15625011204975 302.273437695927 L 31.851563008036464 308.51953151996713 L 31.851563008036464 312.4101560319541 L 31.23437465605093 317.01953126396984 L 29.08593766402919 321.3203128319583 L 25.70312499202555 325.0039060479612 L 23.046875136031304 326.9492183039547 L 19.867186176008545 328.5898403839674 L 16.49218764802208 329.816406015947 L 14.234375168045517 330.2265620479593 L 12.085937152034603 330.6367191039608 L 8.710937600058969 330.94531276792986 L 5.429687296040356 331.1484375039581 L 1.2343746560509317 331.24999987194315 L 0.0 331.28630507108755" fill="none"/><path stroke="#000000" stroke-width="2" d="M 0.0 564.0539288250948 L 4.304687104013283 565.0312499199645 L 7.273437184048817 565.9531253759633 L 10.039062528056093 567.078124543943 L 12.804687872063369 568.7187496959232 L 15.570312192023266 570.664062975964 L 19.14843750401633 573.8359377919696 L 21.507812352036126 577.011719167931 L 22.937499648018274 581.5156254719477 L 23.45312460802961 585.3046876159497 L 24.273437696043402 587.4570311679272 L 25.5000002560555 589.5039057919639 L 27.140625408035703 591.5507814399316 L 29.39062476804247 594.1132810239214 L 31.74999961606227 595.0351564799203 L 35.539062784053385 596.980468735972 L 38.812499968043994 598.0039065599558 L 42.499999744060915 599.0273433599505 L 47.210937344061676 600.7695308799739 L 50.796874752035365 603.1250001919689 L 53.76562483201269 606.1953126399312 L 55.093749760009814 609.6757811199641 L 54.58593792002648 614.0820316159516 L 55.39843788801227 619.3046876159497 L 57.24218777602073 622.9882808319526 L 59.39843788801227 625.1406254079193 L 61.74999961606227 626.7773439999437 L 63.79687526402995 627.9062497279374 L 67.89843763201497 629.2343746559345 L 71.07031244802056 629.85156300792 L 74.96093798405491 630.1562501119333 L 78.75000012805685 630.2578124799184 L 83.46093772805762 629.2343746559345 L 86.12499968003249 628.4179691519239 L 89.70312499202555 626.8789063679287 L 92.57031270401785 625.7539061759599 L 96.46093721606303 624.0117186559364 L 100.56249958404806 621.7617182719405 L 103.93750016001286 621.1445309439441 L 107.52343756804476 620.9414062079741 L 110.28906291205203 621.1445309439441 L 113.66406246402767 622.171875327942 L 116.84375040006125 624.0117186559364 L 119.19531212805305 626.7773439999437 L 121.34375014406396 629.9531253759633 L 122.78124953602673 632.8203120639664 L 123.70312499202555 636.1992191999452 L 123.5000002560555 639.9882813439472 L 122.57812480005668 642.6484377599554 L 121.03906201606151 645.1093749759602 L 118.37500006402843 647.6679690239253 L 115.20312524802284 649.4101565439487 L 112.5390622720588 650.8437503999448 L 106.80468787206337 651.8671871999395 L 102.60937523201574 653.4023434239207 L 99.02343782404205 655.5507814399316 L 96.3593748480198 657.292968959955 L 94.41406259202631 659.2382812159485 L 92.78124953602673 661.285155839927 L 91.96093747206032 663.746094079921 L 91.54687488003401 666.6132807679242 L 92.06249984004535 671.4257817599573 L 92.57031270401785 675.2148439039593 L 93.18750003201421 678.1835939839366 L 93.59374950401252 682.8945315839374 L 93.80468736001058 686.4765624319552 L 94.10937548801303 692.5195315199671 L 94.72656281600939 695.9999999999418 L 95.53906278405339 699.0742190079181 L 96.05468774406472 701.7343754239264 L 97.17968793603359 705.3203128319583 L 98.20312473602826 708.0820316159516 L 99.84374988800846 711.5664066559402 L 101.68749977601692 715.6601559039555 L 103.83593779202783 718.4257812479627 L 105.6796876800363 720.9843752959277 L 108.14062489604112 723.5468748799176 L 111.3124997120467 726.5156249599531 L 113.7734379520407 728.664062975964 L 115.60937472002115 730.6132807679242 L 119.19531212805305 733.1718748159474 L 123.60156262404053 735.6289064959274 L 128.51562496001134 737.2656250879518 L 131.89843763201497 738.2929684479604 L 134.65624985605245 739.2148439039593 L 138.75781222403748 740.6484377599554 L 145.51562547206413 743.3085941759637 L 149.4062499840511 744.9492183039547 L 153.0937497600098 746.8945315839374 L 156.46875033603283 748.6328125439468 L 159.9531253760215 750.6835937279393 L 162.7187496960396 752.8320317439502 L 166.812499968044 755.9062497279374 L 169.88281241606455 758.6679685119307 L 172.0390625280561 760.9218754559406 L 174.18749952001963 763.9921879039612 L 176.1328128000605 767.1679682559334 L 177.15624960005516 769.8320312319556 L 177.66406246402767 771.9804692479665 L 178.28124979202403 774.8476559359697 L 178.38281216000905 778.1249996799743 L 177.87500032002572 780.5820313599543 L 177.05468723201193 782.835937279975 L 176.03125043201726 784.9843752959277 L 174.69531238405034 787.1367188479635 L 173.26562508800998 789.285155839927 L 171.21875046403147 791.746094079921 L 169.37499955203384 794.4062504959293 L 168.8593745920225 797.4804684799747 L 170.19531264004763 800.550780927937 L 172.5468753920286 802.906250239932 L 177.46093772805762 806.6953123839339 L 179.8203125760192 808.6406246399274 L 181.96874956804095 809.6640624639695 L 184.3203123200219 810.4843745279359 L 189.03124992002267 811.609374719963 L 192.82031206402462 812.4296878079185 L 196.10156236804323 812.8398438399308 L 200.49999974406091 813.0429685759591 L 206.4453120000544 812.9414062079741 L 210.43749990401557 812.2226565119345 L 214.73437491204822 811.5078123519197 L 219.0390620160615 811.5078123519197 L 222.00781209603883 812.1210941439494 L 224.87499980803113 813.6562503679306 L 227.12500019202707 815.1953121279366 L 228.96875008003553 817.7539061759599 L 234.70312550402014 828.6093752319575 L 242.58593792002648 839.7695313919685 L 253.64843724801904 846.6289059839328 L 264.29687500803266 849.7031249919673 L 269.82812467205804 850.7265628159512 L 283.0390620160615 850.9296875519212 L 292.7656253440655 849.4960936959251 L 300.34374963201117 846.0156252159504 L 311.19531212805305 841.0000005119364 L 320.3125002240413 836.0820316159516 L 327.37499955203384 835.2656250879518 L 339.96874956804095 838.1328127999441 L 344.2734376960434 840.5898434559349 L 347.8593751040171 851.9570309119299 L 345.70312499202555 862.6054686719435 L 357.48437504004687 866.0859371519182 L 368.6406246400438 867.2148439039593 L 372.84375040006125 866.2929684479604 L 385.1328122880659 863.6289064959274 L 393.42187520005973 860.1484369919635 L 400.5937500160653 859.6367185919662 L 407.8593751040171 859.5312496639672 L 413.70312499202555 862.5039063039585 L 417.898437632015 865.2656250879518 L 419.9453122560517 880.2187499519205 L 417.2812503040186 884.8242186239222 L 409.19531212805305 892.4023439359735 L 403.7656248320127 898.8554690559395 L 402.43749990401557 901.7226557439426 L 402.2343751680455 905.0000005119364 L 402.2343751680455 909.4023434239207 L 402.2343751680455 913.6015626239241 L 402.33593753603054 916.5703127039596 L 402.33593753603054 921.0742190079181 L 402.2343751680455 924.66015641595 L 402.2343751680455 939.4062499839347 L 402.1249996800325 942.0664063999429 L 402.1249996800325 945.3437501439475 L 402.2343751680455 948.5195315199671 L 402.1249996800325 952.5117183999391 L 402.1249996800325 957.0195312639698 L 402.2343751680455 960.6015621119295 L 402.1249996800325 964.1874995199614 L 402.1249996800325 973.710937087948 L 401.8203125760192 979.0351564799203 L 402.02343731204746 982.0039065599558 L 401.92187494406244 986.3046871039551 L 402.02343731204746 989.1718748159474 L 401.92187494406244 993.7812500479631 L 401.8203125760192 997.3632808959228 L 401.8203125760192 999.3085941759637 L 401.7187502080342 1003.4062499839347 L 401.7187502080342 1009.2421877759625 L 401.61718784004916 1011.8007807999384 L 401.61718784004916 1017.3320314879529 L 401.51562547206413 1020.4023439359735 L 401.4140620800317 1023.6796876799199 L 401.4218092377996 1024.0" fill="none"/><path stroke="#000000" stroke-width="2" d="M 401.4218092377996 1024.0 L 401.4140620800317 1023.6796876799199 L 401.51562547206413 1020.4023439359735 L 401.61718784004916 1017.3320314879529 L 401.61718784004916 1011.8007807999384 L 401.7187502080342 1009.2421877759625 L 401.7187502080342 1003.4062499839347 L 401.8203125760192 999.3085941759637 L 401.8203125760192 997.3632808959228 L 401.92187494406244 993.7812500479631 L 402.02343731204746 989.1718748159474 L 401.92187494406244 986.3046871039551 L 402.02343731204746 982.0039065599558 L 401.8203125760192 979.0351564799203 L 402.1249996800325 973.710937087948 L 402.1249996800325 964.1874995199614 L 402.2343751680455 960.6015621119295 L 402.1249996800325 957.0195312639698 L 402.1249996800325 952.5117183999391 L 402.2343751680455 948.5195315199671 L 402.1249996800325 945.3437501439475 L 402.1249996800325 942.0664063999429 L 402.2343751680455 939.4062499839347 L 402.2343751680455 924.66015641595 L 402.33593753603054 921.0742190079181 L 402.33593753603054 916.5703127039596 L 402.2343751680455 913.6015626239241 L 402.2343751680455 909.4023434239207 L 402.2343751680455 905.0000005119364 L 402.43749990401557 901.7226557439426 L 403.7656248320127 898.8554690559395 L 409.19531212805305 892.4023439359735 L 417.2812503040186 884.8242186239222 L 419.9453122560517 880.2187499519205 L 417.898437632015 865.2656250879518 L 413.70312499202555 862.5039063039585 L 407.8593751040171 859.5312496639672 L 400.5937500160653 859.6367185919662 L 393.42187520005973 860.1484369919635 L 385.1328122880659 863.6289064959274 L 372.84375040006125 866.2929684479604 L 368.6406246400438 867.2148439039593 L 357.48437504004687 866.0859371519182 L 345.70312499202555 862.6054686719435 L 347.8593751040171 851.9570309119299 L 344.2734376960434 840.5898434559349 L 339.96874956804095 838.1328127999441 L 327.37499955203384 835.2656250879518 L 320.3125002240413 836.0820316159516 L 311.19531212805305 841.0000005119364 L 300.34374963201117 846.0156252159504 L 292.7656253440655 849.4960936959251 L 283.0390620160615 850.9296875519212 L 269.82812467205804 850.7265628159512 L 264.29687500803266 849.7031249919673 L 253.64843724801904 846.6289059839328 L 242.58593792002648 839.7695313919685 L 234.70312550402014 828.6093752319575 L 228.96875008003553 817.7539061759599 L 227.12500019202707 815.1953121279366 L 224.87499980803113 813.6562503679306 L 222.00781209603883 812.1210941439494 L 219.0390620160615 811.5078123519197 L 214.73437491204822 811.5078123519197 L 210.43749990401557 812.2226565119345 L 206.4453120000544 812.9414062079741 L 200.49999974406091 813.0429685759591 L 196.10156236804323 812.8398438399308 L 192.82031206402462 812.4296878079185 L 189.03124992002267 811.609374719963 L 184.3203123200219 810.4843745279359 L 181.96874956804095 809.6640624639695 L 179.8203125760192 808.6406246399274 L 177.46093772805762 806.6953123839339 L 172.5468753920286 802.906250239932 L 170.19531264004763 800.550780927937 L 168.8593745920225 797.4804684799747 L 169.37499955203384 794.4062504959293 L 171.21875046403147 791.746094079921 L 173.26562508800998 789.285155839927 L 174.69531238405034 787.1367188479635 L 176.03125043201726 784.9843752959277 L 177.05468723201193 782.835937279975 L 177.87500032002572 780.5820313599543 L 178.38281216000905 778.1249996799743 L 178.28124979202403 774.8476559359697 L 177.66406246402767 771.9804692479665 L 177.15624960005516 769.8320312319556 L 176.1328128000605 767.1679682559334 L 174.18749952001963 763.9921879039612 L 172.0390625280561 760.9218754559406 L 169.88281241606455 758.6679685119307 L 166.812499968044 755.9062497279374 L 162.7187496960396 752.8320317439502 L 159.9531253760215 750.6835937279393 L 156.46875033603283 748.6328125439468 L 153.0937497600098 746.8945315839374 L 149.4062499840511 744.9492183039547 L 145.51562547206413 743.3085941759637 L 138.75781222403748 740.6484377599554 L 134.65624985605245 739.2148439039593 L 131.89843763201497 738.2929684479604 L 128.51562496001134 737.2656250879518 L 123.60156262404053 735.6289064959274 L 119.19531212805305 733.1718748159474 L 115.60937472002115 730.6132807679242 L 113.7734379520407 728.664062975964 L 111.3124997120467 726.5156249599531 L 108.14062489604112 723.5468748799176 L 105.6796876800363 720.9843752959277 L 103.83593779202783 718.4257812479627 L 101.68749977601692 715.6601559039555 L 99.84374988800846 711.5664066559402 L 98.20312473602826 708.0820316159516 L 97.17968793603359 705.3203128319583 L 96.05468774406472 701.7343754239264 L 95.53906278405339 699.0742190079181 L 94.72656281600939 695.9999999999418 L 94.10937548801303 692.5195315199671 L 93.80468736001058 686.4765624319552 L 93.59374950401252 682.8945315839374 L 93.18750003201421 678.1835939839366 L 92.57031270401785 675.2148439039593 L 92.06249984004535 671.4257817599573 L 91.54687488003401 666.6132807679242 L 91.96093747206032 663.746094079921 L 92.78124953602673 661.285155839927 L 94.41406259202631 659.2382812159485 L 96.3593748480198 657.292968959955 L 99.02343782404205 655.5507814399316 L 102.60937523201574 653.4023434239207 L 106.80468787206337 651.8671871999395 L 112.5390622720588 650.8437503999448 L 115.20312524802284 649.4101565439487 L 118.37500006402843 647.6679690239253 L 121.03906201606151 645.1093749759602 L 122.57812480005668 642.6484377599554 L 123.5000002560555 639.9882813439472 L 123.70312499202555 636.1992191999452 L 122.78124953602673 632.8203120639664 L 121.34375014406396 629.9531253759633 L 119.19531212805305 626.7773439999437 L 116.84375040006125 624.0117186559364 L 113.66406246402767 622.171875327942 L 110.28906291205203 621.1445309439441 L 107.52343756804476 620.9414062079741 L 103.93750016001286 621.1445309439441 L 100.56249958404806 621.7617182719405 L 96.46093721606303 624.0117186559364 L 92.57031270401785 625.7539061759599 L 89.70312499202555 626.8789063679287 L 86.12499968003249 628.4179691519239 L 83.46093772805762 629.2343746559345 L 78.75000012805685 630.2578124799184 L 74.96093798405491 630.1562501119333 L 71.07031244802056 629.85156300792 L 67.89843763201497 629.2343746559345 L 63.79687526402995 627.9062497279374 L 61.74999961606227 626.7773439999437 L 59.39843788801227 625.1406254079193 L 57.24218777602073 622.9882808319526 L 55.39843788801227 619.3046876159497 L 54.58593792002648 614.0820316159516 L 55.093749760009814 609.6757811199641 L 53.76562483201269 606.1953126399312 L 50.796874752035365 603.1250001919689 L 47.210937344061676 600.7695308799739 L 42.499999744060915 599.0273433599505 L 38.812499968043994 598.0039065599558 L 35.539062784053385 596.980468735972 L 31.74999961606227 595.0351564799203 L 29.39062476804247 594.1132810239214 L 27.140625408035703 591.5507814399316 L 25.5000002560555 589.5039057919639 L 24.273437696043402 587.4570311679272 L 23.45312460802961 585.3046876159497 L 22.937499648018274 581.5156254719477 L 21.507812352036126 577.011719167931 L 19.14843750401633 573.8359377919696 L 15.570312192023266 570.664062975964 L 12.804687872063369 568.7187496959232 L 10.039062528056093 567.078124543943 L 7.273437184048817 565.9531253759633 L 4.304687104013283 565.0312499199645 L 0.0 564.0539288250948" fill="none"/><path stroke="#000000" stroke-width="2" d="M 0.0 331.28630507108755 L 1.2343746560509317 331.24999987194315 L 5.429687296040356 331.1484375039581 L 8.710937600058969 330.94531276792986 L 12.085937152034603 330.6367191039608 L 14.234375168045517 330.2265620479593 L 16.49218764802208 329.816406015947 L 19.867186176008545 328.5898403839674 L 23.046875136031304 326.9492183039547 L 25.70312499202555 325.0039060479612 L 29.08593766402919 321.3203128319583 L 31.23437465605093 317.01953126396984 L 31.851563008036464 312.4101560319541 L 31.851563008036464 308.51953151996713 L 32.15625011204975 302.273437695927 L 32.25781248003477 298.9960939519224 L 30.61718732805457 289.0625003519235 L 29.804687360010576 284.558594047965 L 29.492187136027496 280.56249958393164 L 29.804687360010576 276.16015667194733 L 31.437500416010153 272.57812479994027 L 34.00000000005821 269.19531212793663 L 36.35156275203917 266.3281254399335 L 38.812499968043994 264.4882810879499 L 41.37499955203384 262.74609356792644 L 43.62499993602978 261.5156254719477 L 45.98437478404958 260.39062527992064 L 48.74218700802885 260.1874995199614 L 51.92187494406244 260.4921876479639 L 55.093749760009814 261.21093734394526 L 57.554688000062015 262.2343751679291 L 60.421874688065145 263.66796902392525 L 63.18750003201421 265.20312524796464 L 65.84374988800846 266.94531276792986 L 68.30468710401328 268.58203135995427 L 70.76562534406548 270.3242188799195 L 73.6328120320104 272.06249983992893 L 77.21093734406168 274.11328102392145 L 79.67187456000829 275.44531251193257 L 81.71875020803418 276.57031270395964 L 85.4062499840511 278.4140625919681 L 89.60156262404053 279.9492188159493 L 93.90624972805381 281.1796879359754 L 98.61718732805457 282.097655807971 L 102.40625049604569 282.5078128639725 L 110.9062502400484 281.6914063359727 L 118.6875002880115 279.746094079921 L 121.55468800006201 278.61718732793815 L 127.39062476804247 275.9570309119299 L 133.02343782404205 271.75781273597386 L 140.39062528003706 263.15624959993875 L 142.9531248640269 256.4999997439445 L 143.97656268801074 252.19921919994522 L 142.64843776001362 242.57421823992627 L 140.18749952001963 238.273437695927 L 137.11718707205728 234.58593791996827 L 130.97656217601616 232.6406246399274 L 126.87499980803113 233.0507816959289 L 124.62500044802437 233.4609377279412 L 121.45312460802961 234.1757808639668 L 119.19531212805305 235.0976563199656 L 107.82812467205804 242.16406220797217 L 104.03906252805609 244.10937548795482 L 98.7187496960396 245.74609407992102 L 93.90624972805381 246.46484377596062 L 90.62500044802437 246.46484377596062 L 88.67968716804171 246.0546877439483 L 86.83593728003325 245.44140595191857 L 84.28124979202403 244.31250022392487 L 81.51562547206413 242.87890636792872 L 78.5468753920286 240.93359411193524 L 75.16406272002496 238.78515609592432 L 72.49999974406091 236.7382814719458 L 69.84374988800846 234.48437452793587 L 67.89843763201497 232.43359334394336 L 66.46093721606303 230.1835939839366 L 65.9453122560517 227.62109337595757 L 65.84374988800846 225.26562508795178 L 66.46093721606303 222.0937502719462 L 68.60937523201574 219.2265625599539 L 71.37499955203384 217.17968793597538 L 73.83593779202783 215.94921881594928 L 75.98437478404958 215.43750041595194 L 78.13281280006049 215.02734335995046 L 80.39062528003706 214.92578099196544 L 82.94531276804628 214.71874969592318 L 85.81250048003858 214.8242186239222 L 89.5000002560555 214.8242186239222 L 94.10937548801303 214.71874969592318 L 97.69531289604492 214.71874969592318 L 101.89062451204518 214.51562495995313 L 106.09375027206261 214.20703129592584 L 110.28906291205203 213.6953128959285 L 114.179687424039 212.67187507194467 L 118.07031296001514 210.92968755192123 L 121.03906201606151 208.47265587194124 L 125.34375014406396 201.1015628799214 L 126.77343744004611 197.41406207997352 L 127.07812454405939 191.16796825593337 L 126.97656217601616 183.17968793597538 L 125.64843724801904 179.80078079993837 L 124.42187468806515 177.85546854394488 L 121.85937510401709 175.19531212793663 L 117.24999987205956 171.816406015947 L 112.64062464004382 169.8710937599535 L 108.5468753920286 169.56250009592623 L 104.25000038405415 169.66406246396946 L 100.04687462403672 170.07421849592356 L 96.97656217601616 169.97265612793854 L 91.34375014406396 169.35546879994217 L 84.48437452805229 167.61718783993274 L 82.02343731204746 166.1835939839366 L 78.9531248640269 164.5429688319564 L 75.57812531205127 162.49609420791967 L 72.09375027206261 159.7304688639706 L 65.84374988800846 155.12500019196887 L 62.874999808031134 152.7695308799739 L 60.32031232002191 149.5937495039543 L 58.781249536026735 145.9062497279374 L 59.804687360010576 140.48046899196925 L 62.57031270401785 136.38281215995084 L 64.61718732805457 134.6445311999414 L 67.78906214406015 132.39062527992064 L 70.4531251200242 130.24218726396793 L 72.812499968044 127.26953164796578 L 73.93750016001286 125.12109363195486 L 74.5468753920286 121.74218751996523 L 74.14062489604112 117.644531711936 L 71.17187481606379 113.03906201594509 L 66.3593748480198 108.63281254394678 L 64.00000000005821 107.30468761594966 L 61.445312512048986 105.97265612793854 L 57.45312460802961 104.33203097595833 L 54.47656243201345 103.30859417596366 L 50.796874752035365 102.18359398393659 L 46.906250240048394 101.26171852793777 L 44.14062489604112 100.85156249592546 L 41.679687680036295 100.64843775995541 L 38.609375232015736 101.05468723195372 L 35.43750041601015 101.77343795192428 L 31.031249920022674 102.89843711996218 L 27.34375014406396 103.820312575961 L 23.757812736032065 104.74218700797064 L 20.070312960015144 105.35546879994217 L 16.179687424039003 105.66406246396946 L 13.312499712046701 105.76562483195448 L 10.656249856052455 105.56250009592623 L 8.398437376017682 105.05078169592889 L 6.554687488009222 104.23046860797331 L 4.507812864030711 103.92187494394602 L 2.46093721606303 103.30859417596366 L 0.0 102.7369932610527" fill="none"/></svg>