<svg xmlns="http://www.w3.org/2000/svg" width="1024" height="1024"><rect stroke="none" x="0" y="0" width="1024" height="1024" fill="white"/><path stroke="#000000" stroke-width="2" d="M 1024.0 682.8818709307598 L 1023.3906247680425 682.8925777919358 L 1020.4194816000527 682.790748159925 L 1007.4146816000575 682.790748159925 L 920.272281600046 682.2787481599371 L 895.389081600064 682.0739481599303 L 885.149081600015 682.0739481599303 L 880.1328128000605 681.9707033599261 L 869.6874997760169 682.1757808639668 L 859.9586816000519 682.2787481599371 L 820.2265620480175 682.3808593919384 L 803.6406251520384 682.3808593919384 L 779.0783262720215 682.589286399947 L 767.3906247680425 682.6875002879533 L 743.2265625600121 682.6875002879533 L 696.7343749120482 682.8925777919358 L 639.3906247680425 683.0976563199656 L 628.1249996800325 683.0976563199656 L 590.5442816000432 683.2003481599386 L 574.8770816000178 683.2003481599386 L 552.7586816000403 682.8925900799222 L 550.9154816000373 683.2003481599386 L 530.5390622720588 683.0976563199656 L 511.38908160006395 682.9955481599318 L 354.10268160002306 682.9955481599318 L 342.02343731204746 682.8925777919358 L 325.1250001920271 682.8925777919358 L 275.15624960005516 682.4824217599235 L 255.39062476804247 682.3808593919384 L 208.39062528003706 682.3808593919384 L 156.2656245760154 682.5859430399723 L 153.29628160002176 682.5859440639615 L 134.75781222403748 682.6875002879533 L 127.38908160006395 682.6883481599507 L 112.7458816000144 682.790748159925 L 90.01308160001645 682.9955481599318 L 84.17628160002641 682.9955481599318 L 64.00348160002613 683.2003481599386 L 59.601562624040525 683.1992186879506 L 56.32348160003312 683.2003481599386 L 35.94531225605169 683.4042972159223 L 31.23437465605093 683.4042972159223 L 23.76028160005808 683.5075481599197 L 10.243481600016821 683.7123481599265 L 0.0 683.8087201665294" fill="none"/><path stroke="#408040" stroke-width="3" d="M 857.2333841538057 0.0 L 825.0777600000001 14.080000000001746 L 772.8435199999949 32.41983999999866 L 725.0329599999968 23.20383999999831 L 630.712320000006 37.59103999999934 L 394.06591999999364 4.546559999998863 L 349.7985349341034 0.0" fill="none"/></svg>