<svg xmlns="http://www.w3.org/2000/svg" width="1024" height="1024"><rect stroke="none" x="0" y="0" width="1024" height="1024" fill="white"/><path stroke="#000000" stroke-width="2" d="M 0.0 0.9303628285197192 L 8.195312640047632 6.847655935969669 L 23.85937510401709 17.60156262392411 L 34.61718732805457 24.97265663993312 L 50.69531238405034 35.92968703992665 L 55.914062848023605 39.30859417596366 L 58.781249536026735 41.25390643195715 L 61.851563008036464 43.50781235191971 L 65.1328122880077 45.76171827194048 L 69.73437542404281 48.83203174395021 L 87.45312460802961 61.01953126396984 L 93.03757414402207 65.00687155197375 L 97.4921871360275 68.18749951996142 L 101.99218790401937 71.15624959993875 L 115.50781235203613 80.37109350395622 L 126.05468774400651 87.640625151922 L 138.75781222403748 96.34765619196696 L 145.92187494406244 101.3632808959228 L 152.2734376960434 105.66406246396946 L 157.59374950401252 109.24999987194315 L 159.9531253760215 110.88671846396755 L 163.9453122560517 113.5507814399316 L 172.14062489604112 119.17968793597538 L 184.83593728003325 128.0898437119322 L 193.03124992002267 133.62109337595757 L 201.52343756804476 139.4570311679272 L 214.2265620480175 148.26171903993236 L 218.3203123200219 151.12890675192466 L 226.20312473602826 156.453125119966 L 236.0390625280561 163.3164062719443 L 240.85156249604188 166.5937500159489 L 245.24999987205956 169.66406246396946 L 248.2187499520369 171.71093708794797 L 255.4921871360275 176.62890598393278 L 261.7343754240428 181.03124991996447 L 264.3984373760177 182.87499980797293 L 277.30468761600787 191.7812500479631 L 280.2734376960434 193.7265623039566 L 303.3124997120467 209.80468735995237 L 311.8125004800386 215.640625151922 L 316.00781209603883 218.5078128639725 L 328.812499968044 227.4179686399293 L 341.20312524802284 235.91796838393202 L 344.89062502403976 238.47656243195524 L 351.74999961606227 243.28906239994103 L 366.28906291205203 253.3242183679249 L 370.38281216000905 256.0898437119322 L 374.5859379200265 259.3671874559368 L 382.97656217601616 265.30468761594966 L 399.97656268801074 276.8789063679287 L 422.5078128640307 292.2382817279431 L 425.37499955203384 294.5937500159489 L 427.7265623040148 296.84375039994484 L 451.8906245120452 312.7187496959232 L 458.7578122240375 317.5312496639672 L 462.8515624960419 320.29296844796045 L 464.281249792024 321.3203128319583 L 480.57031270401785 332.48046899196925 L 500.2265620480175 345.89453107194277 L 510.97656217601616 353.88281241594814 L 517.8437498880085 358.4882810879499 L 520.0937502720626 359.921874943946 L 524.1874995200196 362.7890626559383 L 535.2499998720596 370.57421823992627 L 539.648437248019 373.44140595191857 L 548.8671877120505 379.6874997759587 L 551.6328120320104 381.4257817599573 L 554.7031255040201 383.47656294394983 L 559.3124997120467 386.6484377599554 L 562.5859379200265 389.10937497596024 L 579.1796879360336 400.7812495359685 L 585.8359377920278 405.4921871359693 L 613.1718748160056 425.25390643195715 L 615.3281249280553 426.6875002879533 L 626.7968747520354 434.8789063679287 L 635.9062497280538 441.3320314879529 L 638.9765621760162 443.5859374079737 L 645.023437824042 447.1679682559334 L 655.1562496000552 454.02734387194505 L 658.4374999040156 456.2812497919658 L 660.7890626560547 457.816406015947 L 682.6015621120459 472.7695308799739 L 687.0078126080334 475.83984332793625 L 708.812499968044 491.30468761594966 L 719.1562496000552 498.57421823992627 L 737.898437632015 511.88671897596214 L 749.8750003200257 520.1796874239226 L 753.6718745600083 522.6367191039608 L 767.5937495040125 532.0585932799731 L 783.8750003200257 544.0390625279397 L 786.4374999040156 545.7812500479631 L 806.4062504960457 559.7070315519231 L 815.1093749760184 565.746094079921 L 824.1171875840519 572.097655807971 L 837.6328120320104 581.5156254719477 L 859.1406254080357 596.4687503359746 L 863.2343746560509 599.3359370239195 L 864.1711073280312 599.9738583039725 L 868.0468746240367 602.6132807679242 L 879.1093749760184 610.2929684479604 L 894.6718750720611 621.1445309439441 L 896.7187496960396 622.8867184639676 L 921.3984378880123 640.0898437119322 L 924.4687503360328 642.2421872639679 L 933.7890621440602 649.2031252479646 L 939.6250306560542 654.0156456959667 L 947.9218749440624 659.7499996159459 L 994.0000000000582 691.6992184319533 L 1018.4765624320135 709.7226557439426 L 1022.9765621760162 713.0000005119364 L 1024.0 713.692152530326" fill="none"/><path stroke="#000000" stroke-width="2" d="M 1024.0 713.692152530326 L 1022.9765621760162 713.0000005119364 L 1018.4765624320717 709.7226557439426 L 994.0000000001164 691.6992184320115 L 947.9218749441206 659.7499996159459 L 939.6250306561124 654.0156456959667 L 933.7890621441184 649.2031252478482 L 924.468750336091 642.2421872639097 L 921.3984378880705 640.089843711874 L 896.7187496960396 622.8867184639676 L 894.6718750720611 621.1445309439441 L 879.1093749760767 610.292968447844 L 868.0468746240367 602.6132807679242 L 864.1711073280894 599.9738583038561 L 863.2343746560509 599.3359370238613 L 859.1406254080357 596.4687503359164 L 837.6328120320686 581.5156254718895 L 824.1171875841101 572.0976558078546 L 815.1093749760184 565.746094079921 L 806.4062504960457 559.7070315519231 L 786.4374999040156 545.7812500478467 L 783.8750003200257 544.0390625278815 L 767.5937495040707 532.0585932798567 L 753.6718745600083 522.636719104019 L 749.8750003200839 520.1796874238062 L 737.898437632015 511.88671897596214 L 719.1562496001134 498.57421823992627 L 708.8124999681022 491.30468761589145 L 687.0078126080334 475.83984332793625 L 682.6015621120459 472.7695308799739 L 660.789062656113 457.816406015947 L 658.4374999040738 456.2812497919076 L 655.1562496000552 454.02734387182863 L 645.023437824042 447.1679682559334 L 638.9765621760162 443.5859374079155 L 635.906249728112 441.3320314878947 L 626.7968747520936 434.8789063678123 L 615.3281249281135 426.6875002878369 L 613.1718748160638 425.25390643201536 L 585.8359377920278 405.4921871359693 L 579.1796879360336 400.7812495359103 L 562.5859379200847 389.10937497596024 L 559.3124997120467 386.648437759839 L 554.7031255040201 383.4765629438334 L 551.6328120320104 381.4257817598991 L 548.8671877121087 379.6874997758423 L 539.648437248019 373.44140595191857 L 535.2499998721178 370.57421823986806 L 524.1874995200196 362.7890626559383 L 520.0937502720626 359.9218749438878 L 517.8437498880085 358.48828108789166 L 510.97656217607437 353.88281241588993 L 500.2265620480757 345.89453107194277 L 480.57031270407606 332.48046899185283 L 464.28124979208224 321.3203128319583 L 462.8515624960419 320.29296844790224 L 458.7578122240957 317.5312496639672 L 451.8906245120452 312.718749695865 L 427.726562304073 296.84375039994484 L 425.37499955203384 294.5937500158325 L 422.5078128640889 292.2382817279431 L 399.97656268801074 276.8789063678705 L 382.97656217607437 265.30468761589145 L 374.5859379200265 259.3671874559368 L 370.38281216006726 256.089843711874 L 366.28906291205203 253.3242183678667 L 351.74999961606227 243.28906239982462 L 344.89062502403976 238.47656243189704 L 341.20312524808105 235.9179683838738 L 328.812499968044 227.4179686398711 L 316.00781209603883 218.5078128639143 L 311.8125004800968 215.6406251518638 L 303.3124997121049 209.80468735995237 L 280.2734376960434 193.72656230384018 L 277.30468761600787 191.7812500479631 L 264.3984373760759 182.87499980791472 L 261.734375424101 181.03124991990626 L 255.4921871360275 176.62890598381637 L 248.2187499520369 171.71093708800618 L 245.24999987205956 169.66406246385304 L 240.8515624961001 166.5937500159489 L 236.0390625280561 163.31640627188608 L 226.20312473608647 156.45312511984957 L 218.3203123200219 151.12890675186645 L 214.2265620480175 148.26171903981594 L 201.52343756804476 139.45703116781078 L 193.03124992008088 133.62109337589936 L 184.83593728003325 128.08984371181577 L 172.14062489609933 119.17968793597538 L 163.9453122560517 113.55078143981518 L 159.9531253760215 110.88671846385114 L 157.59374950401252 109.24999987194315 L 152.2734376961016 105.66406246391125 L 145.92187494406244 101.36328089586459 L 138.75781222403748 96.34765619190875 L 126.05468774406472 87.64062515180558 L 115.50781235209433 80.3710935038398 L 101.99218790401937 71.15624959982233 L 97.4921871360275 68.18749951996142 L 93.03757414408028 65.00687155197375 L 87.45312460802961 61.01953126396984 L 69.73437542410102 48.832031743892 L 65.1328122880659 45.76171827188227 L 61.851563008036464 43.5078123518615 L 58.781249536026735 41.25390643195715 L 55.91406284808181 39.308594175905455 L 50.69531238410855 35.92968703992665 L 34.61718732805457 24.972656639816705 L 23.859375104075298 17.601562623865902 L 8.195312640047632 6.847655935911462 L 0.0 0.9303628284760634" fill="none"/></svg>