<svg xmlns="http://www.w3.org/2000/svg" width="1024" height="1024"><rect stroke="none" x="0" y="0" width="1024" height="1024" fill="white"/><path stroke="#000000" stroke-width="2" d="M 1024.0 957.5535460485407 L 1023.6953128960449 953.0234378239256 L 1023.656250368047 952.1054689279408 L 1023.2890624000574 944.2187499519205 L 1022.9765621760162 936.6406246399274 L 1022.8828129280591 934.8789063679287 L 1022.7734374400461 932.9531248639687 L 1022.7734374400461 929.4726563839358 L 1022.5703127040179 926.1953126399312 L 1022.0546877440647 916.1601566719473 L 1021.7499996160623 910.9374996479601 L 1021.7031249920256 909.9335935999407 L 1021.0312499200227 896.2968750079744 L 1020.4218746880651 882.0624998399289 L 1019.2968744960381 857.1796879359172 L 1018.5781248000567 844.273437695927 L 1017.4531246080296 816.5234370559338 L 1017.2421877760207 813.1445309439441 L 1017.0390620160615 807.6171878399327 L 1016.7343749120482 800.652343295922 L 1016.4921876480221 795.7226557439426 L 1016.3281254400499 792.2578124799184 L 1015.8125004800386 782.2226565119345 L 1015.5078123520361 778.1249996799743 L 1015.3984378880123 773.8242191359168 L 1015.335937024036 768.7226562559372 L 1015.2968744960381 766.2460938239237 L 1015.2421877760207 764.167968767928 L 1015.093749760068 759.078124543943 L 1014.3750000640284 749.8632816639729 L 1014.3437496320112 748.7382814719458 L 1014.1718753280584 743.921874943946 L 1013.968749568041 737.9999999999418 L 1013.7656248320127 732.2500003839377 L 1013.5625000960426 728.7695308799739 L 1013.2499998720596 725.285155839927 L 1012.6406246400438 716.277344255941 L 1010.9999994880636 674.906250239932 L 1010.7968747520354 671.8359377919696 L 1008.7500001280569 643.5703121919651 L 1008.3359375360305 638.8593745919643 L 1008.1328128000605 632.8203120639664 L 1008.0312504320173 628.2109378559398 L 1007.4140620800317 619.816406015947 L 1007.3124997120467 616.1289062399301 L 1007.0078126080334 612.9531248639687 L 1006.9062502400484 610.4960942079197 L 1006.7968747520354 607.5273441279423 L 1006.289062912052 597.5937495039543 L 1006.0859371520346 595.3398435839335 L 1005.6718745600665 586.6367191039608 L 1005.2656250880682 580.5937500159489 L 1004.8515624960419 573.2226559999399 L 1004.1406248960411 562.8789063679287 L 1003.4218752000597 552.1289062399301 L 1002.7031255040201 538.9179688959266 L 1002.2968750080327 531.7499996159459 L 1001.9843747840496 527.0390620159451 L 1001.5781253120513 522.7382814719458 L 1000.4531251200242 511.98828134394716 L 999.3281249280553 495.39843788795406 L 999.1171870720573 492.2226565119345 L 997.9921879040194 473.48437503993046 L 997.7890621440602 470.4140625919681 L 997.5859374080319 465.39453132794006 L 997.2734371840488 462.0156252159504 L 997.0703124480206 458.43359334394336 L 996.7656253440655 453.4140620799735 L 996.562499584048 449.7265623039566 L 996.0468746240367 436.8242186239222 L 995.6406251520384 424.84375039994484 L 995.2265625600121 414.6054686719435 L 994.6171873280546 399.0390620159451 L 993.79687526403 383.98828134394716 L 992.7734374400461 364.01953075191705 L 992.2578124800348 352.8593745919643 L 989.1875000320142 308.21093785593985 L 988.7734374400461 301.5546879999456 L 988.1640622080304 295.61718783993274 L 986.4218746880651 269.81250047992216 L 986.1171875840519 264.2812497919658 L 985.6015626240405 255.47656294394983 L 985.6015626240405 250.25390591996256 L 985.195312128053 244.8242186239222 L 983.7578127360321 226.0859371519182 L 981.9140628480236 202.12499967997428 L 981.1015628800378 192.4999997439445 L 980.8906250240398 189.53124966396717 L 979.6640624640277 175.6054691839381 L 979.2578129920294 170.48437452793587 L 978.3359375360305 159.52734412794234 L 977.9218749440624 155.2265625599539 L 977.3046876160661 147.9570309119299 L 976.6953123840503 140.277344255941 L 975.4687498240382 128.19140607991721 L 974.9531248640269 125.22265599993989 L 973.828124672058 112.93359411193524 L 973.2109373440617 106.27734425594099 L 971.8828124160646 91.42968729592394 L 971.0625003520399 82.62500044796616 L 970.0390625280561 70.84765593596967 L 968.2968750080327 47.70703155192314 L 966.7656253440655 27.328124927938916 L 966.4531251200242 21.90234419197077 L 965.4296872960404 9.71484364796197 L 964.7118035566236 0.0" fill="none"/><path stroke="#000000" stroke-width="2" d="M 964.7118035566236 0.0 L 965.4296872960404 9.71484364796197 L 966.4531251200242 21.90234419197077 L 966.7656253440655 27.328124927938916 L 968.2968750080327 47.70703155192314 L 970.0390625280561 70.84765593596967 L 971.0625003520399 82.62500044796616 L 971.8828124160646 91.42968729592394 L 973.2109373440617 106.27734425594099 L 973.828124672058 112.93359411193524 L 974.9531248640269 125.22265599993989 L 975.4687498240382 128.19140607991721 L 976.6953123840503 140.277344255941 L 977.3046876160661 147.9570309119299 L 977.9218749440624 155.2265625599539 L 978.3359375360305 159.52734412794234 L 979.2578129920294 170.48437452793587 L 979.6640624640277 175.6054691839381 L 980.8906250240398 189.53124966396717 L 981.1015628800378 192.4999997439445 L 981.9140628480236 202.12499967997428 L 983.7578127360321 226.0859371519182 L 985.195312128053 244.8242186239222 L 985.6015626240405 250.25390591996256 L 985.6015626240405 255.47656294394983 L 986.1171875840519 264.2812497919658 L 986.4218746880651 269.81250047992216 L 988.1640622080304 295.61718783993274 L 988.7734374400461 301.5546879999456 L 989.1875000320142 308.21093785593985 L 992.2578124800348 352.8593745919643 L 992.7734374400461 364.01953075191705 L 993.79687526403 383.98828134394716 L 994.6171873280546 399.0390620159451 L 995.2265625600121 414.6054686719435 L 995.6406251520384 424.84375039994484 L 996.0468746240367 436.8242186239222 L 996.562499584048 449.7265623039566 L 996.7656253440655 453.4140620799735 L 997.0703124480206 458.43359334394336 L 997.2734371840488 462.0156252159504 L 997.5859374080319 465.39453132794006 L 997.7890621440602 470.4140625919681 L 997.9921879040194 473.48437503993046 L 999.1171870720573 492.2226565119345 L 999.3281249280553 495.39843788795406 L 1000.4531251200242 511.98828134394716 L 1001.5781253120513 522.7382814719458 L 1001.9843747840496 527.0390620159451 L 1002.2968750080327 531.7499996159459 L 1002.7031255040201 538.9179688959266 L 1003.4218752000597 552.1289062399301 L 1004.1406248960411 562.8789063679287 L 1004.8515624960419 573.2226559999399 L 1005.2656250880682 580.5937500159489 L 1005.6718745600665 586.6367191039608 L 1006.0859371520346 595.3398435839335 L 1006.289062912052 597.5937495039543 L 1006.7968747520354 607.5273441279423 L 1006.9062502400484 610.4960942079197 L 1007.0078126080334 612.9531248639687 L 1007.3124997120467 616.1289062399301 L 1007.4140620800317 619.816406015947 L 1008.0312504320173 628.2109378559398 L 1008.1328128000605 632.8203120639664 L 1008.3359375360305 638.8593745919643 L 1008.7500001280569 643.5703121919651 L 1010.7968747520354 671.8359377919696 L 1010.9999994880636 674.906250239932 L 1012.6406246400438 716.277344255941 L 1013.2499998720596 725.285155839927 L 1013.5625000960426 728.7695308799739 L 1013.7656248320127 732.2500003839377 L 1013.968749568041 737.9999999999418 L 1014.1718753280584 743.921874943946 L 1014.3437496320112 748.7382814719458 L 1014.3750000640284 749.8632816639729 L 1015.093749760068 759.078124543943 L 1015.2421877760207 764.167968767928 L 1015.2968744960381 766.2460938239237 L 1015.335937024036 768.7226562559372 L 1015.3984378880123 773.8242191359168 L 1015.5078123520361 778.1249996799743 L 1015.8125004800386 782.2226565119345 L 1016.3281254400499 792.2578124799184 L 1016.4921876480221 795.7226557439426 L 1016.7343749120482 800.652343295922 L 1017.0390620160615 807.6171878399327 L 1017.2421877760207 813.1445309439441 L 1017.4531246080296 816.5234370559338 L 1018.5781248000567 844.273437695927 L 1019.2968744960381 857.1796879359172 L 1020.4218746880651 882.0624998399289 L 1021.0312499200227 896.2968750079744 L 1021.7031249920256 909.9335935999407 L 1021.7499996160623 910.9374996479601 L 1022.0546877440647 916.1601566719473 L 1022.5703127040179 926.1953126399312 L 1022.7734374400461 929.4726563839358 L 1022.7734374400461 932.9531248639687 L 1022.8828129280591 934.8789063679287 L 1022.9765621760162 936.6406246399274 L 1023.2890624000574 944.2187499519205 L 1023.656250368047 952.1054689279408 L 1023.6953128960449 953.0234378239256 L 1024.0 957.5535460485407" fill="none"/><path stroke="#000000" stroke-width="2" d="M 0.0 690.6593135757648 L 0.625000448024366 690.4999997439445 L 7.687499776016921 687.6249999359716 L 8.203124736028258 687.4023434239207 L 12.60156211204594 685.2499998719431 L 14.750000128056854 682.4843745279359 L 14.937499648018274 682.027343871945 L 15.87500032002572 679.6249999359716 L 19.42187520005973 678.5664061439456 L 19.96874956804095 678.3867187199648 L 20.023437312047463 678.3867187199648 L 20.062499840045348 678.3750000639702 L 23.062500352039933 678.1874995199614 L 27.74999961606227 679.0000005119364 L 38.499999744060915 679.187500031956 L 43.5000002560555 678.1874995199614 L 48.562499584048055 678.1874995199614 L 48.66406297602225 678.1914060799172 L 48.85156249604188 678.1835939839366 L 51.3203128320165 678.2460938239237 L 57.62499993602978 678.3750000639702 L 62.43749990401557 680.0624998399289 L 65.62499993602978 680.0624998399289 L 67.39062476804247 679.7773434879491 L 69.42968729604036 679.4101565439487 L 72.32031232002191 677.8007807999384 L 73.90624972805381 676.8789063679287 L 76.39062528003706 674.2226565119345 L 76.87499980803113 673.6874997759587 L 80.56249958404806 671.8750003199675 L 84.25000038405415 669.3749995519174 L 96.56249958404806 667.3124997119303 L 99.62499993602978 667.9375001599547 L 102.40625049604569 668.9687500799191 L 103.01562470401404 669.1718748159474 L 103.42968729604036 669.3242183679249 L 107.5000002560555 670.6250004479662 L 111.5000002560555 672.2500003839377 L 114.37500006402843 672.8749998079729 L 117.87500032002572 674.1249996799743 L 122.06249984004535 675.9375001599547 L 125.3124997120467 677.187500031956 L 128.67187507206108 678.804687871947 L 128.73437491204822 678.8164065279416 L 132.05468774406472 678.9882808319526 L 133.2812503040186 678.6367191039608 L 136.57031270401785 677.3945313279401 L 137.52343756804476 676.9531248639687 L 140.39062528003706 675.9296870399266 L 142.9531248640269 675.5195310079725 L 143.57812531205127 675.4882815999445 L 144.812499968044 675.3124997119303 L 148.56249958404806 675.1250001919689 L 151.62499993602978 674.6875002879533 L 154.62500044802437 673.2499998719431 L 158.71093760005897 671.816406015947 L 158.92968755203765 671.7304688639706 L 160.02343731204746 671.2265625599539 L 163.24999987205956 669.5625000959262 L 165.20312524802284 668.4296878079185 L 165.48437504004687 668.2500003839377 L 165.75781273603207 668.1093754879548 L 167.12500019202707 667.3124997119303 L 170.49999974406091 665.5000002559391 L 174.6875002880115 664.4999997439445 L 178.06249984004535 663.437500415952 L 181.12500019202707 662.6250004479662 L 185.12500019202707 662.4374999039574 L 186.9921873920248 661.9765626879525 L 188.89062502403976 661.2539064319571 L 189.75781273603207 660.5429688319564 L 191.33593702403596 658.5234370559338 L 189.4531246080296 651.4570311679272 L 189.30468761606608 650.9374996479601 L 188.52343705605017 647.9765626879525 L 188.59375001606531 647.8828124159481 L 188.49999974406091 647.5000002559391 L 190.96875008003553 644.1757808639668 L 191.42187520005973 643.1367188479635 L 188.93749964801827 638.8749998079729 L 189.546874880034 635.8945310719428 L 189.56250009604264 635.8125004799222 L 190.37500006402843 632.7500001279404 L 196.49999974406091 630.8749998079729 L 201.81250048003858 631.3124997119303 L 204.07031296001514 629.9492188159493 L 203.47656294406625 626.7773439999437 L 201.62499993602978 622.4765624319552 L 203.47656294406625 620.6328125439468 L 204.0000000000582 620.0624998399289 L 204.85156249604188 619.4570311679272 L 206.43749990401557 618.277344255941 L 209.55468800006201 616.1093754879548 L 210.93749964801827 615.1250001919689 L 214.43749990401557 614.0624998399289 L 220.59375001606531 614.4804689919692 L 220.88281292805914 614.4882810879499 L 221.1328122880659 614.4999997439445 L 226.49999974406091 614.4999997439445 L 230.0000000000582 613.0625003519235 L 233.24999987205956 611.0000005119364 L 237.56250009604264 608.7500001279404 L 239.1796879360336 608.3242188799195 L 240.75000012805685 607.7304688639706 L 244.74218700802885 607.3203128319583 L 249.34375014406396 607.7304688639706 L 252.21093785605626 609.0625003519235 L 256.7187496960396 612.4414064639714 L 261.2265625600121 612.9531248639687 L 264.19531264004763 611.007812607917 L 267.06250035203993 606.8085934079718 L 270.6484377600136 604.1484369919635 L 274.1249996800325 603.4296872959239 L 280.3750000640284 602.7148441599566 L 284.2656245760154 602.8164065279416 L 289.5937495040125 603.6367185919662 L 292.56249958404806 603.535156223923 L 298.60156211204594 602.3046871039551 L 302.28906291205203 600.4609372159466 L 303.92968704004306 599.9492188159493 L 305.25781299202936 599.0273433599505 L 307.4062499840511 598.1054689279408 L 310.5859379200265 596.0585932799731 L 313.2421877760207 593.6015626239241 L 316.21093785605626 592.7812495359685 L 319.5937495040125 591.1445309439441 L 322.7656253440655 588.9921873919666 L 325.32812492805533 586.1249996799743 L 327.6796876800363 585.816406015947 L 329.83593779202783 586.3281254399335 L 330.24218726402614 583.6679690239253 L 328.4999997440609 581.4140620799735 L 327.9921879040194 579.4687498239218 L 329.93750016001286 577.9335935999407 L 332.60156211204594 577.5234375679283 L 336.39062528003706 577.3203128319583 L 339.7656248320127 576.8085934079718 L 342.3281254400499 575.8867189759621 L 344.47656243201345 574.656249855936 L 347.1406254080357 571.9921879039612 L 349.4921871360275 567.3867192319594 L 350.21093785605626 562.1640622079722 L 351.0312499200227 558.9882808319526 L 352.0546877440647 556.6328125439468 L 355.43750041606836 552.4374999039574 L 361.7812500480213 552.5390622719424 L 364.4453120000544 551.921874943946 L 367.10937497601844 549.8750003199675 L 367.8203125760192 547.5195310079725 L 361.88281241606455 543.8359377919696 L 360.55468748806743 542.5039063039585 L 360.7578122240375 539.6367185919662 L 362.80468787206337 537.4843750399305 L 366.1874995200196 535.640625151922 L 369.15624960005516 534.8242186239222 L 371.1015628800378 532.980468735972 L 374.07031296001514 531.2382812159485 L 375.39843788801227 529.0898442239268 L 377.4531246080296 528.0624998399289 L 381.34375014406396 528.2695311359712 L 383.39062476804247 530.8281251839362 L 376.3203123200219 534.2070312959258 L 374.47656243201345 534.5156249599531 L 376.01562521606684 537.5859374079737 L 379.70312499202555 538.20312473597 L 384.0000000000582 536.9726566399331 L 386.97656217601616 532.6718750719447 L 389.6328120320686 528.0664063999429 L 392.3984373760177 526.5273436159478 L 395.47656294406625 526.8359372799168 L 399.3593753600144 527.9609374719439 L 402.43749990401557 527.6562503679306 L 404.9921873920248 527.0390620159451 L 409.19531212805305 526.2226565119345 L 411.445312512049 524.4804689919692 L 412.6718750720611 521.2031252479646 L 414.4140625920263 516.5976565759629 L 414.914062336029 514.8476559359697 L 415.85156300803646 511.57812531193485 L 419.9453122560517 512.6015621119295 L 422.914062336029 513.1132815359742 L 423.1171870720573 508.71093759994255 L 421.6874997760169 505.6367185919662 L 424.9609379840549 507.1757813759614 L 428.4453120000544 509.7343754239264 L 431.3124997120467 509.8359377919696 L 432.8515624960419 507.78906214394374 L 429.7734379520407 505.3320314879529 L 426.3984373760177 502.97656217595795 L 424.1406248960411 498.67578163195867 L 422.3046871040133 496.42187468794873 L 418.51562496001134 494.273437695927 L 415.85156300803646 491.71093708794797 L 415.43750041606836 489.7656248319545 L 416.97656217601616 488.5390622719424 L 421.1718748160638 489.0507816959289 L 423.5312496640254 488.84375039994484 L 426.9062502400484 487.4101565439487 L 430.1874995200196 484.33984409592813 L 433.25781299202936 480.9609379839385 L 435.7109370880644 477.5820308479597 L 437.0468751360313 475.3281249279389 L 436.3281254400499 471.746094079921 L 430.0859371520346 467.1367188479635 L 427.3203128320165 465.5000002559391 L 422.71093760005897 463.4492190719466 L 418.4140625920263 460.7890626559383 L 414.92968755203765 458.7382814719458 L 412.06249984004535 456.2812497919658 L 412.1640622080304 452.6992189439479 L 413.5937495040125 449.6249999359716 L 414.8281251840526 447.7812500479631 L 417.2812503040186 445.6328120319522 L 420.96875008003553 444.71093759994255 L 425.88281241606455 445.6328120319522 L 430.5937500160653 445.5312496639672 L 433.97656268806895 445.5312496639672 L 439.8125004800386 447.47656294394983 L 443.1875000320142 447.57812531193485 L 447.0781245440594 447.2695316479658 L 451.1796879360336 445.8359377919696 L 451.6874997760169 442.15234355191933 L 453.9453122560517 439.5898439679295 L 456.914062336029 440.5117183999391 L 459.06250035203993 440.61328076792415 L 461.6249999360298 437.9531253759633 L 458.1406248960411 433.8554685439449 L 456.0937502720626 429.5546879999456 L 459.57812531205127 425.8671871999395 L 459.47656294406625 428.6328125439468 L 461.10937497601844 430.57812479994027 L 463.57031219202327 431.5000002559391 L 466.33593753603054 430.57812479994027 L 471.4531246080296 426.9960939519224 L 473.5000002560555 424.74218700797064 L 474.62500044802437 421.97656268795254 L 471.4531246080296 420.5429688319564 L 471.65625036804704 416.550780927937 L 467.66406246402767 417.88281241594814 L 463.8750003200257 418.0859371519182 L 461.92968704004306 416.8593745919643 L 463.97656268806895 416.1406248959247 L 465.1015628800378 414.4023439359735 L 463.57031219202327 412.8632811519201 L 461.10937497601844 414.4023439359735 L 455.78906214406015 414.6054686719435 L 456.60156211204594 411.01953126396984 L 458.65624985605245 408.56249958393164 L 454.14843699202174 409.6914063359727 L 451.1796879360336 409.6914063359727 L 448.921875456057 408.66796851193067 L 448.51562496001134 406.1054689279408 L 451.0781245440594 405.6953128959285 L 453.5312496640254 405.4921871359693 L 455.78906214406015 404.26171903993236 L 456.71093760005897 401.0898442239268 L 454.65624985605245 393.816406015947 L 454.14843699202174 390.2343751679291 L 455.1718748160638 384.6015621119295 L 457.52343756804476 383.47656294394983 L 454.8671877120505 381.6328120319522 L 453.2265625600121 380.4023439359735 L 455.57812531205127 378.0468746239203 L 452.60937523201574 374.0546877439483 L 448.51562496001134 372.0078120959224 L 447.898437632015 369.44531251193257 L 452.0000000000582 367.6015626239241 L 451.78906214406015 363.816406015947 L 449.6406251520384 361.7656248319545 L 448.7187496960396 359.10546841594623 L 446.87499980803113 356.44140646397136 L 443.70312499202555 354.5976565759629 L 441.554688000062 356.6484377599554 L 439.19531212805305 357.97656268795254 L 434.9999994880636 357.3632808959228 L 430.69531238405034 355.8281246719416 L 433.6718745600665 353.4726563839358 L 429.88281241606455 352.0390625279397 L 427.42187520005973 351.7304688639706 L 425.07031244802056 350.29687500797445 L 422.71093760005897 347.01953126396984 L 424.4531251200242 344.7695308799739 L 425.2734371840488 342.7187496959232 L 422.812499968044 338.11328102392145 L 427.3203128320165 334.42578124796273 L 422.5078128640307 332.89062502392335 L 419.43750041606836 332.07031295995694 L 416.46093721606303 330.43359334394336 L 413.8046873600688 328.7929692159523 L 414.92968755203765 326.1328127999441 L 415.33593702403596 323.6757811199641 L 413.1875000320142 320.0898437119322 L 412.57031270401785 317.2226559999399 L 411.75781273603207 314.25390591996256 L 413.39062476804247 312.1015623679268 L 415.43750041606836 310.8749998079729 L 412.98437529604416 309.5429683199618 L 409.70312499202555 308.1093754879548 L 409.70312908804044 302.1679626239347 L 404.179687424039 298.1757808639668 L 401.61718784004916 294.38671871996485 L 400.179687424039 292.85156249592546 L 397.82812467205804 290.29296844796045 L 396.1874995200196 287.8320312319556 L 393.93750016001286 285.88671897596214 L 390.96875008003553 283.83984332793625 L 391.2734371840488 280.7695308799739 L 390.8671877120505 277.5937495039543 L 386.15625011204975 278.7187496959232 L 384.21093785605626 277.39062476792606 L 383.39062476804247 274.0117186559364 L 383.6953128960449 269.5039057919639 L 383.39062476804247 263.7695313919685 L 382.0546877440647 259.0585937919677 L 377.75781273603207 256.8085934079718 L 377.2421877760207 253.2226559999399 L 380.21093785605626 252.30078156793024 L 383.6953128960449 251.48046847997466 L 387.48437504004687 250.15234355191933 L 390.65624985605245 250.15234355191933 L 393.1171870720573 248.4101560319541 L 394.9609379840549 246.36328140791738 L 397.10937497601844 242.06249983992893 L 400.5937500160653 240.21874995192047 L 403.14843750401633 238.98828083195258 L 405.60937472002115 236.94140620797407 L 407.554688000062 233.8710937599535 L 410.8281251840526 231.820312575961 L 413.4921871360275 229.8750003199675 L 412.98437529604416 227.92968703992665 L 413.4921871360275 225.3710940159508 L 416.7734374400461 222.40234393597348 L 421.38281267206185 220.8632811519201 L 426.70312550402014 219.42968729592394 L 430.69531238405034 219.32812492793892 L 432.2343751680455 217.2812503039604 L 435.1015628800378 214.4140625919681 L 436.74218700802885 212.87890636792872 L 438.3750000640284 209.80468735995237 L 437.14843750401633 206.93749964796007 L 437.96874956804095 204.07031295995694 L 439.60937472002115 200.38281215995084 L 441.2421877760207 196.69921894394793 L 437.7656248320127 194.24218726396793 L 435.5078123520361 191.57812531193485 L 435.20312524802284 187.78906214394374 L 437.8671872000559 184.61328076792415 L 440.3203123200219 182.36328140791738 L 442.5781248000567 180.62109388795216 L 445.64843724801904 180.00781209592242 L 448.7187496960396 178.98437529592775 L 451.1796879360336 172.94140620797407 L 453.5312496640254 169.15234406397212 L 457.83593779202783 166.5937500159489 L 457.93750016001286 161.3710940159508 L 454.4531251200242 157.07031244796235 L 453.84374988806667 154.61328076792415 L 455.07031244802056 153.07421900791815 L 457.01562470401404 151.43750041595194 L 459.06250035203993 150.0039065599558 L 462.33593753603054 147.1367188479635 L 460.4999997440609 143.0390620159451 L 461.3124997120467 140.6835937279393 L 465.92187494406244 136.79296921595233 L 471.65625036804704 134.43749990395736 L 475.64843724801904 133.62109337595757 L 479.64843724801904 130.9570314239245 L 481.898437632015 129.3203128319583 L 483.6406251520384 124.71093759994255 L 488.3515627520392 122.45703167992178 L 490.0859371520346 119.38671923195943 L 493.6718745600665 117.33984358393354 L 496.03125043201726 115.187500031956 L 499.60937472002115 111.19531212793663 L 497.56250009604264 108.94140620797407 L 498.6875002880115 107.30078105593566 L 502.78906265605474 105.25390643195715 L 504.01562521606684 102.89843711996218 L 508.62500044802437 100.33984409592813 L 511.39062476804247 97.78125004796311 L 516.1015623680432 96.8593745919643 L 515.1796879360336 94.29687500797445 L 517.1250001920271 91.22656255995389 L 514.3593748480198 90.09765580797102 L 511.79687526402995 90.09765580797102 L 510.6718750720611 86.8242186239222 L 507.2968744960381 83.03515647992026 L 502.5859379200265 78.73437491193181 L 498.38281216006726 75.66015590395546 L 496.9531248640269 72.5898434559349 L 495.61718784004916 68.80078131193295 L 494.79687475203536 65.83203123195563 L 490.3984373760177 62.04296908795368 L 494.4921876480221 61.53124966396717 L 494.9062502400484 56.4101560319541 L 494.69531238405034 52.82421862392221 L 492.75000012805685 50.98437529592775 L 495.0078126080334 48.933594111935236 L 496.33593753603054 44.019530751917046 L 496.6406246400438 41.15234406397212 L 495.82812467205804 37.97656268795254 L 494.69531238405034 36.03125043195905 L 491.52343756804476 36.953124863968696 L 488.4531251200242 35.41796863992931 L 487.42968729604036 32.44921855995199 L 485.6874997760169 30.093750271946192 L 483.84374988806667 26.613280767924152 L 480.3593748480198 24.7695308799739 L 478.00781209603883 21.28515583992703 L 474.83593728003325 19.136718847963493 L 473.8046873600688 16.472655871941242 L 470.53125017601997 15.140625407919288 L 473.5000002560555 11.355468799942173 L 477.1875000320142 8.382812159950845 L 474.01562521606684 7.0546872319537215 L 477.28906240005745 3.6757811199640855 L 481.4921871360275 0.3984373759594746 L 482.3064167439152 0.0" fill="none"/><path stroke="#000000" stroke-width="2" d="M 482.3064167439152 0.0 L 481.4921871360275 0.3984373759594746 L 477.28906240005745 3.6757811199640855 L 474.01562521606684 7.0546872319537215 L 477.1875000320142 8.382812159950845 L 473.5000002560555 11.355468799942173 L 470.53125017601997 15.140625407919288 L 473.8046873600688 16.472655871941242 L 474.83593728003325 19.136718847963493 L 478.00781209603883 21.28515583992703 L 480.3593748480198 24.7695308799739 L 483.84374988806667 26.613280767924152 L 485.6874997760169 30.093750271946192 L 487.42968729604036 32.44921855995199 L 488.4531251200242 35.41796863992931 L 491.52343756804476 36.953124863968696 L 494.69531238405034 36.03125043195905 L 495.82812467205804 37.97656268795254 L 496.6406246400438 41.15234406397212 L 496.33593753603054 44.019530751917046 L 495.0078126080334 48.933594111935236 L 492.75000012805685 50.98437529592775 L 494.69531238405034 52.82421862392221 L 494.9062502400484 56.4101560319541 L 494.4921876480221 61.53124966396717 L 490.3984373760177 62.04296908795368 L 494.79687475203536 65.83203123195563 L 495.61718784004916 68.80078131193295 L 496.9531248640269 72.5898434559349 L 498.38281216006726 75.66015590395546 L 502.5859379200265 78.73437491193181 L 507.2968744960381 83.03515647992026 L 510.6718750720611 86.8242186239222 L 511.79687526402995 90.09765580797102 L 514.3593748480198 90.09765580797102 L 517.1250001920271 91.22656255995389 L 515.1796879360336 94.29687500797445 L 516.1015623680432 96.8593745919643 L 511.39062476804247 97.78125004796311 L 508.62500044802437 100.33984409592813 L 504.01562521606684 102.89843711996218 L 502.78906265605474 105.25390643195715 L 498.6875002880115 107.30078105593566 L 497.56250009604264 108.94140620797407 L 499.60937472002115 111.19531212793663 L 496.03125043201726 115.187500031956 L 493.6718745600665 117.33984358393354 L 490.0859371520346 119.38671923195943 L 488.3515627520392 122.45703167992178 L 483.6406251520384 124.71093759994255 L 481.898437632015 129.3203128319583 L 479.64843724801904 130.9570314239245 L 475.64843724801904 133.62109337595757 L 471.65625036804704 134.43749990395736 L 465.92187494406244 136.79296921595233 L 461.3124997120467 140.6835937279393 L 460.4999997440609 143.0390620159451 L 462.33593753603054 147.1367188479635 L 459.06250035203993 150.0039065599558 L 457.01562470401404 151.43750041595194 L 455.07031244802056 153.07421900791815 L 453.84374988806667 154.61328076792415 L 454.4531251200242 157.07031244796235 L 457.93750016001286 161.3710940159508 L 457.83593779202783 166.5937500159489 L 453.5312496640254 169.15234406397212 L 451.1796879360336 172.94140620797407 L 448.7187496960396 178.98437529592775 L 445.64843724801904 180.00781209592242 L 442.5781248000567 180.62109388795216 L 440.3203123200219 182.36328140791738 L 437.8671872000559 184.61328076792415 L 435.20312524802284 187.78906214394374 L 435.5078123520361 191.57812531193485 L 437.7656248320127 194.24218726396793 L 441.2421877760207 196.69921894394793 L 439.60937472002115 200.38281215995084 L 437.96874956804095 204.07031295995694 L 437.14843750401633 206.93749964796007 L 438.3750000640284 209.80468735995237 L 436.74218700802885 212.87890636792872 L 435.1015628800378 214.4140625919681 L 432.2343751680455 217.2812503039604 L 430.69531238405034 219.32812492793892 L 426.70312550402014 219.42968729592394 L 421.38281267206185 220.8632811519201 L 416.7734374400461 222.40234393597348 L 413.4921871360275 225.3710940159508 L 412.98437529604416 227.92968703992665 L 413.4921871360275 229.8750003199675 L 410.8281251840526 231.820312575961 L 407.554688000062 233.8710937599535 L 405.60937472002115 236.94140620797407 L 403.14843750401633 238.98828083195258 L 400.5937500160653 240.21874995192047 L 397.10937497601844 242.06249983992893 L 394.9609379840549 246.36328140791738 L 393.1171870720573 248.4101560319541 L 390.65624985605245 250.15234355191933 L 387.48437504004687 250.15234355191933 L 383.6953128960449 251.48046847997466 L 380.21093785605626 252.30078156793024 L 377.2421877760207 253.2226559999399 L 377.75781273603207 256.8085934079718 L 382.0546877440647 259.0585937919677 L 383.39062476804247 263.7695313919685 L 383.6953128960449 269.5039057919639 L 383.39062476804247 274.0117186559364 L 384.21093785605626 277.39062476792606 L 386.15625011204975 278.7187496959232 L 390.8671877120505 277.5937495039543 L 391.2734371840488 280.7695308799739 L 390.96875008003553 283.83984332793625 L 393.93750016001286 285.88671897596214 L 396.1874995200196 287.8320312319556 L 397.82812467205804 290.29296844796045 L 400.179687424039 292.85156249592546 L 401.61718784004916 294.38671871996485 L 404.179687424039 298.1757808639668 L 409.70312908804044 302.1679626239347 L 409.70312499202555 308.1093754879548 L 412.98437529604416 309.5429683199618 L 415.43750041606836 310.8749998079729 L 413.39062476804247 312.1015623679268 L 411.75781273603207 314.25390591996256 L 412.57031270401785 317.2226559999399 L 413.1875000320142 320.0898437119322 L 415.33593702403596 323.6757811199641 L 414.92968755203765 326.1328127999441 L 413.8046873600688 328.7929692159523 L 416.46093721606303 330.43359334394336 L 419.43750041606836 332.07031295995694 L 422.5078128640307 332.89062502392335 L 427.3203128320165 334.42578124796273 L 422.812499968044 338.11328102392145 L 425.2734371840488 342.7187496959232 L 424.4531251200242 344.7695308799739 L 422.71093760005897 347.01953126396984 L 425.07031244802056 350.29687500797445 L 427.42187520005973 351.7304688639706 L 429.88281241606455 352.0390625279397 L 433.6718745600665 353.4726563839358 L 430.69531238405034 355.8281246719416 L 434.9999994880636 357.3632808959228 L 439.19531212805305 357.97656268795254 L 441.554688000062 356.6484377599554 L 443.70312499202555 354.5976565759629 L 446.87499980803113 356.44140646397136 L 448.7187496960396 359.10546841594623 L 449.6406251520384 361.7656248319545 L 451.78906214406015 363.816406015947 L 452.0000000000582 367.6015626239241 L 447.898437632015 369.44531251193257 L 448.51562496001134 372.0078120959224 L 452.60937523201574 374.0546877439483 L 455.57812531205127 378.0468746239203 L 453.2265625600121 380.4023439359735 L 454.8671877120505 381.6328120319522 L 457.52343756804476 383.47656294394983 L 455.1718748160638 384.6015621119295 L 454.14843699202174 390.2343751679291 L 454.65624985605245 393.816406015947 L 456.71093760005897 401.0898442239268 L 455.78906214406015 404.26171903993236 L 453.5312496640254 405.4921871359693 L 451.0781245440594 405.6953128959285 L 448.51562496001134 406.1054689279408 L 448.921875456057 408.66796851193067 L 451.1796879360336 409.6914063359727 L 454.14843699202174 409.6914063359727 L 458.65624985605245 408.56249958393164 L 456.60156211204594 411.01953126396984 L 455.78906214406015 414.6054686719435 L 461.10937497601844 414.4023439359735 L 463.57031219202327 412.8632811519201 L 465.1015628800378 414.4023439359735 L 463.97656268806895 416.1406248959247 L 461.92968704004306 416.8593745919643 L 463.8750003200257 418.0859371519182 L 467.66406246402767 417.88281241594814 L 471.65625036804704 416.550780927937 L 471.4531246080296 420.5429688319564 L 474.62500044802437 421.97656268795254 L 473.5000002560555 424.74218700797064 L 471.4531246080296 426.9960939519224 L 466.33593753603054 430.57812479994027 L 463.57031219202327 431.5000002559391 L 461.10937497601844 430.57812479994027 L 459.47656294406625 428.6328125439468 L 459.57812531205127 425.8671871999395 L 456.0937502720626 429.5546879999456 L 458.1406248960411 433.8554685439449 L 461.6249999360298 437.9531253759633 L 459.06250035203993 440.61328076792415 L 456.914062336029 440.5117183999391 L 453.9453122560517 439.5898439679295 L 451.6874997760169 442.15234355191933 L 451.1796879360336 445.8359377919696 L 447.0781245440594 447.2695316479658 L 443.1875000320142 447.57812531193485 L 439.8125004800386 447.47656294394983 L 433.97656268806895 445.5312496639672 L 430.5937500160653 445.5312496639672 L 425.88281241606455 445.6328120319522 L 420.96875008003553 444.71093759994255 L 417.2812503040186 445.6328120319522 L 414.8281251840526 447.7812500479631 L 413.5937495040125 449.6249999359716 L 412.1640622080304 452.6992189439479 L 412.06249984004535 456.2812497919658 L 414.92968755203765 458.7382814719458 L 418.4140625920263 460.7890626559383 L 422.71093760005897 463.4492190719466 L 427.3203128320165 465.5000002559391 L 430.0859371520346 467.1367188479635 L 436.3281254400499 471.746094079921 L 437.0468751360313 475.3281249279389 L 435.7109370880644 477.5820308479597 L 433.25781299202936 480.9609379839385 L 430.1874995200196 484.33984409592813 L 426.9062502400484 487.4101565439487 L 423.5312496640254 488.84375039994484 L 421.1718748160638 489.0507816959289 L 416.97656217601616 488.5390622719424 L 415.43750041606836 489.7656248319545 L 415.85156300803646 491.71093708794797 L 418.51562496001134 494.273437695927 L 422.3046871040133 496.42187468794873 L 424.1406248960411 498.67578163195867 L 426.3984373760177 502.97656217595795 L 429.7734379520407 505.3320314879529 L 432.8515624960419 507.78906214394374 L 431.3124997120467 509.8359377919696 L 428.4453120000544 509.7343754239264 L 424.9609379840549 507.1757813759614 L 421.6874997760169 505.6367185919662 L 423.1171870720573 508.71093759994255 L 422.914062336029 513.1132815359742 L 419.9453122560517 512.6015621119295 L 415.85156300803646 511.57812531193485 L 414.914062336029 514.8476559359697 L 414.4140625920263 516.5976565759629 L 412.6718750720611 521.2031252479646 L 411.445312512049 524.4804689919692 L 409.19531212805305 526.2226565119345 L 404.9921873920248 527.0390620159451 L 402.43749990401557 527.6562503679306 L 399.3593753600144 527.9609374719439 L 395.47656294406625 526.8359372799168 L 392.3984373760177 526.5273436159478 L 389.6328120320686 528.0664063999429 L 386.97656217601616 532.6718750719447 L 384.0000000000582 536.9726566399331 L 379.70312499202555 538.20312473597 L 376.01562521606684 537.5859374079737 L 374.47656243201345 534.5156249599531 L 376.3203123200219 534.2070312959258 L 383.39062476804247 530.8281251839362 L 381.34375014406396 528.2695311359712 L 377.4531246080296 528.0624998399289 L 375.39843788801227 529.0898442239268 L 374.07031296001514 531.2382812159485 L 371.1015628800378 532.980468735972 L 369.15624960005516 534.8242186239222 L 366.1874995200196 535.640625151922 L 362.80468787206337 537.4843750399305 L 360.7578122240375 539.6367185919662 L 360.55468748806743 542.5039063039585 L 361.88281241606455 543.8359377919696 L 367.8203125760192 547.5195310079725 L 367.10937497601844 549.8750003199675 L 364.4453120000544 551.921874943946 L 361.7812500480213 552.5390622719424 L 355.43750041606836 552.4374999039574 L 352.0546877440647 556.6328125439468 L 351.0312499200227 558.9882808319526 L 350.21093785605626 562.1640622079722 L 349.4921871360275 567.3867192319594 L 347.1406254080357 571.9921879039612 L 344.47656243201345 574.656249855936 L 342.3281254400499 575.8867189759621 L 339.7656248320127 576.8085934079718 L 336.39062528003706 577.3203128319583 L 332.60156211204594 577.5234375679283 L 329.93750016001286 577.9335935999407 L 327.9921879040194 579.4687498239218 L 328.4999997440609 581.4140620799735 L 330.24218726402614 583.6679690239253 L 329.83593779202783 586.3281254399335 L 327.6796876800363 585.816406015947 L 325.32812492805533 586.1249996799743 L 322.7656253440655 588.9921873919666 L 319.5937495040125 591.1445309439441 L 316.21093785605626 592.7812495359685 L 313.2421877760207 593.6015626239241 L 310.5859379200265 596.0585932799731 L 307.4062499840511 598.1054689279408 L 305.25781299202936 599.0273433599505 L 303.92968704004306 599.9492188159493 L 302.28906291205203 600.4609372159466 L 298.60156211204594 602.3046871039551 L 292.56249958404806 603.535156223923 L 289.5937495040125 603.6367185919662 L 284.2656245760154 602.8164065279416 L 280.3750000640284 602.7148441599566 L 274.1249996800325 603.4296872959239 L 270.6484377600136 604.1484369919635 L 267.06250035203993 606.8085934079718 L 264.19531264004763 611.007812607917 L 261.2265625600121 612.9531248639687 L 256.7187496960396 612.4414064639714 L 252.21093785605626 609.0625003519235 L 249.34375014406396 607.7304688639706 L 244.74218700802885 607.3203128319583 L 240.75000012805685 607.7304688639706 L 239.1796879360336 608.3242188799195 L 237.56250009604264 608.7500001279404 L 233.24999987205956 611.0000005119364 L 230.0000000000582 613.0625003519235 L 226.49999974406091 614.4999997439445 L 221.1328122880659 614.4999997439445 L 220.88281292805914 614.4882810879499 L 220.59375001606531 614.4804689919692 L 214.43749990401557 614.0624998399289 L 210.93749964801827 615.1250001919689 L 209.55468800006201 616.1093754879548 L 206.43749990401557 618.277344255941 L 204.85156249604188 619.4570311679272 L 204.0000000000582 620.0624998399289 L 203.47656294406625 620.6328125439468 L 201.62499993602978 622.4765624319552 L 203.47656294406625 626.7773439999437 L 204.07031296001514 629.9492188159493 L 201.81250048003858 631.3124997119303 L 196.49999974406091 630.8749998079729 L 190.37500006402843 632.7500001279404 L 189.56250009604264 635.8125004799222 L 189.546874880034 635.8945310719428 L 188.93749964801827 638.8749998079729 L 191.42187520005973 643.1367188479635 L 190.96875008003553 644.1757808639668 L 188.49999974406091 647.5000002559391 L 188.59375001606531 647.8828124159481 L 188.52343705605017 647.9765626879525 L 189.30468761606608 650.9374996479601 L 189.4531246080296 651.4570311679272 L 191.33593702403596 658.5234370559338 L 189.75781273603207 660.5429688319564 L 188.89062502403976 661.2539064319571 L 186.9921873920248 661.9765626879525 L 185.12500019202707 662.4374999039574 L 181.12500019202707 662.6250004479662 L 178.06249984004535 663.437500415952 L 174.6875002880115 664.4999997439445 L 170.49999974406091 665.5000002559391 L 167.12500019202707 667.3124997119303 L 165.75781273603207 668.1093754879548 L 165.48437504004687 668.2500003839377 L 165.20312524802284 668.4296878079185 L 163.24999987205956 669.5625000959262 L 160.02343731204746 671.2265625599539 L 158.92968755203765 671.7304688639706 L 158.71093760005897 671.816406015947 L 154.62500044802437 673.2499998719431 L 151.62499993602978 674.6875002879533 L 148.56249958404806 675.1250001919689 L 144.812499968044 675.3124997119303 L 143.57812531205127 675.4882815999445 L 142.9531248640269 675.5195310079725 L 140.39062528003706 675.9296870399266 L 137.52343756804476 676.9531248639687 L 136.57031270401785 677.3945313279401 L 133.2812503040186 678.6367191039608 L 132.05468774406472 678.9882808319526 L 128.73437491204822 678.8164065279416 L 128.67187507206108 678.804687871947 L 125.3124997120467 677.187500031956 L 122.06249984004535 675.9375001599547 L 117.87500032002572 674.1249996799743 L 114.37500006402843 672.8749998079729 L 111.5000002560555 672.2500003839377 L 107.5000002560555 670.6250004479662 L 103.42968729604036 669.3242183679249 L 103.01562470401404 669.1718748159474 L 102.40625049604569 668.9687500799191 L 99.62499993602978 667.9375001599547 L 96.56249958404806 667.3124997119303 L 84.25000038405415 669.3749995519174 L 80.56249958404806 671.8750003199675 L 76.87499980803113 673.6874997759587 L 76.39062528003706 674.2226565119345 L 73.90624972805381 676.8789063679287 L 72.32031232002191 677.8007807999384 L 69.42968729604036 679.4101565439487 L 67.39062476804247 679.7773434879491 L 65.62499993602978 680.0624998399289 L 62.43749990401557 680.0624998399289 L 57.62499993602978 678.3750000639702 L 51.3203128320165 678.2460938239237 L 48.85156249604188 678.1835939839366 L 48.66406297602225 678.1914060799172 L 48.562499584048055 678.1874995199614 L 43.5000002560555 678.1874995199614 L 38.499999744060915 679.187500031956 L 27.74999961606227 679.0000005119364 L 23.062500352039933 678.1874995199614 L 20.062499840045348 678.3750000639702 L 20.023437312047463 678.3867187199648 L 19.96874956804095 678.3867187199648 L 19.42187520005973 678.5664061439456 L 15.87500032002572 679.6249999359716 L 14.937499648018274 682.027343871945 L 14.750000128056854 682.4843745279359 L 12.60156211204594 685.2499998719431 L 8.203124736028258 687.4023434239207 L 7.687499776016921 687.6249999359716 L 0.625000448024366 690.4999997439445 L 0.0 690.6593135757648" fill="none"/></svg>