<svg xmlns="http://www.w3.org/2000/svg" width="1024" height="1024"><rect stroke="none" x="0" y="0" width="1024" height="1024" fill="white"/><path stroke="#000000" stroke-width="2" d="M 171.93308160005836 1007.1939481599256 L 178.48668160004308 1007.2963481599581 L 180.63596953602973 1007.2963481599581 L 182.98310656001559 1007.3315532799461 L 197.0128660480259 1007.4507028479711 L 199.88828160002595 1007.5011481599649 L 202.8216176640126 1007.5011481599649 L 204.04052992002107 1007.5107532799593 L 230.9348270080518 1007.7540577279287 L 234.19228160002967 1007.808348159946 L 257.8466816000291 1008.0131481599528 L 258.3901788160438 1007.9980503039551 L 264.2877050880343 1007.9107481599203 L 278.8386816000566 1007.9107481599203 L 292.25308160006534 1008.0131481599528 L 304.76242432004074 1008.0131481599528 L 323.6010700800689 1008.2645299199503 L 330.7578193920199 1008.3628031999688 L 333.725081600016 1008.4227481599664 L 337.7476392960525 1008.4586639359477 L 349.08844953606604 1008.6116945919348 L 349.8018816000549 1008.6275481599732 L 354.1025669120136 1008.6793635839713 L 367.9663083520136 1008.8708945919643 L 379.1906816000119 1009.2419481599354 L 383.4573383680545 1009.4403973119333 L 396.1002700800309 1010.0991999999387 L 404.52072243206203 1010.5360814079177 L 405.2002816000604 1010.5731481599505 L 420.15068160003284 1011.8019481599331 L 421.83661977603333 1011.8862448639702 L 425.2273766400176 1012.1528934399248 L 426.70241075201193 1012.3310899199569 L 429.67388160002884 1012.7235481599346 L 431.877201920026 1012.9554769919487 L 438.4453120000544 1013.7460951039684 L 455.28747008001665 1015.7852467199555 L 455.9763886080473 1015.7938606079551 L 472.16988160001347 1016.000348159927 L 476.23940403206507 1016.000348159927 L 480.4096000000136 1016.0440934399376 L 523.9665766400285 1015.1196467199479 L 526.4226150400355 1015.0787481599255 L 528.2850816000137 1015.0787481599255 L 533.5074816000415 1014.9763481599512 L 543.0306816000375 1015.0787481599255 L 563.6130816000514 1015.2835481599323 L 571.3954816000187 1015.5907481599716 L 573.951058944047 1015.6398940159706 L 578.7530352640315 1015.8163455999456 L 580.0994816000457 1015.8979481599526 L 596.7906816000468 1016.512348159973 L 598.5953812480439 1016.5463992319419 L 605.6377692160313 1016.8083271679352 L 613.0722816000343 1017.2291481599677 L 618.1922816000297 1017.331548159942 L 620.7522816000273 1017.4339481599745 L 627.5106816000189 1017.6387481599231 L 631.5042816000641 1017.5363481599488 L 632.8229120000615 1017.5082926079631 L 635.8641766400542 1017.4691532799625 L 641.3409413120244 1017.5511562239262 L 647.9906816000585 1017.7411481599556 L 658.6402816000627 1018.0483481599367 L 667.446681600064 1018.3555481599178 L 669.4728591360617 1018.3930695679737 L 675.8718566400348 1018.6069852159708 L 686.9026816000114 1019.174748159945 L 689.6748789760168 1019.2613795839716 L 697.7621299200109 1019.7333299199236 L 700.5654528000159 1019.9391969279386 L 702.2626816000557 1020.0963481599465 L 703.5644938240293 1020.0963481599465 L 704.5660467200214 1020.1230233599199 L 705.2519045120571 1020.0963481599465 L 705.6418816000223 1020.0963481599465 L 713.2883732480113 1019.7993973759585 L 719.8559764480451 1019.6358195199282 L 723.5618816000642 1019.5843481599586 L 735.1330816000118 1019.6867481599329 L 741.0937415680382 1019.6867481599329 L 747.300976640021 1019.6991999999736 L 762.2001766400645 1019.4716467199614 L 786.9610700800549 1018.9909299199353 L 808.3000934400479 1018.5813299199217 L 809.105070080026 1018.5671065599308 L 809.5494778880384 1018.5603481599246 L 811.318681600038 1018.5603481599246 L 812.5283031040453 1018.5155461119721 L 822.5934233600274 1018.3679999999586 L 834.7932467200444 1018.1916467199335 L 836.6933299200609 1018.1660467199399 L 837.6401459200424 1018.1507481599692 L 838.045081600023 1018.1507481599692 L 845.3154816000606 1018.0483481599367 L 846.4430172160501 1018.0253368319245 L 846.8167065600283 1018.0209766399348 L 851.4872934400337 1017.9811532799504 L 869.1746816000668 1017.8435481599299 L 870.9779845120502 1017.8782269439544 L 874.5272934400127 1017.9555532799568 L 878.4014233600465 1017.9925299199531 L 878.748446720012 1017.9982233599294 L 893.9721031680238 1018.1376501759514 L 894.672281600011 1018.1507481599692 L 896.2876753920573 1018.1507481599692 L 906.8516485120635 1018.2104207359371 L 911.568281600019 1018.3555481599178 L 916.9954816000536 1018.2531481599435 L 922.8322816000436 1018.1507481599692 L 924.6365194240352 1018.0943646719679 L 926.4298700800282 1018.072176639922 L 928.7491727360175 1018.0483481599367 L 933.9938816000358 1018.0483481599367 L 935.8671646720613 1017.9734159359359 L 946.1845299200504 1017.8673766399734 L 946.7818700800417 1017.8588467199588 L 948.3109908480546 1017.8435481599299 L 949.9682816000422 1017.8435481599299 L 950.8613294080133 1017.8180321279215 L 958.6225039360579 1017.7411481599556 L 961.1298816000344 1017.7411481599556 L 968.4002816000138 1017.6387481599231 L 972.4376074240427 1017.5611074559274 L 989.900656640064 1017.2447487999452 L 991.1330816000118 1017.2291481599677 L 992.3931340800482 1017.1984148479532 L 998.4824934400385 1017.0823065599543 L 1004.5895178240607 1016.9261025279411 L 1010.0770816000295 1016.8195481599541 L 1015.5042816000641 1016.7171481599216 L 1024.0 1016.5525823973876" fill="none"/><path stroke="#000000" stroke-width="2" d="M 0.0 1009.1012569202067 L 1.0274816000601277 1009.1395481599611 L 3.5251394560327753 1008.8620298239402 L 4.101693440054078 1008.8760934399324 L 18.662400000030175 1009.1889766399399 L 22.593423360027373 1009.2714700799552 L 24.487659520062152 1009.3131458559656 L 32.66908160003368 1009.5491481599747 L 57.7570816000225 1009.4467481599422 L 65.12988160003442 1009.1395481599611 L 69.25664870406035 1008.6362839039648 L 93.51964672002941 1008.0369766399381 L 95.04288153606467 1008.0131481599528 L 96.46428160002688 1008.0131481599528 L 103.7346816000645 1007.9107481599203 L 108.64988160005305 1007.808348159946 L 109.77684582403162 1007.7874780159327 L 134.07004672003677 1007.4197299199295 L 134.4035225600237 1007.4022543359315 L 134.65948160004336 1007.3987481599324 L 157.39228160004131 1006.9891481599188 L 159.8862090240582 1006.9891481599188 L 168.61215641605668 1007.1184721919708 L 171.93308160005836 1007.1939481599256" fill="none"/></svg>