<svg xmlns="http://www.w3.org/2000/svg" width="1024" height="1024"><rect stroke="none" x="0" y="0" width="1024" height="1024" fill="white"/><path stroke="#000000" stroke-width="2" d="M 395.06250035203993 0.0 L 395.06250035203993 7.769531391968485 L 394.9609379840549 10.843750399944838 L 394.7578122240375 12.683593727939297 L 394.65624985605245 21.796875263971742 L 394.65624985605245 29.683594239933882 L 394.7578122240375 35.92968703992665 L 394.65624985605245 50.367187967931386 L 394.65624985605245 57.125000191968866 L 394.4453120000544 61.83593779196963 L 394.4453120000544 66.03515596792568 L 394.0390625280561 86.10546892794082 L 393.83593779202783 95.83203123195563 L 393.7343754240428 100.54296883195639 L 393.6328120320104 111.70703155192314 L 393.42187520005973 116.00781209592242 L 393.3203128320165 125.32421836792491 L 393.42187520005973 129.21484390395926 L 393.2187504640315 140.17187532794196 L 393.1171870720573 145.39453132794006 L 392.914062336029 153.69140633597272 L 392.812499968044 158.39843737595947 L 392.71093760005897 161.67578111996409 L 392.71093760005897 166.28515635192161 L 392.3984373760177 185.43359385593794 L 392.3984373760177 188.9140623359708 L 392.29687500803266 192.80859340797178 L 392.0937502720626 199.56640665594023 L 391.9921879040194 203.96874956792453 L 391.6796876800363 214.20703129592584 L 391.57812531205127 218.71484415995656 L 391.57812531205127 229.56640665594023 L 391.47656294406625 232.9492183039547 L 391.37499955203384 244.72265625593718 L 391.37499955203384 260.5937500159489 L 391.47656294406625 265.61328127991874 L 391.37499955203384 275.6484372479608 L 391.2734371840488 280.15234355191933 L 391.1718748160638 284.453125119966 L 391.2734371840488 290.0859371519182 L 391.2734371840488 295.20703078393126 L 391.1718748160638 305.0390620159451 L 391.2734371840488 310.8749998079729 L 391.37499955203384 316.9140623359708 L 391.47656294406625 320.6015621119295 L 391.2734371840488 325.4140620799735 L 391.47656294406625 329.1015628799214 L 391.47656294406625 334.7343749119318 L 391.47656294406625 349.1718748159474 L 391.57812531205127 354.5976565759629 L 391.57812531205127 360.84375039994484 L 391.6796876800363 364.94140620797407 L 391.6796876800363 372.4179691519239 L 391.57812531205127 380.1992191999452 L 391.47656294406625 383.7812500479631 L 391.6796876800363 392.1796874239226 L 391.8906245120452 399.34765670396155 L 391.78906214406015 405.4921871359693 L 391.78906214406015 415.11718707194086 L 391.8906245120452 419.21484390395926 L 391.78906214406015 423.5156254719477 L 391.8906245120452 428.12109414394945 L 391.8906245120452 431.80859391996637 L 391.9921879040194 435.69921843195334 L 391.8906245120452 438.15625011193333 L 392.0937502720626 443.3789061119314 L 391.9921879040194 446.9648435199633 L 391.9921879040194 460.07031295995694 L 392.0937502720626 462.6289059839328 L 392.19531264004763 466.8281251839362 L 392.0937502720626 469.90234419197077 L 392.0937502720626 473.5859374079737 L 392.19531264004763 476.14843699196354 L 392.19531264004763 479.11718707194086 L 392.29687500803266 483.0078126079752 L 392.3984373760177 489.97265612793854 L 392.4999997440609 498.47265587194124 L 392.4999997440609 511.98828134394716 L 392.29687500803266 520.5898434559349 L 392.19531264004763 528.5781247999403 L 392.19531264004763 534.7187496959232 L 392.0937502720626 539.4296872959239 L 391.9921879040194 542.6054686719435 L 391.9921879040194 563.4960936959251 L 392.0937502720626 567.7968752639717 L 392.0937502720626 573.6328120319522 L 391.9921879040194 581.4140620799735 L 391.9921879040194 585.714843647962 L 391.8906245120452 588.171875327942 L 391.8906245120452 593.19140659197 L 391.78906214406015 599.746094079921 L 391.6796876800363 604.453125119966 L 391.6796876800363 608.2421872639679 L 391.57812531205127 618.5859379199683 L 391.57812531205127 633.1250001919689 L 391.6796876800363 636.1992191999452 L 391.57812531205127 639.9882813439472 L 391.57812531205127 647.6679690239253 L 391.6796876800363 650.9453127679299 L 391.57812531205127 655.0390620159451 L 391.57812531205127 671.4257817599573 L 391.2734371840488 678.2851563519216 L 391.47656294406625 692.6210938879522 L 391.57812531205127 695.6914063359727 L 391.47656294406625 703.4765629439498 L 391.47656294406625 710.3359375359723 L 391.37499955203384 721.19140659197 L 391.37499955203384 726.2070312959258 L 391.2734371840488 736.7539066879544 L 391.37499955203384 741.1601561599527 L 391.1718748160638 751.7070315519231 L 391.1718748160638 774.4374999039574 L 390.96875008003553 781.1953121279366 L 391.07031244802056 786.1132810239214 L 391.07031244802056 789.390624767926 L 390.96875008003553 793.0742190079181 L 390.96875008003553 811.4062499839347 L 390.8671877120505 825.0234378239256 L 390.7656253440655 831.5781253119349 L 390.65624985605245 837.6210933759576 L 390.65624985605245 845.3007810559357 L 390.7656253440655 853.9023441919708 L 390.7656253440655 859.9414067199687 L 390.96875008003553 868.2382817279431 L 391.07031244802056 877.2499998719431 L 391.07031244802056 896.2929684479604 L 390.96875008003553 902.2343751679291 L 390.96875008003553 914.3164057599497 L 391.07031244802056 918.5156249599531 L 391.07031244802056 935.4101565439487 L 391.1718748160638 942.171875327942 L 391.1718748160638 947.390624767926 L 391.2734371840488 950.6679685119307 L 391.2734371840488 965.5156254719477 L 391.2734371840488 972.8906250239233 L 391.1718748160638 981.183593471942 L 391.1718748160638 991.2187504639733 L 391.2734371840488 1010.4687503359746 L 391.1718748160638 1014.8749998079729 L 391.1718748160638 1022.554687487951 L 391.14137313040555 1024.0" fill="none"/><path stroke="#000000" stroke-width="2" d="M 391.14137313040555 1024.0 L 391.1718748160638 1022.554687487951 L 391.1718748160638 1014.8749998079729 L 391.2734371840488 1010.4687503359746 L 391.1718748160638 991.2187504639733 L 391.1718748160638 981.183593471942 L 391.2734371840488 972.8906250239233 L 391.2734371840488 965.5156254719477 L 391.2734371840488 950.6679685119307 L 391.1718748160638 947.390624767926 L 391.1718748160638 942.171875327942 L 391.07031244802056 935.4101565439487 L 391.07031244802056 918.5156249599531 L 390.96875008003553 914.3164057599497 L 390.96875008003553 902.2343751679291 L 391.07031244802056 896.2929684479604 L 391.07031244802056 877.2499998719431 L 390.96875008003553 868.2382817279431 L 390.7656253440655 859.9414067199687 L 390.7656253440655 853.9023441919708 L 390.65624985605245 845.3007810559357 L 390.65624985605245 837.6210933759576 L 390.7656253440655 831.5781253119349 L 390.8671877120505 825.0234378239256 L 390.96875008003553 811.4062499839347 L 390.96875008003553 793.0742190079181 L 391.07031244802056 789.390624767926 L 391.07031244802056 786.1132810239214 L 390.96875008003553 781.1953121279366 L 391.1718748160638 774.4374999039574 L 391.1718748160638 751.7070315519231 L 391.37499955203384 741.1601561599527 L 391.2734371840488 736.7539066879544 L 391.37499955203384 726.2070312959258 L 391.37499955203384 721.19140659197 L 391.47656294406625 710.3359375359723 L 391.47656294406625 703.4765629439498 L 391.57812531205127 695.6914063359727 L 391.47656294406625 692.6210938879522 L 391.2734371840488 678.2851563519216 L 391.57812531205127 671.4257817599573 L 391.57812531205127 655.0390620159451 L 391.6796876800363 650.9453127679299 L 391.57812531205127 647.6679690239253 L 391.57812531205127 639.9882813439472 L 391.6796876800363 636.1992191999452 L 391.57812531205127 633.1250001919689 L 391.57812531205127 618.5859379199683 L 391.6796876800363 608.2421872639679 L 391.6796876800363 604.453125119966 L 391.78906214406015 599.746094079921 L 391.8906245120452 593.19140659197 L 391.8906245120452 588.171875327942 L 391.9921879040194 585.714843647962 L 391.9921879040194 581.4140620799735 L 392.0937502720626 573.6328120319522 L 392.0937502720626 567.7968752639717 L 391.9921879040194 563.4960936959251 L 391.9921879040194 542.6054686719435 L 392.0937502720626 539.4296872959239 L 392.19531264004763 534.7187496959232 L 392.19531264004763 528.5781247999403 L 392.29687500803266 520.5898434559349 L 392.4999997440609 511.98828134394716 L 392.4999997440609 498.47265587194124 L 392.3984373760177 489.97265612793854 L 392.29687500803266 483.0078126079752 L 392.19531264004763 479.11718707194086 L 392.19531264004763 476.14843699196354 L 392.0937502720626 473.5859374079737 L 392.0937502720626 469.90234419197077 L 392.19531264004763 466.8281251839362 L 392.0937502720626 462.6289059839328 L 391.9921879040194 460.07031295995694 L 391.9921879040194 446.9648435199633 L 392.0937502720626 443.3789061119314 L 391.8906245120452 438.15625011193333 L 391.9921879040194 435.69921843195334 L 391.8906245120452 431.80859391996637 L 391.8906245120452 428.12109414394945 L 391.78906214406015 423.5156254719477 L 391.8906245120452 419.21484390395926 L 391.78906214406015 415.11718707194086 L 391.78906214406015 405.4921871359693 L 391.8906245120452 399.34765670396155 L 391.6796876800363 392.1796874239226 L 391.47656294406625 383.7812500479631 L 391.57812531205127 380.1992191999452 L 391.6796876800363 372.4179691519239 L 391.6796876800363 364.94140620797407 L 391.57812531205127 360.84375039994484 L 391.57812531205127 354.5976565759629 L 391.47656294406625 349.1718748159474 L 391.47656294406625 334.7343749119318 L 391.47656294406625 329.1015628799214 L 391.2734371840488 325.4140620799735 L 391.47656294406625 320.6015621119295 L 391.37499955203384 316.9140623359708 L 391.2734371840488 310.8749998079729 L 391.1718748160638 305.0390620159451 L 391.2734371840488 295.20703078393126 L 391.2734371840488 290.0859371519182 L 391.1718748160638 284.453125119966 L 391.2734371840488 280.15234355191933 L 391.37499955203384 275.6484372479608 L 391.47656294406625 265.61328127991874 L 391.37499955203384 260.5937500159489 L 391.37499955203384 244.72265625593718 L 391.47656294406625 232.9492183039547 L 391.57812531205127 229.56640665594023 L 391.57812531205127 218.71484415995656 L 391.6796876800363 214.20703129592584 L 391.9921879040194 203.96874956792453 L 392.0937502720626 199.56640665594023 L 392.29687500803266 192.80859340797178 L 392.3984373760177 188.9140623359708 L 392.3984373760177 185.43359385593794 L 392.71093760005897 166.28515635192161 L 392.71093760005897 161.67578111996409 L 392.812499968044 158.39843737595947 L 392.914062336029 153.69140633597272 L 393.1171870720573 145.39453132794006 L 393.2187504640315 140.17187532794196 L 393.42187520005973 129.21484390395926 L 393.3203128320165 125.32421836792491 L 393.42187520005973 116.00781209592242 L 393.6328120320104 111.70703155192314 L 393.7343754240428 100.54296883195639 L 393.83593779202783 95.83203123195563 L 394.0390625280561 86.10546892794082 L 394.4453120000544 66.03515596792568 L 394.4453120000544 61.83593779196963 L 394.65624985605245 57.125000191968866 L 394.65624985605245 50.367187967931386 L 394.7578122240375 35.92968703992665 L 394.65624985605245 29.683594239933882 L 394.65624985605245 21.796875263971742 L 394.7578122240375 12.683593727939297 L 394.9609379840549 10.843750399944838 L 395.06250035203993 7.769531391968485 L 395.06250035203993 0.0" fill="none"/><path stroke="#408040" stroke-width="3" d="M 498.4012800000055 937.7382399999988 L 498.4115199999942 937.4207999999999 L 498.44224000000395 937.4003200000006 L 498.70848000000115 937.4003200000006 L 498.75968000000285 937.4310400000031 L 498.7699200000061 937.4515200000023 L 498.73919999999634 937.9532800000015 L 498.89280000000144 937.9635199999975 L 499.8041599999997 937.9839999999967 L 500.02943999999843 937.99424 L 501.534719999996 938.0044800000032 L 502.41535999999905 938.0147199999992 L 507.17695999999705 938.0556799999977 L 507.49439999999595 938.0659200000009 L 507.59679999999935 938.1068799999994 L 507.7196799999947 938.1171200000026 L 509.7369599999947 938.1376000000018 L 511.098880000005 938.1478399999978 L 511.2320000000036 938.0966400000034 L 511.38559999999416 938.1068799999994 L 512.4812800000072 938.1171200000026 L 514.1299200000067 938.1273599999986 L 517.0380799999984 938.1580800000011 L 520.0691200000001 938.1785600000003 L 527.6467200000043 938.2195199999987 L 529.1622400000051 938.2092800000028 L 529.6537600000011 938.168319999997 L 531.2511999999988 937.99424 L 532.4697600000072 937.8406400000022 L 532.9715200000064 937.7894400000005 L 533.1148799999937 937.8406400000022 L 533.9340800000064 937.8406400000022 L 535.5315200000041 937.8406400000022 L 537.630720000001 937.8406400000022 L 538.5523200000025 937.8713599999974 L 538.7878400000045 937.8508799999981 L 538.9926399999968 937.8099199999997 L 539.3612799999974 937.8201600000029 L 539.96544 937.8406400000022 L 540.5798400000058 937.8508799999981 L 542.627840000001 937.9020799999998 L 544.6963200000027 937.9532800000015 L 552.7244800000044 938.1478399999978 L 554.9977599999984 938.1888000000035 L 558.5408000000025 938.229760000002 L 562.0224000000017 938.2707200000004 L 566.6406399999978 938.3321599999981 L 573.3683199999941 938.4243199999983 L 579.3689600000071 938.4959999999992 L 582.9734400000016 938.5472000000009 L 587.4790400000056 938.6905600000027 L 589.8137600000045 938.7212799999979 L 590.7763200000045 938.7212799999979 L 591.7900800000061 938.7520000000004 L 592.2918400000053 938.7417599999972 L 592.9881599999935 938.7417599999972 L 595.9372799999983 938.7520000000004 L 604.784639999998 938.8236800000013 L 607.1603199999954 938.8441600000006 L 607.9897599999967 938.8236800000013 L 609.1468800000002 938.8543999999965 L 611.2563200000004 938.885119999999 L 612.0243199999968 938.9055999999982 L 614.9427200000064 938.9567999999999 L 618.2092799999955 938.9977599999984 L 621.8035200000013 939.0592000000033 L 626.8825599999982 939.1513600000035 L 633.4771199999959 939.2230399999971 L 637.726720000006 939.2640000000029 L 639.3446399999957 939.2844800000021 L 640.4812800000072 939.294719999998 L 640.9216000000015 939.3868799999982 L 641.2902400000021 939.4892800000016 L 641.8227199999965 939.6940800000011 L 642.6316800000059 940.2163199999995 L 643.7273600000044 940.9945599999992 L 644.1574399999954 941.2607999999964 L 644.5158399999927 941.4041599999982 L 644.7923199999932 941.4860800000024 L 645.1814400000003 941.5475200000001 L 645.4169600000023 941.5679999999993 L 645.8470399999933 941.5577600000033 L 646.3385600000038 941.4553599999999 L 646.7584000000061 941.3017600000021 L 648.1612800000003 940.6873600000035 L 648.6118399999978 940.5337599999984 L 648.7449599999964 940.4928 L 648.8166400000046 940.4313600000023 L 649.1443200000067 940.3699199999974 L 649.4412799999991 940.3084799999997 L 650.2707200000004 940.1855999999971 L 650.9977599999984 940.0934399999969 L 652.0627200000017 940.0012799999968 L 652.6259200000059 939.9705600000016 L 653.5987199999945 939.9500800000023 L 656.0460800000001 939.9603199999983 L 660.4697600000072 939.9910400000008 L 667.0233600000065 940.0319999999992 L 671.4163200000039 940.0627200000017 L 686.8070399999997 940.1548800000019 L 701.4809600000008 940.247040000002 L 726.9171199999982 940.4211199999991 L 753.4489599999943 940.6054399999994 L 773.4784000000072 940.7488000000012 L 777.5436800000025 940.7795199999964 L 782.1414400000067 940.8307199999981 L 787.4355199999991 940.9536000000007 L 792.3302399999957 941.0559999999969 L 801.1571200000035 941.2607999999964 L 810.9465599999967 941.4758399999992 L 854.1593600000051 942.4691200000016 L 867.0412800000049 942.7763199999972 L 907.3151999999973 943.7491200000004 L 924.7129600000044 944.1689600000027 L 938.0351999999984 944.4966399999976 L 965.7856000000029 945.1827199999971 L 973.680640000006 945.3875199999966 L 980.3571200000006 945.5616000000009 L 988.3033600000053 945.725440000002 L 998.6355199999962 945.9199999999983 L 1004.5337600000057 946.0326399999976 L 1011.2716800000053 946.206720000002 L 1022.8940799999982 946.5139199999976 L 1024.0 946.5403300298494" fill="none"/><path stroke="#408040" stroke-width="3" d="M 498.4012800000055 937.7382399999988 L 539.3612799999974 937.8201600000029 L 614.9427200000064 938.9567999999999 L 641.8227199999965 939.6940800000011 L 646.7584000000061 941.3017600000021 L 650.9977599999984 940.0934399999969 L 671.4163200000039 940.0627200000017 L 701.4809600000008 940.247040000002 L 753.4489599999943 940.6054399999994 L 810.9465599999967 941.4758399999992 L 938.0351999999984 944.4966399999976 L 1024.0 946.362931939686" fill="none"/><path stroke="#408040" stroke-width="3" d="M 369.4591999999975 946.2784000000029 L 369.4591999999975 947.2511999999988 L 370.5344000000041 947.2511999999988 L 373.75999999999476 947.261440000002 L 377.1392000000051 947.3024000000005 L 380.5798400000058 947.3536000000022 L 381.8291199999949 947.3638399999982 L 382.5254399999976 947.3740800000014 L 383.1603199999954 947.3638399999982 L 383.4777599999943 947.3433599999989 L 383.92832000000635 947.2511999999988 L 384.14336000000185 947.2102400000003 L 384.19456000000355 947.2409600000028 L 384.2048000000068 947.2409600000028 L 384.25599999999395 947.2511999999988 L 384.29696000000695 947.2511999999988 L 384.82944000000134 947.097600000001 L 385.1571200000035 946.9849600000016 L 385.54623999999603 946.8006400000013 L 386.1913599999971 946.4320000000007 L 388.93567999999505 944.773119999998 L 390.2156799999939 943.9948799999984 L 391.65952000000107 943.165439999997 L 392.2534400000004 942.8275199999989 L 393.18528000000515 942.2540799999988 L 394.29120000000694 941.5884799999985 L 395.95007999999507 940.5849600000001 L 397.4143999999942 939.6940800000011 L 400.91647999999986 937.584640000001 L 401.6640000000043 937.1545600000027 L 402.37055999999575 936.8166399999973 L 403.02592000000004 936.5811200000026 L 403.4355199999991 936.4684800000032 L 403.8246400000062 936.386559999999 L 404.4083200000023 936.3046400000021 L 404.96128000000317 936.2636799999964 L 407.50079999999434 936.2841600000029 L 409.3439999999973 936.3148799999981 L 421.6524800000043 936.4991999999984 L 426.3833600000071 936.5811200000026 L 428.8614399999933 936.6835199999987 L 430.58176000000094 936.7551999999996 L 432.41472000000067 936.8371199999965 L 434.2988800000021 936.8883199999982 L 435.6403200000059 936.9190400000007 L 436.6438400000043 936.9395199999999 L 443.67871999999625 937.113599999997 L 445.5219199999992 937.1340800000035 L 446.35136000000057 937.113599999997 L 447.3446399999957 937.0726399999985 L 447.4470399999991 937.0214399999968 L 449.5564799999993 937.0521599999993 L 452.56703999999445 937.1443199999994 L 453.79584000000614 937.1750400000019 L 454.22591999999713 937.1852799999979 L 454.4409600000072 937.2364799999996 L 455.74143999999797 937.267200000002 L 456.151039999997 937.277439999998 L 456.9190399999934 937.267200000002 L 457.1443200000067 937.2569599999988 L 457.287679999994 937.2262400000036 L 458.5267199999944 937.2569599999988 L 461.82399999999325 937.3183999999965 L 463.8310400000046 937.349119999999 L 465.5616000000009 937.338880000003 L 467.3024000000005 937.277439999998 L 469.2684799999988 937.1955200000011 L 470.98880000000645 937.1852799999979 L 476.06784000000334 937.3081600000005 L 478.5971200000058 937.3798400000014 L 478.7302400000044 937.4207999999999 L 479.20127999999386 937.4310400000031 L 479.5801599999977 937.4412799999991 L 481.3926400000055 937.4924800000008 L 481.9967999999935 937.51296 L 482.1606400000019 937.4822399999975 L 484.77184000000125 937.5539199999985 L 487.6492799999978 937.6460799999986 L 495.3087999999989 937.8713599999974 L 497.5923199999961 937.9225599999991 L 498.17600000000675 937.9328000000023 L 498.1964799999987 937.584640000001 L 498.1964799999987 937.51296 L 498.4012800000055 937.51296 L 498.4012800000055 937.7382399999988" fill="none"/><path stroke="#408040" stroke-width="3" d="M 369.4591999999975 946.2784000000029 L 369.41823999999906 961.0751999999993 L 369.4591999999975 962.2937600000005 L 369.6947199999995 963.215360000002 L 369.8483200000046 965.9084799999982 L 369.91999999999825 967.9564800000007 L 369.73567999999796 969.4207999999999 L 368.83456000000297 974.4486400000023 L 368.41472000000067 975.2678400000004 L 367.7900800000061 975.9948799999984 L 366.3564800000022 977.1929600000003 L 365.9673599999951 977.6947199999995 L 365.66015999999945 978.3500799999965 L 365.4553600000072 979.2102400000003 L 365.383679999999 980.3468799999973 L 365.47583999999915 981.831680000003 L 365.9878400000016 984.7091199999995 L 366.34623999999894 986.5625599999985 L 366.5715199999977 988.7948800000013 L 366.284799999994 999.0963199999969 L 366.11071999999695 1001.9020799999998 L 366.08000000000175 1004.0524799999985 L 368.91647999999986 1004.5952000000034 L 370.42175999999745 1005.1071999999986 L 371.66079999999783 1005.8137599999973 L 374.2719999999972 1007.5033600000024 L 378.40896000000066 1009.9712 L 388.56703999999445 1016.6169599999994 L 390.2873600000021 1017.9788800000024 L 392.69375999999465 1020.8051199999973 L 393.45152000000235 1021.8803199999966 L 393.4719999999943 1022.1158399999986 L 393.90207999999984 1022.4230400000015 L 394.32192000000214 1022.7507199999964 L 394.69056000000273 1023.1705599999987 L 395.3373710091837 1024.0" fill="none"/></svg>