<svg xmlns="http://www.w3.org/2000/svg" width="1024" height="1024"><rect stroke="none" x="0" y="0" width="1024" height="1024" fill="white"/><path stroke="#000000" stroke-width="2" d="M 1024.0 3.1334091152530164 L 1022.2656245760154 3.4687498239218257 L 1018.1640622080304 4.082031615951564 L 1015.5078123520361 4.800781311932951 L 1011.7187502080342 5.312499711930286 L 1007.6171878400492 5.925781503960025 L 1004.0390625280561 6.234375167929102 L 999.015624704014 6.234375167929102 L 994.7187496960396 6.644531199941412 L 990.7265628160094 6.3359375359723344 L 985.195312128053 6.644531199941412 L 981.9140628480236 6.746093567926437 L 978.2343751680455 5.8242191359749995 L 974.9531248640269 5.515625471947715 L 967.476562944008 4.289062911935616 L 962.8671877120505 3.1601561599527486 L 959.6953128960449 1.8320312319556251 L 954.6796871680417 0.7031255039619282 L 952.1318930674606 0.0" fill="none"/><path stroke="#000000" stroke-width="2" d="M 952.1318930673879 0.0 L 954.6796871680999 0.7031255040201358 L 959.6953128961031 1.8320312320138328 L 962.8671877120505 3.1601561599527486 L 967.4765629440662 4.289062911819201 L 974.9531248640269 5.515625471889507 L 978.2343751680455 5.824219135916792 L 981.9140628480236 6.746093567926437 L 985.1953121281113 6.644531199941412 L 990.7265628160094 6.335937535914127 L 994.7187496960978 6.644531199941412 L 999.015624704014 6.234375167929102 L 1004.0390625281143 6.234375167929102 L 1007.6171878400492 5.925781503901817 L 1011.7187502081506 5.312499711930286 L 1015.5078123521525 4.8007813118747436 L 1018.1640622080304 4.0820316158933565 L 1022.2656245760736 3.4687498239218257 L 1024.0 3.1334091151948087" fill="none"/><path stroke="#408040" stroke-width="3" d="M 168.1804435547965 0.0 L 176.05632000000332 7.33183999999892 L 212.02943999999843 24.30975999999646 L 228.6489600000059 28.80511999999726 L 246.1388799999986 29.655039999997825 L 267.8784000000014 29.77792000000045 L 282.94143999999505 34.51903999999922 L 323.61471999999776 35.14368000000104 L 377.4156800000055 40.65280000000348 L 437.5040000000008 50.08383999999933 L 470.1695999999938 52.971519999999146 L 485.2019200000068 56.688640000000305 L 491.00800000000163 61.317119999999704 L 499.50719999999274 78.67392000000109 L 501.64736000000266 85.55520000000251 L 507.94495999999344 90.34752000000299 L 516.6387200000026 102.18495999999868 L 527.4726400000072 113.84831999999733 L 536.0639999999985 118.4256000000023 L 561.1827199999971 117.26847999999882 L 580.99712 117.71904000000359 L 595.7119999999995 122.30655999999726 L 603.6172800000058 122.18368000000191 L 613.0790399999969 123.64800000000105 L 674.2425599999988 136.08959999999934 L 693.3913599999942 145.08032000000094 L 751.2166399999987 170.21951999999874 L 789.6166399999929 181.97503999999753 L 798.5971200000058 186.94144000000233 L 799.9897599999967 193.63840000000346 L 813.322239999994 201.84064000000217 L 830.5049600000057 208.03583999999682 L 854.4051199999958 218.0095999999976 L 877.5475199999928 231.47520000000077 L 891.2691199999972 240.3839999999982 L 898.4268799999991 249.90720000000147 L 912.302079999994 272.2713599999988 L 938.7417600000044 316.51840000000084 L 962.4064000000071 342.7123199999987 L 984.9958400000032 360.77567999999883 L 1024.0 379.56741933774174" fill="none"/></svg>