<svg xmlns="http://www.w3.org/2000/svg" width="1024" height="1024"><rect stroke="none" x="0" y="0" width="1024" height="1024" fill="white"/><path stroke="#000000" stroke-width="2" d="M 0.0 1023.6097727211891 L 3.3828126720618457 1023.6796876799199 L 34.92187545605702 1023.9882813439472 L 1018.8828129280591 1023.9882813439472 L 1022.6718750720611 1023.8867189759621 L 1024.0 1023.8867189759621" fill="none"/><path stroke="#000000" stroke-width="2" d="M 1024.0 1023.8867189759621 L 1022.6718750720611 1023.8867189759621 L 1018.8828129280591 1023.9882813439472 L 34.92187545605702 1023.9882813439472 L 3.3828126720618457 1023.6796876799199 L 0.0 1023.6097727211891" fill="none"/><path stroke="#408040" stroke-width="3" d="M 388.07406849673134 1024.0 L 399.5443200000009 1003.4892800000016 L 419.8911999999982 976.3839999999982 L 426.2809600000037 961.4438399999999 L 425.1750400000019 945.5103999999992 L 434.0633600000001 932.1984000000011 L 447.4163200000039 923.0233599999992 L 452.43391999999585 912.3225600000005 L 463.3395199999941 903.2908800000005 L 482.5190399999992 894.5868800000026 L 530.3398400000005 869.0790399999969 L 543.4367999999959 860.0576000000001 L 560.8857600000047 853.8623999999982 L 593.9404800000048 841.2569599999988 L 607.334400000007 830.6175999999978 L 626.3091200000054 802.4883199999967 L 645.2736000000004 784.9574399999983 L 665.7433599999931 771.9321599999967 L 696.0947199999937 747.9705600000016 L 717.0150399999984 723.6403199999986 L 724.2956799999956 701.5526400000017 L 741.1609599999938 676.2188800000004 L 774.2668799999956 624.4454400000031 L 783.2678400000004 602.4499199999991 L 785.2339199999988 578.0480000000025 L 801.0342399999936 519.4137600000031 L 810.700800000006 484.0550399999993 L 823.1321599999937 460.0422400000025 L 861.4502400000056 403.6403199999986 L 870.9734400000016 392.4889600000024 L 886.3436800000054 384.32768000000215 L 921.692160000006 372.97151999999915 L 938.3321600000054 356.8332799999989 L 942.4691199999943 340.4492800000007 L 947.9372799999983 305.5718399999969 L 969.1545599999954 279.45984000000317 L 996.0038400000049 253.21472000000358 L 1024.0 236.0137076720348" fill="none"/></svg>