<svg xmlns="http://www.w3.org/2000/svg" width="1024" height="1024"><rect stroke="none" x="0" y="0" width="1024" height="1024" fill="white"/><path stroke="#000000" stroke-width="2" d="M 1021.8780147387588 0.0 L 1010.281249792024 0.08984371193218976 L 991.2343746560509 0.2929684479604475 L 939.9296870400431 0.2929684479604475 L 931.1250001920271 0.3984373759594746 L 895.6953128960449 0.3984373759594746 L 890.9843752960442 0.49999974394449964 L 877.26562508801 0.6015621119295247 L 851.1484375040163 0.7031255039619282 L 822.4843745280523 0.7031255039619282 L 817.2578129920294 0.8085934079717845 L 808.3515627520392 0.8085934079717845 L 804.460937216063 0.9101557759568095 L 777.1171870720573 1.0117191679310054 L 768.0000000000582 0.7031255039619282 L 749.6718745600083 0.3984373759594746 L 740.7656253440073 0.3984373759594746 L 728.8906250240398 0.49999974394449964 L 695.6093747200212 0.49999974394449964 L 663.1484375040163 0.6015621119295247 L 658.2343751680455 0.6015621119295247 L 639.3906247680425 0.49999974394449964 L 637.1387158707221 0.0" fill="none"/><path stroke="#000000" stroke-width="2" d="M 633.5745465675864 0.0 L 632.4218746880069 0.49999974394449964 L 610.6171873280546 0.49999974394449964 L 591.5703121920233 0.6015621119295247 L 574.5703127040179 0.6015621119295247 L 566.4765624320135 0.7031255039619282 L 561.4609377280576 0.6015621119295247 L 546.6171873280546 0.7031255039619282 L 453.5312496640254 0.7031255039619282 L 436.1249996800325 0.8046878719469532 L 426.9062502400484 0.8085934079717845 L 389.42968729604036 0.8085934079717845 L 383.39062476804247 0.9101557759568095 L 352.3593748480198 0.9101557759568095 L 349.0859376640292 1.0117191679310054 L 305.66406246402767 1.0117191679310054 L 285.1875000320142 1.113281535974238 L 246.58593792002648 1.113281535974238 L 238.79687475203536 1.2148439039592631 L 235.62499993602978 1.113281535974238 L 227.84374988800846 1.113281535974238 L 213.20312524802284 1.2148439039592631 L 207.6718745600083 1.113281535974238 L 183.71093708806438 1.113281535974238 L 177.7734379520407 1.0117191679310054 L 164.66406297602225 1.113281535974238 L 134.25000038405415 1.113281535974238 L 126.67187507206108 1.2148439039592631 L 106.9062502400484 1.2148439039592631 L 79.87500032002572 1.113281535974238 L 0.0 1.113281535974238" fill="none"/><path stroke="#000000" stroke-width="2" d="M 639.3906247680425 0.49999974394449964 L 658.2343751680455 0.6015621119295247 L 663.1484375040163 0.6015621119295247 L 695.6093747200212 0.49999974394449964 L 728.8906250240398 0.49999974394449964 L 740.7656253440073 0.3984373759594746 L 749.6718745600083 0.3984373759594746 L 768.0000000000582 0.7031255039619282 L 777.1171870720573 1.0117191679310054 L 804.460937216063 0.9101557759568095 L 808.3515627520392 0.8085934079717845 L 817.2578129920294 0.8085934079717845 L 822.4843745280523 0.7031255039619282 L 851.1484375040163 0.7031255039619282 L 877.26562508801 0.6015621119295247 L 890.9843752960442 0.49999974394449964 L 895.6953128960449 0.3984373759594746 L 931.1250001920271 0.3984373759594746 L 939.9296870400431 0.2929684479604475 L 991.2343746560509 0.2929684479604475 L 1010.281249792024 0.08984371193218976 L 1021.8780147387588 0.0" fill="none"/><path stroke="#000000" stroke-width="2" d="M 0.0 1.113281535974238 L 79.87500032002572 1.113281535974238 L 106.9062502400484 1.2148439039592631 L 126.67187507206108 1.2148439039592631 L 134.25000038405415 1.113281535974238 L 164.66406297602225 1.113281535974238 L 177.7734379520407 1.0117191679310054 L 183.71093708806438 1.113281535974238 L 207.6718745600083 1.113281535974238 L 213.20312524802284 1.2148439039592631 L 227.84374988800846 1.113281535974238 L 235.62499993602978 1.113281535974238 L 238.79687475203536 1.2148439039592631 L 246.58593792002648 1.113281535974238 L 285.1875000320142 1.113281535974238 L 305.66406246402767 1.0117191679310054 L 349.0859376640292 1.0117191679310054 L 352.3593748480198 0.9101557759568095 L 383.39062476804247 0.9101557759568095 L 389.42968729604036 0.8085934079717845 L 426.9062502400484 0.8085934079717845 L 436.1249996800325 0.8046878719469532 L 453.5312496640254 0.7031255039619282 L 546.6171873280546 0.7031255039619282 L 561.4609377280576 0.6015621119295247 L 566.4765624320135 0.7031255039619282 L 574.5703127040179 0.6015621119295247 L 591.5703121920233 0.6015621119295247 L 610.6171873280546 0.49999974394449964 L 632.4218746880069 0.49999974394449964 L 633.5745465675864 0.0" fill="none"/><path stroke="#000000" stroke-width="2" d="M 637.1387158707221 0.0 L 639.3906247680425 0.49999974394449964" fill="none"/></svg>