<svg xmlns="http://www.w3.org/2000/svg" width="1024" height="1024"><rect stroke="none" x="0" y="0" width="1024" height="1024" fill="white"/><path stroke="#000000" stroke-width="2" d="M 832.4188160000485 1014.1439999999711 L 832.847872000013 1014.2320639999234 L 833.2759040000383 1014.1409279999207 L 833.5856865280657 1014.1406248959247 L 833.7187502080342 1014.20312473597 L 833.7730662400136 1014.3169781759498 L 833.6718745600665 1014.4726558719412 L 833.5360000000219 1014.5751039999304 L 833.3649920000462 1014.7553279999411 L 833.1786240000511 1015.0635519999196 L 832.568899584061 1015.8976481279242 L 832.2578667520429 1016.2460323839332 L 832.0040960000479 1016.3353599999682 L 831.8146560000605 1016.310783999972 L 831.6426240000292 1016.2216959999641 L 831.4716160000535 1016.209407999937 L 831.2494080000324 1016.3384319999604 L 830.8437504000613 1016.5039063039585 L 830.3593748480198 1016.6093752319575 L 830.0859371520346 1016.7265628159512 L 829.9673600000096 1016.9067519999226 L 829.8321920000599 1017.1770879999385 L 829.5761920000659 1017.3695999999181 L 829.2662661120412 1017.5893954559579 L 828.8906250240398 1017.6796876799199 L 828.4815360000357 1017.6942079999717 L 827.8828124160646 1017.6054691839381 L 827.1796879360336 1017.4687498239218 L 826.6618880000315 1017.3306879999582 L 826.3700480000116 1017.1903999999631 L 826.3004160000128 1017.0367999999435 L 826.2684753920184 1016.9428561919485 L 826.2500003840541 1016.8828129279427 L 826.3515627520392 1016.7031255039619 L 826.5031680000247 1016.5493759999517 L 826.8789760000654 1016.3435519999475 L 827.341824000061 1016.2513919999474 L 827.7187502080342 1016.277344255941 L 828.0453120000311 1016.4152319999412 L 828.4374999040156 1016.554687487951 L 828.8515624960419 1016.5664061439456 L 829.2618240000447 1016.4111359999515 L 829.656250368047 1016.1914060799172 L 829.8588160000509 1015.9349759999313 L 829.9532216320513 1015.8084720639745 L 830.0156252160668 1015.7304688639706 L 830.2031247360283 1015.5625000959262 L 830.455808000057 1015.4455039999448 L 830.5582080000313 1015.3431039999705 L 830.6093752320157 1015.2148439039593 L 830.5078128640307 1015.1250001919689 L 830.1874995200196 1015.1132815359742 L 829.8727168000187 1015.1279933439218 L 829.6826880000299 1015.0512639999506 L 829.5793428480392 1014.9620152319549 L 829.6328120320104 1014.8593745919643 L 829.7343754240428 1014.796874751919 L 829.9376640000264 1014.7819519999321 L 829.9062497280538 1014.6406246399274 L 829.7343754240428 1014.5156249599531 L 829.7499996160623 1014.3359375359723 L 829.8750003200257 1014.2265620479593 L 830.0234373120475 1014.1523435519193 L 830.0546877440647 1014.0507811839343 L 829.8492006400484 1013.9309137919336 L 829.7109370880644 1013.8476564479643 L 829.554688000062 1013.7070315519231 L 829.5014400000218 1013.5664639999741 L 829.5701770240557 1013.4260520959506 L 829.7578127360321 1013.2460933119291 L 829.9765626880107 1013.1054684159462 L 830.2704640000593 1013.1025919999229 L 830.4588800000492 1013.1793919999618 L 830.6145280000637 1013.3063679999323 L 830.8889600000111 1013.3954559999402 L 831.180800000031 1013.5214079999714 L 831.335937024036 1013.6757811199641 L 831.6293120000628 1013.8910719999694 L 832.0078120960388 1014.031250431959 L 832.4188160000485 1014.1439999999711" fill="none"/><path stroke="#000000" stroke-width="2" d="M 834.8571484160493 1010.4349573119543 L 834.9337600000435 1010.5487359999679 L 834.8281251840526 1010.6250004479662 L 834.5749002240482 1010.6398423039354 L 834.3173120000283 1010.5774079999537 L 834.1114880000241 1010.5651199999265 L 834.0078120960388 1010.6406246399274 L 834.060288000037 1010.7187199999462 L 834.281249792024 1010.8320317439502 L 834.3359375360305 1010.9609379839385 L 834.2500003840541 1011.1132815359742 L 834.3046871040133 1011.2187504639733 L 834.4374999040156 1011.19140659197 L 834.6484377600136 1011.1523440639721 L 834.8515624960419 1011.19140659197 L 834.8671877120505 1011.3281249279389 L 834.7744983040611 1011.4500853759237 L 834.7166720000678 1011.522559999954 L 834.6839040000341 1011.677183999971 L 834.675903488067 1011.764692991972 L 834.6640629760223 1011.8554685439449 L 834.562499584048 1011.9570309119299 L 834.4080015360378 1011.9702200319734 L 834.188288000063 1011.986431999947 L 833.7734379520407 1011.9101562879514 L 833.3671874560532 1011.8984376319568 L 833.159168000042 1011.8625279999687 L 833.0731520000263 1011.7857279999298 L 833.0886901760241 1011.6759900159668 L 833.1745280000614 1011.6055039999192 L 833.3455360000371 1011.5665919999592 L 833.5001600000542 1011.527679999941 L 833.5165440000128 1011.4631679999293 L 833.445312512049 1011.3984378879541 L 833.1875000320142 1011.464843263966 L 832.8325120000518 1011.6198399999412 L 832.6451200000593 1011.8256639999454 L 832.5112238080474 1012.1006643199362 L 832.3828121600673 1012.3593748479616 L 832.1328128000605 1012.6875002879533 L 831.828124672058 1012.9296875519212 L 831.4183680000133 1013.0728959999396 L 831.0931486720219 1013.0739189759479 L 830.8359372800332 1012.9453127679299 L 830.7500001280569 1012.7812495359685 L 830.8674560000654 1012.6141439999337 L 831.1408640000154 1012.4462079999503 L 831.2596480000648 1012.3048959999578 L 831.2760320000234 1012.1256959999446 L 831.0343680000515 1011.9475199999288 L 830.9309440000216 1011.742719999922 L 830.9999994880636 1011.539062783937 L 831.1875000320142 1011.3710940159508 L 831.5617280000588 1011.1774719999521 L 831.9027200000128 1010.9071359999361 L 832.2447360000224 1010.8282879999606 L 832.519168000028 1010.8016639999696 L 832.7265628160676 1010.6718750719447 L 832.8939520000131 1010.5313279999536 L 833.0482974720653 1010.4924856319558 L 833.2890624000574 1010.5429688319564 L 833.3393920000526 1010.4780799999717 L 833.2953845760203 1010.3812618239317 L 833.2578129920294 1010.2929684479604 L 833.2513280000421 1010.1329919999698 L 833.3044940800173 1010.0043632639572 L 833.5078123520361 1009.9414067199687 L 833.8503680000431 1009.9384319999372 L 834.1953126400476 1010.1562501119333 L 834.5036800000235 1010.2814719999442 L 834.8281251840526 1010.3945308159455 L 834.8571484160493 1010.4349573119543" fill="none"/><path stroke="#000000" stroke-width="2" d="M 829.2625244160299 1010.0211118079606 L 829.3089280000422 1010.0592639999231 L 829.5321600000607 1009.981439999945 L 829.9264000000549 1009.9927039999748 L 830.179687424039 1010.1054689279408 L 830.2294261760544 1010.1945835519582 L 830.2704640000593 1010.2732799999649 L 830.2438717440236 1010.4494510079385 L 830.2343751680455 1010.4921876479639 L 830.289062912052 1010.5820313599543 L 830.5781248000567 1010.6953123839339 L 830.7025633280282 1010.8858572799363 L 830.6698240000405 1011.1416319999262 L 830.5858560000197 1011.3474559999304 L 830.3984373760177 1011.5507814399316 L 830.1787719680578 1012.0847790079424 L 830.1953013760503 1012.3240417279303 L 830.0234373120475 1012.5273436159478 L 829.8050631680526 1012.695023615961 L 829.461629952013 1012.683617279923 L 829.2499998720596 1012.6445311999414 L 829.0334720000392 1012.6079999999492 L 828.6894080000347 1012.4175359999645 L 828.5703127040179 1012.2656245759572 L 828.5703127040179 1012.1093754879548 L 828.7037440000568 1011.9434239999391 L 828.8399360000622 1011.8021119999466 L 828.8906250240398 1011.6601559039555 L 828.8215040000505 1011.5850239999709 L 828.6484377600136 1011.5859374079737 L 828.4968960000551 1011.7396479999297 L 828.4293120000511 1011.9454719999339 L 828.3965440000175 1012.1502719999407 L 828.2421872640261 1012.378906623926 L 827.8671360000153 1012.4595199999749 L 827.5776040960336 1012.409740287927 L 827.3684305920615 1012.2431774719735 L 827.3515622400446 1011.9492188159493 L 827.3991680000327 1011.6669439999387 L 827.5859374080319 1011.3867192319594 L 827.858944000036 1011.1918079999741 L 828.1640622080304 1011.1406254079193 L 828.6300160000101 1011.1375359999365 L 828.955648000061 1011.0975999999209 L 829.1266560000367 1011.0197759999428 L 829.229056000011 1010.9173759999685 L 829.2280320000136 1010.7760639999178 L 829.0546872320119 1010.6484377599554 L 828.6922803200432 1010.6859325439436 L 828.6640629760223 1010.6875002879533 L 828.42184499203 1010.6012252159417 L 828.4026880000602 1010.3316479999339 L 828.5890560000553 1010.0367359999218 L 828.7959193600109 1009.8562826239504 L 829.0334720000392 1009.8298879999202 L 829.2031252480228 1009.8945310719428 L 829.2187504640315 1009.9882813439472 L 829.2625244160299 1010.0211118079606" fill="none"/><path stroke="#000000" stroke-width="2" d="M 823.8274560000282 1001.9112959999475 L 823.964672000031 1001.9235839999747 L 824.7347200000659 1001.7546239999356 L 825.1796879360336 1001.7656248319545 L 825.5754240000388 1001.9686399999191 L 825.8170880000107 1002.274815999961 L 825.8643845120678 1002.3517870079377 L 825.8906245120452 1002.3984373759595 L 825.9737600000226 1002.5297919999575 L 825.8723840000457 1002.8124159999425 L 825.6640624640277 1003.0195312639698 L 825.5625000960426 1003.1992186879506 L 825.5156254720641 1003.3632808959228 L 825.5312496640254 1003.464843263966 L 825.5331563520595 1003.4650818559458 L 825.5334400000283 1003.4667519999202 L 825.656250368047 1003.4804684799747 L 825.7734379520407 1003.4531246079714 L 825.8437498880667 1003.3359370239195 L 825.8364631040604 1003.2976844799705 L 825.8232320000534 1003.1708159999689 L 825.839616000012 1003.0305279999739 L 825.907200000016 1002.9271039999439 L 826.0444160000188 1002.8759039999568 L 826.0763535360456 1002.9173749759211 L 826.109375488013 1002.9648435199633 L 826.1457418240607 1003.1484938239446 L 826.1836800000165 1003.3612799999537 L 826.1670963200158 1003.5287224319181 L 826.1484369920217 1003.6835942399339 L 826.109375488013 1003.8398433279363 L 826.0881070080213 1003.9355525119463 L 826.0679680000176 1004.0156159999315 L 826.0362240000395 1004.4508159999386 L 826.0464844800299 1004.6533375999425 L 826.0518840320292 1004.8455772159505 L 825.9375001600129 1005.1679682559334 L 825.8515630080365 1005.3984378879541 L 825.8606940160389 1005.4684415999218 L 825.8713600000483 1005.5782399999443 L 825.9584000000614 1005.7062399999704 L 826.1478400000487 1005.8209279999719 L 826.2500003840541 1005.9609374719439 L 826.2010880000307 1006.2428159999545 L 826.1703680000501 1006.7036159999552 L 826.0000000000582 1006.7929692159523 L 825.7252085760119 1006.7957749759662 L 825.6040960000246 1006.6933759999229 L 825.5703121920233 1006.5156249599531 L 825.5334400000283 1006.348287999921 L 825.5000002560555 1006.2187499519205 L 825.5488000000478 1006.0922879999271 L 825.2734371840488 1006.3750000639702 L 825.1667210240266 1006.466997247946 L 824.9697392640519 1006.6320209919359 L 824.5073920000577 1006.7107839999371 L 824.0271360000479 1006.6483199999202 L 823.6503040000098 1006.7138559999294 L 823.4117120000301 1006.9585919999518 L 823.1875000320142 1007.1640627199668 L 823.1909857280552 1007.2215715839411 L 823.1915520000621 1007.2924159999238 L 823.2261857280391 1007.457435647957 L 823.0703124480206 1007.6249999359716 L 822.7655680000316 1007.7296639999258 L 822.4563200000557 1007.6661759999697 L 822.1640622080304 1007.5117189119337 L 822.0624998400453 1007.3359370239195 L 822.0937502720626 1007.0546872319537 L 822.179687424039 1006.8242186239222 L 822.0549120000214 1006.5029119999381 L 821.7282560000313 1006.222335999948 L 821.3841920000268 1005.992959999945 L 820.9704960000236 1005.6744959999342 L 820.6093025280279 1005.4330183679704 L 820.5731840000371 1005.1256319999229 L 820.5986979840673 1004.9263022079249 L 820.6250004480244 1004.7421870079706 L 820.7912960000103 1004.3688959999708 L 820.8593745920225 1004.023437311931 L 820.9609379840549 1003.6796876799199 L 821.1484375040163 1003.2812503039604 L 821.3671874560532 1002.9843752959277 L 821.6903680000105 1002.7263999999268 L 821.9627520000213 1002.4693759999354 L 822.3750000640284 1002.1328127999441 L 822.6788833280443 1001.9029524479411 L 822.8749998080311 1001.820312575961 L 823.0717440000153 1001.7351679999265 L 823.4843750400469 1001.7226557439426 L 823.6874997760169 1001.7968752639717 L 823.7021603840403 1001.8073466879432 L 823.8274560000282 1001.9112959999475" fill="none"/><path stroke="#000000" stroke-width="2" d="M 831.6297779200249 997.7131089919712 L 831.7562880000332 997.9996159999282 L 832.0317440000363 998.2935039999429 L 832.289062912052 998.4843745279359 L 832.3515627520392 998.5781247999403 L 832.4290560000227 998.6887679999345 L 832.4812800000655 998.8802559999749 L 832.3276800000458 998.9836799999466 L 832.1015623680432 999.0312499199645 L 831.8986240000231 998.9212159999297 L 831.7603840000229 998.7041279999539 L 831.3989120000624 998.4880639999174 L 831.0036480000126 998.2842879999662 L 830.6796871680417 998.2070312959258 L 830.4218746880651 998.0429690879537 L 830.2500003840541 997.9023441919708 L 830.078125056054 997.8906245119288 L 829.9375001600129 997.9296870399266 L 829.9218749440624 998.0585932799731 L 830.0234373120475 998.1874995199614 L 829.8906245120452 998.5195315199671 L 829.8577920000535 998.6344959999551 L 829.9438080000109 998.723583999963 L 830.1148160000448 998.723583999963 L 830.3359375360305 998.6132807679242 L 830.5431818240322 998.5557135359268 L 830.7320002560155 998.593222655938 L 830.9032960000332 998.7583999999333 L 830.9842237440171 998.8633067519404 L 831.0390620160615 998.9374996479601 L 831.554688000062 999.1289067519247 L 831.7369118720526 999.1835740159731 L 831.9185469440417 999.2411115519353 L 832.0215040000621 999.3308159999433 L 832.0387409920222 999.4575575039489 L 831.9531253760215 999.5976560639683 L 831.7812500480213 999.7929687039577 L 831.5443200000445 999.9083519999404 L 831.5608647680492 999.9556229119189 L 831.5781253120513 1000.0117186559364 L 831.5859374080319 1000.0507811839343 L 831.6044165120111 1000.1177671679179 L 831.6149760000408 1000.1643519999343 L 831.546874880034 1000.2500003839377 L 831.5317391360295 1000.2727034879499 L 831.4961920000496 1000.3189759999514 L 831.4286080000456 1000.5104639999336 L 831.4296872960404 1000.906250239932 L 831.5156254720641 1001.3437501439475 L 831.5671111680567 1001.5539824639563 L 831.6067840000615 1001.7269759999472 L 831.6237762560486 1001.8921830399195 L 831.6406251520384 1002.0859371519182 L 831.5978321920265 1002.2742282239487 L 831.559680000064 1002.4314879999729 L 831.4583040000289 1002.6618879999733 L 831.3743360000663 1002.893311999971 L 831.3671874560532 1002.980468735972 L 831.3589760000468 1003.161599999934 L 831.2890624000574 1003.4453125119326 L 831.0863093760563 1003.5466895359568 L 830.7426068480127 1003.624904703931 L 830.4453120000544 1003.539062783937 L 830.212096000032 1003.4606079999357 L 830.0410880000563 1003.4483199999668 L 829.9375001600129 1003.5117189119337 L 829.9375001600129 1003.6289064959274 L 829.906118656043 1003.8321049599326 L 829.7185280000558 1003.9367679999559 L 829.4609377280576 1003.8984376319568 L 829.1512320000329 1003.721727999975 L 829.12227635202 1003.6223692799686 L 829.1015628800378 1003.5429683199618 L 829.1379077120218 1003.4611916799331 L 829.1665920000523 1003.4012159999693 L 829.1721195520367 1003.3580287999357 L 829.1796879360336 1003.3164062719443 L 829.1796879360336 1003.298905087926 L 829.182976000011 1003.2732159999432 L 829.0795520000393 1003.1452159999171 L 828.8378880000673 1002.9926399999531 L 828.7952384000528 1002.7751270399312 L 828.7187496960396 1002.3671879679314 L 828.5937500160653 1002.1244549119729 L 828.5937500160653 1001.917968383932 L 828.710937600059 1001.7656248319545 L 828.8671877120505 1001.6210933759576 L 828.9531248640269 1001.4921871359693 L 829.0000486400677 1001.3936486399616 L 829.0334720000392 1001.3276159999659 L 829.2556800000602 1001.224191999936 L 829.5156254720641 1001.082031103957 L 829.8046873600106 1000.9531248639687 L 830.0624998400453 1000.8749998079729 L 830.2643200000166 1000.8104959999328 L 830.4218746880651 1000.656249855936 L 830.4855040000402 1000.4633599999361 L 830.7421870080288 1000.1289062399301 L 830.8940800000564 999.9626239999197 L 830.9747957760119 999.7785681919195 L 831.0312499200227 999.6562503679306 L 831.022571520065 999.6128604159458 L 831.0108160000527 999.5397119999398 L 830.8046878720634 999.539062783937 L 830.5838080000249 999.745535999944 L 830.2421872640261 999.8750003199675 L 830.0021760000382 999.8510079999687 L 829.7625600000611 999.9032319999533 L 829.5234375680448 1000.031250431959 L 829.3553408000153 1000.2089461759315 L 829.0937497600098 1000.3554682879476 L 828.8906250240398 1000.5195315199671 L 828.5153280000668 1000.5227519999607 L 828.2577868800145 1000.382739455963 L 828.1518080000533 1000.0752639999264 L 828.1240391680622 999.8953011199483 L 828.1015623680432 999.7304688639706 L 827.9453122560517 999.4101565439487 L 827.8384640000295 999.1034879999352 L 827.8626140160486 998.9777090559364 L 827.8906245120452 998.8476559359697 L 828.0078120960388 998.6054686719435 L 828.1008343040594 998.5088696319726 L 828.2109378560563 998.3984373759595 L 828.5546874880674 998.167968767928 L 828.8281251840526 997.8945310719428 L 829.0312499200227 997.6249999359716 L 829.2679680000292 997.4466559999273 L 829.6406251520384 997.3671874559368 L 829.898437632015 997.3281249279389 L 830.1249996800325 997.2382812159485 L 830.2160312320339 997.1586293759174 L 830.2603489280446 997.1220070399577 L 830.2968750080327 997.0976563199656 L 830.53125017602 996.9921873919666 L 830.7421870080288 996.902343679918 L 831.0625003520399 996.4648437759606 L 831.1796879360336 996.4140625919681 L 831.3515622400446 996.4023439359735 L 831.5234375680448 996.4765624319552 L 831.5234375680448 996.8124999679276 L 831.5279482880142 997.0628382719588 L 831.5289600000251 997.244927999971 L 831.546874880034 997.5273441279423 L 831.6297779200249 997.7131089919712" fill="none"/><path stroke="#000000" stroke-width="2" d="M 834.1406248960411 995.8906245119288 L 834.3336960000452 996.2196910079219 L 834.3515627520392 996.6445311999414 L 834.3730780160404 996.767140863929 L 834.3808593920548 996.8082862079609 L 834.3828121600673 996.8124999679276 L 834.5546874880674 997.1328122879495 L 834.6132480000379 997.1924910079688 L 834.7341742080171 997.3590937599656 L 834.7500001280569 997.4960936959251 L 834.7734374400461 997.539062783937 L 835.0453217280447 998.0110755839269 L 835.0987008000375 998.0746495999629 L 835.1015628800378 998.0930488319718 L 835.1015628800378 998.1171875839354 L 835.195312128053 998.277344255941 L 835.3124997120467 998.4296878079185 L 835.3593753600144 998.4609372159466 L 835.6171878400492 998.7148441599566 L 835.756032000063 999.1206830079318 L 835.8242816000129 999.4456289279624 L 835.8593751040171 999.6210933759576 L 835.8593751040171 999.6601559039555 L 835.881984000036 1000.0578559999703 L 836.0703129600151 1000.2890629119356 L 836.4687503360328 1000.4023439359735 L 836.7933440000634 1000.5657599999686 L 837.0688000000664 1000.8207359999651 L 837.208064000064 1001.192447999958 L 837.2265625600121 1001.5781253119349 L 837.3363957760157 1001.8070087679662 L 837.3828126720618 1001.9101562879514 L 837.6093747200212 1002.4335933439434 L 837.6171878400492 1002.656249855936 L 837.6241039360175 1002.76172287995 L 837.6299520000466 1002.893311999971 L 837.8424074240611 1003.4230067199678 L 838.1327360000578 1003.8640639999649 L 838.1484369920217 1004.0468746239203 L 838.1601914880448 1004.140909567941 L 838.1696000000229 1004.2357759999577 L 838.0856320000603 1004.6074879999505 L 837.8818560000509 1004.9669119999744 L 837.5767040000646 1005.3908479999518 L 837.4062499840511 1005.7499996159459 L 837.4261760000372 1005.992959999945 L 837.5044833280263 1006.108971007925 L 837.5625000960426 1006.1992191999452 L 837.4978560000309 1006.5694719999447 L 837.4716958720237 1006.6895933439373 L 837.445312512049 1006.800781311933 L 837.4180515840417 1006.8842690559686 L 837.3800960000372 1006.9923839999246 L 837.273540608061 1007.199064063956 L 837.2578129920294 1007.2226559999399 L 837.2061378560611 1007.3916712959181 L 837.1773440000252 1007.4798079999746 L 837.0595840000315 1007.7235199999413 L 837.0078126080334 1008.031250431959 L 836.921875456057 1008.2617190399324 L 836.7544320000452 1008.3389439999592 L 836.5834240000113 1008.3655679999501 L 836.3939840000239 1008.2641919999733 L 836.2578124800348 1008.0859371519182 L 836.1015623680432 1007.816406015947 L 835.8435041280463 1007.6517519359477 L 835.7578127360321 1007.4453125119326 L 835.7578127360321 1007.3046876159497 L 835.7890621440602 1007.2265625599539 L 835.8750003200257 1007.0351564799203 L 835.9393280000659 1006.7804159999359 L 835.6953128960449 1006.3945308159455 L 835.336192000017 1006.154751999944 L 835.1484375040163 1006.0781250559376 L 835.1467520000297 1006.0789759999607 L 835.0781245440594 1006.1289062399301 L 835.0617600000114 1006.2581759999739 L 835.0368000000599 1006.4333752319217 L 834.927469568036 1006.5277542399708 L 834.7187496960396 1006.5664061439456 L 834.5323520000675 1006.5428479999537 L 834.3984373760177 1006.4296878079185 L 834.3401512960554 1006.3068692479283 L 834.2906880000373 1006.1977599999518 L 834.1874995200196 1005.9921879039612 L 834.0152320000343 1005.9683839999489 L 833.8268160000443 1006.007295999967 L 833.4848000000347 1006.1240319999633 L 833.2434800640331 1006.136655871931 L 833.0937497600098 1006.0742184959236 L 833.0787092480459 1006.0090429439442 L 833.0721280000289 1005.9724799999385 L 833.0711080960464 1005.8195169279352 L 833.2265625600121 1005.6640624639695 L 833.5493120000465 1005.4963199999183 L 833.8401280000107 1005.3160959999659 L 834.078125056054 1005.0468751359731 L 834.2500003840541 1004.7265628159512 L 834.3828121600673 1004.3164057599497 L 834.4647680000635 1003.8282239999389 L 834.4627200000104 1003.4698239999707 L 834.3750000640284 1003.1484375039581 L 834.3060480000568 1003.0090239999699 L 834.236416000058 1002.8943359999685 L 834.3377920000348 1002.7397119999514 L 834.4064000000362 1002.5861119999317 L 834.3029760000645 1002.5738239999628 L 834.1640622080304 1002.6757816319587 L 834.038348800037 1002.844821503968 L 833.8249164800509 1002.9586360319518 L 833.7734379520407 1002.9843752959277 L 833.5688570880448 1002.9864959999686 L 833.4843750400469 1002.8828129279427 L 833.4140620800317 1002.652343295922 L 833.4296872960404 1002.2968750079744 L 833.4140620800317 1002.1406248959247 L 833.3905920000398 1001.8734079999267 L 833.3046876160661 1001.5664066559402 L 832.9609379840549 1001.2734371839324 L 832.5969920000643 1001.069567999919 L 832.5220218880568 1000.958500863926 L 832.460937216063 1000.8632811519201 L 832.4502568960306 1000.752921599953 L 832.4403200000525 1000.6220799999428 L 832.6266880000476 1000.3527679999243 L 832.6979092480615 1000.2863278079312 L 832.7734374400461 1000.2187499519205 L 832.9164800000144 1000.0824319999665 L 833.1562496000552 999.7226557439426 L 833.2042240000446 999.402495999937 L 833.2031252480228 999.0937497599516 L 833.1663360000239 998.890495999949 L 833.1063971840194 998.81626623997 L 833.015624704014 998.6992189439479 L 832.9365073920344 998.5579376639216 L 832.8550400000531 998.4051199999521 L 832.6361886720406 998.2171412479365 L 832.53125017602 998.1249996799743 L 832.2187499520369 997.8828124159481 L 832.0102400000324 997.4865919999429 L 831.990772736026 997.3264015359455 L 831.9765626880107 997.19140659197 L 831.9921879040194 996.9218754559406 L 832.0399360000156 996.7052799999365 L 832.0234373120475 996.4882810879499 L 832.0390625280561 996.3085936639691 L 832.1249996800325 996.1914060799172 L 832.2896332800156 996.1015859199688 L 832.5781248000567 996.1132810239214 L 832.8593745920225 995.9687495679245 L 832.9765621760162 995.8437498879503 L 833.195312128053 995.7929687039577 L 833.5234375680448 995.7265623039566 L 833.6406251520384 995.7226557439426 L 833.8671872000559 995.710937087948 L 834.1406248960411 995.8906245119288" fill="none"/><path stroke="#000000" stroke-width="2" d="M 843.2471787520335 1023.3348843519343 L 842.6625832960126 1023.9531253759633 L 834.9843752960442 1023.9531253759633 L 834.9839360000333 1023.8586879999493 L 834.8518400000175 1023.8586879999493 L 834.8515624960419 1023.9531253759633 L 827.7282078720164 1023.9531253759633 L 829.4942720000399 1021.5905279999715 L 838.30184448004 1009.787903999968 L 840.0793600000325 1003.9726079999236 L 840.4394414080307 994.7538964479463 L 843.4609377280576 994.7382814719458 L 854.53125017602 994.6914058239199 L 855.4742620160105 994.6914058239199 L 855.3105469440343 996.6793799679726 L 855.2890624000574 997.187500031956 L 855.0309212160646 1003.7981204479584 L 854.8281251840526 1004.6132807679242 L 853.5613440000452 1009.7510399999446 L 852.246528000047 1013.8183679999202 L 847.0708398080315 1019.2914595839684 L 843.79687526403 1022.7500001279404 L 843.5409356800374 1023.024221183965 L 843.2471787520335 1023.3348843519343" fill="none"/><path stroke="#000000" stroke-width="2" d="M 829.6632320000208 994.792235007917 L 829.4874152960256 994.9382696959656 L 829.3203128320165 995.1015628799214 L 829.2499998720596 995.2070307839313 L 829.3203128320165 995.2695316479658 L 829.7187502080342 995.3828126719454 L 829.7788631040603 995.3958881279686 L 829.9765626880107 995.4453125119326 L 830.0206069760607 995.4882559999241 L 830.1301760000642 995.5970990079222 L 830.1322240000591 995.8141870079562 L 830.0472320000408 995.9944110079668 L 829.8936320000212 996.1224110079347 L 829.5854080000427 996.2135470079374 L 829.364224000019 996.4193710079417 L 829.230644224037 996.8076779519324 L 829.164062720025 996.9843752959277 L 828.9915269120247 997.1916349439416 L 828.6842880000477 997.2951039999607 L 828.3593748480198 997.3203128319583 L 828.0678400000324 997.4251519999234 L 827.828124672058 997.5273441279423 L 827.6093747200212 997.5156254719477 L 827.4375004160102 997.4414059519186 L 827.3671874560532 997.2734371839324 L 827.3156812800444 997.1961774079246 L 827.2773120000493 997.1343359999591 L 826.9531248640269 997.007812607917 L 826.7448320000549 996.8547839999665 L 826.6915840000147 996.5854719999479 L 826.6562498560525 996.3945308159455 L 826.6562498560525 996.2265620479593 L 826.5338880000636 996.0867839999264 L 826.1908480000566 995.8840319999726 L 825.9153920000535 995.7949439999647 L 825.6953128960449 995.7070315519231 L 825.5457976320176 995.5691182079609 L 825.4531246080296 995.464843263966 L 825.4843750400469 995.3242183679249 L 825.5703121920233 995.2578129919712 L 825.7578127360321 995.2460933119291 L 826.0000000000582 995.2968744959217 L 826.2578124800348 995.3320314879529 L 826.4687503360328 995.3085941759637 L 826.5390622720588 995.285155839927 L 826.7343749120482 995.2304691199679 L 826.9921873920248 995.2265625599539 L 827.195312128053 995.0585937919677 L 827.5708672000328 994.9414522879524 L 827.7812500480213 994.9570314239245 L 827.9326720000245 994.8628910079715 L 828.2421872640261 994.7734374399297 L 828.4843745280523 994.7851560959243 L 828.6718750720611 994.8242186239222 L 828.7890626560547 994.7851560959243 L 828.8046878720634 994.7382814719458 L 828.8161136640119 994.678291455959 L 828.8223324160208 994.6547343359562 L 828.9765621760162 994.5390622719424 L 829.2343746560509 994.4257812479627 L 829.5390627840534 994.4101560319541 L 829.6796876800363 994.4882810879499 L 829.7640232960111 994.6262855679379 L 829.6632320000208 994.792235007917" fill="none"/><path stroke="#000000" stroke-width="2" d="M 824.7343749120482 990.9218754559406 L 824.9374996480183 991.0468751359731 L 825.0078126080334 991.0390620159451 L 825.828124672058 991.2734371839324 L 826.1484369920217 991.2734371839324 L 826.4062504960457 991.2578129919712 L 826.6718750720611 991.2695316479658 L 827.6015626240405 991.2382812159485 L 827.6640624640277 991.2382812159485 L 828.390625280037 991.1757813759614 L 828.8203120640246 991.1484375039581 L 829.0390620160615 991.2499998719431 L 829.0426071040565 991.3829212159617 L 829.0437120000133 991.5420590079739 L 829.2157440000447 991.7335470079561 L 829.197047808033 991.8211860479205 L 829.1802808320499 991.8882529279217 L 828.806144000031 992.0417710079346 L 828.327936000016 992.2875310079544 L 828.0694200320286 992.2446796799195 L 827.2042024960392 992.1380843519582 L 826.3925780480495 992.4176609279239 L 826.393901056028 992.4207411199459 L 826.390625280037 992.4218746879487 L 826.5703127040179 992.835937279975 L 826.7031255040201 992.9609379839385 L 826.8046878720634 993.19140659197 L 826.7891056640656 993.4368194559356 L 826.6038087680354 993.5995965439361 L 826.1928960000514 993.4354350079666 L 825.9928248320357 993.4023608319694 L 825.6685803520377 993.4118737919489 L 825.4218240000191 993.4774190079188 L 825.182208000042 993.4651310079498 L 825.0390620160615 993.3593753599562 L 824.9770813440555 993.3346785279573 L 824.5463040000177 993.2879790079314 L 824.3916800000588 993.2122030079481 L 824.2030499840621 993.0347888639662 L 824.1491210240638 992.7653672959423 L 824.19904512004 992.4327301119338 L 824.1718753280584 992.1992191999452 L 824.1171875840519 991.9296870399266 L 823.8359377920278 991.4882815999445 L 823.7656248320127 991.2460933119291 L 823.8109214720316 991.089820671943 L 823.8463938560453 990.9754111999646 L 824.0859371520346 990.8710932479589 L 824.3750000640284 990.8320317439502 L 824.7343749120482 990.9218754559406" fill="none"/><path stroke="#000000" stroke-width="2" d="M 821.3828126720618 989.2578129919712 L 821.79687526403 989.4726563839358 L 822.1249996800325 989.6523438079748 L 822.3828121600673 989.6992184319533 L 822.6250004480244 989.8281246719416 L 822.7421870080288 989.8437498879503 L 822.8828129280591 989.8671871999395 L 823.2265625600121 989.9140628479654 L 823.6171878400492 990.0429690879537 L 823.9289927680511 990.2066667519393 L 823.9974400000647 990.3194030079176 L 823.9771955200122 990.3887257599272 L 823.9616143360618 990.4354682879639 L 823.5868160000537 990.5006510079256 L 823.1587840000284 990.5026990079205 L 822.901760000037 990.5416110079386 L 822.7993600000627 990.5938350079232 L 822.4921876480221 990.9414062079741 L 822.3569920000155 991.196971007972 L 822.325289984059 991.3539174399339 L 822.2737704960164 991.6078039039276 L 822.0866560000577 991.7489070079173 L 821.9320320000406 991.7622190079419 L 821.8679695360479 991.7337262079236 L 821.5889920000336 991.6096430079197 L 821.1906560000498 991.0607790079666 L 820.5731840000371 990.94813900796 L 820.0591360000544 990.9378990079276 L 819.5962880000588 990.8877230079379 L 819.3593753600144 990.7500001279404 L 818.5656330240308 990.4568084479542 L 818.6486773760407 990.24221286393 L 818.9765621760162 990.277344255941 L 819.4218752000597 990.2500003839377 L 820.0000000000582 990.1601566719473 L 820.000214016065 990.1569996799226 L 820.002816000022 990.1565870079212 L 820.0190996480524 989.9275950079318 L 819.8775859200396 989.7864355839556 L 819.8671872000559 989.7734379519243 L 819.968749568041 989.5937495039543 L 819.8266880000592 989.3373870079522 L 819.4160640000482 989.3773230079678 L 819.0905620480189 989.2385515519418 L 819.195312128053 989.1484375039581 L 819.2812503040186 989.0898442239268 L 819.4140620800317 988.9960939519224 L 819.5156254720641 988.7500001279404 L 819.8593751040171 988.6875002879533 L 820.179687424039 988.7226562559372 L 820.5449297920568 988.8741928959498 L 820.921875456057 989.0546872319537 L 821.1093749760184 989.1289067519247 L 821.3828126720618 989.2578129919712" fill="none"/><path stroke="#000000" stroke-width="2" d="M 818.3832197120646 988.764670975972 L 818.2282240000204 988.7803310079616 L 818.0224000000162 988.7434670079383 L 817.8677760000573 988.641067007964 L 817.6783360000118 988.411691007961 L 817.4704640000127 988.0799150079256 L 817.417368576047 987.7603215359268 L 817.5000002560555 987.4414059519186 L 817.6718745600665 987.1210936319549 L 817.7028218880296 987.0069780479535 L 817.7377280000364 986.8879790079664 L 817.9453122560517 986.6445311999414 L 817.9765626880107 986.554687487951 L 817.9765626880107 986.2226565119345 L 818.0234373120475 985.8906245119288 L 818.109375488013 985.7617182719405 L 818.2656245760154 985.710937087948 L 818.4362639360479 985.7458411519183 L 818.6070763520547 985.7961963519338 L 818.7578122240375 985.92578150396 L 818.8281251840526 986.0781250559376 L 818.788941824052 986.3166310399538 L 818.7310080000316 986.6401710079517 L 818.6928885760135 986.948300799937 L 818.6796871680417 987.0390620159451 L 818.7187496960396 987.3984378879541 L 818.7927408640389 987.5213414399186 L 818.8359372800332 987.6015626239241 L 819.0996480000322 988.1116590079619 L 819.0807070720475 988.2399047679501 L 819.0468751360313 988.445311999938 L 818.9834024960292 988.5140735999448 L 818.9143040000345 988.585771007929 L 818.623488000012 988.7403950079461 L 818.3832197120646 988.764670975972" fill="none"/><path stroke="#000000" stroke-width="2" d="M 832.1781760000158 954.4241070079734 L 830.9532917760662 955.8510970879579 L 830.9687500800355 955.085937663971 L 831.0550906880526 951.7658265599748 L 832.4843745280523 952.4804689919692 L 832.1781760000158 954.4241070079734" fill="none"/><path stroke="#000000" stroke-width="2" d="M 838.140878848033 944.7670896639465 L 838.2062632960151 944.8385546239442 L 835.9115284480504 944.1874698239262 L 837.607706624025 944.1835980799515 L 838.109375488013 944.7343749119318 L 838.140878848033 944.7670896639465" fill="none"/><path stroke="#000000" stroke-width="2" d="M 848.8906250240398 941.3984378879541 L 851.8203125760192 947.7304688639706 L 851.8320568320341 947.7500426239567 L 851.8400000000256 947.7681070079561 L 851.4304030720377 948.6897008639644 L 847.3351516160183 947.6658933759318 L 845.5954257920384 943.0635622399277 L 845.6888320000144 942.7730350079364 L 845.7734379520407 942.5273436159478 L 845.9003904000274 942.136411135958 L 845.9003904000274 941.4221660159528 L 845.898437632015 941.4237265919219 L 845.898437632015 941.4218751999433 L 845.4918840320315 941.7485701119294 L 844.364813312015 942.6491197439609 L 843.2421877760207 941.8320312319556 L 842.421791744011 941.4216273919446 L 841.6015626240405 938.9648435199633 L 844.1633443840547 935.0714030079544 L 845.5859374080319 935.6992184319533 L 845.79687526403 935.7890621439437 L 846.7187496960396 936.7109375999426 L 848.8906250240398 941.3984378879541" fill="none"/><path stroke="#000000" stroke-width="2" d="M 878.8749998080311 931.3855416319566 L 874.6789785600267 934.0448552959715 L 874.591563776019 933.3139722239575 L 874.3692554240115 931.3871349759283 L 876.2128906240105 929.336760319944 L 876.8149555200362 928.4623564799549 L 877.3459302400588 927.7181911039515 L 878.8749998080311 928.8281251839362 L 878.8749998080311 931.3855416319566" fill="none"/><path stroke="#000000" stroke-width="2" d="M 871.4680944640422 930.3755868159351 L 869.3238712320453 931.4216540159541 L 869.323331584048 931.4243102719192 L 869.3203128320165 931.4257817599573 L 869.3078589440556 931.5004999679513 L 869.2951050240663 931.563304959971 L 868.8669675520505 931.5322347519686 L 867.9218749440624 931.7617182719405 L 869.0922352640191 932.0660131839686 L 866.9962250240496 935.6859330559382 L 862.5930536960368 936.4027269119397 L 862.1011200000648 935.4194247679552 L 861.736205312016 935.0931240959326 L 861.3671874560532 934.9701191679342 L 861.3671874560532 934.5624995839316 L 862.289062912052 933.8437498879503 L 863.3282560000662 932.2812375039211 L 863.5652720640646 932.1975971839274 L 863.8046873600106 932.1171875839354 L 864.4453120000544 931.9335935999407 L 864.67490713601 931.8867701759445 L 866.0930754560395 931.5243653119542 L 866.0913192960434 931.5240591359325 L 866.0937502720626 931.5234375679283 L 865.0585405440652 931.3437091839733 L 864.4557096960489 931.3789849599707 L 864.1802240000106 931.2878510079463 L 863.8076651520096 931.0135490559624 L 863.91500800004 930.1799895039294 L 866.4223672320368 928.0857077759574 L 867.3515622400446 927.6523438079748 L 868.1249996800325 927.289062399941 L 869.2480010240106 926.8796385279275 L 870.4765624320135 926.7812495359685 L 871.7067909120233 926.7812495359685 L 871.5668674560147 929.2251043839497 L 871.5000002560555 930.3593748479616 L 871.4680944640422 930.3755868159351" fill="none"/><path stroke="#000000" stroke-width="2" d="M 841.8798755840398 919.864495103946 L 841.7024071680498 920.3259135999251 L 841.4975477760308 920.1722920959583 L 841.1923558400595 920.5908101119567 L 841.0877184000565 920.7319726079586 L 840.269118464028 920.0190085119684 L 840.5334968320676 918.993861631956 L 840.8593745920225 917.746094079921 L 841.014714368037 917.1274158079177 L 841.0878904320416 916.8434421759448 L 841.7031249920256 916.4374999039574 L 842.419786752027 917.5592314879177 L 842.3292928000446 918.1917122559389 L 842.2109378560563 918.9960939519224 L 841.8798755840398 919.864495103946" fill="none"/><path stroke="#000000" stroke-width="2" d="M 879.6044339200598 914.8212551679462 L 879.6948480000137 915.9227310079732 L 878.9786695680232 915.921566719946 L 879.5937495040125 914.6914058239199 L 879.6044339200598 914.8212551679462" fill="none"/><path stroke="#000000" stroke-width="2" d="M 885.7343754240428 913.6718745599501 L 885.6333824000321 914.4875786239281 L 885.3281249280553 913.7734379519243 L 885.7343754240428 913.6718745599501" fill="none"/><path stroke="#000000" stroke-width="2" d="M 895.9938263040385 890.1814476799336 L 895.4650828800513 895.8465515519492 L 894.1332480000565 895.443755007931 L 892.2910156800644 895.648447487969 L 892.2910115840496 895.652124671964 L 892.289062912052 895.6523438079748 L 892.289062912052 896.3627161599579 L 891.0631659520441 895.7519134719623 L 891.0639831040171 895.7546424319735 L 891.0625003520399 895.7539061759599 L 891.3671874560532 896.7773439999437 L 893.5781253120513 906.1249996799743 L 893.6171878400492 906.2968750079744 L 893.6182159360615 906.2854440959636 L 893.6210995200672 906.2976337919245 L 894.1328128000605 900.5633228799561 L 894.9531248640269 898.7195729919476 L 895.1562496000552 900.0546877439483 L 893.4156103680143 912.12598169595 L 892.9062502400484 906.8124999679276 L 891.0614763520425 897.3905203199247 L 889.525248000049 897.6965550079476 L 888.0916480000596 896.8773550079204 L 885.3268480000552 898.1061550079612 L 883.9956480000401 897.4917550079408 L 883.6894371840172 894.8302366719581 L 886.4531251200242 892.2703534079483 L 890.0390625280561 892.2695311359712 L 891.594963968033 890.3410165759269 L 889.4231664640247 889.7094348799437 L 889.0292992000468 889.6015790079255 L 889.0173788160319 889.6040898559731 L 889.0078126080334 889.6015626239241 L 888.0736399360467 889.8028482559603 L 887.5970263040508 889.9032268799492 L 888.8052572160377 888.7890452479478 L 892.1874995200196 888.6875002879533 L 894.1286871040356 891.4472601599409 L 892.5468753920286 890.6793799679726 L 891.6757811200223 892.2692229119712 L 893.4140620800317 894.6250004479662 L 894.3359375360305 894.8320317439502 L 894.3364321280387 894.8286259199376 L 894.337890304043 894.8289474559715 L 894.6494842880638 892.6816409599269 L 895.4687498240382 892.8671877119341 L 896.1774745600414 888.1996584959561 L 895.9938263040385 890.1814476799336" fill="none"/><path stroke="#000000" stroke-width="2" d="M 877.7024337920593 835.6208680959535 L 876.6093752320157 842.1640622079722 L 876.5530583040672 842.5147586559178 L 876.3164057600661 843.9371919359546 L 877.5449221120216 847.3160980479443 L 878.5683589120163 850.3864104959648 L 878.5699481600313 850.385624063958 L 878.5703127040179 850.3867187199648 L 879.0781245440594 850.1367183359689 L 879.1802787840134 850.0832430079463 L 883.0703124480206 858.0664063999429 L 883.7890621440602 863.289062399941 L 883.680282624031 866.3504271359416 L 883.2870973440586 877.184258047957 L 883.2837437440176 877.4508503039251 L 883.2734371840488 877.9687495679245 L 883.2302684160531 881.7163345919689 L 883.2092160000466 883.3963950079633 L 883.1621089280234 886.5309419519617 L 882.5859379200265 890.4374999039574 L 882.460937216063 891.1953121279366 L 882.4569006080274 891.2457676799386 L 882.4494080000441 891.2924590079347 L 880.4745461760322 894.8439347199746 L 879.4666014720569 902.6563583999523 L 876.816406528058 907.0465669119731 L 875.5900344320107 908.5424281599699 L 876.0000000000582 909.2460933119291 L 874.6621091840207 912.7575050239684 L 874.6633963520289 912.8327331839246 L 874.7786240000278 912.7518382079434 L 874.7792967680143 919.6090675199521 L 873.0385684480425 923.1917311999714 L 872.4218746880651 923.6015626239241 L 872.3203512320179 924.320035839919 L 872.116822016018 924.4726824959507 L 871.5078123520361 925.0273433599505 L 870.7343749120482 925.1757813759614 L 870.3750000640284 925.2421877759625 L 870.2656245760154 925.7145354239619 L 870.2733967360109 925.7731297279242 L 870.0859371520346 925.7890621439437 L 868.1150617600651 926.6130524159526 L 865.0844160000561 928.1738670079503 L 864.2695311360294 928.7575050239684 L 862.6601564160665 930.1832857599366 L 860.1337559040403 933.0223800319363 L 859.445312512049 932.5234370559338 L 855.7334097920102 929.8499850239605 L 856.1406248960411 930.976562175958 L 855.7326530560385 931.4876856319606 L 855.1171870720573 931.2812503039604 L 855.2173987840652 932.1045626879204 L 854.7578122240375 933.1250001919689 L 854.7033866240527 933.4321223679581 L 850.8203120640246 932.4101560319541 L 850.7415511040599 932.3652976639569 L 849.0781245440594 931.3867192319594 L 846.9543772160541 927.4578749439679 L 846.8593745920225 927.2812503039604 L 846.7968747520354 927.1601561599527 L 846.3125002240413 926.2656245759572 L 845.3906247680425 924.6250004479662 L 845.3906247680425 918.7890626559383 L 845.6328120320104 918.6679685119307 L 845.7734379520407 918.4687503359746 L 844.7656253440655 914.031250431959 L 844.8706560000428 913.2941230079741 L 845.5937495040125 908.652343295922 L 845.4921871360275 905.1523440639721 L 845.4531246080296 904.5273436159478 L 845.3676994560519 903.2279736319324 L 845.3066403840203 902.2692229119712 L 845.3515622400446 901.7851566079189 L 845.5321600000607 899.7640110079665 L 845.8709012480103 897.4218926079338 L 845.9140628480236 897.1367188479635 L 846.0390696960385 896.7187517439597 L 846.2109378560563 896.1601566719473 L 847.335937024036 894.2148433919647 L 847.3192867840407 894.1961123839719 L 846.9248000000371 893.7029550079606 L 850.0887285760255 878.6997739519575 L 850.1015623680432 878.6484377599554 L 850.9806622720207 876.6641848319559 L 858.6015621120459 859.5000002559391 L 858.75138969603 858.3292897279607 L 859.1435233280645 855.3050398719497 L 859.3203128320165 853.9726561279385 L 859.3156075520674 853.4174955519265 L 859.3152000000118 853.0501550079207 L 860.2377482240554 847.2148582399241 L 861.1484375040163 847.2187504639733 L 860.2343751680455 848.0351559679257 L 861.1718748160638 848.4609372159466 L 861.3652346880408 848.5426606079563 L 860.6761164800264 851.1073884159559 L 860.2343751680455 852.7382814719458 L 860.2419681280153 852.7237119999481 L 860.2379018240608 852.7388518399675 L 862.109375488013 849.1406254079193 L 863.0026240000152 847.4191790079349 L 861.978743808053 846.8045998079469 L 862.6438830080442 846.4453550079488 L 862.5937500160653 846.2929684479604 L 863.1048693760531 845.0639902719413 L 863.3749995520338 844.7539066879544 L 863.7193154560518 844.3473049599561 L 866.689076224051 842.5038325759233 L 867.2031252480228 841.0703124479624 L 869.6582031360595 838.4059422719292 L 869.8659614720382 837.9241932799341 L 869.968749568041 837.6914063359727 L 869.6474183680257 836.895165439928 L 869.3518551040324 836.1563617279171 L 869.5781253120513 836.2421872639679 L 870.1718753280584 836.4609372159466 L 869.968749568041 833.5937495039543 L 870.4470886400668 832.4688281599665 L 872.9374996480183 826.6328125439468 L 874.6640629760223 820.4218746879487 L 876.62456320005 818.6108620799496 L 878.3608371200389 817.010022399947 L 878.5741066240589 817.3324646399706 L 879.4902343680151 818.7457863679738 L 879.1835934720584 821.3043793919496 L 878.6637445120141 823.9056087039644 L 878.1562501120497 826.4257812479627 L 878.1562501120497 830.2148433919647 L 877.1328122880659 830.3164057599497 L 878.8749701120541 834.3124316159519 L 878.5743216640549 834.5128632319393 L 878.6455080960295 834.7203952639247 L 878.5684480000637 834.7733370879432 L 878.5684480000637 835.0280447999248 L 877.749988352065 835.3357015039655 L 877.7024337920593 835.6208680959535" fill="none"/><path stroke="#000000" stroke-width="2" d="M 885.8906245120452 791.8671871999395 L 887.1705774080474 793.966956543969 L 887.4764789760229 794.4803266559611 L 887.3504829440499 794.6315202559344 L 887.4341785600409 794.9406863359618 L 887.4365184000344 794.9378785279696 L 887.4375004160102 794.9414062079741 L 887.4765629440662 794.8906250239233 L 887.4765629440662 798.1640622079722 L 885.2734371840488 799.7929687039577 L 885.1235348480404 799.9055237119319 L 884.3049922560458 799.4972057599225 L 884.4062504960457 798.5781247999403 L 884.8144527360564 797.7535979519598 L 884.9172480000416 796.52740300796 L 885.8370570240659 795.3009909759276 L 885.9609374720603 795.3242183679249 L 886.0312504320173 795.2499998719431 L 885.8437498880667 794.5351567359176 L 885.8408314880216 794.5346457599662 L 885.8398279680405 794.5308528639725 L 885.5346524160122 794.4799027199624 L 885.3281249280553 792.9453127679299 L 884.4757278720499 792.0997775359428 L 883.4836736000143 791.9194071039674 L 881.4357114880113 793.9673395199352 L 880.9243750400492 793.5584686079528 L 881.4296872960404 792.8437503999448 L 881.6823029760271 792.4826746879262 L 882.1522032640642 791.8162984959199 L 882.1522718720371 791.363887103973 L 882.1562501120497 790.8945315839374 L 883.3828126720618 790.3828121599508 L 884.4062504960457 788.4414064639714 L 885.0195230720565 788.5423329279292 L 884.9686548480531 789.4116700159502 L 884.914062336029 790.277344255941 L 886.0449239040609 790.5856245759642 L 886.4526223360444 791.2033587199403 L 885.8906245120452 791.8671871999395" fill="none"/><path stroke="#000000" stroke-width="2" d="M 1024.0 682.6959261911979 L 1022.3431905280449 682.7620249599568 L 1018.8641474560136 682.7615641599405 L 1023.6796876800363 678.664062975964 L 1024.0 678.3679545309205" fill="none"/><path stroke="#000000" stroke-width="2" d="M 1024.0 670.6139181104736 L 1023.8789058560506 670.6793799679726 L 1018.2006159360171 674.5430271999212 L 1018.0637542400509 674.6347263999633 L 1016.4765624320135 675.6796876799199 L 1016.3157954560593 675.7880299519747 L 1016.3008020480629 675.7965588479419 L 1015.8379038720159 675.4886369279702 L 1015.8431324160192 675.4970040319604 L 1015.8359377920278 675.4921871359693 L 1016.091082752042 675.8980997119215 L 1015.4416394240106 675.4651586559485 L 1015.5837388800574 676.1055160319665 L 1014.7645440000342 676.7204270079383 L 1012.4093440000433 678.0516270079534 L 1006.6749440000276 680.4068270079442 L 1004.8317491200287 681.1235952639254 L 1004.6774190080469 680.917858303932 L 1002.7888179200236 682.0413470719359 L 1002.0683796480298 681.6364451839472 L 1001.9709911040263 682.0231956479256 L 1001.8593751040171 682.453125119966 L 1000.6792591360281 682.944290815969 L 997.6607918080408 684.1956270079245 L 996.9609379840549 684.2656245759572 L 995.2051415040623 684.9113999359543 L 989.1635425280547 686.6532249599695 L 982.7123425280442 688.4964239359251 L 980.1513185280492 689.1098019839264 L 979.0273658880615 689.4176593919401 L 975.4409185280674 690.5433999359375 L 971.1406479360303 691.7731276799459 L 957.0488565760315 696.1917890559416 L 946.6664960000198 702.0132270079339 L 944.6138767360244 702.9301852159551 L 944.3593748480198 703.0351564799203 L 944.0473057280178 703.2458833919372 L 943.6014530560351 703.5436615679646 L 941.7499996160623 705.085937663971 L 941.0344960000366 705.6996270079399 L 940.8947353600524 705.6996270079399 L 940.7539066880126 705.8004735999275 L 936.2480465920526 710.3317237759475 L 928.6608752640313 718.0110612479621 L 923.4726563840522 723.3121925119194 L 923.2596408320242 723.4920990719693 L 923.2616355840582 723.4929541119491 L 923.2578129920294 723.4960936959251 L 923.3171527680242 723.5183462399291 L 922.3966720000608 724.4388270079507 L 922.1392076800112 724.4388270079507 L 918.5829990400234 728.4655902719242 L 918.5617920000223 728.5757870079251 L 918.4765624320135 728.9257809919654 L 918.4030720000155 729.251627007965 L 911.414835200063 740.7975720959366 L 911.335937024036 740.9257809919654 L 911.3652879360598 741.5882680319482 L 911.4094264320447 742.6521405439707 L 911.4375004160102 743.3867192319594 L 909.8593751040171 746.277344255941 L 909.5251537920558 746.893565951963 L 908.982272000052 747.8884270079434 L 908.9379184640129 747.8884270079434 L 908.8808591360576 747.9879731199471 L 907.9589847040479 751.4723481599358 L 906.6259599360637 753.7249423359171 L 905.8078955520177 753.5204321279307 L 903.9609374720603 754.5468753919704 L 903.8593751040171 755.8750003199675 L 904.57680179202 756.5924270079704 L 904.1465139200445 756.5924270079704 L 904.2470707200118 756.8473487359588 L 904.1249996800325 757.0898442239268 L 904.1693685760256 757.1046328319353 L 903.8614732800634 757.718511615938 L 903.8189209600678 757.7021521919523 L 903.3515622400446 758.6403174399748 L 902.3261777920416 759.9723397119669 L 898.817873920023 758.3722004479496 L 895.3671874560532 756.800781311933 L 899.3300336640677 759.2013957119198 L 902.1199872000143 760.8945879039238 L 901.4077440000256 761.5475630079745 L 900.8895590400207 762.0180961279548 L 898.2249318400281 760.8721612799563 L 895.6718745600665 759.7695313919685 L 900.1718753280584 762.5351567359176 L 893.8270720000146 769.3924270079588 L 885.1220480000484 774.0004270079662 L 881.6405196800479 775.3316556799691 L 880.9236705280491 775.024427007942 L 880.9236592640518 774.7162521599676 L 879.898437632015 774.8203120639664 L 880.3105464320397 775.3317232639529 L 879.7968793600448 775.7418741759611 L 878.3636766720447 775.4340321279597 L 878.3636480000569 776.3546030079597 L 878.0546877440647 776.3554682879476 L 877.5781253120513 776.804687871947 L 877.5291330560576 776.9415761919226 L 877.4420490240445 777.1738050559652 L 877.1328430080321 777.2253378559253 L 873.9683235840639 782.0782090239227 L 873.0391336960602 783.4197893119417 L 873.1406254080357 786.4960942079197 L 873.0937497600098 787.0312499199645 L 873.0703124480206 787.2812503039604 L 873.0318714880268 787.7489582079579 L 872.9374996480183 788.8473487359588 L 872.6909091840498 788.9460357119679 L 872.3359375360305 789.082031103957 L 872.4218746880651 789.7695313919685 L 872.368293888052 789.8625925119268 L 872.2716477440554 790.0236697599175 L 872.6250004480244 791.2031252479646 L 872.8906250240398 791.2304691199679 L 873.6543272960116 791.3045012479415 L 873.9609374720603 792.5351567359176 L 876.8281251840526 796.019530751917 L 879.5932938240585 800.624241663958 L 879.1779420160456 803.7736499199527 L 879.0781245440594 804.5156249599531 L 878.8750602240325 805.0271907839342 L 878.7224678400671 805.1797831679578 L 878.3636725760298 805.9481098239194 L 877.7492500480148 807.5866060799453 L 877.5430737920105 807.6381491199718 L 876.2031247360283 808.8828129279427 L 876.5781248000567 808.980468735972 L 877.0310615040362 809.0234204159351 L 876.9687500800355 809.1640627199668 L 876.7252480000607 809.7370030079619 L 876.6230415360187 809.8903132159612 L 876.1809571840568 810.7398174719419 L 875.9765626880107 811.1289067519247 L 873.8580480000237 815.3690030079451 L 873.0388480000547 816.3930030079209 L 871.810546688037 819.6676607999252 L 871.3984378880123 820.6953123839339 L 871.5000002560555 821.4062499839347 L 871.3591490560211 821.8362152959453 L 870.9374996480183 823.1051612159354 L 870.4765624320135 824.4843745279359 L 870.4765624320135 825.1992186879506 L 870.2860257280408 825.5634094079724 L 869.7567488000495 826.5652541439631 L 869.7109370880644 826.6484377599554 L 869.4671667200164 827.1132753919228 L 866.5878906880389 832.5700044799596 L 866.2109378560563 833.8437498879503 L 866.074624000059 834.3119790079654 L 855.4218752000597 845.6796876799199 L 854.2968750080327 847.3203128319583 L 854.4999997440609 848.1406248959247 L 853.7187502080342 849.3141452799318 L 853.7187502080342 849.3164062719443 L 853.7796464640414 849.7639116799692 L 853.7789870080305 849.8049279999686 L 853.8359377920278 850.2851563519216 L 853.9843747840496 850.3984373759595 L 854.4361379840411 850.7611207679729 L 854.5512652800535 850.8551905279746 L 854.6015621120459 850.902343679918 L 854.6056990720099 854.3190149119473 L 854.6058240000275 857.3519790079445 L 853.1722240000381 861.8575790079194 L 852.5587456000503 862.3677890559193 L 852.7636715520639 863.5973488639574 L 851.021824000054 864.3141550079454 L 851.021824000054 865.1333550079726 L 848.8706826240523 867.7958225919283 L 848.507006976055 867.0721085439436 L 848.3593748480198 866.7734374399297 L 848.3581163520576 866.7758161919191 L 848.3571773440344 866.7739473919501 L 847.4375792640494 868.5122119679581 L 847.4375004160102 868.5156249599531 L 847.5023431680165 868.645311487955 L 847.5380705280113 868.7221002239385 L 847.023437824042 870.8710932479589 L 846.8593745920225 871.2968744959217 L 846.5156249600113 872.1989109759452 L 846.5152000000235 873.5301550079603 L 846.3092500480125 874.762501119927 L 845.79687526403 876.1953126399312 L 845.3888000000152 877.421355007973 L 844.7876423680573 878.8237967359601 L 844.9795072000124 880.1853655039449 L 844.0585932800313 882.132504575944 L 844.1075189760304 882.8720250879414 L 844.1562501120497 883.6679690239253 L 843.6953128960449 884.1796874239226 L 843.9531253760215 884.2851563519216 L 843.7499996160623 886.023437311931 L 844.4672000000137 889.0949550079531 L 841.9730278400239 893.28525823995 L 841.9062497280538 893.3945313279401 L 841.9843747840496 894.0624998399289 L 842.0000000000582 894.2070312959258 L 842.3671879680478 895.2421877759625 L 842.6235074560391 895.3431623679353 L 842.0086824960308 897.5944785919273 L 840.2694369280362 898.2083307519206 L 840.2656245760154 898.2109378559398 L 840.2257981440634 898.9477365759667 L 840.1692538880161 899.9025100799627 L 840.1644564480521 899.9492843519547 L 837.3046876160661 899.8476564479643 L 837.8437498880667 899.9843747839332 L 840.5754880000604 900.6673090559198 L 840.2715566080296 902.0661043199361 L 840.0624998400453 903.0195312639698 L 837.1969034240465 902.61176831997 L 837.196656640037 902.6134712319472 L 837.195312128053 902.6132807679242 L 837.015624704014 903.8476564479643 L 838.1068636160344 904.0450078719296 L 836.3791206400492 904.1466408959241 L 836.5468753920286 906.3632814079174 L 836.5824000000139 906.8091310079326 L 834.5372559360112 907.524931583961 L 835.9682211840409 908.7573575679562 L 835.4526689280174 912.4264642559574 L 835.3828126720618 912.9140623359708 L 835.1487488000421 914.5915719679324 L 832.5859379200265 916.6406246399274 L 832.4844492800185 917.3588459519669 L 831.7661286400398 919.2994191359612 L 830.9504245760618 918.8914042879478 L 831.4597550080507 917.6163850239245 L 831.9765626880107 916.3359375359723 L 831.9723151360522 916.334983167937 L 831.9728220160468 916.3337154559558 L 831.0547701760661 916.1281986559625 L 831.2578129920294 914.3906252799206 L 830.3350036480115 913.7723494399688 L 830.1301760000642 916.3323310079286 L 830.5390622720588 917.6640624639695 L 829.7187502080342 918.7929692159523 L 829.9229409280233 920.7115950079751 L 830.1301760000642 922.6811310079647 L 830.9453127680463 923.2968744959217 L 831.3593753600144 924.0156252159504 L 833.4062499840511 929.0312499199645 L 833.8180833280203 930.0541726719239 L 834.8415877120569 930.5659709439497 L 834.5093304320471 931.6523724799627 L 834.1171875840519 932.9257809919654 L 833.978743808053 933.3872619519243 L 833.7146654720418 934.2507315199473 L 834.1162721280125 935.7063915519393 L 834.53125017602 937.2226559999399 L 835.554688000062 939.4765629439498 L 835.1488000000245 941.6251310079242 L 833.509504000016 943.1610111999325 L 833.6015626240405 942.0156252159504 L 833.9218749440624 937.9414067199687 L 833.689480192028 936.2181816319353 L 833.5094353920431 934.8671784959733 L 833.3906247680425 935.0703124479624 L 833.2653352960479 935.2938024959294 L 833.0997760000173 935.5835310079274 L 833.0703124480206 936.167968767928 L 832.997376000043 937.7339310079697 L 831.9708313600277 940.1947822079528 L 830.1301913600182 942.5467115519568 L 828.289062912052 939.9882813439472 L 828.289062912052 936.4062504959293 L 828.2869760000613 936.4123371519381 L 828.2869760000613 936.4042383359629 L 827.6720128000597 938.2456801279332 L 826.7514593280503 938.1435832319548 L 826.0775157760363 936.7129733119509 L 825.648437248019 935.7968752639717 L 825.5235440640245 935.6871526399627 L 825.5390627840534 935.6367185919662 L 825.5426785280579 935.6168294399395 L 825.5495505920262 935.5936706559733 L 825.1129169920459 934.6626580479206 L 825.9415664640255 932.7667568639736 L 826.5468753920286 931.3867192319594 L 826.5387417600141 931.4007285759435 L 826.5436170240282 931.3895772159449 L 824.7029760000296 934.5595310079516 L 823.8828124160646 936.3007815679302 L 824.3746242560446 935.7113128959318 L 824.3974553600419 935.6884817919345 L 827.1250001920271 939.8320312319556 L 827.155002368032 939.8845358079416 L 826.0298127360293 940.1863772159559 L 822.7578193920199 937.6325089279562 L 822.5525760000455 937.7339310079697 L 822.0390625280561 937.7343754239264 L 822.9609379840549 939.1679682559334 L 822.6562498560525 939.7226557439426 L 822.5443256320432 939.9335905279731 L 822.3482583040604 940.2930472959415 L 822.3537879040232 940.2926817279658 L 822.3515627520392 940.2968750079744 L 823.8828124160646 940.1953126399312 L 826.8359372800332 942.9726566399331 L 827.3653760000598 943.4683310079272 L 829.5143106560572 948.1768058879534 L 828.7989760000492 948.4849070079508 L 828.7991101440275 948.4873215999687 L 828.7968747520354 948.4882810879499 L 828.8046878720634 948.66015641595 L 828.8983879680163 950.3272499199375 L 826.2421872640261 949.816406015947 L 827.8750003200257 950.3320309759583 L 828.0534118400537 951.616596991953 L 828.1851668480667 952.5809919999447 L 828.8984371200204 952.6875002879533 L 828.3576320000575 954.2070190079394 L 828.0784947200445 954.9878906879458 L 827.8750003200257 955.5507814399316 L 828.1562501120497 956.2070312959258 L 828.5929052160354 957.2092323839315 L 830.129138688033 960.7705006079632 L 825.5221760000568 957.0865070079453 L 823.5794728960609 955.8559406079585 L 823.4238289920613 955.7535948799341 L 822.7623608320137 955.6538470399682 L 822.813150208036 955.7935431679361 L 822.9062502400484 956.0624998399289 L 823.3671874560532 957.289062399941 L 828.8203120640246 960.6250004479662 L 830.7480473600444 963.4254735359573 L 831.1116175360512 964.2977843199624 L 831.9843747840496 966.4023439359735 L 832.2343751680455 966.3984373759595 L 832.4843745280523 966.3984373759595 L 832.4839864320238 966.3946915839333 L 832.4862423040322 966.3946680319495 L 831.9777546240366 961.4918860799517 L 832.6406246400438 961.3242183679249 L 832.7890626560547 961.289062399941 L 832.8310026240651 961.3609584639198 L 832.8417280000285 961.3821870079264 L 833.3858017280581 962.4713205759181 L 833.4062499840511 962.5156249599531 L 832.7890626560547 968.1484369919635 L 834.0212848640513 970.5007339519216 L 831.8711982080131 978.897722367954 L 833.3046876160661 979.0039060479612 L 833.7294356480124 979.1816540159634 L 834.0180623360211 979.3053030399606 L 832.178205696051 979.5121039359365 L 831.0527344640577 980.8434421759448 L 830.9492183040129 984.1168793599354 L 830.9743513600552 984.144010239921 L 831.343750144064 984.5039063039585 L 831.4843750400469 984.7460935679264 L 831.6093747200212 985.011719167931 L 831.7944248320418 985.3712445439305 L 831.8808596480521 985.5426611199509 L 832.6640629760223 986.5937500159489 L 832.8281251840526 986.6679685119307 L 832.914062336029 986.7812495359685 L 832.9598453760264 986.8545023999177 L 832.9881600000663 986.9053870079224 L 832.9765621760162 987.1015628799214 L 833.0977280000225 987.2627630079514 L 833.1855063040275 987.4475919359247 L 833.442339840054 987.7955891199526 L 833.6249999360298 987.9531253759633 L 833.656250368047 988.0859371519182 L 833.7343754240428 988.1914060799172 L 833.7499996160623 988.277344255941 L 833.898437632015 988.4218746879487 L 834.0156252160668 988.8320317439502 L 833.9842775040306 988.9354792959639 L 833.9343360000639 989.0865070079453 L 833.76332800003 989.2923310079495 L 833.4540800000541 989.4346670079394 L 832.9902080000611 989.6671150079346 L 832.3543040000368 989.8749870079337 L 832.1320960000157 990.132011007925 L 832.1328128000605 990.4792668159353 L 832.0624998400453 990.7343749119318 L 832.0581632000394 990.8135219199467 L 832.0413593600388 991.0236620799406 L 831.8573783040629 991.2189286399516 L 831.7518100480665 991.3445386239327 L 831.6538880000589 991.4673070079298 L 831.242199040018 991.9176478719455 L 828.9589841920533 990.300472319941 L 828.1543024640414 990.2898831359344 L 827.4062499840511 990.3710935039562 L 826.6547425280442 990.5272647679667 L 825.9375001600129 990.4023439359735 L 824.7144335360499 989.8433320959448 L 820.2343403520645 988.3632486399729 L 819.6108830720186 987.7754695679178 L 819.335937024036 987.292968959955 L 819.3671874560532 986.8554690559395 L 819.5703121920233 986.3242188799195 L 819.5937495040125 986.023437311931 L 819.627607040049 985.5383214079193 L 819.1463208960486 984.5389823999722 L 818.4657848320203 983.8968709119363 L 817.5996026880457 983.688254463952 L 815.7819105280214 983.7975439359434 L 814.8224225280574 983.8016409599222 L 813.3990635520313 983.6920709119295 L 809.3655275520287 982.747943935974 L 808.8842240000376 982.5441710079322 L 808.5401600000332 982.3281070079538 L 808.3845120000187 982.0475310079637 L 808.3671879680478 981.7812500479631 L 808.4490240000305 981.4198190079187 L 808.6144419840421 981.153820671956 L 808.8593745920225 980.7656253439491 L 809.4687498240382 979.7656248319545 L 809.5005521920393 979.5472599039203 L 809.344000000041 979.1106990079279 L 808.947712000052 978.792235007917 L 808.6384834560449 978.6785781759536 L 808.2616596480366 978.6417090559262 L 807.968749568041 978.9140623359708 L 807.8477834240184 979.1096248319373 L 807.4967040000483 979.6687790079741 L 806.7450880000251 980.1971630079206 L 806.1808650240419 980.4552140799351 L 805.5818465280463 980.5985617919359 L 804.5156249600113 980.4648437759606 L 804.9999994880636 980.8710932479589 L 805.3802588160615 981.1776296959724 L 805.4204375040135 981.5505418239627 L 805.4841763840523 981.8428190719569 L 805.2828160000499 982.0209070079727 L 804.9745920000132 982.0741550079547 L 804.6991360000102 981.8959790079389 L 804.5260800000397 981.7167790079257 L 804.355072000064 981.6666030079359 L 804.0806400000583 981.7444270079723 L 804.078125056054 981.746094079921 L 804.1893990400131 981.9517102079699 L 804.2547200000263 982.0762030079495 L 804.562499584048 982.3085936639691 L 804.9765621760162 982.4101560319541 L 805.3906247680425 982.4062504959293 L 805.6640624640277 982.3281254399335 L 805.8316800000612 982.1468590079457 L 806.1015623680432 982.019530751917 L 806.7578122240375 982.1445314559387 L 807.445312512049 982.4257812479627 L 808.2343751680455 982.804687871947 L 808.6796871680417 983.0585937919677 L 809.195312128053 983.2109373439453 L 809.8828124160646 983.3124997119303 L 810.7734374400461 983.3828126719454 L 811.7031249920256 983.6874997759587 L 812.390625280037 983.8906245119288 L 812.6640629760223 984.0937502719462 L 812.5942906880518 984.3224453119328 L 812.2204160000547 984.3996590079623 L 811.6377600000123 984.2737070079311 L 811.259904000035 984.1487790079555 L 810.9506560000591 984.1242030079593 L 810.7448320000549 984.0740270079696 L 810.5728000000236 984.0484270079178 L 810.5722357760533 984.051087359956 L 810.5703127040179 984.0507811839343 L 810.539753472025 984.2035732479417 L 810.4724480000441 984.3300270079635 L 810.232832000067 984.3566510079545 L 809.7525760000572 984.3074990079622 L 809.4095360000501 984.282923007966 L 809.2031252480228 984.3359375359723 L 809.343750144064 984.4374999039574 L 810.3359375360305 984.5624995839316 L 811.26562508801 984.558594047965 L 812.1171875840519 984.6093752319575 L 812.562499584048 984.656249855936 L 812.7718778880662 984.7842037759256 L 812.841984000057 985.1144110079622 L 813.0153338880627 985.6280401919503 L 812.8819200000144 986.1128110079444 L 812.8828129280591 986.2929684479604 L 813.0546872320119 986.3984373759595 L 813.1562496000552 986.0117186559364 L 813.2578129920294 985.6796876799199 L 813.1875000320142 985.292968959955 L 813.1493089280557 984.9609144319547 L 813.2109373440617 984.7773439999437 L 813.2504115200136 984.6520115199382 L 813.2149063680554 984.3968962559593 L 813.3515622400446 984.2695311359712 L 813.828124672058 984.2695311359712 L 814.7578122240375 984.2890629119356 L 815.6093747200212 984.2343751679291 L 816.1953126400476 984.0781250559376 L 817.0546872320119 983.9726561279385 L 817.7890621440602 984.1249996799743 L 818.3590256640455 984.491963391949 L 818.53125017602 984.7617187839351 L 818.8426240000408 985.2956590079702 L 818.9982720000553 985.5383470079396 L 818.8620800000499 985.6151470079203 L 818.7074560000328 985.6796590079321 L 818.3992320000543 985.6294830079423 L 818.2958080000244 985.553707007959 L 818.1585920000216 985.5025070079719 L 817.9865600000485 985.4523310079239 L 817.7971200000611 985.4912430079421 L 817.5923200000543 985.6202670079656 L 817.4213120000204 985.6980910079437 L 817.2154880000162 985.660203007923 L 817.1120640000445 985.5455150079215 L 816.9226240000571 985.3540270079393 L 816.7187496960396 985.2148439039593 L 816.6297600000398 985.1891630079481 L 816.3215360000613 985.1512750079273 L 815.9784960000543 985.1656110079493 L 815.6364800000447 985.1932590079377 L 815.3620480000391 985.2198830079287 L 815.0712320000166 985.2331950079533 L 815.019008000032 985.1953070079326 L 814.8817920000292 985.1830190079636 L 814.6933760000393 985.2096430079546 L 814.3851520000608 985.222955007921 L 814.1967360000126 985.237291007943 L 814.1455360000255 985.3263790079509 L 814.128424960014 985.4001684479299 L 814.109375488013 985.4687498239218 L 814.2187499520369 985.5742187519209 L 814.4062504960457 985.6210933759576 L 814.6250004480244 985.6484372479608 L 814.9531248640269 985.6718745599501 L 815.2578129920294 985.6835942399339 L 815.6874997760169 985.6679690239253 L 816.0703129600151 985.6796876799199 L 816.460937216063 985.7539061759599 L 816.6154434560449 985.869786111929 L 816.4765624320135 985.9843747839332 L 816.2754560000612 986.0861870079534 L 816.2757109760423 986.0886630399618 L 816.2734376960434 986.0898437119322 L 816.2839132160298 986.1684131839429 L 816.2938880000147 986.2653870079666 L 816.3147837440483 986.3014420479303 L 816.3437496320112 986.3593748479616 L 816.3809280000278 986.5469870079542 L 816.3828121600673 986.550780927937 L 816.4843745280523 986.5859379199683 L 816.6562498560525 986.5468753919704 L 816.812499968044 986.3945308159455 L 817.0859376640292 986.2265620479593 L 817.335937024036 986.2382817279431 L 817.4218752000597 986.3007815679302 L 817.5078123520361 986.4023439359735 L 817.4921871360275 986.5703127039596 L 817.3906247680425 986.6992189439479 L 817.2890624000574 986.8515624959255 L 817.1550720000523 986.9924270079355 L 817.1223040000186 987.1460270079551 L 817.10592000006 987.3252270079684 L 817.0546872320119 987.609374719963 L 816.9891840000637 987.8382510079537 L 817.0107166720554 988.0228126719594 L 817.023437824042 988.1484369919635 L 817.285120000015 988.5663150079199 L 817.7656248320127 989.1171870719409 L 817.8515630080365 989.3593753599562 L 817.6874997760169 990.4374999039574 L 817.7421875200234 990.8085934079718 L 818.4843745280523 991.4062499839347 L 819.1718748160638 991.85156300792 L 820.390625280037 992.5273436159478 L 821.4609684480238 993.0586234879447 L 822.0468746240367 993.6210933759576 L 822.2421872640261 993.8046873599524 L 822.4453120000544 993.9921879039612 L 822.7500001280569 994.3164057599497 L 822.8749998080311 994.453125119966 L 822.9609379840549 994.5390622719424 L 823.4687498240382 994.8945315839374 L 823.5937495040125 994.8710932479589 L 823.6995307520265 994.9050951679237 L 823.7342504960252 995.0074071039562 L 823.7178880000138 995.1096750079305 L 823.7187502080342 995.2031252479646 L 823.8359377920278 995.3164062719443 L 824.1328128000605 995.609374719963 L 824.2500003840541 995.6757811199641 L 824.390625280037 995.6718745599501 L 824.460937216063 995.609374719963 L 824.4921876480221 995.4687498239218 L 824.5243586560246 995.4023434239207 L 824.710937600059 995.4023434239207 L 824.8515624960419 995.4921871359693 L 824.8984371200204 995.539062783937 L 825.0546872320119 995.7070315519231 L 825.2303360000369 995.8359039999195 L 825.384960000054 995.8993919999339 L 825.5069624320604 995.8480015359237 L 825.656250368047 995.8359377919696 L 825.8125004800386 995.92578150396 L 826.0382720000343 996.2557439999655 L 826.264576000045 996.8824319999549 L 826.4531251200242 997.3828126719454 L 826.4576890880126 997.6384112639353 L 826.4591360000195 997.8675199999707 L 826.35878400004 998.3027199999196 L 826.2580992000294 998.674722815922 L 826.0376309760613 998.867632127949 L 825.749885952042 998.9570099199191 L 825.4218752000597 998.8945315839374 L 825.2499998720596 998.7929692159523 L 825.164062720025 998.6132807679242 L 825.1766446080292 998.4706846719491 L 825.1913431040593 998.3284377599484 L 825.195312128053 998.3085936639691 L 825.2426240000641 997.8849279999267 L 825.1718748160638 997.7304688639706 L 825.0703124480206 997.6914063359727 L 824.9687500800355 997.7695313919685 L 824.8320000000531 997.9248639999423 L 824.6520832000533 998.0927016959176 L 824.5390622720588 998.1953126399312 L 824.2343751680455 998.6328125439468 L 823.7936640000553 999.1966719999327 L 823.0937497600098 999.9296870399266 L 822.914062336029 1000.1406248959247 L 822.9040394240292 1000.1556592639536 L 822.8116787200561 1000.2647019519354 L 822.4453120000544 1000.6875002879533 L 822.3815680000116 1000.8412159999716 L 822.450176000013 1000.9825279999641 L 822.3984373760177 1001.1484375039581 L 822.3984373760177 1001.3515622399282 L 822.3828121600673 1001.5468748799176 L 822.2632775680395 1001.7403934719623 L 821.9934720000601 1001.9829759999411 L 821.6328120320104 1002.2148433919647 L 821.3610670080525 1002.331305983942 L 821.0859376640292 1002.4101560319541 L 820.5936640000436 1002.8974079999607 L 820.3046871040133 1003.2812503039604 L 820.0468746240367 1003.6562503679306 L 820.0468746240367 1003.700850687921 L 820.0426629120484 1003.7640335359611 L 820.0312504320173 1003.8867189759621 L 820.0703129600151 1003.9999999999418 L 820.0954019840574 1004.0645171199576 L 820.1216000000131 1004.1415679999627 L 820.0540160000673 1004.3084799999488 L 819.935232000018 1004.4364799999748 L 819.7632000000449 1004.5788159999647 L 819.6459366400377 1004.7183185919421 L 819.6628480000654 1004.9116159999394 L 819.5778560000472 1005.065215999959 L 819.3558978560613 1005.1562495999387 L 819.1171870720573 1005.1562495999387 L 818.995200000063 1005.0805759999203 L 818.9255680000642 1004.9402879999252 L 818.8816578560509 1004.8911349759437 L 818.8593745920225 1004.8632811519201 L 818.7343749120482 1004.8632811519201 L 818.7011471360456 1004.9048156159697 L 818.6685440000147 1004.9413119999226 L 818.5837260800181 1005.0435020799632 L 818.3613440000336 1005.0959359999397 L 818.0695040000137 1005.04575999995 L 817.8821847040672 1004.983995391929 L 817.5882240000647 1004.8051199999172 L 817.227740160015 1004.5498583039735 L 817.2109373440617 1004.5351567359176 L 816.6585128960432 1004.3211888639489 L 816.2816000000457 1004.0801279999432 L 815.7499996160623 1003.9023441919708 L 815.2890624000574 1003.710937087948 L 814.9609379840549 1003.4843750399305 L 814.7890626560547 1003.292968959955 L 814.7513968640123 1003.22619699192 L 814.6124800000107 1002.9598719999194 L 814.3515627520392 1002.4726558719412 L 814.078125056054 1002.0390625279397 L 813.7812500480213 1001.6054691839381 L 813.4062499840511 1001.3632808959228 L 813.1102720000199 1001.2497919999296 L 813.0242560000625 1001.1863039999735 L 813.0580480000353 1001.0327039999538 L 813.0406400000211 1000.9303039999213 L 812.562499584048 1000.7656253439491 L 812.4921876480221 1000.7773439999437 L 812.4907520000124 1000.7787519999547 L 812.4765624320135 1000.8632811519201 L 812.5440000000526 1000.9958399999305 L 812.5781248000567 1001.1367188479635 L 812.460937216063 1001.187500031956 L 812.2734376960434 1001.1757813759614 L 811.8845440000296 1001.1637759999721 L 811.6328120320104 1001.19140659197 L 811.5911321600433 1001.2513218559325 L 811.5681280000135 1001.2815359999659 L 811.4145280000521 1001.3081599999568 L 811.2752640000544 1001.3143039999413 L 812.2378240000107 1001.4197759999661 L 812.8552960000234 1001.5201279999455 L 813.0468751360313 1001.5859374079737 L 813.2331520000589 1001.6460799999186 L 813.5234375680448 1001.824219135975 L 813.7318400000222 1002.0290559999412 L 813.9581440000329 1002.5011199999717 L 814.1322240000591 1002.9619199999725 L 814.179687424039 1003.1210936319549 L 814.3593748480198 1003.6796876799199 L 814.5848320000223 1004.0739839999587 L 814.8264960000524 1004.405759999936 L 815.1015628800378 1004.7382814719458 L 815.3436160000274 1004.992511999968 L 816.0468746240367 1005.6953128959285 L 816.6081802240224 1006.2527191039408 L 816.0440320000635 1006.6053119999706 L 815.301632000017 1007.0896639999701 L 814.8951040000538 1007.2954879999743 L 814.8873840640299 1007.3640058879391 L 814.8749998080311 1007.4414059519186 L 814.794795008027 1007.5216107519227 L 814.6913280000445 1007.621119999967 L 814.4145766400616 1007.7805209599319 L 814.2305280000437 1007.9170559999184 L 814.1636597760371 1008.0821995519218 L 813.9765626880107 1008.1601566719473 L 813.7187502080342 1008.1367183359689 L 813.4921871360275 1008.0468746239203 L 813.2734371840488 1007.9335935999407 L 813.015624704014 1007.8046873599524 L 812.8377088000416 1007.7804257279495 L 812.3442544640275 1007.7071083519259 L 811.9843747840496 1007.5546879999456 L 811.828124672058 1007.3359370239195 L 811.7812500480213 1007.2499998719431 L 811.6406251520384 1006.980468735972 L 811.3984378880123 1006.7500001279404 L 811.11961600004 1006.4701439999626 L 811.0336000000243 1006.3933439999237 L 810.8593745920225 1006.3281254399335 L 810.7734374400461 1006.3828121599508 L 811.0008320000488 1006.700543999963 L 811.2773120000493 1007.0579199999338 L 811.4339840000612 1007.3518079999485 L 811.3664000000572 1007.5443199999281 L 811.4524405760458 1007.7269196799607 L 811.4531246080296 1007.8632816639729 L 811.3346560000209 1007.9795199999353 L 811.3356800000183 1008.1719971839339 L 811.1984640000155 1008.2365439999267 L 810.9453127680463 1008.2109378559398 L 810.7651358720614 1008.1438504959224 L 810.5809920000611 1008.0727039999329 L 810.2031247360283 1007.8671871999395 L 809.9296870400431 1007.5625000959262 L 809.7198080000235 1007.4101759999176 L 809.3419520000461 1007.2831999999471 L 809.1187200000277 1007.1050239999313 L 808.7734374400461 1006.7851560959243 L 808.4643840000499 1006.65958399995 L 808.0527360000415 1006.5336319999187 L 807.7772800000384 1006.3810559999547 L 807.6206080000266 1006.0615679999464 L 807.4311680000392 1005.7932799999253 L 807.292928000039 1005.6396799999638 L 807.1034880000516 1005.473791999917 L 807.0338560000528 1005.3724159999401 L 807.0530037760618 1005.2993064959301 L 807.0703124480206 1005.2421877759625 L 807.0859376640292 1005.1015628799214 L 807.0255196160288 1004.9958307839697 L 806.9795840000152 1004.9116159999394 L 806.978610176011 1004.9137397759478 L 806.9765621760162 1004.9101557759568 L 806.8437504000613 1005.2070307839313 L 806.8802560000331 1005.4369279999519 L 807.0859376640292 1005.5898439679295 L 807.225344000035 1005.8065919999499 L 807.3635840000352 1005.9857919999631 L 807.4506240000483 1006.1639679999207 L 807.5703121920233 1006.2539059199626 L 807.6052193280193 1006.3686717439559 L 807.499998208019 1006.4062556159333 L 807.2968744960381 1006.3046871039551 L 806.9867520000553 1006.128127999953 L 806.7983360000653 1006.0390399999451 L 806.7287040000665 1005.9622399999644 L 806.6600960000651 1005.8731519999565 L 806.4062504960457 1005.8476564479643 L 806.1249996800325 1005.8867189759621 L 805.9375001600129 1005.9531253759633 L 805.8040320000146 1006.0431359999347 L 805.872640000016 1006.1066239999491 L 806.0098560000188 1006.1055999999517 L 806.2842234880663 1006.0277944319532 L 806.5390622720588 1006.0664063999429 L 806.6276997120585 1006.1585889279377 L 806.7307520000613 1006.2694399999455 L 807.0078126080334 1006.449218559952 L 807.3840640000417 1006.5868799999589 L 807.7271040000487 1006.6882559999358 L 807.968749568041 1006.8281251839362 L 808.225792000012 1006.9422079999349 L 808.4140625920263 1007.1210936319549 L 808.433664000011 1007.2483839999186 L 808.5544960000552 1007.3374719999265 L 808.8281251840526 1007.3632808959228 L 809.1545600000536 1007.4511359999306 L 809.464832000027 1007.6671999999671 L 809.599652864039 1007.8666608639178 L 809.6874997760169 1007.9999999999418 L 809.8593751040171 1008.2812497919658 L 809.8979840000393 1008.548863999953 L 810.0362240000395 1008.6379519999609 L 810.1562634240254 1008.8281845759484 L 810.2265620480175 1009.1367188479635 L 810.4140625920263 1009.2265625599539 L 810.4941649920656 1009.2586035199347 L 810.6562498560525 1009.3281249279389 L 810.8437504000613 1009.4414059519186 L 811.0530560000334 1009.5820799999638 L 811.0530560000334 1009.7100799999316 L 810.9368023040588 1009.7852436479297 L 810.8870993920136 1009.7914562559454 L 810.6562498560525 1009.8125004799222 L 810.3203123200219 1009.85156300792 L 810.1294080000371 1009.9435519999242 L 810.0280320000602 1010.0981759999413 L 809.9765626880107 1010.3046871039551 L 810.2187499520369 1010.097655807971 L 810.421248000057 1009.981439999945 L 810.7656253440655 1009.9414067199687 L 811.0390620160615 1009.9023441919708 L 811.2952197120176 1009.7859082239447 L 811.6172707840451 1009.7970493439352 L 811.7031249920256 1009.9765626879525 L 811.6658841600292 1010.060353535926 L 811.6387840000098 1010.116607999953 L 811.4824929280439 1010.1811937279417 L 811.430267904012 1010.194739199942 L 811.2619520000299 1010.2333439999493 L 811.0546872320119 1010.2343751679291 L 810.8515624960419 1010.3242188799195 L 810.7325440000277 1010.4535039999173 L 810.6137600000366 1010.6460159999551 L 810.5287680000183 1010.8518399999593 L 810.0853760000318 1011.1600639999378 L 809.9502080000238 1011.4170879999292 L 809.9345223680139 1011.570512895938 L 809.9140628480236 1011.7382809599512 L 809.8828124160646 1011.9687495679245 L 809.7499996160623 1012.0820316159516 L 809.5426560000633 1012.0970239999588 L 809.2187504640315 1011.9570309119299 L 809.221715968044 1011.9601971199736 L 809.2160000000149 1011.9577599999611 L 809.3817425920279 1012.1310361599317 L 809.5078123520361 1012.2656245759572 L 809.7320960000507 1012.3141119999345 L 809.9218749440624 1012.2617190399324 L 810.0234373120475 1012.1328127999441 L 810.109375488013 1011.9023441919708 L 810.1570560000255 1011.6085759999696 L 810.2748160000192 1011.3136639999575 L 810.3755909120664 1011.109060607967 L 810.6171873280546 1010.980468735972 L 810.8195840000408 1010.747391999932 L 811.040600064036 1010.5426718719536 L 811.3838080000132 1010.4770559999743 L 811.8671872000559 1010.4882810879499 L 812.4924938240438 1010.6572789759375 L 812.9765621760162 1010.9296875519212 L 813.043357696035 1010.9834946559276 L 813.2556800000602 1011.1610879999353 L 813.4123520000139 1011.4672639999189 L 813.499392000027 1011.7744639999582 L 813.4577889280627 1011.9267962879385 L 813.4296872960404 1012.019530751917 L 813.4803333120653 1012.1366497279378 L 813.5198720000335 1012.235263999959 L 813.6919040000648 1012.387839999923 L 813.7953280000365 1012.5025279999245 L 813.7277440000325 1012.5803519999608 L 813.5406714880373 1012.6168852479314 L 813.3160960000241 1012.5813759999583 L 812.9904640000314 1012.5578239999595 L 812.8020480000414 1012.6090239999467 L 812.7443937280332 1012.7148892159457 L 812.6796871680417 1012.8281251839362 L 812.921875456057 1012.6875002879533 L 813.1450880000484 1012.68479999993 L 813.4202286080108 1012.7612477439689 L 813.5390627840534 1012.8749998079729 L 813.5390627840534 1013.0156247039558 L 813.6622080000234 1013.1568639999605 L 813.8987079680664 1013.3683107839315 L 813.968749568041 1013.5039057919639 L 813.9895930880448 1013.5377766399179 L 814.076928000024 1013.7057279999717 L 814.1640622080304 1014.0898437119322 L 814.3636992000393 1014.25519411196 L 814.4374999040156 1014.3203123199637 L 814.5937500160653 1014.5742182399263 L 814.5295360000455 1014.8433919999516 L 814.3671879680478 1015.0507816959289 L 814.3359375360305 1015.1015628799214 L 814.2578124800348 1015.4062499839347 L 814.1404160000384 1015.6390399999218 L 813.8828124160646 1015.7929687039577 L 813.7187502080342 1016.0156252159504 L 813.5781724160188 1016.2811607039184 L 813.335937024036 1016.5390622719424 L 812.9453127680463 1016.7187496959232 L 812.4999997440609 1016.835937279975 L 812.2109378560563 1016.9257809919654 L 811.885568000027 1017.0183679999318 L 811.561984000029 1017.2497919999296 L 811.0859376640292 1017.4414059519186 L 811.0560768000432 1017.4443919359474 L 810.723328000051 1017.4576639999286 L 810.6393600000301 1017.7525759999407 L 810.5703127040179 1018.0742184959236 L 810.421248000057 1018.52159999992 L 810.3437496320112 1018.8398438399308 L 810.3045120000606 1019.0090239999699 L 810.2881280000438 1019.2650239999639 L 810.3046871040133 1019.8281246719416 L 810.3866316800122 1019.9627479039482 L 810.5156249600113 1020.1874995199614 L 810.5205442560255 1020.7575859199278 L 810.4202240000595 1021.159423999954 L 810.3993610240286 1021.2662937599234 L 810.3671879680478 1021.4179686399293 L 810.4921876480221 1021.6601559039555 L 810.6617251840653 1021.9344670719584 L 810.7874836480478 1022.2020362239564 L 810.8203120640246 1022.273437695927 L 810.8738560000202 1022.5151999999653 L 811.0295040000346 1022.7578879999346 L 811.164062720025 1023.0000005119364 L 811.1861760000465 1023.2309759999625 L 811.2187504640315 1023.3984378879541 L 811.3749995520338 1023.5117189119337 L 811.3264640000416 1023.6917759999633 L 811.2248197120498 1023.7934202879551 L 811.0192640000605 1023.8463999999221 L 810.7384688640595 1023.8467235839344 L 810.5216000000364 1023.8228479999234 L 810.4277237760252 1023.8720757759293 L 810.2656245760154 1023.9531253759633 L 810.240234142213 1024.0" fill="none"/></svg>