<svg xmlns="http://www.w3.org/2000/svg" width="1024" height="1024"><rect stroke="none" x="0" y="0" width="1024" height="1024" fill="white"/><path stroke="#408040" stroke-width="3" d="M 0.0 1019.3677758590275 L 18.585600000005797 1019.3305600000022 L 60.702720000001136 1019.2281599999988 L 77.5884800000058 1017.2006400000027 L 128.67583999999624 1018.4703999999983 L 173.37343999999575 1018.8185599999997 L 276.7974399999948 1019.7606400000004 L 281.8457599999965 1019.8118400000021 L 285.6140799999994 1019.4432000000015 L 290.0479999999952 1017.4259200000015 L 295.5673600000009 1014.5075199999992 L 300.6156800000026 1013.2172799999971 L 308.8486399999965 1013.5449599999993 L 327.76192000000447 1014.6304000000018 L 369.50015999999596 1017.0470399999977 L 403.2716800000053 1019.0131200000033 L 446.4742399999959 1021.5628799999977 L 453.03807999999844 1021.9417600000015 L 458.7622399999964 1021.9417600000015 L 463.2063999999955 1020.7744000000021 L 467.21024000000034 1018.8390399999989 L 471.17312000000675 1018.0710400000025 L 477.3478400000022 1017.7126399999979 L 487.99744000000646 1017.9481599999999 L 509.4502400000056 1019.0131200000033 L 517.3657600000006 1019.4227200000023 L 526.0800000000017 1020.7027200000011 L 543.7337600000028 1023.4572800000024 L 548.406446829249 1024.0" fill="none"/></svg>