<svg xmlns="http://www.w3.org/2000/svg" width="1024" height="1024"><rect stroke="none" x="0" y="0" width="1024" height="1024" fill="white"/><path stroke="#000000" stroke-width="2" d="M 0.0 1022.1405415956324 L 30.414062592026312 1021.9414067199687 L 82.74218700802885 1021.9414067199687 L 127.39062476804247 1021.9414067199687 L 136.60156211204594 1022.0429690879537 L 196.30468710401328 1022.0429690879537 L 212.9921873920248 1021.9414067199687 L 220.16406220803037 1022.0429690879537 L 245.4531246080296 1022.0429690879537 L 255.39062476804247 1021.9414067199687 L 282.62500044802437 1021.8359377919696 L 383.39062476804247 1021.8359377919696 L 436.6406246400438 1021.7343754239264 L 455.6796876800363 1021.6328120319522 L 511.39062476804247 1021.6328120319522 L 533.9140628480236 1021.2226559999399 L 563.5078123520361 1021.2226559999399 L 574.0546877440647 1021.1210936319549 L 589.5234375680448 1021.1210936319549 L 615.8359377920278 1020.9140623359708 L 638.4687503360328 1020.9140623359708 L 647.9921879040194 1020.8124999679276 L 655.6718745600083 1020.9140623359708 L 673.1796879360336 1020.9140623359708 L 689.9765626880107 1021.0195312639698 L 697.8593751040171 1021.0195312639698 L 709.4296872960404 1021.0195312639698 L 713.6328120320104 1020.8124999679276 L 717.2109373440617 1021.0195312639698 L 725.0937497600098 1021.0195312639698 L 742.6093752320157 1021.1210936319549 L 759.9140628480236 1021.1210936319549 L 767.3906247680425 1021.0195312639698 L 777.5234375680448 1021.1210936319549 L 801.1796879360336 1021.1210936319549 L 812.2421872640261 1021.0195312639698 L 848.4921876480221 1020.9140623359708 L 895.3906247680425 1020.9140623359708 L 898.9765621760162 1020.8124999679276 L 919.2499998720596 1020.8124999679276 L 929.79687526403 1020.7109375999426 L 949.1484375040163 1020.6093752319575 L 983.0468751360313 1020.6093752319575 L 992.8749998080311 1020.5078128639725 L 1024.0 1020.5078128639725" fill="none"/><path stroke="#000000" stroke-width="2" d="M 1024.0 1020.5078128639725 L 992.8749998080311 1020.5078128639725 L 983.0468751360313 1020.6093752319575 L 949.1484375040163 1020.6093752319575 L 929.79687526403 1020.7109375999426 L 919.2499998720596 1020.8124999679276 L 898.9765621760162 1020.8124999679276 L 895.3906247680425 1020.9140623359708 L 848.4921876480221 1020.9140623359708 L 812.2421872640261 1021.0195312639698 L 801.1796879360336 1021.1210936319549 L 777.5234375680448 1021.1210936319549 L 767.3906247680425 1021.0195312639698 L 759.9140628480236 1021.1210936319549 L 742.6093752320157 1021.1210936319549 L 725.0937497600098 1021.0195312639698 L 717.2109373440617 1021.0195312639698 L 713.6328120320104 1020.8124999679276 L 709.4296872960404 1021.0195312639698 L 697.8593751040171 1021.0195312639698 L 689.9765626880107 1021.0195312639698 L 673.1796879360336 1020.9140623359708 L 655.6718745600083 1020.9140623359708 L 647.9921879040194 1020.8124999679276 L 638.4687503360328 1020.9140623359708 L 615.8359377920278 1020.9140623359708 L 589.5234375680448 1021.1210936319549 L 574.0546877440647 1021.1210936319549 L 563.5078123520361 1021.2226559999399 L 533.9140628480236 1021.2226559999399 L 511.39062476804247 1021.6328120319522 L 455.6796876800363 1021.6328120319522 L 436.6406246400438 1021.7343754239264 L 383.39062476804247 1021.8359377919696 L 282.62500044802437 1021.8359377919696 L 255.39062476804247 1021.9414067199687 L 245.4531246080296 1022.0429690879537 L 220.16406220803037 1022.0429690879537 L 212.9921873920248 1021.9414067199687 L 196.30468710401328 1022.0429690879537 L 136.60156211204594 1022.0429690879537 L 127.39062476804247 1021.9414067199687 L 82.74218700802885 1021.9414067199687 L 30.414062592026312 1021.9414067199687 L 0.0 1022.1405415956324" fill="none"/><path stroke="#408040" stroke-width="3" d="M 1024.0 244.50415734806302 L 983.4496000000072 237.42463999999745 L 934.0211200000049 233.68703999999707 L 889.4873599999992 223.65183999999863 L 814.9504000000015 217.46687999999995 L 799.9590400000016 225.0751999999993 L 765.3785599999974 225.77152000000206 L 727.4803200000024 226.66240000000107 L 673.310719999994 226.55999999999767 L 632.1254400000034 215.83871999999974 L 494.69439999999304 243.7734399999972 L 417.41311999999743 258.82624000000214 L 330.97728000000643 265.8918399999966 L 223.7132799999963 290.2937600000005 L 143.99487999999837 300.8614400000006 L 97.84320000000298 304.65024000000267 L 5.867519999999786 337.244160000002 L 0.0 338.03460911407456" fill="none"/></svg>