<svg xmlns="http://www.w3.org/2000/svg" width="1024" height="1024"><rect stroke="none" x="0" y="0" width="1024" height="1024" fill="white"/><path stroke="#000000" stroke-width="2" d="M 1024.0 40.479278871247516 L 1023.7968752641464 40.230468608031515 L 1022.2656245760736 37.46679705596762 L 1020.109375488013 33.67773388780188 L 1018.7812495360849 30.707031039812136 L 1017.656250368047 28.353515519818757 L 1015.195312128053 25.48632780800108 L 1012.9453127680463 23.64257791993441 L 1010.2812497920822 21.79882803192595 L 1007.4140620800317 19.853515775874257 L 1006.5937500161235 15.449219071888365 L 1005.0625003520399 11.662109695840627 L 1004.7500001281733 8.28124979196582 L 1001.0625003520399 9.509765119932126 L 997.4843750401051 7.359375359897967 L 994.5156249600113 4.390625279804226 L 989.7031249920256 5.51757823996013 L 985.3984378880123 7.359375359897967 L 980.890625024098 6.951172095956281 L 981.4062499841093 3.6738283518934622 L 980.6875002880115 1.0117191679310054 L 980.6275806339982 0.0" fill="none"/><path stroke="#000000" stroke-width="2" d="M 980.6275806339982 0.0 L 980.6875002880115 1.0117191679310054 L 981.4062499841093 3.6738283518934622 L 980.890625024098 6.951172095956281 L 985.3984378880123 7.359375359897967 L 989.7031249920256 5.51757823996013 L 994.5156249600113 4.390625279804226 L 997.4843750401051 7.359375359897967 L 1001.0625003520399 9.509765119932126 L 1004.7500001281733 8.28124979196582 L 1005.0625003520399 11.662109695840627 L 1006.5937500161235 15.449219071888365 L 1007.4140620800317 19.853515775874257 L 1010.2812497920822 21.79882803192595 L 1012.9453127680463 23.64257791993441 L 1015.195312128053 25.48632780800108 L 1017.656250368047 28.353515519818757 L 1018.7812495360849 30.707031039812136 L 1020.109375488013 33.67773388780188 L 1022.2656245760736 37.46679705596762 L 1023.7968752641464 40.230468608031515 L 1024.0 40.479278871247516" fill="none"/></svg>