<svg xmlns="http://www.w3.org/2000/svg" width="1024" height="1024"><rect stroke="none" x="0" y="0" width="1024" height="1024" fill="white"/><path stroke="#000000" stroke-width="2" d="M 1024.0 56.82031206396641 L 1023.898437632015 56.82031206396641 L 1004.0390625280561 56.82031206396641 L 996.562499584048 56.71874969592318 L 983.0468751360313 56.71874969592318 L 980.382812160009 56.82031206396641 L 970.2421872640261 56.82031206396641 L 961.6406251520384 56.71874969592318 L 954.5781248000567 56.71874969592318 L 945.3593753600144 56.61328076792415 L 940.3437496320112 56.71874969592318 L 936.8593745920225 56.71874969592318 L 934.0937502720626 56.61328076792415 L 896.4140625920263 56.61328076792415 L 889.0390620160615 56.71874969592318 L 870.0937502720626 56.71874969592318 L 863.8515630080365 56.61328076792415 L 861.4921871360275 56.71874969592318 L 858.4218746880651 56.71874969592318 L 854.8359372800332 56.82031206396641 L 852.4843745280523 56.71874969592318 L 833.1328122880077 56.71874969592318 L 822.8906250240398 56.61328076792415 L 801.0781245440594 56.61328076792415 L 790.8359372800332 56.51171839993913 L 768.921875456057 56.4101560319541 L 738.1015623680432 56.4101560319541 L 706.8671877120505 56.51171839993913 L 695.8125004800386 56.61328076792415 L 687.9296870400431 56.51171839993913 L 684.6484377600136 56.4101560319541 L 640.8203120640246 56.4101560319541 L 621.6718745600083 56.30859366396908 L 617.0625003520399 56.4101560319541 L 608.5703127040179 56.30859366396908 L 603.8593751040171 56.207031295925844 L 593.7187502080342 56.20312473597005 L 588.390625280037 56.30859366396908 L 567.3984378880123 56.207031295925844 L 564.6406246400438 56.20312473597005 L 557.5703121920233 56.207031295925844 L 552.7578122240375 56.207031295925844 L 545.1796879360336 56.20312473597005 L 535.968749568041 56.10156236792682 L 486.71093760005897 56.10156236792682 L 473.39843788801227 56.207031295925844 L 459.57812531205127 56.30859366396908 L 452.4062504960457 56.207031295925844 L 440.9374996480183 56.10156236792682 L 428.34374963201117 56.10156236792682 L 408.6796871680417 56.207031295925844 L 370.281249792024 56.207031295925844 L 365.9843747840496 55.89843763195677 L 355.5390627840534 55.89843763195677 L 341.30468761600787 55.99999999994179 L 334.1328128000605 55.99999999994179 L 313.554688000062 56.20312473597005 L 310.78906265605474 56.207031295925844 L 302.5937500160653 56.20312473597005 L 300.34374963201117 56.207031295925844 L 271.7734379520407 56.30859366396908 L 255.39062476804247 56.30859366396908 L 215.8593751040171 56.20312473597005 L 210.84375040006125 56.207031295925844 L 207.25781299202936 56.207031295925844 L 202.65624985605245 56.20312473597005 L 186.37500006402843 56.207031295925844 L 176.33593753603054 56.20312473597005 L 141.7265623040148 56.20312473597005 L 133.6328120320104 56.207031295925844 L 127.59374950401252 56.20312473597005 L 121.55468800006201 56.207031295925844 L 113.66406246402767 56.20312473597005 L 109.7734379520407 56.20312473597005 L 105.06250035203993 56.30859366396908 L 58.67968716804171 56.30859366396908 L 36.86718771205051 56.30859366396908 L 26.937499648018274 56.20312473597005 L 22.42968780803494 56.207031295925844 L 17.203125248022843 56.207031295925844 L 10.343749632011168 56.10156236792682 L 4.710937600058969 56.10156236792682 L 0.0 56.19865818094695" fill="none"/><path stroke="#000000" stroke-width="2" d="M 365.9843747841078 55.89843763184035 L 370.281249792024 56.20703129580943 L 408.6796871680999 56.20703129580943 L 428.34374963201117 56.10156236792682 L 440.9374996480183 56.10156236792682 L 452.4062504960457 56.20703129580943 L 459.5781253121095 56.30859366385266 L 473.39843788801227 56.20703129580943 L 486.7109376001172 56.10156236792682 L 535.9687495680992 56.10156236792682 L 545.1796879360336 56.20312473597005 L 552.7578122240375 56.20703129580943 L 557.5703121920815 56.20703129580943 L 564.640624640102 56.20312473597005 L 567.3984378880705 56.20703129580943 L 588.3906252800953 56.30859366385266 L 593.7187502080342 56.20312473597005 L 603.8593751040753 56.20703129580943 L 608.5703127040179 56.30859366385266 L 617.0625003520981 56.410156031895895 L 621.6718745600665 56.30859366385266 L 640.8203120640246 56.410156031895895 L 684.6484377600718 56.410156031895895 L 687.9296870401013 56.51171839993913 L 695.8125004800968 56.61328076798236 L 706.8671877121087 56.51171839993913 L 738.1015623681014 56.410156031895895 L 768.921875456057 56.410156031895895 L 790.8359372800915 56.51171839993913 L 801.0781245440594 56.61328076798236 L 822.890625024098 56.61328076798236 L 833.1328122880077 56.71874969586497 L 852.4843745280523 56.71874969586497 L 854.8359372800915 56.820312063908204 L 858.4218746881234 56.71874969586497 L 861.4921871360275 56.71874969586497 L 863.8515630080947 56.61328076798236 L 870.0937502720626 56.71874969586497 L 889.0390620161197 56.71874969586497 L 896.4140625920263 56.61328076798236 L 934.0937502721208 56.61328076798236 L 936.8593745920225 56.71874969586497 L 940.3437496320112 56.71874969586497 L 945.3593753600726 56.61328076798236 L 954.5781248000567 56.71874969586497 L 961.6406251520384 56.71874969586497 L 970.2421872640844 56.820312063908204 L 980.382812160009 56.820312063908204 L 983.0468751360895 56.71874969586497 L 996.562499584048 56.71874969586497 L 1004.0390625281143 56.820312063908204 L 1023.898437632015 56.820312063908204 L 1024.0 56.820312063908204" fill="none"/><path stroke="#000000" stroke-width="2" d="M 0.0 56.19865818083781 L 4.710937600117177 56.10156236792682 L 10.343749632069375 56.10156236792682 L 17.203125248022843 56.20703129580943 L 22.42968780809315 56.20703129580943 L 26.937499648076482 56.20312473597005 L 36.867187712108716 56.30859366385266 L 58.67968716809992 56.30859366385266 L 105.06250035203993 56.30859366385266 L 109.7734379520989 56.20312473597005 L 113.66406246402767 56.20312473597005 L 121.55468800006201 56.20703129580943 L 127.59374950407073 56.20312473597005 L 133.6328120320686 56.20703129580943 L 141.7265623040148 56.20312473597005 L 176.33593753603054 56.20312473597005 L 186.37500006402843 56.20703129580943 L 202.65624985611066 56.20312473597005 L 207.25781299202936 56.20703129580943 L 210.84375040006125 56.20703129580943 L 215.8593751040753 56.20312473597005 L 255.39062476804247 56.30859366385266 L 271.7734379520989 56.30859366385266 L 300.34374963201117 56.20703129580943 L 302.5937500161235 56.20312473597005 L 310.78906265605474 56.20703129580943 L 313.554688000062 56.20312473597005 L 334.1328128000605 55.999999999883585 L 341.30468761600787 55.999999999883585 L 355.5390627840534 55.89843763184035 L 365.9843747841078 55.89843763184035" fill="none"/></svg>