<svg xmlns="http://www.w3.org/2000/svg" width="1024" height="1024"><rect stroke="none" x="0" y="0" width="1024" height="1024" fill="white"/><path stroke="#000000" stroke-width="2" d="M 0.0 1.8520107129443204 L 11.57812531205127 2.136718335968908 L 27.74999961606227 2.136718335968908 L 38.19531264004763 1.9335935999406502 L 42.60156211204594 1.9335935999406502 L 50.89843712002039 1.8320312319556251 L 55.29687449603807 1.8320312319556251 L 62.874999808031134 1.5234375679283403 L 68.00000000005821 1.624999935971573 L 84.17187532805838 1.624999935971573 L 93.28906240005745 1.726562303956598 L 111.41406208003173 1.726562303956598 L 127.28906240005745 1.5234375679283403 L 135.57812531205127 1.624999935971573 L 141.7265623040148 1.726562303956598 L 169.06250035203993 1.726562303956598 L 210.94531276804628 1.8320312319556251 L 226.0000000000582 1.8320312319556251 L 255.28906240005745 1.9335935999406502 L 262.8671877120505 1.624999935971573 L 327.8906245120452 1.624999935971573 L 347.0390620160615 1.726562303956598 L 382.7734374400461 1.726562303956598 L 399.7734379520407 1.624999935971573 L 417.2812503040186 1.5234375679283403 L 429.3671874560532 1.4218751999433152 L 444.42187468800694 1.4218751999433152 L 472.9921873920248 1.2148439039592631 L 480.57031270401785 1.113281535974238 L 511.28906240005745 0.9101557759568095 L 639.2890624000574 0.9101557759568095 L 652.7031255040201 0.7031255039619282 L 747.0078126080334 0.7031255039619282 L 749.3671874560532 0.8085934079717845 L 754.281249792024 0.7031255039619282 L 802.5156249600113 0.7031255039619282 L 813.164062720025 0.8046878719469532 L 816.3359375360305 0.8085934079717845 L 827.7031249920256 0.7031255039619282 L 833.1328122880077 0.8085934079717845 L 838.4531251200242 0.7031255039619282 L 868.8671877120505 0.7031255039619282 L 895.2890624000574 0.6015621119295247 L 900.5078128640307 0.7031255039619282 L 968.914062336029 0.9101557759568095 L 977.6171878400492 0.8085934079717845 L 977.7187502080342 9.71484364796197 L 977.7187502080342 31.527344127942342 L 977.6171878400492 35.00781260797521 L 977.6171878400492 127.98828134394716 L 977.5156254720641 131.67578111996409 L 977.5156254720641 135.05468723195372 L 977.6171878400492 146.62500044796616 L 977.6171878400492 178.3671879679314 L 977.5156254720641 182.25781247991836 L 977.6171878400492 188.30078156793024 L 977.6171878400492 219.12500019196887 L 977.5156254720641 225.06250035192352 L 977.5156254720641 320.29296844796045 L 977.4140620800317 325.824219135975 L 977.4140620800317 358.38671871996485 L 977.3124997120467 363.60937471996294 L 977.4140620800317 383.98828134394716 L 977.4140620800317 502.0546877439483 L 977.5156254720641 511.98828134394716 L 977.4140620800317 519.3593753599562 L 977.2031252480228 539.4296872959239 L 977.2109373440617 543.6289064959274 L 977.2031252480228 547.2148439039593 L 977.2109373440617 558.6835937279393 L 977.1015628800378 575.7812500479631 L 977.1015628800378 607.5273441279423 L 976.9999994880636 614.3867187199648 L 976.9999994880636 632.3085936639691 L 977.2109373440617 640.1914060799754 L 977.2031252480228 652.0703129599569 L 977.1015628800378 665.3828126719454 L 977.2031252480228 668.0468746239203 L 977.1015628800378 670.1953126399312 L 977.1015628800378 708.0820316159516 L 977.2031252480228 716.6835937279393 L 977.2031252480228 723.7499996159459 L 977.1015628800378 737.4726563839358 L 977.1015628800378 758.3632814079756 L 976.9999994880636 767.9882813439472 L 976.9999994880636 803.7265623039566 L 976.8984371200204 806.796874751919 L 976.8984371200204 834.6484377599554 L 976.6953123840503 837.92578150396 L 976.6953123840503 844.9921873919666 L 976.8984371200204 871.6171878399327 L 976.8984371200204 880.3203123199637 L 976.9999994880636 895.9882813439472 L 977.2031252480228 904.1796874239226 L 977.2031252480228 909.1953121279366 L 977.1015628800378 928.9609379839385 L 977.1015628800378 941.2499998719431 L 977.2109373440617 948.4179691519239 L 977.1015628800378 955.9921879039612 L 977.1015628800378 1005.2499998719431 L 976.8984371200204 1012.8242186239222 L 976.8984371200204 1022.656249855936 L 976.8994600960286 1022.6586572799715 L 976.8869241733919 1024.0" fill="none"/><path stroke="#000000" stroke-width="2" d="M 1024.0 1.113281535974238 L 1018.4765624320135 1.113281535974238 L 996.0468746240367 1.0117191679310054 L 989.2890624000574 1.0117191679310054 L 979.3593753600144 0.9101557759568095 L 977.6171878400492 0.8085934079717845 L 977.5780743328069 0.0" fill="none"/><path stroke="#000000" stroke-width="2" d="M 976.8869241733919 1024.0 L 976.8994600960286 1022.6586572799715 L 976.899481600034 1022.6563481599442 L 976.8984371200204 1022.656249855936 L 976.8984371200204 1012.8242186239222 L 977.1015628800378 1005.2499998719431 L 977.1015628800378 955.9921879039612 L 977.2109373440617 948.4179691519239 L 977.1015628800378 941.2499998719431 L 977.1015628800378 928.9609379839385 L 977.2031252480228 909.1953121279366 L 977.2031252480228 904.1796874239226 L 976.9999994880636 895.9882813439472 L 976.8984371200204 880.3203123199637 L 976.8984371200204 871.6171878399327 L 976.6953123840503 844.9921873919666 L 976.6953123840503 837.92578150396 L 976.8984371200204 834.6484377599554 L 976.8984371200204 806.796874751919 L 976.9999994880636 803.7265623039566 L 976.9999994880636 767.9882813439472 L 977.1015628800378 758.3632814079756 L 977.1015628800378 737.4726563839358 L 977.2031252480228 723.7499996159459 L 977.2031252480228 716.6835937279393 L 977.1015628800378 708.0820316159516 L 977.1015628800378 670.1953126399312 L 977.2031252480228 668.0468746239203 L 977.1015628800378 665.3828126719454 L 977.2031252480228 652.0703129599569 L 977.2109373440617 640.1914060799754 L 976.9999994880636 632.3085936639691 L 976.9999994880636 614.3867187199648 L 977.1015628800378 607.5273441279423 L 977.1015628800378 575.7812500479631 L 977.2109373440617 558.6835937279393 L 977.2031252480228 547.2148439039593 L 977.2109373440617 543.6289064959274 L 977.2031252480228 539.4296872959239 L 977.4140620800317 519.3593753599562 L 977.5156254720641 511.98828134394716 L 977.4140620800317 502.0546877439483 L 977.4140620800317 383.98828134394716 L 977.3124997120467 363.60937471996294 L 977.4140620800317 358.38671871996485 L 977.4140620800317 325.824219135975 L 977.5156254720641 320.29296844796045 L 977.5156254720641 225.06250035192352 L 977.6171878400492 219.12500019196887 L 977.6171878400492 188.30078156793024 L 977.5156254720641 182.25781247991836 L 977.6171878400492 178.3671879679314 L 977.6171878400492 146.62500044796616 L 977.5156254720641 135.05468723195372 L 977.5156254720641 131.67578111996409 L 977.6171878400492 127.98828134394716 L 977.6171878400492 35.00781260797521 L 977.7187502080342 31.527344127942342 L 977.7187502080342 9.71484364796197 L 977.6171878400492 0.8085934079717845 L 979.3593753600144 0.9101557759568095 L 989.2890624000574 1.0117191679310054 L 996.0468746240367 1.0117191679310054 L 1018.4765624320135 1.113281535974238 L 1024.0 1.113281535974238" fill="none"/><path stroke="#000000" stroke-width="2" d="M 977.5780743328069 0.0 L 977.6171878400492 0.8085934079717845 L 968.914062336029 0.9101557759568095 L 900.5078128640307 0.7031255039619282 L 895.2890624000574 0.6015621119295247 L 868.8671877120505 0.7031255039619282 L 838.4531251200242 0.7031255039619282 L 833.1328122880077 0.8085934079717845 L 827.7031249920256 0.7031255039619282 L 816.3359375360305 0.8085934079717845 L 813.164062720025 0.8046878719469532 L 802.5156249600113 0.7031255039619282 L 754.281249792024 0.7031255039619282 L 749.3671874560532 0.8085934079717845 L 747.0078126080334 0.7031255039619282 L 652.7031255040201 0.7031255039619282 L 639.2890624000574 0.9101557759568095 L 511.28906240005745 0.9101557759568095 L 480.57031270401785 1.113281535974238 L 472.9921873920248 1.2148439039592631 L 444.42187468800694 1.4218751999433152 L 429.3671874560532 1.4218751999433152 L 417.2812503040186 1.5234375679283403 L 399.7734379520407 1.624999935971573 L 382.7734374400461 1.726562303956598 L 347.0390620160615 1.726562303956598 L 327.8906245120452 1.624999935971573 L 262.8671877120505 1.624999935971573 L 255.28906240005745 1.9335935999406502 L 226.0000000000582 1.8320312319556251 L 210.94531276804628 1.8320312319556251 L 169.06250035203993 1.726562303956598 L 141.7265623040148 1.726562303956598 L 135.57812531205127 1.624999935971573 L 127.28906240005745 1.5234375679283403 L 111.41406208003173 1.726562303956598 L 93.28906240005745 1.726562303956598 L 84.17187532805838 1.624999935971573 L 68.00000000005821 1.624999935971573 L 62.874999808031134 1.5234375679283403 L 55.29687449603807 1.8320312319556251 L 50.89843712002039 1.8320312319556251 L 42.60156211204594 1.9335935999406502 L 38.19531264004763 1.9335935999406502 L 27.74999961606227 2.136718335968908 L 11.57812531205127 2.136718335968908 L 0.0 1.8520107129443204" fill="none"/></svg>