<svg xmlns="http://www.w3.org/2000/svg" width="1024" height="1024"><rect stroke="none" x="0" y="0" width="1024" height="1024" fill="white"/><path stroke="#408040" stroke-width="3" d="M 862.0032000000065 100.2086399999971 L 861.747199999998 100.16767999999865 L 861.6447999999946 100.7308800000028 L 860.549119999996 100.59775999999692 L 856.924159999995 100.1779200000019 L 849.2032000000036 99.26655999999639 L 835.9731199999951 97.69984000000113 L 835.5532799999928 97.63840000000346 L 835.1129599999986 97.51552000000083 L 834.6931199999963 97.33120000000054 L 834.4678399999975 97.18783999999869 L 834.1401599999954 96.92160000000149 L 833.9046399999934 96.69632000000274 L 833.7612800000061 96.47103999999672 L 833.4540799999959 96.02047999999922 L 833.1263999999937 95.4982400000008 L 832.296960000007 95.82592000000295 L 831.938559999995 95.96927999999753 L 831.354879999999 96.1843200000003 L 830.2694400000037 96.61439999999857 L 830.0646399999969 96.68607999999949 L 829.6652800000011 96.79871999999887 L 828.9894400000048 96.93183999999746 L 828.6208000000042 96.98303999999916 L 827.6992000000027 97.01376000000164 L 826.9004799999966 96.99328000000241 L 826.0608000000066 96.94208000000071 L 825.7331200000044 96.91135999999824 L 825.5385600000009 96.96255999999994 L 824.9753599999967 96.89087999999902 L 824.4531200000056 96.82944000000134 L 823.8694399999949 96.76799999999639 L 823.3267199999973 96.69632000000274 L 822.3641599999974 96.58368000000337 L 821.5244799999928 96.48127999999997 L 818.8313599999965 96.17407999999705 L 815.3804800000071 95.764479999998 L 807.3420800000022 94.81216000000131 L 793.8355199999933 93.21472000000358 L 786.0531199999969 92.30335999999807 L 784.8038399999932 92.12928000000102 L 783.8412799999933 91.96543999999994 L 782.8070399999997 91.7708799999964 L 781.6499199999962 91.53536000000167 L 780.7283199999947 91.31008000000293 L 779.2025600000052 90.9004799999966 L 777.5436800000025 90.39871999999741 L 776.3968000000023 89.99936000000162 L 775.1577600000019 89.52831999999762 L 774.0518400000001 89.07776000000013 L 773.0790399999969 88.64768000000186 L 772.1267200000002 88.19711999999708 L 770.9695999999967 87.61344000000099 L 769.6793599999946 86.94784000000072 L 767.8566399999982 85.92384000000311 L 766.2796800000069 84.99199999999837 L 764.354560000007 83.75295999999798 L 763.2691199999972 83.01567999999679 L 762.0300799999968 82.15552000000025 L 758.7532800000045 79.87200000000303 L 754.7596800000028 77.08671999999933 L 747.4073599999974 71.96671999999671 L 745.6255999999994 70.7276800000036 L 745.2057599999971 70.41023999999743 L 744.8268799999933 70.09279999999853 L 744.1817600000068 69.49887999999919 L 743.5980799999961 68.8640000000014 L 743.075840000005 68.18815999999788 L 742.0006399999984 66.71360000000277 L 741.3964799999958 65.97632000000158 L 740.761599999998 65.24928000000364 L 738.9286399999983 63.36512000000221 L 738.4064000000071 62.84287999999651 L 738.01728 62.47424000000319 L 737.5564799999993 62.08512000000337 L 737.136639999997 61.7676799999972 L 736.7270399999979 61.48096000000078 L 736.0716799999936 61.07136000000173 L 735.1603199999954 60.57983999999851 L 734.4025600000023 60.23167999999714 L 733.8086400000029 59.99616000000242 L 731.3920000000071 58.992639999996754 L 726.7225599999947 57.0572800000009 L 718.3974400000006 53.596160000000964 L 702.453760000004 46.991359999999986 L 701.2659200000053 46.499839999996766 L 700.549119999996 46.23359999999957 L 699.9961599999951 46.04927999999927 L 699.2486400000053 45.84447999999975 L 698.6547200000059 45.721599999997125 L 697.8764800000063 45.60895999999775 L 697.395199999999 45.54752000000008 L 696.6374400000059 45.50656000000163 L 695.8796799999982 45.49631999999838 L 695.4700799999991 45.50656000000163 L 694.650880000001 45.5679999999993 L 693.5552000000025 45.731840000000375 L 692.3776000000071 45.95711999999912 L 691.3740799999941 46.15168000000267 L 690.3910400000022 46.305280000000494 L 689.4387200000056 46.41791999999987 L 688.363519999999 46.499839999996766 L 687.5136000000057 46.53055999999924 L 686.1414400000067 46.53055999999924 L 681.0828800000018 46.53055999999924 L 678.7686399999948 46.53055999999924 L 676.7308800000028 46.499839999996766 L 675.8502399999998 46.44864000000234 L 674.5497599999944 46.305280000000494 L 673.1980800000019 46.10048000000097 L 671.8668800000014 45.8854399999982 L 669.4604799999943 45.49631999999838 L 667.9859200000064 45.27103999999963 L 666.5113600000041 45.03551999999763 L 664.3609600000054 44.69759999999951 L 662.3436800000054 44.380160000000615 L 660.459520000004 44.07295999999769 L 656.6604800000059 43.468800000002375 L 652.0627200000017 42.74175999999716 L 642.6419199999946 41.236479999999574 L 636.2214399999939 40.222719999997935 L 632.6272000000026 39.62879999999859 L 629.770239999998 39.19872000000032 L 623.7183999999979 38.23616000000038 L 619.1718399999954 37.519359999998414 L 610.0275200000033 36.075519999998505 L 600.514559999996 34.57024000000092 L 591.8105599999981 33.17760000000271 L 587.0080000000016 32.419840000002296 L 584.8166400000046 32.061439999997674 L 581.9596799999999 31.62112000000343 L 579.7171200000012 31.313920000000508 L 578.2630400000053 31.13984000000346 L 576.901119999995 30.99648000000161 L 575.5494400000025 30.873599999998987 L 574.4128000000055 30.79168000000209 L 572.4569599999959 30.679040000002715 L 567.1116800000018 30.423040000001492 L 557.9775999999983 30.013440000002447 L 552.6732800000027 29.798399999999674 L 550.6252799999929 29.67551999999705 L 549.9289600000047 29.655039999997825 L 548.7103999999963 29.614079999999376 L 546.6726400000043 29.501440000000002 L 539.3203199999989 29.173759999997856 L 531.1180800000002 28.80511999999726 L 517.9289600000047 28.211199999997916 L 515.5635199999961 28.108800000001793 L 513.9456000000064 28.026879999997618 L 511.4982400000008 27.924480000001495 L 505.4156800000055 27.658239999997022 L 503.01952000000165 27.535360000001674 L 500.99199999999837 27.402240000003076 L 499.7734400000045 27.299839999999676 L 497.7254399999947 27.084799999996903 L 495.47264000000723 26.798080000000482 L 493.4860800000024 26.50112000000081 L 492.1651200000051 26.286079999998037 L 490.06591999999364 25.886720000002242 L 488.0896000000066 25.466879999999946 L 485.3862400000071 24.821759999998903 L 482.8876799999998 24.14592000000266 L 480.2662399999972 23.336960000000545 L 478.392319999999 22.722560000001977 L 476.14976000000024 21.95455999999831 L 472.3302399999957 20.65408000000025 L 469.2172799999971 19.58911999999691 L 459.95007999999507 16.424959999996645 L 449.136639999997 12.73855999999796 L 447.2627199999988 12.083200000000943 L 446.7097599999979 11.888639999997395 L 445.3683199999941 11.468800000002375 L 443.4022399999958 10.772479999999632 L 441.9174400000047 10.260479999997187 L 436.2649600000004 8.335359999997308 L 434.02240000000165 7.577599999996892 L 431.9129600000015 6.840320000002976 L 430.5408000000025 6.400000000001455 L 427.6735999999946 5.396480000003066 L 423.94624000000476 4.126720000000205 L 416.82944000000134 1.6998400000011316 L 411.848375749134 0.0" fill="none"/><path stroke="#408040" stroke-width="3" d="M 1024.0 9.771278490567056 L 1016.5964799999929 11.028480000000854 L 1000.9190399999934 13.8035200000013 L 992.5120000000024 15.288319999999658 L 976.1689599999954 18.175999999999476 L 959.7849600000045 21.08415999999852 L 952.3507200000022 22.39487999999983 L 947.4150400000071 23.285759999998845 L 943.7388800000044 24.13567999999941 L 939.2332800000004 25.48735999999917 L 934.7686399999948 27.197440000003553 L 931.2256000000052 28.846080000002985 L 927.8463999999949 30.709759999997914 L 924.7334399999963 32.71680000000197 L 921.6000000000058 35.04127999999764 L 918.7532800000045 37.45792000000074 L 913.674239999993 41.86112000000139 L 902.0211200000049 51.94752000000153 L 896.3174399999989 56.89343999999983 L 895.0374400000001 58.07104000000254 L 893.7881599999964 59.432959999998275 L 892.6310399999929 60.91775999999663 L 891.3817600000039 62.86336000000301 L 890.5625600000058 64.5529600000009 L 889.8150400000013 66.51903999999922 L 888.5350400000025 69.89824000000226 L 886.9376000000047 72.92927999999665 L 884.8588799999998 75.96031999999832 L 882.4729599999991 78.72512000000279 L 879.6467200000043 81.32607999999891 L 877.4860800000024 82.98496000000159 L 875.6735999999946 84.1932799999995 L 873.5436800000025 85.45279999999912 L 871.3830400000006 86.5587200000009 L 868.6899200000043 87.51103999999759 L 867.7478399999964 87.66464000000269 L 866.2630400000053 87.4803200000024 L 865.4028799999942 87.17311999999947 L 865.0240000000049 87.53151999999682 L 864.5836799999961 87.97183999999834 L 863.4982400000008 89.2928000000029 L 862.7200000000012 90.767359999998 L 862.3001599999989 92.03712000000087 L 862.1670400000003 93.10207999999693 L 862.1158399999986 98.02752000000328 L 861.8496000000014 99.58400000000256 L 861.747199999998 100.16767999999865 L 862.0032000000065 100.2086399999971" fill="none"/></svg>