<svg xmlns="http://www.w3.org/2000/svg" width="1024" height="1024"><rect stroke="none" x="0" y="0" width="1024" height="1024" fill="white"/><path stroke="#000000" stroke-width="2" d="M 33.425116160011385 293.6214722558507 L 33.42540800012648 293.6238080000039 L 31.172608000051696 291.8830079998006 L 33.32300800003577 292.8046079998603 L 33.425116160011385 293.6214722558507" fill="none"/><path stroke="#000000" stroke-width="2" d="M 31.439505408052355 291.24799487984274 L 31.137345536088105 291.4205296638538 L 31.212864512053784 290.5520527358167 L 31.44907673605485 290.9422182398266 L 31.439505408052355 291.24799487984274" fill="none"/><path stroke="#000000" stroke-width="2" d="M 96.37142242660047 67.818495999265 L 96.66633442690363 68.04582399933133 L 96.75747042684816 68.13081599923316 L 96.84041442675516 68.22195199917769 L 96.95407842670102 68.2905599991791 L 97.12815842696 68.37555199931376 L 97.25923042697832 68.46975999930874 L 97.28687842667568 68.49023999914061 L 97.3544624268543 68.57420799921965 L 97.3913264265866 68.65407999925083 L 97.4286484181066 68.7035064199008 L 97.42989899287932 68.70426258159569 L 97.53571042680414 68.70527999929618 L 97.59612642670982 68.70220799924573 L 97.70467042678501 68.69503999920562 L 97.89206242695218 68.96127999923192 L 98.06238632870372 69.08669687440852 L 98.12573410669575 69.12500019121217 L 98.12637796654599 69.13381669257069 L 99.72911842685426 70.31398399925092 L 99.82537442684406 70.42355199920712 L 99.97590242692968 70.59763199929148 L 100.07523042673711 70.71129599923734 L 100.39164642663673 71.03999999910593 L 100.88111842685612 71.51615999924252 L 100.96406242670491 71.62367999920389 L 101.02447842661059 71.69126399914967 L 101.06851042661583 71.75884799932828 L 101.11971042689402 71.90527999924961 L 101.16374242689926 72.08038399915677 L 101.1750064266962 72.29439999925671 L 101.68700642685872 77.33043199917302 L 101.7136304267915 77.63967999932356 L 101.69724642689107 77.71852799929911 L 101.3992624268285 78.64934399916092 L 101.3439664268517 78.75583999924129 L 101.3439664268517 78.81011199922068 L 101.34294242667966 78.83980799926212 L 101.35727842658525 78.91865599923767 L 101.42281442682724 79.11014399927808 L 101.4903984265984 79.24019199929899 L 101.4903984265984 79.28831999929389 L 101.45763042679755 79.35283199918922 L 101.04905442695599 80.51404799922602 L 100.8381104269647 81.10899199912092 L 100.75414242671104 81.34860799915623 L 100.74595042684814 81.3936639992171 L 100.76847842661664 81.44998399913311 L 100.82070242689224 81.50630399928195 L 100.81251042662188 81.54009599913843 L 100.23907042684732 82.0695039993152 L 99.6789424266899 83.6618239991949 L 99.63900642684894 83.79596799920546 L 99.59907042694977 83.88607999915257 L 99.59087842667941 83.97004799923161 L 99.65948642685544 85.93817599926842 L 99.78953442675993 85.94534399930853 L 99.7731504268595 86.8526079992298 L 99.77039818174671 87.01248841831693 L 99.76188642682973 87.5069439993822 L 99.74899423087481 88.24226998118684 L 99.73526286619017 89.02548588922946 L 99.68099042668473 89.06439788173884 L 99.68918242672225 89.26510188181419 L 99.69225442688912 89.3347338817548 L 99.41679842665326 89.35521388158668 L 99.39222242688993 89.23438188177533 L 99.3118257013266 88.8333746008575 L 98.94780642690603 87.01747199922102 L 98.95462251012214 87.01671042566886 L 99.1311024268507 86.99699199938914 L 99.09526242682477 86.86182399943937 L 99.02972642664099 86.61913599941181 L 98.94883042667061 86.41638399934163 L 98.92937442683615 86.20236799947452 L 98.90172642678954 86.0446719993488 L 98.82697442668723 85.88697599939769 L 98.72252642677631 85.74566399934702 L 98.71808283292921 85.7388976176153 L 98.67747042659903 85.6770559992874 L 98.63958242686931 85.63199999922654 L 98.604766426899 85.4241279992857 L 98.52182242681738 84.8445439991774 L 98.46447842661291 84.57932799926493 L 98.38563042663736 84.25881599925924 L 98.32828642689856 83.97721599927172 L 98.06307042669505 82.81599999923492 L 97.87670242664171 82.0561919992906 L 97.75382242666092 81.53190399921732 L 97.7231024268549 81.09260799922049 L 97.7179824266932 80.9441279991297 L 97.70671842689626 80.62668799923267 L 97.67702242685482 80.07475199922919 L 97.6677849611151 79.97858761175303 L 97.63708642695565 79.65900799958035 L 97.5951024267124 79.42758399952436 L 97.54492642666446 79.21356799965724 L 97.48041384661337 78.90432010032237 L 96.53014242695644 76.02892799919937 L 96.42876642680494 75.64595199911855 L 96.31305442668963 75.25068799918517 L 96.23420642671408 74.87385599926347 L 96.1952944265795 74.38950399920577 L 96.1533104267437 74.17036799929338 L 96.10927842673846 74.00652799918316 L 95.93315042671748 73.544703999185 L 95.83791842666687 73.25081599922851 L 95.66076642664848 72.82278399931965 L 95.3955504266196 71.96569599932991 L 95.0269104266772 70.7706879992038 L 94.91017442685552 70.41023999924073 L 94.75555042660562 69.9985919991741 L 94.51798242668156 69.50707199925091 L 94.42172642663354 69.3432319991407 L 94.16675042663701 68.97561599931214 L 94.0551344268606 68.76671999931568 L 93.65782242681598 67.73452799918596 L 93.73871842678636 67.72121599921957 L 93.81142242683563 67.70790399919497 L 93.9250864268397 67.77651199919637 L 94.01622242672602 67.8051839992404 L 94.06230242672609 67.82771199929994 L 94.11555042676628 67.84511999925599 L 94.14422242686851 67.84409599920036 L 94.16879842680646 67.83487999916542 L 94.23945442691911 67.71711999922991 L 94.31727842672262 67.63929599913536 L 94.4022704269737 67.58399999910034 L 94.53334242699202 67.5112959992839 L 94.70742242684355 67.42425599915441 L 94.74940642691217 67.3894399991841 L 94.7739824266755 67.3535999993328 L 94.79651042685146 67.30547199916327 L 94.82825442688772 67.20511999924202 L 94.8343984267558 67.15084799932083 L 94.80163042678032 66.99827199924039 L 94.80163042678032 66.93990399932954 L 94.80982242681785 66.90611199924024 L 94.82620642671827 66.87846399931004 L 94.88559842662653 66.8692479992751 L 94.91017442685552 66.87334399926476 L 94.93987042666413 66.91327999928035 L 95.02895842667203 66.99007999926107 L 95.06889442692045 67.00441599916667 L 95.16003042669035 67.01055999932578 L 95.25219042686513 67.02284799923655 L 95.36585442681098 67.09145599929616 L 95.4508464266546 67.15494399925228 L 95.78159842686728 67.42630399914924 L 96.00073442689609 67.58502399921417 L 96.1594544268446 67.67615999927511 L 96.37142242660047 67.818495999265" fill="none"/><path stroke="#000000" stroke-width="2" d="M 76.64447283203481 43.623989247891586 L 81.62499993602978 46.56249958393164 L 80.49999974406091 47.00000051181996 L 79.24999987205956 46.81249996798579 L 80.00000000011642 47.187500031956006 L 79.37499955203384 48.250000383879524 L 77.62499993602978 48.87499980797293 L 76.06249984010356 47.43750041583553 L 73.62499993602978 45.562500095926225 L 73.00000051216921 44.56249958387343 L 74.87499980814755 45.374999551917426 L 78.12499968003249 45.374999551917426 L 75.37499955203384 42.87499980785651 L 76.64447283203481 43.623989247891586" fill="none"/><path stroke="#000000" stroke-width="2" d="M 43.62499993602978 40.874999808031134 L 44.25000038405415 42.312500223866664 L 40.43749990413198 41.6874997758423 L 39.93750016007107 41.06250035186531 L 38.31250022404129 39.00000051181996 L 39.93750016007107 38.62500044784974 L 42.687500288011506 39.43750041583553 L 43.62499993602978 40.874999808031134" fill="none"/><path stroke="#000000" stroke-width="2" d="M 67.81250048003858 36.37500006391201 L 68.49999974411912 37.374999551917426 L 67.18750003201421 36.56249958387343 L 66.6875002880115 35.12500019191066 L 67.81250048003858 36.37500006391201" fill="none"/><path stroke="#000000" stroke-width="2" d="M 62.59999973383674 0.0 L 62.375000064086635 0.12499968003248796 L 61.87500032002572 0.6875002878950909 L 57.43750041601015 4.999999487947207 L 55.18750003201421 10.312500223924872 L 54.18749952001963 12.812499967927579 L 54.06422220810782 19.57110886380542 L 54.06249984004535 19.749999615887646 L 54.499999744060915 22.250000383821316 L 54.87499980808934 23.62499993602978 L 55.812500480154995 25.500000255880877 L 56.43749990401557 25.500000255880877 L 57.749999616120476 28.37500006391201 L 58.18749952001963 29.187500031956006 L 57.43750041601015 29.81250047980575 L 59.31249971216312 31.875000319851097 L 63.68749977601692 40.06249983981252 L 62.250000384112354 42.87499980785651 L 56.124999680090696 43.31249971187208 L 54.13740032009082 43.32192460790975 L 53.37499955203384 42.87499980785651 L 45.68749977607513 42.499999743828084 L 44.95785472006537 41.92512716783676 L 43.43750041606836 39.18750003201421 L 40.56249958410626 38.18749951990321 L 38.18749952013604 38.37500006397022 L 37.18750003207242 39.18750003201421 L 35.749999616120476 38.81249996781116 L 29.187500032014214 33.50000025588088 L 20.81249996816041 26.93749964784365 L 17.125000192027073 25.937500159896445 L 17.125000192027073 25.31249971181387 L 6.0624998401035555 20.81249996792758 L 0.0 18.162665635580197" fill="none"/><path stroke="#000000" stroke-width="2" d="M 934.6989060984197 1024.0 L 932.8671877120505 1023.9882813439472 L 928.9765621760162 1023.8867189759039 L 917.9140628480236 1023.8867189759039 L 912.5937500160653 1023.7812500478467 L 906.7578122241539 1023.7812500478467 L 897.7421875200816 1023.5781253119349 L 884.2265620480175 1023.5781253119349 L 879.7187502080342 1023.6796876798035 L 876.1406248960993 1023.6796876798035 L 872.4531251200242 1023.7812500478467 L 866.5156249600695 1023.8867189759039 L 856.4765624320717 1023.8867189759039 L 852.281249792024 1023.9882813439472 L 851.4420126762561 1024.0" fill="none"/><path stroke="#000000" stroke-width="2" d="M 460.9582259050949 1024.0 L 459.88281241606455 1023.9882813439472 L 458.98498190179816 1024.0" fill="none"/><path stroke="#000000" stroke-width="2" d="M 0.0 302.71029874945816 L 2.738062336051371 302.36588851187844 L 9.05468723201193 301.71484364784556 L 30.61459046410164 288.3757055999595 L 31.06787430413533 288.09755443182075 L 30.761947136023082 288.87936921586515 L 30.124999680090696 290.31250022386666 L 30.437499904015567 292.3750000638538 L 31.33572096010903 293.23579596786294 L 31.889408000104595 293.8286079998361 L 33.93750016001286 294.2382817278849 L 33.32300800003577 292.2926079998724 L 31.82935244811233 292.0111841278849 L 31.749999616120476 291.93750015989644 L 31.563228160026483 291.17920870380476 L 31.5539220480714 291.11539609590545 L 31.377408000116702 290.03980799991405 L 31.943075840070378 288.3428044799366 L 32.12499968003249 287.8750003199675 L 31.281954816018697 286.24912588787265 L 38.64843776001362 284.5117183999391 L 57.17968793603359 274.47656243189704 L 65.06700800010003 273.8606079998426 L 70.67968716809992 272.4218746878905 L 72.18578739202349 272.0329113599728 L 83.80723200005013 269.04780799982836 L 92.62016307201702 262.70963609591126 L 98.812499968044 258.3750000638538 L 101.06442649604287 256.858396671887 L 118.32031232013833 246.1093754878966 L 132.83433369605336 236.43205836782 L 134.74618163210107 235.18066790385637 L 135.23170304007363 234.90204671985703 L 138.08025600010296 233.31020799983526 L 142.48437452805229 227.3710940158926 L 144.1197475840454 226.00697855983162 L 144.37032960011857 225.80689510382945 L 145.4635479041026 224.88723455992294 L 147.39968000003137 223.27500799985137 L 148.62066483218223 222.33578905585455 L 150.01562521618325 221.26562508789357 L 150.06249984004535 221.22656255983748 L 150.1877258240711 220.3529656319297 L 151.62499993602978 212.6875002879533 L 147.06250035203993 204.4999997439445 L 143.9978444800363 204.06332518381532 L 142.18051379203098 195.21916108793812 L 142.25000038405415 195.06250035198173 L 141.54858086403692 192.7963750399067 L 141.44884121604264 192.4462254079408 L 140.49999974411912 191.81250047992216 L 139.68749977601692 191.374999551801 L 137.74999961606227 178.25000038393773 L 137.62071040010778 177.2486451198929 L 137.93750016001286 176.43749990389915 L 138.9344583681086 173.57322649587877 L 138.97917542408686 173.59446732793003 L 140.23065600002883 174.2254079998238 L 141.2546570241684 174.32781107188202 L 141.86905600008322 175.45420799980639 L 143.3026560000144 177.29740799992578 L 146.16985600005137 183.54380799998762 L 146.47705600009067 183.4414079998387 L 146.44234649604186 183.3729290238116 L 145.88207923207665 182.04862054396654 L 142.25000038405415 173.374999551801 L 142.25000038405415 172.75000012782402 L 143.37499955209205 172.31250022380846 L 143.24999987211777 171.74999961594585 L 143.2926208000863 171.53689702396514 L 143.4050560001051 171.25580799987074 L 149.03705600008834 170.53900799987605 L 149.44665600004373 170.43660799995996 L 157.02425600012066 168.28620799991768 L 156.92185600008816 168.08140799991088 L 149.34425600001123 170.12940799980424 L 148.93465600005584 170.23180799989495 L 148.36636569607072 170.23180799989495 L 149.3124997120467 170.06249983992893 L 145.63005337602226 170.23180799989495 L 143.06250035203993 170.23180799989495 L 143.06250035203993 168.97980006382568 L 145.65785600006348 168.08140799991088 L 145.61425510409754 167.8852014078293 L 145.60874086408876 167.83708569587907 L 145.5000002561137 165.99999999982538 L 145.86472038406646 165.31771903997287 L 145.93750016001286 165.1875000318396 L 145.3124997120467 163.93750016001286 L 144.56249958410626 164.12499967997428 L 141.4980648960336 164.92175257595954 L 141.25644697604002 164.89984614384593 L 143.81615718401736 163.57983539189445 L 143.87500032008393 163.5625000958098 L 143.87039539206307 163.01334015990142 L 143.87385241605807 162.9373951999005 L 144.0000000000582 162.31250022398308 L 137.573586944025 150.77227417589165 L 137.5000002561137 150.62500044790795 L 131.5000002560555 152.06249983987072 L 131.06250035203993 151.24999987188494 L 134.43749990401557 150.25000038387952 L 134.37841510411818 150.16522444790462 L 133.9399567360524 149.62295295996591 L 133.8808320000535 149.547007999965 L 131.32169728004374 150.40005324792583 L 130.56249958404806 150.62500044790795 L 126.39928934402997 144.28967833594652 L 128.55603200005135 143.50540799990995 L 128.92740198411047 143.55846041586483 L 129.24999987205956 143.6874997759005 L 129.1326914561796 143.58778777590487 L 129.27283200004604 143.60780799982604 L 128.64439705607947 143.17273702385137 L 128.0000000000582 142.62500044790795 L 128.02358988818014 142.7429478399572 L 127.94163200003095 142.68620799999917 L 127.94163200003095 143.30060799990315 L 126.19115110411076 143.98134988790844 L 120.32130355201662 135.88713881582953 L 123.9480320000439 134.39180799981114 L 123.436032000056 133.67500799981644 L 119.31342950410908 134.87817523186095 L 119.1075932160602 134.36273356789025 L 122.71923200006131 132.95820799982175 L 122.62302310409723 132.86199910385767 L 122.75000012805685 132.81249996786937 L 122.18749952007784 132.3750000638538 L 118.37500006402843 133.62499993585516 L 113.68749977601692 128.6875002879533 L 111.95185459201457 128.6875002879533 L 111.96620800008532 126.30323199997656 L 111.94515968009364 126.24791142391041 L 111.92549376009265 126.15394508780446 L 111.81250048003858 125.24999987182673 L 115.50016409601085 125.43504691187991 L 115.76351232005982 125.45045913581271 L 117.51976019574795 125.56746313953772 L 117.48406530084321 124.77325172664132 L 115.85740800009808 124.66483199992217 L 115.31468800001312 124.53990399994655 L 113.89542400010396 124.02278399991337 L 113.54931200010469 123.62649599986617 L 113.10182400001213 122.77862399991136 L 112.68812800006708 122.04748800001107 L 112.35328000009758 121.30303999985335 L 112.44236800010549 121.05830399983097 L 112.75571200001286 120.46950399986235 L 112.83456000010483 120.47052799991798 L 111.85049600008642 118.10815999982879 L 110.94528000004357 117.91871999995783 L 111.0568960000528 117.5070719999494 L 112.36556800012477 117.95251199987251 L 113.40390400006436 120.68249599984847 L 113.5378831360722 120.8238499838044 L 113.39472281606868 121.25332889595302 L 113.36692428804236 121.30879385588923 L 113.2359680000227 121.60716799995862 L 113.54782003216678 122.11672985582845 L 114.19750400009798 122.88409599993611 L 114.8006400000304 123.29983999993419 L 115.42732800007798 123.46879999991506 L 116.36940800008597 123.64083199994639 L 117.80403200001456 123.3336320000235 L 118.94988800003193 122.76121599995531 L 118.85772800003178 122.66803199984133 L 117.3768919040449 123.19280947180232 L 117.37499955203384 122.65045811183518 L 117.39443200011738 122.51443199987989 L 118.8587520000292 121.95635199989192 L 118.78195200004848 121.83347199991113 L 117.397644288023 122.0855971838464 L 117.72683468804462 120.6042419198784 L 117.79686400003266 120.57702399982372 L 117.74179635202745 120.50977894401876 L 117.59513600007631 120.34969599993201 L 116.81001779204234 120.78484275192022 L 115.68749977601692 121.12500019196887 L 115.18464716809103 120.74664345587371 L 115.83110451209359 120.1922099199146 L 116.03643289610045 120.0142581758555 L 116.37065830407664 119.44305663986597 L 116.43749990407377 119.31249971187208 L 114.68750028806971 120.12499967991607 L 114.25577881606296 119.50825472001452 L 114.90526105609024 118.96381132793613 L 114.21900800004369 118.41843199986033 L 113.502208000049 117.29203199996846 L 112.17100800003391 115.75603199983016 L 110.43020800006343 115.14163199992618 L 101.72620800003642 108.69043199985754 L 100.55617843207438 106.62861209589755 L 100.37542707205284 100.45157375995768 L 100.44827750406694 100.45748019189341 L 100.44436480011791 100.06244454381522 L 100.4473425920587 99.96458495990373 L 100.861508608039 96.06470246386016 L 100.56249958404806 89.18750003201421 L 100.87499980808934 86.93749964790186 L 101.18750003201421 84.87499980785651 L 102.62500044808257 81.00000051187817 L 103.43750041601015 77.74999961588765 L 103.43750041601015 75.8750003199093 L 103.3124997120467 74.25000038387952 L 103.43750041601015 73.62499993602978 L 102.62500044808257 71.187500031956 L 101.5000002560555 70.37500006397022 L 101.5000002560555 70.93749964790186 L 100.75000012811506 70.37500006397022 L 99.62499993608799 68.93749964790186 L 98.49999974411912 67.8750003199093 L 97.81250048009679 67.6874997758423 L 96.43749990401557 66.06249983981252 L 94.93749964801827 64.43749990395736 L 93.68749977601692 62.75000012794044 L 92.6875002880115 58.68750028789509 L 93.31249971210491 58.06249983981252 L 92.43749990401557 57.24999987182673 L 93.31249971210491 56.62500044784974 L 92.75000012811506 56.18749951996142 L 93.31249971210491 55.62499993597157 L 91.74999961606227 47.43750041583553 L 89.5000002560555 45.187500031956006 L 80.37500006402843 38.62500044784974 L 79.24999987205956 38.62500044784974 L 79.37499955203384 37.99999999994179 L 76.812499968044 36.37500006391201 L 75.37499955203384 34.49999974388629 L 76.68750028806971 34.93749964784365 L 76.00000000011642 32.874999808031134 L 75.18750003201421 33.06250035186531 L 74.12499968003249 33.875000319909304 L 68.31250022404129 30.812499967811164 L 66.87499980808934 28.187499519903213 L 66.37500006408663 27.562500095926225 L 65.43750041601015 27.31249971187208 L 66.06249984004535 26.75000012788223 L 65.43750041601015 25.937500159896445 L 63.81250048003858 24.87499980785651 L 63.5000002560555 23.875000319851097 L 62.687500288011506 23.875000319851097 L 62.562499584048055 22.625000447849743 L 62.06249984004535 23.43750041583553 L 61.43750041601015 22.812499967811164 L 61.87500032002572 22.250000383821316 L 60.812499968043994 21.624999935971573 L 60.124999680090696 18.75000012794044 L 60.000000000116415 18.124999679857865 L 61.43750041601015 11.374999551859219 L 67.37499955203384 2.9999994878889993 L 72.59533820404613 0.0" fill="none"/><path stroke="#000000" stroke-width="2" d="M 458.98498190283135 1024.0 L 459.88281241606455 1023.9882813439472 L 460.9582259038434 1024.0" fill="none"/><path stroke="#000000" stroke-width="2" d="M 851.4420126772166 1024.0 L 852.281249792024 1023.9882813439472 L 856.4765624320135 1023.8867189759621 L 866.5156249600113 1023.8867189759621 L 872.4531251200242 1023.7812500479631 L 876.1406248960411 1023.6796876799199 L 879.7187502080342 1023.6796876799199 L 884.2265620480175 1023.5781253119349 L 897.7421875200234 1023.5781253119349 L 906.7578122240375 1023.7812500479631 L 912.5937500160653 1023.7812500479631 L 917.9140628480236 1023.8867189759621 L 928.9765621760162 1023.8867189759621 L 932.8671877120505 1023.9882813439472 L 934.6989060963242 1024.0" fill="none"/><path stroke="#408040" stroke-width="3" d="M 124.11904000000504 116.23423999999795 L 124.54911999999604 117.05344000000332 L 124.03711999999359 118.6406399999978 L 122.96192000000156 118.8249599999981 L 120.16640000000189 118.36415999999736 L 119.25504000000365 118.71231999999873 L 119.5315200000041 119.3267199999973 L 122.70591999999306 121.99936000000162 L 127.03744000000006 124.03712000000087 L 131.00032000000647 125.80864000000292 L 137.82016000000294 127.02719999999681 L 140.97407999999996 127.75424000000203 L 143.09376000000339 128.89087999999902 L 149.36063999999897 130.3654400000014 L 167.18847999999707 133.94943999999668 L 172.17535999999382 134.81983999999647 L 178.145279999997 135.11680000000342 L 182.73279999999795 134.3897599999982 L 185.68192000000272 132.87423999999737 L 189.82911999999487 129.79200000000128 L 192.5529600000009 127.95904000000155 L 194.82623999999487 127.18080000000191 L 202.35263999999734 126.74048000000039 L 206.89919999999984 126.84287999999651 L 212.79743999999482 126.92480000000069 L 215.75680000000284 127.95904000000155 L 217.57951999999932 128.03072000000247 L 221.87007999999332 126.24895999999717 L 231.66976000000432 123.8220799999981 L 235.69408000000112 121.3235199999981 L 237.84447999999975 117.60639999999694 L 238.21312000000034 111.67743999999948 L 238.92991999999504 95.38560000000143 L 239.41120000000228 71.3932799999966 L 239.32928000000538 62.55616000000009 L 239.30879999999888 57.14944000000105 L 240.79360000000452 53.48352000000159 L 243.52767999999924 51.07712000000174 L 247.49056000000564 49.54112000000168 L 259.13344000000507 49.18271999999706 L 269.18911999999546 50.10431999999855 L 277.9033599999966 50.52416000000085 L 293.3657600000006 50.50368000000162 L 306.0121599999984 51.01567999999679 L 325.703680000006 53.05344000000332 L 335.7900800000061 54.036480000002484 L 345.3542400000006 53.96480000000156 L 360.00767999999516 53.77023999999801 L 374.23103999999876 53.063679999999295 L 396.482560000004 51.36383999999816 L 405.6883200000011 49.64351999999781 L 420.61823999999615 45.59872000000178 L 446.2899199999956 38.8608000000022 L 463.1756800000003 35.788800000002084 L 472.8012799999997 34.50880000000325 L 481.75104000000283 32.798719999998866 L 488.81664000000455 30.55616000000009 L 494.2540799999988 28.180480000002717 L 502.73279999999795 24.043519999999262 L 511.93855999999505 21.217279999997118 L 518.6355199999962 20.203520000002754 L 526.4076800000039 19.814400000002934 L 531.7734400000045 18.923519999996643 L 540.375039999999 16.50688000000082 L 564.6643199999962 11.223039999997127 L 580.935679999995 7.618560000002617 L 586.403839999999 5.181440000000293 L 595.4166264788655 0.0" fill="none"/><path stroke="#408040" stroke-width="3" d="M 124.11904000000504 116.23423999999795 L 123.7708799999964 131.860480000003 L 142.24383999999554 156.2419200000004 L 156.93824000000313 187.15647999999783 L 156.82559999999648 209.59232000000338 L 149.26847999999882 225.58720000000176 L 138.11711999999534 237.94688000000315 L 147.1692800000019 254.0031999999992 L 158.48447999999917 261.6831999999995 L 161.88416000000143 262.9119999999966 L 143.80031999999483 271.40095999999903 L 120.42239999999583 281.3132800000021 L 81.16224000000511 305.1724800000011 L 49.62304000000586 338.5446400000001 L 0.0 381.6047690076666" fill="none"/></svg>