<svg xmlns="http://www.w3.org/2000/svg" width="1024" height="1024"><rect stroke="none" x="0" y="0" width="1024" height="1024" fill="white"/><path stroke="#000000" stroke-width="2" d="M 746.6391943975614 1024.0 L 746.7207034880994 1023.7832028160337 L 746.4787496961071 1023.4587760638096 L 746.6673797120457 1023.2915374079021 L 746.6953052160097 1022.7052390398458 L 747.3984378880705 1022.3300782079459 L 747.8007808000548 1021.9785154558485 L 748.0156252160086 1021.7207029758138 L 748.4763207681244 1020.639239167911 L 749.0957035520696 1020.0761722878669 L 749.1093790720333 1020.0410071038059 L 749.1406254080357 1019.9707033598097 L 749.1796879360336 1019.8652344318689 L 749.1250001920271 1018.9042964478722 L 749.6893870080821 1017.9864371198928 L 749.6093747200212 1017.7285160960164 L 749.3671874560532 1017.5175782400183 L 748.6953123840503 1017.2128911358886 L 748.4238284800667 1016.7910154238925 L 748.2343751681037 1016.5332029438578 L 748.0468746240367 1015.9453122559935 L 748.0587325440138 1015.5677143038483 L 748.07421849604 1015.1464847358293 L 748.3435366400518 1014.6546831359738 L 748.4687503360328 1014.5664061439456 L 748.8300779521232 1014.3027343359427 L 749.072265216033 1013.7871093758149 L 749.019531264028 1013.3378908159793 L 748.562499584048 1012.9628907519509 L 747.7499996160623 1012.5878906879225 L 747.6171878400492 1012.2832035840256 L 747.6425779200508 1011.6738283518935 L 748.0468746240367 1010.6855464958935 L 748.0488284160383 1009.2089845758746 L 747.968749568041 1008.8339845118462 L 747.9960934400442 1008.1269534719177 L 748.4003901440301 1007.2128911358304 L 748.7265628160094 1006.2988277758704 L 749.1562496000552 1005.8300784639432 L 749.2382812160649 1005.2871096318704 L 749.1562496000552 1005.0527344639413 L 748.1601566720637 1003.8808596478193 L 747.9707033600425 1003.5488276478136 L 747.9453122561099 1002.5644533759332 L 748.4062504960457 1000.7128903678386 L 748.382768128009 1000.3982295040041 L 748.3582781440928 1000.0045844478882 L 748.3515627520974 999.8652344318107 L 747.8671872001141 998.9980467198184 L 747.4863278080593 998.6230466559646 L 747.3671874561114 998.449218559952 L 746.9765621760162 997.8925783039303 L 746.8671877120505 997.5878901759279 L 745.4687498240382 996.0605470719747 L 744.7773440001183 995.6269527039258 L 744.0898437120486 995.1933593598078 L 741.634765824012 993.5253903358243 L 740.6640629760223 992.5175777279655 L 740.2343751680455 991.5527342080022 L 739.7753907200531 990.3339847680181 L 739.3164062721189 989.7011722239549 L 738.183593984053 988.6191411198233 L 737.1328122880659 988.0332031999715 L 736.5664061441203 987.6113285119063 L 736.4430202880176 987.484607487917 L 736.3046871040133 987.3378908159211 L 736.1328128000605 987.1660154878045 L 735.7285160960164 986.435547135945 L 734.9765621760162 985.6855470079463 L 734.650390528026 985.2167966718553 L 734.6327132161241 985.1768309759209 L 734.6015621121041 985.0976563198492 L 734.3748956160853 984.6026506238268 L 734.3320309760747 984.5683589118998 L 733.8691409920575 984.2285158399609 L 732.6269532160368 984.0644536319305 L 732.3593748480198 983.9238277119584 L 732.3593748480198 983.6425779199344 L 732.8749998080311 983.4785157119622 L 734.1660160001484 983.3847654398996 L 734.3593748481362 983.1972659199382 L 734.3281254401081 982.4472657919396 L 733.9785154560232 980.662109183846 L 733.5742187520373 979.1816407039296 L 733.502598144114 977.7101578239817 L 733.4687498240382 976.9746094079455 L 733.2499998721178 976.5058590719127 L 732.4453120001126 975.7558589438559 L 732.0575262720231 975.464041471947 L 731.5779840000323 975.0994114559726 L 731.4687498240964 974.9453127678717 L 731.2578129920876 974.6542970878654 L 731.2131184640457 974.5118361599161 L 730.9844418560388 973.713123327936 L 731.0156247040723 972.4941404159181 L 731.0781245440594 972.2226565119345 L 731.093749760068 972.1386721279123 L 731.0937487360789 971.7578127359739 L 731.0932449281099 970.9916231678799 L 706.9999994880636 970.6874982399167 L 705.6171878400492 970.669922303874 L 705.1250001920853 970.6621091839625 L 692.4490772481076 970.5880750079523 L 689.0378465280519 970.5673994239769 L 687.4218752000597 970.5351567359176 L 686.4921876480803 970.544921600027 L 686.1015674880473 970.5413273599115 L 686.1016954880324 970.5492746239179 L 686.0976640001754 970.5492500478867 L 686.1284126720857 972.2030694399728 L 686.1406248960993 972.9589841919369 L 686.0781250561122 973.2421877759043 L 686.0607518720208 973.336868863902 L 686.0351856640191 973.4549391359324 L 686.1222400001134 973.6355799039011 L 686.2482616321067 973.9150796798058 L 686.2150113280513 974.1958553598379 L 686.1953126400476 974.3457034238963 L 686.156250112108 974.4062504958129 L 685.976562688069 974.6972651518881 L 685.8984376320732 975.1191408638842 L 685.9240755200153 975.1541022718302 L 685.980519424018 975.2374169598334 L 686.0078120960388 975.8691409918829 L 685.9277342720306 976.3417968638823 L 685.9277342720306 979.1816407039296 L 685.7109370881226 980.2363279358833 L 685.5780782080255 981.1207516158465 L 685.3085941760219 982.8886722559691 L 685.2011714560213 984.4394526718534 L 685.1150458881166 984.6698137600324 L 684.9999994881218 984.9707028478733 L 684.8749998081475 985.3066403838457 L 684.7275100160623 985.5472486398648 L 684.175780864025 986.435547135945 L 683.9605708801537 987.3973790719756 L 683.7968752640882 987.7949214720284 L 683.7187502080924 988.3613276158576 L 683.7714841601555 988.8535152638215 L 683.8525685760542 988.9941913599032 L 683.9140628480236 989.1035156478756 L 683.9296870400431 989.1347660798929 L 684.4453120000544 989.6269987839041 L 684.4453120000544 990.2363279359415 L 684.0390625281143 990.7988285438041 L 684.0423106561066 990.999402495916 L 684.0441323520499 991.2815257598995 L 684.0761722880998 991.3847654398996 L 684.1458216960309 991.6282122239354 L 684.281249792024 992.1152348158648 L 684.2135357440566 992.3027507198276 L 684.1777346560266 992.3964846078306 L 684.0703129600734 993.9667967999121 L 683.8656860160409 994.5456537599675 L 683.8515630080365 994.5800785918836 L 683.708940288052 994.8142489598249 L 683.3215774720302 995.4418851839146 L 683.0703124480788 995.8457026559045 L 682.9374996480183 996.5253908479353 L 682.8574218240101 998.0058593278518 L 683.0449223680771 998.3339847680181 L 683.0585937920259 998.4980469758157 L 683.0992629760294 999.0614528000006 L 682.9556981760543 999.436930047872 L 682.6640629760223 1000.1894533119048 L 682.6367979520583 1000.3394088958739 L 682.5058590720291 1000.9628907518927 L 682.460937216063 1003.7558589439723 L 682.4530595840188 1004.3890452479245 L 682.0761722880416 1006.5253908478189 L 682.0020848640124 1006.8539924478973 L 681.8593751040171 1007.4707036159234 L 681.6665149440523 1008.3423569920124 L 681.4570311681018 1009.2714844158618 L 681.4570311681018 1011.0800783358864 L 681.6015503360541 1011.6737761278055 L 681.6718745600665 1011.9707033598097 L 681.7093570560683 1012.0281763838138 L 681.7996912641684 1012.1743063040194 L 681.804687360127 1012.185546751949 L 681.9921879040194 1012.8652339198743 L 681.9223992320476 1013.7510010879487 L 681.888818176114 1014.154635263898 L 682.1328128001769 1014.7167969280272 L 682.179687424039 1016.4394526718534 L 682.1855467520654 1016.5957027838449 L 682.1855467520654 1017.6074219519505 L 682.0365527040558 1018.0083537919563 L 681.8593751040171 1018.4746096639428 L 681.835937792086 1018.6660157439765 L 681.7890621441184 1019.0078126078588 L 681.7812500480213 1019.0839838720276 L 681.7187502080342 1019.2070307839313 L 681.6328120320104 1019.3925785598694 L 681.2578129920876 1020.1445314558223 L 681.1328122881241 1020.4003901438555 L 681.1463116800296 1020.4993576958659 L 681.1875000320142 1020.8691404798883 L 681.5625000961008 1021.4550783999148 L 681.5937218560721 1021.7598504959606 L 681.4062499841093 1022.3183595518349 L 680.8398438400473 1023.3378908158047 L 681.3515622400446 1023.7832028160337 L 681.3143508157955 1024.0" fill="none"/><path stroke="#000000" stroke-width="2" d="M 236.87514606211334 1024.0 L 236.96093798411312 1023.0664058878901 L 238.9062502401066 1019.8906245118706 L 240.43749990401557 1018.0488284158637 L 242.79687475203536 1015.6933591038687 L 247.29687449603807 1011.1875000318396 L 249.65625036804704 1009.2421877759625 L 251.39843788807048 1008.1152348158648 L 254.2656245760154 1007.0917969918228 L 258.257812480093 1005.6582031358266 L 261.5312496640836 1004.3281254398171 L 265.7343754240428 1000.6406246398692 L 266.9609379840549 992.652343295922 L 267.3671874561114 989.5820308480179 L 268.60156211210415 986.5097656318103 L 271.3671874561114 982.8222658559098 L 273.8203125760774 980.5703127039596 L 276.9921873920248 978.2148433919647 L 279.96874956804095 975.7578127358574 L 282.2187499520369 973.7089843199356 L 284.06249984004535 971.9687495678663 L 285.70312499202555 970.3300782078877 L 286.51562496001134 968.3847659520106 L 287.0312499200227 966.2343751678709 L 287.0312499200227 960.8066406399012 L 288.05468774412293 957.7343754238682 L 290.921875456057 956.9140623359708 L 293.68749977607513 959.7832028158591 L 294.71093760005897 962.5468753919704 L 295.2265625600121 966.3359375359141 L 298.0937502721208 969.3066403838457 L 301.57031219202327 969.4082027518889 L 303.8203125760192 968.0761722878087 L 306.4843745280523 966.029296639841 L 307.8203125760774 962.7519528959529 L 306.8984371200204 959.47460915189 L 305.3593753600144 957.3242183678085 L 302.28906291216845 955.8925783039303 L 299.3203128320165 955.482422271918 L 296.65624985605245 955.2773437438882 L 293.38281267206185 954.4589844479342 L 290.0000000001164 952.82031206385 L 286.10937548807124 949.2363284478197 L 283.34375014406396 946.5722654718556 L 281.39843788801227 944.9355468799477 L 278.53125017601997 942.8867184638511 L 275.7656248321291 941.2480471038725 L 273.20312524802284 938.4843745279359 L 272.39062528009526 935.3105469439179 L 273.9843747841078 934.349608959863 L 275.4609377281158 933.4667970558512 L 278.01562521612504 936.6406246399274 L 279.65625036810525 939.4042972158641 L 282.9374996480183 938.6894530559657 L 283.64843724807724 935.0019532799488 L 283.2421877760207 932.4414064639714 L 282.83593728003325 930.3945308159455 L 283.7499996161205 927.1171870719409 L 288.97656217601616 923.2265625599539 L 291.43750041606836 920.7695308799739 L 292.8671877120505 917.7988280318095 L 293.68749977607513 914.6230466559646 L 294.60937523201574 912.3710935038398 L 296.9609379840549 911.4492190719466 L 299.726562304073 911.2460933119874 L 302.5937500161235 910.7324221438612 L 304.74218700814527 907.9687495679245 L 304.1328128001187 904.7949219839065 L 301.57031219202327 902.6425784318708 L 300.1406248960411 900.0839843840222 L 303.92968704004306 899.2636723199976 L 305.8750003200257 898.5488281599246 L 306.4843745280523 895.8847651839606 L 305.7734379521571 893.3261721598101 L 305.15624960011337 890.3554682879476 L 305.56250009610085 886.361327615974 L 306.179687424039 882.8808591358829 L 308.02343731204746 881.9589847038151 L 309.96874956804095 882.8808591358829 L 313.0390620160615 885.1328122878331 L 316.52343705605017 883.2910151678952 L 317.9531253760215 879.9101562878932 L 314.06249984004535 878.169921535824 L 312.6328125441796 874.1757808638504 L 311.39843788801227 871.001953280007 L 310.890625024098 868.6464839678374 L 308.2265620481339 867.4179686398711 L 304.5390622720588 869.8750003198511 L 301.26562508801 872.5390622719424 L 298.60156211204594 873.1523440639139 L 300.6484377600136 868.441406463855 L 300.1406248960411 864.4472657918814 L 301.7734379520989 860.8652339198161 L 304.6406246400438 857.0761717759306 L 305.7734379521571 853.3886719998554 L 304.33593753608875 850.9316403198172 L 304.33593753608875 848.4726558719412 L 306.0781250561122 845.1972659198218 L 302.4921876480803 845.5039057918475 L 300.6484377600136 843.3535160318133 L 300.4453120000544 840.3847659519524 L 297.37499955203384 840.3847659519524 L 295.2265625600121 839.5664066559984 L 296.9609379840549 837.6191406079452 L 297.37499955203384 833.9335935999407 L 294.71093760005897 832.6015621119295 L 294.19531264004763 829.3242183679249 L 294.19531264004763 826.1503907838487 L 290.20312473608647 826.0488284158637 L 290.3046871040133 823.5917967358255 L 291.9453122560517 821.7480468479916 L 289.8984376320732 819.0839838720276 L 291.74218752002344 816.2187499519205 L 292.14843699213816 810.482421759807 L 289.4843750401051 812.3281254398171 L 286.3125002240413 809.0507816959289 L 289.38281267206185 806.7968747518025 L 287.33593702403596 804.1347655678401 L 289.38281267206185 802.2910156800062 L 287.5390627841116 801.0625003518071 L 288.3593748481362 799.0156247038394 L 290.61718732805457 798.0937502719462 L 293.5859374080319 799.833983999968 L 295.2187504640897 796.1484369919635 L 293.68749977607513 793.2792965118424 L 296.5546874880092 790.925780991849 L 294.0937502721208 789.0820311038406 L 295.83593779202783 786.2148433919647 L 296.8593745920225 783.7578127358574 L 299.42187520005973 784.7812495359685 L 302.28906291216845 784.4746096639428 L 299.82812467211625 782.2207027198165 L 298.4999997440609 779.6601559038972 L 303.61718784010736 779.7636720638839 L 302.7968747520936 776.5898434559349 L 299.52343756810296 772.4941404159181 L 298.9062502400484 769.4218751999433 L 298.4999997440609 766.656249855936 L 301.06250035209814 763.9941406719736 L 301.7734379520989 760.7167969279108 L 303.4140620800317 757.3378908158047 L 299.42187520005973 755.0859376638546 L 299.52343756810296 752.115234815923 L 298.8046878721798 749.8632816639147 L 299.0078126080916 745.2539064318989 L 301.16406272002496 741.1582033918821 L 302.39062528003706 737.0625003518653 L 298.29687500809086 735.6289064958692 L 298.3984373760177 733.0683596799499 L 301.06250035209814 731.839843327878 L 302.28906291216845 727.9492188158911 L 300.9609379840549 725.183593471942 L 298.29687500809086 724.5703127038432 L 295.01562470401404 728.6660157440347 L 294.19531264004763 725.4921871359111 L 291.6406251520384 722.4199219198781 L 290.0000000001164 723.6484372478444 L 288.15625011204975 721.1914065919118 L 285.804687360127 721.1914065919118 L 282.6250004480826 721.7031249919673 L 281.093749760068 718.9374996479601 L 277.3046876160661 719.4492190719466 L 273.3124997120467 718.1191403518314 L 270.6484377600136 717.4023434239207 L 268.39062528003706 716.9921873919084 L 270.5468753920868 715.5585935359122 L 269.10937497601844 714.5351567359758 L 267.16406272002496 712.9980467199348 L 264.29687500809086 715.3535160319298 L 262.7656253440655 713.8183598078904 L 261.9453122560517 711.8730465279077 L 264.914062336029 709.720702975872 L 263.1718748160638 707.7773434878909 L 260.60937523201574 705.2167966719717 L 257.6406251520384 704.4999997438281 L 258.97656217607437 701.3261721598101 L 256.21093785605626 699.7890621439437 L 258.05468774412293 697.7421875198488 L 255.0781245441176 695.3867192319594 L 253.1328122880659 693.4394531839062 L 251.70312499208376 691.9042969598668 L 249.75781273603207 689.8554685439449 L 252.3203123200219 687.7050777598633 L 250.2656245760154 685.1464847358875 L 247.9140628480818 684.0195307518588 L 246.07031296013156 685.8632816639729 L 241.87500032008393 685.8632816639729 L 240.43749990401557 682.6875002879533 L 244.53125017601997 679.2070307839313 L 246.07031296013156 677.0566410238971 L 242.5859379201429 676.3398440958117 L 240.33593753614696 673.3691402239492 L 240.42968780809315 672.8535152638215 L 240.64062464010203 671.6289064959274 L 243.30468761606608 672.6523432958638 L 245.56250009604264 673.6777338879183 L 244.84375040006125 671.0156247039558 L 242.69531238410855 669.4785157120205 L 245.24999987211777 667.3281249278807 L 247.60937472007936 665.5878901759279 L 244.02343731204746 662.7207034878084 L 246.9921873920248 660.1601566718891 L 249.45312460808782 658.9316403198172 L 250.67968716815813 656.0644536318723 L 254.2656245760154 654.835937279975 L 250.67968716815813 651.5585935359704 L 247.60937472007936 649.8183598079486 L 247.7109370881808 646.8476559359115 L 250.57812480005668 648.8964843519498 L 250.47656243201345 645.5175782399019 L 250.88281292805914 642.7519528958946 L 250.67968716815813 639.7832028159755 L 250.67968716815813 635.9941406719154 L 250.06249984004535 634.0488284158055 L 247.09374976006802 630.6679685119307 L 250.67968716815813 629.4414059518604 L 247.60937472007936 627.6992184318951 L 248.42968780809315 624.0136714238906 L 250.8828139520483 623.0917980159284 L 253.24218777602073 621.7597655038699 L 254.57031270401785 618.4843745278777 L 257.84374988800846 617.664062463853 L 260.60937523201574 616.845703167899 L 262.96875008003553 614.7968747518025 L 264.3984373760177 612.6464839678956 L 266.5468753920868 610.189453311963 L 269.2109373440617 608.6542970878654 L 271.46874982403824 605.7851566079771 L 271.46874982403824 601.8945310719428 L 273.8203125760774 599.2324218879221 L 277.101562880096 600.3593748478452 L 279.4531246080296 595.443359743862 L 283.546874880034 593.087890431867 L 280.9921873920248 590.7324221439776 L 279.3515622400446 589.19726591988 L 279.4531246080296 584.7929692158941 L 282.52343705605017 581.9257815039018 L 284.57031270401785 584.2812497919658 L 286.92968755209586 587.2519526398974 L 287.9531253760797 590.9374996479019 L 290.0000000001164 589.5039057919057 L 290.7187496960978 584.7929692158941 L 294.50780364801176 581.7226629118086 L 298.60156211204594 583.2578129918547 L 302.18749952013604 583.667969023867 L 304.8515624961001 582.9511720959563 L 303.61718784010736 581.208984575991 L 303.0078126080916 579.2636723198812 L 308.5312501760782 575.0664058879483 L 309.4531246080296 572.8144527359982 L 309.3515622401028 569.2285153279663 L 307.60937472002115 567.8984376319568 L 305.66406246402767 568.4101560318377 L 302.9062502400484 569.7402347518946 L 300.0390625281143 568.3066408958985 L 301.26562508801 565.9531253759051 L 304.1328128001187 563.289062399941 L 301.7734379520989 559.8085939199664 L 300.5468753920868 556.5312501759618 L 303.0078126080916 555.0976563199074 L 307.60937472002115 554.2792970239534 L 304.33593753608875 550.9003909119056 L 302.7968747520936 548.6464839679538 L 299.82812467211625 545.9843747839332 L 295.1171870720573 543.0156247038976 L 296.4531251200824 537.7929687039577 L 293.68749977607513 534.1054689278826 L 290.0000000001164 530.2148433918483 L 291.5390627841116 527.6542965758708 L 296.4531251200824 529.5996098558535 L 296.65624985605245 526.6308597759926 L 293.4843750401051 523.1484375038999 L 292.0468746240367 520.5898434558185 L 290.3046871040133 518.1308590078843 L 292.46093721606303 514.546875391854 L 294.60937523201574 514.6503905279678 L 297.0625024000183 514.1386618879042 L 297.5781253121095 511.47656294394983 L 294.4062504960457 511.2714844158618 L 292.3515627520392 510.6562498558196 L 293.1718748160638 509.017578495841 L 295.32812492811354 507.78906214394374 L 297.1718748160638 505.43359385587974 L 299.82812467211625 504.8203120639082 L 299.52343756810296 501.43945318390615 L 295.6328120321268 500.21289062383585 L 296.8593745920225 498.16406220791396 L 296.55468339211075 493.86132479988737 L 298.4999997440609 490.3808593918802 L 295.5311800321797 491.60941055993317 L 292.96875008009374 492.9414062080323 L 290.3046871040133 492.3261716479319 L 288.05468774412293 490.3808593918802 L 287.82812467211625 490.0078120959224 L 286.10937548807124 487.20703078393126 L 282.6250004480826 486.5937500158325 L 279.3515622400446 485.8750003198511 L 277.3046876160661 484.64648396801203 L 275.4609377281158 482.80273407994537 L 272.8984371200204 480.2441410559695 L 273.61718784010736 474.81640652782517 L 266.7578122241539 471.53906278393697 L 271.3671874561114 469.2871096318122 L 274.02343731204746 467.9550781439757 L 277.5078123520361 464.8828129278263 L 275.25781299202936 460.3789066238678 L 275.4609377281158 457.61328127986053 L 278.02343731204746 455.35937535983976 L 280.6796871680999 453.61914060788695 L 282.42187468806515 451.26367231982294 L 282.01562521600863 447.98828134383075 L 278.9374996480183 443.89062451187056 L 280.1718753281166 441.12695295986487 L 278.6328125440632 436.722656255879 L 285.4921871360275 429.65820313600125 L 287.33593702403596 430.5781247999985 L 290.51562496001134 431.6035153918783 L 292.46093721606303 429.75976550381165 L 293.1718748160638 424.1289062399883 L 295.01562470401404 421.363280895981 L 301.26562508801 421.5683594238362 L 303.2109373440617 421.363280895981 L 305.15624960011337 419.51953100791434 L 307.3046876160661 417.7792972798925 L 310.9921873920248 416.44726579193957 L 314.37500006408663 415.52734412794234 L 318.7734374400461 418.70117171196034 L 315.2968744960381 423.92382771190023 L 322.15625011216616 423.20703078381484 L 322.46093721612124 419.3164062718861 L 323.78906214411836 416.65234329592204 L 328.60156211204594 416.03906252782326 L 328.60156211204594 410.0996095999726 L 325.1250001920853 405.2871096318704 L 324.7109376001754 402.8300779518322 L 323.2812503040186 400.47460966394283 L 319.69531289610313 399.24414054397494 L 318.0546877440647 397.5039057919057 L 320.4140625920845 395.76367206388386 L 322.0546877440647 392.79492198396474 L 325.6328120320686 389.1074222079478 L 322.66406297608046 382.4511723519536 L 323.6874997760169 379.27734374383 L 324.20312473608647 376.4101560320123 L 326.7656253441237 372.8261713918764 L 325.32812492805533 367.1933593599242 L 329.6328120320686 363.9160156158614 L 332.0859371520346 361.4589839358232 L 334.23437516816193 357.8750003199675 L 337.61718784004916 354.80468787188875 L 337.4140620800317 351.01367193600163 L 339.7656248320709 348.0449218559079 L 343.3515622401028 346.3046871039551 L 347.64843724801904 346.3046871039551 L 349.906249728112 343.9492188158911 L 352.2578124800348 339.2382812158321 L 354.10156236815965 337.4980464639375 L 356.8671877120505 338.0097658878658 L 360.9609379841131 339.3417973758769 L 362.0859371520346 336.6796871679835 L 364.14062489615753 334.3222661119653 L 369.7734379520989 334.83593727991683 L 371.7187502080924 333.2988282878068 L 373.96874956815736 331.0468751360313 L 378.1640622080304 328.7929692159523 L 381.1328122881241 323.1621089280234 L 381.74999961606227 320.39648460788885 L 383.79687526408816 317.5312496639672 L 386.3593748480198 314.66210918384604 L 387.898437632015 311.38671923195943 L 385.23437465605093 309.2363284478197 L 384.8203120640828 306.2656245759572 L 388.0000000000582 303.0917969919392 L 389.02343782404205 300.53125017596176 L 390.14843699202174 297.1523440639139 L 392.3984373760177 294.38867148780264 L 392.914062336029 292.1347655679565 L 392.3984373760177 288.449218559952 L 394.5468753920286 287.3222656000289 L 396.1874995200196 289.6777338879183 L 399.8750003200839 288.0390625279397 L 397.0078126080334 284.558594047965 L 399.97656268801074 282.5097656319267 L 397.82812467205804 278.51562495995313 L 399.7734379520407 275.85351577593246 L 397.82812467205804 271.65429657592904 L 395.88281241606455 269.40234342380427 L 392.3984373760177 268.17382809583796 L 390.14843699202174 265.3066403839621 L 391.37499955209205 262.9511720958981 L 394.65624985611066 261.7207029759302 L 399.3671874560532 260.9023436799762 L 400.8984371200786 259.0605465598637 L 400.078125056054 256.9101557758986 L 398.9531248640269 255.27148441591999 L 397.0078126080334 252.0957030399004 L 394.65624985611066 249.94531225581886 L 394.7578122240375 246.8749998078565 L 396.1874995200196 245.13281228789128 L 397.92968704010127 246.3613276158576 L 399.25781299202936 248.30664089584025 L 402.742188032018 246.9765488638077 L 402.9453127681045 243.90429695992498 L 403.6640624640859 241.44726527988678 L 405.3046876161243 245.13281228789128 L 408.2734376961016 244.3144529919373 L 411.64843724813545 242.98242150392616 L 414.6171873281128 242.67578163195867 L 417.898437632015 239.9101562879514 L 416.6718750720611 234.48242175998166 L 418.4062504960457 228.75000012788223 L 422.19531264004763 227.51953100791434 L 426.0859371520928 225.7792972798925 L 422.8124999681022 222.0917964799446 L 421.38281267212005 220.1464842238929 L 420.66406297602225 217.99804723192938 L 423.01562470407225 217.1777341439738 L 426.19531264004763 216.87109324790072 L 428.4453120001126 214.31054643192329 L 426.60156211210415 210.93164031987544 L 425.7812500480795 206.93749964790186 L 426.4999997440609 203.25195263989735 L 428.6484377600136 201.61328127991874 L 431.7187502080342 202.7382814719458 L 436.64062464010203 202.6367191039608 L 441.0390620161197 201.71484364796197 L 444.6250004481408 200.1796874239226 L 447.28906240011565 198.43749990389915 L 449.1328122880659 196.39062527980423 L 449.0312499200227 193.72851609584177 L 446.6718750720611 190.86132838396588 L 446.46875033609103 186.86718771181768 L 449.43750041606836 184.5117183998227 L 453.32812492811354 182.3613276159158 L 456.29687500809086 179.49414092797088 L 453.5312496640836 175.91015628783498 L 454.8671877120505 173.55664076801622 L 456.8124999681022 172.12304691196186 L 456.914062336029 168.94726553594228 L 454.7656253440655 166.1835939839366 L 451.5859374080319 163.31445350381546 L 445.85156300803646 161.6777338878601 L 442.2656245760154 159.11718707188265 L 444.5234370561084 157.47851571190404 L 447.0781245441176 156.35156275180634 L 452.921875456057 150.1054689278826 L 450.8671877120505 147.85351577587426 L 448.51562496001134 144.57617203186965 L 449.1328122880659 141.40234342392068 L 450.56249958410626 138.53515673597576 L 452.3046871040133 133.92773427197244 L 449.84374988800846 133.21093734388705 L 446.2656245760154 133.7226557439426 L 446.6718750720611 130.03515596786747 L 445.64843724807724 127.47656294389162 L 442.88281292805914 128.08984371181577 L 439.5078123520361 127.16796825587517 L 438.47656243201345 123.99414067197358 L 437.6640624640859 121.22851532802451 L 436.74218700802885 118.25976524793077 L 436.9453127681045 115.59765606396832 L 439.19531212811125 113.2421877758461 L 442.2656245760154 109.75976550392807 L 444.42187468806515 107.71289087983314 L 448.3125002240413 106.79101542389253 L 452.0000000001746 105.97070335986791 L 455.6796876800363 105.97070335986791 L 458.7578122240957 105.66406246396946 L 460.80468787206337 104.74218700797064 L 461.52343756816117 101.77343795180786 L 457.01562470407225 99.82812467182521 L 457.1171870721155 97.26757785590598 L 457.01562470407225 93.2734371839324 L 453.6328120320104 91.32812492788071 L 452.10156236804323 89.07617177587235 L 454.5546874880092 86.72070348780835 L 458.4453120000544 83.54492211196339 L 459.88281241612276 81.08789043192519 L 461.52343756816117 77.91406284790719 L 465.20312524802284 74.84179660782684 L 468.07031296007335 75.76367206400027 L 468.179687424039 78.22070271993289 L 468.28124979208224 81.39648409595247 L 472.1718753281166 79.85937510395888 L 476.26562662405195 77.9140659198165 L 479.7499996161205 77.50390579202212 L 481.79687526402995 74.12499967991607 L 485.07031244802056 71.46289049595362 L 483.74218752002344 67.87890585599234 L 484.8671877120505 61.837890559923835 L 482.3046871040133 59.78906214382732 L 480.2578124800348 56.71679692802718 L 478.8281251840526 52.21093785582343 L 479.0312499200227 49.24218777590431 L 480.15625011204975 45.86328166385647 L 479.0312499200227 43.30273484787904 L 475.4453125121072 43.199218687892426 L 473.2265625600703 43.87890585581772 L 471.75781273603207 44.3261716478155 L 468.78906265605474 44.3261716478155 L 464.39062528003706 41.97070335992612 L 463.5703121920815 38.90039091196377 L 462.4453120000544 35.31640627182787 L 459.9843747840496 33.3710940159508 L 455.78906214417657 32.5507809278206 L 452.4062504960457 30.605468671943527 L 449.0312499200227 29.580078079889063 L 446.05468774412293 30.707031039812136 L 442.78124953602673 31.730468864028808 L 440.73437491210643 31.013671935885213 L 438.2734376960434 29.683594239875674 L 436.02343731204746 27.226562559895683 L 438.1718753281748 25.279296511842404 L 440.73437491210643 24.05273395194672 L 442.37500006408663 22.208984063880052 L 443.5000002561137 19.85351577581605 L 444.42187468806515 16.472655871941242 L 445.1328122880659 13.402343423862476 L 445.546874880034 10.636719103902578 L 441.9609384961077 9.408199679979589 L 437.4531246080296 8.69140582397813 L 435.5078123520361 6.951172095956281 L 434.38281216000905 4.289062911935616 L 432.5449205670011 0.0" fill="none"/><path stroke="#000000" stroke-width="2" d="M 432.5449205670011 0.0 L 434.38281216000905 4.289062911935616 L 435.5078123520361 6.951172095956281 L 437.4531246080296 8.69140582397813 L 441.9609384961077 9.408199679979589 L 445.546874880034 10.636719103902578 L 445.1328122880659 13.402343423862476 L 444.42187468806515 16.472655871941242 L 443.5000002561137 19.85351577581605 L 442.37500006408663 22.208984063880052 L 440.73437491210643 24.05273395194672 L 438.1718753281748 25.279296511842404 L 436.02343731204746 27.226562559895683 L 438.2734376960434 29.683594239875674 L 440.73437491210643 31.013671935885213 L 442.78124953602673 31.730468864028808 L 446.05468774412293 30.707031039812136 L 449.0312499200227 29.580078079889063 L 452.4062504960457 30.605468671943527 L 455.78906214417657 32.5507809278206 L 459.9843747840496 33.3710940159508 L 462.4453120000544 35.31640627182787 L 463.5703121920815 38.90039091196377 L 464.39062528003706 41.97070335992612 L 468.78906265605474 44.3261716478155 L 471.75781273603207 44.3261716478155 L 473.2265625600703 43.87890585581772 L 475.4453125121072 43.199218687892426 L 479.0312499200227 43.30273484787904 L 480.15625011204975 45.86328166385647 L 479.0312499200227 49.24218777590431 L 478.8281251840526 52.21093785582343 L 480.2578124800348 56.71679692802718 L 482.3046871040133 59.78906214382732 L 484.8671877120505 61.837890559923835 L 483.74218752002344 67.87890585599234 L 485.07031244802056 71.46289049595362 L 481.79687526402995 74.12499967991607 L 479.7499996161205 77.50390579202212 L 476.26562662405195 77.9140659198165 L 472.1718753281166 79.85937510395888 L 468.28124979208224 81.39648409595247 L 468.179687424039 78.22070271993289 L 468.07031296007335 75.76367206400027 L 465.20312524802284 74.84179660782684 L 461.52343756816117 77.91406284790719 L 459.88281241612276 81.08789043192519 L 458.4453120000544 83.54492211196339 L 454.5546874880092 86.72070348780835 L 452.10156236804323 89.07617177587235 L 453.6328120320104 91.32812492788071 L 457.01562470407225 93.2734371839324 L 457.1171870721155 97.26757785590598 L 457.01562470407225 99.82812467182521 L 461.52343756816117 101.77343795180786 L 460.80468787206337 104.74218700797064 L 458.7578122240957 105.66406246396946 L 455.6796876800363 105.97070335986791 L 452.0000000001746 105.97070335986791 L 448.3125002240413 106.79101542389253 L 444.42187468806515 107.71289087983314 L 442.2656245760154 109.75976550392807 L 439.19531212811125 113.2421877758461 L 436.9453127681045 115.59765606396832 L 436.74218700802885 118.25976524793077 L 437.6640624640859 121.22851532802451 L 438.47656243201345 123.99414067197358 L 439.5078123520361 127.16796825587517 L 442.88281292805914 128.08984371181577 L 445.64843724807724 127.47656294389162 L 446.6718750720611 130.03515596786747 L 446.2656245760154 133.7226557439426 L 449.84374988800846 133.21093734388705 L 452.3046871040133 133.92773427197244 L 450.56249958410626 138.53515673597576 L 449.1328122880659 141.40234342392068 L 448.51562496001134 144.57617203186965 L 450.8671877120505 147.85351577587426 L 452.921875456057 150.1054689278826 L 447.0781245441176 156.35156275180634 L 444.5234370561084 157.47851571190404 L 442.2656245760154 159.11718707188265 L 445.85156300803646 161.6777338878601 L 451.5859374080319 163.31445350381546 L 454.7656253440655 166.1835939839366 L 456.914062336029 168.94726553594228 L 456.8124999681022 172.12304691196186 L 454.8671877120505 173.55664076801622 L 453.5312496640836 175.91015628783498 L 456.29687500809086 179.49414092797088 L 453.32812492811354 182.3613276159158 L 449.43750041606836 184.5117183998227 L 446.46875033609103 186.86718771181768 L 446.6718750720611 190.86132838396588 L 449.0312499200227 193.72851609584177 L 449.1328122880659 196.39062527980423 L 447.28906240011565 198.43749990389915 L 444.6250004481408 200.1796874239226 L 441.0390620161197 201.71484364796197 L 436.64062464010203 202.6367191039608 L 431.7187502080342 202.7382814719458 L 428.6484377600136 201.61328127991874 L 426.4999997440609 203.25195263989735 L 425.7812500480795 206.93749964790186 L 426.60156211210415 210.93164031987544 L 428.4453120001126 214.31054643192329 L 426.19531264004763 216.87109324790072 L 423.01562470407225 217.1777341439738 L 420.66406297602225 217.99804723192938 L 421.38281267212005 220.1464842238929 L 422.8124999681022 222.0917964799446 L 426.0859371520928 225.7792972798925 L 422.19531264004763 227.51953100791434 L 418.4062504960457 228.75000012788223 L 416.6718750720611 234.48242175998166 L 417.898437632015 239.9101562879514 L 414.6171873281128 242.67578163195867 L 411.64843724813545 242.98242150392616 L 408.2734376961016 244.3144529919373 L 405.3046876161243 245.13281228789128 L 403.6640624640859 241.44726527988678 L 402.9453127681045 243.90429695992498 L 402.742188032018 246.9765488638077 L 399.25781299202936 248.30664089584025 L 397.92968704010127 246.3613276158576 L 396.1874995200196 245.13281228789128 L 394.7578122240375 246.8749998078565 L 394.65624985611066 249.94531225581886 L 397.0078126080334 252.0957030399004 L 398.9531248640269 255.27148441591999 L 400.078125056054 256.9101557758986 L 400.8984371200786 259.0605465598637 L 399.3671874560532 260.9023436799762 L 394.65624985611066 261.7207029759302 L 391.37499955209205 262.9511720958981 L 390.14843699202174 265.3066403839621 L 392.3984373760177 268.17382809583796 L 395.88281241606455 269.40234342380427 L 397.82812467205804 271.65429657592904 L 399.7734379520407 275.85351577593246 L 397.82812467205804 278.51562495995313 L 399.97656268801074 282.5097656319267 L 397.0078126080334 284.558594047965 L 399.8750003200839 288.0390625279397 L 396.1874995200196 289.6777338879183 L 394.5468753920286 287.3222656000289 L 392.3984373760177 288.449218559952 L 392.914062336029 292.1347655679565 L 392.3984373760177 294.38867148780264 L 390.14843699202174 297.1523440639139 L 389.02343782404205 300.53125017596176 L 388.0000000000582 303.0917969919392 L 384.8203120640828 306.2656245759572 L 385.23437465605093 309.2363284478197 L 387.898437632015 311.38671923195943 L 386.3593748480198 314.66210918384604 L 383.79687526408816 317.5312496639672 L 381.74999961606227 320.39648460788885 L 381.1328122881241 323.1621089280234 L 378.1640622080304 328.7929692159523 L 373.96874956815736 331.0468751360313 L 371.7187502080924 333.2988282878068 L 369.7734379520989 334.83593727991683 L 364.14062489615753 334.3222661119653 L 362.0859371520346 336.6796871679835 L 360.9609379841131 339.3417973758769 L 356.8671877120505 338.0097658878658 L 354.10156236815965 337.4980464639375 L 352.2578124800348 339.2382812158321 L 349.906249728112 343.9492188158911 L 347.64843724801904 346.3046871039551 L 343.3515622401028 346.3046871039551 L 339.7656248320709 348.0449218559079 L 337.4140620800317 351.01367193600163 L 337.61718784004916 354.80468787188875 L 334.23437516816193 357.8750003199675 L 332.0859371520346 361.4589839358232 L 329.6328120320686 363.9160156158614 L 325.32812492805533 367.1933593599242 L 326.7656253441237 372.8261713918764 L 324.20312473608647 376.4101560320123 L 323.6874997760169 379.27734374383 L 322.66406297608046 382.4511723519536 L 325.6328120320686 389.1074222079478 L 322.0546877440647 392.79492198396474 L 320.4140625920845 395.76367206388386 L 318.0546877440647 397.5039057919057 L 319.69531289610313 399.24414054397494 L 323.2812503040186 400.47460966394283 L 324.7109376001754 402.8300779518322 L 325.1250001920853 405.2871096318704 L 328.60156211204594 410.0996095999726 L 328.60156211204594 416.03906252782326 L 323.78906214411836 416.65234329592204 L 322.46093721612124 419.3164062718861 L 322.15625011216616 423.20703078381484 L 315.2968744960381 423.92382771190023 L 318.7734374400461 418.70117171196034 L 314.37500006408663 415.52734412794234 L 310.9921873920248 416.44726579193957 L 307.3046876160661 417.7792972798925 L 305.15624960011337 419.51953100791434 L 303.2109373440617 421.363280895981 L 301.26562508801 421.5683594238362 L 295.01562470401404 421.363280895981 L 293.1718748160638 424.1289062399883 L 292.46093721606303 429.75976550381165 L 290.51562496001134 431.6035153918783 L 287.33593702403596 430.5781247999985 L 285.4921871360275 429.65820313600125 L 278.6328125440632 436.722656255879 L 280.1718753281166 441.12695295986487 L 278.9374996480183 443.89062451187056 L 282.01562521600863 447.98828134383075 L 282.42187468806515 451.26367231982294 L 280.6796871680999 453.61914060788695 L 278.02343731204746 455.35937535983976 L 275.4609377281158 457.61328127986053 L 275.25781299202936 460.3789066238678 L 277.5078123520361 464.8828129278263 L 274.02343731204746 467.9550781439757 L 271.3671874561114 469.2871096318122 L 266.7578122241539 471.53906278393697 L 273.61718784010736 474.81640652782517 L 272.8984371200204 480.2441410559695 L 275.4609377281158 482.80273407994537 L 277.3046876160661 484.64648396801203 L 279.3515622400446 485.8750003198511 L 282.6250004480826 486.5937500158325 L 286.10937548807124 487.20703078393126 L 287.82812467211625 490.0078120959224 L 288.05468774412293 490.3808593918802 L 290.3046871040133 492.3261716479319 L 292.96875008009374 492.9414062080323 L 295.5311800321797 491.60941055993317 L 298.4999997440609 490.3808593918802 L 296.55468339211075 493.86132479988737 L 296.8593745920225 498.16406220791396 L 295.6328120321268 500.21289062383585 L 299.52343756810296 501.43945318390615 L 299.82812467211625 504.8203120639082 L 297.1718748160638 505.43359385587974 L 295.32812492811354 507.78906214394374 L 293.1718748160638 509.017578495841 L 292.3515627520392 510.6562498558196 L 294.4062504960457 511.2714844158618 L 297.5781253121095 511.47656294394983 L 297.0625024000183 514.1386618879042 L 294.60937523201574 514.6503905279678 L 292.46093721606303 514.546875391854 L 290.3046871040133 518.1308590078843 L 292.0468746240367 520.5898434558185 L 293.4843750401051 523.1484375038999 L 296.65624985605245 526.6308597759926 L 296.4531251200824 529.5996098558535 L 291.5390627841116 527.6542965758708 L 290.0000000001164 530.2148433918483 L 293.68749977607513 534.1054689278826 L 296.4531251200824 537.7929687039577 L 295.1171870720573 543.0156247038976 L 299.82812467211625 545.9843747839332 L 302.7968747520936 548.6464839679538 L 304.33593753608875 550.9003909119056 L 307.60937472002115 554.2792970239534 L 303.0078126080916 555.0976563199074 L 300.5468753920868 556.5312501759618 L 301.7734379520989 559.8085939199664 L 304.1328128001187 563.289062399941 L 301.26562508801 565.9531253759051 L 300.0390625281143 568.3066408958985 L 302.9062502400484 569.7402347518946 L 305.66406246402767 568.4101560318377 L 307.60937472002115 567.8984376319568 L 309.3515622401028 569.2285153279663 L 309.4531246080296 572.8144527359982 L 308.5312501760782 575.0664058879483 L 303.0078126080916 579.2636723198812 L 303.61718784010736 581.208984575991 L 304.8515624961001 582.9511720959563 L 302.18749952013604 583.667969023867 L 298.60156211204594 583.2578129918547 L 294.50780364801176 581.7226629118086 L 290.7187496960978 584.7929692158941 L 290.0000000001164 589.5039057919057 L 287.9531253760797 590.9374996479019 L 286.92968755209586 587.2519526398974 L 284.57031270401785 584.2812497919658 L 282.52343705605017 581.9257815039018 L 279.4531246080296 584.7929692158941 L 279.3515622400446 589.19726591988 L 280.9921873920248 590.7324221439776 L 283.546874880034 593.087890431867 L 279.4531246080296 595.443359743862 L 277.101562880096 600.3593748478452 L 273.8203125760774 599.2324218879221 L 271.46874982403824 601.8945310719428 L 271.46874982403824 605.7851566079771 L 269.2109373440617 608.6542970878654 L 266.5468753920868 610.189453311963 L 264.3984373760177 612.6464839678956 L 262.96875008003553 614.7968747518025 L 260.60937523201574 616.845703167899 L 257.84374988800846 617.664062463853 L 254.57031270401785 618.4843745278777 L 253.24218777602073 621.7597655038699 L 250.8828139520483 623.0917980159284 L 248.42968780809315 624.0136714238906 L 247.60937472007936 627.6992184318951 L 250.67968716815813 629.4414059518604 L 247.09374976006802 630.6679685119307 L 250.06249984004535 634.0488284158055 L 250.67968716815813 635.9941406719154 L 250.67968716815813 639.7832028159755 L 250.88281292805914 642.7519528958946 L 250.47656243201345 645.5175782399019 L 250.57812480005668 648.8964843519498 L 247.7109370881808 646.8476559359115 L 247.60937472007936 649.8183598079486 L 250.67968716815813 651.5585935359704 L 254.2656245760154 654.835937279975 L 250.67968716815813 656.0644536318723 L 249.45312460808782 658.9316403198172 L 246.9921873920248 660.1601566718891 L 244.02343731204746 662.7207034878084 L 247.60937472007936 665.5878901759279 L 245.24999987211777 667.3281249278807 L 242.69531238410855 669.4785157120205 L 244.84375040006125 671.0156247039558 L 245.56250009604264 673.6777338879183 L 243.30468761606608 672.6523432958638 L 240.64062464010203 671.6289064959274 L 240.42968780809315 672.8535152638215 L 240.33593753614696 673.3691402239492 L 242.5859379201429 676.3398440958117 L 246.07031296013156 677.0566410238971 L 244.53125017601997 679.2070307839313 L 240.43749990401557 682.6875002879533 L 241.87500032008393 685.8632816639729 L 246.07031296013156 685.8632816639729 L 247.9140628480818 684.0195307518588 L 250.2656245760154 685.1464847358875 L 252.3203123200219 687.7050777598633 L 249.75781273603207 689.8554685439449 L 251.70312499208376 691.9042969598668 L 253.1328122880659 693.4394531839062 L 255.0781245441176 695.3867192319594 L 258.05468774412293 697.7421875198488 L 256.21093785605626 699.7890621439437 L 258.97656217607437 701.3261721598101 L 257.6406251520384 704.4999997438281 L 260.60937523201574 705.2167966719717 L 263.1718748160638 707.7773434878909 L 264.914062336029 709.720702975872 L 261.9453122560517 711.8730465279077 L 262.7656253440655 713.8183598078904 L 264.29687500809086 715.3535160319298 L 267.16406272002496 712.9980467199348 L 269.10937497601844 714.5351567359758 L 270.5468753920868 715.5585935359122 L 268.39062528003706 716.9921873919084 L 270.6484377600136 717.4023434239207 L 273.3124997120467 718.1191403518314 L 277.3046876160661 719.4492190719466 L 281.093749760068 718.9374996479601 L 282.6250004480826 721.7031249919673 L 285.804687360127 721.1914065919118 L 288.15625011204975 721.1914065919118 L 290.0000000001164 723.6484372478444 L 291.6406251520384 722.4199219198781 L 294.19531264004763 725.4921871359111 L 295.01562470401404 728.6660157440347 L 298.29687500809086 724.5703127038432 L 300.9609379840549 725.183593471942 L 302.28906291216845 727.9492188158911 L 301.06250035209814 731.839843327878 L 298.3984373760177 733.0683596799499 L 298.29687500809086 735.6289064958692 L 302.39062528003706 737.0625003518653 L 301.16406272002496 741.1582033918821 L 299.0078126080916 745.2539064318989 L 298.8046878721798 749.8632816639147 L 299.52343756810296 752.115234815923 L 299.42187520005973 755.0859376638546 L 303.4140620800317 757.3378908158047 L 301.7734379520989 760.7167969279108 L 301.06250035209814 763.9941406719736 L 298.4999997440609 766.656249855936 L 298.9062502400484 769.4218751999433 L 299.52343756810296 772.4941404159181 L 302.7968747520936 776.5898434559349 L 303.61718784010736 779.7636720638839 L 298.4999997440609 779.6601559038972 L 299.82812467211625 782.2207027198165 L 302.28906291216845 784.4746096639428 L 299.42187520005973 784.7812495359685 L 296.8593745920225 783.7578127358574 L 295.83593779202783 786.2148433919647 L 294.0937502721208 789.0820311038406 L 296.5546874880092 790.925780991849 L 293.68749977607513 793.2792965118424 L 295.2187504640897 796.1484369919635 L 293.5859374080319 799.833983999968 L 290.61718732805457 798.0937502719462 L 288.3593748481362 799.0156247038394 L 287.5390627841116 801.0625003518071 L 289.38281267206185 802.2910156800062 L 287.33593702403596 804.1347655678401 L 289.38281267206185 806.7968747518025 L 286.3125002240413 809.0507816959289 L 289.4843750401051 812.3281254398171 L 292.14843699213816 810.482421759807 L 291.74218752002344 816.2187499519205 L 289.8984376320732 819.0839838720276 L 291.9453122560517 821.7480468479916 L 290.3046871040133 823.5917967358255 L 290.20312473608647 826.0488284158637 L 294.19531264004763 826.1503907838487 L 294.19531264004763 829.3242183679249 L 294.71093760005897 832.6015621119295 L 297.37499955203384 833.9335935999407 L 296.9609379840549 837.6191406079452 L 295.2265625600121 839.5664066559984 L 297.37499955203384 840.3847659519524 L 300.4453120000544 840.3847659519524 L 300.6484377600136 843.3535160318133 L 302.4921876480803 845.5039057918475 L 306.0781250561122 845.1972659198218 L 304.33593753608875 848.4726558719412 L 304.33593753608875 850.9316403198172 L 305.7734379521571 853.3886719998554 L 304.6406246400438 857.0761717759306 L 301.7734379520989 860.8652339198161 L 300.1406248960411 864.4472657918814 L 300.6484377600136 868.441406463855 L 298.60156211204594 873.1523440639139 L 301.26562508801 872.5390622719424 L 304.5390622720588 869.8750003198511 L 308.2265620481339 867.4179686398711 L 310.890625024098 868.6464839678374 L 311.39843788801227 871.001953280007 L 312.6328125441796 874.1757808638504 L 314.06249984004535 878.169921535824 L 317.9531253760215 879.9101562878932 L 316.52343705605017 883.2910151678952 L 313.0390620160615 885.1328122878331 L 309.96874956804095 882.8808591358829 L 308.02343731204746 881.9589847038151 L 306.179687424039 882.8808591358829 L 305.56250009610085 886.361327615974 L 305.15624960011337 890.3554682879476 L 305.7734379521571 893.3261721598101 L 306.4843745280523 895.8847651839606 L 305.8750003200257 898.5488281599246 L 303.92968704004306 899.2636723199976 L 300.1406248960411 900.0839843840222 L 301.57031219202327 902.6425784318708 L 304.1328128001187 904.7949219839065 L 304.74218700814527 907.9687495679245 L 302.5937500161235 910.7324221438612 L 299.726562304073 911.2460933119874 L 296.9609379840549 911.4492190719466 L 294.60937523201574 912.3710935038398 L 293.68749977607513 914.6230466559646 L 292.8671877120505 917.7988280318095 L 291.43750041606836 920.7695308799739 L 288.97656217601616 923.2265625599539 L 283.7499996161205 927.1171870719409 L 282.83593728003325 930.3945308159455 L 283.2421877760207 932.4414064639714 L 283.64843724807724 935.0019532799488 L 282.9374996480183 938.6894530559657 L 279.65625036810525 939.4042972158641 L 278.01562521612504 936.6406246399274 L 275.4609377281158 933.4667970558512 L 273.9843747841078 934.349608959863 L 272.39062528009526 935.3105469439179 L 273.20312524802284 938.4843745279359 L 275.7656248321291 941.2480471038725 L 278.53125017601997 942.8867184638511 L 281.39843788801227 944.9355468799477 L 283.34375014406396 946.5722654718556 L 286.10937548807124 949.2363284478197 L 290.0000000001164 952.82031206385 L 293.38281267206185 954.4589844479342 L 296.65624985605245 955.2773437438882 L 299.3203128320165 955.482422271918 L 302.28906291216845 955.8925783039303 L 305.3593753600144 957.3242183678085 L 306.8984371200204 959.47460915189 L 307.8203125760774 962.7519528959529 L 306.4843745280523 966.029296639841 L 303.8203125760192 968.0761722878087 L 301.57031219202327 969.4082027518889 L 298.0937502721208 969.3066403838457 L 295.2265625600121 966.3359375359141 L 294.71093760005897 962.5468753919704 L 293.68749977607513 959.7832028158591 L 290.921875456057 956.9140623359708 L 288.05468774412293 957.7343754238682 L 287.0312499200227 960.8066406399012 L 287.0312499200227 966.2343751678709 L 286.51562496001134 968.3847659520106 L 285.70312499202555 970.3300782078877 L 284.06249984004535 971.9687495678663 L 282.2187499520369 973.7089843199356 L 279.96874956804095 975.7578127358574 L 276.9921873920248 978.2148433919647 L 273.8203125760774 980.5703127039596 L 271.3671874561114 982.8222658559098 L 268.60156211210415 986.5097656318103 L 267.3671874561114 989.5820308480179 L 266.9609379840549 992.652343295922 L 265.7343754240428 1000.6406246398692 L 261.5312496640836 1004.3281254398171 L 258.257812480093 1005.6582031358266 L 254.2656245760154 1007.0917969918228 L 251.39843788807048 1008.1152348158648 L 249.65625036804704 1009.2421877759625 L 247.29687449603807 1011.1875000318396 L 242.79687475203536 1015.6933591038687 L 240.43749990401557 1018.0488284158637 L 238.9062502401066 1019.8906245118706 L 236.96093798411312 1023.0664058878901 L 236.87514606211334 1024.0" fill="none"/><path stroke="#000000" stroke-width="2" d="M 214.70940402973793 1024.0 L 214.83593728003325 1023.7656248318381 L 214.44010400681873 1024.0" fill="none"/><path stroke="#408040" stroke-width="3" d="M 0.0 885.7368790267647 L 5.181440000000293 886.650880000001 L 35.072000000000116 891.6172799999986 L 56.238079999995534 891.00288 L 91.6582400000043 890.0915200000018 L 114.84159999999974 891.0335999999988 L 126.45376000000397 890.3168000000005 L 142.1516799999954 889.7843199999988 L 155.2896000000037 896.0614400000013 L 167.18847999999707 899.5532800000001 L 178.94400000000314 904.3558400000002 L 193.0854399999953 908.01152 L 198.41023999999743 908.2060799999999 L 218.24512000000686 901.7036799999987 L 225.46431999999913 899.9116800000011 L 240.91647999999986 899.624960000001 L 256.32768000000215 899.8809599999986 L 278.30272000000696 902.6764799999983 L 289.04447999999684 900.638719999999 L 297.36960000000545 897.1571199999998 L 318.7814400000061 888.0332799999996 L 368.4863999999943 866.6009599999998 L 406.3231999999989 850.5753599999989 L 428.42111999999906 840.9702399999987 L 451.93215999999666 832.6348800000014 L 468.5107200000057 829.4399999999987 L 509.276159999994 821.6371199999994 L 589.7830399999948 806.1337600000006 L 610.01728 803.4918399999988 L 628.3673600000038 803.3177600000017 L 665.0368000000017 802.9900799999996 L 685.7625600000028 802.8364800000018 L 694.261759999994 801.9660799999983 L 703.3651200000022 795.7401600000012 L 725.2070399999939 786.1862399999991 L 734.453760000004 782.2848000000013 L 742.1952000000019 780.902399999999 L 767.744000000006 781.3017599999985 L 797.4604799999943 781.8342400000001 L 825.651199999993 782.1414399999994 L 830.4128000000055 780.0012800000004 L 836.5568000000058 773.8777599999994 L 840.1919999999955 771.3075199999985 L 844.6873599999963 771.3996799999986 L 853.5756799999945 772.0550399999993 L 861.7164800000028 772.6489599999986 L 886.8352000000014 774.3590399999994 L 907.6838399999979 770.8774400000002 L 973.639679999993 770.5804800000005 L 1003.6531200000027 769.1980799999983 L 1024.0 767.8218190170337" fill="none"/></svg>