<svg xmlns="http://www.w3.org/2000/svg" width="1024" height="1024"><rect stroke="none" x="0" y="0" width="1024" height="1024" fill="white"/><path stroke="#000000" stroke-width="2" d="M 931.6089456228801 0.0 L 927.6484372480772 3.3671874558203854 L 924.5703127040761 5.925781503901817 L 921.9140628480236 7.667969023867045 L 919.2499998720596 8.998046719876584 L 916.0703129600734 10.33007820788771 L 912.5937500161817 11.35351603187155 L 909.4140620800317 11.968749567866325 L 905.9375001600711 12.890625023806933 L 903.1718748160638 13.298828287923243 L 900.5078128640889 13.503905791905709 L 897.9453122560517 13.914062848023605 L 895.5937495041289 14.119140351947863 L 892.3203123200219 14.529296383960173 L 889.6562503681635 14.732422143977601 L 887.1953121281113 14.835937279858626 L 884.640624640102 14.93749964790186 L 882.281249792024 15.041015807946678 L 878.7968747520354 15.55273420800222 L 875.5234375680448 15.859375103900675 L 871.2187504640315 16.371093503956217 L 867.3281249281135 16.781249535968527 L 862.6171873280546 17.08789043186698 L 857.9140628480818 17.49804646387929 L 854.4296878080931 18.52148428786313 L 851.4609377281158 20.365234175871592 L 848.8984371200786 22.105468927824404 L 844.9062502401066 25.177734143973794 L 840.7109376001172 29.171874815947376 L 837.5312496640836 32.654297087865416 L 835.2812503040768 34.80273407982895 L 832.9218754561152 37.56835942383623 L 830.9765621760744 40.845703167899046 L 830.4687503360328 45.75976550386986 L 830.5703127040179 49.85742233583005 L 830.2656245760736 53.2363284479361 L 829.445312512049 56.4101560319541 L 827.9062497280538 60.60742143995594 L 826.7812495360849 63.271484415919986 L 826.3750000640284 65.52343756792834 L 829.445312512049 67.3671874559368 L 833.2343746560509 66.85546905588126 L 835.7890621440602 68.69726515194634 L 835.4843750400469 72.17968742386438 L 834.9765621760744 76.3789066238678 L 836.3046871040715 79.9609374718857 L 838.8671877121087 82.93164031981723 L 836.6093752320157 85.69726566382451 L 833.5390627840534 86.61718732782174 L 830.9765621760744 87.53906278393697 L 828.6250004480244 89.2812503039604 L 825.9609374720603 92.25000038382132 L 821.6640624641441 93.47851571202045 L 818.8984371200786 93.06835968000814 L 816.2343751681037 94.60546867194353 L 814.5937500160653 97.3710940159508 L 811.5234375680448 100.5449215999688 L 808.3515627521556 103.41210931201931 L 806.4062504961039 104.84570316784084 L 791.554688000062 117.6445317119942 L 783.7734379520989 125.83789055986563 L 779.6796876800945 127.88476518396055 L 769.2343746561091 133.41406207997352 L 755.2031252480228 137.4082027519471 L 753.2578129920876 137.9199221759336 L 750.9062502400484 139.457031167869 L 749.164062720025 142.83593727991683 L 748.6484377600136 146.52148428792134 L 749.164062720025 149.38867199997185 L 750.2890629121102 151.53906278387876 L 751.7187502080342 153.17773414385738 L 754.2812497920822 155.42968729586573 L 756.3281254401081 157.2734371838742 L 758.7890626560547 159.93554636789486 L 760.8359372800915 161.6777338878601 L 764.0078120960388 164.03125043195905 L 766.9765621760162 166.59179724793648 L 772.9218754561734 172.12304691202007 L 772.0000000001164 174.7851560958079 L 771.5859374080319 178.26562457589898 L 771.0781245440594 181.3378908158047 L 768.7187496960396 184.4101560318377 L 767.0781245440594 187.37890611187322 L 764.1093754880712 190.34960895986296 L 760.8359372800915 192.80664063990116 L 756.8437504001777 194.85546905593947 L 752.7421870081453 195.46874982386362 L 749.26562508801 195.46874982386362 L 745.3749995520338 194.75195289595285 L 741.3828126720618 193.3183590399567 L 737.8984376320732 191.7832028158591 L 734.0078120960388 188.50585907202912 L 731.546874880034 184.4101560318377 L 729.6015626240405 180.4160153598641 L 728.4765624320135 177.9589847039315 L 727.7578127360321 175.60351539193653 L 727.2499998720596 172.8378910718602 L 726.9374996480183 170.380859391822 L 726.9374996480183 167.51367167994613 L 727.1484375040163 163.21289113583043 L 727.7578127360321 158.70703103992855 L 726.8359372801497 153.99609343981137 L 725.7109370881226 150.92578099190723 L 724.382812160009 147.6484372478444 L 722.4374999040156 143.5527342078858 L 718.6484377600136 144.16601599985734 L 715.3671874561114 145.29296895995503 L 711.3749995520338 146.4199219198781 L 707.8984376321314 147.2382812158321 L 704.2109378560563 147.5449221119634 L 700.5234370561084 147.75195340788923 L 695.3984378880705 147.9550781439757 L 689.8750003200839 148.46679654397303 L 685.8750003200839 149.38867199997185 L 682.9062502401066 150.1054689278826 L 679.5312496640836 151.33398425584892 L 677.171874816122 152.5644533758168 L 674.6171873281128 154.9199216638808 L 672.3593748480198 157.47851571196225 L 670.4140625920263 160.65234329580562 L 669.3906247680425 163.72460953588597 L 668.3671879680478 167.20703078387305 L 667.5468748800922 171.0976563199074 L 666.2187499520951 175.09179699188098 L 665.0937497600098 178.26562457589898 L 663.7578127360903 181.74804684781702 L 662.9374996480765 184.82031206385 L 661.8125004800386 189.2226559999399 L 660.6875002880697 192.80664063990116 L 659.460937728174 196.39062527986243 L 658.0234373121057 199.8730465278495 L 656.5937500160653 203.45703116781078 L 655.4687498240964 207.24609331187094 L 654.4453120001126 211.34179737581871 L 653.9296870401013 214.20898406393826 L 653.5234375680448 217.177734144032 L 652.1874995200196 220.55664025590522 L 651.5781253120513 224.03906252782326 L 649.9375001600129 245.03124991984805 L 652.4999997441191 245.84960921580205 L 655.5703121920233 246.97656217595795 L 658.7423559680465 247.48829593590926 L 662.4296878080931 247.79492147191195 L 666.7265628160676 247.59179673582548 L 670.9296875520376 247.07812454394298 L 675.9453122560517 246.3613276158576 L 679.7343754240428 245.74804684799165 L 682.7031255040201 245.2363284479361 L 686.6953123841085 244.92773478396703 L 690.078125056054 244.21093785582343 L 693.554688000062 243.08593766397098 L 697.343750144064 241.95898470387328 L 700.007812096097 241.34375014400575 L 702.9765621760744 240.73046835197601 L 705.9531253760797 240.3203123199637 L 709.2265625600703 239.9101562879514 L 714.1406248960411 239.09179699182278 L 718.7500001280569 237.4531246079714 L 722.2343751680455 236.12109414389124 L 725.8125004800386 234.79101542395074 L 730.3203123201383 233.45898393599782 L 733.9062497280538 233.25390643184073 L 738.1015623680432 233.25585919991136 L 743.015624704014 234.07421849586535 L 747.0078126080916 234.79101542395074 L 750.2890629121102 235.9179683838738 L 752.9531248640269 237.24804710381432 L 755.5078123520361 239.29687449580524 L 757.8671872001141 243.39257855986943 L 757.6640624640277 247.07812454394298 L 756.1249996800325 249.12695295986487 L 754.6953123840503 250.8671877119923 L 752.2343751680455 253.632812031894 L 749.3671874561114 255.98828134388896 L 747.0078126080916 257.52343756792834 L 745.3749995520338 258.85546905588126 L 743.4296872960404 259.8789058558177 L 740.7656253441237 261.0058598398464 L 738.1015623680432 261.31249971181387 L 734.9296875520959 261.0058598398464 L 732.6718750720611 260.80078131199116 L 729.5000002561137 260.4941404158599 L 726.6328125440632 260.69726515194634 L 723.6640624640277 260.9023436800344 L 721.101562880096 260.69726515194634 L 718.7500001280569 260.08398438384756 L 716.9062502400484 259.4687498238054 L 714.9609379840549 258.85546905588126 L 712.2968750080909 257.93359359994065 L 708.921875456057 257.21679667185526 L 705.335937024036 257.11328153591603 L 701.343750144064 256.70507827197434 L 698.8828129280591 256.80664063984295 L 696.0156252160086 255.98828134388896 L 673.0781245441176 255.98828134388896 L 663.5546880001202 256.0898437119322 L 659.8671872000559 256.7031255039037 L 655.6718745600665 257.21679667185526 L 652.0859371520346 257.4218751998851 L 649.9375001600129 257.93359359994065 L 646.6562498561107 259.16210892790696 L 642.3593748480198 263.8730465279659 L 640.5156249600695 266.2265620479593 L 634.9843752960442 272.371093503898 L 633.656250368047 274.5214842878049 L 632.3203123200219 276.4667965438566 L 630.789062656113 278.92578099196544 L 628.7421870080871 281.9960934399278 L 623.0078126080334 288.75585945585044 L 619.5234375680448 292.85156249586726 L 617.1718748160638 296.2304686079733 L 616.2500003841124 300.6347653119592 L 615.2187504640315 305.34375014394755 L 614.4062504961039 309.9511715839617 L 614.1953126401058 314.15039078402333 L 614.3046871040715 317.93945292790886 L 614.4062504961039 321.0117191678146 L 614.7109376001172 324.0839843840222 L 614.9140623360872 327.66796902392525 L 615.1171870720573 330.84179660800146 L 615.5312496640254 334.63085977581795 L 615.8359377920278 337.1914065919118 L 616.0390625280561 340.1601566718309 L 616.3515627520392 344.0507811839343 L 616.6562498560525 347.94335948786465 L 617.0625003520399 351.11718707194086 L 617.5781253120513 355.3164062719443 L 617.9843747841078 359.30859417584725 L 618.6015621120459 362.89257779187756 L 618.6015621120459 366.7851560958079 L 617.8828124160646 370.57226547185564 L 616.8593745920807 374.4648437759606 L 616.4531251200242 377.1269529599231 L 616.3515627520392 379.5839846399613 L 616.0390625280561 382.75976601580624 L 612.6640629760223 388.80078131187474 L 609.6953128961031 389.61914060782874 L 607.3359370240942 390.84765593596967 L 605.2890624000574 391.8730465278495 L 603.343750144064 393.20312524796464 L 600.0703129600151 394.84179660794325 L 596.992187392083 396.2753904639394 L 593.7187502081506 397.4023434238625 L 588.1874995200778 398.0156252158922 L 583.3749995520338 397.81250047980575 L 580.5078128640307 397.29882828792324 L 577.1328122880659 396.58203135983786 L 574.3671879680478 395.8652344319271 L 571.7031249920256 395.1484375038417 L 568.3203123200801 394.02343731198926 L 564.5312501760782 392.89648435183335 L 561.4609377280576 392.2812497919658 L 557.8750003200257 391.15624959993875 L 553.1718748160638 389.9257815039018 L 549.5859374080319 388.80078131187474 L 547.0234378241003 387.8789058558759 L 544.5703127040179 386.6503905279096 L 539.0390620161197 383.88476518390235 L 536.7812495360267 382.65624985593604 L 534.0156252160086 380.8124999679276 L 531.6640624640277 378.97070284798974 L 529.4140620800317 376.82031206385 L 527.9765626880107 375.1816407038714 L 526.2343751680455 373.2363284478197 L 524.3906252800953 370.8808591358247 L 522.2421872641426 367.5019530238933 L 519.7890621440602 364.634765311901 L 517.6328120320104 363.5078123519197 L 515.1796879360336 363.0976563199074 L 511.79687526402995 364.53125017596176 L 508.62500044802437 366.58007859182544 L 504.53125017601997 369.5488276478136 L 501.6640624640859 371.90429695980856 L 499.4062499840511 374.0546877439483 L 496.8515624960419 377.4335938558215 L 495.2109373441199 380.8124999679276 L 494.39062528009526 385.011719167931 L 493.6718745601829 389.61914060782874 L 493.9843747840496 392.7929692159523 L 494.9062502401066 396.99218739185017 L 496.8515624960419 399.8593751039007 L 498.6875002880115 402.52148428786313 L 501.24999987211777 404.67187507182825 L 503.5078123520361 406.925780991849 L 505.65625036804704 410.0996095999726 L 509.1328122880659 413.9902341119596 L 512.4140625920263 415.93750015995465 L 516.0000000000582 418.39453081588726 L 518.6562498560525 419.92968703998486 L 522.1406248960411 421.5683594238362 L 525.9296870400431 423.30859417596366 L 530.1249996800907 424.2304686078569 L 533.101562880096 424.43554713588674 L 536.1718753281748 424.3339847678435 L 540.6718750720611 424.2304686078569 L 543.5390627841116 423.92382771195844 L 545.79687526403 423.92382771195844 L 548.7656253441819 423.5136716799461 L 551.9375001600711 423.0019532798906 L 556.6484377600136 421.97851545584854 L 560.9531248640269 420.5449215998524 L 564.1250805761083 419.4179430400254 L 566.5859379200847 418.49609420786146 L 569.2421877760207 417.4726563838776 L 571.5000002560555 416.75585945590865 L 574.3671879680478 415.7324216319248 L 578.1562501121662 414.4003901439719 L 581.023437824042 413.58007807994727 L 583.8906245120452 413.0683596798917 L 588.390625280037 412.66015641595004 L 591.1562496000552 412.5566402559052 L 594.4374999040738 412.9667973118485 L 597.6093747200212 413.47851571190404 L 601.6015626240987 414.70703103987034 L 607.0312499201391 417.6777338878019 L 610.1015623681596 420.3398440958699 L 610.1015623681596 424.53906227182597 L 609.79687526403 426.99609395186417 L 609.5937495040707 429.1464847359457 L 608.9765621760162 432.8320317439502 L 608.0546877440647 437.03124991984805 L 606.6250004480244 440.4101560319541 L 604.8828129281173 442.66210918390425 L 602.6250004480244 445.12109363183845 L 600.8828129281173 446.75781222392106 L 598.3281254401081 448.80664063984295 L 594.7421870080871 451.16210892790696 L 592.9999994880636 452.1855467518908 L 590.8515624960419 453.61914060794516 L 587.8828124160646 455.76953139185207 L 585.8359377920278 457.2031252479064 L 583.8906245120452 458.7402342398418 L 581.8437498880667 460.2753904638812 L 579.6874997760751 462.01562521600863 L 577.7421875200234 463.44921907183016 L 575.3906247681007 464.98632806394016 L 571.906249728112 467.1367188479053 L 568.7343749120482 468.7753902078839 L 565.6640624640277 470.3105464319233 L 562.4843745280523 471.5390627839952 L 559.2109373440617 472.3593748480198 L 557.3671874561114 472.8710932478425 L 553.273437184107 474.20117196795763 L 550.0937502721208 475.3281249278807 L 546.5156249600113 476.4550778878038 L 543.8515630080365 477.3769533438026 L 541.7031249920838 477.9902341119014 L 538.5234370560502 479.21875046391506 L 535.8593751040753 480.1406248958083 L 532.7890647040331 480.85741567990044 L 530.640624640102 480.1406248958083 L 527.7734379520407 478.4003901439137 L 524.7031255040201 477.2734371839324 L 521.835937792086 476.9667973119649 L 517.8437498881249 477.5820308479597 L 512.921875456057 478.4003901439137 L 509.74999961606227 477.9902341119014 L 506.47656243201345 478.093750271888 L 501.6640624640859 478.50195353582967 L 496.9531248640269 479.62890649592737 L 494.9062502401066 481.6777338879183 L 493.16406272002496 483.62304716790095 L 490.4999997440609 486.79687475191895 L 488.7578122240375 490.48437452781945 L 489.06250035203993 494.99023462395417 L 490.9062502401066 498.2656245760154 L 493.06250035203993 499.49414092785446 L 495.92968704010127 500.7246090238914 L 496.43749990401557 503.6933591038105 L 496.33593753614696 506.3554682879476 L 496.43749990401557 509.6328120318358 L 495.61718784004916 511.6796876798617 L 494.4921876480221 513.6269527038094 L 494.28906291205203 517.3124997119885 L 493.8750003200839 522.8417966078268 L 493.46874982403824 528.5761720318696 L 493.5703121920815 536.2558597118477 L 494.1874995200196 544.2441410559695 L 494.5937500160653 552.3320309759583 L 495.3124956160318 557.5566417919472 L 496.5390622720588 564.0058593278518 L 498.281249792024 568.9218754559988 L 501.3515622400446 574.554687487951 L 506.5781248000567 580.6972651518299 L 511.1875000320724 585.5097651199321 L 515.7890621440602 589.5039057919057 L 522.9609379840549 595.0332026879187 L 529.101562880096 601.1777341438574 L 532.281249792024 603.8398433278198 L 535.554688000062 607.7324216319248 L 537.9140628480818 610.9062502398738 L 541.7031249920838 615.718750207976 L 543.5390627841116 618.6875002878951 L 546.2031247360865 624.2187499519787 L 547.3281249281135 627.80273459194 L 547.8437498881249 630.7714846719755 L 547.4375004160684 633.8437498880085 L 545.3828126720618 638.8613283839659 L 541.8046873600106 642.1386721280287 L 537.804687360127 646.5410160638858 L 533.6093747200794 650.3300782078295 L 527.1562496001134 650.2265620480175 L 515.4843750400469 650.1249996799743 L 511.1875000320724 650.023437311931 L 507.5000002561137 650.1249996799743 L 503.7109370880644 648.896484352008 L 500.64062464016024 647.4628904959536 L 496.8515624960419 645.4140620799153 L 492.6484377600136 642.5468753919704 L 489.2734371840488 639.2714844158036 L 485.171874816122 634.9707028479315 L 481.48437504004687 629.3378908158047 L 478.92968755203765 624.3203123200219 L 477.8046873600106 621.3515622399282 L 476.98437529604416 618.4843745278777 L 476.06249984010356 614.0800778238918 L 475.445312512049 611.2128911359468 L 473.8046873600106 607.1171870718827 L 472.6796871680417 603.7382809599512 L 471.65625036804704 600.4609372159466 L 471.3515622400446 597.9003903999692 L 471.8593751040171 595.443359743862 L 473.70312499208376 591.5527342078276 L 472.78124953608494 587.4570311678108 L 470.3281254400499 583.1562495999387 L 466.74218700808706 580.8007813118747 L 462.33593753603054 580.902343679918 L 457.93750016001286 582.9511720959563 L 455.8906245121034 585.1015628799214 L 451.78906214406015 587.2519526399556 L 445.24218777607894 590.4257812479045 L 440.2187499520369 594.4199219198781 L 436.84375040011946 598.822265855968 L 433.8750003200257 603.6347658238374 L 431.92968704004306 610.4960942078615 L 431.82812467211625 615.3085941759637 L 433.66406246402767 619.4062499838765 L 436.3281254401081 623.7050777599216 L 437.86718720011413 627.2910151679534 L 439.0937497600098 630.0546877438901 L 441.8593751040171 636.9160161279142 L 444.3203123200801 634.7656253439491 L 447.5937495040125 631.9999999999418 L 451.38281267217826 629.6445317118778 L 454.25000038405415 628.5195315198507 L 456.3984373760759 628.621093887894 L 458.9609379841131 629.3378908158047 L 461.52343756804476 630.6699223039323 L 464.4921876480221 632.5117183998227 L 462.64843776007183 635.9941406719154 L 460.9062502401648 638.8613283839659 L 460.60156211204594 643.4687498238054 L 460.9062502401648 648.4863283199957 L 459.88281241606455 651.6621096960152 L 459.88281241606455 654.7324221439194 L 460.60156211204594 656.9863280639402 L 461.82812467205804 660.9804687359137 L 463.3671874560532 664.0507811838761 L 462.2343751681037 667.738280959893 L 465.3124997120467 672.0390625279397 L 469.4062499840511 674.5996093439171 L 472.78124953608494 676.441406463855 L 475.64843724801904 677.7734379518661 L 477.28906240017386 680.0253911038162 L 478.82812518411083 683.5078123518615 L 482.4062504960457 685.9648440318415 L 485.38281267212005 687.8085939199082 L 488.4531251200242 689.6523438079166 L 490.9062502401066 691.3925785598694 L 493.3671874560532 693.1328122878331 L 496.33593753614696 695.488281599828 L 498.8984371200786 697.7402347518364 L 502.37500006414484 700.4023439359735 L 503.8125004800386 703.5781253118184 L 503.8125004800386 707.1621089278487 L 503.2968744960381 713.3066403839621 L 503.5078123520361 716.275390463823 L 503.5078123520361 721.0878904319252 L 502.89062502403976 725.3886719999718 L 501.6640624640859 728.4609372160048 L 499.1015628800378 733.9902341118432 L 496.03125043201726 739.1113277439144 L 492.9609379841131 742.08007782395 L 489.06250035203993 744.0253911039326 L 486.0937502720626 745.1523440638557 L 481.898437632015 746.9960939519224 L 477.4921871360857 748.8378910718602 L 473.3984378881287 750.1699215359404 L 467.96874956809916 751.80859391985 L 463.25781299202936 753.2421877758461 L 456.812499968044 754.6757816318423 L 451.898437632015 755.4941409280291 L 446.2656245760736 756.1093754878966 L 440.83593728009146 756.4160153598641 L 435.7187502080924 756.4160153598641 L 431.2109373440617 756.0058593278518 L 426.60156211204594 755.5976560639101 L 422.0937502720626 755.0859376638546 L 418.10156236804323 754.4707031038124 L 413.28906240005745 753.3437501438893 L 407.859378176101 752.626953215804 L 402.74218700814527 751.7050777598051 L 395.9843747840496 750.8867184638511 L 392.19531264004763 750.2734376959852 L 387.68749977607513 749.7597655039281 L 383.8984376320732 750.0683591678971 L 375.2968744960381 749.6582031358848 L 370.9999994880636 749.8632816639729 L 366.39062528003706 751.3984378878376 L 362.3984373760177 753.6523438078584 L 359.1171870721155 756.0078120959224 L 356.96875008015195 758.2597652479308 L 354.921875456057 761.1269529599231 L 353.5937495040125 764.300781567872 L 353.38281267206185 766.9628907518927 L 356.3593748480198 775.4628904958372 L 358.914062336029 778.4316405759309 L 364.1406248960411 783.9609374719439 L 369.66406246402767 786.3164057598333 L 375.19531212811125 788.5703127039596 L 383.8984376320732 792.4609372159466 L 391.5781253121095 798.4003901439719 L 395.3671874560532 800.8574218240101 L 398.75000012805685 803.5195310079725 L 401.8203125760192 805.4648432638496 L 404.89062502403976 808.0253911038744 L 407.96874956804095 810.3808593919966 L 411.1406254080939 813.5546879998874 L 414.7265628160094 817.1386716159759 L 417.79687526402995 822.3613276159158 L 419.74218752002344 825.6386723838514 L 420.56249958404806 829.2226559998817 L 421.1718748160638 834.0351559678093 L 421.07031244802056 839.8730465279659 L 419.6406251520966 844.173828095838 L 417.59374950407073 847.9628902399563 L 414.8281251840526 852.7753902078839 L 412.57031270407606 856.564453375875 L 409.9140628480236 860.556640255847 L 405.3046876160661 865.7792972798925 L 401.61718784010736 869.7734379518661 L 398.8515624960419 872.640624639811 L 395.46874982415466 875.9179683838738 L 391.6796876800363 879.7070315518649 L 387.38281267206185 883.8007807998802 L 384.8203120640246 887.078124543943 L 383.8984376320732 889.537108991819 L 383.28906240005745 892.0957030399004 L 382.97656217601616 895.7832028159755 L 382.4687503360328 902.0292966398993 L 383.4921871360275 904.8964843519498 L 386.97656217601616 910.1191403518897 L 390.5546874880092 914.1113282559672 L 394.4453120000544 917.183593471942 L 399.8750003200257 920.0507811838179 L 404.07031296001514 923.2265625600121 L 406.9374996480183 925.0703124478459 L 409.70312499202555 926.6054686718853 L 415.0312499200227 930.3945308158291 L 421.1718748160638 935.2070307839313 L 424.0390625281143 937.7675786239561 L 428.64843776007183 941.1464847358293 L 432.74218700808706 943.9101562878932 L 437.24999987205956 947.5976560639101 L 442.6796871680417 952.1035151359392 L 446.2656245760736 955.5839846399613 L 449.23437465605093 961.6249999358552 L 450.15625011210795 965.0058598399046 L 450.66406297602225 968.5898434559931 L 450.15625011210795 973.2988282878068 L 449.33593702409416 976.6796871679253 L 448.0000000000582 979.7499996158876 L 446.0546877440647 984.0507811839343 L 443.906249728112 987.2265625599539 L 440.9374996480183 990.9121095679002 L 438.5859379200265 993.4726563838776 L 434.9999994880636 996.8515624959837 L 431.7187502080924 999.4121093119029 L 427.92968704004306 1001.7656248318963 L 425.273437184107 1003.3027348479372 L 419.32812492805533 1006.2714839039254 L 414.3125002240413 1008.3203123198473 L 410.11718758411007 1009.8554685438867 L 402.9453127680463 1012.5195315198507 L 396.28906291211024 1014.7714846719755 L 389.6328120320686 1016.7167969279108 L 384.61718732805457 1018.2539059198461 L 373.4008113275486 1024.0" fill="none"/><path stroke="#000000" stroke-width="2" d="M 373.4008113277814 1024.0 L 384.61718732805457 1018.2539059199626 L 389.6328120320104 1016.716796927969 L 396.28906291205203 1014.7714846719755 L 402.9453127680463 1012.5195315199671 L 410.11718758405186 1009.8554685439449 L 414.3125002240413 1008.3203123199637 L 419.32812492805533 1006.2714839039254 L 425.2734371840488 1003.3027348479372 L 427.92968704004306 1001.7656248319545 L 431.7187502080342 999.4121093119611 L 434.9999994880636 996.8515624959255 L 438.5859379200265 993.4726563839358 L 440.9374996480183 990.9121095679584 L 443.9062497280538 987.2265625599539 L 446.0546877440647 984.0507811839343 L 448.0000000000582 979.7499996159459 L 449.33593702403596 976.6796871679253 L 450.15625011204975 973.2988282879232 L 450.66406297602225 968.5898434559349 L 450.15625011204975 965.0058598399628 L 449.23437465605093 961.6249999359716 L 446.2656245760154 955.5839846399613 L 442.6796871680417 952.1035151359392 L 437.24999987205956 947.5976560639683 L 432.74218700802885 943.9101562879514 L 428.6484377600136 941.1464847359457 L 424.0390625280561 937.7675786239561 L 421.1718748160638 935.2070307839313 L 415.0312499200227 930.3945308159455 L 409.70312499202555 926.6054686719435 L 406.9374996480183 925.0703124479624 L 404.07031296001514 923.2265625599539 L 399.8750003200257 920.0507811839343 L 394.4453120000544 917.183593471942 L 390.5546874880092 914.1113282559672 L 386.97656217601616 910.1191403519479 L 383.4921871360275 904.8964843519498 L 382.4687503360328 902.0292966399575 L 382.97656217601616 895.7832028159755 L 383.28906240005745 892.0957030399586 L 383.898437632015 889.5371089919354 L 384.8203120640246 887.078124543943 L 387.38281267206185 883.8007807999384 L 391.6796876800363 879.7070315519231 L 395.46874982403824 875.917968383932 L 398.8515624960419 872.6406246399274 L 401.61718784004916 869.7734379519243 L 405.3046876160661 865.7792972799507 L 409.9140628480236 860.5566402559634 L 412.57031270401785 856.5644533759332 L 414.8281251840526 852.7753902079421 L 417.5937495040125 847.9628902399563 L 419.6406251520384 844.1738280959544 L 421.07031244802056 839.8730465279659 L 421.1718748160638 834.0351559679257 L 420.56249958404806 829.2226559999399 L 419.74218752002344 825.6386723839678 L 417.79687526402995 822.361327615974 L 414.7265628160094 817.1386716159759 L 411.1406254080357 813.5546879999456 L 407.96874956804095 810.3808593919384 L 404.89062502403976 808.0253911039326 L 401.8203125760192 805.464843263966 L 398.75000012805685 803.5195310079725 L 395.3671874560532 800.8574218239519 L 391.57812531205127 798.4003901439719 L 383.898437632015 792.4609372159466 L 375.19531212805305 788.5703127039596 L 369.66406246402767 786.3164057599497 L 364.1406248960411 783.9609374719439 L 358.914062336029 778.4316405759309 L 356.3593748480198 775.4628904959536 L 353.38281267206185 766.9628907519509 L 353.5937495040125 764.3007815679302 L 354.921875456057 761.1269529599231 L 356.96875008003553 758.2597652479308 L 359.1171870720573 756.0078120959224 L 362.3984373760177 753.6523438079748 L 366.39062528003706 751.3984378879541 L 370.9999994880636 749.8632816639729 L 375.2968744960381 749.658203135943 L 383.898437632015 750.0683591679554 L 387.6874997760169 749.7597655039281 L 392.19531264004763 750.273437695927 L 395.9843747840496 750.8867184639676 L 402.74218700802885 751.7050777599216 L 407.8593781760428 752.6269532159204 L 413.28906240005745 753.3437501439475 L 418.10156236804323 754.4707031039288 L 422.0937502720626 755.085937663971 L 426.60156211204594 755.5976560639683 L 431.2109373440617 756.0058593279682 L 435.7187502080342 756.4160153599223 L 440.83593728003325 756.4160153599223 L 446.2656245760154 756.1093754879548 L 451.898437632015 755.4941409279709 L 456.812499968044 754.6757816319587 L 463.25781299202936 753.2421877759625 L 467.96874956804095 751.8085939199664 L 473.39843788801227 750.1699215359404 L 477.4921871360275 748.8378910719184 L 481.898437632015 746.9960939519224 L 486.0937502720626 745.1523440639721 L 489.06250035203993 744.0253911039326 L 492.9609379840549 742.08007782395 L 496.03125043201726 739.1113277439727 L 499.1015628800378 733.9902341119596 L 501.66406246402767 728.4609372159466 L 502.89062502403976 725.3886719999718 L 503.5078123520361 721.0878904319252 L 503.5078123520361 716.2753904639394 L 503.2968744960381 713.3066403839621 L 503.8125004800386 707.1621089279652 L 503.8125004800386 703.5781253119349 L 502.3750000640284 700.4023439359735 L 498.8984371200204 697.7402347519528 L 496.33593753603054 695.4882815999445 L 493.3671874560532 693.1328122879495 L 490.9062502400484 691.3925785599276 L 488.4531251200242 689.6523438079748 L 485.38281267206185 687.8085939199664 L 482.4062504960457 685.9648440319579 L 478.8281251840526 683.5078123519197 L 477.28906240005745 680.0253911039326 L 475.64843724801904 677.7734379519243 L 472.78124953602673 676.4414064639714 L 469.4062499840511 674.5996093439753 L 465.3124997120467 672.0390625279397 L 462.2343751680455 667.7382809599512 L 463.3671874560532 664.0507811839343 L 461.82812467205804 660.980468735972 L 460.60156211204594 656.9863280639402 L 459.88281241606455 654.7324221439194 L 459.88281241606455 651.662109695957 L 460.9062502400484 648.4863283199375 L 460.60156211204594 643.4687498239218 L 460.9062502400484 638.8613283839659 L 462.6484377600136 635.9941406719736 L 464.4921876480221 632.5117183999391 L 461.52343756804476 630.6699223039323 L 458.9609379840549 629.3378908159211 L 456.3984373760177 628.6210938879522 L 454.25000038405415 628.5195315199671 L 451.38281267206185 629.644531711936 L 447.5937495040125 631.9999999999418 L 444.3203123200219 634.7656253439491 L 441.8593751040171 636.9160161279724 L 439.0937497600098 630.0546877439483 L 437.8671872000559 627.2910151679534 L 436.3281254400499 623.7050777599216 L 433.66406246402767 619.4062499839347 L 431.82812467205804 615.3085941759637 L 431.92968704004306 610.4960942079197 L 433.8750003200257 603.6347658239538 L 436.84375040006125 598.822265855968 L 440.2187499520369 594.4199219199363 L 445.2421877760207 590.4257812479627 L 451.78906214406015 587.2519526399556 L 455.8906245120452 585.1015628799214 L 457.93750016001286 582.9511720959563 L 462.33593753603054 580.9023436799762 L 466.74218700802885 580.800781311933 L 470.3281254400499 583.1562495999387 L 472.78124953602673 587.4570311679272 L 473.70312499202555 591.552734207944 L 471.8593751040171 595.4433597439202 L 471.3515622400446 597.9003903999692 L 471.65625036804704 600.4609372159466 L 472.6796871680417 603.7382809599512 L 473.8046873600106 607.1171870719409 L 475.445312512049 611.2128911359468 L 476.06249984004535 614.08007782395 L 476.98437529604416 618.4843745279359 L 477.8046873600106 621.3515622399282 L 478.92968755203765 624.3203123199637 L 481.48437504004687 629.3378908159211 L 485.1718748160638 634.9707028479315 L 489.2734371840488 639.27148441592 L 492.6484377600136 642.5468753919704 L 496.8515624960419 645.4140620799735 L 500.6406246400438 647.4628904959536 L 503.7109370880644 648.8964843519498 L 507.5000002560555 650.1249996799743 L 511.1875000320142 650.023437311931 L 515.4843750400469 650.1249996799743 L 527.1562496000552 650.2265620479593 L 533.6093747200212 650.3300782079459 L 537.8046873600106 646.541016063944 L 541.8046873600106 642.1386721279705 L 545.3828126720618 638.8613283839659 L 547.4375004160102 633.8437498879503 L 547.8437498880667 630.7714846719755 L 547.3281249280553 627.80273459194 L 546.2031247360283 624.2187499519205 L 543.5390627840534 618.6875002879533 L 541.7031249920256 615.718750207976 L 537.9140628480236 610.906250239932 L 535.554688000062 607.7324216319248 L 532.281249792024 603.8398433279363 L 529.1015628800378 601.1777341439738 L 522.9609379840549 595.0332026879187 L 515.7890621440602 589.5039057919639 L 511.1875000320142 585.5097651199321 L 506.5781248000567 580.6972651519463 L 501.3515622400446 574.554687487951 L 498.281249792024 568.9218754559406 L 496.5390622720588 564.0058593279682 L 495.3124956160318 557.5566417919472 L 494.5937500160653 552.3320309759583 L 494.1874995200196 544.2441410559695 L 493.57031219202327 536.2558597119641 L 493.46874982403824 528.5761720319279 L 493.8750003200257 522.8417966079433 L 494.28906291205203 517.3124997119303 L 494.4921876480221 513.6269527039258 L 495.61718784004916 511.6796876799199 L 496.43749990401557 509.6328120319522 L 496.33593753603054 506.3554682879476 L 496.43749990401557 503.6933591039269 L 495.92968704004306 500.7246090239496 L 493.06250035203993 499.4941409279709 L 490.9062502400484 498.2656245759572 L 489.06250035203993 494.99023462395417 L 488.7578122240375 490.48437452793587 L 490.4999997440609 486.79687475191895 L 493.16406272002496 483.62304716795916 L 494.9062502400484 481.6777338879183 L 496.9531248640269 479.62890649592737 L 501.66406246402767 478.5019535359461 L 506.47656243201345 478.0937502719462 L 509.74999961606227 477.9902341119596 L 512.921875456057 478.4003901439719 L 517.8437498880667 477.5820308479597 L 521.8359377920278 476.9667973119649 L 524.7031255040201 477.2734371839324 L 527.7734379520407 478.4003901439719 L 530.6406246400438 480.1406248959247 L 532.7890647040331 480.85741567995865 L 535.8593751040171 480.1406248959247 L 538.5234370560502 479.21875046397327 L 541.7031249920256 477.9902341119596 L 543.8515630080365 477.376953343919 L 546.5156249600113 476.4550778879202 L 550.0937502720626 475.3281249279389 L 553.2734371840488 474.20117196795763 L 557.3671874560532 472.8710932479589 L 559.2109373440617 472.3593748479616 L 562.4843745280523 471.53906278393697 L 565.6640624640277 470.3105464319233 L 568.7343749120482 468.7753902079421 L 571.9062497280538 467.1367188479635 L 575.3906247680425 464.98632806394016 L 577.7421875200234 463.4492190719466 L 579.6874997760169 462.0156252159504 L 581.8437498880667 460.2753904639394 L 583.8906245120452 458.7402342399582 L 585.8359377920278 457.20312524796464 L 587.8828124160646 455.7695313919685 L 590.8515624960419 453.61914060794516 L 592.9999994880636 452.185546751949 L 594.7421870080288 451.16210892796516 L 598.3281254400499 448.80664063995937 L 600.8828129280591 446.75781222392106 L 602.6250004480244 445.12109363195486 L 604.8828129280591 442.66210918396246 L 606.6250004480244 440.4101560319541 L 608.0546877440647 437.03124991996447 L 608.9765621760162 432.8320317439502 L 609.5937495040125 429.1464847359457 L 609.79687526403 426.9960939519224 L 610.1015623680432 424.5390622719424 L 610.1015623680432 420.33984409592813 L 607.0312499200227 417.6777338879183 L 601.6015626240405 414.70703103992855 L 597.6093747200212 413.47851571196225 L 594.4374999040156 412.9667973119649 L 591.1562496000552 412.55664025596343 L 588.390625280037 412.66015641595004 L 583.8906245120452 413.06835967994994 L 581.023437824042 413.58007807994727 L 578.1562501120497 414.4003901439719 L 574.3671879680478 415.7324216319248 L 571.5000002560555 416.75585945596686 L 569.2421877760207 417.4726563839358 L 566.5859379200265 418.49609420791967 L 564.1250805760501 419.4179430399672 L 560.9531248640269 420.5449215999688 L 556.6484377600136 421.97851545596495 L 551.9375001600129 423.0019532799488 L 548.7656253440655 423.5136716799461 L 545.79687526403 423.92382771195844 L 543.5390627840534 423.92382771195844 L 540.6718750720611 424.2304686079733 L 536.1718753280584 424.3339847679599 L 533.1015628800378 424.43554713594494 L 530.1249996800325 424.2304686079733 L 525.9296870400431 423.30859417596366 L 522.1406248960411 421.56835942395264 L 518.6562498560525 419.92968703992665 L 516.0000000000582 418.3945308159455 L 512.4140625920263 415.93750015995465 L 509.1328122880659 413.9902341119596 L 505.65625036804704 410.0996095999726 L 503.5078123520361 406.92578099196544 L 501.24999987205956 404.67187507194467 L 498.6875002880115 402.52148428792134 L 496.8515624960419 399.8593751039589 L 494.9062502400484 396.9921873919666 L 493.9843747840496 392.7929692159523 L 493.6718745600665 389.61914060794516 L 494.39062528003706 385.011719167931 L 495.2109373440617 380.8124999679276 L 496.8515624960419 377.43359385593794 L 499.4062499840511 374.0546877439483 L 501.66406246402767 371.904296959925 L 504.53125017601997 369.54882764793 L 508.62500044802437 366.58007859194186 L 511.79687526402995 364.53125017596176 L 515.1796879360336 363.0976563199656 L 517.6328120320104 363.5078123519197 L 519.7890621440602 364.6347653119592 L 522.2421872640261 367.5019530239515 L 524.390625280037 370.88085913594114 L 526.2343751680455 373.2363284479361 L 527.9765626880107 375.1816407039296 L 529.4140620800317 376.8203120639664 L 531.6640624640277 378.97070284793153 L 534.0156252160086 380.8124999679276 L 536.7812495360267 382.65624985593604 L 539.0390620160615 383.88476518396055 L 544.5703127040179 386.65039052796783 L 547.023437824042 387.87890585593414 L 549.5859374080319 388.80078131193295 L 553.1718748160638 389.92578150396 L 557.8750003200257 391.15624959993875 L 561.4609377280576 392.2812497919658 L 564.53125017602 392.89648435194977 L 568.3203123200219 394.02343731193105 L 571.7031249920256 395.1484375039581 L 574.3671879680478 395.8652344319271 L 577.1328122880659 396.58203135995427 L 580.5078128640307 397.29882828792324 L 583.3749995520338 397.81250047992216 L 588.1874995200196 398.0156252159504 L 593.7187502080342 397.4023434239207 L 596.9921873920248 396.2753904639394 L 600.0703129600151 394.84179660794325 L 603.343750144064 393.20312524796464 L 605.2890624000574 391.8730465279659 L 607.335937024036 390.84765593596967 L 609.6953128960449 389.61914060794516 L 612.6640629760223 388.80078131193295 L 616.0390625280561 382.75976601592265 L 616.3515627520392 379.5839846399613 L 616.4531251200242 377.1269529599231 L 616.8593745920225 374.4648437759606 L 617.8828124160646 370.57226547197206 L 618.6015621120459 366.7851560959243 L 618.6015621120459 362.89257779193576 L 617.9843747840496 359.30859417596366 L 617.5781253120513 355.3164062719443 L 617.0625003520399 351.11718707194086 L 616.6562498560525 347.94335948792286 L 616.3515627520392 344.0507811839343 L 616.0390625280561 340.16015667194733 L 615.8359377920278 337.19140659197 L 615.5312496640254 334.63085977593437 L 615.1171870720573 330.84179660794325 L 614.914062336029 327.66796902392525 L 614.710937600059 324.083984383964 L 614.4062504960457 321.011719167931 L 614.3046871040133 317.93945292796707 L 614.1953126400476 314.1503907839651 L 614.4062504960457 309.9511715839617 L 615.2187504640315 305.34375014394755 L 616.2500003840541 300.6347653119592 L 617.1718748160638 296.2304686079733 L 619.5234375680448 292.85156249592546 L 623.0078126080334 288.75585945596686 L 628.7421870080288 281.9960934399278 L 630.7890626560547 278.92578099196544 L 632.3203123200219 276.46679654397303 L 633.656250368047 274.52148428792134 L 634.9843752960442 272.3710935039562 L 640.5156249600113 266.2265620479593 L 642.3593748480198 263.8730465279659 L 646.6562498560525 259.16210892796516 L 649.9375001600129 257.93359359994065 L 652.0859371520346 257.4218751999433 L 655.6718745600665 257.2167966719717 L 659.8671872000559 256.7031255039619 L 663.554688000062 256.0898437119322 L 673.0781245440594 255.98828134394716 L 696.0156252160086 255.98828134394716 L 698.8828129280591 256.80664063995937 L 701.343750144064 256.70507827197434 L 705.335937024036 257.11328153597424 L 708.921875456057 257.2167966719717 L 712.2968750080327 257.93359359994065 L 714.9609379840549 258.85546905593947 L 716.9062502400484 259.4687498239218 L 718.7500001280569 260.083984383964 L 721.1015628800378 260.69726515194634 L 723.6640624640277 260.9023436799762 L 726.6328125440632 260.69726515194634 L 729.5000002560555 260.4941404159763 L 732.6718750720611 260.80078131193295 L 734.9296875520376 261.0058598399628 L 738.1015623680432 261.3124997119303 L 740.7656253440655 261.0058598399628 L 743.4296872960404 259.87890585593414 L 745.3749995520338 258.85546905593947 L 747.0078126080334 257.52343756792834 L 749.3671874560532 255.98828134394716 L 752.2343751680455 253.6328120319522 L 754.6953123840503 250.8671877119341 L 756.1249996800325 249.12695295992307 L 757.6640624640277 247.07812454394298 L 757.8671872000559 243.39257855992764 L 755.5078123520361 239.29687449592166 L 752.9531248640269 237.24804710393073 L 750.289062912052 235.91796838393202 L 747.0078126080334 234.79101542395074 L 743.015624704014 234.07421849592356 L 738.1015623680432 233.25585919996956 L 733.9062497280538 233.25390643195715 L 730.3203123200219 233.4589839359396 L 725.8125004800386 234.79101542395074 L 722.2343751680455 236.12109414394945 L 718.7500001280569 237.4531246079714 L 714.1406248960411 239.0917969919392 L 709.2265625600121 239.9101562879514 L 705.9531253760215 240.3203123199637 L 702.9765621760162 240.73046835197601 L 700.0078120960388 241.34375014394755 L 697.343750144064 241.9589847039315 L 693.554688000062 243.08593766397098 L 690.078125056054 244.21093785593985 L 686.6953123840503 244.92773478396703 L 682.7031255040201 245.2363284479361 L 679.7343754240428 245.74804684793344 L 675.9453122560517 246.361327615974 L 670.9296875520376 247.07812454394298 L 666.7265628160094 247.5917967359419 L 662.4296878080349 247.79492147197016 L 658.7423559680465 247.48829593596747 L 655.5703121920233 246.97656217595795 L 652.4999997440609 245.84960921591846 L 649.9375001600129 245.03124991996447 L 651.5781253120513 224.03906252793968 L 652.1874995200196 220.55664025596343 L 653.5234375680448 217.1777341439738 L 653.9296870400431 214.20898406393826 L 654.4453120000544 211.34179737593513 L 655.4687498240382 207.24609331192914 L 656.5937500160653 203.4570311679272 L 658.0234373120475 199.87304652796593 L 659.4609377280576 196.39062527992064 L 660.6875002880115 192.80664063995937 L 661.8125004800386 189.2226559999399 L 662.9374996480183 184.8203120639664 L 663.7578127360321 181.74804684793344 L 665.0937497600098 178.2656245759572 L 666.2187499520369 175.0917969919392 L 667.546874880034 171.0976563199656 L 668.3671879680478 167.20703078393126 L 669.3906247680425 163.72460953594418 L 670.4140625920263 160.65234329592204 L 672.3593748480198 157.47851571196225 L 674.6171873280546 154.91992166393902 L 677.1718748160638 152.56445337593323 L 679.5312496640254 151.33398425596533 L 682.9062502400484 150.10546892794082 L 685.8750003200257 149.38867199997185 L 689.8750003200257 148.46679654397303 L 695.3984378880123 147.9550781439757 L 700.5234370560502 147.75195340794744 L 704.2109378560563 147.5449221119634 L 707.898437632015 147.23828121594852 L 711.3749995520338 146.41992191993631 L 715.3671874560532 145.29296895995503 L 718.6484377600136 144.16601599997375 L 722.4374999040156 143.552734207944 L 724.382812160009 147.64843724796083 L 725.7109370880644 150.92578099196544 L 726.8359372800332 153.9960934399278 L 727.7578127360321 158.70703103992855 L 727.1484375040163 163.21289113594685 L 726.9374996480183 167.51367167994613 L 726.9374996480183 170.38085939193843 L 727.2499998720596 172.83789107191842 L 727.7578127360321 175.60351539193653 L 728.4765624320135 177.9589847039315 L 729.6015626240405 180.4160153599223 L 731.546874880034 184.4101560319541 L 734.0078120960388 188.50585907197092 L 737.898437632015 191.78320281597553 L 741.3828126720618 193.3183590399567 L 745.3749995520338 194.75195289595285 L 749.26562508801 195.46874982392183 L 752.7421870080288 195.46874982392183 L 756.8437504000613 194.85546905593947 L 760.8359372800332 192.80664063995937 L 764.109375488013 190.34960895992117 L 767.0781245440594 187.37890611193143 L 768.7187496960396 184.4101560319541 L 771.0781245440594 181.33789081592113 L 771.5859374080319 178.2656245759572 L 772.0000000000582 174.78515609592432 L 772.921875456057 172.12304691196186 L 766.9765621760162 166.59179724793648 L 764.0078120960388 164.03125043195905 L 760.8359372800332 161.6777338879183 L 758.7890626560547 159.93554636795307 L 756.3281254400499 157.2734371839324 L 754.281249792024 155.42968729592394 L 751.7187502080342 153.1777341439738 L 750.289062912052 151.53906278393697 L 749.164062720025 149.38867199997185 L 748.6484377600136 146.52148428792134 L 749.164062720025 142.83593727997504 L 750.9062502400484 139.4570311679272 L 753.2578129920294 137.9199221759336 L 755.2031252480228 137.4082027519471 L 769.2343746560509 133.41406207997352 L 779.6796876800363 127.88476518396055 L 783.7734379520407 125.83789055992384 L 791.554688000062 117.644531711936 L 806.4062504960457 104.84570316795725 L 808.3515627520392 103.4121093119611 L 811.5234375680448 100.5449215999688 L 814.5937500160653 97.3710940159508 L 816.2343751680455 94.60546867194353 L 818.8984371200204 93.06835967994994 L 821.6640624640277 93.47851571196225 L 825.9609374720603 92.25000038393773 L 828.6250004480244 89.2812503039604 L 830.9765621760162 87.53906278393697 L 833.5390627840534 86.61718732793815 L 836.6093752320157 85.69726566394093 L 838.8671877120505 82.93164031993365 L 836.3046871040133 79.96093747194391 L 834.9765621760162 76.37890662392601 L 835.4843750400469 72.17968742392259 L 835.7890621440602 68.69726515194634 L 833.2343746560509 66.85546905593947 L 829.445312512049 67.3671874559368 L 826.3750000640284 65.52343756792834 L 826.7812495360267 63.271484415919986 L 827.9062497280538 60.60742143995594 L 829.445312512049 56.4101560319541 L 830.2656245760154 53.2363284479361 L 830.5703127040179 49.85742233594647 L 830.4687503360328 45.759765503928065 L 830.9765621760162 40.845703167957254 L 832.921875456057 37.56835942395264 L 835.2812503040186 34.80273407994537 L 837.5312496640254 32.654297087923624 L 840.710937600059 29.171874815947376 L 844.9062502400484 25.177734143973794 L 848.8984371200204 22.10546892794082 L 851.4609377280576 20.3652341759298 L 854.4296878080349 18.52148428792134 L 857.9140628480236 17.4980464639375 L 862.6171873280546 17.08789043192519 L 867.3281249280553 16.781249535968527 L 871.2187504640315 16.371093503956217 L 875.5234375680448 15.859375103958882 L 878.7968747520354 15.552734207944013 L 882.281249792024 15.041015807946678 L 884.6406246400438 14.937499647960067 L 887.195312128053 14.835937279975042 L 889.656250368047 14.732422143919393 L 892.3203123200219 14.529296383960173 L 895.5937495040125 14.119140351947863 L 897.9453122560517 13.914062847965397 L 900.5078128640307 13.503905791963916 L 903.1718748160638 13.298828287923243 L 905.9375001600129 12.890625023923349 L 909.4140620800317 11.968749567924533 L 912.5937500160653 11.353516031929757 L 916.0703129600151 10.330078207945917 L 919.2499998720596 8.998046719934791 L 921.9140628480236 7.667969023925252 L 924.5703127040179 5.925781503960025 L 927.648437248019 3.3671874559368007 L 931.6089456229529 0.0" fill="none"/></svg>