<svg xmlns="http://www.w3.org/2000/svg" width="1024" height="1024"><rect stroke="none" x="0" y="0" width="1024" height="1024" fill="white"/><path stroke="#000000" stroke-width="2" d="M 694.4908734554338 0.0 L 708.1015623680432 0.49999974394449964 L 708.3046871040133 3.980469247966539 L 708.3046871040133 7.0546872319537215 L 709.2265625600121 10.328125439933501 L 710.6562498560525 12.480468991969246 L 712.914062336029 14.734374911931809 L 715.3671874560532 16.781249535968527 L 717.7265623040148 17.906249727937393 L 721.4140620800317 19.957030911929905 L 727.3515622400446 22.824218623922206 L 732.4687503360328 24.7695308799739 L 737.4921871360275 26.613280767924152 L 743.9375001600129 29.07031244796235 L 747.6249999360298 31.32031283195829 L 752.1328128000605 36.03125043195905 L 755.8203125760192 40.33203097595833 L 758.5859379200265 44.01953075197525 L 760.6328125440632 46.6835937279393 L 762.7812495360267 48.73046835191781 L 765.2421877760207 50.47265587194124 L 767.2890624000574 52.21093785593985 L 770.0546877440647 53.5429683199618 L 773.4296872960404 55.07812454394298 L 776.812499968044 56.4101560319541 L 780.7031255040201 57.23046911996789 L 782.0615055360249 57.3698815999669 L 783.6718745600083 57.53515622392297 L 787.3593753600144 57.53515622392297 L 791.0468751360313 57.33203148795292 L 797.8046873600106 56.92187545594061 L 801.5937495040125 57.33203148795292 L 805.1718748160638 58.15234355191933 L 808.6562498560525 59.68749977595871 L 812.6484377600136 61.42578175995732 L 815.3124997120467 63.374999551917426 L 817.6640624640277 67.05859379196772 L 818.4843745280523 70.64453119994141 L 818.4843745280523 73.1015628799214 L 818.179687424039 75.55859353597043 L 817.3593753600144 78.62890598393278 L 816.0312504320173 81.70312499196734 L 814.289062912052 84.7734374399297 L 813.26562508801 87.33593702391954 L 812.7500001280569 90.09765580797102 L 813.164062720025 93.2734371839324 L 815.6171878400492 96.55078092793701 L 818.7968747520354 99.00781260797521 L 822.1718753280584 100.54296883195639 L 825.554688000062 101.67187455995008 L 829.0312499200227 102.28515635192161 L 832.8203120640246 102.38671871996485 L 838.9687500800355 102.38671871996485 L 843.0625003520399 101.77343795192428 L 847.5703121920233 100.33984409592813 L 850.6406246400438 99.21484390395926 L 853.5078123520361 97.78125004796311 L 856.2734376960434 96.75390668795444 L 859.546874880034 95.52734412794234 L 863.335937024036 95.01562470395584 L 866.7187496960396 95.32031283195829 L 869.8906245120452 96.03906252793968 L 872.8593745920225 97.26562508795178 L 874.9062502400484 98.49609420791967 L 877.164062720025 101.46484326396603 L 877.9843747840496 104.43359334394336 L 878.1874995200196 107.09765631996561 L 877.7734379520407 109.35156223992817 L 877.3671874560532 111.60546918393811 L 877.26562508801 114.06249983992893 L 878.1874995200196 117.44140595191857 L 879.2109373440617 119.79687526397174 L 880.5390622720588 121.640625151922 L 882.9999994880636 123.99218790396117 L 887.6093747200212 126.75781222392106 L 891.6015626240405 128.39843737595947 L 896.6171873280546 129.93359359994065 L 900.812499968044 130.9570314239245 L 904.812499968044 131.67578111996409 L 910.5468753920286 132.80078131193295 L 914.3359375360305 133.62109337595757 L 919.8593751040171 135.4609377279412 L 925.3906247680425 137.61328127991874 L 930.921875456057 139.8671871999395 L 934.0937502720626 140.78906265593832 L 936.9609379840549 141.40234342392068 L 940.5468753920286 141.6054691839381 L 944.5390622720588 141.40234342392068 L 949.7634826240246 140.99235123192193 L 956.4218746880651 140.48046899196925 L 961.9453122560517 139.8671871999395 L 966.0468746240367 139.4570311679272 L 970.2421872640261 138.84375039994484 L 976.078125056054 138.53515673591755 L 980.8906250240398 138.43359334394336 L 985.2968744960381 137.71484364796197 L 988.0624998400453 136.38281215995084 L 991.1328122880659 134.84765593596967 L 994.7187496960396 132.28906291193562 L 997.7890621440602 126.65624985593604 L 998.1953126400476 123.07421900791815 L 997.5859374080319 119.48828159994446 L 997.3828126720618 116.62109388795216 L 997.9921879040194 113.75390617595986 L 999.7343754240428 110.57812479994027 L 1001.7812500480213 108.3281254399335 L 1003.4218752000597 106.17578086396679 L 1005.4687498240382 104.64062463992741 L 1008.0312504320173 103.30859417596366 L 1010.4843745280523 102.48828108794987 L 1013.968749568041 101.87500031996751 L 1017.8593751040171 101.77343795192428 L 1022.0546877440647 102.28515635192161 L 1024.0 102.7369932610527" fill="none"/><path stroke="#000000" stroke-width="2" d="M 1024.0 331.28630507108755 L 1021.648437248019 331.3554687999422 L 1015.8125004800386 331.8671871999395 L 1011.5078123520361 332.6835937279393 L 1008.3359375360305 333.6054691839381 L 1005.26562508801 334.93749964796007 L 1001.5781253120513 337.6015626239241 L 998.812499968044 339.44531251193257 L 995.7421875200234 342.61718732793815 L 993.1796879360336 345.48437503993046 L 991.7499996160623 347.83984332793625 L 988.6718750720611 351.4257817599573 L 986.2187499520369 354.6992189439479 L 983.2499998720596 359.5156254719477 L 978.3359375360305 364.12109414394945 L 973.3124997120467 370.7773439999437 L 968.914062336029 379.89062451192876 L 967.6796876800363 385.11328153597424 L 967.5781253120513 388.1874995199614 L 968.2968750080327 391.15624959993875 L 969.4218752000597 394.53515673591755 L 970.8593745920225 397.30078105593566 L 972.8046878720634 399.75781273597386 L 974.5468753920286 402.3164057599497 L 975.8750003200257 405.4921871359693 L 976.4921876480221 408.9726566399331 L 975.8750003200257 414.0937502719462 L 973.9296870400431 419.4179686399293 L 972.1874995200196 422.2851563519216 L 969.9375001600129 425.1523440639721 L 967.8906245120452 427.5078123519197 L 965.7343754240428 429.4531246079714 L 963.0781245440594 430.9882808319526 L 958.3671879680478 432.8320317439502 L 954.1640622080304 433.75390617595986 L 950.0703129600151 434.06249983992893 L 946.281249792024 433.5507814399316 L 940.8515624960419 431.80859391996637 L 933.4843750400469 429.24999987194315 L 929.5937495040125 428.94140620797407 L 926.0078120960388 429.4531246079714 L 922.5234370560502 430.3750000639702 L 919.3515622400446 431.80859391996637 L 915.7656248320127 434.2656245759572 L 913.5156254720641 437.44140595191857 L 911.8750003200257 441.7421875199652 L 909.3124997120467 448.6015621119295 L 908.1874995200196 451.7773434879491 L 907.6796876800363 456.2812497919658 L 908.1874995200196 458.6367191039608 L 909.4140620800317 462.3242188799195 L 911.5703121920233 467.5468748799176 L 913.3124997120467 471.12890675192466 L 914.7421870080288 473.38281267194543 L 916.8906250240398 476.0468746239203 L 919.4531246080296 478.3984373759595 L 924.5703127040179 483.3164062719443 L 929.0781245440594 487.20703078393126 L 934.3046871040133 491.19921868795063 L 939.3203128320165 494.88671846396755 L 944.7421870080288 498.16406220797217 L 951.5078123520361 501.1328122879495 L 957.8515630080365 503.38671923195943 L 961.4375004160102 504.8203120639664 L 963.7890621440602 506.15234355191933 L 967.0703124480206 508.60937523195753 L 969.8359377920278 511.2695316479658 L 972.0859371520346 514.1367183359689 L 973.1093749760184 518.9492183039547 L 974.0312504320173 526.835937279975 L 974.4453120000544 530.8281251839362 L 975.3671874560532 536.3593748479616 L 977.2031252480228 540.2500003839377 L 980.179687424039 543.9375001599547 L 982.2265620480175 546.3945308159455 L 984.9921873920248 548.6484377599554 L 989.8046873600106 552.027343871945 L 994.8203120640246 554.6875002879533 L 1001.4765629440662 557.6562503679306 L 1007.828124672058 560.3203123199637 L 1012.0234373120475 561.4453125119326 L 1016.1171875840519 562.3671879679314 L 1020.5234370560502 563.289062399941 L 1023.79687526403 564.0078120959224 L 1024.0 564.0539288250948" fill="none"/><path stroke="#000000" stroke-width="2" d="M 708.1015623680432 0.0 L 708.1015623680432 0.49999974394449964 L 694.4908734554338 0.0" fill="none"/><path stroke="#000000" stroke-width="2" d="M 1024.0 564.0539288250948 L 1023.79687526403 564.0078120959224 L 1020.5234370560502 563.289062399941 L 1016.1171875840519 562.3671879679314 L 1012.0234373120475 561.4453125119326 L 1007.828124672058 560.3203123199637 L 1001.4765629440662 557.6562503679306 L 994.8203120640246 554.6875002879533 L 989.8046873600106 552.027343871945 L 984.9921873920248 548.6484377599554 L 982.2265620480175 546.3945308159455 L 980.179687424039 543.9375001599547 L 977.2031252480228 540.2500003839377 L 975.3671874560532 536.3593748479616 L 974.4453120000544 530.8281251839362 L 974.0312504320173 526.835937279975 L 973.1093749760184 518.9492183039547 L 972.0859371520346 514.1367183359689 L 969.8359377920278 511.2695316479658 L 967.0703124480206 508.60937523195753 L 963.7890621440602 506.15234355191933 L 961.4375004160102 504.8203120639664 L 957.8515630080365 503.38671923195943 L 951.5078123520361 501.1328122879495 L 944.7421870080288 498.16406220797217 L 939.3203128320165 494.88671846396755 L 934.3046871040133 491.19921868795063 L 929.0781245440594 487.20703078393126 L 924.5703127040179 483.3164062719443 L 919.4531246080296 478.3984373759595 L 916.8906250240398 476.0468746239203 L 914.7421870080288 473.38281267194543 L 913.3124997120467 471.12890675192466 L 911.5703121920233 467.5468748799176 L 909.4140620800317 462.3242188799195 L 908.1874995200196 458.6367191039608 L 907.6796876800363 456.2812497919658 L 908.1874995200196 451.7773434879491 L 909.3124997120467 448.6015621119295 L 911.8750003200257 441.7421875199652 L 913.5156254720641 437.44140595191857 L 915.7656248320127 434.2656245759572 L 919.3515622400446 431.80859391996637 L 922.5234370560502 430.3750000639702 L 926.0078120960388 429.4531246079714 L 929.5937495040125 428.94140620797407 L 933.4843750400469 429.24999987194315 L 940.8515624960419 431.80859391996637 L 946.281249792024 433.5507814399316 L 950.0703129600151 434.06249983992893 L 954.1640622080304 433.75390617595986 L 958.3671879680478 432.8320317439502 L 963.0781245440594 430.9882808319526 L 965.7343754240428 429.4531246079714 L 967.8906245120452 427.5078123519197 L 969.9375001600129 425.1523440639721 L 972.1874995200196 422.2851563519216 L 973.9296870400431 419.4179686399293 L 975.8750003200257 414.0937502719462 L 976.4921876480221 408.9726566399331 L 975.8750003200257 405.4921871359693 L 974.5468753920286 402.3164057599497 L 972.8046878720634 399.75781273597386 L 970.8593745920225 397.30078105593566 L 969.4218752000597 394.53515673591755 L 968.2968750080327 391.15624959993875 L 967.5781253120513 388.1874995199614 L 967.6796876800363 385.11328153597424 L 968.914062336029 379.89062451192876 L 973.3124997120467 370.7773439999437 L 978.3359375360305 364.12109414394945 L 983.2499998720596 359.5156254719477 L 986.2187499520369 354.6992189439479 L 988.6718750720611 351.4257817599573 L 991.7499996160623 347.83984332793625 L 993.1796879360336 345.48437503993046 L 995.7421875200234 342.61718732793815 L 998.812499968044 339.44531251193257 L 1001.5781253120513 337.6015626239241 L 1005.26562508801 334.93749964796007 L 1008.3359375360305 333.6054691839381 L 1011.5078123520361 332.6835937279393 L 1015.8125004800386 331.8671871999395 L 1021.648437248019 331.3554687999422 L 1024.0 331.28630507108755" fill="none"/><path stroke="#000000" stroke-width="2" d="M 1024.0 102.7369932610527 L 1022.0546877440647 102.28515635192161 L 1017.8593751040171 101.77343795192428 L 1013.968749568041 101.87500031996751 L 1010.4843745280523 102.48828108794987 L 1008.0312504320173 103.30859417596366 L 1005.4687498240382 104.64062463992741 L 1003.4218752000597 106.17578086396679 L 1001.7812500480213 108.3281254399335 L 999.7343754240428 110.57812479994027 L 997.9921879040194 113.75390617595986 L 997.3828126720618 116.62109388795216 L 997.5859374080319 119.48828159994446 L 998.1953126400476 123.07421900791815 L 997.7890621440602 126.65624985593604 L 994.7187496960396 132.28906291193562 L 991.1328122880659 134.84765593596967 L 988.0624998400453 136.38281215995084 L 985.2968744960381 137.71484364796197 L 980.8906250240398 138.43359334394336 L 976.078125056054 138.53515673591755 L 970.2421872640261 138.84375039994484 L 966.0468746240367 139.4570311679272 L 961.9453122560517 139.8671871999395 L 956.4218746880651 140.48046899196925 L 949.7634826240246 140.99235123192193 L 944.5390622720588 141.40234342392068 L 940.5468753920286 141.6054691839381 L 936.9609379840549 141.40234342392068 L 934.0937502720626 140.78906265593832 L 930.921875456057 139.8671871999395 L 925.3906247680425 137.61328127991874 L 919.8593751040171 135.4609377279412 L 914.3359375360305 133.62109337595757 L 910.5468753920286 132.80078131193295 L 904.812499968044 131.67578111996409 L 900.812499968044 130.9570314239245 L 896.6171873280546 129.93359359994065 L 891.6015626240405 128.39843737595947 L 887.6093747200212 126.75781222392106 L 882.9999994880636 123.99218790396117 L 880.5390622720588 121.640625151922 L 879.2109373440617 119.79687526397174 L 878.1874995200196 117.44140595191857 L 877.26562508801 114.06249983992893 L 877.3671874560532 111.60546918393811 L 877.7734379520407 109.35156223992817 L 878.1874995200196 107.09765631996561 L 877.9843747840496 104.43359334394336 L 877.164062720025 101.46484326396603 L 874.9062502400484 98.49609420791967 L 872.8593745920225 97.26562508795178 L 869.8906245120452 96.03906252793968 L 866.7187496960396 95.32031283195829 L 863.335937024036 95.01562470395584 L 859.546874880034 95.52734412794234 L 856.2734376960434 96.75390668795444 L 853.5078123520361 97.78125004796311 L 850.6406246400438 99.21484390395926 L 847.5703121920233 100.33984409592813 L 843.0625003520399 101.77343795192428 L 838.9687500800355 102.38671871996485 L 832.8203120640246 102.38671871996485 L 829.0312499200227 102.28515635192161 L 825.554688000062 101.67187455995008 L 822.1718753280584 100.54296883195639 L 818.7968747520354 99.00781260797521 L 815.6171878400492 96.55078092793701 L 813.164062720025 93.2734371839324 L 812.7500001280569 90.09765580797102 L 813.26562508801 87.33593702391954 L 814.289062912052 84.7734374399297 L 816.0312504320173 81.70312499196734 L 817.3593753600144 78.62890598393278 L 818.179687424039 75.55859353597043 L 818.4843745280523 73.1015628799214 L 818.4843745280523 70.64453119994141 L 817.6640624640277 67.05859379196772 L 815.3124997120467 63.374999551917426 L 812.6484377600136 61.42578175995732 L 808.6562498560525 59.68749977595871 L 805.1718748160638 58.15234355191933 L 801.5937495040125 57.33203148795292 L 797.8046873600106 56.92187545594061 L 791.0468751360313 57.33203148795292 L 787.3593753600144 57.53515622392297 L 783.6718745600083 57.53515622392297 L 782.0615055360249 57.3698815999669 L 780.7031255040201 57.23046911996789 L 776.812499968044 56.4101560319541 L 773.4296872960404 55.07812454394298 L 770.0546877440647 53.5429683199618 L 767.2890624000574 52.21093785593985 L 765.2421877760207 50.47265587194124 L 762.7812495360267 48.73046835191781 L 760.6328125440632 46.6835937279393 L 758.5859379200265 44.01953075197525 L 755.8203125760192 40.33203097595833 L 752.1328128000605 36.03125043195905 L 747.6249999360298 31.32031283195829 L 743.9375001600129 29.07031244796235 L 737.4921871360275 26.613280767924152 L 732.4687503360328 24.7695308799739 L 727.3515622400446 22.824218623922206 L 721.4140620800317 19.957030911929905 L 717.7265623040148 17.906249727937393 L 715.3671874560532 16.781249535968527 L 712.914062336029 14.734374911931809 L 710.6562498560525 12.480468991969246 L 709.2265625600121 10.328125439933501 L 708.3046871040133 7.0546872319537215 L 708.3046871040133 3.980469247966539 L 708.1015623680432 0.49999974394449964 L 708.1015623680432 0.0" fill="none"/></svg>