<svg xmlns="http://www.w3.org/2000/svg" width="1024" height="1024"><rect stroke="none" x="0" y="0" width="1024" height="1024" fill="white"/><path stroke="#000000" stroke-width="2" d="M 154.93212344447966 0.0 L 155.445312512049 0.9101557759568095 L 157.4921871360275 3.5703121919650584 L 160.46093721606303 6.02734387194505 L 162.92187545605702 7.976562687952537 L 164.66406297602225 9.613281279918738 L 166.812499968044 12.277344255940989 L 169.06250035203993 16.472655871941242 L 170.39843737601768 18.62500044796616 L 172.34374963201117 22.824218623922206 L 173.7734379520407 26.917968895926606 L 173.98437478404958 31.218750463973265 L 172.34374963201117 37.16015615995275 L 170.80468787206337 40.64062463992741 L 167.6328120320104 43.91796838393202 L 165.1718748160638 45.656250367930625 L 162.92187545605702 47.500000255939085 L 160.7734374400461 49.5507814399316 L 158.00781209603883 51.08593766397098 L 155.8593751040171 52.10937548795482 L 153.80468736001058 53.5429683199618 L 151.14843750401633 56.92187545594061 L 148.07031296001514 59.89062451192876 L 145.71875020803418 61.83593779196963 L 142.4453120000544 63.988281343947165 L 139.06250035203993 66.24218726396793 L 136.812499968044 68.18749951996142 L 134.55468748806743 70.54296883195639 L 132.10156236804323 72.79296921595233 L 130.3593748480198 75.0468751359731 L 128.82031206402462 76.78906265593832 L 127.07812454405939 79.03906201594509 L 125.1328122880659 81.70312499196734 L 124.10937548801303 84.46875033597462 L 123.90624972805381 86.8242186239222 L 124.32031232002191 89.38281267194543 L 125.64843724801904 92.25000038393773 L 127.89843763201497 95.32031283195829 L 129.6406251520384 97.3710940159508 L 130.8671877120505 99.51953100797255 L 132.30468710401328 101.57031219196506 L 135.47656294406625 103.30859417596366 L 137.6328120320104 103.92187494394602 L 140.28906291205203 104.53906227194238 L 143.57031219202327 104.84375039994484 L 147.56250009604264 104.9492183039547 L 152.88281292805914 105.15234406397212 L 155.74999961606227 104.9492183039547 L 159.9531253760215 104.9492183039547 L 163.43750041601015 104.84375039994484 L 166.4062504960457 104.9492183039547 L 170.39843737601768 105.15234406397212 L 173.26562508800998 105.25390643195715 L 176.1328128000605 105.56250009592623 L 180.42968780803494 106.17578086396679 L 185.24218777602073 106.99609395192238 L 187.5000002560555 107.40624998393469 L 189.85156300803646 107.30468761594966 L 192.82031206402462 107.71093708794797 L 195.38281267206185 108.63281254394678 L 197.84374988806667 109.35156223992817 L 201.01562470401404 110.06640639994293 L 203.57812531205127 111.08984422392678 L 207.46874982403824 113.24218777596252 L 211.35937536001438 115.28906239994103 L 215.14843750401633 117.74609407992102 L 219.445312512049 121.74218751996523 L 220.46875033603283 126.04296908795368 L 220.46875033603283 128.80859340797178 L 219.546874880034 133.0039060479612 L 218.42187468806515 135.76953139196848 L 217.19531212805305 138.2265620479593 L 215.4531246080296 140.99218739196658 L 214.01562521606684 142.7343749119318 L 211.66406246402767 145.29296895995503 L 209.3124997120467 146.3164057599497 L 204.18749952001963 150.10546892794082 L 201.93750016001286 152.56249958393164 L 199.07031244802056 154.09765580797102 L 195.89843763201497 156.0468746239203 L 191.4921871360275 157.99218790396117 L 189.03124992002267 159.42578175995732 L 186.57812480005668 160.65234329592204 L 184.6328125440632 161.98437478393316 L 181.4531246080296 164.2382817279431 L 178.79687475203536 166.69531238393392 L 175.82812467205804 170.38281215995084 L 174.18749952001963 173.4531246079714 L 173.98437478404958 175.29687449592166 L 174.49218764802208 179.28906239994103 L 175.61718784004916 182.66796851193067 L 177.87500032002572 186.76562534394907 L 180.53125017601997 190.04296908795368 L 182.89062502403976 192.4999997439445 L 185.3515622400446 195.87890585593414 L 187.80468736001058 199.25781299197115 L 188.82812518405262 201.4101565439487 L 190.2656245760154 203.96874956792453 L 191.28906240005745 206.93749964796007 L 192.4140625920263 211.1367188479635 L 192.82031206402462 215.02734335995046 L 191.59374950401252 218.71484415995656 L 189.1328122880659 220.96484351996332 L 186.47656243201345 221.5820308479597 L 183.60937472002115 221.99218790396117 L 179.50781235203613 222.0937502719462 L 176.03125043201726 221.99218790396117 L 172.9609379840549 221.5820308479597 L 169.27343718404882 221.07031244796235 L 165.68749977601692 220.0468746239203 L 159.33593702403596 217.9960934399278 L 155.74999961606227 216.97265663993312 L 151.3515622400446 215.84765644796425 L 146.5390622720588 214.8242186239222 L 143.05468723201193 214.20703129592584 L 137.7343754240428 213.5937495039543 L 133.6328120320104 213.183593471942 L 130.3593748480198 212.7734374399297 L 126.3671879680478 212.57031270395964 L 121.75781273603207 211.74999961594585 L 119.29687449603807 210.8281251839362 L 115.50781235203613 210.3164057599497 L 112.85156249604188 210.52343705593375 L 108.9531248640269 211.1367188479635 L 105.88281241606455 212.36328140791738 L 103.11718707205728 213.28515583992703 L 99.32812492805533 214.92578099196544 L 96.25781248003477 216.56249958393164 L 94.41406259202631 217.5859374079737 L 91.64843724801904 218.81640652794158 L 89.09374976000981 220.0468746239203 L 86.83593728003325 221.07031244796235 L 84.6875002880115 221.88671897596214 L 81.3124997120467 222.80859340797178 L 77.10937497601844 224.34765619196696 L 72.60156211204594 226.29296844796045 L 67.89843763201497 228.03125043195905 L 64.51562496001134 228.75000012794044 L 61.95312537602149 229.3632808959228 L 59.601562624040525 229.8750003199675 L 57.03906201606151 230.1835939839366 L 54.37500006402843 230.08203161595156 L 50.38281216006726 229.56640665594023 L 45.98437478404958 228.75000012794044 L 43.11718707205728 228.2382817279431 L 39.429687296040356 227.51953100797255 L 36.66406297602225 227.21484390395926 L 34.00000000005821 227.0078126079752 L 30.828125184052624 226.69921894394793 L 26.625000448024366 226.39453081594547 L 21.81250048003858 225.98437478393316 L 16.69531238405034 226.18749951996142 L 14.234375168045517 226.39453081594547 L 10.4453120000544 226.90625023993198 L 7.1718748160637915 227.51953100797255 L 4.812499968043994 228.33984409592813 L 2.664062976022251 229.46484326396603 L 0.0 230.79986792596173" fill="none"/><path stroke="#000000" stroke-width="2" d="M 715.4887799385324 0.0 L 717.4140620800317 4.082031615951564 L 718.9531248640269 7.976562687952537 L 719.7734379520407 11.355468799942173 L 720.5937500160653 16.472655871941242 L 720.9999994880636 24.35937484796159 L 721.7187502080342 29.07031244796235 L 722.1249996800325 33.16406271996675 L 723.968749568041 36.238281727943104 L 726.2265620480175 40.64062463992741 L 729.6015626240405 46.27343769592699 L 732.5703127040179 49.957030911929905 L 737.5937495040125 56.207031295925844 L 742.5078128640307 59.89062451192876 L 745.7812500480213 63.167968255933374 L 749.5703121920233 66.95703142392449 L 755.4062499840511 73.816406015947 L 761.4531246080296 79.44921907194657 L 763.2968744960381 82.21484339196468 L 766.0546877440647 86.10546892794082 L 768.109375488013 88.97265663993312 L 770.2578124800348 92.14843699196354 L 772.4062504960457 95.21875046397327 L 775.4765629440662 99.10937497596024 L 778.0390625280561 101.46484326396603 L 781.7265623040148 106.07421849592356 L 784.281249792024 110.17187532794196 L 785.5156254720641 115.80078079993837 L 786.1249996800325 118.46484377596062 L 786.3359375360305 122.35546828794759 L 786.5390622720588 129.62499993597157 L 786.2343751680455 133.0039060479612 L 785.8203125760192 137.30468761594966 L 785.4140620800317 141.0937497599516 L 784.8984371200204 145.08984422392678 L 784.7968747520354 149.28515583992703 L 784.6953123840503 152.15234355191933 L 784.7968747520354 156.453125119966 L 785.2031252480228 160.34765619196696 L 785.9218749440624 165.57031219196506 L 786.3359375360305 169.56250009592623 L 787.1484375040163 173.5546879999456 L 788.179687424039 177.1406254079193 L 791.1484375040163 182.87499980797293 L 793.2968744960381 186.66406297596404 L 796.5703127040179 190.75781222392106 L 799.4375004160102 193.3203128319583 L 804.1484369920217 197.0039060479612 L 806.3046871040133 199.05468723195372 L 808.0390625280561 199.76953139196848 L 812.1406248960411 201.5117189119337 L 820.8437504000613 203.8671871999395 L 831.2890624000574 205.30078105593566 L 838.7656253440655 206.22265651193447 L 845.4218752000597 207.14453094394412 L 856.4765624320135 208.6796871679253 L 864.3593748480198 210.01171865593642 L 868.6640629760223 211.1367188479635 L 873.6796876800363 212.36328140791738 L 876.6484377600136 213.183593471942 L 879.9296870400431 214.10546892794082 L 885.1484375040163 215.43750041595194 L 887.6093747200212 216.25781247991836 L 896.109375488013 219.12500019196887 L 901.8437498880667 221.2734371839324 L 906.4453120000544 222.70703103992855 L 910.4453120000544 224.34765619196696 L 912.5937500160653 226.0859371519182 L 916.281249792024 227.10937497596024 L 920.6796871680417 228.2382817279431 L 927.4375004160102 230.1835939839366 L 929.5937495040125 231.00000051193638 L 935.2265625600121 231.61718783993274 L 939.6249999360298 232.74218700797064 L 946.5859379200265 234.07421849592356 L 951.5046799360425 234.9955071999575 L 955.5000002560555 234.58593791996827 L 959.0781245440594 234.38281215995084 L 963.1796879360336 234.277344255941 L 967.3749995520338 234.48437452793587 L 970.3437496320112 233.8710937599535 L 972.6015621120459 233.97265612793854 L 977.2031252480228 234.6875002879533 L 984.3750000640284 233.8710937599535 L 987.546874880034 233.15234406397212 L 991.7499996160623 232.33203097595833 L 994.8203120640246 231.51562547194771 L 999.4296872960404 230.5937500159489 L 1003.4218752000597 229.56640665594023 L 1005.8750003200257 228.9531248639687 L 1009.0546872320119 227.82812467194162 L 1012.8437504000613 226.49609420791967 L 1016.6328125440632 225.3710940159508 L 1022.8749998080311 224.34765619196696 L 1024.0 224.13375823382376" fill="none"/><path stroke="#000000" stroke-width="2" d="M 0.0 230.79986792596173 L 2.664062976022251 229.46484326396603 L 4.812499968043994 228.33984409592813 L 7.1718748160637915 227.51953100797255 L 10.4453120000544 226.90625023993198 L 14.234375168045517 226.39453081594547 L 16.69531238405034 226.18749951996142 L 21.81250048003858 225.98437478393316 L 26.625000448024366 226.39453081594547 L 30.828125184052624 226.69921894394793 L 34.00000000005821 227.0078126079752 L 36.66406297602225 227.21484390395926 L 39.429687296040356 227.51953100797255 L 43.11718707205728 228.2382817279431 L 45.98437478404958 228.75000012794044 L 50.38281216006726 229.56640665594023 L 54.37500006402843 230.08203161595156 L 57.03906201606151 230.1835939839366 L 59.601562624040525 229.8750003199675 L 61.95312537602149 229.3632808959228 L 64.51562496001134 228.75000012794044 L 67.89843763201497 228.03125043195905 L 72.60156211204594 226.29296844796045 L 77.10937497601844 224.34765619196696 L 81.3124997120467 222.80859340797178 L 84.6875002880115 221.88671897596214 L 86.83593728003325 221.07031244796235 L 89.09374976000981 220.0468746239203 L 91.64843724801904 218.81640652794158 L 94.41406259202631 217.5859374079737 L 96.25781248003477 216.56249958393164 L 99.32812492805533 214.92578099196544 L 103.11718707205728 213.28515583992703 L 105.88281241606455 212.36328140791738 L 108.9531248640269 211.1367188479635 L 112.85156249604188 210.52343705593375 L 115.50781235203613 210.3164057599497 L 119.29687449603807 210.8281251839362 L 121.75781273603207 211.74999961594585 L 126.3671879680478 212.57031270395964 L 130.3593748480198 212.7734374399297 L 133.6328120320104 213.183593471942 L 137.7343754240428 213.5937495039543 L 143.05468723201193 214.20703129592584 L 146.5390622720588 214.8242186239222 L 151.3515622400446 215.84765644796425 L 155.74999961606227 216.97265663993312 L 159.33593702403596 217.9960934399278 L 165.68749977601692 220.0468746239203 L 169.27343718404882 221.07031244796235 L 172.9609379840549 221.5820308479597 L 176.03125043201726 221.99218790396117 L 179.50781235203613 222.0937502719462 L 183.60937472002115 221.99218790396117 L 186.47656243201345 221.5820308479597 L 189.1328122880659 220.96484351996332 L 191.59374950401252 218.71484415995656 L 192.82031206402462 215.02734335995046 L 192.4140625920263 211.1367188479635 L 191.28906240005745 206.93749964796007 L 190.2656245760154 203.96874956792453 L 188.82812518405262 201.4101565439487 L 187.80468736001058 199.25781299197115 L 185.3515622400446 195.87890585593414 L 182.89062502403976 192.4999997439445 L 180.53125017601997 190.04296908795368 L 177.87500032002572 186.76562534394907 L 175.61718784004916 182.66796851193067 L 174.49218764802208 179.28906239994103 L 173.98437478404958 175.29687449592166 L 174.18749952001963 173.4531246079714 L 175.82812467205804 170.38281215995084 L 178.79687475203536 166.69531238393392 L 181.4531246080296 164.2382817279431 L 184.6328125440632 161.98437478393316 L 186.57812480005668 160.65234329592204 L 189.03124992002267 159.42578175995732 L 191.4921871360275 157.99218790396117 L 195.89843763201497 156.0468746239203 L 199.07031244802056 154.09765580797102 L 201.93750016001286 152.56249958393164 L 204.18749952001963 150.10546892794082 L 209.3124997120467 146.3164057599497 L 211.66406246402767 145.29296895995503 L 214.01562521606684 142.7343749119318 L 215.4531246080296 140.99218739196658 L 217.19531212805305 138.2265620479593 L 218.42187468806515 135.76953139196848 L 219.546874880034 133.0039060479612 L 220.46875033603283 128.80859340797178 L 220.46875033603283 126.04296908795368 L 219.445312512049 121.74218751996523 L 215.14843750401633 117.74609407992102 L 211.35937536001438 115.28906239994103 L 207.46874982403824 113.24218777596252 L 203.57812531205127 111.08984422392678 L 201.01562470401404 110.06640639994293 L 197.84374988806667 109.35156223992817 L 195.38281267206185 108.63281254394678 L 192.82031206402462 107.71093708794797 L 189.85156300803646 107.30468761594966 L 187.5000002560555 107.40624998393469 L 185.24218777602073 106.99609395192238 L 180.42968780803494 106.17578086396679 L 176.1328128000605 105.56250009592623 L 173.26562508800998 105.25390643195715 L 170.39843737601768 105.15234406397212 L 166.4062504960457 104.9492183039547 L 163.43750041601015 104.84375039994484 L 159.9531253760215 104.9492183039547 L 155.74999961606227 104.9492183039547 L 152.88281292805914 105.15234406397212 L 147.56250009604264 104.9492183039547 L 143.57031219202327 104.84375039994484 L 140.28906291205203 104.53906227194238 L 137.6328120320104 103.92187494394602 L 135.47656294406625 103.30859417596366 L 132.30468710401328 101.57031219196506 L 130.8671877120505 99.51953100797255 L 129.6406251520384 97.3710940159508 L 127.89843763201497 95.32031283195829 L 125.64843724801904 92.25000038393773 L 124.32031232002191 89.38281267194543 L 123.90624972805381 86.8242186239222 L 124.10937548801303 84.46875033597462 L 125.1328122880659 81.70312499196734 L 127.07812454405939 79.03906201594509 L 128.82031206402462 76.78906265593832 L 130.3593748480198 75.0468751359731 L 132.10156236804323 72.79296921595233 L 134.55468748806743 70.54296883195639 L 136.812499968044 68.18749951996142 L 139.06250035203993 66.24218726396793 L 142.4453120000544 63.988281343947165 L 145.71875020803418 61.83593779196963 L 148.07031296001514 59.89062451192876 L 151.14843750401633 56.92187545594061 L 153.80468736001058 53.5429683199618 L 155.8593751040171 52.10937548795482 L 158.00781209603883 51.08593766397098 L 160.7734374400461 49.5507814399316 L 162.92187545605702 47.500000255939085 L 165.1718748160638 45.656250367930625 L 167.6328120320104 43.91796838393202 L 170.80468787206337 40.64062463992741 L 172.34374963201117 37.16015615995275 L 173.98437478404958 31.218750463973265 L 173.7734379520407 26.917968895926606 L 172.34374963201117 22.824218623922206 L 170.39843737601768 18.62500044796616 L 169.06250035203993 16.472655871941242 L 166.812499968044 12.277344255940989 L 164.66406297602225 9.613281279918738 L 162.92187545605702 7.976562687952537 L 160.46093721606303 6.02734387194505 L 157.4921871360275 3.5703121919650584 L 155.445312512049 0.9101557759568095 L 154.93212344447966 0.0" fill="none"/><path stroke="#000000" stroke-width="2" d="M 1024.0 224.13375823382376 L 1022.8749998080311 224.34765619196696 L 1016.6328125440632 225.3710940159508 L 1012.8437504000613 226.49609420791967 L 1009.0546872320119 227.82812467194162 L 1005.8750003200257 228.9531248639687 L 1003.4218752000597 229.56640665594023 L 999.4296872960404 230.5937500159489 L 994.8203120640246 231.51562547194771 L 991.7499996160623 232.33203097595833 L 987.546874880034 233.15234406397212 L 984.3750000640284 233.8710937599535 L 977.2031252480228 234.6875002879533 L 972.6015621120459 233.97265612793854 L 970.3437496320112 233.8710937599535 L 967.3749995520338 234.48437452793587 L 963.1796879360336 234.277344255941 L 959.0781245440594 234.38281215995084 L 955.5000002560555 234.58593791996827 L 951.5046799360425 234.9955071999575 L 946.5859379200265 234.07421849592356 L 939.6249999360298 232.74218700797064 L 935.2265625600121 231.61718783993274 L 929.5937495040125 231.00000051193638 L 927.4375004160102 230.1835939839366 L 920.6796871680417 228.2382817279431 L 916.281249792024 227.10937497596024 L 912.5937500160653 226.0859371519182 L 910.4453120000544 224.34765619196696 L 906.4453120000544 222.70703103992855 L 901.8437498880667 221.2734371839324 L 896.109375488013 219.12500019196887 L 887.6093747200212 216.25781247991836 L 885.1484375040163 215.43750041595194 L 879.9296870400431 214.10546892794082 L 876.6484377600136 213.183593471942 L 873.6796876800363 212.36328140791738 L 868.6640629760223 211.1367188479635 L 864.3593748480198 210.01171865593642 L 856.4765624320135 208.6796871679253 L 845.4218752000597 207.14453094394412 L 838.7656253440655 206.22265651193447 L 831.2890624000574 205.30078105593566 L 820.8437504000613 203.8671871999395 L 812.1406248960411 201.5117189119337 L 808.0390625280561 199.76953139196848 L 806.3046871040133 199.05468723195372 L 804.1484369920217 197.0039060479612 L 799.4375004160102 193.3203128319583 L 796.5703127040179 190.75781222392106 L 793.2968744960381 186.66406297596404 L 791.1484375040163 182.87499980797293 L 788.179687424039 177.1406254079193 L 787.1484375040163 173.5546879999456 L 786.3359375360305 169.56250009592623 L 785.9218749440624 165.57031219196506 L 785.2031252480228 160.34765619196696 L 784.7968747520354 156.453125119966 L 784.6953123840503 152.15234355191933 L 784.7968747520354 149.28515583992703 L 784.8984371200204 145.08984422392678 L 785.4140620800317 141.0937497599516 L 785.8203125760192 137.30468761594966 L 786.2343751680455 133.0039060479612 L 786.5390622720588 129.62499993597157 L 786.3359375360305 122.35546828794759 L 786.1249996800325 118.46484377596062 L 785.5156254720641 115.80078079993837 L 784.281249792024 110.17187532794196 L 781.7265623040148 106.07421849592356 L 778.0390625280561 101.46484326396603 L 775.4765629440662 99.10937497596024 L 772.4062504960457 95.21875046397327 L 770.2578124800348 92.14843699196354 L 768.109375488013 88.97265663993312 L 766.0546877440647 86.10546892794082 L 763.2968744960381 82.21484339196468 L 761.4531246080296 79.44921907194657 L 755.4062499840511 73.816406015947 L 749.5703121920233 66.95703142392449 L 745.7812500480213 63.167968255933374 L 742.5078128640307 59.89062451192876 L 737.5937495040125 56.207031295925844 L 732.5703127040179 49.957030911929905 L 729.6015626240405 46.27343769592699 L 726.2265620480175 40.64062463992741 L 723.968749568041 36.238281727943104 L 722.1249996800325 33.16406271996675 L 721.7187502080342 29.07031244796235 L 720.9999994880636 24.35937484796159 L 720.5937500160653 16.472655871941242 L 719.7734379520407 11.355468799942173 L 718.9531248640269 7.976562687952537 L 717.4140620800317 4.082031615951564 L 715.4887799385324 0.0" fill="none"/></svg>