<svg xmlns="http://www.w3.org/2000/svg" width="1024" height="1024"><rect stroke="none" x="0" y="0" width="1024" height="1024" fill="white"/><path stroke="#000000" stroke-width="2" d="M 0.0 503.9368256985472 L 0.6171873280545697 504.5117183999391 L 0.21093785611446947 507.17578137590317 L 3.3828126720618457 509.94140671991045 L 1.843749888066668 513.9335935998824 L 1.7421875200234354 517.824219135975 L 3.3828126720618457 519.8710937598953 L 4.507812864030711 522.7382814718876 L 5.226562560012098 525.710937087948 L 5.226562560012098 530.9296875519212 L 4.82031206402462 535.3359370239777 L 4.710937600117177 537.8945310718263 L 3.281250304018613 540.2500003838213 L 1.7421875200234354 543.4257817598409 L 1.640625152096618 546.6992189438315 L 2.054687744064722 549.4648432639078 L 2.2578124800347723 551.7187502078596 L 3.281250304018613 555.1992186878342 L 4.812499968043994 559.9101562878932 L 6.656249856052455 562.472655871883 L 11.265625088009983 564.7226562558208 L 15.671874560066499 567.1796879360336 L 20.382812160125468 568.82031206385 L 23.04687513608951 569.4335938558797 L 28.882812928117346 570.5624995838734 L 30.92968755203765 573.0195312639116 L 34.00000000005821 578.7539066879544 L 36.14843699202174 586.4335933438269 L 37.5859374080901 590.6289059838164 L 34.82031206408283 592.984375295986 L 28.882812928117346 597.800780799822 L 24.578124800114892 599.4375004158355 L 21.101562880037818 601.8945310719428 L 19.562500096100848 608.1406248959247 L 19.359375360014383 611.007812607917 L 20.789062656171154 614.1835939839366 L 23.24999987205956 616.8437503998866 L 25.601562624098733 618.3828121598926 L 28.164062208030373 620.0195307519753 L 31.74999961606227 622.1679687678115 L 28.36718796810601 623.8085939199664 L 23.757812736090273 623.8085939199664 L 20.179687424039003 623.7070315519231 L 17.820312576019205 622.7851560959825 L 14.953124864085112 624.3203123198473 L 13.31249971210491 626.6757816318423 L 11.984374784107786 630.0546877438901 L 13.007812608091626 633.640625151922 L 16.281249792024028 634.8671877118177 L 19.86718720011413 634.4570316798054 L 23.351562240102794 634.2539059198461 L 27.140625408035703 635.27734374383 L 29.289062400057446 637.1210936318967 L 27.242187776078936 639.7812500479631 L 24.375000064028427 641.1132815359742 L 20.687500288069714 640.7031255039619 L 17.718750208092388 640.9101557759568 L 15.05468723201193 642.9570314238081 L 14.132812800060492 646.4374999038992 L 16.89843712002039 649.8164060158306 L 16.49218764808029 652.7890626559383 L 13.929687040043063 655.8593751038425 L 11.679687680094503 658.0117186558782 L 8.39843737607589 660.980468735972 L 3.8984376320731826 664.1523435519193 L 0.41406259208451957 666.1015623678686 L 0.0 666.4153782722424" fill="none"/><path stroke="#000000" stroke-width="2" d="M 0.0 694.7418685819648 L 2.2578124800347723 694.9765621758997 L 5.429687296098564 695.5898439679295 L 8.296875008032657 696.5117183999391 L 11.679687680094503 697.3320314878947 L 14.75000012817327 698.6640629759058 L 17.51562547206413 699.7890621438273 L 21.914062848023605 701.3242183678667 L 26.835937280091457 703.1679682559334 L 30.82812518416904 704.8085934078554 L 33.28125030407682 705.6249999359134 L 36.04687462403672 706.6484377599554 L 40.140624896099325 708.1874995199614 L 44.75000012811506 709.6210933759576 L 48.640624640043825 711.2578129919712 L 52.74218700808706 712.4882810878335 L 56.73437491216464 713.3046876158915 L 60.421874688065145 714.6367191039026 L 63.08593766402919 716.171875327942 L 66.05468774406472 717.5039057920221 L 68.92187545611523 719.7578127359739 L 71.47656294412445 722.7265628158348 L 73.73437542404281 725.390624767926 L 75.57812531205127 727.7460940798628 L 77.52343756804476 730.2031247360283 L 80.49218764802208 732.8632811519201 L 83.56250009604264 735.0156247038976 L 86.22656204801751 736.6523432958056 L 87.8593751041335 737.9843747838167 L 90.62500044802437 740.0312504318426 L 95.9531253760797 742.5937500158325 L 98.82031206402462 744.2304686079151 L 101.07031244802056 746.277344255941 L 103.11718707211548 748.3281254399335 L 105.88281241612276 750.1679687678698 L 108.75000012805685 752.117187583819 L 111.41406208003173 754.3671879679314 L 113.97656268801074 757.644531711936 L 111.71875020803418 760.2031247359118 L 108.96093798405491 759.488281599828 L 106.09375027217902 759.0781245438848 L 102.09375027212081 759.1796879360336 L 98.82031206402462 762.7656253438327 L 97.89843763201497 767.0664058878319 L 94.82812518411083 768.9101557758404 L 92.2656245760154 769.3203128319583 L 90.01562521612504 769.2148439038428 L 87.24999987211777 769.0117191678146 L 83.35937536007259 768.2929684479022 L 79.87500032008393 767.3749995519756 L 77.52343756804476 768.7031255040201 L 78.03125043201726 772.3906252798624 L 81.61718784004916 774.0312504318426 L 84.58593792002648 772.4921876479057 L 87.65625036804704 772.6992189438315 L 88.78124953602673 775.7695313919685 L 86.93749964807648 779.558593535854 L 84.99218739202479 782.3242188798613 L 81.3124997120467 784.6796871679835 L 78.64843776001362 787.9570309118135 L 78.44531200011261 790.9257809919072 L 78.75000012811506 793.7929687039577 L 76.60156211216236 796.66015641595 L 73.83593779208604 798.7070310398703 L 71.78906214406015 799.6289064958692 L 68.71093760005897 800.0390625278815 L 64.7187496960396 800.6523432959802 L 60.523437056166586 800.8593745919061 L 56.93749964807648 800.6523432959802 L 52.640624640043825 800.2421872639679 L 47.10937497607665 800.6523432959802 L 41.984374784107786 800.9609379838221 L 38.91406233608723 800.550780927937 L 36.46093721612124 799.9375001598382 L 32.77343744004611 799.4257817599573 L 29.804687360068783 800.0390625278815 L 26.015625216066837 802.187499519845 L 22.632812544121407 805.3632808958646 L 20.58593792002648 808.2304686078569 L 20.484374528052285 810.9960939518642 L 23.351562240102794 813.3515622399282 L 26.937499648018274 815.5000002558227 L 31.03124992008088 814.7851560958079 L 35.12500019208528 815.1953121278202 L 38.406250496103894 818.265624575899 L 39.11718707205728 820.8242186238058 L 37.5859374080901 822.7734374399297 L 35.742187520023435 824.5117183998227 L 32.46093721612124 825.640625151922 L 28.265624576073606 827.1757813760196 L 24.882812928117346 828.6093752318411 L 21.812500480096787 829.3242183679249 L 18.124999680032488 830.347656191967 L 15.257812992087565 831.2695316479076 L 11.57812531205127 832.3984373759013 L 6.867187712050509 833.8320312319556 L 3.078124544059392 835.0585937918513 L 0.0 836.2128910963802" fill="none"/><path stroke="#000000" stroke-width="2" d="M 0.0 836.2128910963293 L 3.078124544059392 835.0585937919677 L 6.867187712050509 833.8320312319556 L 11.57812531205127 832.3984373759595 L 15.257812992029358 831.2695316479658 L 18.124999680032488 830.347656191967 L 21.81250048003858 829.3242183679249 L 24.88281292805914 828.6093752319575 L 28.265624576015398 827.1757813759614 L 32.46093721606303 825.640625151922 L 35.742187520023435 824.5117183999391 L 37.585937408031896 822.7734374399297 L 39.11718707205728 820.8242186239222 L 38.406250496045686 818.2656245759572 L 35.12500019202707 815.1953121279366 L 31.031249920022674 814.7851560959243 L 26.937499648018274 815.5000002559391 L 23.351562240044586 813.3515622399282 L 20.484374528052285 810.9960939519224 L 20.58593792002648 808.2304686079733 L 22.6328125440632 805.3632808959228 L 26.015625216066837 802.1874995199614 L 29.804687360010576 800.0390625279397 L 32.77343744004611 799.4257817599573 L 36.46093721606303 799.9375001599547 L 38.91406233602902 800.550780927937 L 41.98437478404958 800.9609379839385 L 47.109374976018444 800.652343295922 L 52.640624640043825 800.2421872639679 L 56.937499648018274 800.652343295922 L 60.52343705605017 800.8593745919643 L 64.7187496960396 800.652343295922 L 68.71093760005897 800.0390625279397 L 71.78906214406015 799.6289064959274 L 73.83593779202783 798.7070310399286 L 76.60156211204594 796.66015641595 L 78.75000012805685 793.7929687039577 L 78.4453120000544 790.9257809919654 L 78.64843776001362 787.9570309119299 L 81.3124997120467 784.6796871679253 L 84.99218739202479 782.3242188799195 L 86.93749964801827 779.5585935359704 L 88.78124953602673 775.7695313919685 L 87.65625036804704 772.6992189439479 L 84.58593792002648 772.4921876479639 L 81.61718784004916 774.031250431959 L 78.03125043201726 772.3906252799206 L 77.52343756804476 768.7031255039619 L 79.87500032002572 767.3749995519756 L 83.35937536001438 768.2929684479604 L 87.24999987205956 769.011719167931 L 90.01562521606684 769.2148439039593 L 92.2656245760154 769.3203128319583 L 94.82812518405262 768.9101557759568 L 97.89843763201497 767.0664058879483 L 98.82031206402462 762.7656253439491 L 102.09375027206261 759.1796879359754 L 106.09375027206261 759.078124543943 L 108.96093798405491 759.4882815999445 L 111.71875020803418 760.20312473597 L 113.97656268801074 757.644531711936 L 111.41406208003173 754.3671879679314 L 108.75000012805685 752.1171875839354 L 105.88281241606455 750.167968767928 L 103.11718707205728 748.3281254399335 L 101.07031244802056 746.277344255941 L 98.82031206402462 744.2304686079733 L 95.95312537602149 742.5937500159489 L 90.62500044802437 740.031250431959 L 87.85937510401709 737.9843747839332 L 86.22656204801751 736.652343295922 L 83.56250009604264 735.0156247039558 L 80.49218764802208 732.8632811519201 L 77.52343756804476 730.20312473597 L 75.57812531205127 727.746094079921 L 73.73437542404281 725.390624767926 L 71.47656294406625 722.7265628159512 L 68.92187545605702 719.7578127359739 L 66.05468774406472 717.5039057919639 L 63.08593766402919 716.171875327942 L 60.421874688065145 714.6367191039608 L 56.734374912048224 713.3046876159497 L 52.74218700802885 712.4882810879499 L 48.640624640043825 711.2578129919712 L 44.750000128056854 709.6210933759576 L 40.14062489604112 708.1874995199614 L 36.04687462403672 706.6484377599554 L 33.28125030401861 705.6249999359716 L 30.828125184052624 704.8085934079718 L 26.83593728003325 703.1679682559334 L 21.914062848023605 701.3242183679249 L 17.51562547206413 699.7890621439437 L 14.750000128056854 698.664062975964 L 11.679687680036295 697.3320314879529 L 8.296875008032657 696.5117183999391 L 5.429687296040356 695.5898439679295 L 2.2578124800347723 694.976562175958 L 0.0 694.7418685819794" fill="none"/><path stroke="#000000" stroke-width="2" d="M 0.0 666.4153782722497 L 0.4140625920263119 666.1015623679268 L 3.898437632014975 664.1523435519193 L 8.398437376017682 660.980468735972 L 11.679687680036295 658.0117186559364 L 13.929687040043063 655.8593751039589 L 16.49218764802208 652.7890626559383 L 16.89843712002039 649.816406015947 L 14.132812800060492 646.4374999039574 L 15.05468723201193 642.9570314239245 L 17.71875020803418 640.9101557759568 L 20.687500288011506 640.7031255039619 L 24.375000064028427 641.1132815359742 L 27.242187776020728 639.7812500479631 L 29.289062400057446 637.1210936319549 L 27.140625408035703 635.2773437439464 L 23.351562240044586 634.2539059199626 L 19.867187200055923 634.4570316799218 L 16.281249792024028 634.8671877119341 L 13.007812608033419 633.640625151922 L 11.984374784049578 630.0546877439483 L 13.312499712046701 626.6757816319587 L 14.953124864026904 624.3203123199637 L 17.820312576019205 622.7851560959243 L 20.179687424039003 623.7070315519231 L 23.757812736032065 623.8085939199664 L 28.3671879680478 623.8085939199664 L 31.74999961606227 622.167968767928 L 28.164062208030373 620.0195307519753 L 25.601562624040525 618.3828121599508 L 23.24999987205956 616.8437503999448 L 20.78906265605474 614.1835939839366 L 19.359375360014383 611.0078126079752 L 19.56250009604264 608.1406248959247 L 21.101562880037818 601.8945310719428 L 24.578124800056685 599.437500415952 L 28.88281292805914 597.8007807999384 L 34.82031206402462 592.9843752959277 L 37.585937408031896 590.6289059839328 L 36.14843699202174 586.4335933439434 L 34.00000000005821 578.7539066879544 L 30.92968755203765 573.0195312639698 L 28.88281292805914 570.5624995839316 L 23.046875136031304 569.4335938559379 L 20.38281216006726 568.8203120639664 L 15.671874560066499 567.1796879359754 L 11.265625088009983 564.7226562559372 L 6.656249856052455 562.4726558719412 L 4.812499968043994 559.9101562879514 L 3.281250304018613 555.1992186879506 L 2.2578124800347723 551.718750207976 L 2.054687744064722 549.464843263966 L 1.6406251520384103 546.6992189439479 L 1.7421875200234354 543.4257817599573 L 3.281250304018613 540.2500003839377 L 4.710937600058969 537.8945310719428 L 4.82031206402462 535.3359370239195 L 5.226562560012098 530.9296875519212 L 5.226562560012098 525.710937087948 L 4.507812864030711 522.7382814719458 L 3.3828126720618457 519.8710937599535 L 1.7421875200234354 517.824219135975 L 1.843749888066668 513.9335935999407 L 3.3828126720618457 509.94140671996865 L 0.2109378560562618 507.1757813759614 L 0.6171873280545697 504.5117183999391 L 0.0 503.9368256985472" fill="none"/></svg>