<svg xmlns="http://www.w3.org/2000/svg" width="1024" height="1024"><rect stroke="none" x="0" y="0" width="1024" height="1024" fill="white"/><path stroke="#408040" stroke-width="3" d="M 360.014749721362 0.0 L 353.66912000000593 5.529600000001665 L 352.07167999999365 20.582399999999325 L 342.1695999999938 48.70143999999709 L 336.0358399999968 67.93215999999666 L 334.44864000000234 94.08512000000337 L 332.26751999999397 149.89312000000064 L 302.00831999999355 199.3932799999966 L 286.33087999999407 221.14304000000266 L 274.6982399999979 256.7884800000029 L 288.9728000000032 281.09823999999935 L 304.5580800000025 294.26688000000286 L 314.35775999999896 309.9852800000008 L 316.80512000000454 330.63936000000103 L 327.50591999999597 339.66079999999783 L 333.0457599999936 357.79583999999886 L 333.24031999999715 383.33439999999973 L 343.13215999999375 402.2579199999964 L 341.8726400000014 417.5462400000033 L 329.19551999999385 433.8585600000006 L 322.4985600000073 451.7068799999979 L 317.0099199999968 463.08352000000014 L 306.3500800000038 476.09855999999854 L 295.52640000000247 492.82048000000214 L 290.4780800000008 503.0400000000009 L 291.16416000000027 517.7241599999979 L 292.74112000000605 537.4771200000032 L 294.778879999998 551.0656000000017 L 300.52352000000246 573.4502399999983 L 297.21600000000035 621.5577600000033 L 300.482560000004 644.0243199999968 L 306.2783999999956 661.3094399999973 L 324.9459199999983 698.6137600000002 L 367.10400000000664 775.4649599999975 L 366.7763200000045 790.5996799999994 L 358.0313599999936 806.8096000000005 L 346.56256000000576 819.6300800000026 L 329.71775999999954 830.2387200000012 L 313.2415999999939 841.3900799999974 L 303.10400000000664 856.2073600000003 L 265.9123200000031 887.6851200000019 L 253.55263999999443 903.7926399999997 L 237.9673599999951 913.5308799999984 L 229.57055999999284 920.5350400000025 L 226.72384000000602 927.7849599999972 L 225.19808000000194 935.8540799999973 L 212.46976000000723 939.3356799999965 L 204.10368000000017 951.1014399999985 L 194.38592000000062 968.2534400000004 L 179.81440000000293 982.6406399999978 L 167.76192000000447 1001.6460799999986 L 151.57248000000254 1021.7983999999997 L 150.9527703703643 1024.0" fill="none"/><path stroke="#408040" stroke-width="3" d="M 1024.0 126.85551397490053 L 1017.8047999999981 126.19776000000275 L 989.1839999999938 130.85695999999734 L 963.9628800000064 126.52543999999762 L 934.5740800000058 126.35136000000057 L 894.5459200000041 120.10495999999694 L 815.872000000003 103.87455999999656 L 768.3174399999989 95.53919999999925 L 750.8479999999981 90.35775999999896 L 739.9116800000047 88.25856000000203 L 729.9891199999984 86.9785600000032 L 721.5308800000057 89.75359999999637 L 701.921279999995 92.03712000000087 L 694.2207999999955 93.33759999999893 L 691.1795200000051 94.87359999999899 L 687.5238399999944 93.46048000000155 L 685.4963200000057 90.70592000000033 L 681.3081600000005 90.61376000000018 L 671.0681599999953 90.62400000000343 L 662.1900800000003 90.65471999999863 L 654.6841600000043 88.16640000000189 L 640.409599999999 87.142399999997 L 609.8841600000014 84.02943999999843 L 602.5727999999945 82.63680000000022 L 593.3567999999941 81.07007999999769 L 586.7315200000012 82.12479999999778 L 577.8636799999949 81.25439999999799 L 570.3680000000022 76.82048000000214 L 563.3331199999957 70.98367999999755 L 556.7692799999932 63.109120000000985 L 549.9801600000064 57.067519999996875 L 541.1225600000034 40.232960000001185 L 536.5452800000057 26.327039999996487 L 532.4492800000007 20.5107199999984 L 518.307839999994 19.77343999999721 L 511.8668800000014 20.633600000001024 L 506.57279999999446 17.85856000000058 L 493.4348800000007 13.015039999998407 L 481.4438400000072 8.314879999998084 L 476.80512000000454 7.557119999997667 L 474.69568000000436 7.372799999997369 L 473.4259199999942 7.167999999997846 L 472.07424000000174 5.365760000000591 L 471.97183999999834 1.6384000000034575 L 472.1486457553983 0.0" fill="none"/></svg>