<svg xmlns="http://www.w3.org/2000/svg" width="1024" height="1024"><rect stroke="none" x="0" y="0" width="1024" height="1024" fill="white"/><path stroke="#408040" stroke-width="3" d="M 8.816640000004554 814.7148799999995 L 6.799360000004526 813.7420800000036 L 6.031359999993583 813.373440000003 L 5.724159999997937 813.1686400000035 L 5.201920000006794 812.6156800000026 L 4.966400000004796 812.4723200000008 L 1.9763200000015786 812.4518400000015 L 0.0 812.454521573949" fill="none"/><path stroke="#408040" stroke-width="3" d="M 1024.0 235.18473208633804 L 1022.6073599999945 233.9123200000031 L 1021.9724799999967 233.51296000000002 L 1021.3683199999941 233.14431999999942 L 1020.7948800000013 232.9395199999999 L 1019.9859200000064 232.73472000000038 L 1015.3267199999973 232.14080000000104 L 1009.4694400000008 230.91199999999662 L 1007.7081599999947 230.42048000000068 L 1004.7692799999932 229.4169600000023 L 1001.9123200000031 228.33151999999973 L 1000.796159999998 227.53280000000086 L 999.8540800000046 226.47808000000077 L 996.8537599999981 223.09887999999773 L 995.7375999999931 222.15679999999702 L 994.7852799999964 221.64480000000185 L 993.6383999999962 221.21472000000358 L 991.1808000000019 220.78463999999803 L 988.6208000000042 220.51840000000084 L 987.1359999999986 220.5491200000033 L 985.9891199999984 220.77440000000206 L 983.4188799999974 221.6038400000034 L 982.5177600000025 222.06463999999687 L 981.0227199999936 223.0783999999985 L 979.6607999999978 223.6313599999994 L 974.4281599999958 224.39936000000307 L 973.0252800000017 224.30720000000292 L 969.8406399999949 223.6313599999994 L 968.7654400000029 223.52896000000328 L 967.5571199999977 223.61088000000018 L 963.9014400000015 224.3686400000006 L 961.4438400000072 225.01376000000164 L 960.3891200000071 225.40288000000146 L 957.511679999996 226.80576000000292 L 954.7571199999948 228.61824000000342 L 950.906879999995 231.10656000000017 L 947.8656000000046 233.0726399999985 L 945.3260799999989 235.26400000000285 L 944.7014400000044 236.1753600000011 L 944.4556799999991 236.85119999999733 L 944.3737600000022 237.62943999999698 L 944.3942399999942 238.42816000000312 L 944.5478399999993 239.87200000000303 L 944.8243199999997 240.96768000000156 L 945.1110400000034 241.81760000000213 L 946.4729599999991 244.62335999999777 L 946.9337599999999 245.96480000000156 L 946.9030400000047 247.1628800000035 L 946.6572799999994 248.44288000000233 L 946.1657600000035 249.81504000000132 L 945.00864 251.47391999999672 L 942.9504000000015 253.94176000000152 L 942.1004799999937 254.7609599999996 L 938.6803199999995 257.0751999999993 L 936.8064000000013 258.17087999999785 L 935.2294399999955 258.6828800000003 L 934.0620800000033 259.29727999999886 L 933.7139199999947 259.56352000000334 L 933.3043199999956 259.95264000000316 L 933.6115200000058 260.106240000001 L 933.9289600000047 260.2905600000013 L 933.9903999999951 260.3315199999997 L 934.0825599999953 260.48511999999755 L 933.4886399999959 261.08928000000014 L 933.4476799999975 261.2633599999972 L 933.5807999999961 261.27360000000044 L 934.1849599999987 260.751360000002 L 935.1577600000019 260.13696000000346 L 935.3830400000006 260.03456000000006" fill="none"/><path stroke="#408040" stroke-width="3" d="M 29.931519999998272 148.09088000000338 L 29.921279999995022 147.70176000000356 L 31.426560000007157 147.2204800000036 L 32.66559999999299 146.84159999999974 L 33.279999999998836 146.64704000000347 L 36.044800000003306 145.72544000000198 L 36.526079999996 145.54112000000168 L 37.65248000000429 145.78687999999966 L 39.57760000000417 146.18624000000273 L 41.625599999999395 146.63680000000022 L 45.383679999999 147.07712000000174 L 47.82080000000133 147.09760000000097 L 53.32992000000377 146.67775999999867 L 55.347200000003795 146.60607999999775 L 66.18111999999383 147.17951999999786 L 83.79391999999643 148.09088000000338 L 96.04095999999845 148.72576000000117 L 98.09919999999693 148.65408000000025 L 101.0176000000065 148.17280000000028 L 102.88128000000142 147.90656000000308 L 108.39040000000386 148.03968000000168 L 113.29536000000371 148.17280000000028 L 114.380799999999 148.20352000000275 L 117.66783999999461 148.6950399999987 L 131.93215999999666 151.12191999999777 L 137.31840000000375 152.0332800000033 L 141.13791999999376 152.57600000000093 L 143.56479999999283 152.4224000000031 L 147.0156799999968 151.8796799999982 L 150.9273600000015 151.2448000000004 L 154.1324800000002 150.51776000000245 L 168.4172799999942 146.67775999999867 L 181.96480000000156 143.03231999999844 L 185.32352000000537 142.11071999999695 L 187.61728000000585 141.57824000000255 L 194.35520000000542 141.44511999999668 L 196.6796800000011 141.1993599999987 L 200.9088000000047 140.19584000000032 L 207.41120000000228 138.23999999999796 L 208.95743999999831 137.76896000000124 L 213.46304000000237 137.1238400000002 L 226.77503999999317 135.38304000000062 L 227.6556799999962 135.37279999999737 L 228.21888000000035 135.20896000000357 L 235.57120000000577 134.21568000000116 L 241.4079999999958 133.47839999999997 L 243.5891200000042 133.47839999999997 L 244.93055999999342 133.6012800000026 L 247.20384000000195 134.0723199999993 L 254.27968000000692 135.731200000002 L 257.17759999999544 136.00768000000244 L 264.8064000000013 136.02816000000166 L 272.0358399999968 136.0691200000001 L 274.73919999999634 136.49919999999838 L 276.8793600000063 136.8371199999965 L 278.31295999999566 136.89856000000145 L 285.2147200000036 137.03168000000005 L 286.68928000000597 137.34911999999895 L 287.9487999999983 137.8611200000014 L 297.50272000000405 142.7763199999972 L 300.33920000000217 144.17919999999867 L 305.0905599999969 146.23743999999715 L 314.6547200000059 151.13216000000102 L 320.5529600000009 154.1632000000027 L 329.3081600000005 158.6585600000035 L 332.10368000000017 159.98975999999675 L 334.4896000000008 160.79871999999887 L 340.13184000000183 162.734080000002 L 347.9756800000032 165.4476799999975 L 351.8975999999966 166.79935999999725 L 359.9667199999967 169.5436800000025 L 362.79296000000613 169.96351999999752 L 364.55423999999766 169.98399999999674 L 368.59904000000097 169.66655999999784 L 377.3644800000038 168.9395199999999 L 383.0783999999985 168.45823999999993 L 386.4371200000023 168.3046400000021 L 388.32128000000375 168.6732800000027 L 390.0825599999953 169.5743999999977 L 391.249920000002 170.84416000000056 L 391.7823999999964 172.10368000000017 L 391.71072000000277 173.0662400000001 L 391.1065600000002 173.99807999999757 L 389.9494399999967 175.2473600000012 L 389.5193600000057 176.03583999999682 L 389.43743999999424 176.9881600000008 L 389.6319999999978 177.67424000000028 L 390.09279999999853 178.36031999999977 L 394.69056000000273 182.26176000000123 L 397.10719999999856 184.268799999998 L 398.7046399999963 185.15967999999702 L 402.4012800000055 186.6854400000011 L 404.3059199999989 187.3203199999989 L 407.75680000000284 188.22144000000117 L 409.3747200000071 188.91775999999663 L 411.9756800000032 189.9212800000023 L 413.2147200000036 189.97247999999672 L 413.8496000000014 189.83935999999812 L 416.44031999999424 188.80511999999726 L 418.1913599999971 188.64128000000346 L 419.5532799999928 188.88704000000143 L 420.4441599999991 189.25568000000203 L 424.5503999999928 191.34464000000298 L 427.366399999999 191.93856000000233 L 429.89568000000145 192.28671999999642 L 431.21663999999873 192.12288000000262 L 434.4115199999942 190.9760000000024 L 436.4185600000055 190.638079999997 L 438.8966400000063 190.9248000000007 L 439.70560000000114 191.13984000000346 L 440.4531200000056 191.5801599999977 L 441.0777600000001 192.2662399999972 L 441.6000000000058 193.0751999999993 L 442.3475199999957 193.66911999999866 L 442.9823999999935 193.97632000000158 L 444.4774400000024 194.30399999999645 L 445.96223999999347 194.62144000000262 L 447.20127999999386 195.17440000000352 L 448.8191999999981 195.93215999999666 L 451.5942400000058 196.6796800000011 L 453.8675199999998 197.0995200000034 L 457.24671999999555 197.1302399999986 L 458.56767999999283 197.4476799999975 L 459.7555200000061 197.53983999999764 L 461.5372800000041 197.29407999999967 L 463.11423999999533 196.63872000000265 L 464.0051200000016 195.9936000000016 L 465.68447999999626 194.77504000000044 L 466.82111999999324 194.40639999999985 L 468.869120000003 194.33471999999892 L 470.7430400000012 194.4166400000031 L 472.05375999999524 194.67263999999705 L 474.2860800000053 195.59423999999854 L 479.6518400000059 198.11327999999776 L 482.5804800000042 199.63904000000184 L 484.7308800000028 200.60160000000178 L 486.6252799999929 200.64256000000023 L 488.07936000000336 200.31487999999808 L 489.82016000000294 200.05887999999686 L 492.9638399999967 200.22271999999793 L 493.9878400000016 200.58112000000256 L 494.86848000000464 201.21600000000035 L 495.56479999999283 202.37311999999656 L 496.3225600000005 205.78304000000207 L 497.7971200000029 208.7526399999988 L 498.84159999999974 211.23071999999956 L 499.31264000000374 212.09088000000338 L 503.4291200000007 214.51776000000245 L 512.3071999999956 219.39199999999983 L 513.4131199999974 220.14976000000024 L 513.9353600000031 220.6822400000019 L 515.0515199999936 222.7404800000004 L 515.8092800000013 224.0512000000017 L 516.3417599999957 224.66560000000027 L 519.7619200000045 227.46111999999994 L 526.325760000007 232.6732800000027 L 543.0579200000066 245.79071999999724 L 551.0963199999969 252.02687999999762 L 552.4070400000055 252.64128000000346 L 554.9670400000032 253.27616000000125 L 556.7897599999997 253.75744000000122 L 558.5510400000057 254.6892799999987 L 562.9952000000048 258.1094400000002 L 565.0944000000018 259.7376000000004 L 566.5791999999929 260.2598399999988 L 570.4704000000056 261.21216000000277 L 572.1702400000067 262.09279999999853 L 573.9929600000032 263.8643200000006 L 575.098880000005 264.7859200000021 L 583.2192000000068 268.3084799999997 L 592.343040000007 272.2304000000004 L 597.0636800000066 274.02240000000165 L 600.5657599999977 275.14880000000267 L 602.8185599999997 275.44576000000234 L 605.1430399999954 275.59936000000016 L 607.2422400000069 276.0396800000017 L 609.3926400000055 277.17631999999867 L 611.0105599999952 277.8726400000014 L 614.0825599999953 278.6406399999978 L 616.1100799999986 279.1935999999987 L 617.9430399999983 280.0639999999985 L 619.6326399999962 281.62047999999777 L 621.1379199999938 283.2691199999972 L 622.1516799999954 284.364800000003 L 623.9539199999999 285.9929600000032 L 625.5513599999977 286.8223999999973 L 628.9100800000015 287.90783999999985 L 633.2108799999987 289.38240000000224 L 635.3920000000071 290.4780800000008 L 637.2454399999988 292.0038399999976 L 638.8531199999998 293.53983999999764 L 639.9590400000016 294.3078400000013 L 641.4745600000024 295.1168000000034 L 642.8876799999998 295.6492799999978 L 645.3248000000021 296.4991999999984 L 646.6252799999929 296.74496000000363 L 648.857600000003 296.69376000000193 L 651.3254400000005 296.1203200000018 L 655.6671999999962 295.0246400000033 L 660.3366399999941 295.0758399999977 L 662.1388799999986 294.9119999999966 L 663.142399999997 294.6457599999994 L 668.5388799999928 292.7001600000003 L 670.0441600000049 292.3929599999974 L 671.0886400000018 292.35199999999895 L 673.8841600000014 292.72063999999955 L 685.9059200000047 294.37952000000223 L 689.9712 294.9324800000031 L 697.0675199999969 294.7276800000036 L 700.8051200000045 294.6457599999994 L 702.7302400000044 294.8300799999997 L 709.468160000004 295.53663999999844 L 711.9052800000063 295.69024000000354 L 713.5539200000057 295.58784000000014 L 721.3772800000006 294.76864000000205 L 724.6233599999978 294.4409599999999 L 727.0809600000066 294.0211199999976 L 729.7535999999964 293.1814400000003 L 732.3033600000053 291.77855999999883 L 734.9964800000016 290.32448000000295 L 737.1878399999987 289.7305600000036 L 739.3484800000006 289.5769599999985 L 740.7923199999932 289.66911999999866 L 742.4204800000007 289.98655999999755 L 744.0384000000049 290.67263999999705 L 745.4003200000006 291.40991999999824 L 746.7417600000044 291.90144000000146 L 748.5951999999961 292.19840000000113 L 750.5100799999927 292.13696000000346 L 754.851840000003 291.7580799999996 L 773.1404800000018 290.2118400000036 L 774.7891200000013 290.0787199999977 L 775.4035200000071 290.03775999999925 L 777.2160000000003 289.6588800000027 L 779.6735999999946 288.890879999999 L 781.0355200000049 288.6758400000035 L 785.7663999999932 288.6041600000026 L 788.4185600000055 288.7065599999987 L 791.9308799999999 289.1059200000018 L 799.8975999999966 289.48479999999836 L 803.9628800000064 289.6793600000019 L 805.4886399999959 289.91487999999663 L 809.1545599999954 290.6521599999978 L 812.6975999999995 290.72383999999875 L 817.4899200000073 291.6863999999987 L 819.2409599999955 291.90144000000146 L 821.0739199999953 291.95264000000316 L 825.2518399999972 291.74784000000363 L 831.1500800000067 291.2563200000004 L 834.5599999999977 291.0207999999984 L 838.4204800000007 291.32800000000134 L 841.7484799999947 291.5532800000001 L 842.5267199999944 291.635199999997 L 845.6294400000043 292.4441599999991 L 855.9001600000047 295.37279999999737 L 858.296319999994 296.02816000000166 L 860.1497600000002 296.19200000000274 L 863.119359999997 295.85407999999734 L 868.505600000004 294.840320000003 L 881.0598400000017 292.4134399999966 L 887.7465599999996 290.3449600000022 L 889.0163199999952 290.0684800000017 L 890.9107199999999 290.03775999999925 L 896.1945600000035 290.2016000000003 L 897.4233600000007 289.9660799999983 L 898.252800000002 289.38240000000224 L 898.5395200000057 288.8089600000021 L 898.5804800000042 288.3379199999981 L 898.3449600000022 287.764479999998 L 897.9660799999983 287.33439999999973 L 896.8294400000013 286.85311999999976 L 893.8393599999981 286.8121600000013 L 891.4636800000007 286.8223999999973 L 888.688639999993 286.43327999999747 L 886.3436800000054 286.36159999999654 L 885.2377600000036 286.2079999999987 L 884.654079999993 285.9929600000032 L 883.8144000000029 285.4502399999983 L 883.02592 284.25215999999637 L 882.790399999998 283.19744000000355 L 882.8108800000045 282.3987199999974 L 883.0464000000065 280.750079999998 L 883.7836799999932 278.0671999999977 L 884.4287999999942 276.5926400000026 L 886.3334400000022 274.1862400000027 L 890.2041599999939 270.91967999999906 L 891.7504000000044 269.629439999997 L 893.6243200000026 267.83744000000297 L 894.2899199999956 267.1001600000018 L 894.7404799999931 266.34240000000136 L 895.8771200000047 264.632319999997 L 897.8329599999997 262.24640000000363 L 899.7171200000012 260.0038399999976 L 900.6796800000011 259.51232000000164 L 901.8060799999948 259.1334399999978 L 902.9631999999983 258.9388800000015 L 906.5574400000041 258.77504000000044 L 911.4726400000072 258.5599999999977 L 914.442240000004 258.50880000000325 L 916.1215999999986 258.48831999999675 L 918.0569600000017 258.2118400000036 L 920.2380799999955 258.0275200000033 L 923.0131200000033 258.32448000000295 L 925.3580800000054 259.09247999999934 L 927.7337600000028 260.3212799999965 L 929.0752000000066 260.9152000000031 L 930.0070399999968 261.0995200000034 L 931.7068799999979 260.92543999999907 L 932.4851199999976 260.5977599999969 L 933.2121599999955 260.03456000000006 L 933.6115200000058 260.106240000001 L 933.9289600000047 260.2905600000013 L 934.0723200000066 260.40320000000065 L 933.6012800000026 260.92543999999907 L 933.4886399999959 261.2838399999964 L 934.9324800000031 260.24960000000283 L 935.3830400000006 260.03456000000006" fill="none"/><path stroke="#408040" stroke-width="3" d="M 0.0 477.58802172839205 L 3.184640000006766 478.80191999999806 L 9.031680000000051 479.9487999999983 L 16.65024000000267 480.43007999999827 L 18.892800000001444 480.39936000000307 L 22.312959999995655 479.45728000000236 L 26.152960000006715 476.51840000000084 L 30.93503999999666 475.3407999999981 L 41.03168000000005 478.08512000000337 L 55.51103999999759 479.64160000000265 L 58.193920000005164 480.6041600000026 L 60.36479999999574 482.3449600000022 L 65.81247999999323 488.9907200000016 L 77.92639999999665 493.71136000000115 L 83.12832000000344 496.1484800000035 L 92.40575999999419 501.25824000000284 L 98.14015999999538 505.09823999999935 L 102.94272000000637 505.95840000000317 L 112.33280000000377 504.6169599999994 L 124.71296000000439 502.5382400000017 L 133.7856000000029 501.02272000000085 L 139.96031999999832 500.57216000000335 L 148.02943999999843 500.5004800000024 L 157.28639999999723 498.0121599999984 L 162.94912000000477 497.01888000000326 L 167.78239999999641 497.83808000000136 L 169.7792000000045 498.7699199999988 L 176.37376000000222 504.4531199999983 L 189.09183999999368 515.3587199999965 L 191.9180800000031 517.3350399999981 L 196.331520000007 518.8812800000014 L 206.44864000000234 522.7622399999964 L 214.5587200000009 530.370560000003 L 220.0780800000066 535.8796799999982 L 223.3446399999957 538.2553600000028 L 226.83647999999812 539.2793600000005 L 231.18847999999707 539.4534399999975 L 262.6457599999994 539.3919999999998 L 268.912639999995 540.6822400000019 L 291.7887999999948 548.4441599999991 L 299.76575999999477 550.4614399999991 L 301.63967999999295 551.5775999999969 L 303.60576000000583 553.758719999998 L 304.99839999999676 558.7660800000012 L 306.86208000000624 562.8723200000022 L 310.5280000000057 566.4256000000023 L 315.64800000000105 568.7295999999988 L 321.8227199999965 569.9481599999999 L 327.47520000000077 569.4771200000032 L 333.9571200000064 570.2963200000013 L 343.13215999999375 570.2553600000028 L 347.96543999999994 570.9209600000031 L 354.4064000000071 573.5423999999985 L 368.75264000000607 580.7206399999995 L 372.9305599999934 583.0963199999969 L 377.159679999997 584.2739199999996 L 384.6860799999995 585.103360000001 L 391.26016000000527 584.867839999999 L 394.72127999999793 584.867839999999 L 399.3804800000071 586.229760000002 L 408.6681600000011 588.7078400000028 L 413.921279999995 590.2233600000036 L 419.34848000000056 594.3091199999981 L 422.6560000000027 596.387840000003 L 424.86784000000625 599.613440000001 L 426.9670400000032 601.5795199999993 L 430.24383999999554 603.1564799999978 L 434.73919999999634 605.3375999999989 L 437.4015999999974 607.5596799999985 L 439.9615999999951 608.9011200000023 L 443.6889599999995 609.7203200000004 L 449.6383999999962 610.8774399999966 L 454.4511999999959 613.0073600000032 L 459.8476800000062 615.9872000000032 L 463.16543999999703 616.796159999998 L 474.85951999999816 618.1580800000011 L 486.6867199999979 619.4995199999976 L 500.4697600000072 618.5062400000024 L 524.0934399999969 617.6153600000034 L 529.3772800000006 618.1580800000011 L 535.7260799999931 619.8067200000005 L 543.0067200000049 621.793279999998 L 555.2127999999939 618.6905600000027 L 560.7936000000045 617.7996799999964 L 565.6678399999946 616.5606400000033 L 569.0880000000034 613.6729600000035 L 572.5593599999993 607.6211200000034 L 575.9897599999967 600.2995200000005 L 581.171199999997 592.8038400000005 L 582.8095999999932 588.9536000000007 L 587.6735999999946 586.639360000001 L 591.697920000006 585.4310400000031 L 594.4320000000007 585.3900799999974 L 601.5590399999928 588.2880000000005 L 603.96544 590.755839999998 L 604.0780800000066 593.5718399999969 L 602.8083199999965 597.9238400000031 L 604.119040000005 603.1155199999994 L 608.2048000000068 606.156799999997 L 609.8944000000047 608.0921600000001 L 609.9967999999935 611.1641600000003 L 610.9388800000015 613.0175999999992 L 616.0998399999953 617.103360000001 L 618.0249599999952 618.7827200000029 L 622.4383999999991 620.5849600000001 L 631.551999999996 624.4044799999974 L 634.6854400000011 627.2204800000036 L 636.4159999999974 630.415359999999 L 637.317120000007 634.5830399999977 L 637.7164800000028 640.2252799999987 L 638.9759999999951 643.6044800000018 L 641.8636799999949 647.086080000001 L 641.9353600000031 652.4313600000023 L 642.3244799999957 653.9468800000031 L 643.860480000003 655.5955200000026 L 648.4172799999942 659.3536000000022 L 650.1990400000068 663.0912000000026 L 651.2537600000069 665.4771200000032 L 651.4585599999991 667.3715200000006 L 650.7929600000061 670.2899200000029 L 650.9567999999999 672.1535999999978 L 652.3801600000006 673.9558400000024 L 654.0595199999952 674.8979200000031 L 661.8623999999982 675.7888000000021 L 664.750079999998 677.0278400000025 L 667.176959999997 679.4342400000023 L 670.4742399999959 683.9091199999966 L 674.3449600000022 686.5305599999992 L 685.5270400000009 689.9609599999967 L 689.2953600000037 692.4083200000023 L 694.0467199999985 696.4633600000016 L 697.9379199999967 699.8323200000013 L 702.1772800000035 704.1535999999978 L 704.296960000007 707.3689599999998 L 710.6150400000042 711.7823999999964 L 716.2880000000005 715.4073599999974 L 722.9747199999983 716.9228799999983 L 728.3302399999957 719.3702399999966 L 731.5455999999976 722.6060799999977 L 734.0646399999969 727.377919999999 L 735.293439999994 732.3545599999998 L 736.174079999997 735.6620800000019 L 737.5257600000041 738.8569599999973 L 744.9395199999999 744.5196799999976 L 749.0662400000001 746.8236800000013 L 753.7868799999997 747.8169599999965 L 760.3097600000037 749.2812800000029 L 765.9622399999935 749.9571199999991 L 769.2697599999956 749.0559999999969 L 773.2633599999972 748.8614400000006 L 779.7350399999996 748.6463999999978 L 783.8515199999965 747.4892800000016 L 786.4627199999959 747.6838399999979 L 792.6784000000043 750.4179199999999 L 799.2832000000053 753.0700799999977 L 805.3350400000054 755.1283200000034 L 811.3356800000038 760.2380800000028 L 818.7596800000028 761.2723199999964 L 823.5417599999928 762.9004799999966 L 827.494399999996 766.0134400000024 L 834.314240000007 772.0448000000033 L 845.1993599999987 781.3017600000021 L 855.7260799999931 789.9033599999966 L 867.7273600000044 796.3238399999973 L 872.3558400000038 798.5664000000033 L 879.7081599999947 799.9590400000016 L 893.9008000000031 802.088960000001 L 908.482560000004 804.6796800000011 L 915.6403200000059 806.0927999999985 L 924.3340800000005 809.0726399999985 L 945.5513599999977 816.4249599999966 L 963.5635199999961 822.6816000000035 L 969.03168 824.1254400000034 L 973.8649600000062 826.2246400000004 L 979.3945600000006 833.4540800000032 L 981.6473600000027 836.2188800000004 L 985.3337599999941 837.5500800000009 L 1003.4790400000056 836.4236799999999 L 1022.627840000001 835.1027200000026 L 1024.0 834.9434232643689" fill="none"/><path stroke="#408040" stroke-width="3" d="M 1024.0 235.18239670103503 L 1023.0374400000001 234.229760000002 L 1022.6073599999945 233.9123200000031 L 1021.9724799999967 233.51296000000002 L 1021.3683199999941 233.14431999999942 L 1020.7948800000013 232.9395199999999 L 1019.9859200000064 232.73472000000038 L 1015.3267199999973 232.14080000000104 L 1009.9916800000065 231.0451200000025 L 1009.4694400000008 230.91199999999662 L 1008.599040000001 230.69696000000113 L 1006.4793599999975 230.00063999999838 L 1002.6905600000027 228.70016000000032 L 1001.4105600000039 228.03456000000006 L 1000.4889600000024 227.21536000000197 L 997.8060799999948 224.11263999999937 L 996.8537599999981 223.09887999999773 L 996.0550400000066 222.38208000000304 L 995.7375999999931 222.15679999999702 L 994.7852799999964 221.64480000000185 L 993.6383999999962 221.21472000000358 L 992.4403199999942 220.95872000000236 L 991.1808000000019 220.78463999999803 L 988.6208000000042 220.51840000000084 L 988.0268800000049 220.48767999999836 L 987.1359999999986 220.5491200000033 L 985.9891199999984 220.77440000000206 L 983.4188799999974 221.6038400000034 L 982.5177600000025 222.06463999999687 L 981.6064000000042 222.69952000000194 L 981.0227199999936 223.0783999999985 L 979.6607999999978 223.6313599999994 L 975.2678400000004 224.34816000000137 L 974.4281599999958 224.39936000000307 L 973.0252800000017 224.30720000000292 L 969.8406399999949 223.6313599999994 L 968.7654400000029 223.52896000000328 L 967.5571199999977 223.61088000000018 L 965.9289600000047 223.93856000000233 L 963.9014400000015 224.3686400000006 L 961.4438400000072 225.01376000000164 L 960.3891200000071 225.40288000000146 L 958.5971200000058 226.2323200000028 L 957.511679999996 226.80576000000292 L 956.2931200000021 227.54303999999684 L 953.4259199999942 229.52960000000166 L 950.906879999995 231.10656000000017 L 949.0534400000033 232.2534400000004 L 947.8656000000046 233.0726399999985 L 946.124800000005 234.49599999999919 L 945.3260799999989 235.26400000000285 L 944.7014400000044 236.1753600000011 L 944.4556799999991 236.85119999999733 L 944.3737600000022 237.62943999999698 L 944.3942399999942 238.42816000000312 L 944.5478399999993 239.87200000000303 L 944.8243199999997 240.96768000000156 L 945.1110400000034 241.81760000000213 L 945.5923199999961 242.95423999999912 L 946.0326400000049 243.79391999999643 L 946.4729599999991 244.62335999999777 L 946.8313599999965 245.5142399999968 L 946.9337599999999 245.96480000000156 L 946.9644799999951 246.54847999999765 L 946.9030400000047 247.1628800000035 L 946.6572799999994 248.44288000000233 L 946.5036799999943 249.01632000000245 L 946.1657600000035 249.81504000000132 L 945.00864 251.47391999999672 L 943.7695999999996 253.03040000000328 L 942.9504000000015 253.94176000000152 L 942.1004799999937 254.7609599999996 L 941.0662400000001 255.50847999999678 L 939.8886400000047 256.27648000000045 L 938.6803199999995 257.0751999999993 L 937.1443200000067 258.01728 L 936.8064000000013 258.17087999999785 L 935.2294399999955 258.6828800000003 L 934.0620800000033 259.29727999999886 L 933.7139199999947 259.56352000000334 L 933.3043199999956 259.95264000000316 L 933.6115200000058 260.106240000001 L 933.9289600000047 260.2905600000013 L 933.9903999999951 260.3315199999997 L 934.0825599999953 260.48511999999755 L 933.7651199999964 260.7820799999972 L 933.4886399999959 261.08928000000014 L 933.4476799999975 261.2633599999972 L 933.5807999999961 261.27360000000044 L 934.1849599999987 260.751360000002 L 935.1577600000019 260.13696000000346 L 935.3830400000006 260.03456000000006" fill="none"/><path stroke="#408040" stroke-width="3" d="M 0.0 133.80919652173907 L 1.2287999999971362 134.3078400000013 L 3.0105599999951664 135.01440000000002 L 5.990399999995134 136.2022399999987 L 9.533439999999246 137.6255999999994 L 14.151679999995395 139.44832000000315 L 16.844800000006217 140.47232000000076 L 18.4320000000007 141.08671999999933 L 19.40480000000389 141.4348800000007 L 21.05344000000332 141.96736000000237 L 22.220799999995506 142.28480000000127 L 23.336960000000545 142.55103999999847 L 27.3203199999989 143.47263999999996 L 29.37855999999738 143.92319999999745 L 29.829119999994873 144.02560000000085 L 29.941760000001523 144.10751999999775 L 30.03392000000167 144.17919999999867 L 30.20799999999872 144.40447999999742 L 30.08512000000337 144.7526399999988 L 30.03392000000167 144.90623999999661 L 29.992960000003222 145.02911999999924 L 29.982719999999972 145.15200000000186 L 29.952000000004773 145.59232000000338 L 29.941760000001523 145.81760000000213 L 29.931519999998272 147.15903999999864 L 29.931519999998272 148.09088000000338" fill="none"/><path stroke="#408040" stroke-width="3" d="M 0.0 151.60553664429608 L 0.4710400000039954 151.377919999999 L 1.679359999994631 150.7430400000012 L 2.5599999999976717 150.25151999999798 L 3.512319999994361 149.6883200000011 L 5.294080000006943 148.55167999999685 L 8.714240000001155 146.35007999999652 L 9.635840000002645 145.75615999999718 L 10.188800000003539 145.38751999999658 L 12.021760000003269 144.07680000000255 L 12.134399999995367 144.03583999999682 L 12.89216000000306 143.55455999999685 L 14.274560000005295 142.66367999999784 L 14.64320000000589 142.40767999999662 L 15.216639999998733 142.00832000000082 L 16.199680000005173 141.3017600000021 L 16.47616000000562 141.10719999999856 L 16.732159999999567 140.99455999999918 L 16.916479999999865 140.94335999999748 L 17.111040000003413 140.92287999999826 L 17.39776000000711 140.92287999999826 L 17.674239999993006 140.94335999999748 L 17.797120000002906 140.9638399999967 L 18.176000000006752 141.09696000000258 L 18.851840000002994 141.37344000000303 L 19.394560000000638 141.57824000000255 L 19.824640000006184 141.71136000000115 L 20.89983999999822 141.97759999999835 L 20.93055999999342 141.97759999999835 L 21.05344000000332 141.96736000000237 L 21.483519999994314 142.09023999999772 L 22.11840000000666 142.26432000000204 L 22.333440000002156 142.32575999999972 L 24.002559999993537 142.70464000000356 L 26.29631999999401 143.23711999999796 L 29.829119999994873 144.02560000000085 L 30.06463999999687 144.20992000000115 L 30.11583999999857 144.28160000000207 L 30.20799999999872 144.40447999999742 L 30.18752000000677 144.46592000000237 L 30.10559999999532 144.69120000000112 L 30.044160000004922 144.87552000000142 L 29.992960000003222 145.02911999999924 L 29.96223999999347 145.38751999999658 L 29.931519999998272 146.2476800000004 L 29.931519999998272 147.4047999999966 L 29.931519999998272 148.09088000000338" fill="none"/><path stroke="#408040" stroke-width="3" d="M 8.816640000004554 814.7148799999995 L 14.120960000000196 817.2748799999972 L 18.708480000001146 819.4764799999975 L 19.025920000000042 819.6812799999971 L 20.02943999999843 819.8144000000029 L 22.548479999997653 819.8348800000022 L 25.415680000005523 819.8860799999966 L 35.96288000000641 820.0499199999977 L 47.88224000000628 820.398079999999 L 49.817599999994854 820.7974400000021 L 51.95776000000478 821.8521600000022 L 54.446079999994254 823.1526400000002 L 56.47359999999753 823.8387199999997 L 60.52864000000409 824.1766399999979 L 62.11583999999857 824.4428800000023 L 64.0307199999952 825.1289600000018 L 66.01728000000003 826.4703999999983 L 70.32832000000053 830.0031999999992 L 75.05920000000333 833.9865599999976 L 80.14848000000347 838.8710399999982 L 82.42175999999745 841.0828800000018 L 83.08736000000499 842.1990399999995 L 83.63008000000264 843.0489600000001 L 84.85887999999977 844.0217600000033 L 86.15936000000511 845.0150399999984 L 87.01952000000165 846.5919999999969 L 90.03007999999681 853.0432000000001 L 90.9823999999935 854.1081600000034 L 92.73343999999634 855.0400000000009 L 94.52543999999762 855.4291200000007 L 107.55071999999927 856.5657599999977 L 130.05823999999848 858.5523200000025 L 131.9936000000016 858.9721599999975 L 133.8368000000046 859.8220799999981 L 138.69056000000273 863.3036799999973 L 143.28832000000693 864.7577600000004 L 148.54144000000088 866.2425599999988 L 151.7260799999931 867.4303999999975 L 153.32352000000537 867.6659199999995 L 154.9209600000031 867.5328000000009 L 158.51519999999437 866.6419200000018 L 160.9216000000015 865.9763200000016 L 162.10944000000018 865.2902400000021 L 164.48511999999755 863.3651200000022 L 167.05535999999847 861.5423999999985 L 171.89887999999337 860.7539200000028 L 177.08031999999366 861.1942399999971 L 178.68799999999464 860.9996800000008 L 180.11135999999533 860.3238399999973 L 186.75711999999476 855.0297599999976 L 193.51552000000083 851.6812799999971 L 198.17471999999543 850.1862400000027 L 200.39680000000226 848.9267200000031 L 203.01824000000488 847.2780799999964 L 209.50015999999596 844.0319999999992 L 213.17631999999867 842.3116799999989 L 215.63391999999294 842.0966400000034 L 218.8697600000014 842.403839999999 L 225.3414400000038 844.7078400000028 L 235.25376000000688 848.5785600000017 L 242.92351999999664 851.8451199999981 L 247.142399999997 852.8998399999982 L 249.99936000000162 854.5689599999969 L 251.62751999999455 855.3267199999973 L 253.10207999999693 855.5110399999976 L 258.8671999999933 855.5110399999976 L 261.662719999993 854.9171199999982 L 263.6185600000026 855.2243200000012 L 268.92287999999826 858.347520000003 L 271.2780800000037 859.1974400000036 L 274.10431999999855 859.9551999999967 L 281.0572799999936 862.8223999999973 L 287.8463999999949 864.4915200000032 L 295.5366400000057 866.1401600000027 L 302.16191999999864 865.9968000000008 L 310.65088000000105 866.5907200000001 L 320.46080000000075 867.0207999999984 L 326.5843199999945 867.0207999999984 L 328.4582400000072 866.5395199999984 L 333.0355200000049 864.7065599999987 L 338.5139199999976 862.5152000000016 L 341.72927999999956 860.8153600000005 L 343.50079999999434 860.0268799999976 L 345.67167999999947 859.9347199999975 L 348.3955200000055 860.8153600000005 L 349.8700799999933 861.7062399999995 L 355.0412800000049 865.3107200000013 L 360.0179199999984 868.4339200000031 L 376.3507200000022 878.6841599999971 L 383.2832000000053 883.0054400000008 L 387.5430400000041 886.2719999999972 L 389.5500800000009 887.8694400000022 L 390.5843199999945 889.2620800000004 L 394.0249599999952 895.2729600000021 L 396.92287999999826 900.03456 L 401.4591999999975 903.8745599999966 L 406.11840000000666 907.7043199999971 L 411.3408000000054 911.9846400000024 L 414.88383999999496 915.4764799999975 L 417.3414400000038 917.350400000003 L 419.5737599999993 919.9513599999991 L 421.00736000000325 922.3372799999997 L 422.8710399999982 926.7097599999979 L 424.2227200000052 928.8396799999973 L 426.0761599999969 930.7955199999997 L 426.75199999999313 932.5363199999993 L 427.1001600000018 937.277439999998 L 427.5712000000058 941.9571199999991 L 428.08319999999367 943.9334400000007 L 430.36672000000544 947.0566400000025 L 432.6092800000042 949.8828799999974 L 433.2953600000037 951.623679999997 L 433.479680000004 954.7776000000013 L 435.0668799999985 961.4950400000016 L 436.5721599999961 964.4851199999976 L 436.8076799999981 967.0656000000017 L 437.19680000000517 968.5811200000026 L 438.5382399999944 970.0864000000001 L 439.49056000000564 971.6838399999979 L 440.18687999999383 974.1312000000034 L 440.18687999999383 976.2816000000021 L 440.3814399999974 977.3977599999998 L 440.9446400000015 978.7084800000011 L 442.3475199999957 981.7088000000003 L 443.24864000000525 983.0092799999984 L 446.13632000000507 985.6614400000035 L 448.79872000000614 987.7401600000012 L 454.9836800000048 992.6041600000026 L 457.05216000000655 993.5052799999976 L 459.6633600000059 993.9046400000007 L 462.29503999999724 993.9353600000031 L 464.8448000000062 994.6521599999978 L 471.99232000000484 998.2259199999971 L 477.5731200000009 1001.2262400000036 L 478.7609599999996 1002.4959999999992 L 479.50848000000406 1004.2880000000005 L 481.5359999999928 1007.4828800000032 L 483.389439999999 1010.2169599999979 L 484.23936000000685 1012.46976 L 484.761599999998 1015.6031999999977 L 484.51583999999275 1016.5657599999977 L 483.5942400000058 1018.2655999999988 L 482.77503999999317 1020.2419200000004 L 482.5292800000025 1023.0988799999977 L 482.4480025098019 1024.0" fill="none"/></svg>