<svg xmlns="http://www.w3.org/2000/svg" width="1024" height="1024"><rect stroke="none" x="0" y="0" width="1024" height="1024" fill="white"/><path stroke="#000000" stroke-width="2" d="M 0.0 384.81858932429896 L 15.396864000009373 385.2994559999206 L 19.983360000012908 384.08601599995745 L 46.205952000047546 377.3511679999647 L 51.077120000030845 378.44991999992635 L 51.27270400006091 384.08703999995487 L 51.36486400006106 401.13254399993457 L 72.07424000004539 402.55999999993946 L 92.21324800001457 413.37446399993496 L 107.8394880000269 414.80703999992693 L 127.85152000002563 421.46201599994674 L 255.84742400003597 464.3010559999384 L 278.48089600005187 471.7670399999479 L 294.3447040000465 470.1890559999738 L 350.32985600002576 464.62566399993375 L 373.83065600006375 468.09702399995876 L 373.8808320000535 468.24755199992796 L 381.09900800004834 489.2999679999193 L 383.2422400000505 493.37343999993755 L 383.4449920000625 494.02879999997094 L 382.32166400004644 497.27999999996973 L 382.60224000003655 498.05209599994123 L 383.84537600004114 498.6378239999176 L 382.45990400004666 499.4559999999474 L 381.5075840000645 500.32127999991644 L 380.90854400006356 500.9530879999511 L 380.27366400003666 501.397503999935 L 379.2517120000557 501.9115519999177 L 377.98400000005495 502.58943999995245 L 377.7361920000403 503.5489279999165 L 377.62969600001816 504.48486399994 L 377.38188800006174 505.0460159999202 L 378.015744000033 505.5846399999573 L 379.77497600001516 506.5687039999175 L 381.7093120000209 508.5347839999595 L 380.4753920000512 509.6099839999224 L 378.2205440000398 511.05996799992863 L 374.3805440000142 512.0962559999316 L 372.03456000005826 512.5806079999311 L 372.0222720000311 512.5847039999207 L 371.3536000000313 512.6543359999196 L 370.6490880000638 512.561151999922 L 369.992704000033 512.2908159999643 L 361.3542400000151 512.0962559999316 L 354.26304000004893 510.3257599999197 L 354.2476800000295 510.33804799994687 L 353.159168000042 511.0661119999713 L 351.6026880000136 512.097279999929 L 346.7069440000341 515.5256319999462 L 322.6961920000613 514.4463359999354 L 308.40320000005886 517.230591999949 L 305.8708480000496 527.7839359999634 L 303.42144000006374 531.3187839999446 L 297.70956800004933 539.5548159999307 L 298.344448000018 542.362623999943 L 294.33651200000895 549.8746879999526 L 319.49004800006514 569.4566399999312 L 344.81049600004917 573.2505599999567 L 352.22835200006375 576.8089599999366 L 383.8423040000489 575.2535039999639 L 403.1815680000582 574.3790079999599 L 434.5487360000261 572.5931519999285 L 473.9041280000238 565.5521279999521 L 489.76691200002097 565.042175999959 L 496.7311360000167 564.9274879999575 L 504.5391360000358 565.3759999999311 L 511.8423040000489 572.0012799999677 L 520.1111040000105 579.8819839999196 L 523.0684160000528 583.3441279999679 L 527.1480320000555 583.926783999952 L 528.3082240000367 584.161279999942 L 529.1878400000278 584.4408319999347 L 530.348032000009 585.0490879999707 L 530.5600000000559 585.306111999962 L 530.8067840000149 586.2891519999248 L 531.6157440000097 587.1779839999508 L 531.3003520000493 588.4415999999619 L 532.2854400000651 589.306879999931 L 537.000960000034 595.1549439999508 L 556.7221760000102 599.854079999961 L 556.6566400000593 613.2387839999283 L 548.8609280000092 624.7997439999599 L 538.1048320000409 640.0962559999316 L 535.8069760000217 643.3167359999497 L 542.55911628803 663.0949396479409 L 543.6894730240456 664.9788682239596 L 559.4193920000107 686.577663999924 L 572.1231360000093 700.8276479999186 L 572.6146560000489 701.2485119999619 L 573.1409920000588 702.4414719999186 L 574.5797120000352 705.3434879999259 L 575.6672000000253 706.7238399999333 L 577.5953920000466 708.6192639999208 L 579.1385600000503 709.6719359999406 L 581.6289280000492 711.6144639999256 L 584.785920000053 710.8894719999516 L 587.6961280000396 712.2001919999602 L 588.7488000000594 712.9958399999305 L 590.7824640000472 715.1482879999676 L 592.0092160000349 716.7641599999624 L 593.1663360000239 717.9345919999178 L 597.7241600000416 721.4458879999584 L 598.916096000059 723.1068159999559 L 607.5330560000148 737.9445759999217 L 616.8115200000466 752.0808959999704 L 620.7672320000129 757.1834879999515 L 621.2925440000254 758.0497919999179 L 621.5720960000181 758.9150719999452 L 621.4656000000541 759.8510079999687 L 621.1153920000652 760.3425279999501 L 622.0605440000654 760.9978879999253 L 623.180800000031 761.9809279999463 L 625.0362880000612 764.0647679999238 L 625.3506560000242 764.6033919999609 L 625.0700800000341 764.9771519999485 L 624.6144000000204 765.2812799999374 L 623.8433280000463 765.2577279999387 L 622.8623360000202 765.1399679999449 L 622.4424960000324 765.2106239999412 L 622.0912640000461 765.5137279999326 L 622.0912640000461 766.1455359999673 L 622.4404480000376 766.8951039999374 L 623.3518080000649 767.31699199992 L 624.2273280000663 767.4337279999163 L 627.4160640000482 766.3820799999521 L 628.0120320000569 766.2888959999545 L 629.167104000051 767.4357759999693 L 629.7098240000196 768.0983039999264 L 629.9033600000548 768.7731199999689 L 627.6608000000124 768.7485439999728 L 628.0796160000609 770.4340479999664 L 626.7822080000187 771.0883839999442 L 626.5722880000249 771.3454079999356 L 627.5153920000303 773.5224319999688 L 627.7959680000204 773.8736639999552 L 628.2864640000626 773.9443199999514 L 629.4773760000244 773.4292479999713 L 630.5290240000468 773.2664319999167 L 630.8792320000357 773.4302719999687 L 630.3866880000569 775.25503999996 L 630.3150080000632 776.3312639999203 L 630.3678033920587 776.9228840959258 L 630.992281600018 778.7395481599378 L 633.6703313920298 781.4175979519496 L 633.8826240000199 781.5751679999521 L 635.1073280000128 782.1373439999297 L 635.9828480000142 782.5592319999705 L 636.1927680000663 783.0271999999532 L 635.9434240000555 783.2703805439523 L 636.0062709760386 783.6725995519664 L 635.7361418240471 784.0552837119321 L 635.7360640000552 784.1034239999717 L 636.1559040000429 784.6410239999532 L 636.5757440000307 785.0158079999383 L 636.5747200000333 785.6240639999742 L 636.3889223680599 786.1215672319522 L 636.4194816000527 786.3171481599566 L 636.473806848051 786.5344511999283 L 636.4493516800576 786.7154196479241 L 636.3898296320112 787.072550911922 L 636.4692480000085 787.6597759999568 L 636.8834836480091 788.5443891199538 L 637.0136064000544 788.6936463359743 L 637.0338816000149 788.7747481599217 L 637.1748966400628 788.8786544639734 L 637.3568686080398 789.0873845759197 L 637.5884800000349 789.2520959999529 L 638.5684480000637 789.7200639999355 L 638.8402718720608 790.1057720319368 L 638.9794816000503 790.2083481599693 L 639.5308912640321 791.1930081279716 L 639.4136166400276 791.7598259199294 L 639.8453760000411 792.2472959999577 L 640.5059246080345 792.9364981759572 L 640.6718750720611 793.011719167931 L 641.0817116160179 793.3172674559173 L 641.6885760000441 793.5569919999689 L 642.1094400000293 793.837567999959 L 642.0228833280271 794.4578918399638 L 642.30849433603 794.9277665279224 L 642.6357760000392 795.0069759999169 L 642.6981611520168 794.9930782719166 L 643.0032005120302 794.8603668479482 L 643.0660454400349 794.9111275519244 L 643.2655360000208 794.8666879999219 L 643.7908480000333 794.7960319999256 L 644.0714240000234 794.9363199999207 L 644.4574720000383 795.3336319999653 L 644.7380480000284 796.2460159999318 L 645.0544640000444 797.065215999959 L 645.4753280000295 798.2581759999739 L 645.9658240000135 798.4455679999664 L 646.1724385280395 798.3993190399488 L 647.0859376640292 797.5625000959262 L 647.6929587200284 797.1539281919249 L 647.9075532800634 797.0133299199515 L 648.3342233600561 796.3875532799284 L 647.780979712028 795.7974231039407 L 647.9726837760536 795.62783846393 L 646.9775360000203 795.0284799999208 L 646.9775360000203 794.7950079999282 L 647.6779520000564 794.6076159999357 L 648.7633920000517 794.6772479999345 L 651.8456320000114 795.7985279999557 L 652.7569920000387 795.9388159999507 L 653.211648000055 795.774975999957 L 654.1905920000281 794.3464959999546 L 654.8203520000097 793.4341119999299 L 655.5555840000161 792.7080959999585 L 656.5355520000448 792.2872319999733 L 656.9512120320578 792.0951306239585 L 657.6703457280528 791.6841973759583 L 658.3913267200114 791.3361377279507 L 659.5118049280136 790.8489727999549 L 660.3053608960472 790.488867839973 L 660.6385899520246 790.1556398079265 L 660.9999994880636 789.9843747839332 L 661.6354662400554 789.1915847679484 L 661.8900480000302 788.704255999939 L 662.3457280000439 788.1431039999588 L 662.7317760000587 788.0488959999639 L 663.9923200000194 787.6044799999218 L 665.3224960000371 787.3935359999305 L 666.4427520000609 787.0412799999467 L 667.7739520000177 786.9706239999505 L 669.0344960000366 786.8774399999529 L 670.4701440000208 786.5958399999654 L 671.8361600000644 786.4084479999729 L 671.9721502720495 786.4228362239664 L 672.0395335680223 786.4024166399613 L 672.3844843520201 786.4664616959635 L 674.0428800000227 786.6419199999655 L 674.4097146880231 786.4781864959514 L 674.673263616045 785.6043171839556 L 674.8356106240535 785.5551221759524 L 675.1979520000168 784.9564159999718 L 675.9321600000258 784.1607679999433 L 676.4226560000097 783.8330879999558 L 677.5080960000632 783.4122239999706 L 678.4890880000312 783.3415679999744 L 679.0840320000425 782.9667839999311 L 679.74963200005 782.9667839999311 L 680.5555200000526 783.1541759999236 L 681.5713280000491 783.9959039999521 L 682.3434240000206 784.4884479999309 L 682.9533358080662 784.5789767679526 L 683.8029608960496 784.4966512639658 L 684.9747968000593 783.7939691519714 L 685.2187504640315 783.6328120319522 L 685.2591718400363 783.6234465279267 L 685.4952960000373 783.4818559999694 L 687.1748761600466 783.0662799359416 L 687.5219804160297 782.793554943928 L 687.7667215360561 782.6920775679173 L 688.9625600000145 781.6796159999212 L 689.7674240000197 781.6325119999237 L 690.2579200000619 781.5157759999274 L 690.8887040000409 781.2812799999374 L 694.532096000039 781.0007039999473 L 701.7830400000094 777.7003519999562 L 736.5345280000474 773.8675199999707 L 747.7841920000501 769.8001919999369 L 747.2230400000117 768.0993279999238 L 743.7250560000539 761.0900479999254 L 729.2211200000602 753.5749119999236 L 726.6631680000573 752.0993279999238 L 723.0904320000554 747.255807999929 L 722.3900160000194 745.9215359999216 L 723.0924800000503 743.7219839999452 L 723.9690240000491 741.4763519999688 L 723.9690240000491 740.9612799999304 L 723.8777548800572 740.8240435199696 L 723.7208596480195 740.7516303359298 L 721.8657280000625 740.7738879999379 L 721.4807040000451 739.6966399999219 L 721.2359680000227 739.2061439999379 L 715.3141760000144 728.4643839999335 L 722.403328000044 710.1900799999712 L 710.3395840000594 699.9633919999469 L 712.1295360000222 693.271551999962 L 721.4970880000619 692.267007999937 L 728.0691200000583 672.7761919999612 L 755.4252800000249 660.5475839999272 L 767.852544000023 662.2607359999674 L 776.5288960000616 663.4977279999293 L 795.8384640000295 666.415103999956 L 799.0691840000218 667.5138559999177 L 801.8083840000327 670.6022399999201 L 812.2337280000211 670.1086719999439 L 812.5491200000397 668.4006399999489 L 811.2855040000286 667.8394879999687 L 815.4265600000508 663.4864639999578 L 824.4490240000305 665.1944959999528 L 825.1514880000614 666.9025279999478 L 825.7832960000378 667.0202879999415 L 841.2989440000383 663.6738559999503 L 840.8084480000543 660.1881599999615 L 842.3884800000233 658.1985279999208 L 857.9461120000342 652.0012799999677 L 875.4688000000315 649.5723519999301 L 876.9710080000223 659.3310719999718 L 895.8586880000657 659.7969919999596 L 906.1120000000228 660.247551999928 L 929.52883200004 660.8711679999251 L 930.3009280000115 660.9172479999252 L 935.1813120000297 661.291007999971 L 938.4816640000208 661.64121599996 L 944.1679360000417 657.147903999954 L 951.6810240000486 656.4464639999205 L 956.1395200000261 655.7675519999466 L 967.4465280000586 656.1658879999304 L 974.1834240000462 666.7663359999424 L 975.0609920000425 667.1175679999287 L 977.1673600000213 667.7493759999634 L 977.76332800003 669.925375999941 L 975.2002560000401 671.983615999925 L 976.3205120000639 681.2262399999308 L 985.3726720000268 682.8195839999244 L 992.3870720000123 690.3551999999327 L 1016.7695360000362 693.8511359999538 L 1023.8638080000528 694.9324799999595 L 1017.9829760000575 705.3404159999336 L 1016.0844800000195 709.2705279999645 L 1010.7084800000302 719.4705919999396 L 1010.6726400000625 720.476159999962 L 1011.6444160000538 729.8365439999616 L 1016.5800960000488 736.8816639999277 L 1017.2651520000654 752.2078719999408 L 1021.92435200006 753.2400639999541 L 1023.8627840000554 754.1176319999504 L 1024.0 754.1644920586186" fill="none"/></svg>