<svg xmlns="http://www.w3.org/2000/svg" width="1024" height="1024"><rect stroke="none" x="0" y="0" width="1024" height="1024" fill="white"/><path stroke="#000000" stroke-width="2" d="M 1024.0 22.57962364008563 L 1023.8828124160063 22.49609420791967 L 1023.3124997120467 21.93359359994065 L 1023.26562508801 21.746094079921022 L 1023.1875000320142 21.69921843195334 L 1023.1718748160056 21.347656703961547 L 1022.8359372800332 21.30078105593566 L 1022.4843745280523 20.761718783935066 L 1022.1578240000526 19.63622399995802 L 1021.0324480000418 18.463743999949656 L 1020.4538880000473 18.25279999995837 L 1020.088320000039 18.01830399996834 L 1019.5404800000251 17.011711999948602 L 1018.781231104047 16.636686335958075 L 1018.5078128640307 16.144531455938704 L 1017.5313920000335 14.784511999925599 L 1016.0394240000169 14.244863999949303 L 1014.8515624960419 13.656250367930625 L 1014.4563200000557 13.02527999994345 L 1013.9381760000251 12.556287999963388 L 1013.6551577600185 12.466618367936462 L 1013.4218752000597 12.390625279920641 L 1012.632812544005 11.968749567924533 L 1011.9609374720603 11.335937023919541 L 1011.5942400000058 10.728447999921627 L 1011.015624704014 10.304687103955075 L 1009.4925834240275 9.83605964796152 L 1008.7656253440073 8.968750079919118 L 1007.1796879360336 7.492187135969289 L 1006.8142080000252 6.719487999973353 L 1006.4793600000557 5.734399999957532 L 1006.2499655680149 5.2857149439514615 L 1006.0859371520346 4.960937983938493 L 1004.6250004480244 2.898437119962182 L 1004.2578124800348 1.8906245119287632 L 1003.58860800002 1.1171839999733493 L 1001.7031249920256 0.13671833596890792 L 1001.5139632568462 0.0" fill="none"/></svg>