<svg xmlns="http://www.w3.org/2000/svg" width="1024" height="1024"><rect stroke="none" x="0" y="0" width="1024" height="1024" fill="white"/><path stroke="#000000" stroke-width="2" d="M 1024.0 447.686386332658 L 1023.5937495040125 447.06640588794835 L 1023.5937495040125 259.2656250879518 L 1023.5937495040125 0.0" fill="none"/><path stroke="#000000" stroke-width="2" d="M 1023.5937495040125 0.0 L 1023.5937495040125 259.26562508801 L 1023.5937495040125 447.06640588794835 L 1024.0 447.6863863326216" fill="none"/><path stroke="#408040" stroke-width="3" d="M 0.0 16.56621629786241 L 8.980479999998352 21.207040000001143 L 26.787840000004508 28.600319999997737 L 60.55935999999929 36.7308800000028 L 82.9542400000064 46.05952000000252 L 105.08288000000175 58.78783999999723 L 136.0998399999953 73.43104000000312 L 183.1935999999987 88.51456000000326 L 217.19040000000678 93.70623999999953 L 241.65376000000106 106.39360000000306 L 273.7459200000012 123.44320000000153 L 307.52767999999924 132.52608000000328 L 335.3087999999989 134.43071999999665 L 354.2323199999955 140.3084799999997 L 362.4959999999992 151.71583999999712 L 377.3337599999941 164.0755199999985 L 411.0540800000017 185.72288000000117 L 420.18816000000515 193.27999999999884 L 428.5951999999961 207.6979199999987 L 429.5372800000041 223.2320000000036 L 445.6345600000059 248.85248000000138 L 478.51519999999437 283.86303999999654 L 487.4649599999975 293.1507199999978 L 498.99520000000484 298.71104000000196 L 516.4646400000056 317.14304000000266 L 527.9539199999999 333.5065600000016 L 533.9852799999935 358.7583999999988 L 539.8323200000013 387.0207999999984 L 549.058560000005 411.3407999999981 L 576.5324799999944 429.0662400000001 L 578.252800000002 434.0633600000001 L 572.0063999999984 446.6073600000018 L 574.2387199999939 461.5475200000001 L 576.1638399999938 470.9580799999967 L 586.0249599999952 476.6924799999979 L 611.7683200000029 491.3356799999965 L 617.4310399999958 497.4591999999975 L 638.3411199999973 509.25568000000203 L 651.2025600000052 511.25248000000283 L 669.6140799999994 524.3289599999989 L 677.3657600000006 529.9097600000023 L 689.5616000000009 534.0569600000017 L 731.9244800000015 556.4928 L 765.9724799999967 570.9926399999968 L 797.2863999999972 580.8640000000014 L 888.6784000000043 613.0995200000034 L 949.4937599999976 631.1833600000027 L 984.8831999999966 638.9657599999991 L 1024.0 648.9363962153366" fill="none"/></svg>