<svg xmlns="http://www.w3.org/2000/svg" width="1024" height="1024"><rect stroke="none" x="0" y="0" width="1024" height="1024" fill="white"/><path stroke="#000000" stroke-width="2" d="M 1024.0 130.4851459664642 L 1021.1328122880659 129.7265623039566 L 1019.6015626240405 133.51562547194771 L 1021.0312499200227 136.48828108794987 L 1023.6953128960449 139.96874956792453 L 1024.0 140.0608580195767" fill="none"/><path stroke="#000000" stroke-width="2" d="M 1024.0 153.62373083189595 L 1023.2890624000574 154.20312473597005 L 1020.7265628160094 155.42968729592394 L 1019.3984378880123 156.8632811519201 L 1018.0624998400453 158.29687500797445 L 1014.2734376960434 159.11718707194086 L 1010.078125056054 160.8593745919643 L 1006.6953123840503 162.18749951996142 L 1002.3984373760177 162.90625023993198 L 1000.3515627520392 160.449218559952 L 1001.3749995520338 157.17187481594738 L 1003.2187504640315 153.9960934399278 L 1003.5234314240515 148.98046771192458 L 999.6328120320104 146.21484339196468 L 996.3593748480198 145.9062497279374 L 992.5703127040179 149.08203110395698 L 991.2343746560509 154.20312473597005 L 990.5156249600113 157.07031244796235 L 988.4687503360328 160.550780927937 L 984.6796871680417 163.21484390395926 L 978.7421870080288 165.3632808959228 L 976.4921876480221 166.38671871996485 L 974.7500001280569 167.10546841594623 L 971.6796876800363 166.5937500159489 L 968.1953126400476 165.67187455995008 L 963.0781245440594 163.82812467194162 L 959.3906247680425 162.5976565759629 L 955.1875000320142 161.3710940159508 L 948.9453127680463 160.550780927937 L 944.7421870080288 158.70703103992855 L 941.5703121920233 157.99218790396117 L 937.3749995520338 157.07031244796235 L 930.921875456057 156.66015641595004 L 926.4140625920263 156.25000038393773 L 922.7265628160094 155.94140671996865 L 920.3750000640284 158.19531263993122 L 922.4218746880651 161.3710940159508 L 923.8593751040171 165.8750003199675 L 923.9609374720603 168.53906227194238 L 924.1640622080304 170.99609395192238 L 920.9921873920248 173.5546879999456 L 915.3593753600144 172.63281254394678 L 911.3671874560532 171.60937471996294 L 909.0078126080334 170.1757808639668 L 906.2421872640261 168.53906227194238 L 902.9687500800355 165.97656268795254 L 899.1796879360336 164.33984409592813 L 895.0781245440594 163.82812467194162 L 890.3750000640284 165.8750003199675 L 887.7109370880644 165.97656268795254 L 885.0468751360313 165.46484326396603 L 881.7734379520407 164.75000012794044 L 876.8515624960419 165.26171852793777 L 873.9843747840496 165.57031219196506 L 871.8359377920278 166.38671871996485 L 870.1953126400476 168.12890623993007 L 869.0703124480206 171.40624998393469 L 869.0703124480206 174.06640639994293 L 871.1171870720573 182.56640614394564 L 871.3281249280553 185.53515622392297 L 868.7656253440655 187.17578137596138 L 864.9765621760162 186.45703167992178 L 861.9062497280538 185.84374988795025 L 858.7265628160094 186.66406297596404 L 854.4296878080349 186.45703167992178 L 848.390625280037 189.42578175995732 L 843.6796876800363 190.04296908795368 L 840.710937600059 194.44531199993799 L 842.3437496320112 199.15624959993875 L 843.9843747840496 202.2265620479593 L 846.6484377600136 203.4570311679272 L 849.9218749440624 203.4570311679272 L 851.6640624640277 201.71484364796197 L 853.1015628800378 198.43749990395736 L 854.7343749120482 194.44531199993799 L 856.2734376960434 191.47656294394983 L 861.8046873600106 191.57812531193485 L 859.8593751040171 195.3671874559368 L 859.0390620160615 200.5898434559349 L 858.1171875840519 205.0937497599516 L 859.343750144064 208.98437529592775 L 857.5000002560555 213.39062476792606 L 856.8828129280591 217.9960934399278 L 855.656250368047 221.99218790396117 L 854.3281254400499 225.7812500479631 L 851.8671872000559 231.00000051193638 L 851.0468751360313 233.0507816959289 L 850.1249996800325 235.816406015947 L 847.0546872320119 239.80859391996637 L 844.8046878720634 242.2656245759572 L 842.2421872640261 244.62109388795216 L 837.9453122560517 247.28515583992703 L 832.921875456057 249.43359385593794 L 830.0546877440647 250.25390591996256 L 826.1640622080304 251.5859374079737 L 822.2734376960434 252.71093759994255 L 819.1015628800378 253.93750015995465 L 814.7968747520354 254.8593745919643 L 808.8593745920225 256.0898437119322 L 804.3593748480198 256.7031255039619 L 801.0781245440594 257.6249999359716 L 797.8046873600106 258.5468753919704 L 794.2187499520369 257.93359359994065 L 790.2265620480175 257.93359359994065 L 787.8671872000559 257.3203128319583 L 785.8203125760192 255.88671897596214 L 782.0312504320173 253.2226559999399 L 777.6328120320104 251.17578137596138 L 769.5390627840534 246.56640614394564 L 766.9765621760162 245.33984358393354 L 761.7578127360321 243.80078079993837 L 755.8203125760192 241.24218777596252 L 750.0859371520346 238.47656243195524 L 746.7031255040201 236.94140620797407 L 743.7343754240428 236.22265651193447 L 740.1484369920217 235.91796838393202 L 738.2031247360283 236.7382814719458 L 735.8515630080365 237.9648440319579 L 732.9843752960442 238.98828083195258 L 730.4218746880651 239.80859391996637 L 727.7578127360321 240.01171865593642 L 724.9921873920248 239.19531212793663 L 721.7187502080342 241.34375014394755 L 720.4921876480221 244.62109388795216 L 718.9531248640269 246.7734374399297 L 717.3124997120467 248.8203120639664 L 715.164062720025 252.30078156793024 L 713.9375001600129 254.75781222392106 L 713.1171870720573 257.4218751999433 L 711.6796876800363 261.62109337595757 L 710.4531251200242 266.1249996799743 L 709.7343754240428 269.6054691839381 L 708.6093752320157 272.16796876792796 L 708.710937600059 275.1367188479635 L 709.8437498880085 278.92578099196544 L 709.8437498880085 282.8164065279416 L 709.7343754240428 285.88671897596214 L 709.023437824042 288.65234329592204 L 708.1015623680432 291.51953100797255 L 706.562499584048 296.2304686079733 L 705.335937024036 298.6875002879533 L 703.6953128960449 301.6562503679306 L 701.648437248019 304.52343705593375 L 699.9062497280538 307.5976560639683 L 696.2187499520369 311.38671923195943 L 693.2499998720596 312.7187496959232 L 689.1562496000552 313.12500019196887 L 685.7734379520407 313.53515622392297 L 682.0937502720626 314.76562534394907 L 678.4062504960457 316.60937523195753 L 675.8437498880085 318.65624985593604 L 673.1796879360336 320.3984373759595 L 670.4140625920263 321.011719167931 L 667.343750144064 321.11328153597424 L 663.7578127360321 320.80468787194695 L 659.1484375040163 320.0898437119322 L 656.390625280037 318.24609382392373 L 652.4999997440609 313.9453122559353 L 652.0859371520346 309.644531711936 L 651.5781253120513 305.34375014394755 L 648.914062336029 300.2226565119345 L 648.2968750080327 296.5390622719424 L 646.8671877120505 292.33984409592813 L 644.5078128640307 289.16406271996675 L 640.2109378560563 286.29687500797445 L 637.8515630080365 284.14843699196354 L 635.6015626240405 281.5859374079737 L 633.1406254080357 278.31250022392487 L 629.4531246080296 275.85156300792005 L 626.6953123840503 273.4960936959251 L 625.4609377280576 271.6562503679306 L 622.6953123840503 269.81250047992216 L 619.2187504640315 267.0468751359731 L 615.1171870720573 263.25781299197115 L 612.9687500800355 261.3124997119303 L 610.1015623680432 258.9570314239245 L 606.6171873280546 255.37499955197563 L 603.9609374720603 252.5039063039585 L 602.3203123200219 250.3554682879476 L 600.5781248000567 247.28515583992703 L 599.1484375040163 243.59765606396832 L 598.4296878080349 241.24218777596252 L 597.6093747200212 238.98828083195258 L 596.179687424039 236.22265651193447 L 594.1249996800325 232.74218700797064 L 591.0546872320119 229.3632808959228 L 586.6562498560525 227.82812467194162 L 584.0937502720626 226.90625023993198 L 579.7890621440602 225.7812500479631 L 576.109375488013 225.16406271996675 L 572.0078120960388 224.550780927937 L 567.3984378880123 224.24218726396793 L 564.1249996800325 224.449218559952 L 561.5625000960426 225.47265638393583 L 559.4140620800317 227.4179686399293 L 556.1406248960411 229.57031219196506 L 553.2734371840488 230.1835939839366 L 549.5859374080319 229.97656268795254 L 546.4062504960457 229.77343795192428 L 542.109375488013 229.77343795192428 L 538.8359372800332 229.8750003199675 L 535.8593751040171 230.38671871996485 L 531.6640624640277 231.4101565439487 L 527.3671874560532 232.2304686079733 L 523.5781253120513 232.53906227194238 L 521.015624704014 232.43359334394336 L 518.7656253440655 232.43359334394336 L 515.898437632015 232.6406246399274 L 513.0312499200227 232.74218700797064 L 510.7734374400461 232.53906227194238 L 508.42187468806515 230.89843711996218 L 506.5781248000567 229.46484326396603 L 502.6875002880115 226.18749951996142 L 500.2265620480175 223.93750015995465 L 498.38281216000905 221.5820308479597 L 496.2343751680455 217.89453107194277 L 495.92968704004306 213.5937495039543 L 495.82812467205804 208.98437529592775 L 495.51562547206413 205.0937497599516 L 495.10937497601844 201.92187494394602 L 493.9843747840496 198.5429688319564 L 491.2187504640315 192.4999997439445 L 487.01562470401404 185.640625151922 L 484.7656253440655 183.48828159994446 L 482.10156236804323 182.15625011193333 L 478.8281251840526 181.33593702391954 L 473.6015626240405 182.25781247991836 L 468.38281216000905 183.38671923195943 L 458.34374963201117 185.2304691199679 L 453.84374988800846 185.33203148795292 L 450.97656217601616 185.43359385593794 L 447.5937495040125 185.2304691199679 L 444.7265628160094 185.6367185919662 L 442.06249984004535 185.53515622392297 L 438.3750000640284 185.33203148795292 L 430.9062502400484 181.23437465593452 L 425.7812500480213 177.9570309119299 L 422.812499968044 176.11718758393545 L 419.9453122560517 174.6835937279393 L 416.87499980803113 173.14453094394412 L 412.6718750720611 171.30468761594966 L 408.2734376960434 169.66406246396946 L 395.6796876800363 165.3632808959228 L 391.1718748160638 164.2382817279431 L 386.2578145280131 162.39452671993058 L 382.7734374400461 160.24218726396793 L 380.21093785605626 158.5039063039585 L 378.88281292805914 155.12500019196887 L 379.5000002560555 152.15234355191933 L 383.898437632015 146.72656281595118 L 392.0937502720626 139.4570311679272 L 397.0078126080334 134.6445311999414 L 404.179687424039 131.67578111996409 L 407.8593751040171 130.24218726396793 L 411.546874880034 128.29687500797445 L 418.0000000000582 123.68749977595871 L 420.25000038405415 121.33203148795292 L 423.1171870720573 117.23437465593452 L 424.5546874880092 112.52343705593375 L 422.3046871040133 108.22265651193447 L 416.7734374400461 106.89453158393735 L 407.3515622400446 107.19921868795063 L 401.8203125760192 107.816406015947 L 394.5468753920286 108.01953075197525 L 388.4062504960457 107.71093708794797 L 384.3125002240413 107.50781235191971 L 381.64843724801904 108.12109414394945 L 378.78124953602673 107.09765631996561 L 374.89062502403976 103.92187494394602 L 369.25781299202936 99.7265623039566 L 364.4453120000544 96.34765619196696 L 360.7578122240375 94.19531263993122 L 356.14843699202174 90.81640652794158 L 353.6953128960449 88.56249958393164 L 349.1875000320142 85.69531289592851 L 343.0468751360313 84.67187507194467 L 340.78906265605474 85.08203110395698 L 337.3124997120467 87.12890675192466 L 334.33593753603054 89.79296870395774 L 332.4999997440609 93.07031244796235 L 331.26562508801 96.44921855995199 L 329.42187520005973 100.85156249592546 L 326.65624985605245 106.58593791996827 L 324.921875456057 114.57421823992627 L 324.3046871040133 119.48828159994446 L 325.1250001920271 123.89062451192876 L 325.5312496640254 127.78125004796311 L 325.1250001920271 131.26562508795178 L 324.3046871040133 134.84765593596967 L 323.48437504004687 138.12499967997428 L 322.8671877120505 140.378906623926 L 321.84374988800846 142.83593727997504 L 320.7187496960396 145.80468735995237 L 318.87499980803113 149.6953128959285 L 317.1328122880659 152.87109324795892 L 315.6015626240405 155.2265625599539 L 314.1640622080304 157.07031244796235 L 311.39843788801227 160.34765619196696 L 308.3281254400499 164.03125043195905 L 305.7734379520407 166.48828108794987 L 303.2109373440617 168.43359334394336 L 299.7265623040148 170.58593791996827 L 295.2265625600121 172.12109414394945 L 290.0000000000582 173.14453094394412 L 287.85156300803646 173.4531246079714 L 284.57031270401785 173.65625036793062 L 280.88281292805914 173.9648440319579 L 277.4062499840511 174.88671846396755 L 274.1249996800325 175.70703155192314 L 270.6484377600136 176.52734361594776 L 266.8593745920225 177.24218777596252 L 261.02343782404205 178.2656245759572 L 256.7187496960396 178.87890636792872 L 251.9062497280538 179.59765606396832 L 248.42968780803494 179.69921843195334 L 244.84375040006125 179.80078079993837 L 241.66406246402767 179.28906239994103 L 239.10937497601844 178.57421823992627 L 235.52343756804476 175.6015626239241 L 230.91406233602902 165.77343795192428 L 228.76562534406548 162.0859371519182 L 228.25000038405415 159.21875046397327 L 228.25000038405415 156.25000038393773 L 227.32812492805533 152.15234355191933 L 226.20312473602826 148.05859327997314 L 225.69531289604492 145.49609369592508 L 224.15625011204975 142.52734361594776 L 221.70312499202555 139.76171827194048 L 218.83593728003325 138.2265620479593 L 210.64062464004382 134.2343751679291 L 206.4453120000544 133.41406207997352 L 191.69531289604492 130.44531199993799 L 180.02343731204746 129.11328153597424 L 175.92968704004306 128.39843737595947 L 171.3203128320165 128.9101557759568 L 166.5078128640307 131.7773434879491 L 164.04687462403672 134.74609356792644 L 163.2265625600121 138.94531276792986 L 162.7187496960396 142.3242188799195 L 162.4062504960457 145.29296895995503 L 162.30468710401328 148.26171903993236 L 161.79687526402995 151.12890675192466 L 158.92968755203765 153.79296870395774 L 152.9921873920248 156.453125119966 L 148.8944302080199 156.25976524793077 L 148.6875002880115 156.25000038393773 L 143.05468723201193 153.89453107194277 L 138.0390625280561 151.02734335995046 L 132.4062504960457 146.93359411193524 L 126.97656217601616 142.11718758393545 L 123.60156262404053 138.94531276792986 L 119.81250048003858 135.15624959993875 L 117.0468751360313 129.52343756792834 L 116.22656204801751 126.55468748795101 L 114.69531238405034 123.78906214394374 L 113.35937536001438 121.640625151922 L 112.64062464004382 119.17968793597538 L 111.3124997120467 115.28906239994103 L 109.46874982403824 111.50000025593909 L 108.34374963201117 108.53125017596176 L 106.60156211204594 104.84375039994484 L 105.47656294400804 100.75000012794044 L 105.27343718404882 97.06250035192352 L 105.57812531205127 93.88671897596214 L 105.98437478404958 91.83984332793625 L 106.09375027206261 89.48437503993046 L 105.6796876800363 86.0039065599558 L 104.8593745920225 82.52343705593375 L 104.35156275203917 78.52734361594776 L 103.83593779202783 73.92187494394602 L 102.60937523201574 66.64843775995541 L 101.48437504004687 62.964843519963324 L 99.9453122560517 59.37890611193143 L 97.69531289604492 55.28515583992703 L 94.82812518405262 51.187500031956006 L 92.57031270401785 48.730468351976015 L 90.83593728003325 47.19531212793663 L 88.88281292805914 45.5546879999456 L 86.32812544004992 43.60937471996294 L 84.07031296001514 42.382812159950845 L 80.49218764802208 41.35546879994217 L 76.60156211204594 42.27734425594099 L 72.09375027206261 44.222656511934474 L 69.32812492805533 45.35156223992817 L 66.86718771205051 46.57812479994027 L 60.00781209603883 50.367187967931386 L 56.83593728003325 51.90624972793739 L 54.47656243201345 53.13281228794949 L 51.507812352036126 54.87499980797293 L 48.5390622720588 56.82031206396641 L 45.570312192023266 58.0468746239203 L 41.47656294400804 59.89062451192876 L 36.86718771205051 61.121093631954864 L 32.46093721606303 62.8593745919643 L 30.414062592026312 64.29296844796045 L 27.960937472060323 65.7265623039566 L 26.385332224017475 65.48629401595099 L 25.296874496038072 65.32031283195829 L 23.45312460802961 63.78125004796311 L 21.304687616066076 61.121093631954864 L 20.179687424039003 57.74218751996523 L 19.664062464027666 53.74609407992102 L 19.664062464027666 50.06249983992893 L 20.484374528052285 47.60546918393811 L 19.867187200055923 44.94140620797407 L 16.179687424039003 45.35156223992817 L 13.828124672058038 45.96484403195791 L 11.367187456053216 47.089844223926775 L 8.812499968043994 49.14062540791929 L 6.351562752039172 51.597656063968316 L 4.507812864030711 54.56640614394564 L 4.000000000058208 56.92187545594061 L 3.898437632014975 59.48046847997466 L 4.203124736028258 62.144531455938704 L 4.609375232015736 66.03515596792568 L 5.328124928055331 70.13281279994408 L 6.148436992021743 72.69140582391992 L 7.4765629440080374 75.4570311679272 L 8.60156211204594 77.71093708794797 L 9.523437568044756 79.34765670396155 L 10.75781222403748 81.80468735995237 L 12.085937152034603 84.57031270395964 L 12.60156211204594 87.84765644796425 L 13.929687040043063 91.73828095995123 L 15.257812992029358 96.44921855995199 L 15.773437952040695 100.2382817279431 L 16.078125056053977 103.92187494394602 L 16.281249792024028 106.78906265593832 L 16.281249792024028 110.57812479994027 L 15.570312192023266 114.26562457595719 L 14.335937536030542 116.72265625593718 L 11.882812416064553 119.48828159994446 L 9.015624704014044 122.35546828794759 L 6.351562752039172 124.91406233597081 L 3.7890621440601535 127.78125004796311 L 1.031249920022674 131.05859379196772 L 0.0 132.82949893631303" fill="none"/><path stroke="#000000" stroke-width="2" d="M 0.0 132.82949893629848 L 1.031249920022674 131.05859379196772 L 3.789062144118361 127.7812500479049 L 6.351562752039172 124.9140623358544 L 9.015624704014044 122.35546828783117 L 11.882812416064553 119.48828159988625 L 14.335937536030542 116.72265625587897 L 15.570312192023266 114.26562457584077 L 16.281249792082235 110.57812479994027 L 16.281249792082235 106.78906265588012 L 16.078125056112185 103.92187494382961 L 15.773437952098902 100.23828172782669 L 15.257812992087565 96.44921855983557 L 13.929687040043063 91.73828095995123 L 12.60156211204594 87.84765644796425 L 12.085937152034603 84.57031270395964 L 10.757812224095687 81.80468735995237 L 9.523437568102963 79.34765670401976 L 8.60156211204594 77.71093708783155 L 7.4765629440080374 75.4570311679854 L 6.148436992079951 72.69140582397813 L 5.328124928055331 70.13281279982766 L 4.609375232132152 66.03515596780926 L 4.203124736086465 62.1445314558805 L 3.8984376320731826 59.48046847991645 L 4.000000000116415 56.92187545594061 L 4.507812864030711 54.56640614394564 L 6.351562752039172 51.59765606391011 L 8.812499968043994 49.140625407977495 L 11.367187456053216 47.08984422381036 L 13.828124672116246 45.96484403195791 L 16.179687424039003 45.35156223992817 L 19.86718720011413 44.94140620791586 L 20.484374528052285 47.605469183879904 L 19.664062464027666 50.06249983981252 L 19.664062464027666 53.74609407992102 L 20.179687424039003 57.74218751996523 L 21.304687616066076 61.121093631896656 L 23.45312460802961 63.78125004796311 L 25.296874496154487 65.32031283190008 L 26.385332224017475 65.48629401589278 L 27.96093747211853 65.72656230384018 L 30.414062592026312 64.29296844784403 L 32.46093721612124 62.859374592022505 L 36.86718771205051 61.121093631896656 L 41.47656294400804 59.89062451192876 L 45.570312192023266 58.0468746239203 L 48.53906227211701 56.82031206402462 L 51.507812352094334 54.87499980791472 L 54.47656243207166 53.13281228794949 L 56.83593728003325 51.906249727879185 L 60.00781209603883 50.36718796787318 L 66.86718771210872 46.578124799823854 L 69.32812492805533 45.35156223992817 L 72.09375027206261 44.222656511934474 L 76.60156211204594 42.27734425588278 L 80.49218764802208 41.355468799883965 L 84.07031296001514 42.38281215989264 L 86.32812544004992 43.60937471996294 L 88.88281292805914 45.5546879999456 L 90.83593728003325 47.19531212799484 L 92.57031270401785 48.7304683518596 L 94.82812518411083 51.1875000318978 L 97.69531289604492 55.28515583992703 L 99.9453122560517 59.37890611187322 L 101.48437504004687 62.964843519905116 L 102.60937523201574 66.648437759839 L 103.83593779208604 73.92187494388781 L 104.35156275209738 78.52734361588955 L 104.85937459208071 82.52343705593375 L 105.6796876800363 86.0039065599558 L 106.09375027206261 89.48437503987225 L 105.98437478404958 91.83984332799446 L 105.57812531205127 93.88671897596214 L 105.27343718404882 97.0625003518071 L 105.47656294412445 100.75000012788223 L 106.60156211210415 104.84375040000305 L 108.34374963206938 108.53125017584534 L 109.46874982403824 111.50000025593909 L 111.3124997120467 115.28906239982462 L 112.64062464010203 119.17968793591717 L 113.35937536007259 121.64062515186379 L 114.69531238410855 123.78906214382732 L 116.22656204801751 126.5546874878346 L 117.0468751360313 129.52343756792834 L 119.81250048003858 135.15624959982233 L 123.60156262404053 138.94531276787166 L 126.97656217607437 142.11718758381903 L 132.4062504960457 146.93359411199344 L 138.0390625280561 151.02734336000867 L 143.05468723207014 153.89453107182635 L 148.6875002880115 156.25000038382132 L 148.8944302080199 156.25976524793077 L 152.9921873920248 156.45312511990778 L 158.92968755209586 153.79296870401595 L 161.79687526402995 151.12890675192466 L 162.30468710401328 148.26171903987415 L 162.4062504960457 145.29296895983862 L 162.7187496960978 142.3242188799195 L 163.2265625600121 138.94531276787166 L 164.04687462403672 134.74609356781002 L 166.50781286408892 131.7773434879491 L 171.3203128320165 128.9101557758986 L 175.92968704004306 128.39843737584306 L 180.02343731204746 129.11328153591603 L 191.69531289610313 130.44531199993799 L 206.4453120000544 133.4140620798571 L 210.64062464004382 134.2343751679873 L 218.83593728009146 138.2265620479593 L 221.70312499202555 139.76171827182407 L 224.15625011210795 142.52734361583134 L 225.69531289604492 145.49609369592508 L 226.20312473602826 148.05859327991493 L 227.32812492805533 152.15234355186112 L 228.25000038405415 156.25000038382132 L 228.25000038405415 159.21875046391506 L 228.7656253441237 162.08593715185998 L 230.91406233608723 165.77343795180786 L 235.52343756804476 175.6015626239241 L 239.10937497613486 178.57421823992627 L 241.66406246414408 179.28906239999924 L 244.84375040011946 179.80078079982195 L 248.42968780803494 179.69921843201155 L 251.9062497280538 179.59765606396832 L 256.7187496960396 178.87890636798693 L 261.02343782404205 178.2656245759572 L 266.8593745920807 177.2421877758461 L 270.6484377600136 176.52734361583134 L 274.1249996801489 175.70703155180672 L 277.4062499840511 174.88671846390935 L 280.88281292805914 173.9648440318415 L 284.57031270401785 173.65625036787242 L 287.85156300803646 173.453124607855 L 290.0000000000582 173.1445309438859 L 295.2265625600703 172.12109414394945 L 299.7265623040148 170.58593791991007 L 303.2109373441199 168.43359334382694 L 305.7734379520407 166.48828108794987 L 308.3281254400499 164.03125043184264 L 311.3984378880705 160.34765619190875 L 314.1640622080886 157.07031244784594 L 315.6015626240405 155.22656255983748 L 317.1328122880659 152.8710932478425 L 318.87499980803113 149.6953128959285 L 320.7187496960978 145.80468735989416 L 321.84374988800846 142.83593727997504 L 322.8671877120505 140.3789066238678 L 323.4843750401633 138.12499967991607 L 324.3046871040133 134.84765593585325 L 325.1250001920271 131.26562508789357 L 325.5312496640836 127.7812500479049 L 325.1250001920271 123.89062451187056 L 324.3046871040133 119.48828159988625 L 324.921875456057 114.57421823980985 L 326.65624985605245 106.58593791996827 L 329.42187520005973 100.85156249592546 L 331.2656250880682 96.44921855983557 L 332.4999997440609 93.07031244790414 L 334.33593753608875 89.79296870384132 L 337.3124997121631 87.12890675180824 L 340.78906265605474 85.08203110395698 L 343.0468751361477 84.67187507194467 L 349.1875000320142 85.6953128958121 L 353.69531289610313 88.56249958393164 L 356.14843699207995 90.81640652788337 L 360.7578122240957 94.19531263993122 L 364.4453120000544 96.34765619196696 L 369.25781299208757 99.72656230384018 L 374.89062502403976 103.92187494382961 L 378.78124953614315 107.0976563198492 L 381.64843724801904 108.12109414383303 L 384.3125002240413 107.5078123518615 L 388.4062504961039 107.71093708794797 L 394.5468753920286 108.01953075191705 L 401.8203125760192 107.81640601583058 L 407.3515622401028 107.19921868789243 L 416.7734374400461 106.89453158393735 L 422.3046871040715 108.22265651187627 L 424.55468748806743 112.52343705587555 L 423.1171870720573 117.23437465593452 L 420.25000038405415 121.33203148789471 L 418.0000000000582 123.68749977595871 L 411.5468748800922 128.29687500803266 L 407.8593751040171 130.24218726390973 L 404.179687424039 131.67578111990588 L 397.0078126080916 134.64453119999962 L 392.0937502720626 139.4570311679272 L 383.898437632015 146.72656281583477 L 379.5000002560555 152.15234355186112 L 378.88281292811735 155.12500019196887 L 380.21093785611447 158.5039063039003 L 382.7734374400461 160.24218726402614 L 386.2578145280131 162.39452671981417 L 391.1718748160638 164.2382817279431 L 395.6796876800945 165.3632808959228 L 408.2734376961016 169.66406246396946 L 412.6718750721193 171.30468761589145 L 416.87499980808934 173.1445309438859 L 419.9453122561099 174.68359372782288 L 422.812499968044 176.11718758381903 L 425.7812500480213 177.9570309118135 L 430.9062502401648 181.2343746558763 L 438.3750000640284 185.3320314878365 L 442.06249984010356 185.53515622392297 L 444.7265628160676 185.6367185919662 L 447.5937495040125 185.2304691199679 L 450.97656217607437 185.43359385587974 L 453.84374988800846 185.3320314878365 L 458.3437496320694 185.2304691199679 L 468.38281216006726 183.38671923195943 L 473.6015626240405 182.25781247986015 L 478.82812518411083 181.33593702391954 L 482.10156236804323 182.15625011181692 L 484.7656253440655 183.48828159982804 L 487.01562470407225 185.64062515180558 L 491.2187504640315 192.49999974382808 L 493.9843747840496 198.54296883189818 L 495.10937497601844 201.92187494394602 L 495.51562547206413 205.0937497599516 L 495.82812467205804 208.98437529581133 L 495.92968704004306 213.5937495038961 L 496.2343751680455 217.89453107194277 L 498.38281216000905 221.58203084784327 L 500.2265620480175 223.93750015983824 L 502.6875002880115 226.187499519845 L 506.5781248000567 229.46484326384962 L 508.42187468806515 230.89843711990397 L 510.7734374401043 232.53906227182597 L 513.0312499200227 232.74218700791243 L 515.8984376320732 232.6406246398692 L 518.7656253441819 232.43359334394336 L 521.015624704014 232.43359334394336 L 523.5781253121095 232.53906227182597 L 527.3671874561114 232.2304686078569 L 531.6640624640277 231.41015654383227 L 535.8593751040753 230.38671871984843 L 538.8359372800915 229.8750003199675 L 542.1093754880712 229.77343795192428 L 546.4062504961621 229.77343795192428 L 549.5859374080319 229.97656268783612 L 553.273437184107 230.1835939839366 L 556.1406248960411 229.57031219196506 L 559.4140620800317 227.4179686399293 L 561.5625000961008 225.47265638387762 L 564.1249996800325 224.44921855989378 L 567.3984378880123 224.24218726396793 L 572.0078120960388 224.550780927937 L 576.109375488013 225.16406271990854 L 579.7890621440602 225.7812500478467 L 584.0937502720626 226.90625023993198 L 586.6562498560525 227.82812467194162 L 591.0546872320119 229.3632808958646 L 594.1249996800325 232.74218700791243 L 596.179687424039 236.22265651193447 L 597.6093747200212 238.98828083183616 L 598.4296878080349 241.24218777602073 L 599.1484375041327 243.5976560639101 L 600.5781248001149 247.28515583992703 L 602.3203123200219 250.35546828788938 L 603.9609374720603 252.5039063039003 L 606.6171873281128 255.37499955191743 L 610.1015623681014 258.9570314238081 L 612.9687500800355 261.3124997118721 L 615.1171870720573 263.25781299185473 L 619.2187504640315 267.0468751359731 L 622.6953123841085 269.8125004799804 L 625.4609377281158 271.6562503678142 L 626.6953123841085 273.4960936959833 L 629.4531246080878 275.85156300797826 L 633.1406254080357 278.31250022392487 L 635.6015626240405 281.5859374079155 L 637.8515630080365 284.14843699196354 L 640.2109378560563 286.29687500797445 L 644.5078128640889 289.16406271985034 L 646.8671877121087 292.3398440958699 L 648.2968750080909 296.5390622720006 L 648.914062336029 300.22265651187627 L 651.5781253121677 305.34375014394755 L 652.0859371520928 309.6445317118196 L 652.4999997440609 313.94531225581886 L 656.3906252800953 318.2460938238655 L 659.1484375040745 320.089843711874 L 663.7578127360321 320.80468787194695 L 667.343750144064 321.11328153591603 L 670.4140625920845 321.0117191678728 L 673.17968793615 320.39843737584306 L 675.8437498880085 318.65624985587783 L 678.4062504960457 316.60937523195753 L 682.0937502721208 314.76562534394907 L 685.7734379520407 313.53515622380655 L 689.1562496001134 313.12500019196887 L 693.2499998720596 312.7187496959232 L 696.2187499520369 311.386719231843 L 699.9062497281702 307.5976560638519 L 701.6484372480772 304.52343705587555 L 703.6953128961031 301.6562503679306 L 705.335937024036 298.6875002878369 L 706.562499584048 296.2304686079733 L 708.1015623680432 291.51953100791434 L 709.0234378241003 288.65234329592204 L 709.734375424101 285.88671897596214 L 709.8437498881249 282.8164065278834 L 709.8437498881249 278.925780991849 L 708.710937600059 275.1367188479053 L 708.6093752321322 272.16796876786975 L 709.734375424101 269.6054691838217 L 710.4531251200824 266.1249996799743 L 711.6796876800363 261.62109337584116 L 713.1171870720573 257.4218751999433 L 713.9375001600711 254.75781222380465 L 715.164062720025 252.30078156787204 L 717.3124997121049 248.82031206402462 L 718.9531248641433 246.7734374399297 L 720.4921876480803 244.62109388789395 L 721.7187502080342 241.34375014383113 L 724.9921873921412 239.19531212782022 L 727.7578127360321 240.0117186558782 L 730.4218746881234 239.80859391996637 L 732.9843752960442 238.98828083183616 L 735.8515630080947 237.9648440319579 L 738.2031247360283 236.7382814718876 L 740.14843699208 235.91796838393202 L 743.734375424101 236.22265651193447 L 746.7031255040783 236.94140620791586 L 750.0859371520346 238.47656243201345 L 755.8203125760192 241.24218777602073 L 761.7578127360903 243.80078079993837 L 766.9765621760162 245.33984358387534 L 769.5390627840534 246.56640614394564 L 777.6328120320104 251.1757813760196 L 782.0312504320173 253.2226559999399 L 785.8203125760192 255.88671897590393 L 787.8671872000559 257.3203128319001 L 790.2265620480757 257.93359359999886 L 794.2187499521533 257.93359359999886 L 797.8046873600106 258.5468753919704 L 801.0781245441758 257.6249999360298 L 804.3593748480198 256.7031255039619 L 808.8593745920807 256.0898437119322 L 814.7968747520354 254.8593745920225 L 819.1015628800378 253.93750015995465 L 822.2734376960434 252.71093759988435 L 826.1640622081468 251.5859374080319 L 830.0546877441229 250.25390591984615 L 832.921875456057 249.43359385582153 L 837.9453122560517 247.28515583992703 L 842.2421872641426 244.62109388789395 L 844.8046878720634 242.26562457589898 L 847.0546872320701 239.80859391996637 L 850.1249996800907 235.8164060158888 L 851.0468751360313 233.05078169581247 L 851.8671872000559 231.00000051181996 L 854.3281254400499 225.7812500478467 L 855.6562503681052 221.99218790396117 L 856.8828129280591 217.99609343981137 L 857.5000002561137 213.39062476786785 L 859.343750144064 208.98437529581133 L 858.1171875840519 205.0937497599516 L 859.0390620161197 200.58984345581848 L 859.8593751040753 195.3671874558786 L 861.8046873600106 191.57812531193485 L 856.2734376960434 191.47656294394983 L 854.7343749121064 194.44531199987978 L 853.101562880096 198.43749990395736 L 851.6640624640277 201.71484364784556 L 849.9218749441206 203.457031167869 L 846.6484377600136 203.457031167869 L 843.9843747840496 202.2265620479011 L 842.3437496320112 199.15624959999695 L 840.710937600059 194.44531199987978 L 843.6796876800363 190.04296908789547 L 848.3906252800953 189.42578175995732 L 854.4296878080931 186.45703167986358 L 858.7265628160094 186.66406297602225 L 861.9062497280538 185.84374988789205 L 864.9765621760162 186.45703167986358 L 868.7656253441819 187.17578137584496 L 871.3281249281135 185.53515622392297 L 871.1171870721155 182.56640614382923 L 869.0703124480206 174.06640639988473 L 869.0703124480206 171.40624998393469 L 870.1953126400476 168.12890623987187 L 871.8359377920278 166.38671871990664 L 873.9843747840496 165.57031219184864 L 876.8515624961001 165.26171852787957 L 881.7734379521571 164.75000012782402 L 885.0468751360895 165.46484326390782 L 887.7109370881226 165.97656268789433 L 890.3750000640866 165.8750003198511 L 895.0781245440594 163.8281246718252 L 899.1796879360918 164.3398440958117 L 902.9687500800937 165.97656268789433 L 906.2421872640844 168.53906227188418 L 909.0078126080916 170.175780864025 L 911.3671874560532 171.60937471984653 L 915.3593753600144 172.63281254383037 L 920.9921873921412 173.55468799982918 L 924.1640622080304 170.99609395192238 L 923.9609374720603 168.53906227188418 L 923.8593751040171 165.8750003198511 L 922.4218746881234 161.3710940158926 L 920.3750000640284 158.195312639873 L 922.7265628161258 155.94140671985224 L 926.4140625920263 156.25000038382132 L 930.9218754561152 156.66015641583363 L 937.3749995521503 157.07031244784594 L 941.5703121920233 157.99218790384475 L 944.7421870080871 158.70703103992855 L 948.9453127680463 160.55078092799522 L 955.1875000321306 161.3710940158926 L 959.3906247680425 162.5976565759629 L 963.0781245440594 163.8281246718252 L 968.1953126401058 165.67187455989188 L 971.6796876800945 166.59375001583248 L 974.7500001281151 167.10546841588803 L 976.4921876480221 166.38671871990664 L 978.7421870080288 165.3632808959228 L 984.6796871680417 163.21484390395926 L 988.468750336091 160.55078092799522 L 990.5156249600113 157.07031244784594 L 991.2343746560509 154.20312473602826 L 992.5703127040179 149.08203110389877 L 996.3593748480198 145.9062497279374 L 999.6328120320104 146.21484339190647 L 1003.5234314240515 148.98046771180816 L 1003.2187504640315 153.99609343986958 L 1001.374999552092 157.17187481588917 L 1000.3515627520974 160.449218559952 L 1002.3984373760177 162.9062502399902 L 1006.6953123841085 162.1874995199032 L 1010.078125056054 160.8593745919643 L 1014.2734376960434 159.11718707194086 L 1018.0624998400453 158.29687500791624 L 1019.3984378880705 156.8632811519201 L 1020.7265628160094 155.42968729592394 L 1023.2890624001157 154.20312473602826 L 1024.0 153.62373083198327" fill="none"/><path stroke="#000000" stroke-width="2" d="M 1024.0 140.0608580195767 L 1023.6953128960449 139.96874956792453 L 1021.0312499200227 136.48828108783346 L 1019.6015626240405 133.51562547200592 L 1021.1328122880659 129.7265623039566 L 1024.0 130.4851459664642" fill="none"/></svg>