<svg xmlns="http://www.w3.org/2000/svg" width="1024" height="1024"><rect stroke="none" x="0" y="0" width="1024" height="1024" fill="white"/><path stroke="#408040" stroke-width="3" d="M 1024.0 715.048134193552 L 1023.2320000000036 715.1513600000035 L 1020.0576000000001 715.2640000000029 L 1012.5823999999993 715.130879999997 L 1008.6809599999979 715.4995199999976 L 1005.0150399999984 716.1958400000003 L 1001.7484799999947 717.137920000001 L 996.823040000003 719.2780799999964 L 992.7782399999996 721.9199999999983 L 988.4159999999974 725.1967999999979 L 985.651199999993 727.8796799999982 L 982.6815999999963 730.593280000001 L 980.1011200000066 732.4057600000015 L 976.4044799999974 734.4435200000007 L 970.9158400000015 737.2799999999988 L 968.4172799999942 738.8569599999973 L 964.6284799999994 742.2873600000021 L 959.6416000000027 746.5164799999984 L 955.6582400000043 749.4758399999992 L 950.8659199999965 753.0291199999992 L 945.2339199999988 756.8998399999982 L 941.322239999994 758.9887999999992 L 938.5574400000041 760.1971199999971 L 933.2940800000069 762.0403200000001 L 921.6204799999978 765.02016 L 915.9475200000015 767.109120000001 L 911.697920000006 769.4335999999967 L 905.4924800000008 773.1404800000018 L 902.133759999997 774.5740799999985 L 897.4950399999943 776.0486400000009 L 892.3955200000055 777.5641600000017 L 887.2550400000036 779.0796800000026 L 880.1689599999954 781.1993599999987 L 868.0550400000066 784.7935999999972 L 807.311360000007 802.8774399999966 L 792.4223999999958 807.3625600000014 L 788.6131199999945 808.8371199999965 L 783.9232000000047 811.1103999999978 L 776.5708799999993 815.9129600000015 L 767.4572800000024 822.241280000002 L 747.7247999999963 835.9731200000024 L 717.3017600000021 857.1391999999978 L 688.1484800000035 877.4553599999999 L 661.0124800000049 896.3788799999966 L 652.718080000006 902.1644799999995 L 648.7756800000061 904.7142400000012 L 646.3590399999957 905.9328000000023 L 642.8979200000031 907.3356799999965 L 636.5388799999928 909.0048000000024 L 632.494080000004 909.5987200000018 L 622.7148799999995 909.8752000000022 L 604.9689599999983 909.9980799999976 L 573.2863999999972 910.1926400000011 L 562.5344000000041 909.8342399999965 L 531.7119999999995 909.9775999999983 L 486.9836800000048 910.3667199999982 L 468.869120000003 910.5305599999992 L 459.2025600000052 910.6124800000034 L 452.1779200000019 910.2950399999972 L 444.88704000000143 909.8137599999973 L 438.88640000000305 910.1209600000002 L 434.42175999999745 910.8377600000022 L 429.13791999999376 912.3020800000013 L 416.57343999999284 916.9715199999991 L 410.19392000000516 919.2345599999971 L 406.1695999999938 920.258560000002 L 401.15200000000186 921.2518399999972 L 395.81695999999647 922.3065599999973 L 382.43327999999747 924.7641599999988 L 379.83232000000135 924.9689599999983 L 371.84511999999813 924.9177599999966 L 357.468160000004 924.6719999999987 L 340.7769600000029 924.3955199999982 L 327.77215999999316 924.3852800000022 L 321.843200000003 925.2044800000003 L 317.18399999999383 926.4230400000015 L 312.6988799999963 927.9692799999975 L 302.7251200000028 931.4406400000007 L 297.76896000000124 933.1507199999978 L 292.9459199999983 934.4512000000032 L 286.7814400000061 935.3011199999964 L 280.7193600000028 935.4137600000031 L 257.17759999999544 935.4547200000015 L 236.50303999999596 935.5161599999992 L 181.07391999999527 935.6800000000003 L 158.63808000000427 935.6492799999978 L 140.60543999999936 934.7174400000004 L 118.57919999999285 934.5228799999968 L 101.33504000000539 934.0313600000009 L 83.19999999999709 934.2464000000036 L 72.31488000000536 934.2464000000036 L 63.75423999999475 935.1987200000003 L 52.613119999994524 936.6016000000018 L 47.46240000000398 937.1750400000019 L 42.84415999999328 937.2569599999988 L 37.44767999999749 937.0521599999993 L 22.96831999999995 937.51296 L 17.37728000000061 937.5334399999992 L 2.1811199999938253 936.8883199999982 L 0.0 936.8723176522399" fill="none"/><path stroke="#408040" stroke-width="3" d="M 473.6595817760681 1024.0 L 492.7795199999964 1015.4803200000024 L 506.7980799999932 1009.2953599999964 L 522.7827200000029 1003.9705600000016 L 541.2863999999972 996.5465600000025 L 546.2835199999972 993.8022399999973 L 551.6492799999978 989.9622400000007 L 562.8313599999965 981.9750399999975 L 568.4735999999975 977.9609599999967 L 572.2009600000019 975.8208000000013 L 578.6521599999978 973.4451199999967 L 583.7926399999997 971.9603199999983 L 587.9500799999951 970.7212799999979 L 592.0153600000049 969.0624000000025 L 596.5926400000026 966.3283200000005 L 600.2483199999988 963.0617599999969 L 602.2860800000053 960.3583999999973 L 603.9244800000015 956.856319999999 L 604.610560000001 953.2928000000029 L 604.354560000007 949.1967999999979 L 603.1257599999954 939.0387199999968 L 604.1497600000002 932.1471999999994 L 605.685759999993 923.5455999999976 L 606.3820799999958 919.8079999999973 L 607.3651200000022 917.9135999999999 L 608.8908800000063 916.4492800000007 L 610.9081600000063 915.3024000000005 L 616.642559999993 914.0531199999969 L 621.0252800000017 913.1724800000011 L 626.0633600000001 911.0527999999977 L 638.4230399999942 908.9228799999983 L 643.1436799999938 907.5609600000025 L 647.3830400000006 905.7996799999964 L 651.3766400000022 903.5059200000032 L 657.8278399999981 899.0105600000024 L 666.7059199999931 892.8153600000005 L 689.1520000000019 877.148159999997 L 716.2982400000037 858.2451199999996 L 766.863360000003 823.0604800000001 L 782.9708799999935 812.01152 L 791.3472000000038 808.0691200000001 L 815.0630399999936 800.880640000003 L 878.325760000007 782.0492799999993 L 891.9347200000047 778.0044800000032 L 906.3219200000021 773.7036799999987 L 912.8857600000047 770.8159999999989 L 921.1392000000051 766.3206399999981 L 932.1062399999937 762.7263999999996 L 941.7011199999979 759.142399999997 L 946.7596800000028 756.3571200000006 L 951.8387199999997 752.7321599999996 L 960.8396800000046 747.53024 L 967.6492799999978 741.5500800000009 L 972.072960000005 738.5804799999969 L 985.6204799999978 729.4566399999967 L 991.7849600000045 723.3740800000014 L 995.5225599999976 720.4351999999999 L 999.7004799999995 718.2848000000013 L 1003.4380800000072 716.9843200000032 L 1008.1791999999987 715.9807999999975 L 1024.0 715.3409882352935" fill="none"/></svg>