<svg xmlns="http://www.w3.org/2000/svg" width="1024" height="1024"><rect stroke="none" x="0" y="0" width="1024" height="1024" fill="white"/><path stroke="#000000" stroke-width="2" d="M 287.0937497600098 217.06640588794835 L 287.20312524802284 217.15234406397212 L 287.15624960005516 217.183593471942 L 287.0937497600098 217.24609331192914 L 286.9999994880636 217.30078105593566 L 286.9062502400484 217.39843788795406 L 286.70312550402014 217.55859353597043 L 286.5468753920286 217.67578111996409 L 286.4241469440167 217.7448161279317 L 286.2343751680455 217.83203123195563 L 286.03125043201726 217.94921881594928 L 285.8465280000237 218.02598399994895 L 285.6908800000092 218.08025599992834 L 285.6431974400184 218.08905420795782 L 285.6284160000505 217.9481599999708 L 285.6908800000092 217.87750399997458 L 285.784064000065 217.6747519999626 L 285.72160000004806 217.64300799992634 L 285.7533440000261 217.5027199999313 L 286.00237260805443 217.29247436794685 L 286.09638400003314 217.27539199992316 L 286.281249792024 217.15234406397212 L 286.3593748480198 217.1367188479635 L 286.4843765760306 217.07422310393304 L 286.5468753920286 217.08203110395698 L 286.550016000052 217.0808319999487 L 286.78215168003226 216.9105315839406 L 286.87499980803113 216.9492183039547 L 287.0937497600098 217.06640588794835" fill="none"/><path stroke="#000000" stroke-width="2" d="M 329.05478059458255 0.0 L 329.0511360000237 0.00614399992628023 L 326.2382080000243 0.00614399992628023 L 326.2383419469552 0.0" fill="none"/><path stroke="#000000" stroke-width="2" d="M 316.18198751033924 0.0 L 316.17843200004427 0.00614399992628023 L 315.8348072960507 0.5251327999285422 L 315.38281267206185 1.2031252479646355 L 315.2734371840488 1.3710940159508027 L 314.9496320000617 2.4248319999314845 L 314.49600000004284 2.9634559999685735 L 314.1734072320396 3.7709578239591792 L 314.00781209603883 4.179687423922587 L 313.74999961606227 5.585937407973688 L 313.45868800004246 6.499327999947127 L 312.3558400000329 8.981503999966662 L 312.3184558080393 9.225985023949761 L 312.28906291205203 9.402343423920684 L 312.2207979520317 9.678815231949557 L 312.1295360000222 10.03519999992568 L 311.8046873600106 10.667968511930667 L 311.5130880000652 12.213247999956366 L 311.2540160000208 13.17375999991782 L 311.2129484800389 13.710251007927582 L 311.1875000320142 14.015625215950422 L 310.2167040000204 19.004415999923367 L 310.1586585600162 20.61887283192482 L 310.14843699202174 20.855469055939466 L 310.0859371520346 22.539062271942385 L 309.8323025920545 23.560848383931443 L 309.53676800004905 24.74188799993135 L 309.53779200004647 25.748479999951087 L 308.3046871040133 31.812500479922164 L 308.3046871040133 33.47656294394983 L 308.17587200005073 34.01523199991789 L 308.27020697604166 34.21929267194355 L 308.3671879680478 34.43749990395736 L 308.3046871040133 34.88281292794272 L 307.7550080000656 35.9352319999598 L 307.5604480000329 36.54451199993491 L 306.91225600003963 37.363711999962106 L 306.4586240000208 39.1669759999495 L 305.19531212805305 41.15624959993875 L 304.4140625920263 42.0468746239203 L 303.86688000004506 43.24147199996514 L 303.15417600004 44.38937599991914 L 302.8851322880364 44.720929791918024 L 302.60156211204594 45.06640588794835 L 302.325358592032 45.23410124797374 L 302.0523520000279 45.39699199993629 L 301.2734371840488 46.191406079917215 L 299.0059520000359 49.12025599996559 L 296.31692800001474 51.48569599993061 L 294.3406080000568 53.453823999967426 L 293.9868753920309 53.97679923195392 L 293.6249999360298 54.507812863972504 L 290.77811200002907 57.646079999918584 L 289.4140620800317 59.847656447964255 L 288.70312550402014 61.53515622392297 L 288.6623365120613 61.701224447926506 L 288.5820160000585 62.011760639958084 L 288.5693593600299 62.0428503039293 L 288.41431552002905 62.659159039962105 L 288.39259340806166 62.69128703995375 L 288.179687424039 63.00000051193638 L 288.02558976004366 63.234110463934485 L 287.70201600005385 63.712255999969784 L 287.5390627840534 64.17968742392259 L 287.5622205440304 64.85660979192471 L 287.57031219202327 65.187500031956 L 287.32812492805533 65.81250047992216 L 287.1171870720573 66.35937484796159 L 286.8281251840526 67.7851566079189 L 286.3125002240413 69.66015590395546 L 286.33593753603054 70.00781209592242 L 286.3282657280215 70.04065894393716 L 286.3750000640284 70.57421823992627 L 286.11718758405186 71.17187481594738 L 286.02343731204746 71.37890611193143 L 285.46874982403824 73.28906239994103 L 285.4912317440612 73.87539251195267 L 285.5045120000141 74.27379199996358 L 285.4457108480274 74.66037964791758 L 285.4062499840511 74.90625023993198 L 285.3129451520508 75.0358405119623 L 285.19656857603695 75.19361535995267 L 285.14843750401633 75.25781299197115 L 285.07031244802056 75.71093708794797 L 284.921875456057 76.61718732793815 L 284.8203120640246 76.80078131193295 L 284.7656253440655 76.99218739196658 L 284.58400358405197 77.62059775996022 L 284.56755200005136 77.66937599994708 L 284.49871974403504 77.78848460793961 L 284.33593753603054 78.06249983992893 L 283.8203125760192 78.95703142392449 L 283.75781273603207 79.56640665594023 L 282.88281292805914 82.12109414394945 L 282.8515624960419 83.42968729592394 L 283.01562470401404 85.00000051193638 L 283.01562470401404 85.05078169592889 L 283.1031930880272 85.20907775993692 L 283.1134720000555 85.2336639999412 L 283.17900800006464 85.81939199991757 L 282.914062336029 86.37109350395622 L 282.2410240000463 87.78649599995697 L 281.32354355201824 89.55285094393184 L 281.0312499200227 90.10546892794082 L 280.9139200000209 90.33932799997274 L 280.33228800003417 91.81491199997254 L 280.39677952002967 94.35401420795824 L 280.42968780803494 95.7265623039566 L 280.37001728004543 96.0405432319385 L 280.25199411204085 96.64403353596572 L 279.7537280000397 99.19180799997412 L 279.57294489606284 99.55364761594683 L 279.46874982403824 99.75781273597386 L 279.3149501440348 100.07002623996232 L 279.07481600006577 100.5506559999194 L 278.7544135680655 101.40167987195309 L 278.53125017601997 101.98828134394716 L 277.7169920000597 104.1571839999524 L 277.2583383040619 105.01410099194618 L 277.1015628800378 105.30468761594966 L 276.4540569600649 107.02098227193346 L 275.7734379520407 108.71874969592318 L 274.9126952960505 109.78563686396228 L 274.83955200004857 109.87212799995905 L 274.7357470720308 110.19275673595257 L 274.66406297602225 110.40625049592927 L 273.47292876802385 114.08453222393291 L 272.4280053760158 117.3019217919209 L 272.38281216000905 117.43750041595194 L 272.176128000021 117.76409599994076 L 271.8013440000359 118.35084799997276 L 270.153728000063 122.44889599992894 L 270.1760133120115 122.889937919972 L 270.19531264004763 123.32031283195829 L 270.35033600003226 126.35955199995078 L 270.7077120000613 127.24940799997421 L 270.5938984960667 128.0068505599629 L 270.3185920000542 129.30969599995296 L 270.51417600002605 129.96607999992557 L 270.80468787206337 130.43359334394336 L 270.9999994880636 131.183593471942 L 271.4531246080296 131.86328166397288 L 271.42187520005973 133.14843750395812 L 272.0389120000182 134.34470399993006 L 272.3973120000446 135.98310399992624 L 272.560128000041 137.4351359999273 L 272.79157145606587 138.0131461119745 L 272.9531248640269 138.42187468794873 L 273.3302118400461 139.35954124794807 L 273.8247680000495 140.59622399992077 L 274.2208030720358 141.94534195197048 L 274.6328125440632 143.35937535995618 L 276.06220800004667 146.2149119999376 L 276.10277068801224 146.31149465596536 L 276.60937523201574 147.52734412794234 L 276.61368729604874 147.8766335999244 L 276.61414400005015 148.15846399992006 L 277.8125004800386 151.01562470395584 L 277.97504000004847 151.6236799999606 L 278.29687500803266 152.1406248959247 L 278.33645363204414 152.46102835197235 L 278.36416000005556 152.70092799991835 L 278.17164800001774 154.55129599996144 L 278.1718753280584 156.21484339196468 L 278.3984373760177 157.4101565439487 L 278.33593753603054 158.48437452793587 L 277.9140628480236 160.31250022392487 L 277.6249999360298 160.96875007991912 L 277.33593702403596 163.33203148795292 L 277.33593702403596 164.12890623993007 L 276.95001600001706 165.2531199999503 L 276.72371200006455 166.33036799996626 L 276.92134400003124 170.80319999996573 L 276.8896000000532 172.25523199996678 L 277.0859376640292 175.30078105593566 L 277.60537600005046 176.751615999965 L 277.96070400002645 177.2431359999464 L 277.9921879040194 177.80468735995237 L 277.70312499202555 179.25781299197115 L 277.7343754240428 182.04296908795368 L 278.7420160000329 184.78284799994435 L 279.7109370880644 186.28124979196582 L 280.78124953602673 187.92187494394602 L 280.68556800001534 188.5296639999724 L 280.2329600000521 189.1850239999476 L 280.0468746240367 189.76171827194048 L 279.5859374080319 191.2226559999399 L 279.6718745600665 192.00781209592242 L 279.8125004800386 192.25390591996256 L 279.7812500480213 192.5039063039585 L 279.84374988806667 192.70703103992855 L 279.8750003200257 192.9179688959266 L 280.0000000000582 193.28515583992703 L 280.03125043201726 193.5117189119337 L 280.0937502720626 193.86328166397288 L 280.15625011204975 194.10546892794082 L 280.2187499520369 194.29687500797445 L 280.3125002240413 194.47265587194124 L 280.43749990401557 194.6445311999414 L 280.56249958404806 194.84765593596967 L 280.6875002880115 195.01953126396984 L 280.7187496960396 195.2226559999399 L 280.78124953602673 195.42578175995732 L 280.9062502400484 195.65234380797483 L 281.0312499200227 195.98046924796654 L 281.1250001920271 196.19921919994522 L 281.2187504640315 196.449218559952 L 281.3124997120467 196.6796871679253 L 281.5000002560555 196.85546905593947 L 281.5937495040125 197.02734335995046 L 281.7187502080342 197.26171852793777 L 281.8125004800386 197.4570311679272 L 282.0000000000582 197.69921843195334 L 282.0937502720626 197.93359359994065 L 282.15625011204975 198.08203161595156 L 282.25000038405415 198.28124979196582 L 282.3593748480198 198.62890598393278 L 282.4843745280523 198.9492183039547 L 284.078125056054 201.11328153597424 L 284.2656245760154 201.38671923195943 L 284.42187468806515 201.58984396792948 L 284.6406246400438 201.80078079993837 L 284.8593745920225 202.06640639994293 L 284.9374996480183 202.2656245759572 L 285.0937497600098 202.51171839993913 L 285.15624960005516 202.69140582391992 L 285.24999987205956 202.87499980797293 L 285.34375014406396 203.14453094394412 L 285.46874982403824 203.3710940159508 L 285.5312496640254 203.52734412794234 L 285.7187502080342 203.80859391996637 L 285.8125004800386 204.04296908795368 L 286.0000000000582 204.22265651193447 L 286.1249996800325 204.378906623926 L 286.2343751680455 204.5898434559349 L 286.4062504960457 204.88671846396755 L 286.4999997440609 205.0976563199656 L 286.62500044802437 205.26171852793777 L 286.75000012805685 205.46484326396603 L 286.87499980803113 205.6367185919662 L 286.9999994880636 205.7773434879491 L 287.15624960005516 205.94921881594928 L 287.1875000320142 205.9960934399278 L 287.34375014406396 206.15234355191933 L 287.4062499840511 206.2695311359712 L 287.5000002560555 206.48046899196925 L 287.546874880034 206.62890598393278 L 287.546874880034 206.69140582391992 L 287.57812531205127 206.74609356792644 L 287.60937472002115 206.8593745919643 L 287.6406251520384 206.89453158393735 L 287.70312499202555 207.05859379196772 L 287.82812467205804 207.19921868795063 L 287.9531253760215 207.33203148795292 L 288.0468746240367 207.53515622392297 L 288.078125056054 207.80078079993837 L 288.1406248960411 207.98828134394716 L 288.1718753280584 208.09765580797102 L 288.2656245760154 208.277344255941 L 288.4531251200242 208.5976565759629 L 288.70312550402014 209.1367188479635 L 288.8281251840526 209.37890611193143 L 288.89062502403976 209.57812531193485 L 288.9531248640269 209.76953139196848 L 289.0781245440594 209.97265612793854 L 289.1718748160638 210.1757808639668 L 289.2968744960381 210.33203097595833 L 289.46874982403824 210.42578124796273 L 289.60937472002115 210.74609356792644 L 289.6718745600665 210.89453158393735 L 289.79687526402995 211.06640588794835 L 289.8906245120452 211.2304691199679 L 290.078125056054 211.53906278393697 L 290.20312473602826 211.61328127991874 L 290.281249792024 211.85546854394488 L 290.43749990401557 212.15234355191933 L 290.53125017601997 212.3554682879476 L 290.6875002880115 212.60546867194353 L 290.78124953602673 212.74218700797064 L 290.9374996480183 212.94140620797407 L 291.01562470401404 213.21484390395926 L 291.23437465605093 213.41406207997352 L 291.4062499840511 213.5429683199618 L 291.57812531205127 213.65234380797483 L 291.5937495040125 213.816406015947 L 291.6249999360298 213.93359359994065 L 291.85137868806487 214.43318579194602 L 291.48774400004186 214.5648639999563 L 291.44064000004437 214.54131199995754 L 291.3124997120467 214.60546867194353 L 291.2187504640315 214.67578163195867 L 291.10937497601844 214.85546905593947 L 291.15624960005516 215.06640588794835 L 291.15624960005516 215.21484390395926 L 291.1875000320142 215.6054691839381 L 291.1250001920271 215.69140633597272 L 291.1250001920271 215.75390617595986 L 291.1875000320142 215.83984332793625 L 291.2187504640315 215.9570309119299 L 291.24999987205956 216.15625011193333 L 291.15624960005516 216.34765619196696 L 291.06250035203993 216.550780927937 L 290.9374996480183 216.75390668795444 L 290.812499968044 216.87890636792872 L 290.68759142403724 217.03504281595815 L 290.4719360000454 217.15046399994753 L 290.29687500803266 217.14843750395812 L 290.1125120000215 217.1351039999281 L 289.95584000000963 217.0726399999694 L 289.80019200005336 216.99481599993305 L 289.5503360000439 216.94771199993556 L 289.393664000032 216.94771199993556 L 289.20627200003946 216.9087999999174 L 289.064960000047 216.88524799991865 L 288.862208000035 216.83097599993926 L 288.6430720000644 216.83814399992116 L 288.3624960000161 216.8145919999224 L 288.53452800004743 216.62719999992987 L 288.59699200006435 216.51763199997367 L 288.70656000002054 216.3773439999204 L 288.65945600002306 216.34662399993977 L 288.627712000045 216.2053119999473 L 288.61235200002557 216.02611199993407 L 288.61235200002557 215.86943999992218 L 288.6430720000644 215.70559999992838 L 288.6430720000644 215.6042239999515 L 288.65945600002306 215.41683199995896 L 288.54988800006686 215.3308159999433 L 288.48742400004994 215.20588799996767 L 288.3624960000161 215.03385599993635 L 288.190464000043 214.9007359999232 L 288.0000000000582 215.08984422392678 L 287.8754508800339 215.26888345595216 L 287.8003200000385 215.2837119999458 L 287.6119040000485 215.37689599994337 L 287.6119040000485 215.18950399995083 L 287.2688640000415 215.15878399997018 L 287.12755200004904 214.99494399991818 L 286.9401600000565 214.9478399999207 L 286.7220480000251 214.93964799994137 L 286.5029120000545 215.01849395193858 L 286.4087040000595 214.80755199992564 L 286.14348800003063 214.791167999967 L 286.09638400003314 214.5802239999175 L 285.7533440000261 214.6744319999707 L 285.3775360000436 214.6273279999732 L 285.0644910080591 214.84626329597086 L 284.9249280000222 214.80755199992564 L 284.612608000054 214.80755199992564 L 284.39062528003706 214.8281251839362 L 284.01868800004013 214.93247999995947 L 283.92448000004515 214.80755199992564 L 283.7524480000138 214.7839999999269 L 283.59680000005756 214.8382719999645 L 283.409408000065 214.92428799992194 L 283.34375014406396 214.9492183039547 L 283.37499955203384 215.183593471942 L 283.46874982403824 215.24609331192914 L 283.5937495040125 215.30859417596366 L 283.8906245120452 215.19140659197 L 284.03125043201726 215.29296895995503 L 284.2656245760154 215.34765670396155 L 284.5468753920286 215.33203148795292 L 284.921875456057 215.3632808959228 L 285.23437465605093 215.46484326396603 L 285.6284160000505 215.46291199995903 L 285.7656248320127 215.53515622392297 L 286.01562521606684 215.42578175995732 L 286.1406248960411 215.5507814399316 L 286.2343751680455 215.69140633597272 L 286.42187468806515 215.66796902392525 L 286.56249958404806 215.71484364796197 L 286.7187496960396 215.80078079993837 L 286.9374996480183 215.7773434879491 L 287.0312499200227 215.80859391996637 L 287.20247705600923 215.8219857919612 L 287.15624960005516 215.94140671996865 L 287.1250001920271 216.0507811839343 L 287.0937497600098 216.11328102392145 L 287.0009661440272 216.20606463996228 L 286.846751744044 216.27599359996384 L 286.78124953602673 216.28124979196582 L 286.6328125440632 216.44140646397136 L 286.43749990401557 216.56249958393164 L 286.36142899206607 216.6119454719592 L 286.09638400003314 216.6353919999674 L 285.73674803203903 216.8307425279636 L 285.65913600003114 216.7449599999236 L 285.65625036804704 216.74609356792644 L 285.5312496640254 216.83984383993084 L 285.32812492805533 217.0429685759591 L 285.20312524802284 217.183593471942 L 285.0937497600098 217.4101565439487 L 285.1406254080357 217.48046847997466 L 285.1406254080357 217.58984396792948 L 285.15624960005516 217.7812500479631 L 285.15624960005516 217.90234419197077 L 285.231969280052 217.97474201594014 L 284.95564800006105 218.01062399992952 L 284.7682560000103 217.90822399995523 L 284.64332800003467 217.8457599999383 L 284.45593600004213 217.7832959999214 L 284.3310080000665 217.74438399996143 L 283.65926400001626 217.6747519999626 L 283.6275200000382 217.62764799996512 L 283.2968744960381 217.83203123195563 L 283.1718748160638 217.90234419197077 L 282.9398456320632 218.01062399992952 L 282.8154880000511 218.01062399992952 L 282.5963520000223 218.02598399994895 L 282.3782400000491 218.01062399992952 L 282.1263626240543 218.03114393592114 L 281.97171200002776 217.87750399997458 L 281.8314240000327 217.71366399992257 L 281.5498240000452 217.7832959999214 L 281.3306880000164 217.6747519999626 L 281.20576000004075 217.44025599997258 L 280.92518400005065 217.47097599995323 L 280.70312550402014 217.57031219196506 L 280.4561920000124 217.58054399996763 L 280.2995200000587 217.54163199994946 L 279.9872000000323 217.61126399994828 L 279.67488000006415 217.66655999992508 L 279.6249999360298 217.60937471996294 L 279.28356761601754 217.81501030392246 L 279.12806400004774 217.7832959999214 L 278.9374996480183 217.84374988795025 L 278.80461107206065 217.9011338239652 L 278.5482936320477 218.004900863918 L 278.4062504960457 218.05859327997314 L 278.2343751680455 218.30468710395508 L 278.1328128000605 218.62890598393278 L 278.1342525440268 218.6286028799368 L 278.1337600000552 218.630143999937 L 280.07936000003247 218.2205439999234 L 282.43749990401557 218.93749964796007 L 283.7657600000384 218.2205439999234 L 284.88281292805914 218.51953151996713 L 285.3017600000603 218.630143999937 L 288.2734376960434 217.30078105593566 L 288.80468787206337 217.37890611193143 L 290.31936000002315 217.6061439999612 L 291.6495216640178 216.3783024639706 L 292.67343564803014 215.8112133119721 L 294.491136000026 218.8625919999322 L 294.7187496960396 219.24218777596252 L 296.53125017601997 222.29296844796045 L 296.9753600000404 223.03334399993764 L 299.63776000001235 227.53791999997338 L 300.14843699202174 228.25390591996256 L 300.25000038405415 229.2773437439464 L 307.21536000003107 238.59711999993306 L 308.23936000006506 240.13311999995494 L 311.4137600000249 240.23551999992924 L 311.7187502080342 241.77343795192428 L 311.1067166720168 243.1023810559418 L 307.10937497601844 244.33203097595833 L 305.9843747840496 245.15234406397212 L 304.2457600000198 247.09631999995327 L 303.75410278403433 249.00831948796986 L 303.3203128320165 250.6796871679253 L 304.9609379840549 251.08984422392678 L 304.1406248960411 256.31250022392487 L 304.65532518405234 256.72192102397094 L 299.2265625600121 256.8242186239222 L 297.8969600000419 257.54111999995075 L 296.1562511360389 259.6914063359727 L 295.6406251520384 260.08203161595156 L 294.00781209603883 261.3281249279389 L 293.53833062405465 261.14309324795613 L 292.9837803520495 260.92112895991886 L 292.5390622720588 260.3632814079174 L 291.34375014406396 258.8710932479589 L 290.42187468806515 256.31250022392487 L 290.2187499520369 255.187500031956 L 286.53125017601997 251.39843788795406 L 285.3046876160661 250.57812479994027 L 283.7657600000384 250.37414399994304 L 282.43456000002334 250.37414399994304 L 280.9999994880636 251.50000025593909 L 280.9999994880636 252.93359411193524 L 281.3046876160661 254.46875033597462 L 280.3610890240525 255.86289561592275 L 279.5673600000446 257.0301439999603 L 277.83717888005776 258.2089093119721 L 277.33459558401955 258.6399354879395 L 276.5977600000333 259.69254399993224 L 275.7785600000643 261.2285439999541 L 273.5247360000503 261.740543999942 L 271.320529920049 262.42451251193415 L 270.5546874880092 262.66015641595004 L 270.5637765120482 262.6594611199689 L 270.55513600003906 262.6621439999435 L 271.8812856320292 262.5601320959395 L 271.37433600006625 263.0717439999571 L 272.80468787206337 263.2773437439464 L 275.7812500480213 261.9453122559353 L 277.0078126080334 259.6953128959285 L 277.16406272002496 259.43359385593794 L 277.33089280006243 259.23287654394517 L 277.6669429760659 258.8333998079179 L 277.9585464320262 258.55157145595877 L 278.15625011204975 258.3632814079174 L 280.07936000003247 257.0301439999603 L 281.8203125760192 254.67578163195867 L 281.6686530560255 252.39928217593115 L 281.6172195840627 251.60205823992146 L 282.7756789760315 251.05041100794915 L 283.7656248320127 250.88671846396755 L 285.19938355201157 251.29577369592153 L 288.2713600000134 255.18591999995988 L 289.19296000001486 256.31231999996817 L 290.52343705605017 259.078124543943 L 291.95776000001933 261.5347199999378 L 293.9062497280538 261.84374988795025 L 296.87499980803113 259.79296870395774 L 299.6406251520384 258.0546877439483 L 301.6789585920633 257.7981931519462 L 303.3937786880415 257.5838402559748 L 303.7326735360548 257.5431720959605 L 301.8905600000289 261.0227199999499 L 298.71616000001086 263.2755199999665 L 297.50196224002866 266.63841177592985 L 297.38281267206185 266.9609379839385 L 297.38281267206185 268.1914060799172 L 297.0777600000147 270.5459199999459 L 296.97656217601616 274.5468753919704 L 296.9753600000404 274.64191999996547 L 297.2044574720203 275.7749217279488 L 297.83593779202783 278.9179688959266 L 298.11885772802634 280.29792563192314 L 298.299345920037 281.1912366079632 L 298.42187468806515 281.80859391996637 L 298.57001062401105 282.52994969591964 L 298.81856000004336 283.75551999994786 L 300.76416000002064 288.8755199999432 L 303.3203128320165 294.71093759994255 L 303.6374599680421 295.9088107519201 L 304.4505600000266 299.0131199999596 L 304.0390625280561 300.24218726396793 L 301.6857600000221 300.6515199999558 L 299.42968729604036 301.7773434879491 L 297.1801600000472 301.98271999997087 L 297.1796879360336 301.98437478393316 L 297.2812503040186 304.5429688319564 L 298.5078128640307 305.5664066559402 L 298.10156236804323 307.20312524796464 L 299.02336000005016 308.1256959999446 L 298.8203120640246 307.30468761594966 L 298.83803136006463 307.19615590391913 L 299.12576000002446 305.5667199999443 L 298.30656000005547 304.44031999993604 L 299.22816000005696 302.90431999997236 L 299.74218752002344 302.1874995199614 L 302.29687500803266 301.98437478393316 L 304.1406771200127 300.653457407956 L 304.1644032000331 301.1635589119396 L 304.3481600000523 305.5656959999469 L 303.46862489602063 309.0826004479313 L 303.2187504640315 310.07031295995694 L 303.4255943680182 310.91708313592244 L 304.2883235840127 314.50236415996915 L 304.47656243201345 315.29296895995503 L 304.5529600000591 315.6008959999308 L 304.5036001280532 317.6601681919419 L 304.47656243201345 318.67578163195867 L 304.4613539840211 319.44565555197187 L 304.4505600000266 319.90169599995716 L 304.301814784063 320.37248511996586 L 304.1249996800325 320.9218754559406 L 304.1249996800325 321.15624959993875 L 304.0937502720626 321.5156254719477 L 304.03125043201726 321.70312499196734 L 303.93750016001286 321.8281246719416 L 303.6874997760169 322.11718758393545 L 303.46874982403824 322.4296878079185 L 303.34375014406396 322.6484377599554 L 303.3124997120467 322.9687500799191 L 303.3124997120467 323.57031219196506 L 303.2812503040186 323.7734379519243 L 303.2187504640315 323.9140628479654 L 303.1250001920271 324.0390625279397 L 302.9531248640269 324.3203123199637 L 302.70312550402014 324.6328125439468 L 302.42187468806515 324.9531248639687 L 302.10937548801303 325.42968729592394 L 301.82812467205804 326.0078120959224 L 301.6406251520384 326.51562495995313 L 301.4531246080296 326.93749964796007 L 301.2968744960381 327.2421877759625 L 301.1250001920271 327.6562503679306 L 300.84375040006125 328.14843699196354 L 300.62500044802437 328.5078128639725 L 300.43749990401557 328.71093759994255 L 300.15625011204975 329.07031244796235 L 299.9062497280538 329.38281267194543 L 299.65625036804704 329.71093708794797 L 299.42187520005973 330.1093754879548 L 299.1406254080357 330.445311999938 L 298.921875456057 330.6484377599554 L 298.6718750720611 330.94531276792986 L 298.4531251200242 331.15624959993875 L 298.2343751680455 331.39062476792606 L 298.10937548801303 331.640625151922 L 297.9062497280538 331.9140628479654 L 297.7187502080342 332.1874995199614 L 297.5312496640254 332.35156275192276 L 297.3124997120467 332.66406297596404 L 297.06250035203993 333.01562470395584 L 296.9374996480183 333.19531212793663 L 296.7187496960396 333.4062499839347 L 296.65624985605245 333.5156254719477 L 296.4687503360328 333.7343754239264 L 296.29687500803266 333.98437478393316 L 296.20312473602826 334.0859371519182 L 296.10937548801303 334.2343751679291 L 295.9843747840496 334.3671879679314 L 295.8593751040171 334.5390622719424 L 295.70312499202555 334.7890626559383 L 295.57812531205127 335.07031244796235 L 295.48437504004687 335.20312524796464 L 295.3593753600144 335.44531251193257 L 295.23437465605093 335.74999961594585 L 295.1406254080357 335.89843763195677 L 294.8281251840526 336.3671879679314 L 294.62500044802437 336.6328125439468 L 294.43749990401557 336.84375039994484 L 294.25000038405415 336.98437529592775 L 294.15625011204975 337.19531212793663 L 294.0000000000582 337.39843788795406 L 293.65625036804704 337.89843763195677 L 293.5000002560555 338.03125043195905 L 292.921875456057 338.4921876479639 L 292.79687475203536 338.75000012794044 L 292.75000012805685 338.8749998079729 L 292.60937523201574 339.1406254079193 L 292.43749990401557 339.3671874559368 L 292.29687500803266 339.4921871359693 L 292.0468746240367 339.8593751039589 L 291.8906245120452 340.1249996799743 L 291.57812531205127 340.35156275192276 L 291.46874982403824 340.5078128639725 L 291.23437465605093 340.906250239932 L 291.1718748160638 340.9921873919666 L 290.9531248640269 341.4140620799735 L 290.84375040006125 341.5312496639672 L 290.7343749120482 341.7265623039566 L 290.5781248000567 341.9609374719439 L 290.43749990401557 342.1874995199614 L 290.3750000640284 342.29687500797445 L 290.1874995200196 342.5390622719424 L 290.0937502720626 342.66406297596404 L 289.9062497280538 342.8749998079729 L 289.74999961606227 343.01562470395584 L 289.60937472002115 343.19531212793663 L 289.42187520005973 343.4218751999433 L 289.3593753600144 343.53906278393697 L 289.26562508801 343.8281246719416 L 289.20312524802284 344.0390625279397 L 289.1406254080357 344.33593753597233 L 289.01562470401404 344.57031270395964 L 288.87499980803113 344.74218700797064 L 288.51562496001134 345.03124991996447 L 288.3593748480198 345.3124997119303 L 288.2656245760154 345.5078123519197 L 288.10937548801303 345.7734379519243 L 287.93750016001286 346.0078120959224 L 287.6249999360298 346.2812497919658 L 287.5937495040125 346.38281215995084 L 287.56250009604264 346.5078128639725 L 287.56250009604264 346.6796871679253 L 287.5312496640254 346.906250239932 L 287.46874982403824 347.085937663971 L 287.37499955203384 347.28906239994103 L 287.2812503040186 347.4531246079714 L 286.8593745920225 347.921874943946 L 286.7187496960396 348.03125043195905 L 286.62500044802437 348.1406248959247 L 286.53125017601997 348.25781247991836 L 286.43749990401557 348.43749990395736 L 286.3125002240413 348.5937500159489 L 286.1718753280584 348.84375039994484 L 285.9843747840496 349.03124991996447 L 285.82812467205804 349.20312524796464 L 285.6718745600665 349.4531246079714 L 284.5937500160653 350.8984371199622 L 279.8906245120452 358.43749990395736 L 279.8906245120452 358.53125017596176 L 279.79687526402995 358.7031255039619 L 279.70312499202555 358.84375039994484 L 279.5937495040125 358.97656217595795 L 279.4531246080296 359.15624959993875 L 279.2968744960381 359.3124997119303 L 279.20312524802284 359.4921871359693 L 279.01562470401404 359.7421875199652 L 278.89062502403976 359.92968703992665 L 278.89062502403976 360.0546877439483 L 278.8281251840526 360.15625011193333 L 278.75000012805685 360.3593748479616 L 278.5937500160653 360.53125017596176 L 278.4062504960457 360.75781222392106 L 278.25000038405415 360.9609379839385 L 278.1249996800325 361.10937497596024 L 278.01562521606684 361.3671874559368 L 277.8906245120452 361.5546879999456 L 277.6249999360298 361.85156300792005 L 277.43750041601015 362.0937502719462 L 277.24999987205956 362.2890629119356 L 277.1406254080357 362.4296878079185 L 277.01562470401404 362.61718732793815 L 276.8593745920225 362.89062502392335 L 276.6718750720611 363.16406271996675 L 276.51562496001134 363.3593753599562 L 276.3750000640284 363.6249999359716 L 276.2187499520369 363.88281241594814 L 275.96874956804095 364.1328127999441 L 275.8593751040171 364.29687500797445 L 275.6406251520384 364.5468753919704 L 275.5000002560555 364.75000012794044 L 275.37499955203384 364.8828129279427 L 275.2812503040186 365.0546872319537 L 275.15624960005516 365.25781299197115 L 274.96875008003553 365.53906278393697 L 274.812499968044 365.7812500479631 L 274.6406246400438 365.9999999999418 L 274.4843745280523 366.20312473597005 L 274.29687500803266 366.4296878079185 L 274.03125043201726 366.7187496959232 L 273.8593751040171 367.02343782392563 L 273.6406251520384 367.3124997119303 L 273.42187520005973 367.6484372479608 L 273.1718748160638 368.0078120959224 L 273.06250035203993 368.21093785593985 L 272.9062502400484 368.42187468794873 L 272.78124953602673 368.57031270395964 L 272.5937500160653 368.8984371199622 L 272.42187468806515 369.0625003519235 L 272.3125002240413 369.1796879359172 L 272.1874995200196 369.33593702391954 L 272.06249984004535 369.4687498239218 L 271.9062497280538 369.6562503679306 L 271.7812500480213 369.9062497279374 L 271.39062476804247 370.3203123199637 L 270.6406246400438 371.3281249279389 L 270.1406248960411 371.9062497279374 L 269.9843747840496 372.1093754879548 L 269.9062497280538 372.24218726396793 L 269.74999961606227 372.35156275192276 L 269.6874997760169 372.4609372159466 L 269.5937495040125 372.7187496959232 L 269.46874982403824 372.8749998079729 L 269.34375014406396 373.07031244796235 L 269.1875000320142 373.28906239994103 L 269.01562470401404 373.43750041595194 L 268.925621248025 373.57011763192713 L 268.87499980803113 373.640625151922 L 268.6875002880115 373.84374988795025 L 268.43749990401557 374.15625011193333 L 268.3593748480198 374.3203123199637 L 268.2656245760154 374.4921876479639 L 268.1406248960411 374.6953123839339 L 268.01562521606684 374.83593727991683 L 267.8593751040171 374.98437529592775 L 267.60937472002115 375.2656250879518 L 267.37499955203384 375.48437503993046 L 267.20312524802284 375.6796876799199 L 266.921875456057 376.0078120959224 L 266.78124953602673 376.1796874239226 L 266.62500044802437 376.3203123199637 L 266.4999997440609 376.4921876479639 L 266.3750000640284 376.65624985593604 L 266.1249996800325 376.89062502392335 L 266.06249984004535 377.0468751359731 L 266.01562521606684 377.21875046397327 L 265.92187494406244 377.39843788795406 L 265.79687526402995 377.6015626239241 L 265.57812531205127 377.85156300792005 L 265.4062499840511 378.0156252159504 L 265.1718748160638 378.1874995199614 L 265.10937497601844 378.273437695927 L 265.0468751360313 378.40625049592927 L 264.89062502403976 378.5859379199683 L 264.7656253440655 378.8203120639664 L 264.5781248000567 379.02343782392563 L 264.43749990401557 379.15624959993875 L 264.3125002240413 379.3124997119303 L 264.1874995200196 379.4218751999433 L 260.62950400001137 384.00307199993404 L 259.65625036804704 385.29296895995503 L 258.2549411840155 387.2660111359437 L 258.2187499520369 387.3124997119303 L 255.91193600004772 390.4092159999418 L 255.60064000001876 390.4829439999303 L 255.0435840000282 391.10553599993 L 254.76701081602369 391.4565713919583 L 254.53715148800984 391.74522265593987 L 254.19161600002553 392.1704959999188 L 253.70009600004414 392.64563199994154 L 253.34375014406396 393.06640588794835 L 253.26562508800998 393.1523440639721 L 252.88089600001695 393.661439999938 L 252.4453120000544 394.0859371519182 L 252.38975488004507 394.2155724799377 L 252.3729920000187 394.25126399996225 L 252.10937958402792 394.53125324792927 L 251.2097280000453 395.4309119999525 L 250.6328125440632 396.0546877439483 L 250.1249996800325 396.66015641595004 L 249.43750041601015 397.3632808959228 L 248.92968755203765 397.98828134394716 L 248.50636800006032 398.60940799996024 L 247.9656960000284 399.2811519999523 L 247.5069440000225 399.7562879999168 L 247.37570816004882 399.94172313594026 L 247.10937497601844 400.31250022392487 L 246.96010444802232 400.60078796796734 L 246.71948800003156 401.0178559999331 L 246.0313600000227 401.6895999999251 L 245.3760000000475 402.5415679999278 L 244.67148800002178 403.5409919999656 L 244.32742400001734 404.04889599996386 L 243.7343754240428 404.75390668795444 L 243.20190566405654 405.6112035839469 L 243.10582988802344 405.7287997439271 L 242.7753359360504 406.1171302399598 L 242.5390622720588 406.39062527992064 L 241.80428800004302 407.1127039999701 L 241.46022400003858 407.6533759999438 L 241.14843750401633 408.3242188799195 L 240.95232000004034 408.8821759999264 L 240.6082560000359 409.5866879999521 L 240.10035200003767 410.34035199997015 L 239.52343756804476 411.011719167931 L 239.248384000035 411.4380799999344 L 238.82031206402462 412.1093754879548 L 238.6959738880396 412.26479718391784 L 238.3125002240413 412.7343749119318 L 237.65625036804704 413.5507814399316 L 236.92187545605702 414.3046871039551 L 235.9531253760215 415.25390643195715 L 235.9140628480236 415.3124997119303 L 235.26562508800998 416.2382817279431 L 235.12523980805418 416.4434606079594 L 234.52979200001573 417.3035519999685 L 233.64505600003758 418.4340479999664 L 233.48958822403802 418.64406937593594 L 233.1796879360336 419.0546872319537 L 233.11718707205728 419.1445309439441 L 232.80546713602962 419.57188915193547 L 232.62924800004112 419.81030399992596 L 232.3111290880479 420.3405015039607 L 232.23437516804552 420.4648437759606 L 231.74218752002344 421.187500031956 L 231.0859376640292 421.921874943946 L 230.46093721606303 422.75781222392106 L 230.35042201605393 422.90641715197125 L 230.1061120000668 423.26732799992897 L 229.4179840000579 424.25036799994996 L 229.10668800002895 424.7255039999727 L 228.85698560002493 424.98105446394766 L 228.64062464004382 425.19921868795063 L 228.57031270401785 425.29296895995503 L 227.82812467205804 426.1835939839366 L 227.3203128320165 426.9687500799191 L 227.19680409604916 427.1716567039257 L 226.79687475203536 427.820312575961 L 226.27225600002566 428.461055999971 L 225.61718784004916 429.4257817599573 L 224.89600000006612 430.29606399993645 L 224.30468710401328 431.16406271996675 L 224.27130265603773 431.2158085119445 L 224.0823736320599 431.49423001596006 L 223.99218790401937 431.6249999359716 L 223.64843724801904 432.11328102392145 L 223.41406208003173 432.38671871996485 L 223.10937497601844 432.7382814719458 L 222.71692800003802 433.3271039999672 L 222.66406297602225 433.4101565439487 L 222.4531251200242 433.75390617595986 L 222.42187468806515 433.80078079993837 L 222.2581760000321 434.08076799992705 L 222.06227148801554 434.57052979193395 L 221.75781273603207 434.8593745919643 L 221.35705600003712 435.4570239999448 L 220.8983040000312 436.194303999946 L 220.04687462403672 437.33984358393354 L 219.5859374080319 438.3085936639691 L 219.5000002560555 438.48046899196925 L 219.4531246080296 438.57031270395964 L 219.12500019202707 439.2265625599539 L 218.8984371200204 439.65234380797483 L 218.33593753603054 440.48437452793587 L 218.28030566405505 440.5755699199508 L 217.65427200001432 441.4699519999558 L 217.2265625600121 442.2382817279431 L 217.15070668805856 442.5244641279569 L 217.03124992002267 442.9609379839385 L 216.75000012805685 443.5507814399316 L 216.70796390401665 443.6108328959672 L 216.47462400002405 443.92652799992356 L 216.24218726402614 444.48437452793587 L 216.01587200001813 445.07340799993835 L 215.91918489604723 445.3634693119675 L 215.8935531520401 445.43231487995945 L 215.7738506240421 445.72332851192914 L 215.69302937603788 445.91270399995847 L 215.62767052801792 446.0606218239409 L 215.55468800006201 446.2187499519205 L 215.39573657605797 446.5525473279413 L 215.27859200001694 446.79372799996054 L 215.16406272002496 446.9570314239245 L 214.8984371200204 447.43359385593794 L 214.65624985605245 448.07031295995694 L 214.39062528003706 448.76171878393507 L 214.11532800004352 449.51347199996235 L 214.09140019206097 449.81257113593165 L 214.04687462403672 450.33203097595833 L 213.85156300803646 451.01953126396984 L 213.68749977601692 451.5117189119337 L 213.53906278405339 452.2343751679291 L 213.56089958403027 452.46135295997374 L 213.5746560000116 452.6264319999609 L 213.31251200003317 453.1671039999346 L 213.23059200006537 453.6913919999497 L 213.11869952001143 454.12963635195047 L 213.03124992002267 454.4609372159466 L 212.80468787206337 455.4101565439487 L 212.52343705605017 456.42578124796273 L 212.3593748480198 457.4609377279412 L 212.2967040000367 458.1314559999737 L 212.2967040000367 458.90150399995036 L 212.1328640000429 459.7370879999362 L 212.0509440000169 460.3924479999696 L 212.0509440000169 460.8697866239236 L 212.04687462403672 461.39062476792606 L 212.1328128000605 463.2773437439464 L 212.44416000001365 464.3573759999708 L 212.57968537602574 464.71312998392386 L 212.70312550402014 465.0468751359731 L 213.01562470401404 465.816406015947 L 213.16406272002496 466.42187468794873 L 213.29612800001632 467.07711999997264 L 213.16406272002496 467.97656268795254 L 211.81313843204407 468.326455295959 L 209.41209600004368 468.9448959999718 L 209.3969848320121 469.02045183995506 L 209.33593702403596 469.28906239994103 L 209.11718707205728 470.25390591996256 L 208.98437529604416 471.2382812159485 L 208.85156249604188 472.2382817279431 L 208.80468787206337 473.007812607917 L 208.83593728003325 473.7617182719405 L 208.67187507206108 474.5468753919704 L 208.61117952002678 475.1209523199359 L 208.57651200005785 475.43295999994734 L 208.46093721606303 476.38281215995084 L 208.29687500803266 477.46484326396603 L 207.98437478404958 478.4140625919681 L 207.75170252803946 479.09268991992576 L 207.56070400006138 479.6436479999684 L 207.41324800002621 480.4464639999205 L 207.39686400000937 481.2656639999477 L 207.3640960000339 481.4950399999507 L 207.3640960000339 481.8227199999383 L 207.32129075203557 482.5611182079301 L 207.29687449603807 482.9531248639687 L 207.24940800003242 484.03455999994185 L 207.32812492805533 484.8203120639664 L 207.4921871360275 485.6054691839381 L 207.51011225604452 485.91378022392746 L 207.5279360000277 486.2791679999209 L 207.59347200003685 487.0655999999726 L 207.7734379520407 487.917968383932 L 207.75731200003065 488.93337599997176 L 207.78906214406015 489.1796879359172 L 207.78906214406015 489.4257817599573 L 207.92115200002445 490.08025599992834 L 207.80468736001058 490.7695308799739 L 207.6718745600665 491.65234380797483 L 207.78906214406015 492.47265587194124 L 207.8556160000153 493.53727999993134 L 207.72454400005518 494.48755199991865 L 207.7734379520407 495.65234380797483 L 207.78906214406015 496.3046871039551 L 207.78906214406015 496.8789063679287 L 207.62499993602978 497.746094079921 L 207.46093772805762 498.58203135995427 L 207.60937472002115 499.3554687999422 L 207.5279360000277 500.1891839999589 L 207.5279360000277 501.12204799993197 L 207.60937472002115 502.12109414394945 L 207.75720550405094 503.0546872319537 L 207.67334400000982 503.05331199994544 L 207.6737607680261 503.0546872319537 L 207.6718745600665 503.0546872319537 L 209.59232000005431 509.37958399992203 L 209.47656294406625 509.7382809599512 L 209.52343756804476 510.2656245759572 L 209.65625036804704 511.2656250879518 L 209.69218252802966 511.5726868479396 L 209.73977600003127 512.0010239999392 L 209.7883043840411 512.1660211199196 L 209.8203125760192 512.2812497919658 L 210.0000000000582 512.4257812479627 L 210.03411148802843 512.5157191679464 L 210.179687424039 512.9179688959266 L 210.32812544004992 513.6718745599501 L 210.41254400002072 514.2947839999688 L 210.54361600003904 515.0975999999209 L 210.95321600005263 515.7857279999298 L 211.24812800006475 516.4574719999218 L 211.3955840000417 517.1292159999721 L 211.45980108802905 517.6154286079691 L 211.50781235203613 517.9960934399278 L 211.68749977601692 518.4218746879487 L 211.93625600001542 518.6529279999668 L 212.14843699202174 518.7187496959232 L 212.5390622720588 518.7851560959243 L 212.88281292805914 518.8671877119341 L 212.7882240000181 518.9642239999375 L 212.64062464004382 519.011719167931 L 212.3593748480198 519.078124543943 L 212.04687462403672 519.2109373439453 L 211.7232640000293 519.390207999968 L 211.62499993602978 519.7656248319545 L 211.42835200001718 520.0947199999355 L 211.24812800006475 520.5207039999659 L 211.1006720000296 520.9466879999381 L 210.83593728003325 521.4726563839358 L 210.7884001280181 521.7717422079295 L 210.74022400006652 522.0607999999193 L 210.71049216005486 522.3283845119295 L 210.67187507206108 522.652343295922 L 210.67187507206108 523.0585937919677 L 210.42892800003756 523.3715199999278 L 210.24870400002692 523.7975039999583 L 209.83593779202783 524.2890629119356 L 209.60835481603863 524.6186659839586 L 209.3803520000656 524.9443839999731 L 208.82031206402462 525.6992184319533 L 208.29687500803266 526.5820313599543 L 207.9531253760215 527.1718748159474 L 207.42968729604036 528.0585932799731 L 206.96875008003553 529.1562495999387 L 206.7648655360099 529.4977566719172 L 206.4967680000118 529.9415039999294 L 205.87417600001208 530.8426239999244 L 205.48096000001533 531.6454399999348 L 205.00582400005078 532.3171839999268 L 204.4815360000357 533.2183039999218 L 204.20300800004043 533.955583999923 L 203.80979200004367 534.8403199999593 L 203.63996057602344 535.1725987839745 L 203.42968729604036 535.5781253119349 L 203.17004902404733 536.1715845119325 L 202.99059200001648 536.5770239999401 L 202.53125017601997 537.9375001599547 L 202.18749952001963 539.0507816959289 L 201.8593751040171 540.0820316159516 L 201.46688000002177 541.2618239999283 L 201.13920000003418 541.9335679999203 L 200.99174400005722 542.5725439999369 L 200.93357875203947 542.8052029439714 L 200.8593745920225 543.0976563199656 L 200.6476800000528 543.8832639999455 L 200.2872320000315 544.8007679999573 L 200.05468774406472 545.1953121279366 L 199.9595520000439 545.7838079999201 L 199.73020262405043 546.3091281919624 L 199.546874880034 546.7187496959232 L 199.51562547206413 547.4531246079714 L 199.63187200005632 548.1758719999343 L 199.63187200005632 548.5690879999311 L 199.36718745605322 549.0273433599505 L 199.0390620160615 549.4531246079714 L 198.45222400006605 550.010879999958 L 197.92793600005098 550.3385599999456 L 197.60025600006338 550.6662399999332 L 197.43641600001138 550.8956159999361 L 197.320471552026 551.1754004479735 L 197.0759680000483 551.4199039999512 L 196.812499968044 551.7968752639717 L 196.48437452805229 552.5351567359176 L 196.15625011204975 553.007812607917 L 195.99218790401937 553.1562495999387 L 195.64843724801904 553.4335938559379 L 195.33710848004557 553.7968107519555 L 195.01158400002168 554.1724159999285 L 194.5692160000326 554.7622399999527 L 194.3203123200219 554.9921873919666 L 194.01216000004206 555.1718399999663 L 193.92968704004306 555.3515622399282 L 193.89747200004058 555.6633599999477 L 193.52064000006067 555.9091199999675 L 193.07827200001338 556.5153279999504 L 192.812499968044 556.8281251839362 L 192.75995443202555 556.9108838399407 L 192.65228800004115 557.0723839999409 L 192.65228800004115 557.3672959999531 L 192.37376000004588 557.826047999959 L 192.0937502720626 558.3320309759583 L 191.7343754240428 558.8085934079718 L 191.43750041601015 559.2499998719431 L 191.2265625600121 559.644531711936 L 191.1449600000633 560.2017279999563 L 191.02718873601407 560.417641471955 L 190.94531276804628 560.5624995839316 L 190.7187496960396 561.1015628799214 L 190.60156211204594 561.4804684799747 L 190.64433868805645 561.7299957759678 L 190.66982400004053 561.8892799999448 L 190.57031270401785 562.2343751679291 L 190.60156211204594 562.4804689919692 L 190.43749990401557 562.8554690559395 L 190.32812544004992 562.976562175958 L 190.25781248003477 563.0507816959289 L 189.7343754240428 563.3789061119314 L 188.91406233602902 563.7070315519231 L 188.16307200002484 564.1830399999744 L 187.52343756804476 564.7226562559372 L 186.93427200004226 565.3463039999478 L 186.61148979206337 565.8103029759368 L 186.4062504960457 566.1015623679268 L 185.83654400001979 566.7880959999748 L 185.01562470401404 567.6054691839381 L 183.88281241606455 568.8671877119341 L 182.98437529604416 569.9335935999407 L 182.06822400004603 570.8513279999606 L 181.87781017605448 571.1735674879747 L 181.6406251520384 571.5703121919651 L 180.7411200000206 572.6371839999338 L 180.42968780803494 573.3554687999422 L 179.47656294406625 574.4374999039574 L 178.82031206402462 575.4062499839347 L 178.46093721606303 576.1249996799743 L 178.0213760000188 576.9779199999175 L 177.445312512049 577.7304688639706 L 177.0859376640292 578.2226565119345 L 176.82534400001168 578.7146239999565 L 176.2027509760228 579.4027499519289 L 175.3507840000093 580.320255999919 L 174.53125017601997 581.1054684159462 L 173.67961600003764 582.056959999958 L 172.77747200004524 582.9744639999699 L 172.33510400005616 583.5315199999604 L 171.99104000005173 583.7936639999389 L 171.59782400005497 584.1049599999678 L 170.76224000001093 585.1043839999475 L 169.8593751040171 586.1210941439494 L 168.69531238405034 587.3984378879541 L 168.05888000002597 587.9715839999262 L 167.43628800002625 588.6924799999688 L 166.97656217601616 589.2656250879518 L 166.45324800006347 589.6427519999561 L 166.04364800004987 590.1998079999466 L 165.38828800001647 591.1336959999171 L 164.51993600005517 592.3133439999656 L 163.68435200001113 592.8540159999393 L 162.8935505920672 593.4738329599495 L 162.46875033603283 593.8046873599524 L 161.0468751360313 595.0976563199656 L 159.88281241606455 596.4414064639714 L 158.76562534406548 597.4921871359693 L 157.83593779202783 598.3906252799206 L 156.9996800000663 599.1782399999211 L 155.62342400004854 600.3251199999359 L 153.88281241606455 602.027343871945 L 152.9669201920624 603.0070712319575 L 152.59238400001777 603.4053119999589 L 151.62572800001362 604.4866559999646 L 150.23308800003724 606.0103679999593 L 148.74218700802885 607.746094079921 L 147.85740800003987 608.8284159999457 L 147.7265623040148 609.0234378239256 L 146.84491878404515 610.2560184319736 L 146.31731200002832 610.9900799999596 L 145.69531289604492 612.0039065599558 L 145.07031244802056 612.6132807679242 L 144.39843737601768 613.5312496639672 L 143.67948800005252 614.3815679999534 L 142.38281216000905 615.8710937599535 L 142.07884492806625 616.2373488639714 L 141.76373862405308 616.613059583935 L 141.53124966402538 616.8867184639676 L 141.1875000320142 617.3124997119303 L 140.48437452805229 618.2148433919647 L 140.07500800001435 618.6905599999591 L 139.63264000002528 619.3623039999511 L 139.33593702403596 619.8046873599524 L 138.84375040006125 620.4101560319541 L 138.18749952001963 620.9843752959277 L 137.96147200005362 621.541375999921 L 137.76486400002614 621.8362879999331 L 137.6328120320104 622.097655807971 L 137.6328120320104 622.6210938879522 L 137.38803200004622 623.1797759999172 L 137.24057600001106 623.7695999999414 L 137.20780800003558 624.326655999932 L 137.25981798401335 624.4381061119493 L 137.3203128320165 624.5742182399263 L 137.81250048003858 624.6054686719435 L 137.61740800004918 624.6871039999533 L 137.06035200005863 624.998399999924 L 136.49999974406091 625.4257817599573 L 136.20838400005596 625.7029119999497 L 136.13268889603205 625.9047659519711 L 136.00781209603883 626.2265620479593 L 135.92535654403036 626.5728767999681 L 135.84793600003468 626.88255999994 L 135.60186060803244 627.6202127359575 L 135.42187520005973 627.8320312319556 L 135.04529510403518 627.9638435839443 L 134.81574400002137 627.8164479999687 L 134.741806080041 627.7147842559498 L 134.6875002880115 627.6367185919662 L 135.25781299202936 625.8984376319568 L 134.73382400005357 625.9322879999527 L 134.2734376960434 627.2109373439453 L 133.97735116805416 627.8654453759664 L 132.19531264004763 627.7656248319545 L 132.1943040000624 628.0949759999639 L 133.4682828800287 628.0949759999639 L 133.37395200005267 628.3407359999255 L 133.2265625600121 628.5195315199671 L 133.34118400001898 628.766719999956 L 134.5390622720588 628.5390622719424 L 139.99218790401937 630.3242188799195 L 140.66396979201818 630.4541040639742 L 140.63215411204146 630.7810488319374 L 139.99308800004655 630.5853439999628 L 138.452992000035 630.2248959999415 L 137.79687526402995 631.1250001919689 L 134.10937548801303 629.9609374719439 L 134.01292800001102 630.1265919999569 L 135.85798348806566 630.7416104959557 L 137.86718720005592 631.4140620799735 L 138.09204121603398 631.4877214719309 L 138.0720025600167 631.5378165759612 L 138.02343731204746 631.6484372479608 L 136.1249996800325 631.0429685759591 L 136.0609280000208 631.0768639999442 L 135.6175144960289 631.8314782719244 L 135.43833600002108 631.994367999956 L 133.9140628480236 631.4687498239218 L 133.27564800000982 631.240703999938 L 133.10937497601844 631.3398435839335 L 132.75000012805685 631.6484372479608 L 132.70992179203313 631.6951951359515 L 132.55468748800922 631.8632816639729 L 132.3581440000562 632.2073599999421 L 131.9140628480236 632.6992189439479 L 131.30956800002605 633.5016959999339 L 130.9982720000553 633.9932159999735 L 130.9507553280564 634.112007167947 L 130.92968755203765 634.1562501119333 L 130.55468748800922 634.6992189439479 L 130.31014400004642 635.3203199999407 L 130.07812505605398 635.7968752639717 L 129.8022400000482 636.2869759999448 L 129.4745600000606 637.024255999946 L 129.06250035203993 638.0156252159504 L 128.983040000021 638.2202879999531 L 128.58593792002648 638.8281251839362 L 128.2265620480175 639.6601559039555 L 127.8360238080495 640.7107143679168 L 127.37499955203384 640.906250239932 L 127.32633190404158 641.3158686719253 L 127.27910400001565 641.693695999973 L 126.8039680000511 642.5784319999511 L 126.44352000002982 643.5450879999553 L 125.98437478404958 644.5781247999403 L 125.4921871360275 645.9023441919708 L 125.4440960000502 646.4931839999626 L 125.4116638720152 646.5742643199628 L 125.36231628805399 646.8446699519409 L 125.34375014406396 646.9374996479601 L 125.1164160000626 647.4598399999668 L 125.03124992002267 648.1132810239214 L 125.01562470401404 648.8359372799168 L 124.88060723204399 649.1187435519532 L 124.72320000006584 649.4423039999674 L 124.4610560000292 650.1631999999518 L 124.13337600004161 650.7366399999592 L 123.99050854402594 651.1652423679479 L 123.96874956804095 651.2265625599539 L 123.80468736001058 651.7851566079189 L 123.55993600003421 652.5224959999323 L 123.28125030401861 652.9648435199633 L 123.03564800001914 654.4721919999574 L 122.83324620802887 654.9913968639448 L 122.65624985605245 655.437500415952 L 122.08537600003183 657.0444799999241 L 121.5774720000336 658.5681919999188 L 121.1328122880659 660.7617187839351 L 120.42968780803494 663.4492190719466 L 120.13281280006049 665.3164062719443 L 120.10156236804323 667.2187504639733 L 119.84076800005278 669.3324799999245 L 119.72937216004357 670.1122539519565 L 119.62499993602978 670.8242186239222 L 119.44531251204899 672.3125002239249 L 118.9531248640269 674.3125002239249 L 118.38281216000905 676.2617190399324 L 118.19229593605269 677.5196088319644 L 118.0859371520346 678.2109378559398 L 117.87468800001079 679.8663679999299 L 117.41406208003173 681.3398435839335 L 116.84249600005569 683.6510719999205 L 117.02272000006633 684.9945599999628 L 116.93749964801827 685.6484372479608 L 116.53120000002673 686.8459519999451 L 116.42968780803494 688.1406248959247 L 116.46088806405896 688.5974978559534 L 116.48204800003441 688.9431039999472 L 116.5977600000333 690.1063679999206 L 116.5977600000333 690.6320885759196 L 116.59375001606531 691.187500031956 L 116.53125017601997 692.1562501119333 L 116.41406259202631 693.1718748159474 L 116.25000038405415 694.1874995199614 L 115.89062451204518 695.7929687039577 L 115.7265623040148 697.1679682559334 L 115.3198080000584 698.3311359999352 L 115.00781260803342 699.1484375039581 L 114.3671879680478 700.5742182399263 L 113.85937510401709 702.1484369919635 L 113.89062451204518 703.3593753599562 L 113.90315622405615 704.0527861759183 L 113.91078400006518 704.655359999917 L 113.90318182401825 705.347198975971 L 113.87500032002572 707.078124543943 L 113.45203200005926 708.9643519999227 L 112.76390400005039 710.9631999999401 L 112.07577600004151 712.6988799999235 L 110.76562534406548 714.3359375359723 L 110.10937548801303 715.3515622399282 L 109.73286400001962 716.6638079999248 L 109.07812454405939 717.8906245119288 L 108.19276800006628 719.6456959999632 L 107.1406254080357 720.7929692159523 L 106.59595264005475 721.7000058879494 L 106.19392000004882 722.365439999965 L 105.07812454405939 723.9062497279374 L 104.47360000002664 725.3637119999621 L 103.45779200003017 726.9038079999737 L 102.7696640000213 727.8213119999273 L 102.47185408003861 728.556530687958 L 102.24218726402614 729.1171870719409 L 102.0334970880649 729.6563046399388 L 101.77024000004167 730.328063999943 L 101.47532800002955 731.1472639999702 L 101.30861260805978 731.4616422399413 L 100.89843712002039 732.2265620479593 L 100.50781286403071 733.0625003519235 L 100.14822400006233 733.9489279999398 L 99.71875020803418 734.7695308799739 L 99.64654387201881 735.1466086399741 L 99.57478400005493 735.5054079999682 L 99.34131200006232 736.8652799999691 L 95.75731200003065 748.0258559999638 L 91.45312460802961 761.1328122879495 L 90.32812544004992 767.5859374079737 L 90.44878540805075 770.9071083519375 L 90.63731200003531 776.1858559999382 L 92.07031296001514 782.4296878079185 L 92.40625049604569 783.4453125119326 L 93.29687449603807 786.1171875839354 L 95.43750041601015 790.3125002239249 L 95.98437478404958 791.1054684159462 L 101.4921871360275 799.2265625599539 L 102.43053875205806 800.4504043519264 L 105.17935820802813 804.0386324479477 L 105.2648028160329 804.4336865279474 L 105.26562508800998 804.4374999039574 L 105.38281267206185 804.9609379839385 L 106.12734259205172 807.9997624319512 L 106.50781286403071 809.5664066559402 L 104.65624985605245 815.3984378879541 L 106.1958993920125 822.1585684479214 L 108.34374963201117 827.2773437439464 L 106.19693772803294 822.1601228799555 L 109.68473600002471 827.383807999955 L 112.60825190402102 830.3624847359606 L 115.10937497601844 832.9140623359708 L 115.6668989440659 834.300814335933 L 116.34073600004194 835.9854079999495 L 116.69709516805597 837.4702397439396 L 116.9531248640269 838.5468753919704 L 121.76562483201269 849.2968744959217 L 121.76562483201269 850.1171875839354 L 117.46816000004765 858.3075839999365 L 117.6718745600665 858.6132807679242 L 113.16406272002496 865.8867189759621 L 110.29687500803266 871.7226557439426 L 108.04736000002595 875.5097599999281 L 105.89696000004187 877.9673599999514 L 103.9513600000646 881.039359999937 L 102.10816000006162 883.3945599999279 L 101.18656000006013 885.8521599999513 L 100.98176000005333 887.5929599999217 L 100.98176000005333 889.2313599999179 L 101.2918579200632 891.6501207039692 L 101.4921871360275 893.2265625599539 L 101.64553625602275 893.907953663962 L 101.90336000005482 895.0681599999662 L 102.9273600000306 897.3209599999245 L 103.43750041601015 898.7539066879544 L 104.56249958404806 900.800781311933 L 105.0785372160608 901.6140287999297 L 105.79456000000937 902.7471359999618 L 106.1927116800216 903.3159239679226 L 106.50781286403071 903.7695313919685 L 109.37499955203384 907.2539064319571 L 112.14062489604112 910.1210941439494 L 112.55468748800922 910.5312501759618 L 116.34176000003936 913.8063359999214 L 121.97478400002001 918.7215359999682 L 124.42968780803494 920.1562501119333 L 126.88998400006676 922.6127359999227 L 127.91398400004255 927.1183359999559 L 129.96093747206032 931.3164062719443 L 132.21093785605626 934.796874751919 L 132.52198400005 937.869311999937 L 132.52198400005 940.1221119999536 L 135.69638400000986 946.8805119999452 L 136.31078400003025 947.5973119999398 L 136.72038400004385 947.8021119999466 L 139.17804236803204 948.0076738559292 L 139.28038400004152 949.3381119999685 L 138.97318400006043 952.3077119999216 L 134.26278400002047 957.939711999963 L 132.92968755203765 958.0429690879537 L 127.50438400002895 962.6490879999474 L 127.33421363204252 962.9327042559744 L 127.19531212805305 963.1601561599527 L 127.29687449603807 964.902343679918 L 125.66118400002597 965.4138879999518 L 119.71875020803418 969.714843647962 L 120.74598400003742 971.6602879999555 L 118.90613862406462 972.1713561599609 L 118.85656780801946 971.9412090879632 L 118.80038400006015 971.6602879999555 L 117.16345651203301 971.9672115199501 L 117.06250035203993 971.710937087948 L 117.01858918403741 971.6090019839467 L 116.95718400005717 971.4554879999487 L 116.14062489604112 971.2499998719431 L 115.62598400004208 970.0218879999593 L 115.6263884800137 970.0267397119314 L 115.62499993602978 970.023437311931 L 115.7265623040148 971.2499998719431 L 114.70312550402014 972.273437695927 L 114.96093798405491 972.378906623926 L 115.21634713601088 972.4795217919745 L 113.8960967680323 973.6897515519522 L 112.75781222403748 974.7304683519178 L 113.78125004802132 975.5507814399316 L 113.76449843205046 975.6429137919331 L 113.6796876800363 976.0624998399289 L 112.55398400005652 977.1898879999644 L 112.55468748800922 977.19140659197 L 114.49999974406091 978.3164057599497 L 116.14062489604112 976.8828129279427 L 121.05268224002793 976.7812904959428 L 120.95109632005915 976.9844623359386 L 118.59375001606531 977.085937663971 L 115.31878400006099 979.6474879999296 L 111.93877913604956 980.6714879999636 L 107.43398400006117 980.6714879999636 L 106.81870848004473 982.1381396479555 L 106.5390622720588 982.800781311933 L 106.10156236804323 983.8476564479643 L 105.79558400006499 984.9722879999317 L 107.2265625600121 984.9726566399331 L 107.17968793603359 985.6562503679306 L 107.12500019202707 986.5078128639725 L 105.38281267206185 986.6093752319575 L 104.52915609604679 990.7345121279359 L 104.09984000003897 992.8007679999573 L 104.10937548801303 993.3281249279389 L 104.21874995203689 993.6679690239253 L 104.4453120000544 993.9453122559353 L 104.63744000002043 994.143231999944 L 105.11718707205728 994.4414064639714 L 105.99218790401937 994.4062504959293 L 106.2656245760154 994.2812497919658 L 106.55468748800922 994.0624998399289 L 106.60937523201574 993.9453122559353 L 106.70312550402014 993.6289064959274 L 106.78124953602673 993.3281249279389 L 106.7895541760372 993.097677823971 L 106.80012800003169 992.8929279999575 L 106.72128000005614 992.5550079999375 L 106.58713600004558 992.1781759999576 L 106.28505600005155 991.8412799999351 L 105.8027520000469 991.6620799999218 L 105.58358118403703 991.5775426559267 L 105.44531251204899 991.5234375679283 L 105.3124997120467 991.464843263966 L 105.28906240005745 991.3632808959228 L 105.3124997120467 991.2070307839313 L 105.3124997120467 990.8671877119341 L 105.23437465605093 990.652343295922 L 105.20243200002005 990.6124144639471 L 105.17504000006011 990.5735679999343 L 105.17504000006011 990.4947199999588 L 105.25388800003566 990.3953919999185 L 105.33250355202472 990.3257784319576 L 105.39062476804247 990.277344255941 L 105.74643200001447 990.0574719999568 L 106.32031232002191 989.8007807999384 L 106.36288000002969 989.7605119999498 L 106.42187468806515 989.6992184319533 L 106.31250022404129 989.5937495039543 L 106.14988800004357 989.4427535359282 L 106.14988800004357 989.3826559999725 L 106.35974860802526 989.3049671679619 L 107.02343782404205 989.8007807999384 L 107.80468736001058 990.5742182399263 L 108.01235660805833 990.9606737919385 L 108.09958400001051 991.1265279999352 L 108.28906291205203 992.0390625279397 L 108.10937548801303 992.7148441599566 L 107.59374950401252 993.6679690239253 L 107.25781299202936 994.023437311931 L 106.99059200001648 994.162687999953 L 106.79687475203536 994.2226565119345 L 106.58593792002648 994.3398440959281 L 106.29687500803266 994.6757816319587 L 106.20006297604414 997.6680673279334 L 103.03124992002267 997.7695313919685 L 103.07812454405939 998.0781250559376 L 103.1328122880659 998.3867187199648 L 103.33593702403596 999.0000005119364 L 106.51238400005968 998.6928639999242 L 106.95309619203908 1000.4557137919473 L 107.2265625600121 1001.5585935359704 L 104.97656217601616 1003.5039057919639 L 105.17968793603359 1004.1210941439494 L 107.5373813760234 1002.2786580479587 L 108.04687462403672 1003.1992186879506 L 105.69318400003249 1005.3488639999414 L 106.00038400001358 1006.1680639999686 L 108.4592721920344 1004.1224796159659 L 108.77343129605288 1004.7115274239331 L 109.27343718404882 1005.6562503679306 L 106.71718400006648 1007.8064639999648 L 110.7874682880356 1016.9627996159252 L 112.03906252805609 1019.7890621439437 L 113.47660800005542 1019.0704639999312 L 114.29580800002441 1019.6848639999516 L 114.49999974406091 1021.3242183679249 L 114.80468787206337 1021.3242183679249 L 114.29580800002441 1021.7328639999614 L 115.62499993602978 1022.8593745919643 L 115.0126080000191 1023.4736639999319 L 115.6117486692965 1024.0" fill="none"/><path stroke="#000000" stroke-width="2" d="M 107.36363212805009 979.2863518719678 L 107.74218752002344 979.3398435839335 L 107.94598400004907 978.8282879999606 L 107.84382668801118 978.1131888639648 L 108.86745292803971 976.8828456959454 L 109.68749977601692 976.9843752959277 L 109.7891266560182 975.8593218559399 L 111.01798400003463 974.8346879999735 L 112.65624985605245 972.9921873919666 L 112.25000038405415 972.4804689919692 L 112.24866304005263 972.4818360319478 L 112.24678400001721 972.4794879999245 L 107.84374988806667 976.9843752959277 L 107.12500019202707 978.3164057599497 L 107.02343782404205 979.2382812159485 L 107.36363212805009 979.2863518719678" fill="none"/></svg>