<svg xmlns="http://www.w3.org/2000/svg" width="1024" height="1024"><rect stroke="none" x="0" y="0" width="1024" height="1024" fill="white"/><path stroke="#408040" stroke-width="3" d="M 172.7488000000012 796.7027200000011 L 173.0867200000066 796.7027200000011 L 173.76256000000285 796.6924799999979 L 173.6704000000027 797.1123200000002 L 173.60895999999775 797.4400000000023 L 173.5679999999993 797.6140799999994 L 172.8307199999981 801.2595199999996 L 172.65664000000106 802.1196800000034 L 172.26751999999397 804.3724799999982 L 172.13439999999537 805.0278400000025 L 171.20256000000518 809.5539199999985 L 169.99424 815.6160000000018 L 169.63584000000264 817.1212799999994 L 169.23648000000685 817.8585600000006 L 168.39680000000226 818.851840000003 L 167.94624000000476 820.3673599999966 L 167.49568000000727 822.4665600000008 L 167.10656000000017 823.7260800000004 L 166.65600000000268 824.268799999998 L 165.6319999999978 825.0060799999992 L 164.70015999999305 825.8867200000022 L 164.5465600000025 826.4908799999976 L 164.6591999999946 826.9107199999999 L 165.93919999999343 828.0371200000009 L 166.78912000000128 828.0883200000026 L 167.33183999999892 827.8528000000006 L 167.8643199999933 827.2895999999964 L 168.34560000000056 826.9824000000008 L 169.19551999999385 826.8492800000022 L 172.8614399999933 827.0540800000017 L 180.63360000000102 827.0336000000025 L 188.23167999999714 826.7161600000036 L 193.41311999999743 826.3270399999965 L 201.00096000000485 826.112000000001 L 207.94367999999668 826.1632000000027 L 214.68159999999625 826.8902400000006 L 227.8092800000013 826.8185599999997 L 237.26080000000366 826.7878399999972 L 258.314240000007 826.7263999999996 L 280.8934399999998 826.6649600000019 L 300.82047999999486 826.7776000000013 L 310.8761599999998 826.6956799999971 L 312.57600000000093 826.3884800000014 L 314.24512000000686 825.7945600000021 L 316.17024000000674 824.6681600000011 L 318.69951999999466 822.5689599999969 L 323.0924800000066 818.8723200000022 L 325.2838400000037 817.0495999999985 L 326.6969600000011 816.1689600000027 L 328.2841599999956 815.5135999999984 L 329.98399999999674 815.1039999999994 L 337.48992000000726 814.0492799999993 L 349.3683199999941 812.3903999999966 L 354.3347199999989 812.1855999999971 L 371.7836799999932 812.2265600000028 L 386.1811199999938 812.2265600000028 L 387.88095999999496 812.01152 L 390.7379199999996 811.0182399999976 L 394.5984000000026 808.3148799999981 L 401.18271999999706 803.4303999999975 L 405.7907200000045 800.0102400000033 L 408.0332800000033 798.7507199999964 L 410.85951999999816 798.0236799999984 L 420.5977600000042 798.0134400000024 L 434.9132799999934 798.1056000000026 L 478.72000000000116 797.8086400000029 L 515.1027199999953 797.3478400000022 L 548.8332800000062 797.2352000000028 L 578.3552000000054 797.1635200000019 L 605.8803199999966 797.0611199999985 L 615.7721599999932 797.0508800000025 L 619.1513600000035 797.3990399999966 L 623.7081599999947 798.6790400000027 L 633.4873599999992 802.5907200000001 L 652.3801600000006 810.0966400000034 L 655.9027199999982 811.0284800000009 L 660.2649600000004 811.3971200000015 L 681.4515200000023 811.4176000000007 L 793.5692799999961 811.5097600000008 L 801.2595200000069 811.2128000000012 L 806.0313599999936 811.53024 L 810.8236800000013 811.53024 L 848.2099199999939 811.5711999999985 L 869.4784000000072 811.612159999997 L 873.0521600000066 811.53024 L 876.7692799999932 811.1820799999987 L 885.2787200000021 809.6665599999978 L 898.5292800000025 807.1475199999986 L 906.7519999999931 805.5910399999993 L 909.209600000002 805.406719999999 L 912.7424000000028 805.7036799999987 L 915.517439999996 806.4307199999967 L 917.9033599999966 807.4649599999975 L 923.6070400000026 810.6700800000035 L 928.9318400000047 814.1209600000002 L 933.9596799999999 818.2988800000021 L 937.4924800000008 821.1558399999994 L 939.6838399999979 822.4358399999983 L 942.2950399999972 823.5520000000033 L 944.8652799999982 824.2790400000013 L 948.0703999999969 824.8729600000006 L 959.3139200000005 826.9107199999999 L 975.8412799999933 829.9212800000023 L 1010.5651199999993 836.2291200000036 L 1024.0 837.4840585945058" fill="none"/><path stroke="#408040" stroke-width="3" d="M 172.7488000000012 796.7027200000011 L 172.13439999999537 805.0278400000025 L 169.99424 815.6160000000018 L 167.10656000000017 823.7260800000004 L 164.70015999999305 825.8867200000022 L 165.93919999999343 828.0371200000009 L 172.8614399999933 827.0540800000017 L 214.68159999999625 826.8902400000006 L 258.314240000007 826.7263999999996 L 300.82047999999486 826.7776000000013 L 338.7699200000061 828.9792000000016 L 423.8335999999981 840.4889600000024 L 475.1052800000034 854.1798399999971 L 594.206720000002 888.7193600000028 L 647.2192000000068 906.9055999999982 L 746.2912000000069 945.3260799999989 L 770.1196800000034 957.7574400000012 L 786.2988800000021 972.1753600000011 L 799.8566399999982 982.1183999999994 L 826.7059199999931 988.8767999999982 L 927.7849600000045 993.0854400000026 L 991.7849077050778 1024.0" fill="none"/><path stroke="#408040" stroke-width="3" d="M 172.7488000000012 796.7027200000011 L 173.0867200000066 796.7027200000011 L 173.76256000000285 796.6924799999979 L 173.6704000000027 797.1123200000002 L 173.60895999999775 797.4400000000023 L 173.5679999999993 797.6140799999994 L 172.8307199999981 801.2595199999996 L 172.65664000000106 802.1196800000034 L 172.4108799999958 803.6454400000002 L 172.26751999999397 804.3724799999982 L 172.13439999999537 805.0278400000025 L 171.20256000000518 809.5539199999985 L 170.73152000000118 811.8784000000014 L 170.49599999999919 812.9126400000023 L 170.3116799999989 813.9878400000016 L 169.99424 815.6160000000018 L 169.63584000000264 817.1212799999994 L 169.23648000000685 817.8585600000006 L 168.39680000000226 818.851840000003 L 168.2022399999987 819.2307199999996 L 167.94624000000476 820.3673599999966 L 167.8335999999981 820.7257600000012 L 167.73119999999471 821.2684799999988 L 167.49568000000727 822.4665600000008 L 167.29088000000047 823.3574399999998 L 167.23967999999877 823.5622399999993 L 167.14751999999862 823.6543999999994 L 167.10656000000017 823.7260800000004 L 166.97344000000157 823.9718399999983 L 166.65600000000268 824.268799999998 L 165.53983999999764 824.913919999999 L 164.4646400000056 825.5078399999984 L 163.8092800000013 825.6819200000027 L 163.4611200000072 825.6921599999987 L 163.18464000000677 825.7843199999988 L 162.90816000000632 825.7433600000004 L 162.86719999999332 825.7433600000004 L 161.66912000000593 825.5590400000001 L 161.31071999999403 825.5180800000016 L 159.8463999999949 825.3337600000013 L 157.60383999999613 825.0572800000009 L 154.04032000000007 824.6169599999994 L 149.39135999999417 824.0332800000033 L 147.84511999999813 823.9616000000024 L 145.909759999995 823.9411200000031 L 139.74528000000282 823.9411200000031 L 135.66976000000432 823.9820800000016 L 134.74816000000283 824.094720000001 L 133.6524800000043 824.3609599999982 L 132.6591999999946 824.7193600000028 L 131.7580799999996 825.1801600000035 L 128.77823999999964 826.9311999999991 L 127.82592000000295 827.3715200000006 L 126.91456000000471 827.658239999997 L 125.69599999999627 827.8425599999973 L 122.59328000000096 827.8528000000006 L 116.30591999999888 827.8323200000013 L 112.41472000000067 827.8323200000013 L 108.29824000000372 828.1702399999995 L 104.71424000000115 828.4774400000024 L 100.80255999999645 828.8153600000005 L 98.11968000000343 829.0815999999977 L 96.98304000000644 829.2761600000013 L 95.3958399999974 829.6345599999986 L 93.20448000000033 830.3206399999981 L 91.04383999999845 831.0886400000018 L 88.96511999999348 831.8054399999965 L 87.12192000000505 832.2867199999964 L 85.84192000000621 832.5324800000017 L 84.58239999999932 832.6963200000027 L 82.99520000000484 832.7987199999989 L 81.13151999999536 832.7987199999989 L 75.86815999999817 832.6656000000003 L 64.5222400000057 832.3788799999966 L 57.886719999994966 832.1945600000035 L 49.121280000006664 831.9692799999975 L 41.666559999997844 831.7952000000005 L 39.28063999999722 831.7337600000028 L 36.4441599999991 831.7132800000036 L 34.385920000000624 831.8668800000014 L 30.02367999999842 832.2662399999972 L 29.122560000003432 832.3174399999989 L 27.648000000001048 832.245759999998 L 26.56256000000576 832.0819199999969 L 25.65119999999297 831.8566399999982 L 24.63744000000588 831.51872 L 23.306240000005346 830.9452799999999 L 22.282240000000456 830.5766399999993 L 21.24800000000687 830.2899200000029 L 20.04992000000493 830.0953599999993 L 18.821119999993243 830.0236799999984 L 15.656959999992978 829.9519999999975 L 0.0 829.5734623868266" fill="none"/><path stroke="#408040" stroke-width="3" d="M 172.7488000000012 796.7027200000011 L 175.05280000000494 792.7091199999995 L 173.1686400000035 788.6028799999985 L 170.99775999999838 770.2118400000036 L 170.54720000000088 736.2252799999987 L 172.27775999999722 650.7520000000004 L 172.00127999999677 632.9651200000008 L 165.56032000000414 607.8771199999974 L 154.4704000000056 586.2707200000004 L 144.53759999999602 582.0415999999968 L 137.99424 572.7641599999988 L 135.77215999999316 562.3193600000013 L 127.4470399999991 550.1849599999987 L 108.27775999999722 524.6975999999995 L 74.89535999999498 476.91775999999663 L 47.66719999999623 428.97407999999996 L 41.605119999992894 411.5046399999992 L 41.2569599999988 384.0716800000009 L 41.2569599999988 342.661119999997 L 36.126720000000205 319.5494400000025 L 32.471040000003995 316.98943999999756 L 22.302720000006957 316.9996800000008 L 0.0 316.8923292245163" fill="none"/></svg>