<svg xmlns="http://www.w3.org/2000/svg" width="1024" height="1024"><rect stroke="none" x="0" y="0" width="1024" height="1024" fill="white"/><path stroke="#000000" stroke-width="2" d="M 20.202113647348597 0.0 L 20.58593792002648 1.3203128319582902 L 23.554688000062015 3.8789058559341356 L 27.757812736032065 6.847655935969669 L 32.57031270401785 11.761718271940481 L 37.89062451204518 18.523437055933755 L 39.53124966402538 21.49218713596929 L 39.73437542404281 23.847656447964255 L 39.32812492805533 26.304687103955075 L 38.30468710401328 30.29687500797445 L 36.46093721606303 34.18749951996142 L 33.07812454405939 37.46484326396603 L 29.804687360010576 39.00000051193638 L 24.781249536026735 40.33203097595833 L 16.999999488063622 40.74218700797064 L 12.60156211204594 40.128906239930075 L 7.992187904019374 38.89843711996218 L 5.226564608048648 37.77343283192022 L 1.6406251520384103 35.82812467194162 L 0.0 34.26505700783309" fill="none"/><path stroke="#000000" stroke-width="2" d="M 0.0 205.53747369482153 L 1.4375004160101525 206.7343749119318 L 8.91406233602902 213.28515583992703 L 11.062500352039933 217.5859374079737 L 11.78125004802132 220.66015641595004 L 10.859374592022505 224.65234329592204 L 9.015624704014044 228.5429688319564 L 6.351562752039172 231.820312575961 L 0.0 236.2571793261668" fill="none"/><path stroke="#000000" stroke-width="2" d="M 0.0 236.2571793261668 L 6.351562752039172 231.820312575961 L 9.015624704014044 228.5429688319564 L 10.859374592022505 224.65234329592204 L 11.78125004802132 220.66015641595004 L 11.062500352039933 217.5859374079737 L 8.91406233602902 213.28515583992703 L 1.4375004160101525 206.7343749119318 L 0.0 205.53747369482153" fill="none"/><path stroke="#000000" stroke-width="2" d="M 0.0 34.26505700783309 L 1.6406251520384103 35.82812467194162 L 5.226564608048648 37.77343283192022 L 7.992187904019374 38.89843711996218 L 12.60156211204594 40.128906239930075 L 16.999999488063622 40.74218700797064 L 24.781249536026735 40.33203097595833 L 29.804687360010576 39.00000051193638 L 33.07812454405939 37.46484326396603 L 36.46093721606303 34.18749951996142 L 38.30468710401328 30.29687500797445 L 39.32812492805533 26.304687103955075 L 39.73437542404281 23.847656447964255 L 39.53124966402538 21.49218713596929 L 37.89062451204518 18.523437055933755 L 32.57031270401785 11.761718271940481 L 27.757812736032065 6.847655935969669 L 23.554688000062015 3.8789058559341356 L 20.58593792002648 1.3203128319582902 L 20.202113647348597 0.0" fill="none"/></svg>