<svg xmlns="http://www.w3.org/2000/svg" width="1024" height="1024"><rect stroke="none" x="0" y="0" width="1024" height="1024" fill="white"/><path stroke="#000000" stroke-width="2" d="M 0.0 1.0286701795339468 L 0.9218754560570233 1.0117191679310054 L 8.093750272062607 1.0117191679310054 L 19.968749568099156 0.9082030078861862 L 30.109375488129444 0.9082030078861862 L 44.4453120000544 0.8066406398429535 L 49.46093772811582 0.8066406398429535 L 56.734374912048224 0.7050782719743438 L 63.79687526402995 0.7050782719743438 L 73.93750016007107 0.49999974394449964 L 91.34375014406396 0.49999974394449964 L 105.27343718410702 0.39648460783064365 L 126.77343744004611 0.39648460783064365 L 129.1542179840617 0.5181419518776238 L 132.812499968044 0.7050782719743438 L 174.9062502401066 0.7050782719743438 L 177.7734379520407 1.1132815359160304 L 182.89062502403976 0.6015621118131094 L 221.4921871360275 0.6015621118131094 L 225.59374950401252 0.49999974394449964 L 229.89062451204518 0.49999974394449964 L 232.8593745920225 0.6015621118131094 L 239.61718784010736 0.6015621118131094 L 247.39843788801227 0.39648460783064365 L 252.82812518405262 0.7050782719743438 L 255.89843763207318 0.7050782719743438 L 268.39062528003706 0.8066406398429535 L 271.7734379520989 0.8066406398429535 L 288.2578124800348 0.7050782719743438 L 295.2265625600121 0.6015621118131094 L 314.47656243207166 0.6015621118131094 L 335.05468723201193 0.49999974394449964 L 400.39062528009526 0.49999974394449964 L 415.0312499200227 0.39648460783064365 L 421.68749977607513 0.39648460783064365 L 425.9843747840496 0.2949222399620339 L 439.906249728112 0.2949222399620339 L 443.1875000320142 0.3007815679302439 L 450.66406297608046 0.2949222399620339 L 459.9843747841078 0.2949222399620339 L 460.84375040006125 0.035155967983882874 L 460.9516887201462 0.0" fill="none"/><path stroke="#000000" stroke-width="2" d="M 468.9053939278383 0.0 L 469.7187502081506 0.09570303990039974 L 471.554688000062 0.2949222399620339 L 480.15625011210795 0.2949222399620339 L 481.7734379520407 0.2714839039836079 L 487.1250001920853 0.12499967991607264 L 492.914062336029 0.12499967991607264 L 495.9296870401595 0.08984371193218976 L 498.5937500161235 0.12499967991607264 L 511.6874997760169 0.12499967991607264 L 523.2265625600121 0.27539046382298693 L 526.0312504320173 0.2949222399620339 L 543.5390627841116 0.2949222399620339 L 544.078125056054 0.3125002238084562 L 555.3984378880123 0.3125002238084562 L 556.0390625280561 0.29492019180906937 L 556.4062504960457 0.3125002238084562 L 570.3671879680478 0.3125002238084562 L 570.9843752961024 0.2949222399620339 L 578.3515627520392 0.2949222399620339 L 585.3124997121049 0.12499967991607264 L 628.5156249600695 0.12499967991607264 L 630.5859379200847 0.08984371193218976 L 633.554688000062 0.08984371193218976 L 634.367187968106 0.0644536319305189 L 635.2416299150209 0.0" fill="none"/><path stroke="#000000" stroke-width="2" d="M 1024.0 706.3691407359547 L 1022.8749998080893 705.437500415952 L 1020.5156249600695 703.8105466879206 L 1017.2499998720596 701.5625000958098 L 1013.445312512049 699.3496094719158 L 1012.6250004480244 698.8749998079147 L 1006.1874995200778 696.187499519845 L 1002.6875002880697 695.3749995519756 L 998.4999997441191 694.1874995199614 L 991.2499998720596 692.3125002238085 L 985.0625003520399 691.6874997759587 L 981.3124997121049 688.625000447908 L 979.9375001600129 684.750000127824 L 977.1250001920271 680.6250004479662 L 973.5000002560555 676.1249996799743 L 971.023437824042 673.5410155518912 L 970.562499584048 673.0625003519235 L 967.8750003200257 670.625000447908 L 965.3124997121049 668.750000127824 L 962.1249996800325 666.7500001279986 L 955.3749995520338 663.6249999359134 L 951.6874997760169 661.9999999998836 L 947.3749995521503 659.9375001598382 L 944.5624995841063 658.5624995839316 L 939.9375001601293 655.6874997759005 L 938.7421870080288 654.7148441598983 L 936.6250004480826 653.0000005118782 L 932.9374996480183 652.8124999678112 L 930.6640629760223 650.1269534719177 L 930.4999997440609 649.9375001599547 L 929.4765629440662 650.1972654078854 L 927.3124997121049 650.750000127824 L 923.7499996161205 649.9375001599547 L 920.6875002880115 649.7499996159459 L 916.812499968044 649.5000002559973 L 912.562499584048 648.6875002879533 L 905.5000002561137 648.6875002879533 L 900.9999994880636 647.8750003199675 L 896.6875002880115 647.2499998718849 L 891.1875000320724 645.8125004799222 L 887.3749995520338 644.3750000638538 L 884.0000000000582 642.5624995839316 L 878.4999997441191 641.1250001919689 L 874.1874995200196 640.9374996479019 L 870.0000000000582 640.1249996799161 L 866.4999997440609 639.6874997759005 L 864.7734374400461 639.4160158719169 L 861.3124997121049 638.8749998078565 L 856.0624998401036 635.0000005118782 L 849.8125004800386 633.5625000958098 L 843.5625000960426 633.1250001919689 L 838.4374999040738 633.5625000958098 L 837.9453122561099 633.1953121279948 L 834.562499584048 630.6875002879533 L 830.8749998080893 627.0000005118782 L 825.0723686401034 626.1888788479846 L 819.374999552092 626.5624995839316 L 811.4375004160102 628.2500003838795 L 806.812499968044 629.8750003199093 L 803.9375001600711 631.6874997759005 L 801.1875000320142 633.1250001919689 L 798.1874995200778 634.750000127824 L 795.4375004160102 636.437499903841 L 792.8749998080893 638.0624998398707 L 790.6249932801002 639.812505599868 L 790.0000000001164 640.3125002239249 L 789.79687526403 640.4550778879202 L 789.5000002560555 640.6875002879533 L 788.9503733760212 641.0567813119851 L 786.5624995841063 642.750000127824 L 785.692169216054 643.2458864639048 L 785.5000002560555 643.3749995519756 L 783.9453122561099 644.2402344958973 L 781.1875000320142 645.8125004799222 L 778.6250004480244 648.0624998399289 L 776.8749998080893 649.4941409278545 L 774.437499904132 651.5625000958098 L 774.437499904132 651.4848481279332 L 772.6545233920333 653.0517063678126 L 772.5078128640889 653.1972659198218 L 771.1093749760767 654.2460938238655 L 771.0595082240179 654.2678691839101 L 770.0937502720626 654.9921873918502 L 770.088895488123 655.0006845438038 L 770.0833105920465 655.0050406400114 L 769.9960934401024 655.2050780159188 L 769.8333480961737 655.4212055039243 L 769.7499996161205 655.5292968959548 L 769.1406254081521 655.6835942399339 L 768.8714516480104 655.8824007679359 L 768.7792967680143 656.0019527679542 L 768.3886714880355 656.376952831808 L 768.0856023040833 656.5152839678922 L 768.0000000001164 656.5527347198222 L 766.5859379201429 657.6660152318655 L 766.5177497600671 657.7474611199577 L 766.4414064640296 657.833983999968 L 766.4218746881234 657.8671871998813 L 766.2734376960434 658.1386721279705 L 766.0078120960388 658.4199219199363 L 765.5937495040125 658.6074214398977 L 765.2499998721178 658.9374996479601 L 765.0546872320701 659.0703124478459 L 764.8437504000613 659.2871096319286 L 763.79687526403 659.9492188158911 L 763.4067548161256 660.2221864958992 L 763.3196226560976 660.3481599998777 L 763.273437184107 660.4121098240139 L 763.0546872320119 660.5761720318114 L 762.7890626560547 660.7167969279108 L 762.5703127040179 661.0683596800081 L 762.0673249280662 661.2366735358373 L 761.5625000960426 661.6249999358552 L 761.4433853441151 661.7058273279108 L 761.4098831360461 661.7460305918357 L 760.6777344000875 662.2636718078284 L 760.4921876480803 662.3496089599794 L 759.9921879040194 662.6894530559657 L 759.9779194880975 662.7477155839442 L 759.9218749441206 662.9433589759865 L 759.8671820800519 663.0214911999647 L 759.835937792086 663.0605465599219 L 759.2968744960381 663.3652346879244 L 758.2968750080909 664.2089840639383 L 758.077733888058 664.2803793919738 L 757.374999552092 664.8749998079147 L 757.2734371840488 664.9667973118485 L 757.26757068804 664.9799976959475 L 757.2148439040175 665.0761717759306 L 757.1296061440953 665.1057346558082 L 755.8984376320732 666.2265620479593 L 755.7499996160623 666.5527347198222 L 755.6171878401074 666.6933596159215 L 755.293495296035 666.7830456318916 L 755.1250001920271 666.9374996479601 L 755.00581478409 667.0891898878617 L 755.0196203520172 667.1187732479302 L 755.0468751360313 667.1855472638854 L 754.9921873920248 667.3496094719158 L 754.710937600059 667.4609377279412 L 753.0625003520981 669.562500095868 L 752.8593745920225 669.7787310078274 L 752.8593745920225 669.904296959925 L 753.0468751360313 670.0253911039326 L 752.9121095680166 670.4472657918232 L 752.8046878721216 670.916016127856 L 751.903258624021 671.0348380159703 L 751.6323870720807 671.0848788479343 L 751.1250001920271 671.6249999358552 L 751.0078126080334 671.8183598078904 L 750.9921873920248 671.8769530878053 L 750.9531248640851 671.9101562878932 L 750.0000000000582 673.5000002559391 L 749.8790604800452 673.6524892159505 L 749.7734379520407 673.9628902399563 L 749.5859374080901 674.2207027198165 L 749.2499998720596 674.4414064639714 L 748.5624995841063 675.3124997119303 L 749.0281482240534 676.286128127831 L 749.0703124480206 676.3066408958985 L 749.3945313281729 676.5878906878643 L 749.4218752000597 676.7285155839636 L 749.5292968960712 676.822265855968 L 749.6933591041598 677.103515647992 L 749.6933591041598 677.3378908159211 L 748.9609379840549 677.5253903358825 L 747.9050844160956 677.9726510079345 L 747.3121853440534 678.5116497919662 L 747.2851558401017 678.6738278398407 L 747.0133381120395 678.7382056958159 L 746.9609379841131 678.7695308799157 L 746.8749998080893 678.8613283839077 L 746.6250004480244 679.0136719358852 L 746.1953126400476 679.2695316478494 L 743.4375004160684 681.0625003519235 L 743.2031252480228 681.3554687998258 L 743.172536320053 681.4374041599222 L 742.9843752960442 681.8886717439163 L 742.5234370561084 682.7324221439776 L 742.1464842240093 683.0800783360028 L 741.7499996161205 683.1972659199382 L 740.3203123200801 684.9472655359423 L 740.2500003840541 685.0761717758141 L 740.1445457920781 685.322232831968 L 740.0351559680421 685.5683594239526 L 739.7109381120536 686.189453311963 L 739.3828126720618 686.8105471999734 L 739.1720192001085 687.1436175358831 L 738.9374996480765 687.6249999358552 L 738.4218746880651 688.5664061438874 L 738.359374848078 688.7089848319883 L 737.3574215680128 690.5371095038718 L 735.5996098560281 693.3066403838457 L 734.9511720960145 694.2441410559113 L 734.8143779840902 694.3721605119063 L 734.4609372161212 694.8476559358533 L 734.4374999040156 694.9003909119056 L 734.2734376960434 695.1816407039296 L 734.0830310400343 695.3560094718123 L 732.9999994881218 696.8124999678694 L 732.5546874880092 697.4511718399008 L 732.5156249600695 697.5253903359408 L 732.2968750080327 697.9238277119002 L 731.9219077121234 698.4237844478921 L 731.7324216320994 698.6738278398989 L 731.5703121920233 698.908203007828 L 731.5156254720641 698.9785159679595 L 731.335937024036 699.2910151678952 L 730.6484377600718 700.5058590719127 L 730.2545530880452 701.0389073918923 L 729.1468677120865 702.9773557758308 L 728.5683589121327 704.115234815923 L 727.726562304073 705.2167966719717 L 727.4589839361142 705.6621096958988 L 727.1621089280234 706.0605470720329 L 726.9687500800355 706.2695311358548 L 725.9375001600129 707.6874997759005 L 725.5078123520361 708.3750000639702 L 725.2421877761371 708.8964843518334 L 723.5371089920518 711.5722659838502 L 723.1328122880659 712.2753904638812 L 722.992187392083 712.4394526719116 L 722.9687500800355 712.6035159038729 L 721.6171878400492 714.8300779518904 L 721.4836439040373 714.9838847999345 L 721.4375004160102 715.0625003519817 L 720.8359372800915 715.7070315519231 L 720.5917972481693 715.9785154559067 L 720.1562501120497 716.5878906878643 L 719.8593751040753 716.822265855968 L 719.374999552092 717.4121093119029 L 718.9140623361454 717.9042969598668 L 718.4277340160334 718.6542970879236 L 718.0234373120475 719.029297151952 L 717.8046873600106 719.1230463998509 L 717.4023434240371 719.1230463998509 L 715.8046873600106 719.2636723198812 L 710.7500001280569 719.7558589439141 L 710.6640629760223 719.7695313919685 L 708.957129728049 720.1589002239052 L 706.5624995841063 721.6249999358552 L 708.6875002880115 723.8750003199675 L 708.9531248640851 724.1347655678983 L 710.5624995841645 725.6874997759587 L 708.4999997440609 726.9374996479601 L 705.7499996160623 727.7499996160041 L 703.5625000960426 729.0000005119364 L 703.4218752000597 729.1093749759602 L 700.7500001281151 731.2499998718849 L 700.4687503360328 731.5292968958383 L 696.4374999040738 735.5625000958098 L 692.7734374400461 740.5820313598961 L 692.562499584048 740.8749998079147 L 692.3750000640866 741.1113277439144 L 689.374999552092 744.9374996480183 L 686.9999994881218 747.6249999359134 L 685.4375004160684 749.5859374079155 L 684.562499584048 750.6875002878369 L 682.9921873920248 753.4902343678987 L 682.4999997441191 754.3750000638538 L 680.6250004480244 756.6250004479662 L 679.1875000320724 758.61718732788 L 678.6875002880115 759.3124997119303 L 678.3046871040715 759.9941406718572 L 678.2656245760154 760.0683591678971 L 678.1874995200196 760.2050785278552 L 676.8749998080893 762.5624995838152 L 674.9374996480183 764.4374999038992 L 672.0624998401036 766.2500003838213 L 669.3124997121049 768.1249996799743 L 667.2499998720596 771.9999999998836 L 664.1874995200778 774.6250004479662 L 662.1249996800325 776.4999997439445 L 660.812499968044 778.1249996799743 L 655.1250001920271 779.9999999998836 L 652.812499968044 779.3749995520338 L 648.4999997441191 781.8125004798057 L 645.9375001600129 783.2499998719431 L 644.3125002240413 784.6875002878369 L 641.1250001920853 786.3125002238667 L 633.5625000961008 788.8124999678694 L 629.6874997760751 791.6249999359716 L 624.5624995841063 795.1250001918525 L 620.562499584048 796.187499519845 L 617.6874997760751 797.1875000318978 L 614.9999994880636 798.6250004479662 L 610.3125002240413 801.2499998720014 L 607.6249999360298 803.562500095868 L 607.4531512320391 803.8257571838913 L 603.4062499840511 809.7128908798913 L 602.3125002240413 811.1250001918525 L 600.562499584048 813.7499996158876 L 600.0703129600734 814.564453375875 L 599.9297372160945 814.8046039039036 L 599.4375004160102 815.6249999359134 L 599.0390620160615 816.1718753278838 L 598.1249996800907 817.4375004158355 L 595.7160591360298 821.0817955839448 L 595.6326952960808 821.1865262078936 L 595.554688000062 821.2812503039022 L 594.1718753280584 822.9414062079159 L 593.7617182720569 823.3847654398996 L 593.0146314240992 824.5465845758445 L 590.6250004480826 827.8750003198511 L 590.3046871040715 828.4414064639132 L 590.1953126401058 828.5683589119581 L 589.441405952035 829.7636720638839 L 589.2331438080873 830.3375134718954 L 588.9999994880636 830.7500001279404 L 588.6406266880804 831.8820239359047 L 588.5468753920286 832.0410152958939 L 588.2500003841124 832.8144527358236 L 588.2161459200433 832.9394524159725 L 588.1445314560551 833.189452799852 L 588.1445314560551 833.4447247359785 L 587.7554032640182 834.6704783359892 L 587.5761715200497 834.8769535999745 L 587.3339842560817 835.3925785598694 L 587.279296512017 835.7207029759302 L 587.0078126080334 836.1425776638207 L 586.8749998080311 836.4238284798921 L 586.7656253440655 836.6113279998535 L 586.0371097601019 838.912109567842 L 585.740234752011 840.0605470718583 L 585.6855470081209 840.1308590078261 L 585.5781253120513 840.5527347198222 L 584.794921984023 843.2753909758758 L 584.7618324480136 843.4172037119279 L 584.1874995200196 845.3124997118139 L 584.0703129600734 845.7636720638839 L 584.0390625280561 845.8066401279066 L 583.9531253760215 846.2050785279134 L 583.5781253121095 847.4941409279709 L 583.5312496640254 847.8652344319271 L 583.5075010560104 847.970677759964 L 583.4179686400457 848.1269534718595 L 583.3731573760742 848.4566343678744 L 582.8749998080311 850.2500003838213 L 582.3357521920116 852.8923135998193 L 581.7167964160908 855.7285160959 L 581.6074219520087 856.0800778238918 L 581.5807344641071 856.2987898878055 L 581.523437568103 856.736327679886 L 581.3906247681007 857.439453183848 L 581.4140620800317 858.7265628158348 L 581.3124997121049 859.8750003198511 L 581.2698081280105 860.2663383038598 L 581.2031252480228 860.5136721918243 L 580.9296875521541 861.9199221758754 L 580.9062502400484 862.2949222399038 L 580.8203120640246 862.5761720318696 L 580.8203120640246 863.8183598078904 L 580.8515624960419 864.1699215358822 L 580.8789063680451 864.5214842879213 L 580.9062502400484 864.6757806079695 L 580.9296875521541 864.8300779518904 L 580.9843752960442 867.7597655039281 L 580.9062502400484 868.6503905278514 L 580.9296875521541 870.2714839038672 L 580.9765539840446 870.5917409278918 L 581.066405888123 871.2324218878639 L 581.1380152321071 871.3261639678967 L 581.1718748161802 871.3730467839632 L 581.195312128053 871.4804684799165 L 581.2499998721178 872.375000063912 L 581.2578129920294 873.2265625599539 L 581.1210936320713 873.7636720639421 L 581.2031252480228 874.3769528318662 L 581.2011714560795 877.2597657598089 L 581.281250304135 877.5644528639386 L 581.3046876160661 877.5996098560281 L 581.3124997121049 878.0624998398125 L 581.3168005120824 878.1327390719089 L 581.2951367680216 878.1894594559562 L 581.281250304135 878.2207027199329 L 581.2558592000278 878.7128903678968 L 581.3105469440343 878.9941401598626 L 581.4179686401039 880.8964843519498 L 581.4895892480272 881.2715171839809 L 581.523437568103 881.4589839359396 L 581.6015626240987 881.5058595839073 L 581.8203125760192 882.5839841279667 L 581.9531253760797 882.7949219839647 L 581.9531253760797 882.8886722559691 L 582.0000000000582 882.9277347838506 L 582.1249996800325 883.3749995519174 L 582.1464842240675 883.5232430078904 L 582.1464842240675 884.0839843838476 L 582.1992192000616 884.2480465918779 L 582.2265630720649 884.7285155839636 L 582.2500003840541 885.2089845758746 L 582.3593748480198 886.2441410559113 L 582.5234370560502 887.0410158078303 L 582.7968747520354 887.9082035198226 L 583.2462745601078 889.9703664639383 L 583.2499998720596 890.0320962558617 L 583.2499998720596 890.0644536318723 L 583.4687498240382 891.189452799852 L 583.7890621441766 892.3183595519513 L 583.8437498880667 892.3652341758134 L 583.8437498880667 892.5292963838438 L 584.007812096097 892.8808591358829 L 584.0605470720911 893.3964840958361 L 584.2500003840541 893.9121090559056 L 584.3046871040133 894.7792967678979 L 584.6093752320157 895.2656250879518 L 584.6406246400438 895.3984378878376 L 584.6953123840503 895.7949214720284 L 584.6328125440632 896.3535155198188 L 584.7604162561474 896.5657548798481 L 585.0117191680474 896.9902346239542 L 585.0828574721818 897.18840627186 L 585.4032947200467 898.4487935998477 L 585.4437007360393 898.95129395189 L 585.4687498240964 899.2871096319286 L 585.8203125760774 900.4824217599235 L 585.7949214720866 901.7050777598051 L 585.902344192029 902.0800778240082 L 585.9492188161239 902.1425776639953 L 585.9531253760797 902.210292735952 L 585.9531253760797 902.2441410559113 L 586.0989327360294 902.4472299519111 L 586.386718720023 902.8535152639379 L 586.386718720023 902.88867123198 L 586.3828121600673 902.9238282238366 L 586.468750336091 902.9941401598626 L 586.4921876480221 903.4628904958954 L 586.5761720320443 903.5097651199321 L 586.5761720320443 903.6269527039258 L 586.6289059840492 903.6972656638245 L 586.6562498560525 903.826171903871 L 586.6796871680417 903.9550781438593 L 586.7734456320177 904.1269678078243 L 586.8183592960122 904.2128906239523 L 586.998392832058 904.387117055885 L 587.4102394881193 905.8579978239723 L 587.4648432640242 906.4199219199363 L 587.5996098561445 906.6542970878654 L 587.624999936088 907.193359359866 L 587.6536453120643 907.2714844158036 L 587.7070315520396 907.4277345279697 L 587.8437498880667 907.6386723839678 L 587.8964848640608 907.9902341119596 L 588.1794775041053 908.4301199360052 L 588.3437496320694 908.7773439999437 L 588.3744747520541 908.8533032959676 L 588.4101560320123 908.9511720959563 L 588.4902348800097 909.3964840960107 L 588.6171873280546 909.4628904958372 L 588.6948464640882 909.4990335999173 L 589.6718745600665 911.5273441278841 L 589.6230471680174 911.6738283518935 L 589.8105466880952 912.9628907519509 L 590.0234373120475 913.4082027519471 L 590.5917972480529 913.9941406719736 L 590.6718750720611 914.4628910078318 L 590.8359372800915 914.7207034878666 L 590.8359372800915 914.8847656958969 L 590.9140623360872 915.0488279039273 L 591.2079677440342 915.2716697598808 L 591.2499998720596 915.3749995519174 L 591.5234375680448 915.9453122559935 L 591.5371089920518 916.2480465918197 L 591.57292236801 916.3574405119871 L 591.6406251520966 916.5761720319861 L 591.8339840000845 916.7636715519475 L 591.8339840000845 916.9277347838506 L 592.0761722880998 917.1621089278487 L 592.2382817280595 917.7011722238385 L 592.3984373760177 918.00585932791 L 592.5078128640889 918.2402344958391 L 592.8203120640246 918.8964843518334 L 592.8574218240101 918.9667973119649 L 593.0625003520399 919.1582033919403 L 593.4375004160684 919.9433594878064 L 593.4765629441245 920.1191403518897 L 593.6041451520287 920.4003409918514 L 593.8554685440613 920.9628907519509 L 593.9355463680695 921.3378908159793 L 594.1777346560848 921.7597655038699 L 594.2031247360283 921.9707033598097 L 594.4218746881234 922.3457034238381 L 594.6875002880697 922.6738278398989 L 594.7447920640116 922.8300779518904 L 594.7714846720337 922.908203007828 L 594.8515624961001 923.3300776958931 L 594.9335941120517 923.3535160319298 L 594.9609379840549 923.5175782399601 L 594.9882808320108 923.5644528638222 L 595.203125248081 924.1738280959544 L 595.4179686400457 924.5722654719139 L 595.579493376019 924.7402045438648 L 595.7499996161205 924.9218754558824 L 595.8750003200257 925.187500031956 L 596.2265620480757 925.6992184318369 L 596.2265620480757 925.8183598079486 L 596.4433592321002 926.1230469119037 L 596.6328125440632 926.7558594559669 L 597.1171870721155 927.2480471039307 L 597.3046876160661 927.5761715199915 L 597.4667970560258 927.974608895951 L 597.5025981440558 928.1308313598274 L 597.5703121920233 928.4433592319838 L 597.8437498881249 928.7246090239496 L 597.9375001600129 928.9238282238948 L 598.0000000001164 929.0625003519235 L 598.0226908160839 929.0939740159665 L 598.1152348160977 929.2871096318122 L 598.4374999040156 929.7128908799496 L 598.5996093440917 930.111328255909 L 599.1093749761349 930.6015621119295 L 599.7656248320709 931.5117189118173 L 600.0546877440647 931.9863285758183 L 600.109375488013 932.2207027198165 L 600.2421872640261 932.3144529918209 L 600.5677649920108 932.7754711039015 L 601.2148439040175 933.6972656639409 L 601.4570311680436 934.0019527678378 L 601.5937495040707 934.2363279359997 L 602.1562501120497 934.8730470399023 L 602.6718750720611 935.5058595839655 L 603.3730467840214 936.2792970239534 L 604.5585940480814 937.4980464639375 L 604.6231162880431 937.5724441598868 L 606.5859379200265 939.9199221759336 L 606.6328125440632 940.009765887924 L 607.171874816122 940.6425784318126 L 607.335937024036 941.0175784960156 L 607.8476564480225 941.650391039846 L 609.0585937920841 942.919921663939 L 609.8125004800386 943.716796415858 L 609.8437498880667 943.7988280318095 L 609.8671872001141 943.85742233583 L 610.0234373120475 943.904296959925 L 610.0624998401036 943.927734271856 L 610.2187499520369 944.0449218560243 L 610.4003328000545 944.1300387839437 L 610.8742912001326 944.3522068478633 L 611.3017221120535 944.5860843519331 L 611.4366474240087 944.7140167679754 L 611.4375004160102 944.7148441598401 L 611.5683594240109 945.1230463999091 L 611.6223907840322 945.1777290239697 L 611.726562304073 945.2871096318122 L 611.7304688640288 945.2871096318122 L 612.2343751681619 945.1718748159474 L 612.8886722560273 945.4785157118458 L 612.9453127680463 945.4863278078265 L 613.9818731520791 946.0525813759305 L 614.0468746241531 946.1816401918768 L 614.2109378561145 946.4121098238393 L 614.7110440960969 947.2384583679377 L 615.2030023680418 948.0520806398708 L 615.5156254720641 948.5703127040179 L 615.529296896013 948.6191411198233 L 615.5625000960426 948.6484377598972 L 615.5937495040125 948.7011717119021 L 615.7421875200234 949.1582033918821 L 615.9882813440636 949.4902343679569 L 616.9589841921115 950.3339847678435 L 617.3886720000883 950.8027340800036 L 618.3593748480198 951.5761715199333 L 620.6777344000293 953.2910151679534 L 622.3750000640284 954.2753904639394 L 623.3281249281135 954.8808591358247 L 624.0468746240367 955.3300776958931 L 624.9374996480183 955.7324216318666 L 626.3652341760462 956.4355471358285 L 626.8789063680451 956.7871088638203 L 627.9531253760797 957.2460933118709 L 628.3437496320112 957.47460915189 L 628.4433592321584 957.5605473278556 L 629.6835942401085 958.3613276159158 L 630.65429708804 959.1113277439727 L 631.3808588801185 959.4863278079429 L 631.4609377281158 959.6269527038676 L 631.8125004800968 959.720702975872 L 635.3417973760515 962.0917964798864 L 635.6132812800352 962.3027343358845 L 639.5839846400777 964.9785159679013 L 639.9140628480236 965.0566410238389 L 639.9179683840484 965.0566410238389 L 639.9179683840484 964.7852001278661 L 639.9218749441206 964.5136721919407 L 639.9218749441206 964.1425776638789 L 637.9693496320979 962.8630435839877 L 639.94902937609 962.0825794559787 L 640.0076912640361 962.0878796798643 L 640.6250004480826 964.1249996798579 L 643.7343754240428 964.4921876479057 L 643.7578127360903 964.5996093438589 L 644.3281254400499 965.0332026878023 L 644.5039063040749 965.2714844158036 L 644.6953123841668 965.3964840959525 L 644.9309952001204 965.1043153918581 L 646.4374999040738 966.0253911038744 L 646.8671877120505 965.7675786240143 L 647.1247400961001 965.6153876479366 L 647.2968744960381 965.6308592638816 L 647.4518425601418 965.5843696638476 L 647.7421875200816 965.6269527038094 L 648.0390625280561 965.5214848000323 L 648.8984371200786 965.365234687808 L 649.1250001920853 965.214843903901 L 649.8013081600657 965.1604244479677 L 650.5644533761078 965.1777341439156 L 651.1503902720287 965.1152343039284 L 651.3515622400446 965.0390620159451 L 652.6250004480826 964.9374996479019 L 654.5781248000567 965.5390627838206 L 654.9062502401066 965.7363281919388 L 655.2343746560509 965.9003903999692 L 655.5996098560863 965.9746088958345 L 656.0136714240653 966.0175779839628 L 657.1328122880659 966.1152348158648 L 658.3750000640866 966.3925780479331 L 658.9101557760732 966.4355471358867 L 659.5996098560863 966.5488281598082 L 660.3750000640284 966.6660157439183 L 661.734375424101 967.0019532798906 L 663.9296870401013 967.5761715199333 L 665.1484375040745 967.9394529279089 L 665.7421875200234 968.1191403518314 L 666.9453127680463 968.2753904638812 L 668.5527347201714 968.6113280000282 L 669.019531264028 968.744140799914 L 670.4140625920263 968.6464839678374 L 670.4770805760636 968.6435307519278 L 671.019534336112 968.6720808958635 L 671.4765629440662 968.744140799914 L 673.6796876800945 968.818359295954 L 679.730468864087 968.8925777918193 L 684.8281251841108 969.0019532799488 L 686.4492185600102 969.1113277439727 L 686.9531248640269 969.0800783358864 L 687.4140620800899 968.9121095679584 L 687.8066401280812 968.7285155839636 L 688.0546877440647 968.6835937279975 L 689.9354890240356 969.1278131199651 L 689.9453122560517 969.2714844158618 L 689.812500480155 969.5878901758697 L 689.9375001601293 970.259765247989 L 689.8867189760203 970.4121098238393 L 690.0078120960388 970.4394526719116 L 690.4062504961039 970.3183595518349 L 690.2433259521495 969.1560089598643 L 692.6093752320157 967.8222653439152 L 693.3828126720618 967.7558589439141 L 695.9609374721185 967.0839838719694 L 696.3378903041012 967.0058598399628 L 697.0781245440594 966.9394534399034 L 697.6093747200794 966.6542970878654 L 698.2285158400191 966.5019535358879 L 699.2812503040768 966.2246092798887 L 699.8515630081529 966.0605470718583 L 699.91406284814 966.0410152958939 L 700.0315156481229 966.0256092159543 L 700.1367183360271 966.1152348158648 L 700.1406248960411 966.1152348158648 L 700.7734374400461 965.9472660479369 L 701.1171870721155 965.9003903999692 L 702.0999741440173 965.892590591975 L 702.8906250240398 965.9199221759336 L 706.6699223040487 966.7363276799442 L 706.9277347840252 966.8105471999152 L 707.1484375040163 966.8847656959551 L 708.5507809280534 967.4003906558501 L 709.3263503360213 967.365315583942 L 709.6542965760455 967.5136716799461 L 709.9921879040194 967.4726563838194 L 710.4374999040156 967.5507814399316 L 713.3085941760219 968.08007782395 L 713.9980472320458 968.1933598718024 L 714.6328125440632 968.2949222398456 L 717.6015626240405 968.9394534399617 L 727.2890624000574 971.1582033918239 L 729.8571765761008 971.734756351856 L 736.3515627520392 973.4941409280291 L 736.4218746881234 973.5878901759279 L 736.609375232074 973.8769530878635 L 736.7664363520453 974.11459379195 L 737.6406251520966 979.7382809599512 L 736.8825907200226 974.1806499839877 L 737.916015616036 973.4121093118447 L 738.9408194560674 972.6875002879533 L 747.5530577920727 972.6875002879533 L 747.635206144012 972.6927626238903 L 747.8251960321213 972.7915919360239 L 751.6292116480763 974.8406046719174 L 754.8983367680921 974.3170467838063 L 756.541082624055 974.0399615998613 L 757.1623557120329 973.9375001599547 L 757.6874997760169 973.9375001599547 L 758.8454103040858 974.2269777918118 L 760.8663705600193 974.8311828479636 L 763.3035100160632 975.6600043519284 L 772.8315176960314 981.4953379838262 L 773.0561423361651 981.5144652798772 L 773.2218490880332 981.5321047038888 L 776.8124999681022 981.9375001599547 L 776.8755210240488 981.9333672959474 L 777.9667968000285 982.1660159999155 L 780.2753904640558 982.6542970878654 L 780.2895441920264 982.4963747838046 L 780.3125002240413 982.4999997439445 L 780.3125002240413 981.8027345919982 L 780.156250112108 981.8085939199082 L 780.1101445120294 981.7212610559654 L 780.5234370561084 981.6953128958121 L 780.6250004480244 981.6874997759005 L 781.2777297920547 981.981228032033 L 781.2695500800619 982.0428718079347 L 781.2578129920294 982.101562367985 L 781.2615505921422 982.1031639039284 L 781.1640627200832 982.8378910718602 L 784.0781250561122 983.4199214078835 L 784.7148441600148 983.662109695957 L 787.4631393280579 984.9582530559273 L 788.5411819521105 985.4156615679385 L 795.5351562240976 988.4902348799515 L 797.3105469440925 988.9746094078291 L 798.1872650240548 989.1209615359548 L 799.8125004800386 989.6113285119645 L 799.8710937601281 989.8964848638279 L 801.2070307841641 990.3574220799492 L 807.4355435520993 992.4998748159269 L 809.3749995520338 993.1875000320142 L 809.554203648062 993.2108738559182 L 810.7246090241242 993.4824222718598 L 816.460937216063 994.916016127856 L 824.0371097600437 997.0644531198195 L 828.4414064640878 998.0878909438034 L 833.3344972801278 999.0866411518655 L 835.0638049280387 999.580729343812 L 838.8867184640258 1000.8535152639379 L 839.3984378880123 1000.9550776319229 L 840.011718656111 1000.9550776319229 L 840.0499773440533 1000.9474990079761 L 842.8311009280151 1001.0645985279116 L 843.3906247681007 1001.162108927907 L 843.463193600066 1001.1513886718312 L 843.5625000960426 1001.1875000320142 L 844.9903575041099 1001.1875000320142 L 845.3378908160375 1001.263672319823 L 845.7460940800956 1001.3222655999707 L 846.4687503360328 1001.5136716799461 L 847.1367188480799 1001.619140607887 L 847.5683594240691 1001.7714841598063 L 848.3085936640855 1001.8769530879217 L 849.2285153280827 1001.9550781440339 L 849.3671004161006 1001.9704668158083 L 849.5000002560555 1001.9999999998254 L 849.6384389120503 1001.9999999998254 L 850.0332032000879 1002.0410152959521 L 850.359374848078 1002.0917964798864 L 851.4082027520635 1002.1503907839069 L 852.0957030400168 1002.1855467518908 L 852.3593748480198 1002.2402344958973 L 853.0957035520114 1002.3300782078295 L 853.8320312320138 1002.4160153599805 L 854.6015621121041 1002.5175777279655 L 855.366062080022 1002.5602662398596 L 855.624999936088 1002.6250004478497 L 856.6875002880697 1002.6250004478497 L 856.8211087360396 1002.5581957118702 L 857.1425781760481 1002.4785151999677 L 857.1903334400267 1002.4638812158955 L 858.4559452160611 1002.2830786559498 L 858.626953216095 1002.5058590719127 L 858.798828544037 1002.5878906879225 L 858.898317312065 1002.5858181118965 L 858.9374996481347 1002.6250004478497 L 859.0027857921086 1002.5814763518865 L 859.1914065920282 1002.5527347198804 L 859.33984358405 1002.4277340160334 L 859.3674782720627 1002.3844792319578 L 862.3628052480635 1002.9009151999489 L 862.8124999681604 1003.0000005118782 L 862.8501780480146 1002.990004223946 L 862.8894156800816 1002.9917102079489 L 862.9374996481347 1003.0000005118782 L 863.0800926720258 1003.0000005118782 L 865.3710940161254 1003.0996090879198 L 865.8818979840144 1002.18970316794 L 868.5464463360258 1003.0408785918262 L 869.2988282880397 1003.5175782399019 L 869.7187502081506 1003.544922111847 L 870.6308597760508 1003.7207029759302 L 871.5527342081186 1003.8222653439734 L 872.4746096640592 1003.7207029759302 L 874.2148433920811 1003.7207029759302 L 875.8535157760489 1003.8222653439734 L 877.5937495040125 1003.8222653439734 L 878.2615552000352 1003.701898239844 L 879.1349514240865 1003.6379914239515 L 880.0527339520631 1003.7207029759302 L 881.7901158400346 1003.6249999358552 L 881.8750003200839 1003.6249999358552 L 882.7020113921026 1003.4382387198857 L 884.0011100160773 1003.5042938879342 L 884.4550778880948 1003.619140607887 L 885.33984358405 1003.619140607887 L 885.374999552092 1003.6249999358552 L 888.1249996800325 1003.6249999358552 L 888.3027261440293 1003.5953786878381 L 889.2739819521667 1003.5074744318845 L 890.9999994881218 1003.4375004158937 L 892.4339650561451 1003.4375004158937 L 892.644531200116 1003.4433597438037 L 895.3789061120478 1003.0214840318658 L 895.391800320067 1002.8711976959603 L 895.562500096159 1001.5625000958098 L 899.1829729280435 1000.2407403518446 L 899.712890880066 1000.2402344958391 L 900.1103605760145 999.9752550398116 L 900.1841254400206 1000.0004904959351 L 900.1972285441007 1000.0049735679058 L 900.2008023040253 999.942440959916 L 902.1765068800887 1000.6762741758721 L 902.3186933760298 1000.7304755199002 L 902.3750000640284 1001.4667970559094 L 906.2675783680752 1001.263672319823 L 906.3880673280219 1000.8216207359219 L 906.5624995841063 1000.3593748478452 L 906.5156249600113 1000.3632814079174 L 906.5349928960786 1000.2825809918577 L 906.5662566400133 1000.1678807038697 L 906.8781916160951 1000.1173678079504 L 906.9451888640178 1000.1038305279217 L 906.9062502400484 1000.2031247358536 L 907.0625003521563 1000.1249996799161 L 907.5625000960426 999.7499996159459 L 908.0000000000582 997.5000002559391 L 908.4192675841041 996.4518318079645 L 908.5195315200253 996.5527347199386 L 911.2967598080868 995.9065384958521 L 912.0624998400453 995.8125004799222 L 914.2323066880344 995.6896808958263 L 915.218405376072 995.6384460799745 L 915.2834344960866 995.6370268158498 L 918.0449218560825 995.654296575929 L 918.1318154240143 995.6229550079443 L 919.374999552092 995.2499998718267 L 922.3747543040663 994.9700229118462 L 924.0648243200267 994.846847999841 L 924.6992189440643 995.3222656000289 L 925.0016204801505 994.8416419840069 L 925.1171870720573 994.6914058238035 L 925.136024576088 994.6763366398518 L 926.1701160961529 994.400289791869 L 927.0546872321283 994.3027343358845 L 928.7968747520354 993.6855470078881 L 929.6840488961316 993.389822975907 L 930.8944906240795 993.5810713599203 L 932.180218880123 993.8005862399004 L 932.2162493441137 993.8299842558336 L 933.916015616036 995.630859263998 L 935.1425781760481 995.9082035198226 L 935.470703616098 995.9863285759347 L 936.693579776038 996.0097966078902 L 937.0625003520981 996.0624998398707 L 937.6328120320686 996.0624998398707 L 937.0937497601262 996.0175779838464 L 938.3203123200219 996.0410152960103 L 939.5546880001202 997.3417973758187 L 939.5997245440376 997.2259880959755 L 939.6249999360298 997.2499998718849 L 940.1249996800907 996.0624998398707 L 940.8749998080311 995.4375004158937 L 941.0176552960183 995.2573030398926 L 944.4628910081228 991.0253905918216 L 948.1503907840233 992.0488284158055 L 948.759178240085 991.3033215999603 L 948.9374996480183 991.1250001919689 L 955.0137210880639 990.5292922879453 L 956.8554690560559 990.4082032638835 L 958.9025546240737 989.2009021439007 L 959.1354286080459 989.087792127917 L 960.355468288064 989.4238279678975 L 960.9511720961309 989.5917967360001 L 963.5014574080706 988.8759275519405 L 963.6131184640108 988.9469839359517 L 964.6040156160598 989.6695132159512 L 964.6250004480826 989.6874997759005 L 964.6279280640301 989.6869488638476 L 964.636719104019 989.6933591038105 L 969.9121090561384 988.7753902079421 L 972.6699223040487 988.3535155198188 L 973.9746088961256 988.3535155198188 L 975.7714841600973 988.0722657278529 L 979.6132812800352 988.169921535824 L 982.3183595520095 989.1269529598067 L 983.3027348480537 989.6972656638827 L 983.7949214720284 989.9980472318712 L 984.0976558080874 990.3027343359427 L 984.6835937280557 991.2636723199976 L 985.0996090880362 991.7089843198191 L 985.3261721600429 991.9472660479951 L 985.8183598081232 991.9589847038733 L 986.8610129920417 991.7128191998345 L 987.5625000961008 991.5625000959844 L 988.6875002880115 991.5625000959844 L 988.7284469760489 991.542026239913 L 989.1113277440891 991.5566407678416 L 989.1113277440891 991.3505853438983 L 989.1875000320142 991.3124997119303 L 989.1875000320142 990.7500001279404 L 989.0199756801594 989.9682211838663 L 991.6718745601247 989.1816407039878 L 991.8122168320115 986.0135321599664 L 992.0624998400453 981.9375001599547 L 992.0624998400453 980.3636070398497 L 992.0800778240664 979.9667967999703 L 992.1145548800123 979.4759127040161 L 992.2500003841124 978.437499903841 L 992.562499584048 974.1249996799161 L 992.562499584048 971.1418613758287 L 992.5917972481111 969.9316408319282 L 995.2499998720596 969.8263265279238 L 995.2499998720596 977.9999999998254 L 995.2558315520873 978.0038103038678 L 995.255859200086 978.1230469119037 L 1001.5019530240097 982.2167971838498 L 1005.4960936961579 985.7011722238385 L 1007.1388129281113 985.094222847838 L 1007.5000002560555 985.0000005118782 L 1007.5968675840995 984.9515663359198 L 1007.9531253760215 984.8808591359411 L 1008.3632814080338 985.4941409279127 L 1010.6152345601004 984.2675783678424 L 1011.0253905921127 984.8808591359411 L 1011.435546624125 985.0839838719694 L 1011.5839846400195 985.0292971518938 L 1015.7363281920552 983.4472652798868 L 1021.4707036160398 981.4003906559665 L 1023.8261719040456 980.2714839038672 L 1024.0 980.191492170834" fill="none"/><path stroke="#000000" stroke-width="2" d="M 528.8749998080311 671.8750003199093 L 520.0000000000582 675.1250001919689 L 519.973634048074 675.1463987198658 L 519.7492295680568 675.2280002559419 L 515.6005928961094 678.5469102080096 L 513.0625003520399 680.1074216958368 L 511.37499955209205 681.0625003519235 L 511.05468723207014 681.3437501439475 L 510.2073651200626 681.8658191359136 L 508.30433894402813 683.7688453118317 L 507.6874997760169 684.3125002238085 L 506.428632064024 684.6773893118952 L 504.3992739840178 685.1847290879814 L 504.0143964160816 685.3771673598676 L 503.37499955203384 685.5625000958098 L 500.25000038411235 687.1875000318396 L 493.05468723201193 693.3261721598101 L 486.9749985280214 698.4603668479249 L 483.24001280002994 702.4621373438858 L 481.1875000320142 704.625000447908 L 476.6875002881279 708.6875002880115 L 474.4062504961039 710.6289059838164 L 472.0398684160318 712.5657466878183 L 467.8912696320331 714.2251857919618 L 462.914062336029 716.2988277759287 L 461.2662138880114 716.5053409278044 L 459.68749977607513 716.6875002880115 L 456.76546048006276 716.4000860158703 L 455.8593751040171 716.2988277759287 L 455.5859374080319 716.1621094399015 L 452.6250004480826 714.6250004479662 L 450.61912678409135 713.9192299518618 L 449.22240409604274 713.3954590719077 L 446.7332218880765 714.6400501758326 L 447.1480852480163 716.7143679998699 L 448.8244910080102 719.8276925438549 L 449.6145920000272 721.6206141439616 L 450.2343751681037 723.0332026878023 L 450.24114483210724 723.052665855852 L 450.24611942406045 723.0775367679307 L 449.24999987205956 726.9374996479601 L 437.24999987205956 737.8125004799222 L 437.2153077761759 737.8509424639051 L 437.2010219520889 737.8637506559025 L 437.1875000320724 737.8730465279077 L 432.62500044802437 742.8496097279713 L 429.9921879040776 748.4472657918814 L 426.0000000001746 756.8124999679276 L 425.38281267206185 759.2207032319275 L 424.3281254401081 763.179687935859 L 424.3281254401081 771.0625003519235 L 425.34590361610753 774.1074739198084 L 425.9900375040597 776.039874560025 L 426.25000038405415 776.6777343998547 L 428.87499980803113 783.0625003518071 L 428.89062502403976 783.0898442238104 L 431.40448972804006 786.997634047817 L 432.62500044802437 788.9003909119638 L 438.43594854406547 792.2195578879328 L 438.85081190406345 796.7830589439254 L 435.5312496640836 801.3457029119018 L 435.0312499200227 803.3378908159211 L 434.6875002880115 804.5624995838152 L 433.43750041601015 808.2500003838213 L 427.8094663681113 811.2233000958222 L 426.81976524804486 811.7181511679082 L 420.5968097281293 810.8884234239231 L 420.5937500160653 810.8886722558527 L 419.6720660480205 811.5037777919206 L 419.56250009604264 811.5000002558809 L 418.89073561603436 811.8827499519684 L 418.8583034880576 811.847818239883 L 416.92103065602714 813.009411071951 L 415.6249999360298 813.7499996158876 L 415.24790988804307 814.9972991999239 L 413.9589847040479 819.1855472639436 L 415.61718784004916 827.8964848639444 L 419.7656248320127 834.9511720958399 L 427.23437465610914 842.0019527678378 L 427.26995763211744 842.0220671998104 L 427.3124997121049 842.0624998399289 L 434.2118420480401 845.9462348798988 L 436.75000012805685 847.3828126719454 L 436.7552686080453 847.3840046078549 L 436.7646341120126 847.38929868798 L 449.638672384026 850.2988277759287 L 467.06250035203993 851.9589847038733 L 474.9453127680463 850.2988277759287 L 486.97656217607437 850.2988277759287 L 495.2734371840488 849.4707036159234 L 508.5488281600992 849.0566410238389 L 517.2597657600418 847.3964840958943 L 529.6968478721101 844.4952145918505 L 540.9082030080608 838.6816409598105 L 548.9411573760444 833.4425436159363 L 550.4999997440609 832.4374999039574 L 554.6875002880115 829.1250001919107 L 556.2500003840541 825.0625003518071 L 558.7841392640257 819.5615641599288 L 564.1406248960993 814.2050785279716 L 564.4999997441773 813.7558589439723 L 565.0625003520399 813.1875000318978 L 567.7187502080342 809.6914063358563 L 568.8603893760592 808.2348031999427 L 570.363281408092 806.3222661119071 L 575.343750144064 803.0058598398464 L 575.3749995520338 802.9414062078577 L 583.6874997760751 784.2500003838213 L 583.6874997760751 775.0625003518071 L 584.4999997440609 771.8125004799222 L 585.7499996160623 762.3750000638538 L 589.1987394560128 758.2104842240224 L 592.3515627520392 754.4667965439148 L 596.8913059840561 750.2739875838743 L 597.8125004800386 749.4375004160102 L 606.6250004480826 744.9374996480183 L 610.1874995200778 742.3125002238085 L 613.0468751360895 736.4121098238393 L 613.0625003520399 736.3750000638538 L 612.5781248000567 731.746094079921 L 612.5753528320929 731.7471027199063 L 612.5751521280617 731.7452001279453 L 612.3217100800248 731.839335423836 L 612.281249792024 731.5996098559117 L 611.8515630080365 729.1582033918239 L 608.1249996800325 727.9375001598382 L 603.1250001920853 727.9375001598382 L 602.3750000640284 727.6796876798035 L 597.7441402880359 726.2558597119641 L 591.9375001600129 722.107421695895 L 587.3749995520338 721.2753909759922 L 584.8828129281173 719.619140607887 L 584.8828129281173 717.1269529598649 L 587.3749995520338 715.0527344639413 L 592.3515627520392 711.7363281918806 L 593.4062499841093 710.4726558718248 L 594.4374999040156 709.1250001919689 L 597.3124997121631 705.2499998718849 L 595.3300398081192 702.6667939838953 L 595.2578129920294 702.6074214399559 L 591.6171878400492 698.9687500799191 L 589.4375004160684 696.8124999678694 L 582.4374999040156 694.8124999678694 L 580.8006307840114 693.1313909759047 L 577.8300784640596 690.1621094399015 L 571.6085073920549 691.407985664031 L 568.2890629121102 690.5761720319279 L 557.7140736000729 685.9956684798235 L 555.8125004800386 685.1875000318396 L 545.0625003520981 681.8750003199675 L 544.7995770881535 681.6010301439092 L 537.6015626240405 674.2050785279716 L 537.5508736001211 674.3180718079675 L 537.5063459840603 674.4123320318758 L 535.0326108161244 671.4909777919529 L 537.4921871360857 673.7851566078025 L 536.0390625281725 672.4296878078603 L 536.0315228161053 672.421613567858 L 536.0407828480238 672.4302561278455 L 534.9374996480765 671.2499998718849 L 534.8368926721159 671.2596735998522 L 534.6875002880115 671.0800783358864 L 534.6843217920396 671.0793635838199 L 529.7367470080499 671.7861601278419 L 528.8749998080311 671.8750003199093" fill="none"/><path stroke="#000000" stroke-width="2" d="M 635.2416299149918 0.0 L 634.3671879680478 0.0644536319305189 L 633.554688000062 0.08984371193218976 L 630.5859379200265 0.08984371193218976 L 628.5156249600113 0.1249996799742803 L 585.3124997120467 0.1249996799742803 L 578.3515627520392 0.2949222399620339 L 570.9843752960442 0.2949222399620339 L 570.3671879680478 0.31250022392487153 L 556.4062504960457 0.31250022392487153 L 556.0390625280561 0.2949201919254847 L 555.3984378880123 0.31250022392487153 L 544.078125056054 0.31250022392487153 L 543.5390627840534 0.2949222399620339 L 526.0312504320173 0.2949222399620339 L 523.2265625600121 0.27539046393940225 L 511.6874997760169 0.1249996799742803 L 498.5937500160653 0.1249996799742803 L 495.92968704004306 0.08984371193218976 L 492.914062336029 0.1249996799742803 L 487.1250001920271 0.1249996799742803 L 481.7734379520407 0.2714839039254002 L 480.15625011204975 0.2949222399620339 L 471.554688000062 0.2949222399620339 L 469.7187502080342 0.0957030399586074 L 468.9053939272999 0.0" fill="none"/><path stroke="#000000" stroke-width="2" d="M 460.95168871997157 0.0 L 460.84375040006125 0.03515596792567521 L 459.9843747840496 0.2949222399620339 L 450.66406297602225 0.2949222399620339 L 443.1875000320142 0.3007815679302439 L 439.9062497280538 0.2949222399620339 L 425.9843747840496 0.2949222399620339 L 421.6874997760169 0.396484607947059 L 415.0312499200227 0.396484607947059 L 400.39062528003706 0.49999974394449964 L 335.05468723201193 0.49999974394449964 L 314.47656243201345 0.6015621119295247 L 295.2265625600121 0.6015621119295247 L 288.2578124800348 0.7050782719743438 L 271.7734379520407 0.8066406399593689 L 268.39062528003706 0.8066406399593689 L 255.89843763201497 0.7050782719743438 L 252.82812518405262 0.7050782719743438 L 247.39843788801227 0.396484607947059 L 239.61718784004916 0.6015621119295247 L 232.8593745920225 0.6015621119295247 L 229.89062451204518 0.49999974394449964 L 225.59374950401252 0.49999974394449964 L 221.4921871360275 0.6015621119295247 L 182.89062502403976 0.6015621119295247 L 177.7734379520407 1.113281535974238 L 174.9062502400484 0.7050782719743438 L 132.812499968044 0.7050782719743438 L 129.1542179840617 0.5181419519358315 L 126.77343744004611 0.396484607947059 L 105.27343718404882 0.396484607947059 L 91.34375014406396 0.49999974394449964 L 73.93750016001286 0.49999974394449964 L 63.79687526402995 0.7050782719743438 L 56.734374912048224 0.7050782719743438 L 49.460937728057615 0.8066406399593689 L 44.4453120000544 0.8066406399593689 L 30.10937548801303 0.9082030079443939 L 19.96874956804095 0.9082030079443939 L 8.093750272062607 1.0117191679310054 L 0.9218754560570233 1.0117191679310054 L 0.0 1.0286701795448607" fill="none"/><path stroke="#408040" stroke-width="3" d="M 505.93189544930647 0.0 L 501.9238400000031 19.73247999999876 L 500.9203200000047 23.183359999999084 L 499.37407999999414 26.767360000001645 L 494.41792000000714 37.130239999998594 L 491.4585599999991 43.28447999999844 L 488.8883199999982 48.824319999999716 L 487.92575999999826 51.66080000000147 L 487.0656000000017 55.9923200000012 L 486.8710399999982 58.68544000000111 L 486.8710399999982 65.3004800000017 L 486.8915200000047 78.85824000000139 L 486.7993600000045 89.62048000000141 L 481.9046399999934 114.58559999999852 L 478.75071999999636 130.79551999999967 L 477.96223999999347 136.9292800000003 L 477.9520000000048 145.15199999999822 L 477.7779199999932 158.1977599999991 L 477.98272 173.46559999999954 L 478.01343999999517 190.34112000000096 L 477.8598400000046 206.29504000000088 L 478.0748800000001 220.2009599999983 L 478.156799999997 252.50816000000123 L 478.0236799999984 268.0012800000004 L 478.2796800000069 287.8361599999989 L 478.37184000000707 320.3276799999985 L 478.392319999999 336.2713599999988 L 478.4435200000007 345.1801599999999 L 478.8940799999982 348.72320000000036 L 479.764479999998 352.122879999999 L 482.2118400000036 358.6150400000006 L 484.88447999999335 365.51680000000124 L 490.3628800000006 379.6684800000003 L 501.12511999999697 407.47007999999914 L 504.07424000000174 415.109120000001 L 506.74688000000606 423.04511999999886 L 507.2691199999972 426.7520000000004 L 507.36127999999735 430.02880000000005 L 507.44319999999425 437.77024000000165 L 507.59679999999935 452.17791999999827 L 508.01664000000164 495.48287999999957 L 508.1600000000035 511.34463999999934 L 508.49791999999434 512.7782399999996 L 509.5935999999929 514.5600000000013 L 511.88735999999335 517.8163200000017 L 515.860480000003 523.4585599999991 L 521.0521600000066 530.8211200000005 L 540.9075199999934 558.9401599999983 L 551.5571199999977 574.0851199999997 L 557.639679999993 582.7174400000004 L 563.6607999999978 591.1449600000014 L 567.7158400000044 593.899519999999 L 576.8089599999948 599.5622399999993 L 578.6214400000026 601.0368000000017 L 579.7068799999979 602.5420799999993 L 581.0380799999984 606.7814399999988 L 583.5776000000042 618.0966399999998 L 586.9772800000064 630.2515200000016 L 601.4873599999992 678.3078400000013 L 609.4950399999943 717.3529600000002 L 614.1542400000035 740.22912 L 615.6288000000059 747.9398399999991 L 615.6595200000011 750.7353599999988 L 615.075840000005 754.0428800000009 L 611.8399999999965 762.7673600000016 L 607.5391999999993 774.1337600000006 L 597.8419200000062 799.8873600000006 L 595.8348799999949 804.2086400000007 L 593.5718400000042 807.2806400000009 L 584.4377600000007 817.4694400000008 L 576.296960000007 826.5728000000017 L 573.317120000007 829.9417600000015 L 571.5353599999944 832.6553600000007 L 569.1187199999986 838.891520000001 L 567.3062400000053 844.01152 L 566.8556799999933 847.8208000000013 L 567.1526400000002 856.2688000000016 L 566.7839999999997 860.1702399999995 L 565.8931199999934 863.6006400000006 L 563.2921599999972 873.5641600000017 L 562.2476800000004 877.5782399999989 L 561.6640000000043 881.5820800000001 L 562.1145600000018 885.1353600000002 L 563.3638400000054 889.344000000001 L 565.4630400000024 896.3686400000006 L 567.5007999999943 903.1782400000011 L 571.9142399999982 917.9545599999983 L 576.3686400000006 932.8537600000018 L 577.5359999999928 934.7788800000017 L 579.8502399999998 936.2841599999992 L 583.6185600000026 936.9907200000016 L 592.1791999999987 939.3561599999994 L 603.1564800000051 942.4896000000008 L 607.7747200000013 943.8310400000009 L 610.0479999999952 944.885760000001 L 622.8275200000062 953.5385600000009 L 637.6140799999994 963.5430400000005 L 663.787519999998 981.2582399999992 L 683.8169599999965 994.8262399999985 L 703.4982400000008 1008.1894399999983 L 708.9664000000048 1011.8553600000014 L 712.4992000000057 1013.7804800000013 L 716.3596799999941 1015.3881599999986 L 722.5856000000058 1017.0572800000009 L 729.4464000000007 1017.7638399999996 L 736.8908800000063 1017.4361600000011 L 761.0572799999936 1015.5315200000005 L 773.1609599999938 1014.5996799999994 L 777.0521600000066 1014.4972799999996 L 782.4281599999958 1014.8556800000006 L 803.9833599999984 1016.2483199999988 L 806.8505600000062 1016.7808000000005 L 808.9907200000016 1017.8150400000013 L 815.9232000000047 1022.0953599999993 L 819.4048000000039 1023.5391999999993 L 821.4752438356081 1024.0" fill="none"/><path stroke="#408040" stroke-width="3" d="M 0.0 701.3990400000039 L 3.522559999997611 705.24928 L 7.086079999993672 715.2128000000012 L 9.768960000001243 730.3065600000009 L 13.393920000002254 744.8575999999994 L 26.47040000000561 769.73056 L 34.232319999995525 783.6979199999987 L 48.35327999999572 802.0479999999989 L 61.48096000000078 816.6195200000002 L 79.58527999999933 826.2963200000013 L 129.17759999999544 849.3465600000018 L 180.68480000000272 863.4572799999987 L 201.05216000000655 867.2972799999989 L 233.19551999999385 873.0623999999989 L 239.55456000000413 874.9772799999992 L 275.05663999999524 885.6985600000007 L 295.37279999999737 891.8528000000006 L 317.3273599999957 897.0137600000016 L 328.2022399999987 897.9968000000008 L 415.92832000000635 905.8611200000014 L 477.02016000000003 911.47264 L 503.83871999999974 913.899519999999 L 519.8438400000014 917.8419199999989 L 557.209600000002 929.3312000000005 L 602.6649599999946 942.3564799999986 L 609.5257600000041 944.599040000001 L 620.2572800000053 951.7977600000013 L 637.317120000007 963.338240000001 L 663.3676799999957 980.9715199999991 L 702.9862399999984 1007.8412800000006 L 712.151039999997 1013.6064000000006 L 722.1145600000018 1016.9651200000008 L 736.255999999994 1017.4873599999992 L 760.8627200000046 1015.5519999999997 L 781.1071999999986 1014.77376 L 801.9456000000064 1016.1152000000002 L 808.5708799999993 1017.5590400000001 L 815.5238399999944 1021.8803200000002 L 821.6504589473625 1024.0" fill="none"/><path stroke="#408040" stroke-width="3" d="M 1024.0 994.1248416999879 L 1020.846080000003 995.7580799999996 L 1009.5103999999992 1002.0454400000017 L 1010.4729599999991 1013.1046400000014 L 986.6751999999979 1021.2454399999988 L 984.0145544987026 1024.0" fill="none"/></svg>