<svg xmlns="http://www.w3.org/2000/svg" width="1024" height="1024"><rect stroke="none" x="0" y="0" width="1024" height="1024" fill="white"/><path stroke="#000000" stroke-width="2" d="M 0.0 0.3031682000437286 L 7.687499776016921 0.3984373759594746 L 24.070312960015144 0.3984373759594746 L 31.74999961606227 0.49999974394449964 L 79.25781299202936 0.49999974394449964 L 83.86718720005592 0.3984373759594746 L 147.35937536001438 0.3984373759594746 L 151.24999987205956 0.49999974394449964 L 196.4066816000268 0.6019481599214487 L 229.39062476804247 0.5078128639725037 L 241.98778060806217 0.5255802879692055 L 271.46588160004467 0.6019481599214487 L 299.1732080640504 0.6019481599214487 L 323.2142233600607 0.6257766399648972 L 338.60937523201574 0.6562498559360392 L 352.6690816000337 0.7043481599539518 L 374.1432197120157 0.7043481599539518 L 380.84267008001916 0.7111065599601716 L 407.06250035203993 0.7617187839350663 L 413.5937495040125 0.8085934079717845 L 435.20312524802284 0.8085934079717845 L 442.75961241603363 0.7398799359216355 L 452.4427059200243 0.7395532799419016 L 479.74999961606227 0.9101557759568095 L 510.4439296000637 0.7111065599601716 L 511.79786240000976 0.7111065599601716 L 525.4140620800317 1.0117191679310054 L 544.5703127040179 0.9101557759568095 L 614.812499968044 0.9101557759568095 L 638.3671879680478 1.0117191679310054 L 652.8034816000145 0.7043481599539518 L 701.8530816000421 0.7043481599539518 L 723.1562496000552 0.636719103960786 L 733.2977766400436 0.6257766399648972 L 749.0271744000493 0.6257766399648972 L 767.4914816000382 0.7043481599539518 L 1023.4914816000382 0.7043481599539518 L 1024.0 0.7070163152893656" fill="none"/></svg>