<svg xmlns="http://www.w3.org/2000/svg" width="1024" height="1024"><rect stroke="none" x="0" y="0" width="1024" height="1024" fill="white"/><path stroke="#000000" stroke-width="2" d="M 512.6204523307388 1024.0 L 512.6171873280546 1023.9882813439472 L 512.3125002240413 1020.9140623359708 L 510.97656217601616 1016.9218754559406 L 509.0312499200227 1012.6210938879522 L 507.0859376640292 1008.9335941119352 L 505.65625036804704 1006.3750000639702 L 503.9140628480236 1003.917968383932 L 500.42968780803494 1000.027343871945 L 495.7187502080342 995.7265623039566 L 491.42187520005973 993.2656250879518 L 487.83593779202783 992.347656191967 L 480.15625011204975 990.8085934079718 L 472.5781248000567 989.7851566079189 L 467.8671872000559 989.4804684799747 L 460.9062502400484 989.3749995519756 L 457.52343756804476 989.1718748159474 L 453.02343782404205 988.2500003839377 L 449.6406251520384 987.8398433279363 L 445.64843724801904 988.0468746239203 L 439.9140628480236 986.7148441599566 L 434.9999994880636 986.6132807679242 L 431.7187502080342 987.9414067199687 L 428.6484377600136 990.7070310399286 L 427.01562470401404 993.1640627199668 L 424.65627955202945 995.4179450879456 L 422.3046871040133 996.5429688319564 L 420.0468746240367 997.1601561599527 L 414.4140625920263 997.5703121919651 L 411.2421877760207 997.9765626879525 L 407.4531246080296 997.8750003199675 L 403.14843750401633 997.6718745599501 L 397.7265623040148 997.1601561599527 L 390.3515627520392 996.1367183359689 L 384.21093785605626 994.1874995199614 L 381.1328122880077 992.550780927937 L 379.1875000320142 990.7070310399286 L 377.554688000062 988.1484369919635 L 374.89062502403976 984.5624995839316 L 372.6406246400438 981.5937495039543 L 369.8750003200257 978.6250004479662 L 367.0078126080334 975.9609374719439 L 362.4999997440609 974.2226565119345 L 359.42968729604036 976.0624998399289 L 357.38281267206185 978.8281251839362 L 355.33593702403596 982.4140625919681 L 353.2812503040186 985.9960934399278 L 349.39062476804247 989.8867189759621 L 345.8046873600106 990.5039063039585 L 342.9374996480183 989.2734371839324 L 339.7656248320127 987.1250001919689 L 337.1015628800378 985.0742190079181 L 334.9531248640269 981.9023441919708 L 332.9062502400484 976.0624998399289 L 333.42187520005973 968.4882810879499 L 333.52343756804476 965.4140620799735 L 328.60156211204594 960.4999997439445 L 326.25000038405415 957.7343754239264 L 320.51562496001134 951.285155839927 L 318.3671879680478 946.0624998399289 L 318.15625011204975 942.8867184639676 L 318.6718750720611 938.4843745279359 L 313.75781273603207 935.921874943946 L 310.1718753280584 935.5117189119337 L 305.97656268801074 935.5156254719477 L 301.46874982403824 934.2851563519216 L 299.2187504640315 930.7031255039619 L 298.9062502400484 927.7304688639706 L 299.1171870720573 924.2500003839377 L 300.0390625280561 919.746094079921 L 300.8515624960419 916.1601566719473 L 303.4140620800317 907.4570311679272 L 307.92187494406244 895.9882813439472 L 309.96874956804095 890.8671877119341 L 312.6328125440632 887.1796879359754 L 317.445312512049 882.7773439999437 L 320.4140625920263 878.3750000639702 L 323.0781245440594 872.3320309759583 L 325.32812492805533 865.0625003519235 L 328.29687500803266 860.66015641595 L 329.01562470401404 857.1796879359754 L 327.6796876800363 852.1601566719473 L 327.8906245120452 849.292968959955 L 328.71093760005897 845.0937497599516 L 329.83593779202783 842.9453127679299 L 331.9843747840496 838.1328127999441 L 332.39062528003706 834.0351559679257 L 332.39062528003706 830.1445314559387 L 331.26562508801 826.0468746239203 L 329.52343756804476 819.8007807999384 L 328.914062336029 815.7070315519231 L 330.0390625280561 812.0195307519753 L 331.6796876800363 808.1289062399301 L 332.39062528003706 805.0546872319537 L 334.1328128000605 799.5273441279423 L 333.82812467205804 794.3046871039551 L 329.6328120320104 788.1601566719473 L 324.921875456057 783.4492190719466 L 323.38281267206185 780.7890626559383 L 320.0000000000582 776.1796874239226 L 318.0546877440065 772.2890629119356 L 319.28906240005745 770.0351559679257 L 323.2812503040186 768.4999997439445 L 326.8671877120505 765.7343754239264 L 330.0390625280561 763.4804684799747 L 333.3124997120467 762.2539059199626 L 335.3671874560532 759.9999999999418 L 335.46874982403824 757.2343746559345 L 333.2109373440617 752.2187499519205 L 330.7578122240375 747.3046876159497 L 327.1718748160638 743.820312575961 L 323.1796879360336 741.3632808959228 L 318.87499980803113 739.5195310079725 L 311.5078123520361 737.0625003519235 L 304.2343751680455 735.3203128319583 L 295.7343754240428 733.8867189759621 L 288.87499980803113 732.0468746239203 L 284.1640622080304 729.4843750399305 L 281.6015626240405 725.9023441919708 L 278.3281254400499 720.167968767928 L 276.078125056054 716.0703129599569 L 275.25781299202936 713.5117189119337 L 276.5859379200265 710.9492183039547 L 280.9921873920248 707.3671874559368 L 283.445312512049 704.0898437119322 L 285.6953128960449 702.347656191967 L 288.97656217601616 700.1992191999452 L 293.78906214406015 697.3320314879529 L 296.65624985605245 695.285155839927 L 299.01562470401404 692.8242186239222 L 301.88281241600635 688.3203123199637 L 304.9531248640269 681.8710937599535 L 306.281249792024 678.8984371199622 L 307.1015628800378 674.804687871947 L 307.8203125760192 669.9921879039612 L 308.1249996800325 666.4062504959293 L 309.24999987205956 663.1289067519247 L 309.0468751360313 658.8281251839362 L 308.1249996800325 654.2226565119345 L 306.79687475203536 651.5585935359704 L 305.15624960005516 648.0781250559376 L 302.1874995200196 642.8554690559395 L 299.92968704004306 638.8593745919643 L 299.82812467205804 634.664062975964 L 297.37499955203384 629.644531711936 L 293.2734371840488 626.4726558719412 L 291.2265625600121 623.9101562879514 L 285.0859376640292 616.9492183039547 L 281.70312499202555 612.7500001279404 L 281.19531212805305 609.7812500479631 L 282.8281251840526 607.7304688639706 L 285.39062476804247 606.6054686719435 L 290.10156236804323 606.4023439359735 L 293.48437504004687 606.9140623359708 L 297.2734371840488 606.8085934079718 L 301.8750003200257 606.1953126399312 L 304.8515624960419 605.9921879039612 L 308.74218700802885 603.8398433279363 L 310.89062502403976 600.5624995839316 L 315.1875000320142 597.4921871359693 L 320.10937548801303 596.0585932799731 L 323.48437504004687 596.0585932799731 L 326.14843699202174 596.1601566719473 L 332.70312550402014 595.7499996159459 L 335.6718745600083 596.2617190399324 L 338.43749990401557 597.183593471942 L 340.6875002880115 598.1054689279408 L 343.65625036804704 598.9257809919654 L 347.0390620160615 599.9492188159493 L 349.5937495040125 600.9726566399331 L 351.546874880034 601.2812503039604 L 354.8203120640246 601.1757813759614 L 358.914062336029 600.4609372159466 L 365.26562508801 597.285155839927 L 367.61718784004916 595.5468748799758 L 373.554688000062 591.1445309439441 L 375.5078123520361 588.7890626559383 L 378.6796871680417 586.3281254399335 L 381.85157836804865 579.8788638719707 L 383.1875000320142 576.2929684479604 L 385.9453122560517 568.6132807679242 L 386.7656253440073 565.746094079921 L 386.56249958404806 562.2656245759572 L 385.84374988800846 557.6562503679306 L 390.7656253440073 550.1835939839366 L 395.16406272002496 544.550780927937 L 396.9062502400484 541.8867189759621 L 401.61718784004916 537.7929687039577 L 404.5859379200265 534.1054689279408 L 407.0468751360313 531.4453125119326 L 410.42187468800694 526.7343749119318 L 412.3671879680478 521.6132812799187 L 415.6406251520384 516.5937500159489 L 417.898437632015 513.011719167931 L 420.8671877120505 510.1445314559387 L 426.19531264004763 506.9687500799191 L 429.57031219202327 505.3320314879529 L 433.7656248320127 504.7187496959232 L 437.4531246080296 503.89843763195677 L 441.9609374720603 501.644531711936 L 445.0312499200227 498.67578163195867 L 448.21093785605626 496.3203123199637 L 449.74218752002344 494.06640639994293 L 450.0546877440065 489.7656248319545 L 450.15625011204975 485.8750003199675 L 451.5859374080319 480.1406248959247 L 464.69531238405034 471.12890675192466 L 468.9921873920248 468.4687503359746 L 479.43750041601015 463.0390620159451 L 481.1796879360336 460.7890626559383 L 485.38281267206185 459.3554687999422 L 487.01562470401404 457.5117189119337 L 486.0937502720626 455.5664066559402 L 484.0468746240367 452.4921876479639 L 481.6953128960449 450.2382817279431 L 479.64843724801904 448.8085934079718 L 478.7265628160094 446.65624985593604 L 476.4687503360328 442.66406297596404 L 474.3203123200219 439.078124543943 L 473.70312499202555 436.1093754879548 L 472.1718753280584 433.44531251193257 L 470.9453127680463 430.273437695927 L 470.42968780803494 426.7890626559383 L 470.6328125440632 423.4101565439487 L 470.6328125440632 420.85156249592546 L 470.42968780803494 418.3945308159455 L 472.78124953602673 415.7304688639706 L 474.3203123200219 413.2734371839324 L 476.4687503360328 410.5078128639725 L 478.10937548801303 407.9492188159493 L 480.2578124800348 404.8789063679287 L 482.10156236804323 402.8281251839362 L 484.56249958404806 400.57812479994027 L 487.42968729604036 399.34765670396155 L 489.57812531205127 397.4023434239207 L 489.06250035203993 395.0468751359731 L 486.71093760005897 393.30468761594966 L 483.42968729604036 390.33593753597233 L 482.0000000000582 387.16015615995275 L 480.15625011204975 384.7031255039619 L 481.0781245440594 380.097655807971 L 484.96875008003553 378.66406297596404 L 487.6328120320104 374.0546877439483 L 486.29687500803266 368.8320317439502 L 482.20312473602826 365.0429685759591 L 478.51562496001134 360.6406246399274 L 478.51562496001134 355.92968703992665 L 480.6718750720611 353.88281241594814 L 486.19531264004763 352.34765619196696 L 493.26562508801 352.34765619196696 L 497.3593753600144 349.07031244796235 L 495.4140620800317 345.5859374079737 L 490.80468787206337 345.38281267194543 L 484.96875008003553 344.15234355191933 L 480.97656217601616 341.183593471942 L 479.1328122880077 338.2148433919647 L 480.0546877440065 331.7617182719405 L 480.87499980803113 328.4882810879499 L 483.5390627840534 324.902343679918 L 487.42968729604036 321.6249999359716 L 492.4453120000544 318.9648435199633 L 499.30468761600787 316.097655807971 L 502.89062502403976 315.48046847997466 L 506.88281292805914 314.3554682879476 L 510.1640622080304 312.7187496959232 L 513.335937024036 311.38671923195943 L 516.0000000000582 309.5429683199618 L 516.812499968044 304.93359411193524 L 517.7421875200234 301.6562503679306 L 517.9453122560517 298.9960939519224 L 517.7343754240428 295.30859417596366 L 517.023437824042 291.51953100797255 L 515.0781245440594 287.21875046397327 L 512.0000000000582 284.9648435199633 L 509.2421877760207 281.9960934399278 L 507.70312499202555 278.51562495995313 L 505.0390620160615 275.9570309119299 L 501.3515622400446 274.11328102392145 L 499.5078123520361 271.75781273597386 L 501.0468751360313 268.58203135995427 L 503.60937472002115 264.5898434559349 L 505.8593751040171 259.7773434879491 L 507.28906240005745 254.8593745919643 L 507.6015626240405 250.8671877119341 L 506.98437529604416 245.44140595191857 L 506.1640622080304 241.65234380797483 L 504.83593728003325 238.06640639994293 L 504.01562521600863 236.12109414394945 L 502.47656243201345 232.74218700797064 L 500.2265620480175 227.82812467194162 L 498.38281216000905 223.83593779196963 L 496.9531248640269 220.96875007991912 L 495.3124997120467 217.69140633597272 L 494.0859371520346 213.79687526397174 L 492.9609379840549 208.6796871679253 L 491.7265623040148 205.9140628479654 L 489.9843747840496 202.84375039994484 L 488.3515627520392 198.84765593596967 L 486.4062504960457 194.9570314239245 L 484.25000038405415 191.88671897596214 L 483.5390627840534 189.12109363195486 L 486.19531264004763 187.17578137596138 L 488.7578122240375 185.33203148795292 L 490.4999997440609 182.87499980797293 L 491.42187520005973 179.59765606396832 L 490.80468787206337 175.70703155192314 L 489.06250035203993 171.19921868795063 L 487.5312496640254 167.820312575961 L 485.5859374080319 164.5429688319564 L 483.74218752002344 160.24218726396793 L 482.0000000000582 156.25000038393773 L 481.1796879360336 153.17968793597538 L 480.97656217601616 149.6953128959285 L 481.48437504004687 145.9062497279374 L 485.1718748160638 143.65625036793062 L 489.1718748160638 143.5507814399316 L 491.52343756804476 144.37109350395622 L 494.28906291205203 145.19140659197 L 496.8515624960419 144.78124953596853 L 499.4062499840511 142.62890598393278 L 502.47656243201345 140.78906265593832 L 505.2421877760207 139.66015590395546 L 508.3203123200219 136.69140582391992 L 508.7265628160094 133.92578150396002 L 508.10937548801303 131.57031219196506 L 508.3203123200219 128.9101557759568 L 507.39843788801227 126.04296908795368 L 504.42187468800694 123.78906214394374 L 501.24999987205956 121.640625151922 L 498.5859379200265 119.17968793597538 L 495.5156254720059 116.51953151996713 L 492.24218726402614 113.5507814399316 L 489.9843747840496 111.29687449592166 L 488.25000038405415 109.4531246079714 L 486.3046871040133 105.76562483195448 L 485.9921879040194 101.46484326396603 L 490.3984373760177 102.18359398393659 L 496.1328128000605 104.43749990395736 L 501.3515622400446 102.89843711996218 L 503.9140628480236 99.51953100797255 L 503.0937497600098 96.1406248959247 L 501.554688000062 93.07031244796235 L 500.2265620480175 91.01953126396984 L 498.79687475203536 89.48437503993046 L 497.15624960005516 87.84765644796425 L 495.10937497601844 86.10546892794082 L 492.75000012805685 84.16015667194733 L 490.3984373760177 82.4179691519239 L 486.5078128640307 79.75781273597386 L 482.4062504960457 77.9140628479654 L 479.546874880034 76.99218739196658 L 476.78124953602673 76.07031295995694 L 475.34375014400575 73.71484364796197 L 475.34375014400575 70.84765593596967 L 476.06249984004535 66.34374963195296 L 478.4140625920263 61.941406719968654 L 480.2578124800348 58.45703167992178 L 482.4062504960457 54.15625011193333 L 484.8671877120505 50.57421823992627 L 487.01562470401404 48.11718758393545 L 489.47656294400804 45.656250367930625 L 492.8515624960419 43.91796838393202 L 496.1328128000605 42.996093951922376 L 498.6875002880115 43.406249983934686 L 500.9453127680463 43.91796838393202 L 504.6328125440632 42.6875002879533 L 508.3203123200219 40.84375039994484 L 512.109375488013 38.89843711996218 L 514.460937216063 36.648437759955414 L 517.023437824042 33.98437478393316 L 520.1953126400476 31.32031283195829 L 522.2421872640261 29.582030847959686 L 524.9062502400484 26.917968895926606 L 528.179687424039 24.257812479918357 L 529.7187502080342 21.390624767926056 L 530.7421870080288 19.44531251193257 L 533.5078123520361 17.496093695925083 L 536.8828129280591 15.757812735973857 L 539.9609374720603 13.503905791963916 L 542.5156249600113 10.738281471945811 L 544.3593748480198 7.769531391968485 L 546.7187496960396 6.746093567926437 L 549.9921879040194 6.746093567926437 L 553.2734371840488 5.722655743942596 L 554.8046878720634 2.136718335968908 L 553.4053094636038 0.0" fill="none"/><path stroke="#000000" stroke-width="2" d="M 553.4053094636038 0.0 L 554.8046878720634 2.136718335968908 L 553.2734371840488 5.722655743942596 L 549.9921879040194 6.746093567926437 L 546.7187496960396 6.746093567926437 L 544.3593748480198 7.769531391968485 L 542.5156249600113 10.738281471945811 L 539.9609374720603 13.503905791963916 L 536.8828129280591 15.757812735973857 L 533.5078123520361 17.496093695925083 L 530.7421870080288 19.44531251193257 L 529.7187502080342 21.390624767926056 L 528.179687424039 24.257812479918357 L 524.9062502400484 26.917968895926606 L 522.2421872640261 29.582030847959686 L 520.1953126400476 31.32031283195829 L 517.023437824042 33.98437478393316 L 514.460937216063 36.648437759955414 L 512.109375488013 38.89843711996218 L 508.3203123200219 40.84375039994484 L 504.6328125440632 42.6875002879533 L 500.9453127680463 43.91796838393202 L 498.6875002880115 43.406249983934686 L 496.1328128000605 42.996093951922376 L 492.8515624960419 43.91796838393202 L 489.47656294400804 45.656250367930625 L 487.01562470401404 48.11718758393545 L 484.8671877120505 50.57421823992627 L 482.4062504960457 54.15625011193333 L 480.2578124800348 58.45703167992178 L 478.4140625920263 61.941406719968654 L 476.06249984004535 66.34374963195296 L 475.34375014400575 70.84765593596967 L 475.34375014400575 73.71484364796197 L 476.78124953602673 76.07031295995694 L 479.546874880034 76.99218739196658 L 482.4062504960457 77.9140628479654 L 486.5078128640307 79.75781273597386 L 490.3984373760177 82.4179691519239 L 492.75000012805685 84.16015667194733 L 495.10937497601844 86.10546892794082 L 497.15624960005516 87.84765644796425 L 498.79687475203536 89.48437503993046 L 500.2265620480175 91.01953126396984 L 501.554688000062 93.07031244796235 L 503.0937497600098 96.1406248959247 L 503.9140628480236 99.51953100797255 L 501.3515622400446 102.89843711996218 L 496.1328128000605 104.43749990395736 L 490.3984373760177 102.18359398393659 L 485.9921879040194 101.46484326396603 L 486.3046871040133 105.76562483195448 L 488.25000038405415 109.4531246079714 L 489.9843747840496 111.29687449592166 L 492.24218726402614 113.5507814399316 L 495.5156254720059 116.51953151996713 L 498.5859379200265 119.17968793597538 L 501.24999987205956 121.640625151922 L 504.42187468800694 123.78906214394374 L 507.39843788801227 126.04296908795368 L 508.3203123200219 128.9101557759568 L 508.10937548801303 131.57031219196506 L 508.7265628160094 133.92578150396002 L 508.3203123200219 136.69140582391992 L 505.2421877760207 139.66015590395546 L 502.47656243201345 140.78906265593832 L 499.4062499840511 142.62890598393278 L 496.8515624960419 144.78124953596853 L 494.28906291205203 145.19140659197 L 491.52343756804476 144.37109350395622 L 489.1718748160638 143.5507814399316 L 485.1718748160638 143.65625036793062 L 481.48437504004687 145.9062497279374 L 480.97656217601616 149.6953128959285 L 481.1796879360336 153.17968793597538 L 482.0000000000582 156.25000038393773 L 483.74218752002344 160.24218726396793 L 485.5859374080319 164.5429688319564 L 487.5312496640254 167.820312575961 L 489.06250035203993 171.19921868795063 L 490.80468787206337 175.70703155192314 L 491.42187520005973 179.59765606396832 L 490.4999997440609 182.87499980797293 L 488.7578122240375 185.33203148795292 L 486.19531264004763 187.17578137596138 L 483.5390627840534 189.12109363195486 L 484.25000038405415 191.88671897596214 L 486.4062504960457 194.9570314239245 L 488.3515627520392 198.84765593596967 L 489.9843747840496 202.84375039994484 L 491.7265623040148 205.9140628479654 L 492.9609379840549 208.6796871679253 L 494.0859371520346 213.79687526397174 L 495.3124997120467 217.69140633597272 L 496.9531248640269 220.96875007991912 L 498.38281216000905 223.83593779196963 L 500.2265620480175 227.82812467194162 L 502.47656243201345 232.74218700797064 L 504.01562521600863 236.12109414394945 L 504.83593728003325 238.06640639994293 L 506.1640622080304 241.65234380797483 L 506.98437529604416 245.44140595191857 L 507.6015626240405 250.8671877119341 L 507.28906240005745 254.8593745919643 L 505.8593751040171 259.7773434879491 L 503.60937472002115 264.5898434559349 L 501.0468751360313 268.58203135995427 L 499.5078123520361 271.75781273597386 L 501.3515622400446 274.11328102392145 L 505.0390620160615 275.9570309119299 L 507.70312499202555 278.51562495995313 L 509.2421877760207 281.9960934399278 L 512.0000000000582 284.9648435199633 L 515.0781245440594 287.21875046397327 L 517.023437824042 291.51953100797255 L 517.7343754240428 295.30859417596366 L 517.9453122560517 298.9960939519224 L 517.7421875200234 301.6562503679306 L 516.812499968044 304.93359411193524 L 516.0000000000582 309.5429683199618 L 513.335937024036 311.38671923195943 L 510.1640622080304 312.7187496959232 L 506.88281292805914 314.3554682879476 L 502.89062502403976 315.48046847997466 L 499.30468761600787 316.097655807971 L 492.4453120000544 318.9648435199633 L 487.42968729604036 321.6249999359716 L 483.5390627840534 324.902343679918 L 480.87499980803113 328.4882810879499 L 480.0546877440065 331.7617182719405 L 479.1328122880077 338.2148433919647 L 480.97656217601616 341.183593471942 L 484.96875008003553 344.15234355191933 L 490.80468787206337 345.38281267194543 L 495.4140620800317 345.5859374079737 L 497.3593753600144 349.07031244796235 L 493.26562508801 352.34765619196696 L 486.19531264004763 352.34765619196696 L 480.6718750720611 353.88281241594814 L 478.51562496001134 355.92968703992665 L 478.51562496001134 360.6406246399274 L 482.20312473602826 365.0429685759591 L 486.29687500803266 368.8320317439502 L 487.6328120320104 374.0546877439483 L 484.96875008003553 378.66406297596404 L 481.0781245440594 380.097655807971 L 480.15625011204975 384.7031255039619 L 482.0000000000582 387.16015615995275 L 483.42968729604036 390.33593753597233 L 486.71093760005897 393.30468761594966 L 489.06250035203993 395.0468751359731 L 489.57812531205127 397.4023434239207 L 487.42968729604036 399.34765670396155 L 484.56249958404806 400.57812479994027 L 482.10156236804323 402.8281251839362 L 480.2578124800348 404.8789063679287 L 478.10937548801303 407.9492188159493 L 476.4687503360328 410.5078128639725 L 474.3203123200219 413.2734371839324 L 472.78124953602673 415.7304688639706 L 470.42968780803494 418.3945308159455 L 470.6328125440632 420.85156249592546 L 470.6328125440632 423.4101565439487 L 470.42968780803494 426.7890626559383 L 470.9453127680463 430.273437695927 L 472.1718753280584 433.44531251193257 L 473.70312499202555 436.1093754879548 L 474.3203123200219 439.078124543943 L 476.4687503360328 442.66406297596404 L 478.7265628160094 446.65624985593604 L 479.64843724801904 448.8085934079718 L 481.6953128960449 450.2382817279431 L 484.0468746240367 452.4921876479639 L 486.0937502720626 455.5664066559402 L 487.01562470401404 457.5117189119337 L 485.38281267206185 459.3554687999422 L 481.1796879360336 460.7890626559383 L 479.43750041601015 463.0390620159451 L 468.9921873920248 468.4687503359746 L 464.69531238405034 471.12890675192466 L 451.5859374080319 480.1406248959247 L 450.15625011204975 485.8750003199675 L 450.0546877440065 489.7656248319545 L 449.74218752002344 494.06640639994293 L 448.21093785605626 496.3203123199637 L 445.0312499200227 498.67578163195867 L 441.9609374720603 501.644531711936 L 437.4531246080296 503.89843763195677 L 433.7656248320127 504.7187496959232 L 429.57031219202327 505.3320314879529 L 426.19531264004763 506.9687500799191 L 420.8671877120505 510.1445314559387 L 417.898437632015 513.011719167931 L 415.6406251520384 516.5937500159489 L 412.3671879680478 521.6132812799187 L 410.42187468800694 526.7343749119318 L 407.0468751360313 531.4453125119326 L 404.5859379200265 534.1054689279408 L 401.61718784004916 537.7929687039577 L 396.9062502400484 541.8867189759621 L 395.16406272002496 544.550780927937 L 390.7656253440073 550.1835939839366 L 385.84374988800846 557.6562503679306 L 386.56249958404806 562.2656245759572 L 386.7656253440073 565.746094079921 L 385.9453122560517 568.6132807679242 L 383.1875000320142 576.2929684479604 L 381.85157836804865 579.8788638719707 L 378.6796871680417 586.3281254399335 L 375.5078123520361 588.7890626559383 L 373.554688000062 591.1445309439441 L 367.61718784004916 595.5468748799758 L 365.26562508801 597.285155839927 L 358.914062336029 600.4609372159466 L 354.8203120640246 601.1757813759614 L 351.546874880034 601.2812503039604 L 349.5937495040125 600.9726566399331 L 347.0390620160615 599.9492188159493 L 343.65625036804704 598.9257809919654 L 340.6875002880115 598.1054689279408 L 338.43749990401557 597.183593471942 L 335.6718745600083 596.2617190399324 L 332.70312550402014 595.7499996159459 L 326.14843699202174 596.1601566719473 L 323.48437504004687 596.0585932799731 L 320.10937548801303 596.0585932799731 L 315.1875000320142 597.4921871359693 L 310.89062502403976 600.5624995839316 L 308.74218700802885 603.8398433279363 L 304.8515624960419 605.9921879039612 L 301.8750003200257 606.1953126399312 L 297.2734371840488 606.8085934079718 L 293.48437504004687 606.9140623359708 L 290.10156236804323 606.4023439359735 L 285.39062476804247 606.6054686719435 L 282.8281251840526 607.7304688639706 L 281.19531212805305 609.7812500479631 L 281.70312499202555 612.7500001279404 L 285.0859376640292 616.9492183039547 L 291.2265625600121 623.9101562879514 L 293.2734371840488 626.4726558719412 L 297.37499955203384 629.644531711936 L 299.82812467205804 634.664062975964 L 299.92968704004306 638.8593745919643 L 302.1874995200196 642.8554690559395 L 305.15624960005516 648.0781250559376 L 306.79687475203536 651.5585935359704 L 308.1249996800325 654.2226565119345 L 309.0468751360313 658.8281251839362 L 309.24999987205956 663.1289067519247 L 308.1249996800325 666.4062504959293 L 307.8203125760192 669.9921879039612 L 307.1015628800378 674.804687871947 L 306.281249792024 678.8984371199622 L 304.9531248640269 681.8710937599535 L 301.88281241600635 688.3203123199637 L 299.01562470401404 692.8242186239222 L 296.65624985605245 695.285155839927 L 293.78906214406015 697.3320314879529 L 288.97656217601616 700.1992191999452 L 285.6953128960449 702.347656191967 L 283.445312512049 704.0898437119322 L 280.9921873920248 707.3671874559368 L 276.5859379200265 710.9492183039547 L 275.25781299202936 713.5117189119337 L 276.078125056054 716.0703129599569 L 278.3281254400499 720.167968767928 L 281.6015626240405 725.9023441919708 L 284.1640622080304 729.4843750399305 L 288.87499980803113 732.0468746239203 L 295.7343754240428 733.8867189759621 L 304.2343751680455 735.3203128319583 L 311.5078123520361 737.0625003519235 L 318.87499980803113 739.5195310079725 L 323.1796879360336 741.3632808959228 L 327.1718748160638 743.820312575961 L 330.7578122240375 747.3046876159497 L 333.2109373440617 752.2187499519205 L 335.46874982403824 757.2343746559345 L 335.3671874560532 759.9999999999418 L 333.3124997120467 762.2539059199626 L 330.0390625280561 763.4804684799747 L 326.8671877120505 765.7343754239264 L 323.2812503040186 768.4999997439445 L 319.28906240005745 770.0351559679257 L 318.0546877440065 772.2890629119356 L 320.0000000000582 776.1796874239226 L 323.38281267206185 780.7890626559383 L 324.921875456057 783.4492190719466 L 329.6328120320104 788.1601566719473 L 333.82812467205804 794.3046871039551 L 334.1328128000605 799.5273441279423 L 332.39062528003706 805.0546872319537 L 331.6796876800363 808.1289062399301 L 330.0390625280561 812.0195307519753 L 328.914062336029 815.7070315519231 L 329.52343756804476 819.8007807999384 L 331.26562508801 826.0468746239203 L 332.39062528003706 830.1445314559387 L 332.39062528003706 834.0351559679257 L 331.9843747840496 838.1328127999441 L 329.83593779202783 842.9453127679299 L 328.71093760005897 845.0937497599516 L 327.8906245120452 849.292968959955 L 327.6796876800363 852.1601566719473 L 329.01562470401404 857.1796879359754 L 328.29687500803266 860.66015641595 L 325.32812492805533 865.0625003519235 L 323.0781245440594 872.3320309759583 L 320.4140625920263 878.3750000639702 L 317.445312512049 882.7773439999437 L 312.6328125440632 887.1796879359754 L 309.96874956804095 890.8671877119341 L 307.92187494406244 895.9882813439472 L 303.4140620800317 907.4570311679272 L 300.8515624960419 916.1601566719473 L 300.0390625280561 919.746094079921 L 299.1171870720573 924.2500003839377 L 298.9062502400484 927.7304688639706 L 299.2187504640315 930.7031255039619 L 301.46874982403824 934.2851563519216 L 305.97656268801074 935.5156254719477 L 310.1718753280584 935.5117189119337 L 313.75781273603207 935.921874943946 L 318.6718750720611 938.4843745279359 L 318.15625011204975 942.8867184639676 L 318.3671879680478 946.0624998399289 L 320.51562496001134 951.285155839927 L 326.25000038405415 957.7343754239264 L 328.60156211204594 960.4999997439445 L 333.52343756804476 965.4140620799735 L 333.42187520005973 968.4882810879499 L 332.9062502400484 976.0624998399289 L 334.9531248640269 981.9023441919708 L 337.1015628800378 985.0742190079181 L 339.7656248320127 987.1250001919689 L 342.9374996480183 989.2734371839324 L 345.8046873600106 990.5039063039585 L 349.39062476804247 989.8867189759621 L 353.2812503040186 985.9960934399278 L 355.33593702403596 982.4140625919681 L 357.38281267206185 978.8281251839362 L 359.42968729604036 976.0624998399289 L 362.4999997440609 974.2226565119345 L 367.0078126080334 975.9609374719439 L 369.8750003200257 978.6250004479662 L 372.6406246400438 981.5937495039543 L 374.89062502403976 984.5624995839316 L 377.554688000062 988.1484369919635 L 379.1875000320142 990.7070310399286 L 381.1328122880077 992.550780927937 L 384.21093785605626 994.1874995199614 L 390.3515627520392 996.1367183359689 L 397.7265623040148 997.1601561599527 L 403.14843750401633 997.6718745599501 L 407.4531246080296 997.8750003199675 L 411.2421877760207 997.9765626879525 L 414.4140625920263 997.5703121919651 L 420.0468746240367 997.1601561599527 L 422.3046871040133 996.5429688319564 L 424.65627955202945 995.4179450879456 L 427.01562470401404 993.1640627199668 L 428.6484377600136 990.7070310399286 L 431.7187502080342 987.9414067199687 L 434.9999994880636 986.6132807679242 L 439.9140628480236 986.7148441599566 L 445.64843724801904 988.0468746239203 L 449.6406251520384 987.8398433279363 L 453.02343782404205 988.2500003839377 L 457.52343756804476 989.1718748159474 L 460.9062502400484 989.3749995519756 L 467.8671872000559 989.4804684799747 L 472.5781248000567 989.7851566079189 L 480.15625011204975 990.8085934079718 L 487.83593779202783 992.347656191967 L 491.42187520005973 993.2656250879518 L 495.7187502080342 995.7265623039566 L 500.42968780803494 1000.027343871945 L 503.9140628480236 1003.917968383932 L 505.65625036804704 1006.3750000639702 L 507.0859376640292 1008.9335941119352 L 509.0312499200227 1012.6210938879522 L 510.97656217601616 1016.9218754559406 L 512.3125002240413 1020.9140623359708 L 512.6171873280546 1023.9882813439472 L 512.6204523307388 1024.0" fill="none"/></svg>