<svg xmlns="http://www.w3.org/2000/svg" width="1024" height="1024"><rect stroke="none" x="0" y="0" width="1024" height="1024" fill="white"/><path stroke="#000000" stroke-width="2" d="M 8.807354368036613 58.00795852782903 L 8.47564800013788 58.047487999894656 L 8.50841600005515 57.29791999992449 L 8.63948800007347 57.20371199992951 L 8.671232000051532 56.00972799991723 L 8.374272000044584 55.73017599992454 L 8.374272000044584 55.54278399987379 L 8.671232000051532 55.40249599987874 L 8.769536000094377 55.238656000001356 L 8.934400000085589 55.07481599989114 L 8.967168000061065 54.93350399984047 L 8.811435008014087 54.71296204783721 L 8.802304000069853 54.46553599985782 L 8.83507200004533 54.37235199980205 L 8.933376000088174 53.786623999883886 L 9.163776000030339 53.59923199983314 L 9.163776000030339 53.15481600002386 L 9.262080000014976 53.060607999854255 L 10.020864000020083 52.98995199997444 L 10.151936000038404 52.896767999918666 L 10.218496000103187 52.615167999931145 L 10.548224000027403 52.615167999931145 L 10.81139200006146 52.731903999927454 L 10.877952000068035 53.5285759998369 L 10.549248000083026 53.78560000000289 L 10.41715200006729 54.02009599993471 L 10.51648000010755 54.699007999908645 L 10.352640000113752 55.14342399989255 L 10.485760000126902 56.055807999917306 L 10.420224000059534 56.243199999968056 L 10.289152000041213 56.92211199994199 L 10.091520000074524 57.15660799987381 L 9.498624000116251 57.3675519998651 L 9.201664000109304 57.602047999971546 L 9.069568000093568 57.78943999984767 L 8.87091200001305 58.00038399983896 L 8.807354368036613 58.00795852782903" fill="none"/><path stroke="#000000" stroke-width="2" d="M 7.910571008047555 49.970928639872 L 8.072192000050563 50.181119999906514 L 8.138752000115346 50.48524799995357 L 8.23808000003919 50.532351999834646 L 8.23808000003919 50.719743999885395 L 7.842816000164021 50.76684799994109 L 7.611392000049818 50.57945599989034 L 6.852608000102919 50.48627199983457 L 6.555648000095971 50.32243199995719 L 6.457344000053126 50.1114879999659 L 6.292480000061914 50.04185600002529 L 6.061056000064127 50.06540799996583 L 5.731328000081703 50.276351999957114 L 5.699584000103641 50.65113599982578 L 5.732352000079118 50.69721599982586 L 5.831680000119377 51.47033599996939 L 6.3928320000413805 51.56351999985054 L 6.458368000050541 51.727359999960754 L 6.095872000034433 52.14924799994333 L 6.0968960000318475 52.54655999987153 L 6.393856000038795 52.82815999991726 L 6.426624000130687 52.991999999969266 L 6.228992000047583 53.343231999955606 L 6.328320000087842 53.76409599982435 L 6.329344000085257 54.069247999810614 L 6.197248000069521 54.58431999984896 L 6.033408000075724 54.981632000009995 L 6.033408000075724 55.49772799992934 L 6.396928000031039 56.129535999847576 L 6.397952000028454 56.85452799999621 L 6.234112000034656 57.954303999838885 L 6.069248000043444 58.37619199982146 L 5.740544000116643 58.82163199991919 L 5.510144000058062 59.61727999994764 L 5.411840000015218 59.80467199994018 L 5.049344000057317 59.87532799982 L 5.048344576032832 59.418300416029524 L 4.982272000052035 59.348479999869596 L 4.916224000044167 59.28959999990184 L 4.322304000030272 58.82163199991919 L 4.157440000097267 58.400767999875825 L 3.8604800000903197 58.236927999940235 L 3.563520000083372 58.049535999889486 L 3.5962880000588484 57.25491199980024 L 4.08985600003507 57.06649599986849 L 4.188160000019707 56.411135999835096 L 4.320256000035442 56.27084799989825 L 4.319232000038028 55.84895999991568 L 4.647936000023037 54.13990399980685 L 4.910080000059679 52.94591999996919 L 4.9090560000622645 51.9157759998925 L 4.842496000113897 51.564543999906164 L 4.841472000058275 50.65113599982578 L 4.972544000076596 49.69062399986433 L 5.368832000123803 49.50323199981358 L 6.3907840001629665 49.31583999993745 L 6.588416000071447 49.385471999878064 L 6.720512000087183 49.59641599986935 L 7.017472000094131 49.80735999986064 L 7.874560000083875 49.92409599991515 L 7.910571008047555 49.970928639872" fill="none"/><path stroke="#000000" stroke-width="2" d="M 37.71494400006486 43.848704000003636 L 37.21932800009381 43.89580799988471 L 37.08825600007549 43.848704000003636 L 37.054464000160806 43.63878399989335 L 36.956160000059754 43.49747199984267 L 36.69196800002828 43.311103999905754 L 36.55987200001255 42.7960319998092 L 36.52710400009528 42.63219199993182 L 36.460544000030495 42.25740799983032 L 37.351424000109546 42.21030399994925 L 39.46086400002241 41.76486400002614 L 39.59296000003815 41.88159999984782 L 39.692288000136614 42.16319999983534 L 39.59398400003556 42.747903999872506 L 39.42912000010256 42.95884799986379 L 38.241280000132974 43.216895999910776 L 37.74771200004034 43.380735999846365 L 37.71494400006486 43.848704000003636" fill="none"/><path stroke="#000000" stroke-width="2" d="M 41.74125670403009 42.44319436792284 L 41.70342400012305 42.44377600000007 L 41.57235200010473 42.27891199995065 L 41.17606400005752 42.16217599995434 L 40.91187200002605 41.99833599984413 L 40.91187200002605 41.74131199985277 L 41.571328000107314 41.34297599986894 L 42.16524800012121 41.15558399981819 L 42.395648000063375 41.20268799987389 L 42.98956800001906 41.90412799990736 L 43.056128000083845 42.16217599995434 L 42.363904000027105 42.44275199988624 L 41.74125670403009 42.44319436792284" fill="none"/><path stroke="#000000" stroke-width="2" d="M 73.8432000001776 36.28236799984006 L 73.62867200007895 36.28236799984006 L 72.80435200006468 36.21273599989945 L 72.771584000031 35.88403200003086 L 73.10131200001342 35.74374399986118 L 74.22253568010638 35.48673331196187 L 74.55232000001706 35.346431999932975 L 75.34387200011406 35.20614399993792 L 76.53171200008364 35.159039999882225 L 78.3462400000426 34.6439680000185 L 78.94016000017291 34.5968639999046 L 79.07225600001402 34.66751999995904 L 79.00569600006565 34.971647999831475 L 78.5438720001257 35.29932799981907 L 77.7850880001206 35.62700799986487 L 76.59827200003201 35.7447679999168 L 75.80569600005401 35.90860799985239 L 74.05772800010163 36.28236799984006 L 73.8432000001776 36.28236799984006" fill="none"/><path stroke="#000000" stroke-width="2" d="M 35.15084800001932 29.777407999848947 L 35.332096000085585 29.847551999846473 L 35.92601600004127 29.847551999846473 L 36.090880000032485 29.987839999841526 L 36.090880000032485 30.15167999989353 L 35.76115200010827 30.4097279998241 L 35.728384000016376 30.69030399993062 L 35.66284800006542 30.808063999866135 L 35.26656000001822 30.97190399991814 L 34.80576000001747 31.721471999946516 L 34.64089600002626 31.814655999827664 L 34.60812800005078 32.002047999878414 L 35.003392000100575 32.189439999929164 L 35.003392000100575 32.353279999806546 L 34.93785600003321 32.51711999991676 L 34.872320000082254 32.821247999963816 L 34.54259200004162 32.89190400001826 L 33.98144000011962 32.75161599984858 L 33.18988800002262 32.728063999908045 L 32.8601600000984 32.58777599991299 L 32.4638720000512 32.19046399981016 L 32.4638720000512 31.581183999951463 L 32.369598464050796 31.40332748781657 L 32.265216000087094 31.324159999960102 L 32.199680000019725 31.113215999968816 L 32.49664000002667 30.925823999918066 L 32.85913600010099 30.621695999871008 L 32.89190400001826 30.340095999883488 L 33.616896000050474 29.98886399989715 L 34.3429120000219 29.8014719998464 L 34.96960000001127 29.707263999909628 L 35.15084800001932 29.777407999848947" fill="none"/><path stroke="#000000" stroke-width="2" d="M 93.38880000001518 29.987839999841526 L 91.67360000009649 30.33804799988866 L 91.31008000002475 30.31449599994812 L 91.17900800012285 30.221311999834143 L 91.27731200004928 30.05747199995676 L 92.49792000011075 29.729791999910958 L 92.89420800004154 29.214719999872614 L 93.29049600008875 29.14406399987638 L 93.61920000001555 29.660159999970347 L 93.61920000001555 29.846527999965474 L 93.38880000001518 29.987839999841526" fill="none"/><path stroke="#000000" stroke-width="2" d="M 5.037578240095172 31.039783935819287 L 4.95308800006751 31.05484799988335 L 4.78822400001809 30.914559999946505 L 4.621312000032049 30.586879999900702 L 4.472832000115886 30.02419199992437 L 4.423680000123568 29.930495999811683 L 4.3898880000342615 29.4389759998885 L 4.257802240026649 29.39289907197235 L 4.257792000018526 29.13484799984144 L 4.620288000034634 29.08774399990216 L 5.049344000057317 29.25158399983775 L 5.380096000037156 29.462527999829035 L 5.381120000034571 30.42201599990949 L 5.298688000126276 30.503935999935493 L 5.216369664063677 30.632606719969772 L 5.217280000040773 31.007743999827653 L 5.037578240095172 31.039783935819287" fill="none"/><path stroke="#000000" stroke-width="2" d="M 42.71928217605455 27.550694399804343 L 42.72025600011693 27.551743999822065 L 43.149312000139616 27.481087999942247 L 43.38073600002099 27.24761599994963 L 43.446272000088356 26.778623999853153 L 44.567552000051364 26.661887999856845 L 44.86451200017473 26.778623999853153 L 45.02937600010773 26.98956799984444 L 45.22700800007442 27.36435199994594 L 45.22700800007442 27.504639999882784 L 45.26080000004731 27.574271999823395 L 45.590528000029735 28.979199999885168 L 45.62432000011904 29.0498559998814 L 45.689856000069994 29.35398399992846 L 45.789184000110254 29.541375999804586 L 45.92128000012599 30.40767999982927 L 45.95507200009888 32.42086399992695 L 46.185472000041045 32.562175999803 L 47.57094400009373 32.889855999848805 L 47.96723200014094 33.170431999955326 L 47.96723200014094 33.56876799999736 L 47.70304000010947 33.82579199998872 L 47.273984000086784 33.989631999866106 L 46.02163200004725 34.20057599985739 L 45.394944000057876 34.22412799997255 L 44.66892800008645 34.01318399980664 L 43.94291200005682 33.52166399988346 L 43.87737600010587 33.10079999984009 L 43.9756800000323 32.889855999848805 L 43.9756800000323 32.67891199985752 L 43.6131840000744 32.374783999985084 L 42.91993600007845 32.538623999862466 L 42.32704000006197 32.51609599980293 L 41.53548800002318 32.1648639998748 L 40.14899200008949 32.07065599987982 L 39.98412800009828 31.76652799983276 L 39.852032000082545 31.626239999895915 L 39.88480000005802 31.41529599990463 L 40.01689600007376 31.22790399985388 L 39.9175680000335 30.455807999998797 L 39.85100800008513 30.33907199994428 L 39.893510144145694 30.046407679852564 L 40.04864000005182 29.87007999990601 L 39.916698624088895 29.6593838079134 L 39.818240000109654 29.51884799991967 L 39.91654400003608 28.488703999842983 L 40.37836800015066 28.137471999856643 L 40.50944000011077 27.69305599987274 L 40.77363200002583 27.435007999942172 L 40.93860147212399 27.130805247812532 L 41.26822400011588 26.89638399996329 L 41.16889600007562 26.61580799985677 L 41.10336000012467 26.54515199980233 L 41.13612800010014 26.241023999929894 L 41.23443200002657 25.959423999942373 L 41.92768000002252 25.9133439999423 L 42.12531200010562 26.146815999993123 L 42.19187200005399 26.498047999921255 L 42.323968000069726 26.61478399997577 L 42.323968000069726 27.0131199999596 L 42.55539200012572 27.17695999989519 L 42.654720000049565 27.481087999942247 L 42.71928217605455 27.550694399804343" fill="none"/><path stroke="#000000" stroke-width="2" d="M 111.64777062402572 26.818248703842983 L 107.67360000009649 27.509759999986272 L 107.57529600005364 27.486207999812905 L 107.57529600005364 27.22918399987975 L 107.6746240000939 26.830847999837715 L 107.87225600006059 26.61990399984643 L 108.433408000099 26.33932799991453 L 108.82969600014621 25.871359999931883 L 109.15942400007043 25.754623999877367 L 109.52294400002575 25.45049599983031 L 110.38003200001549 25.263103999954183 L 110.7763200000627 24.865791999851353 L 111.07328000006964 24.842239999910817 L 111.83206400001654 25.029631999961566 L 111.9313920000568 25.07673599984264 L 112.02969600015786 25.568255999940448 L 112.29286400001729 25.7085439999355 L 112.29286400001729 26.411008000024594 L 111.6989440000616 26.8093439998338 L 111.64777062402572 26.818248703842983" fill="none"/><path stroke="#000000" stroke-width="2" d="M 114.14016000006814 26.013695999863558 L 113.77766400011024 26.013695999863558 L 113.61280000017723 25.920511999807786 L 113.51449600007618 25.218047999893315 L 113.58003200002713 24.89036799990572 L 113.8442240000586 24.796159999910742 L 114.04185600002529 24.81971199985128 L 114.10739200009266 25.522175999940373 L 114.2394880001084 25.873407999926712 L 114.14016000006814 26.013695999863558" fill="none"/><path stroke="#000000" stroke-width="2" d="M 39.08929433609592 18.594926591962576 L 39.186432000016794 18.726911999983713 L 39.41785600001458 19.522559999953955 L 39.5311237120186 19.82551654393319 L 39.582720000064 19.85023999994155 L 39.582720000064 19.966975999996066 L 39.61651200003689 20.061183999932837 L 39.64928000012878 20.622335999971256 L 39.484416000021156 20.973567999957595 L 38.462464000156615 22.19110399991041 L 37.96787200006656 22.63551999995252 L 37.47328000009293 22.89356799982488 L 36.91212800005451 23.315455999807455 L 36.71449600002961 23.596031999913976 L 36.41856000002008 24.27494399988791 L 35.857408000098076 25.18835199996829 L 35.03411200008122 26.07820799993351 L 34.27532800013432 26.734591999847908 L 33.747968000068795 27.01516799995443 L 33.05472000001464 27.506687999877613 L 31.636480000102893 27.90502399991965 L 30.778368000115734 28.374016000016127 L 29.98784000001615 28.679167999944184 L 29.492224000103306 28.72524799994426 L 28.865536000113934 28.53888000000734 L 27.876352000108454 28.468223999952897 L 27.24966400017729 28.749823999998625 L 26.29324800008908 28.844031999935396 L 26.09561600012239 28.913663999876007 L 25.501696000050288 29.288447999802884 L 24.875008000060916 29.546495999849867 L 24.479744000011124 29.804543999955058 L 24.31488000001991 29.991936000005808 L 23.589888000045903 30.530559999810066 L 23.095296000072267 31.04563199984841 L 22.369280000100844 31.42041599994991 L 21.51219200005289 32.006143999809865 L 21.280768000055104 32.193535999860615 L 20.325376000080723 33.15404799988028 L 19.63315200008219 33.809407999855466 L 18.116608000011183 34.84057599987136 L 16.37068800011184 36.270079999929294 L 15.87609600002179 36.45747199980542 L 14.754816000175197 36.48102399992058 L 14.55616000003647 36.55167999997502 L 14.523392000060994 36.739071999967564 L 14.39232000010088 36.996095999958925 L 13.13894400006393 36.99711999989813 L 12.97408000001451 37.043199999898206 L 12.974940160056576 37.28246169583872 L 13.007872000045609 37.46508799988078 L 12.941312000097241 37.58182399987709 L 12.116992000024766 37.676031999872066 L 10.930176000052597 37.53676799999084 L 9.774080000061076 37.630975999927614 L 7.9933440000750124 37.49068799999077 L 7.1362560000270605 37.49171199987177 L 5.454848000023048 37.65555199980736 L 5.346675712091383 37.59458713582717 L 4.541440000059083 37.2275199998403 L 4.461466624052264 37.24315443186788 L 4.365312000038102 37.35244799981592 L 3.5409920000238344 37.423103999812156 L 2.9480960000655614 37.35244799981592 L 2.5845760001102462 37.14252799988026 L 2.4524800000945106 36.58137599984184 L 2.451456000097096 36.160511999973096 L 2.715648000128567 35.7857279998716 L 2.748416000045836 35.504127999884076 L 2.9235240960260853 35.37931059190305 L 3.1658301440184005 34.79108607996022 L 3.17542400007369 34.68492799991509 L 3.257856000040192 34.567679999861866 L 3.3752207360230386 34.245637119864114 L 3.5041280000586994 33.48992000002181 L 3.701760000025388 33.349631999852136 L 3.969313792011235 32.911771647806745 L 4.03148800006602 32.647167999937665 L 4.459520000091288 32.272383999836165 L 5.118976000056136 32.10854399995878 L 6.140928000037093 31.55711999995401 L 6.23923200002173 31.405055999930482 L 7.030784000118729 31.006719999888446 L 7.789568000123836 30.79577599989716 L 9.371648000145797 29.78815999988001 L 10.920960000017658 28.838911999890115 L 11.019264000060502 28.593151999928523 L 11.39268096012529 28.328463359968737 L 11.613184000074398 28.089855999918655 L 11.77804800006561 27.89068799983943 L 12.20608000003267 27.820032000017818 L 12.470272000064142 27.913215999898966 L 12.470272000064142 28.14771199983079 L 12.042240000038873 28.451839999877848 L 12.240212992124725 28.93585100781638 L 13.361144832102582 28.639231999928597 L 13.98784000001615 28.146687999891583 L 14.712832000048365 27.77190399984829 L 15.042560000088997 27.16262399981497 L 16.030720000038855 25.945087999862153 L 17.053696000017226 25.00812799995765 L 18.273280000081286 24.18790399999125 L 19.2788480000454 23.379967999877408 L 19.460096000053454 23.157759999856353 L 20.119552000018302 22.64268799981801 L 21.010432000097353 22.477823999826796 L 21.6698880000622 22.21977599989623 L 22.29657600010978 21.681151999917347 L 22.51059200015152 21.540863999980502 L 23.12089600006584 21.071871999884024 L 23.351296000066213 20.46361599996453 L 23.647232000075746 20.252671999973245 L 24.043520000122953 20.158463999803644 L 24.175616000022274 20.252671999973245 L 24.39889715204481 20.305174527922645 L 24.835584000160452 20.322303999913856 L 25.84115200006636 19.865599999960978 L 26.121216000057757 19.361791999894194 L 26.385408000089228 19.081215999962296 L 26.715136000071652 18.940927999850828 L 26.85701120016165 18.94068326393608 L 27.523072000069078 18.787839999888092 L 27.73708800005261 18.635775999864563 L 28.133376000099815 18.519039999868255 L 28.364800000039395 18.518015999929048 L 28.563456000119913 18.728959999920335 L 28.70817075209925 19.004950527858455 L 28.761088000086602 19.080191999906674 L 29.058048000035342 19.66591999999946 L 29.07296358415624 19.768975359969772 L 29.132544000109192 19.89375999988988 L 29.158142976113595 19.931161599815823 L 29.190144000051077 19.96220723184524 L 29.537280000105966 20.48511999991024 L 29.964444672048558 20.70083686383441 L 30.279680000036024 20.812799999897834 L 30.510592000035103 20.976639999833424 L 31.451136000046972 21.081087999918964 L 32.0614400000195 20.600831999850925 L 32.525367296068 19.783393279882148 L 32.55500800005393 19.688447999826167 L 32.65433600009419 19.547135999950115 L 33.08339200011687 19.453951999894343 L 33.688570880156476 20.702196735946927 L 34.733056000084616 19.780607999826316 L 35.458048000058625 19.172351999906823 L 35.88608000008389 18.515967999992426 L 36.050944000075106 18.37567999982275 L 36.282368000014685 18.328575999941677 L 36.61209600005532 18.328575999941677 L 37.136441344046034 18.588313599932007 L 37.504512000014074 18.668032000015955 L 38.07668736006599 18.4254504959099 L 38.39488000003621 18.188287999946624 L 38.69184000004316 18.141183999890927 L 38.82393600005889 18.2343679999467 L 39.08929433609592 18.594926591962576" fill="none"/><path stroke="#000000" stroke-width="2" d="M 116.63569920009468 15.464473599859048 L 116.72268800012534 16.251903999829665 L 116.62336000008509 16.3215359999449 L 116.3929600000265 16.297984000004362 L 116.26086400001077 16.19442483194871 L 116.26086400001077 15.923199999902863 L 115.56761600001482 15.923199999902863 L 115.36896000005072 16.20377599983476 L 115.17132800008403 16.20377599983476 L 115.00646400009282 15.87609600002179 L 115.07302400004119 15.408127999864519 L 115.33721600007266 15.31391999986954 L 115.93216000002576 15.244287999928929 L 116.19635200005723 15.12755199993262 L 116.42675200017402 15.12755199993262 L 116.6243840000825 15.362047999864444 L 116.63569920009468 15.464473599859048" fill="none"/><path stroke="#000000" stroke-width="2" d="M 108.83601203205762 16.342016000009608 L 108.70476800011238 16.342016000009608 L 108.44160000013653 16.22425599989947 L 108.11187200003769 15.545343999925535 L 108.07910400006222 15.124479999823961 L 107.94700800004648 15.006719999946654 L 107.98080000001937 14.749695999955293 L 108.47539200005122 14.42201599990949 L 108.70681600016542 14.42201599990949 L 108.83788800018374 14.469120000023395 L 108.705792000168 15.311871999874711 L 108.87065600010101 15.615999999921769 L 108.83601203205762 16.342016000009608" fill="none"/><path stroke="#000000" stroke-width="2" d="M 107.02028800005792 19.10374399984721 L 107.0530560000334 20.133887999982107 L 105.92972800001735 20.601855999906547 L 105.53344000008656 20.601855999906547 L 104.97331200004555 20.20351999992272 L 104.57702400005655 20.32127999997465 L 104.47872000001371 20.414463999914005 L 104.21350400010124 21.44460799981607 L 104.0814080000855 21.679103999922518 L 103.28985600016313 21.795839999977034 L 103.1249920000555 21.93612799991388 L 102.96012800006429 22.356992000015453 L 102.82700800005114 22.802431999938563 L 102.43174400011776 22.778879999998026 L 102.39897600002587 22.615039999887813 L 102.39897600002587 22.38054399995599 L 102.29964800010202 22.28633599996101 L 102.00268800009508 22.309887999901548 L 101.83782400016207 22.63756799994735 L 101.83782400016207 22.89561599981971 L 101.5736320001306 23.45676799985813 L 101.37497600005008 23.714815999905113 L 101.11180800001603 23.855103999900166 L 100.7820800000336 23.83155199995963 L 100.57780940807424 23.728950271906797 L 100.48512000002665 23.573503999854438 L 100.2209280001698 23.64415999990888 L 99.9895040000556 23.855103999900166 L 99.56044800009113 24.510463999933563 L 99.06585600011749 24.838143999921158 L 98.47193600004539 24.838143999921158 L 98.01011200004723 24.931327999802306 L 97.74592000001576 24.814591999805998 L 97.48275200009812 24.532991999934893 L 96.82124800002202 24.696831999870483 L 96.6072320000385 24.84889599989401 L 96.38451200007694 25.01239807996899 L 96.16179200011538 25.305088000022806 L 95.96416000003228 25.399295999959577 L 95.66720000002533 25.375743999844417 L 95.20537600002717 25.28153599984944 L 94.61145600007148 25.374719999963418 L 94.31449600006454 25.60921599989524 L 93.9837440000847 26.031103999877814 L 93.88544000004185 26.124287999933586 L 92.99456000007922 26.335231999924872 L 92.63206400017953 26.334207999811042 L 91.97260800009826 26.124287999933586 L 91.34489600011148 26.217471999814734 L 90.78476800012868 26.54515199980233 L 90.52057600009721 26.778623999853153 L 90.19084800011478 27.17695999989519 L 89.79456000006758 27.481087999942247 L 89.39827200002037 27.692031999933533 L 88.57395200012252 28.25420799991116 L 88.50739200005773 28.60441599995829 L 88.27699200011557 28.838911999890115 L 87.71584000013536 29.190143999876454 L 87.12192000012146 29.35398399992846 L 86.75840000004973 29.35398399992846 L 86.16448000003584 29.3304319998133 L 85.8675200000871 29.470719999982975 L 84.87833600002341 30.242815999838058 L 84.34995200001867 30.547967999940738 L 84.3171840000432 30.898175999813247 L 83.9208960001124 31.226879999914672 L 82.50265600008424 31.76447999983793 L 81.84320000006119 31.881215999892447 L 80.12800000002608 32.11571199982427 L 78.08307200012496 32.466943999927025 L 77.09286400012206 32.560127999808174 L 75.37766400008695 32.95743999996921 L 71.81516800011741 33.355775999836624 L 70.42969600006472 33.191935999901034 L 69.57260800007498 33.33222399989609 L 68.05504000012297 33.823743999993894 L 64.75673600006849 34.080767999985255 L 62.41484800010221 34.69004799996037 L 61.52396800008137 35.01772799983155 L 59.71046400006162 35.39251199987484 L 58.754048000089824 35.41708799992921 L 58.35776000004262 35.32287999993423 L 58.45708800008288 35.08940799994161 L 58.58918400009861 34.902015999890864 L 59.44627200003015 34.57433599984506 L 60.04019200010225 34.456575999967754 L 61.128704000031576 34.33983999991324 L 61.95302400010405 33.98860799981048 L 63.10707200010074 33.65990399988368 L 64.3276800000458 33.448959999892395 L 64.98713600001065 33.261567999841645 L 65.41619200003333 33.30867199989734 L 66.17395200009923 33.261567999841645 L 66.43814400001429 33.14483199984534 L 66.50470400007907 32.86425599991344 L 66.47091200010618 32.81715199997416 L 65.7131520001567 32.559103999927174 L 64.52531200001249 32.60723199992208 L 64.26112000009743 32.32665599981556 L 64.19558400003007 31.95187199988868 L 63.997952000121586 31.76447999983793 L 63.89862400002312 31.342591999855358 L 63.83308800001396 30.991359999927226 L 63.23916800011648 30.546943999885116 L 63.23916800011648 30.430207999888808 L 63.041536000033375 30.242815999838058 L 63.041536000033375 29.98476799990749 L 63.3712640000158 29.680639999860432 L 63.33849600004032 29.44614399992861 L 63.07430400012527 28.9546239998308 L 63.07430400012527 28.392447999853175 L 62.97497600008501 28.322815999912564 L 62.94220800010953 27.034623999963515 L 63.10707200010074 26.777599999972153 L 63.536128000123426 26.44889599987073 L 63.997952000121586 25.72390399989672 L 64.26112000009743 25.72390399989672 L 64.78950400004396 26.09766399988439 L 65.18476800009375 26.051583999942522 L 65.31686400010949 25.769983999896795 L 65.38342400005786 25.302015999914147 L 65.51449600001797 25.231359999917913 L 65.78994176007109 25.261342719837558 L 65.94355200004065 25.34912000002805 L 66.50470400007907 25.25491199985845 L 66.76889600011054 25.09107199992286 L 67.0320640001446 24.786943999875803 L 68.28646400006255 21.977087999868672 L 68.71449600002961 21.251072000013664 L 68.97868800006108 20.970495999848936 L 69.27564800006803 20.572159999865107 L 69.77024000004167 20.268031999934465 L 70.13376000005519 20.362239999929443 L 70.33139200002188 20.502527999924496 L 70.36416000011377 20.689919999917038 L 70.62835200002883 21.01759999996284 L 70.72665600007167 21.228543999954127 L 70.76044800004456 21.602303999941796 L 70.95910400012508 22.282239999971353 L 70.95910400012508 22.937599999830127 L 70.72768000006909 23.17107199988095 L 70.72768000006909 24.342527999833692 L 70.66214400011813 24.435711999889463 L 70.76044800004456 24.786943999875803 L 70.69491200009361 25.25491199985845 L 70.39795200008666 25.79353599983733 L 70.39795200008666 26.519551999866962 L 70.26585600007093 26.683391999802552 L 70.26585600007093 27.316223999951035 L 70.13376000005519 27.62035199982347 L 70.13376000005519 29.51679999998305 L 69.83680000010645 30.4291839999496 L 69.80403200001456 30.78041599993594 L 69.60537600005046 31.43577599991113 L 69.47328000003472 31.59961599984672 L 69.30841600004351 32.114687999885064 L 69.30841600004351 32.442367999930866 L 70.00166400003945 32.722943999862764 L 70.42969600006472 32.65331199992215 L 71.15571200009435 32.32563199987635 L 71.32057600002736 32.06758399982937 L 71.35334400006104 31.13164799986407 L 71.48544000001857 30.68620799994096 L 71.35436800005846 29.77279999986058 L 71.48544000001857 29.094912000000477 L 71.6513280000654 28.510207999963313 L 71.6513280000654 27.854847999988124 L 71.8489600000903 26.847231999912765 L 72.24524800002109 26.051583999942522 L 72.57497600011993 24.69375999982003 L 72.77260800002841 24.435711999889463 L 73.69625600002473 24.482815999828745 L 73.99321600003168 24.71731199993519 L 73.99321600003168 24.81049599981634 L 74.12531200004742 24.904703999811318 L 74.32294400013052 25.27948799985461 L 74.45504000014625 25.34912000002805 L 74.45504000014625 25.42881689593196 L 74.57994342403254 25.57597798394272 L 74.71923200017773 25.72390399989672 L 75.04896000010194 26.215423999819905 L 75.80672000005143 26.871807999908924 L 76.00537600001553 27.10527999995975 L 76.40064000006532 27.36230399995111 L 76.69760000007227 27.479039999947418 L 76.99456000007922 27.385855999891646 L 77.1921920000459 27.034623999963515 L 77.35705600015353 26.823679999972228 L 77.621248000185 26.753023999917787 L 78.05030400003307 26.80012800003169 L 78.24793600011617 26.823679999972228 L 78.57868800009601 27.127807999844663 L 79.27193600009196 27.10527999995975 L 79.70099200011464 26.519551999866962 L 79.9313920000568 26.26252799993381 L 80.45977600011975 26.098687999823596 L 80.62464000005275 25.840639999951236 L 80.8878080000868 25.583615999959875 L 81.4817280001007 24.904703999811318 L 82.30707200017059 24.52991999988444 L 83.2307200001087 24.459263999888208 L 83.29625600005966 24.202239999896847 L 83.29625600005966 23.92063999985112 L 83.39558400004171 23.38303999992786 L 83.56044800003292 23.26527999981772 L 83.9895040000556 23.24275199981639 L 84.48409600002924 23.54687999986345 L 84.64896000002045 23.82745599996997 L 85.1435520000523 24.46028799994383 L 85.70470400009071 24.928255999926478 L 86.19929600006435 24.904703999811318 L 86.42969600006472 24.764415999816265 L 86.59558400005335 24.27289599989308 L 87.15571200009435 23.898112000024412 L 87.55200000002515 23.477247999922838 L 87.61856000008993 23.1260159999365 L 87.8489600000321 23.031807999825105 L 88.6415360000683 23.078911999880802 L 88.80640000005951 22.98572799982503 L 89.07059200009098 22.72767999995267 L 89.53241600003093 22.423551999847405 L 90.12736000004224 21.53471999982139 L 90.48985600011656 21.464063999941573 L 90.68748800008325 21.487615999940317 L 91.08377600013046 21.416959999885876 L 91.3807360000792 21.18348799983505 L 91.64492800011067 20.83225599990692 L 91.71046400006162 20.64486399985617 L 92.10675200010883 19.989503999822773 L 92.37094400002388 19.9423999999417 L 92.8983040000312 20.10623999987729 L 93.62432000006083 20.598783999856096 L 93.85472000011941 20.691967999911867 L 94.15168000012636 20.66841599997133 L 94.2837760001421 20.528127999859862 L 94.38310400006594 20.130815999873448 L 94.71283200010657 19.639295999950264 L 95.14188800001284 19.56863999995403 L 95.43884800001979 19.75603200000478 L 95.50438400002895 19.896319999941625 L 96.23040000005858 20.411391999805346 L 96.52736000006553 20.341759999864735 L 96.65945600008126 20.154367999813985 L 97.08851200010395 19.966975999996066 L 97.22060800011968 19.49900800001342 L 97.45203200005926 19.100671999971382 L 97.88211200002115 18.82009599986486 L 98.1790720000281 18.421759999822825 L 98.34393600001931 18.352127999882214 L 98.57433600007789 18.39923199993791 L 98.77196800004458 18.63270399981411 L 98.90406400006032 18.8436479998054 L 99.43142400006764 19.40582399989944 L 99.82771200011484 19.64031999988947 L 100.19020800001454 19.64031999988947 L 100.42163200012874 19.40582399989944 L 100.91622400004417 19.359743999957573 L 101.51014400005806 19.781631999940146 L 101.77331200003391 19.73452799982624 L 101.97196800005622 19.359743999957573 L 102.16960000008112 19.266559999843594 L 102.33548800006974 19.10271999996621 L 102.63142400007928 19.055615999852307 L 102.92838400008623 19.29011200001696 L 103.62163200008217 19.173375999962445 L 103.85305600002175 18.915327999915462 L 103.91859200008912 18.611199999868404 L 104.5463040000759 18.30707199993776 L 104.67840000009164 18.072575999831315 L 104.71219200006453 16.59801599988714 L 105.16113612812478 15.61602559988387 L 105.36939520004671 15.13083084783284 L 105.49094297603006 14.82270105596399 L 105.53856000007363 14.537727999850176 L 105.70342400006484 14.444543999969028 L 106.72640000010142 14.374911999853794 L 106.98956800007727 14.608383999904618 L 107.05510400002822 15.006719999946654 L 107.1554560000659 15.334399999934249 L 107.45139200007543 15.662079999921843 L 107.4841600000509 15.943679999967571 L 107.61625600006664 16.200703999958932 L 107.61625600006664 16.340991999895778 L 107.5175362561713 16.411214847816154 L 107.4841600000509 16.59904000000097 L 107.38483200001065 16.879615999932867 L 107.5081041920348 17.177460736013018 L 107.54866790410597 17.283284991863184 L 107.45036800007802 17.793024000013247 L 107.6480000000447 18.191359999822453 L 107.61420800007181 18.495487999927718 L 107.02028800005792 19.10374399984721" fill="none"/><path stroke="#000000" stroke-width="2" d="M 126.55820800008951 13.633535999804735 L 126.65548800001852 14.710783999820706 L 126.8858880000189 15.22687999997288 L 126.918656000169 15.811583999951836 L 126.81932800007053 16.13926399993943 L 126.68723200005479 16.255999999993946 L 126.52236800012179 16.23347199993441 L 126.42304000002332 16.13926399993943 L 126.32473600003868 15.835135999892373 L 126.02777600003174 15.577088000020012 L 125.99500800005626 14.991359999927226 L 125.89772800001083 14.288895999838132 L 125.63353600015398 14.14860799984308 L 125.33657600003062 14.14860799984308 L 125.10515200009104 14.288895999838132 L 125.00582400005078 14.523391999944579 L 124.74265600001672 14.499839999829419 L 124.77542400010861 14.077951999846846 L 124.8092160000815 13.96121600002516 L 124.8092160000815 13.586431999923661 L 124.77644800010603 13.539327999809757 L 124.77644800010603 13.188095999881625 L 125.04064000002109 12.977151999890339 L 125.43692800006829 12.767231999954674 L 125.66835200012429 12.486655999848153 L 126.03084800002398 12.556287999963388 L 126.16294400003972 12.721152000012808 L 126.16585728002246 12.789283839869313 L 126.22848000010708 12.861439999949653 L 126.32678400003351 13.30585599981714 L 126.42611200007377 13.58745599980466 L 126.55820800008951 13.633535999804735" fill="none"/><path stroke="#000000" stroke-width="2" d="M 118.50451251212507 16.7206287359586 L 118.43788800004404 16.74444799980847 L 118.10816000006162 16.46284799982095 L 118.10816000006162 16.251903999829665 L 117.71289600001182 15.689727999852039 L 117.64736000006087 15.432703999860678 L 117.48249600012787 15.034367999818642 L 117.4169600000605 14.566399999894202 L 117.28588800004218 14.284799999848474 L 117.18758400011575 13.348863999883179 L 117.12371404818259 12.800973823934328 L 117.1712000000407 12.75135999993654 L 117.25414400006412 12.131327999930363 L 116.66124800004764 11.52204799989704 L 116.56192000006558 11.217919999849983 L 116.85990400001174 10.819583999807946 L 116.92646400007652 10.211327999888454 L 118.08051200013142 10.187775999947917 L 118.54233600007137 10.38694399985252 L 118.70720000006258 10.42227199987974 L 118.7330160640995 10.92084940802306 L 118.80601600004593 11.12524800002575 L 118.8720640000538 11.195391999965068 L 118.90483200002927 11.757567999942694 L 118.88793600001372 11.909631999966223 L 118.935165952018 12.470811647945084 L 119.26630400010617 12.951551999954972 L 119.23251200013328 13.395967999997083 L 119.49568000016734 14.192639999848325 L 119.59398400003556 14.918655999936163 L 119.32979200017871 15.199231999868061 L 119.29702400002861 15.761407999962103 L 118.9335040001315 16.182271999889053 L 118.83417600003304 16.440319999936037 L 118.63552000001073 16.673791999812238 L 118.50451251212507 16.7206287359586" fill="none"/><path stroke="#000000" stroke-width="2" d="M 109.40416000003461 8.452095999848098 L 113.89030400005868 9.155583999818191 L 113.89030400005868 9.460735999804456 L 113.36192000005394 9.787391999911051 L 113.26259200001368 9.90515200002119 L 113.10765260813059 9.975181311951019 L 112.50380800012499 10.466303999884985 L 111.90988800005289 10.961614847939927 L 111.90988800005289 11.004927999863867 L 111.86220441601472 11.038355455908459 L 111.73922816006234 11.452911615837365 L 111.61190400004853 12.128255999879912 L 111.34771200001705 12.526591999921948 L 110.88486400002148 12.807168000028469 L 110.68672000011429 12.912639999820385 L 110.3850997761474 13.806620671937708 L 110.35648000007495 14.024703999806661 L 110.2571520000347 14.23564799997257 L 110.2571520000347 14.328831999853719 L 110.05952000012621 14.445567999850027 L 109.55941888003144 14.317619199864566 L 109.4983680000878 14.16499199991813 L 109.56471091212006 14.051674111862667 L 109.45501900813542 13.274795007891953 L 108.57523200003197 13.368319999892265 L 108.54195200005779 13.420523519802373 L 108.54195200005779 13.743103999935556 L 108.40985600004205 13.85983999981545 L 108.17945600009989 13.836287999874912 L 108.08012800005963 13.743103999935556 L 107.96049920009682 13.233380351914093 L 107.66822400002275 12.753407999931369 L 107.02438400004758 12.196863999881316 L 106.66188800003147 12.080127999885008 L 106.52979200001573 11.98591999989003 L 106.56256000010762 11.61113600002136 L 107.09094400005415 11.097087999864016 L 107.28960000013467 10.394623999949545 L 107.4216960001504 10.207231999898795 L 107.98387200001162 9.668607999919914 L 107.88556800008519 9.293823999818414 L 107.55481600016356 9.131007999996655 L 107.55481600016356 8.943615999945905 L 107.75244800007204 8.850431999890134 L 108.01766400010092 8.943615999945905 L 108.17441075202078 9.086430207826197 L 108.61158400011482 9.129983999882825 L 108.8430080000544 8.592383999959566 L 109.0406400001375 8.45107199990889 L 109.40416000003461 8.452095999848098" fill="none"/><path stroke="#000000" stroke-width="2" d="M 244.0066814495076 0.0 L 244.94694400008302 3.6065279998001643 L 245.19302041607443 4.2576680959318765 L 245.4186700800201 5.119999999878928 L 245.53517465601908 5.162951679900289 L 254.24896000005538 7.684095999924466 L 261.48864000005415 9.649151999910828 L 275.1477760000853 9.80787199997576 L 275.2114626560942 9.752122367965057 L 275.51289344008546 9.756446719868109 L 280.3738429440418 5.51676927995868 L 284.60789657611167 1.822502911905758 L 292.3029071758938 0.0" fill="none"/><path stroke="#000000" stroke-width="2" d="M 321.49934070663585 0.0 L 322.7993989120587 0.26001203194027767 L 324.0391065601143 0.5119999998714775 L 325.3281822720892 0.3447685118881054 L 328.29319562578166 0.0" fill="none"/><path stroke="#000000" stroke-width="2" d="M 343.8751334402041 0.0 L 344.98908160004066 1.1139481598511338 L 347.13948160014115 0.601948159863241 L 384.41308160009794 0.601948159863241 L 393.9362816000357 0.8067481598700397 L 406.8386816001148 0.8067481598700397 L 418.10268160008127 1.011548159935046 L 426.3970816000365 1.011548159935046 L 438.68508160003694 1.1139481598511338 L 451.7922816001228 1.3187481598579325 L 460.7010816000984 1.3187481598579325 L 466.53788160003023 1.421148160006851 L 485.07228160003433 1.7283481599297374 L 496.336281600059 2.0355481599108316 L 498.7938816000824 2.0355481599108316 L 503.40188160008984 2.1379481598269194 L 512.4130816000397 2.2403481599176303 L 518.6594816001016 2.342748159833718 L 526.0322816000553 2.445148159924429 L 537.9106816001586 2.752348159905523 L 547.983069184178 2.8530718719703145 L 548.4786964480882 2.8638597118551843 L 555.5234816001612 3.0595481598284096 L 559.2098816000507 3.264348159893416 L 563.6130816001096 3.3667481598095037 L 567.8114816000452 3.4691481599002145 L 571.4978816000512 3.5715481598163024 L 581.8403696640162 3.9435796478646807 L 602.6524467201089 4.818493439874146 L 607.9176960000186 5.033231359906495 L 610.9218816001085 5.209948159870692 L 613.9938816001522 5.41474815987749 L 619.8306816000841 5.619548159942497 L 627.2190750720329 5.819234303897247 L 633.5351859200164 6.077593599969987 L 634.3714816001011 6.131548159930389 L 641.9490816000616 6.438748159853276 L 655.1586816000636 7.0531481599318795 L 657.5138816000544 7.155548159847967 L 663.3506816000445 7.4627481598290615 L 673.3858816000866 7.8723481599008664 L 680.7586816000403 8.281948159914464 L 686.0834816000424 8.38434815988876 L 695.2842905600555 8.21074841596419 L 705.0154700800776 8.12089343991829 L 708.1927065600175 8.11804671981372 L 708.4999065600568 8.115199999941979 L 711.2021299200132 8.10667007981101 L 719.4197985280771 8.092152831959538 L 725.7122816000483 8.179548159823753 L 754.4866816000431 8.179548159823753 L 762.2690816000686 8.077148159907665 L 788.664103936113 8.077148159907665 L 801.7464279040578 8.127752191910986 L 815.5170816000318 8.38434815988876 L 823.4018816000316 8.281948159914464 L 826.3714816001011 8.281948159914464 L 837.8402816000744 8.38434815988876 L 838.824743936013 8.38434815988876 L 843.2217538560508 8.435704831848852 L 845.0082816000795 8.486748159804847 L 853.8146816000226 8.589148159895558 L 860.9881128960405 8.686086143890861 L 870.2634700800409 8.849070079915691 L 873.548800000106 8.738129919860512 L 879.5651696640416 8.54431948781712 L 886.0706816000747 8.38434815988876 L 894.3779522561235 8.067880959890317 L 898.483200000017 7.935999999870546 L 898.680900608073 7.928292351891287 L 900.9186816000729 7.8723481599008664 L 913.6755118080182 7.345206272031646 L 930.186024960014 6.710300671984442 L 932.3554816000978 6.643548159918282 L 936.8610816000146 6.541148159943987 L 953.040281600086 5.926748159865383 L 962.8706816000631 5.619548159942497 L 967.7327247360954 5.401843711908441 L 971.21257676807 5.284403199853841 L 975.1586816000636 5.209948159870692 L 980.4834816000657 5.005148159863893 L 989.6934901760542 4.634275839896873 L 995.7471887361025 4.418668543861713 L 995.7501122560352 4.4184883198468015 L 1006.968776704045 4.020219903846737 L 1008.336281600059 3.9811481598881073 L 1009.8283612161176 3.918978047906421 L 1016.3171532800188 3.689246719935909 L 1019.0592000000761 3.589693439891562 L 1024.0 3.4152469635300804" fill="none"/><path stroke="#000000" stroke-width="2" d="M 0.0 63.56046111051546 L 0.3553280000342056 63.32006399997044 L 1.787904000026174 62.52236799983075 L 2.216960000048857 62.45171199995093 L 2.7443200000561774 62.61555199988652 L 3.5031040000612848 63.107071999809705 L 4.129792000108864 63.575039999966975 L 4.689920000033453 63.738879999902565 L 4.921344000089448 63.926271999953315 L 5.186560000118334 64.27648000000045 L 5.186560000118334 64.3299901438877 L 5.241515008034185 64.4017489918624 L 6.191616000083741 64.3230719998246 L 6.998528000083752 63.7962239998742 L 7.130112000042573 63.64364800002659 L 7.459840000024997 63.17567999986932 L 7.591936000040732 63.08147199987434 L 7.887872000050265 63.105023999814875 L 8.014385152084287 63.14964684797451 L 8.64665600011358 63.17465599993011 L 9.81883289606776 62.467510271817446 L 9.86521600006381 62.40153599984478 L 10.062848000030499 62.26124799984973 L 10.59020800003782 62.026751999917906 L 11.117568000103347 61.49939199996879 L 11.149312000081409 60.762111999851186 L 11.57734400004847 60.036095999821555 L 11.972608000098262 59.146239999856334 L 12.531712000025436 58.326015999831725 L 12.631040000065695 57.90515199996298 L 12.762624000140931 57.78790399990976 L 12.933469184092246 57.50215987180127 L 12.992512000084389 57.24876799987396 L 13.140992000058759 57.1550719999359 L 13.453312000085134 56.49919999984559 L 13.584384000103455 55.867391999810934 L 14.062078976072371 55.21151897602249 L 14.34214400005294 54.46246399998199 L 14.373888000031002 53.433343999960925 L 14.818304000073113 52.58956799999578 L 14.867456000123639 51.95775999990292 L 15.690752000024077 50.6931199998362 L 15.855616000015289 50.66956799989566 L 16.745472000096925 50.78630399995018 L 16.811520000104792 50.821119999920484 L 18.048000000067987 50.83238399995025 L 18.290808832156472 50.44655718380818 L 18.722816000052262 49.638399999879766 L 18.82163200015202 49.60307199991075 L 18.934557696047705 49.56886323186336 L 19.217408000084106 49.59129599982407 L 19.34950400009984 49.63788799988106 L 19.876864000048954 49.61382399988361 L 20.107264000049327 49.192959999956656 L 20.304896000016015 49.098752000019886 L 20.569088000047486 49.169407999841496 L 21.09747200011043 49.56672000000253 L 21.954560000100173 49.47251199983293 L 22.959616000123788 49.179647999990266 L 23.7670400000643 48.53555199998664 L 24.196096000028774 48.020479999890085 L 24.39372800005367 47.669247999961954 L 24.723456000094302 47.43475199985551 L 25.778176000050735 46.96678399987286 L 26.70080000004964 46.35750399983954 L 26.932224000105634 45.935615999856964 L 27.162624000164215 45.79532799986191 L 27.426816000021063 45.79532799986191 L 27.68998400005512 45.91206399991643 L 28.349440000136383 45.666303999954835 L 28.91008000005968 45.04524799983483 L 29.01021696004318 44.8285122559173 L 29.107200000085868 44.36582399986219 L 29.535232000111137 43.944959999935236 L 29.964288000075612 43.4995199998375 L 30.194688000017777 43.38278400001582 L 30.557184000092093 43.406335999956354 L 31.15110400004778 43.80364799988456 L 31.844352000101935 43.99103999993531 L 32.04363571212161 44.16313651192468 L 32.701099008030724 44.35729100793833 L 32.965120000066236 43.65107199980412 L 33.0311680000741 43.42886400001589 L 33.29433600010816 42.86668799986364 L 33.524736000050325 42.72639999986859 L 34.975744000053965 42.44479999988107 L 35.305472000152804 42.46835199982161 L 35.536896000034176 42.49190399993677 L 35.89939200010849 42.842111999809276 L 36.06528000009712 43.1708159999107 L 36.06528000009712 43.54457599989837 L 35.9342080000788 43.685887999949045 L 35.31160473602358 43.84515891189221 L 34.789716992061585 44.25557299191132 L 34.79829299211269 44.37856972787995 L 34.87744000001112 44.4354559998028 L 34.844672000035644 45.043711999896914 L 34.48320000007516 45.816831999865826 L 34.318336000083946 46.89305599994259 L 34.087936000025366 47.454207999806385 L 33.52638464001939 47.92936652782373 L 33.23564134404296 48.254043135850225 L 33.198080000060145 48.32153599988669 L 33.03321600006893 48.50892799993744 L 32.964305920060724 48.55331020796439 L 32.65433600009419 48.894975999894086 L 32.63795200001914 49.539071999897715 L 34.92590899212519 49.77220300794579 L 35.408896000066306 49.07007999980124 L 35.47443200001726 48.22732799994992 L 35.53996800002642 47.94623999996111 L 35.803136000060476 46.119936000031885 L 36.16563200001838 45.745151999930386 L 36.36326400010148 45.72159999998985 L 36.59468800004106 45.932543999981135 L 36.82508800009964 46.54079999990063 L 37.08928000013111 47.40710399992531 L 37.188608000054955 47.9805439998745 L 37.22137600014685 48.06246399995871 L 37.32070400001248 48.81203199992888 L 37.50297600007616 50.35673599987058 L 38.4757760000648 50.4739839999238 L 38.639616000058595 49.02195199980633 L 39.035904000047594 48.76492799987318 L 39.29907200008165 48.78745599987451 L 39.43116800009739 49.02195199980633 L 39.45714073604904 49.63427225581836 L 39.514112000062596 49.85343999986071 L 39.56326400011312 49.88825599983102 L 39.593970688118134 50.234064895892516 L 39.69587200006936 50.719743999885395 L 43.78521600010572 51.714047999936156 L 44.24704000010388 51.55020799982594 L 44.27980800002115 50.52006399992388 L 44.52659200003836 49.407487999880686 L 44.542976000055205 49.184767999860924 L 44.74060800002189 48.69324799993774 L 45.00377600005595 47.826943999913055 L 45.20243200002005 47.59244799980661 L 45.53216000011889 47.475711999926716 L 45.86188800004311 47.522815999866 L 46.38924800010864 47.73273599991808 L 46.586880000075325 47.943679999909364 L 46.718972928181756 48.271359999955166 L 46.818304000014905 49.11411199980648 L 47.04972800001269 50.003967999946326 L 47.01696000009542 51.174399999843445 L 46.85209600010421 52.01817599980859 L 46.52236800012179 52.708351999812294 L 48.46796800009906 54.14809599996079 L 50.28147200017702 54.92019199981587 L 51.79904000007082 55.22431999986293 L 53.84294400009094 55.15468799992232 L 54.733312000113074 54.94323199993232 L 54.914634752087295 54.734297087881714 L 55.096320000011474 54.428671999892686 L 55.42604800011031 54.241279999841936 L 55.92064000002574 54.05388799996581 L 56.28313600010006 53.72620799980359 L 56.61286400008248 53.63199999980861 L 57.53548800002318 53.58489599992754 L 58.31014400010463 53.35091199987801 L 58.42534400004661 53.23366399999941 L 59.03766630409518 53.120454655901995 L 59.38176000007661 53.01145599997835 L 59.87635200005025 52.309503999887966 L 59.90912000014214 52.1338879999239 L 60.503040000097826 51.24403199995868 L 60.8983040000312 50.44735999987461 L 61.12972800002899 50.259967999882065 L 61.2945920000202 50.16678399994271 L 63.00979200005531 50.0500479999464 L 63.70201600011205 50.354175999818835 L 64.42700800008606 50.3306239998783 L 65.35065600002417 49.79199999989942 L 65.84781414404279 49.129304063972086 L 65.91078400006518 48.94924799981527 L 66.17497600009665 48.78540799987968 L 66.70233600004576 48.71475199988345 L 66.90048000001116 48.78540799987968 L 67.82361600006698 48.761855999939144 L 68.41753600002266 49.18374399992172 L 69.1097600000794 48.97279999993043 L 69.55212800012669 48.72191999992356 L 69.86820300808176 48.34850099188043 L 69.20806400012225 47.77881599991815 L 69.3073920000461 46.60838399984641 L 69.3073920000461 45.928447999816854 L 69.43948800006183 45.7881599998218 L 69.8685440000263 45.69497599994065 L 70.42867200006731 45.34374400001252 L 70.626304000034 45.32019199983915 L 71.022592000023 45.390847999893595 L 71.94572800007882 45.26182399992831 L 72.52275200007716 44.82867199991597 L 72.77056000003358 44.126207999826875 L 73.06649600004312 43.868159999954514 L 73.36345600005006 43.86918399983551 L 73.4955520000658 44.17331199994078 L 73.46278400009032 44.64127999992343 L 73.24809830414597 45.46403942396864 L 73.26412800012622 45.60179199988488 L 73.16582400008338 45.7881599998218 L 72.86449356807861 45.987265535863116 L 72.65433600003598 46.23359999997774 L 72.44851200003177 46.929919999907725 L 74.94758400006685 45.90591999993194 L 75.07865600008518 45.53113599983044 L 75.14470400009304 45.46099199989112 L 75.12957747204928 45.17776588792913 L 75.11244800005807 45.132800000021234 L 75.12544153613271 45.10031564795645 L 75.11219200002961 44.85222399991471 L 75.10798336006701 44.68930764787365 L 75.0131200000178 44.571647999982815 L 75.0458880001097 44.26649599982193 L 75.09555200004252 44.208127999911085 L 75.14521600003354 43.981072383816354 L 75.14521600003354 43.494399999966845 L 75.27731200004928 43.37715199991362 L 75.57427200005623 42.51084799988894 L 75.57427200005623 42.300415999954566 L 76.0033280000207 42.08947199996328 L 76.2009600001038 42.08947199996328 L 76.82764800009318 42.393599999835715 L 77.02528000005987 42.74483199993847 L 76.99251200002618 43.61113599996315 L 76.959232000052 43.75193599995691 L 76.95872000005329 44.61875199986389 L 77.85728000005474 45.0045439999667 L 78.31142400001409 44.196863999881316 L 78.4424960000324 43.70534399995813 L 78.64115200017113 43.37766399991233 L 79.0364160000463 43.049983999924734 L 79.36614400002873 42.675199999823235 L 78.80601600010414 42.25331199984066 L 77.58643200004008 41.43411199992988 L 77.38880000007339 40.98867199983215 L 77.1573760000174 40.73164799984079 L 77.1573760000174 40.40396800002782 L 77.22393600014038 40.309759999858215 L 78.18035200005397 40.38041599985445 L 78.77376000006916 40.14643199980492 L 79.1040000001085 39.29420492792269 L 79.1040000001085 39.162879999901634 L 79.20230400003493 38.975487999850884 L 79.26886400009971 38.694911999918986 L 79.43372800009092 38.436863999872 L 79.69079705607146 38.22281318396563 L 80.32409600017127 37.58284799993271 L 80.45568000007188 37.36063999996986 L 80.85196800011909 36.93875199998729 L 81.34656000003451 36.072447999962606 L 81.71008000016445 35.815423999971244 L 81.87494400009746 35.815423999971244 L 82.1719040001044 35.885055999911856 L 82.21568102407036 35.96371763187926 L 82.2814720000606 35.986772991891485 L 82.99622400006047 36.00281599984737 L 84.31513600004837 35.55839999980526 L 84.480000000156 35.27142399986042 L 84.480000000156 35.13651199982269 L 84.644864000089 35.066879999882076 L 84.97459200007142 35.08940799994161 L 85.83321600005729 34.93785599991679 L 86.26278400007868 34.31731199991191 L 87.28576000011526 33.14688000001479 L 87.68102400016505 32.842751999909524 L 88.34150400006911 32.70246399997268 L 93.7175040000584 31.69689599989215 L 94.04723200004082 31.76755199994659 L 94.21209600003203 31.907839999883436 L 94.1915914240526 32.18593279988272 L 94.32910540816374 32.45857484790031 L 94.37696000002325 32.49254399986239 L 94.4213493760908 32.56202239997219 L 95.79520000005141 33.312767999887 L 96.88371200009715 33.92204799992032 L 97.84012800001074 34.27327999990666 L 98.89484800002538 34.15654399985215 L 99.48876800009748 34.438143999897875 L 100.44518400001107 34.46169599983841 L 101.10464000009233 34.20364799996605 L 101.59974400012288 34.040319999912754 L 101.89522227202542 33.25200588797452 L 101.83065600012196 33.197055999946315 L 101.73235200007912 33.01068799983477 L 101.73235200007912 32.3082239999203 L 101.9637760000187 31.629311999946367 L 102.67730636807391 31.012052992009558 L 102.72358400007943 30.832639999862295 L 102.88844800007064 30.763007999921683 L 103.44418508803938 30.748299263825174 L 103.87763200013433 30.610943999898154 L 104.1418240001658 30.107647999888286 L 106.12224000005517 29.733887999900617 L 109.48710400005803 29.14918399992166 L 110.04825600003824 28.986367999925278 L 110.24588800017955 29.05599999986589 L 110.17932800005656 29.196287999802735 L 109.942595584027 29.34063718392281 L 109.73969100805698 29.586772991809994 L 110.50905600003898 29.61817599995993 L 111.23507200006861 29.665279999899212 L 112.25702400004957 29.783039999951143 L 113.47763200011104 30.088191999937408 L 114.99520000006305 30.62681599991629 L 116.04992000001948 31.119359999953303 L 116.80768000002718 31.634431999817025 L 118.48908800003119 32.735231999948155 L 119.61036800011061 33.344511999806855 L 120.59852800011868 33.74284799984889 L 122.04953600012232 34.094079999951646 L 123.93062400002964 34.09510399989085 L 124.85427200008417 33.93228799983626 L 128.3676160001196 33.090559999865945 L 128.3676160001196 7.078911999880802 L 127.91910400008783 7.031807999825105 L 127.47924070409499 7.2536729599232785 L 127.44620851206128 6.89031167991925 L 127.31407667207532 6.681104383897036 L 127.32416000007652 6.540287999901921 L 127.39072000002488 6.329343999910634 L 127.43218278401764 6.266223615850322 L 127.02822400006698 5.978111999924295 L 126.3185920001124 5.889791999943554 L 126.27646259206813 6.165246975899208 L 126.33497600001283 6.258687999856193 L 126.80757452809485 6.57099468796514 L 126.8185845760745 6.813235199952032 L 127.06082611210877 7.044465663842857 L 126.41629184008343 7.277264895965345 L 126.59712000004947 7.405567999812774 L 126.53158400015673 7.640063999919221 L 126.00320000009378 7.640063999919221 L 125.31097600003704 7.475199999928009 L 123.69305600004736 7.357439999817871 L 121.87852800014662 6.9355519998352975 L 120.95488000003388 6.864895999839064 L 119.1731200000504 6.441983999975491 L 118.24947200011229 6.5587199999717996 L 116.73088000004645 6.675455999968108 L 115.39829145604745 6.683247615816072 L 115.11296000005677 6.791167999908794 L 114.32140800007619 6.767615999968257 L 113.56262400001287 6.556671999802347 L 112.30924800003413 6.182911999814678 L 111.97952000010991 5.9484159998828545 L 111.93195520009613 5.892158463830128 L 111.48492800001986 5.527039999898989 L 111.28729600005317 5.45689599995967 L 110.99033600004623 5.222399999969639 L 110.99033600004623 5.058559999917634 L 111.22176000016043 4.82406399998581 L 111.68358400010038 4.636671999935061 L 112.0133120000828 4.660223999875598 L 112.50892800005386 4.7073279999312945 L 113.15200000006007 4.5557759999646805 L 113.49913600005675 3.654655999969691 L 114.04390400002012 2.8938239999697544 L 114.15961600001901 2.624511999893002 L 114.8211200000369 1.5943679999327287 L 115.0525440000929 1.3137919998262078 L 116.89157427207101 0.9197137919836678 L 117.33043200010434 0.7997439998434857 L 117.42924800008768 0.7526399999624118 L 118.28736000007484 0.5662720000254922 L 118.98060800001258 0.5898239999660291 L 119.14547200012021 0.7065599999623373 L 119.16369100805605 0.8631265279254876 L 119.26054400001885 1.0699530238634907 L 119.34310400002869 1.1519999998854473 L 119.40864000015426 1.3864959998172708 L 119.43136563204462 1.5593062399420887 L 119.63904000003822 2.2159359998768196 L 120.60875878413208 2.263464959920384 L 120.8934400001308 2.2517759999609552 L 121.28870400012238 2.322431999957189 L 122.11404800001765 2.6736639999435283 L 122.90560000011465 2.627583999943454 L 123.69817600009264 2.487295999948401 L 124.06067200016696 2.5343999998876825 L 125.01708800008055 2.909183999930974 L 125.41337600012776 3.2849919999716803 L 125.47993600001791 3.494911999849137 L 125.84243200009223 3.776511999894865 L 127.16236800007755 3.6136959998402745 L 127.65696000005119 3.637248000013642 L 127.97030400007498 3.801087999891024 L 127.97030400007498 4.0355839998228475 L 127.75526400009403 4.292607999814209 L 127.89555200003088 4.877823999850079 L 128.00307200005045 5.01862399984384 L 128.36415327416034 0.0" fill="none"/></svg>