<svg xmlns="http://www.w3.org/2000/svg" width="1024" height="1024"><rect stroke="none" x="0" y="0" width="1024" height="1024" fill="white"/><path stroke="#408040" stroke-width="3" d="M 208.12799999999697 229.43744000000152 L 206.61247999999614 228.99712 L 206.56127999999444 227.9936000000016 L 207.82080000000133 227.7068799999979 L 208.69120000000112 227.4201600000015 L 209.6640000000043 227.1027200000026 L 213.09440000000177 230.2566399999996 L 213.9238400000031 231.50592000000324 L 218.2143999999971 230.7071999999971 L 222.57663999999932 227.91167999999743 L 224.9728000000032 228.98687999999675 L 226.43712000000232 230.64575999999943 L 226.96959999999672 233.33888000000297 L 227.88095999999496 236.71807999999874 L 230.23616000000038 243.29215999999724 L 234.80319999999483 253.9519999999975 L 239.21663999999873 268.6259199999986 L 242.5139199999976 279.49055999999837 L 249.20063999999547 293.9494399999967 L 258.77503999999317 322.0275200000033 L 275.79391999999643 342.01600000000326 L 281.70239999999467 347.91423999999824 L 289.33120000000054 352.19456000000355 L 297.61535999999614 356.98687999999675 L 300.92287999999826 362.69056000000273 L 305.4591999999975 371.79391999999643 L 311.50079999999434 383.9283199999991 L 322.4064000000071 407.35743999999977 L 335.9232000000047 433.86879999999655 L 345.0982400000066 454.8198399999965 L 348.5388799999928 464.2816000000021 L 348.846080000003 482.1503999999986 L 345.1084799999953 494.33600000000297 L 344.22784000000684 509.1942399999971 L 343.73631999999634 526.6739200000011 L 345.0163199999952 533.52448 L 346.8492799999949 538.6342399999994 L 346.101760000005 547.6044800000018 L 344.04352000000654 559.0220800000025 L 343.15264000000025 564.6643200000035 L 343.8284799999965 569.6512000000002 L 349.30688000000373 584.2329600000012 L 349.40928000000713 590.8787200000006 L 347.99615999999514 597.9238400000031 L 352.0512000000017 611.6966400000019 L 354.79551999999967 618.7315200000012 L 360.00767999999516 633.5385600000009 L 361.8611200000014 638.1772800000035 L 365.7728000000061 643.2563200000004 L 376.12544000000344 655.237119999998 L 386.5804800000042 670.9452799999999 L 402.67776000000595 694.7635200000004 L 412.9484800000064 706.0480000000025 L 429.0867200000066 713.748480000002 L 497.83808000000136 745.6460799999986 L 502.3436800000054 749.864959999999 L 507.5046399999992 759.3574399999998 L 515.4099200000055 773.1609600000011 L 537.9174400000047 818.206720000002 L 540.8563200000062 836.6796800000011 L 543.744000000006 859.5353600000017 L 544.5222400000057 865.7305600000036 L 546.7033599999995 870.9836799999975 L 556.6259200000059 886.6918399999995 L 567.5212800000008 903.3932799999966 L 571.6582400000043 921.0572800000009 L 573.7676800000045 930.6009600000034 L 574.0543999999936 938.0556799999977 L 569.1084799999953 946.4320000000007 L 561.00864 956.7641599999988 L 560.4966399999976 960.0716800000009 L 562.9747199999983 969.4310400000031 L 567.7056000000011 985.7843199999988 L 576.7679999999964 1008.773119999998 L 583.1877396553173 1024.0" fill="none"/><path stroke="#408040" stroke-width="3" d="M 0.0 166.83758696707082 L 16.936960000006366 166.77887999999803 L 56.401920000003884 166.78912000000128 L 81.43872000000556 166.8915199999974 L 99.30752000000211 167.55711999999767 L 108.17535999999382 171.0694399999993 L 125.60383999999613 182.5587200000009 L 139.03871999999683 191.764479999998 L 154.62399999999616 193.8943999999974 L 174.6432000000059 202.85439999999653 L 184.14591999999539 205.63968000000023 L 190.12608000000182 212.17280000000028 L 192.7679999999964 230.56384000000253 L 194.09919999999693 235.0182399999976 L 199.23967999999877 237.3324799999973 L 205.5475199999928 233.56416000000172 L 207.83104000000458 233.46175999999832 L 207.34975999999733 232.79615999999805 L 208.12799999999697 229.43744000000152" fill="none"/></svg>