<svg xmlns="http://www.w3.org/2000/svg" width="1024" height="1024"><rect stroke="none" x="0" y="0" width="1024" height="1024" fill="white"/><path stroke="#000000" stroke-width="2" d="M 0.0 938.7233074565011 L 4.609375232015736 942.4765624319552 L 11.265625088009983 947.5976560639683 L 14.953124864026904 950.4648437759606 L 21.710937088006176 955.6874997759587 L 34.406250496045686 965.6210933759576 L 38.30468710401328 968.6914058239199 L 60.00781209603883 985.4843750399305 L 64.31250022404129 988.9648435199633 L 83.14843750401633 1003.5078123519197 L 89.19531212805305 1008.3203123199637 L 93.59374950401252 1011.5976560639683 L 99.02343782404205 1015.7968752639717 L 103.73490585602121 1019.070775295957 L 106.9062502400484 1021.8359377919696 L 109.73666652862448 1024.0" fill="none"/><path stroke="#000000" stroke-width="2" d="M 109.73666652866814 1024.0 L 106.9062502400484 1021.8359377920278 L 103.73490585607942 1019.0707752958406 L 99.02343782404205 1015.79687526403 L 93.59374950407073 1011.5976560639683 L 89.19531212811125 1008.3203123199637 L 83.14843750401633 1003.5078123518615 L 64.31250022404129 988.9648435199633 L 60.00781209603883 985.4843750398722 L 38.30468710401328 968.6914058239199 L 34.406250496045686 965.6210933758412 L 21.710937088006176 955.6874997758423 L 14.953124864026904 950.4648437759024 L 11.265625088068191 947.5976560638519 L 4.609375232015736 942.4765624319552 L 0.0 938.7233074563628" fill="none"/><path stroke="#408040" stroke-width="3" d="M 881.5513599999977 848.3327999999965 L 880.0460800000001 845.5987200000018 L 878.3667200000054 844.666879999997 L 874.7929600000061 844.1446399999986 L 866.0479999999952 844.4620799999975 L 859.8527999999933 853.8623999999982 L 857.5590399999928 866.2220799999996 L 841.9839999999967 883.8451199999981 L 838.9119999999966 891.0336000000025 L 838.8505600000062 897.6281600000002 L 838.7993600000045 936.0179199999984 L 838.7276799999963 980.4083200000023 L 838.0926143772231 1024.0" fill="none"/><path stroke="#408040" stroke-width="3" d="M 881.5513599999977 848.3327999999965 L 874.7929600000061 844.1446399999986 L 866.8979200000031 844.8307199999981 L 874.7212799999979 839.6492799999978 L 877.4041600000055 831.1603200000027 L 888.0127999999968 813.4860800000024 L 905.9225600000063 789.4937599999976 L 935.3523200000054 765.4502399999983 L 966.0723200000066 746.4447999999975 L 1024.0 724.736961462404" fill="none"/></svg>