<svg xmlns="http://www.w3.org/2000/svg" width="1024" height="1024"><rect stroke="none" x="0" y="0" width="1024" height="1024" fill="white"/><path stroke="#000000" stroke-width="2" d="M 0.0 5.413828650933283 L 0.0078120960388332605 5.414062079973519 L 0.8203120640246198 21.183593471942004 L 0.8203120640246198 38.79687475191895 L 0.7187496960395947 79.5507814399316 L 0.7187496960395947 128.0898437119322 L 1.0234378240420483 159.01562470395584 L 1.031249920022674 168.84375039994484 L 1.132812288007699 176.7304683519178 L 1.3359370240359567 203.96874956792453 L 1.4375004160101525 211.23828121594852 L 1.5390627840533853 228.33984409592813 L 1.5390627840533853 231.71875020791776 L 1.7421875200234354 250.3554682879476 L 1.7421875200234354 256.0898437119322 L 1.3359370240359567 286.0937502719462 L 1.3359370240359567 315.78906214394374 L 1.2343746560509317 332.378906623926 L 1.2343746560509317 343.746094079921 L 1.132812288007699 349.99218790396117 L 1.132812288007699 384.0898437119322 L 1.7421875200234354 390.33593753597233 L 1.7421875200234354 393.921874943946 L 1.4375004160101525 428.6328125439468 L 1.2343746560509317 452.80078131193295 L 1.132812288007699 465.19140659197 L 1.031249920022674 489.0507816959289 L 0.515624960011337 512.0898437119322 L 0.515624960011337 532.6718750719447 L 0.4140625920263119 542.5039063039585 L 0.4140625920263119 567.3867192319594 L 0.31250022404128686 590.5273436159478 L 0.31250022404128686 616.2304686079733 L 0.2109378560562618 640.0898437119322 L 0.31250022404128686 648.4882810879499 L 0.31250022404128686 659.9570309119299 L 0.2109378560562618 688.7304683519178 L 0.2109378560562618 692.9296875519212 L 0.1093754880130291 703.2695316479658 L 0.1093754880130291 724.1601566719473 L 5.820766091346741e-11 742.3867187199648 L 0.0078120960388332605 750.6835937279393 L 5.820766091346741e-11 754.3671879679314 L 0.0 754.3671879718022" fill="none"/><path stroke="#000000" stroke-width="2" d="M 0.0 770.7850530219075 L 0.2109378560562618 776.3828121599508 L 0.2109378560562618 825.640625151922 L 0.0 829.034316702644" fill="none"/><path stroke="#000000" stroke-width="2" d="M 0.0 844.3359417493048 L 0.10156236804323271 846.5273436159478 L 0.10156236804323271 857.7929687039577 L 0.1093754880130291 876.019530751917 L 0.1093754880130291 881.5507814399316 L 5.820766091346741e-11 896.0898437119322 L 0.31250022404128686 908.9921873919666 L 0.31250022404128686 919.0273433599505 L 0.2109378560562618 1001.5625000959262 L 0.2109378560562618 1010.3671879679314 L 0.1100404278258793 1024.0" fill="none"/><path stroke="#000000" stroke-width="2" d="M 0.1100404278258793 1024.0 L 0.2109378560562618 1010.3671879678732 L 0.2109378560562618 1001.562500095868 L 0.3125002240994945 919.027343359834 L 0.3125002240994945 908.9921873919666 L 5.820766091346741e-11 896.0898437119322 L 0.1093754880130291 881.5507814399316 L 0.1093754880130291 876.019530751917 L 0.10156236810144037 857.7929687038995 L 0.10156236810144037 846.5273436158895 L 0.0 844.3359417482352" fill="none"/><path stroke="#000000" stroke-width="2" d="M 0.0 829.0343167026658 L 0.2109378560562618 825.6406251519802 L 0.2109378560562618 776.3828121598926 L 0.0 770.7850530218129" fill="none"/><path stroke="#000000" stroke-width="2" d="M 0.0 754.3671879718022 L 5.820766091346741e-11 754.3671879679314 L 0.0078120960970409214 750.6835937278229 L 5.820766091346741e-11 742.3867187199066 L 0.1093754880130291 724.1601566718891 L 0.1093754880130291 703.2695316478494 L 0.2109378560562618 692.9296875518048 L 0.2109378560562618 688.7304683518014 L 0.3125002240994945 659.9570309119299 L 0.3125002240994945 648.4882810878917 L 0.2109378560562618 640.0898437119322 L 0.3125002240994945 616.2304686078569 L 0.3125002240994945 590.5273436159478 L 0.4140625920263119 567.3867192319594 L 0.4140625920263119 542.5039063039003 L 0.5156249600695446 532.6718750719447 L 0.5156249600695446 512.089843711874 L 1.0312499200808816 489.0507816959289 L 1.132812288007699 465.1914065918536 L 1.2343746560509317 452.80078131181654 L 1.4375004160683602 428.6328125439468 L 1.742187520081643 393.921874943946 L 1.742187520081643 390.33593753597233 L 1.132812288007699 384.0898437118158 L 1.132812288007699 349.99218790384475 L 1.2343746560509317 343.7460940798628 L 1.2343746560509317 332.3789066238678 L 1.3359370240941644 315.7890621438273 L 1.3359370240941644 286.0937502719462 L 1.742187520081643 256.0898437119322 L 1.742187520081643 250.35546828788938 L 1.5390627840533853 231.71875020780135 L 1.5390627840533853 228.33984409592813 L 1.4375004160683602 211.2382812158321 L 1.3359370240941644 203.96874956786633 L 1.132812288007699 176.7304683519178 L 1.0312499200808816 168.84375039994484 L 1.023437824100256 159.01562470389763 L 0.7187496960395947 128.08984371187398 L 0.7187496960395947 79.55078143987339 L 0.8203120640828274 38.79687475186074 L 0.8203120640828274 21.183593471883796 L 0.0078120960970409214 5.414062079973519 L 9.73437542404281 4.699218943831511 L 13.624999936087988 4.289062911819201 L 32.46093721606303 4.0820316158933565 L 40.656249856052455 3.8789058559341356 L 69.74218752008164 3.4687498239218257 L 76.0859371520346 3.4687498239218257 L 98.00000000011642 3.058593791909516 L 109.06250035203993 2.957031423866283 L 116.84375040011946 2.8554690558230504 L 126.87499980808934 2.8554690558230504 L 130.15625011210795 2.4453119998797774 L 148.992187392083 2.648437759897206 L 151.70410700811772 2.6983167998259887 L 154.7265628160676 2.7539066879544407 L 188.62500044802437 2.648437759897206 L 194.3593748480198 2.5468753918539733 L 214.93749964801827 2.5468753918539733 L 227.5390627841116 2.8554690558230504 L 254.87499980808934 3.570312191906851 L 280.88281292811735 3.777343487890903 L 314.1640622080304 3.8789058559341356 L 318.97656217601616 3.8789058559341356 L 347.1406254080357 3.980469247850124 L 362.29687500809086 3.980469247850124 L 383.4921871360857 4.0820316158933565 L 388.921875456057 4.289062911819201 L 394.5468753920868 4.289062911819201 L 457.83593779202783 4.390625279862434 L 461.42187520005973 4.390625279862434 L 475.1406254080357 4.492187647905666 L 510.97656217607437 4.492187647905666 L 527.4687498240964 4.593750015948899 L 568.7343749121064 4.593750015948899 L 598.1249996800907 5.109374975843821 L 612.460937216063 5.312499711930286 L 621.9843747840496 5.414062079973519 L 631.7109370880644 5.621093375899363 L 634.5781248000567 5.621093375899363 L 638.9765621760162 5.722655743942596 L 655.1562496000552 5.722655743942596 L 664.3750000640284 5.824219135858584 L 679.015624704014 5.824219135858584 L 692.0234373121057 5.925781503901817 L 694.8906250240398 5.925781503901817 L 699.3984378880705 6.02734387194505 L 716.9062502401066 6.02734387194505 L 721.7187502080342 6.132812799885869 L 747.1171870721155 6.234375167870894 L 766.9765621760162 6.335937535914127 L 771.0781245441176 6.234375167870894 L 786.7421870080288 5.925781503901817 L 810.7031255040783 6.949218303838279 L 814.390625280037 6.949218303838279 L 826.8828129281173 6.847655935969669 L 846.9531248640851 6.746093567926437 L 856.1718753280584 6.746093567926437 L 895.1875000320724 6.542968831898179 L 906.1406248960993 6.847655935969669 L 939.9296870400431 6.746093567926437 L 980.382812160009 6.746093567926437 L 1013.554688000062 6.644531199883204 L 1022.9765621760162 6.335937535914127 L 1024.0 6.345951353701821" fill="none"/><path stroke="#000000" stroke-width="2" d="M 1024.0 6.345951353701821 L 1022.9765621760162 6.335937535914127 L 1013.554688000062 6.644531199883204 L 980.382812160009 6.746093567926437 L 939.9296870400431 6.746093567926437 L 906.1406248960993 6.847655935969669 L 895.1875000320724 6.542968831898179 L 856.1718753280584 6.746093567926437 L 846.9531248640851 6.746093567926437 L 826.8828129281173 6.847655935969669 L 814.390625280037 6.949218303838279 L 810.7031255040783 6.949218303838279 L 786.7421870080288 5.925781503901817 L 771.0781245441176 6.234375167870894 L 766.9765621760162 6.335937535914127 L 747.1171870721155 6.234375167870894 L 721.7187502080342 6.132812799885869 L 716.9062502401066 6.02734387194505 L 699.3984378881287 6.02734387194505 L 694.8906250240398 5.925781503901817 L 692.0234373121057 5.925781503901817 L 679.015624704014 5.824219135858584 L 664.3750000640284 5.824219135858584 L 655.1562496000552 5.722655743942596 L 638.9765621760162 5.722655743942596 L 634.5781248000567 5.621093375899363 L 631.7109370881226 5.621093375899363 L 621.9843747840496 5.414062079973519 L 612.460937216063 5.312499711930286 L 598.1249996800907 5.109374975843821 L 568.7343749121064 4.593750015948899 L 527.4687498240964 4.593750015948899 L 510.9765621761326 4.492187647905666 L 475.1406254080357 4.492187647905666 L 461.42187520005973 4.390625279862434 L 457.83593779202783 4.390625279862434 L 394.5468753920868 4.289062911819201 L 388.921875456057 4.289062911819201 L 383.4921871360857 4.0820316158933565 L 362.2968750081491 3.980469247850124 L 347.1406254080357 3.980469247850124 L 318.97656217601616 3.8789058559341356 L 314.1640622080304 3.8789058559341356 L 280.88281292811735 3.777343487890903 L 254.87499980814755 3.570312191906851 L 227.5390627841116 2.8554690558230504 L 214.93749964801827 2.5468753918539733 L 194.3593748480198 2.5468753918539733 L 188.62500044802437 2.648437759897206 L 154.7265628160676 2.7539066879544407 L 151.70410700817592 2.6983167998259887 L 148.992187392083 2.648437759897206 L 130.15625011210795 2.4453119998797774 L 126.87499980808934 2.8554690558230504 L 116.84375040011946 2.8554690558230504 L 109.06250035203993 2.957031423866283 L 98.00000000011642 3.058593791909516 L 76.0859371520346 3.4687498239218257 L 69.74218752008164 3.4687498239218257 L 40.656249856052455 3.8789058559341356 L 32.46093721606303 4.0820316158933565 L 13.624999936087988 4.289062911819201 L 9.73437542404281 4.699218943831511 L 0.0078120960970409214 5.414062079973519 L 0.0 5.413828650926007" fill="none"/></svg>