<svg xmlns="http://www.w3.org/2000/svg" width="1024" height="1024"><rect stroke="none" x="0" y="0" width="1024" height="1024" fill="white"/><path stroke="#000000" stroke-width="2" d="M 0.0 2.3284826262606657 L 9.956356096023228 2.1414010878070258 L 10.281249792082235 2.1406248959247023 L 15.670681600051466 2.240348159801215 L 24.88668160000816 2.240348159801215 L 37.72633088007569 2.068003839813173 L 54.69867008010624 2.0195532799116336 L 76.77155328006484 1.9626700799562968 L 100.62500044802437 1.9335935998242348 L 133.9453122561099 1.9335935998242348 L 210.74268160003703 1.6259481598972343 L 225.48828160011908 1.5235481598065235 L 258.2988974080654 1.4220748798688874 L 262.9687511040829 1.5235481598065235 L 295.5298816000577 1.5235481598065235 L 332.0859371520346 1.4218751999433152 L 373.4531246080878 1.3203128319000825 L 376.10156236810144 1.2656250879517756 L 390.03022336005233 1.2515532798715867 L 413.848866816028 1.216348159883637 L 443.6002816000255 1.216348159883637 L 469.8146816000808 1.5235481598065235 L 479.2354816000443 1.6259481598972343 L 511.18428160011536 1.1139481599093415 L 516.4999997441191 1.0859376639709808 L 520.0468746240949 1.0820311039569788 L 556.8437504000613 1.0117191679310054 L 591.2578129920294 1.0117191679310054 L 605.904696320009 0.9470382079598494 L 619.2265625600703 0.9296875518048182 L 639.1875000320142 1.0117191679310054 L 714.2421872640261 0.9101557760150172 L 767.1875000320724 0.9101557760150172 L 802.3074816000881 0.806748159811832 L 848.2890629121102 0.8085934079717845 L 870.3010816000169 0.7043481598957442 L 895.1842816000571 0.6019481599796563 L 915.5618816000642 0.6019481599796563 L 944.3359375360887 0.4999997440027073 L 979.8671872001141 0.4999997440027073 L 994.2968750080327 0.4179691519238986 L 1004.9904158720747 0.4094443518551998 L 1022.6432645120076 0.3984373759594746 L 1024.0 0.3984373759594746" fill="none"/></svg>