<svg xmlns="http://www.w3.org/2000/svg" width="1024" height="1024"><rect stroke="none" x="0" y="0" width="1024" height="1024" fill="white"/><path stroke="#000000" stroke-width="2" d="M 16.631808000034653 135.32774399995105 L 16.111616000067443 135.38201599993045 L 15.81568000005791 135.0778879999416 L 16.046874624036718 134.89062502392335 L 16.50781286403071 134.70312550396193 L 16.980688896030188 134.68837785592768 L 16.88953753601527 134.86234419193352 L 16.83593728003325 135.30468761594966 L 16.631808000034653 135.32774399995105" fill="none"/><path stroke="#000000" stroke-width="2" d="M 10.312634368019644 130.00221388792852 L 10.343749632069375 130.51562495995313 L 10.671875072061084 130.79687475191895 L 11.006088192050811 130.890143743949 L 11.033326592063531 130.97354342392646 L 11.101562880037818 131.19531212793663 L 10.80934400006663 131.40479999996023 L 10.283008000056725 131.56863999995403 L 9.88774400006514 132.0376319999341 L 8.507812864030711 131.66406246396946 L 8.505344000062905 131.66387199994642 L 8.07772569602821 131.82755327993073 L 7.749999616062269 131.35937535995618 L 6.727288832014892 131.38279628794407 L 6.562841600039974 131.17231513594743 L 6.760448000044562 130.89177599991672 L 7.7148160000215285 130.54054399993038 L 9.162752000032924 130.16473599994788 L 9.491456000017934 130.32857599994168 L 10.051584000058938 130.16473599994788 L 10.312634368019644 130.00221388792852" fill="none"/><path stroke="#000000" stroke-width="2" d="M 2.7627520000678487 121.21702399995411 L 2.137088000017684 121.31123199994909 L 1.6796446720254607 121.24210687994491 L 1.51562547206413 120.93749964796007 L 2.2031247360282578 120.37500006397022 L 2.562499584048055 120.39843737595947 L 2.7944960000459105 120.58521599991946 L 2.9918566400301643 120.9603041279479 L 2.7627520000678487 121.21702399995411" fill="none"/><path stroke="#000000" stroke-width="2" d="M 11.548787712061312 127.6591994879418 L 11.031249920022674 127.91796838393202 L 10.471420928020962 127.5525171199697 L 10.109458432067186 127.27643647993682 L 10.174464000039734 126.59711999993306 L 10.126574592024554 126.42777804791695 L 10.078125056053977 126.24609382392373 L 9.320312832016498 125.77734348794911 L 8.950677504064515 125.36413388792425 L 8.3619840000174 124.70169599994551 L 7.867187200055923 123.39062476792606 L 7.6032000000122935 123.08684799994808 L 7.241728000051808 122.85337599995546 L 6.155513856036123 122.59665305592353 L 5.726562304014806 122.01171865593642 L 6.351562752039172 121.66015590395546 L 7.406249984051101 120.46484377596062 L 8.588288000028115 120.13772799994331 L 9.279488000029232 120.11417599994456 L 9.882812416064553 120.26953113597119 L 10.101562368043233 120.3242188799195 L 10.79521689604735 120.58141695993254 L 11.187500032014214 121.14062540791929 L 12.375000064028427 122.10156236792682 L 12.640256000042427 122.56972799997311 L 12.574720000033267 123.71660799992969 L 12.740608000021894 124.11494399997173 L 13.56250009604264 124.86328115192009 L 13.959168000030331 125.40211199992336 L 14.058496000012383 125.7523199999705 L 13.630464000045322 126.2448639999493 L 12.380160000058822 126.92377599992324 L 12.252357632038184 127.1845150719746 L 12.148436992021743 127.39062476792606 L 11.854848000046331 127.50540799996816 L 11.548787712061312 127.6591994879418" fill="none"/><path stroke="#000000" stroke-width="2" d="M 10.708275200042408 83.90346137597226 L 10.632448000018485 83.92564121593023 L 10.268672000034712 83.7857279999298 L 10.203124736028258 83.52734412794234 L 10.827776000020094 83.08326399995713 L 11.124736000027042 83.05971199995838 L 11.48437504004687 83.19921868795063 L 11.617187840049155 83.43359385593794 L 11.48437504004687 83.57421875192085 L 11.187500032014214 83.76171827194048 L 10.708275200042408 83.90346137597226" fill="none"/><path stroke="#000000" stroke-width="2" d="M 0.0 85.17813884829957 L 0.1874995200196281 85.12890675192466 L 0.18944000004557893 85.12716799991904 L 0.27343769604340196 84.70703103992855 L 0.5908480000216514 84.70323199994164 L 1.406249984051101 84.25781247991836 L 1.471488000068348 83.27475199993933 L 1.7674240000196733 82.99417599994922 L 2.262016000051517 82.94707199995173 L 3.4140620800317265 83.39062476792606 L 3.4140620800317265 83.78906214394374 L 3.5468011520570144 84.02330726396758 L 2.8559360000654124 84.04684799996903 L 2.5927680000313558 84.18713599996408 L 2.3593748480197974 84.60937523195753 L 2.4608225280535407 85.05418342392659 L 2.132812800060492 85.33203148795292 L 1.2431360000628047 85.2408319999231 L 0.9758720000390895 85.47532799997134 L 0.992187392024789 85.66406246396946 L 1.3749995520338416 85.99218790396117 L 1.9025920000276528 86.1767679999466 L 2.3984373760176823 86.15234355191933 L 2.828125184052624 85.77734348794911 L 3.1211520000360906 85.63814399996772 L 3.2499998720595613 85.67187455995008 L 3.779584000061732 85.80198399996152 L 4.306944000069052 85.63711999997031 L 5.097472000052221 85.70777599996654 L 5.29510400001891 85.82451199996285 L 5.624999936029781 85.84765644796425 L 6.151168000069447 85.56646399997408 L 6.678642688028049 85.05179545591818 L 7.403520000050776 85.30841599992709 L 8.062499840045348 85.28515583992703 L 8.523776000016369 84.93363199994201 L 8.687616000068374 84.37145599996438 L 8.885248000035062 84.04377599991858 L 9.280512000026647 84.13695999997435 L 9.367187456053216 84.21874995192047 L 10.170368000050075 84.95615999994334 L 10.895360000024084 85.28281599993352 L 11.583733760053292 85.88031692797085 L 12.078125056053977 86.31250022392487 L 12.507812864030711 86.85156249592546 L 13.5331840000581 87.59910399996443 L 14.95040000003064 88.23091199994087 L 15.148032000055537 88.69887999992352 L 15.554560000018682 89.14943999995012 L 15.906249728053808 89.5429683199618 L 16.038912000018172 90.12633599992841 L 16.531250176019967 90.52343705593375 L 16.66406297602225 90.80468787194695 L 16.46803763206117 91.13281228794949 L 15.906249728053808 91.13281228794949 L 15.677440000057686 91.53126399993198 L 15.842304000048898 91.67155199992703 L 15.609374720021151 92.02343731193105 L 15.710937088064384 92.18749951996142 L 16.928259072068613 92.140680191922 L 16.73216000001412 92.420095999958 L 16.700929024023935 92.69873151992215 L 16.66406297602225 93.00390604796121 L 16.86528000002727 93.68371199996909 L 16.86718771205051 93.80859391996637 L 16.898419712029863 94.7846225919202 L 16.60156211204594 95.29687449592166 L 15.921874944062438 95.60546918393811 L 15.87500032002572 95.62109337595757 L 15.785225216066465 95.89266431995202 L 15.714304000022821 96.09523199993419 L 16.208896000054665 96.86732799996389 L 16.180880384054035 97.01747404795606 L 16.140624896041118 97.21875046397327 L 16.306538496050052 97.3923809279222 L 16.47308800002793 97.56979199993657 L 16.242187264026143 98.01562521595042 L 16.505852928035893 98.2947942399187 L 16.406250496045686 98.66796851193067 L 16.407552000018768 98.66956799995387 L 16.867110912047792 98.8091678719502 L 16.83593728003325 99.0429685759591 L 16.406250496045686 99.08984422392678 L 16.342016000067815 99.25529599993024 L 16.703125504020136 99.51171891193371 L 16.578124800056685 99.65625036793062 L 16.5390622720588 99.69921843195334 L 16.046080000058282 99.62905599991791 L 15.914062848023605 99.93359359994065 L 15.684608000039589 100.05094399995869 L 15.585937408031896 100.49609420791967 L 15.520745472051203 100.63454515195917 L 15.320312832016498 100.47265587194124 L 15.058944000047632 100.68377599993255 L 15.616833536012564 100.96466329594841 L 14.101562368043233 101.17578137596138 L 12.750000128056854 101.50390579196392 L 12.856402944016736 101.63449036795646 L 12.918784000037704 101.71391999995103 L 13.312499712046701 101.73828095995123 L 13.976562688068952 101.92578150396002 L 14.356202496041078 101.8286120959674 L 14.631936000019778 101.7599999999511 L 14.992487424053252 101.87611033592839 L 15.093760000017937 102.2515199999325 L 15.71875020803418 102.64843775995541 L 15.093749760068022 103.02343782392563 L 15.125000192027073 103.2812503039604 L 15.156249600055162 103.93750015995465 L 15.125000192027073 104.47656243195524 L 14.437376000045333 105.31839999993099 L 13.81250048003858 105.4570311679272 L 13.647222784056794 105.80912127991905 L 13.05468723201193 106.06640639994293 L 12.296875008032657 106.11328102392145 L 11.539062784053385 105.90234419197077 L 10.814464000053704 106.04543999995803 L 9.815974912024103 106.56044236791786 L 9.132812288065907 106.91015577595681 L 8.281249792024028 107.58984396792948 L 7.523437568044756 108.4101560319541 L 7.1270440960652195 108.4101560319541 L 6.930432000022847 108.27006668795366 L 6.930432000022847 107.80262399994535 L 6.7984332800260745 107.49872025597142 L 7.456768000032753 106.95987199991941 L 7.587840000051074 106.58508799993433 L 7.093749760068022 106.0468746239203 L 6.499999744060915 105.74218751996523 L 5.968749568040948 105.71875020791776 L 5.973628928011749 105.92367308796383 L 5.974016000051051 106.04748799995286 L 5.679686656047124 106.4843735039467 L 5.609374720021151 106.58593791996827 L 5.621665792015847 106.6043750399258 L 5.752485888020601 106.84163583995542 L 5.906249728053808 107.12500019196887 L 5.481472000014037 107.49951999995392 L 5.43974912003614 107.72312883194536 L 5.4140620800317265 107.85156300792005 L 5.811042304034345 108.55191142397234 L 5.117187072057277 109.08984422392678 L 5.546874880034011 109.67578111996409 L 4.989952000032645 110.37798399996245 L 4.89067008002894 110.73031065595569 L 4.661248000047635 110.98726399993757 L 3.7419294720166363 110.91780403192388 L 3.377152000030037 110.68313599994872 L 2.226562048017513 110.42578124796273 L 1.8944000000483356 110.12300799996592 L 1.2349440000252798 108.7416319999611 L 0.9707520000520162 108.4139519999735 L 0.5937500160653144 108.29687500797445 L 0.0 107.82240489332617" fill="none"/><path stroke="#000000" stroke-width="2" d="M 0.0 103.31675874473876 L 0.22937600006116554 103.26732799992897 L 0.5908480000216514 103.26732799992897 L 0.5908480000216514 102.79668838396901 L 0.5937500160653144 102.51953151996713 L 0.24954368005273864 102.49549004796427 L 0.0 102.16438056668267" fill="none"/><path stroke="#000000" stroke-width="2" d="M 0.0 97.52223555413366 L 0.23437516804551706 97.06250035192352 L 0.23437516804551706 96.62109388795216 L 0.1874995200196281 96.57421823992627 L 0.18564198404783383 96.57466367993038 L 0.18329600006109104 96.57241599995177 L 0.0 96.61726502123201" fill="none"/><path stroke="#000000" stroke-width="2" d="M 0.0 151.59099794994108 L 0.5859379200264812 151.89062451192876 L 1.4453125120489858 151.79687526397174 L 2.664062976022251 151.44531251193257 L 3.2578129920293577 151.02343782392563 L 3.8906245120451786 149.86328166397288 L 3.9463188480585814 149.75827455992112 L 4.505600000033155 150.01599999994505 L 5.101562880037818 149.85156300792005 L 5.234374656050932 149.50000025593909 L 6.085937152034603 148.75000012794044 L 6.117376000038348 148.04889599996386 L 6.515624960069545 147.88281241594814 L 6.8437504000612535 147.48828159994446 L 6.414062592026312 146.45703167992178 L 8.055808000033721 145.0526719999616 L 8.680448000028264 143.99897599994438 L 9.402340352069587 141.68175308796344 L 9.6665600000415 141.82195199996931 L 9.773437952040695 141.76953139196848 L 10.356736000045203 141.47071999992477 L 11.11347200005548 140.79078399995342 L 11.935744000016712 140.81433599995216 L 12.069433344062418 140.57967718393775 L 13.449216000037268 140.43852799996966 L 13.713408000068739 140.6259199999622 L 14.042112000053748 140.64947199996095 L 14.140416000038385 140.36889599997085 L 14.828385280037764 140.39131852792343 L 14.898176000046078 140.57881599996472 L 16.148443136014976 140.64844390394865 L 16.226562048017513 140.70703103992855 L 16.01453465601662 142.59820339194266 L 17.273437184048817 144.89843711996218 L 17.737892864039168 146.1849057279178 L 18.25457254401408 147.62435583997285 L 18.965430272044614 148.92593049595598 L 17.669120000035036 149.61254399997415 L 16.813850624021143 150.3387023359537 L 16.054687744064722 150.80859340797178 L 14.671875072061084 151.4179686399293 L 12.603392000019085 152.07321599993156 L 8.257812480034772 153.85156300792005 L 7.2089600000181235 154.4386559999548 L 6.288384000014048 155.35103999992134 L 5.662720000022091 155.84358399995835 L 4.578304000024218 157.08467199996812 L 3.5604480000329204 159.07430399995064 L 3.551497216045391 159.35149772797013 L 3.5234375680447556 160.05859327997314 L 4.023437312047463 160.97265663993312 L 4.812499968043994 161.78906214394374 L 5.374999552033842 162.2343751679291 L 6.195312640047632 162.46875033597462 L 6.820864000066649 162.77094399993075 L 7.64062515203841 163.66015590395546 L 9.289062400057446 164.1757808639668 L 9.617187840049155 164.45703167992178 L 9.728174080024473 165.00200550392037 L 9.917440000048373 165.95353599992814 L 10.411008000024594 166.28121599997394 L 10.773261312046088 166.37495398393366 L 11.132812288065907 166.63281254394678 L 11.132812288065907 166.98437529592775 L 10.937499648018274 167.28515583992703 L 10.804687872063369 168.2695311359712 L 10.578124800056685 168.7382814719458 L 9.459712000039872 169.16070399992168 L 9.29484800004866 169.41772799997125 L 9.77371340803802 169.98395289597102 L 9.789062144060154 170.0039065599558 L 10.019840000022668 170.68134399992414 L 10.054656000051182 172.22655999992276 L 9.789062144060154 173.74999961594585 L 9.890624512045179 174.75390668795444 L 10.451968000037596 175.43270399991889 L 10.682368000037968 176.0419839999522 L 10.650461184035521 176.74670899193734 L 10.6328125440632 177.08203110395698 L 10.61718732805457 177.46874982392183 L 10.826679296034854 178.06291455996688 L 11.273437184048817 179.33984358393354 L 14.007812096038833 183.64843724796083 L 14.483737600035965 184.56352870393312 L 14.965760000050068 185.4965759999468 L 15.492187136027496 186.2695311359712 L 16.117187584051862 187.74218751996523 L 16.515072000038344 189.63865599996643 L 16.562499584048055 190.69921894394793 L 16.56912384001771 190.80300134397112 L 16.58163200004492 191.06713599996874 L 16.145968128053937 191.57793791993754 L 15.891456000041217 191.5586570239393 L 15.56250009604264 190.87890636792872 L 15.627264000067953 190.3882239999366 L 15.933440000051633 190.04927999991924 L 15.771567104035057 189.58432563196402 L 15.695312896044925 189.35937535995618 L 15.692800000018906 189.35807999991812 L 15.133696000033524 189.3355519999168 L 14.77343744004611 189.12500019196887 L 14.937499648018274 188.93749964796007 L 15.367187456053216 188.84375039994484 L 15.593749504012521 188.1406248959247 L 15.493120000057388 187.48620799992932 L 15.131648000038695 186.94758399995044 L 14.476562432013452 186.43359334394336 L 13.914112000027671 186.22259199991822 L 13.42187520005973 185.70703155192314 L 13.585937408031896 185.21484390395926 L 13.188406272034626 184.87835033593 L 12.597248000034597 184.37427199992817 L 12.529669120034669 184.07462092791684 L 12.468750336032826 183.78906214394374 L 12.248544256028254 183.35966105596162 L 12.004352000018116 182.87615999992704 L 11.344896000053268 181.05036799993832 L 10.984375296044163 180.60546867194353 L 10.55468748806743 180.46484377596062 L 9.695312896044925 180.60546867194353 L 9.242187776020728 180.46484377596062 L 8.97656217601616 180.46484377596062 L 8.67968716804171 180.67578163195867 L 8.320312320021912 180.65234329592204 L 7.989248000027146 180.84147199994186 L 8.613888000021689 181.26233599992702 L 8.811520000046585 181.59001599997282 L 10.52343705605017 181.7304688639706 L 10.98268672003178 181.89392998395488 L 11.148288000025786 182.3610879999469 L 11.379712000023574 183.76601599995047 L 12.17024000006495 184.9354239999666 L 12.4334080000408 185.14636799995787 L 12.521070592047181 185.33256703993538 L 12.562499584048055 185.42578175995732 L 11.906249728053808 185.89453107194277 L 11.57812531205127 186.45703167992178 L 11.71046400006162 186.99571199994534 L 12.732416000042576 188.28287999995518 L 12.7228108800482 188.4269547519507 L 12.69531238405034 188.7734374399297 L 12.499999744060915 189.07812454394298 L 12.367187968047801 189.7812500479631 L 11.87500032002572 190.06249983992893 L 12.83593728003325 190.78906265593832 L 13.093749760068022 190.76562534394907 L 13.290389504050836 190.6019870719174 L 13.552459776052274 190.68593151995447 L 13.786112000059802 190.76300799992168 L 14.609408000018448 191.76959999994142 L 14.765625344065484 191.89453107194277 L 15.890624512045179 192.7773439999437 L 15.968996352050453 192.80584191996604 L 16.61718732805457 193.05859379196772 L 17.306624000018928 193.0792959999526 L 18.49036800005706 192.8683519999613 L 19.509248000045773 192.56319999991683 L 24.99993600003654 191.53203199995914 L 25.726562304014806 191.2734371839324 L 25.974280192051083 190.87213465594687 L 26.118144000065513 190.64217599993572 L 26.512384000059683 189.61203199991724 L 27.335937024035957 188.34765619196696 L 28.421874688065145 188.04296908795368 L 29.37499955203384 187.87890585593414 L 29.867187200055923 187.66796902392525 L 30.260224000026938 187.2936959999497 L 30.259200000029523 186.9660159999621 L 30.093750272062607 186.9179688959266 L 29.701120000041556 187.05919999995967 L 29.372418048034888 187.36435609596083 L 29.039062016061507 187.50390579196392 L 28.515624960069545 187.48046847997466 L 27.726562304014806 187.59765606396832 L 26.57689600001322 188.34841599996435 L 26.051584000058938 189.16761599993333 L 25.725838336045854 189.23662131192395 L 25.59374950401252 188.93359411193524 L 25.56250009604264 188.58203135995427 L 26.131148800021037 188.04254310391843 L 26.478592000028584 187.71558399993228 L 27.628544000035618 187.03667199995834 L 28.812288000015542 186.61478399991756 L 30.752768000063952 186.4744959999225 L 31.918599168013316 186.26668134395732 L 32.070312960015144 186.24218726396793 L 34.33593753603054 185.2812503039604 L 34.93838848004816 185.26572236797074 L 36.44108800002141 185.23238399997354 L 37.23059200006537 184.9978879999253 L 37.71955200005323 184.9176637439523 L 38.0859371520346 184.8593745919643 L 40.88281292805914 184.83593727991683 L 41.63788800005568 185.25593599997228 L 43.05203200003598 185.46585599996615 L 44.53273600002285 185.4423039999674 L 46.90022400004091 184.9507839999278 L 48.01562521606684 184.4140625919681 L 49.03906201606151 184.25000038393773 L 49.367187456053216 184.43749990395736 L 49.56250009604264 184.71484415995656 L 49.333248000068124 184.9497599999304 L 49.89062451204518 185.11328153597424 L 49.89062451204518 185.5117189119337 L 50.546875392028596 185.74609407992102 L 50.482501632068306 185.92312217596918 L 50.45145600003889 186.00345599994762 L 50.6163200000301 186.28403199993772 L 50.91233894403558 186.3783618559246 L 51.304687616066076 186.9609379839385 L 51.254830080026295 187.49690982396714 L 51.208192000049166 187.9695359999314 L 51.37305600004038 188.3443199999747 L 51.1406254080357 188.88281292794272 L 51.27343718404882 189.187500031956 L 50.617344000027515 189.91206399997463 L 49.59744000004139 190.40358399995603 L 48.841728000028525 191.1531519999262 L 48.11723878403427 192.39444275194546 L 47.23235840006964 192.5107947519282 L 46.671875072061084 192.25390591996256 L 46.14553600002546 192.48742399993353 L 45.35705600003712 193.5646719999495 L 44.92968755203765 194.453125119966 L 43.779072000063024 195.319807999942 L 41.47712000005413 195.85843199992087 L 40.98437529604416 196.277344255941 L 40.261632000037935 197.1927039999282 L 39.86718720005592 197.35546879994217 L 39.37499955203384 197.37890611193143 L 39.015624704014044 197.14453094394412 L 38.45222400006605 197.12307199992938 L 37.992187904019374 197.37890611193143 L 37.76204800006235 197.80198399996152 L 37.5000002560555 197.94140671996865 L 37.03906201606151 197.8242191359168 L 36.70937600004254 197.47430399997393 L 36.413440000033006 197.33401599992067 L 35.757812736032065 197.30859417596366 L 35.32902400003513 197.38111999991816 L 34.86718771205051 197.28515583992703 L 34.400184320053086 197.48715315194568 L 33.88211200002115 197.70879999996396 L 33.585937408031896 198.01171865593642 L 33.2265625600121 198.08203161595156 L 32.96093798405491 198.3164057599497 L 32.96093798405491 198.52734361594776 L 32.500809728051536 198.69111807993613 L 32.03906252805609 198.33984409592813 L 31.710937088064384 198.33984409592813 L 31.54687488003401 198.52734361594776 L 31.218750464031473 198.5976565759629 L 31.05468723201193 198.80859340797178 L 30.695186432043556 198.94918553595198 L 29.70312499202555 198.69140582391992 L 29.210937344061676 198.66796851193067 L 28.062720000045374 198.83199999993667 L 28.062720000045374 198.7185756159597 L 28.359374848019797 198.48437452793587 L 27.70312499202555 197.71093708794797 L 27.20768000005046 197.6166399999638 L 26.319696896069217 197.73428735992638 L 25.992187904019374 197.6874997759587 L 25.695312896044925 197.5468748799176 L 25.13510400004452 197.40671999996994 L 24.937472000019625 196.68172799993772 L 24.312500224041287 196.28515635192161 L 23.456768000032753 195.74579199997243 L 23.359375360014383 195.34765670396155 L 23.456768000032753 194.83238399995025 L 23.02873600006569 194.27123199997004 L 22.502400000055786 194.10739199991804 L 21.713920000067446 194.22515199996997 L 20.464640000020154 194.66956799995387 L 19.412992000055965 195.5594239999191 L 19.05152000003727 196.49638399994 L 19.007754240068607 196.82462719996693 L 18.984375296044163 196.98828083195258 L 19.117187072057277 197.15234406397212 L 19.151841280050576 197.19855001592077 L 19.644416000053752 197.8767359999474 L 20.6328125440632 197.90234419197077 L 20.926501888025086 197.78254950395785 L 21.091328000067733 197.8767359999474 L 21.12407347204862 198.41498931194656 L 20.7265628160676 198.81249996792758 L 19.645440000051167 199.28166399995098 L 18.593750016065314 200.4999997439445 L 18.624975872051436 201.1791595519171 L 18.10227200004738 201.38905599992722 L 17.28000000002794 201.20166399993468 L 16.95129600004293 201.4361599999247 L 16.589928448025603 202.02069503994426 L 15.275008000025991 202.42022399994312 L 14.718749696039595 202.79296921595233 L 14.124999680032488 203.0039060479612 L 12.414062592026312 203.16796825593337 L 11.789062144060154 203.35546879994217 L 11.523437568044756 203.66406246396946 L 10.703125504020136 204.08203161595156 L 10.476562432013452 204.66796851193067 L 10.476562432013452 205.7226557439426 L 10.904612864018418 206.04953087994363 L 11.036672000016551 206.93913599994266 L 10.476562432013452 207.99218790396117 L 10.117187584051862 208.34374963195296 L 9.75667200004682 209.2103679999709 L 8.376028160040732 209.98380031995475 L 7.785472000017762 210.12377599993488 L 7.4905600000638515 210.54566399991745 L 4.992187392024789 212.1835939839366 L 4.435968000034336 213.42617599992082 L 4.600832000025548 213.73030399996787 L 4.960937984054908 213.94140671996865 L 5.09374464006396 214.17577779194107 L 4.961440768034663 214.3859210239607 L 4.173824000055902 214.6201599999331 L 4.039062528056093 214.76171878393507 L 4.304687104013283 215.16015615995275 L 4.0765440000686795 215.48646399995778 L 3.681280000018887 215.46291199995903 L 3.3828126720618457 216.0468746239203 L 2.828125184052624 216.37500006397022 L 2.431840256031137 216.3516897279187 L 2.2031247360282578 216.1406248959247 L 1.775616000057198 216.21350399992662 L 1.0234378240420483 216.9140623359708 L 0.5888000000268221 216.9159679999575 L 0.0 217.00049869302165" fill="none"/><path stroke="#000000" stroke-width="2" d="M 0.5898240000242367 161.64152319997083 L 0.5937500160653144 161.46484326396603 L 0.1796874240390025 161.62890649592737 L 0.14848000003257766 161.81657599995378 L 0.5898240000242367 161.8175999999512 L 0.5898240000242367 161.64152319997083" fill="none"/><path stroke="#000000" stroke-width="2" d="M 1.785543680016417 160.06399590393994 L 0.9338880000286736 160.01228799996898 L 1.0127779840258881 160.30812364793383 L 1.0625003520399332 160.5039063039585 L 1.2890624000574462 160.5976565759629 L 1.2212807680480182 160.76711014396278 L 1.0987520000198856 161.06495999993058 L 1.1612160000368021 161.25235199992312 L 1.1632199680316262 161.25137817591894 L 1.1640627200249583 161.25390643195715 L 1.882812416064553 160.90234367991798 L 2.1171875840518624 160.62109388795216 L 2.1800960000255145 160.26931199996034 L 2.080768000043463 160.0819199999678 L 1.785543680016417 160.06399590393994" fill="none"/><path stroke="#000000" stroke-width="2" d="M 0.5937500160653144 160.10937548795482 L 0.5937500160653144 159.38281267194543 L 0.5898240000242367 159.38377830391983 L 0.5898240000242367 159.38252799992915 L 0.1167360000545159 159.49926399992546 L 0.1167360000545159 159.66310399991926 L 0.1796874240390025 159.75781273597386 L 0.206655488058459 159.85027379193343 L 0.23142400005599484 159.944703999965 L 0.5937500160653144 160.10937548795482" fill="none"/></svg>