<svg xmlns="http://www.w3.org/2000/svg" width="1024" height="1024"><rect stroke="none" x="0" y="0" width="1024" height="1024" fill="white"/><path stroke="#000000" stroke-width="2" d="M 163.47395843731647 1024.0 L 163.5390627841116 1023.7851566078025 L 163.63212800008478 1023.6825599998701 L 163.97656268801074 1023.6816404479905 L 164.54452326404862 1023.6446781438426 L 164.8015360000427 1023.7839359999052 L 164.80726107124065 1024.0" fill="none"/><path stroke="#000000" stroke-width="2" d="M 228.09795558129554 1024.0 L 228.1185280000791 1023.782911999966 L 227.96093747211853 1022.4335933438269 L 227.9075840000878 1021.3406720000203 L 227.96874956804095 1020.7109375998261 L 227.9147520000115 1019.9818239999586 L 227.42968729609856 1019.011719167931 L 227.1328122880659 1018.3339847679017 L 226.77094400004717 1020.25932799984 L 226.97574400011217 1021.2044799998403 L 227.23437465610914 1022.4824217598652 L 227.55328000005102 1023.782911999966 L 227.55328000005102 1024.0" fill="none"/><path stroke="#000000" stroke-width="2" d="M 170.91553121244942 1024.0 L 170.9711360001238 1023.7839359999052 L 171.0859376640874 1023.4160158719169 L 170.71093760005897 1023.1367188480217 L 170.37500006408663 1023.4511718399008 L 170.24218726402614 1023.7832028160337 L 170.25473638414405 1023.9541821439634 L 170.25760000012815 1024.0" fill="none"/><path stroke="#000000" stroke-width="2" d="M 165.41305623576045 1024.0 L 165.4218690560665 1023.7833471999038 L 166.1829120000475 1023.2319999999017 L 166.42315264005447 1023.1627786238678 L 166.7481600001338 1023.3343999998178 L 167.23437465616735 1023.2753909758176 L 167.34375014412217 1023.0683596798917 L 167.4364088321454 1022.2749726719339 L 167.5018240000354 1021.7308159999084 L 167.28906240005745 1020.933594111877 L 167.30560921604047 1020.7350353919319 L 167.34003200009465 1020.3709439999657 L 167.33523251203587 1020.3795507198665 L 167.33593702403596 1020.3710935040144 L 167.10156288009603 1020.796874751919 L 167.02343782410026 1021.029297151952 L 166.96875008003553 1021.6269527039258 L 166.9747957760701 1022.0380897278665 L 166.97656217601616 1022.5878906878061 L 166.75025203212863 1022.8551710718893 L 166.17984000005526 1022.8572159999749 L 165.9140628480818 1023.1074222079478 L 165.5941120000789 1023.4736639998737 L 165.19460044801235 1023.6749455359532 L 165.041152000078 1023.4931199998246 L 164.77343744010432 1023.2792965119588 L 164.3520000000717 1023.180800000031 L 163.99218790401937 1023.0332026878023 L 163.9895040000556 1023.0333439998212 L 163.83692800009158 1023.1009279999416 L 163.66406246408587 1023.2167966719717 L 163.4764800000121 1023.4839039999642 L 163.10156288009603 1023.7851566078025 L 163.06691066146595 1024.0" fill="none"/><path stroke="#000000" stroke-width="2" d="M 157.89349565429438 1024.0 L 157.85156300809467 1023.7832028160337 L 157.71955200005323 1023.0292479998316 L 157.41337600001134 1022.8316159998649 L 156.8593745920225 1023.0156247039558 L 156.65356800018344 1023.1992319998681 L 156.692480000027 1023.7839359999052 L 156.8190907517128 1024.0" fill="none"/><path stroke="#000000" stroke-width="2" d="M 156.32497683280963 1024.0 L 156.23437516804552 1023.7832028160337 L 156.14062489604112 1023.5996098559117 L 155.95008000009693 1023.5678719998104 L 155.7780480000656 1023.5852799998247 L 155.64843724807724 1023.6015626238077 L 155.45241600001464 1023.7839359999052 L 155.5929108178243 1024.0" fill="none"/><path stroke="#000000" stroke-width="2" d="M 153.82421475138108 1024.0 L 153.81058560014935 1023.9576852478203 L 153.75781273614848 1023.7851566078025 L 153.92256000003545 1022.8838399999659 L 153.89843763207318 1021.8984376318404 L 153.1402240000898 1021.3591039999155 L 152.11718758411007 1020.796874751919 L 152.06297600007383 1020.164095999964 L 151.82028800010448 1019.8824959999765 L 151.4453125121072 1019.6718745598919 L 151.44243200001074 1019.6715519999852 L 151.24999987211777 1019.7421875199652 L 150.98437529604416 1020.1406248959247 L 150.49999974406091 1020.3984373759595 L 149.96070400002645 1020.4927999998908 L 149.55468800006201 1020.7050782719161 L 149.3124997120467 1021.1035156478174 L 149.287936000037 1021.2433919999748 L 149.12570265604882 1021.337489407917 L 148.93772800004808 1021.2904959998559 L 148.2656245760154 1020.7050782719161 L 147.06096947204787 1020.1149951998959 L 146.78124953608494 1019.9765626878943 L 145.83593779208604 1019.2031252479646 L 144.84375040011946 1019.0175784958992 L 144.73437491204822 1018.8535152639379 L 144.67968716809992 1017.1171870718827 L 144.59801600006176 1016.9303039998049 L 144.22016000008443 1016.5544959998224 L 143.62726400006795 1016.3906559998868 L 142.9531248640269 1016.296875007858 L 142.76562534406548 1016.1093754878966 L 142.46875033603283 1015.5937495038961 L 142.11718758405186 1015.4296872958657 L 141.3124997120467 1015.3359370238613 L 140.6328125441214 1015.3359370238613 L 140.33983180805808 1015.4873937919037 L 139.99040921608685 1015.6654632959398 L 139.69521561602596 1015.5721420798218 L 139.28906240005745 1015.0546872318373 L 138.80422400007956 1014.7512319999514 L 137.78125004802132 1014.7500001279404 L 137.43001600005664 1014.6109439999564 L 136.2187499521533 1014.4707031038124 L 135.40864000015426 1014.2126079999143 L 134.78906265611295 1013.2285153280245 L 134.49218764802208 1013.0410158078885 L 134.39062528003706 1013.1132815358578 L 134.1685760001419 1013.2756479998934 L 134.1143040001043 1013.5101439998252 L 133.81890457606642 1013.6736870399327 L 133.14457600010792 1013.6043519998202 L 131.98643200012157 1013.2295679998933 L 131.53124966402538 1012.8789063679287 L 131.29281126405112 1012.5766758398968 L 130.9062502400484 1012.0800778238336 L 129.96093747206032 1012.1523435518029 L 129.2351426560199 1012.3864760320284 L 128.72622592002153 1012.292835327913 L 128.1249996800325 1012.0449218558497 L 126.4476160001359 1011.2327679998707 L 125.28906240005745 1010.5761720318114 L 123.32267622405197 1010.2698997759726 L 122.62500044808257 1009.9648440320161 L 122.24512000003597 1009.6127999998862 L 121.9765688321786 1009.1660144638154 L 121.86718720005592 1008.5722654719139 L 121.76562483201269 1008.0410152958939 L 121.54687488003401 1007.6660152318655 L 121.08800000004703 1007.4316799998633 L 120.225792000012 1007.1889919999521 L 119.25781299214577 1006.9140623359708 L 118.28906291205203 1006.4687503359746 L 118.09135820803931 1006.1616015359759 L 117.85523200005991 1005.7891839998192 L 117.1406254080357 1005.1875000318978 L 117.09374976000981 1005.1640627199668 L 116.15625011210795 1004.7792967679561 L 114.94531276804628 1005.294921727851 L 114.57031270401785 1005.2480471038143 L 114.29888000001665 1005.1071999999695 L 113.94867200008593 1004.6146559999906 L 113.46432000002824 1004.2623999999487 L 113.46093772811582 1004.2617190399906 L 112.73437491210643 1004.3320309759583 L 111.49931212805677 1004.5661327359849 L 111.34385356801795 1004.504485887941 L 111.09374976006802 1004.4023439358571 L 110.82342400006019 1003.9572479999624 L 110.3114240000723 1003.5578879998648 L 109.98784000001615 1003.4411519998102 L 109.20652800006792 1003.4401279999292 L 108.69531238405034 1002.9707028479315 L 107.69817600003444 1002.2911999998032 L 105.86718720005592 1001.5859374079155 L 105.16582400014158 1001.0705919999746 L 103.41478400008054 1000.3435519998311 L 103.03124992008088 1000.027343871945 L 102.955008000019 999.9677439998486 L 102.65624985605245 999.6191406078287 L 102.38976000010734 999.3113599999342 L 101.36718745605322 998.6777343999711 L 99.96874956804095 997.3632808958064 L 99.6718745600665 997.193359359866 L 99.3203128320747 996.9882808319526 L 98.83593728009146 997.0351564799203 L 98.26406400016276 997.233663999883 L 98.15633612807142 997.2695039999671 L 97.32403200003318 997.2695039999671 L 96.92187545605702 997.1054684159462 L 96.59699200012255 996.6366719998186 L 96.70451200002572 996.2608640000108 L 96.67968716804171 996.1445314558223 L 96.92187545605702 995.7910159358871 L 97.48684800008778 995.3003519998165 L 97.48684800008778 994.9009919998934 L 97.31896934402175 994.7151359999552 L 96.89843712002039 994.2441410559113 L 96.56226508814143 993.9848079358344 L 96.3553280000342 993.8227199998219 L 95.9242240000167 993.095679999853 L 95.9242240000167 992.5324799998198 L 95.71093708812259 992.3457034238963 L 95.70918400003575 992.3450879999436 L 95.57031219202327 992.3906252799206 L 95.24999987205956 992.4374999039574 L 95.1406254080357 992.5800785918254 L 95.1406254080357 993.0722652159166 L 95.1905597440782 993.238713343977 L 95.27705600002082 993.5411199999508 L 95.16953600005945 993.7756159998826 L 94.89890816004481 994.0327587838983 L 94.11788800009526 994.1032959999284 L 93.0129920001491 994.5722879999666 L 91.63878400006797 994.8764159998391 L 91.19531212811125 994.8398438398144 L 90.74995200010017 994.8057599998428 L 90.29120000003604 994.7125759999617 L 89.35156224004459 994.7578122238629 L 89.0787840000703 994.5948159998516 L 88.97126400005072 994.1493759999285 L 89.1557836800348 993.8049064959632 L 89.35156224004459 993.4453125118744 L 89.86112000001594 993.0936319998582 L 90.39974400005303 992.8601599998074 L 90.50781286414713 992.7187496959814 L 90.53491200011922 992.4372479999438 L 89.18750003213063 991.2871096319286 L 89.05468723207014 990.8906250238651 L 88.97656217607437 990.1152348158066 L 88.83712000015657 989.8813439998194 L 88.38281216012547 989.6699217918795 L 87.27449600002728 989.7635829758365 L 85.95312537602149 989.6210933758412 L 85.5000002560555 989.3886719999136 L 85.14843750401633 988.8730470400187 L 84.4453120000544 988.5664061438874 L 83.55532800004585 988.567551999935 L 82.98905600013677 988.7078399998718 L 82.3152640000335 988.5665279998211 L 81.93843200005358 988.4026879998855 L 81.3998080000747 987.8630400000256 L 80.80468787212158 987.9335935998242 L 80.15625011204975 988.1914060799172 L 80.1328128001187 988.4746096638846 L 81.04687513614772 989.3398435838753 L 81.07622400001856 989.5516159998369 L 80.91443200001959 989.6929279998876 L 78.67968716809992 989.3164062719443 L 78.5688145920285 989.2265328638605 L 77.97657600004459 988.7303679999313 L 76.38528000016231 988.7068159999908 L 75.9541760001448 988.51942399994 L 75.79238400002941 988.3320319998893 L 75.76474931201665 988.2347796479589 L 75.74218752008164 988.1445314558223 L 75.92968704004306 987.7226557438262 L 76.9249280000804 986.8308479998959 L 77.19531212805305 986.2226565118763 L 77.38265600003069 986.1980159999221 L 78.02982400008477 986.3854079999728 L 78.67801600007806 986.2686719999765 L 79.24218777607894 986.0351559678093 L 79.72864000004483 985.635839999828 L 80.1328128001187 984.9570314239245 L 80.43008000013651 984.6271999998717 L 82.12787200009916 983.665663999971 L 82.14407475205371 983.5229521918809 L 82.15625011216616 983.4316410878673 L 81.80468736001058 982.9843752958695 L 81.77766400005203 982.61094399984 L 81.8851840000134 982.3057919998537 L 82.42483200010611 981.5551999999443 L 82.58662400004687 981.1568639999023 L 82.66752000001725 980.1717759998864 L 82.89292083209148 979.7375109118875 L 83.0468751360313 979.4453125119326 L 83.01076275203377 979.0612121598097 L 82.9644800000242 978.5313279998954 L 82.85937459213892 978.4609372159466 L 82.82931200001622 977.9681279998622 L 82.72179200005485 977.8513919998077 L 82.39843737601768 976.53710950393 L 82.32031232002191 976.4667965438566 L 82.29961113602621 976.2494300158578 L 82.29068800003733 976.1392639998812 L 82.21093785605626 976.0449218559661 L 81.96874956804095 974.5917972478783 L 81.80468736001058 974.027343871945 L 81.64249600004405 973.8178559998632 L 81.50835200003348 973.7943039999227 L 80.99635200004559 973.9816959999735 L 80.9035264000413 974.2236037118128 L 80.8593745920225 974.3339847678435 L 80.83456000004662 974.8254719999386 L 81.28906240017386 976.560546815861 L 81.39843788812868 976.7011717119603 L 81.72441600001184 977.9916799998027 L 81.72441600001184 978.9061119999387 L 80.67187507206108 980.8515624959255 L 80.56249958410626 981.3437501439475 L 80.02343731204746 982.0234373118728 L 78.75788800010923 982.2361599999131 L 78.48857600003248 982.4471039999044 L 78.3938375681173 982.775098367827 L 78.35156275203917 982.9160161279724 L 77.92211763217347 983.2673791999114 L 76.3046871041297 983.7128908798913 L 75.20051200001035 984.1817599998903 L 74.49974988802569 984.6738278399571 L 72.90747084806208 984.6738278399571 L 70.94169600005262 984.2759679998853 L 70.13376000005519 983.9943679998978 L 69.91769600001862 983.7363199999672 L 69.91769600001862 983.6600279038539 L 69.92187494406244 983.5722659839666 L 69.83680000004824 983.525375999976 L 69.86718720011413 983.0800783360028 L 70.2187499520951 982.7500001279404 L 70.78124953614315 982.564453375875 L 70.99596800009022 982.3764479999081 L 70.91507200011984 982.0948479998624 L 69.75781273603207 981.6718745599501 L 69.51321600010851 981.8603519999306 L 69.47551744006341 982.1228093439713 L 69.4297190401121 982.4236206078785 L 68.54348800005391 982.4471039999044 L 67.70790400006808 982.8218879998312 L 67.22252800001297 982.9152962560183 L 67.22252800001297 982.5402879999601 L 67.92396800010465 981.8603519999306 L 68.40832000016235 981.1568639999023 L 68.45995724806562 980.5833738238434 L 68.5468753920868 979.6562503679306 L 68.7343165440252 979.1856936959084 L 69.75781273603207 978.7656253440073 L 69.89107200008584 978.6716159998323 L 70.07947264012182 977.8504345598631 L 70.75328000012087 977.288191999949 L 70.99596800009022 976.7014399999753 L 71.08816896006465 975.8213437438244 L 71.13281228812411 975.4121093119029 L 69.99970713607036 975.0603141118772 L 69.35244800004875 974.5438719998929 L 69.02886400005082 974.5909759998322 L 68.78617600013968 974.7312639999436 L 68.71558144001756 975.3928243198316 L 68.64843776001362 975.9980472319294 L 68.1643601920805 976.5836236799951 L 67.65625036804704 976.560546815861 L 66.6328125440632 975.644531711936 L 66.57812480005668 975.3652346878662 L 67.30468761606608 974.7792967678397 L 67.33004800009076 974.4967679998372 L 66.84569600003306 974.145535999909 L 66.57812480005668 974.0507811838761 L 66.30468710401328 974.0976558079128 L 65.6328120320104 974.753906687838 L 65.17337190406397 974.872659967863 L 64.85112012806349 974.8961146878428 L 64.20348313613795 974.3557672958123 L 63.799296000099275 973.3713919998845 L 63.53124966408359 973.0429685759591 L 63.07031244807877 972.7617187838187 L 61.617187840049155 972.5507809278206 L 61.265920000034384 972.2931199999293 L 60.88348672003485 971.8737059838022 L 60.64843776001362 971.6132812798023 L 60.6679603200173 971.3204387838487 L 60.6996480000671 970.9096959999297 L 60.61875200003851 970.3229439998977 L 60.456960000039544 970.1826559999608 L 60.453125120082404 970.1816401918768 L 60.15625011204975 970.1582028799457 L 59.968749568099156 970.3222661118489 L 59.75654400017811 970.9096959999297 L 59.37868800002616 971.3080319999135 L 58.70312550407834 971.3066403839039 L 58.2734376960434 971.4492190720048 L 57.65483724809019 971.9179079678142 L 57.14205081603723 971.8946129918331 L 56.899584000057075 971.7073919998948 L 57.00781260803342 970.9101557758404 L 57.00781260803342 970.1113282558508 L 56.82031206408283 969.8554685438867 L 56.54835200001253 969.6901119999238 L 56.578124800056685 969.0800783358864 L 57.14124800008722 968.6814719999675 L 57.11718707205728 968.1894533119048 L 56.7644160001073 968.048639999819 L 56.11718758411007 968.1191403518314 L 55.7670400000643 967.8141439998872 L 55.4453125121654 967.2753909758758 L 54.52595200005453 966.313983999833 L 54.01292800006922 966.4071679998888 L 53.87878400005866 966.5013759998837 L 53.91181107208831 966.7484426239389 L 53.92968704010127 966.9003909118474 L 54.093750272120815 967.1341015038197 L 54.093750272120815 967.5800780800055 L 53.79687526402995 967.93164083187 L 52.96093798405491 968.1660159999738 L 51.857408000098076 968.2370559999836 L 51.42630400008056 968.4479999999749 L 50.99266457610065 969.1281561599462 L 50.69824000011431 969.151487999945 L 50.320380928053055 968.9169919998385 L 50.35156275209738 968.4472657919978 L 50.39543193607824 968.3375923199346 L 50.86003200005507 967.2519679999677 L 50.914062336145435 966.2207027198165 L 50.64396800007671 965.98630400002 L 49.6732160000829 965.6811519998591 L 49.75781273609027 965.3749995519174 L 49.83593779208604 965.2480471038725 L 49.89062451204518 965.1660154878628 L 50.187499520077836 964.6972651518299 L 50.187499520077836 964.111328255909 L 50.16940646403236 964.0898416638956 L 49.969142784015276 963.8286407678388 L 49.94531225605169 963.5468748799758 L 50.32031232002191 962.9374996478437 L 50.32031232002191 962.6796871678089 L 50.104320000100415 962.5149439998204 L 49.079296000127215 962.5620479998761 L 47.92187494406244 962.0468746239203 L 47.85885286401026 961.9885803518118 L 47.62499993602978 961.7656248319545 L 47.5965440000291 961.4141439998639 L 48.29798400006257 960.7567359998357 L 49.648437248019036 960.4980469759321 L 49.75308800005587 960.381951999967 L 49.69041408004705 960.2178068478242 L 49.648437248019036 960.1015623678686 L 49.29687449603807 959.9824220158043 L 48.46093721606303 959.8886717439746 L 47.29773158405442 959.9355115518556 L 46.73437491210643 959.6308592639398 L 46.218749952095095 959.6308592639398 L 45.33248000009917 959.983615999925 L 44.52352000010433 960.1710079999757 L 43.757812736032065 960.097655807971 L 43.499520000012126 960.030719999806 L 43.31249971210491 959.8671871999395 L 43.26966579211876 959.7026652159402 L 43.229184000054374 959.5381760000018 L 43.13281228806591 959.3671874559368 L 43.015624704014044 959.1640627198503 L 42.5820160000585 958.7415039999178 L 42.55972864001524 958.6758461438585 L 42.54687539214501 958.6308597759344 L 42.50112000008812 958.5070079998113 L 42.58593792002648 957.9667967998539 L 43.39062476804247 956.4199219199363 L 43.14843750401633 956.1855467520072 L 42.79687475209357 956.2089840639383 L 42.203124736086465 956.490234879835 L 41.287971840123646 957.4980464638211 L 41.20312524802284 957.4980464638211 L 40.66406297608046 957.5683594238944 L 40.05468774412293 957.5332034559106 L 39.428096000046935 957.4993919999106 L 39.02343782404205 957.3574215678964 L 38.72665600001346 957.077503999928 L 38.619136000052094 956.8430079998216 L 38.5390622720588 956.1152348158066 L 36.544189440086484 956.2336870399886 L 35.62499993602978 955.998047231813 L 34.57536000007531 956.093440000026 L 33.63123200007249 956.2572799999034 L 32.79687475215178 955.9765626879525 L 32.9062502401066 955.3906247679843 L 33.60460800002329 954.8042239999049 L 34.06233600009 954.592255999858 L 34.331648000108544 954.2881279999856 L 34.41406259208452 954.1464842238929 L 34.41406259208452 953.8417971199378 L 34.16985600005137 953.6317439998384 L 33.43750041606836 953.654296575929 L 32.741376000107266 953.8437119999435 L 32.390625280095264 953.8437119999435 L 32.390625280095264 953.4687498238636 L 32.92968755203765 952.9062502398738 L 33.03906201617792 952.5527347198804 L 32.98437529604416 952.3183595519513 L 31.07031244802056 951.6171878398163 L 30.960937984054908 951.3828126718872 L 30.179687424155418 950.7011717119603 L 29.69423872011248 951.1698032639688 L 29.289062400057446 951.1250001920271 L 29.156249600055162 950.9843752959277 L 29.450172416109126 950.1773557760171 L 29.611008000036236 949.7405439998838 L 29.53124966408359 949.3417973758769 L 28.960937984113116 949.4609377279412 L 28.367187968164217 949.742187519907 L 28.155904000042938 950.0467199999257 L 27.77804800006561 950.3272959998576 L 27.589632000017446 950.2812159998575 L 26.8072960000718 949.6719359998242 L 26.268672000151128 949.5306239999481 L 25.945312256051693 949.1562495998805 L 25.971712000027765 948.6868479998084 L 25.012126720044762 947.8399846398388 L 24.273437696043402 947.1855472638272 L 23.086080000037327 946.9992959998781 L 22.78915584011702 946.8825743358466 L 23.00781260803342 946.3203123199055 L 22.977536000078544 946.0142079998623 L 22.843750400061253 945.8730465279077 L 22.30468710407149 945.8964848639444 L 21.278720000118483 946.2497279999079 L 21.1083376641036 946.3889479678473 L 20.843750400061253 946.6015621118713 L 20.632576000120025 947.0238719999325 L 20.578124800056685 947.890624511987 L 20.281734144024085 948.103167999885 L 18.421874688123353 948.1035151358228 L 18.203124736028258 948.2207027198165 L 17.694720000145026 948.7841279998538 L 17.42187520005973 949.4628904960118 L 16.993164288054686 949.5798118399107 L 16.617200640030205 949.253773311968 L 16.6328125440632 949.0996090878616 L 16.63631564809475 949.031298047863 L 16.64307200006442 948.947967999964 L 17.34375014412217 948.0820316158934 L 17.42438400007086 947.1191039998084 L 17.560120320122223 946.9752524798969 L 17.804687360068783 946.7207034878666 L 17.994386432110332 946.564416512032 L 18.151424000097904 946.4381439998397 L 19.203072000062093 946.4145919998991 L 19.500032000010833 946.2271999998484 L 20.01100800005952 945.2421119998326 L 20.253696000145283 945.0547199999564 L 21.17187481606379 944.796874751919 L 21.547224064124748 944.4921702399151 L 22.51878400001442 944.4433919999283 L 22.51878400001442 944.2559999999357 L 21.979136000038125 943.8576639998937 L 21.627904000051785 943.4593279998517 L 21.508196352107916 943.0826188799692 L 21.414062080031727 942.7792967678979 L 21.196800000034273 942.6851839998271 L 21.031249920022674 942.732422143803 L 20.86912409606157 943.2976691199001 L 20.73907200002577 943.7409279998392 L 20.442112000018824 944.0696319999406 L 19.25632000004407 944.4915199999232 L 18.92968755203765 944.796874751919 L 18.718123008147813 944.8671877118177 L 18.39376076805638 944.8671877118177 L 18.042880000022706 944.7270399999688 L 17.800192000053357 944.1638399999356 L 17.7974261760246 944.1653473278857 L 17.79687526402995 944.1640622078557 L 17.58412800001679 944.2815999998711 L 17.31249971210491 945.0332026879187 L 17.10040883201873 945.1720683518797 L 16.669657088117674 945.2429742079112 L 15.912960000045132 944.8447999999044 L 15.132812288065907 944.6328125438886 L 14.672896000032779 944.2590719998116 L 13.726562304073013 944.6582026238902 L 12.83993600012036 945.3148159998236 L 12.140624896099325 945.4082027519471 L 12.03125043201726 945.4550783999148 L 11.984374784049578 945.4062499838765 L 11.743456256052013 945.1792721918318 L 11.518976000021212 944.9635839998955 L 11.383808000013232 944.7065599999041 L 11.438080000050832 944.3778559998027 L 12.596224000037182 943.3692159998463 L 13.164062720083166 942.7597660158062 L 13.22957107203547 942.6123714559944 L 13.323264000064228 942.4076799999457 L 13.430784000142012 941.7277439999161 L 13.323264000064228 941.5628799999249 L 13.430784000142012 941.0242559998878 L 13.616260096023325 940.741164031846 L 13.648437248077244 940.6953123839921 L 13.890057216049172 940.6251653119107 L 14.158848000108264 940.6719999998459 L 15.585937408031896 940.5546874878928 L 17.179687936033588 940.107421695895 L 18.47193600004539 939.6152319998946 L 18.957312000042293 939.2158719999716 L 18.976313344028313 938.1365862399689 L 18.98437529610237 937.7617182718823 L 19.2265625600121 937.5507814398152 L 21.273437184048817 937.1523440638557 L 21.517312000039965 936.9640959999524 L 21.517312000039965 936.6118399999104 L 21.274624000128824 936.4951039998559 L 21.35937536007259 936.0957030399586 L 21.57056000008015 935.8612479998264 L 21.62499993602978 935.6269527038676 L 21.296874496038072 935.5566407678998 L 20.950016000017058 935.6738559999503 L 20.50517913606018 936.0975595518248 L 20.08593715209281 936.4941404158599 L 19.899392000050284 936.4715519999154 L 19.683328000071924 936.2841599998646 L 18.874368000077084 936.4490239998559 L 18.22656204813393 936.9882808319526 L 17.716224000032526 937.8324479999137 L 17.658204160048626 938.0843059199397 L 17.57812531205127 938.4179691518075 L 17.39404185611056 938.5947310079937 L 17.23084800003562 938.7479039998143 L 16.398412800044753 938.8652206079569 L 15.93750016001286 938.6074214398395 L 15.804687360010576 938.1621094398433 L 15.588192256109323 937.8953564158874 L 15.370240000018384 937.6225279998616 L 15.235072000010405 937.4822399998666 L 15.127552000107244 937.0132479998283 L 15.279065088019706 936.7376383999363 L 15.453124608029611 936.4257812479627 L 15.828124672058038 936.0761722878669 L 15.93750016001286 935.4414059518022 L 16.150528000085615 935.0666239999118 L 17.013760000118054 934.8782079998055 L 17.768448000075296 934.2689279999468 L 18.49548800010234 933.2367359998752 L 18.49548800010234 933.0954239999992 L 18.171904000046197 932.931583999889 L 17.445312512048986 932.8613283839659 L 15.044608000083826 933.777407999849 L 13.343750144122168 935.2558591999114 L 13.046900736051612 935.4433433598024 L 12.42968780809315 935.4199214079417 L 8.732672000071034 936.0742399998126 L 8.734374912106432 937.0546872319537 L 8.593750016123522 938.0664063999429 L 8.397824000101537 939.1851519998163 L 8.029184000042733 940.2900479999371 L 7.842123776033986 940.7060428798432 L 7.679767552064732 941.0623252478545 L 4.351562752097379 939.4746091518318 L 4.34892800002126 939.4749439999578 L 4.288512000057381 939.5271679998841 L 3.1830384640488774 939.4572431359557 L 2.8597125120577402 939.2931420159293 L 2.671875072061084 938.9648435198469 L 2.6972160000586882 938.7069439999177 L 3.8840320000308566 938.1437439998845 L 5.289062400057446 936.9238282238948 L 5.5196139520267025 936.3839139839401 L 5.674553344026208 936.0273407999193 L 5.809987584070768 935.7156577279675 L 5.960937472176738 935.3749995519756 L 5.960937472176738 935.0019532799488 L 5.957632000092417 935.0021734398324 L 5.957632000092417 935.0010879999609 L 5.607424000045285 935.0246399999014 L 4.257812480034772 935.9863306239131 L 3.343750144180376 936.0566405119025 L 1.022976000152994 934.7921919999644 L 0.8611840000376105 934.5576960000326 L 0.8717895681038499 934.202823679836 L 0.890625024039764 933.6660152319237 L 2.478080000029877 932.7749119998189 L 2.828125184169039 932.3066408958402 L 3.125000192085281 931.5546879999456 L 3.501056000124663 931.1795199998887 L 3.689472000056412 930.7576319999062 L 3.7199667200329714 930.5364469758933 L 3.7734379520989023 930.1718753278255 L 3.6093747200793587 929.7968752639717 L 2.745344000053592 928.9994239999796 L 2.6330777600524016 928.8046602239483 L 2.499999744060915 928.5664061438874 L 2.3437496320111677 928.2968750079162 L 2.2589440001174808 927.9211519998498 L 2.6093752320157364 926.0683591678971 L 2.446336000051815 925.6232959998306 L 1.8517524480703287 925.623047167901 L 1.6640000001643784 925.552640000009 L 1.2052480000420474 925.061119999853 L 0.882812928117346 923.794921471912 L 0.515624960011337 922.9980467198184 L 0.515624960011337 922.4335933438269 L 0.9531248640269041 921.5800780798891 L 1.2288000000989996 920.9098240000312 L 1.390624768100679 920.2070312958094 L 1.390624768100679 917.3710940159508 L 1.3608960001147352 916.1748479998787 L 0.9296875520958565 914.908203007828 L 0.5234370561083779 914.181640191935 L 0.4843745280522853 913.7128908799496 L 0.6174720000708476 913.0567680000095 L 0.11718758405186236 913.173828607949 L 0.11718758405186236 914.0391813119641 L 0.0 913.8428407075407" fill="none"/><path stroke="#000000" stroke-width="2" d="M 0.0 336.1600819956111 L 0.10156236804323271 336.16601599985734 L 3.281250304018613 336.2695311359712 L 10.24218726408435 336.6777343999129 L 18.74218700802885 337.0878904319252 L 24.476562432013452 337.39648409589427 L 31.335937024035957 337.80468735983595 L 34.7187496960978 338.0097658878658 L 45.6718745600665 338.52148428792134 L 51.507812352094334 338.8300779518904 L 55.29687449609628 339.03320268780226 L 58.47656243207166 339.1367188479635 L 66.359374848078 339.5468748799758 L 72.09375027206261 339.85351577587426 L 86.53125017601997 340.57031270401785 L 98.82031206408283 341.1835934718838 L 111.3124997120467 341.79882803198416 L 118.47656243201345 342.1054689278826 L 122.57812480011489 342.20898406399647 L 148.4843745281105 343.642577919818 L 155.96093747217674 344.0507811839343 L 160.67187507206108 344.3593748479034 L 171.52343756816117 344.76757811184507 L 182.89062502409797 345.38281164783984 L 186.47656243201345 345.6894535678439 L 194.25781248003477 346.2011719678994 L 198.55468748812564 346.5097656318685 L 205.82812467211625 346.9179688958102 L 208.8984371200204 347.02148403192405 L 227.53906278405339 348.0449218559079 L 231.53124966402538 348.25000038393773 L 237.87500032002572 348.55664025596343 L 255.28906240005745 349.3769533438608 L 262.25000038405415 349.7851566078025 L 267.3671874560532 350.0937502720044 L 283.64843724801904 351.0156247038394 L 286.92968755203765 351.11718707188265 L 295.6328120320104 351.5273441278259 L 309.8671872000559 352.44726579182316 L 318.2656245760154 352.75585945596686 L 332.39062528009526 353.4726563838776 L 366.1874995200196 355.4179686399293 L 376.5312501760782 356.03320319985505 L 379.70312499202555 356.2382817278849 L 384.10937548807124 356.44140646397136 L 395.06250035203993 356.9531248640269 L 397.6249999360298 357.1582033918821 L 409.2968744960963 357.66992179193767 L 415.33593702409416 357.97851545590675 L 434.8984371201368 359.0019532798906 L 444.62500044802437 359.4121093119029 L 454.0468746240367 359.92382771195844 L 474.42187468806515 360.9472655360005 L 489.7812500480795 361.66406246391125 L 496.84375040006125 362.07421849592356 L 501.7656248320127 362.2792970239534 L 512.007812096097 362.7910154238343 L 532.6875002880115 364.3261716478737 L 535.8593751040753 364.53125017590355 L 541.7031249920256 364.83984383993084 L 552.7578122240957 365.5546879999456 L 563.9218749441206 366.16992153588217 L 573.4453125121072 366.58007859182544 L 584.1953126401058 367.091796991881 L 593.3124997121049 367.6035153919365 L 610.2031247360283 368.62695321592037 L 618.8046878720634 369.1406254079775 L 624.539062272117 369.34375014383113 L 635.3984378881287 369.9589847039315 L 640.109375488013 370.3691407359438 L 649.4218752001179 370.88085913599934 L 655.0546872320701 370.16406220785575 L 658.3359375360305 371.39257855992764 L 665.2968744960381 371.80273459193995 L 668.8828129280591 372.0058593278518 L 675.7421875200816 371.5976560639101 L 695.5078123520361 373.5429683199618 L 700.8281251840526 373.1328122879495 L 703.6953128961613 373.43945318384795 L 707.3828126720618 374.56640614394564 L 717.5234375681612 375.5917967358837 L 722.4374999040156 376.0 L 725.4062499841093 375.3867192319012 L 738.6171873280546 376.2050785278552 L 741.6874997760751 376.4101560320123 L 746.3984373760759 376.71679692791076 L 751.8281246721162 377.0234378238092 L 762.8828129281173 377.6386723838514 L 768.5156249601278 378.0488284158637 L 791.5546880001784 379.3789061118732 L 820.9453127681627 381.0175784959574 L 832.7187496960396 381.7343754238682 L 840.0937502720626 382.1445314558805 L 845.4218752001179 382.5546874878928 L 847.8750003200839 382.5546874878928 L 855.4531246080878 382.9628907518345 L 864.0546877441229 383.4765629438916 L 866.718749696156 383.6796876799199 L 869.5859374080319 383.88476518390235 L 884.1249996800907 384.4999997439445 L 889.4531246080296 385.4218751999433 L 896.8203120640246 385.830078463885 L 903.1718748160638 386.03515596780926 L 923.4453125121072 387.16210892796516 L 936.9609379841713 387.8789058558759 L 947.6171878400492 388.49218764784746 L 957.2421877761371 389.1074222079478 L 966.7578122240375 389.61914060794516 L 971.7812500480213 389.92773427197244 L 984.6796871680417 390.6445311998832 L 999.4296872960404 391.66796902386704 L 1018.4765624320135 392.6914058238035 L 1024.0 392.9925101552726" fill="none"/><path stroke="#000000" stroke-width="2" d="M 1024.0 392.9925101553308 L 1018.4765624320135 392.6914058239199 L 999.4296872960404 391.66796902392525 L 984.6796871680417 390.6445311999414 L 971.7812500480213 389.92773427197244 L 966.7578122240375 389.61914060794516 L 957.2421877760207 389.1074222079478 L 947.6171878400492 388.4921876479639 L 936.9609379840549 387.87890585593414 L 923.445312512049 387.16210892796516 L 903.1718748160638 386.0351559679257 L 896.8203120640246 385.8300784639432 L 889.4531246080296 385.4218751999433 L 884.1249996800325 384.4999997439445 L 869.5859374080319 383.88476518396055 L 866.7187496960396 383.6796876799199 L 864.0546877440647 383.47656294394983 L 855.4531246080296 382.9628907519509 L 847.8750003200257 382.554687487951 L 845.4218752000597 382.554687487951 L 840.0937502720626 382.1445314559387 L 832.7187496960396 381.7343754239264 L 820.9453127680463 381.0175784959574 L 791.554688000062 379.3789061119314 L 768.5156249600113 378.0488284159219 L 762.8828129280591 377.6386723839678 L 751.828124672058 377.02343782392563 L 746.3984373760177 376.71679692796897 L 741.6874997760169 376.4101560319541 L 738.6171873280546 376.20507852797164 L 725.4062499840511 375.38671923195943 L 722.4374999040156 375.9999999999418 L 717.5234375680448 375.5917967359419 L 707.3828126720618 374.56640614394564 L 703.6953128960449 373.43945318396436 L 700.8281251840526 373.1328122879495 L 695.5078123520361 373.5429683199618 L 675.7421875200234 371.5976560639683 L 668.8828129280591 372.0058593279682 L 665.2968744960381 371.80273459193995 L 658.3359375360305 371.39257855992764 L 655.0546872320119 370.16406220797217 L 649.4218752000597 370.88085913594114 L 640.109375488013 370.3691407359438 L 635.3984378880123 369.9589847039315 L 624.5390622720588 369.34375014394755 L 618.8046878720634 369.1406254079193 L 610.2031247360283 368.62695321592037 L 593.3124997120467 367.6035153919365 L 584.1953126400476 367.0917969919392 L 573.445312512049 366.58007859194186 L 563.9218749440624 366.1699215359404 L 552.7578122240375 365.5546879999456 L 541.7031249920256 364.83984383993084 L 535.8593751040171 364.53125017596176 L 532.6875002880115 364.3261716479319 L 512.0078120960388 362.79101542395074 L 501.7656248320127 362.2792970239534 L 496.84375040006125 362.07421849592356 L 489.7812500480213 361.66406246396946 L 474.42187468806515 360.9472655359423 L 454.0468746240367 359.92382771195844 L 444.62500044802437 359.4121093119611 L 434.8984371200204 359.0019532799488 L 415.33593702403596 357.97851545596495 L 409.2968744960381 357.66992179193767 L 397.6249999360298 357.15820339194033 L 395.06250035203993 356.9531248639687 L 384.10937548801303 356.44140646397136 L 379.70312499202555 356.2382817279431 L 376.53125017601997 356.03320319997147 L 366.1874995200196 355.4179686399293 L 332.39062528003706 353.4726563839358 L 318.2656245760154 352.75585945596686 L 309.8671872000559 352.44726579193957 L 295.6328120320104 351.52734412794234 L 286.92968755203765 351.11718707194086 L 283.64843724801904 351.01562470395584 L 267.3671874560532 350.0937502719462 L 262.25000038405415 349.7851566079189 L 255.28906240005745 349.376953343919 L 237.87500032002572 348.55664025596343 L 231.53124966402538 348.25000038393773 L 227.53906278405339 348.0449218559661 L 208.8984371200204 347.02148403192405 L 205.82812467205804 346.9179688959266 L 198.55468748806743 346.5097656319267 L 194.25781248003477 346.20117196795763 L 186.47656243201345 345.6894535679603 L 182.89062502403976 345.38281164795626 L 171.52343756804476 344.7675781119615 L 160.67187507206108 344.3593748479616 L 155.96093747206032 344.0507811839343 L 148.48437452805229 343.6425779199344 L 122.57812480005668 342.20898406393826 L 118.47656243201345 342.1054689279408 L 111.3124997120467 341.79882803192595 L 98.82031206402462 341.183593471942 L 86.53125017601997 340.57031270395964 L 72.09375027206261 339.85351577593246 L 66.3593748480198 339.5468748799758 L 58.47656243201345 339.1367188479635 L 55.29687449603807 339.0332026879187 L 51.507812352036126 338.8300779519486 L 45.6718745600665 338.52148428792134 L 34.718749696039595 338.009765887924 L 31.335937024035957 337.80468735995237 L 24.476562432013452 337.3964840959525 L 18.74218700802885 337.0878904319252 L 10.242187264026143 336.6777343999711 L 3.281250304018613 336.2695311359712 L 0.10156236804323271 336.16601599997375 L 0.0 336.1600819957275" fill="none"/><path stroke="#408040" stroke-width="3" d="M 1024.0 670.1444044099153 L 1012.5209599999944 665.1289599999982 L 965.703680000006 665.6614399999999 L 917.0329599999968 678.6355199999998 L 842.1580799999938 660.1011199999994 L 768.7679999999964 646.0723199999993 L 588.2880000000005 601.8559999999998 L 548.6796800000011 579.1743999999999 L 495.3087999999989 576.9830399999992 L 367.9948799999984 577.9455999999991 L 268.8000000000029 567.5622399999993 L 195.9936000000016 544.0204799999992 L 54.04671999999846 529.2236799999991 L 11.212799999993877 522.6291200000014 L 0.0 523.5713295324167" fill="none"/></svg>