<svg xmlns="http://www.w3.org/2000/svg" width="1024" height="1024"><rect stroke="none" x="0" y="0" width="1024" height="1024" fill="white"/><path stroke="#000000" stroke-width="2" d="M 1024.0 1016.0021433588336 L 1023.898437632015 1015.9999999999418 L 1017.9609374720603 1015.8984376319568 L 1002.8046878720634 1015.9999999999418 L 981.8125004800386 1015.9999999999418 L 958.0546877440647 1015.5898439679295 L 953.0390620160615 1015.4882815999445 L 917.5078123520361 1015.4882815999445 L 895.898437632015 1015.3867192319594 L 884.2265620480175 1015.285155839927 L 879.6171878400492 1015.285155839927 L 860.0624998400453 1014.976562175958 L 850.9453127680463 1014.8749998079729 L 835.3828126720618 1014.7734374399297 L 830.4687503360328 1014.6679685119307 L 811.3203128320165 1014.6679685119307 L 807.3281249280553 1014.5664061439456 L 800.3593748480198 1014.5664061439456 L 796.0624998400453 1014.6679685119307 L 774.6562498560525 1014.3632814079756 L 766.7734374400461 1014.2578124799184 L 759.7109370880644 1014.2578124799184 L 755.4062499840511 1013.9531253759633 L 751.0078126080334 1013.85156300792 L 748.1406248960411 1013.746094079921 L 744.9609379840549 1013.9531253759633 L 738.8203120640246 1013.746094079921 L 729.6015626240405 1013.5429683199618 L 727.2499998720596 1013.5429683199618 L 724.281249792024 1013.644531711936 L 722.0234373120475 1013.5429683199618 L 719.6718745600665 1013.4414059519186 L 712.2968750080327 1013.4414059519186 L 704.4140625920263 1013.3398435839335 L 694.3750000640284 1013.2343746559345 L 689.0546872320119 1013.2343746559345 L 681.9843747840496 1013.3359370239195 L 679.8359377920278 1013.3398435839335 L 670.0078120960388 1013.2343746559345 L 661.6093747200212 1013.1328122879495 L 652.7031255040201 1013.0312499199645 L 647.9921879040194 1013.0312499199645 L 643.4843750400469 1012.9296875519212 L 639.898437632015 1012.8281251839362 L 635.2890624000574 1012.8242186239222 L 623.4140620800317 1012.7226562559372 L 614.914062336029 1012.6210938879522 L 611.2265625600121 1012.6210938879522 L 606.5156249600113 1012.5195315199671 L 598.3281254400499 1012.4179691519239 L 593.9218749440624 1012.4179691519239 L 586.1406248960411 1012.3125002239249 L 573.648437248019 1012.1093754879548 L 553.9843747840496 1011.9023441919708 L 549.4843750400469 1011.8007807999384 L 542.9296875520376 1011.6992184319533 L 534.4296878080349 1011.4960936959251 L 528.5937500160653 1011.5976560639683 L 523.7812500480213 1011.5976560639683 L 515.1796879360336 1011.4960936959251 L 510.6718750720611 1011.5976560639683 L 508.10937548801303 1011.5976560639683 L 500.3281254400499 1011.289062399941 L 492.9531248640269 1011.187500031956 L 489.6796876800363 1011.187500031956 L 486.812499968044 1011.085937663971 L 484.14843699202174 1011.187500031956 L 481.6953128960449 1011.085937663971 L 478.4140625920263 1011.085937663971 L 471.65625036804704 1010.9843752959277 L 451.1796879360336 1010.9843752959277 L 445.85156300803646 1010.7773439999437 L 436.74218700802885 1010.6757816319587 L 429.46874982403824 1010.6757816319587 L 422.60937523201574 1010.4726558719412 L 417.0781245440594 1010.3671879679314 L 414.3125002240413 1010.3671879679314 L 401.61718784004916 1010.2656245759572 L 382.7734374400461 1010.2656245759572 L 379.1875000320142 1010.1640622079722 L 366.5937500160653 1009.8554685439449 L 363.1171870720573 1009.8554685439449 L 358.914062336029 1009.7539061759599 L 349.5937495040125 1009.7539061759599 L 343.96874956804095 1009.6523438079748 L 335.57031219202327 1009.5507814399316 L 322.46093721606303 1009.3437501439475 L 316.00781209603883 1009.3437501439475 L 311.77608192001935 1009.2749414399732 L 303.51562547206413 1009.1406254079193 L 299.2187504640315 1009.1406254079193 L 295.5312496640254 1009.3437501439475 L 283.74999961606227 1009.3437501439475 L 281.2968744960381 1009.6523438079748 L 278.3281254400499 1009.2421877759625 L 272.4921876480221 1009.3437501439475 L 267.46874982403824 1009.3437501439475 L 263.9921879040194 1009.0390620159451 L 255.79687526402995 1009.0390620159451 L 237.7734379520407 1008.9335941119352 L 219.1406254080357 1008.9335941119352 L 207.57031219202327 1008.730468351976 L 198.14843699202174 1008.5234370559338 L 194.76562534406548 1008.3203123199637 L 190.16406220803037 1008.3203123199637 L 184.3203123200219 1008.2187499519205 L 180.02343731204746 1008.1171875839354 L 163.53906278405339 1007.8085939199664 L 159.85156300803646 1007.6054691839381 L 155.1406254080357 1007.8085939199664 L 148.78906265605474 1007.5000002559391 L 142.03125043201726 1007.5000002559391 L 135.6796876800363 1007.6054691839381 L 127.79687526402995 1007.5000002559391 L 124.42187468806515 1007.5000002559391 L 118.89062502403976 1007.3984378879541 L 109.16406272002496 1007.2968744959217 L 104.96093798405491 1007.1953121279366 L 101.78906214406015 1007.2968744959217 L 96.25781248003477 1007.0898442239268 L 90.11718758405186 1006.9882808319526 L 78.75000012805685 1006.9882808319526 L 70.65624985605245 1006.8867225599242 L 54.687500288011506 1006.7851560959243 L 48.03125043201726 1006.5781247999403 L 41.37499955203384 1006.4765624319552 L 36.46093721606303 1006.4765624319552 L 29.70312499202555 1006.3750000639702 L 18.843750400061253 1006.273437695927 L 14.851562496041879 1006.171875327942 L 11.57812531205127 1005.6562503679306 L 9.218750464031473 1006.171875327942 L 5.125000192027073 1006.0664063999429 L 0.515624960011337 1005.9648440319579 L 0.0 1005.9714028538219" fill="none"/><path stroke="#000000" stroke-width="2" d="M 0.0 1005.9714028538147 L 0.515624960011337 1005.9648440319579 L 5.125000192143489 1006.0664063998265 L 9.21875046408968 1006.171875327942 L 11.57812531205127 1005.6562503678142 L 14.851562496041879 1006.171875327942 L 18.84375040011946 1006.273437695927 L 29.70312499202555 1006.3750000639702 L 36.46093721612124 1006.4765624318388 L 41.37499955215026 1006.4765624318388 L 48.03125043201726 1006.5781247998821 L 54.687500288069714 1006.7851560958079 L 70.65624985611066 1006.886722559866 L 78.75000012811506 1006.9882808318944 L 90.11718758405186 1006.9882808318944 L 96.25781248009298 1007.0898442238104 L 101.78906214406015 1007.2968744958634 L 104.96093798405491 1007.1953121278202 L 109.16406272002496 1007.2968744958634 L 118.89062502415618 1007.3984378880123 L 124.42187468806515 1007.5000002558227 L 127.79687526402995 1007.5000002558227 L 135.6796876800363 1007.6054691839381 L 142.03125043207547 1007.5000002558227 L 148.78906265605474 1007.5000002558227 L 155.1406254080939 1007.8085939200246 L 159.85156300803646 1007.6054691839381 L 163.5390627841116 1007.8085939200246 L 180.02343731204746 1008.117187583819 L 184.32031232008012 1008.2187499518623 L 190.16406220803037 1008.3203123198473 L 194.7656253441237 1008.3203123198473 L 198.14843699207995 1008.5234370559338 L 207.57031219202327 1008.7304683518596 L 219.1406254080357 1008.933594111877 L 237.7734379520407 1008.933594111877 L 255.79687526408816 1009.0390620158869 L 263.9921879040194 1009.0390620158869 L 267.46874982403824 1009.3437501438893 L 272.4921876480221 1009.3437501438893 L 278.3281254400499 1009.2421877758461 L 281.2968744960381 1009.6523438078584 L 283.74999961606227 1009.3437501438893 L 295.5312496640836 1009.3437501438893 L 299.2187504640315 1009.1406254078029 L 303.51562547206413 1009.1406254078029 L 311.77608192001935 1009.2749414400314 L 316.00781209603883 1009.3437501438893 L 322.46093721606303 1009.3437501438893 L 335.5703121920815 1009.5507814398152 L 343.96874956804095 1009.6523438078584 L 349.59374950407073 1009.7539061759016 L 358.9140623360872 1009.7539061759016 L 363.1171870720573 1009.8554685439449 L 366.5937500161235 1009.8554685439449 L 379.1875000320142 1010.164062207914 L 382.7734374400461 1010.2656245759572 L 401.61718784004916 1010.2656245759572 L 414.3125002240995 1010.3671879678732 L 417.0781245440594 1010.3671879678732 L 422.60937523207394 1010.472655871883 L 429.46874982409645 1010.6757816318423 L 436.74218700802885 1010.6757816318423 L 445.85156300803646 1010.7773439998855 L 451.1796879360336 1010.9843752958113 L 471.65625036804704 1010.9843752958113 L 478.4140625921427 1011.0859376638546 L 481.6953128960449 1011.0859376638546 L 484.14843699202174 1011.1875000318978 L 486.8124999681022 1011.0859376638546 L 489.6796876800363 1011.1875000318978 L 492.9531248640269 1011.1875000318978 L 500.3281254400499 1011.289062399941 L 508.10937548807124 1011.5976560639101 L 510.6718750720611 1011.5976560639101 L 515.1796879360918 1011.4960936958669 L 523.7812500480213 1011.5976560639101 L 528.5937500161235 1011.5976560639101 L 534.4296878080349 1011.4960936958669 L 542.9296875520959 1011.6992184319533 L 549.4843750401051 1011.800780799822 L 553.9843747841078 1011.9023441919126 L 573.648437248019 1012.1093754878966 L 586.1406248961575 1012.3125002239249 L 593.9218749440624 1012.4179691518657 L 598.3281254401081 1012.4179691518657 L 606.5156249600695 1012.5195315199089 L 611.2265625601285 1012.6210938879522 L 614.914062336029 1012.6210938879522 L 623.4140620800899 1012.7226562559372 L 635.2890624001157 1012.8242186238058 L 639.898437632015 1012.828125183878 L 643.4843750400469 1012.9296875519212 L 647.9921879040776 1013.0312499199645 L 652.7031255040201 1013.0312499199645 L 661.6093747200794 1013.1328122879495 L 670.007812096097 1013.2343746558181 L 679.8359377920278 1013.3398435839335 L 681.9843747840496 1013.3359370238613 L 689.0546872320701 1013.2343746558181 L 694.3750000640866 1013.2343746558181 L 704.4140625920845 1013.3398435839335 L 712.2968750080327 1013.4414059519768 L 719.6718745600665 1013.4414059519768 L 722.0234373121639 1013.5429683199618 L 724.2812497920822 1013.644531711936 L 727.2499998720596 1013.5429683199618 L 729.6015626240987 1013.5429683199618 L 738.820312064141 1013.7460940798046 L 744.9609379841131 1013.9531253759051 L 748.1406248960411 1013.7460940798046 L 751.0078126080916 1013.8515630078618 L 755.4062499840511 1013.9531253759051 L 759.7109370880644 1014.2578124798601 L 766.7734374400461 1014.2578124798601 L 774.6562498561107 1014.3632814079174 L 796.0624998401036 1014.6679685118725 L 800.3593748480198 1014.5664061438292 L 807.3281249281717 1014.5664061438292 L 811.3203128320747 1014.6679685118725 L 830.468750336091 1014.6679685118725 L 835.38281267212 1014.7734374399297 L 850.9453127681045 1014.8749998079729 L 860.0624998400453 1014.9765621758415 L 879.6171878401074 1015.2851558398106 L 884.2265620481339 1015.2851558398106 L 895.8984376320732 1015.3867192319012 L 917.5078123520943 1015.4882815999445 L 953.0390620161779 1015.4882815999445 L 958.0546877440647 1015.5898439678131 L 981.8125004800386 1015.9999999998254 L 1002.8046878720634 1015.9999999998254 L 1017.9609374721767 1015.8984376319568 L 1023.8984376320732 1015.9999999998254 L 1024.0 1016.0021433587171" fill="none"/></svg>