<svg xmlns="http://www.w3.org/2000/svg" width="1024" height="1024"><rect stroke="none" x="0" y="0" width="1024" height="1024" fill="white"/><path stroke="#000000" stroke-width="2" d="M 264.7288847892487 1024.0 L 264.3984373760177 1022.656249855936 L 263.1718748160638 1018.2539059199626 L 263.2734371840488 1014.4648437759606 L 265.1171870720573 1011.085937663971 L 267.46874982403824 1008.6289059839328 L 269.10937497601844 1007.3984378879541 L 276.38281216000905 1002.3828121599508 L 279.4531246080296 999.7187502079178 L 282.52343705605017 996.6484377599554 L 284.06249984004535 994.1874995199614 L 284.4687503360328 991.5273441279423 L 281.9140628480236 989.2734371839324 L 276.5859379200265 987.6367185919662 L 274.6406246400438 986.20312473597 L 272.5937500160071 984.9726566399331 L 269.7265623040148 984.2578124799184 L 266.8593745920225 984.3593748479616 L 262.96875008003553 983.1289067519247 L 262.4531251200242 978.8281251839362 L 264.29687500803266 975.6562503679306 L 265.7343754240428 973.4023434239207 L 267.7812500480213 971.5585935359704 L 270.4453120000544 969.2031252479646 L 270.5468753920286 964.6992189439479 L 266.34374963201117 960.2929684479604 L 264.29687500803266 955.6874997759587 L 262.8671877120505 951.7968752639717 L 260.8203120640246 949.5429683199618 L 256.51562496001134 946.5742182399263 L 251.80468736001058 942.6835937279393 L 250.57812480005668 940.8398438399308 L 250.06249984004535 936.7421870079706 L 251.70312499202555 932.031250431959 L 254.57031270401785 928.9609379839385 L 260.10156236804323 923.7382809599512 L 264.19531264004763 921.1796879359754 L 269.0078126080334 917.9023441919708 L 281.5000002560555 915.1367188479635 L 284.3671879680478 914.6250004479662 L 290.8203120640246 913.6015626239241 L 297.1718748160638 913.4960936959251 L 303.61718784004916 912.3710935039562 L 309.7656248320127 910.2226565119345 L 312.83593728003325 908.378906623926 L 316.7265628160094 908.5820313599543 L 320.21093785605626 910.3242188799195 L 322.96875008003553 911.4492190719466 L 326.96875008003553 911.1445309439441 L 329.52343756804476 908.7890626559383 L 331.6796876800363 906.6367191039608 L 334.43749990401557 905.1015628799214 L 337.7187502080342 904.7929692159523 L 341.9140628480236 904.5898434559349 L 345.39843788801227 902.3359375359723 L 347.34375014400575 898.6484377599554 L 348.88281292805914 896.3984373759595 L 352.7734374400461 893.7343754239264 L 356.46093721606303 891.4804684799747 L 361.88281241600635 888.6132807679242 L 367.4140620800317 885.5429683199618 L 371.20312524802284 884.8242186239222 L 375.19531212805305 880.7304683519178 L 378.06249984004535 878.171875327942 L 381.0312499200227 879.6015626239241 L 383.1875000320142 881.9570309119299 L 387.1796879360336 888.7187496959232 L 389.84374988800846 890.2539059199626 L 393.3203128320165 890.558594047965 L 398.1328128000605 888.4101560319541 L 401.1015628800378 886.8749998079729 L 403.96874956804095 884.7226562559372 L 408.5781248000567 881.4453125119326 L 411.34375014400575 879.1953121279366 L 416.0546877440065 877.3515622399282 L 419.5390627840534 876.6328125439468 L 422.4062504960457 875.816406015947 L 424.9609379840549 874.8945315839374 L 428.6484377600136 873.9726561279385 L 430.4921876480221 872.1289062399301 L 432.9531248640269 870.6953123839339 L 437.7656248320127 868.9531248639687 L 440.9374996480183 868.7500001279404 L 446.97656217601616 869.1601561599527 L 450.46093721606303 868.4414064639714 L 453.6328120320104 867.5195310079725 L 457.3203128320165 868.6484377599554 L 460.60156211204594 869.2617185279378 L 464.179687424039 868.4414064639714 L 467.96874956804095 867.9296870399266 L 471.75781273603207 868.2382817279431 L 475.34375014400575 869.8750003199675 L 478.3125002240413 872.027343871945 L 482.4062504960457 872.027343871945 L 488.25000038405415 870.8984371199622 L 492.24218726402614 869.8750003199675 L 495.61718784004916 869.1601561599527 L 499.60937472002115 869.464843263966 L 503.8125004800386 871.2070307839313 L 507.70312499202555 873.9726561279385 L 510.0546877440065 876.7382814719458 L 510.2656245760154 878.8867184639676 L 506.6796871680417 881.4453125119326 L 504.53125017601997 882.5742182399263 L 501.7656248320127 886.3632814079756 L 502.5781248000567 891.3789061119314 L 505.75781273603207 893.3242183679249 L 509.9531253760215 894.0429690879537 L 518.3515627520392 892.097655807971 L 524.7031255040201 891.6874997759587 L 535.656250368047 886.0546877439483 L 539.2421877760207 883.6992184319533 L 542.5156249600113 881.8554685439449 L 545.3828126720618 881.1406254079193 L 549.2734371840488 880.9335941119352 L 552.8593745920225 881.3437501439475 L 555.1171870720573 882.4687503359746 L 557.164062720025 886.0546877439483 L 559.8203125760192 890.1523435519193 L 565.5625000960426 894.8593745919643 L 568.9374996480183 894.1445314559387 L 579.3828126720618 888.4101560319541 L 583.9921879040194 885.85156300792 L 586.5468753920286 884.4179691519239 L 589.7265623040148 881.8554685439449 L 593.3046876160079 878.5781247999403 L 596.078125056054 875.609374719963 L 599.4531246080296 873.7656248319545 L 602.0156252160086 873.1523440639721 L 605.2890624000574 872.9492183039547 L 608.7734374400461 873.0507816959289 L 613.3828126720618 873.8710937599535 L 619.0078126080334 875.609374719963 L 626.9999994880636 877.8632816639729 L 632.7343749120482 878.6835937279393 L 638.1640622080304 876.6328125439468 L 642.9765621760162 877.4531246079714 L 645.2265625600121 880.3203123199637 L 647.7890621440602 884.3125002239249 L 649.9375001600129 887.7968752639717 L 651.8828124160063 890.1523435519193 L 655.2578129920294 893.5312496639672 L 658.5390622720588 895.1679682559334 L 661.1015628800378 896.4999997439445 L 666.3203123200219 900.3906252799206 L 669.2890624000574 902.5429688319564 L 671.4375004160102 905.1015628799214 L 674.5156249600113 908.8906250239233 L 677.5859374080319 911.7578127359739 L 681.2734371840488 914.4179691519239 L 686.6953123840503 915.5468748799758 L 688.6406246400438 917.9023441919708 L 691.1015628800378 920.3593748479616 L 693.0468751360313 924.2500003839377 L 696.6328125440632 927.3203128319583 L 698.8828129280591 929.3710940159508 L 701.648437248019 932.8515624959255 L 704.2109378560563 935.6171878399327 L 707.3828126720618 938.6875002879533 L 709.5312496640254 942.8867184639676 L 710.8671877120505 946.4726558719412 L 710.1484369920217 948.9296875519212 L 708.2031247360283 951.4882815999445 L 706.3593748480198 953.0234378239256 L 703.0781245440594 955.0703124479624 L 700.7265628160094 958.453125119966 L 700.4218746880069 961.9335935999407 L 702.4687503360328 964.3906252799206 L 705.7421875200234 965.3124997119303 L 714.7578122240375 964.800781311933 L 718.5468753920286 965.7226557439426 L 720.9999994880636 967.2578129919712 L 722.9453127680463 969.6132812799187 L 724.8906250240398 972.0703129599569 L 730.4218746880069 973.9140628479654 L 734.2109378560563 975.5507814399316 L 738.1015623680432 976.4726558719412 L 742.4062504960457 975.9609374719439 L 745.9843747840496 978.4179691519239 L 746.6015621120459 983.8476564479643 L 746.8046878720634 987.0195312639698 L 748.3437496320112 989.9921879039612 L 750.9062502400484 994.0859371519182 L 754.5859379200265 997.464843263966 L 757.968749568041 999.3085941759637 L 766.4687503360328 1003.710937087948 L 772.2031247360283 1006.6835937279393 L 777.6328120320104 1008.2187499519205 L 780.8046878720634 1009.2421877759625 L 785.5156254720059 1009.2421877759625 L 789.4062499840511 1008.5234370559338 L 794.1171875840519 1008.7304683519178 L 800.1562501120497 1008.2187499519205 L 805.1718748160638 1008.0117186559364 L 807.9375001600129 1007.1953121279366 L 811.9375001600129 1006.273437695927 L 815.3124997120467 1005.4531246079714 L 818.6953123840503 1004.5312501759618 L 823.8125004800386 1003.5078123519197 L 826.9843752960442 1002.4843745279359 L 832.1015623680432 1000.3320309759583 L 835.2812503040186 999.1054684159462 L 838.8671877120505 997.7734379519243 L 842.2421872640261 995.9296870399266 L 846.0312504320173 995.6210933759576 L 852.281249792024 995.6210933759576 L 857.2968744960381 996.3398440959281 L 860.7812495360267 997.464843263966 L 863.0312499200227 998.4882810879499 L 865.6953128960449 999.4101565439487 L 869.3828126720618 998.2851563519216 L 872.2500003840541 994.4960942079197 L 872.2500003840541 990.1953126399312 L 874.2968750080327 987.5312496639672 L 876.4453120000544 986.4062504959293 L 878.8984371200204 985.6914063359727 L 881.8750003200257 982.4140625919681 L 883.4062499840511 978.1132810239214 L 883.3046876160079 974.835937279975 L 882.6875002880115 968.2812497919658 L 884.6328125440632 961.8320312319556 L 888.3203123200219 956.6093752319575 L 890.2656245760154 953.1250001919689 L 891.9062497280538 950.5664061439456 L 895.1875000320142 944.6289059839328 L 899.2812503040186 935.1054684159462 L 902.9687500800355 930.6992189439479 L 906.6562498560525 925.5820308479597 L 903.6796876800363 920.6679685119307 L 900.8203120640246 919.1289067519247 L 897.4375004160102 915.85156300792 L 897.5390627840534 911.0390620159451 L 900.2031247360283 906.6367191039608 L 902.6562498560525 905.0000005119364 L 910.8515624960419 901.1093749759602 L 920.1718753280584 900.1874995199614 L 923.0390620160615 895.9882813439472 L 924.7812495360267 891.5859374079737 L 926.4140625920263 887.9999999999418 L 928.3593748480198 883.289062399941 L 930.2031247360283 879.6015626239241 L 932.8671877120505 876.1210941439494 L 935.5312496640254 873.7656248319545 L 939.2187504640315 867.6210933759576 L 944.4374999040156 857.7929687039577 L 948.0234373120475 849.7031249919673 L 954.3671879680478 838.9492183039547 L 959.4921871360275 832.6015621119295 L 963.1796879360336 829.7343754239264 L 968.7031255040201 827.9921879039612 L 972.8046878720634 826.3554682879476 L 976.078125056054 825.2304691199679 L 976.078125056054 772.0820316159516 L 975.7734379520407 767.6796876799199 L 974.6484377600136 747.609374719963 L 974.4453120000544 734.8085934079718 L 974.4453120000544 726.3125002239249 L 974.5468753920286 721.19140659197 L 974.8515624960419 715.1484375039581 L 976.078125056054 700.5078128639725 L 975.8750003200257 698.2539059199626 L 975.2578129920294 690.5742182399263 L 975.4687498240382 684.1210941439494 L 975.6718745600083 673.8828124159481 L 976.4921876480221 643.1601561599527 L 976.6953123840503 639.8867189759621 L 976.8984371200204 633.4335938559379 L 976.9999994880636 626.3671879679314 L 977.1015628800378 623.5000002559391 L 977.1015628800378 598.6171873279382 L 977.1015628800378 570.3554682879476 L 976.8984371200204 551.3085941759637 L 976.289062912052 537.8945310719428 L 975.4687498240382 526.5273436159478 L 974.4374999040156 512.3984373759595 L 973.9296870400431 492.4296878079185 L 974.0312504320173 483.10937497596024 L 974.1328128000605 477.07031244796235 L 973.9296870400431 457.1015628799214 L 973.828124672058 445.94140671996865 L 973.7265623040148 435.28906239994103 L 973.6249999360298 430.7851560959243 L 973.5234375680448 421.16015615995275 L 973.3124997120467 400.7812495359685 L 973.1093749760184 387.98046924796654 L 972.6015621120459 383.98828134394716 L 972.390625280037 360.6406246399274 L 972.1874995200196 352.75390668795444 L 972.1874995200196 341.082031103957 L 972.0859371520346 325.4140620799735 L 972.0859371520346 258.24218726396793 L 972.4921876480221 255.47656294394983 L 972.390625280037 232.43359334394336 L 972.289062912052 207.44921907194657 L 972.289062912052 194.85546905593947 L 972.1874995200196 190.453125119966 L 972.1874995200196 187.78906214394374 L 972.289062912052 185.02343782392563 L 972.1874995200196 181.03124991996447 L 972.1874995200196 160.6875002879533 L 972.390625280037 127.98828134394716 L 972.2968750080327 107.187500031956 L 972.390625280037 99.10937497596024 L 972.3984373760177 99.00000051193638 L 972.4296878080349 91.98046924796654 L 972.6875002880115 60.31250022392487 L 972.7031255040201 53.44140595191857 L 972.7031255040201 49.87500031996751 L 972.8046878720634 43.19921868795063 L 972.4944877112284 0.0" fill="none"/><path stroke="#000000" stroke-width="2" d="M 972.4944877112866 0.0 L 972.8046878720634 43.19921868783422 L 972.7031255040201 49.875000319909304 L 972.7031255040201 53.44140595180215 L 972.6875002880115 60.312500223808456 L 972.4296878080931 91.98046924785012 L 972.3984373760177 99.00000051193638 L 972.390625280037 99.10937497596024 L 972.2968750080909 107.1875000318978 L 972.390625280037 127.98828134388896 L 972.1874995200196 160.6875002880115 L 972.1874995200196 181.03124991984805 L 972.289062912052 185.02343782392563 L 972.1874995200196 187.78906214382732 L 972.1874995200196 190.453125119966 L 972.289062912052 194.85546905588126 L 972.289062912052 207.44921907200478 L 972.390625280037 232.43359334382694 L 972.4921876480803 255.47656294394983 L 972.0859371520928 258.2421872638515 L 972.0859371520928 325.4140620799153 L 972.1874995200196 341.0820311040152 L 972.1874995200196 352.753906687838 L 972.390625280037 360.640624639811 L 972.6015621121041 383.98828134388896 L 973.1093749760184 387.98046924796654 L 973.3124997121049 400.7812495359103 L 973.5234375680448 421.16015615983633 L 973.6249999360298 430.7851560958661 L 973.726562304073 435.2890623998246 L 973.828124672058 445.94140671991045 L 973.9296870400431 457.1015628799796 L 974.1328128001187 477.07031244802056 L 974.0312504320755 483.10937497601844 L 973.9296870400431 492.4296878079185 L 974.4374999040156 512.3984373759595 L 975.4687498240382 526.5273436158895 L 976.289062912052 537.8945310719428 L 976.8984371200204 551.3085941759637 L 977.101562880096 570.3554682878312 L 977.101562880096 598.6171873278217 L 977.101562880096 623.5000002558809 L 976.9999994880636 626.3671879679314 L 976.8984371200204 633.4335938558797 L 976.6953123840503 639.8867189759621 L 976.4921876480221 643.1601561599527 L 975.6718745600083 673.8828124159481 L 975.4687498240382 684.1210941439494 L 975.2578129920294 690.5742182399263 L 975.8750003200257 698.2539059198461 L 976.078125056054 700.5078128639725 L 974.8515624961001 715.1484375038417 L 974.5468753920868 721.1914065918536 L 974.4453120000544 726.3125002239831 L 974.4453120000544 734.8085934079136 L 974.6484377600136 747.6093747199047 L 975.7734379520407 767.6796876799199 L 976.078125056054 772.0820316160098 L 976.078125056054 825.2304691198515 L 972.8046878720634 826.3554682879476 L 968.7031255040201 827.9921879039612 L 963.1796879360336 829.7343754239846 L 959.4921871360857 832.6015621119295 L 954.3671879680478 838.9492183038965 L 948.0234373120475 849.7031249919673 L 944.4374999040156 857.7929687039577 L 939.2187504640315 867.6210933758994 L 935.5312496640836 873.7656248319545 L 932.8671877121087 876.1210941439494 L 930.2031247360283 879.6015626238659 L 928.3593748480198 883.289062399941 L 926.4140625920263 887.9999999998254 L 924.7812495360849 891.5859374078573 L 923.0390620161197 895.9882813439472 L 920.1718753280584 900.187499519845 L 910.8515624960419 901.1093749758438 L 902.6562498561107 905.0000005118782 L 900.2031247360283 906.6367191039608 L 897.5390627840534 911.0390620159451 L 897.4375004160102 915.8515630078036 L 900.8203120640828 919.1289067518665 L 903.6796876800945 920.6679685118725 L 906.6562498561107 925.5820308480179 L 902.9687500800355 930.6992189439479 L 899.2812503040768 935.1054684160044 L 895.1875000320142 944.628905983991 L 891.906249728112 950.5664061439456 L 890.2656245760736 953.1250001919689 L 888.3203123200219 956.6093752319575 L 884.6328125441214 961.8320312318974 L 882.6875002880697 968.2812497919076 L 883.3046876160079 974.8359372798586 L 883.4062499840511 978.1132810238632 L 881.8750003200257 982.4140625919681 L 878.8984371200786 985.6914063359727 L 876.4453120000544 986.4062504958129 L 874.2968750080327 987.5312496639672 L 872.2500003841124 990.1953126399312 L 872.2500003841124 994.4960942078033 L 869.3828126720618 998.2851563519216 L 865.6953128961031 999.4101565439487 L 863.0312499200809 998.4882810879499 L 860.7812495360849 997.464843263966 L 857.2968744960963 996.3398440958117 L 852.2812497920822 995.6210933759576 L 846.0312504320173 995.6210933759576 L 842.2421872640844 995.9296870399266 L 838.8671877120505 997.7734379518661 L 835.2812503040186 999.1054684159462 L 832.1015623680432 1000.3320309758419 L 826.9843752960442 1002.4843745278195 L 823.8125004800386 1003.5078123518615 L 818.6953123840503 1004.5312501758453 L 815.3124997121049 1005.4531246079132 L 811.9375001600711 1006.2734376958106 L 807.9375001600711 1007.1953121278784 L 805.1718748160638 1008.0117186559364 L 800.1562501120497 1008.2187499519205 L 794.1171875840519 1008.730468351976 L 789.4062499841093 1008.5234370558173 L 785.5156254720641 1009.2421877759043 L 780.8046878720634 1009.2421877759043 L 777.6328120320104 1008.2187499519205 L 772.2031247360283 1006.6835937278229 L 766.468750336091 1003.7109370878898 L 757.9687495680992 999.3085941759055 L 754.5859379200265 997.464843263966 L 750.9062502401066 994.08593715186 L 748.3437496320694 989.9921879038448 L 746.8046878720634 987.0195312639116 L 746.6015621121041 983.8476564479643 L 745.9843747840496 978.4179691519239 L 742.4062504961039 975.9609374718857 L 738.1015623681014 976.4726558719412 L 734.2109378560563 975.5507814398734 L 730.4218746880651 973.9140628479654 L 724.8906250240398 972.0703129599569 L 722.9453127680463 969.6132812799187 L 720.9999994881218 967.2578129920294 L 718.5468753920286 965.7226557438844 L 714.7578122240375 964.8007813118165 L 705.7421875200234 965.3124997118721 L 702.4687503360328 964.3906252798042 L 700.4218746880069 961.9335935999407 L 700.7265628160676 958.4531251198496 L 703.0781245440594 955.0703124479041 L 706.359374848078 953.0234378239838 L 708.2031247360283 951.4882815998862 L 710.14843699208 948.929687551863 L 710.8671877120505 946.4726558718248 L 709.5312496640254 942.8867184639676 L 707.3828126720618 938.6875002878951 L 704.2109378560563 935.6171878399327 L 701.648437248019 932.8515624959255 L 698.8828129281173 929.3710940158344 L 696.6328125441214 927.3203128318419 L 693.0468751360895 924.2500003839377 L 691.1015628800378 920.3593748479034 L 688.6406246400438 917.9023441919708 L 686.6953123840503 915.5468748799758 L 681.273437184107 914.4179691519821 L 677.5859374080319 911.7578127358574 L 674.5156249600113 908.8906250238069 L 671.4375004160102 905.1015628799214 L 669.2890624000574 902.54296883184 L 666.3203123200801 900.3906252798624 L 661.101562880096 896.4999997438281 L 658.5390622720588 895.167968255817 L 655.2578129920876 893.531249663909 L 651.8828124160646 890.1523435518611 L 649.9375001600711 887.7968752639135 L 647.7890621441184 884.3125002239249 L 645.2265625600121 880.3203123198473 L 642.9765621760162 877.453124607855 L 638.1640622080886 876.6328125438304 L 632.7343749120482 878.6835937279393 L 626.9999994880636 877.8632816639147 L 619.0078126080916 875.609374719963 L 613.38281267212 873.8710937598371 L 608.7734374401043 873.0507816958125 L 605.2890624001157 872.9492183038965 L 602.0156252160086 873.1523440638557 L 599.4531246080878 873.7656248319545 L 596.078125056054 875.609374719963 L 593.3046876160661 878.5781247998821 L 589.7265623040148 881.8554685439449 L 586.5468753920868 884.4179691518657 L 583.9921879040776 885.8515630078618 L 579.38281267212 888.4101560318377 L 568.9374996480765 894.1445314559387 L 565.5625000960426 894.8593745918479 L 559.8203125760192 890.1523435518611 L 557.1640627200832 886.0546877439483 L 555.1171870720573 882.4687503359164 L 552.8593745920807 881.3437501438893 L 549.2734371840488 880.933594111877 L 545.38281267212 881.1406254078029 L 542.5156249600695 881.8554685439449 L 539.2421877760789 883.6992184319533 L 535.656250368047 886.0546877439483 L 524.7031255040783 891.6874997759005 L 518.3515627520392 892.0976558079128 L 509.9531253760215 894.0429690878955 L 505.75781273603207 893.3242183678085 L 502.5781248001149 891.3789061119314 L 501.7656248320709 886.3632814079174 L 504.5312501760782 882.5742182399263 L 506.6796871680417 881.4453125119326 L 510.2656245760736 878.8867184638511 L 510.0546877440647 876.7382814718876 L 507.70312499202555 873.9726561278803 L 503.8125004800968 871.207030783873 L 499.60937472002115 869.4648432639078 L 495.61718784004916 869.1601561599527 L 492.24218726408435 869.8750003200257 L 488.25000038411235 870.898437119904 L 482.4062504960457 872.0273438718286 L 478.3125002240413 872.0273438718286 L 475.34375014406396 869.8750003200257 L 471.75781273603207 868.2382817279431 L 467.96874956804095 867.9296870398684 L 464.179687424039 868.4414064639714 L 460.60156211210415 869.2617185278214 L 457.3203128320165 868.6484377599554 L 453.6328120320686 867.5195310078561 L 450.46093721606303 868.4414064639714 L 446.97656217601616 869.1601561599527 L 440.9374996480183 868.7500001279404 L 437.7656248320127 868.9531248638523 L 432.9531248640269 870.6953123838757 L 430.4921876480221 872.1289062398719 L 428.6484377600136 873.9726561278803 L 424.9609379840549 874.8945315838791 L 422.4062504960457 875.816406015947 L 419.5390627841116 876.6328125438304 L 416.0546877440065 877.3515622398118 L 411.34375014406396 879.1953121278202 L 408.5781248000567 881.4453125119326 L 403.96874956809916 884.7226562559372 L 401.1015628800378 886.8749998079729 L 398.1328128000605 888.4101560318377 L 393.3203128320747 890.5585940479068 L 389.84374988800846 890.2539059198461 L 387.1796879360336 888.7187496958068 L 383.1875000320724 881.9570309119881 L 381.0312499200809 879.6015626238659 L 378.06249984010356 878.171875327942 L 375.19531212805305 880.7304683518596 L 371.20312524808105 884.8242186238058 L 367.41406208008993 885.5429683199618 L 361.88281241606455 888.6132807679242 L 356.46093721612124 891.4804684799747 L 352.7734374400461 893.7343754239264 L 348.88281292811735 896.3984373759595 L 347.34375014400575 898.648437759839 L 345.39843788801227 902.3359375359141 L 341.9140628480236 904.5898434559349 L 337.7187502080924 904.7929692159523 L 334.4374999040738 905.1015628799214 L 331.6796876800945 906.6367191039608 L 329.52343756810296 908.7890626559965 L 326.96875008009374 911.1445309438859 L 322.96875008009374 911.4492190718884 L 320.21093785611447 910.3242188798613 L 316.7265628160094 908.5820313598379 L 312.83593728009146 908.3789066239842 L 309.7656248320709 910.2226565118181 L 303.61718784010736 912.3710935039562 L 297.1718748160638 913.4960936958087 L 290.8203120640246 913.6015626239241 L 284.3671879680478 914.625000447908 L 281.5000002561137 915.1367188479635 L 269.0078126080916 917.9023441919708 L 264.19531264004763 921.1796879359754 L 260.10156236804323 923.7382809599512 L 254.57031270401785 928.9609379838221 L 251.70312499208376 932.0312504319008 L 250.06249984004535 936.7421870079124 L 250.57812480005668 940.8398438398726 L 251.80468736001058 942.6835937278811 L 256.51562496001134 946.5742182398681 L 260.8203120640246 949.5429683199036 L 262.8671877120505 951.7968752638553 L 264.29687500809086 955.6874997758423 L 266.34374963201117 960.2929684480187 L 270.5468753920868 964.6992189439479 L 270.4453120000544 969.2031252479064 L 267.7812500480795 971.5585935359704 L 265.7343754240428 973.4023434238043 L 264.29687500809086 975.6562503679306 L 262.4531251200824 978.8281251839362 L 262.96875008009374 983.1289067518082 L 266.8593745920225 984.3593748478452 L 269.726562304073 984.2578124798019 L 272.5937500160071 984.9726566398167 L 274.64062464010203 986.2031247358536 L 276.5859379200847 987.6367185918498 L 281.9140628480236 989.2734371839906 L 284.4687503360328 991.5273441279423 L 284.06249984004535 994.1874995199032 L 282.52343705605017 996.6484377600136 L 279.4531246080296 999.7187502079178 L 276.38281216000905 1002.3828121599508 L 269.10937497601844 1007.3984378878959 L 267.46874982403824 1008.6289059839328 L 265.1171870721155 1011.0859376639128 L 263.273437184107 1014.4648437758442 L 263.1718748160638 1018.2539059199626 L 264.3984373760177 1022.6562498558196 L 264.7288847892778 1024.0" fill="none"/><path stroke="#408040" stroke-width="3" d="M 0.0 724.736961462404 L 16.015360000004875 718.7353599999988 L 57.088000000003376 702.4639999999999 L 75.00800000000163 689.3875199999966 L 94.13632000000507 667.5353600000017 L 100.74112000000605 650.7417599999972 L 111.09376000000339 633.8969599999982 L 147.36384000000544 575.0886400000018 L 181.54495999999926 541.7574400000012 L 221.31712000000698 521.4310400000031 L 271.8003199999948 489.3593600000022 L 344.37119999999413 435.2409600000028 L 374.476800000004 404.224000000002 L 416.67583999999624 366.33600000000297 L 440.3302399999957 344.76032000000123 L 478.5254399999976 339.8758400000006 L 495.6262399999978 333.2505600000004 L 505.5283199999976 318.61759999999776 L 536.8012799999997 296.7039999999979 L 570.1324800000002 276.16255999999703 L 586.465280000004 266.10687999999936 L 614.4614399999991 255.74399999999878 L 657.1315199999954 243.99872000000323 L 693.3196800000005 237.52704000000085 L 731.8016000000061 230.65600000000268 L 752.8550399999949 226.92863999999827 L 766.6687999999995 229.39648000000307 L 801.2083200000052 237.49631999999838 L 843.6121600000042 242.46272000000317 L 890.3475199999957 217.68192000000272 L 916.0294399999984 201.0726399999985 L 934.778879999998 195.06175999999687 L 955.5251200000057 193.22879999999714 L 988.4057599999942 182.68160000000353 L 1015.2652800000069 173.89568000000145 L 1024.0 164.74175793263566" fill="none"/></svg>