<svg xmlns="http://www.w3.org/2000/svg" width="1024" height="1024"><rect stroke="none" x="0" y="0" width="1024" height="1024" fill="white"/><path stroke="#000000" stroke-width="2" d="M 0.0 713.692152530326 L 51.820312576019205 748.7382814719458 L 79.36718745605322 768.0898437119322 L 90.82812518405262 776.3828121599508 L 101.07031244802056 783.7578127359739 L 107.21875046403147 788.1601566719473 L 114.58593792002648 793.3828126719454 L 126.97656217601616 802.2929684479604 L 143.6718745600083 813.8632816639729 L 148.179687424039 817.0390620159451 L 207.15624960005516 859.5312496639672 L 223.33593702403596 871.2070307839313 L 227.74218752002344 874.4843745279359 L 233.57812531205127 878.6835937279393 L 253.74999961606227 892.1992191999452 L 259.48437504004687 896.0898437119322 L 276.78906265605474 908.277344255941 L 292.7656253440073 919.437500415952 L 321.43750041601015 940.3281254399335 L 344.07031296001514 956.9140623359708 L 356.14843699202174 965.7226557439426 L 363.42187520005973 971.0468751359731 L 376.11718758405186 980.2617190399324 L 382.97656217601616 985.3828126719454 L 387.48437504004687 988.7617187839351 L 438.14427494189295 1024.0" fill="none"/><path stroke="#000000" stroke-width="2" d="M 438.14427494189295 1024.0 L 387.48437504004687 988.7617187839351 L 382.97656217607437 985.3828126718872 L 376.11718758405186 980.261719039816 L 363.42187520005973 971.0468751359731 L 356.14843699207995 965.7226557438844 L 344.07031296001514 956.9140623359708 L 321.43750041601015 940.3281254398753 L 292.7656253440073 919.4375004158937 L 276.78906265605474 908.2773442559992 L 259.48437504004687 896.0898437118158 L 253.74999961612048 892.199219199887 L 233.57812531205127 878.6835937278229 L 227.74218752008164 874.4843745278195 L 223.33593702409416 871.2070307839313 L 207.15624960005516 859.5312496639672 L 148.179687424039 817.0390620159451 L 143.6718745600665 813.8632816638565 L 126.97656217601616 802.292968447844 L 114.58593792008469 793.3828126718872 L 107.21875046408968 788.1601566719473 L 101.07031244802056 783.7578127358574 L 90.82812518405262 776.3828121598344 L 79.36718745611142 768.0898437119322 L 51.820312576019205 748.7382814718876 L 0.0 713.692152530326" fill="none"/></svg>