<svg xmlns="http://www.w3.org/2000/svg" width="1024" height="1024"><rect stroke="none" x="0" y="0" width="1024" height="1024" fill="white"/><path stroke="#000000" stroke-width="2" d="M 0.0 0.39573079237743514 L 26.52508160006255 0.2947481598239392 L 58.55113113601692 0.2947481598239392 L 84.58593792002648 0.2968750079162419 L 113.97656268801074 0.2968750079162419 L 116.92839321604697 0.2947481598239392 L 127.28668160003144 0.2947481598239392 L 130.57923072011909 0.2275532798958011 L 184.23467008006992 0.2275532798958011 L 222.59299020806793 0.20055756793590263 L 225.79548160010017 0.2947481598239392 L 228.4220129280584 0.2041784318862483 L 238.21093785605626 0.21874995180405676 L 241.15624960011337 0.2968750079162419 L 248.90586828807136 0.2947481598239392 L 258.3767449600273 0.2947481598239392 L 261.9453122561099 0.2968750079162419 L 268.57629798405105 0.2947481598239392 L 294.7176919040503 0.2947481598239392 L 318.6631065600668 0.3413299198728055 L 338.60156211210415 0.35937484790338203 L 350.3125002240995 0.3984373759594746 L 381.92187494406244 0.3984373759594746 L 405.06250035203993 0.4414064638549462 L 413.3906247681007 0.4999997440027073 L 469.60937472002115 0.4999997440027073 L 480.6690816000919 0.6019481599796563 L 489.04021811211715 0.5198776319739409 L 510.52343705605017 0.5585940480232239 L 517.1234816000797 0.6019481599796563 L 549.5216138240648 0.6019481599796563 L 583.6991170560359 0.6384271358838305 L 598.5314816000755 0.7043481598957442 L 626.6914816001081 0.2947481598239392 L 640.1058816000586 0.19234815990785137 L 651.0150551084807 0.0" fill="none"/></svg>