<svg xmlns="http://www.w3.org/2000/svg" width="1024" height="1024"><rect stroke="none" x="0" y="0" width="1024" height="1024" fill="white"/><path stroke="#000000" stroke-width="2" d="M 1024.0 331.7617182719332 L 1020.9296875520376 331.55859353597043 L 1011.2031252480228 330.6367191039608 L 998.812499968044 330.3281254399335 L 978.1249996800325 329.71484364796197 L 972.390625280037 329.816406015947 L 965.6328120320104 329.71484364796197 L 951.8125004800386 330.2265620479593 L 952.2187499520369 334.2226565119345 L 952.9374996480183 339.6484372479608 L 953.2421877760207 343.84765644796425 L 953.7578127360321 346.61328076792415 L 954.4765624320135 349.2734371839324 L 956.2187499520369 353.7812500479631 L 958.0546877440647 357.5664066559402 L 960.0000000000582 360.2304686079733 L 961.9531253760215 362.48437452793587 L 964.0000000000582 365.24999987194315 L 966.0468746240367 369.2421877759625 L 967.0703124480206 373.03124991996447 L 966.9687500800355 377.12500019196887 L 967.6874997760169 380.60937523195753 L 969.015624704014 383.2695316479658 L 975.8750003200257 401.0898442239268 L 977.8203125760192 406.61718732793815 L 979.1562496000552 413.07031244796235 L 979.968749568041 418.49609420791967 L 981.8125004800386 425.8671871999395 L 982.4296878080349 430.3750000639702 L 983.4531246080296 437.44140595191857 L 987.445312512049 448.3984373759595 L 989.3906247680425 459.0468751359731 L 989.5937495040125 466.0117186559364 L 990.7265628160094 470.4140625919681 L 989.0859376640292 480.1406248959247 L 987.343750144064 485.2617185279378 L 985.8046873600106 487.61718783993274 L 985.2968744960381 490.48437452793587 L 985.8046873600106 493.7617182719405 L 985.2968744960381 497.8554685439449 L 983.554688000062 501.33984358393354 L 977.6171878400492 507.78906214394374 L 972.289062912052 511.98828134394716 L 969.5234375680448 514.9570314239245 L 964.1015623680432 514.8554690559395 L 933.7890621440602 514.343749631953 L 930.6171873280546 514.343749631953 L 925.8046873600106 514.2421872639679 L 921.8046873600106 514.2421872639679 L 916.8906250240398 514.1367183359689 L 912.5937500160653 514.0351559679257 L 906.1406248960411 513.9335935999407 L 894.7734374400461 513.5234375679283 L 882.7968747520354 513.4218751999433 L 867.5390627840534 513.2148439039593 L 842.3437496320112 513.011719167931 L 837.3281249280553 512.9101557759568 L 829.0312499200227 512.8085934079718 L 824.9374996480183 512.7031255039619 L 802.7187496960396 512.4999997439445 L 786.3359375360305 512.3984373759595 L 778.8593745920225 512.1914060799754 L 774.4531251200242 512.1914060799754 L 768.0000000000582 512.0898437119322 L 758.2734376960434 511.98828134394716 L 750.289062912052 511.88671897596214 L 739.8437498880667 511.7812500479631 L 734.0078120960388 511.6796876799199 L 715.5781253120513 511.6796876799199 L 710.6562498560525 511.57812531193485 L 694.4765624320135 511.57812531193485 L 690.382812160009 511.47656294394983 L 687.0078126080334 511.47656294394983 L 673.4843750400469 511.37499955197563 L 667.7578127360321 511.3710940159508 L 653.3124997120467 511.37499955197563 L 627.2031252480228 511.37499955197563 L 621.164062720025 511.3710940159508 L 611.8437498880667 511.37499955197563 L 603.2421877760207 511.2695316479658 L 598.4296878080349 511.2695316479658 L 588.0859371520346 511.06640588794835 L 579.5859374080319 511.06640588794835 L 569.0390620160615 510.9648435199633 L 565.3515622400446 510.8593745919643 L 562.8984371200204 510.9648435199633 L 560.6406246400438 511.06640588794835 L 555.9296870400431 511.06640588794835 L 543.7499996160623 510.9648435199633 L 538.8359372800332 510.9648435199633 L 523.0625003520399 510.8593745919643 L 519.9921879040194 510.8593745919643 L 513.1328122880659 510.65624985593604 L 499.20312524802284 510.554687487951 L 496.9531248640269 510.554687487951 L 494.9062502400484 510.9648435199633 L 488.4531251200242 510.34765619196696 L 485.38281267206185 510.24609382392373 L 482.20312473602826 510.1445314559387 L 477.0859376640292 510.24609382392373 L 472.5781248000567 510.0429690879537 L 468.5859379200265 510.24609382392373 L 464.69531238405034 510.1445314559387 L 461.2109373440617 509.94140671996865 L 455.2734371840488 510.0429690879537 L 446.87499980803113 510.0429690879537 L 442.88281292805914 510.1445314559387 L 439.5078123520361 510.0429690879537 L 433.66406246402767 509.94140671996865 L 429.57031219202327 509.94140671996865 L 400.69531238405034 509.7343754239264 L 390.4531251200242 509.7343754239264 L 384.8203120640246 509.8359377919696 L 381.1328122880659 509.94140671996865 L 373.4531246080296 509.8359377919696 L 361.47656294406625 509.8359377919696 L 349.4921871360275 509.7343754239264 L 346.7265628160094 509.7343754239264 L 343.4531246080296 509.6328120319522 L 337.61718784004916 509.7343754239264 L 331.9843747840496 509.7343754239264 L 327.9921879040194 509.6328120319522 L 321.23437465605093 509.5312496639672 L 308.02343731204746 509.4257817599573 L 300.75000012805685 509.3242183679249 L 291.5390627840534 509.3242183679249 L 286.10937548801303 509.2226559999399 L 281.70312499202555 509.2226559999399 L 277.5078123520361 509.12109363195486 L 262.7656253440655 509.12109363195486 L 257.23437465605093 509.2226559999399 L 250.16406220803037 509.3242183679249 L 228.96875008003553 509.2226559999399 L 205.21093734406168 509.2226559999399 L 204.506733568036 509.2142376959673 L 188.2187499520369 509.01953126396984 L 184.42968780803494 509.12109363195486 L 177.15624960005516 509.5312496639672 L 171.92968704004306 509.01953126396984 L 167.93750016001286 508.097655807971 L 160.25781248003477 509.01953126396984 L 156.98437529604416 509.01953126396984 L 153.29687449603807 508.9140623359708 L 147.66406246402767 509.01953126396984 L 143.36718745605322 509.2226559999399 L 140.39062528003706 509.2226559999399 L 138.14062489604112 509.3242183679249 L 134.4531251200242 509.4257817599573 L 129.33593702403596 509.5312496639672 L 125.85156300803646 509.5312496639672 L 122.16406220803037 509.8359377919696 L 118.99218739202479 510.24609382392373 L 114.79687475203536 510.1445314559387 L 110.28906291205203 510.0429690879537 L 106.9062502400484 509.8359377919696 L 103.83593779202783 509.7343754239264 L 28.781249536026735 509.7343754239264 L 14.4453120000544 509.4257817599573 L 4.304687104013283 509.3242183679249 L 5.820766091346741e-11 509.3242183679249 L 0.0 509.3242183679249" fill="none"/><path stroke="#000000" stroke-width="2" d="M 978.1249996800325 329.71484364796197 L 998.812499968044 330.3281254399335 L 1011.2031252480228 330.6367191039608 L 1020.9296875520376 331.55859353597043 L 1024.0 331.7617182719332" fill="none"/><path stroke="#000000" stroke-width="2" d="M 0.0 509.3242183679249 L 5.820766091346741e-11 509.3242183679249 L 4.304687104013283 509.3242183679249 L 14.4453120000544 509.4257817599573 L 28.781249536026735 509.7343754239264 L 103.83593779202783 509.7343754239264 L 106.9062502400484 509.8359377919696 L 110.28906291205203 510.0429690879537 L 114.79687475203536 510.1445314559387 L 118.99218739202479 510.24609382392373 L 122.16406220803037 509.8359377919696 L 125.85156300803646 509.5312496639672 L 129.33593702403596 509.5312496639672 L 134.4531251200242 509.4257817599573 L 138.14062489604112 509.3242183679249 L 140.39062528003706 509.2226559999399 L 143.36718745605322 509.2226559999399 L 147.66406246402767 509.01953126396984 L 153.29687449603807 508.9140623359708 L 156.98437529604416 509.01953126396984 L 160.25781248003477 509.01953126396984 L 167.93750016001286 508.097655807971 L 171.92968704004306 509.01953126396984 L 177.15624960005516 509.5312496639672 L 184.42968780803494 509.12109363195486 L 188.2187499520369 509.01953126396984 L 204.506733568036 509.2142376959673 L 205.21093734406168 509.2226559999399 L 228.96875008003553 509.2226559999399 L 250.16406220803037 509.3242183679249 L 257.23437465605093 509.2226559999399 L 262.7656253440655 509.12109363195486 L 277.5078123520361 509.12109363195486 L 281.70312499202555 509.2226559999399 L 286.10937548801303 509.2226559999399 L 291.5390627840534 509.3242183679249 L 300.75000012805685 509.3242183679249 L 308.02343731204746 509.4257817599573 L 321.23437465605093 509.5312496639672 L 327.9921879040194 509.6328120319522 L 331.9843747840496 509.7343754239264 L 337.61718784004916 509.7343754239264 L 343.4531246080296 509.6328120319522 L 346.7265628160094 509.7343754239264 L 349.4921871360275 509.7343754239264 L 361.47656294406625 509.8359377919696 L 373.4531246080296 509.8359377919696 L 381.1328122880659 509.94140671996865 L 384.8203120640246 509.8359377919696 L 390.4531251200242 509.7343754239264 L 400.69531238405034 509.7343754239264 L 429.57031219202327 509.94140671996865 L 433.66406246402767 509.94140671996865 L 439.5078123520361 510.0429690879537 L 442.88281292805914 510.1445314559387 L 446.87499980803113 510.0429690879537 L 455.2734371840488 510.0429690879537 L 461.2109373440617 509.94140671996865 L 464.69531238405034 510.1445314559387 L 468.5859379200265 510.24609382392373 L 472.5781248000567 510.0429690879537 L 477.0859376640292 510.24609382392373 L 482.20312473602826 510.1445314559387 L 485.38281267206185 510.24609382392373 L 488.4531251200242 510.34765619196696 L 494.9062502400484 510.9648435199633 L 496.9531248640269 510.554687487951 L 499.20312524802284 510.554687487951 L 513.1328122880659 510.65624985593604 L 519.9921879040194 510.8593745919643 L 523.0625003520399 510.8593745919643 L 538.8359372800332 510.9648435199633 L 543.7499996160623 510.9648435199633 L 555.9296870400431 511.06640588794835 L 560.6406246400438 511.06640588794835 L 562.8984371200204 510.9648435199633 L 565.3515622400446 510.8593745919643 L 569.0390620160615 510.9648435199633 L 579.5859374080319 511.06640588794835 L 588.0859371520346 511.06640588794835 L 598.4296878080349 511.2695316479658 L 603.2421877760207 511.2695316479658 L 611.8437498880667 511.37499955197563 L 621.164062720025 511.3710940159508 L 627.2031252480228 511.37499955197563 L 653.3124997120467 511.37499955197563 L 667.7578127360321 511.3710940159508 L 673.4843750400469 511.37499955197563 L 687.0078126080334 511.47656294394983 L 690.382812160009 511.47656294394983 L 694.4765624320135 511.57812531193485 L 710.6562498560525 511.57812531193485 L 715.5781253120513 511.6796876799199 L 734.0078120960388 511.6796876799199 L 739.8437498880667 511.7812500479631 L 750.289062912052 511.88671897596214 L 758.2734376960434 511.98828134394716 L 768.0000000000582 512.0898437119322 L 774.4531251200242 512.1914060799754 L 778.8593745920225 512.1914060799754 L 786.3359375360305 512.3984373759595 L 802.7187496960396 512.4999997439445 L 824.9374996480183 512.7031255039619 L 829.0312499200227 512.8085934079718 L 837.3281249280553 512.9101557759568 L 842.3437496320112 513.011719167931 L 867.5390627840534 513.2148439039593 L 882.7968747520354 513.4218751999433 L 894.7734374400461 513.5234375679283 L 906.1406248960411 513.9335935999407 L 912.5937500160653 514.0351559679257 L 916.8906250240398 514.1367183359689 L 921.8046873600106 514.2421872639679 L 925.8046873600106 514.2421872639679 L 930.6171873280546 514.343749631953 L 933.7890621440602 514.343749631953 L 964.1015623680432 514.8554690559395 L 969.5234375680448 514.9570314239245 L 972.289062912052 511.98828134394716 L 977.6171878400492 507.78906214394374 L 983.554688000062 501.33984358393354 L 985.2968744960381 497.8554685439449 L 985.8046873600106 493.7617182719405 L 985.2968744960381 490.48437452793587 L 985.8046873600106 487.61718783993274 L 987.343750144064 485.2617185279378 L 989.0859376640292 480.1406248959247 L 990.7265628160094 470.4140625919681 L 989.5937495040125 466.0117186559364 L 989.3906247680425 459.0468751359731 L 987.445312512049 448.3984373759595 L 983.4531246080296 437.44140595191857 L 982.4296878080349 430.3750000639702 L 981.8125004800386 425.8671871999395 L 979.968749568041 418.49609420791967 L 979.1562496000552 413.07031244796235 L 977.8203125760192 406.61718732793815 L 975.8750003200257 401.0898442239268 L 969.015624704014 383.2695316479658 L 967.6874997760169 380.60937523195753 L 966.9687500800355 377.12500019196887 L 967.0703124480206 373.03124991996447 L 966.0468746240367 369.2421877759625 L 964.0000000000582 365.24999987194315 L 961.9531253760215 362.48437452793587 L 960.0000000000582 360.2304686079733 L 958.0546877440647 357.5664066559402 L 956.2187499520369 353.7812500479631 L 954.4765624320135 349.2734371839324 L 953.7578127360321 346.61328076792415 L 953.2421877760207 343.84765644796425 L 952.9374996480183 339.6484372479608 L 952.2187499520369 334.2226565119345 L 951.8125004800386 330.2265620479593 L 965.6328120320104 329.71484364796197 L 972.390625280037 329.816406015947 L 978.1249996800325 329.71484364796197" fill="none"/></svg>