<svg xmlns="http://www.w3.org/2000/svg" width="1024" height="1024"><rect stroke="none" x="0" y="0" width="1024" height="1024" fill="white"/><path stroke="#000000" stroke-width="2" d="M 853.1638391333545 0.0 L 851.6640624640859 4.492187647905666 L 850.8437504000613 7.769531391910277 L 848.7968747520354 10.945312767929863 L 846.9531248640269 13.605469183879904 L 844.289062912052 16.371093503956217 L 841.5234375680448 18.417969151982106 L 838.9687500800355 20.570312703959644 L 836.9218754561152 22.207031295867637 L 833.8437498880667 23.640625151921995 L 830.6718750720611 26.304687103955075 L 828.3203123200219 28.863281151803676 L 823.3984378881287 34.29296844790224 L 821.8671872000559 36.031250431900844 L 820.2265620480757 37.054687231837306 L 817.9765626880107 38.89843711984577 L 817.1562496000552 41.0507816959871 L 817.1562496000552 43.71093708794797 L 818.3828121600673 46.78515609592432 L 820.53125017602 50.16406220785575 L 817.2578129920294 51.5976560638519 L 815.2109373441781 53.95312537584687 L 813.26562508801 55.58984396792948 L 811.624999936088 57.02343782398384 L 809.9843747841078 59.27734374382999 L 807.6328120320104 62.55468748789281 L 805.9921879040194 66.24218726390973 L 805.0703124480788 70.33593753585592 L 804.8671877121669 74.53515673585935 L 805.8906245121034 78.62890598387457 L 807.8359377921443 82.82812518393621 L 809.7812500480213 85.08203110395698 L 811.4218752000597 87.33593702380313 L 813.26562508801 88.76953087985748 L 815.6171878400492 90.71484416001476 L 817.5625000960426 92.25000038387952 L 819.8203125760192 93.88671897596214 L 821.9687495680992 95.01562470395584 L 824.8359372800332 96.24218726385152 L 827.6015626240405 97.26953164790757 L 831.3906247680425 98.69921894388972 L 835.0781245441758 99.92968703992665 L 838.8671877121087 101.05468723195372 L 843.5781253120513 102.18359398387838 L 847.6718745600665 102.79687475197716 L 851.1484375040745 103.003906047903 L 856.1718753280584 102.89843711996218 L 860.1640622081468 102.48828108794987 L 863.335937024036 101.8750003199093 L 867.6406251520384 100.75000012782402 L 871.9375001600129 98.80468787194695 L 876.0390625280561 96.14062489580829 L 877.8750003200839 94.19531263993122 L 880.640624640102 91.22656255983748 L 884.53125017602 87.02734335983405 L 887.1953121281113 83.44140595180215 L 888.4296878080931 79.65625036793062 L 889.2421877760207 76.58203135995427 L 889.6562503681635 74.12499967997428 L 889.343750144064 70.644531199825 L 888.3203123200219 66.54687539197039 L 887.5078123520361 63.167968255933374 L 886.1718753281748 59.6874997758423 L 885.2499998721178 55.79687526385533 L 884.4296878080931 52.82421862392221 L 883.101562880096 49.24218777596252 L 882.9999994881218 46.476562431955244 L 885.4531246080296 43.0976563199074 L 889.343750144064 40.23046860785689 L 889.6562503681635 36.648437759897206 L 886.890625024098 33.67578111990588 L 883.9218749441206 31.730468863854185 L 882.1796874240972 29.37499955185922 L 883.101562880096 27.226562559895683 L 884.9453127681045 24.359374847903382 L 885.8671872000559 20.46875033591641 L 890.3750000640866 18.01171865593642 L 893.9531253760797 16.578124799882062 L 896.921875456057 15.347656703845132 L 901.0234378241003 14.117187583935447 L 905.2187504641479 12.992187391850166 L 909.5234375681612 11.968749567866325 L 913.9218749441206 11.457031167810783 L 918.4296878080349 11.968749567866325 L 923.546874880034 13.503905791905709 L 927.4375004160102 15.960937471943907 L 930.1015623680432 18.417969151982106 L 932.7656253441237 21.39062476780964 L 935.1171870720573 24.25781247986015 L 941.6718745600665 38.08203161589336 L 942.390625280037 42.789062655880116 L 942.9062502400484 45.55468799988739 L 942.9062502400484 49.24218777596252 L 941.5703121920233 51.08593766397098 L 939.523437568103 52.519531519850716 L 939.8281246721162 55.79687526385533 L 942.6953123840503 58.86718771181768 L 946.2812497920822 61.4257817598409 L 949.4531246080296 63.167968255933374 L 952.4296878080349 66.64843775995541 L 954.2656245760736 70.74609356786823 L 956.7265628161258 74.22656204801751 L 958.5703127040761 78.42578124784632 L 957.9531253760215 82.4179691519239 L 957.648437248019 84.67187507194467 L 957.7499996160623 88.0507811838761 L 958.4687503360328 92.14843699190533 L 958.7734374400461 97.47265638381941 L 958.156250112108 100.54296883189818 L 956.6250004480244 103.61718783987453 L 955.2968744961545 107.5078123518615 L 953.7578127360321 111.29687449592166 L 951.7109370880644 114.06249983992893 L 949.0468751360895 116.51953151996713 L 944.6406246400438 120.51171839993913 L 940.7500001280569 124.30078156793024 L 937.7812500480213 127.26953164784936 L 935.2265625600121 129.62499993591337 L 932.8671877120505 131.67578111990588 L 930.4062504960457 133.51562547194771 L 927.335937024036 135.8710937598371 L 924.2656245760154 138.43359334388515 L 921.6015626241569 140.3789066238678 L 918.9374996480183 142.52734361600596 L 915.7656248320709 144.98437529581133 L 912.4921876480803 146.00781209592242 L 909.2109373440617 146.828125183878 L 905.9375001600711 147.5468748798594 L 902.5546874880092 148.16015667183092 L 899.5859374080319 148.26171903987415 L 895.0781245441176 148.36328140791738 L 891.2968744960381 149.39062476786785 L 888.2187499520951 151.6406251519802 L 884.9453127681045 153.48437503981404 L 882.1796874240972 155.12500019196887 L 878.9062502401066 157.47656294389162 L 875.9296870400431 160.44921855989378 L 874.0859371520928 164.03125043195905 L 873.171874816122 167.10546841588803 L 871.0156247040723 172.01953075203346 L 869.2734371840488 175.50000025588088 L 867.3281249281135 177.85546854394488 L 863.5390627841116 180.1093754878966 L 861.1875000320724 183.79687526397174 L 860.0624998400453 188.30078156787204 L 858.7265628160094 191.47656294389162 L 858.7265628160094 196.5937500159489 L 859.2421877760207 200.38281215983443 L 858.9374996480765 203.96874956786633 L 858.1171875840519 206.83593727991683 L 857.3984378880705 210.21484339196468 L 856.6796871681581 213.1835934718838 L 855.8593751041335 216.9726566398749 L 855.656250368047 219.32812492793892 L 857.9140628480818 221.37499955185922 L 861.5937495040125 224.1406248958665 L 863.9531253760797 225.26562508795178 L 862.9296875520376 228.85156249592546 L 861.7031249920838 231.10546841582982 L 860.0624998400453 234.17578086390859 L 858.3203123200219 237.65625036793062 L 856.3750000640284 240.8320317439502 L 855.3515622400446 243.0859376640292 L 854.3281254400499 247.79687526391353 L 854.2265620480175 251.37890611187322 L 855.2499998721178 255.7812500479631 L 856.6796871681581 259.05859379202593 L 861.5937495040125 262.74609356786823 L 865.7968752640882 263.8710937598953 L 869.9921879040776 264.2812497919076 L 883.8203125760774 263.35937535989797 L 889.7578127360321 263.25781299185473 L 892.2109378561727 263.25781299185473 L 896.921875456057 263.15624959988054 L 899.3828126720618 263.8710937598953 L 902.9687500800937 265.00000051181996 L 907.0625003520981 266.02343731193105 L 911.2578129921458 266.94531276787166 L 916.7890626560547 267.8671871999395 L 920.8828129280591 268.48046899196925 L 924.3671879680478 269.0937497598352 L 931.2265625600121 270.2226565119345 L 936.5546874880092 271.75781273597386 L 939.4218752000597 272.57812479982385 L 944.9531248641433 273.9062497279374 L 950.5859379200265 275.9570309119299 L 956.2109378561145 277.2851558398688 L 961.7421875200234 279.02734335983405 L 965.6328120320686 280.9726566398167 L 968.1953126401058 284.5585940478486 L 967.8906245121616 287.52734412794234 L 967.070312448137 290.49609420780325 L 965.023437824042 295.0000005119364 L 962.2578124800348 298.7890626558801 L 958.5703127040761 304.2187499519205 L 953.343750144064 308.4179691519239 L 946.0781250561122 313.6406251518638 L 940.9609379840549 316.30078156793024 L 934.3046871040133 318.5546874878346 L 928.8749998080893 320.4999997438863 L 922.8359372800915 322.2421872638515 L 917.101562880096 325.21093734394526 L 911.0546872320119 328.89843711984577 L 906.8593745920225 331.1484375038999 L 902.8671877120505 333.71093708794797 L 899.17968793615 336.88281292800093 L 895.3906247680425 340.3632814079174 L 892.8281251840526 343.43750041589374 L 891.3984378880705 346.5078128640307 L 890.3750000640866 348.6601564158336 L 888.2187499520951 350.70703103992855 L 886.1718753281748 352.550780927937 L 883.4062499841093 357.16015616001096 L 879.5156254720641 359.00000051187817 L 876.1406248960993 360.43749990384094 L 874.3984373760177 361.8710937598953 L 871.4296872960404 363.816406015947 L 870.1953126400476 365.1445309438859 L 867.8437498881249 367.80859391984995 L 867.4375004160684 370.47265587188303 L 866.6171873281128 373.7460940798046 L 866.6171873281128 381.7343754239264 L 867.2265625600703 384.3984373759595 L 867.6406251520384 387.0585937919095 L 868.0468746240949 389.62109337589936 L 869.0703124480206 393.30468761583325 L 869.9921879040776 395.9687495678663 L 871.1171870721155 398.83593727991683 L 872.7578122240375 402.2148433920229 L 874.2968750080909 405.39062476780964 L 876.0390625280561 408.25781247986015 L 878.5937500160653 411.53124966385076 L 882.1796874240972 415.0156247038394 L 884.9453127681045 417.6757811199641 L 888.1174056960153 420.03140198392794 L 892.1093754880712 422.79687475186074 L 895.1875000320724 424.43749990395736 L 900.6093752320157 425.15234406403033 L 903.1718748160638 424.3320309759001 L 904.914062336029 421.9765626878361 L 906.4453120000544 419.21484390384285 L 911.1562496001134 419.8281246719416 L 913.6171878401074 419.7265623038984 L 915.7656248320709 418.90625023987377 L 918.4296878080349 417.7812500478467 L 920.9921873920248 416.8593745919061 L 924.0624998400453 415.93750015983824 L 927.335937024036 414.8085934079136 L 930.8203120640246 413.6835942399339 L 935.1171870720573 412.14843699202174 L 939.0078126080916 410.5078128639725 L 942.5937500161235 408.8710932479589 L 951.6093747200212 406.7187496959232 L 955.2968744961545 405.6953128958703 L 961.1328122880659 404.0585932798567 L 971.8828124160646 402.4179691518075 L 973.7265623040148 396.9921873919084 L 977.203125248081 391.4609377279994 L 979.9687495681574 387.26562508783536 L 981.8125004800968 383.37499955197563 L 982.3281254401081 379.2773437438882 L 983.1484375040163 375.1796879359754 L 985.2968744960963 371.5976560639101 L 987.9609374720603 369.44531251193257 L 991.7499996160623 367.5000002558809 L 993.898437632015 364.22265651181806 L 996.6640629760223 362.58593791991007 L 1001.4765629441245 363.19921868800884 L 1004.4453120001126 364.7382814718876 L 1006.9062502401648 366.2734376959852 L 1009.8750003200839 368.6289059838746 L 1012.0234373121057 371.1875000318978 L 1014.4765624320135 374.0546877439483 L 1016.2187499520951 376.61328076792415 L 1018.9843752961606 381.12109363189666 L 1020.3203123200219 383.98828134394716 L 1021.1328122881241 387.57031219190685 L 1021.2421877760789 391.566406655882 L 1020.7265628160676 395.7617182719405 L 1019.2968744960963 399.5507814399316 L 1017.656250368047 402.2148433920229 L 1015.6093747200212 405.28515583992703 L 1012.53125017602 408.66406297590584 L 1008.9531248640851 411.83984332781984 L 1006.6953123841085 413.17187481583096 L 1004.0390625280561 415.3203128318419 L 999.5312496640254 418.3945308159455 L 996.6640629760223 421.16015615995275 L 994.8203120640828 423.5156254719477 L 991.2343746560509 427.5078123519197 L 986.9374996481347 430.57812479982385 L 982.8359372800332 433.65234380797483 L 978.6406246400438 434.16406220785575 L 973.523437568103 436.62109388789395 L 968.7109376001172 439.28515583992703 L 964.0000000001164 441.7421875199652 L 960.3125002240413 443.78906214388553 L 956.3203123200801 445.7343754238682 L 951.3984378880123 447.8867189758457 L 941.6718745600665 454.2343751678127 L 943.0078126080916 456.89453158393735 L 947.9218749440624 464.98437529592775 L 954.3750000640284 470.105468927999 L 958.0546877440647 472.7695308798575 L 960.8203120640828 474.71484415984014 L 970.4453120001708 479.8359377919114 L 976.179687424039 482.0859371519182 L 982.6328125441214 484.5429688318982 L 989.8046873600106 487.003906047903 L 996.3593748480198 489.1523440639721 L 1001.6796876800945 490.99609395180596 L 1007.828124672058 493.0429685759009 L 1012.4296878080931 494.9882808319526 L 1018.3750000640284 497.85546854382847 L 1023.898437632015 501.2343746559345 L 1024.0 501.3105464455293" fill="none"/><path stroke="#000000" stroke-width="2" d="M 1024.0 529.8481000043103 L 1023.2890624001739 530.1132810238632 L 1018.8828129280591 530.2148433919065 L 1015.5078123520943 529.9062497278792 L 1011.1015628800378 529.2929689598386 L 1007.3124997120467 528.7812495358521 L 1003.7265623040148 528.0664063999429 L 1000.1406248960993 527.2460933118127 L 996.9687500800355 526.3242188799195 L 993.5937495040125 524.9921873919666 L 991.0312499200809 524.2773442558246 L 987.8593751040171 523.0468751358567 L 984.4765624320717 521.4101565439487 L 982.1249996800325 519.7695313918521 L 979.5625000961008 518.2343751679873 L 976.390625280037 515.9804692479083 L 973.9296870401595 513.8320312318974 L 971.8828124160646 511.88671897596214 L 968.812499968044 508.1992191999452 L 964.820312064141 503.17968793585896 L 962.0546877440647 499.39062476786785 L 958.7734374400461 494.57812479994027 L 957.0312499201391 491.9179683838738 L 954.9843752960442 488.2304686079733 L 951.8125004800968 483.109374975902 L 949.5625000961008 480.2421872638515 L 946.7968747520936 477.07031244790414 L 943.6171878400492 474.40625049587106 L 932.359374848078 465.1914065918536 L 928.1562501121662 461.81250047992216 L 923.9609374721185 467.1367188479053 L 923.9609374721185 470.51562496001134 L 923.6484372480772 473.89453107188456 L 922.8359372800915 478.1953126399312 L 921.8046873600688 482.0859371519182 L 920.2734376960434 485.7734379518661 L 918.5312501760782 489.4609377279412 L 916.5859379200847 493.1445309439441 L 914.4374999040156 496.730468351976 L 912.0781250561704 500.21093785582343 L 909.6249999360298 503.7968752638553 L 907.6796876800363 506.6640629758476 L 905.9375001600711 509.4257817598409 L 904.2968750080909 513.9335935998824 L 904.0937502721208 518.2343751679873 L 904.3984373760177 522.535156736034 L 904.6015621121041 525.812500479864 L 905.1171870721155 528.7812495358521 L 906.3437496320112 531.6484372479026 L 907.9843747840496 534.207031295984 L 909.8281246721162 537.2812503039604 L 911.6718745601247 539.4296872958657 L 913.6171878401074 541.5820308479015 L 915.6640624640277 543.7304688639706 L 918.1249996800907 546.2929684479604 L 920.7812495360267 548.9531248638523 L 923.0390620160615 551.2070307839313 L 925.7031249920256 553.6640624639695 L 928.8749998080893 555.9179683838156 L 933.4843750401051 558.7851560958661 L 938.3984373760759 561.6523438078584 L 940.9609379840549 563.0859376639128 L 945.1562496000552 565.0312499199645 L 948.5312501760782 566.5664061438292 L 950.5859379200265 567.4882816000027 L 952.8359372800915 568.4101560318377 L 955.7031249920256 569.535156223923 L 970.3437496320694 575.2695316479658 L 973.828124672058 576.191406079859 L 978.2343751681037 576.7031255040201 L 982.53125017602 577.6249999358552 L 985.7031249920256 578.2421872640261 L 988.2656245760736 578.855469055823 L 990.6250004480244 579.5703121919651 L 993.1796879360336 580.0820316158934 L 996.0468746240367 579.5703121919651 L 999.5312496640254 577.7265623038984 L 1001.6796876800945 576.2929684479022 L 1004.8515624960419 574.4531251199078 L 1008.0312504320173 572.7109375999426 L 1011.203125248081 571.3789061119314 L 1014.1718753280584 570.0468746239785 L 1017.8593751040171 568.2070312958094 L 1020.6250004480244 566.6679685118725 L 1023.1875000320724 564.6210938879522 L 1024.0 564.1164886889601" fill="none"/><path stroke="#000000" stroke-width="2" d="M 1024.0 632.3865941604308 L 1023.4921871360857 633.1289067518665 L 1022.2656245760154 637.1210936318967 L 1021.3437501441222 640.7031255039619 L 1020.2109378560563 644.2890629119356 L 1019.3984378880705 647.667969023867 L 1019.5000002561719 650.6367191039608 L 1020.8281251841108 653.7109370878316 L 1023.898437632015 657.7031249919091 L 1024.0 657.7679948623118" fill="none"/><path stroke="#000000" stroke-width="2" d="M 1024.0 826.5445307224509 L 1022.2656245760154 824.2031247358536 L 1020.7265628160676 821.2343746558181 L 1020.109375488013 815.8085939199664 L 1018.9843752961606 807.00000051182 L 1019.2968744960963 803.4179686399293 L 1020.007812096097 799.7304688639124 L 1021.0312499200809 795.6367185919662 L 1016.8359372800332 793.9960934398114 L 1013.1484375040745 791.5390627838788 L 1009.6640624640859 788.7734374398715 L 1002.0859371520346 782.2226565118181 L 996.7656253440655 779.558593535854 L 988.8828129281173 776.6914058238617 L 984.0703129600151 775.8710937598371 L 975.5703121920233 777.7148436478456 L 972.4999997441191 780.3789066238096 L 970.9609379841131 783.9609374719439 L 969.6328120320686 790.6171873279382 L 967.5781253120513 793.8945310719428 L 961.8437498880667 799.4257817599573 L 955.7031249920256 795.9414067199687 L 952.0156252160668 793.179687935859 L 946.9999994880636 791.5390627838788 L 938.2968750080327 792.1523435518029 L 932.3515627520392 793.9960934398114 L 929.79687526403 794.8164065279416 L 927.2343746561091 796.5585940479068 L 922.3203123200801 800.0390625278815 L 912.8984371200204 810.8945315838209 L 907.8828124161228 812.4296878079185 L 905.8359377920278 812.5312501759036 L 902.3515627520392 811.4062499838765 L 899.2812503040186 809.2539064318989 L 897.2343746561091 807.5156254719477 L 894.3671879680478 806.4882810878917 L 891.6015626240405 805.3632808958646 L 888.2187499520951 805.2617185278214 L 884.640624640102 806.5937500159489 L 878.6953123841085 809.1523440638557 L 862.2109378560563 817.2421877760207 L 859.546874880034 818.9843752958113 L 857.5000002561137 820.621093887894 L 855.2499998721178 823.5898439679877 L 854.2265620480175 826.8671877118177 L 853.5078123520361 829.7343754238682 L 851.8671872000559 832.9101557759568 L 850.2343751681037 838.031250431959 L 848.8984371200786 843.2499998718267 L 847.8750003200839 847.7578127358574 L 847.3671874560532 851.5468748799176 L 846.1328128000605 855.8476564479643 L 845.4140620800899 860.3515627519228 L 845.2109373441199 864.0390625278233 L 845.7265623040148 868.4414064639132 L 846.335937536147 871.4101565439487 L 847.6718745600665 875.0976563198492 L 849.7187502080342 879.0898442239268 L 851.4609377281158 881.9570309118717 L 853.2031252480228 884.4179691519239 L 855.0468751360313 886.8749998078565 L 857.2968744960381 888.101562367985 L 864.0546877441229 888.4101560319541 L 869.38281267212 889.4335938559379 L 877.2656250880682 890.7656253439491 L 881.5625000960426 892.5078128639143 L 884.1249996800907 893.5312496638508 L 886.6875002880115 894.2460938238655 L 890.8828129280591 894.8593745919643 L 895.8984376320732 895.1679682559334 L 903.3749995520338 895.1679682559334 L 907.7812500480795 895.3710940158926 L 911.2578129921458 895.2695316478494 L 914.8437504000613 892.7109375998261 L 917.9140628480236 890.7656253439491 L 920.3750000640866 889.742187519907 L 926.5156249600113 887.9999999999418 L 930.921875456057 887.078124543943 L 935.4296872961568 886.8749998078565 L 940.4453120000544 886.7734374398715 L 944.2343751680455 887.1796879359172 L 948.5312501760782 887.9999999999418 L 953.9609374720603 889.9453122558189 L 959.79687526403 893.3242183678667 L 967.6796876800945 896.089843711874 L 969.734375424101 896.7031255039037 L 970.2421872640261 892.4023439360317 L 970.7578122240375 886.3632814080338 L 971.4687498240964 877.8632816638565 L 972.0859371520346 875.9179683838738 L 973.828124672058 871.9218749438296 L 973.9296870401595 868.1328127999441 L 973.2109373440617 864.1406248958665 L 966.9687500800355 856.3593748478452 L 963.7890621440602 847.4492190718884 L 964.3046871040715 838.9492183039547 L 972.6015621120459 841.3046876159497 L 980.281249792024 844.7890626559383 L 985.2968744960963 847.9609374718857 L 988.9843752960442 850.5234370559338 L 992.0546877440647 852.6718750720029 L 994.9218754561152 854.925780991849 L 997.7890621440602 857.0742190078599 L 1007.0077184000402 859.3281013758387 L 1017.9609374720603 858.3046871038969 L 1021.0312499200809 858.097655807971 L 1020.2109378560563 868.9531248639687 L 1019.7031249920838 874.5859379199683 L 1019.0859376640292 877.1445309439441 L 1017.4531246080878 880.6289059839328 L 1015.6093747200212 884.0078120958642 L 1014.1718753280584 886.3632814080338 L 1012.3281254400499 889.2304691198515 L 1009.8750003200839 892.097655807971 L 1008.1328128000605 893.9414067199104 L 1006.5937500160653 895.2695316478494 L 1004.5468753920286 896.7031255039037 L 995.9453122561099 900.0820316159516 L 992.5703127040761 900.4921876479639 L 992.6718750721193 904.1796874238644 L 992.9765621761326 906.5351567358593 L 992.8749998080311 908.5820313599543 L 992.7734374400461 913.19140659197 L 988.2656245760736 920.8710932478425 L 986.1171875841101 922.4062504958129 L 983.7578127360903 923.6367185918498 L 980.8906250240398 925.0703124478459 L 977.9218749440624 926.2968750079162 L 965.3281249280553 932.1328127998859 L 955.7031249920256 936.6406246399274 L 950.5859379200265 938.9960939519224 L 941.0625003520399 944.5234370558173 L 941.984374784166 962.3437496318948 L 942.9062502400484 971.7656248318381 L 941.7734379520989 974.4257812479045 L 938.6015621120459 975.2460933119291 L 934.4062504960457 975.0390620158287 L 930.3046871040133 974.7343749118736 L 921.5000002560555 974.1171875839354 L 917.2031252480228 972.0703129598405 L 913.7187502080342 969.7148436478456 L 910.9531248640269 967.6679690239253 L 907.9843747840496 965.3124997119303 L 895.1875000320724 948.6210938879522 L 892.7265628160094 946.164062207914 L 889.9609374721185 944.0117186559364 L 887.093749760068 942.3750000638538 L 884.4296878080931 941.2499998720014 L 881.4609377281158 940.53125017602 L 877.6718745601247 940.4296878079767 L 874.1953126400476 941.1445309438859 L 871.0156247040723 942.3750000638538 L 867.8437498881249 944.3203123199055 L 864.9765621760744 946.3671879679314 L 862.4140625920263 948.7226562558208 L 860.1640622081468 951.6914063359145 L 858.5234370561084 955.4804684799747 L 858.1171875840519 958.6562498558196 L 858.5234370561084 961.6249999359134 L 859.546874880034 964.0820316158934 L 862.109375488013 967.7695313919685 L 865.5937495040125 971.457031167869 L 869.6874997761333 973.914062847849 L 872.3515627520974 975.2460933119291 L 874.3984373760177 975.9609374720021 L 876.1406248960993 976.4726558718248 L 878.9062502401066 977.0898442238686 L 882.7968747520354 977.804687359836 L 887.3984378880705 978.6250004479662 L 891.0859376640292 979.3398435838753 L 894.6718750720611 979.9570309118135 L 900.8203120640246 980.9804687358555 L 905.1171870721155 981.7968752639135 L 908.9062502400484 982.4140625918517 L 912.0781250561704 983.0273433599505 L 915.3593753600144 983.640625151922 L 918.4296878080349 984.2578124798601 L 924.7812495360267 985.4843750399887 L 927.335937024036 985.9960934398114 L 930.4062504960457 987.2265625599539 L 933.1718748160638 988.4531251198496 L 935.5312496640254 990.0937502718298 L 937.3749995520338 991.5273441278259 L 939.0078126080916 993.8828124158899 L 940.3437496320112 997.0546872318955 L 941.3671874560532 1000.3320309759001 L 941.984374784166 1003.917968383932 L 946.2812497920822 1006.7851560958079 L 942.1874995200778 1011.5976560639101 L 936.2500003841124 1018.4570316798054 L 931.7421875200234 1023.8867189759039 L 931.6089456228801 1024.0" fill="none"/><path stroke="#000000" stroke-width="2" d="M 931.6089456229529 1024.0 L 931.7421875200234 1023.8867189759621 L 936.2500003840541 1018.4570316799218 L 942.1874995200196 1011.5976560639683 L 946.281249792024 1006.7851560959243 L 941.9843747840496 1003.917968383932 L 941.3671874560532 1000.3320309759583 L 940.3437496320112 997.0546872319537 L 939.0078126080334 993.8828124159481 L 937.3749995520338 991.5273441279423 L 935.5312496640254 990.0937502719462 L 933.1718748160638 988.453125119966 L 930.4062504960457 987.2265625599539 L 927.335937024036 985.9960934399278 L 924.7812495360267 985.4843750399305 L 918.4296878080349 984.2578124799184 L 915.3593753600144 983.640625151922 L 912.078125056054 983.0273433599505 L 908.9062502400484 982.4140625919681 L 905.1171870720573 981.7968752639717 L 900.8203120640246 980.980468735972 L 894.6718750720611 979.9570309119299 L 891.0859376640292 979.3398435839335 L 887.3984378880123 978.6250004479662 L 882.7968747520354 977.8046873599524 L 878.9062502400484 977.0898442239268 L 876.1406248960411 976.4726558719412 L 874.3984373760177 975.9609374719439 L 872.3515627520392 975.2460933119291 L 869.6874997760169 973.9140628479654 L 865.5937495040125 971.4570311679272 L 862.109375488013 967.7695313919685 L 859.546874880034 964.0820316159516 L 858.5234370560502 961.6249999359716 L 858.1171875840519 958.656249855936 L 858.5234370560502 955.4804684799747 L 860.1640622080304 951.6914063359727 L 862.4140625920263 948.7226562559372 L 864.9765621760162 946.3671879679314 L 867.8437498880667 944.3203123199637 L 871.015624704014 942.3750000639702 L 874.1953126400476 941.1445309439441 L 877.6718745600665 940.4296878079185 L 881.4609377280576 940.5312501759618 L 884.4296878080349 941.2499998719431 L 887.0937497600098 942.3750000639702 L 889.9609374720603 944.0117186559364 L 892.7265628160094 946.1640622079722 L 895.1875000320142 948.6210938879522 L 907.9843747840496 965.3124997119303 L 910.9531248640269 967.6679690239253 L 913.7187502080342 969.714843647962 L 917.2031252480228 972.0703129599569 L 921.5000002560555 974.1171875839354 L 930.3046871040133 974.7343749119318 L 934.4062504960457 975.0390620159451 L 938.6015621120459 975.2460933119291 L 941.7734379520407 974.4257812479627 L 942.9062502400484 971.7656248319545 L 941.9843747840496 962.343749631953 L 941.0625003520399 944.5234370559338 L 950.5859379200265 938.9960939519224 L 955.7031249920256 936.6406246399274 L 965.3281249280553 932.1328127999441 L 977.9218749440624 926.2968750079744 L 980.8906250240398 925.0703124479624 L 983.7578127360321 923.6367185919662 L 986.1171875840519 922.4062504959293 L 988.2656245760154 920.8710932479589 L 992.7734374400461 913.19140659197 L 992.8749998080311 908.5820313599543 L 992.9765621760162 906.5351567359758 L 992.6718750720611 904.1796874239226 L 992.5703127040179 900.4921876479639 L 995.9453122560517 900.0820316159516 L 1004.5468753920286 896.7031255039619 L 1006.5937500160653 895.2695316479658 L 1008.1328128000605 893.9414067199687 L 1009.8750003200257 892.097655807971 L 1012.3281254400499 889.2304691199679 L 1014.1718753280584 886.3632814079756 L 1015.6093747200212 884.0078120959224 L 1017.4531246080296 880.6289059839328 L 1019.0859376640292 877.1445309439441 L 1019.7031249920256 874.5859379199683 L 1020.2109378560563 868.9531248639687 L 1021.0312499200227 858.097655807971 L 1017.9609374720603 858.3046871039551 L 1007.0077184000402 859.3281013759552 L 997.7890621440602 857.0742190079181 L 994.921875456057 854.9257809919654 L 992.0546877440647 852.6718750719447 L 988.9843752960442 850.5234370559338 L 985.2968744960381 847.9609374719439 L 980.281249792024 844.7890626559383 L 972.6015621120459 841.3046876159497 L 964.3046871040133 838.9492183039547 L 963.7890621440602 847.4492190719466 L 966.9687500800355 856.3593748479616 L 973.2109373440617 864.1406248959247 L 973.9296870400431 868.1328127999441 L 973.828124672058 871.921874943946 L 972.0859371520346 875.917968383932 L 971.4687498240382 877.8632816639729 L 970.7578122240375 886.3632814079756 L 970.2421872640261 892.4023439359735 L 969.7343754240428 896.7031255039619 L 967.6796876800363 896.0898437119322 L 959.79687526403 893.3242183679249 L 953.9609374720603 889.9453122559353 L 948.53125017602 887.9999999999418 L 944.2343751680455 887.1796879359754 L 940.4453120000544 886.7734374399297 L 935.4296872960404 886.8749998079729 L 930.921875456057 887.078124543943 L 926.5156249600113 887.9999999999418 L 920.3750000640284 889.7421875199652 L 917.9140628480236 890.7656253439491 L 914.8437504000613 892.7109375999426 L 911.2578129920294 895.2695316479658 L 907.7812500480213 895.3710940159508 L 903.3749995520338 895.1679682559334 L 895.898437632015 895.1679682559334 L 890.8828129280591 894.8593745919643 L 886.6875002880115 894.2460938239237 L 884.1249996800325 893.5312496639672 L 881.5625000960426 892.5078128639725 L 877.26562508801 890.7656253439491 L 869.3828126720618 889.4335938559379 L 864.0546877440647 888.4101560319541 L 857.2968744960381 888.1015623679268 L 855.0468751360313 886.8749998079729 L 853.2031252480228 884.4179691519239 L 851.4609377280576 881.9570309119299 L 849.7187502080342 879.0898442239268 L 847.6718745600665 875.0976563199656 L 846.3359375360305 871.4101565439487 L 845.7265623040148 868.4414064639714 L 845.2109373440617 864.0390625279397 L 845.4140620800317 860.3515627519228 L 846.1328128000605 855.8476564479643 L 847.3671874560532 851.5468748799758 L 847.8750003200257 847.7578127359739 L 848.8984371200204 843.2499998719431 L 850.2343751680455 838.031250431959 L 851.8671872000559 832.9101557759568 L 853.5078123520361 829.7343754239264 L 854.2265620480175 826.8671877119341 L 855.2499998720596 823.5898439679295 L 857.5000002560555 820.6210938879522 L 859.546874880034 818.9843752959277 L 862.2109378560563 817.2421877759625 L 878.6953123840503 809.1523440639721 L 884.6406246400438 806.5937500159489 L 888.2187499520369 805.2617185279378 L 891.6015626240405 805.3632808959228 L 894.3671879680478 806.4882810879499 L 897.2343746560509 807.5156254719477 L 899.2812503040186 809.2539064319571 L 902.3515627520392 811.4062499839347 L 905.8359377920278 812.5312501759618 L 907.8828124160646 812.4296878079185 L 912.8984371200204 810.8945315839374 L 922.3203123200219 800.0390625279397 L 927.2343746560509 796.558594047965 L 929.79687526403 794.8164065279416 L 932.3515627520392 793.9960934399278 L 938.2968750080327 792.1523435519193 L 946.9999994880636 791.539062783937 L 952.0156252160086 793.1796879359754 L 955.7031249920256 795.9414067199687 L 961.8437498880667 799.4257817599573 L 967.5781253120513 793.8945310719428 L 969.6328120320104 790.6171873279382 L 970.9609379840549 783.9609374719439 L 972.4999997440609 780.378906623926 L 975.5703121920233 777.714843647962 L 984.0703129600151 775.8710937599535 L 988.8828129280591 776.6914058239199 L 996.7656253440655 779.5585935359704 L 1002.0859371520346 782.2226565119345 L 1009.6640624640277 788.7734374399297 L 1013.1484375040163 791.539062783937 L 1016.8359372800332 793.9960934399278 L 1021.0312499200227 795.6367185919662 L 1020.0078120960388 799.7304688639706 L 1019.2968744960381 803.4179686399293 L 1018.9843752960442 807.0000005119364 L 1020.109375488013 815.8085939199664 L 1020.7265628160094 821.2343746559345 L 1022.2656245760154 824.20312473597 L 1024.0 826.5445307225309" fill="none"/><path stroke="#000000" stroke-width="2" d="M 1024.0 657.76799486237 L 1023.898437632015 657.7031249919673 L 1020.8281251840526 653.710937087948 L 1019.5000002560555 650.6367191039608 L 1019.3984378880123 647.6679690239253 L 1020.2109378560563 644.2890629119356 L 1021.343750144064 640.7031255039619 L 1022.2656245760154 637.1210936319549 L 1023.4921871360275 633.1289067519247 L 1024.0 632.386594160409" fill="none"/><path stroke="#000000" stroke-width="2" d="M 1024.0 564.116488688931 L 1023.1875000320142 564.6210938879522 L 1020.6250004480244 566.6679685119307 L 1017.8593751040171 568.2070312959258 L 1014.1718753280584 570.0468746239203 L 1011.2031252480228 571.3789061119314 L 1008.0312504320173 572.7109375999426 L 1004.8515624960419 574.453125119966 L 1001.6796876800363 576.2929684479604 L 999.5312496640254 577.7265623039566 L 996.0468746240367 579.5703121919651 L 993.1796879360336 580.0820316159516 L 990.6250004480244 579.5703121919651 L 988.2656245760154 578.8554690559395 L 985.7031249920256 578.2421872639679 L 982.53125017602 577.6249999359716 L 978.2343751680455 576.7031255039619 L 973.828124672058 576.1914060799754 L 970.3437496320112 575.2695316479658 L 955.7031249920256 569.535156223923 L 952.8359372800332 568.4101560319541 L 950.5859379200265 567.4882815999445 L 948.53125017602 566.5664061439456 L 945.1562496000552 565.0312499199645 L 940.9609379840549 563.085937663971 L 938.3984373760177 561.6523438079748 L 933.4843750400469 558.7851560959243 L 928.8749998080311 555.917968383932 L 925.7031249920256 553.6640624639695 L 923.0390620160615 551.2070307839313 L 920.7812495360267 548.9531248639687 L 918.1249996800325 546.2929684479604 L 915.6640624640277 543.7304688639706 L 913.6171878400492 541.5820308479597 L 911.6718745600665 539.4296872959239 L 909.828124672058 537.2812503039604 L 907.9843747840496 534.2070312959258 L 906.3437496320112 531.6484372479608 L 905.1171870720573 528.7812495359685 L 904.6015621120459 525.8125004799222 L 904.3984373760177 522.5351567359758 L 904.0937502720626 518.2343751679291 L 904.2968750080327 513.9335935999407 L 905.9375001600129 509.4257817599573 L 907.6796876800363 506.66406297596404 L 909.6249999360298 503.79687526397174 L 912.078125056054 500.21093785593985 L 914.4374999040156 496.730468351976 L 916.5859379200265 493.1445309439441 L 918.53125017602 489.4609377279412 L 920.2734376960434 485.7734379519243 L 921.8046873600106 482.0859371519182 L 922.8359372800332 478.1953126399312 L 923.648437248019 473.89453107194277 L 923.9609374720603 470.51562495995313 L 923.9609374720603 467.1367188479635 L 928.1562501120497 461.81250047992216 L 932.3593748480198 465.19140659197 L 943.6171878400492 474.40625049592927 L 946.7968747520354 477.07031244796235 L 949.5625000960426 480.24218726396793 L 951.8125004800386 483.10937497596024 L 954.9843752960442 488.2304686079733 L 957.0312499200227 491.917968383932 L 958.7734374400461 494.57812479994027 L 962.0546877440647 499.39062476792606 L 964.8203120640246 503.1796879359754 L 968.812499968044 508.1992191999452 L 971.8828124160646 511.88671897596214 L 973.9296870400431 513.8320312319556 L 976.390625280037 515.9804692479665 L 979.5625000960426 518.2343751679291 L 982.1249996800325 519.7695313919685 L 984.4765624320135 521.4101565439487 L 987.8593751040171 523.0468751359731 L 991.0312499200227 524.277344255941 L 993.5937495040125 524.9921873919666 L 996.9687500800355 526.3242188799195 L 1000.1406248960411 527.2460933119291 L 1003.7265623040148 528.0664063999429 L 1007.3124997120467 528.7812495359685 L 1011.1015628800378 529.292968959955 L 1015.5078123520361 529.9062497279374 L 1018.8828129280591 530.2148433919647 L 1023.2890624000574 530.1132810239214 L 1024.0 529.8481000043321" fill="none"/><path stroke="#000000" stroke-width="2" d="M 1024.0 501.31054644552205 L 1023.898437632015 501.2343746559345 L 1018.3750000640284 497.8554685439449 L 1012.4296878080349 494.9882808319526 L 1007.828124672058 493.0429685759591 L 1001.6796876800363 490.9960939519224 L 996.3593748480198 489.1523440639721 L 989.8046873600106 487.0039060479612 L 982.6328125440632 484.5429688319564 L 976.179687424039 482.0859371519182 L 970.4453120000544 479.8359377919696 L 960.8203120640246 474.71484415995656 L 958.0546877440647 472.7695308799739 L 954.3750000640284 470.1054689279408 L 947.9218749440624 464.98437529592775 L 943.0078126080334 456.89453158393735 L 941.6718745600665 454.2343751679291 L 951.3984378880123 447.88671897596214 L 956.3203123200219 445.7343754239264 L 960.3125002240413 443.78906214394374 L 964.0000000000582 441.7421875199652 L 968.710937600059 439.28515583992703 L 973.5234375680448 436.62109388795216 L 978.6406246400438 434.16406220797217 L 982.8359372800332 433.65234380797483 L 986.9374996480183 430.57812479994027 L 991.2343746560509 427.5078123519197 L 994.8203120640246 423.5156254719477 L 996.6640629760223 421.16015615995275 L 999.5312496640254 418.3945308159455 L 1004.0390625280561 415.3203128319583 L 1006.6953123840503 413.1718748159474 L 1008.9531248640269 411.83984332793625 L 1012.53125017602 408.66406297596404 L 1015.6093747200212 405.28515583992703 L 1017.656250368047 402.2148433919647 L 1019.2968744960381 399.5507814399316 L 1020.7265628160094 395.7617182719405 L 1021.2421877760207 391.5664066559402 L 1021.1328122880659 387.57031219196506 L 1020.3203123200219 383.98828134394716 L 1018.9843752960442 381.12109363195486 L 1016.2187499520369 376.61328076792415 L 1014.4765624320135 374.0546877439483 L 1012.0234373120475 371.187500031956 L 1009.8750003200257 368.6289059839328 L 1006.9062502400484 366.273437695927 L 1004.4453120000544 364.7382814719458 L 1001.4765629440662 363.19921868795063 L 996.6640629760223 362.5859379199683 L 993.898437632015 364.2226565119345 L 991.7499996160623 367.5000002559391 L 987.9609374720603 369.44531251193257 L 985.2968744960381 371.5976560639683 L 983.1484375040163 375.1796879359754 L 982.3281254400499 379.2773437439464 L 981.8125004800386 383.37499955197563 L 979.968749568041 387.2656250879518 L 977.2031252480228 391.4609377279412 L 973.7265623040148 396.9921873919666 L 971.8828124160646 402.4179691519239 L 961.1328122880659 404.05859327997314 L 955.2968744960381 405.6953128959285 L 951.6093747200212 406.7187496959232 L 942.5937500160653 408.8710932479589 L 939.0078126080334 410.5078128639725 L 935.1171870720573 412.14843699196354 L 930.8203120640246 413.6835942399339 L 927.335937024036 414.8085934079718 L 924.0624998400453 415.93750015995465 L 920.9921873920248 416.8593745919643 L 918.4296878080349 417.7812500479631 L 915.7656248320127 418.906250239932 L 913.6171878400492 419.7265623039566 L 911.1562496000552 419.8281246719416 L 906.4453120000544 419.21484390395926 L 904.914062336029 421.97656268795254 L 903.1718748160638 424.33203097595833 L 900.6093752320157 425.1523440639721 L 895.1875000320142 424.43749990395736 L 892.109375488013 422.79687475191895 L 888.1174056960153 420.03140198392794 L 884.9453127680463 417.6757811199641 L 882.179687424039 415.01562470395584 L 878.5937500160653 411.5312496639672 L 876.0390625280561 408.25781247991836 L 874.2968750080327 405.39062476792606 L 872.7578122240375 402.2148433919647 L 871.1171870720573 398.83593727997504 L 869.9921879040194 395.96874956792453 L 869.0703124480206 393.30468761594966 L 868.0468746240367 389.62109337595757 L 867.6406251520384 387.0585937919677 L 867.2265625600121 384.3984373759595 L 866.6171873280546 381.7343754239264 L 866.6171873280546 373.746094079921 L 867.4375004160102 370.47265587194124 L 867.8437498880667 367.80859391996637 L 870.1953126400476 365.1445309439441 L 871.4296872960404 363.816406015947 L 874.3984373760177 361.8710937599535 L 876.1406248960411 360.43749990395736 L 879.5156254720641 359.0000005119364 L 883.4062499840511 357.16015615995275 L 886.1718753280584 352.550780927937 L 888.2187499520369 350.70703103992855 L 890.3750000640284 348.66015641595004 L 891.3984378880123 346.5078128639725 L 892.8281251840526 343.43750041595194 L 895.3906247680425 340.3632814079756 L 899.1796879360336 336.8828129279427 L 902.8671877120505 333.71093708794797 L 906.8593745920225 331.1484375039581 L 911.0546872320119 328.8984371199622 L 917.1015628800378 325.21093734394526 L 922.8359372800332 322.24218726396793 L 928.8749998080311 320.4999997439445 L 934.3046871040133 318.554687487951 L 940.9609379840549 316.30078156793024 L 946.078125056054 313.640625151922 L 953.343750144064 308.4179691519239 L 958.5703127040179 304.2187499519205 L 962.2578124800348 298.7890626559383 L 965.023437824042 295.0000005119364 L 967.0703124480206 290.49609420791967 L 967.8906245120452 287.52734412794234 L 968.1953126400476 284.558594047965 L 965.6328120320104 280.9726566399331 L 961.7421875200234 279.02734335995046 L 956.2109378560563 277.28515583992703 L 950.5859379200265 275.9570309119299 L 944.9531248640269 273.9062497279374 L 939.4218752000597 272.57812479994027 L 936.5546874880092 271.75781273597386 L 931.2265625600121 270.2226565119345 L 924.3671879680478 269.0937497599516 L 920.8828129280591 268.48046899196925 L 916.7890626560547 267.8671871999395 L 911.2578129920294 266.94531276792986 L 907.0625003520399 266.02343731193105 L 902.9687500800355 265.0000005119364 L 899.3828126720618 263.8710937599535 L 896.921875456057 263.15624959993875 L 892.2109378560563 263.25781299197115 L 889.7578127360321 263.25781299197115 L 883.8203125760192 263.3593753599562 L 869.9921879040194 264.2812497919658 L 865.79687526403 263.8710937599535 L 861.5937495040125 262.74609356792644 L 856.6796871680417 259.0585937919677 L 855.2499998720596 255.7812500479631 L 854.2265620480175 251.37890611193143 L 854.3281254400499 247.79687526397174 L 855.3515622400446 243.08593766397098 L 856.3750000640284 240.8320317439502 L 858.3203123200219 237.65625036793062 L 860.0624998400453 234.1757808639668 L 861.7031249920256 231.10546841594623 L 862.9296875520376 228.85156249592546 L 863.9531253760215 225.26562508795178 L 861.5937495040125 224.1406248959247 L 857.9140628480236 221.37499955197563 L 855.656250368047 219.32812492793892 L 855.8593751040171 216.97265663993312 L 856.6796871680417 213.183593471942 L 857.3984378880123 210.21484339196468 L 858.1171875840519 206.83593727997504 L 858.9374996480183 203.96874956792453 L 859.2421877760207 200.38281215995084 L 858.7265628160094 196.5937500159489 L 858.7265628160094 191.47656294394983 L 860.0624998400453 188.30078156793024 L 861.1875000320142 183.79687526397174 L 863.5390627840534 180.10937548795482 L 867.3281249280553 177.85546854394488 L 869.2734371840488 175.50000025593909 L 871.015624704014 172.01953075197525 L 873.1718748160638 167.10546841594623 L 874.0859371520346 164.03125043195905 L 875.9296870400431 160.449218559952 L 878.9062502400484 157.47656294394983 L 882.179687424039 155.12500019196887 L 884.9453127680463 153.48437503993046 L 888.2187499520369 151.640625151922 L 891.2968744960381 149.39062476792606 L 895.0781245440594 148.3632814079756 L 899.5859374080319 148.26171903993236 L 902.5546874880092 148.16015667194733 L 905.9375001600129 147.5468748799758 L 909.2109373440617 146.8281251839362 L 912.4921876480221 146.00781209592242 L 915.7656248320127 144.98437529592775 L 918.9374996480183 142.52734361594776 L 921.6015626240405 140.378906623926 L 924.2656245760154 138.43359334394336 L 927.335937024036 135.8710937599535 L 930.4062504960457 133.51562547194771 L 932.8671877120505 131.67578111996409 L 935.2265625600121 129.62499993597157 L 937.7812500480213 127.26953164796578 L 940.7500001280569 124.30078156793024 L 944.6406246400438 120.51171839993913 L 949.0468751360313 116.51953151996713 L 951.7109370880644 114.06249983992893 L 953.7578127360321 111.29687449592166 L 955.2968744960381 107.50781235191971 L 956.6250004480244 103.61718783993274 L 958.1562501120497 100.54296883195639 L 958.7734374400461 97.47265638393583 L 958.4687503360328 92.14843699196354 L 957.7499996160623 88.0507811839343 L 957.648437248019 84.67187507194467 L 957.9531253760215 82.4179691519239 L 958.5703127040179 78.42578124796273 L 956.7265628160094 74.2265620479593 L 954.2656245760154 70.74609356792644 L 952.4296878080349 66.64843775995541 L 949.4531246080296 63.167968255933374 L 946.281249792024 61.42578175995732 L 942.6953123840503 58.86718771193409 L 939.828124672058 55.79687526397174 L 939.5234375680448 52.51953151996713 L 941.5703121920233 51.08593766397098 L 942.9062502400484 49.24218777596252 L 942.9062502400484 45.5546879999456 L 942.390625280037 42.789062655938324 L 941.6718745600665 38.082031615951564 L 935.1171870720573 24.257812479918357 L 932.7656253440655 21.390624767926056 L 930.1015623680432 18.4179691519239 L 927.4375004160102 15.960937471943907 L 923.546874880034 13.503905791963916 L 918.4296878080349 11.968749567924533 L 913.9218749440624 11.457031167927198 L 909.5234375680448 11.968749567924533 L 905.2187504640315 12.992187391966581 L 901.023437824042 14.117187583935447 L 896.921875456057 15.347656703961547 L 893.9531253760215 16.57812479994027 L 890.3750000640284 18.01171865593642 L 885.8671872000559 20.46875033597462 L 884.9453127680463 24.35937484796159 L 883.1015628800378 27.22656255995389 L 882.179687424039 29.374999551975634 L 883.9218749440624 31.7304688639706 L 886.8906250240398 33.675781119964086 L 889.656250368047 36.648437759955414 L 889.343750144064 40.23046860797331 L 885.4531246080296 43.09765631996561 L 882.9999994880636 46.476562431955244 L 883.1015628800378 49.24218777596252 L 884.4296878080349 52.82421862392221 L 885.2499998720596 55.79687526397174 L 886.1718753280584 59.68749977595871 L 887.5078123520361 63.167968255933374 L 888.3203123200219 66.54687539197039 L 889.343750144064 70.64453119994141 L 889.656250368047 74.12499967997428 L 889.2421877760207 76.58203135995427 L 888.4296878080349 79.65625036793062 L 887.195312128053 83.44140595191857 L 884.53125017602 87.02734335995046 L 880.6406246400438 91.22656255995389 L 877.8750003200257 94.19531263993122 L 876.0390625280561 96.1406248959247 L 871.9375001600129 98.80468787194695 L 867.6406251520384 100.75000012794044 L 863.335937024036 101.87500031996751 L 860.1640622080304 102.48828108794987 L 856.1718753280584 102.89843711996218 L 851.1484375040163 103.00390604796121 L 847.6718745600665 102.79687475191895 L 843.5781253120513 102.18359398393659 L 838.8671877120505 101.05468723195372 L 835.0781245440594 99.92968703992665 L 831.3906247680425 98.69921894394793 L 827.6015626240405 97.26953164796578 L 824.8359372800332 96.24218726396793 L 821.968749568041 95.01562470395584 L 819.8203125760192 93.88671897596214 L 817.5625000960426 92.25000038393773 L 815.6171878400492 90.71484415995656 L 813.26562508801 88.7695308799739 L 811.4218752000597 87.33593702391954 L 809.7812500480213 85.08203110395698 L 807.8359377920278 82.82812518393621 L 805.8906245120452 78.62890598393278 L 804.8671877120505 74.53515673597576 L 805.0703124480206 70.33593753597233 L 805.9921879040194 66.24218726396793 L 807.6328120320104 62.554687487951014 L 809.9843747840496 59.2773437439464 L 811.6249999360298 57.02343782392563 L 813.26562508801 55.58984396792948 L 815.2109373440617 53.95312537596328 L 817.2578129920294 51.597656063968316 L 820.53125017602 50.164062207972165 L 818.382812160009 46.78515609592432 L 817.1562496000552 43.71093708794797 L 817.1562496000552 41.05078169592889 L 817.9765626880107 38.89843711996218 L 820.2265620480175 37.05468723195372 L 821.8671872000559 36.03125043195905 L 823.3984378880123 34.29296844796045 L 828.3203123200219 28.86328115192009 L 830.6718750720611 26.304687103955075 L 833.8437498880667 23.640625151921995 L 836.921875456057 22.207031295925844 L 838.9687500800355 20.570312703959644 L 841.5234375680448 18.4179691519239 L 844.289062912052 16.371093503956217 L 846.9531248640269 13.605469183938112 L 848.7968747520354 10.945312767929863 L 850.8437504000613 7.769531391968485 L 851.6640624640277 4.492187647963874 L 853.1638391332963 0.0" fill="none"/></svg>