<svg xmlns="http://www.w3.org/2000/svg" width="1024" height="1024"><rect stroke="none" x="0" y="0" width="1024" height="1024" fill="white"/><path stroke="#000000" stroke-width="2" d="M 0.0 1.4421108091191854 L 8.800033792096656 1.4235453438013792 L 9.92710656003328 1.422223359812051 L 12.38612992002163 1.4277160958736204 L 48.13148160011042 1.5235481598065235 L 56.49265459208982 1.5235481598065235 L 77.88281241600635 1.5664066558820195 L 128.37047705607256 1.5235481598065235 L 216.68188160011778 1.5235481598065235 L 234.00875417602947 1.4621050879359245 L 245.56089344003703 1.450670079968404 L 281.2871065600193 1.422223359812051 L 313.0311065600836 1.365329920023214 L 350.3515627520974 1.3671874559950083 L 372.8324904960464 1.346552831819281 L 404.3750000640284 1.3203128319000825 L 527.968749568041 1.3203128319000825 L 540.2168934401125 1.365329920023214 L 565.3906247680425 1.47265638387762 L 574.0578816000489 1.5235481598065235 L 595.968749568041 1.4296872959821485 L 621.3120000000345 1.3368934398167767 L 779.4631065600552 1.3368934398167767 L 821.6171878401074 1.3671874559950083 L 825.7578127360903 1.3671874559950083 L 860.5312501760782 1.3671874559950083 L 875.2454830080969 1.365329920023214 L 906.7405803520232 1.365329920023214 L 920.5781248000567 1.3671874559950083 L 938.5390725120669 1.365329920023214 L 991.7749708800111 1.365329920023214 L 1005.2284938240773 1.392023551859893 L 1024.0 1.484713599056704" fill="none"/></svg>