<svg xmlns="http://www.w3.org/2000/svg" width="1024" height="1024"><rect stroke="none" x="0" y="0" width="1024" height="1024" fill="white"/><path stroke="#000000" stroke-width="2" d="M 0.0 614.7704021425889 L 2.315625062410254 614.8273436671938 L 5.549999923212454 614.8273436671938 L 7.639062528009527 614.7867187199881 L 8.520312422409187 614.7867187199881 L 10.179687424004078 614.7664062463912 L 11.059374899207615 614.7664062463912 L 12.574999961606228 614.7046875135857 L 13.600000000011642 614.7249999871943 L 16.834375065611674 614.7249999871943 L 18.65781248001149 614.7453124607913 L 22.282812416006344 614.7453124607913 L 25.45781248001149 614.7046875135857 L 27.115625062410253 614.7249999871943 L 28.345312460802962 614.7453124607913 L 33.812500070407985 614.7453124607913 L 42.189062553609254 614.7664062463912 L 45.20000000001164 614.7664062463912 L 51.05781248001149 614.7867187199881 L 52.573437542410105 614.7249999871943 L 65.57812490240903 614.7249999871943 L 69.4078124032123 614.7453124607913 L 76.55468748800922 614.7453124607913 L 79.95468759040814 614.7249999871943 L 83.45625006080373 614.7046875135857 L 85.87343749121064 614.6843750399887 L 88.8843749376014 614.6843750399887 L 94.59843747840496 614.6429687807919 L 96.11406254080357 614.6226563071948 L 102.2578124800115 614.5820311551913 L 127.85781248001149 614.5820311551913 L 130.54062510080402 614.5406251007923 L 149.40156252160668 614.5406251007923 L 149.87343749121064 614.5617186815944 L 150.85624995840482 614.5406251007923 L 160.50312499200226 614.5406251007923 L 162.632812544005 614.5609375743894 L 163.2671875072061 614.5617186815944 L 165.54062499840512 614.5406251007923 L 166.62656245760155 614.5617186815944 L 167.69062502400485 614.5406251007923 L 173.7734375424101 614.5406251007923 L 179.05781248001148 614.5203124223859 L 180.10156257280613 614.5406251007923 L 193.78281246720582 614.5820311551913 L 195.52343756800983 614.5617186815944 L 195.54375004160684 616.3429687295924 L 195.54375004160684 620.7054688255885 L 195.52343756800983 621.401562521595 L 195.52343756800983 639.9976562687895 L 195.50312509441284 640.7351562239928 L 195.50312509441284 641.4109374463908 L 195.52343756800983 643.7250000895932 L 195.52343756800983 650.0734375935863 L 195.50312509441284 650.8515624959837 L 195.52343756800983 652.060156313586 L 195.52343756800983 658.2250000383938 L 195.50312509441284 659.4125000703847 L 195.50312509441284 678.4585936895921 L 195.48281241600634 679.564843827195 L 195.48281241600634 686.077343743993 L 195.46249994240935 687.1218749439926 L 195.48281241600634 691.1976562687894 L 195.48281241600634 714.8109375487896 L 195.50312509441284 716.7976562687894 L 195.48281241600634 718.2718750719912 L 195.44062504960456 722.2859374591848 L 195.44218746881234 723.1257812991855 L 195.44062504960456 723.8429687807918 L 195.44218746881234 726.1367187455878 L 195.42031257600757 729.5562500095926 L 195.42031257600757 735.9054688255885 L 195.39999989761273 737.277343743993 L 195.39999989761273 740.8617187327939 L 195.44218746881234 742.4382812159951 L 195.44062504960456 744.8140625919914 L 195.42031257600757 747.4765625343891 L 195.44062504960456 748.0093749247841 L 195.42031257600757 748.4390625279863 L 195.42031257600757 756.0164063231903 L 195.44062504960456 757.7367187455878 L 195.44062504960456 759.1499999231892 L 195.42031257600757 761.8945312767871 L 195.42031257600757 766.0726562815951 L 195.39999989761273 767.9976562687895 L 195.39999989761273 775.1453124607913 L 195.3796874240041 775.7593749503837 L 195.3796874240041 781.3296875519911 L 195.33906247681006 781.985156300792 L 195.33906247681006 783.3984374783934 L 195.3796874240041 788.7234375679866 L 195.3796874240041 790.4640624639927 L 195.39999989761273 793.5976562687895 L 195.44062504960456 795.2359374847845 L 195.44062504960456 796.2390624255873 L 195.42031257600757 800.1921875967877 L 195.42031257600757 802.6499999743886 L 195.44218746881234 804.0835938303848 L 195.42031257600757 805.5984375807923 L 195.42031257600757 815.4499999743887 L 195.3796874240041 816.9648437247845 L 195.3796874240041 818.9312499711872 L 195.37989201920573 818.9317314559943 L 195.35941632001195 821.1226296319859 L 195.35941632001195 824.0922296319856 L 195.35941632001195 824.8090296319918 L 195.35941632001195 825.9968696319847 L 195.35941632001195 826.9184696319862 L 195.35941632001195 827.5533496319898 L 195.35941632001195 828.8640696319868 L 195.35941632001195 832.1818296319922 L 195.37989632000682 834.6189496319857 L 195.35941632001195 835.5200696319923 L 195.35941632001195 836.7693496319931 L 195.35941632001195 838.0391096319887 L 195.35941632001195 840.3533496319899 L 195.35941632001195 841.1111096319859 L 195.35941632001195 842.2170296319877 L 195.37989632000682 843.957829631993 L 195.37989632000682 844.7975096319918 L 195.35941632001195 846.5997496319935 L 195.35941632001195 847.8490296319942 L 195.35941632001195 849.9584696319886 L 195.35941632001195 852.6618296319851 L 195.35435530240647 853.0262161407852 L 195.33906247681006 854.1367187455878 L 195.33906247681006 858.9898436607909 L 195.31875000320142 859.5843749887892 L 195.31875000320142 871.1960938495934 L 195.33906247681006 872.4656250879867 L 195.33906247681006 878.7531249663909 L 195.31875000320142 881.4976563199889 L 195.31875000320142 888.5429688319913 L 195.29843752960443 890.6929686527932 L 195.29843752960443 893.0281250815839 L 195.31875000320142 896.1820311551913 L 195.31875000320142 899.0289061887888 L 195.31875000320142 899.6023437311873 L 195.29843752960443 901.8343749631895 L 195.29843752960443 909.4531250175903 L 195.2781250560074 910.8656250879867 L 195.2781250560074 921.5976562687895 L 195.2578125824104 922.8265625599888 L 195.2562499584048 924.3421874175896 L 195.2578125824104 925.7960937471944 L 195.2562499584048 927.372656230384 L 195.2562499584048 930.0765624319902 L 195.2578125824104 931.6945311743882 L 195.2562499584048 932.1445312511875 L 195.2359374848078 934.3359375359839 L 195.2359374848078 942.425781247986 L 195.2156250112108 943.5109375999891 L 195.2156250112108 949.9828125695931 L 195.2359374848078 951.2937500671949 L 195.2359374848078 951.9281250303844 L 195.2562499584048 955.1640625151922 L 195.2578125824104 956.3109375999891 L 195.2562499584048 957.0281250815839 L 195.2781250560074 959.3421875199886 L 195.29843752960443 961.0828124159947 L 195.29843752960443 964.134375014389 L 195.31875000320142 967.1453124607913 L 195.33906247681006 967.9437500415836 L 195.33906247681006 970.1351563263918 L 195.35937495040707 972.4289062911878 L 195.35937495040707 972.9203124223859 L 195.33906247681006 974.517968691187 L 195.33906247681006 993.1750000639935 L 195.31875000320142 998.3976562687894 L 195.33906247681006 999.0734374911874 L 195.33906247681006 1006.9992187903845 L 195.35937495040707 1012.713281331188 L 195.35937495040707 1019.9835936767864 L 195.3796874240041 1023.9976562687895 L 195.3797255334037 1024.0" fill="none"/><path stroke="#000000" stroke-width="2" d="M 1024.0 615.7695311871939 L 1023.8781249536084 615.7695311871939 L 1017.7749999616062 615.8718750719912 L 1012.9624999936088 615.6874999807915 L 1011.3437499392079 615.6671875071945 L 1010.4218750976027 615.6468750335858 L 1006.612500070408 615.5445311487886 L 999.3843750912114 615.3398437887896 L 998.2781249536085 615.3804687359836 L 992.0723888128065 615.3804687359836 L 991.0078124032123 615.3601562623866 L 989.9421874176129 615.3601562623866 L 984.4158461952117 615.3707182079903 L 979.3140625408035 615.3804687359836 L 978.6171875328058 615.3804687359836 L 978.2839627776062 615.3759295487893 L 956.0890624000109 615.2781250559841 L 955.4953125888017 615.2781250559841 L 947.2000000000116 615.2578125823871 L 938.1281249280088 615.2578125823871 L 936.940625100804 615.2374999039923 L 935.1171874816064 615.2374999039923 L 934.2781249536085 615.2164063231903 L 924.7546875904081 615.2164063231903 L 923.7515624448075 615.2374999039923 L 922.6250000384055 615.2578125823871 L 921.7031249920022 615.2374999039923 L 919.7171875840053 615.2374999039923 L 919.1843749888125 615.2578125823871 L 918.4265625600121 615.2374999039923 L 917.032812544005 615.2578125823871 L 915.9890624512103 615.2578125823871 L 914.7609374720021 615.2374999039923 L 902.9031249920023 615.2374999039923 L 901.939062579209 615.2578125823871 L 900.0968749056104 615.2578125823871 L 899.1750000640052 615.2374999039923 L 897.557812428812 615.2578125823871 L 896.1031249920022 615.2781250559841 L 891.8015625216067 615.2781250559841 L 888.7093749760068 615.2578125823871 L 887.9921874944121 615.2374999039923 L 884.1624999936088 615.2578125823871 L 881.7468749824096 615.2578125823871 L 881.1125000192085 615.2781250559841 L 880.7419914240018 615.274376806384 L 879.104687513609 615.2578125823871 L 877.9374999552034 615.2374999039923 L 876.9953124352032 615.2374999039923 L 873.4515625984059 615.2578125823871 L 870.2781249536085 615.2781250559841 L 868.4546875392086 615.2781250559841 L 864.2765625344124 615.2578125823871 L 860.0171874304069 615.2578125823871 L 855.4296875008033 615.2781250559841 L 851.2109375488129 615.2781250559841 L 845.4562500608038 615.2984375295928 L 844.0843749376014 615.2984375295928 L 839.7624999936088 615.3187500031897 L 833.5781249024091 615.3187500031897 L 830.2593748992076 615.2984375295928 L 825.5296874496038 615.2984375295928 L 821.9453124608029 615.3398437887896 L 819.8562500608037 615.3398437887896 L 819.0781249536085 615.3601562623866 L 817.9515625472064 615.3601562623866 L 816.1703124992084 615.3601562623866 L 813.5281250304076 615.3804687359836 L 808.9609375744127 615.4218749951921 L 807.2000000000116 615.4218749951921 L 805.6421875712113 615.442187468789 L 804.906250035204 615.4218749951921 L 803.2062500864034 615.442187468789 L 801.5875000320026 615.442187468789 L 798.7609374720021 615.4624999423861 L 795.5671875584055 615.4828124159947 L 793.2734375936095 615.4624999423861 L 790.1187500032014 615.4624999423861 L 787.5187499008025 615.5031250943896 L 785.7359374336083 615.5242186751915 L 784.5281249280088 615.5445311487886 L 783.1156250624102 615.5445311487886 L 782.4390625280096 615.564843827195 L 777.9328124928055 615.605468774389 L 774.0421875712112 615.605468774389 L 770.9906249728053 615.585156300792 L 768.3687499776017 615.564843827195 L 767.8781249536084 615.605468774389 L 760.3828125696048 615.605468774389 L 759.1734374400112 615.6265625599888 L 758.1500000256113 615.6468750335858 L 756.8999999488121 615.605468774389 L 755.9171874816063 615.585156300792 L 753.1531249664025 615.6265625599888 L 752.1078124544117 615.585156300792 L 749.6093749248073 615.605468774389 L 748.9343750144122 615.585156300792 L 743.0156249088119 615.6265625599888 L 742.2781249536085 615.6265625599888 L 737.1984375808039 615.6468750335858 L 732.0578125824104 615.6468750335858 L 727.8390624256106 615.6671875071945 L 721.6750000128056 615.6874999807915 L 714.8953124864026 615.6874999807915 L 709.6937500672066 615.7289062399883 L 708.814062592003 615.7492187135853 L 707.5437500416068 615.7492187135853 L 706.9703124992084 615.7695311871939 L 703.979687526403 615.7898436607909 L 699.2500000768108 615.8312499199877 L 698.1234374656109 615.8515625983943 L 692.8593750016065 615.8312499199877 L 691.0781249536085 615.8109374463908 L 690.4437499904074 615.7898436607909 L 683.6843749376014 615.7898436607909 L 681.9031250944129 615.8109374463908 L 680.837499904004 615.8109374463908 L 671.3140625408035 615.8921875455883 L 668.1812500480097 615.913281331188 L 665.4781249536085 615.9539062783937 L 660.357812428812 615.933593804785 L 654.9718749184045 615.933593804785 L 646.6156249088119 615.9539062783937 L 641.0656249856111 615.9539062783937 L 639.8781249536084 614.7453124607913 L 639.4265624576016 614.3773437951925 L 614.2984374272055 614.3773437951925 L 611.3484374016058 614.3976562687894 L 532.5624999936088 614.3976562687894 L 528.4151683072093 614.4157001727842 L 527.8937499648076 614.4179687423864 L 527.2999999488122 614.3976562687894 L 515.7484374016058 614.3976562687894 L 409.47812495360847 614.3976562687894 L 406.8562499584048 614.4179687423864 L 403.0468749312102 614.4585936895921 L 392.78593740800864 614.4585936895921 L 391.02500003840544 614.4796874751919 L 383.939062579209 614.4796874751919 L 382.99687505920883 614.4999999487889 L 380.253125017602 614.5203124223859 L 375.0296875008033 614.5406251007923 L 369.2968749056105 614.5406251007923 L 368.2515625984059 614.5617186815944 L 366.4703125504078 614.5617186815944 L 365.6921874432126 614.5820311551913 L 360.2234374144115 614.6023438335862 L 358.40000000001163 614.5406251007923 L 354.73437491200167 614.4796874751919 L 352.95312506880146 614.4796874751919 L 350.57812500480793 614.4999999487889 L 343.92187494400423 614.4999999487889 L 337.42968750080325 614.5203124223859 L 336.4468750336091 614.5203124223859 L 332.6781249536085 614.4999999487889 L 331.75624990720536 614.29531258879 L 331.2843749376014 614.4999999487889 L 326.9234374656109 614.4999999487889 L 323.11406243840463 614.5203124223859 L 319.7140625408036 614.5203124223859 L 318.0953124864027 614.5406251007923 L 317.0921875456115 614.5203124223859 L 314.1234374656109 614.5406251007923 L 295.5062499328051 614.5406251007923 L 292.0249999360065 614.5609375743894 L 290.1812500480097 614.5617186815944 L 282.68593745920805 614.5617186815944 L 281.47812495360847 614.5820311551913 L 275.27187496960397 614.5820311551913 L 274.6171875328058 614.6023438335862 L 265.9328124928055 614.6023438335862 L 261.8375000064028 614.6226563071948 L 254.1171875840053 614.6226563071948 L 252.55937495040706 614.6429687807919 L 251.92499998720595 614.6226563071948 L 250.36874997760168 614.6226563071948 L 247.44062504960456 614.6429687807919 L 246.33437491200166 614.6226563071948 L 241.54218741761287 614.6226563071948 L 240.35468759040813 614.6023438335862 L 237.73281259520445 614.6226563071948 L 231.65000007681084 614.6226563071948 L 230.13437501441223 614.6429687807919 L 226.18125004800967 614.6429687807919 L 220.77500006400516 614.6226563071948 L 203.69531248640268 614.6226563071948 L 199.20937492480735 614.6023438335862 L 197.8578124800115 614.6023438335862 L 195.87187507200287 614.5820311551913 L 195.52343756800983 614.5617186815944 L 195.48281241600634 613.7218750463915 L 195.50312509441284 613.0046875647852 L 195.50312509441284 611.8375000063912 L 195.52343756800983 611.2023437311873 L 195.52343756800983 610.3421874175896 L 195.54375004160684 609.768750079989 L 195.54375004160684 604.9765625855886 L 195.56406251520383 599.3039063039935 L 195.5843749888125 596.7843749887892 L 195.56406251520383 595.3507813375909 L 195.54375004160684 594.6140624895925 L 195.54375004160684 591.6445313023869 L 195.52343756800983 589.9445311487885 L 195.52343756800983 588.7976562687894 L 195.50312509441284 587.3640624127933 L 195.48281241600634 585.807812403189 L 195.46249994240935 583.6164063231903 L 195.44062504960456 582.7351562239928 L 195.44062504960456 582.2851563519914 L 195.3796874240041 577.8609375231899 L 195.3796874240041 573.2734375935863 L 195.42031257600757 572.5367187455879 L 195.46249994240935 571.7375000575906 L 195.48281241600634 571.0820313087897 L 195.48281241600634 568.603906252794 L 195.46093752320158 565.9210938367876 L 195.46249994240935 565.2656250879867 L 195.42031257600757 563.2585936895921 L 195.3796874240041 559.6546875391854 L 195.3796874240041 554.4726562815952 L 195.39999989761273 550.6226563071948 L 195.39999989761273 546.9367187455879 L 195.42031257600757 540.7312500735861 L 195.42031257600757 537.5976562687895 L 195.50312509441284 533.5421874175896 L 195.6046874624095 527.9101562879863 L 195.6671875072061 525.5351562239928 L 195.72812492800875 522.7289063423872 L 195.7361342464108 522.3735975935939 L 195.82968750080326 518.2234374143882 L 195.82968750080326 517.6296873983927 L 195.85593077760421 516.7379009535886 L 195.87187507200287 516.1960937471944 L 195.89218754561153 515.1718750207917 L 195.89219553280856 515.1715651583858 L 195.9734374400112 511.99765626878946 L 196.22031257600756 505.7101561855874 L 196.24062504960457 502.43359375358557 L 196.21874995200196 500.09843752959273 L 196.21874995200196 497.86640629759063 L 196.22031257600756 494.15937495038384 L 196.24062504960457 492.62343741438815 L 196.24062504960457 489.55156254719475 L 196.17812500480795 487.91328133118805 L 196.19843747840497 487.19609384959335 L 196.17812500480795 486.56171868159436 L 196.17812500480795 484.9023436799878 L 196.15781253121094 481.31875000318973 L 196.15781253121094 477.7960937471944 L 196.17812500480795 475.13359380478505 L 196.26093752320156 468.53906247678674 L 196.26093752320156 465.77421864959183 L 196.28124999681023 462.80468746238625 L 196.22031257600756 461.7398437887896 L 196.17812500480795 460.7976562687894 L 196.19843747840497 459.896093695995 L 196.24062504960457 456.55781253118766 L 196.24062504960457 455.6570312703843 L 196.28124999681023 453.1789062143886 L 196.30156247040722 450.5367187455879 L 196.30156247040722 448.81640632319034 L 196.28124999681023 447.28046878719465 L 196.26093752320156 444.84374999038414 L 196.24062504960457 443.24609372159466 L 196.26093752320156 441.9562500095926 L 196.24062504960457 438.638281318394 L 196.24062504960457 435.4640625663917 L 196.3015682048048 433.9277502463898 L 196.3828125696047 428.6031249407912 L 196.26093752320156 425.01874995199034 L 196.21874995200196 422.13124997118723 L 196.19843747840497 421.1687499775901 L 196.0359374848078 417.25703127038435 L 195.99374991360818 414.86093742079106 L 195.99374991360818 414.28750008319037 L 196.0156250112108 413.36562503678726 L 196.0359374848078 409.94531246079134 L 196.03437506561167 409.1468750847853 L 196.0359374848078 407.2835938303848 L 196.0562499584048 406.01328127998863 L 196.09687490561046 397.7187500031898 L 196.09687490561046 394.40156241918453 L 196.1171875840053 390.6125000703847 L 196.11849256961142 390.4835444735945 L 196.1375000576023 388.60546867199014 L 196.1375000576023 387.1921874943888 L 196.15781253121094 383.99765626878946 L 196.15781253121094 382.5843750911881 L 196.17812500480795 381.2734375935863 L 196.17812500480795 378.26328125438886 L 196.19843747840497 377.6484374527936 L 196.21874995200196 376.603906252794 L 196.24062504960457 375.86718740478386 L 195.95312496640253 374.0851562495925 L 195.52343756800983 371.3820311551914 L 195.42031257600757 370.7265624063905 L 195.13437491200165 368.92421877759045 L 194.72499998720596 366.42578124798604 L 194.62187499520368 365.7906249727937 L 193.69999994881218 360.01562501118747 L 193.59843758080387 359.44218746878903 L 193.43437496321275 358.29531258879 L 193.31093749760186 357.639843839989 L 192.55312506880145 353.44140615678623 L 192.4921874432126 348.8539062271942 L 192.4921874432126 336.66796871678673 L 192.47187496960396 332.7976562687894 L 192.47187496960396 314.5703124991851 L 192.45156249600694 309.47109375998843 L 192.45156249600694 308.58984366079096 L 192.48787763200235 307.662407475186 L 192.51249623040204 307.0336880639894 L 192.47187496960396 300.6031249407912 L 192.47187496960396 294.31562506238697 L 192.45156249600694 286.86093742079106 L 192.47187496960396 285.078906265588 L 192.51249991680962 282.2937499647844 L 192.51249991680962 281.5976562687895 L 192.53281259520446 278.93515632639173 L 192.55312506880145 276.825781247986 L 192.55312506880145 276.0476563455886 L 192.53281259520446 271.7468749823863 L 192.61562490881187 262.1617186815944 L 192.6359375872067 260.97421864959176 L 192.65625006080373 260.09375006719495 L 192.67656253441237 258.90546872318953 L 192.75781242881203 256.14062510079236 L 192.80000000001164 255.28046878719465 L 192.84062494720564 253.7859375103842 L 192.9624999936088 249.21875005438926 L 193.04531251200243 246.69921873918497 L 193.08593745920808 245.8187499519903 L 193.1265624064021 244.81562501118754 L 193.22968739840434 242.82890629118776 L 193.3734375424101 239.4289061887888 L 193.39375001600712 238.69218754558824 L 193.4953125888016 235.68125009918583 L 193.69999994881218 230.39765626878943 L 193.74062510080404 227.38671882238702 L 193.74218752001178 225.64609372159464 L 193.78281246720582 224.27421880319014 L 193.78281246720582 223.53671884798678 L 193.7624999936088 222.36953128959283 L 193.78281246720582 221.3453125631902 L 193.78281246720582 220.56718745599505 L 193.82343741441144 218.10937507839412 L 193.90468751360896 216.5328125951928 L 193.90468751360896 215.20156241918448 L 193.92656240640207 214.32031252478487 L 193.96718755840556 212.12968755199108 L 193.98750003200257 209.6101562367869 L 194.04843745280522 206.25156259839423 L 194.06874992640223 204.7976562687894 L 194.10937507840572 203.2820312063908 L 194.06874992640223 201.66406246399276 L 194.08906240001087 200.5375000575907 L 194.11093749760184 199.04296878079185 L 194.10937507840572 197.93671884798675 L 194.1515624448075 191.32187504639148 L 194.19218759681098 187.63515617279336 L 194.212500070408 184.7062499327934 L 194.232812544005 182.0234375167871 L 194.232812544005 180.42656255998884 L 194.253125017602 179.07499991038344 L 194.253125017602 175.61328127998854 L 194.27343749121064 173.48359372798586 L 194.2953125888016 166.58203115519132 L 194.29374996480766 165.45546874878926 L 194.29374996480766 162.6499999743886 L 194.31562506241025 157.81640622079135 L 194.31562506241025 156.77187502079175 L 194.31406243840465 156.21874995199028 L 194.31562506241025 155.6046874623862 L 194.33593753600726 153.59765626878948 L 194.35625000960425 146.10156257279448 L 194.37656248321292 141.86249994238608 L 194.37656248321292 137.04999997438858 L 194.3968749568099 133.6500000767876 L 194.39687127040233 129.6973498367937 L 194.37656248321292 127.99765626878946 L 194.35625000960425 123.4921875455882 L 194.35625000960425 122.4476563455886 L 194.33593753600726 118.72031252478484 L 194.31562506241025 112.57578127358579 L 194.31562506241025 110.20000010238732 L 194.29374996480766 105.34687498238634 L 193.8641805312014 102.88892088319403 L 194.27343749121064 102.39765626878943 L 194.27343749121064 94.41015623678686 L 194.29374996480766 91.93203118079111 L 194.29445632001153 91.45987031038385 L 194.29445632001153 90.34894970878963 L 194.29374996480766 89.90468751358571 L 194.29374996480766 86.89453117438825 L 194.2953125888016 84.25234370558758 L 194.2953125888016 83.51484375038422 L 194.29374996480766 81.36484372478446 L 194.2953125888016 80.50468741118675 L 194.29374996480766 79.23437506558844 L 194.29374996480766 78.49765621759002 L 194.2953125888016 76.69531258878999 L 194.31562506241025 72.9265625087894 L 194.31406243840465 70.96093757438939 L 194.31562526720808 69.54758963198401 L 194.35625000960425 59.12343756798657 L 194.37656248321292 56.03046871038384 L 194.37656248321292 51.115625062386925 L 194.3968749568099 47.777343692793465 L 194.3968749568099 40.99843747839327 L 194.41718743040693 39.093749964784365 L 194.41718743040693 29.16093747199045 L 194.43749990400391 28.014062591991433 L 194.43749990400391 23.89765631998887 L 194.41718743040693 20.49765621759002 L 194.41718743040693 13.718750003189825 L 194.3968749568099 12.080468787194718 L 194.3968749568099 8.639843737590127 L 194.37656248321292 6.469531238393415 L 194.37656248321292 5.7117188095929805 L 194.35625000960425 1.2054687743890327 L 194.35625000960425 0.0" fill="none"/><path stroke="#000000" stroke-width="2" d="M 332.6781249536085 614.4999999487889 L 336.4468750336091 614.5203124223859 L 337.42968750080325 614.5203124223859 L 343.92187494400423 614.4999999487889 L 350.57812500480793 614.4999999487889 L 352.95312506880146 614.4796874751919 L 354.73437491200167 614.4796874751919 L 358.40000000001163 614.5406251007923 L 360.2234374144115 614.6023438335862 L 365.6921874432126 614.5820311551913 L 366.4703125504078 614.5617186815944 L 368.2515625984059 614.5617186815944 L 369.2968749056105 614.5406251007923 L 375.0296875008033 614.5406251007923 L 380.253125017602 614.5203124223859 L 382.99687505920883 614.4999999487889 L 383.939062579209 614.4796874751919 L 391.02500003840544 614.4796874751919 L 392.78593740800864 614.4585936895921 L 403.0468749312102 614.4585936895921 L 406.8562499584048 614.4179687423864 L 409.47812495360847 614.3976562687894 L 515.7484374016058 614.3976562687894 L 527.2999999488122 614.3976562687894 L 527.8937499648076 614.4179687423864 L 528.4151683072093 614.4157001727842 L 532.5624999936088 614.3976562687894 L 611.3484374016058 614.3976562687894 L 614.2984374272055 614.3773437951925 L 639.4265624576016 614.3773437951925 L 639.8781249536084 614.7453124607913 L 641.0656249856111 615.9539062783937 L 646.6156249088119 615.9539062783937 L 654.9718749184045 615.933593804785 L 660.357812428812 615.933593804785 L 665.4781249536085 615.9539062783937 L 668.1812500480097 615.913281331188 L 671.3140625408035 615.8921875455883 L 680.837499904004 615.8109374463908 L 681.9031250944129 615.8109374463908 L 683.6843749376014 615.7898436607909 L 690.4437499904074 615.7898436607909 L 691.0781249536085 615.8109374463908 L 692.8593750016065 615.8312499199877 L 698.1234374656109 615.8515625983943 L 699.2500000768108 615.8312499199877 L 703.979687526403 615.7898436607909 L 706.9703124992084 615.7695311871939 L 707.5437500416068 615.7492187135853 L 708.814062592003 615.7492187135853 L 709.6937500672066 615.7289062399883 L 714.8953124864026 615.6874999807915 L 721.6750000128056 615.6874999807915 L 727.8390624256106 615.6671875071945 L 732.0578125824104 615.6468750335858 L 737.1984375808039 615.6468750335858 L 742.2781249536085 615.6265625599888 L 743.0156249088119 615.6265625599888 L 748.9343750144122 615.585156300792 L 749.6093749248073 615.605468774389 L 752.1078124544117 615.585156300792 L 753.1531249664025 615.6265625599888 L 755.9171874816063 615.585156300792 L 756.8999999488121 615.605468774389 L 758.1500000256113 615.6468750335858 L 759.1734374400112 615.6265625599888 L 760.3828125696048 615.605468774389 L 767.8781249536084 615.605468774389 L 768.3687499776017 615.564843827195 L 770.9906249728053 615.585156300792 L 774.0421875712112 615.605468774389 L 777.9328124928055 615.605468774389 L 782.4390625280096 615.564843827195 L 783.1156250624102 615.5445311487886 L 784.5281249280088 615.5445311487886 L 785.7359374336083 615.5242186751915 L 787.5187499008025 615.5031250943896 L 790.1187500032014 615.4624999423861 L 793.2734375936095 615.4624999423861 L 795.5671875584055 615.4828124159947 L 798.7609374720021 615.4624999423861 L 801.5875000320026 615.442187468789 L 803.2062500864034 615.442187468789 L 804.906250035204 615.4218749951921 L 805.6421875712113 615.442187468789 L 807.2000000000116 615.4218749951921 L 808.9609375744127 615.4218749951921 L 813.5281250304076 615.3804687359836 L 816.1703124992084 615.3601562623866 L 817.9515625472064 615.3601562623866 L 819.0781249536085 615.3601562623866 L 819.8562500608037 615.3398437887896 L 821.9453124608029 615.3398437887896 L 825.5296874496038 615.2984375295928 L 830.2593748992076 615.2984375295928 L 833.5781249024091 615.3187500031897 L 839.7624999936088 615.3187500031897 L 844.0843749376014 615.2984375295928 L 845.4562500608038 615.2984375295928 L 851.2109375488129 615.2781250559841 L 855.4296875008033 615.2781250559841 L 860.0171874304069 615.2578125823871 L 864.2765625344124 615.2578125823871 L 868.4546875392086 615.2781250559841 L 870.2781249536085 615.2781250559841 L 873.4515625984059 615.2578125823871 L 876.9953124352032 615.2374999039923 L 877.9374999552034 615.2374999039923 L 879.104687513609 615.2578125823871 L 880.7419914240018 615.274376806384 L 881.1125000192085 615.2781250559841 L 881.7468749824096 615.2578125823871 L 884.1624999936088 615.2578125823871 L 887.9921874944121 615.2374999039923 L 888.7093749760068 615.2578125823871 L 891.8015625216067 615.2781250559841 L 896.1031249920022 615.2781250559841 L 897.557812428812 615.2578125823871 L 899.1750000640052 615.2374999039923 L 900.0968749056104 615.2578125823871 L 901.939062579209 615.2578125823871 L 902.9031249920023 615.2374999039923 L 914.7609374720021 615.2374999039923 L 915.9890624512103 615.2578125823871 L 917.032812544005 615.2578125823871 L 918.4265625600121 615.2374999039923 L 919.1843749888125 615.2578125823871 L 919.7171875840053 615.2374999039923 L 921.7031249920022 615.2374999039923 L 922.6250000384055 615.2578125823871 L 923.7515624448075 615.2374999039923 L 924.7546875904081 615.2164063231903 L 934.2781249536085 615.2164063231903 L 935.1171874816064 615.2374999039923 L 936.940625100804 615.2374999039923 L 938.1281249280088 615.2578125823871 L 947.2000000000116 615.2578125823871 L 955.4953125888017 615.2781250559841 L 956.0890624000109 615.2781250559841 L 978.2839627776062 615.3759295487893 L 978.6171875328058 615.3804687359836 L 979.3140625408035 615.3804687359836 L 984.4158461952117 615.3707182079903 L 989.9421874176129 615.3601562623866 L 991.0078124032123 615.3601562623866 L 992.0723888128065 615.3804687359836 L 998.2781249536085 615.3804687359836 L 999.3843750912114 615.3398437887896 L 1006.612500070408 615.5445311487886 L 1010.4218750976027 615.6468750335858 L 1011.3437499392079 615.6671875071945 L 1012.9624999936088 615.6874999807915 L 1017.7749999616062 615.8718750719912 L 1023.8781249536084 615.7695311871939 L 1024.0 615.7695311871939" fill="none"/><path stroke="#000000" stroke-width="2" d="M 195.3797255334037 1024.0 L 195.3796874240041 1023.9976562687895 L 195.35937495040707 1019.9835936767864 L 195.35937495040707 1012.713281331188 L 195.33906247681006 1006.9992187903845 L 195.33906247681006 999.0734374911874 L 195.31875000320142 998.3976562687894 L 195.33906247681006 993.1750000639935 L 195.33906247681006 974.517968691187 L 195.35937495040707 972.9203124223859 L 195.35937495040707 972.4289062911878 L 195.33906247681006 970.1351563263918 L 195.33906247681006 967.9437500415836 L 195.31875000320142 967.1453124607913 L 195.29843752960443 964.134375014389 L 195.29843752960443 961.0828124159947 L 195.2781250560074 959.3421875199886 L 195.2562499584048 957.0281250815839 L 195.2578125824104 956.3109375999891 L 195.2562499584048 955.1640625151922 L 195.2359374848078 951.9281250303844 L 195.2359374848078 951.2937500671949 L 195.2156250112108 949.9828125695931 L 195.2156250112108 943.5109375999891 L 195.2359374848078 942.425781247986 L 195.2359374848078 934.3359375359839 L 195.2562499584048 932.1445312511875 L 195.2578125824104 931.6945311743882 L 195.2562499584048 930.0765624319902 L 195.2562499584048 927.372656230384 L 195.2578125824104 925.7960937471944 L 195.2562499584048 924.3421874175896 L 195.2578125824104 922.8265625599888 L 195.2781250560074 921.5976562687895 L 195.2781250560074 910.8656250879867 L 195.29843752960443 909.4531250175903 L 195.29843752960443 901.8343749631895 L 195.31875000320142 899.6023437311873 L 195.31875000320142 899.0289061887888 L 195.31875000320142 896.1820311551913 L 195.29843752960443 893.0281250815839 L 195.29843752960443 890.6929686527932 L 195.31875000320142 888.5429688319913 L 195.31875000320142 881.4976563199889 L 195.33906247681006 878.7531249663909 L 195.33906247681006 872.4656250879867 L 195.31875000320142 871.1960938495934 L 195.31875000320142 859.5843749887892 L 195.33906247681006 858.9898436607909 L 195.33906247681006 854.1367187455878 L 195.35435530240647 853.0262161407852 L 195.35941632001195 852.6618296319851 L 195.35941632001195 849.9584696319886 L 195.35941632001195 847.8490296319942 L 195.35941632001195 846.5997496319935 L 195.37989632000682 844.7975096319918 L 195.37989632000682 843.957829631993 L 195.35941632001195 842.2170296319877 L 195.35941632001195 841.1111096319859 L 195.35941632001195 840.3533496319899 L 195.35941632001195 838.0391096319887 L 195.35941632001195 836.7693496319931 L 195.35941632001195 835.5200696319923 L 195.37989632000682 834.6189496319857 L 195.35941632001195 832.1818296319922 L 195.35941632001195 828.8640696319868 L 195.35941632001195 827.5533496319898 L 195.35941632001195 826.9184696319862 L 195.35941632001195 825.9968696319847 L 195.35941632001195 824.8090296319918 L 195.35941632001195 824.0922296319856 L 195.35941632001195 821.1226296319859 L 195.37989201920573 818.9317314559943 L 195.37989632000682 818.9312696319888 L 195.3796874240041 818.9312499711872 L 195.3796874240041 816.9648437247845 L 195.42031257600757 815.4499999743887 L 195.42031257600757 805.5984375807923 L 195.44218746881234 804.0835938303848 L 195.42031257600757 802.6499999743886 L 195.42031257600757 800.1921875967877 L 195.44062504960456 796.2390624255873 L 195.44062504960456 795.2359374847845 L 195.39999989761273 793.5976562687895 L 195.3796874240041 790.4640624639927 L 195.3796874240041 788.7234375679866 L 195.33906247681006 783.3984374783934 L 195.33906247681006 781.985156300792 L 195.3796874240041 781.3296875519911 L 195.3796874240041 775.7593749503837 L 195.39999989761273 775.1453124607913 L 195.39999989761273 767.9976562687895 L 195.42031257600757 766.0726562815951 L 195.42031257600757 761.8945312767871 L 195.44062504960456 759.1499999231892 L 195.44062504960456 757.7367187455878 L 195.42031257600757 756.0164063231903 L 195.42031257600757 748.4390625279863 L 195.44062504960456 748.0093749247841 L 195.42031257600757 747.4765625343891 L 195.44062504960456 744.8140625919914 L 195.44218746881234 742.4382812159951 L 195.39999989761273 740.8617187327939 L 195.39999989761273 737.277343743993 L 195.42031257600757 735.9054688255885 L 195.42031257600757 729.5562500095926 L 195.44218746881234 726.1367187455878 L 195.44062504960456 723.8429687807918 L 195.44218746881234 723.1257812991855 L 195.44062504960456 722.2859374591848 L 195.48281241600634 718.2718750719912 L 195.50312509441284 716.7976562687894 L 195.48281241600634 714.8109375487896 L 195.48281241600634 691.1976562687894 L 195.46249994240935 687.1218749439926 L 195.48281241600634 686.077343743993 L 195.48281241600634 679.564843827195 L 195.50312509441284 678.4585936895921 L 195.50312509441284 659.4125000703847 L 195.52343756800983 658.2250000383938 L 195.52343756800983 652.060156313586 L 195.50312509441284 650.8515624959837 L 195.52343756800983 650.0734375935863 L 195.52343756800983 643.7250000895932 L 195.50312509441284 641.4109374463908 L 195.50312509441284 640.7351562239928 L 195.52343756800983 639.9976562687895 L 195.52343756800983 621.401562521595 L 195.54375004160684 620.7054688255885 L 195.54375004160684 616.3429687295924 L 195.52343756800983 614.5617186815944 L 195.87187507200287 614.5820311551913 L 197.8578124800115 614.6023438335862 L 199.20937492480735 614.6023438335862 L 203.69531248640268 614.6226563071948 L 220.77500006400516 614.6226563071948 L 226.18125004800967 614.6429687807919 L 230.13437501441223 614.6429687807919 L 231.65000007681084 614.6226563071948 L 237.73281259520445 614.6226563071948 L 240.35468759040813 614.6023438335862 L 241.54218741761287 614.6226563071948 L 246.33437491200166 614.6226563071948 L 247.44062504960456 614.6429687807919 L 250.36874997760168 614.6226563071948 L 251.92499998720595 614.6226563071948 L 252.55937495040706 614.6429687807919 L 254.1171875840053 614.6226563071948 L 261.8375000064028 614.6226563071948 L 265.9328124928055 614.6023438335862 L 274.6171875328058 614.6023438335862 L 275.27187496960397 614.5820311551913 L 281.47812495360847 614.5820311551913 L 282.68593745920805 614.5617186815944 L 290.1812500480097 614.5617186815944 L 292.0249999360065 614.5609375743894 L 295.5062499328051 614.5406251007923 L 314.1234374656109 614.5406251007923 L 317.0921875456115 614.5203124223859 L 318.0953124864027 614.5406251007923 L 319.7140625408036 614.5203124223859 L 323.11406243840463 614.5203124223859 L 326.9234374656109 614.4999999487889 L 331.2843749376014 614.4999999487889 L 331.75624990720536 614.29531258879 L 332.6781249536085 614.4999999487889" fill="none"/><path stroke="#000000" stroke-width="2" d="M 194.35625000960425 0.0 L 194.35625000960425 1.2054687743890327 L 194.37656248321292 5.7117188095929805 L 194.37656248321292 6.469531238393415 L 194.3968749568099 8.639843737590127 L 194.3968749568099 12.080468787194718 L 194.41718743040693 13.718750003189825 L 194.41718743040693 20.49765621759002 L 194.43749990400391 23.89765631998887 L 194.43749990400391 28.014062591991433 L 194.41718743040693 29.16093747199045 L 194.41718743040693 39.093749964784365 L 194.3968749568099 40.99843747839327 L 194.3968749568099 47.777343692793465 L 194.37656248321292 51.115625062386925 L 194.37656248321292 56.03046871038384 L 194.35625000960425 59.12343756798657 L 194.31562526720808 69.54758963198401 L 194.31406243840465 70.96093757438939 L 194.31562506241025 72.9265625087894 L 194.2953125888016 76.69531258878999 L 194.29374996480766 78.49765621759002 L 194.29374996480766 79.23437506558844 L 194.2953125888016 80.50468741118675 L 194.29374996480766 81.36484372478446 L 194.2953125888016 83.51484375038422 L 194.2953125888016 84.25234370558758 L 194.29374996480766 86.89453117438825 L 194.29374996480766 89.90468751358571 L 194.29445632001153 90.34894970878963 L 194.29445632001153 91.45987031038385 L 194.29374996480766 91.93203118079111 L 194.27343749121064 94.41015623678686 L 194.27343749121064 102.39765626878943 L 193.8641805312014 102.88892088319403 L 194.29374996480766 105.34687498238634 L 194.31562506241025 110.20000010238732 L 194.31562506241025 112.57578127358579 L 194.33593753600726 118.72031252478484 L 194.35625000960425 122.4476563455886 L 194.35625000960425 123.4921875455882 L 194.37656248321292 127.99765626878946 L 194.39687127040233 129.6973498367937 L 194.3968749568099 133.6500000767876 L 194.37656248321292 137.04999997438858 L 194.37656248321292 141.86249994238608 L 194.35625000960425 146.10156257279448 L 194.33593753600726 153.59765626878948 L 194.31562506241025 155.6046874623862 L 194.31406243840465 156.21874995199028 L 194.31562506241025 156.77187502079175 L 194.31562506241025 157.81640622079135 L 194.29374996480766 162.6499999743886 L 194.29374996480766 165.45546874878926 L 194.2953125888016 166.58203115519132 L 194.27343749121064 173.48359372798586 L 194.253125017602 175.61328127998854 L 194.253125017602 179.07499991038344 L 194.232812544005 180.42656255998884 L 194.232812544005 182.0234375167871 L 194.212500070408 184.7062499327934 L 194.19218759681098 187.63515617279336 L 194.1515624448075 191.32187504639148 L 194.10937507840572 197.93671884798675 L 194.11093749760184 199.04296878079185 L 194.08906240001087 200.5375000575907 L 194.06874992640223 201.66406246399276 L 194.10937507840572 203.2820312063908 L 194.06874992640223 204.7976562687894 L 194.04843745280522 206.25156259839423 L 193.98750003200257 209.6101562367869 L 193.96718755840556 212.12968755199108 L 193.92656240640207 214.32031252478487 L 193.90468751360896 215.20156241918448 L 193.90468751360896 216.5328125951928 L 193.82343741441144 218.10937507839412 L 193.78281246720582 220.56718745599505 L 193.78281246720582 221.3453125631902 L 193.7624999936088 222.36953128959283 L 193.78281246720582 223.53671884798678 L 193.78281246720582 224.27421880319014 L 193.74218752001178 225.64609372159464 L 193.74062510080404 227.38671882238702 L 193.69999994881218 230.39765626878943 L 193.4953125888016 235.68125009918583 L 193.39375001600712 238.69218754558824 L 193.3734375424101 239.4289061887888 L 193.22968739840434 242.82890629118776 L 193.1265624064021 244.81562501118754 L 193.08593745920808 245.8187499519903 L 193.04531251200243 246.69921873918497 L 192.9624999936088 249.21875005438926 L 192.84062494720564 253.7859375103842 L 192.80000000001164 255.28046878719465 L 192.75781242881203 256.14062510079236 L 192.67656253441237 258.90546872318953 L 192.65625006080373 260.09375006719495 L 192.6359375872067 260.97421864959176 L 192.61562490881187 262.1617186815944 L 192.53281259520446 271.7468749823863 L 192.55312506880145 276.0476563455886 L 192.55312506880145 276.825781247986 L 192.53281259520446 278.93515632639173 L 192.51249991680962 281.5976562687895 L 192.51249991680962 282.2937499647844 L 192.47187496960396 285.078906265588 L 192.45156249600694 286.86093742079106 L 192.47187496960396 294.31562506238697 L 192.47187496960396 300.6031249407912 L 192.51249623040204 307.0336880639894 L 192.48787763200235 307.662407475186 L 192.45156249600694 308.58984366079096 L 192.45156249600694 309.47109375998843 L 192.47187496960396 314.5703124991851 L 192.47187496960396 332.7976562687894 L 192.4921874432126 336.66796871678673 L 192.4921874432126 348.8539062271942 L 192.55312506880145 353.44140615678623 L 193.31093749760186 357.639843839989 L 193.43437496321275 358.29531258879 L 193.59843758080387 359.44218746878903 L 193.69999994881218 360.01562501118747 L 194.62187499520368 365.7906249727937 L 194.72499998720596 366.42578124798604 L 195.13437491200165 368.92421877759045 L 195.42031257600757 370.7265624063905 L 195.52343756800983 371.3820311551914 L 195.95312496640253 374.0851562495925 L 196.24062504960457 375.86718740478386 L 196.21874995200196 376.603906252794 L 196.19843747840497 377.6484374527936 L 196.17812500480795 378.26328125438886 L 196.17812500480795 381.2734375935863 L 196.15781253121094 382.5843750911881 L 196.15781253121094 383.99765626878946 L 196.1375000576023 387.1921874943888 L 196.1375000576023 388.60546867199014 L 196.11849256961142 390.4835444735945 L 196.1171875840053 390.6125000703847 L 196.09687490561046 394.40156241918453 L 196.09687490561046 397.7187500031898 L 196.0562499584048 406.01328127998863 L 196.0359374848078 407.2835938303848 L 196.03437506561167 409.1468750847853 L 196.0359374848078 409.94531246079134 L 196.0156250112108 413.36562503678726 L 195.99374991360818 414.28750008319037 L 195.99374991360818 414.86093742079106 L 196.0359374848078 417.25703127038435 L 196.19843747840497 421.1687499775901 L 196.21874995200196 422.13124997118723 L 196.26093752320156 425.01874995199034 L 196.3828125696047 428.6031249407912 L 196.3015682048048 433.9277502463898 L 196.24062504960457 435.4640625663917 L 196.24062504960457 438.638281318394 L 196.26093752320156 441.9562500095926 L 196.24062504960457 443.24609372159466 L 196.26093752320156 444.84374999038414 L 196.28124999681023 447.28046878719465 L 196.30156247040722 448.81640632319034 L 196.30156247040722 450.5367187455879 L 196.28124999681023 453.1789062143886 L 196.24062504960457 455.6570312703843 L 196.24062504960457 456.55781253118766 L 196.19843747840497 459.896093695995 L 196.17812500480795 460.7976562687894 L 196.22031257600756 461.7398437887896 L 196.28124999681023 462.80468746238625 L 196.26093752320156 465.77421864959183 L 196.26093752320156 468.53906247678674 L 196.17812500480795 475.13359380478505 L 196.15781253121094 477.7960937471944 L 196.15781253121094 481.31875000318973 L 196.17812500480795 484.9023436799878 L 196.17812500480795 486.56171868159436 L 196.19843747840497 487.19609384959335 L 196.17812500480795 487.91328133118805 L 196.24062504960457 489.55156254719475 L 196.24062504960457 492.62343741438815 L 196.22031257600756 494.15937495038384 L 196.21874995200196 497.86640629759063 L 196.21874995200196 500.09843752959273 L 196.24062504960457 502.43359375358557 L 196.22031257600756 505.7101561855874 L 195.9734374400112 511.99765626878946 L 195.89219553280856 515.1715651583858 L 195.89218754561153 515.1718750207917 L 195.87187507200287 516.1960937471944 L 195.85593077760421 516.7379009535886 L 195.82968750080326 517.6296873983927 L 195.82968750080326 518.2234374143882 L 195.7361342464108 522.3735975935939 L 195.72812492800875 522.7289063423872 L 195.6671875072061 525.5351562239928 L 195.6046874624095 527.9101562879863 L 195.50312509441284 533.5421874175896 L 195.42031257600757 537.5976562687895 L 195.42031257600757 540.7312500735861 L 195.39999989761273 546.9367187455879 L 195.39999989761273 550.6226563071948 L 195.3796874240041 554.4726562815952 L 195.3796874240041 559.6546875391854 L 195.42031257600757 563.2585936895921 L 195.46249994240935 565.2656250879867 L 195.46093752320158 565.9210938367876 L 195.48281241600634 568.603906252794 L 195.48281241600634 571.0820313087897 L 195.46249994240935 571.7375000575906 L 195.42031257600757 572.5367187455879 L 195.3796874240041 573.2734375935863 L 195.3796874240041 577.8609375231899 L 195.44062504960456 582.2851563519914 L 195.44062504960456 582.7351562239928 L 195.46249994240935 583.6164063231903 L 195.48281241600634 585.807812403189 L 195.50312509441284 587.3640624127933 L 195.52343756800983 588.7976562687894 L 195.52343756800983 589.9445311487885 L 195.54375004160684 591.6445313023869 L 195.54375004160684 594.6140624895925 L 195.56406251520383 595.3507813375909 L 195.5843749888125 596.7843749887892 L 195.56406251520383 599.3039063039935 L 195.54375004160684 604.9765625855886 L 195.54375004160684 609.768750079989 L 195.52343756800983 610.3421874175896 L 195.52343756800983 611.2023437311873 L 195.50312509441284 611.8375000063912 L 195.50312509441284 613.0046875647852 L 195.48281241600634 613.7218750463915 L 195.52343756800983 614.5617186815944 L 193.78281246720582 614.5820311551913 L 180.10156257280613 614.5406251007923 L 179.05781248001148 614.5203124223859 L 173.7734375424101 614.5406251007923 L 167.69062502400485 614.5406251007923 L 166.62656245760155 614.5617186815944 L 165.54062499840512 614.5406251007923 L 163.2671875072061 614.5617186815944 L 162.632812544005 614.5609375743894 L 160.50312499200226 614.5406251007923 L 150.85624995840482 614.5406251007923 L 149.87343749121064 614.5617186815944 L 149.40156252160668 614.5406251007923 L 130.54062510080402 614.5406251007923 L 127.85781248001149 614.5820311551913 L 102.2578124800115 614.5820311551913 L 96.11406254080357 614.6226563071948 L 94.59843747840496 614.6429687807919 L 88.8843749376014 614.6843750399887 L 85.87343749121064 614.6843750399887 L 83.45625006080373 614.7046875135857 L 79.95468759040814 614.7249999871943 L 76.55468748800922 614.7453124607913 L 69.4078124032123 614.7453124607913 L 65.57812490240903 614.7249999871943 L 52.573437542410105 614.7249999871943 L 51.05781248001149 614.7867187199881 L 45.20000000001164 614.7664062463912 L 42.189062553609254 614.7664062463912 L 33.812500070407985 614.7453124607913 L 28.345312460802962 614.7453124607913 L 27.115625062410253 614.7249999871943 L 25.45781248001149 614.7046875135857 L 22.282812416006344 614.7453124607913 L 18.65781248001149 614.7453124607913 L 16.834375065611674 614.7249999871943 L 13.600000000011642 614.7249999871943 L 12.574999961606228 614.7046875135857 L 11.059374899207615 614.7664062463912 L 10.179687424004078 614.7664062463912 L 8.520312422409187 614.7867187199881 L 7.639062528009527 614.7867187199881 L 5.549999923212454 614.8273436671938 L 2.315625062410254 614.8273436671938 L 0.0 614.7704021425889" fill="none"/><path stroke="#408040" stroke-width="3" d="M 1024.0 53.19250772065277 L 1023.7030399999989 53.21523199999933 L 1021.2618240000011 52.86707199999944 L 1020.2890240000008 51.76729599999965 L 1021.3457919999986 50.18009599999937 L 1024.0 48.29049470825703" fill="none"/><path stroke="#408040" stroke-width="3" d="M 971.4140414320543 0.0 L 974.4158720000007 1.9271680000005063 L 983.744511999999 6.197247999999718 L 995.0187520000006 11.882495999999833 L 997.3432319999993 13.156351999999629 L 997.8757119999995 12.447744000000284 L 998.9160960000008 10.09049600000003 L 1000.4930560000008 9.267200000000571 L 1004.5030399999989 8.536063999999897 L 1008.0829440000001 7.757824000000255 L 1012.4328960000014 5.0053119999996625 L 1019.0663679999998 3.360768000000121 L 1024.0 3.440989658536296" fill="none"/><path stroke="#408040" stroke-width="3" d="M 685.9939840000006 1006.7169280000002 L 686.1639679999993 1006.7374079999994 L 686.2376959999995 1006.7456000000005 L 686.2786560000008 1006.5367039999998 L 686.3114239999995 1006.3687680000003 L 686.3790080000006 1006.0001279999997 L 686.4834559999988 1005.4492159999994 L 686.575615999999 1004.9720319999993 L 687.0323200000014 1002.6127359999998 L 687.1060479999985 1002.3219200000007 L 687.1183359999995 1002.2727679999996 L 686.8787199999991 1002.2256640000007 L 686.5448960000009 1002.1621759999995 L 686.3605760000006 1002.1498879999999 L 686.0697600000015 1002.0966400000004 L 685.6519679999998 1002.0556800000006 L 685.1338240000011 1002.1027839999995 L 684.4231679999997 1002.2092799999998 L 683.9971840000013 1002.2215679999994 L 683.3438720000006 1002.1969920000004 L 682.5431039999996 1002.3096319999997 L 681.603072000001 1002.4775680000006 L 680.9989120000013 1002.4857600000003 L 678.4204800000007 1002.2727679999996 L 677.5111680000002 1002.1969920000004 L 675.823616 1002.0638720000003 L 675.0658560000011 1002.1253119999994 L 674.619391999999 1002.2481920000006 L 673.9763199999986 1002.5287679999994 L 672.7823360000009 1003.1288320000007 L 670.5254400000006 1004.2675199999998 L 669.1778560000006 1004.9454079999996 L 665.8990079999988 1006.606336 L 661.4753280000004 1008.8325119999994 L 659.2716799999995 1009.9404800000004 L 656.6154240000003 1011.2512000000003 L 656.0358399999998 1011.4334719999999 L 655.2514560000011 1011.5686400000006 L 652.5972479999997 1011.9720960000006 L 648.9702400000009 1012.5271040000007 L 645.9146240000002 1012.9960959999996 L 643.7949439999996 1013.3217279999997 L 642.1381120000005 1013.6043520000006 L 638.5254400000006 1014.4215039999996 L 633.8928639999998 1015.4700800000006 L 625.2584960000007 1017.4279680000006 L 620.6791679999994 1018.4703999999998 L 616.8494080000004 1019.3407999999996 L 614.8689920000004 1019.809792 L 612.630528 1020.520448 L 610.5518080000008 1021.1819520000005 L 608.4915199999989 1021.8373120000003 L 604.3217919999995 1023.1664640000002 L 601.7048487597116 1024.0" fill="none"/><path stroke="#408040" stroke-width="3" d="M 551.4603187532455 1024.0 L 550.5843200000003 1023.2811520000002 L 548.5834239999997 1021.6325119999995 L 547.6823039999988 1020.8911359999998 L 547.1313919999986 1020.3914239999998 L 545.9599359999993 1018.7673599999995 L 544.9195520000009 1017.2968959999998 L 544.7024639999988 1017.0900479999997 L 544.3297279999999 1016.8750079999998 L 543.6129279999993 1016.6927360000002 L 541.4195199999988 1016.2421759999997 L 540.387328 1016.0312319999997 L 539.8487040000007 1015.9964160000003 L 539.4923520000011 1016.0394239999994 L 539.0069760000013 1016.1930240000002 L 538.1734399999987 1016.600576 L 536.9221120000002 1017.214976 L 534.8741119999992 1018.2123519999993 L 533.9607040000003 1018.5093120000005 L 533.1353600000002 1018.6076159999997 L 530.6654719999991 1018.5584640000001 L 527.2657919999998 1018.4867840000006 L 524.1487359999999 1018.4191999999996 L 522.9219840000005 1018.3843840000002 L 522.0372479999991 1018.2860799999995 L 521.0378239999991 1018.0689920000004 L 518.1030399999988 1017.233408 L 514.1053439999989 1016.0844800000007 L 512.9113600000012 1015.5601920000001 L 511.57196800000094 1014.8372480000005 L 508.2214399999997 1013.024768 L 507.7893119999993 1012.7155199999994 L 507.3838079999987 1012.3161600000007 L 506.9352959999989 1011.6280320000005 L 506.3843839999987 1010.3726079999993 L 506.1672959999996 1010.0305919999998 L 505.8785280000011 1009.7152000000002 L 505.2252160000004 1009.2564480000001 L 504.4592639999988 1008.9758719999998 L 503.7383679999999 1008.8775680000006 L 502.1429759999999 1008.8366080000008 L 495.3354239999986 1008.6625279999993 L 488.66303999999946 1008.4925440000006 L 484.80460800000003 1008.3962880000006 L 482.8610560000001 1008.3491840000003 L 481.7797120000003 1008.4065279999995 L 479.0906879999995 1008.9021439999997 L 476.71705599999984 1009.3731839999994 L 475.8773760000011 1009.5390719999996 L 475.0725119999988 1009.7725439999995 L 474.2819840000011 1010.1739520000003 L 473.6081919999997 1010.5589760000003 L 472.93030399999986 1010.9337599999999 L 472.25855999999914 1011.1795199999993 L 471.5335679999989 1011.2880640000003 L 470.71641599999856 1011.2327680000002 L 469.2131839999987 1010.8968959999999 L 467.6423680000007 1010.5446400000001 L 466.7535360000009 1010.3910399999993 L 465.9343359999999 1010.3214080000005 L 464.2406400000007 1010.1637119999999 L 462.5039359999995 1009.664 L 460.3371519999986 1008.9983999999997 L 459.6674560000014 1008.779264 L 459.05715199999975 1008.4884479999994 L 458.5144319999992 1008.1013760000002 L 457.428992000001 1007.2371199999994 L 456.3558400000009 1006.3912960000001 L 453.4845440000005 1004.4825599999997 L 445.8700799999991 999.4731520000001 L 443.7708799999993 998.0948480000006 L 442.8984319999989 997.5193599999999 L 442.37823999999966 997.0892800000001 L 441.0245120000007 995.4611199999999 L 440.4879359999992 994.9614079999999 L 439.8817279999988 994.5886719999995 L 439.1137279999995 994.2241280000002 L 435.26553600000045 992.3850239999999 L 432.8796159999998 991.1910399999994 L 431.77164800000025 990.633984 L 431.40095999999903 990.4455679999999 L 430.96473600000024 990.1527040000001 L 430.4609280000004 989.6099839999995 L 430.2868480000005 989.308928 L 430.12710399999924 988.84608 L 430.0369919999997 988.1415680000006 L 429.93049600000086 987.2117759999994 L 429.8895359999995 986.8636159999994 L 429.77894399999934 986.3679999999993 L 429.5987200000003 986.0259839999999 L 429.4000640000013 985.7822719999997 L 428.3596799999999 984.6886400000003 L 427.64492800000005 983.9349759999998 L 426.3546880000009 982.5792000000001 L 425.0746879999991 981.2275200000004 L 420.9991680000006 976.9369600000006 L 418.0664320000011 973.8485759999996 L 416.5877760000003 972.396544 L 415.0108160000003 970.9240319999997 L 414.44966399999976 970.2748160000003 L 414.0032000000007 969.6030719999995 L 413.76153599999964 969.1525120000006 L 412.8931840000005 967.4854399999997 L 412.7354879999999 966.9693440000003 L 412.60851200000036 966.3836160000006 L 412.3607040000003 965.249024 L 411.7831680000003 962.6030079999997 L 411.34284800000023 959.9590400000001 L 411.1564799999993 959.3528319999998 L 410.34137599999957 957.8926080000005 L 408.7173119999992 955.0172160000002 L 408.1336320000002 953.9911680000005 L 407.793664 953.5549440000002 L 407.5479040000006 953.311232 L 407.10963200000117 952.9753599999997 L 406.58124799999933 952.6804480000006 L 405.8419200000004 952.3773440000004 L 404.1420799999993 951.6892160000003 L 399.4644479999988 949.794816 L 396.34739199999893 948.5312000000006 L 395.4585599999991 948.2731520000001 L 393.3286400000012 947.8717439999994 L 386.58867200000094 946.5896959999998 L 385.1284480000002 946.1350399999995 L 383.52281599999986 945.5882240000007 L 382.90227200000083 945.4161919999999 L 382.0523519999988 945.2851200000005 L 379.4022399999987 944.9041920000003 L 376.34252799999956 944.4659199999994 L 374.7471359999996 944.3737599999993 L 372.6417920000007 944.2877439999996 L 371.5420160000009 944.2447360000006 L 370.32755199999957 944.1423360000001 L 368.68096000000077 943.8044160000005 L 363.96646400000026 942.8357120000001 L 354.03980800000136 940.7795199999994 L 353.22060800000037 940.5173760000005 L 352.5345280000009 940.2306559999997 L 351.223808000001 939.6572159999996 L 349.7881599999993 939.0284799999994 L 346.7038720000011 937.6788480000002 L 343.5970559999987 936.3189759999993 L 342.0712960000004 935.6001279999997 L 338.2353919999994 933.9248640000005 L 334.7722240000003 932.4298240000004 L 331.7923840000003 931.2337920000006 L 330.2645760000014 930.6193920000005 L 329.05011200000007 930.0746239999993 L 327.6636159999995 929.4295039999997 L 326.9242880000005 929.0854399999996 L 325.73235200000056 928.4894719999996 L 324.6407680000004 927.6723199999993 L 322.9818880000006 926.4455679999999 L 322.3429119999986 926.1404160000005 L 321.9271680000005 926.0072960000005 L 320.7045119999995 925.7267200000002 L 315.1851519999997 924.4753920000003 L 308.67251199999885 922.9864960000007 L 306.30911999999955 922.1160959999994 L 303.1121920000005 920.9016319999995 L 300.7836160000006 920.0209919999994 L 299.17798400000027 919.4127359999999 L 297.3900800000003 918.7696639999995 L 292.65715199999977 917.3381120000006 L 288.17612800000063 915.9843840000001 L 286.85311999999976 915.6014079999993 L 286.2714880000014 915.5153919999997 L 285.27411199999915 915.4519039999999 L 282.91481600000117 915.3105920000002 L 281.3378560000012 915.2143360000002 L 278.2597119999991 915.0300159999999 L 276.8424960000004 914.9440000000002 L 276.0744960000011 914.9665280000002 L 275.4068479999987 915.0853119999999 L 274.15961599999866 915.4314240000007 L 273.31583999999856 915.6526079999996 L 272.96358400000025 915.6628479999999 L 272.56217600000093 915.5747839999997 L 272.0337919999991 915.277824 L 271.1982079999987 914.7596799999999 L 270.74560000000054 914.5856 L 270.30323199999987 914.5118719999998 L 268.7918080000003 914.6081279999999 L 266.2563839999988 914.814976 L 264.206336 914.9747199999998 L 263.49158400000016 914.9358080000005 L 262.1911040000006 914.7658240000004 L 261.65862400000043 914.7473920000004 L 261.2510719999991 914.6941439999995 L 260.8599040000001 914.6368000000002 L 260.78822400000064 914.6429440000007 L 260.75955200000027 914.6757119999995 L 260.75340800000123 914.7596799999999 L 260.74112000000025 914.874368 L 260.72063999999955 915.1897599999996 L 260.67148800000143 915.4088959999993 L 260.64281600000106 915.4355200000006 L 260.3970559999987 915.4437120000002 L 260.00383999999906 915.4191359999998 L 259.83590400000105 915.392512 L 259.50207999999986 915.2860159999997 L 259.2501760000014 915.3167360000007 L 257.757183999999 915.7693440000003 L 257.51552000000083 915.8430720000003" fill="none"/><path stroke="#408040" stroke-width="3" d="M 685.9939840000006 1006.7169280000002 L 685.8403840000013 1007.5217919999996 L 686.4240640000004 1007.5955199999996 L 688.642048 1007.8822400000005 L 688.7137279999995 1007.8924799999993 L 688.7956479999993 1007.5934720000005 L 688.7874559999997 1007.3722880000001 L 688.9451520000002 1006.4691200000001 L 689.3711359999986 1005.0334719999998 L 689.9814400000002 1003.4585600000006 L 690.3050240000011 1002.7909119999997 L 690.7412479999999 1002.4529920000001 L 692.7482879999995 1002.0126720000001 L 693.8419200000004 1002.1416960000003 L 695.7158399999986 1002.5676800000001 L 696.6415360000013 1002.7028479999993 L 697.6286720000004 1002.7376640000002 L 699.5824640000006 1002.8462079999997 L 703.2033280000003 1004.2757119999994 L 711.9011839999991 1007.6733439999996 L 716.9331199999986 1009.5882240000007 L 719.6835840000015 1010.6675199999997 L 720.6973440000002 1011.1160319999996 L 721.537023999999 1011.1569919999995 L 723.0423039999994 1011.0832639999993 L 723.9536640000006 1011.3024000000005 L 724.9428480000003 1011.5399680000003 L 726.1184000000009 1011.4867199999993 L 727.8817279999988 1011.3863679999995 L 728.655872 1011.1938559999995 L 730.0136960000003 1010.8579840000006 L 731.6705279999994 1010.6880000000004 L 732.2951679999999 1010.5098240000007 L 732.6638080000005 1010.2743040000001 L 733.6120319999987 1009.4571519999997 L 735.193088 1008.0972800000003 L 735.7378560000012 1007.6549119999996 L 736.1966080000013 1007.4746880000006 L 737.0792959999992 1007.4869760000001 L 737.9927040000009 1007.5156480000005 L 739.1191040000006 1007.4972160000004 L 740.0058879999997 1007.3006080000007 L 741.7139200000005 1006.1578240000002 L 742.2484480000014 1005.5782399999996 L 742.9201919999992 1005.1174400000003 L 743.3523199999996 1004.341248 L 743.7926399999997 1003.8517760000002 L 744.6487040000007 1003.608064 L 745.764864 1003.4237439999997 L 747.0182399999991 1003.2250880000007 L 747.9111680000002 1002.9506559999994 L 749.4225919999997 1002.1703680000006 L 750.9585920000012 1001.0501120000001 L 751.7265920000006 1000.5585919999997 L 752.1054719999986 1000.4254719999997 L 752.5662719999993 1000.4029439999998 L 753.7274880000011 1000.5176319999998 L 754.5466879999992 1000.9374720000008 L 755.5440639999986 1001.2753920000002 L 756.5291519999998 1001.6665599999993 L 757.4384640000004 1002.4058879999997 L 757.8337280000007 1002.6168319999997 L 758.5628159999993 1002.8257280000005 L 760.2913280000008 1003.1370240000003 L 760.9384959999995 1003.2947199999995 L 761.5774719999987 1003.5773440000005 L 762.7427839999989 1004.1507840000006 L 763.7340159999992 1004.5788159999996 L 766.6380800000013 1005.7543680000002 L 770.9081600000005 1007.4787840000005 L 775.1249920000002 1009.1745280000002 L 785.6599040000001 1013.1128320000004 L 792.4715519999997 1015.8612479999996 L 798.9616639999992 1018.7468800000003 L 800.8683519999992 1019.6029439999999 L 804.1758720000013 1020.8358399999997 L 807.0348800000007 1021.8332160000006 L 808.2391039999987 1022.1568 L 809.5682559999987 1022.3247359999993 L 813.4819840000011 1022.5418239999999 L 814.4875520000002 1022.6667520000003 L 815.8064639999997 1022.9800959999993 L 816.785407999999 1023.0784 L 817.803263999999 1023.0763519999994 L 822.9171200000012 1023.0661120000004 L 831.3405440000002 1023.0456319999997 L 834.7176960000012 1022.6401280000006 L 844.9351679999993 1022.8940799999997 L 853.8746879999992 1022.963712 L 874.559487999999 1023.1521280000001 L 875.5691519999993 1023.1623680000005 L 876.3228159999999 1023.0886400000003 L 877.209599999999 1022.6851840000003 L 878.3134720000002 1022.1015039999999 L 879.3231360000005 1021.8434559999994 L 880.9697279999993 1021.9089919999999 L 884.7523840000009 1022.1260800000003 L 893.1000319999991 1022.6094079999996 L 899.854336000001 1023.0026240000007 L 908.4948479999991 1023.5125759999995 L 909.8076159999997 1023.5883520000003 L 910.9524479999993 1023.5883520000003 L 911.8412799999991 1023.3548800000004 L 912.642048 1022.9678079999998 L 913.4346240000013 1022.8142080000005 L 914.6695680000005 1022.7425279999995 L 916.7994880000012 1022.789632 L 921.0900480000012 1023.0026240000007 L 922.6731520000001 1023.0845440000005 L 924.4160000000004 1023.3405440000002 L 927.9467520000005 1023.8914560000005 L 928.8812893658499 1024.0" fill="none"/><path stroke="#408040" stroke-width="3" d="M 257.51552000000083 915.8430720000003 L 257.4725119999988 915.8553599999999 L 257.4397440000001 915.7816319999998 L 257.4254080000013 915.7509120000002 L 257.3393920000002 915.5563519999996 L 257.2451839999994 915.3515520000001 L 257.2267519999994 915.314688 L 257.2062719999987 915.2737280000001 L 257.1878399999987 915.2307199999996 L 256.8703999999998 915.3310719999994 L 256.42598400000134 915.4641919999995 L 255.92422399999924 915.6116479999997 L 255.69484799999918 915.6485119999998 L 254.64627200000103 915.6485119999998 L 254.43123199999974 915.6198399999994 L 254.15065600000088 915.4437120000002 L 254.02982400000036 915.4007039999997 L 253.98271999999997 915.392512 L 253.97452800000028 915.4600959999996 L 253.9540479999996 915.5768320000003 L 253.91513599999888 915.6157439999995 L 253.89875199999952 915.6259839999999 L 253.77996799999966 915.6526079999996 L 253.64684800000106 915.7017600000006 L 253.2679680000001 915.9086079999994 L 253.1389439999999 915.9577600000005 L 252.79488000000129 916.0703999999998 L 251.94905600000055 916.3202560000005 L 250.73049600000087 916.680704 L 249.59385600000095 917.0165760000003 L 247.08915200000047 917.7579519999999 L 246.58739200000127 917.9135999999999 L 245.9545600000012 918.198272 L 245.3278720000002 918.5034239999993 L 244.9633280000009 918.6508799999996 L 244.60288 918.7635200000004 L 244.08883199999983 918.8679680000001 L 243.62598400000132 918.9130239999998 L 243.17542400000093 918.9314559999999 L 241.92000000000115 918.9826560000001 L 241.55136000000056 918.9990399999995 L 241.31993599999987 919.0318079999997 L 241.0803199999995 919.0932480000004 L 240.81612800000002 919.1895040000003 L 240.46182400000106 919.390208 L 240.1853440000006 919.6298240000003 L 239.72864000000118 920.1233919999999 L 239.1080959999992 920.793088 L 238.86028799999912 921.0572799999994 L 238.65344000000042 921.2415999999997 L 238.30732800000115 921.4586880000003 L 238.04108800000103 921.5733760000003 L 237.77689599999866 921.6512000000002 L 237.08672000000078 921.7740799999999 L 236.576767999999 921.8621440000003 L 235.6633600000001 922.0239360000007 L 234.87897600000142 922.1263359999997 L 234.1703680000006 922.1754879999993 L 233.2405759999994 922.2615040000004 L 232.73471999999893 922.3618560000002 L 231.4465280000004 922.6833920000005 L 229.2510719999991 923.232256 L 226.82009599999873 923.8405119999995 L 225.97427200000092 924.0514559999996 L 225.2308480000007 924.2583039999997 L 224.48332799999918 924.5327359999995 L 223.9959039999987 924.7600640000004 L 223.14803200000023 925.2290559999994 L 219.0970880000008 927.5351039999994 L 218.31884800000117 927.9979519999994 L 217.7290240000002 928.4280320000005 L 217.33171199999924 928.7741439999998 L 216.75827200000057 929.3271040000006 L 215.53356799999892 930.5108479999996 L 215.14035199999927 930.9573120000001 L 214.83110400000004 931.3525760000005 L 214.1941759999987 932.1738240000006 L 213.63097600000037 932.8988159999993 L 213.24390399999976 933.3800959999993 L 212.83225600000006 933.7569279999996 L 211.70175999999918 934.53312 L 210.36646400000026 935.4342399999994 L 208.00511999999873 937.03168 L 207.29036799999886 937.5293439999994 L 206.94016000000119 937.8529280000002 L 206.66368000000074 938.1662719999993 L 205.62944000000135 939.3643519999998 L 205.28128000000143 939.7719039999996 L 205.08467200000013 940.0381439999998 L 204.7569920000009 940.5603839999997 L 204.12006399999956 941.6396800000002 L 203.75552000000025 942.2622719999999 L 202.96089600000124 943.6160000000003 L 202.52467199999955 944.3573759999999 L 202.32601600000052 944.6768639999995 L 202.10278399999953 944.9594880000004 L 201.83040000000037 945.2359679999994 L 201.49862399999984 945.5042560000002 L 201.10950399999857 945.7500159999996 L 200.7388160000002 945.9363840000005 L 199.37280000000027 946.5917440000005 L 198.5413120000012 946.9911040000006 L 196.4359679999994 947.9925759999999 L 196.12467199999955 948.2014720000006 L 195.84614400000137 948.488192 L 195.6638719999988 948.7933439999994 L 195.50003199999918 949.1804159999999 L 195.3464319999999 949.4753280000004 L 195.22764800000004 949.6453120000006 L 194.79142400000129 950.1859840000004 L 194.53747199999924 950.4255999999993 L 194.24051200000105 950.6549759999995 L 193.87596799999884 950.9232640000002 L 193.55033600000024 951.2243199999997 L 193.34348799999862 951.468032 L 193.12639999999956 951.775232 L 192.69631999999984 952.4162559999997 L 192.2826239999995 953.0368000000002 L 191.78495999999868 953.7064960000004 L 191.28934400000145 954.2676479999994 L 190.5233919999999 955.0151679999996 L 189.224960000001 956.2480639999994 L 188.38732799999997 957.02016 L 187.59679999999935 957.6673280000002 L 186.75916800000124 958.2837759999995 L 186.12019199999924 958.7077120000001 L 185.37062399999996 959.1603199999997 L 184.59033599999967 959.5883520000003 L 183.7895679999987 959.9795199999993 L 180.58035199999867 961.3803520000001 L 174.35033600000025 964.0857600000003 L 169.2610560000001 966.2300159999999 L 168.8616960000014 966.3938559999995 L 168.3517439999996 966.5433600000003 L 167.93804799999924 966.5986560000005 L 167.31750400000018 966.5781759999998 L 165.6709120000014 966.4122879999995 L 164.1431039999996 966.2566399999996 L 162.97983999999997 966.1399040000003 L 162.24460799999943 966.0866559999995 L 161.30662399999855 966.0456959999996 L 159.57811199999998 966.0395520000005 L 157.64275199999975 966.0354560000007 L 156.54092799999927 966.0477440000002 L 156.0965120000008 966.0907519999994 L 155.5824640000006 966.1829119999995 L 154.66905599999882 966.4491519999996 L 153.6593920000014 966.7706879999998 L 151.7301760000002 967.3871360000005 L 151.185407999999 967.5939840000007 L 150.88844800000078 967.7557759999996 L 150.5751040000003 967.9749119999993 L 150.31910400000052 968.2083840000007 L 150.07743999999948 968.454144 L 149.6576000000001 968.8903680000003 L 149.27052799999947 969.3245439999998 L 148.71142399999954 969.8693119999996 L 147.64441600000137 970.9588480000006 L 146.8190720000013 971.8108160000004 L 146.06540800000076 972.5583360000004 L 145.44896000000008 973.0969599999996 L 144.6481919999991 973.7318400000004 L 143.22073600000004 974.8541440000001 L 141.72569599999989 976.0296960000007 L 140.43340800000004 977.045504 L 139.29267199999884 977.9425279999996 L 138.9035520000005 978.2497279999995 L 138.1662719999993 978.7883520000003 L 137.45561600000073 979.2532479999994 L 136.80435200000065 979.6362240000002 L 136.09984000000114 980.0089600000007 L 135.50387200000114 980.2936319999993 L 134.3528959999996 980.7708159999995 L 133.41900800000002 981.0944000000003 L 132.401152 981.3872640000002 L 131.39967999999936 981.6186879999993 L 129.66297600000107 981.9832320000002 L 127.24838400000007 982.4911359999999 L 123.05612799999945 983.371776 L 116.66636799999978 984.7173120000007 L 115.48672000000079 984.9958400000003 L 114.30297600000048 985.3194239999997 L 113.59436799999966 985.5385599999994 L 112.88371200000111 985.7863679999995 L 112.51507200000052 985.9276800000007 L 111.83513600000006 986.2184959999998 L 111.13267200000118 986.5523199999996 L 110.3359999999986 986.9864960000007 L 109.5290879999986 987.4862080000006 L 104.7592960000009 990.5848320000005 L 98.33881600000022 994.7607040000003 L 95.42246400000003 996.6530559999999 L 94.47833600000013 997.2039680000001 L 93.94175999999861 997.4886400000003 L 93.4645760000014 997.7221120000002 L 93.08979199999885 997.8961920000002 L 92.1395199999999 998.2996480000002 L 91.33875199999893 998.5986560000005 L 90.90662399999856 998.7481599999999 L 89.76588800000027 999.1434240000002 L 85.16198399999993 1000.7326719999998 L 81.99577599999903 1001.8263040000005 L 80.6092800000013 1002.3034880000007 L 79.90886400000018 1002.5144320000006 L 78.94220799999894 1002.7560960000003 L 77.93868800000055 1002.9506559999994 L 73.91436800000083 1003.5363840000006 L 70.91199999999954 1003.9726079999994 L 68.61414400000066 1004.3064320000005 L 67.82566400000069 1004.4354560000007 L 67.10476799999887 1004.5849600000001 L 66.19750399999903 1004.8143360000001 L 65.44384000000136 1005.0355200000006 L 63.89350400000112 1005.492224 L 60.28902400000079 1006.5551359999997 L 52.93875199999893 1008.7321599999996 L 48.914431999999216 1009.9220480000004 L 47.990783999999984 1010.2026240000007 L 47.18592000000062 1010.4831999999994 L 46.37491199999931 1010.8108800000002 L 45.71955200000084 1011.1139840000003 L 45.27308799999882 1011.3413119999998 L 44.69964800000016 1011.6567039999994 L 42.91174400000018 1012.6868480000005 L 37.06879999999946 1016.02304 L 33.20831999999937 1018.2348800000007 L 31.621119999999063 1019.1462400000004 L 30.08512000000046 1020.0473599999998 L 28.21939199999906 1021.1737599999993 L 27.049984000000403 1021.7963520000005 L 25.70649599999888 1022.4005120000002 L 24.510464000000503 1022.8469760000007 L 23.79776000000129 1023.0784 L 22.91507200000051 1023.3282560000007 L 21.86240000000107 1023.5760639999993 L 20.897792000000482 1023.7603839999996 L 19.55673670717806 1024.0" fill="none"/><path stroke="#408040" stroke-width="3" d="M 971.1340903783799 0.0 L 971.167744 0.032768000000260145 L 971.2373759999988 0.08191999999985455 L 971.3295359999989 0.137215999999853 L 971.7637119999999 0.3891199999998207 L 972.3985920000007 0.7577600000004168 L 972.812288000001 0.997375999999349 L 973.5536640000006 1.427456000000575 L 974.4158720000007 1.9271680000005063 L 975.0630399999994 2.301952000000142 L 975.3702400000009 2.4801279999999224 L 975.5463679999987 2.576383999999962 L 975.7245439999999 2.6644480000002204 L 976.5765119999996 3.0576639999999315 L 977.2769280000008 3.3792000000000826 L 977.8216959999991 3.6351999999999407 L 978.3889919999987 3.891199999999685 L 978.7863039999996 4.073471999999356 L 978.9665279999987 4.157439999999724 L 979.0484480000014 4.194303999999875 L 979.2778240000014 4.304895999999985 L 979.5071999999985 4.409343999999692 L 979.9598079999996 4.6223360000003595 L 980.5271039999992 4.8906239999996615 L 981.1886079999997 5.1896319999999605 L 981.4548479999997 5.3043199999999615 L 982.00576 5.52140800000052 L 982.7553279999993 5.810176000000524 L 983.744511999999 6.197247999999718 L 985.2354560000007 6.774783999999613 L 985.7372159999999 6.9611520000005385 L 986.0567039999994 7.09017599999936 L 986.6997759999998 7.3461760000005825 L 987.375615999999 7.610367999999994 L 987.6705279999994 7.723007999999368 L 987.8712319999992 7.8049280000007 L 988.6269440000003 8.097792000000481 L 989.1839999999996 8.316928000000189 L 989.7553920000006 8.538112000000524 L 990.1793280000013 8.703999999999382 L 990.5213439999992 8.841216000000713 L 990.7466240000009 8.94771199999957 L 990.8940800000012 9.025535999999533 L 991.1132160000009 9.15660800000046 L 991.2811519999989 9.267200000000571 L 991.6743680000014 9.568256000000133 L 991.9057919999992 9.746431999999913 L 992.3133440000005 10.059776000000397 L 992.6164480000007 10.295295999999553 L 992.8396799999988 10.459136000000626 L 993.0649600000004 10.614784000000554 L 993.4069760000014 10.838016000000039 L 994.2876160000014 11.40736000000038 L 995.0187520000006 11.882495999999833 L 995.6741119999991 12.30847999999969 L 995.8461440000013 12.406784000000357 L 995.9772159999993 12.48051200000043 L 996.1472000000009 12.566528000000062 L 996.3171839999995 12.644352000000026 L 996.5608960000012 12.75494400000025 L 997.0728960000008 12.988416000000143 L 998.3467520000006 13.559807999999634 L 998.8075520000014 13.768704000000412 L 999.0144 13.864960000000451 L 999.139327999999 13.926399999999603 L 999.3420799999992 14.039040000000341 L 999.4956800000015 14.13939200000027 L 999.6267519999994 14.229503999999679 L 999.772159999999 14.338048000000754 L 999.9503360000002 14.479360000000497 L 1000.9231360000006 15.243263999999954 L 1001.0828799999988 15.370239999999512 L 1001.2569599999988 15.495167999999808 L 1001.3880319999996 15.57913600000029 L 1001.6133120000013 15.708160000000476 L 1001.783296 15.800320000000625 L 1002.1396479999996 15.966207999999483 L 1002.5431039999996 16.15052799999978 L 1002.6352639999998 16.193536000000336 L 1003.1063040000008 16.410623999999416 L 1004.3985920000007 17.004544000000124 L 1004.6791679999994 17.145855999999867 L 1004.8552960000001 17.250303999999574 L 1005.0867200000008 17.405951999999502 L 1005.2546559999988 17.53292800000054 L 1005.4492159999994 17.700864000000024 L 1005.625344 17.879039999999804 L 1005.7543680000002 18.026496000000066 L 1005.8874879999988 18.200575999999955 L 1006.1823999999993 18.62041599999941 L 1006.4691200000001 19.030015999999932 L 1006.5899520000006 19.197951999999304 L 1006.8193280000007 19.523583999999346 L 1007.0405120000011 19.84102399999972 L 1007.4050560000003 20.361216000000468 L 1007.6119039999991 20.668416000000434 L 1007.7798399999999 20.94899200000077 L 1007.9354879999999 21.241856000000553 L 1008.0378880000004 21.420032000000333 L 1008.1935360000003 21.669887999999673 L 1008.3573759999999 21.907455999999343 L 1008.6133759999997 22.255615999999236 L 1008.9000960000005 22.644736000000535 L 1009.5411200000002 23.51104000000055 L 1010.3828479999996 24.64972799999964 L 1011.1057919999992 25.630719999999542 L 1011.4826239999995 26.14272000000051 L 1011.5338240000012 26.21440000000007 L 1011.6423680000007 26.38847999999996 L 1011.7201919999992 26.53184000000033 L 1011.789824000001 26.67929600000059 L 1011.8758399999991 26.8677119999993 L 1011.9393279999989 27.000831999999377 L 1012.156416000001 27.475968000000307 L 1012.6684160000004 28.5757440000001 L 1012.8138240000001 28.887039999999956 L 1012.9223679999996 29.09593599999937 L 1012.9899520000006 29.216767999999888 L 1013.1333119999996 29.45023999999978 L 1013.266432000001 29.648896000000263 L 1013.409792 29.84550400000012 L 1013.5306240000006 29.997056000000157 L 1013.7067520000012 30.208000000000197 L 1013.837823999999 30.353407999999718 L 1013.9955199999997 30.515200000000164 L 1014.210560000001 30.726144000000204 L 1014.7553279999993 31.258624000000395 L 1015.3656320000009 31.85663999999963 L 1015.5642879999999 32.049151999999594 L 1015.8100479999994 32.284672000000114 L 1016.0414720000001 32.4730880000003 L 1016.1991680000007 32.587776000000304 L 1016.3486719999986 32.68403200000034 L 1016.5166079999996 32.78438400000016 L 1016.7439359999989 32.90316800000005 L 1016.9733119999989 33.005568000000494 L 1017.1351040000009 33.06905600000027 L 1017.3542400000006 33.14483199999961 L 1017.5590399999986 33.2042239999995 L 1018.5707519999996 33.486848000000464 L 1020.3197439999989 33.98860799999966 L 1022.5254400000006 34.625535999999556 L 1022.7855359999987 34.70335999999952 L 1022.8736000000005 34.72998400000074 L 1023.2975360000012 34.85286400000041 L 1023.8361600000004 35.00441600000045 L 1024.0 35.05026674626856" fill="none"/><path stroke="#408040" stroke-width="3" d="M 1024.0 58.58620164555032 L 1023.608832000001 58.193919999999366 L 1021.7246719999996 56.65791999999931 L 1020.8337919999991 54.56486399999994 L 1021.4645760000014 53.235712000000035 L 1024.0 53.235712000000035" fill="none"/></svg>