<svg xmlns="http://www.w3.org/2000/svg" width="1024" height="1024"><rect stroke="none" x="0" y="0" width="1024" height="1024" fill="white"/><path stroke="#408040" stroke-width="3" d="M 0.0 23.7669401907915 L 92.55935999999929 28.508159999997588 L 126.23871999999392 30.25920000000042 L 135.17823999999382 30.73023999999714 L 157.61407999999938 31.385600000001432 L 197.1507200000051 31.784959999997227 L 218.12223999999696 32.071680000000924 L 228.99712 34.09919999999693 L 239.81055999999808 34.47808000000077 L 252.23167999999714 35.655680000003485 L 260.23936000000685 36.45440000000235 L 266.0147200000065 37.70367999999871 L 273.2236799999955 40.69376000000193 L 280.6374400000059 44.99455999999918 L 294.7993600000045 53.23776000000362 L 299.91935999999987 55.296000000002095 L 305.909759999995 56.05376000000251 L 314.6342399999994 54.73279999999795 L 323.48159999999916 52.879359999999 L 327.55711999999767 53.21727999999712 L 336.70144000000437 57.46687999999995 L 340.7257600000012 58.122239999996964 L 348.3238399999973 56.96512000000075 L 365.17888000000676 54.04671999999846 L 373.8726400000014 51.31263999999646 L 390.5535999999993 43.34591999999975 L 426.05568000000494 26.347520000002987 L 457.13408000000345 11.47903999999835 L 481.0946672527498 0.0" fill="none"/></svg>