<svg xmlns="http://www.w3.org/2000/svg" width="1024" height="1024"><rect stroke="none" x="0" y="0" width="1024" height="1024" fill="white"/><path stroke="#000000" stroke-width="2" d="M 0.0 2.541822515282547 L 32.57031270401785 2.136718335968908 L 36.66406297602225 2.136718335968908 L 42.60156211204594 2.242187263967935 L 66.56249958404806 2.242187263967935 L 96.77343744004611 2.136718335968908 L 114.58593792002648 2.136718335968908 L 127.59374950401252 2.242187263967935 L 135.6796876800363 1.726562303956598 L 148.58593792002648 1.726562303956598 L 156.06249984004535 1.8320312319556251 L 200.29687500803266 1.8320312319556251 L 211.86718720005592 1.9335935999406502 L 216.88281292805914 1.9335935999406502 L 230.71093760005897 1.8320312319556251 L 240.33593753603054 1.8320312319556251 L 256.3125002240413 1.726562303956598 L 285.8046873600106 1.8320312319556251 L 328.19531264004763 1.8320312319556251 L 336.69531238405034 1.9335935999406502 L 377.1406254080357 1.9335935999406502 L 382.7734374400461 1.5234375679283403 L 399.05468723201193 1.5234375679283403 L 415.1328122880077 1.4218751999433152 L 437.7656248320127 1.5234375679283403 L 446.0546877440647 1.5234375679283403 L 454.96875008003553 1.4218751999433152 L 457.6328120320104 1.3203128319582902 L 466.9453127680463 1.2148439039592631 L 476.78124953602673 1.0117191679310054 L 511.5937495040125 1.0117191679310054 L 515.1796879360336 0.8085934079717845 L 522.0390625280561 0.9101557759568095 L 526.2343751680455 0.7031255039619282 L 529.8203125760192 0.8085934079717845 L 532.9921873920248 0.7031255039619282 L 536.0703129600151 0.9101557759568095 L 539.546874880034 0.7031255039619282 L 550.8616243200377 0.8147148799616843 L 560.5390622720588 0.9101557759568095 L 582.0468746240367 0.9101557759568095 L 598.6328125440632 1.0117191679310054 L 618.6015621120459 1.113281535974238 L 629.6640624640277 1.113281535974238 L 639.5937495040125 1.2148439039592631 L 660.5859379200265 1.3203128319582902 L 700.6250004480244 1.3203128319582902 L 703.4921871360275 1.4218751999433152 L 707.4843750400469 1.3203128319582902 L 719.7734379520407 1.3203128319582902 L 734.4140625920263 1.2148439039592631 L 740.0468746240367 1.3203128319582902 L 743.4296872960404 1.4218751999433152 L 748.0390625280561 1.4218751999433152 L 767.5937495040125 1.5234375679283403 L 784.390625280037 1.3203128319582902 L 801.0781245440594 1.3203128319582902 L 820.8437504000613 1.9335935999406502 L 822.9921873920248 1.5234375679283403 L 834.1562501120497 1.5234375679283403 L 869.2734371840488 1.624999935971573 L 892.6250004480244 1.3203128319582902 L 927.8515630080365 1.3203128319582902 L 954.1640622080304 1.5234375679283403 L 988.7812495360267 1.624999935971573 L 1019.0859376640292 1.624999935971573 L 1022.6718750720611 1.726562303956598 L 1024.0 1.726562303956598" fill="none"/><path stroke="#000000" stroke-width="2" d="M 1024.0 1.7265623038983904 L 1022.6718750720611 1.7265623038983904 L 1019.0859376640292 1.6249999359133653 L 988.7812495360849 1.6249999359133653 L 954.1640622080304 1.5234375678701326 L 927.8515630080947 1.3203128319582902 L 892.6250004480826 1.3203128319582902 L 869.273437184107 1.6249999359133653 L 834.1562501120497 1.5234375678701326 L 822.9921873920248 1.5234375678701326 L 820.8437504000613 1.9335935998824425 L 801.0781245441176 1.3203128319582902 L 784.390625280037 1.3203128319582902 L 767.5937495040125 1.5234375678701326 L 748.0390625281143 1.4218751998269 L 743.4296872960986 1.4218751998269 L 740.0468746240367 1.3203128319582902 L 734.4140625920845 1.2148439039010555 L 719.7734379520989 1.3203128319582902 L 707.4843750401051 1.3203128319582902 L 703.4921871360275 1.4218751998269 L 700.6250004480826 1.3203128319582902 L 660.5859379200847 1.3203128319582902 L 639.5937495040125 1.2148439039010555 L 629.6640624640859 1.1132815358578227 L 618.6015621120459 1.1132815358578227 L 598.6328125441214 1.01171916781459 L 582.0468746240367 0.9101557758403942 L 560.539062272117 0.9101557758403942 L 550.8616243200959 0.8147148799616843 L 539.546874880034 0.7031255038455129 L 536.0703129600734 0.9101557758403942 L 532.9921873920248 0.7031255038455129 L 529.8203125760774 0.8085934080299921 L 526.2343751680455 0.7031255038455129 L 522.0390625281143 0.9101557758403942 L 515.1796879360918 0.8085934080299921 L 511.59374950407073 1.01171916781459 L 476.78124953602673 1.01171916781459 L 466.9453127681045 1.2148439039010555 L 457.6328120320104 1.3203128319582902 L 454.96875008003553 1.4218751998269 L 446.0546877440647 1.5234375678701326 L 437.7656248320127 1.5234375678701326 L 415.1328122880077 1.4218751998269 L 399.05468723201193 1.5234375678701326 L 382.7734374400461 1.5234375678701326 L 377.1406254080939 1.9335935998824425 L 336.69531238405034 1.9335935998824425 L 328.19531264004763 1.8320312318392098 L 285.8046873600106 1.8320312318392098 L 256.3125002240995 1.7265623038983904 L 240.33593753603054 1.8320312318392098 L 230.71093760011718 1.8320312318392098 L 216.88281292811735 1.9335935998824425 L 211.86718720011413 1.9335935998824425 L 200.29687500803266 1.8320312318392098 L 156.06249984004535 1.8320312318392098 L 148.5859379200847 1.7265623038983904 L 135.6796876800363 1.7265623038983904 L 127.59374950401252 2.2421872638515197 L 114.58593792002648 2.1367183359107003 L 96.77343744010432 2.1367183359107003 L 66.56249958404806 2.2421872638515197 L 42.60156211204594 2.2421872638515197 L 36.66406297608046 2.1367183359107003 L 32.57031270407606 2.1367183359107003 L 0.0 2.541822515166132" fill="none"/></svg>