<svg xmlns="http://www.w3.org/2000/svg" width="1024" height="1024"><rect stroke="none" x="0" y="0" width="1024" height="1024" fill="white"/><path stroke="#000000" stroke-width="2" d="M 1024.0 0.49999974394449964 L 1018.7812495360267 0.49999974394449964 L 1015.7109370880644 1.4218751999433152 L 1012.3281254400499 0.49999974394449964 L 988.0624998400453 0.49999974394449964 L 984.7812495360267 0.3984373759594746 L 967.7890621440602 0.3984373759594746 L 957.546874880034 0.49999974394449964 L 955.8857195520541 0.4609392639249563 L 948.7421870080288 0.2929684479604475 L 946.4843745280523 0.49999974394449964 L 864.3593748480198 0.49999974394449964 L 860.7812495360267 0.3984373759594746 L 846.5468753920286 0.49999974394449964 L 833.2343746560509 0.49999974394449964 L 824.0156252160086 0.3984373759594746 L 815.9296870400431 0.49999974394449964 L 797.7031249920256 0.49999974394449964 L 790.53125017602 0.3984373759594746 L 748.7500001280569 0.3984373759594746 L 735.4375004160102 0.49999974394449964 L 731.1406254080357 0.3984373759594746 L 712.3984373760177 0.49999974394449964 L 707.7890621440602 0.49999974394449964 L 703.4921871360275 0.6015621119295247 L 697.7578127360321 0.6015621119295247 L 693.1484375040163 0.7031255039619282 L 688.5390622720588 0.6015621119295247 L 667.9609374720603 0.6015621119295247 L 661.5078123520361 0.7031255039619282 L 657.7187502080342 0.6015621119295247 L 633.8593751040171 0.6015621119295247 L 624.8515624960419 0.8085934079717845 L 615.9375001600129 0.6015621119295247 L 606.5156249600113 0.8046878719469532 L 600.4765624320135 0.7031255039619282 L 582.0468746240367 0.7031255039619282 L 572.8281251840526 0.8085934079717845 L 569.4531246080296 0.8085934079717845 L 563.5078123520361 0.7031255039619282 L 550.5078128640307 0.8085934079717845 L 545.4843750400469 0.7031255039619282 L 526.2343751680455 0.7031255039619282 L 512.8203120640246 0.8085934079717845 L 508.10937548801303 0.7031255039619282 L 504.11718758405186 0.8085934079717845 L 496.6406246400438 0.8085934079717845 L 491.8892001280328 0.4049776639440097 L 489.37499955203384 0.19140607997542247 L 481.79687526402995 0.7031255039619282 L 476.78124953602673 0.7031255039619282 L 470.2265620480175 0.6015621119295247 L 449.0312499200227 0.6015621119295247 L 442.88281292805914 0.7031255039619282 L 397.2109373440617 0.7031255039619282 L 393.42187520005973 0.6015621119295247 L 388.4062504960457 0.7031255039619282 L 383.6953128960449 0.7031255039619282 L 379.8046873600106 0.6015621119295247 L 376.9374996480183 0.7031255039619282 L 370.5859379200265 0.6015621119295247 L 352.2578124800348 0.6015621119295247 L 347.64843724801904 0.7031255039619282 L 315.0859376640292 0.7031255039619282 L 310.5859379200265 0.8085934079717845 L 301.8750003200257 0.7031255039619282 L 296.3515627520392 0.6015621119295247 L 291.9453122560517 0.7031255039619282 L 288.6718750720611 0.8046878719469532 L 279.65625036804704 0.7031255039619282 L 273.92187494406244 0.7031255039619282 L 264.0937502720626 0.8085934079717845 L 251.0859376640292 0.8085934079717845 L 244.53125017601997 0.7031255039619282 L 236.85156249604188 0.8085934079717845 L 222.21093785605626 0.7031255039619282 L 218.3203123200219 0.7031255039619282 L 209.41406208003173 0.8085934079717845 L 196.60937523201574 0.9101557759568095 L 184.93749964801827 0.9101557759568095 L 180.84375040006125 0.8085934079717845 L 162.92187545605702 0.8085934079717845 L 145.71875020803418 0.7031255039619282 L 136.29687500803266 0.8085934079717845 L 129.6406251520384 0.7031255039619282 L 126.67187507206108 0.7031255039619282 L 116.64062464004382 0.8085934079717845 L 107.42187520005973 0.8085934079717845 L 91.85937510401709 0.7031255039619282 L 83.0468751360313 0.7031255039619282 L 73.6328120320104 0.8085934079717845 L 69.84374988800846 0.7031255039619282 L 64.92187545605702 0.8046878719469532 L 59.70312499202555 0.8085934079717845 L 52.22656204801751 0.9101557759568095 L 39.32812492805533 0.9101557759568095 L 36.562499584048055 0.49999974394449964 L 33.79687526402995 0.9101557759568095 L 27.039062016061507 0.9101557759568095 L 15.367187456053216 1.0117191679310054 L 4.406250496045686 1.0117191679310054 L 0.0 1.0974694327960606" fill="none"/><path stroke="#000000" stroke-width="2" d="M 0.0 1.0974694327960606 L 4.406250496045686 1.0117191679310054 L 15.367187456053216 1.0117191679310054 L 27.039062016061507 0.9101557759568095 L 33.79687526402995 0.9101557759568095 L 36.562499584048055 0.49999974394449964 L 39.32812492805533 0.9101557759568095 L 52.22656204801751 0.9101557759568095 L 59.70312499202555 0.8085934079717845 L 64.92187545605702 0.8046878719469532 L 69.84374988800846 0.7031255039619282 L 73.6328120320104 0.8085934079717845 L 83.0468751360313 0.7031255039619282 L 91.85937510401709 0.7031255039619282 L 107.42187520005973 0.8085934079717845 L 116.64062464004382 0.8085934079717845 L 126.67187507206108 0.7031255039619282 L 129.6406251520384 0.7031255039619282 L 136.29687500803266 0.8085934079717845 L 145.71875020803418 0.7031255039619282 L 162.92187545605702 0.8085934079717845 L 180.84375040006125 0.8085934079717845 L 184.93749964801827 0.9101557759568095 L 196.60937523201574 0.9101557759568095 L 209.41406208003173 0.8085934079717845 L 218.3203123200219 0.7031255039619282 L 222.21093785605626 0.7031255039619282 L 236.85156249604188 0.8085934079717845 L 244.53125017601997 0.7031255039619282 L 251.0859376640292 0.8085934079717845 L 264.0937502720626 0.8085934079717845 L 273.92187494406244 0.7031255039619282 L 279.65625036804704 0.7031255039619282 L 288.6718750720611 0.8046878719469532 L 291.9453122560517 0.7031255039619282 L 296.3515627520392 0.6015621119295247 L 301.8750003200257 0.7031255039619282 L 310.5859379200265 0.8085934079717845 L 315.0859376640292 0.7031255039619282 L 347.64843724801904 0.7031255039619282 L 352.2578124800348 0.6015621119295247 L 370.5859379200265 0.6015621119295247 L 376.9374996480183 0.7031255039619282 L 379.8046873600106 0.6015621119295247 L 383.6953128960449 0.7031255039619282 L 388.4062504960457 0.7031255039619282 L 393.42187520005973 0.6015621119295247 L 397.2109373440617 0.7031255039619282 L 442.88281292805914 0.7031255039619282 L 449.0312499200227 0.6015621119295247 L 470.2265620480175 0.6015621119295247 L 476.78124953602673 0.7031255039619282 L 481.79687526402995 0.7031255039619282 L 489.37499955203384 0.19140607997542247 L 491.8892001280328 0.4049776639440097 L 496.6406246400438 0.8085934079717845 L 504.11718758405186 0.8085934079717845 L 508.10937548801303 0.7031255039619282 L 512.8203120640246 0.8085934079717845 L 526.2343751680455 0.7031255039619282 L 545.4843750400469 0.7031255039619282 L 550.5078128640307 0.8085934079717845 L 563.5078123520361 0.7031255039619282 L 569.4531246080296 0.8085934079717845 L 572.8281251840526 0.8085934079717845 L 582.0468746240367 0.7031255039619282 L 600.4765624320135 0.7031255039619282 L 606.5156249600113 0.8046878719469532 L 615.9375001600129 0.6015621119295247 L 624.8515624960419 0.8085934079717845 L 633.8593751040171 0.6015621119295247 L 657.7187502080342 0.6015621119295247 L 661.5078123520361 0.7031255039619282 L 667.9609374720603 0.6015621119295247 L 688.5390622720588 0.6015621119295247 L 693.1484375040163 0.7031255039619282 L 697.7578127360321 0.6015621119295247 L 703.4921871360275 0.6015621119295247 L 707.7890621440602 0.49999974394449964 L 712.3984373760177 0.49999974394449964 L 731.1406254080357 0.3984373759594746 L 735.4375004160102 0.49999974394449964 L 748.7500001280569 0.3984373759594746 L 790.53125017602 0.3984373759594746 L 797.7031249920256 0.49999974394449964 L 815.9296870400431 0.49999974394449964 L 824.0156252160086 0.3984373759594746 L 833.2343746560509 0.49999974394449964 L 846.5468753920286 0.49999974394449964 L 860.7812495360267 0.3984373759594746 L 864.3593748480198 0.49999974394449964 L 946.4843745280523 0.49999974394449964 L 948.7421870080288 0.2929684479604475 L 955.8857195520541 0.4609392639249563 L 957.546874880034 0.49999974394449964 L 967.7890621440602 0.3984373759594746 L 984.7812495360267 0.3984373759594746 L 988.0624998400453 0.49999974394449964 L 1012.3281254400499 0.49999974394449964 L 1015.7109370880644 1.4218751999433152 L 1018.7812495360267 0.49999974394449964 L 1024.0 0.49999974394449964" fill="none"/><path stroke="#408040" stroke-width="3" d="M 0.0 869.2454399999988 L 0.0819199999968987 869.1404800000018 L 0.2355200000019977 869.1097599999994 L 0.3174399999988964 869.232640000002 L 0.5427199999976438 869.7344000000012 L 0.6041600000025937 869.9084799999982 L 0.7372800000011921 869.8675199999998 L 1.2595200000068871 869.6729600000035 L 2.1503999999986263 869.3759999999966 L 5.50912000000244 868.1881599999979 L 7.936000000001513 867.3484800000006 L 7.383040000000619 866.324480000003" fill="none"/><path stroke="#408040" stroke-width="3" d="M 1024.0 308.9977673563262 L 1007.1040000000066 315.9244800000015 L 969.584640000001 331.3356799999965 L 932.6489600000059 346.52160000000003 L 927.8566399999982 348.4979200000016 L 923.5251200000057 350.3718399999998 L 921.3849599999958 351.48799999999756 L 918.8556799999933 353.03424000000086 L 912.3737600000022 357.7856000000029 L 896.6144000000058 369.5103999999992 L 881.8073600000062 380.4774400000024 L 878.6636799999978 382.5049599999984 L 875.3356800000038 384.37887999999657 L 871.311360000007 386.30399999999645 L 866.5497599999944 388.16767999999865 L 858.941439999995 390.8300799999997 L 849.9404800000048 393.98399999999674 L 846.0083199999935 395.6224000000002 L 842.1990400000068 397.5884799999985 L 838.9529599999951 399.5955200000026 L 835.3587200000038 402.2681599999996 L 832.3481599999941 404.97151999999915 L 829.1328000000067 408.49407999999676 L 826.9209600000031 411.48416 L 824.9651199999935 414.3206399999981 L 820.1523199999938 421.2838399999964 L 815.1347200000018 428.5440000000017 L 805.6934400000027 442.17343999999866 L 797.9520000000048 453.37599999999657 L 795.3817600000039 457.103360000001 L 793.6819200000027 459.39712000000145 L 792.2073600000003 461.148159999997 L 789.2889600000053 464.117760000001 L 776.5708799999993 475.248639999998 L 763.5148800000024 486.6457599999994 L 746.0044800000032 501.9545599999983 L 742.2566400000069 505.2416000000012 L 739.7375999999931 507.4432000000015 L 737.2902400000021 509.38880000000063 L 733.7164800000028 511.82592000000295 L 727.7363199999963 515.3996800000023 L 715.9910399999935 522.4140800000023 L 705.8329599999997 528.4966399999976 L 699.00288 532.5823999999993 L 692.1523199999938 536.678399999997 L 677.232640000002 545.5974399999977 L 658.4524800000072 556.8511999999973 L 644.7206399999995 565.1046399999977 L 641.2083200000052 567.6646400000027 L 638.5151999999944 570.122239999997 L 633.3030399999989 575.6927999999971 L 621.1686400000035 588.7590399999972 L 596.9203200000047 614.8812800000014 L 577.546239999996 635.8015999999989 L 569.5180799999944 644.4544000000024 L 563.4764799999975 650.9875200000024 L 554.6086400000058 660.4288000000015 L 552.1715200000035 662.4767999999967 L 550.9529599999951 663.3881600000022 L 548.823040000003 664.8012799999997 L 545.8944000000047 666.4499199999991 L 541.6959999999963 668.3238399999973 L 539.3612799999974 669.1430400000027 L 534.8249599999981 670.382080000003 L 526.9606400000048 672.3481600000014 L 512.1536000000051 676.0448000000033 L 508.63103999999294 676.9254399999991 L 504.05375999999524 678.1952000000019 L 501.3503999999957 679.1372800000026 L 497.50015999999596 680.7347200000004 L 483.4611200000072 686.9196799999991 L 448.14336000000185 702.4844799999992 L 434.0940799999953 708.6592000000019 L 417.6895999999979 715.8988800000006 L 408.0639999999985 720.1484800000035 L 403.05663999999524 722.5036800000016 L 401.1724799999938 723.5993600000002 L 398.9094400000031 725.125119999997 L 397.02528000000166 726.5996799999994 L 395.4585599999991 728.0025600000008 L 392.18176000000676 731.1667200000011 L 388.99712 734.2387200000012 L 377.7126399999979 745.1443199999994 L 365.07648000000336 757.360639999999 L 337.715200000006 783.8310399999973 L 333.49632000000565 787.752959999998 L 329.2774400000053 791.2243200000012 L 321.16736000000674 797.7983999999997 L 308.3571200000006 808.1715200000035 L 300.677119999993 814.2848000000013 L 292.50560000000405 821.0329599999968 L 282.06080000000657 829.50144 L 276.2649600000004 834.1503999999986 L 275.1385600000067 835.5225599999976 L 274.6470399999962 836.4953600000008 L 274.37055999999575 837.4476799999975 L 274.25792000000365 840.1715200000035 L 274.2169600000052 845.2505600000004 L 274.1657600000035 852.1011199999994 L 273.9814400000032 853.1353600000002 L 273.81759999999485 853.770239999998 L 273.41823999999906 854.5075199999992 L 272.76287999999477 855.2550399999964 L 271.9846399999951 855.859199999999 L 271.08352000000014 856.330240000003 L 270.2233600000036 856.6169599999994 L 269.07648000000336 856.8217599999989 L 267.7964800000045 856.9241600000023 L 265.2569599999988 856.9651200000008 L 259.50208000000566 857.0675199999969 L 257.35168000000704 857.1084800000026 L 256.14336000000185 856.9958400000032 L 254.14655999999377 856.268799999998 L 252.90751999999338 856.094720000001 L 251.6582400000043 856.2483199999988 L 249.00608000000648 857.1391999999978 L 248.07424000000174 857.2620800000004 L 245.19680000000517 857.3030399999989 L 240.34304000000702 857.384960000003 L 230.54335999999603 857.4771200000032 L 212.57215999999607 857.46688 L 185.37472000000707 857.4361599999975 L 183.6646400000027 857.3644799999965 L 182.25152000000526 857.3644799999965 L 181.27872000000207 857.384960000003 L 179.47647999999754 857.4156799999982 L 177.3260799999989 857.3747199999998 L 175.56479999999283 856.9958400000032 L 173.57824000000255 856.0127999999968 L 171.81695999999647 854.9785600000032 L 169.98399999999674 854.0671999999977 L 167.65952000000107 853.3913600000014 L 165.37600000000384 853.125119999997 L 163.37919999999576 853.1763199999987 L 159.20127999999386 853.4015999999974 L 154.2655999999988 853.6575999999986 L 150.241280000002 853.7497599999988 L 148.25471999999718 853.7395200000028 L 145.70496000000276 853.8623999999982 L 138.83392000000458 854.8352000000014 L 131.9936000000016 855.8284799999965 L 126.95552000000316 856.913919999999 L 124.08831999999529 857.384960000003 L 122.8185599999997 857.384960000003 L 119.78751999999804 857.0572800000009 L 117.96480000000156 857.0060799999992 L 115.81440000000293 857.2825599999996 L 110.98111999999674 858.0095999999976 L 107.89887999999337 858.0505600000033 L 106.53695999999763 857.9788800000024 L 101.80607999999484 856.8320000000022 L 99.51231999999436 856.5862399999969 L 95.50848000000406 856.5760000000009 L 93.80864000000292 856.7295999999988 L 92.77439999999478 856.913919999999 L 91.0233600000065 857.4464000000007 L 89.93791999999667 857.9174399999974 L 87.58272000000579 859.3305600000022 L 85.69856000000436 860.4159999999974 L 84.28544000000693 860.846080000003 L 83.23072000000684 860.9894399999976 L 77.7011199999979 860.8051199999973 L 71.43424000000232 860.610560000001 L 65.05472000000009 860.5696000000025 L 58.27584000000206 860.5286399999968 L 55.71584000000439 860.2214400000012 L 54.21056000000681 859.9142399999982 L 52.520959999994375 859.7708799999964 L 48.23040000000037 859.7401600000012 L 45.281279999995604 859.648000000001 L 42.444799999997485 859.3100800000029 L 40.98047999999835 859.2281599999988 L 39.741439999997965 859.2998399999997 L 38.52288000000408 859.4944000000032 L 37.191680000003544 859.8630399999965 L 35.47135999999591 860.4671999999991 L 34.06848000000173 860.8153600000005 L 31.8463999999949 860.9382400000031 L 26.675199999997858 860.846080000003 L 23.71584000000439 860.7027200000011 L 22.09792000000016 860.5593599999993 L 21.299199999994016 860.7129599999971 L 20.643840000004275 861.1532799999986 L 19.98847999999998 861.4809600000008 L 19.15903999999864 861.4911999999968 L 18.1657600000035 861.4911999999968 L 17.45919999999751 861.6960000000036 L 15.749119999993127 862.2899200000029 L 12.144639999998617 863.5391999999993 L 9.052160000006552 864.6246400000018 L 7.086079999993672 865.3107200000013 L 6.891520000004675 865.3824000000022 L 7.004159999996773 865.5974399999977 L 7.178239999993821 865.9353600000031 L 7.383040000000619 866.324480000003" fill="none"/></svg>