<svg xmlns="http://www.w3.org/2000/svg" width="1024" height="1024"><rect stroke="none" x="0" y="0" width="1024" height="1024" fill="white"/><path stroke="#408040" stroke-width="3" d="M 1024.0 829.5734623868266 L 1019.7504000000044 829.4707199999975 L 1011.087360000005 829.2454399999988 L 998.1952000000019 828.9484799999991 L 967.2806399999972 828.2214400000012 L 925.5014399999927 827.248639999998 L 923.8425600000046 827.2076799999995 L 921.8969599999982 827.0540800000017 L 920.1459199999954 826.7468799999988 L 918.2105600000068 826.2041600000011 L 916.3161600000021 825.5999999999985 L 913.6844799999963 824.9343999999983 L 904.0793600000034 822.6201599999986 L 887.8284799999965 818.6880000000019 L 859.0745599999937 811.7350399999996 L 854.2515200000053 810.5779200000034 L 852.6131199999945 810.2911999999997 L 850.442240000004 810.0761599999969 L 846.5920000000042 809.9839999999967 L 841.6460800000059 809.8611200000014 L 831.7747200000013 809.6358400000026 L 828.4057599999942 809.5641600000017 L 826.5113600000041 809.6051200000002 L 824.320000000007 809.748480000002 L 822.9273600000015 809.7791999999972 L 816.1382400000002 809.6358400000026 L 811.4585599999991 809.5232000000033 L 806.348800000007 809.4105599999966 L 804.290559999994 809.277439999998 L 802.2118400000036 809.0931199999977 L 797.5526399999944 808.9702400000024 L 790.8659199999965 808.8064000000013 L 781.9673599999951 808.6016000000018 L 774.3180799999973 808.4479999999967 L 771.6761600000027 808.386559999999 L 770.0275200000033 808.2534400000004 L 769.0137600000016 808.1203200000018 L 767.1808000000019 807.7926399999997 L 766.2899199999956 807.6185600000026 L 762.7263999999996 806.9529600000023 L 760.320000000007 806.4921600000016 L 758.3231999999989 806.123520000001 L 754.206720000002 805.3452800000014 L 750.1926399999938 804.5977599999969 L 742.1849599999987 803.0924799999993 L 674.9081600000063 790.4460800000015 L 625.5411199999944 781.1788799999995 L 616.4582400000072 779.4688000000024 L 614.7481600000028 779.2435200000036 L 612.4032000000007 779.1411200000002 L 610.0070399999968 779.2640000000029 L 608.296960000007 779.4995199999976 L 603.7811199999996 780.1855999999971 L 594.3295999999973 781.6806399999987 L 592.4044799999974 781.854720000003 L 590.8889599999966 781.8854399999982 L 589.0764800000034 781.8035200000013 L 588.0524799999985 781.6908800000019 L 587.0796799999953 781.5475200000001 L 585.5334399999992 781.2505600000004 L 583.8643199999933 780.7897599999997 L 581.6831999999995 779.9910400000008 L 580.0550400000066 779.2128000000012 L 576.880640000003 777.5027199999968 L 570.8595199999982 774.2566399999996 L 569.3439999999973 773.4374400000015 L 565.5654400000058 771.4099199999982 L 563.5071999999927 770.3039999999964 L 561.8278399999981 769.5360000000001 L 560.7014400000044 769.1161599999978 L 559.4214400000055 768.7270399999979 L 557.1584000000003 768.2150400000028 L 548.2598399999988 766.5356800000009 L 526.1312000000034 762.357759999999 L 523.9500799999951 761.9481599999999 L 520.0281600000017 761.2518399999972 L 513.6179200000042 760.3199999999997 L 512.2048000000068 760.0742400000017 L 511.01695999999356 759.7977600000013 L 508.7948800000013 759.1833600000027 L 507.61728000000585 758.8761599999998 L 506.09152000000176 758.5792000000001 L 500.8179200000013 757.5859199999977 L 487.52640000000247 755.0771200000017 L 480.91135999999824 753.8176000000021 L 474.6035200000042 752.6297600000034 L 465.8585599999933 750.9811199999967 L 457.6563199999946 749.4451199999967 L 456.2534400000004 749.2607999999964 L 454.6252799999929 749.148159999997 L 453.3145599999989 749.0252800000017 L 451.64543999999296 748.7692800000004 L 450.1913599999971 748.4313600000023 L 449.24928000000364 748.1651199999978 L 447.70303999999305 747.6736000000019 L 446.01343999999517 747.2435200000036 L 442.5830399999977 746.5881599999993 L 436.8998399999982 745.5232000000033 L 431.6262399999978 744.5196799999976 L 428.3596799999941 744.0486400000009 L 426.2809600000037 743.8643200000006 L 424.6527999999962 743.7823999999964 L 421.7344000000012 743.7823999999964 L 405.01248000000487 744.2636799999964 L 384.98304000000644 744.8473599999998 L 371.3024000000005 745.2364799999996 L 365.2505600000004 745.4105599999966 L 363.1718399999954 745.5232000000033 L 361.8304000000062 745.6768000000011 L 360.47871999999916 745.9123200000031 L 357.35551999999734 746.7007999999987 L 356.9152000000031 746.8032000000021 L 355.0207999999984 747.1513600000035 L 353.1878399999987 747.3356799999965 L 352.4198400000023 747.366399999999 L 349.9315199999983 747.4380799999999 L 348.11904000000504 747.4892800000016 L 341.4527999999991 747.6838399999979 L 335.656959999993 747.847679999999 L 333.44512000000395 747.9091199999966 L 331.2332800000004 747.8169599999965 L 329.328640000007 747.5711999999985 L 327.1782399999938 747.1513600000035 L 325.27360000000044 746.8339199999973 L 323.0720000000001 746.6598400000003 L 320.01024000000325 746.7007999999987 L 315.19744000000355 746.8441600000006 L 310.65088000000105 746.9670400000032 L 306.2476800000004 747.1001600000018 L 297.79967999999644 747.3459199999998 L 284.9587199999951 747.7248000000036 L 282.74688000000606 747.8886399999974 L 280.3814399999974 748.1855999999971 L 278.3539199999941 748.5337599999984 L 276.3571200000006 748.97408 L 274.5344000000041 749.4451199999967 L 272.59904000000097 750.0492799999993 L 265.24671999999555 752.6399999999994 L 246.5382399999944 759.2550399999964 L 244.53119999999763 760.0127999999968 L 242.9542400000064 760.7193600000028 L 239.79008000000613 762.1427200000035 L 235.91935999999987 763.893759999999 L 232.52992000000086 765.3785599999974 L 230.89152000000468 765.9417600000015 L 229.06879999999364 766.4127999999982 L 227.45088000000396 766.7097599999979 L 225.54623999999603 766.9862399999984 L 223.38559999999416 767.2320000000036 L 220.94848000000638 767.4368000000031 L 219.83232000000135 767.6211200000034 L 218.9209600000031 767.825920000003 L 216.85248000000138 768.409599999999 L 212.04992000000493 769.771520000002 L 208.52735999999277 770.7750400000004 L 206.58176000000094 771.3280000000013 L 204.43136000000231 771.9014400000015 L 203.27423999999883 772.0652800000025 L 202.1785600000003 772.1574400000027 L 200.63232000000426 772.2905600000013 L 191.5494400000025 773.0790399999969 L 189.50143999999273 773.2531200000012 L 188.60031999999774 773.3759999999966 L 186.96192000000156 773.7856000000029 L 183.36767999999574 775.0758399999977 L 179.4560000000056 776.4787199999992 L 175.51360000000568 777.9020799999998 L 173.50655999999435 778.6086399999986 L 171.86815999999817 779.2128000000012 L 166.72767999999633 781.0559999999969 L 161.81247999999323 782.8275199999989 L 153.44640000000072 785.8380800000014 L 138.74176000000443 791.1219199999978 L 136.1203200000018 792.0639999999985 L 134.20544000000518 792.6067200000034 L 132.38271999999415 793.0675199999969 L 128.5017599999992 794.0300799999968 L 119.36767999999574 796.2931200000021 L 103.91551999999501 800.1228800000026 L 100.1267200000002 801.0547200000001 L 96.2048000000068 802.0275200000033 L 94.00320000000647 802.6214400000026 L 92.19071999999869 803.389439999999 L 88.48384000000078 805.0585599999977 L 84.89983999999822 806.6764800000019 L 75.47904000000563 810.9465599999967 L 62.638080000004265 816.762880000002 L 59.61728000000585 818.0736000000034 L 56.84223999999813 819.0566400000025 L 52.490239999999176 820.6028799999985 L 44.70784000000276 823.3574399999998 L 29.05087999999523 828.8972799999974 L 21.13536000000022 831.7030400000003 L 17.500159999995958 832.9830399999992 L 15.564799999992829 833.5564799999993 L 13.455360000007204 834.01728 L 11.284480000002077 834.3347199999989 L 8.25344000000041 834.6828800000003 L 0.0 835.641851123808" fill="none"/><path stroke="#408040" stroke-width="3" d="M 1024.0 316.8923292245163 L 950.5689600000042 316.53888000000006 L 816.5785599999945 314.9004799999966 L 792.9446400000015 315.8425599999973 L 762.357759999999 317.8905599999998 L 754.5651199999993 328.5708799999993 L 738.5702400000009 332.47232000000076 L 717.3734399999958 335.3087999999989 L 705.136639999997 332.8819199999998 L 693.6985600000044 325.4681599999967 L 691.8451199999981 324.8332799999989 L 687.1551999999938 323.9731200000024 L 687.4726400000072 319.98975999999675 L 687.8310400000046 317.1123200000002 L 687.9641600000032 312.9753599999967 L 690.9030400000047 301.864959999999 L 693.9852799999935 290.6521599999978 L 699.412479999999 270.99136 L 696.924159999995 255.10912000000098 L 675.8707200000063 218.61376000000018 L 625.070080000005 130.55999999999767 L 604.0678400000033 93.6038400000034 L 550.8710399999982 1.4950400000016089 L 549.9368020815309 0.0" fill="none"/></svg>