<svg xmlns="http://www.w3.org/2000/svg" width="1024" height="1024"><rect stroke="none" x="0" y="0" width="1024" height="1024" fill="white"/><path stroke="#000000" stroke-width="2" d="M 0.0 0.7070163152893656 L 19.359375360014383 0.8085934079717845 L 51.96093747206032 0.7109375999425538 L 62.671873024024535 0.7111065599601716 L 100.17792000004556 0.7111065599601716 L 101.85418240004219 0.7194460159516893 L 119.39843788801227 0.8085934079717845 L 126.48437452805229 0.7187496959231794 L 152.9457766400301 0.7395532799419016 L 175.7297766400152 0.7395532799419016 L 198.97656217601616 0.7851560959243216 L 205.72508160001598 0.8067481599282473 L 212.83040460804477 0.8067481599282473 L 225.42222336004488 0.8248934399452992 L 279.9610071040224 0.8712212479440495 L 292.96875008003553 0.9101557759568095 L 320.8439285760396 0.9101557759568095 L 360.7819735040539 0.9500436479575001 L 377.4531246080296 1.0117191679310054 L 406.8281251840526 1.0117191679310054 L 427.4941706240643 1.0406010879669338 L 458.9602816000115 1.1139481599675491 L 487.8370816000388 1.1139481599675491 L 524.7010816000402 1.2163481599418446 L 552.7031255040201 1.2187504639732651 L 556.487106560031 1.2231065599480644 L 599.4097766400082 1.2231065599480644 L 608.4415272960323 1.2163481599418446 L 753.3560064000194 1.2163481599418446 L 771.1796879360336 1.2187504639732651 L 801.795481600042 1.5235481599229388 L 806.3010816000169 1.5235481599229388 L 823.7109370880644 1.4218751999433152 L 849.4140620800317 1.4218751999433152 L 869.4818816000479 1.2163481599418446 L 975.9778816000326 1.2163481599418446 L 992.2267668480636 1.1531233279383741 L 1002.2968750080327 1.1450142719550058 L 1011.2853299200651 1.13777663995279 L 1024.0 1.13777663995279" fill="none"/></svg>