<svg xmlns="http://www.w3.org/2000/svg" width="1024" height="1024"><rect stroke="none" x="0" y="0" width="1024" height="1024" fill="white"/><path stroke="#000000" stroke-width="2" d="M 639.8781249536084 818.5828124671941 L 643.379687424004 818.6851563519915 L 645.5921874944121 818.644531199988 L 665.3546874880092 818.644531199988 L 667.832812544005 818.664843673585 L 668.5296875520028 818.664843673585 L 671.8062499840046 818.6851563519915 L 676.618749952002 818.7062499327934 L 678.851562496007 818.7062499327934 L 685.2812500992092 818.7468750847853 L 686.5515624448075 818.7468750847853 L 689.6437499904074 818.767187558394 L 702.7312500736094 818.767187558394 L 710.2671874048071 818.7882813439937 L 711.4140624896041 818.7882813439937 L 716.6781249536085 818.8085938175907 L 718.0296873984043 818.767187558394 L 726.0374999040039 818.767187558394 L 726.6921875456115 818.7882813439937 L 727.3687500800122 818.7882813439937 L 729.3546874880092 818.8085938175907 L 730.2156249088118 818.8289062911878 L 730.9109374976018 818.8492187647847 L 731.3828124672058 818.8492187647847 L 735.0078124032123 818.9109374975902 L 736.6250000384055 818.9515624447843 L 737.7312499712104 818.9718749183928 L 738.9593749504071 818.9515624447843 L 739.4109374464024 818.9718749183928 L 740.0046874624095 818.9718749183928 L 740.6593748992076 818.9929687039927 L 742.2781249536085 819.0539063295931 L 745.6984375296045 819.1773437951924 L 746.9671874560066 819.1976562687894 L 748.2578124800115 819.2796874751918 L 749.9374999552034 819.2999999487889 L 752.3328124928055 819.3406251007924 L 753.4189344768063 819.3203243007883 L 754.9953124352032 819.4226563071949 L 758.0671875072061 819.4429687807918 L 761.1187499008025 819.4843750399887 L 763.6593750016066 819.5046875135856 L 765.5015624704072 819.5249999871943 L 767.8781249536084 819.5453124607914 L 768.779687526403 819.5664062463911 L 769.8437500928063 819.5867187199881 L 771.1750000640052 819.6070311935852 L 772.3625000960077 819.6273436671938 L 772.9781250048079 819.6273436671938 L 774.3906250752043 819.6484374527936 L 775.3531250688014 819.6687499263905 L 776.1515624448075 819.6687499263905 L 777.4624999424093 819.6890623999876 L 779.2031250432017 819.6890623999876 L 780.0421875712112 819.8734374911874 L 780.2580805632053 819.8393794559873 L 781.2109375488129 819.6890623999876 L 781.4694948864053 819.692115353595 L 782.9312499712105 819.709375078394 L 786.392187494412 819.709375078394 L 788.4609374208027 819.7296875519911 L 790.6580123648048 819.740164710395 L 792.8843749376014 819.7507813375909 L 793.4781249536085 819.7507813375909 L 794.4812500992091 819.7710938111879 L 802.2015625216067 819.7710938111879 L 803.2062500864034 819.7914062847849 L 806.6671874048072 819.8117187583936 L 809.9640625152039 819.8117187583936 L 811.4390624256106 819.7914062847849 L 814.8390625280095 819.7710938111879 L 829.1125000192085 819.7710938111879 L 833.1062499328051 819.7914062847849 L 836.0562499584048 819.7507813375909 L 839.7828124672058 819.7914062847849 L 844.6781249536085 819.8117187583936 L 860.6937499648077 819.8117187583936 L 866.2437500928063 819.8320312319905 L 879.4734374912107 819.8320312319905 L 880.231249920011 819.8117187583936 L 881.1109376000124 819.7710938111879 L 884.4093749248074 819.8117187583936 L 886.8874999808031 819.7914062847849 L 895.8781249536084 819.7914062847849 L 897.3531250688014 819.7710938111879 L 902.3703126016073 819.7710938111879 L 903.4546874368098 819.7507813375909 L 907.9203125248081 819.7507813375909 L 909.7015625728061 819.7296875519911 L 912.1999998976128 819.7296875519911 L 914.1453125632019 819.709375078394 L 921.4781249536085 819.6890623999876 L 929.5875000320026 819.6890623999876 L 932.2499999744119 819.6687499263905 L 934.9531250688015 819.6687499263905 L 936.2640625664033 819.6484374527936 L 943.5343749120017 819.6484374527936 L 947.0984374272055 819.6273436671938 L 949.5968749568099 819.6273436671938 L 953.8765625344124 819.6070311935852 L 957.7484374016058 819.6070311935852 L 961.4140624896041 819.5867187199881 L 967.3198129152064 819.5669313535909 L 967.4765625344123 819.5664062463911 L 971.6531249152031 819.5664062463911 L 972.9031249920023 819.5249999871943 L 980.9515624448075 819.5249999871943 L 984.7812499456107 819.5453124607914 L 991.6421875712113 819.5453124607914 L 992.2359375872068 819.5664062463911 L 994.4281249792082 819.5664062463911 L 995.2265625600121 819.5664062463911 L 996.0249999360065 819.5453124607914 L 1023.8984374272055 819.5453124607914 L 1024.0 819.5458839893487" fill="none"/><path stroke="#000000" stroke-width="2" d="M 194.35625000960425 1024.0 L 194.35625000960425 1023.9976562687895 L 194.37656248321292 1018.7953125375905 L 194.3968749568099 1012.4468750335858 L 194.3968749568099 1010.4804687871947 L 194.37656248321292 1008.1257811967865 L 194.37656248321292 1005.1562500095927 L 194.35625000960425 1001.367187455995 L 194.37656248321292 1000.4867186687886 L 194.35625000960425 999.605468774389 L 194.37656248321292 998.5820311551913 L 194.3968749568099 996.370312601584 L 194.35625000960425 993.6874999807915 L 194.35625000960425 988.567187455995 L 194.37656248321292 986.8468750335858 L 194.37656248321292 983.4882811903838 L 194.3968749568099 979.0851563519915 L 194.49998090240405 978.4090144767891 L 194.49901178880828 978.3907260415842 L 194.37656248321292 969.2274407423917 L 194.37656248321292 948.4671875071945 L 194.3968749568099 947.1976562687894 L 194.3968749568099 943.6132812799885 L 194.37656248321292 940.7460937727941 L 194.37656248321292 932.9843750911881 L 194.3968749568099 931.1000000511879 L 194.41718743040693 929.625781247986 L 194.43749990400391 927.4749999103835 L 194.4578125824104 925.754687487986 L 194.4578125824104 924.915624959988 L 194.49843752960442 922.6007812095922 L 194.41718743040693 921.5976562687895 L 194.4578125824104 919.9999999999884 L 194.54062510080402 917.5835936767864 L 194.54062510080402 913.3234374655876 L 194.68281241600636 909.1046875135856 L 194.80625008640345 905.5820312575903 L 194.80625008640345 905.0703124479857 L 194.88906240001089 901.6093749247841 L 194.97031249920838 897.185156300792 L 194.95000002561136 896.0179687423864 L 194.95000002561136 893.8679687167867 L 194.90937507840573 889.9765624831896 L 194.87903948801105 888.7240833023913 L 194.8468750336091 887.3960937471944 L 194.8468750336091 886.678906265588 L 194.76562493441162 883.7507813375909 L 194.74531246080295 877.6679688191856 L 194.80625008640345 870.4179687423864 L 194.8265625600121 866.4445313023868 L 194.8265625600121 861.6523438079864 L 194.86874992640224 856.0617187327938 L 194.8671875072061 854.8124999679858 L 194.8671875072061 853.4195312639931 L 194.8265625600121 852.5796874239925 L 194.80625008640345 851.5351562239928 L 194.7859374080086 848.9343750143889 L 194.7859374080086 847.4601562111872 L 194.8265625600121 846.7023437823867 L 194.74531246080295 844.9820311551914 L 194.74531246080295 842.9546874879859 L 194.72499998720596 841.1726563327945 L 194.70468751360895 837.3632813055883 L 194.66249994240934 830.9328125951928 L 194.64218746881232 829.970312601584 L 194.62187499520368 827.5742187519907 L 194.62187499520368 826.73437491199 L 194.6015625216067 824.7679686655872 L 194.58125004800968 822.3515625471948 L 194.58125004800968 820.2421874687891 L 194.54062510080402 819.2179687423865 L 198.3906250752043 819.09531258879 L 199.68125009920914 819.1156250623869 L 200.43906252800952 819.09531258879 L 208.26249994240933 819.09531258879 L 211.35468748800923 819.1156250623869 L 217.64218757121125 819.135937535984 L 221.2671875072061 819.1562500095927 L 222.96562503681054 819.1562500095927 L 228.5375000576023 819.1773437951924 L 230.2578124800115 819.1562500095927 L 233.59531253760215 819.1773437951924 L 234.74218741761288 819.1976562687894 L 235.58281256960473 819.1773437951924 L 243.3234374656109 819.1773437951924 L 245.3718749184045 819.1562500095927 L 247.3171875840053 819.1562500095927 L 248.40312504320173 819.1773437951924 L 254.25937489920761 819.1773437951924 L 255.8578124800115 819.1562500095927 L 258.0484374528052 819.1773437951924 L 280.3515625472064 819.1773437951924 L 281.3953124352032 819.2179677183856 L 294.5234374656109 819.2179687423865 L 295.3843750912114 819.2796874751918 L 296.632812544005 819.2796874751918 L 299.2546875392087 819.2585936895921 L 299.8890625024098 819.2585936895921 L 300.9546874880092 819.2796874751918 L 301.8140624896041 819.2796874751918 L 303.08437504001193 819.2179687423865 L 304.7843749888125 819.1976562687894 L 307.0578124800115 819.1773437951924 L 316.8874999808031 819.1773437951924 L 320.1843750912114 819.1976562687894 L 342.7953125376022 819.1976562687894 L 346.89062502400486 819.1773437951924 L 356.8031250432017 819.1773437951924 L 358.359375052806 819.1562500095927 L 359.0359375872067 819.135937535984 L 362.7625000960077 819.135937535984 L 364.05312491520306 819.1156250623869 L 365.2406249472057 819.1156250623869 L 366.67499991040677 819.135937535984 L 367.3093750784057 819.1156250623869 L 372.40937492480737 819.1156250623869 L 374.0265625600121 819.0749999103834 L 375.07187507200285 819.0749999103834 L 375.99218749441206 819.0539063295931 L 379.0859374592081 818.9929687039927 L 383.81562490881186 818.9312499711872 L 384.49218744321263 818.9515624447843 L 386.8671875072061 818.9312499711872 L 387.9734374400112 818.9109374975902 L 389.2843749376014 818.8906250239932 L 391.3124999168096 818.8695312383934 L 394.67031244800893 818.8289062911878 L 400.0781250560074 818.767187558394 L 404.3984375808039 818.767187558394 L 405.832812544005 818.7882813439937 L 407.18437498881246 818.8085938175907 L 407.85937489920764 818.8085938175907 L 409.47812495360847 818.8289062911878 L 415.6828125184053 818.7882813439937 L 426.14843740160575 818.7882813439937 L 435.0781249536085 818.7882813439937 L 436.9203124224092 818.8085938175907 L 448.86093742080266 818.8085938175907 L 452.19843747840497 818.7882813439937 L 453.63281244160606 818.8085938175907 L 458.69062492160595 818.8085938175907 L 460.6781249536085 818.7882813439937 L 466.1250000896049 818.767187558394 L 486.2781249536085 818.767187558394 L 496.92812492800874 818.7468750847853 L 500.73593753600727 818.7265624063905 L 511.8781249536085 818.7265624063905 L 516.3828125696048 818.644531199988 L 522.3015624704072 818.644531199988 L 524.410937548813 818.624218726391 L 527.5046875136089 818.624218726391 L 532.7671875584056 818.5828124671941 L 537.2937500672066 818.5828124671941 L 539.1984375808039 818.5624999935856 L 540.7343749120016 818.5828124671941 L 544.2359375872068 818.5828124671941 L 547.5953125376021 818.603906252794 L 549.1718750208034 818.603906252794 L 551.4859374592081 818.603906252794 L 552.3265624064021 818.5624999935856 L 553.0421874688124 818.603906252794 L 554.618749952002 818.603906252794 L 558.1218750464031 818.624218726391 L 561.5828125696047 818.624218726391 L 563.0781249536085 818.603906252794 L 565.104687513609 818.624218726391 L 569.8359375872067 818.624218726391 L 572.0484374528053 818.603906252794 L 579.2984375296044 818.5828124671941 L 588.6781249536085 818.5828124671941 L 589.3953124352032 818.5624999935856 L 593.4499999744119 818.5624999935856 L 595.559375052806 818.5421875199885 L 599.4296875008033 818.5218750463915 L 606.2093750272063 818.5218750463915 L 608.1749999616062 818.5015625727945 L 619.6843749376014 818.5015625727945 L 634.5124999168096 818.5624999935856 L 639.8781249536084 818.5828124671941" fill="none"/><path stroke="#000000" stroke-width="2" d="M 1006.074320215633 0.0 L 1005.671874969604 0.017968742374819158 L 1005.2607681503548 0.0" fill="none"/><path stroke="#000000" stroke-width="2" d="M 836.6527163578779 0.0 L 835.7890625536209 0.447656345588598 L 833.9046875136089 1.3085937663912546 L 819.9374999552034 1.3289062399999239 L 819.0781249536201 1.3492187135619815 L 816.7234375680215 1.3078124543768581 L 815.8828124160063 1.3078124543768581 L 814.1218750464147 1.3085937663912546 L 809.7390624768101 1.3085937663912546 L 800.2359375872068 1.3289062399999239 L 790.1390624768217 1.3289062399999239 L 787.0265624576016 1.3085937663912546 L 781.6000000000233 1.3078124543768581 L 778.8546875392087 1.3085937663912546 L 777.3390624768101 1.3085937663912546 L 771.1140624384163 1.2874999807681888 L 767.8781249536084 1.2874999807681888 L 765.2156250112108 1.2671875071944214 L 764.2734374912222 1.2671875071944214 L 757.6781250560191 1.2265625599887926 L 755.8968750080094 1.2265625599887926 L 753.9312500736094 1.2054687743657269 L 753.3578125312226 1.2062500863801233 L 752.7218749440042 1.2054687743657269 L 750.5515624448075 1.1851563007919594 L 739.8812499968219 1.1851563007919594 L 736.071874969604 1.164843827195 L 730.6656249856227 1.164843827195 L 729.8671874048072 1.1445311487652816 L 725.2593750016065 1.1242186751915142 L 717.8453125120025 1.1031250943894975 L 712.7656249344233 1.1031250943894975 L 703.4484375552041 1.0624999423628196 L 697.4062499840045 1.0624999423628196 L 695.0718750720146 1.0421874687890522 L 691.0781249536085 1.0421874687890522 L 687.9031250944245 1.021874995180383 L 685.9578124288121 1.0007812095689133 L 683.2140625920031 1.0007812095689133 L 678.3390625792206 0.9601562623865902 L 673.9968749568216 0.939843788777921 L 665.4781249536085 0.8984375295927975 L 663.2249999360181 0.8984375295927975 L 657.4093750272062 0.8781250559841283 L 648.950000025623 0.8781250559841283 L 648.2125000704079 0.857812582375459 L 641.0656249856111 0.857812582375459 L 639.8781249536202 0.8374999039922386 L 638.9562499072169 0.857812582375459 L 636.6828124160063 0.8374999039922386 L 634.5531250688015 0.8374999039922386 L 624.1906249728054 0.7757811711984459 L 621.5078125568223 0.7757811711984459 L 619.2750000128057 0.7554686975897766 L 616.4281249792199 0.735156223981221 L 615.3218750464032 0.7343749119667109 L 614.2781249536085 0.735156223981221 L 613.3359374336084 0.735156223981221 L 606.9874999296037 0.7140624384046532 L 605.1031250944128 0.7140624384046532 L 603.9968749568216 0.7343749119667109 L 603.0343749632127 0.7554686975897766 L 601.5796875264147 0.6734374911873147 L 600.9453125632019 0.6531250175787591 L 600.0437499904074 0.611718758393522 L 598.5906249728054 0.611718758393522 L 597.8937499648076 0.6531250175787591 L 597.2187500544242 0.6937499647959839 L 596.6031249408028 0.6734374911873147 L 595.9484375040163 0.611718758393522 L 594.9453125632019 0.52968755199106 L 594.3921874944238 0.468749926378905 L 593.6546875392087 0.386718719976443 L 592.8765624320018 0.26406256636835224 L 592.3843749888241 0.24296878078018835 L 588.6781249536085 0.12031242238595041 L 587.3329915735579 0.0" fill="none"/><path stroke="#000000" stroke-width="2" d="M 360.19952521861126 0.0 L 359.9374999552034 0.017968742374819158 L 359.3666460792709 0.0" fill="none"/><path stroke="#000000" stroke-width="2" d="M 358.5469108455407 0.0 L 358.1953124352032 0.07968747516861185 L 356.94687498240967 0.017968742374819158 L 356.285486233345 0.0" fill="none"/><path stroke="#000000" stroke-width="2" d="M 332.18041182946183 0.0 L 328.5203124224092 0.017968742374819158 L 318.36250009601935 0.017968742374819158 L 314.6546874368214 0.03828121598348844 L 313.7140625408036 0.03828121598348844 L 313.1812499456108 0.017968742374819158 L 311.11250001920854 0.03828121598348844 L 307.22187509761426 0.03828121598348844 L 306.64843755520417 0.05859368959204403 L 304.8453124096035 0.03828121598348844 L 302.8999999488122 0.017968742374819158 L 301.48750008321366 0.017968742374819158 L 301.08804060264083 0.0" fill="none"/><path stroke="#000000" stroke-width="2" d="M 238.16463421624212 0.0 L 237.2406249472173 0.017968742374819158 L 220.91875000321306 0.017968742374819158 L 219.64843745280524 0.05859368959204403 L 218.31718748161802 0.03828121598348844 L 215.24531240961514 0.03828121598348844 L 212.37812490240904 0.05859368959204403 L 208.05781258242206 0.05859368959204403 L 204.65781248002313 0.07968747516861185 L 189.80937502720627 0.07968747516861185 L 189.0160445440095 0.07080693759485257 L 187.9249999872176 0.05859368959204403 L 187.68481041562626 0.0" fill="none"/><path stroke="#000000" stroke-width="2" d="M 0.0 819.7493005701486 L 5.018749952001963 819.6273436671938 L 10.0359374848078 819.6273436671938 L 11.03906242561061 819.6484374527936 L 12.595312435203232 819.6273436671938 L 13.395312435203232 819.6273436671938 L 16.38437498881249 819.6890623999876 L 19.1093749760068 819.6890623999876 L 19.968749977601693 819.6687499263905 L 24.003125043201727 819.6687499263905 L 24.760937472002116 819.6890623999876 L 25.45781248001149 819.6890623999876 L 26.40000000001164 819.709375078394 L 29.30781245441176 819.6890623999876 L 29.717187584005295 819.6687499263905 L 30.270312448008916 819.6890623999876 L 32.400000000011644 819.6687499263905 L 39.54687508480856 819.6687499263905 L 41.45156259840587 819.6484374527936 L 45.670312550407836 819.6273436671938 L 46.756250009604265 819.6273436671938 L 51.017187532805835 819.6070311935852 L 51.48750008320203 819.6484374527936 L 55.378125004807956 819.6070311935852 L 58.45000007681083 819.5453124607914 L 59.25000007681083 819.5664062463911 L 59.76093757441267 819.5664062463911 L 60.64218746881234 819.5249999871943 L 62.50625003520399 819.5664062463911 L 64.4109375488013 819.5453124607914 L 65.3734375424101 819.5453124607914 L 66.06874992640223 819.5249999871943 L 69.44843755520415 819.5046875135856 L 70.04218757121126 819.5046875135856 L 74.28124999681022 819.5453124607914 L 75.01874995200197 819.5453124607914 L 76.65781248001149 819.5664062463911 L 77.62031247360865 819.5453124607914 L 79.25781258241041 819.5453124607914 L 80.22031257600756 819.5249999871943 L 93.55312496640254 819.5249999871943 L 95.25312491520307 819.5867187199881 L 100.16875008001225 819.4226563071949 L 101.54062499840511 819.3820311551914 L 102.2578124800115 819.3820311551914 L 108.17656258561183 819.3406251007924 L 116.30624993280507 819.2796874751918 L 116.9828124672058 819.2585936895921 L 119.44062504960456 819.2796874751918 L 123.80156252160668 819.2179687423865 L 128.80000000001164 819.2179687423865 L 134.88281251840527 819.135937535984 L 139.24374999040737 819.09531258879 L 140.34999992321247 819.09531258879 L 142.62343741441146 819.0749999103834 L 147.1703126016073 819.0335936511867 L 148.29687500800938 819.0335936511867 L 153.45781248001148 818.9718749183928 L 154.85000007681083 818.9109374975902 L 156.0578125824104 818.8289062911878 L 157.28749998080312 818.7882813439937 L 157.98281256960473 818.7882813439937 L 159.19218749441205 818.8492187647847 L 160.15468748800922 818.8492187647847 L 161.23906252800953 818.8906250239932 L 162.32499998720596 818.9109374975902 L 164.72187494400424 818.9718749183928 L 166.62656245760155 819.0132811775896 L 169.2265625600121 819.0335936511867 L 170.49687490561047 819.0132811775896 L 171.33593743360834 819.0335936511867 L 175.51406243840466 819.0335936511867 L 176.19062497280538 819.0539063295931 L 179.05781248001148 819.0132811775896 L 181.24843745280523 819.0132811775896 L 183.93125007360942 819.0335936511867 L 188.0078125056112 819.0335936511867 L 191.73437501441222 819.0539063295931 L 192.80000000001164 819.0539063295931 L 194.54062510080402 819.2179687423865 L 194.58125004800968 820.2421874687891 L 194.58125004800968 822.3515625471948 L 194.6015625216067 824.7679686655872 L 194.62187499520368 826.73437491199 L 194.62187499520368 827.5742187519907 L 194.64218746881232 829.970312601584 L 194.66249994240934 830.9328125951928 L 194.70468751360895 837.3632813055883 L 194.72499998720596 841.1726563327945 L 194.74531246080295 842.9546874879859 L 194.74531246080295 844.9820311551914 L 194.8265625600121 846.7023437823867 L 194.7859374080086 847.4601562111872 L 194.7859374080086 848.9343750143889 L 194.80625008640345 851.5351562239928 L 194.8265625600121 852.5796874239925 L 194.8671875072061 853.4195312639931 L 194.8671875072061 854.8124999679858 L 194.86874992640224 856.0617187327938 L 194.8265625600121 861.6523438079864 L 194.8265625600121 866.4445313023868 L 194.80625008640345 870.4179687423864 L 194.74531246080295 877.6679688191856 L 194.76562493441162 883.7507813375909 L 194.8468750336091 886.678906265588 L 194.8468750336091 887.3960937471944 L 194.87903948801105 888.7240833023913 L 194.90937507840573 889.9765624831896 L 194.95000002561136 893.8679687167867 L 194.95000002561136 896.0179687423864 L 194.97031249920838 897.185156300792 L 194.88906240001089 901.6093749247841 L 194.80625008640345 905.0703124479857 L 194.80625008640345 905.5820312575903 L 194.68281241600636 909.1046875135856 L 194.54062510080402 913.3234374655876 L 194.54062510080402 917.5835936767864 L 194.4578125824104 919.9999999999884 L 194.41718743040693 921.5976562687895 L 194.49843752960442 922.6007812095922 L 194.4578125824104 924.915624959988 L 194.4578125824104 925.754687487986 L 194.43749990400391 927.4749999103835 L 194.41718743040693 929.625781247986 L 194.3968749568099 931.1000000511879 L 194.37656248321292 932.9843750911881 L 194.37656248321292 940.7460937727941 L 194.3968749568099 943.6132812799885 L 194.3968749568099 947.1976562687894 L 194.37656248321292 948.4671875071945 L 194.37656248321292 969.2274407423917 L 194.49901178880828 978.3907260415842 L 194.49998090240405 978.4090144767891 L 194.3968749568099 979.0851563519915 L 194.37656248321292 983.4882811903838 L 194.37656248321292 986.8468750335858 L 194.35625000960425 988.567187455995 L 194.35625000960425 993.6874999807915 L 194.3968749568099 996.370312601584 L 194.37656248321292 998.5820311551913 L 194.35625000960425 999.605468774389 L 194.37656248321292 1000.4867186687886 L 194.35625000960425 1001.367187455995 L 194.37656248321292 1005.1562500095927 L 194.37656248321292 1008.1257811967865 L 194.3968749568099 1010.4804687871947 L 194.3968749568099 1012.4468750335858 L 194.37656248321292 1018.7953125375905 L 194.35625000960425 1023.9976562687895 L 194.35625000960425 1024.0" fill="none"/><path stroke="#000000" stroke-width="2" d="M 187.68481041558843 0.0 L 187.92499998720595 0.05859368959204403 L 189.0160445440095 0.07080693759485257 L 189.80937502720627 0.07968747519191766 L 204.6578124800115 0.07968747519191766 L 208.0578125824104 0.05859368959204403 L 212.37812490240904 0.05859368959204403 L 215.2453124096035 0.03828121598348844 L 218.31718748160637 0.03828121598348844 L 219.64843745280524 0.05859368959204403 L 220.9187500032014 0.017968742386415215 L 237.24062494720565 0.017968742386415215 L 238.164634216571 0.0" fill="none"/><path stroke="#000000" stroke-width="2" d="M 301.08804060215186 0.0 L 301.487500083202 0.017968742386415215 L 302.8999999488122 0.017968742386415215 L 304.8453124096035 0.03828121598348844 L 306.64843755520417 0.05859368959204403 L 307.2218750976026 0.03828121598348844 L 311.11250001920854 0.03828121598348844 L 313.1812499456108 0.017968742386415215 L 313.7140625408036 0.03828121598348844 L 314.65468743680975 0.03828121598348844 L 318.3625000960077 0.017968742386415215 L 328.5203124224092 0.017968742386415215 L 332.18041183392927 0.0" fill="none"/><path stroke="#000000" stroke-width="2" d="M 356.2854862331005 0.0 L 356.94687498240967 0.017968742386415215 L 358.1953124352032 0.07968747519191766 L 358.54691084556396 0.0" fill="none"/><path stroke="#000000" stroke-width="2" d="M 359.36664607906425 0.0 L 359.9374999552034 0.017968742386415215 L 360.1995252187771 0.0" fill="none"/><path stroke="#000000" stroke-width="2" d="M 587.3329915735463 0.0 L 588.6781249536085 0.12031242238595041 L 592.3843749888125 0.2429687807918981 L 592.8765624320018 0.26406256639165804 L 593.6546875392087 0.38671871998815277 L 594.392187494412 0.46874992639061475 L 594.9453125632019 0.52968755199106 L 595.9484375040047 0.611718758393522 L 596.6031249408028 0.6734374911873147 L 597.2187500544126 0.6937499647843879 L 597.8937499648076 0.6531250175903551 L 598.5906249728054 0.611718758393522 L 600.0437499904074 0.611718758393522 L 600.9453125632019 0.6531250175903551 L 601.579687526403 0.6734374911873147 L 603.0343749632127 0.7554686975897766 L 603.99687495681 0.7343749119900167 L 605.1031250944128 0.7140624383930572 L 606.9874999296037 0.7140624383930572 L 613.3359374336084 0.7351562239928171 L 614.2781249536085 0.7351562239928171 L 615.3218750464032 0.7343749119900167 L 616.4281249792082 0.7351562239928171 L 619.2750000128057 0.7554686975897766 L 621.5078125568107 0.7757811711868499 L 624.1906249728054 0.7757811711868499 L 634.5531250688015 0.8374999039922386 L 636.6828124160063 0.8374999039922386 L 638.9562499072053 0.8578125823871687 L 639.8781249536084 0.8374999039922386 L 641.0656249856111 0.8578125823871687 L 648.2125000704079 0.8578125823871687 L 648.9500000256114 0.8781250559841283 L 657.4093750272062 0.8781250559841283 L 663.2249999360065 0.8984375295927975 L 665.4781249536085 0.8984375295927975 L 673.99687495681 0.9398437887896307 L 678.339062579209 0.9601562623865902 L 683.2140625920031 1.000781209592219 L 685.9578124288121 1.000781209592219 L 687.9031250944129 1.0218749951920927 L 691.0781249536085 1.0421874687890522 L 695.0718750720029 1.0421874687890522 L 697.4062499840045 1.0624999423860118 L 703.4484375552041 1.0624999423860118 L 712.7656249344116 1.1031250943894975 L 717.8453125120025 1.1031250943894975 L 725.2593750016065 1.1242186751915142 L 729.8671874048072 1.1445311487884737 L 730.6656249856111 1.1648438271834038 L 736.071874969604 1.1648438271834038 L 739.8812499968102 1.1851563007919594 L 750.5515624448075 1.1851563007919594 L 752.7218749440042 1.2054687743890327 L 753.3578125312109 1.206250086391833 L 753.9312500736094 1.2054687743890327 L 755.8968750080094 1.2265625599887926 L 757.6781250560074 1.2265625599887926 L 764.2734374912106 1.2671875071944214 L 765.2156250112108 1.2671875071944214 L 767.8781249536084 1.2874999807914946 L 771.1140624384046 1.2874999807914946 L 777.3390624768101 1.3085937663912546 L 778.8546875392087 1.3085937663912546 L 781.6000000000116 1.3078124543884542 L 787.0265624576016 1.3085937663912546 L 790.1390624768101 1.3289062399883278 L 800.2359375872068 1.3289062399883278 L 809.7390624768101 1.3085937663912546 L 814.1218750464031 1.3085937663912546 L 815.8828124160063 1.3078124543884542 L 816.7234375680098 1.3078124543884542 L 819.0781249536085 1.3492187135852873 L 819.9374999552034 1.3289062399883278 L 833.9046875136089 1.3085937663912546 L 835.7890625536093 0.447656345588598 L 836.6527163578751 0.0" fill="none"/><path stroke="#000000" stroke-width="2" d="M 1005.2607681501279 0.0 L 1005.671874969604 0.017968742386415215 L 1006.0743202159385 0.0" fill="none"/><path stroke="#000000" stroke-width="2" d="M 1024.0 819.5458839893487 L 1023.8984374272055 819.5453124607914 L 996.0249999360065 819.5453124607914 L 995.2265625600121 819.5664062463911 L 994.4281249792082 819.5664062463911 L 992.2359375872068 819.5664062463911 L 991.6421875712113 819.5453124607914 L 984.7812499456107 819.5453124607914 L 980.9515624448075 819.5249999871943 L 972.9031249920023 819.5249999871943 L 971.6531249152031 819.5664062463911 L 967.4765625344123 819.5664062463911 L 967.3198129152064 819.5669313535909 L 961.4140624896041 819.5867187199881 L 957.7484374016058 819.6070311935852 L 953.8765625344124 819.6070311935852 L 949.5968749568099 819.6273436671938 L 947.0984374272055 819.6273436671938 L 943.5343749120017 819.6484374527936 L 936.2640625664033 819.6484374527936 L 934.9531250688015 819.6687499263905 L 932.2499999744119 819.6687499263905 L 929.5875000320026 819.6890623999876 L 921.4781249536085 819.6890623999876 L 914.1453125632019 819.709375078394 L 912.1999998976128 819.7296875519911 L 909.7015625728061 819.7296875519911 L 907.9203125248081 819.7507813375909 L 903.4546874368098 819.7507813375909 L 902.3703126016073 819.7710938111879 L 897.3531250688014 819.7710938111879 L 895.8781249536084 819.7914062847849 L 886.8874999808031 819.7914062847849 L 884.4093749248074 819.8117187583936 L 881.1109376000124 819.7710938111879 L 880.231249920011 819.8117187583936 L 879.4734374912107 819.8320312319905 L 866.2437500928063 819.8320312319905 L 860.6937499648077 819.8117187583936 L 844.6781249536085 819.8117187583936 L 839.7828124672058 819.7914062847849 L 836.0562499584048 819.7507813375909 L 833.1062499328051 819.7914062847849 L 829.1125000192085 819.7710938111879 L 814.8390625280095 819.7710938111879 L 811.4390624256106 819.7914062847849 L 809.9640625152039 819.8117187583936 L 806.6671874048072 819.8117187583936 L 803.2062500864034 819.7914062847849 L 802.2015625216067 819.7710938111879 L 794.4812500992091 819.7710938111879 L 793.4781249536085 819.7507813375909 L 792.8843749376014 819.7507813375909 L 790.6580123648048 819.740164710395 L 788.4609374208027 819.7296875519911 L 786.392187494412 819.709375078394 L 782.9312499712105 819.709375078394 L 781.4694948864053 819.692115353595 L 781.2109375488129 819.6890623999876 L 780.2580805632053 819.8393794559873 L 780.0421875712112 819.8734374911874 L 779.2031250432017 819.6890623999876 L 777.4624999424093 819.6890623999876 L 776.1515624448075 819.6687499263905 L 775.3531250688014 819.6687499263905 L 774.3906250752043 819.6484374527936 L 772.9781250048079 819.6273436671938 L 772.3625000960077 819.6273436671938 L 771.1750000640052 819.6070311935852 L 769.8437500928063 819.5867187199881 L 768.779687526403 819.5664062463911 L 767.8781249536084 819.5453124607914 L 765.5015624704072 819.5249999871943 L 763.6593750016066 819.5046875135856 L 761.1187499008025 819.4843750399887 L 758.0671875072061 819.4429687807918 L 754.9953124352032 819.4226563071949 L 753.4189344768063 819.3203243007883 L 752.3328124928055 819.3406251007924 L 749.9374999552034 819.2999999487889 L 748.2578124800115 819.2796874751918 L 746.9671874560066 819.1976562687894 L 745.6984375296045 819.1773437951924 L 742.2781249536085 819.0539063295931 L 740.6593748992076 818.9929687039927 L 740.0046874624095 818.9718749183928 L 739.4109374464024 818.9718749183928 L 738.9593749504071 818.9515624447843 L 737.7312499712104 818.9718749183928 L 736.6250000384055 818.9515624447843 L 735.0078124032123 818.9109374975902 L 731.3828124672058 818.8492187647847 L 730.9109374976018 818.8492187647847 L 730.2156249088118 818.8289062911878 L 729.3546874880092 818.8085938175907 L 727.3687500800122 818.7882813439937 L 726.6921875456115 818.7882813439937 L 726.0374999040039 818.767187558394 L 718.0296873984043 818.767187558394 L 716.6781249536085 818.8085938175907 L 711.4140624896041 818.7882813439937 L 710.2671874048071 818.7882813439937 L 702.7312500736094 818.767187558394 L 689.6437499904074 818.767187558394 L 686.5515624448075 818.7468750847853 L 685.2812500992092 818.7468750847853 L 678.851562496007 818.7062499327934 L 676.618749952002 818.7062499327934 L 671.8062499840046 818.6851563519915 L 668.5296875520028 818.664843673585 L 667.832812544005 818.664843673585 L 665.3546874880092 818.644531199988 L 645.5921874944121 818.644531199988 L 643.379687424004 818.6851563519915 L 639.8781249536084 818.5828124671941 L 634.5124999168096 818.5624999935856 L 619.6843749376014 818.5015625727945 L 608.1749999616062 818.5015625727945 L 606.2093750272063 818.5218750463915 L 599.4296875008033 818.5218750463915 L 595.559375052806 818.5421875199885 L 593.4499999744119 818.5624999935856 L 589.3953124352032 818.5624999935856 L 588.6781249536085 818.5828124671941 L 579.2984375296044 818.5828124671941 L 572.0484374528053 818.603906252794 L 569.8359375872067 818.624218726391 L 565.104687513609 818.624218726391 L 563.0781249536085 818.603906252794 L 561.5828125696047 818.624218726391 L 558.1218750464031 818.624218726391 L 554.618749952002 818.603906252794 L 553.0421874688124 818.603906252794 L 552.3265624064021 818.5624999935856 L 551.4859374592081 818.603906252794 L 549.1718750208034 818.603906252794 L 547.5953125376021 818.603906252794 L 544.2359375872068 818.5828124671941 L 540.7343749120016 818.5828124671941 L 539.1984375808039 818.5624999935856 L 537.2937500672066 818.5828124671941 L 532.7671875584056 818.5828124671941 L 527.5046875136089 818.624218726391 L 524.410937548813 818.624218726391 L 522.3015624704072 818.644531199988 L 516.3828125696048 818.644531199988 L 511.8781249536085 818.7265624063905 L 500.73593753600727 818.7265624063905 L 496.92812492800874 818.7468750847853 L 486.2781249536085 818.767187558394 L 466.1250000896049 818.767187558394 L 460.6781249536085 818.7882813439937 L 458.69062492160595 818.8085938175907 L 453.63281244160606 818.8085938175907 L 452.19843747840497 818.7882813439937 L 448.86093742080266 818.8085938175907 L 436.9203124224092 818.8085938175907 L 435.0781249536085 818.7882813439937 L 426.14843740160575 818.7882813439937 L 415.6828125184053 818.7882813439937 L 409.47812495360847 818.8289062911878 L 407.85937489920764 818.8085938175907 L 407.18437498881246 818.8085938175907 L 405.832812544005 818.7882813439937 L 404.3984375808039 818.767187558394 L 400.0781250560074 818.767187558394 L 394.67031244800893 818.8289062911878 L 391.3124999168096 818.8695312383934 L 389.2843749376014 818.8906250239932 L 387.9734374400112 818.9109374975902 L 386.8671875072061 818.9312499711872 L 384.49218744321263 818.9515624447843 L 383.81562490881186 818.9312499711872 L 379.0859374592081 818.9929687039927 L 375.99218749441206 819.0539063295931 L 375.07187507200285 819.0749999103834 L 374.0265625600121 819.0749999103834 L 372.40937492480737 819.1156250623869 L 367.3093750784057 819.1156250623869 L 366.67499991040677 819.135937535984 L 365.2406249472057 819.1156250623869 L 364.05312491520306 819.1156250623869 L 362.7625000960077 819.135937535984 L 359.0359375872067 819.135937535984 L 358.359375052806 819.1562500095927 L 356.8031250432017 819.1773437951924 L 346.89062502400486 819.1773437951924 L 342.7953125376022 819.1976562687894 L 320.1843750912114 819.1976562687894 L 316.8874999808031 819.1773437951924 L 307.0578124800115 819.1773437951924 L 304.7843749888125 819.1976562687894 L 303.08437504001193 819.2179687423865 L 301.8140624896041 819.2796874751918 L 300.9546874880092 819.2796874751918 L 299.8890625024098 819.2585936895921 L 299.2546875392087 819.2585936895921 L 296.632812544005 819.2796874751918 L 295.3843750912114 819.2796874751918 L 294.5234374656109 819.2179687423865 L 281.3953124352032 819.2179677183856 L 280.3515625472064 819.1773437951924 L 258.0484374528052 819.1773437951924 L 255.8578124800115 819.1562500095927 L 254.25937489920761 819.1773437951924 L 248.40312504320173 819.1773437951924 L 247.3171875840053 819.1562500095927 L 245.3718749184045 819.1562500095927 L 243.3234374656109 819.1773437951924 L 235.58281256960473 819.1773437951924 L 234.74218741761288 819.1976562687894 L 233.59531253760215 819.1773437951924 L 230.2578124800115 819.1562500095927 L 228.5375000576023 819.1773437951924 L 222.96562503681054 819.1562500095927 L 221.2671875072061 819.1562500095927 L 217.64218757121125 819.135937535984 L 211.35468748800923 819.1156250623869 L 208.26249994240933 819.09531258879 L 200.43906252800952 819.09531258879 L 199.68125009920914 819.1156250623869 L 198.3906250752043 819.09531258879 L 194.54062510080402 819.2179687423865 L 192.80000000001164 819.0539063295931 L 191.73437501441222 819.0539063295931 L 188.0078125056112 819.0335936511867 L 183.93125007360942 819.0335936511867 L 181.24843745280523 819.0132811775896 L 179.05781248001148 819.0132811775896 L 176.19062497280538 819.0539063295931 L 175.51406243840466 819.0335936511867 L 171.33593743360834 819.0335936511867 L 170.49687490561047 819.0132811775896 L 169.2265625600121 819.0335936511867 L 166.62656245760155 819.0132811775896 L 164.72187494400424 818.9718749183928 L 162.32499998720596 818.9109374975902 L 161.23906252800953 818.8906250239932 L 160.15468748800922 818.8492187647847 L 159.19218749441205 818.8492187647847 L 157.98281256960473 818.7882813439937 L 157.28749998080312 818.7882813439937 L 156.0578125824104 818.8289062911878 L 154.85000007681083 818.9109374975902 L 153.45781248001148 818.9718749183928 L 148.29687500800938 819.0335936511867 L 147.1703126016073 819.0335936511867 L 142.62343741441146 819.0749999103834 L 140.34999992321247 819.09531258879 L 139.24374999040737 819.09531258879 L 134.88281251840527 819.135937535984 L 128.80000000001164 819.2179687423865 L 123.80156252160668 819.2179687423865 L 119.44062504960456 819.2796874751918 L 116.9828124672058 819.2585936895921 L 116.30624993280507 819.2796874751918 L 108.17656258561183 819.3406251007924 L 102.2578124800115 819.3820311551914 L 101.54062499840511 819.3820311551914 L 100.16875008001225 819.4226563071949 L 95.25312491520307 819.5867187199881 L 93.55312496640254 819.5249999871943 L 80.22031257600756 819.5249999871943 L 79.25781258241041 819.5453124607914 L 77.62031247360865 819.5453124607914 L 76.65781248001149 819.5664062463911 L 75.01874995200197 819.5453124607914 L 74.28124999681022 819.5453124607914 L 70.04218757121126 819.5046875135856 L 69.44843755520415 819.5046875135856 L 66.06874992640223 819.5249999871943 L 65.3734375424101 819.5453124607914 L 64.4109375488013 819.5453124607914 L 62.50625003520399 819.5664062463911 L 60.64218746881234 819.5249999871943 L 59.76093757441267 819.5664062463911 L 59.25000007681083 819.5664062463911 L 58.45000007681083 819.5453124607914 L 55.378125004807956 819.6070311935852 L 51.48750008320203 819.6484374527936 L 51.017187532805835 819.6070311935852 L 46.756250009604265 819.6273436671938 L 45.670312550407836 819.6273436671938 L 41.45156259840587 819.6484374527936 L 39.54687508480856 819.6687499263905 L 32.400000000011644 819.6687499263905 L 30.270312448008916 819.6890623999876 L 29.717187584005295 819.6687499263905 L 29.30781245441176 819.6890623999876 L 26.40000000001164 819.709375078394 L 25.45781248001149 819.6890623999876 L 24.760937472002116 819.6890623999876 L 24.003125043201727 819.6687499263905 L 19.968749977601693 819.6687499263905 L 19.1093749760068 819.6890623999876 L 16.38437498881249 819.6890623999876 L 13.395312435203232 819.6273436671938 L 12.595312435203232 819.6273436671938 L 11.03906242561061 819.6484374527936 L 10.0359374848078 819.6273436671938 L 5.018749952001963 819.6273436671938 L 0.0 819.7493005701486" fill="none"/><path stroke="#408040" stroke-width="3" d="M 968.658944000001 1020.9300480000005 L 971.0079999999987 1021.9151360000003 L 971.012096 1023.7419519999996 L 971.4140414320543 1024.0" fill="none"/><path stroke="#408040" stroke-width="3" d="M 1024.0 911.2373179247181 L 1023.7358080000006 909.0764800000004 L 1023.7521919999999 899.9546879999995 L 1021.8168319999997 899.0371840000007 L 1017.2989440000005 899.0248959999997 L 1016.0844799999992 898.05824 L 1015.0563839999988 897.9763200000001 L 1012.3960320000012 897.499136 L 1008.4270079999988 897.8022400000002 L 1005.0723839999991 895.922176 L 1001.1975680000003 894.8408320000002 L 998.4327679999988 892.6781440000007 L 995.0146559999994 890.5011199999993 L 992.2007039999996 889.1392000000008 L 988.1313280000002 890.7571200000006 L 986.2144000000001 888.6620160000006 L 985.0982400000008 886.2842879999996 L 987.3817600000009 885.0862080000006 L 989.0693120000011 870.6559999999997 L 988.4753919999988 868.3847680000006 L 986.4028159999987 867.4078720000005 L 984.6374400000001 862.0646399999998 L 978.5896960000013 860.8849919999993 L 975.159296000001 858.2348800000007 L 974.5244160000002 855.6380160000001 L 969.4556160000008 845.7461760000006 L 960.2580480000004 837.9944959999993 L 953.8949120000004 832.1331200000001 L 952.7889919999986 828.9075200000007 L 947.8123519999994 826.5564159999994 L 941.2751359999995 822.0467199999999 L 938.2133759999997 817.7049599999998 L 935.9155200000008 813.6151039999997 L 930.1688319999987 810.4120320000002 L 926.1834239999996 806.0477440000002 L 920.2401279999991 802.8364799999996 L 903.8745599999995 784.1341440000003 L 901.4763520000008 779.4872319999995 L 901.009408000001 772.2455040000001 L 901.431296000001 764.946432 L 902.4696319999988 759.5601920000001 L 903.2744960000011 758.2617599999998 L 901.0708480000001 757.9381760000003 L 898.2917119999998 756.5598719999995 L 897.9701759999996 752.9082880000002 L 896.2785280000011 749.010944 L 891.846656 747.3172479999994 L 883.3699839999987 747.3336320000002 L 871.3175040000002 746.4366080000007 L 857.3317119999992 740.7411200000003 L 852.615168000001 735.3323520000006 L 843.6961279999989 731.4944000000003 L 830.7855359999987 728.9262080000001 L 826.9230080000009 728.2053119999997 L 824.016896000001 725.794816 L 815.4787840000005 720.6481920000006 L 809.9921919999994 717.6622080000001 L 807.6963840000011 712.6794240000003 L 800.6041599999996 706.4391680000001 L 791.6257279999991 703.5043839999998 L 781.848576000001 698.4212480000002 L 774.238208000001 696.5719039999997 L 770.0828160000004 692.2158079999994 L 745.9143680000009 683.4073600000004 L 742.8423680000008 681.4105599999996 L 741.2428799999994 678.3303679999997 L 736.471040000001 674.8282879999999 L 728.9569279999996 672.5939199999993 L 723.2020480000007 670.1629440000004 L 713.926655999999 664.7541759999992 L 696.5903359999996 668.368896 L 688.4597760000004 668.4344320000004 L 674.19136 669.3765119999996 L 661.9586559999996 667.0561279999995 L 640.9850880000013 667.0295039999997 L 624.5498879999999 665.2702720000001 L 615.5571200000006 663.5028479999994 L 606.2899200000014 661.8849279999995 L 596.404224000001 661.1374079999994 L 587.4974719999998 659.1303679999997 L 572.5900800000003 657.893376 L 569.5918080000004 659.4150399999999 L 562.6757119999995 659.5543040000005 L 555.0960640000005 659.7324800000002 L 544.2621439999988 659.7119999999995 L 536.0250880000007 657.567744 L 508.5388799999986 663.1546879999994 L 493.0826239999995 666.1652480000005 L 475.7954560000013 667.5783679999993 L 454.34265599999924 672.4587520000001 L 438.39897599999966 674.5722880000001 L 429.1686400000006 675.3300480000005 L 410.77350399999995 681.8488320000004 L 390.0375040000014 684.6423039999994 L 347.4350080000004 690.1125119999997 L 325.7507840000006 689.0147840000005 L 299.7104640000005 687.4562560000006 L 283.9736319999996 686.1312000000005 L 266.7970559999987 686.2049280000007 L 258.06847999999883 681.2938240000003 L 241.35270399999862 678.1562879999998 L 232.73471999999893 677.1630080000002 L 227.28499200000078 677.5685119999995 L 222.64217599999975 678.3774720000001 L 220.47334400000108 680.9333759999994 L 210.1104640000005 682.8175359999993 L 203.28243200000142 685.7236480000007 L 197.9371519999986 688.0051200000001 L 188.08627200000046 690.1923840000003 L 171.43808000000135 697.0552320000003 L 166.58227199999965 697.9256320000001 L 162.69311999999917 695.3553920000006 L 157.6181760000007 694.7839999999997 L 153.75359999999927 699.0745599999995 L 143.3006079999992 704.1085439999995 L 135.55916800000122 707.3095679999999 L 126.11583999999857 710.0293120000002 L 117.87059200000076 710.9980160000007 L 112.18329599999997 711.2458240000008 L 106.49395200000144 707.8748160000002 L 98.28352000000014 705.0076159999996 L 90.73868800000055 703.7214720000004 L 74.2604800000001 707.6577279999998 L 55.31647999999986 708.0304640000002 L 16.617472000000998 708.0693759999995 L 1.720319999998901 715.3991680000006 L 0.0 716.6339138064519" fill="none"/><path stroke="#408040" stroke-width="3" d="M 553.2326902429922 0.0 L 553.6378880000004 2.691071999999963 L 561.977343999999 8.159231999999633 L 569.4095360000007 11.071487999999931 L 574.4517120000004 13.27513599999952 L 578.7299839999993 16.05632000000037 L 586.3731200000009 16.96563199999946 L 604.7334399999993 18.548735999999963 L 611.0371840000007 20.840447999999697 L 613.9084800000012 24.408063999999968 L 616.4828160000004 29.3662719999993 L 620.1036800000002 33.16735999999946 L 625.9363840000005 36.286464000000024 L 627.3228800000012 40.80435200000068 L 627.3126400000008 48.56831999999997 L 630.6734079999994 53.274623999999335 L 631.4127360000014 57.21497599999998 L 634.6874879999989 62.70771200000013 L 634.7694079999986 64.518144 L 637.1491840000002 66.4186879999994 L 640.4239360000007 70.75635199999965 L 644.2926080000004 76.16307200000006 L 646.2730240000004 81.9978239999997 L 650.5062399999995 86.24128000000053 L 652.4600319999997 90.7386880000006 L 654.2131200000003 95.44089600000007 L 654.587904 100.92134400000066 L 654.8807679999998 105.23033600000053 L 657.1151359999989 108.49689599999988 L 665.3665279999987 115.49900800000034 L 671.7337599999998 123.49030400000049 L 673.7407999999996 125.81478400000049 L 677.1630080000002 127.87712000000033 L 678.008832000001 130.03776000000073 L 678.5761280000006 132.5096959999995 L 679.4444799999998 138.72947200000056 L 679.6390400000004 152.3998720000003 L 678.8300799999997 156.88294400000018 L 680.2309119999991 160.42188800000008 L 683.433984 167.72915199999989 L 687.6671999999992 177.41209600000002 L 689.424384000001 192.38911999999982 L 686.8275200000004 205.39596800000004 L 687.0241279999988 217.7228799999997 L 688.6256640000007 226.06848000000025 L 692.6172159999987 238.53260799999987 L 693.2807679999999 244.61516799999958 L 690.8928000000014 250.08537599999977 L 691.5584000000002 254.75686399999972 L 690.610175999999 257.9763200000001 L 686.780416 264.6917119999998 L 686.9176319999999 270.05951999999957 L 688.2529279999987 274.1309439999998 L 702.5950719999994 281.16377599999976 L 709.7958400000003 287.09683199999995 L 713.8734079999995 291.16211199999964 L 722.0715519999998 300.34739200000035 L 725.4814719999995 305.53292800000054 L 727.8161920000014 309.08416 L 733.4666239999991 311.1854080000005 L 739.7437440000009 314.6178560000001 L 740.8312319999998 317.0426879999999 L 740.2536959999998 319.3589760000002 L 740.2147839999991 325.9863039999997 L 739.1231999999989 331.4135039999994 L 737.3701120000012 339.6546560000003 L 738.6767359999998 349.62431999999967 L 739.6106239999993 357.8716159999997 L 740.8148480000003 361.5457280000003 L 744.9538559999986 366.87462399999936 L 749.1522560000012 374.4645120000001 L 750.7701759999997 376.93849599999953 L 750.358528 380.5593599999993 L 750.1680640000006 392.3701759999997 L 751.0896639999992 416.88268799999935 L 749.5598079999996 430.2151679999995 L 748.7078399999998 435.51334400000053 L 750.0820479999995 438.28224000000046 L 762.3024639999988 439.12806399999977 L 773.0790399999998 440.99584000000027 L 781.2567039999994 442.3659520000001 L 799.758335999999 442.62809600000037 L 816.8755200000014 442.9434880000001 L 826.9209600000002 443.2670719999994 L 833.546239999999 442.1160959999994 L 850.6019839999993 443.70124800000053 L 866.607104000001 446.36979200000064 L 876.6689279999991 446.2776320000005 L 883.5420160000009 448.4096000000005 L 901.6913919999992 451.86662400000057 L 912.9615359999996 452.7943679999996 L 921.7126400000009 454.6355200000005 L 932.5178879999992 454.6252800000002 L 936.6917119999998 458.2789120000001 L 939.843583999999 459.0837759999995 L 940.6279680000007 461.0027520000003 L 942.8152319999994 462.9176319999999 L 949.602304 463.1551999999996 L 955.8753280000004 465.31379199999935 L 970.4181760000007 470.5484800000006 L 980.6684160000004 477.47481600000026 L 985.2600319999998 482.39615999999955 L 992.7516159999999 484.7697920000006 L 1003.7739520000002 492.0545280000006 L 1015.371776 500.5721600000004 L 1018.6035200000013 508.5859840000005 L 1017.3050879999995 513.3885439999998 L 1018.165247999999 517.4784 L 1016.9200639999996 525.0416639999996 L 1015.1813120000006 531.9413759999995 L 1014.5382400000002 545.9517439999996 L 1013.9402239999996 556.163072 L 1016.9487359999999 562.526208 L 1021.8700799999991 572.3504639999999 L 1023.7460480000009 579.9690239999996 L 1023.776767999999 586.0618239999997 L 1024.0 586.5836842384131" fill="none"/><path stroke="#408040" stroke-width="3" d="M 1024.0 893.0523684668588 L 1023.6928000000014 901.7794559999995 L 1023.9447039999999 910.6636799999993 L 1024.0 911.0423459572442" fill="none"/><path stroke="#408040" stroke-width="3" d="M 968.658944000001 1020.9300480000005 L 968.658944000001 1021.0078720000005 L 968.7449599999993 1021.0078720000005 L 968.9108479999995 1021.0078720000005 L 969.1504639999999 1021.0058239999998 L 969.795584000001 1021.0037760000007 L 969.9430400000012 1021.0037760000007 L 970.0782080000005 1021.001728 L 970.0986880000012 1021.0119680000004 L 970.1273599999986 1021.0140159999995 L 970.2399999999994 1021.0140159999995 L 970.3731200000009 1021.0140159999995 L 970.7847680000007 1021.0181119999994 L 970.9772800000006 1021.0140159999995 L 971.0141440000007 1021.0406400000007 L 971.0448639999988 1021.0775039999993 L 971.0182399999991 1021.2208639999997 L 971.012096 1021.2597760000004 L 971.005952000001 1021.3314559999999 L 971.0079999999987 1021.4850560000007 L 971.012096 1021.7062399999995 L 971.0079999999987 1021.9151360000003 L 971.0079999999987 1022.345216 L 971.005952000001 1022.5070080000005 L 971.0039040000004 1022.8408320000002 L 971.005952000001 1023.1459839999995 L 971.0100479999994 1023.3610239999995 L 971.012096 1023.7419519999996 L 971.0202879999997 1023.8033920000001 L 971.0448639999988 1023.8771200000003 L 971.0612480000011 1023.9139840000004 L 971.0899200000015 1023.9569919999994 L 971.1340903783799 1024.0" fill="none"/></svg>