<svg xmlns="http://www.w3.org/2000/svg" width="1024" height="1024"><rect stroke="none" x="0" y="0" width="1024" height="1024" fill="white"/><path stroke="#408040" stroke-width="3" d="M 1024.0 166.76968992404727 L 996.8537599999981 174.29503999999724 L 972.072960000005 173.5679999999993 L 953.6614399999962 176.50688000000082 L 930.2835199999972 179.4047999999966 L 847.872000000003 189.6345599999986 L 776.878079999995 196.82304000000295 L 695.4496000000072 203.37664000000223 L 672.6553600000043 201.13408000000345 L 652.1548800000019 200.65280000000348 L 642.2937600000005 201.6768000000011 L 633.1289600000018 204.6975999999995 L 612.270080000002 209.34655999999814 L 602.5830399999977 211.6915200000003 L 593.3772800000006 217.01632000000245 L 569.1187199999986 225.63840000000346 L 548.761599999998 232.6732800000027 L 540.6412799999962 237.12767999999778 L 529.8278399999981 243.56863999999769 L 520.5299200000009 247.23455999999715 L 472.9446400000015 265.21600000000035 L 448.51200000000244 273.63328000000183 L 418.9695999999967 276.0703999999969 L 366.00831999999355 282.96192000000156 L 352.1843200000003 282.80831999999646 L 341.57567999999446 284.3136000000013 L 314.70591999999306 286.43327999999747 L 262.5843199999945 289.9968000000008 L 240.46592000000237 289.59743999999773 L 219.8732799999998 287.1808000000019 L 207.89247999999498 286.51520000000164 L 194.67264000000432 284.14976000000024 L 169.66655999999784 277.76000000000204 L 130.77503999999317 270.83776000000216 L 122.8185599999997 269.7215999999971 L 116.08064000000013 270.3052800000005 L 99.89119999999821 275.5891199999969 L 90.03007999999681 278.07744000000093 L 81.78687999999966 278.6406399999978 L 58.40896000000066 280.5862399999969 L 28.682239999994636 284.40576000000146 L 7.536640000005718 285.38880000000063 L 1.1571200000034878 283.6172799999986 L 0.0 283.6993452482275" fill="none"/></svg>