<svg xmlns="http://www.w3.org/2000/svg" width="1024" height="1024"><rect stroke="none" x="0" y="0" width="1024" height="1024" fill="white"/><path stroke="#000000" stroke-width="2" d="M 865.1790335984697 0.0 L 864.0546816000715 0.08994815987534821 L 837.225881600054 2.5475481598405167 L 827.0882816000958 3.264348159893416 L 822.5826816000626 3.5715481598163024 L 820.2274816000136 3.8787481599720195 L 797.3922816000413 3.8787481599720195 L 767.1842816000571 3.5715481598163024 L 753.9746816000552 3.5715481598163024 L 741.5842816000222 3.4691481599002145 L 731.3442816000897 3.161948159977328 L 714.6530816000886 2.342748159833718 L 691.8178816001164 0.9091481600189582 L 685.2642816000734 0.9091481600189582 L 666.5027695716562 0.0" fill="none"/><path stroke="#000000" stroke-width="2" d="M 649.2237712289207 0.0 L 644.0994816000457 0.9091481600189582 L 639.1842816001154 1.6259481598390266 L 611.7410816000775 6.233948159846477 L 511.38908160006395 7.8723481599008664 L 432.8482816001051 7.8723481599008664 L 383.18428160005715 8.077148159907665 L 347.13948160002474 7.8723481599008664 L 306.3842816000688 7.8723481599008664 L 302.59548160008853 7.769948159984779 L 244.1742676050635 0.0" fill="none"/><path stroke="#000000" stroke-width="2" d="M 244.17426760485978 0.0 L 302.5954816000303 7.769948159926571 L 306.3842816000106 7.872348159959074 L 347.13948160002474 7.872348159959074 L 383.18428160005715 8.077148159965873 L 432.8482816000469 7.872348159959074 L 511.38908160006395 7.872348159959074 L 611.7410816000192 6.2339481599628925 L 639.1842816000571 1.625948159955442 L 644.0994816000457 0.9091481599607505 L 649.2237712288625 0.0" fill="none"/><path stroke="#000000" stroke-width="2" d="M 666.5027695718891 0.0 L 685.2642816000152 0.9091481599607505 L 691.8178816000582 0.9091481599607505 L 714.6530816000304 2.3427481599501334 L 731.3442816000315 3.1619481599191204 L 741.5842816000222 3.469148159958422 L 753.9746816000552 3.5715481599327177 L 767.1842816000571 3.5715481599327177 L 797.3922816000413 3.8787481599720195 L 820.2274816000136 3.8787481599720195 L 822.5826816000626 3.5715481599327177 L 827.0882816000376 3.2643481599516235 L 837.225881600054 2.547548159956932 L 864.0546816000133 0.08994815993355587 L 865.1790335991391 0.0" fill="none"/></svg>