<svg xmlns="http://www.w3.org/2000/svg" width="1024" height="1024"><rect stroke="none" x="0" y="0" width="1024" height="1024" fill="white"/><path stroke="#000000" stroke-width="2" d="M 0.0 517.5354264885609 L 9.73437542404281 517.6210933759576 L 19.257812992029358 517.824219135975 L 29.39062476804247 518.1328127999441 L 45.773437952040695 518.3359375359723 L 50.796874752035365 518.4374999039574 L 70.25000038405415 518.7460935679264 L 83.86718720005592 519.0546872319537 L 90.52343705605017 519.0546872319537 L 100.76562534406548 519.1562495999387 L 104.8593745920225 519.1562495999387 L 116.64062464004382 519.3593753599562 L 120.32031232002191 519.3593753599562 L 126.29687500803266 519.4726563839358 L 131.38281267206185 519.5664066559402 L 140.70312550402014 519.6679690239253 L 144.69531238405034 519.6679690239253 L 151.3515622400446 519.7695313919685 L 159.23437465605093 519.8710937599535 L 164.66406297602225 519.9765626879525 L 169.88281241606455 519.9765626879525 L 173.46874982403824 520.0781250559376 L 177.25781299202936 520.0781250559376 L 182.89062502403976 520.1796874239226 L 188.00781209603883 520.1796874239226 L 194.8671877120505 520.3828121599508 L 198.65624985605245 520.2812497919658 L 199.51562547206413 520.1640622079722 L 199.29687449603807 520.273437695927 L 201.559788544022 520.2737448959379 L 201.39213209605077 520.486389759928 L 200.93750374403317 520.5809387519257 L 201.0390620160615 521.7070315519231 L 201.1406254080357 522.7304683519178 L 203.28906240005745 526.4179691519239 L 203.7924689920619 527.4756321279565 L 204.9177600000403 529.8580346879316 L 204.98055372806266 529.9914014719543 L 205.03124992002267 530.1054689279408 L 205.62499993602978 533.8125004799222 L 206.7734374400461 540.9570314239245 L 206.54043545603054 543.8934507519589 L 206.1608960000449 548.6376959999325 L 206.08512000006158 549.3135359999724 L 205.9531253760215 550.378906623926 L 206.0000000000582 550.4960942079197 L 205.9531253760215 551.5429683199618 L 205.8094008320477 552.0639703039196 L 205.73286400001962 552.3353599999682 L 205.70312499202555 553.7499996159459 L 205.48437504004687 555.5976560639683 L 205.4202214400284 555.813678079925 L 205.3417144320556 555.9080744959647 L 205.36422400001902 556.528639999975 L 205.14843750401633 557.6054691839381 L 204.82812518405262 560.4140625919681 L 204.18749952001963 563.5117189119337 L 202.67929600004572 570.8584959999425 L 201.0859376640292 583.078124543943 L 200.73369600001024 585.8088959999732 L 201.318510592042 592.9167779839481 L 201.32812492805533 593.0585937919677 L 201.33945651201066 593.1681290239212 L 201.34912000002805 593.2840959999594 L 200.83593728003325 600.2460938239237 L 200.73437491204822 605.5703121919651 L 200.42752000002656 609.872895999928 L 200.42752000002656 609.9752959999605 L 199.60832000005757 622.8776959999232 L 199.29689395206515 630.0464353279676 L 191.10912000003736 631.4792959999177 L 189.77792000002228 632.9128959999653 L 193.15624960005516 633.3242183679249 L 196.6377584640286 631.5834644479328 L 193.49760000006063 637.3570559999207 L 192.43749990401557 639.9023441919708 L 192.4284211200429 639.9326085119392 L 192.41164800006663 639.9784959999379 L 187.832320000045 650.6280959999422 L 188.04563046403928 651.1360686079715 L 188.17187532805838 651.4414059519186 L 189.16323020803975 653.8007807999384 L 183.53124966402538 653.8007807999384 L 181.79072000004817 652.5736959999194 L 183.07225190405734 647.6315535359317 L 183.2265625600121 647.0429685759591 L 180.76562534406548 646.6328125439468 L 181.27872000006028 649.0920959999203 L 178.6163200000301 649.6040959999664 L 179.8203125760192 651.3789061119314 L 180.13205094402656 651.8329610239598 L 180.35712000005879 652.164095999964 L 180.152320000052 652.8808959999587 L 179.7084160000668 654.7834879999282 L 179.50399692804785 655.6818984959391 L 179.38281267206185 656.2070312959258 L 179.36605491203954 656.2991953919409 L 179.3331200000248 656.4638719999348 L 178.5139200000558 658.7166719999514 L 178.20312473602826 659.4335938559379 L 177.79687526402995 666.1953126399312 L 177.29687449603807 674.453125119966 L 173.07031244802056 685.7539061759599 L 172.3671879680478 687.5937495039543 L 182.71093760005897 687.5937495039543 L 182.54540800006362 688.2938879999565 L 182.28124979202403 689.3281249279389 L 182.27031040005386 689.3937633279711 L 181.8408960000379 691.4641919999267 L 181.8209986560396 692.9664061439689 L 181.79584000003524 694.6590719999513 L 182.42187468806515 698.8710932479589 L 183.3646080000326 704.2232319999603 L 183.38918400002876 706.0991999999387 L 181.70163200004026 708.1103359999252 L 180.5468753920286 709.3867192319594 L 179.96874956804095 711.5156254719477 L 179.94549145601923 711.7598392319633 L 170.3203123200219 711.6562503679306 L 169.19531212805305 715.2421877759625 L 169.84991846402409 717.8555566079449 L 170.3203123200219 719.746094079921 L 170.47699865605682 720.5686968319351 L 170.6301440000534 721.3854719999363 L 170.015744000033 722.6142719999189 L 170.5277440000209 724.8670719999354 L 170.8349440000602 725.5838719999301 L 171.24218777602073 726.5039063039585 L 171.7565440000617 730.0894719999633 L 173.0859376640292 734.6992189439479 L 173.80454400001327 736.0286719999276 L 174.07031296001514 737.464843263966 L 174.72614400001476 740.9438719999744 L 174.74218700802885 741.0937497599516 L 175.56250009604264 747.6523438079748 L 175.9531253760215 748.7265628159512 L 177.18924492801307 751.6330332159414 L 178.7397120000096 755.2880639999639 L 182.5078128640307 761.2187504639733 L 183.94594713603146 764.3553249279503 L 186.39843737601768 769.7187502079178 L 186.47552000003634 769.9384319999372 L 189.37139200005913 778.523647999973 L 192.2385920000379 786.6132479999214 L 195.16312678402755 792.3806115839398 L 195.60937472002115 793.2617185279378 L 195.92187494406244 793.8828124159481 L 197.66169600002468 795.7432319999207 L 197.76233164803125 796.0313251839252 L 197.86718720005592 796.3398440959281 L 201.8652160000638 805.6586239999742 L 202.9916160000139 807.8090239999583 L 204.73241600004258 810.9834239999182 L 207.28906240005745 814.5039063039585 L 208.00781209603883 815.4882815999445 L 213.0278400000534 823.2714239999186 L 213.2310476800194 823.7851914239582 L 213.34755737602245 824.0735037439736 L 213.56250009604264 824.6210938879522 L 215.78906214406015 826.5468753919704 L 217.7343754240428 828.5976565759629 L 217.68076492805267 829.0560286719701 L 217.6481617920217 829.3168496639701 L 217.6328120320104 829.4140620799735 L 218.35156275203917 830.7460935679264 L 220.91406233602902 833.921874943946 L 222.11237888003234 835.3043138559442 L 222.24218726402614 835.4570311679272 L 223.67702016001567 837.1986841599573 L 226.03125043201726 840.0624998399289 L 226.17066803202033 840.3860654079472 L 226.25781248003477 840.5781247999403 L 226.80468787206337 841.7343754239264 L 227.36718745605322 842.4687503359746 L 228.04687462403672 842.9843752959277 L 228.5390622720588 843.4804684799747 L 229.35142400005134 844.4221439999528 L 230.24218726402614 845.5664066559402 L 230.86694400006672 846.1342719999375 L 231.92968704004306 847.4882815999445 L 232.47656243201345 848.2968750079744 L 232.5463040000177 848.3952639999334 L 232.6691840000567 848.5816319999285 L 234.94246400002157 850.7135999999591 L 235.05468723201193 850.8749998079729 L 235.4531246080296 851.4296872959239 L 236.75000012805685 853.0351564799203 L 237.60156262404053 854.0937502719462 L 237.5536640000646 854.1951999999583 L 240.34257203206653 858.2570495999535 L 241.7018880000105 860.2367999999551 L 246.7187496960396 867.710937087948 L 252.1466880000662 875.2885759999626 L 252.75000012805685 876.3984373759595 L 254.60156211204594 878.8710932479589 L 255.4062499840511 880.3828121599508 L 256.4453120000544 881.535156223923 L 257.7812500480213 882.7656253439491 L 257.9835863040644 882.8667934719706 L 257.3671874560532 883.2773437439464 L 262.79687475203536 889.9335935999407 L 263.20312524802284 890.5468753919704 L 264.10937548801303 892.2539059199626 L 264.5381120000384 892.695551999961 L 267.10937497601844 895.9726561279385 L 268.9116160000558 898.130943999975 L 277.1712000000407 904.7152639999404 L 276.10937548801303 905.7773434879491 L 276.0546877440647 905.824219135975 L 276.10937548801303 906.5195315199671 L 278.2578124800348 909.183593471942 L 278.4575078400667 909.575495679921 L 278.56793600006495 909.7963519999175 L 282.2000640000333 913.8775039999746 L 283.1759360000142 914.6091519999318 L 283.28906240005745 914.7031255039619 L 284.3023360000225 915.5307519999333 L 284.4531251200242 915.7851566079189 L 289.42187520005973 920.7539066879544 L 290.0583628800232 921.3382840319537 L 290.7545600000303 921.9809279999463 L 291.1857950720587 922.4121630719746 L 291.46874982403824 922.6992189439479 L 293.8265600000159 924.6433279999183 L 295.97696000005817 926.3841279999469 L 297.61536000005435 927.4081279999227 L 298.5078128640307 928.0039065599558 L 299.04896000004373 928.3297279999242 L 304.06249984004535 932.0156252159504 L 310.2115840000333 935.9073279999429 L 311.8499840000295 936.8289279999444 L 313.795584000065 938.1601279999595 L 314.07031296001514 938.2812497919658 L 316.10982400004286 939.161599999934 L 323.7265623040148 942.4609372159466 L 325.7734379520407 943.4843750399305 L 327.61201356805395 943.2799447039724 L 326.18598400003975 943.9959039999521 L 326.28829900803976 945.0190551039414 L 325.46874982403824 944.5078128639725 L 324.3427840000368 944.9175039999536 L 323.6259840000421 945.2247039999347 L 323.0078126080334 946.0429690879537 L 323.7265623040148 946.2500003839377 L 325.1621345280437 944.9197557759471 L 325.26438400003826 946.4535039999173 L 326.34163200005423 948.689919999917 L 326.5937500160653 949.2187504639733 L 327.5312496640254 950.2343751679291 L 327.82438400003593 950.5495039999369 L 328.13260800001444 951.1639039999573 L 329.66860800003633 953.7239039999549 L 330.1336852480308 954.6626047999598 L 330.4453120000544 955.2968744959217 L 330.4479477760615 955.2969031679677 L 330.44889600004535 955.2988159999368 L 331.169250304054 955.3046589439618 L 331.4759710720391 955.7647339519463 L 331.78906214406015 956.2382817279431 L 331.91375155205606 956.562168831937 L 332.1057280000532 957.0693119999487 L 332.10777600004803 957.379583999922 L 333.0468751360313 959.6640624639695 L 333.0468751360313 960.1757808639668 L 333.8671872000559 960.1757808639668 L 334.07031296001514 960.6875002879533 L 333.7656248320127 960.8906250239233 L 333.4574080000166 961.1991039999411 L 333.4574080000166 961.711103999929 L 334.8910080000642 962.735103999963 L 335.60937472002115 962.7343749119318 L 336.118626304029 962.0199587839306 L 337.1413145600236 962.3247554559493 L 338.06249984004535 963.0429685759591 L 337.8593751040171 965.3984378879541 L 337.7734379520407 967.6601559039555 L 337.75781273603207 968.1601566719473 L 338.47500800003763 970.7212799999397 L 337.9609374720603 971.0273433599505 L 337.24336640001275 971.0273433599505 L 336.73420800006716 970.8236799999722 L 336.42968780803494 970.4140625919681 L 337.04140800004825 970.3116799999261 L 337.14380800002255 969.5948799999314 L 336.3281254400499 968.980468735972 L 335.60937472002115 968.4687503359746 L 335.48437504004687 967.6562503679306 L 335.4065858560498 967.1389542399556 L 336.53125017601997 967.3437501439475 L 336.53125017601997 966.4218746879487 L 335.2968744960381 966.5234370559338 L 333.66406246402767 967.6484372479608 L 333.6622080000234 967.6503039999516 L 333.4574080000166 968.5708799999557 L 334.1742080000113 969.0828799999435 L 335.60780800005887 969.1852799999178 L 335.60780800005887 970.2092799999518 L 335.60937472002115 970.2109378559398 L 336.2187499520369 970.3125002239249 L 335.81260800006567 970.7212799999397 L 335.29990553605603 970.8236216319492 L 334.071808000037 970.7212799999397 L 334.07204147201264 970.7227996159345 L 334.07031296001514 970.7226562559372 L 334.2734376960434 972.0507811839343 L 334.2734376960434 972.4609372159466 L 334.07031296001514 972.7695308799739 L 334.3750000640284 973.6914063359727 L 335.2968744960381 974.6132807679242 L 334.4814080000506 974.9196799999336 L 335.50540800002636 977.377279999957 L 335.40300800005207 977.9916799999191 L 335.81230284803314 978.81210060796 L 335.71020800003316 979.2204799999599 L 337.1406254080357 980.652343295922 L 338.27123200002825 981.7804799999576 L 338.5781248000567 983.3164062719443 L 338.16883200005395 984.0332799999742 L 338.06643200002145 985.5692799999379 L 337.8737766400445 985.761935359973 L 337.75781273603207 985.8750003199675 L 338.88281292805914 987.6171878399327 L 338.06249984004535 987.7187502079178 L 338.18264883203665 988.0102215679362 L 338.27123200002825 988.231679999968 L 338.37363200006075 988.8460799999302 L 338.06643200002145 988.8460799999302 L 338.37363200006075 989.3580799999181 L 338.5390622720588 991.0390620159451 L 338.7115745280171 992.2987632639706 L 338.94348595204065 994.0176332799601 L 338.9609379840549 994.1601566719473 L 339.1703040000284 995.1979519999586 L 339.58297600003425 995.9280639999197 L 340.0948490240262 996.0361492479569 L 341.0226616320433 996.8742983679404 L 340.9203200000338 996.9766399999498 L 342.6718750720611 999.7929687039577 L 342.7734374400461 1000.4179691519239 L 343.28906240005745 1001.4414059519186 L 343.8008320000372 1002.0546559999348 L 344.2104320000508 1004.2050559999188 L 343.8046873600106 1004.20312473597 L 343.8062151680351 1004.2050559999188 L 343.8008320000372 1004.2050559999188 L 344.2726922240108 1004.7948820479214 L 344.61718732805457 1005.2304691199679 L 344.61718732805457 1006.3554682879476 L 345.1250001920271 1007.3710940159508 L 345.74218752002344 1008.4023439359735 L 346.15625011204975 1009.5312496639672 L 346.19531264004763 1009.6328120319522 L 346.3771576320287 1010.1231441919226 L 346.6484377600136 1010.8789063679287 L 346.95987200003583 1011.7365759999375 L 348.0360960000544 1012.7073279999313 L 348.921875456057 1013.3710940159508 L 349.5852195840562 1013.9368878079695 L 349.2109373440617 1014.0624998399289 L 349.6874997760169 1014.378906623926 L 349.8125004800386 1014.5468753919704 L 350.8281251840526 1015.8359377919696 L 351.8822400000645 1016.9845759999589 L 352.24949964805273 1017.4095759359188 L 350.89062502403976 1017.5585935359704 L 350.7691520000226 1018.1386239999556 L 350.8593745920225 1019.1601561599527 L 350.8593745920225 1019.2539064319571 L 350.86648217606125 1019.3640765439486 L 350.8715520000551 1019.4964479999617 L 350.9999994880636 1020.1640622079722 L 351.02343782404205 1020.2578124799184 L 351.17971456004307 1020.7526881279191 L 351.3241600000183 1021.2218879999709 L 351.34054400003515 1021.2587519999361 L 351.51007129601203 1021.6830648319446 L 351.6874997760169 1022.1367183359689 L 351.6969431040343 1022.191017983947 L 351.70099200005643 1022.227455999935 L 351.78887475206284 1022.8424007679569 L 351.6866560000344 1023.1490559999365 L 352.10983759629016 1024.0" fill="none"/><path stroke="#000000" stroke-width="2" d="M 187.62249216006603 417.4656583679607 L 187.42019379202975 417.87025612796424 L 187.37624985602451 417.7462722559576 L 187.31638169602957 417.56666777597275 L 187.62249216006603 417.4656583679607" fill="none"/><path stroke="#000000" stroke-width="2" d="M 182.1962240000139 398.62271999992663 L 182.80657510401215 399.1313448959263 L 181.99224524805322 398.9295994879212 L 182.1962240000139 398.62271999992663" fill="none"/><path stroke="#000000" stroke-width="2" d="M 115.6117486692965 0.0 L 118.39180800004397 2.442239999945741 L 119.92780800006585 2.5446399999200366 L 120.13281280006049 2.7500001279404387 L 120.43749990401557 2.9531248639686964 L 120.40625049604569 3.003906047961209 L 120.03020800004015 3.56863999995403 L 120.03125043201726 3.5703121919650584 L 124.22656204801751 7.765624831954483 L 131.50003200001083 12.375039999955334 L 134.4696320000221 14.013439999951515 L 141.2265625600121 18.621093887952156 L 142.66163200006122 19.85023999994155 L 146.24218726402614 22.511718399939127 L 148.29363200004445 23.024639999959618 L 148.78574899205705 23.65736140793888 L 149.00781260803342 23.945312255935278 L 148.19123200001195 24.458239999949 L 155.25781299202936 34.5976565759629 L 158.53125017601997 38.89843711996218 L 158.72886476805434 40.06189055996947 L 158.84185600001365 40.73983999993652 L 158.84185600001365 43.29983999993419 L 158.32812544004992 44.93749964796007 L 158.53125017601997 46.47265587194124 L 160.17187532805838 49.64843724796083 L 160.2734376960434 51.90234419197077 L 161.0937497600098 57.22656255995389 L 160.37500006402843 60.398437375959475 L 159.14843750401633 64.39453081594547 L 158.02265600004466 71.45881599996937 L 157.92128000000957 74.32601599994814 L 159.96928000001935 80.47001599991927 L 164.37248000002 87.228415999969 L 164.5772800000268 88.96921599993948 L 163.75808000005782 89.68601599993417 L 163.03913062403444 96.03454771195538 L 162.22208000003593 95.9324159999378 L 161.0937497600098 95.82812467194162 L 160.2734376960434 96.13671833596891 L 159.24999987205956 96.75000012794044 L 158.1249996800325 98.18359398393659 L 158.0407019520644 98.31328358396422 L 157.92128000000957 98.49241599993547 L 157.10156288003782 101.56250009592623 L 155.9756800000323 103.71481599996332 L 155.57812531205127 109.23828121594852 L 155.55468800006201 109.4531246079714 L 155.83593779202783 112.72656281595118 L 155.8666096640518 113.033286655962 L 155.873280000058 113.44281599996611 L 160.88186163204955 114.05509017594159 L 161.1874897920643 117.7459732479183 L 157.91519334405893 119.38590515195392 L 159.45830400002887 122.24819199997 L 159.8490296320524 123.57727334392257 L 159.85156300803646 123.58593740797369 L 160.25000038405415 124.94140620797407 L 161.44733593601268 127.8742855679593 L 161.4901934080408 127.98589644796448 L 161.75716147205094 128.64050278393552 L 162.64062464004382 130.8281251839362 L 162.80670105601894 131.21217638393864 L 162.99160678405315 131.647465471935 L 163.0390620160615 131.76953139196848 L 165.4999040000257 137.40339199994924 L 166.12770201603416 138.65898700791877 L 166.4215040000272 139.24659199995222 L 167.70163507206598 142.52500479994342 L 167.74218752002344 142.62890598393278 L 169.07031244802056 146.72656281595118 L 169.55468800006201 147.43750041595194 L 174.10156236804323 154.30078156793024 L 175.02412800001912 155.11859199992614 L 177.7734379520407 154.40625049592927 L 179.51562547206413 157.57812531193485 L 176.560128000041 158.3953919999185 L 176.8671877120505 159.7265623039566 L 176.9248102400452 159.85797836794518 L 177.5841280000168 161.36499199992977 L 177.65970432001632 161.52816844795598 L 177.6718745600665 161.55859353597043 L 177.6742400000221 161.55955199996242 L 183.022592000023 161.51244799996493 L 188.72680345602566 161.48072345595574 L 194.8593745920225 167.99218790396117 L 212.58593792002648 186.8242186239222 L 223.8593751040171 198.42578124796273 L 233.32812492805533 204.25781247991836 L 233.74436249601422 204.5534935039468 L 251.0937497600098 216.94140620797407 L 255.92187494406244 220.38671871996485 L 258.84375040006125 222.72265625593718 L 258.5134899200639 223.0494402559707 L 255.92187494406244 225.5937495039543 L 245.81250048003858 235.187500031956 L 244.98473574401578 236.6034135039663 L 244.3243520000251 237.7282426879392 L 242.68595200002892 240.3169146879227 L 240.8673280000221 243.31518668791978 L 238.67187507206108 246.9179688959266 L 236.7877079040627 250.16404889593832 L 236.7187496960396 255.33984358393354 L 236.73437491204822 255.98046924796654 L 236.83593728003325 261.0898442239268 L 237.01562470401404 265.5664066559402 L 239.71875020803418 272.5429688319564 L 238.99999948806362 280.44140646397136 L 236.71742361603538 289.722515455971 L 234.96875008003553 296.8242186239222 L 233.26562508800998 302.34765619196696 L 230.6611200000625 306.9342586879502 L 221.2321280000615 322.8461946879397 L 211.23822899203515 339.7012357119238 L 205.92025600001216 339.70225868793204 L 199.77625600004103 339.59985868795775 L 198.82031206402462 339.8554685439449 L 198.47656243201345 339.9492188159493 L 195.09188505605562 351.1699916799553 L 194.8671877120505 351.8320312319556 L 193.92968704004306 354.2148433919647 L 193.7354967040592 354.69904076796956 L 189.7734379520407 364.52343705593375 L 188.03125043201726 371.9999999999418 L 188.03125043201726 372.40625049592927 L 187.9453122560517 372.9179688959266 L 187.92968704004306 373.02343782392563 L 188.1328128000605 373.2265625599539 L 187.85155072005 374.3625666559674 L 187.5246080000652 375.6704337919364 L 187.52343756804476 375.6835942399339 L 187.52102400001604 376.2992568319314 L 187.52102400001604 377.22076979192207 L 187.6233994240174 378.040120319929 L 187.52102400001604 379.3709946879535 L 187.46874982403824 379.4726563839358 L 186.90662400005385 380.5997946879361 L 186.60156211204594 381.5117189119337 L 186.59942400001455 382.54539468797157 L 186.46039449603995 382.8697968639317 L 186.28906291205203 383.2617185279378 L 186.18749952001963 383.4687498239218 L 185.1641313280561 392.99155046395026 L 184.65383526403457 393.40013772796374 L 184.9609379840549 402.8203120639664 L 184.34662400005618 402.00139468791895 L 183.83593779202783 401.89843763195677 L 183.6328120320104 401.89843763195677 L 183.33623091201298 400.81966489594197 L 183.6328120320104 400.0546877439483 L 182.91406233602902 398.62109388795216 L 182.50353152002208 397.2913448959589 L 183.32256563205738 395.9600209919736 L 182.5034240000532 393.60459468793124 L 181.58205337601248 393.1954903039732 L 181.58342553605326 393.19767039996805 L 181.57812531205127 393.19531212793663 L 182.4140625920263 394.52343705593375 L 182.61063884804025 394.8294707199675 L 182.75526656006696 395.05922252795426 L 182.3671879680478 397.1367188479635 L 181.27343718404882 398.3164057599497 L 182.0937502720626 399.33984358393354 L 183.11718707205728 401.38671923195943 L 183.42187520005973 402.1054689279408 L 184.5610752000357 402.7534919679747 L 185.57542400003877 403.3331199999666 L 185.78022400004556 403.4355199999409 L 187.82822400005534 407.73631999996724 L 188.64764416002436 407.83974092797143 L 190.07812505605398 414.49609420791967 L 189.3643018240109 415.62086604791693 L 192.84175257605966 421.87954585591797 L 192.94531276804628 422.07031295995694 L 188.95462400006363 422.27659468795173 L 187.82822400005534 420.33099468797445 L 187.1113625600119 420.43331276794197 L 186.88074956805212 420.1258280959446 L 186.49999974406091 419.61328127991874 L 186.80468787206337 419.30859417596366 L 187.93062400002964 417.5663697919226 L 187.93062400002964 415.5185448959237 L 187.00781260803342 416.84765593596967 L 186.0859371520346 419.0000005119364 L 185.67791718401713 419.7168261119514 L 186.4373145600548 420.53486284794053 L 187.00781260803342 421.1523440639721 L 186.59942400001455 422.1741946879192 L 186.49705369601725 423.0959237119532 L 186.50021888001356 423.0956707839505 L 186.49999974406091 423.0976563199656 L 189.05702400003793 422.89151999994647 L 193.66406246402767 422.5859379199683 L 193.68886272003874 423.2898232319276 L 193.75511552003445 425.3496924159699 L 193.7656248320127 425.75781273597386 L 193.66406246402767 429.9570309119299 L 191.20850636804244 430.87856639997335 L 192.64062464004382 436.8164065279416 L 192.74218700802885 438.6484377599554 L 193.56250009604264 440.0937502719462 L 193.7656248320127 445.52343756792834 L 193.2564480000292 446.13579468795797 L 192.84375040006125 446.5468753919704 L 192.84375040006125 450.74218700797064 L 192.3348480000277 452.6897448959644 L 192.33484697603853 461.3936568319332 L 192.23245004803175 481.4639738879632 L 193.56250009604264 489.1445309439441 L 194.8958720000228 496.82431999995606 L 200.6300887040561 510.64761446393095 L 201.78809036803432 515.5873976319563 L 202.16406220803037 517.2031252479646 L 202.68368179205572 517.9775088639581 L 203.80468736001058 519.6601559039555 L 203.9062497280538 519.7656248319545 L 204.20944896002766 520.0688240639283 L 202.0638720000279 520.1709946879419 L 201.55443200003356 520.1709946879419 L 201.4921871360275 519.9570309119299 L 201.0390620160615 518.4296878079185 L 200.52787200006424 518.4301946879714 L 200.3392962560174 519.4673623039271 L 200.3203123200219 519.5546879999456 L 199.99220121605322 519.8323199999286 L 199.70867200003704 520.0685946879676 L 199.51562547206413 520.1640622079722 L 198.65624985605245 520.2812497919658 L 194.8671877120505 520.3828121599508 L 188.00781209603883 520.1796874239226 L 182.89062502403976 520.1796874239226 L 177.25781299202936 520.0781250559376 L 173.46874982403824 520.0781250559376 L 169.88281241606455 519.9765626879525 L 164.66406297602225 519.9765626879525 L 159.23437465605093 519.8710937599535 L 151.3515622400446 519.7695313919685 L 144.69531238405034 519.6679690239253 L 140.70312550402014 519.6679690239253 L 131.38281267206185 519.5664066559402 L 126.29687500803266 519.4726563839358 L 120.32031232002191 519.3593753599562 L 116.64062464004382 519.3593753599562 L 104.8593745920225 519.1562495999387 L 100.76562534406548 519.1562495999387 L 90.52343705605017 519.0546872319537 L 83.86718720005592 519.0546872319537 L 70.25000038405415 518.7460935679264 L 50.796874752035365 518.4374999039574 L 45.773437952040695 518.3359375359723 L 29.39062476804247 518.1328127999441 L 19.257812992029358 517.824219135975 L 9.73437542404281 517.6210933759576 L 0.0 517.5354264885609" fill="none"/><path stroke="#408040" stroke-width="3" d="M 0.0 975.8027012195525 L 2.9900800000032177 976.2406400000036 L 63.600640000004205 1006.0697599999985 L 110.17462439833616 1024.0" fill="none"/></svg>