<svg xmlns="http://www.w3.org/2000/svg" width="1024" height="1024"><rect stroke="none" x="0" y="0" width="1024" height="1024" fill="white"/><path stroke="#000000" stroke-width="2" d="M 976.1829823800072 0.0 L 976.1796874240972 0.6015621119295247 L 976.4921876480221 9.61328127986053 L 976.8984371200786 24.972656639816705 L 977.1015628800378 40.02734387188684 L 977.3124997120467 50.367187967931386 L 977.5156254721223 55.999999999883585 L 977.7187502080924 68.90234367991798 L 978.0234373121057 77.91406284790719 L 978.1249996800325 84.67187507188646 L 978.2343751681037 89.89453107200097 L 978.3359375360305 95.32031283190008 L 978.539062272117 104.02734387182863 L 978.9453127681045 120.82031206385 L 979.0468751360313 127.98828134394716 L 979.0468751360313 133.003906047903 L 979.2578129920294 143.75781273585744 L 980.0703129600151 221.7851566079189 L 980.0703129600151 225.47265638399404 L 980.281249792024 244.72265625582077 L 980.3828121600673 251.78906214400195 L 980.3828121600673 300.83984383993084 L 980.4843745281105 312.82031206385 L 980.4843745281105 342.3125002239831 L 980.5859379200265 346.20312473591184 L 980.5859379200265 373.6445317118778 L 980.6875002880697 383.98828134388896 L 980.6875002880697 401.7031249918509 L 980.789062656113 412.35156275192276 L 980.789062656113 416.5507809278206 L 980.8906250240398 421.6718745598919 L 980.992187392083 429.8632816639729 L 980.992187392083 442.76562534389086 L 981.1015628800378 452.6992189438897 L 981.203125248081 457.2031252478482 L 981.3046876160079 461.0937497599516 L 981.3046876160079 471.9492188159493 L 981.4062499840511 475.94140672002686 L 981.6093747200212 485.8750003200257 L 981.6093747200212 490.277344255941 L 981.7109370880644 503.9999999998254 L 981.9140628480818 508.5078128640307 L 981.8125004800386 511.98828134394716 L 981.8125004800386 514.5468753920286 L 981.6093747200212 521.1015628799214 L 981.5078123520943 525.3007810558192 L 981.6093747200212 530.5234370559338 L 981.7109370880644 533.6953128958121 L 982.0234373121057 544.0390625278233 L 982.2265620480757 550.8984371198458 L 982.2265620480757 553.5625000958098 L 982.3281254400499 559.5000002559973 L 982.3281254400499 563.8007807999384 L 982.4296878080931 576.1914060799754 L 982.4296878080931 580.3906252798042 L 982.53125017602 603.9414067199104 L 982.6328125440632 621.0429685759009 L 982.8359372800332 635.5859374079155 L 982.9374996480765 640.4999997438863 L 982.7343749121064 652.8906250239233 L 982.6328125440632 669.7851566078607 L 982.7343749121064 673.9843747839914 L 982.8359372800332 679.5156254719477 L 982.7343749121064 686.9882808318944 L 982.7343749121064 693.9531253759051 L 982.8359372800332 708.0820316158934 L 982.8359372800332 721.5000002558809 L 982.9374996480765 738.1874995199614 L 983.0468751360313 753.035156479862 L 983.1484375040745 768.2929684480187 L 983.0468751360313 793.9960934399278 L 983.0468751360313 805.9765626879525 L 983.0468751360313 883.6992184319533 L 983.2499998721178 896.4999997438281 L 983.4531246080878 901.0039060479612 L 983.4531246080878 914.625000447908 L 983.1484375040745 931.2148439038428 L 983.0468751360313 934.6953123838175 L 983.0468751360313 942.273437695927 L 982.9374996480765 967.359375359898 L 982.9374996480765 1005.1445309439441 L 982.9453127680463 1013.6445317118196 L 983.1303586970025 1024.0" fill="none"/><path stroke="#000000" stroke-width="2" d="M 126.90219206009351 1024.0 L 126.67187507206108 1023.9882813438307 L 20.078125056112185 1023.9882813438307 L 3.1796879360917956 1023.6796876798617 L 0.0 1023.6796876798617" fill="none"/><path stroke="#000000" stroke-width="2" d="M 1024.0 56.10156236792682 L 1022.2656245760154 56.10156236792682 L 1000.0390625280561 55.99999999994179 L 977.5156254720641 55.99999999994179 L 977.3124997120467 50.367187967931386 L 977.1015628800378 40.02734387194505 L 976.8984371200204 24.97265663993312 L 976.4921876480221 9.613281279918738 L 976.179687424039 0.6015621119295247 L 976.1829823799635 0.0" fill="none"/><path stroke="#000000" stroke-width="2" d="M 983.1303586970025 1024.0 L 982.9453127680463 1013.6445317118196 L 982.9374996480765 1005.1445309439441 L 982.9374996480765 967.359375359898 L 983.0468751360313 942.273437695927 L 983.0468751360313 934.6953123838175 L 983.1484375040745 931.2148439038428 L 983.4531246080878 914.625000447908 L 983.4531246080878 901.0039060479612 L 983.2499998721178 896.4999997438281 L 983.0468751360313 883.6992184319533 L 983.0468751360313 805.9765626879525 L 983.0468751360313 793.9960934399278 L 983.1484375040745 768.2929684480187 L 983.0468751360313 753.035156479862 L 982.9374996480765 738.1874995199614 L 982.8359372800332 721.5000002558809 L 982.8359372800332 708.0820316158934 L 982.7343749121064 693.9531253759051 L 982.7343749121064 686.9882808318944 L 982.8359372800332 679.5156254719477 L 982.7343749121064 673.9843747839914 L 982.6328125440632 669.7851566078607 L 982.7343749121064 652.8906250239233 L 982.9374996480765 640.4999997438863 L 982.8359372800332 635.5859374079155 L 982.6328125440632 621.0429685759009 L 982.53125017602 603.9414067199104 L 982.4296878080931 580.3906252798042 L 982.4296878080931 576.1914060799754 L 982.3281254400499 563.8007807999384 L 982.3281254400499 559.5000002559973 L 982.2265620480757 553.5625000958098 L 982.2265620480757 550.8984371198458 L 982.0234373121057 544.0390625278233 L 981.7109370880644 533.6953128958121 L 981.6093747200212 530.5234370559338 L 981.5078123520943 525.3007810558192 L 981.6093747200212 521.1015628799214 L 981.8125004800386 514.5468753920286 L 981.8125004800386 511.98828134394716 L 981.9140628480818 508.5078128640307 L 981.7109370880644 503.9999999998254 L 981.6093747200212 490.277344255941 L 981.6093747200212 485.8750003200257 L 981.4062499840511 475.94140672002686 L 981.3046876160079 471.9492188159493 L 981.3046876160079 461.0937497599516 L 981.203125248081 457.2031252478482 L 981.1015628800378 452.6992189438897 L 980.992187392083 442.76562534389086 L 980.992187392083 429.8632816639729 L 980.8906250240398 421.6718745598919 L 980.789062656113 416.5507809278206 L 980.789062656113 412.35156275192276 L 980.6875002880697 401.7031249918509 L 980.6875002880697 383.98828134388896 L 980.5859379200265 373.6445317118778 L 980.5859379200265 346.20312473591184 L 980.4843745281105 342.3125002239831 L 980.4843745281105 312.82031206385 L 980.3828121600673 300.83984383993084 L 980.3828121600673 251.78906214400195 L 980.281249792024 244.72265625582077 L 980.0703129600151 225.47265638399404 L 980.0703129600151 221.7851566079189 L 979.2578129920294 143.75781273585744 L 979.0468751360313 133.003906047903 L 979.0468751360313 127.98828134394716 L 978.9453127681045 120.82031206385 L 978.539062272117 104.02734387182863 L 978.3359375360305 95.32031283190008 L 978.2343751681037 89.89453107200097 L 978.1249996800325 84.67187507188646 L 978.0234373121057 77.91406284790719 L 977.7187502080924 68.90234367991798 L 977.5156254721223 55.999999999883585 L 1000.0390625280561 55.999999999883585 L 1022.2656245760154 56.10156236792682 L 1024.0 56.10156236792682" fill="none"/><path stroke="#000000" stroke-width="2" d="M 0.0 1023.6796876799199 L 3.179687936033588 1023.6796876799199 L 20.078125056053977 1023.9882813439472 L 126.67187507206108 1023.9882813439472 L 126.90219205793983 1024.0" fill="none"/><path stroke="#408040" stroke-width="3" d="M 0.0 764.9162183312365 L 46.44864000000234 785.5718399999969 L 130.67264000000432 802.7852799999964 L 233.21600000000035 849.7151999999987 L 479.3139200000005 934.369279999999 L 595.1795200000051 993.9763200000016 L 636.7084359830915 1024.0" fill="none"/></svg>