<svg xmlns="http://www.w3.org/2000/svg" width="1024" height="1024"><rect stroke="none" x="0" y="0" width="1024" height="1024" fill="white"/><path stroke="#000000" stroke-width="2" d="M 1024.0 1022.347656191967 L 1022.1640622080304 1022.347656191967 L 1017.1406254080357 1022.1445314559387 L 1010.8984371200204 1022.0429690879537 L 1003.1171870720573 1022.0429690879537 L 992.1562501120497 1021.9414067199687 L 969.7343754240428 1021.9414067199687 L 932.3515627520392 1021.6328120319522 L 907.3671874560532 1021.6328120319522 L 904.914062336029 1021.7343754239264 L 902.4531251200242 1021.7343754239264 L 895.4921871360275 1021.6328120319522 L 892.109375488013 1021.7343754239264 L 876.6484377600136 1021.7343754239264 L 845.4218752000597 1021.8359377919696 L 817.4609377280576 1021.8359377919696 L 811.4218752000597 1021.9414067199687 L 767.898437632015 1021.9414067199687 L 763.0859376640292 1022.0429690879537 L 747.3203128320165 1022.0429690879537 L 736.3593748480198 1022.1445314559387 L 703.2890624000574 1022.1445314559387 L 690.8984371200204 1022.2460938239237 L 673.1796879360336 1022.453125119966 L 656.281249792024 1022.453125119966 L 644.2031247360283 1022.554687487951 L 639.5937495040125 1022.656249855936 L 625.3593753600144 1022.656249855936 L 618.3984373760177 1022.7578122239211 L 597.3046876160079 1022.7578122239211 L 590.4453120000544 1022.8593745919643 L 560.2343751680455 1022.8593745919643 L 552.4531251200242 1022.9648435199633 L 547.3281249280553 1022.9648435199633 L 537.2968744960381 1023.0664058879483 L 505.34375014406396 1023.0664058879483 L 495.61718784004916 1023.1679682559334 L 490.0937502720626 1023.1679682559334 L 483.74218752002344 1023.2695316479658 L 476.1640622080304 1023.2695316479658 L 470.9374996480183 1023.3749995519756 L 460.4999997440609 1023.3749995519756 L 458.1406248960411 1023.2695316479658 L 447.1875000320142 1023.4765629439498 L 432.2343751680455 1023.5781253119349 L 418.51562496001134 1023.5781253119349 L 411.1406254080357 1023.6796876799199 L 394.24218726402614 1023.6796876799199 L 387.1796879360336 1023.8867189759621 L 383.5937495040125 1023.9882813439472 L 378.6796871680417 1023.9882813439472 L 375.5078123520361 1023.8867189759621 L 373.76502528019773 1024.0" fill="none"/><path stroke="#000000" stroke-width="2" d="M 932.3515627520392 1021.6328120319522 L 969.7343754240428 1021.9414067199687 L 992.1562501120497 1021.9414067199687 L 1003.1171870720573 1022.0429690879537 L 1010.8984371200204 1022.0429690879537 L 1017.1406254080357 1022.1445314559387 L 1022.1640622080304 1022.347656191967 L 1024.0 1022.347656191967" fill="none"/><path stroke="#000000" stroke-width="2" d="M 373.76502528019773 1024.0 L 375.5078123520361 1023.8867189759621 L 378.6796871680417 1023.9882813439472 L 383.5937495040125 1023.9882813439472 L 387.1796879360336 1023.8867189759621 L 394.24218726402614 1023.6796876799199 L 411.1406254080357 1023.6796876799199 L 418.51562496001134 1023.5781253119349 L 432.2343751680455 1023.5781253119349 L 447.1875000320142 1023.4765629439498 L 458.1406248960411 1023.2695316479658 L 460.4999997440609 1023.3749995519756 L 470.9374996480183 1023.3749995519756 L 476.1640622080304 1023.2695316479658 L 483.74218752002344 1023.2695316479658 L 490.0937502720626 1023.1679682559334 L 495.61718784004916 1023.1679682559334 L 505.34375014406396 1023.0664058879483 L 537.2968744960381 1023.0664058879483 L 547.3281249280553 1022.9648435199633 L 552.4531251200242 1022.9648435199633 L 560.2343751680455 1022.8593745919643 L 590.4453120000544 1022.8593745919643 L 597.3046876160079 1022.7578122239211 L 618.3984373760177 1022.7578122239211 L 625.3593753600144 1022.656249855936 L 639.5937495040125 1022.656249855936 L 644.2031247360283 1022.554687487951 L 656.281249792024 1022.453125119966 L 673.1796879360336 1022.453125119966 L 690.8984371200204 1022.2460938239237 L 703.2890624000574 1022.1445314559387 L 736.3593748480198 1022.1445314559387 L 747.3203128320165 1022.0429690879537 L 763.0859376640292 1022.0429690879537 L 767.898437632015 1021.9414067199687 L 811.4218752000597 1021.9414067199687 L 817.4609377280576 1021.8359377919696 L 845.4218752000597 1021.8359377919696 L 876.6484377600136 1021.7343754239264 L 892.109375488013 1021.7343754239264 L 895.4921871360275 1021.6328120319522 L 902.4531251200242 1021.7343754239264 L 904.914062336029 1021.7343754239264 L 907.3671874560532 1021.6328120319522 L 932.3515627520392 1021.6328120319522" fill="none"/></svg>