<svg xmlns="http://www.w3.org/2000/svg" width="1024" height="1024"><rect stroke="none" x="0" y="0" width="1024" height="1024" fill="white"/><path stroke="#000000" stroke-width="2" d="M 1024.0 1005.9714028538219 L 1016.53125017602 1006.0664063999429 L 1010.6875002880115 1006.273437695927 L 1006.0859371520346 1006.273437695927 L 996.1484369920217 1006.0664063999429 L 986.7265628160094 1005.9648440319579 L 982.2265620480175 1005.8632816639729 L 970.9609379840549 1005.8632816639729 L 950.3750000640284 1005.7617182719405 L 940.8515624960419 1005.6562503679306 L 936.1406248960411 1005.8632816639729 L 920.6796871680417 1005.8632816639729 L 911.4687498240382 1005.7617182719405 L 906.2421872640261 1005.6562503679306 L 901.6328120320104 1005.6562503679306 L 894.5703127040179 1005.7617182719405 L 886.6875002880115 1005.8632816639729 L 881.1562496000552 1005.7617182719405 L 875.3203128320165 1005.8632816639729 L 866.3046871040133 1005.7617182719405 L 840.0937502720626 1005.7617182719405 L 836.921875456057 1005.6562503679306 L 834.460937216063 1005.7617182719405 L 832.2109378560563 1005.7617182719405 L 827.7031249920256 1005.6562503679306 L 822.2734376960434 1005.6562503679306 L 817.7734379520407 1005.5546879999456 L 813.8750003200257 1005.4531246079714 L 810.1953126400476 1005.3515622399282 L 806.3046871040133 1005.2499998719431 L 803.7421875200234 1005.1445309439441 L 799.4375004160102 1005.2499998719431 L 795.445312512049 1005.2499998719431 L 787.6640624640277 1005.4531246079714 L 779.0625003520399 1005.5546879999456 L 772.4062504960457 1005.6562503679306 L 767.79687526403 1005.6562503679306 L 761.656250368047 1005.5546879999456 L 745.8828124160646 1005.5546879999456 L 730.8359372800332 1005.4531246079714 L 720.179687424039 1005.453123583924 L 707.6874997760169 1005.3515622399282 L 691.1015628800378 1005.3515622399282 L 681.7812500480213 1005.2499998719431 L 606.2109378560563 1005.2499998719431 L 596.4843745280523 1005.1445309439441 L 591.1562496000552 1005.1445309439441 L 588.289062912052 1005.0429685759591 L 562.179687424039 1005.0429685759591 L 556.9609379840549 1004.9414062079741 L 536.6796871680417 1004.9414062079741 L 533.1015628800378 1005.0429685759591 L 527.0546872320119 1005.0429685759591 L 525.9515176960267 1004.9785620479379 L 521.8359377920278 1004.7382814719458 L 519.9921879040194 1005.1445309439441 L 515.898437632015 1005.0429685759591 L 511.79687526402995 1005.0429685759591 L 499.8203125760192 1004.9414062079741 L 490.4999997440609 1005.9648440319579 L 486.3046871040133 1004.9414062079741 L 479.23437465605093 1004.9414062079741 L 465.51562547206413 1004.8398438399308 L 447.0781245440594 1004.7382814719458 L 441.9609374720603 1004.7382814719458 L 438.3750000640284 1004.6328125439468 L 433.97656268801074 1004.6328125439468 L 409.70312499202555 1004.5312501759618 L 398.4453120000544 1004.4296878079185 L 390.5546874880092 1004.4296878079185 L 383.39062476804247 1004.3281254399335 L 369.15624960005516 1004.3281254399335 L 349.4921871360275 1004.2226565119345 L 316.8281251840526 1004.2226565119345 L 301.9843747840496 1004.1210941439494 L 283.34375014406396 1004.1210941439494 L 272.39062528003706 1004.0195307519753 L 260.3046871040133 1004.0195307519753 L 255.79687526402995 1004.2226565119345 L 243.92187494406244 1004.2226565119345 L 240.74218700802885 1004.2265620479593 L 232.25000038405415 1004.2226565119345 L 205.3124997120467 1004.2226565119345 L 199.27343718404882 1004.1210941439494 L 189.1328122880659 1005.3515622399282 L 183.39843788801227 1004.1210941439494 L 138.4453120000544 1004.1210941439494 L 135.07031244802056 1004.0195307519753 L 10.546875392028596 1004.0195307519753 L 5.226562560012098 1004.1210941439494 L 1.1328122880659066 1004.1210941439494 L 0.0 1004.1522944437311" fill="none"/><path stroke="#000000" stroke-width="2" d="M 272.39062528009526 1004.0195307519753 L 283.34375014406396 1004.1210941439494 L 301.9843747840496 1004.1210941439494 L 316.8281251840526 1004.2226565118181 L 349.4921871360275 1004.2226565118181 L 369.15624960005516 1004.3281254398753 L 383.39062476804247 1004.3281254398753 L 390.55468748806743 1004.4296878079185 L 398.4453120001126 1004.4296878079185 L 409.70312499208376 1004.5312501759618 L 433.97656268801074 1004.6328125438304 L 438.37500006408663 1004.6328125438304 L 441.96093747217674 1004.7382814718876 L 447.0781245441176 1004.7382814718876 L 465.51562547206413 1004.8398438399308 L 479.23437465610914 1004.9414062079741 L 486.3046871040133 1004.9414062079741 L 490.4999997440609 1005.9648440319579 L 499.8203125760192 1004.9414062079741 L 511.79687526402995 1005.0429685758427 L 515.898437632015 1005.0429685758427 L 519.9921879040194 1005.1445309438859 L 521.8359377920278 1004.7382814718876 L 525.9515176961431 1004.9785620478797 L 527.0546872320119 1005.0429685758427 L 533.1015628800378 1005.0429685758427 L 536.6796871680417 1004.9414062079741 L 556.9609379841131 1004.9414062079741 L 562.1796874240972 1005.0429685758427 L 588.289062912052 1005.0429685758427 L 591.1562496001716 1005.1445309438859 L 596.4843745281105 1005.1445309438859 L 606.2109378560563 1005.2499998719431 L 681.7812500480213 1005.2499998719431 L 691.1015628800378 1005.3515622398118 L 707.6874997760169 1005.3515622398118 L 720.1796874241554 1005.453123583924 L 730.8359372800332 1005.453124607855 L 745.8828124160646 1005.5546879999456 L 761.656250368047 1005.5546879999456 L 767.7968752640882 1005.6562503678142 L 772.4062504960457 1005.6562503678142 L 779.0625003521563 1005.5546879999456 L 787.6640624640859 1005.453124607855 L 795.4453125121654 1005.2499998719431 L 799.4375004160684 1005.2499998719431 L 803.7421875200816 1005.1445309438859 L 806.3046871040133 1005.2499998719431 L 810.1953126400476 1005.3515622398118 L 813.8750003200257 1005.453124607855 L 817.7734379520407 1005.5546879999456 L 822.2734376960434 1005.6562503678142 L 827.7031249920256 1005.6562503678142 L 832.2109378561145 1005.7617182718241 L 834.460937216063 1005.7617182718241 L 836.921875456057 1005.6562503678142 L 840.0937502721208 1005.7617182718241 L 866.3046871041297 1005.7617182718241 L 875.3203128320165 1005.8632816639147 L 881.1562496000552 1005.7617182718241 L 886.6875002880697 1005.8632816639147 L 894.5703127040761 1005.7617182718241 L 901.6328120320104 1005.6562503678142 L 906.2421872640261 1005.6562503678142 L 911.4687498240964 1005.7617182718241 L 920.6796871680417 1005.8632816639147 L 936.1406248960993 1005.8632816639147 L 940.8515624961583 1005.6562503678142 L 950.3750000641448 1005.7617182718241 L 970.9609379840549 1005.8632816639147 L 982.2265620480175 1005.8632816639147 L 986.7265628160094 1005.9648440319579 L 996.1484369921382 1006.0664063998265 L 1006.0859371520928 1006.273437695927 L 1010.6875002880115 1006.273437695927 L 1016.5312501760782 1006.0664063998265 L 1024.0 1005.9714028538147" fill="none"/><path stroke="#000000" stroke-width="2" d="M 0.0 1004.1522944436947 L 1.132812288182322 1004.1210941439494 L 5.226562560012098 1004.1210941439494 L 10.546875392028596 1004.0195307519753 L 135.07031244802056 1004.0195307519753 L 138.4453120000544 1004.1210941439494 L 183.39843788801227 1004.1210941439494 L 189.13281228812411 1005.3515622398118 L 199.27343718404882 1004.1210941439494 L 205.3124997120467 1004.2226565118181 L 232.25000038405415 1004.2226565118181 L 240.74218700802885 1004.2265620479593 L 243.92187494406244 1004.2226565118181 L 255.79687526402995 1004.2226565118181 L 260.3046871040133 1004.0195307519753 L 272.39062528009526 1004.0195307519753" fill="none"/></svg>