<svg xmlns="http://www.w3.org/2000/svg" width="1024" height="1024"><rect stroke="none" x="0" y="0" width="1024" height="1024" fill="white"/><path stroke="#000000" stroke-width="2" d="M 1024.0 750.9763741861519 L 1023.8781249536084 750.9785155583871 L 1023.2838963200105 750.958149631985 L 1020.6829363200115 750.958149631985 L 1003.2544563200092 750.8557496319875 L 998.2778163200128 750.8147896319861 L 996.229816320003 750.8147896319861 L 995.2265625600121 750.7941406719852 L 993.1374999552033 750.8351561727934 L 991.1917363200104 750.8557496319875 L 983.2453124096035 750.8761718783877 L 979.9281250304077 750.8761718783877 L 975.0156652544043 750.9178572799894 L 972.6781249536085 750.9375000575907 L 967.8453125120025 750.9375000575907 L 958.5468749824097 750.9785155583871 L 947.0781249536085 751.0195312639931 L 944.8249999360065 751.0195312639931 L 937.3088563200087 751.0400696319878 L 934.1754163200036 751.0400696319878 L 929.751736320008 750.9785180159845 L 929.3830963200074 751.0400696319878 L 925.3078124544118 751.0195312639931 L 921.4778163200128 750.9991096319864 L 890.0205363200046 750.9991096319864 L 887.6046874624095 750.9785155583871 L 884.2250000384054 750.9785155583871 L 874.231249920011 750.8964843519847 L 870.2781249536085 750.8761718783877 L 860.8781250560074 750.8761718783877 L 850.453124915203 750.9171886079945 L 849.8592563200043 750.9171888127923 L 846.1515624448075 750.9375000575907 L 844.6778163200128 750.9376696319902 L 841.7491763200029 750.958149631985 L 837.2026163200032 750.9991096319864 L 836.0352563200053 750.9991096319864 L 832.0006963200052 751.0400696319878 L 831.1203125248081 751.0398437375901 L 830.4646963200066 751.0400696319878 L 826.3890624512103 751.0808594431844 L 825.4468749312102 751.0808594431844 L 823.9520563200116 751.101509631984 L 821.2486963200033 751.1424696319853 L 819.0781249536085 751.1628906495869 L 803.8814773248043 751.1628906495869 L 802.0794163200073 750.5690296319896 L 799.1093749760068 749.6062500863918 L 797.9219763200032 749.1968696319848 L 793.4781249536085 747.722265599994 L 792.6796875776024 747.5175780351856 L 790.3443763200078 746.7392696319846 L 786.7194163200096 745.612869631988 L 776.6640625664033 742.3769530367921 L 774.8614963200059 741.7831096319948 L 773.5921874944121 741.3734375423868 L 767.8578124800115 739.5300782079925 L 764.3765624832013 738.4039061503951 L 760.792187494412 737.2570312703843 L 755.1802163200103 735.4547896319884 L 752.415416115208 734.5741508607869 L 748.9546874880092 733.488671948784 L 747.070312448009 732.8742187007913 L 745.9642163200072 732.4851896319888 L 744.1824507904123 731.9526189055875 L 742.2578124800115 731.338281164784 L 740.6812499968103 730.8261718015885 L 734.5158963200054 728.8602296319907 L 728.5359374336083 726.9351563263917 L 726.8154163200059 726.4026296319905 L 725.4234374144114 725.9519531007857 L 720.0781250560074 724.2523437055876 L 719.4630963200121 724.047429631988 L 718.3374999552034 723.699218841584 L 717.2921874432126 723.3714843647904 L 716.4115763200098 723.0848696319852 L 714.8346163200098 722.5523896319908 L 713.5656249344116 722.1632813055883 L 707.6671875072061 720.258593791991 L 704.4717363200034 719.2346296319854 L 703.7140625408035 719.0296875007916 L 700.519096320006 718.0058296319912 L 696.6687500288128 716.7769530367921 L 695.9725363200065 716.5722296319902 L 692.5390612480114 715.4812188671901 L 691.5898163200123 715.1795896319906 L 690.8734375936095 714.9542969343951 L 688.7437500416069 714.2988281855942 L 684.0937500672065 712.8242188287899 L 683.1110963200102 712.5171896319953 L 667.873976320005 707.6429496319848 L 665.4578124800115 706.9054687231895 L 661.4640625664033 705.6562499583931 L 656.5078124544118 704.0792969215894 L 653.3536563200062 703.0963896319852 L 643.4003763200017 699.9424696319853 L 639.8578124800115 698.8570312703844 L 620.1968750592089 692.5902344191912 L 618.6195763200055 692.078149631992 L 615.916216320009 691.2589496319881 L 614.2375000064028 690.7265624063905 L 610.7552563200122 689.6410296319867 L 608.7281250304077 689.0062499839929 L 607.7250000896049 688.6988281855942 L 606.5773363200017 688.3303096319898 L 603.484375040012 687.3675782143837 L 598.93906247681 685.9339843583875 L 595.6203124736087 684.8894531583879 L 591.1763763200026 683.4970296319923 L 588.6578124800114 682.6984374271939 L 585.1757363200071 681.5923896319931 L 581.9808563200058 680.5888696319889 L 579.2984375296044 679.7695311871939 L 573.4406963200075 677.9264696319937 L 564.0000000000116 674.9773436927935 L 563.0573363200062 674.7111096319859 L 550.9126963200048 670.9427896319888 L 549.6437499904074 670.5535156223923 L 539.6486963200034 667.4202296319884 L 537.4578124800115 666.8261718015885 L 534.9178163200035 665.9866296319873 L 534.3034163200064 665.802309631987 L 533.7093750784057 665.5769530367921 L 532.6035763200023 665.2493496319861 L 531.1093749760068 664.7785156607861 L 529.2453124096035 664.2046875647851 L 525.7018163200119 663.1194296319852 L 522.814062592003 662.2386718719848 L 511.8573363200063 658.8595896319952 L 511.2640624640044 658.6753906687838 L 504.89375006720655 656.7089844223926 L 500.6957363200025 655.4189496319857 L 499.20069632000525 654.9479096319876 L 498.5077055488015 654.7355414527934 L 490.6171875328058 652.314062438393 L 489.92343756800983 652.1011718143942 L 486.3802163200104 651.015749631985 L 484.33281249280554 650.380859391985 L 482.2843750400119 649.76640634879 L 477.67621632000663 648.3533496319899 L 475.54687508480856 647.6980469759903 L 471.40937502720624 646.428124979185 L 467.251896320004 645.1584696319885 L 465.98281256960473 644.7691405311925 L 460.6781249536085 643.1308593151858 L 455.619256320002 641.5539896319854 L 451.50277632001087 640.2842296319898 L 450.5203124224092 639.9769530367921 L 448.9427763200016 639.5059896319872 L 446.95624990720535 638.8914063359844 L 444.1299763200106 638.0519096319913 L 436.8186163200065 635.7991096319863 L 436.12229632000674 635.5943096319912 L 435.0578124800115 635.2664061951916 L 409.41637632000493 627.6480696319952 L 392.60229632001136 622.6099896319909 L 383.79589632001006 619.9680696319905 L 374.51875000320143 617.0187499519903 L 366.83906252800955 614.5613281279918 L 366.2856951808091 614.3975686143851 L 365.09765632001216 613.9674296319951 L 362.88593756160697 613.2710936575895 L 358.25781248001147 611.8578124799882 L 352.93281259520444 610.1578125311877 L 351.7234374656109 609.768750079989 L 347.5046875136089 608.4374999039923 L 344.7000000512111 607.5570313215837 L 341.2390625280095 606.2671755263931 L 332.65733632000627 603.7683896319941 L 315.14693632000126 598.2592696319916 L 308.5937500160071 596.1906249727938 L 307.0578124800115 595.7195313151926 L 284.69374996480764 588.735937535984 L 283.0752563200076 588.2240696319844 L 281.43750000640284 587.7531250687898 L 272.998437478405 585.1312500735861 L 265.33906247681006 582.7351562239928 L 261.85797632000174 581.6499896319932 L 255.83750000640285 579.7859375103842 L 249.50853632000508 577.7383096319857 L 248.85312491520307 577.5539062783937 L 242.13593743360835 575.444531199988 L 235.68437493760138 573.4578124799882 L 233.57500006400514 572.8023437311873 L 230.23750000640285 571.7992187903844 L 227.7375000576023 571.0000001023873 L 224.2156249088119 569.9148437503842 L 223.4989363200031 569.689669631992 L 219.25937500160654 568.3992186879856 L 217.1703126016073 567.7437499391847 L 215.14375004160684 567.1093749759951 L 212.72656240640208 566.3718750207918 L 210.6984374272055 565.7367187455878 L 206.00937492480733 564.2828124159947 L 204.63750000640283 563.8734374911874 L 202.44549632000272 563.1770296319853 L 200.97093632001196 562.7264696319937 L 198.451896320004 561.9482296319911 L 195.95333632000256 561.190469631995 L 194.21250027520583 560.6374991871883 L 191.01765632000752 559.6544696319849 L 185.97957632000325 558.0979896319914 L 184.81221632000523 557.7498296319857 L 182.70312509440117 557.0945312767872 L 181.98597632000457 556.8691896319855 L 180.53189632000868 556.4186296319938 L 179.8765363200102 556.213829631987 L 179.03750000640284 555.9679686655873 L 175.00229632001137 554.7187896319898 L 173.0362163200043 554.1043896319927 L 169.65701632000273 553.0599096319871 L 168.40773632000202 552.6912696319865 L 163.20625008640346 551.0734374911874 L 157.59429632000393 549.3530296319863 L 155.4438963200082 548.677189631993 L 153.43750000640284 548.062500044785 L 148.29687500800938 546.4859375615837 L 147.51813632000705 546.2605496319942 L 146.00261632000328 545.7895096319844 L 142.33669632000382 544.6835896319942 L 137.60581632000395 543.2295096319867 L 133.1206963200122 541.8778296319884 L 128.10312601600307 540.3418386431877 L 119.05156259840587 537.5976562687895 L 117.57656248320127 537.1468750847853 L 102.23750000640284 532.477343743993 L 89.4781249536085 528.6679687167867 L 79.17656248320127 525.4937499647843 L 77.51749632001156 524.9818296319921 L 76.63750000640285 524.715625062387 L 57.734375014412215 519.0218749951921 L 54.17031249920838 517.9570313215838 L 51.037500006402844 516.9945313279866 L 50.27909632000374 516.7693496319931 L 45.46629632001277 515.335749631992 L 44.58593751040753 515.0695313407923 L 44.093750067206564 514.9054687231895 L 42.988216320006174 514.5575096319895 L 38.11411271680845 512.8372377599939 L 38.2984374272055 511.8749999103951 L 37.99109632000327 510.9530296319863 L 37.821970636805055 510.6373285887879 L 37.68437493760139 510.3796875263913 L 38.606249984004535 510.19531243519157 L 39.3843750912114 510.21562490878864 L 40.079687475203535 509.86796871678666 L 40.448696320003364 509.4375096319942 L 40.36718755840557 508.78203125759023 L 39.36383590400219 508.53653155838833 L 38.892187443212606 508.1468749823864 L 38.728376320004465 507.4919096319936 L 38.2781249536085 507.0210936831893 L 38.687416524812576 506.48838963198943 L 39.220312473608644 506.0171874303836 L 39.79375001600711 505.34140620798576 L 40.38750003200257 504.7273437183933 L 40.53124997121049 503.90781255678735 L 39.99843164160848 503.3757249535877 L 39.89573632000247 502.412869631988 L 40.77656248320127 501.9625000959844 L 41.390776320011355 501.7370296319947 L 41.90312509440118 501.53203118079114 L 42.33285632000771 501.1226296319859 L 42.640625049604566 500.52890623998826 L 42.701562470407225 499.9960938495933 L 42.496874905610454 499.48437503998866 L 42.414776320010425 498.992709631985 L 42.5171875840053 498.0710936575895 L 42.02565632000333 498.0301496319938 L 42.02553528320277 498.0305129471933 L 42.024999936006495 498.03046871038384 L 41.902799257601146 498.3987208191887 L 41.43127633921104 498.8085708799888 L 40.75589632000774 499.0746296319878 L 40.08005632000277 499.6480696319952 L 39.56779233281268 499.9348178943852 L 38.99531243520323 499.9960938495933 L 38.52343746561091 499.8320312319905 L 38.19589632001007 499.4842296319897 L 38.12213166080183 499.14701987839067 L 38.05312491520308 498.82890629118776 L 38.134415564802474 498.31712399359094 L 38.46249472000636 497.8046957567916 L 39.137976320006416 497.4771896319929 L 39.91621632000897 497.10854963199233 L 40.5920563200023 496.20742963198575 L 40.59218759681098 496.20703129598405 L 40.1624999936088 495.3265625087894 L 40.31537520640995 494.8870463487925 L 40.469176320009865 494.44614963198546 L 40.87877632001182 493.8522296319949 L 41.02213632001076 493.1149496319937 L 41.00165632000426 492.7258296319866 L 40.735937536007256 492.3570313215838 L 40.6125363200088 491.8451896319864 L 40.059576320007906 491.4765496319858 L 39.5890423808014 491.25151170558524 L 39.322296320006714 490.5754296319908 L 39.137976320006416 489.469509631989 L 39.09701632000506 488.7731896319892 L 39.03593758720672 488.03593748478454 L 39.179687526402994 487.605468774389 L 39.58906245121034 487.0734374911874 L 40.77641809920315 486.5203795967857 L 41.2063494144124 486.4180150271859 L 41.82031257600757 486.70468751358567 L 42.33281249280553 486.97109381118787 L 42.906296320003456 486.99142963199415 L 43.479687577602455 486.6843750399887 L 44.05312491520308 486.5820311551913 L 44.606249984004535 486.39765626878943 L 44.545312563201875 485.78281246719416 L 44.60978073601145 485.5553138687858 L 44.70853632000508 485.20966963198737 L 45.261496320005975 484.63622963199157 L 46.081250099209136 484.2265624575899 L 46.592696320009416 483.8375096319942 L 47.30937507840572 483.42812508158386 L 47.903416320006365 483.0183096319903 L 48.35397632000968 482.5882296319935 L 48.35397632000968 482.253725900792 L 48.35468759040814 481.97421875199075 L 48.17031249920838 481.46171883519276 L 48.84549632000271 480.724549631984 L 49.21125437440351 480.45235752959275 L 49.72656250881264 480.06953123839344 L 50.20859187201131 479.78677657599326 L 50.565816320001616 479.5776696319924 L 51.13925632000901 479.08614963198784 L 51.6109375488013 478.2468749311869 L 51.63125002240995 477.69375006719497 L 51.979687526403 477.1406249983935 L 52.18437509121141 476.50546872318955 L 52.22500003840541 475.91171870719404 L 52.368749977601695 475.3585938431904 L 52.77812490240903 474.764843827195 L 53.167187558405566 474.21171875839354 L 53.43281254400499 473.7617186815944 L 53.76093757441267 473.29062502399324 L 55.2359374848078 471.1812499455875 L 55.32240076800808 470.5381797887851 L 55.39909632001072 469.97254963199373 L 55.6144461824093 469.7366902783863 L 55.82968750080327 469.501562470384 L 56.198437478404955 469.01015633918576 L 56.4750039040111 468.6794967039838 L 56.73029632000252 468.37510963198724 L 57.18124994561076 467.6374999039923 L 57.50853632000508 467.04390963198387 L 57.50763806720497 467.04406753279034 L 57.50781255681068 467.04375009279465 L 57.81562490881188 466.57265623038404 L 58.02031247360865 465.95859374079157 L 58.26562498561107 465.24140625918517 L 58.61406248960411 464.60703129598403 L 59.04375009280629 464.21796884478533 L 59.53593753600726 463.82812508158383 L 59.98593740800861 463.0296875007916 L 60.478125056007414 462.29218754558826 L 60.950000025611374 461.8007812095923 L 61.584374988812485 461.82187499519205 L 62.17812500480795 462.2312499199877 L 62.66875002880115 462.55859384319047 L 63.05781248001149 462.7843749887892 L 63.36562503681053 463.0296875007916 L 63.8984374272055 463.33671874558786 L 64.67656253441237 463.3781250047847 L 65.61875005441252 463.5007811583928 L 66.35625000960427 463.6851562495925 L 67.17500006400515 463.86953134079226 L 67.99374991360818 464.01249996798583 L 68.62968750080327 464.0742187007912 L 69.34531256320187 464.0945311743883 L 69.8984374272055 464.11562495998805 L 70.65625006080373 464.1562499071937 L 71.66093742080265 464.299218739185 L 72.56093757441268 464.44296867839296 L 73.19687495680992 464.48359383038473 L 73.89218754561152 464.5250000895933 L 74.46562508800999 464.58671882238707 L 74.95781253121095 464.64765624318966 L 75.65312471040525 464.85234483198724 L 76.22656245760155 464.9546874879859 L 77.12812503040769 465.0781249535852 L 77.7421875200118 465.1804688383942 L 78.31562506241025 465.26250004478493 L 78.70468751360895 464.97578127358577 L 78.88906240001089 464.25859379199096 L 84.82812497920823 463.88984381438934 L 85.4640625664033 463.88984381438934 L 85.64843745280523 463.5421874175896 L 85.66874992640223 462.5789063167874 L 86.24218746881233 462.3742187519907 L 89.1906250752043 462.3742187519907 L 89.1906250752043 460.89999994878895 L 91.89374996480765 460.8796874751919 L 92.50937507840572 460.8796874751919 L 94.39374991360819 460.7562500095926 L 94.39374991360819 460.06015631358605 L 94.43437506561168 459.3843750911881 L 95.45781248001148 459.36406241279326 L 96.05156249600695 459.36406241279326 L 96.82968739840435 459.3437499391846 L 96.78906245121034 458.3804688383941 L 96.60468756480842 457.3156249599881 L 96.27656253441236 456.5789063167874 L 95.88750008320203 455.82109368318925 L 95.76562503681052 455.10390620159455 L 95.88750008320203 454.2031249407912 L 95.9296874496038 453.1789062143886 L 96.01093754880131 452.1140625407919 L 96.42031247360865 451.3968750591855 L 97.21875005441252 450.8031250431901 L 97.8953125888016 450.2093750271946 L 98.2640625664033 449.6156250111875 L 98.61250007040799 449.1242186751915 L 99.20625008640346 448.32499998719436 L 99.84062504960457 447.60859381759076 L 100.31093760001241 447.1984375807922 L 100.94687498240964 446.9328125951928 L 102.15468748800922 446.42031247358534 L 102.68750008320202 446.19531243519157 L 103.11718748160638 446.0109375487897 L 103.71093749760185 445.70390630399345 L 104.20312494080281 445.2734375935863 L 104.71562506241025 444.84374999038414 L 105.96406251520384 443.79921879038443 L 107.33593743360834 442.6320312319906 L 108.74999992321246 441.3210937343887 L 109.42500003840541 435.3406251007924 L 109.40468756480841 434.603906252794 L 109.48750008320204 433.6820312063908 L 109.50781255681068 433.2312500223867 L 109.62968739840434 432.39140618238594 L 109.73281259520445 431.79765616639054 L 109.81406248960411 430.9992187903845 L 109.91718748160638 430.15937495038384 L 109.95781242881203 429.6882812927943 L 109.99843758080388 429.05390632959313 L 109.93749995520338 428.1929687039926 L 109.75312506880145 427.5382812671945 L 109.46562498561107 427.18984376318986 L 109.0984374272055 426.8828125183936 L 108.6671874048072 426.5757812735858 L 107.97187502080342 426.00156241918444 L 107.31562496001133 425.38749992959197 L 106.80312504320173 424.5476562943892 L 106.55781253121094 423.7898436607909 L 106.37343744001119 423.31875000318973 L 106.31250001920853 422.8687499263906 L 106.37343744001119 422.4796874751919 L 106.72187494400423 421.90624993279346 L 107.19218749441207 421.33281259519276 L 107.64374999040737 420.92265615358485 L 108.03281244160607 420.4312500223866 L 108.46250004480825 419.81718753279415 L 108.70781255681068 419.34609367039525 L 108.8921874432126 418.89531248639105 L 109.07656253441237 418.23984373759015 L 109.09687500800938 417.3390624767868 L 109.05625006080372 416.5195313151926 L 108.93437501441221 415.9664062463911 L 108.8109375488013 415.4343749631895 L 108.48281251840527 415.00390625279397 L 107.9093749760068 414.7585937407915 L 107.25468753920867 414.69687500798614 L 106.72187494400423 414.840624947194 L 106.22968750080327 415.209374924784 L 105.6578125824104 415.4343749631895 L 105.2265625600121 415.55703132158374 L 104.5718749184045 415.74140620798573 L 103.93593753600726 415.45468743678646 L 103.60937492480734 414.90156257279455 L 103.38437509121141 414.062500044785 L 103.22031247360864 413.2429686783929 L 103.09687500800938 412.56718745599505 L 102.9734375424101 411.5023437823868 L 102.76874997760169 410.47812505598415 L 102.52343746561091 409.5976562687895 L 102.46250004480825 408.9828124671942 L 102.19531243520323 408.18437509118814 L 101.80624998400454 407.32421877759043 L 101.41718753280584 406.58671882238707 L 101.13125007360941 406.075000012794 L 100.78281256960472 405.58359367678645 L 100.08593756160698 404.80546877438906 L 99.14375004160684 403.94531246079134 L 98.28437504001195 403.4531250175903 L 97.56718755840556 403.26953123839337 L 96.03125002240995 402.96171868159433 L 94.51562496001134 402.7570313215838 L 93.57343744001119 402.69609369599493 L 92.18125004800967 402.6749999103952 L 91.50468751360896 402.63437496318943 L 90.60468756480842 402.45000007678755 L 89.92812503040768 402.3679686655872 L 89.12968744960381 402.40937492478406 L 87.98281256960472 402.1429688319913 L 86.99999989761272 402.1226561535848 L 86.34375004160684 402.38828134399375 L 85.72968755200273 402.94140620798566 L 85.40312494080281 403.43281254399335 L 84.9312559104059 403.8835890175891 L 84.46093742080265 404.1085937663913 L 84.00937492480735 404.2320312319905 L 82.88281251840526 404.31406243839297 L 82.24843755520415 404.3953125375905 L 81.49062492160593 404.3750000639935 L 80.62968750080327 404.33437491199004 L 79.54531246080296 404.2320312319905 L 78.07031255040783 404.0273436671938 L 76.84218757121126 403.6374999039923 L 76.22656245760155 403.3101561855874 L 75.83750000640285 402.94140620798566 L 75.5109376000124 402.42968739839273 L 74.97812500480795 401.7124999167863 L 74.52812492800876 401.1187499007908 L 73.97500006400514 400.5250000895933 L 73.40156252160668 399.99218749438876 L 72.49999994881219 399.6445313023869 L 71.88593745920807 400.01249996798583 L 71.47656253441237 400.5656250367872 L 71.06718740480719 401.2828125183936 L 70.65625006080373 401.9992186879856 L 69.87812495360849 402.77734379519245 L 69.16093747200212 402.90078126079175 L 68.58749992960365 402.6546874367865 L 67.95312496640254 402.2250000383938 L 67.42031257600756 401.8148438015836 L 66.99062497280538 401.1804688383942 L 66.58125004800968 400.01249996798583 L 66.68437504001194 398.49765621759 L 66.70468751360895 397.88281241599475 L 65.7203124224092 396.89999994878895 L 65.25000007681084 396.3468750847853 L 64.10312499200226 395.05703116798543 L 63.67343759360956 394.01249996798583 L 63.63125002240995 393.3773436927935 L 63.734375014412215 392.4968749055872 L 62.75156254720641 391.9843749887892 L 62.03437506561168 391.90234378238677 L 61.19531253760215 391.90312509438957 L 60.293749964807645 391.6570312703843 L 59.843750092806296 390.94062510079243 L 59.78125004800968 390.3460937727941 L 59.82343741441146 389.6500000767876 L 60.00781250561122 388.74921881598425 L 60.17031249920838 388.03203133438944 L 60.68281241600634 386.29140623358546 L 61.584374988812485 383.99765626878946 L 61.99374991360819 382.9734375423868 L 62.52656250881264 382.23593758719505 L 63.489062502409794 381.3554687999888 L 64.08281251840526 380.475000012794 L 64.61562490881188 379.2664061951916 L 65.06562498561107 377.81250007038466 L 65.65937500160653 376.93203128319 L 65.8031249408028 376.23593758719505 L 65.53593753600725 375.2320313343895 L 65.57812490240903 374.65859379199105 L 65.7421875200118 373.8187499519903 L 65.96718755840557 373.389062553586 L 66.39687495680991 372.42656255998884 L 66.47812505600741 371.60703119358516 L 66.47812505600741 370.82890629118776 L 66.253125017602 370.0093749247841 L 65.90468751360895 368.7601561599877 L 65.7828124672058 367.94140631038465 L 66.00781250561121 367.203906150395 L 66.33593753600726 366.42578124798604 L 66.47812505600741 365.81093744639077 L 66.82656256001209 364.70546882558847 L 66.7656249344116 363.660937420791 L 65.92656240640208 362.4320313343894 L 64.9843750912114 361.48984381438936 L 64.67656253441237 360.95781253118764 L 64.00000000001164 360.03593748478454 L 63.6109375488013 359.25781258238715 L 63.85781248001149 358.8070311935851 L 64.65625006080373 358.49999994878885 L 65.3734375424101 357.94687508478523 L 66.00781250561121 357.4960936959949 L 66.66249994240934 357.25078118399256 L 67.07343749121064 356.79999999998836 L 67.09374996480764 356.2468749311869 L 66.64218746881234 355.2437499903841 L 66.1515624448075 354.2609375231899 L 65.43437496321276 353.5640625151922 L 64.63593758720671 353.0726561791846 L 63.77499996160623 352.70390620159446 L 62.30156247040723 352.21250007038475 L 60.8468750336091 351.8640625663917 L 59.14687508480856 351.5773437951924 L 57.77499996160623 351.209374924784 L 56.83281244160607 350.69687500798614 L 56.3203125248081 349.98046883839413 L 55.66562508800998 348.83359375358555 L 55.2156250112108 348.01406259199143 L 55.05156259840587 347.5023437823868 L 55.317187584005296 346.98984366079094 L 56.198437478404955 346.27343749118734 L 56.6890625024098 345.61796874238644 L 57.13906257920898 345.26953123839337 L 57.79531243520323 344.83984383998904 L 58.75781242881203 344.2664062975906 L 59.33124997121049 343.8570311679854 L 59.80312494080281 343.36484372478446 L 60.37656248320127 342.4640624639927 L 60.99062497280538 341.1742187519907 L 61.25624995840481 340.5796874239925 L 61.42031257600756 339.76093757438935 L 61.564062515203844 338.7984375807922 L 61.624999936006496 338.0812500991858 L 61.849999974411915 337.4257813503849 L 61.80937502720626 336.5656250367872 L 61.624999936006496 335.6445313023869 L 61.35937495040707 335.1117187071941 L 61.031249920011035 334.41562501118756 L 60.43749990400393 333.37109381118785 L 59.98593740800861 332.57187491839284 L 59.96562493441161 331.73281259519285 L 59.474999910406765 330.7289063423872 L 58.654687436809766 330.0945311743883 L 58.24531251200242 329.5820312575903 L 57.017187532805835 328.189843660791 L 56.34062499840511 327.3500000255881 L 56.23906242561061 326.7562500095926 L 56.56562503681052 326.3460937727941 L 57.078124953608494 326.12109373438875 L 58.02031247360865 326.0804687871947 L 58.69687500800937 326.18281246719414 L 59.45468743680976 326.1617186815944 L 60.37500006400514 326.0390625279863 L 60.970312499208376 325.99843758079226 L 61.74843740160577 325.5679686655873 L 62.17812500480795 324.9124999167864 L 63.037500006402844 324.2984374271939 L 64.0218750976026 324.0117186559946 L 64.69687500800937 324.0117186559946 L 65.22968739840435 324.03203133438944 L 66.54062510080402 323.9499999231891 L 67.13437491200166 324.0523438079865 L 67.68749998080311 324.2367186943884 L 68.1375000576023 324.42109378558814 L 68.7312500736094 324.58515619839307 L 69.4078124032123 324.7898437631899 L 69.91874990080251 324.9945313279866 L 70.30937497600681 325.0562500607921 L 70.96406241280492 325.0351562751923 L 71.7828124672058 324.8921874431893 L 73.053125017602 324.25703116798536 L 73.52343756800983 323.9093749759952 L 74.7109376000124 323.0289061887888 L 75.10156247040723 322.55781253118766 L 75.73593743360834 322.06562508798675 L 76.37031567360972 320.7757727743941 L 76.63750000640285 320.05859368959204 L 77.18906245121033 318.5226561535849 L 77.35312506880146 317.9492188159842 L 77.31249991680961 317.2531249151914 L 77.16874997760169 316.33125007358615 L 78.15312506880146 314.8367187967873 L 79.032812544005 313.7101561855874 L 79.38125004800968 313.1773437951924 L 80.32343756800984 312.35859374079155 L 80.91718758400529 311.6210937855882 L 81.40937502720627 311.08906250238647 L 82.08437493760138 310.1468749823864 L 82.47343759360956 309.12265625598377 L 83.12812503040769 308.1187500031898 L 83.57968752640299 307.4023438335862 L 84.1734375424101 306.82890629118776 L 85.23906252800953 306.1937500159838 L 85.91406243840466 305.86640629759063 L 86.75312496640254 305.7437499391847 L 87.49062492160593 305.57968752639135 L 88.39218749441207 305.12890634238715 L 89.00624998400454 304.53515632639176 L 89.64218757121125 304.06406246399274 L 89.94843750400469 303.61328127998854 L 90.01093754880131 302.75312496639094 L 90.03125002240995 301.97500006399355 L 90.31718748160638 300.82812497918496 L 92.93906247681007 299.02578135038493 L 93.79843747840496 298.4937500671949 L 95.88750008320203 297.40781240318904 L 96.23593758720672 296.95781253118764 L 97.07656253441237 296.6710937599885 L 97.40312494080281 296.30234378238674 L 97.21875005441252 295.91328133118805 L 96.80937492480734 295.2984375295928 L 96.33906257920898 294.8476563455886 L 95.9296874496038 294.56171868159436 L 95.74531256320188 294.13124997118723 L 95.29375006720656 293.33281259519276 L 94.86406246400438 292.6156249087886 L 94.74062499840511 292.02187509759096 L 94.43437506561168 291.48906250238656 L 94.18906255360926 290.8546875391854 L 94.08593756160698 290.1578125311877 L 94.12656250881264 289.4820313087897 L 94.12656250881264 288.97031249918507 L 94.08593756160698 288.4789061631891 L 94.55624990720534 287.94609377279414 L 94.86406246400438 287.45468743678646 L 95.29375006720656 286.90156257279455 L 95.62187509760261 286.3898437631899 L 96.05156249600695 285.7757812735857 L 96.42031247360865 285.36562503678726 L 96.91249991680961 284.915624959988 L 97.48593745920807 284.66953134079233 L 97.91562506241026 284.2804686847842 L 97.81250007040799 283.8093750271946 L 97.34218752001179 283.46093752318995 L 96.68593745920808 282.86718750719444 L 96.40000000001164 282.2320312319905 L 96.03125002240995 281.7406251007924 L 96.21562490881188 280.8195311615942 L 96.99375001600711 280.5328125951928 L 97.52656240640208 279.6109375487897 L 97.25937500160653 278.56640634879 L 96.44062494720565 277.8085937151918 L 95.70312499200227 276.92812492798544 L 95.70312499200227 275.9859374079854 L 96.13437501441221 275.5765624831896 L 97.23906252800953 275.26953123839337 L 98.653125017602 275.26953123839337 L 99.47187507200287 274.61406248959247 L 99.08281241600635 273.91718748159474 L 98.16093757441267 273.8765625343891 L 96.99375001600711 273.63046871038387 L 96.19531243520323 273.03671869438836 L 95.82656245760154 272.44296867839296 L 96.01093754880131 271.1523436543881 L 96.17499996160623 270.49765621759 L 96.70781255681068 269.7804687359836 L 97.48593745920807 269.1249999871943 L 98.48906240001088 268.5929687039927 L 99.86093752320157 268.01953116159416 L 100.57812500480796 267.896093695995 L 101.37656258561182 267.6710936575895 L 102.03281244160607 267.3437499391846 L 102.6671874048072 267.07734384639184 L 103.20000000001164 266.70859366399236 L 103.3624999936088 265.786718822387 L 103.54843750400468 265.1312500735861 L 103.58906245121034 264.5992187903845 L 103.54687508480856 263.86171883519273 L 103.40468756480841 263.10390620159455 L 103.01562490881187 262.2437500927947 L 102.40000000001164 261.79296870399264 L 101.84843755520414 261.19921868798554 L 101.54062499840511 260.5031249919906 L 101.0078124032123 259.99140618238596 L 100.27031244800892 259.62265620478433 L 99.90156247040723 259.15156254719477 L 100.20937502720626 258.51640627199083 L 100.72187494400423 257.717968691187 L 101.17187502080341 256.7554686975898 L 101.45781248001148 255.77187491839288 L 101.5203125248081 254.97343754238682 L 101.39687505920884 253.88828119038374 L 101.23281244160607 253.130468761595 L 100.96718745600666 252.4132812799886 L 100.80312504320173 252.0242188287899 L 100.4953124864027 251.34843740159408 L 100.0453124096035 250.36562493438828 L 99.67656243200182 249.56718755839393 L 99.39062497280538 248.99375001598378 L 99.06249994240935 248.3382812671946 L 98.81718743040692 247.5593750527944 L 98.59218759681099 246.5359374335851 L 98.34531246080296 245.98281256959308 L 97.99687495680992 245.368750079989 L 97.67031255040783 244.5695311871939 L 97.28125009920913 243.7914062847849 L 96.85000007681083 243.17734379519243 L 96.70781255681068 242.62421872639095 L 97.23906252800953 242.23515627519225 L 97.75156244480749 241.86640629759063 L 98.09999994881218 241.37499996159454 L 98.28437504001195 240.71953121279364 L 98.16093757441267 239.94140631038465 L 97.81250007040799 239.0398437375901 L 97.50624993280508 238.36406251519224 L 97.11718748160638 237.70859376639123 L 96.74843750400468 236.84843745279363 L 96.40000000001164 236.05000007678757 L 96.23593758720672 235.4359375871951 L 96.19531243520323 234.73906257918566 L 96.29687500800938 233.98124994558748 L 97.03437496321276 233.53125007358608 L 97.83437496321275 233.51015628798632 L 98.30468751360895 233.67421870079124 L 98.8578125824104 233.83828131839402 L 99.37031249920838 233.7562499071937 L 99.88124999681023 233.32578119678658 L 100.4953124864027 232.95781253118764 L 101.04843755520415 232.73203118079107 L 101.66406246400439 232.13828116478396 L 101.74531256320188 231.58515630079205 L 101.62187509760261 231.11406243839303 L 101.66406246400439 230.58203115519132 L 101.47968757760245 230.00859381759074 L 100.8843749376014 229.5578124287888 L 100.2499999744119 229.12812503038435 L 99.7171875840053 228.63593758719503 L 99.10312509440118 228.10390630399343 L 98.44843745280522 227.51015628798632 L 97.99687495680992 227.05937489918438 L 97.65000007681083 226.69062492159424 L 97.26093742080266 225.95312496639087 L 97.19843758080387 225.09296865279316 L 98.07968747520354 225.23671879678727 L 99.2265625600121 225.68749998079147 L 100.27031244800892 225.37968742399244 L 100.78281256960472 224.70390620159446 L 100.61874995200196 224.0281249791849 L 100.31093760001241 223.41406248959242 L 100.0453124096035 223.00390625279397 L 99.75937495040708 222.69687500798614 L 99.43124992001103 222.36953128959283 L 99.02187499520369 222.02109378558816 L 98.55000002561137 221.63203133438947 L 98.07968747520354 221.2835938303848 L 97.30156257280615 220.7515625471948 L 96.48125009920913 220.38281256959306 L 95.9093749760068 220.19843747839332 L 95.35624990720535 220.01406259199143 L 95.06875002880115 219.54296872959242 L 95.06875002880115 218.96953118719398 L 95.21249996800907 218.06874992639064 L 95.68281251840526 217.1882813439937 L 96.05156249600695 216.49140633598438 L 96.48125009920913 215.63125002238667 L 96.9734375424101 214.9148436479852 L 97.40312494080281 214.4234375167871 L 97.8953125888016 213.93125007358617 L 98.57031249920837 213.58359367678645 L 99.2265625600121 213.39921879038445 L 99.7375000576023 213.48124999678691 L 100.18906255360926 213.58359367678645 L 100.92656250881264 213.33750005759066 L 101.66406246400439 212.96875007998892 L 102.42187509760261 212.57968742399248 L 102.8921874432126 212.12968755199108 L 103.40468756480841 211.59687495678668 L 104.03906252800952 211.0640625663916 L 104.44843745280522 210.7164061695919 L 104.98125004800968 210.18359377918534 L 105.6359374848078 209.65156249598363 L 105.94375004160683 209.0781249535852 L 106.14843740160578 208.6890625023865 L 106.70156247040723 208.299218739185 L 107.37656258561182 207.95156254719473 L 107.99218749441206 207.50078115839278 L 108.50312499200227 206.94765629438916 L 108.87187496960397 206.35390627839365 L 109.34374993920792 206.14921871358524 L 109.99843758080388 206.14921871358524 L 110.65468743680977 205.94453114878854 L 110.96093757441267 205.22734366719374 L 110.61250007040799 204.69531258879 L 109.95781242881203 204.34687508478532 L 109.20000000001164 203.85546874878924 L 109.07656253441237 203.2820312063908 L 109.30156257280615 202.70859366399236 L 109.79375001600711 202.31953121279366 L 110.61250007040799 202.38124994558746 L 111.6578125824104 202.54453125118744 L 112.59999989761272 202.21718753279424 L 113.2953124864027 201.88906250238654 L 113.9109376000124 201.47968757759077 L 114.58593751040753 200.84453130238694 L 115.03750000640284 200.16875007998897 L 115.40624998400453 199.24765634558867 L 115.63125002240994 198.0390625279863 L 115.7124999168096 197.05625006079208 L 115.5906250752043 195.94999992318913 L 115.24218757121125 195.0695313407923 L 114.97499996160623 194.51640627199083 L 114.8109375488013 193.77890631678747 L 114.83281244160608 192.93984378878963 L 114.89375006720657 192.3046875135857 L 115.01562490881187 191.07578122238624 L 115.24218757121125 189.82656245758994 L 115.48750008320204 189.04843755519255 L 115.46718740480719 188.475000012794 L 115.91718748160638 186.89765621759 L 116.38906245121034 186.42734366719378 L 117.14687508480856 185.7921875967877 L 117.3515624448075 185.30078126079172 L 117.74062510080402 184.7679686655872 L 118.27343749121064 184.25625006079213 L 118.68281241600634 183.6007813119911 L 119.25624995840481 183.10937497599514 L 119.76718745600665 182.678906265588 L 120.6890625024098 182.207812403189 L 121.5703126016073 181.98281256959308 L 122.5734375424101 181.9421874175896 L 123.27031255040784 182.04453130238687 L 124.10937507840572 182.12578119678653 L 124.97031249920838 182.18749992959204 L 125.6249999360065 181.86015621118713 L 126.1375000576023 181.59374991358493 L 126.87343759360957 181.1632812031894 L 127.979687526403 180.89765621759 L 128.5734375424101 180.85624995839316 L 129.1687499776017 180.73359380478507 L 129.61875005441252 180.54921871358533 L 130.35625000960425 180.03749990399228 L 130.90937507840573 179.56640624639113 L 131.19531253760215 179.15625000959267 L 131.48281241600634 178.56249999358556 L 131.91250001920852 178.03046871038384 L 132.3828125696047 177.6203124735854 L 132.8953124864027 177.37499996159454 L 133.4078124032123 177.27265628159512 L 134.18593751040754 177.27265628159512 L 134.84062494720564 177.31328122878915 L 135.33281259520444 177.3335937023861 L 135.96718755840556 177.35390617599478 L 136.992187596811 177.12890634238715 L 138.15937495040708 176.82187509759092 L 139.10156247040723 176.39140618238594 L 139.61249996800908 176.0234375167871 L 140.90312499200226 175.06015621118718 L 141.4562500608037 174.36406251519224 L 141.90624993280508 173.81093744639077 L 142.41875005441253 173.31953131519253 L 142.9515624448075 172.7460937727941 L 143.2578125824104 172.4187500543892 L 143.60625008640346 172.11171880959296 L 143.91406243840464 171.7632813055883 L 144.81562501121078 170.69843742719388 L 145.38906255360925 170.26796871678675 L 145.98281256960473 169.87890626558806 L 147.66093742080267 169.63359375358561 L 148.43906252800952 169.55156254719475 L 149.79062497280538 169.94062499839345 L 150.9171875840053 169.6945311743882 L 151.63437506561166 169.51015628798632 L 152.3515625472064 169.34687498238634 L 152.96562503681054 169.1007811583928 L 153.43750000640284 168.8140625919914 L 154.7687499776017 168.03593748478454 L 155.25937500160654 167.54453114878856 L 155.62812497920822 167.2164063231903 L 156.5906249728054 166.88906239998755 L 157.84062504960457 166.45859368959213 L 158.43437506561168 165.86484367358503 L 158.7406249984051 165.08671877118763 L 158.6390624256106 164.24687493118688 L 158.61874995200196 163.28437493758975 L 159.04843755520415 162.79296880639163 L 160.66562498561106 162.01484369918467 L 161.42343741441147 161.48203130878971 L 162.14062510080402 160.66328125438883 L 164.0453124096035 159.0453125119908 L 165.70468741121005 157.5296874495922 L 168.30468751360894 155.66562508798665 L 168.71562506241025 155.2156250111875 L 168.79687495680992 154.5601562623866 L 169.4109374464024 154.0273436671938 L 170.27187507200287 153.78203115519136 L 170.74218741760123 153.6382812159951 L 171.1718750208034 153.0851563519915 L 171.1312500736094 152.30703124478464 L 170.98749992960364 151.7335937023861 L 171.8078124032123 151.71328122878913 L 172.66718740480718 151.8773438463919 L 173.4046875648084 151.89765631998887 L 174.01875005441252 151.77499996159463 L 174.8999999488122 151.63125002238667 L 175.78125004800967 151.7335937023861 L 176.39890636800556 151.86720358398748 L 176.8249999360065 151.95937505279437 L 177.6640624640044 151.77499996159463 L 177.87031244800892 151.4679687167867 L 177.93125007360942 150.99687505918553 L 177.62343751681038 150.44374999038405 L 177.1937499136082 149.7062500351924 L 176.86562508800998 148.80546877438906 L 176.74375004160683 148.06796881918558 L 176.885937561607 147.47421880319018 L 176.8046874624095 146.6546874367865 L 176.4562499584048 145.69218744318937 L 176.33281249280554 144.81171865599458 L 176.25156259840588 144.1765625855885 L 176.2921875456115 143.74687498238632 L 176.49687490561047 143.17343743998788 L 176.59999989761272 142.62031257598426 L 175.92343756800983 142.12890623998828 L 175.24843745280523 141.65781258238712 L 174.38750003200258 141.00234383358622 L 173.179687526403 140.1421875199885 L 172.5453125632019 139.44609382399358 L 171.58281256960473 137.72578119678656 L 171.15156254720642 137.04999997438858 L 170.59843747840495 136.02578124798606 L 170.22968750080327 135.26796881918563 L 169.4109374464024 134.1414062079857 L 168.5718749184045 133.26093742079104 L 167.71093749760183 132.66718740478393 L 166.78906245121033 132.21640622079144 L 165.43750000640284 131.74531256319028 L 164.55781253121094 131.23359375358564 L 163.94375004160685 130.78281256959303 L 162.61250007040798 130.68046868478416 L 161.0140624896041 130.57812500478462 L 159.76562503681052 130.24999997438863 L 158.4953124864027 129.86093752318993 L 157.75781253121096 129.24687503358587 L 157.12343756800982 128.09999994878888 L 156.81562501121078 127.66953123839335 L 156.2015625216067 127.1578124287887 L 155.66874992640223 126.68671877118754 L 155.09531258880162 126.21562490878864 L 154.56406241280493 125.82656245758994 L 153.8671874048072 125.3148436479853 L 153.23125002240994 124.98671882238705 L 152.53593743360835 124.475000012794 L 151.92187494400423 123.90156247038396 L 151.34843740160576 123.24609372159466 L 150.81562501121078 122.69296865279318 L 150.18125004800967 122.40625008639176 L 149.2171874304069 122.28359372798582 L 148.05000007681082 122.26328125438886 L 147.43593758720672 122.2429687807919 L 146.80156241920776 122.07890616318912 L 146.18749992960366 121.83281254399333 L 145.6750000128057 121.5257812991855 L 145.1625000960077 120.74765619199025 L 144.99843747840495 119.5593750527944 L 144.56875008001225 118.67890626558801 L 143.54531246080296 117.73671874558784 L 143.19687495680992 117.4296875007916 L 142.41875005441253 117.02031257598424 L 141.41562490881188 116.5085937663913 L 140.84218757121124 116.1804687359836 L 140.0640624640044 115.77109381118794 L 139.44843755520415 115.54531246079137 L 138.85468753920867 115.4023438335862 L 138.28124999681023 115.27968747519185 L 137.93281249280554 115.17734379519243 L 137.52343756800983 114.37812490238571 L 136.97031249920838 113.4570311679854 L 136.6015625216067 113.02656245758988 L 136.23437496321276 112.69921873918497 L 135.70156257280615 112.45312491519144 L 135.1281250304077 112.33046876159494 L 134.45156249600694 112.37109370878898 L 133.5515625472064 112.53515632639176 L 132.506250035204 112.63750000639118 L 131.89218754561153 112.69921873918497 L 131.03124992001102 112.90390630399338 L 130.4781250560074 113.04687493118695 L 129.57812490240903 113.19062507519266 L 128.77812490240905 113.25156249598365 L 128.12357099520742 113.2109457407845 L 127.20156241920776 112.55546879998872 L 126.36250009600772 111.81796884478536 L 125.9109376000124 111.36796876798621 L 125.52187494400422 110.75312496639094 L 125.56406251520384 109.99531253759051 L 125.99374991360818 109.0125000703847 L 126.25937489920761 108.45937500159494 L 126.46406246400439 107.90624993279346 L 126.64843755520414 107.1078125567874 L 126.58749992960365 106.28906250238651 L 126.42343751681037 105.28515624959255 L 126.38281256960472 104.40468746238616 L 126.46406246400439 103.48281241599466 L 126.69062492160592 102.58203115519132 L 127.03750000640284 101.7015625727945 L 127.36562503681053 100.90234367998778 L 127.34531256320187 99.0179688447854 L 126.87343759360957 96.58125004798637 L 125.01093744640238 93.59140618238598 L 123.10624993280507 90.29374996478441 L 121.87656253441237 88.24609382399353 L 118.29374996480765 85.87031244798561 L 115.7124999168096 83.3101561855874 L 115.38437509121141 82.63437496318943 L 117.24843745280523 82.08125009918581 L 117.80156252160668 81.6101562367869 L 117.92499998720595 79.78749992959206 L 117.0031249408028 78.9273438207922 L 114.93437501441221 77.43281254399335 L 114.77031260160729 76.61328117758967 L 114.52500008960487 76.06015631358605 L 114.40156241920776 75.58906245118703 L 114.50468741121003 74.97499996159456 L 114.60624998400453 74.27812495358523 L 114.48437493760139 73.45937489918435 L 114.11562496001133 72.76328120318942 L 113.66406246400439 72.29218754558826 L 113.23437506561167 71.88203130878969 L 112.80468746240949 71.45234370558751 L 112.27187507200287 71.06328125438881 L 111.67812505600742 70.69453127678719 L 111.20781250561122 70.38750003199095 L 110.98125004800968 70.05937500159484 L 111.18593740800861 69.65000007678759 L 111.69843752960442 69.26093742079104 L 112.14843740160578 68.93281259519279 L 112.49687490561045 68.44140625918521 L 112.39531253760215 67.94999992318913 L 112.0265625600121 67.60234373118726 L 111.67812505600742 67.1312500735861 L 111.6578125824104 66.5367187455879 L 111.41250007040799 65.92265625598372 L 110.96093757441267 65.30859376639125 L 110.5718749184045 64.81640632319034 L 109.99843758080388 64.14062510079236 L 109.5687499776017 63.342187519988556 L 109.38437509121141 62.83046871038391 L 109.24062494720565 62.21562490878864 L 109.01562490881187 61.41718753279417 L 108.91249991680961 60.49531248639107 L 108.7296874496038 59.63515617279336 L 108.40156241920776 59.02109368318929 L 108.01249996800907 58.672656179184514 L 107.17187502080341 58.46796881918567 L 106.14843740160578 58.4476563455886 L 105.51406243840465 58.32421867519156 L 104.94062510080403 57.996874956786655 L 104.71562506241025 57.525781299185496 L 104.14062510080403 56.276562534389086 L 103.26093742080266 55.74374993918468 L 102.60624998400453 55.478124953585166 L 102.23750000640284 55.21171865599467 L 101.70468741121003 55.04765624318975 L 100.94687498240964 54.78124994558743 L 100.106250035204 54.4742187007912 L 99.49218754561153 54.207812403188996 L 99.10312509440118 53.96250009598441 L 98.67343749121065 53.59374991358493 L 98.20312494080281 53.12265625598377 L 97.83437496321275 52.61093744639072 L 97.34218752001179 52.01640632319027 L 96.80937492480734 51.50468751358562 L 96.3187499008025 51.05390632959313 L 95.8671874048072 50.78828134399373 L 95.04843755520415 50.317187481594715 L 94.14687498240964 49.74374993918468 L 93.45156259840587 49.25156249598365 L 92.79531253760214 48.78124994558743 L 92.14062510080403 48.18671882238709 L 91.60781250561122 47.73671874558784 L 91.17812490240904 47.26562508798668 L 90.80937492480734 46.814843699184735 L 90.37968752640299 46.3234375679865 L 89.82656245760154 45.38125004798644 L 89.39531243520324 44.70546882558847 L 89.06875002880115 43.94765619199029 L 88.72031252480811 43.33281259519276 L 88.18749992960366 42.67812495358521 L 87.92187494400423 42.22734376959272 L 87.67500001280568 41.71562495998808 L 87.47031244800891 40.95781253118764 L 87.12187494400423 39.953906278393674 L 87.08124999681021 39.38046873598364 L 86.93906247681007 38.642968780791875 L 86.73281249280554 37.824218726390995 L 86.50781245441176 37.209374924784015 L 86.28281241600635 36.65703116798545 L 85.91406243840466 35.837500006391224 L 85.36093757441267 34.87500001279409 L 84.85000007681083 34.05546885118815 L 84.5828124672058 33.60546877438901 L 83.94843750400469 32.95000002558811 L 83.53906257920899 32.58125004798637 L 82.92500008960488 32.06953123839344 L 82.24843755520415 31.577343795192405 L 81.77656258561183 31.270312550384574 L 81.36718745600665 30.9835937791853 L 80.89687490561046 30.738281267194566 L 80.17968742400407 30.43046871038382 L 79.66718750720611 30.16484372478442 L 79.0953125888016 29.898437427193812 L 78.31562506241025 29.549999923189148 L 77.64062494720565 29.16093747199045 L 77.02656245760154 28.731250073586125 L 76.51406336000655 28.28046766079501 L 76.12500008960487 27.932031180791114 L 75.73593743360834 27.482031308789715 L 75.24374999040738 26.764843827195023 L 74.7937499136082 25.80234383358618 L 74.4249999360065 23.570312601583964 L 74.4046874624095 22.710156287986365 L 74.52812492800876 22.033593753585592 L 74.67031244800891 21.460937523189955 L 74.85468753920868 20.928124927985436 L 75.32656250881264 19.842968780791807 L 75.59218749441206 18.982812467194208 L 75.65312491520308 18.16328130558827 L 75.36718745600665 16.934375014388934 L 75.12187494400423 15.992187494388759 L 75.1093749760068 15.671093657589495 L 75.10156247040723 15.43906242558728 L 75.20312504320172 14.886718668788717 L 75.32656250881264 14.210937446390744 L 75.63281244160608 13.329687551991128 L 75.81718753280583 12.551562444784167 L 75.81718753280583 11.486718771187611 L 75.34687498240964 9.786718822387002 L 74.83437506561168 8.639843737590127 L 74.73281249280554 7.821093683189247 L 74.7109376000124 7.288281292794295 L 74.81406259200303 6.469531238393415 L 75.03906242561061 5.814062489592516 L 75.28437493760138 5.199218687985535 L 75.61249996800908 4.503124991990603 L 75.83750000640285 3.7046874111867965 L 75.98124994561076 2.8445313023869403 L 75.96093747200212 1.942968729592394 L 75.79687505920883 1.082812415994681 L 75.57187502080342 0.52968755199106 L 75.32764317193941 0.0" fill="none"/><path stroke="#000000" stroke-width="2" d="M 75.32764317193941 0.0 L 75.57187502080342 0.52968755199106 L 75.79687505920883 1.082812415994681 L 75.96093747200212 1.942968729592394 L 75.98124994561076 2.8445313023869403 L 75.83750000640285 3.7046874111867965 L 75.61249996800908 4.503124991990603 L 75.28437493760138 5.199218687985535 L 75.03906242561061 5.814062489592516 L 74.81406259200303 6.469531238393415 L 74.7109376000124 7.288281292794295 L 74.73281249280554 7.821093683189247 L 74.83437506561168 8.639843737590127 L 75.34687498240964 9.786718822387002 L 75.81718753280583 11.486718771187611 L 75.81718753280583 12.551562444784167 L 75.63281244160608 13.329687551991128 L 75.32656250881264 14.210937446390744 L 75.20312504320172 14.886718668788717 L 75.10156247040723 15.43906242558728 L 75.1093749760068 15.671093657589495 L 75.12187494400423 15.992187494388759 L 75.36718745600665 16.934375014388934 L 75.65312491520308 18.16328130558827 L 75.59218749441206 18.982812467194208 L 75.32656250881264 19.842968780791807 L 74.85468753920868 20.928124927985436 L 74.67031244800891 21.460937523189955 L 74.52812492800876 22.033593753585592 L 74.4046874624095 22.710156287986365 L 74.4249999360065 23.570312601583964 L 74.7937499136082 25.80234383358618 L 75.24374999040738 26.764843827195023 L 75.73593743360834 27.482031308789715 L 76.12500008960487 27.932031180791114 L 76.51406336000655 28.28046766079501 L 77.02656245760154 28.731250073586125 L 77.64062494720565 29.16093747199045 L 78.31562506241025 29.549999923189148 L 79.0953125888016 29.898437427193812 L 79.66718750720611 30.16484372478442 L 80.17968742400407 30.43046871038382 L 80.89687490561046 30.738281267194566 L 81.36718745600665 30.9835937791853 L 81.77656258561183 31.270312550384574 L 82.24843755520415 31.577343795192405 L 82.92500008960488 32.06953123839344 L 83.53906257920899 32.58125004798637 L 83.94843750400469 32.95000002558811 L 84.5828124672058 33.60546877438901 L 84.85000007681083 34.05546885118815 L 85.36093757441267 34.87500001279409 L 85.91406243840466 35.837500006391224 L 86.28281241600635 36.65703116798545 L 86.50781245441176 37.209374924784015 L 86.73281249280554 37.824218726390995 L 86.93906247681007 38.642968780791875 L 87.08124999681021 39.38046873598364 L 87.12187494400423 39.953906278393674 L 87.47031244800891 40.95781253118764 L 87.67500001280568 41.71562495998808 L 87.92187494400423 42.22734376959272 L 88.18749992960366 42.67812495358521 L 88.72031252480811 43.33281259519276 L 89.06875002880115 43.94765619199029 L 89.39531243520324 44.70546882558847 L 89.82656245760154 45.38125004798644 L 90.37968752640299 46.3234375679865 L 90.80937492480734 46.814843699184735 L 91.17812490240904 47.26562508798668 L 91.60781250561122 47.73671874558784 L 92.14062510080403 48.18671882238709 L 92.79531253760214 48.78124994558743 L 93.45156259840587 49.25156249598365 L 94.14687498240964 49.74374993918468 L 95.04843755520415 50.317187481594715 L 95.8671874048072 50.78828134399373 L 96.3187499008025 51.05390632959313 L 96.80937492480734 51.50468751358562 L 97.34218752001179 52.01640632319027 L 97.83437496321275 52.61093744639072 L 98.20312494080281 53.12265625598377 L 98.67343749121065 53.59374991358493 L 99.10312509440118 53.96250009598441 L 99.49218754561153 54.207812403188996 L 100.106250035204 54.4742187007912 L 100.94687498240964 54.78124994558743 L 101.70468741121003 55.04765624318975 L 102.23750000640284 55.21171865599467 L 102.60624998400453 55.478124953585166 L 103.26093742080266 55.74374993918468 L 104.14062510080403 56.276562534389086 L 104.71562506241025 57.525781299185496 L 104.94062510080403 57.996874956786655 L 105.51406243840465 58.32421867519156 L 106.14843740160578 58.4476563455886 L 107.17187502080341 58.46796881918567 L 108.01249996800907 58.672656179184514 L 108.40156241920776 59.02109368318929 L 108.7296874496038 59.63515617279336 L 108.91249991680961 60.49531248639107 L 109.01562490881187 61.41718753279417 L 109.24062494720565 62.21562490878864 L 109.38437509121141 62.83046871038391 L 109.5687499776017 63.342187519988556 L 109.99843758080388 64.14062510079236 L 110.5718749184045 64.81640632319034 L 110.96093757441267 65.30859376639125 L 111.41250007040799 65.92265625598372 L 111.6578125824104 66.5367187455879 L 111.67812505600742 67.1312500735861 L 112.0265625600121 67.60234373118726 L 112.39531253760215 67.94999992318913 L 112.49687490561045 68.44140625918521 L 112.14843740160578 68.93281259519279 L 111.69843752960442 69.26093742079104 L 111.18593740800861 69.65000007678759 L 110.98125004800968 70.05937500159484 L 111.20781250561122 70.38750003199095 L 111.67812505600742 70.69453127678719 L 112.27187507200287 71.06328125438881 L 112.80468746240949 71.45234370558751 L 113.23437506561167 71.88203130878969 L 113.66406246400439 72.29218754558826 L 114.11562496001133 72.76328120318942 L 114.48437493760139 73.45937489918435 L 114.60624998400453 74.27812495358523 L 114.50468741121003 74.97499996159456 L 114.40156241920776 75.58906245118703 L 114.52500008960487 76.06015631358605 L 114.77031260160729 76.61328117758967 L 114.93437501441221 77.43281254399335 L 117.0031249408028 78.9273438207922 L 117.92499998720595 79.78749992959206 L 117.80156252160668 81.6101562367869 L 117.24843745280523 82.08125009918581 L 115.38437509121141 82.63437496318943 L 115.7124999168096 83.3101561855874 L 118.29374996480765 85.87031244798561 L 121.87656253441237 88.24609382399353 L 123.10624993280507 90.29374996478441 L 125.01093744640238 93.59140618238598 L 126.87343759360957 96.58125004798637 L 127.34531256320187 99.0179688447854 L 127.36562503681053 100.90234367998778 L 127.03750000640284 101.7015625727945 L 126.69062492160592 102.58203115519132 L 126.46406246400439 103.48281241599466 L 126.38281256960472 104.40468746238616 L 126.42343751681037 105.28515624959255 L 126.58749992960365 106.28906250238651 L 126.64843755520414 107.1078125567874 L 126.46406246400439 107.90624993279346 L 126.25937489920761 108.45937500159494 L 125.99374991360818 109.0125000703847 L 125.56406251520384 109.99531253759051 L 125.52187494400422 110.75312496639094 L 125.9109376000124 111.36796876798621 L 126.36250009600772 111.81796884478536 L 127.20156241920776 112.55546879998872 L 128.12357099520742 113.2109457407845 L 128.77812490240905 113.25156249598365 L 129.57812490240903 113.19062507519266 L 130.4781250560074 113.04687493118695 L 131.03124992001102 112.90390630399338 L 131.89218754561153 112.69921873918497 L 132.506250035204 112.63750000639118 L 133.5515625472064 112.53515632639176 L 134.45156249600694 112.37109370878898 L 135.1281250304077 112.33046876159494 L 135.70156257280615 112.45312491519144 L 136.23437496321276 112.69921873918497 L 136.6015625216067 113.02656245758988 L 136.97031249920838 113.4570311679854 L 137.52343756800983 114.37812490238571 L 137.93281249280554 115.17734379519243 L 138.28124999681023 115.27968747519185 L 138.85468753920867 115.4023438335862 L 139.44843755520415 115.54531246079137 L 140.0640624640044 115.77109381118794 L 140.84218757121124 116.1804687359836 L 141.41562490881188 116.5085937663913 L 142.41875005441253 117.02031257598424 L 143.19687495680992 117.4296875007916 L 143.54531246080296 117.73671874558784 L 144.56875008001225 118.67890626558801 L 144.99843747840495 119.5593750527944 L 145.1625000960077 120.74765619199025 L 145.6750000128057 121.5257812991855 L 146.18749992960366 121.83281254399333 L 146.80156241920776 122.07890616318912 L 147.43593758720672 122.2429687807919 L 148.05000007681082 122.26328125438886 L 149.2171874304069 122.28359372798582 L 150.18125004800967 122.40625008639176 L 150.81562501121078 122.69296865279318 L 151.34843740160576 123.24609372159466 L 151.92187494400423 123.90156247038396 L 152.53593743360835 124.475000012794 L 153.23125002240994 124.98671882238705 L 153.8671874048072 125.3148436479853 L 154.56406241280493 125.82656245758994 L 155.09531258880162 126.21562490878864 L 155.66874992640223 126.68671877118754 L 156.2015625216067 127.1578124287887 L 156.81562501121078 127.66953123839335 L 157.12343756800982 128.09999994878888 L 157.75781253121096 129.24687503358587 L 158.4953124864027 129.86093752318993 L 159.76562503681052 130.24999997438863 L 161.0140624896041 130.57812500478462 L 162.61250007040798 130.68046868478416 L 163.94375004160685 130.78281256959303 L 164.55781253121094 131.23359375358564 L 165.43750000640284 131.74531256319028 L 166.78906245121033 132.21640622079144 L 167.71093749760183 132.66718740478393 L 168.5718749184045 133.26093742079104 L 169.4109374464024 134.1414062079857 L 170.22968750080327 135.26796881918563 L 170.59843747840495 136.02578124798606 L 171.15156254720642 137.04999997438858 L 171.58281256960473 137.72578119678656 L 172.5453125632019 139.44609382399358 L 173.179687526403 140.1421875199885 L 174.38750003200258 141.00234383358622 L 175.24843745280523 141.65781258238712 L 175.92343756800983 142.12890623998828 L 176.59999989761272 142.62031257598426 L 176.49687490561047 143.17343743998788 L 176.2921875456115 143.74687498238632 L 176.25156259840588 144.1765625855885 L 176.33281249280554 144.81171865599458 L 176.4562499584048 145.69218744318937 L 176.8046874624095 146.6546874367865 L 176.885937561607 147.47421880319018 L 176.74375004160683 148.06796881918558 L 176.86562508800998 148.80546877438906 L 177.1937499136082 149.7062500351924 L 177.62343751681038 150.44374999038405 L 177.93125007360942 150.99687505918553 L 177.87031244800892 151.4679687167867 L 177.6640624640044 151.77499996159463 L 176.8249999360065 151.95937505279437 L 176.39890636800556 151.86720358398748 L 175.78125004800967 151.7335937023861 L 174.8999999488122 151.63125002238667 L 174.01875005441252 151.77499996159463 L 173.4046875648084 151.89765631998887 L 172.66718740480718 151.8773438463919 L 171.8078124032123 151.71328122878913 L 170.98749992960364 151.7335937023861 L 171.1312500736094 152.30703124478464 L 171.1718750208034 153.0851563519915 L 170.74218741760123 153.6382812159951 L 170.27187507200287 153.78203115519136 L 169.4109374464024 154.0273436671938 L 168.79687495680992 154.5601562623866 L 168.71562506241025 155.2156250111875 L 168.30468751360894 155.66562508798665 L 165.70468741121005 157.5296874495922 L 164.0453124096035 159.0453125119908 L 162.14062510080402 160.66328125438883 L 161.42343741441147 161.48203130878971 L 160.66562498561106 162.01484369918467 L 159.04843755520415 162.79296880639163 L 158.61874995200196 163.28437493758975 L 158.6390624256106 164.24687493118688 L 158.7406249984051 165.08671877118763 L 158.43437506561168 165.86484367358503 L 157.84062504960457 166.45859368959213 L 156.5906249728054 166.88906239998755 L 155.62812497920822 167.2164063231903 L 155.25937500160654 167.54453114878856 L 154.7687499776017 168.03593748478454 L 153.43750000640284 168.8140625919914 L 152.96562503681054 169.1007811583928 L 152.3515625472064 169.34687498238634 L 151.63437506561166 169.51015628798632 L 150.9171875840053 169.6945311743882 L 149.79062497280538 169.94062499839345 L 148.43906252800952 169.55156254719475 L 147.66093742080267 169.63359375358561 L 145.98281256960473 169.87890626558806 L 145.38906255360925 170.26796871678675 L 144.81562501121078 170.69843742719388 L 143.91406243840464 171.7632813055883 L 143.60625008640346 172.11171880959296 L 143.2578125824104 172.4187500543892 L 142.9515624448075 172.7460937727941 L 142.41875005441253 173.31953131519253 L 141.90624993280508 173.81093744639077 L 141.4562500608037 174.36406251519224 L 140.90312499200226 175.06015621118718 L 139.61249996800908 176.0234375167871 L 139.10156247040723 176.39140618238594 L 138.15937495040708 176.82187509759092 L 136.992187596811 177.12890634238715 L 135.96718755840556 177.35390617599478 L 135.33281259520444 177.3335937023861 L 134.84062494720564 177.31328122878915 L 134.18593751040754 177.27265628159512 L 133.4078124032123 177.27265628159512 L 132.8953124864027 177.37499996159454 L 132.3828125696047 177.6203124735854 L 131.91250001920852 178.03046871038384 L 131.48281241600634 178.56249999358556 L 131.19531253760215 179.15625000959267 L 130.90937507840573 179.56640624639113 L 130.35625000960425 180.03749990399228 L 129.61875005441252 180.54921871358533 L 129.1687499776017 180.73359380478507 L 128.5734375424101 180.85624995839316 L 127.979687526403 180.89765621759 L 126.87343759360957 181.1632812031894 L 126.1375000576023 181.59374991358493 L 125.6249999360065 181.86015621118713 L 124.97031249920838 182.18749992959204 L 124.10937507840572 182.12578119678653 L 123.27031255040784 182.04453130238687 L 122.5734375424101 181.9421874175896 L 121.5703126016073 181.98281256959308 L 120.6890625024098 182.207812403189 L 119.76718745600665 182.678906265588 L 119.25624995840481 183.10937497599514 L 118.68281241600634 183.6007813119911 L 118.27343749121064 184.25625006079213 L 117.74062510080402 184.7679686655872 L 117.3515624448075 185.30078126079172 L 117.14687508480856 185.7921875967877 L 116.38906245121034 186.42734366719378 L 115.91718748160638 186.89765621759 L 115.46718740480719 188.475000012794 L 115.48750008320204 189.04843755519255 L 115.24218757121125 189.82656245758994 L 115.01562490881187 191.07578122238624 L 114.89375006720657 192.3046875135857 L 114.83281244160608 192.93984378878963 L 114.8109375488013 193.77890631678747 L 114.97499996160623 194.51640627199083 L 115.24218757121125 195.0695313407923 L 115.5906250752043 195.94999992318913 L 115.7124999168096 197.05625006079208 L 115.63125002240994 198.0390625279863 L 115.40624998400453 199.24765634558867 L 115.03750000640284 200.16875007998897 L 114.58593751040753 200.84453130238694 L 113.9109376000124 201.47968757759077 L 113.2953124864027 201.88906250238654 L 112.59999989761272 202.21718753279424 L 111.6578125824104 202.54453125118744 L 110.61250007040799 202.38124994558746 L 109.79375001600711 202.31953121279366 L 109.30156257280615 202.70859366399236 L 109.07656253441237 203.2820312063908 L 109.20000000001164 203.85546874878924 L 109.95781242881203 204.34687508478532 L 110.61250007040799 204.69531258879 L 110.96093757441267 205.22734366719374 L 110.65468743680977 205.94453114878854 L 109.99843758080388 206.14921871358524 L 109.34374993920792 206.14921871358524 L 108.87187496960397 206.35390627839365 L 108.50312499200227 206.94765629438916 L 107.99218749441206 207.50078115839278 L 107.37656258561182 207.95156254719473 L 106.70156247040723 208.299218739185 L 106.14843740160578 208.6890625023865 L 105.94375004160683 209.0781249535852 L 105.6359374848078 209.65156249598363 L 104.98125004800968 210.18359377918534 L 104.44843745280522 210.7164061695919 L 104.03906252800952 211.0640625663916 L 103.40468756480841 211.59687495678668 L 102.8921874432126 212.12968755199108 L 102.42187509760261 212.57968742399248 L 101.66406246400439 212.96875007998892 L 100.92656250881264 213.33750005759066 L 100.18906255360926 213.58359367678645 L 99.7375000576023 213.48124999678691 L 99.2265625600121 213.39921879038445 L 98.57031249920837 213.58359367678645 L 97.8953125888016 213.93125007358617 L 97.40312494080281 214.4234375167871 L 96.9734375424101 214.9148436479852 L 96.48125009920913 215.63125002238667 L 96.05156249600695 216.49140633598438 L 95.68281251840526 217.1882813439937 L 95.21249996800907 218.06874992639064 L 95.06875002880115 218.96953118719398 L 95.06875002880115 219.54296872959242 L 95.35624990720535 220.01406259199143 L 95.9093749760068 220.19843747839332 L 96.48125009920913 220.38281256959306 L 97.30156257280615 220.7515625471948 L 98.07968747520354 221.2835938303848 L 98.55000002561137 221.63203133438947 L 99.02187499520369 222.02109378558816 L 99.43124992001103 222.36953128959283 L 99.75937495040708 222.69687500798614 L 100.0453124096035 223.00390625279397 L 100.31093760001241 223.41406248959242 L 100.61874995200196 224.0281249791849 L 100.78281256960472 224.70390620159446 L 100.27031244800892 225.37968742399244 L 99.2265625600121 225.68749998079147 L 98.07968747520354 225.23671879678727 L 97.19843758080387 225.09296865279316 L 97.26093742080266 225.95312496639087 L 97.65000007681083 226.69062492159424 L 97.99687495680992 227.05937489918438 L 98.44843745280522 227.51015628798632 L 99.10312509440118 228.10390630399343 L 99.7171875840053 228.63593758719503 L 100.2499999744119 229.12812503038435 L 100.8843749376014 229.5578124287888 L 101.47968757760245 230.00859381759074 L 101.66406246400439 230.58203115519132 L 101.62187509760261 231.11406243839303 L 101.74531256320188 231.58515630079205 L 101.66406246400439 232.13828116478396 L 101.04843755520415 232.73203118079107 L 100.4953124864027 232.95781253118764 L 99.88124999681023 233.32578119678658 L 99.37031249920838 233.7562499071937 L 98.8578125824104 233.83828131839402 L 98.30468751360895 233.67421870079124 L 97.83437496321275 233.51015628798632 L 97.03437496321276 233.53125007358608 L 96.29687500800938 233.98124994558748 L 96.19531243520323 234.73906257918566 L 96.23593758720672 235.4359375871951 L 96.40000000001164 236.05000007678757 L 96.74843750400468 236.84843745279363 L 97.11718748160638 237.70859376639123 L 97.50624993280508 238.36406251519224 L 97.81250007040799 239.0398437375901 L 98.16093757441267 239.94140631038465 L 98.28437504001195 240.71953121279364 L 98.09999994881218 241.37499996159454 L 97.75156244480749 241.86640629759063 L 97.23906252800953 242.23515627519225 L 96.70781255681068 242.62421872639095 L 96.85000007681083 243.17734379519243 L 97.28125009920913 243.7914062847849 L 97.67031255040783 244.5695311871939 L 97.99687495680992 245.368750079989 L 98.34531246080296 245.98281256959308 L 98.59218759681099 246.5359374335851 L 98.81718743040692 247.5593750527944 L 99.06249994240935 248.3382812671946 L 99.39062497280538 248.99375001598378 L 99.67656243200182 249.56718755839393 L 100.0453124096035 250.36562493438828 L 100.4953124864027 251.34843740159408 L 100.80312504320173 252.0242188287899 L 100.96718745600666 252.4132812799886 L 101.23281244160607 253.130468761595 L 101.39687505920884 253.88828119038374 L 101.5203125248081 254.97343754238682 L 101.45781248001148 255.77187491839288 L 101.17187502080341 256.7554686975898 L 100.72187494400423 257.717968691187 L 100.20937502720626 258.51640627199083 L 99.90156247040723 259.15156254719477 L 100.27031244800892 259.62265620478433 L 101.0078124032123 259.99140618238596 L 101.54062499840511 260.5031249919906 L 101.84843755520414 261.19921868798554 L 102.40000000001164 261.79296870399264 L 103.01562490881187 262.2437500927947 L 103.40468756480841 263.10390620159455 L 103.54687508480856 263.86171883519273 L 103.58906245121034 264.5992187903845 L 103.54843750400468 265.1312500735861 L 103.3624999936088 265.786718822387 L 103.20000000001164 266.70859366399236 L 102.6671874048072 267.07734384639184 L 102.03281244160607 267.3437499391846 L 101.37656258561182 267.6710936575895 L 100.57812500480796 267.896093695995 L 99.86093752320157 268.01953116159416 L 98.48906240001088 268.5929687039927 L 97.48593745920807 269.1249999871943 L 96.70781255681068 269.7804687359836 L 96.17499996160623 270.49765621759 L 96.01093754880131 271.1523436543881 L 95.82656245760154 272.44296867839296 L 96.19531243520323 273.03671869438836 L 96.99375001600711 273.63046871038387 L 98.16093757441267 273.8765625343891 L 99.08281241600635 273.91718748159474 L 99.47187507200287 274.61406248959247 L 98.653125017602 275.26953123839337 L 97.23906252800953 275.26953123839337 L 96.13437501441221 275.5765624831896 L 95.70312499200227 275.9859374079854 L 95.70312499200227 276.92812492798544 L 96.44062494720565 277.8085937151918 L 97.25937500160653 278.56640634879 L 97.52656240640208 279.6109375487897 L 96.99375001600711 280.5328125951928 L 96.21562490881188 280.8195311615942 L 96.03125002240995 281.7406251007924 L 96.40000000001164 282.2320312319905 L 96.68593745920808 282.86718750719444 L 97.34218752001179 283.46093752318995 L 97.81250007040799 283.8093750271946 L 97.91562506241026 284.2804686847842 L 97.48593745920807 284.66953134079233 L 96.91249991680961 284.915624959988 L 96.42031247360865 285.36562503678726 L 96.05156249600695 285.7757812735857 L 95.62187509760261 286.3898437631899 L 95.29375006720656 286.90156257279455 L 94.86406246400438 287.45468743678646 L 94.55624990720534 287.94609377279414 L 94.08593756160698 288.4789061631891 L 94.12656250881264 288.97031249918507 L 94.12656250881264 289.4820313087897 L 94.08593756160698 290.1578125311877 L 94.18906255360926 290.8546875391854 L 94.43437506561168 291.48906250238656 L 94.74062499840511 292.02187509759096 L 94.86406246400438 292.6156249087886 L 95.29375006720656 293.33281259519276 L 95.74531256320188 294.13124997118723 L 95.9296874496038 294.56171868159436 L 96.33906257920898 294.8476563455886 L 96.80937492480734 295.2984375295928 L 97.21875005441252 295.91328133118805 L 97.40312494080281 296.30234378238674 L 97.07656253441237 296.6710937599885 L 96.23593758720672 296.95781253118764 L 95.88750008320203 297.40781240318904 L 93.79843747840496 298.4937500671949 L 92.93906247681007 299.02578135038493 L 90.31718748160638 300.82812497918496 L 90.03125002240995 301.97500006399355 L 90.01093754880131 302.75312496639094 L 89.94843750400469 303.61328127998854 L 89.64218757121125 304.06406246399274 L 89.00624998400454 304.53515632639176 L 88.39218749441207 305.12890634238715 L 87.49062492160593 305.57968752639135 L 86.75312496640254 305.7437499391847 L 85.91406243840466 305.86640629759063 L 85.23906252800953 306.1937500159838 L 84.1734375424101 306.82890629118776 L 83.57968752640299 307.4023438335862 L 83.12812503040769 308.1187500031898 L 82.47343759360956 309.12265625598377 L 82.08437493760138 310.1468749823864 L 81.40937502720627 311.08906250238647 L 80.91718758400529 311.6210937855882 L 80.32343756800984 312.35859374079155 L 79.38125004800968 313.1773437951924 L 79.032812544005 313.7101561855874 L 78.15312506880146 314.8367187967873 L 77.16874997760169 316.33125007358615 L 77.31249991680961 317.2531249151914 L 77.35312506880146 317.9492188159842 L 77.18906245121033 318.5226561535849 L 76.63750000640285 320.05859368959204 L 76.37031567360972 320.7757727743941 L 75.73593743360834 322.06562508798675 L 75.10156247040723 322.55781253118766 L 74.7109376000124 323.0289061887888 L 73.52343756800983 323.9093749759952 L 73.053125017602 324.25703116798536 L 71.7828124672058 324.8921874431893 L 70.96406241280492 325.0351562751923 L 70.30937497600681 325.0562500607921 L 69.91874990080251 324.9945313279866 L 69.4078124032123 324.7898437631899 L 68.7312500736094 324.58515619839307 L 68.1375000576023 324.42109378558814 L 67.68749998080311 324.2367186943884 L 67.13437491200166 324.0523438079865 L 66.54062510080402 323.9499999231891 L 65.22968739840435 324.03203133438944 L 64.69687500800937 324.0117186559946 L 64.0218750976026 324.0117186559946 L 63.037500006402844 324.2984374271939 L 62.17812500480795 324.9124999167864 L 61.74843740160577 325.5679686655873 L 60.970312499208376 325.99843758079226 L 60.37500006400514 326.0390625279863 L 59.45468743680976 326.1617186815944 L 58.69687500800937 326.18281246719414 L 58.02031247360865 326.0804687871947 L 57.078124953608494 326.12109373438875 L 56.56562503681052 326.3460937727941 L 56.23906242561061 326.7562500095926 L 56.34062499840511 327.3500000255881 L 57.017187532805835 328.189843660791 L 58.24531251200242 329.5820312575903 L 58.654687436809766 330.0945311743883 L 59.474999910406765 330.7289063423872 L 59.96562493441161 331.73281259519285 L 59.98593740800861 332.57187491839284 L 60.43749990400393 333.37109381118785 L 61.031249920011035 334.41562501118756 L 61.35937495040707 335.1117187071941 L 61.624999936006496 335.6445313023869 L 61.80937502720626 336.5656250367872 L 61.849999974411915 337.4257813503849 L 61.624999936006496 338.0812500991858 L 61.564062515203844 338.7984375807922 L 61.42031257600756 339.76093757438935 L 61.25624995840481 340.5796874239925 L 60.99062497280538 341.1742187519907 L 60.37656248320127 342.4640624639927 L 59.80312494080281 343.36484372478446 L 59.33124997121049 343.8570311679854 L 58.75781242881203 344.2664062975906 L 57.79531243520323 344.83984383998904 L 57.13906257920898 345.26953123839337 L 56.6890625024098 345.61796874238644 L 56.198437478404955 346.27343749118734 L 55.317187584005296 346.98984366079094 L 55.05156259840587 347.5023437823868 L 55.2156250112108 348.01406259199143 L 55.66562508800998 348.83359375358555 L 56.3203125248081 349.98046883839413 L 56.83281244160607 350.69687500798614 L 57.77499996160623 351.209374924784 L 59.14687508480856 351.5773437951924 L 60.8468750336091 351.8640625663917 L 62.30156247040723 352.21250007038475 L 63.77499996160623 352.70390620159446 L 64.63593758720671 353.0726561791846 L 65.43437496321276 353.5640625151922 L 66.1515624448075 354.2609375231899 L 66.64218746881234 355.2437499903841 L 67.09374996480764 356.2468749311869 L 67.07343749121064 356.79999999998836 L 66.66249994240934 357.25078118399256 L 66.00781250561121 357.4960936959949 L 65.3734375424101 357.94687508478523 L 64.65625006080373 358.49999994878885 L 63.85781248001149 358.8070311935851 L 63.6109375488013 359.25781258238715 L 64.00000000001164 360.03593748478454 L 64.67656253441237 360.95781253118764 L 64.9843750912114 361.48984381438936 L 65.92656240640208 362.4320313343894 L 66.7656249344116 363.660937420791 L 66.82656256001209 364.70546882558847 L 66.47812505600741 365.81093744639077 L 66.33593753600726 366.42578124798604 L 66.00781250561121 367.203906150395 L 65.7828124672058 367.94140631038465 L 65.90468751360895 368.7601561599877 L 66.253125017602 370.0093749247841 L 66.47812505600741 370.82890629118776 L 66.47812505600741 371.60703119358516 L 66.39687495680991 372.42656255998884 L 65.96718755840557 373.389062553586 L 65.7421875200118 373.8187499519903 L 65.57812490240903 374.65859379199105 L 65.53593753600725 375.2320313343895 L 65.8031249408028 376.23593758719505 L 65.65937500160653 376.93203128319 L 65.06562498561107 377.81250007038466 L 64.61562490881188 379.2664061951916 L 64.08281251840526 380.475000012794 L 63.489062502409794 381.3554687999888 L 62.52656250881264 382.23593758719505 L 61.99374991360819 382.9734375423868 L 61.584374988812485 383.99765626878946 L 60.68281241600634 386.29140623358546 L 60.17031249920838 388.03203133438944 L 60.00781250561122 388.74921881598425 L 59.82343741441146 389.6500000767876 L 59.78125004800968 390.3460937727941 L 59.843750092806296 390.94062510079243 L 60.293749964807645 391.6570312703843 L 61.19531253760215 391.90312509438957 L 62.03437506561168 391.90234378238677 L 62.75156254720641 391.9843749887892 L 63.734375014412215 392.4968749055872 L 63.63125002240995 393.3773436927935 L 63.67343759360956 394.01249996798583 L 64.10312499200226 395.05703116798543 L 65.25000007681084 396.3468750847853 L 65.7203124224092 396.89999994878895 L 66.70468751360895 397.88281241599475 L 66.68437504001194 398.49765621759 L 66.58125004800968 400.01249996798583 L 66.99062497280538 401.1804688383942 L 67.42031257600756 401.8148438015836 L 67.95312496640254 402.2250000383938 L 68.58749992960365 402.6546874367865 L 69.16093747200212 402.90078126079175 L 69.87812495360849 402.77734379519245 L 70.65625006080373 401.9992186879856 L 71.06718740480719 401.2828125183936 L 71.47656253441237 400.5656250367872 L 71.88593745920807 400.01249996798583 L 72.49999994881219 399.6445313023869 L 73.40156252160668 399.99218749438876 L 73.97500006400514 400.5250000895933 L 74.52812492800876 401.1187499007908 L 74.97812500480795 401.7124999167863 L 75.5109376000124 402.42968739839273 L 75.83750000640285 402.94140620798566 L 76.22656245760155 403.3101561855874 L 76.84218757121126 403.6374999039923 L 78.07031255040783 404.0273436671938 L 79.54531246080296 404.2320312319905 L 80.62968750080327 404.33437491199004 L 81.49062492160593 404.3750000639935 L 82.24843755520415 404.3953125375905 L 82.88281251840526 404.31406243839297 L 84.00937492480735 404.2320312319905 L 84.46093742080265 404.1085937663913 L 84.9312559104059 403.8835890175891 L 85.40312494080281 403.43281254399335 L 85.72968755200273 402.94140620798566 L 86.34375004160684 402.38828134399375 L 86.99999989761272 402.1226561535848 L 87.98281256960472 402.1429688319913 L 89.12968744960381 402.40937492478406 L 89.92812503040768 402.3679686655872 L 90.60468756480842 402.45000007678755 L 91.50468751360896 402.63437496318943 L 92.18125004800967 402.6749999103952 L 93.57343744001119 402.69609369599493 L 94.51562496001134 402.7570313215838 L 96.03125002240995 402.96171868159433 L 97.56718755840556 403.26953123839337 L 98.28437504001195 403.4531250175903 L 99.14375004160684 403.94531246079134 L 100.08593756160698 404.80546877438906 L 100.78281256960472 405.58359367678645 L 101.13125007360941 406.075000012794 L 101.41718753280584 406.58671882238707 L 101.80624998400454 407.32421877759043 L 102.19531243520323 408.18437509118814 L 102.46250004480825 408.9828124671942 L 102.52343746561091 409.5976562687895 L 102.76874997760169 410.47812505598415 L 102.9734375424101 411.5023437823868 L 103.09687500800938 412.56718745599505 L 103.22031247360864 413.2429686783929 L 103.38437509121141 414.062500044785 L 103.60937492480734 414.90156257279455 L 103.93593753600726 415.45468743678646 L 104.5718749184045 415.74140620798573 L 105.2265625600121 415.55703132158374 L 105.6578125824104 415.4343749631895 L 106.22968750080327 415.209374924784 L 106.72187494400423 414.840624947194 L 107.25468753920867 414.69687500798614 L 107.9093749760068 414.7585937407915 L 108.48281251840527 415.00390625279397 L 108.8109375488013 415.4343749631895 L 108.93437501441221 415.9664062463911 L 109.05625006080372 416.5195313151926 L 109.09687500800938 417.3390624767868 L 109.07656253441237 418.23984373759015 L 108.8921874432126 418.89531248639105 L 108.70781255681068 419.34609367039525 L 108.46250004480825 419.81718753279415 L 108.03281244160607 420.4312500223866 L 107.64374999040737 420.92265615358485 L 107.19218749441207 421.33281259519276 L 106.72187494400423 421.90624993279346 L 106.37343744001119 422.4796874751919 L 106.31250001920853 422.8687499263906 L 106.37343744001119 423.31875000318973 L 106.55781253121094 423.7898436607909 L 106.80312504320173 424.5476562943892 L 107.31562496001133 425.38749992959197 L 107.97187502080342 426.00156241918444 L 108.6671874048072 426.5757812735858 L 109.0984374272055 426.8828125183936 L 109.46562498561107 427.18984376318986 L 109.75312506880145 427.5382812671945 L 109.93749995520338 428.1929687039926 L 109.99843758080388 429.05390632959313 L 109.95781242881203 429.6882812927943 L 109.91718748160638 430.15937495038384 L 109.81406248960411 430.9992187903845 L 109.73281259520445 431.79765616639054 L 109.62968739840434 432.39140618238594 L 109.50781255681068 433.2312500223867 L 109.48750008320204 433.6820312063908 L 109.40468756480841 434.603906252794 L 109.42500003840541 435.3406251007924 L 108.74999992321246 441.3210937343887 L 107.33593743360834 442.6320312319906 L 105.96406251520384 443.79921879038443 L 104.71562506241025 444.84374999038414 L 104.20312494080281 445.2734375935863 L 103.71093749760185 445.70390630399345 L 103.11718748160638 446.0109375487897 L 102.68750008320202 446.19531243519157 L 102.15468748800922 446.42031247358534 L 100.94687498240964 446.9328125951928 L 100.31093760001241 447.1984375807922 L 99.84062504960457 447.60859381759076 L 99.20625008640346 448.32499998719436 L 98.61250007040799 449.1242186751915 L 98.2640625664033 449.6156250111875 L 97.8953125888016 450.2093750271946 L 97.21875005441252 450.8031250431901 L 96.42031247360865 451.3968750591855 L 96.01093754880131 452.1140625407919 L 95.9296874496038 453.1789062143886 L 95.88750008320203 454.2031249407912 L 95.76562503681052 455.10390620159455 L 95.88750008320203 455.82109368318925 L 96.27656253441236 456.5789063167874 L 96.60468756480842 457.3156249599881 L 96.78906245121034 458.3804688383941 L 96.82968739840435 459.3437499391846 L 96.05156249600695 459.36406241279326 L 95.45781248001148 459.36406241279326 L 94.43437506561168 459.3843750911881 L 94.39374991360819 460.06015631358605 L 94.39374991360819 460.7562500095926 L 92.50937507840572 460.8796874751919 L 91.89374996480765 460.8796874751919 L 89.1906250752043 460.89999994878895 L 89.1906250752043 462.3742187519907 L 86.24218746881233 462.3742187519907 L 85.66874992640223 462.5789063167874 L 85.64843745280523 463.5421874175896 L 85.4640625664033 463.88984381438934 L 84.82812497920823 463.88984381438934 L 78.88906240001089 464.25859379199096 L 78.70468751360895 464.97578127358577 L 78.31562506241025 465.26250004478493 L 77.7421875200118 465.1804688383942 L 77.12812503040769 465.0781249535852 L 76.22656245760155 464.9546874879859 L 75.65312471040525 464.85234483198724 L 74.95781253121095 464.64765624318966 L 74.46562508800999 464.58671882238707 L 73.89218754561152 464.5250000895933 L 73.19687495680992 464.48359383038473 L 72.56093757441268 464.44296867839296 L 71.66093742080265 464.299218739185 L 70.65625006080373 464.1562499071937 L 69.8984374272055 464.11562495998805 L 69.34531256320187 464.0945311743883 L 68.62968750080327 464.0742187007912 L 67.99374991360818 464.01249996798583 L 67.17500006400515 463.86953134079226 L 66.35625000960427 463.6851562495925 L 65.61875005441252 463.5007811583928 L 64.67656253441237 463.3781250047847 L 63.8984374272055 463.33671874558786 L 63.36562503681053 463.0296875007916 L 63.05781248001149 462.7843749887892 L 62.66875002880115 462.55859384319047 L 62.17812500480795 462.2312499199877 L 61.584374988812485 461.82187499519205 L 60.950000025611374 461.8007812095923 L 60.478125056007414 462.29218754558826 L 59.98593740800861 463.0296875007916 L 59.53593753600726 463.82812508158383 L 59.04375009280629 464.21796884478533 L 58.61406248960411 464.60703129598403 L 58.26562498561107 465.24140625918517 L 58.02031247360865 465.95859374079157 L 57.81562490881188 466.57265623038404 L 57.50781255681068 467.04375009279465 L 55.992187494412065 467.3101561855874 L 55.46093752320157 467.3507813375909 L 53.904056320001835 467.45350963198575 L 51.037500006402844 467.61718743038364 L 25.43685632001143 469.39910963198633 L 19.885937459208073 469.8085937151918 L 18.596536320005544 469.89062963199103 L 16.32343756800983 470.0335937535856 L 9.032376320008188 470.5255096319946 L 3.912500019208528 470.8531249151914 L 0.0 471.08910953018346" fill="none"/><path stroke="#408040" stroke-width="3" d="M 991.6006400000012 20.041727999999466 L 991.5494399999995 20.033535999999685 L 991.528959999999 20.146176000000537 L 991.3098239999993 20.11955199999943 L 990.584831999999 20.035584000000426 L 989.0406400000007 19.853311999999278 L 986.394623999999 19.539968000000272 L 986.3106559999985 19.527680000000714 L 986.2225919999997 19.50310400000012 L 986.1386239999993 19.466240000000084 L 986.0935679999996 19.437567999999715 L 986.028031999999 19.384320000000343 L 985.9809279999987 19.339264000000526 L 985.9522560000012 19.294207999999344 L 985.8908159999992 19.204095999999822 L 985.8252799999988 19.099648000000116 L 985.6593920000014 19.165184000000636 L 985.587711999999 19.193855999999528 L 985.4709759999998 19.236864000000082 L 985.2538880000008 19.322879999999714 L 985.2129279999994 19.3372159999999 L 985.1330560000002 19.35974399999975 L 984.997888000001 19.386367999999493 L 984.9241600000008 19.396607999999787 L 984.7398400000005 19.402752000000305 L 984.5800959999993 19.39865600000053 L 984.4121600000013 19.38841600000012 L 984.3466240000009 19.382271999999602 L 984.3077120000002 19.39251200000001 L 984.1950719999993 19.378175999999826 L 984.0906240000011 19.365888000000268 L 983.973887999999 19.353599999999233 L 983.8653439999995 19.339264000000526 L 983.6728319999995 19.316736000000674 L 983.5048959999986 19.29625599999997 L 982.9662719999993 19.234815999999455 L 982.2760960000014 19.1528959999996 L 980.6684160000004 18.962432000000263 L 977.9671039999987 18.64294400000074 L 976.4106239999994 18.46067199999959 L 976.1607679999986 18.42585600000018 L 975.9682559999986 18.393088000000034 L 975.761408 18.354175999999256 L 975.5299839999992 18.30707200000029 L 975.3456639999989 18.262016000000585 L 975.0405120000011 18.180095999999367 L 974.7087360000005 18.079743999999437 L 974.4793600000005 17.999872000000323 L 974.2315520000004 17.905663999999547 L 974.010368 17.815552000000025 L 973.8158079999994 17.729536000000394 L 973.625344 17.639423999999394 L 973.3939199999993 17.522688000000244 L 973.1358719999989 17.389568000000168 L 972.7713279999996 17.184768000000645 L 972.4559360000014 16.99839999999972 L 972.0709120000014 16.750591999999642 L 971.8538239999995 16.60313599999938 L 971.6060159999994 16.431104000000005 L 970.9506560000009 15.974400000000628 L 970.1519360000005 15.417343999999844 L 968.6814719999995 14.393343999999388 L 968.3251199999999 14.145536000000675 L 968.2411519999994 14.082047999999531 L 968.1653759999987 14.018559999999752 L 968.0363520000013 13.89977599999986 L 967.9196159999992 13.772800000000302 L 967.815168000001 13.637631999999599 L 967.6001279999997 13.342720000000554 L 967.4792959999992 13.195264000000293 L 967.3523199999996 13.049856000000773 L 966.9857279999997 12.673024000000396 L 966.8812800000014 12.568575999999325 L 966.803456 12.494848000000616 L 966.7112959999998 12.417024000000652 L 966.6273279999994 12.353535999999394 L 966.5454079999996 12.296192000000133 L 966.4143359999987 12.214272000000392 L 966.2320639999991 12.115967999999725 L 966.0805120000005 12.046335999999428 L 965.9617280000006 11.999232000000461 L 965.4784000000014 11.79852799999935 L 964.5445119999989 11.411456000000157 L 962.8794880000002 10.719232000000147 L 959.6907520000008 9.39827200000002 L 959.4531840000011 9.299967999999353 L 959.3098239999993 9.246719999999868 L 959.199231999999 9.209855999999832 L 959.0497280000011 9.168895999999904 L 958.9309440000012 9.144319999999425 L 958.7752960000013 9.121791999999573 L 958.6790399999998 9.109504000000015 L 958.5274880000012 9.101312000000348 L 958.3759359999997 9.099263999999721 L 958.2940159999998 9.101312000000348 L 958.1301760000002 9.113599999999906 L 957.9110400000005 9.146368000000052 L 957.6755200000014 9.19142399999987 L 957.4748159999988 9.230336000000534 L 957.2782080000004 9.261056000000053 L 957.0877440000011 9.283584000000019 L 956.8727039999998 9.299967999999353 L 956.7027200000011 9.306111999999871 L 956.4282880000013 9.306111999999871 L 955.4165760000003 9.306111999999871 L 954.9537279999989 9.306111999999871 L 954.5461760000005 9.299967999999353 L 954.370048 9.289728000000423 L 954.1099519999989 9.261056000000053 L 953.8396160000004 9.22009600000024 L 953.5733760000003 9.177087999999685 L 953.0920959999988 9.099263999999721 L 952.7971840000013 9.054207999999903 L 952.5022720000009 9.007103999999572 L 952.0721920000011 8.939519999999902 L 951.6687360000011 8.876032000000123 L 951.2919040000008 8.814591999999493 L 950.5320960000012 8.693760000000452 L 949.6125440000003 8.548351999999454 L 947.7283839999989 8.247295999999892 L 946.4442879999988 8.044543999999632 L 945.7254400000005 7.925759999999741 L 945.1540479999996 7.83974400000011 L 943.9436799999996 7.647232000000031 L 943.0343679999991 7.50387199999966 L 941.2055040000007 7.215103999999656 L 939.3029119999992 6.914048000000207 L 937.5621119999996 6.635520000000497 L 936.6016000000003 6.483968000000459 L 936.1633280000009 6.412287999999535 L 935.591936 6.3242240000006404 L 935.1434240000002 6.262784000000124 L 934.852608000001 6.227968000000715 L 934.580223999999 6.199296000000345 L 934.3098880000005 6.174719999999752 L 934.0825600000011 6.158336000000418 L 933.6913919999992 6.135808000000566 L 932.6223360000004 6.084608000000344 L 930.7955199999997 6.002688000000489 L 929.7346560000005 5.959679999999935 L 929.3250559999985 5.9351039999994555 L 929.1857920000009 5.931007999999565 L 928.9420799999992 5.922815999999898 L 928.5345280000008 5.900288000000046 L 927.0640639999998 5.834751999999526 L 925.423616 5.761023999999452 L 922.7857920000009 5.6422399999995605 L 922.3127039999993 5.621760000000336 L 921.9891200000013 5.605375999999524 L 921.4996480000002 5.584896000000299 L 920.2831360000012 5.53164799999945 L 919.8039040000003 5.507072000000335 L 919.3983999999997 5.480448000000592 L 919.1546880000009 5.45996799999989 L 918.745087999999 5.416959999999335 L 918.2945280000015 5.359616000000074 L 917.8972160000005 5.300224000000185 L 917.633024000001 5.25721599999963 L 917.2131839999987 5.177344000000403 L 916.8179200000013 5.093376000000035 L 916.2772480000015 4.964351999999735 L 915.7775359999999 4.8291840000005095 L 915.2532479999994 4.6673920000000635 L 914.8784639999998 4.544512000000395 L 914.4299520000001 4.3909119999996165 L 913.6660479999991 4.130816000000095 L 913.0434559999994 3.9178239999994275 L 911.190015999999 3.2849919999993062 L 909.0273279999994 2.547711999999592 L 908.6525439999998 2.416640000000143 L 908.5419519999996 2.377727999999479 L 908.2736639999988 2.293760000000475 L 907.8804479999992 2.154495999999881 L 907.5834880000009 2.0520959999994375 L 906.4529920000001 1.6670719999995072 L 906.0044800000003 1.5155199999993556 L 905.5825920000003 1.3680640000005724 L 905.3081600000005 1.2800000000003138 L 904.7347199999989 1.0792960000005678 L 903.989248000001 0.8253440000000865 L 902.5658880000003 0.3399680000002263 L 901.5696751498268 0.0" fill="none"/><path stroke="#408040" stroke-width="3" d="M 1024.0 1.9542556981134567 L 1022.5192959999986 2.2056960000002164 L 1019.3838079999987 2.76070400000026 L 1017.7024000000005 3.0576639999999315 L 1014.4337919999991 3.6351999999999407 L 1011.1569920000009 4.216831999999727 L 1009.6701440000004 4.478975999999989 L 1008.6830080000015 4.657151999999769 L 1007.9477760000009 4.827135999999882 L 1007.0466560000001 5.0974719999998115 L 1006.153727999999 5.439488000000665 L 1005.445120000001 5.769216000000597 L 1004.769279999999 6.1419519999996055 L 1004.1466879999992 6.543360000000348 L 1003.5200000000011 7.0082559999995055 L 1002.9506560000009 7.491584000000103 L 1001.9348479999986 8.372224000000301 L 999.604224000001 10.38950400000033 L 998.4634879999998 11.378688000000011 L 998.207488 11.61420800000053 L 997.9576319999993 11.88659199999961 L 997.7262079999986 12.183551999999281 L 997.4763520000008 12.57267200000058 L 997.3125120000011 12.910592000000179 L 997.1630080000002 13.30380799999989 L 996.9070080000005 13.979648000000452 L 996.587520000001 14.585855999999353 L 996.1717759999999 15.192063999999618 L 995.6945919999998 15.745024000000512 L 995.1293440000009 16.265215999999782 L 994.6972160000005 16.59699200000034 L 994.3347199999989 16.8386559999999 L 993.9087360000005 17.09055999999987 L 993.4766080000002 17.311744000000203 L 992.9379840000008 17.50220799999954 L 992.7495679999993 17.53292800000054 L 992.4526080000011 17.4960640000005 L 992.2805759999989 17.43462399999987 L 992.204800000001 17.506303999999318 L 992.1167359999993 17.59436799999969 L 991.8996480000002 17.85856000000058 L 991.7440000000003 18.153471999999624 L 991.6600319999998 18.40742400000022 L 991.633408 18.62041599999941 L 991.6231679999997 19.60550400000068 L 991.5699200000003 19.916800000000535 L 991.5494399999995 20.033535999999685 L 991.6006400000012 20.041727999999466" fill="none"/><path stroke="#408040" stroke-width="3" d="M 176.7281180394988 0.0 L 175.35385599999864 7.35846400000014 L 173.10105599999952 19.820544000000496 L 173.1645439999993 21.70060800000067 L 173.84447999999975 22.931455999999912 L 174.26636799999977 23.812095999999997 L 174.45273600000073 25.145343999999795 L 174.70259199999856 28.835839999999735 L 175.10604799999857 34.861056000000076 L 174.96063999999896 36.80665600000066 L 174.4732160000014 38.38566399999979 L 172.95974400000122 40.816640000000234 L 169.84268800000137 43.417600000000675 L 166.189056 46.02880000000005 L 159.6047359999997 50.651136000000406 L 154.68748799999884 53.2439039999997 L 150.9703680000006 54.61401599999954 L 147.10374399999856 55.14444800000058 L 142.31142399999953 55.28166400000043 L 134.623232000001 55.49670400000036 L 123.79545600000128 55.92883200000074 L 113.45920000000042 57.137152000000015 L 107.54867199999862 57.66758399999958 L 104.0343040000007 57.95020800000054 L 102.29555199999886 57.7331200000001 L 98.00908800000033 57.90105599999947 L 96.96665600000124 57.83142400000065 L 95.85049599999911 57.42592000000002 L 94.18956799999869 56.48793600000067 L 93.03859200000007 55.5028479999994 L 91.79750399999902 54.03033600000049 L 89.25798399999913 50.99110400000063 L 86.26995199999946 47.29241599999955 L 84.73395200000087 42.71718399999952 L 83.51539200000116 38.854656000000205 L 82.79859200000064 36.67353600000058 L 81.71520000000018 34.7484160000007 L 79.95801600000122 33.515519999999356 L 78.99135999999999 31.55763199999933 L 74.64550400000007 28.620799999999917 L 70.32627199999988 25.69830400000069 L 68.18611199999869 24.28723199999945 L 66.5907199999987 23.617535999999404 L 62.78963199999998 22.384639999999536 L 61.427712000001335 22.177791999999272 L 56.67840000000142 23.502847999999403 L 51.27577600000077 24.711168000000157 L 49.27897600000142 24.911871999999903 L 45.83628800000006 24.01075200000048 L 43.64492800000007 24.004607999999962 L 42.491904000000794 24.299520000000484 L 39.1720960000006 25.339904000000388 L 33.62815999999875 26.916864000000373 L 31.905791999999202 27.082752000000596 L 30.572544000000924 27.5251199999999 L 28.919808000000195 28.44876800000054 L 26.773503999999956 28.87270399999977 L 23.932928000000537 29.35603200000037 L 22.059007999999448 29.607936000000336 L 19.970047999999952 29.386752 L 17.111040000000504 29.083647999999812 L 14.866432000001078 29.222912000000406 L 7.514111999998567 31.270911999999953 L 0.0 33.35393798480948" fill="none"/><path stroke="#408040" stroke-width="3" d="M 1024.0 586.9851337950328 L 1019.3203199999989 591.3661439999996 L 1010.405376000001 599.8858240000002 L 1001.4883839999995 609.6527359999993 L 984.215552 617.2160000000003 L 973.7687039999989 620.8839679999998 L 964.2065919999993 619.0407679999996 L 945.3424640000012 621.9182079999998 L 898.0131839999988 615.3093119999997 L 884.3939840000006 613.9105280000003 L 870.8567039999995 604.983296 L 850.554879999999 592.3409920000006 L 835.383296 580.7656959999993 L 824.9466879999993 575.8627840000001 L 822.6754560000002 566.8945919999999 L 811.0387199999998 551.5243520000004 L 789.6043520000006 530.3111680000002 L 765.5280640000012 512.9748479999995 L 749.3017599999991 492.4579840000006 L 721.0516479999991 470.3088640000002 L 691.9987200000003 454.97139199999947 L 679.5591680000013 446.61350399999935 L 669.1594240000006 444.18867199999954 L 625.3322240000009 444.7457280000002 L 542.013440000001 440.1950719999993 L 497.5595520000003 428.83481599999936 L 474.0648959999991 424.24524800000074 L 460.70374399999855 421.3411840000001 L 445.24134400000037 424.0281600000002 L 426.14169600000025 426.60864000000004 L 410.24102399999975 429.3345279999994 L 348.30540800000017 441.69011199999954 L 311.0604800000001 446.51315199999954 L 293.88185600000145 453.07494399999996 L 254.70361599999887 466.02649600000007 L 209.13766400000023 473.1310079999996 L 177.28102399999915 478.4353279999996 L 164.49945599999918 481.4274560000006 L 151.67692800000077 478.9800959999993 L 140.3883520000003 477.5669760000004 L 134.16038399999962 479.3118719999999 L 100.00588799999969 475.34899200000075 L 82.40127999999967 472.6374400000001 L 78.4650239999988 465.32403199999976 L 58.57689599999867 462.2069759999998 L 28.42214399999939 459.974656 L 13.146111999999267 469.03705599999955 L 0.0 469.22596308033246" fill="none"/></svg>