<svg xmlns="http://www.w3.org/2000/svg" width="1024" height="1024"><rect stroke="none" x="0" y="0" width="1024" height="1024" fill="white"/><path stroke="#000000" stroke-width="2" d="M 485.07040542471805 0.0 L 485.1718748160638 12.789062655938324 L 485.1718748160638 19.03515647992026 L 485.2734371840488 24.664062975964043 L 485.2734371840488 33.88281241594814 L 485.38281267206185 45.76171827194048 L 485.38281267206185 53.33984358393354 L 485.2734371840488 56.4101560319541 L 485.2734371840488 63.88671897596214 L 485.2812503040186 67.87890585593414 L 485.2734371840488 74.84375039994484 L 485.2734371840488 90.20312473597005 L 485.38281267206185 94.60546867194353 L 485.2734371840488 107.816406015947 L 485.38281267206185 122.76562534394907 L 485.48437504004687 127.98828134394716 L 485.38281267206185 138.2265620479593 L 485.5859374080319 149.4921871359693 L 485.6874997760169 151.74609407992102 L 485.6874997760169 182.46484377596062 L 485.5859374080319 187.07421900791815 L 485.5859374080319 191.26953164796578 L 485.38281267206185 197.7226557439426 L 485.2734371840488 210.72656281595118 L 485.38281267206185 223.62890649592737 L 485.2812503040186 227.7265623039566 L 485.2734371840488 235.30078105593566 L 485.2734371840488 240.01171865593642 L 485.38281267206185 256.0898437119322 L 485.2734371840488 269.4023434239207 L 485.1718748160638 272.47265587194124 L 485.1718748160638 284.25000038393773 L 485.07031244802056 287.4257817599573 L 485.07031244802056 298.9960939519224 L 485.1718748160638 302.47656243195524 L 485.1718748160638 313.12500019196887 L 485.07031244802056 317.3242183679249 L 484.96875008003553 328.1796874239226 L 484.96875008003553 333.81250047992216 L 485.07031244802056 343.84765644796425 L 484.96875008003553 355.62109337595757 L 485.07031244802056 358.38671871996485 L 485.07031244802056 360.9492183039547 L 485.2812503040186 372.0078120959224 L 485.2812503040186 383.6796876799199 L 485.38281267206185 387.3671874559368 L 485.2734371840488 390.74609356792644 L 485.2734371840488 401.70312499196734 L 485.1718748160638 404.98046873597195 L 485.1718748160638 416.65234329592204 L 485.07031244802056 420.5429688319564 L 485.07031244802056 446.453125119966 L 484.8671877120505 458.43359334394336 L 484.96875008003553 460.9921873919666 L 484.8671877120505 464.2695311359712 L 485.07031244802056 475.83984332793625 L 484.96875008003553 490.9960939519224 L 485.07031244802056 506.3554682879476 L 485.07031244802056 511.47656294394983 L 484.7656253440655 520.2812497919658 L 484.96875008003553 522.7382814719458 L 484.8671877120505 536.0507811839343 L 484.66406297602225 542.5039063039585 L 484.56249958404806 550.6953123839339 L 484.3593748480198 564.6210938879522 L 484.25000038405415 569.535156223923 L 484.14843699202174 580.6992189439479 L 483.9453122560517 588.277344255941 L 483.9453122560517 592.4726558719412 L 483.84374988806667 595.3398435839335 L 483.84374988806667 604.1484369919635 L 483.42968729604036 618.4843745279359 L 483.32812492805533 625.9570309119299 L 483.2265625600121 638.554687487951 L 483.2265625600121 644.0820316159516 L 483.02343782404205 655.3476567039615 L 482.921875456057 659.5468748799176 L 482.8203120640246 664.2578124799184 L 482.7187496960396 670.7070310399286 L 482.51562496001134 685.2499998719431 L 482.20312473602826 700.1992191999452 L 482.0000000000582 713.921874943946 L 481.79687526402995 725.082031103957 L 481.79687526402995 730.5078128639725 L 481.6953128960449 735.1171870719409 L 481.6953128960449 744.3320309759583 L 481.4921871360275 750.8867184639676 L 481.2812503040186 766.7578122239211 L 481.0781245440594 782.3242188799195 L 480.97656217601616 790.5156249599531 L 480.87499980803113 797.9921879039612 L 480.7734374400461 804.1328127999441 L 480.6718750720611 812.5312501759618 L 480.6718750720611 819.8007807999384 L 480.57031270401785 821.85156300792 L 480.46093721606303 824.7187496959232 L 480.46093721606303 827.5859374079737 L 480.15625011204975 849.9062497279374 L 479.9531253760215 857.9960934399278 L 479.85156300803646 864.8593745919643 L 479.85156300803646 872.4374999039574 L 479.64843724801904 876.9414062079741 L 479.64843724801904 887.7968752639717 L 479.5390627840534 903.2578129919712 L 479.43750041601015 912.5781247999403 L 479.43750041601015 918.1054689279408 L 479.33593702403596 925.7851566079189 L 479.23437465605093 932.9531248639687 L 479.23437465605093 940.8398438399308 L 479.1328122880659 955.9921879039612 L 479.0312499200227 963.7773434879491 L 478.92968755203765 977.292968959955 L 478.92968755203765 993.7812500479631 L 478.8281251840526 1008.4218746879487 L 478.92968755203765 1012.1093754879548 L 478.92968755203765 1024.0" fill="none"/><path stroke="#000000" stroke-width="2" d="M 478.92968755203765 1024.0 L 478.92968755203765 1012.1093754879548 L 478.8281251840526 1008.4218746879487 L 478.92968755203765 993.7812500479631 L 478.92968755203765 977.292968959955 L 479.0312499200227 963.7773434879491 L 479.1328122880659 955.9921879039612 L 479.23437465605093 940.8398438399308 L 479.23437465605093 932.9531248639687 L 479.33593702403596 925.7851566079189 L 479.43750041601015 918.1054689279408 L 479.43750041601015 912.5781247999403 L 479.5390627840534 903.2578129919712 L 479.64843724801904 887.7968752639717 L 479.64843724801904 876.9414062079741 L 479.85156300803646 872.4374999039574 L 479.85156300803646 864.8593745919643 L 479.9531253760215 857.9960934399278 L 480.15625011204975 849.9062497279374 L 480.46093721606303 827.5859374079737 L 480.46093721606303 824.7187496959232 L 480.57031270401785 821.85156300792 L 480.6718750720611 819.8007807999384 L 480.6718750720611 812.5312501759618 L 480.7734374400461 804.1328127999441 L 480.87499980803113 797.9921879039612 L 480.97656217601616 790.5156249599531 L 481.0781245440594 782.3242188799195 L 481.2812503040186 766.7578122239211 L 481.4921871360275 750.8867184639676 L 481.6953128960449 744.3320309759583 L 481.6953128960449 735.1171870719409 L 481.79687526402995 730.5078128639725 L 481.79687526402995 725.082031103957 L 482.0000000000582 713.921874943946 L 482.20312473602826 700.1992191999452 L 482.51562496001134 685.2499998719431 L 482.7187496960396 670.7070310399286 L 482.8203120640246 664.2578124799184 L 482.921875456057 659.5468748799176 L 483.02343782404205 655.3476567039615 L 483.2265625600121 644.0820316159516 L 483.2265625600121 638.554687487951 L 483.32812492805533 625.9570309119299 L 483.42968729604036 618.4843745279359 L 483.84374988806667 604.1484369919635 L 483.84374988806667 595.3398435839335 L 483.9453122560517 592.4726558719412 L 483.9453122560517 588.277344255941 L 484.14843699202174 580.6992189439479 L 484.25000038405415 569.535156223923 L 484.3593748480198 564.6210938879522 L 484.56249958404806 550.6953123839339 L 484.66406297602225 542.5039063039585 L 484.8671877120505 536.0507811839343 L 484.96875008003553 522.7382814719458 L 484.7656253440655 520.2812497919658 L 485.07031244802056 511.47656294394983 L 485.07031244802056 506.3554682879476 L 484.96875008003553 490.9960939519224 L 485.07031244802056 475.83984332793625 L 484.8671877120505 464.2695311359712 L 484.96875008003553 460.9921873919666 L 484.8671877120505 458.43359334394336 L 485.07031244802056 446.453125119966 L 485.07031244802056 420.5429688319564 L 485.1718748160638 416.65234329592204 L 485.1718748160638 404.98046873597195 L 485.2734371840488 401.70312499196734 L 485.2734371840488 390.74609356792644 L 485.38281267206185 387.3671874559368 L 485.2812503040186 383.6796876799199 L 485.2812503040186 372.0078120959224 L 485.07031244802056 360.9492183039547 L 485.07031244802056 358.38671871996485 L 484.96875008003553 355.62109337595757 L 485.07031244802056 343.84765644796425 L 484.96875008003553 333.81250047992216 L 484.96875008003553 328.1796874239226 L 485.07031244802056 317.3242183679249 L 485.1718748160638 313.12500019196887 L 485.1718748160638 302.47656243195524 L 485.07031244802056 298.9960939519224 L 485.07031244802056 287.4257817599573 L 485.1718748160638 284.25000038393773 L 485.1718748160638 272.47265587194124 L 485.2734371840488 269.4023434239207 L 485.38281267206185 256.0898437119322 L 485.2734371840488 240.01171865593642 L 485.2734371840488 235.30078105593566 L 485.2812503040186 227.7265623039566 L 485.38281267206185 223.62890649592737 L 485.2734371840488 210.72656281595118 L 485.38281267206185 197.7226557439426 L 485.5859374080319 191.26953164796578 L 485.5859374080319 187.07421900791815 L 485.6874997760169 182.46484377596062 L 485.6874997760169 151.74609407992102 L 485.5859374080319 149.4921871359693 L 485.38281267206185 138.2265620479593 L 485.48437504004687 127.98828134394716 L 485.38281267206185 122.76562534394907 L 485.2734371840488 107.816406015947 L 485.38281267206185 94.60546867194353 L 485.2734371840488 90.20312473597005 L 485.2734371840488 74.84375039994484 L 485.2812503040186 67.87890585593414 L 485.2734371840488 63.88671897596214 L 485.2734371840488 56.4101560319541 L 485.38281267206185 53.33984358393354 L 485.38281267206185 45.76171827194048 L 485.2734371840488 33.88281241594814 L 485.2734371840488 24.664062975964043 L 485.1718748160638 19.03515647992026 L 485.1718748160638 12.789062655938324 L 485.07040542471805 0.0" fill="none"/></svg>