<svg xmlns="http://www.w3.org/2000/svg" width="1024" height="1024"><rect stroke="none" x="0" y="0" width="1024" height="1024" fill="white"/><path stroke="#000000" stroke-width="2" d="M 0.0 790.4207553142187 L 1.8046873600687832 791.1171870719409 L 4.816281600040384 792.768348159967 L 7.57812531205127 793.9960934399278 L 14.132812800060492 796.7617187839351 L 18.94531276804628 798.6054686719435 L 21.632812032068614 800.6875002879533 L 21.929687040043063 801.082031103957 L 24.642188288038597 801.7944504319457 L 25.296281600021757 801.9843481599237 L 28.164062208030373 804.1367183359689 L 32.562499584048055 805.5703121919651 L 35.125347328023054 807.4105876479298 L 35.754721280012745 808.1965977599612 L 36.06755328003783 808.7893299199641 L 36.289297408016864 808.8648181759636 L 37.58428160002222 810.4835481599439 L 38.63959040003829 811.7147422719281 L 39.109374976018444 812.656249855936 L 39.73437542404281 813.3984378879541 L 40.96093798405491 813.8242191359168 L 42.7457638400374 813.5438827519538 L 42.909081600024365 813.5555481599295 L 43.13281228806591 813.4843750399305 L 43.861329920066055 813.3688934399397 L 45.73867008002708 812.6577766399714 L 45.867591680027544 812.6249605119228 L 47.8246983680292 812.4300287999213 L 48.27117158402689 813.3725829119212 L 48.74218700802885 814.3750000639702 L 48.96770764805842 814.7074867199408 L 48.83593728003325 815.1054684159462 L 49.067846656020265 815.9485542399343 L 49.20889344002353 816.4693299199571 L 50.40355328004807 817.1519999999437 L 50.406250496045686 817.1523440639721 L 51.54132992005907 817.0097766399267 L 53.73437542404281 815.644531711936 L 53.95610931201372 815.5251916799461 L 59.80508160003228 813.1459481599741 L 61.99266816006275 814.4971038719523 L 62.09375027206261 814.5937500159489 L 63.45955328003038 815.5306700799265 L 64.09849753603339 815.8159103999496 L 65.84374988806667 816.9335941119352 L 67.20312524802284 818.4374999039574 L 67.46874982403824 819.0585937919677 L 68.45041664002929 819.4142156799207 L 72.29550899204332 821.3367623679223 L 71.73437542404281 821.6757811199641 L 73.27343718404882 822.6992189439479 L 73.78906214406015 822.7851560959243 L 74.47847936005564 822.6282946559368 L 75.1786700800294 822.4711065599695 L 75.56250009604264 822.0703129599569 L 79.25918720004847 822.6688409599592 L 81.51388160005445 824.1027481599594 L 81.98414745606715 827.7081231359625 L 81.97656268806895 827.9023441919708 L 82.14843699202174 829.5273441279423 L 82.96875008003553 830.0078120959224 L 82.97244672005763 830.0088934399537 L 83.79687526402995 829.8945310719428 L 83.86908160004532 829.9395481599495 L 87.14588160003768 831.0659481599578 L 89.91068160004215 832.9091481599608 L 90.00000000005821 832.9374996479601 L 90.16889344004449 833.0808934399392 L 90.17187532805838 833.082031103957 L 91.84710656001698 833.5644467199454 L 91.95949875202496 833.5432079359307 L 94.00679833604954 833.9334000639501 L 95.33593702403596 836.800781311933 L 97.03124992002267 838.378906623926 L 97.42222336004488 839.1964467199286 L 98.41122508805711 839.6322764799697 L 99.21198899205774 840.1504184319638 L 99.44177664001472 840.5902233599336 L 100.28556185605703 841.1175864319666 L 101.03124992002267 841.5859374079737 L 102.37155328004155 842.0124467199203 L 102.37233152001863 842.0108728319174 L 102.37500006402843 842.0117186559364 L 102.8787527680397 840.9867745279334 L 103.39316633605631 839.9465154559584 L 104.25000038405415 838.9492183039547 L 107.90484480006853 837.0202726399293 L 107.96374528005254 837.0084925439442 L 113.39062476804247 837.6015626239241 L 113.57812531205127 837.6328120319522 L 113.77657241601264 837.5837020159233 L 119.58617190405494 836.5990246399306 L 120.7187496960396 836.7226562559372 L 126.81113907205872 832.3337564159301 L 126.87708160001785 832.2947481599404 L 129.59827148803743 831.3343283199356 L 132.10156236804323 830.453125119966 L 137.11718707205728 830.554687487951 L 137.88322508806596 830.5198970879428 L 141.7656248320127 830.378906623926 L 144.03125043201726 829.6914063359727 L 146.02588160004234 829.1203481599223 L 146.84379545605043 828.5244395519258 L 152.6328125440632 824.6914058239199 L 153.07031244802056 823.9921879039612 L 153.19531212805305 823.8984376319568 L 160.87499980803113 819.4960936959251 L 166.30468710401328 817.6523438079166 L 172.64843776001362 815.1953121279366 L 177.7734379520407 811.816406015947 L 179.1718748160638 811.1992186879506 L 187.1360000000568 807.7368934399565 L 187.66792294406332 807.1553228799603 L 189.27343718404882 805.4062499839347 L 191.4936135680182 804.3918981119641 L 193.08089344005566 803.6693299199687 L 200.4453120000544 803.4140620799735 L 203.51562547206413 802.66015641595 L 223.9531253760215 797.6835942399339 L 233.05449881602544 797.5367383039556 L 236.60089344001608 797.4968934399658 L 237.29564569605282 797.3639454719378 L 241.25781299202936 796.66015641595 L 247.05468723201193 794.8085934079718 L 248.66406297602225 794.3125002239249 L 253.95200000004843 792.2631065599271 L 262.914062336029 787.3710940159508 L 267.30807603202993 785.4965544959414 L 268.28906291205203 785.0898442239268 L 272.07833292806754 782.7343595519196 L 272.4453120000544 782.7070310399286 L 276.281249792024 782.7070310399286 L 278.6406246400438 781.9960934399278 L 280.9531176960445 780.6427504639723 L 281.70312499202555 780.277344255941 L 290.7187496960396 777.5117189119337 L 294.1465190400486 777.8717419519671 L 294.60156211204594 777.9570309119299 L 295.0066483200644 778.0874055679305 L 296.1118607360404 778.5508812799235 L 297.7812500480213 779.2539064319571 L 297.81712691206485 779.2651182079571 L 297.84162713604746 779.2747694079299 L 298.2400000000489 779.7191065599327 L 301.0390620160615 780.5351567359176 L 301.16188160004094 780.5827481599408 L 302.5859379200265 780.347656191967 L 304.8984371200204 779.9765626879525 L 311.0237020160421 776.2694215679658 L 313.9609374720603 775.0546872319537 L 317.2421877760207 774.1328127999441 L 319.69628160004504 773.9267481599236 L 322.358681600017 774.8483481599251 L 322.4561592320679 774.8534783999203 L 323.24267008004244 775.2817766399239 L 327.6940247040475 775.1291555839707 L 328.19531264004763 775.1562495999387 L 332.89062502403976 775.8710937599535 L 334.3383982080268 776.6853980159503 L 340.4834816000657 780.1731481599272 L 342.3780925440369 780.9662412799662 L 344.88889344001655 782.0515532799182 L 348.3281254400499 782.2226565119345 L 350.37867008004105 781.340446719958 L 351.10937497601844 780.7773439999437 L 354.0022599680233 779.2037253119634 L 354.38281216006726 779.1367188479635 L 360.3125002240413 778.8359372799168 L 362.21093785605626 778.7812495359685 L 368.281249792024 777.5234375679283 L 368.38400000002 777.5004467199324 L 369.1406254080357 777.2656250879518 L 373.66108160006115 775.8723481599591 L 380.21689344005426 776.0782233599457 L 383.5448934400338 776.021329919924 L 387.1250001920271 775.4843750399305 L 391.6874997760169 774.8476559359697 L 397.4609377280576 772.7109375999426 L 401.92187494406244 771.1015628799214 L 404.9066700800322 768.7395532799419 L 405.1342233600444 768.483553279948 L 405.19531212805305 768.4257812479627 L 409.9140628480236 763.4218751999433 L 413.6391065600328 761.685329919972 L 416.2275532800122 759.0115532799391 L 416.3519754240406 757.7530798079679 L 416.3593748480198 757.7382809599512 L 416.4313026560121 756.9051197439549 L 416.45510656002443 756.6506700799218 L 412.1563545600511 750.725618687924 L 411.75388160004513 748.2243481599726 L 417.4882816000609 743.3091481599258 L 419.94588160002604 737.5747481599683 L 430.08479641604936 729.9969454079401 L 432.7458816000144 729.587548159936 L 436.81458073604153 729.841842175927 L 437.75601766404 729.9199119359255 L 444.2234624000266 731.6341739519266 L 447.0688368640258 732.4414924799348 L 449.6418816000223 733.2739481599419 L 453.6354816000676 734.4003481599502 L 456.29788160003955 734.8099481599638 L 456.84375040006125 734.8359372799168 L 456.9921873920248 734.8632811519201 L 459.9531253760215 735.0312499199645 L 461.0082816000213 735.1171481599449 L 461.8046873600688 734.902343679918 L 470.21510656003375 732.8711065599346 L 472.29155328002525 731.8755532799405 L 480.9316915200325 725.0588241919177 L 487.52059596806066 722.4232622079435 L 487.59105843206635 722.4077547519701 L 496.03125043201726 720.7812495359685 L 498.74218700802885 720.6328125439468 L 503.554688000062 720.4140625919681 L 507.3203128320165 720.7617187839351 L 508.521881600027 720.8835481599672 L 508.5570590720163 720.8928993279696 L 515.445312512049 722.9453127679299 L 517.6888934400631 723.1999999999534 L 520.985015296028 723.1149393919623 L 522.1406248960411 723.1367188479635 L 528.3874816000462 722.0099481599173 L 537.6015626240405 719.7578127359739 L 540.3046871040133 719.9921879039612 L 542.2916720640496 720.1847326719435 L 542.7187496960396 720.3710935039562 L 546.8194816000178 722.4195481599309 L 548.6626816000207 724.5699481599731 L 550.7106816000305 727.5395481599262 L 553.1682816000539 731.1235481599579 L 553.5312496640254 731.3046876159497 L 554.5244467200246 732.814223359921 L 560.2937784320675 734.6361159679363 L 560.4386816000333 734.7075481599313 L 560.7866859520436 734.7343175679562 L 564.4800000000396 735.23199999996 L 567.0400000000373 735.0328934399295 L 572.1031065600691 733.5253299199394 L 576.8099614720559 734.6361477119499 L 579.1778816000442 735.2195481599192 L 583.8906245120452 736.0390625279397 L 587.9842816000455 735.2195481599192 L 598.9453127680463 729.6914063359727 L 603.2187504640315 729.2070307839313 L 604.3306700800313 729.0879999999306 L 611.1875000320142 730.1406248959247 L 619.9453122560517 730.3398440959281 L 624.6968934400356 731.1644467199221 L 633.2586700800457 730.8515532799647 L 635.1328122880659 730.3085936639691 L 637.0338816000149 729.7923481599428 L 637.1328122880659 729.6992184319533 L 639.3749995520338 728.0937502719462 L 639.7890621440602 727.1367188479635 L 639.9010816000518 727.0275481599383 L 639.8779904000694 726.9274849279318 L 640.2844467200339 725.9875532799633 L 638.6971320320154 721.8104340479476 L 638.6722816000693 721.7027481599362 L 636.8281251840526 720.0624998399289 L 634.4765624320135 717.9140628479654 L 630.3778816000558 714.1251481599174 L 632.5468753920286 710.0898437119322 L 634.0266700800275 708.380446719937 L 633.976562688069 707.4296872959239 L 634.0642816000618 707.2643481599516 L 634.0181514240685 707.0941429759259 L 633.9453122560517 706.8124999679276 L 633.9140628480236 706.277344255941 L 631.3528934400529 696.8604467199184 L 631.1501189120463 696.5120931839338 L 631.0946816000505 696.3075481599662 L 630.2754816000233 693.9523481599172 L 630.0817008640151 692.1114316799212 L 631.1219169280375 688.8944680959685 L 631.5703121920233 687.5117189119337 L 631.6093747200212 687.3984378879541 L 632.1777080320171 686.3910553599708 L 633.3474816000671 684.3267481599469 L 634.7812495360267 676.2382817279431 L 637.2421877760207 672.2421872639679 L 643.1796879360336 666.3046871039551 L 645.8308208640665 664.2917724159197 L 646.1640622080304 664.0429690879537 L 646.53125017602 663.8437498879503 L 652.1742233600235 660.8213299199706 L 657.0639349760604 659.6531005439465 L 663.7578127360321 658.1132810239214 L 667.8593751040171 657.5000002559391 L 669.6341524480376 657.3767301119515 L 672.3671879680478 657.2382812159485 L 679.2611573760514 655.8639646719676 L 680.3515627520392 655.6562503679306 L 680.9919518720126 655.5980247039697 L 683.8328934400342 655.3884467199678 L 685.5781253120513 655.3476567039615 L 687.8253486080212 655.3476567039615 L 693.865881600068 655.9619481599657 L 705.4370816000155 659.238748159958 L 707.0869790720171 659.4778634239337 L 711.4808934400207 660.2239999999292 L 712.2343751680455 660.2265620479593 L 712.5026816000463 660.2627481599338 L 712.7303270400153 660.2239999999292 L 713.472000000067 660.2239999999292 L 717.2835532800527 659.4844467199291 L 723.4844467200455 656.4124467199435 L 725.9218749440624 655.6796876799199 L 726.7362816000241 655.4499481599196 L 727.6923023360432 655.380419583933 L 732.3591065600631 655.0755532799521 L 734.1640622080304 655.3476567039615 L 736.562499584048 655.7578127359739 L 739.9843747840496 657.4960936959251 L 742.7815270400606 659.0053079039208 L 744.3490816000267 660.1603481599595 L 747.828124672058 661.8007807999384 L 750.289062912052 662.4140625919681 L 752.7500001280569 663.3359370239195 L 770.0764467200497 663.4382233599317 L 770.7421870080288 663.2617185279378 L 781.2117739520618 660.5702840319718 L 784.179687424039 660.4687503359164 L 787.2255600640201 661.183519743965 L 788.0836608000682 661.4458214399638 L 790.6328125440632 662.4140625919681 L 793.4531246080296 664.8437503999448 L 793.6171878400492 665.0351564799203 L 794.4960286720307 668.7416801279178 L 794.7726571520325 670.2785034239641 L 794.9062502400484 671.0312499199645 L 799.4026700800168 674.1902233599685 L 800.323735552025 674.5735577599262 L 800.3618816000526 674.5987481599441 L 801.2259706880432 674.9490544639411 L 804.3203123200219 676.2382817279431 L 806.4011304960586 676.748506111966 L 807.5298816000577 677.0563481599675 L 810.2946816000622 676.5443481599214 L 812.6354565120419 676.2742589439731 L 816.6964480000315 676.4339568639407 L 816.783842304023 676.4385566719575 L 839.9609374720603 685.8828124159481 L 841.0859376640292 686.2890629119356 L 843.6770816000644 687.2963481599581 L 849.1328122880659 687.5664066559402 L 850.0078120960388 687.6171878399327 L 860.1884467200143 688.981329919945 L 863.0546872320119 690.0468746239203 L 865.488400384027 690.9829191679601 L 867.8433812480653 694.3627519999282 L 867.3281249280553 698.4570316799218 L 867.1791820800281 699.9504844799521 L 867.0359101440408 701.354548223957 L 866.5600000000559 703.1182233599247 L 868.1528934400412 706.9013299199287 L 873.5857766400441 710.9973299199482 L 874.4999997440609 711.9882813439472 L 875.2162816000637 712.7939481599606 L 879.3124997120467 717.3007810559357 L 881.15351552004 718.5653964799712 L 883.2542279680492 720.1001154559199 L 884.3298816000461 720.9859481599415 L 884.5409228800563 721.0404106239439 L 884.8497766400687 721.2657766399207 L 887.1729285120382 721.7196380159585 L 887.5000002560555 721.8046873599524 L 893.6482816000353 723.3411481599323 L 897.9490816000616 727.2323481599451 L 899.6062894080533 729.0402109439601 L 900.1528934400412 729.6568934399402 L 900.1699696640135 729.6665405439562 L 900.2031247360283 729.6914063359727 L 914.6402816000627 735.1171481599449 L 916.6875002880115 735.9375001599547 L 918.5289676800603 736.922429439961 L 919.1796879360336 737.2812503039604 L 919.2265625600121 737.2968744959217 L 919.554688000062 737.4726563839358 L 923.6015626240405 738.8515624959255 L 924.3875532800448 739.128893439949 L 925.5000002560555 739.4960936959251 L 929.4882816000609 740.8515481599607 L 934.8677345280303 743.6964515839354 L 940.0859371520346 746.4960942079197 L 943.8274570240173 750.6650664959452 L 944.7421870080288 751.7070315519231 L 945.1015628800378 753.2343746559345 L 945.4025134080439 754.6165196799557 L 945.521776640031 755.1715532799717 L 948.2240000000456 758.6133299199282 L 953.9273758720374 759.8058557439363 L 957.6482816000353 760.6147481599473 L 962.1249996800325 762.2148433919647 L 963.413329920033 762.6808934399742 L 970.6382233600598 765.980446719972 L 983.976562688069 771.5859374079737 L 989.8359377920278 774.8281251839362 L 998.1155532800476 778.2968934399541 L 999.6642355200602 778.6955632639583 L 1004.2402816000395 780.6851481599733 L 1006.4501923840144 782.8161331199226 L 1006.9609379840549 783.4179686399293 L 1007.898437632015 784.1640622079722 L 1009.155481600028 785.2931481599226 L 1014.2734376960434 789.6953128959285 L 1017.684923392022 792.203290623962 L 1021.5536916480632 796.6777169919224 L 1024.0 799.5277496338895" fill="none"/></svg>