<svg xmlns="http://www.w3.org/2000/svg" width="1024" height="1024"><rect stroke="none" x="0" y="0" width="1024" height="1024" fill="white"/><path stroke="#000000" stroke-width="2" d="M 0.0 1022.5512129900962 L 8.60156211204594 1022.453125119966 L 22.6328125440632 1022.554687487951 L 26.01562521600863 1022.554687487951 L 59.18750003201421 1022.554687487951 L 65.64062515203841 1022.453125119966 L 70.96875008003553 1022.554687487951 L 83.25781299202936 1022.554687487951 L 85.9140628480236 1022.453125119966 L 104.03906252805609 1022.453125119966 L 122.37500006402843 1022.554687487951 L 124.92968755203765 1022.453125119966 L 127.4921871360275 1022.453125119966 L 129.9453122560517 1022.554687487951 L 133.12500019202707 1022.554687487951 L 142.1328128000605 1022.453125119966 L 161.79687526402995 1022.347656191967 L 175.3124997120467 1022.453125119966 L 196.812499968044 1022.453125119966 L 199.57812531205127 1022.9648435199633 L 201.7343754240428 1022.453125119966 L 217.39843788801227 1022.453125119966 L 221.1875000320142 1022.347656191967 L 232.10655539203435 1022.4839516159263 L 237.7734379520407 1022.554687487951 L 240.1328128000605 1022.453125119966 L 256.10937548801303 1022.554687487951 L 259.5859374080319 1022.453125119966 L 266.9609379840549 1022.453125119966 L 276.07031296001514 1022.554687487951 L 287.9531253760215 1022.554687487951 L 293.9921879040194 1022.453125119966 L 299.0078126080334 1022.453125119966 L 307.5078123520361 1022.554687487951 L 312.9374996480183 1022.656249855936 L 336.8984371200204 1022.656249855936 L 350.92968755203765 1022.7578122239211 L 354.8203120640246 1022.656249855936 L 370.281249792024 1022.7578122239211 L 375.2968744960381 1022.7578122239211 L 383.6953128960449 1022.8593745919643 L 389.02343782404205 1022.8593745919643 L 394.9609379840549 1023.0664058879483 L 424.1406248960411 1023.0664058879483 L 433.4609377280576 1022.8593745919643 L 439.39843788801227 1022.8593745919643 L 446.6718750720611 1022.9648435199633 L 456.71093760005897 1022.9648435199633 L 471.96874956804095 1023.0664058879483 L 480.15625011204975 1022.9648435199633 L 491.42187520005973 1022.9648435199633 L 504.2187499520369 1023.0664058879483 L 530.0234373120475 1023.0664058879483 L 540.6718750720611 1022.9648435199633 L 549.2734371840488 1022.9648435199633 L 564.7421870080288 1023.0664058879483 L 607.0312499200227 1023.0664058879483 L 626.382812160009 1023.1679682559334 L 639.6953128960449 1023.1679682559334 L 645.6328120320104 1023.0664058879483 L 658.8437504000613 1023.1679682559334 L 665.2968744960381 1023.1679682559334 L 667.2421877760207 1023.2695316479658 L 673.3828126720618 1023.1679682559334 L 683.5234375680448 1023.1679682559334 L 702.2656245760154 1023.2695316479658 L 710.8671877120505 1023.2695316479658 L 716.289062912052 1023.3749995519174 L 720.9999994880636 1023.2695316479658 L 772.1015623680432 1023.2695316479658 L 775.7890621440602 1023.3749995519174 L 779.9843747840496 1023.4765629439498 L 783.3671874560532 1023.2695316479658 L 818.7968747520354 1023.2695316479658 L 829.7499996160623 1023.3749995519174 L 857.5000002560555 1023.3749995519174 L 866.0000000000582 1023.4765629439498 L 895.79687526403 1023.4765629439498 L 902.1484369920217 1023.3749995519174 L 911.9765626880107 1023.4765629439498 L 916.5859379200265 1023.3749995519174 L 919.656250368047 1023.4765629439498 L 935.8359377920278 1023.4765629439498 L 940.1406248960411 1023.3749995519174 L 971.9843747840496 1023.1679682559334 L 985.5000002560555 1023.2695316479658 L 999.1171870720573 1023.2695316479658 L 1008.9531248640269 1023.3749995519174 L 1013.0468751360313 1023.3749995519174 L 1015.7109370880644 1023.2695316479658 L 1023.6953128960449 1023.3749995519174 L 1024.0 1023.3749995519174" fill="none"/><path stroke="#000000" stroke-width="2" d="M 1024.0 1023.3749995519174 L 1023.6953128960449 1023.3749995519174 L 1015.7109370880644 1023.2695316479658 L 1013.0468751360313 1023.3749995519174 L 1008.9531248640269 1023.3749995519174 L 999.1171870720573 1023.2695316479658 L 985.5000002560555 1023.2695316479658 L 971.9843747840496 1023.1679682559334 L 940.1406248960411 1023.3749995519174 L 935.8359377920278 1023.4765629439498 L 919.656250368047 1023.4765629439498 L 916.5859379200265 1023.3749995519174 L 911.9765626880107 1023.4765629439498 L 902.1484369920217 1023.3749995519174 L 895.79687526403 1023.4765629439498 L 866.0000000000582 1023.4765629439498 L 857.5000002560555 1023.3749995519174 L 829.7499996160623 1023.3749995519174 L 818.7968747520354 1023.2695316479658 L 783.3671874560532 1023.2695316479658 L 779.9843747840496 1023.4765629439498 L 775.7890621440602 1023.3749995519174 L 772.1015623680432 1023.2695316479658 L 720.9999994880636 1023.2695316479658 L 716.289062912052 1023.3749995519174 L 710.8671877120505 1023.2695316479658 L 702.2656245760154 1023.2695316479658 L 683.5234375680448 1023.1679682559334 L 673.3828126720618 1023.1679682559334 L 667.2421877760207 1023.2695316479658 L 665.2968744960381 1023.1679682559334 L 658.8437504000613 1023.1679682559334 L 645.6328120320104 1023.0664058879483 L 639.6953128960449 1023.1679682559334 L 626.382812160009 1023.1679682559334 L 607.0312499200227 1023.0664058879483 L 564.7421870080288 1023.0664058879483 L 549.2734371840488 1022.9648435199633 L 540.6718750720611 1022.9648435199633 L 530.0234373120475 1023.0664058879483 L 504.2187499520369 1023.0664058879483 L 491.42187520005973 1022.9648435199633 L 480.15625011204975 1022.9648435199633 L 471.96874956804095 1023.0664058879483 L 456.71093760005897 1022.9648435199633 L 446.6718750720611 1022.9648435199633 L 439.39843788801227 1022.8593745919643 L 433.4609377280576 1022.8593745919643 L 424.1406248960411 1023.0664058879483 L 394.9609379840549 1023.0664058879483 L 389.02343782404205 1022.8593745919643 L 383.6953128960449 1022.8593745919643 L 375.2968744960381 1022.7578122239211 L 370.281249792024 1022.7578122239211 L 354.8203120640246 1022.656249855936 L 350.92968755203765 1022.7578122239211 L 336.8984371200204 1022.656249855936 L 312.9374996480183 1022.656249855936 L 307.5078123520361 1022.554687487951 L 299.0078126080334 1022.453125119966 L 293.9921879040194 1022.453125119966 L 287.9531253760215 1022.554687487951 L 276.07031296001514 1022.554687487951 L 266.9609379840549 1022.453125119966 L 259.5859374080319 1022.453125119966 L 256.10937548801303 1022.554687487951 L 240.1328128000605 1022.453125119966 L 237.7734379520407 1022.554687487951 L 232.10655539203435 1022.4839516159263 L 221.1875000320142 1022.347656191967 L 217.39843788801227 1022.453125119966 L 201.7343754240428 1022.453125119966 L 199.57812531205127 1022.9648435199633 L 196.812499968044 1022.453125119966 L 175.3124997120467 1022.453125119966 L 161.79687526402995 1022.347656191967 L 142.1328128000605 1022.453125119966 L 133.12500019202707 1022.554687487951 L 129.9453122560517 1022.554687487951 L 127.4921871360275 1022.453125119966 L 124.92968755203765 1022.453125119966 L 122.37500006402843 1022.554687487951 L 104.03906252805609 1022.453125119966 L 85.9140628480236 1022.453125119966 L 83.25781299202936 1022.554687487951 L 70.96875008003553 1022.554687487951 L 65.64062515203841 1022.453125119966 L 59.18750003201421 1022.554687487951 L 26.01562521600863 1022.554687487951 L 22.6328125440632 1022.554687487951 L 8.60156211204594 1022.453125119966 L 0.0 1022.5512129900962" fill="none"/><path stroke="#408040" stroke-width="3" d="M 0.0 182.837203302508 L 75.45855999999912 183.27552000000287 L 161.0035199999984 182.52799999999843 L 227.3382399999973 188.06784000000334 L 243.80415999999968 188.4979200000016 L 252.12927999999374 184.51456000000326 L 265.8918399999966 165.64224000000104 L 284.7743999999948 146.78016000000207 L 320.5017599999992 120.57600000000093 L 337.65376000000106 108.88191999999981 L 349.05087999999523 105.82016000000294 L 369.5308800000057 105.78944000000047 L 431.7798400000029 105.16479999999865 L 452.1779200000019 108.66687999999704 L 504.8524800000014 95.75424000000203 L 539.3510399999941 85.12511999999697 L 571.6992000000027 70.34879999999976 L 589.4860800000024 56.52479999999923 L 648.560639999996 12.974079999999958 L 678.3283200000005 2.3347199999989243 L 685.4428164839337 0.0" fill="none"/></svg>