<svg xmlns="http://www.w3.org/2000/svg" width="1024" height="1024"><rect stroke="none" x="0" y="0" width="1024" height="1024" fill="white"/><path stroke="#000000" stroke-width="2" d="M 747.0078126080334 1016.3085936639691 L 756.1249996800325 1016.4101560319541 L 843.164062720025 1016.4101560319541 L 858.6250004480244 1016.2070312959258 L 864.2578124800348 1016.4101560319541 L 871.5312496640254 1016.6132807679242 L 893.7499996160623 1017.4335938559379 L 911.9765626880107 1017.9453122559353 L 919.656250368047 1018.0468746239203 L 927.9531253760215 1018.2539059199626 L 937.9843747840496 1018.4570316799218 L 957.445312512049 1018.7656253439491 L 966.2500003840541 1018.8671877119341 L 984.0703129600151 1019.1757813759614 L 998.6093752320157 1019.4804684799747 L 1005.6718745600083 1019.5859374079737 L 1008.9531248640269 1019.6874997759587 L 1023.2890624000574 1019.8906245119288 L 1024.0 1019.89630601096" fill="none"/><path stroke="#000000" stroke-width="2" d="M 0.0 1020.9140623359708 L 40.656249856052455 1020.9140623359708 L 48.85156249604188 1020.8124999679276 L 59.804687360010576 1020.8124999679276 L 101.48437504004687 1021.3242183679249 L 108.5468753920286 1021.3242183679249 L 126.77343744004611 1020.7109375999426 L 132.92187545605702 1020.6093752319575 L 143.36718745605322 1020.6093752319575 L 163.84374988800846 1020.5039063039585 L 178.69531238405034 1020.1992191999452 L 186.88281292805914 1020.3007815679302 L 191.69531289604492 1020.097655807971 L 203.46874982403824 1019.8906245119288 L 212.58593792002648 1019.7890621439437 L 221.28906240005745 1020.097655807971 L 224.67187507206108 1019.9921879039612 L 228.04687462403672 1019.9960934399278 L 237.6718745600083 1019.8906245119288 L 243.20312524802284 1019.8906245119288 L 253.64843724801904 1019.7890621439437 L 293.9921879040194 1019.7890621439437 L 346.7265628160094 1019.1757813759614 L 354.8203120640246 1019.0742190079181 L 362.0937502720626 1019.0703124479624 L 374.07031296001514 1019.0742190079181 L 378.1640622080304 1018.8671877119341 L 382.87499980803113 1018.7656253439491 L 393.42187520005973 1018.4570316799218 L 397.10937497601844 1018.4570316799218 L 415.1328122880077 1017.9453122559353 L 435.92187494406244 1017.4335938559379 L 451.6874997760169 1016.9218754559406 L 460.1874995200196 1016.7187496959232 L 488.5546874880092 1015.8984376319568 L 510.87499980803113 1015.3867192319594 L 568.9374996480183 1015.3867192319594 L 582.3515627520392 1015.285155839927 L 611.6406251520384 1015.078124543943 L 616.2500003840541 1015.078124543943 L 632.2187499520369 1014.4648437759606 L 637.546874880034 1014.2578124799184 L 641.8437498880085 1014.3632814079174 L 646.9687500800355 1014.4648437759606 L 651.3671874560532 1014.5664061439456 L 664.1718753280584 1014.7695308799739 L 671.9531253760215 1014.976562175958 L 678.3046871040133 1015.078124543943 L 686.8046878720052 1015.1796879359172 L 692.4296878080349 1015.285155839927 L 705.2343746560509 1015.4882815999445 L 709.8359377920278 1015.6914063359727 L 727.5554816000513 1016.0000174079323 L 732.2656245760154 1016.1015623679268 L 747.0078126080334 1016.3085936639691" fill="none"/><path stroke="#000000" stroke-width="2" d="M 1024.0 1019.8963060108435 L 1023.2890624000574 1019.8906245118123 L 1008.9531248640269 1019.6874997759005 L 1005.6718745600083 1019.5859374078573 L 998.6093752320157 1019.4804684799747 L 984.0703129600734 1019.175781375845 L 966.2500003840541 1018.8671877118759 L 957.445312512049 1018.7656253438327 L 937.9843747840496 1018.4570316798636 L 927.9531253760215 1018.2539059199044 L 919.656250368047 1018.0468746239203 L 911.9765626880107 1017.9453122559353 L 893.7499996160623 1017.4335938558797 L 871.5312496640254 1016.6132807679242 L 864.2578124800348 1016.4101560318377 L 858.6250004480826 1016.207031295984 L 843.164062720025 1016.4101560318377 L 756.1249996800325 1016.4101560318377 L 747.0078126080334 1016.3085936640273 L 732.2656245760736 1016.1015623678686 L 727.5554816000513 1016.0000174079323 L 709.8359377920278 1015.6914063358563 L 705.2343746560509 1015.4882816000027 L 692.4296878080349 1015.2851558398106 L 686.8046878720052 1015.1796879358008 L 678.3046871040133 1015.0781245438848 L 671.9531253760215 1014.9765621758415 L 664.1718753281166 1014.7695308799157 L 651.3671874561114 1014.5664061438292 L 646.9687500800937 1014.4648437759606 L 641.8437498880085 1014.3632814079174 L 637.546874880034 1014.2578124798601 L 632.2187499520951 1014.4648437759606 L 616.2500003840541 1015.0781245438848 L 611.6406251520384 1015.0781245438848 L 582.3515627520974 1015.2851558398106 L 568.9374996480765 1015.3867192319594 L 510.87499980808934 1015.3867192319594 L 488.5546874880092 1015.898437632015 L 460.1874995200196 1016.7187496958068 L 451.68749977607513 1016.9218754558242 L 435.92187494417885 1017.4335938558797 L 415.1328122880077 1017.9453122559353 L 397.10937497607665 1018.4570316798636 L 393.42187520011794 1018.4570316798636 L 382.87499980803113 1018.7656253438327 L 378.1640622080304 1018.8671877118759 L 374.07031296001514 1019.0742190078017 L 362.0937502720626 1019.0703124479624 L 354.8203120640828 1019.0742190078017 L 346.7265628161258 1019.175781375845 L 293.9921879040776 1019.7890621439437 L 253.64843724813545 1019.7890621439437 L 243.20312524802284 1019.8906245118123 L 237.6718745600083 1019.8906245118123 L 228.04687462409493 1019.9960934398696 L 224.67187507206108 1019.992187903903 L 221.28906240017386 1020.0976558079128 L 212.58593792002648 1019.7890621439437 L 203.46874982409645 1019.8906245118123 L 191.69531289604492 1020.0976558079128 L 186.88281292811735 1020.300781567872 L 178.69531238405034 1020.199219199887 L 163.84374988806667 1020.5039063039585 L 143.36718745611142 1020.6093752318993 L 132.92187545605702 1020.6093752318993 L 126.77343744004611 1020.7109375998843 L 108.5468753920868 1021.3242183678085 L 101.48437504016329 1021.3242183678085 L 59.804687360010576 1020.8124999679276 L 48.85156249604188 1020.8124999679276 L 40.65624985611066 1020.9140623359708 L 0.0 1020.9140623359708" fill="none"/><path stroke="#408040" stroke-width="3" d="M 127.18080000000191 689.7561599999972 L 131.9219199999934 690.7699199999988 L 136.66303999999946 695.9513599999991 L 142.58176000000094 703.5596799999985 L 151.12192000000505 708.0038399999976 L 155.5558400000009 706.3449600000022 L 166.20544000000518 715.5199999999968 L 182.3744000000006 729.9584000000032 L 204.50303999999596 750.3667199999982 L 227.26656000000366 769.1161599999978 L 264.26368000000366 790.1798399999971 L 323.36896000000706 817.5001600000032 L 341.27872000000207 833.7510400000028 L 356.4646400000056 856.2892799999972 L 370.2476800000004 876.0729599999977 L 377.159679999997 890.5420799999993 L 392.2739200000069 911.3600000000006 L 402.0633600000001 922.286079999998 L 406.3231999999989 933.9596799999999 L 409.5795199999993 942.2335999999996 L 403.5379200000025 947.8963199999998 L 408.36096000000543 956.7232000000004 L 403.42527999999584 960.5734400000001 L 399.0220799999952 967.8131199999989 L 407.7670400000061 980.4288000000015 L 409.2723200000037 986.1632000000027 L 405.2377600000036 993.4847999999984 L 395.7350399999996 1007.1347200000018 L 393.24671999999555 1016.7091199999995 L 397.1686400000035 1022.5049599999984 L 397.57710154938104 1024.0" fill="none"/><path stroke="#408040" stroke-width="3" d="M 127.18080000000191 689.7561599999972 L 131.7580799999996 687.6774399999995 L 127.9795199999935 679.6083199999994 L 122.23488000000361 670.7404800000004 L 127.5801599999977 664.9958400000032 L 125.08160000000498 661.1046399999977 L 114.5139199999976 649.5743999999977 L 101.38624000000709 638.7814399999988 L 61.28639999999723 609.3004799999981 L 39.720960000006016 601.8559999999998 L 19.650559999994584 601.9379199999967 L 0.0 597.8217954174761" fill="none"/></svg>