<svg xmlns="http://www.w3.org/2000/svg" width="1024" height="1024"><rect stroke="none" x="0" y="0" width="1024" height="1024" fill="white"/><path stroke="#000000" stroke-width="2" d="M 1024.0 364.3281254399335 L 1019.0859376640292 364.4296878079185 L 1015.2968744960381 364.53125017596176 L 1012.2265620480175 364.6328125439468 L 972.9062502400484 365.1445309439441 L 961.7421875200234 365.35156223992817 L 952.1171875840519 365.5546879999456 L 936.1406248960411 365.7617182719405 L 932.1484369920217 365.7617182719405 L 921.9140628480236 365.9648440319579 L 916.4843745280523 365.9648440319579 L 906.2421872640261 366.16796876792796 L 899.3828126720618 366.273437695927 L 896.0000000000582 366.3750000639702 L 881.9765626880107 366.47656243195524 L 856.8828129280591 366.47656243195524 L 851.8671872000559 366.57812479994027 L 806.3046871040133 366.57812479994027 L 787.6640624640277 366.6835937279393 L 778.0390625280561 366.6835937279393 L 769.1328122880659 366.7851560959243 L 753.0546872320119 366.88671846396755 L 730.1171875840519 366.88671846396755 L 701.648437248019 366.9882808319526 L 680.0390625280561 367.0898442239268 L 671.648437248019 367.0898442239268 L 667.8593751040171 367.19531212793663 L 660.4843745280523 367.19531212793663 L 640.0000000000582 367.0898442239268 L 631.9140628480236 367.19531212793663 L 628.0234373120475 367.29687449592166 L 621.26562508801 367.39843788795406 L 616.8593745920225 367.5000002559391 L 610.921875456057 367.5000002559391 L 607.335937024036 367.6054691839381 L 602.0156252160668 367.6015626239241 L 599.7578127360321 367.6054691839381 L 588.7031255040201 367.6054691839381 L 584.812499968044 367.80859391996637 L 577.8437498880667 367.80859391996637 L 572.5234370560502 367.9101562879514 L 567.8125004800386 367.9101562879514 L 563.6093747200212 368.0117186559364 L 561.1562496000552 368.0117186559364 L 557.0625003520399 368.11718758393545 L 552.4531251200242 368.11718758393545 L 549.6874997760169 368.2187499519205 L 541.0859376640292 368.2187499519205 L 536.6796871680417 368.42187468794873 L 515.898437632015 368.8320317439502 L 512.0000000000582 368.8320317439502 L 489.57812531205127 369.1406254079193 L 474.3203123200219 369.2421877759625 L 469.1015628800378 369.34375014394755 L 462.9531248640269 369.34375014394755 L 458.24218726402614 369.44531251193257 L 450.7656253440655 369.44531251193257 L 446.4687503360328 369.5507814399316 L 440.6328125440632 369.65234380797483 L 420.96875008003553 369.8554685439449 L 416.15625011204975 369.8554685439449 L 411.1406254080357 369.9570309119299 L 406.01562521606684 369.9570309119299 L 398.9531248640269 370.06249983992893 L 395.16406272002496 370.16406220797217 L 388.20312473602826 370.16406220797217 L 384.0000000000582 370.2656245759572 L 371.7187502080342 370.57421823992627 L 367.4140620800317 370.67578163195867 L 358.3046871040133 370.7773439999437 L 353.38281267206185 370.8789063679287 L 349.39062476804247 370.98437529592775 L 345.9140628480236 371.085937663971 L 342.9374996480183 371.085937663971 L 336.9999994880636 371.187500031956 L 332.4999997440609 371.28906239994103 L 328.29687500803266 371.39062476792606 L 324.71093760005897 371.39062476792606 L 312.7343749120482 371.28906239994103 L 308.53125017601997 371.69921843195334 L 300.75000012805685 371.80078079993837 L 296.25000038405415 371.9062497279374 L 290.8203120640246 372.0078120959224 L 278.7343749120482 372.21093785593985 L 272.39062528003706 372.4179691519239 L 261.32812492805533 372.62109388795216 L 256.0000000000582 372.8242186239222 L 239.51562547206413 373.2343746559345 L 236.14062489604112 373.33984358393354 L 230.812499968044 373.44140595191857 L 222.92968755203765 373.644531711936 L 209.10156288003782 374.0546877439483 L 188.7265628160094 374.56640614394564 L 184.42187468806515 374.66796851193067 L 174.39062528003706 374.97656217595795 L 163.74218752002344 375.1796879359754 L 161.2812503040186 375.28515583992703 L 150.42968780803494 374.8749998079729 L 152.2734376960434 359.71875020791776 L 154.01562521606684 344.3593748479616 L 150.83593728003325 344.15234355191933 L 144.39062528003706 343.746094079921 L 130.97656217601616 342.92578099196544 L 128.0000000000582 342.7187496959232 L 123.39843788801227 342.31250022392487 L 117.24999987205956 341.79687526397174 L 108.96093798405491 341.082031103957 L 99.2265625600121 340.16015667194733 L 90.62500044802437 339.44531251193257 L 85.71093708806438 339.03515647992026 L 75.06250035203993 338.2148433919647 L 55.710937088064384 336.57812479994027 L 47.109374976018444 335.8593751039589 L 43.92968704004306 335.5507814399316 L 39.835937792027835 335.1445309439441 L 36.35156275203917 334.83593727997504 L 32.25781248003477 334.52734361594776 L 24.578124800056685 333.81250047992216 L 5.820766091346741e-11 331.7617182719405 L 0.0 331.7617182719332" fill="none"/><path stroke="#000000" stroke-width="2" d="M 0.0 331.7617182719332 L 5.820766091346741e-11 331.7617182719405 L 24.578124800056685 333.81250047992216 L 32.25781248003477 334.52734361594776 L 36.35156275203917 334.83593727997504 L 39.835937792027835 335.1445309439441 L 43.92968704004306 335.5507814399316 L 47.109374976018444 335.8593751039589 L 55.710937088064384 336.57812479994027 L 75.06250035203993 338.2148433919647 L 85.71093708806438 339.03515647992026 L 90.62500044802437 339.44531251193257 L 99.2265625600121 340.16015667194733 L 108.96093798405491 341.082031103957 L 117.24999987205956 341.79687526397174 L 123.39843788801227 342.31250022392487 L 128.0000000000582 342.7187496959232 L 130.97656217601616 342.92578099196544 L 144.39062528003706 343.746094079921 L 150.83593728003325 344.15234355191933 L 154.01562521606684 344.3593748479616 L 152.2734376960434 359.71875020791776 L 150.42968780803494 374.8749998079729 L 161.2812503040186 375.28515583992703 L 163.74218752002344 375.1796879359754 L 174.39062528003706 374.97656217595795 L 184.42187468806515 374.66796851193067 L 188.7265628160094 374.56640614394564 L 209.10156288003782 374.0546877439483 L 222.92968755203765 373.644531711936 L 230.812499968044 373.44140595191857 L 236.14062489604112 373.33984358393354 L 239.51562547206413 373.2343746559345 L 256.0000000000582 372.8242186239222 L 261.32812492805533 372.62109388795216 L 272.39062528003706 372.4179691519239 L 278.7343749120482 372.21093785593985 L 290.8203120640246 372.0078120959224 L 296.25000038405415 371.9062497279374 L 300.75000012805685 371.80078079993837 L 308.53125017601997 371.69921843195334 L 312.7343749120482 371.28906239994103 L 324.71093760005897 371.39062476792606 L 328.29687500803266 371.39062476792606 L 332.4999997440609 371.28906239994103 L 336.9999994880636 371.187500031956 L 342.9374996480183 371.085937663971 L 345.9140628480236 371.085937663971 L 349.39062476804247 370.98437529592775 L 353.38281267206185 370.8789063679287 L 358.3046871040133 370.7773439999437 L 367.4140620800317 370.67578163195867 L 371.7187502080342 370.57421823992627 L 384.0000000000582 370.2656245759572 L 388.20312473602826 370.16406220797217 L 395.16406272002496 370.16406220797217 L 398.9531248640269 370.06249983992893 L 406.01562521606684 369.9570309119299 L 411.1406254080357 369.9570309119299 L 416.15625011204975 369.8554685439449 L 420.96875008003553 369.8554685439449 L 440.6328125440632 369.65234380797483 L 446.4687503360328 369.5507814399316 L 450.7656253440655 369.44531251193257 L 458.24218726402614 369.44531251193257 L 462.9531248640269 369.34375014394755 L 469.1015628800378 369.34375014394755 L 474.3203123200219 369.2421877759625 L 489.57812531205127 369.1406254079193 L 512.0000000000582 368.8320317439502 L 515.898437632015 368.8320317439502 L 536.6796871680417 368.42187468794873 L 541.0859376640292 368.2187499519205 L 549.6874997760169 368.2187499519205 L 552.4531251200242 368.11718758393545 L 557.0625003520399 368.11718758393545 L 561.1562496000552 368.0117186559364 L 563.6093747200212 368.0117186559364 L 567.8125004800386 367.9101562879514 L 572.5234370560502 367.9101562879514 L 577.8437498880667 367.80859391996637 L 584.812499968044 367.80859391996637 L 588.7031255040201 367.6054691839381 L 599.7578127360321 367.6054691839381 L 602.0156252160668 367.6015626239241 L 607.335937024036 367.6054691839381 L 610.921875456057 367.5000002559391 L 616.8593745920225 367.5000002559391 L 621.26562508801 367.39843788795406 L 628.0234373120475 367.29687449592166 L 631.9140628480236 367.19531212793663 L 640.0000000000582 367.0898442239268 L 660.4843745280523 367.19531212793663 L 667.8593751040171 367.19531212793663 L 671.648437248019 367.0898442239268 L 680.0390625280561 367.0898442239268 L 701.648437248019 366.9882808319526 L 730.1171875840519 366.88671846396755 L 753.0546872320119 366.88671846396755 L 769.1328122880659 366.7851560959243 L 778.0390625280561 366.6835937279393 L 787.6640624640277 366.6835937279393 L 806.3046871040133 366.57812479994027 L 851.8671872000559 366.57812479994027 L 856.8828129280591 366.47656243195524 L 881.9765626880107 366.47656243195524 L 896.0000000000582 366.3750000639702 L 899.3828126720618 366.273437695927 L 906.2421872640261 366.16796876792796 L 916.4843745280523 365.9648440319579 L 921.9140628480236 365.9648440319579 L 932.1484369920217 365.7617182719405 L 936.1406248960411 365.7617182719405 L 952.1171875840519 365.5546879999456 L 961.7421875200234 365.35156223992817 L 972.9062502400484 365.1445309439441 L 1012.2265620480175 364.6328125439468 L 1015.2968744960381 364.53125017596176 L 1019.0859376640292 364.4296878079185 L 1024.0 364.3281254399335" fill="none"/></svg>