<svg xmlns="http://www.w3.org/2000/svg" width="1024" height="1024"><rect stroke="none" x="0" y="0" width="1024" height="1024" fill="white"/><path stroke="#000000" stroke-width="2" d="M 0.0 1023.8867189759621 L 9.42187520005973 1023.8867189759621 L 11.882812416006345 1023.7812500479631 L 47.71875020803418 1023.7812500479631 L 64.92187545605702 1023.6796876799199 L 76.80468787206337 1023.6796876799199 L 94.2756823040545 1023.6012881919742 L 99.43750041601015 1023.5781253119349 L 103.01562470401404 1023.5781253119349 L 118.47656243201345 1023.4765629439498 L 255.1875000320142 1023.4765629439498 L 281.5000002560555 1023.3749995519756 L 383.1875000320142 1023.3749995519756 L 393.3203128320165 1023.2695316479658 L 451.5859374080319 1023.2695316479658 L 464.39062528003706 1023.1679682559334 L 469.23258649674244 1024.0" fill="none"/><path stroke="#000000" stroke-width="2" d="M 471.461102796864 1024.0 L 472.5781248000567 1023.3749995519756 L 476.57031270401785 1023.1679682559334 L 481.5937495040125 1023.0664058879483 L 533.7109370880062 1023.0664058879483 L 620.7500001280569 1022.9648435199633 L 642.2578124800348 1022.9648435199633 L 646.3515627520392 1022.8593745919643 L 657.4140620800317 1022.8593745919643 L 663.7578127360321 1022.9648435199633 L 698.0624998400453 1022.9648435199633 L 760.2187499520369 1022.8593745919643 L 848.4921876480221 1022.8593745919643 L 895.2890624000574 1022.7578122239211 L 902.7656253440073 1022.8593745919643 L 993.3828126720618 1022.8593745919643 L 1023.2890624000574 1023.0664058879483 L 1024.0 1023.0647890109685" fill="none"/><path stroke="#000000" stroke-width="2" d="M 1024.0 1023.0647890109685 L 1023.2890624000574 1023.0664058879483 L 993.3828126720618 1022.8593745919643 L 902.7656253440073 1022.8593745919643 L 895.2890624000574 1022.7578122239211 L 848.4921876480221 1022.8593745919643 L 760.2187499520369 1022.8593745919643 L 698.0624998400453 1022.9648435199633 L 663.7578127360321 1022.9648435199633 L 657.4140620800317 1022.8593745919643 L 646.3515627520392 1022.8593745919643 L 642.2578124800348 1022.9648435199633 L 620.7500001280569 1022.9648435199633 L 533.7109370880062 1023.0664058879483 L 481.5937495040125 1023.0664058879483 L 476.57031270401785 1023.1679682559334 L 472.5781248000567 1023.3749995519756 L 471.461102796864 1024.0" fill="none"/><path stroke="#000000" stroke-width="2" d="M 469.23258649674244 1024.0 L 464.39062528003706 1023.1679682559334 L 451.5859374080319 1023.2695316479658 L 393.3203128320165 1023.2695316479658 L 383.1875000320142 1023.3749995519756 L 281.5000002560555 1023.3749995519756 L 255.1875000320142 1023.4765629439498 L 118.47656243201345 1023.4765629439498 L 103.01562470401404 1023.5781253119349 L 99.43750041601015 1023.5781253119349 L 94.2756823040545 1023.6012881919742 L 76.80468787206337 1023.6796876799199 L 64.92187545605702 1023.6796876799199 L 47.71875020803418 1023.7812500479631 L 11.882812416006345 1023.7812500479631 L 9.42187520005973 1023.8867189759621 L 0.0 1023.8867189759621" fill="none"/><path stroke="#408040" stroke-width="3" d="M 0.0 236.0137076720348 L 38.819839999996475 212.16255999999703 L 105.63584000000264 175.20640000000276 L 153.53856000000087 157.7676799999972 L 178.94400000000314 142.19264000000112 L 214.6406399999978 107.91935999999987 L 237.5987199999945 77.39392000000225 L 279.42071825700987 0.0" fill="none"/></svg>