<svg xmlns="http://www.w3.org/2000/svg" width="1024" height="1024"><rect stroke="none" x="0" y="0" width="1024" height="1024" fill="white"/><path stroke="#000000" stroke-width="2" d="M 970.9666912231478 0.0 L 970.9609379840549 0.1914060799172148 L 971.0625003520399 15.347656703961547 L 971.0625003520399 39.61718783993274 L 971.164062720025 57.53515622392297 L 971.26562508801 77.0937497599516 L 971.26562508801 96.96093798393849 L 971.3671874560532 114.57421823992627 L 971.3671874560532 127.98828134394716 L 971.26562508801 146.01171865593642 L 971.164062720025 153.79296870395774 L 971.164062720025 156.0468746239203 L 971.3671874560532 159.93750015995465 L 971.4687498240382 170.6875002879533 L 971.4687498240382 185.33203148795292 L 971.5781253120513 200.07812505593756 L 971.6796876800363 214.8242186239222 L 971.7812500480213 240.8320317439502 L 971.7812500480213 255.47656294394983 L 971.8828124160646 264.38281215995084 L 972.0859371520346 283.42968729592394 L 972.1874995200196 287.62890649592737 L 972.0859371520346 299.5078123519197 L 972.0859371520346 316.4023439359735 L 972.1874995200196 332.17187532794196 L 972.289062912052 337.19140659197 L 972.289062912052 347.12500019196887 L 972.4999997440609 351.01562470395584 L 972.7031255040201 354.5976565759629 L 972.6015621120459 357.6718745599501 L 972.4999997440609 362.277344255941 L 972.4999997440609 393.5117189119337 L 972.6015621120459 398.2226565119345 L 972.6015621120459 403.33984358393354 L 972.8046878720634 416.65234329592204 L 972.9062502400484 419.3164062719443 L 972.289062912052 436.21093785593985 L 973.2109373440617 442.15234355191933 L 973.0078126080334 448.1914060799754 L 973.2109373440617 461.9140628479654 L 973.2109373440617 489.7656248319545 L 973.1093749760184 505.640625151922 L 973.1093749760184 516.4921876479639 L 973.2109373440617 531.6484372479608 L 973.2109373440617 541.5820308479597 L 973.3124997120467 546.4960942079197 L 973.3124997120467 570.1523435519193 L 973.4218752000597 590.5273436159478 L 973.4140620800317 595.7499996159459 L 973.6249999360298 605.6835942399339 L 973.6249999360298 620.4296878079185 L 973.7265623040148 640.6015621119295 L 973.828124672058 643.1601561599527 L 974.0312504320173 649.921874943946 L 973.9296870400431 655.5507814399316 L 973.9296870400431 664.3593748479616 L 974.0312504320173 684.1210941439494 L 974.1328128000605 687.3984378879541 L 974.2343751680455 692.7226562559372 L 974.2343751680455 699.0742190079181 L 974.3359375360305 709.5156254719477 L 974.3359375360305 713.6132812799187 L 974.6484377600136 743.3085941759637 L 974.9531248640269 764.8124999679276 L 974.7500001280569 767.9882813439472 L 974.8515624960419 775.0546872319537 L 975.0546872320119 783.9609374719439 L 975.0546872320119 798.3984373759595 L 975.2578129920294 820.5195315199671 L 975.5703121920233 872.4374999039574 L 975.5703121920233 876.6328125439468 L 975.6718745600083 881.2421877759625 L 975.6718745600083 887.6914063359727 L 975.7734379520407 891.1757813759614 L 975.7734379520407 895.9882813439472 L 975.8750003200257 899.8789058559341 L 975.9765626880107 915.85156300792 L 976.179687424039 946.5742182399263 L 976.179687424039 961.7265623039566 L 976.281249792024 975.8593751039589 L 976.390625280037 981.390624767926 L 976.390625280037 990.3984373759595 L 976.4921876480221 1006.171875327942 L 976.5937500160653 1023.9882813439472 L 976.5939416014735 1024.0" fill="none"/><path stroke="#000000" stroke-width="2" d="M 976.5939416014735 1024.0 L 976.5937500160653 1023.9882813439472 L 976.4921876480221 1006.171875327942 L 976.390625280037 990.3984373759595 L 976.390625280037 981.390624767926 L 976.281249792024 975.8593751039589 L 976.179687424039 961.7265623039566 L 976.179687424039 946.5742182399263 L 975.9765626880107 915.85156300792 L 975.8750003200257 899.8789058559341 L 975.7734379520407 895.9882813439472 L 975.7734379520407 891.1757813759614 L 975.6718745600083 887.6914063359727 L 975.6718745600083 881.2421877759625 L 975.5703121920233 876.6328125439468 L 975.5703121920233 872.4374999039574 L 975.2578129920294 820.5195315199671 L 975.0546872320119 798.3984373759595 L 975.0546872320119 783.9609374719439 L 974.8515624960419 775.0546872319537 L 974.7500001280569 767.9882813439472 L 974.9531248640269 764.8124999679276 L 974.6484377600136 743.3085941759637 L 974.3359375360305 713.6132812799187 L 974.3359375360305 709.5156254719477 L 974.2343751680455 699.0742190079181 L 974.2343751680455 692.7226562559372 L 974.1328128000605 687.3984378879541 L 974.0312504320173 684.1210941439494 L 973.9296870400431 664.3593748479616 L 973.9296870400431 655.5507814399316 L 974.0312504320173 649.921874943946 L 973.828124672058 643.1601561599527 L 973.7265623040148 640.6015621119295 L 973.6249999360298 620.4296878079185 L 973.6249999360298 605.6835942399339 L 973.4140620800317 595.7499996159459 L 973.4218752000597 590.5273436159478 L 973.3124997120467 570.1523435519193 L 973.3124997120467 546.4960942079197 L 973.2109373440617 541.5820308479597 L 973.2109373440617 531.6484372479608 L 973.1093749760184 516.4921876479639 L 973.1093749760184 505.640625151922 L 973.2109373440617 489.7656248319545 L 973.2109373440617 461.9140628479654 L 973.0078126080334 448.1914060799754 L 973.2109373440617 442.15234355191933 L 972.289062912052 436.21093785593985 L 972.9062502400484 419.3164062719443 L 972.8046878720634 416.65234329592204 L 972.6015621120459 403.33984358393354 L 972.6015621120459 398.2226565119345 L 972.4999997440609 393.5117189119337 L 972.4999997440609 362.277344255941 L 972.6015621120459 357.6718745599501 L 972.7031255040201 354.5976565759629 L 972.4999997440609 351.01562470395584 L 972.289062912052 347.12500019196887 L 972.289062912052 337.19140659197 L 972.1874995200196 332.17187532794196 L 972.0859371520346 316.4023439359735 L 972.0859371520346 299.5078123519197 L 972.1874995200196 287.62890649592737 L 972.0859371520346 283.42968729592394 L 971.8828124160646 264.38281215995084 L 971.7812500480213 255.47656294394983 L 971.7812500480213 240.8320317439502 L 971.6796876800363 214.8242186239222 L 971.5781253120513 200.07812505593756 L 971.4687498240382 185.33203148795292 L 971.4687498240382 170.6875002879533 L 971.3671874560532 159.93750015995465 L 971.164062720025 156.0468746239203 L 971.164062720025 153.79296870395774 L 971.26562508801 146.01171865593642 L 971.3671874560532 127.98828134394716 L 971.3671874560532 114.57421823992627 L 971.26562508801 96.96093798393849 L 971.26562508801 77.0937497599516 L 971.164062720025 57.53515622392297 L 971.0625003520399 39.61718783993274 L 971.0625003520399 15.347656703961547 L 970.9609379840549 0.1914060799172148 L 970.9666912231478 0.0" fill="none"/></svg>