<svg xmlns="http://www.w3.org/2000/svg" width="1024" height="1024"><rect stroke="none" x="0" y="0" width="1024" height="1024" fill="white"/><path stroke="#000000" stroke-width="2" d="M 0.0 1021.4431853607894 L 18.335937536030542 1021.8359377919696 L 35.12500019202707 1021.7343754239264 L 39.32812492805533 1021.8359377919696 L 45.98437478404958 1021.8359377919696 L 57.65625036804704 1021.7343754239264 L 77.21093734406168 1021.7343754239264 L 96.57031270401785 1021.6328120319522 L 116.22656204801751 1021.7343754239264 L 127.4921871360275 1021.6328120319522 L 136.39843737601768 1021.8359377919696 L 142.33593753603054 1021.8359377919696 L 154.3203123200219 1021.6328120319522 L 258.56249958404806 1021.6328120319522 L 263.8906245120452 1021.7343754239264 L 301.57031219202327 1021.7343754239264 L 314.98437529604416 1021.6328120319522 L 348.3671879680478 1021.6328120319522 L 354.8203120640246 1022.554687487951 L 358.71093760005897 1021.6328120319522 L 383.4921871360275 1021.6328120319522 L 388.20312473602826 1021.0195312639698 L 402.5390622720588 1021.4257817599573 L 411.34375014406396 1021.5312496639672 L 428.34374963201117 1021.6328120319522 L 434.5859379200265 1021.6328120319522 L 445.34375014406396 1021.7343754239264 L 453.84374988800846 1021.7343754239264 L 467.8671872000559 1021.7343754239264 L 483.43750041601015 1021.6328120319522 L 510.2656245760154 1021.6328120319522 L 525.6249999360298 1021.5312496639672 L 534.4296878080349 1021.6328120319522 L 539.1406254080357 1021.6328120319522 L 542.9296875520376 1021.5312496639672 L 552.6562498560525 1021.5312496639672 L 583.1718748160638 1021.7343754239264 L 602.4218746880651 1021.6328120319522 L 639.1875000320142 1021.6328120319522 L 651.164062720025 1021.7343754239264 L 724.6875002880115 1021.7343754239264 L 729.3984378880123 1021.6328120319522 L 739.5390627840534 1021.6328120319522 L 745.2734371840488 1021.7343754239264 L 749.7734379520407 1021.5312496639672 L 778.0390625280561 1021.5312496639672 L 786.1249996800325 1021.6328120319522 L 794.1171875840519 1021.6328120319522 L 806.710937600059 1021.5312496639672 L 809.8828124160646 1021.5312496639672 L 823.0937497600098 1021.6328120319522 L 849.2031252480228 1021.6328120319522 L 856.0703129600151 1021.5312496639672 L 892.4218746880651 1021.5312496639672 L 895.79687526403 1021.6328120319522 L 902.0468746240367 1021.6328120319522 L 914.2343751680455 1021.5312496639672 L 946.7968747520354 1021.5312496639672 L 952.4218746880651 1021.6328120319522 L 962.9765621760162 1021.6328120319522 L 966.9687500800355 1021.5312496639672 L 971.164062720025 1021.0195312639698 L 971.3671874560532 1023.9882813439472 L 971.3670439399575 1024.0" fill="none"/><path stroke="#000000" stroke-width="2" d="M 971.3670439399575 1024.0 L 971.3671874560532 1023.9882813439472 L 971.164062720025 1021.0195312639698 L 966.9687500800355 1021.5312496639672 L 962.9765621760162 1021.6328120319522 L 952.4218746880651 1021.6328120319522 L 946.7968747520354 1021.5312496639672 L 914.2343751680455 1021.5312496639672 L 902.0468746240367 1021.6328120319522 L 895.79687526403 1021.6328120319522 L 892.4218746880651 1021.5312496639672 L 856.0703129600151 1021.5312496639672 L 849.2031252480228 1021.6328120319522 L 823.0937497600098 1021.6328120319522 L 809.8828124160646 1021.5312496639672 L 806.710937600059 1021.5312496639672 L 794.1171875840519 1021.6328120319522 L 786.1249996800325 1021.6328120319522 L 778.0390625280561 1021.5312496639672 L 749.7734379520407 1021.5312496639672 L 745.2734371840488 1021.7343754239264 L 739.5390627840534 1021.6328120319522 L 729.3984378880123 1021.6328120319522 L 724.6875002880115 1021.7343754239264 L 651.164062720025 1021.7343754239264 L 639.1875000320142 1021.6328120319522 L 602.4218746880651 1021.6328120319522 L 583.1718748160638 1021.7343754239264 L 552.6562498560525 1021.5312496639672 L 542.9296875520376 1021.5312496639672 L 539.1406254080357 1021.6328120319522 L 534.4296878080349 1021.6328120319522 L 525.6249999360298 1021.5312496639672 L 510.2656245760154 1021.6328120319522 L 483.43750041601015 1021.6328120319522 L 467.8671872000559 1021.7343754239264 L 453.84374988800846 1021.7343754239264 L 445.34375014406396 1021.7343754239264 L 434.5859379200265 1021.6328120319522 L 428.34374963201117 1021.6328120319522 L 411.34375014406396 1021.5312496639672 L 402.5390622720588 1021.4257817599573 L 388.20312473602826 1021.0195312639698 L 383.4921871360275 1021.6328120319522 L 358.71093760005897 1021.6328120319522 L 354.8203120640246 1022.554687487951 L 348.3671879680478 1021.6328120319522 L 314.98437529604416 1021.6328120319522 L 301.57031219202327 1021.7343754239264 L 263.8906245120452 1021.7343754239264 L 258.56249958404806 1021.6328120319522 L 154.3203123200219 1021.6328120319522 L 142.33593753603054 1021.8359377919696 L 136.39843737601768 1021.8359377919696 L 127.4921871360275 1021.6328120319522 L 116.22656204801751 1021.7343754239264 L 96.57031270401785 1021.6328120319522 L 77.21093734406168 1021.7343754239264 L 57.65625036804704 1021.7343754239264 L 45.98437478404958 1021.8359377919696 L 39.32812492805533 1021.8359377919696 L 35.12500019202707 1021.7343754239264 L 18.335937536030542 1021.8359377919696 L 0.0 1021.4431853607894" fill="none"/><path stroke="#408040" stroke-width="3" d="M 826.8332238950097 1024.0 L 839.1065600000002 1013.1353600000002 L 866.1094400000002 996.51584 L 880.7526400000061 988.4876799999984 L 908.9843200000032 983.4291200000007 L 941.9673599999951 977.0291199999992 L 975.9641600000032 966.7071999999971 L 1007.4828799999959 960.1843200000003 L 1024.0 959.3634997073168" fill="none"/></svg>