<svg xmlns="http://www.w3.org/2000/svg" width="1024" height="1024"><rect stroke="none" x="0" y="0" width="1024" height="1024" fill="white"/><path stroke="#000000" stroke-width="2" d="M 676.2436881067406 1024.0 L 676.2500003841706 1023.8867189759039 L 679.4296872960404 996.9531248638523 L 681.7812500480795 977.19140659197 L 682.4999997440609 970.8437503999448 L 685.164062720025 949.3398435839918 L 687.3124997121049 931.9296870399266 L 688.1328128001187 925.1718748159474 L 689.1562496001134 917.4921871359693 L 689.8750003200257 911.3476567039615 L 691.8203125760774 895.8867189758457 L 693.8671872001141 878.2734376958688 L 694.3750000640866 873.7656248318963 L 696.1171875841683 859.9414067199687 L 696.6328125441796 856.4609372158884 L 697.2421877760207 851.9570309119881 L 698.2656245760154 843.0468751359731 L 698.5781248000567 840.6914058238035 L 699.3984378880123 834.7539066879544 L 700.0078120960388 827.3789061119314 L 700.7265628160094 820.1093754878966 L 701.4453125121072 814.4765624318388 L 702.6718750721775 806.2851563518052 L 704.0000000001164 797.7851566078607 L 704.5156249600113 792.4609372159466 L 704.921875456057 788.7734374399297 L 705.8437498880667 780.4804689918528 L 706.562499584048 775.2578129919129 L 706.7656253441237 772.4921876479639 L 707.3828126720618 767.4765629439498 L 708.4062504960457 759.6914063359145 L 708.812499968044 756.1093754879548 L 710.3515627520392 744.1289062399301 L 710.9687500800937 739.4179686398711 L 711.8906245120452 731.3281249278807 L 711.6874997760751 728.3593748480198 L 713.015624704014 722.5234370558755 L 714.0390625281143 713.9218749438878 L 716.1874995200778 696.7187496959232 L 717.4218752000597 686.375000063912 L 718.1328128000605 680.4374999039574 L 719.7734379520989 666.8164065278834 L 720.5937500161235 659.9570309119881 L 720.9999994880636 656.4726558719995 L 722.0234373121639 648.1796874239226 L 722.9453127680463 639.8867189759039 L 723.8671872001141 632.82031206385 L 724.382812160009 628.2109378558816 L 726.1249996800325 614.1835939839948 L 726.9374996480183 606.8085934079136 L 727.3515622401028 603.6367185919662 L 729.3984378880123 586.8437503999448 L 730.6250004480244 576.3984373760177 L 731.445312512049 570.3554682879476 L 732.2656245760736 562.6757816319005 L 733.2890624000574 554.3828121599508 L 734.0078120960388 548.8515624958673 L 734.4140625920263 544.8593745919643 L 735.5390627840534 536.3593748479616 L 736.4609372161212 528.2695311358548 L 737.1796879360336 522.7382814719458 L 738.2031247360283 514.1367183360271 L 738.5156249601278 511.57812531187665 L 739.023437824042 507.1757813759614 L 740.0468746240367 498.8789063678705 L 740.562499584048 495.0898442239268 L 741.6874997760169 485.8750003199093 L 743.1171870720573 476.76171878393507 L 743.2265625600121 473.3828126718872 L 745.8828124160646 451.98046924802475 L 746.8046878721216 445.12109363189666 L 747.7265623040148 438.3632814079174 L 748.5468753920286 432.21874995180406 L 749.3671874560532 424.9492183038965 L 750.390625280037 417.7812500478467 L 750.6953123840503 414.70703103987034 L 751.6171878400492 407.2304691199097 L 753.3593753600144 392.89453158382094 L 753.7734379520989 389.21093734388705 L 754.3828121600673 383.88671897596214 L 755.3046876161243 376.8203120639082 L 755.8203125760192 372.72265625582077 L 757.5546880001202 358.38671871990664 L 757.9687495681574 355.4179686398129 L 758.6875002880697 349.07031244784594 L 759.5078123520943 341.79687526397174 L 760.0156252160668 336.98437529586954 L 760.3203123200219 334.3242188799195 L 760.6328125441214 331.96874956798274 L 761.656250368047 325.10937497596024 L 761.9609374720603 322.4453119999962 L 762.7812495360849 315.5859374079737 L 763.5000002560555 309.44140595186036 L 764.9296875520376 294.38671871996485 L 765.3437501441222 290.1874995199614 L 765.648437248019 287.11718707182445 L 766.6718750721193 280.0507811838761 L 768.0000000000582 269.6054691838217 L 768.4140625920263 266.3281254399917 L 768.7187496960396 261.21093734382885 L 770.0546877440647 255.37499955191743 L 772.3046871040715 238.37500006397022 L 773.9453122561099 224.24218726396793 L 775.171874816122 209.1914065919118 L 776.0937502720626 204.3789066238096 L 776.812499968044 200.69140582386171 L 778.1406248960993 193.62499993585516 L 779.6796876800945 183.58984396787127 L 780.1874995200196 179.187500031956 L 782.8515624960419 156.45312511990778 L 783.4687498240964 152.56249958387343 L 786.4374999040156 133.21093734394526 L 786.6406246400438 130.85546905588126 L 787.0468751360313 127.88671897602035 L 787.5625000960426 124.09765580797102 L 788.6875002880697 116.21093785582343 L 789.3046876161243 111.08984422392678 L 790.1249996800325 103.10546841594623 L 790.53125017602 100.648437759839 L 790.8359372800332 98.18749951996142 L 791.3515622400446 94.91406233597081 L 792.1718753280584 89.89453107188456 L 794.4218746880651 73.92187494388781 L 796.3671879680478 56.613280767865945 L 798.109375488013 44.42968780786032 L 798.6171873281128 40.94921830383828 L 801.2812503040768 21.695312895870302 L 801.7968752640882 17.703124991967343 L 802.5156249600695 11.867187199823093 L 803.0234378241585 7.871093760011718 L 804.1334219653509 0.0" fill="none"/><path stroke="#000000" stroke-width="2" d="M 804.1334219652927 0.0 L 803.023437824042 7.87109375995351 L 802.5156249600113 11.867187199939508 L 801.79687526403 17.703124991967343 L 801.2812503040186 21.69531289592851 L 798.6171873280546 40.949218303954694 L 798.109375488013 44.429687807918526 L 796.3671879680478 56.61328076792415 L 794.4218746880651 73.92187494394602 L 792.1718753280584 89.89453107194277 L 791.3515622400446 94.91406233597081 L 790.8359372800332 98.18749951996142 L 790.53125017602 100.64843775995541 L 790.1249996800325 103.10546841594623 L 789.3046876160661 111.08984422392678 L 788.6875002880115 116.21093785593985 L 787.5625000960426 124.09765580797102 L 787.0468751360313 127.88671897596214 L 786.6406246400438 130.85546905593947 L 786.4374999040156 133.21093734394526 L 783.4687498240382 152.56249958393164 L 782.8515624960419 156.453125119966 L 780.1874995200196 179.187500031956 L 779.6796876800363 183.58984396792948 L 778.1406248960411 193.62499993597157 L 776.812499968044 200.69140582391992 L 776.0937502720626 204.378906623926 L 775.1718748160638 209.19140659197 L 773.9453122560517 224.24218726396793 L 772.3046871040133 238.37500006397022 L 770.0546877440647 255.37499955197563 L 768.7187496960396 261.21093734394526 L 768.4140625920263 266.3281254399335 L 768.0000000000582 269.6054691839381 L 766.6718750720611 280.0507811839343 L 765.648437248019 287.11718707194086 L 765.343750144064 290.1874995199614 L 764.9296875520376 294.38671871996485 L 763.5000002560555 309.44140595191857 L 762.7812495360267 315.5859374079737 L 761.9609374720603 322.445311999938 L 761.656250368047 325.10937497596024 L 760.6328125440632 331.96874956792453 L 760.3203123200219 334.3242188799195 L 760.0156252160668 336.98437529592775 L 759.5078123520361 341.79687526397174 L 758.6875002880115 349.07031244796235 L 757.968749568041 355.4179686399293 L 757.554688000062 358.38671871996485 L 755.8203125760192 372.7226562559372 L 755.3046876160661 376.8203120639664 L 754.382812160009 383.88671897596214 L 753.7734379520407 389.21093734394526 L 753.3593753600144 392.89453158393735 L 751.6171878400492 407.2304691199679 L 750.6953123840503 414.70703103992855 L 750.390625280037 417.7812500479631 L 749.3671874560532 424.9492183039547 L 748.5468753920286 432.2187499519205 L 747.7265623040148 438.3632814079756 L 746.8046878720634 445.12109363195486 L 745.8828124160646 451.98046924796654 L 743.2265625600121 473.38281267194543 L 743.1171870720573 476.76171878393507 L 741.6874997760169 485.8750003199675 L 740.562499584048 495.0898442239268 L 740.0468746240367 498.8789063679287 L 739.023437824042 507.1757813759614 L 738.5156249600113 511.57812531193485 L 738.2031247360283 514.1367183359689 L 737.1796879360336 522.7382814719458 L 736.460937216063 528.2695311359712 L 735.5390627840534 536.3593748479616 L 734.4140625920263 544.8593745919643 L 734.0078120960388 548.8515624959255 L 733.2890624000574 554.3828121599508 L 732.2656245760154 562.6757816319587 L 731.445312512049 570.3554682879476 L 730.6250004480244 576.3984373759595 L 729.3984378880123 586.8437503999448 L 727.3515622400446 603.6367185919662 L 726.9374996480183 606.8085934079718 L 726.1249996800325 614.1835939839366 L 724.382812160009 628.2109378559398 L 723.8671872000559 632.8203120639664 L 722.9453127680463 639.8867189759621 L 722.0234373120475 648.1796874239226 L 720.9999994880636 656.4726558719412 L 720.5937500160653 659.9570309119299 L 719.7734379520407 666.8164065279416 L 718.1328128000605 680.4374999039574 L 717.4218752000597 686.3750000639702 L 716.1874995200196 696.7187496959232 L 714.0390625280561 713.921874943946 L 713.015624704014 722.5234370559338 L 711.6874997760169 728.3593748479616 L 711.8906245120452 731.3281249279389 L 710.9687500800355 739.4179686399293 L 710.3515627520392 744.1289062399301 L 708.812499968044 756.1093754879548 L 708.4062504960457 759.6914063359727 L 707.3828126720618 767.4765629439498 L 706.7656253440655 772.4921876479639 L 706.562499584048 775.2578129919712 L 705.8437498880667 780.4804689919692 L 704.921875456057 788.7734374399297 L 704.5156249600113 792.4609372159466 L 704.0000000000582 797.7851566079189 L 702.6718750720611 806.2851563519216 L 701.445312512049 814.4765624319552 L 700.7265628160094 820.1093754879548 L 700.0078120960388 827.3789061119314 L 699.3984378880123 834.7539066879544 L 698.5781248000567 840.6914058239199 L 698.2656245760154 843.0468751359731 L 697.2421877760207 851.9570309119299 L 696.6328125440632 856.4609372159466 L 696.1171875840519 859.9414067199687 L 694.3750000640284 873.7656248319545 L 693.8671872000559 878.273437695927 L 691.8203125760192 895.8867189759621 L 689.8750003200257 911.3476567039615 L 689.1562496000552 917.4921871359693 L 688.1328128000605 925.1718748159474 L 687.3124997120467 931.9296870399266 L 685.164062720025 949.3398435839335 L 682.4999997440609 970.8437503999448 L 681.7812500480213 977.19140659197 L 679.4296872960404 996.9531248639687 L 676.2500003840541 1023.8867189759621 L 676.2436881066387 1024.0" fill="none"/></svg>