<svg xmlns="http://www.w3.org/2000/svg" width="1024" height="1024"><rect stroke="none" x="0" y="0" width="1024" height="1024" fill="white"/><path stroke="#000000" stroke-width="2" d="M 0.0 468.8025270500948 L 2.562499584048055 468.16015667194733 L 3.179687936033588 471.43750041595194 L 5.632812032010406 473.38281267194543 L 8.093750272062607 472.15234355191933 L 11.265625088009983 468.67187507194467 L 14.750000128056854 468.3632814079756 L 18.335937536030542 468.98046873597195 L 21.60937472002115 467.44531251193257 L 24.273437696043402 465.6015626239241 L 26.7265628160676 464.7812495359685 L 30.828125184052624 464.57812479994027 L 33.59374950401252 466.11328102392145 L 35.43750041601015 468.26171903993236 L 32.57031270401785 473.2812503039604 L 14.953124864026904 485.46484326396603 L 11.265625088009983 488.1289062399301 L 0.2109378560562618 495.80859391996637 L 0.0 495.95399498337065" fill="none"/><path stroke="#000000" stroke-width="2" d="M 0.0 495.95399498337065 L 0.2109378560562618 495.80859391996637 L 11.265625088009983 488.1289062399301 L 14.953124864026904 485.46484326396603 L 32.57031270401785 473.2812503039604 L 31.437500416010153 476.35156275192276 L 33.28125030401861 478.1953126399312 L 36.46093721606303 477.6835942399339 L 41.57812531205127 475.94140671996865 L 43.62499993602978 476.558594047965 L 43.3203128320165 479.8320312319556 L 43.92968704004306 482.1874995199614 L 46.796874752035365 483.21484390395926 L 49.87500032002572 482.29296844796045 L 52.32812544004992 480.65234329592204 L 54.47656243201345 479.8320312319556 L 57.1406254080357 480.9609379839385 L 54.17187532805838 483.21484390395926 L 54.58593792002648 487.71875020791776 L 57.45312460802961 490.5859379199683 L 56.21874995203689 496.52343705593375 L 58.3671879680478 499.085937663971 L 61.851563008036464 499.085937663971 L 64.41406259202631 497.34375014394755 L 65.64062515203841 494.47656243195524 L 68.00000000005821 492.4296878079185 L 70.65624985605245 494.9882808319526 L 74.96093798405491 497.1406254079193 L 74.5468753920286 499.80078079993837 L 69.12500019202707 499.9062497279374 L 65.74218752002344 501.2343746559345 L 63.39062476804247 501.644531711936 L 60.828125184052624 502.3632814079756 L 57.85937510401709 504.3085936639691 L 56.32031232002191 509.4257817599573 L 52.94531276804628 509.6328120319522 L 50.687500288011506 509.7343754239264 L 48.640624640043825 510.24609382392373 L 47.109374976018444 513.3203128319583 L 47.71875020803418 517.4140620799735 L 47.71875020803418 520.1796874239226 L 43.82812467205804 520.5898434559349 L 40.656249856052455 519.6679690239253 L 36.46093721606303 518.6445311999414 L 33.59374950401252 520.7929692159523 L 29.08593766402919 523.4570311679272 L 25.093749760009814 524.4804689919692 L 24.273437696043402 526.2226565119345 L 21.81250048003858 527.4492190719466 L 18.234375168045517 527.1445309439441 L 15.671874560066499 527.0390620159451 L 13.109374976018444 527.0390620159451 L 9.523437568044756 528.0624998399289 L 7.374999552033842 530.9296875519212 L 4.406250496045686 535.3359370239195 L 4.406250496045686 539.6367185919662 L 5.023437824042048 542.9140623359708 L 6.968750080035534 545.0625003519235 L 6.656249856052455 548.5429688319564 L 7.890624512045179 551.4101565439487 L 10.140624896041118 552.2304686079733 L 12.085937152034603 553.7656248319545 L 12.492187648022082 555.5078123519197 L 12.804687872063369 557.3515622399282 L 15.05468723201193 558.6835937279393 L 18.023437312047463 557.4531246079714 L 21.304687616066076 555.917968383932 L 25.296874496038072 556.4296878079185 L 27.54687488003401 558.273437695927 L 31.031249920022674 561.6523438079748 L 31.23437465605093 565.4414059519186 L 34.51562496001134 566.4648437759606 L 37.48437504004687 565.644531711936 L 40.25000038405415 565.2343746559345 L 43.11718707205728 564.6210938879522 L 46.18749952001963 566.3632814079756 L 49.25781299202936 567.285155839927 L 52.5390622720588 568.7187496959232 L 55.81250048003858 572.5078128639725 L 59.90624972805381 573.3242183679249 L 63.39062476804247 573.5312496639672 L 65.64062515203841 574.9648435199633 L 65.43750041601015 577.3203128319583 L 65.1328122880659 580.6992189439479 L 63.17968793603359 582.2343751679291 L 61.34375014406396 584.4882810879499 L 62.05468774406472 587.2499998719431 L 62.77343744004611 589.4023434239207 L 63.39062476804247 592.5781247999403 L 66.3593748480198 594.1132810239214 L 67.48437504004687 596.6718750719447 L 68.92187545605702 598.5156249599531 L 71.07031244802056 599.3359370239195 L 73.3203128320165 599.9492188159493 L 75.98437478404958 601.8945310719428 L 78.4453120000544 602.9179688959266 L 77.21093734406168 605.6835942399339 L 72.70312550402014 608.652343295922 L 71.27343718404882 612.7500001279404 L 73.3203128320165 615.2070307839313 L 72.19531264004763 618.4843745279359 L 72.49999974406091 621.0429685759591 L 69.42968729604036 622.5781247999403 L 68.10156236804323 625.4453125119326 L 69.74218752002344 628.1093754879548 L 68.71093760005897 629.746094079921 L 67.07812454405939 630.976562175958 L 65.43750041601015 633.2304691199679 L 66.3593748480198 636.6093752319575 L 69.84374988806667 638.453125119966 L 68.40625049604569 641.8320312319556 L 68.50781286403071 645.1093749759602 L 70.25000038405415 647.2578129919712 L 72.29687500803266 648.7929692159523 L 75.16406272002496 650.1249996799743 L 74.14062489604112 652.5820313599543 L 73.62499993602978 654.9374996479601 L 75.46874982403824 656.9843752959277 L 77.52343756804476 657.7031249919673 L 80.59375001606531 659.1367188479635 L 82.64062464004382 662.5156249599531 L 84.78906265605474 665.7929687039577 L 87.24999987205956 666.097655807971 L 89.70312499202555 666.4062504959293 L 92.06249984004535 667.1250001919689 L 93.4921871360275 670.8085934079718 L 95.33593702403596 672.9609379839385 L 99.12500019202707 673.2695316479658 L 102.91406233602902 675.3164062719443 L 105.47656294406625 679.3085941759637 L 105.37499955203384 681.7656248319545 L 106.60156211204594 683.917968383932 L 109.26562508800998 685.4531246079714 L 113.46093772805762 684.3281254399335 L 115.8203125760192 685.2499998719431 L 119.39843788801227 685.7617182719405 L 124.10937548801303 684.6328125439468 L 125.64843724801904 687.9101562879514 L 128.7187496960396 688.8320317439502 L 130.25781248003477 692.3125002239249 L 132.30468710401328 694.7734374399297 L 134.55468748806743 695.5898439679295 L 136.91406233602902 696.5117183999391 L 141.00781260803342 699.4804684799747 L 142.64843776001362 702.347656191967 L 139.88281241606455 704.1914060799754 L 138.4453120000544 707.6757811199641 L 141.52343756804476 710.8476559359697 L 143.87500032002572 711.5664066559402 L 146.84375040006125 710.2343751679291 L 149.0937497600098 711.3593753599562 L 149.60937472002115 714.7382814719458 L 148.89062502403976 717.710937087948 L 150.73437491204822 719.4492190719466 L 150.1249996800325 722.4179691519239 L 149.4062499840511 726.1054689279408 L 150.53125017601997 729.2812503039604 L 153.60156262404053 730.7148441599566 L 156.3671879680478 732.1484369919635 L 158.7265628160676 731.9414067199687 L 161.69531289604492 731.6367185919662 L 165.1718748160638 731.0195312639698 L 169.47656294406625 732.3515627519228 L 169.57812531205127 735.0156247039558 L 172.85156249604188 735.9375001599547 L 176.5390622720588 736.2421872639679 L 179.61718784004916 737.7812500479631 L 182.37500006402843 737.5742187519209 L 185.65625036804704 737.4726563839358 L 188.62500044802437 736.8593745919643 L 191.1875000320142 735.7304688639706 L 193.23437465605093 734.5039063039585 L 197.12500019202707 733.7851566079189 L 200.0937502720626 731.6367185919662 L 204.49999974406091 731.9414067199687 L 208.79687475203536 732.0468746239203 L 211.14843750401633 732.8632811519201 L 212.28124979202403 735.4257817599573 L 215.3515622400446 733.2734371839324 L 218.42187468806515 733.6835942399339 L 220.88281292805914 734.6054686719435 L 223.9531253760215 736.347656191967 L 225.89843763201497 738.5976565759629 L 228.66406297602225 741.7734379519243 L 231.93750016001286 743.0039060479612 L 234.49999974406091 743.3085941759637 L 236.75000012805685 743.7187502079178 L 242.6875002880115 741.9765626879525 L 245.86718720005592 742.0820316159516 L 248.2187499520369 741.7734481919324 L 248.11718758405186 746.3828121599508 L 249.34375014406396 749.3515622399282 L 252.10937548801303 750.4765624319552 L 254.7734374400461 752.5234370559338 L 259.2812503040186 754.4687503359746 L 260.60937523201574 757.4414059519186 L 260.71093760005897 759.6914063359727 L 262.3515627520392 761.1250001919689 L 264.4999997440609 763.3789061119314 L 264.4999997440609 766.0429690879537 L 263.37499955203384 768.2929684479604 L 262.55468748806743 771.3671874559368 L 262.14843699202174 774.8476559359697 L 265.2187504640315 777.816406015947 L 265.7343754240428 781.0937497599516 L 267.88281241606455 780.0703129599569 L 270.5468753920286 779.8671871999395 L 273.3124997120467 779.9687495679245 L 276.07031296001514 778.1249996799743 L 279.4531246080296 778.1249996799743 L 282.62500044802437 777.714843647962 L 284.78124953602673 779.4570311679272 L 287.1328122880659 780.277344255941 L 288.56249958404806 782.7343749119318 L 290.7187496960396 785.9062497279374 L 291.43750041601015 789.4921871359693 L 294.19531264004763 790.5156249599531 L 296.25000038405415 792.2578124799184 L 298.80468787206337 793.9960934399278 L 302.28906291205203 795.4296872959239 L 305.66406246402767 798.1953126399312 L 308.1249996800325 799.8320312319556 L 310.78906265605474 802.1874995199614 L 312.11718758405186 804.8515624959255 L 315.8046873600106 805.6718745599501 L 320.4140625920263 805.7734379519243 L 322.8671877120505 807.4101565439487 L 323.79687526402995 809.3554687999422 L 324.4062504960457 812.5312501759618 L 326.3515627520392 815.3984378879541 L 329.3203128320165 816.9335941119352 L 346.3203123200219 816.9335941119352 L 372.02343731204746 815.8085939199664 L 375.9140628480236 815.6054691839381 L 384.21093785605626 815.2968744959217 L 391.8906245120452 814.9882808319526 L 423.42968729604036 813.5546879999456 L 447.79687526402995 812.4296878079185 L 450.3593748480198 812.0195307519753 L 452.8203120640246 811.0976563199656 L 457.01562470401404 810.4843745279359 L 458.34374963201117 808.2304686079733 L 461.0078126080334 805.6718745599501 L 463.46874982403824 803.1093749759602 L 465.20312524802284 799.5273441279423 L 468.5859379200265 798.3984373759595 L 471.96874956804095 797.0703124479624 L 474.52343705605017 796.1484369919635 L 477.28906240005745 795.2265625599539 L 481.2812503040186 793.1796879359754 L 483.9453122560517 792.664062975964 L 487.32812492805533 790.7187496959232 L 490.29687500803266 791.437500415952 L 492.8515624960419 790.0039065599558 L 496.5390622720588 788.5703127039596 L 502.3750000640284 786.0117186559364 L 504.83593728003325 783.4492190719466 L 505.4531246080296 779.6601559039555 L 505.4531246080296 776.5898434559349 L 505.75781273603207 772.800781311933 L 507.70312499202555 768.2929684479604 L 508.8281251840526 764.9140623359708 L 510.7734374400461 762.558594047965 L 513.4375004160102 760.6132807679242 L 514.2578124800348 763.2773437439464 L 516.1015623680432 765.2226559999399 L 518.9687500800355 766.347656191967 L 523.0625003520399 766.554687487951 L 526.9531248640269 766.554687487951 L 529.7187502080342 767.1679682559334 L 532.281249792024 766.2460938239237 L 534.0234373120475 764.7109375999426 L 536.4765624320135 762.7656253439491 L 539.445312512049 761.2304691199679 L 543.8515630080365 759.8984376319568 L 546.7187496960396 759.3867192319594 L 548.7656253440655 758.0546877439483 L 551.1171870720573 756.5195315199671 L 553.5781253120513 754.5742182399263 L 553.2734371840488 751.8085939199664 L 557.6718745600665 750.6835937279393 L 562.4843745280523 748.4296878079185 L 565.5625000960426 745.8710937599535 L 569.7578127360321 745.6640624639695 L 573.546874880034 745.9726561279385 L 577.4375004160102 743.6171878399327 L 580.4062504960457 744.2304686079733 L 583.9921879040194 745.7656248319545 L 589.2109373440617 745.8710937599535 L 592.5937500160653 744.9492183039547 L 594.7421870080288 744.5390622719424 L 597.4062499840511 743.820312575961 L 598.1249996800325 739.3164062719443 L 601.8046873600106 737.2656250879518 L 603.1406254080357 735.2187504639733 L 604.5703127040179 732.453125119966 L 605.1875000320142 730.4062504959293 L 606.9296875520376 727.539062783937 L 608.4687503360328 723.85156300792 L 611.2265625600121 721.7031249919673 L 610.1015623680432 718.4257812479627 L 612.562499584048 715.2499998719431 L 616.5546874880674 712.7929692159523 L 616.3515627520392 709.2109373439453 L 616.0390625280561 706.445311999938 L 617.6796876800363 705.3203128319583 L 619.4218752000597 702.453125119966 L 621.3671874560532 700.097655807971 L 624.9531248640269 698.0468746239203 L 629.2499998720596 696.6132807679242 L 632.53125017602 698.0468746239203 L 634.8828129280591 698.664062975964 L 637.0312499200227 698.3554682879476 L 640.0000000000582 697.7421875199652 L 642.1562501120497 696.2070312959258 L 643.6874997760169 692.8242186239222 L 645.8437498880667 691.289062399941 L 647.5781253120513 688.5234370559338 L 647.1718748160638 686.6835937279393 L 645.8437498880667 685.2499998719431 L 646.5546874880674 683.5078123519197 L 648.4999997440609 681.0507816959289 L 650.3437496320112 678.1835939839366 L 652.7031255040201 678.0820326399407 L 656.7968747520354 681.4609377279412 L 666.8359372800332 690.5742182399263 L 672.9765621760162 696.3085936639691 L 677.5859374080319 700.6093752319575 L 679.7343754240428 702.347656191967 L 681.4765629440662 703.8867189759621 L 683.1171870720573 705.4218751999433 L 685.6718745600665 707.9804692479665 L 688.3359375360305 710.2343751679291 L 691.3046876160661 712.8945315839374 L 696.53125017602 717.710937087948 L 698.5781248000567 719.1445309439441 L 703.2890624000574 722.3164057599497 L 706.1562501120497 724.2617190399324 L 708.812499968044 726.0039065599558 L 717.3124997120467 731.7382809599512 L 721.2031252480228 734.5039063039585 L 724.9921873920248 737.1640627199668 L 728.2734376960434 739.2148439039593 L 731.9609374720603 741.7734379519243 L 739.2265625600121 746.5859379199683 L 743.015624704014 749.1445309439441 L 752.2343751680455 755.390624767926 L 758.1718753280584 759.3867192319594 L 761.0390620160615 761.4335938559379 L 765.445312512049 764.4023439359735 L 768.2109378560563 766.1445314559387 L 770.562499584048 767.8867189759621 L 773.3281249280553 769.5234375679283 L 776.1953126400476 771.6757811199641 L 777.8359377920278 772.800781311933 L 781.7265623040148 775.4609377279412 L 785.8203125760192 778.2265620479593 L 793.0937497600098 783.6562503679306 L 795.8593751040171 782.6289059839328 L 798.5156249600113 781.3007810559357 L 800.5703127040179 780.4804689919692 L 803.8437498880667 779.1484375039581 L 806.812499968044 777.921874943946 L 810.1953126400476 776.7929692159523 L 813.4687498240382 775.4609377279412 L 816.1328128000605 774.2343751679291 L 819.5078123520361 772.1874995199614 L 822.2734376960434 770.5468753919704 L 825.7578127360321 768.6015621119295 L 828.0078120960388 767.2695316479658 L 832.4140625920263 765.1210936319549 L 835.5859374080319 763.5859374079737 L 838.6562498560525 761.535156223923 L 842.7578122240375 759.1796879359754 L 845.828124672058 757.746094079921 L 849.3124997120467 756.2109378559398 L 853.1015628800378 754.7773439999437 L 856.6796871680417 753.7539061759599 L 860.1640622080304 752.5234370559338 L 863.7499996160623 751.8085939199664 L 867.023437824042 751.0898442239268 L 869.6874997760169 750.273437695927 L 872.7578122240375 749.4531246079714 L 874.8046878720634 749.1445309439441 L 877.26562508801 748.5312501759618 L 880.6406246400438 747.5078123519197 L 885.5625000960426 745.7656248319545 L 890.2656245760154 744.2304686079733 L 893.7499996160623 743.3085941759637 L 897.0312499200227 742.1835939839366 L 899.0781245440594 741.7734379519243 L 901.9453122560517 740.9531248639687 L 905.2187504640315 739.9296870399266 L 907.9843747840496 739.0078126079752 L 911.6718745600665 738.2929684479604 L 913.8203125760192 737.5742187519209 L 916.5859379200265 736.9609379839385 L 919.3515622400446 736.2421872639679 L 922.2187499520369 735.6289064959274 L 924.7812495360267 735.3203128319583 L 927.8515630080365 734.5039063039585 L 931.3281249280553 733.8867189759621 L 935.2187504640315 733.1718748159474 L 938.8046878720634 732.66015641595 L 941.9765626880107 732.453125119966 L 944.3359375360305 732.1484369919635 L 946.6875002880115 732.1484369919635 L 950.3750000640284 731.5312496639672 L 954.7812495360267 730.8164065279416 L 957.9531253760215 730.4062504959293 L 963.1796879360336 729.7929687039577 L 967.1718748160638 729.0742190079181 L 969.4218752000597 728.5624995839316 L 972.6015621120459 728.1523435519193 L 976.6953123840503 727.9492188159493 L 980.6875002880115 727.539062783937 L 986.4218746880651 726.6171873279382 L 990.3125002240413 725.5937495039543 L 992.562499584048 725.183593471942 L 995.4375004160102 724.3671879679314 L 999.015624704014 723.4453125119326 L 1002.3984373760177 722.7265628159512 L 1005.5703121920233 722.2148433919647 L 1008.2343751680455 721.7031249919673 L 1010.281249792024 721.4960936959251 L 1013.4531246080296 721.0898442239268 L 1016.9374996480183 720.3710935039562 L 1021.1328122880659 719.4492190719466 L 1024.0 718.8433349777624" fill="none"/><path stroke="#000000" stroke-width="2" d="M 1024.0 718.8433349777624 L 1021.1328122880659 719.4492190719466 L 1016.9374996480183 720.3710935039562 L 1013.4531246080296 721.0898442239268 L 1010.281249792024 721.4960936959251 L 1008.2343751680455 721.7031249919673 L 1005.5703121920233 722.2148433919647 L 1002.3984373760177 722.7265628159512 L 999.015624704014 723.4453125119326 L 995.4375004160102 724.3671879679314 L 992.562499584048 725.183593471942 L 990.3125002240413 725.5937495039543 L 986.4218746880651 726.6171873279382 L 980.6875002880115 727.539062783937 L 976.6953123840503 727.9492188159493 L 972.6015621120459 728.1523435519193 L 969.4218752000597 728.5624995839316 L 967.1718748160638 729.0742190079181 L 963.1796879360336 729.7929687039577 L 957.9531253760215 730.4062504959293 L 954.7812495360267 730.8164065279416 L 950.3750000640284 731.5312496639672 L 946.6875002880115 732.1484369919635 L 944.3359375360305 732.1484369919635 L 941.9765626880107 732.453125119966 L 938.8046878720634 732.66015641595 L 935.2187504640315 733.1718748159474 L 931.3281249280553 733.8867189759621 L 927.8515630080365 734.5039063039585 L 924.7812495360267 735.3203128319583 L 922.2187499520369 735.6289064959274 L 919.3515622400446 736.2421872639679 L 916.5859379200265 736.9609379839385 L 913.8203125760192 737.5742187519209 L 911.6718745600665 738.2929684479604 L 907.9843747840496 739.0078126079752 L 905.2187504640315 739.9296870399266 L 901.9453122560517 740.9531248639687 L 899.0781245440594 741.7734379519243 L 897.0312499200227 742.1835939839366 L 893.7499996160623 743.3085941759637 L 890.2656245760154 744.2304686079733 L 885.5625000960426 745.7656248319545 L 880.6406246400438 747.5078123519197 L 877.26562508801 748.5312501759618 L 874.8046878720634 749.1445309439441 L 872.7578122240375 749.4531246079714 L 869.6874997760169 750.273437695927 L 867.023437824042 751.0898442239268 L 863.7499996160623 751.8085939199664 L 860.1640622080304 752.5234370559338 L 856.6796871680417 753.7539061759599 L 853.1015628800378 754.7773439999437 L 849.3124997120467 756.2109378559398 L 845.828124672058 757.746094079921 L 842.7578122240375 759.1796879359754 L 838.6562498560525 761.535156223923 L 835.5859374080319 763.5859374079737 L 832.4140625920263 765.1210936319549 L 828.0078120960388 767.2695316479658 L 825.7578127360321 768.6015621119295 L 822.2734376960434 770.5468753919704 L 819.5078123520361 772.1874995199614 L 816.1328128000605 774.2343751679291 L 813.4687498240382 775.4609377279412 L 810.1953126400476 776.7929692159523 L 806.812499968044 777.921874943946 L 803.8437498880667 779.1484375039581 L 800.5703127040179 780.4804689919692 L 798.5156249600113 781.3007810559357 L 795.8593751040171 782.6289059839328 L 793.0937497600098 783.6562503679306 L 785.8203125760192 778.2265620479593 L 781.7265623040148 775.4609377279412 L 777.8359377920278 772.800781311933 L 776.1953126400476 771.6757811199641 L 773.3281249280553 769.5234375679283 L 770.562499584048 767.8867189759621 L 768.2109378560563 766.1445314559387 L 765.445312512049 764.4023439359735 L 761.0390620160615 761.4335938559379 L 758.1718753280584 759.3867192319594 L 752.2343751680455 755.390624767926 L 743.015624704014 749.1445309439441 L 739.2265625600121 746.5859379199683 L 731.9609374720603 741.7734379519243 L 728.2734376960434 739.2148439039593 L 724.9921873920248 737.1640627199668 L 721.2031252480228 734.5039063039585 L 717.3124997120467 731.7382809599512 L 708.812499968044 726.0039065599558 L 706.1562501120497 724.2617190399324 L 703.2890624000574 722.3164057599497 L 698.5781248000567 719.1445309439441 L 696.53125017602 717.710937087948 L 691.3046876160661 712.8945315839374 L 688.3359375360305 710.2343751679291 L 685.6718745600665 707.9804692479665 L 683.1171870720573 705.4218751999433 L 681.4765629440662 703.8867189759621 L 679.7343754240428 702.347656191967 L 677.5859374080319 700.6093752319575 L 672.9765621760162 696.3085936639691 L 666.8359372800332 690.5742182399263 L 656.7968747520354 681.4609377279412 L 652.7031255040201 678.0820326399407 L 650.3437496320112 678.1835939839366 L 648.4999997440609 681.0507816959289 L 646.5546874880674 683.5078123519197 L 645.8437498880667 685.2499998719431 L 647.1718748160638 686.6835937279393 L 647.5781253120513 688.5234370559338 L 645.8437498880667 691.289062399941 L 643.6874997760169 692.8242186239222 L 642.1562501120497 696.2070312959258 L 640.0000000000582 697.7421875199652 L 637.0312499200227 698.3554682879476 L 634.8828129280591 698.664062975964 L 632.53125017602 698.0468746239203 L 629.2499998720596 696.6132807679242 L 624.9531248640269 698.0468746239203 L 621.3671874560532 700.097655807971 L 619.4218752000597 702.453125119966 L 617.6796876800363 705.3203128319583 L 616.0390625280561 706.445311999938 L 616.3515627520392 709.2109373439453 L 616.5546874880674 712.7929692159523 L 612.562499584048 715.2499998719431 L 610.1015623680432 718.4257812479627 L 611.2265625600121 721.7031249919673 L 608.4687503360328 723.85156300792 L 606.9296875520376 727.539062783937 L 605.1875000320142 730.4062504959293 L 604.5703127040179 732.453125119966 L 603.1406254080357 735.2187504639733 L 601.8046873600106 737.2656250879518 L 598.1249996800325 739.3164062719443 L 597.4062499840511 743.820312575961 L 594.7421870080288 744.5390622719424 L 592.5937500160653 744.9492183039547 L 589.2109373440617 745.8710937599535 L 583.9921879040194 745.7656248319545 L 580.4062504960457 744.2304686079733 L 577.4375004160102 743.6171878399327 L 573.546874880034 745.9726561279385 L 569.7578127360321 745.6640624639695 L 565.5625000960426 745.8710937599535 L 562.4843745280523 748.4296878079185 L 557.6718745600665 750.6835937279393 L 553.2734371840488 751.8085939199664 L 553.5781253120513 754.5742182399263 L 551.1171870720573 756.5195315199671 L 548.7656253440655 758.0546877439483 L 546.7187496960396 759.3867192319594 L 543.8515630080365 759.8984376319568 L 539.445312512049 761.2304691199679 L 536.4765624320135 762.7656253439491 L 534.0234373120475 764.7109375999426 L 532.281249792024 766.2460938239237 L 529.7187502080342 767.1679682559334 L 526.9531248640269 766.554687487951 L 523.0625003520399 766.554687487951 L 518.9687500800355 766.347656191967 L 516.1015623680432 765.2226559999399 L 514.2578124800348 763.2773437439464 L 513.4375004160102 760.6132807679242 L 510.7734374400461 762.558594047965 L 508.8281251840526 764.9140623359708 L 507.70312499202555 768.2929684479604 L 505.75781273603207 772.800781311933 L 505.4531246080296 776.5898434559349 L 505.4531246080296 779.6601559039555 L 504.83593728003325 783.4492190719466 L 502.3750000640284 786.0117186559364 L 496.5390622720588 788.5703127039596 L 492.8515624960419 790.0039065599558 L 490.29687500803266 791.437500415952 L 487.32812492805533 790.7187496959232 L 483.9453122560517 792.664062975964 L 481.2812503040186 793.1796879359754 L 477.28906240005745 795.2265625599539 L 474.52343705605017 796.1484369919635 L 471.96874956804095 797.0703124479624 L 468.5859379200265 798.3984373759595 L 465.20312524802284 799.5273441279423 L 463.46874982403824 803.1093749759602 L 461.0078126080334 805.6718745599501 L 458.34374963201117 808.2304686079733 L 457.01562470401404 810.4843745279359 L 452.8203120640246 811.0976563199656 L 450.3593748480198 812.0195307519753 L 447.79687526402995 812.4296878079185 L 423.42968729604036 813.5546879999456 L 391.8906245120452 814.9882808319526 L 384.21093785605626 815.2968744959217 L 375.9140628480236 815.6054691839381 L 372.02343731204746 815.8085939199664 L 346.3203123200219 816.9335941119352 L 329.3203128320165 816.9335941119352 L 326.3515627520392 815.3984378879541 L 324.4062504960457 812.5312501759618 L 323.79687526402995 809.3554687999422 L 322.8671877120505 807.4101565439487 L 320.4140625920263 805.7734379519243 L 315.8046873600106 805.6718745599501 L 312.11718758405186 804.8515624959255 L 310.78906265605474 802.1874995199614 L 308.1249996800325 799.8320312319556 L 305.66406246402767 798.1953126399312 L 302.28906291205203 795.4296872959239 L 298.80468787206337 793.9960934399278 L 296.25000038405415 792.2578124799184 L 294.19531264004763 790.5156249599531 L 291.43750041601015 789.4921871359693 L 290.7187496960396 785.9062497279374 L 288.56249958404806 782.7343749119318 L 287.1328122880659 780.277344255941 L 284.78124953602673 779.4570311679272 L 282.62500044802437 777.714843647962 L 279.4531246080296 778.1249996799743 L 276.07031296001514 778.1249996799743 L 273.3124997120467 779.9687495679245 L 270.5468753920286 779.8671871999395 L 267.88281241606455 780.0703129599569 L 265.7343754240428 781.0937497599516 L 265.2187504640315 777.816406015947 L 262.14843699202174 774.8476559359697 L 262.55468748806743 771.3671874559368 L 263.37499955203384 768.2929684479604 L 264.4999997440609 766.0429690879537 L 264.4999997440609 763.3789061119314 L 262.3515627520392 761.1250001919689 L 260.71093760005897 759.6914063359727 L 260.60937523201574 757.4414059519186 L 259.2812503040186 754.4687503359746 L 254.7734374400461 752.5234370559338 L 252.10937548801303 750.4765624319552 L 249.34375014406396 749.3515622399282 L 248.11718758405186 746.3828121599508 L 248.2187499520369 741.7734481919324 L 245.86718720005592 742.0820316159516 L 242.6875002880115 741.9765626879525 L 236.75000012805685 743.7187502079178 L 234.49999974406091 743.3085941759637 L 231.93750016001286 743.0039060479612 L 228.66406297602225 741.7734379519243 L 225.89843763201497 738.5976565759629 L 223.9531253760215 736.347656191967 L 220.88281292805914 734.6054686719435 L 218.42187468806515 733.6835942399339 L 215.3515622400446 733.2734371839324 L 212.28124979202403 735.4257817599573 L 211.14843750401633 732.8632811519201 L 208.79687475203536 732.0468746239203 L 204.49999974406091 731.9414067199687 L 200.0937502720626 731.6367185919662 L 197.12500019202707 733.7851566079189 L 193.23437465605093 734.5039063039585 L 191.1875000320142 735.7304688639706 L 188.62500044802437 736.8593745919643 L 185.65625036804704 737.4726563839358 L 182.37500006402843 737.5742187519209 L 179.61718784004916 737.7812500479631 L 176.5390622720588 736.2421872639679 L 172.85156249604188 735.9375001599547 L 169.57812531205127 735.0156247039558 L 169.47656294406625 732.3515627519228 L 165.1718748160638 731.0195312639698 L 161.69531289604492 731.6367185919662 L 158.7265628160676 731.9414067199687 L 156.3671879680478 732.1484369919635 L 153.60156262404053 730.7148441599566 L 150.53125017601997 729.2812503039604 L 149.4062499840511 726.1054689279408 L 150.1249996800325 722.4179691519239 L 150.73437491204822 719.4492190719466 L 148.89062502403976 717.710937087948 L 149.60937472002115 714.7382814719458 L 149.0937497600098 711.3593753599562 L 146.84375040006125 710.2343751679291 L 143.87500032002572 711.5664066559402 L 141.52343756804476 710.8476559359697 L 138.4453120000544 707.6757811199641 L 139.88281241606455 704.1914060799754 L 142.64843776001362 702.347656191967 L 141.00781260803342 699.4804684799747 L 136.91406233602902 696.5117183999391 L 134.55468748806743 695.5898439679295 L 132.30468710401328 694.7734374399297 L 130.25781248003477 692.3125002239249 L 128.7187496960396 688.8320317439502 L 125.64843724801904 687.9101562879514 L 124.10937548801303 684.6328125439468 L 119.39843788801227 685.7617182719405 L 115.8203125760192 685.2499998719431 L 113.46093772805762 684.3281254399335 L 109.26562508800998 685.4531246079714 L 106.60156211204594 683.917968383932 L 105.37499955203384 681.7656248319545 L 105.47656294406625 679.3085941759637 L 102.91406233602902 675.3164062719443 L 99.12500019202707 673.2695316479658 L 95.33593702403596 672.9609379839385 L 93.4921871360275 670.8085934079718 L 92.06249984004535 667.1250001919689 L 89.70312499202555 666.4062504959293 L 87.24999987205956 666.097655807971 L 84.78906265605474 665.7929687039577 L 82.64062464004382 662.5156249599531 L 80.59375001606531 659.1367188479635 L 77.52343756804476 657.7031249919673 L 75.46874982403824 656.9843752959277 L 73.62499993602978 654.9374996479601 L 74.14062489604112 652.5820313599543 L 75.16406272002496 650.1249996799743 L 72.29687500803266 648.7929692159523 L 70.25000038405415 647.2578129919712 L 68.50781286403071 645.1093749759602 L 68.40625049604569 641.8320312319556 L 69.84374988806667 638.453125119966 L 66.3593748480198 636.6093752319575 L 65.43750041601015 633.2304691199679 L 67.07812454405939 630.976562175958 L 68.71093760005897 629.746094079921 L 69.74218752002344 628.1093754879548 L 68.10156236804323 625.4453125119326 L 69.42968729604036 622.5781247999403 L 72.49999974406091 621.0429685759591 L 72.19531264004763 618.4843745279359 L 73.3203128320165 615.2070307839313 L 71.27343718404882 612.7500001279404 L 72.70312550402014 608.652343295922 L 77.21093734406168 605.6835942399339 L 78.4453120000544 602.9179688959266 L 75.98437478404958 601.8945310719428 L 73.3203128320165 599.9492188159493 L 71.07031244802056 599.3359370239195 L 68.92187545605702 598.5156249599531 L 67.48437504004687 596.6718750719447 L 66.3593748480198 594.1132810239214 L 63.39062476804247 592.5781247999403 L 62.77343744004611 589.4023434239207 L 62.05468774406472 587.2499998719431 L 61.34375014406396 584.4882810879499 L 63.17968793603359 582.2343751679291 L 65.1328122880659 580.6992189439479 L 65.43750041601015 577.3203128319583 L 65.64062515203841 574.9648435199633 L 63.39062476804247 573.5312496639672 L 59.90624972805381 573.3242183679249 L 55.81250048003858 572.5078128639725 L 52.5390622720588 568.7187496959232 L 49.25781299202936 567.285155839927 L 46.18749952001963 566.3632814079756 L 43.11718707205728 564.6210938879522 L 40.25000038405415 565.2343746559345 L 37.48437504004687 565.644531711936 L 34.51562496001134 566.4648437759606 L 31.23437465605093 565.4414059519186 L 31.031249920022674 561.6523438079748 L 27.54687488003401 558.273437695927 L 25.296874496038072 556.4296878079185 L 21.304687616066076 555.917968383932 L 18.023437312047463 557.4531246079714 L 15.05468723201193 558.6835937279393 L 12.804687872063369 557.3515622399282 L 12.492187648022082 555.5078123519197 L 12.085937152034603 553.7656248319545 L 10.140624896041118 552.2304686079733 L 7.890624512045179 551.4101565439487 L 6.656249856052455 548.5429688319564 L 6.968750080035534 545.0625003519235 L 5.023437824042048 542.9140623359708 L 4.406250496045686 539.6367185919662 L 4.406250496045686 535.3359370239195 L 7.374999552033842 530.9296875519212 L 9.523437568044756 528.0624998399289 L 13.109374976018444 527.0390620159451 L 15.671874560066499 527.0390620159451 L 18.234375168045517 527.1445309439441 L 21.81250048003858 527.4492190719466 L 24.273437696043402 526.2226565119345 L 25.093749760009814 524.4804689919692 L 29.08593766402919 523.4570311679272 L 33.59374950401252 520.7929692159523 L 36.46093721606303 518.6445311999414 L 40.656249856052455 519.6679690239253 L 43.82812467205804 520.5898434559349 L 47.71875020803418 520.1796874239226 L 47.71875020803418 517.4140620799735 L 47.109374976018444 513.3203128319583 L 48.640624640043825 510.24609382392373 L 50.687500288011506 509.7343754239264 L 52.94531276804628 509.6328120319522 L 56.32031232002191 509.4257817599573 L 57.85937510401709 504.3085936639691 L 60.828125184052624 502.3632814079756 L 63.39062476804247 501.644531711936 L 65.74218752002344 501.2343746559345 L 69.12500019202707 499.9062497279374 L 74.5468753920286 499.80078079993837 L 74.96093798405491 497.1406254079193 L 70.65624985605245 494.9882808319526 L 68.00000000005821 492.4296878079185 L 65.64062515203841 494.47656243195524 L 64.41406259202631 497.34375014394755 L 61.851563008036464 499.085937663971 L 58.3671879680478 499.085937663971 L 56.21874995203689 496.52343705593375 L 57.45312460802961 490.5859379199683 L 54.58593792002648 487.71875020791776 L 54.17187532805838 483.21484390395926 L 57.1406254080357 480.9609379839385 L 54.47656243201345 479.8320312319556 L 52.32812544004992 480.65234329592204 L 49.87500032002572 482.29296844796045 L 46.796874752035365 483.21484390395926 L 43.92968704004306 482.1874995199614 L 43.3203128320165 479.8320312319556 L 43.62499993602978 476.558594047965 L 41.57812531205127 475.94140671996865 L 36.46093721606303 477.6835942399339 L 33.28125030401861 478.1953126399312 L 31.437500416010153 476.35156275192276 L 32.57031270401785 473.2812503039604 L 35.43750041601015 468.26171903993236 L 33.59374950401252 466.11328102392145 L 30.828125184052624 464.57812479994027 L 26.7265628160676 464.7812495359685 L 24.273437696043402 465.6015626239241 L 21.60937472002115 467.44531251193257 L 18.335937536030542 468.98046873597195 L 14.750000128056854 468.3632814079756 L 11.265625088009983 468.67187507194467 L 8.093750272062607 472.15234355191933 L 5.632812032010406 473.38281267194543 L 3.179687936033588 471.43750041595194 L 2.562499584048055 468.16015667194733 L 0.0 468.8025270500948" fill="none"/></svg>