<svg xmlns="http://www.w3.org/2000/svg" width="1024" height="1024"><rect stroke="none" x="0" y="0" width="1024" height="1024" fill="white"/><path stroke="#000000" stroke-width="2" d="M 1024.0 794.0858607276605 L 1023.4921871360275 794.20312473597 L 1017.8593751040171 797.2734371839324 L 1015.3984378880123 798.5039063039585 L 1011.2031252480228 801.8828124159481 L 1008.6406246400438 803.0078126079752 L 1005.164062720025 803.8281246719416 L 999.5312496640254 806.1835939839366 L 995.2265625600121 807.6171878399327 L 989.8046873600106 810.6875002879533 L 985.3984378880123 815.1953121279366 L 982.4296878080349 815.9101562879514 L 978.2343751680455 819.187500031956 L 973.9296870400431 822.7734374399297 L 970.0390625280561 826.1523435519193 L 965.6328120320104 830.0429690879537 L 958.7734374400461 834.9570314239245 L 950.8906250240398 841.0000005119364 L 949.0468751360313 842.6367191039608 L 946.5859379200265 844.171875327942 L 944.5390622720588 846.1171875839354 L 942.6953123840503 847.5507814399316 L 939.2187504640315 851.1367188479635 L 936.1406248960411 853.9023441919708 L 932.562499584048 858.6132807679242 L 929.1796879360336 863.3203128319583 L 925.8046873600106 870.4882810879499 L 924.7812495360267 874.6875002879533 L 922.7265628160094 879.6054691839381 L 921.0937497600098 882.0624998399289 L 919.554688000062 884.6210938879522 L 918.1249996800325 888.3085936639691 L 915.4609377280576 892.7109375999426 L 913.1015628800378 896.3984373759595 L 911.4687498240382 898.9570314239245 L 909.3124997120467 900.6992189439479 L 907.4687498240382 902.9492183039547 L 905.6249999360298 905.0000005119364 L 903.0703124480206 905.3046876159497 L 899.7890621440602 908.8906250239233 L 895.3906247680425 912.7812495359685 L 892.5234370560502 914.5234370559338 L 889.554688000062 916.3632814079756 L 887.0937497600098 917.5937495039543 L 885.3515622400446 918.8242186239222 L 884.0234373120475 921.6914063359727 L 882.4843745280523 924.7617187839351 L 880.3359375360305 927.1171870719409 L 878.5937500160653 927.8320312319556 L 876.6484377600136 929.0625003519235 L 874.9062502400484 930.4960942079197 L 872.9609379840549 931.0078126079752 L 871.015624704014 931.7265623039566 L 869.0703124480206 932.1328127999441 L 866.5156249600113 932.5429688319564 L 863.7499996160623 935.2070307839313 L 860.9843752960442 938.277344255941 L 858.5234370560502 940.9414062079741 L 855.656250368047 944.1171875839354 L 853.9140628480236 945.6523438079748 L 852.4843745280523 947.289062399941 L 849.8203125760192 951.078124543943 L 848.6953123840503 952.9218754559406 L 846.7500001280569 953.535156223923 L 845.9296870400431 956.9140623359708 L 844.4999997440609 959.7812500479631 L 842.8593745920225 963.0585937919677 L 841.4218752000597 966.9492183039547 L 840.0937502720626 970.3281254399335 L 838.7656253440655 974.7343749119318 L 838.0468746240367 979.0351564799203 L 837.3281249280553 982.5156249599531 L 837.023437824042 985.1796879359754 L 837.7343754240428 988.453125119966 L 838.4531251200242 993.1640627199668 L 838.9687500800355 997.3632808959228 L 840.3984373760177 1001.5625000959262 L 841.6328120320104 1004.2226565119345 L 843.164062720025 1006.9882808319526 L 844.1874995200196 1008.7304683519178 L 845.6249999360298 1011.085937663971 L 847.4687498240382 1013.9531253759633 L 848.6953123840503 1015.4882815999445 L 852.382812160009 1019.2773437439464 L 858.0156252160668 1023.1679682559334 L 859.2726416533842 1024.0" fill="none"/><path stroke="#000000" stroke-width="2" d="M 824.21839771542 1024.0 L 824.2187499520369 1023.9882813439472 L 822.7890626560547 1018.8671877119341 L 821.8671872000559 1015.5898439679295 L 820.7421870080288 1012.0078120959224 L 818.8984371200204 1008.2187499519205 L 816.4374999040156 1005.3515622399282 L 813.4687498240382 1003.1992186879506 L 808.5546874880092 1000.3320309759583 L 805.2734371840488 998.4882810879499 L 802.6171873280546 997.0546872319537 L 799.5390627840534 995.6210933759576 L 796.5703127040179 994.0859371519182 L 793.0937497600098 992.1406248959247 L 790.0234373120475 989.9921879039612 L 786.1249996800325 987.4296872959239 L 783.5703121920233 984.8710932479589 L 780.6015621120459 981.082031103957 L 778.8593745920225 978.1132810239214 L 777.2187504640315 974.3242188799195 L 775.2734371840488 970.7382814719458 L 773.1250001920271 966.027343871945 L 770.7656253440655 962.1367183359689 L 768.2109378560563 958.1445314559387 L 762.7812495360267 950.5664061439456 L 761.1406254080357 953.3320314879529 L 759.0937497600098 955.9921879039612 L 758.1718753280584 957.7343754239264 L 756.0234373120475 958.347656191967 L 753.1562496000552 957.6328120319522 L 734.9296875520376 956.5039063039585 L 722.9453127680463 955.0742190079181 L 717.3124997120467 953.8437498879503 L 714.6562498560525 953.535156223923 L 711.9921879040194 953.2304691199679 L 708.6093752320157 953.3320314879529 L 705.9453122560517 965.7226557439426 L 707.1796879360336 968.8945315839374 L 709.2265625600121 972.378906623926 L 711.8906245120452 975.2460933119291 L 715.3671874560532 977.9062497279374 L 720.078125056054 980.0585932799731 L 725.8125004800386 982.6171873279382 L 733.0859376640292 984.7695308799739 L 739.6406251520384 987.0195312639698 L 742.1953126400476 988.453125119966 L 751.3124997120467 994.5976565759629 L 757.7656248320127 1000.1289062399301 L 760.2187499520369 1008.1171875839354 L 754.179687424039 1023.9882813439472 L 754.1711340113688 1024.0" fill="none"/><path stroke="#000000" stroke-width="2" d="M 714.975504645161 1024.0 L 714.9609379840549 1023.9882813439472 L 703.79687526403 1014.7734374399297 L 699.1875000320142 1010.8789063679287 L 693.2499998720596 1007.5000002559391 L 684.8515624960419 1003.609374719963 L 677.3828126720618 1000.7421870079706 L 669.7031249920256 997.8750003199675 L 662.53125017602 995.7265623039566 L 652.9062502400484 993.1640627199668 L 647.1718748160638 989.9921879039612 L 643.0781245440594 987.4296872959239 L 639.1875000320142 984.9726566399331 L 636.6250004480244 983.437500415952 L 634.7812495360267 981.6953128959285 L 632.7343749120482 979.2382812159485 L 630.4843745280523 975.5507814399316 L 629.554688000062 970.6367191039608 L 629.3515622400446 966.9492183039547 L 629.7656248320127 964.4921876479639 L 631.3984378880123 961.5234375679283 L 632.8359424000373 958.7578142719576 L 633.8593802240212 956.7109396479209 L 635.0859376640292 953.640625151922 L 636.5234370560502 950.5664061439456 L 637.648437248019 947.4960936959251 L 638.5703127040179 944.5234370559338 L 639.4921871360275 939.5078123519197 L 639.0781245440594 934.5937500159489 L 637.546874880034 930.2929684479604 L 636.4218746880651 927.5273441279423 L 634.2656245760154 923.8398433279363 L 631.7109370880644 919.9492188159493 L 629.6640624640277 917.183593471942 L 626.6953123840503 914.0117186559364 L 624.3359375360305 912.2695311359712 L 622.1874995200196 910.835937279975 L 617.9843747840496 908.378906623926 L 612.562499584048 905.4101565439487 L 609.0781245440594 903.1562495999387 L 605.2890624000574 900.6992189439479 L 602.0156252160668 898.1367183359689 L 599.554688000062 895.8867189759621 L 588.1874995200196 882.4726558719412 L 578.3593748480198 868.2382817279431 L 575.1875000320142 858.7148441599566 L 568.4218746880651 848.8828129279427 L 565.5625000960426 844.6835937279393 L 560.6406246400438 837.0039060479612 L 558.6953123840503 834.1367183359689 L 557.3671874560532 831.9882813439472 L 555.5234375680448 828.6093752319575 L 551.015624704014 819.4960936959251 L 550.1953126400476 815.8085939199664 L 545.4843750400469 801.4726563839358 L 545.2812503040186 796.8632811519201 L 546.4140625920263 794.097655807971 L 549.3828126720618 788.1601566719473 L 551.1171870720573 785.0898442239268 L 552.9609379840549 781.710937087948 L 554.9062502400484 776.6914058239199 L 554.9062502400484 772.902343679918 L 554.589241344016 771.2502384639229 L 554.2968750080327 769.7265623039566 L 552.6562498560525 767.6796876799199 L 549.2734371840488 766.1445314559387 L 545.898437632015 765.2226559999399 L 543.0312499200227 764.7109375999426 L 539.2421877760207 764.5078128639725 L 535.656250368047 764.7109375999426 L 532.4843745280523 765.0195312639698 L 529.1015628800378 765.8359377919696 L 525.7265623040148 766.2460938239237 L 523.164062720025 766.7578122239211 L 520.2968750080327 764.4023439359735 L 515.6874997760169 759.285155839927 L 511.898437632015 756.1093754879548 L 509.64843724801904 753.9570309119299 L 506.88281292805914 750.8867184639676 L 504.7343749120482 748.6328125439468 L 502.47656243201345 746.0742184959236 L 500.1249996800325 743.1054684159462 L 497.05468723201193 739.2148439039593 L 494.1874995200196 734.3984373759595 L 493.16406272002496 730.3046871039551 L 493.46874982403824 726.3125002239249 L 496.1328128000605 720.7812495359685 L 497.05468723201193 717.5039057919639 L 497.56250009604264 713.4101565439487 L 499.4062499840511 706.7539066879544 L 501.3515622400446 703.1679682559334 L 503.60937472002115 700.8124999679276 L 513.4375004160102 694.3632814079756 L 516.812499968044 691.289062399941 L 519.0703124480206 688.0117186559364 L 520.710937600059 685.2499998719431 L 523.164062720025 682.7890626559383 L 526.1328128000605 681.1523440639721 L 528.9999994880636 680.7421870079706 L 531.4609377280576 679.2070307839313 L 534.8359372800332 678.3867187199648 L 538.0156252160668 677.6718745599501 L 542.9296875520376 677.3632808959228 L 548.1484369920217 677.1601561599527 L 551.3281249280553 676.8515624959255 L 555.4218752000597 676.6484377599554 L 558.390625280037 676.5429688319564 L 561.1562496000552 676.2382817279431 L 564.7421870080288 675.5195310079725 L 568.9374996480183 674.0859371519182 L 571.5000002560555 672.7539066879544 L 574.8749998080311 671.9375001599547 L 578.460937216063 670.7070310399286 L 581.3281249280553 667.9414067199687 L 583.0703124480206 665.1796879359754 L 584.1953126400476 663.1289067519247 L 585.5234375680448 659.3398435839335 L 587.3671874560532 651.1484375039581 L 589.4140620800317 643.0585937919677 L 590.3359375360305 639.9882813439472 L 591.4687498240382 635.6874997759587 L 592.5937500160653 630.1562501119333 L 592.7968747520354 625.8554685439449 L 592.5937500160653 622.4765624319552 L 591.6718745600665 618.5859379199683 L 590.5468753920286 613.9765626879525 L 589.1093749760184 610.0859371519182 L 587.5781253120513 605.8867189759621 L 586.1406248960411 602.6132807679242 L 584.3984373760177 598.4140625919681 L 582.7578122240375 594.6250004479662 L 581.6328120320104 591.6562503679306 L 580.5078128640307 589.5039057919639 L 579.4843750400469 586.9453127679299 L 578.1562501120497 584.2812497919658 L 576.7187496960396 581.4140620799735 L 574.8749998080311 578.2421872639679 L 573.0312499200227 575.3749995519756 L 569.8593751040171 571.2773437439464 L 567.6093747200212 568.7187496959232 L 564.3281254400499 565.3398435839335 L 561.3593753600144 562.2656245759572 L 558.6953123840503 560.0117186559364 L 555.523478528019 557.4531512319227 L 552.7578122240375 555.1992186879506 L 549.3828126720618 552.5390622719424 L 546.3046871040133 550.2851563519216 L 543.4375004160102 547.9296870399266 L 540.6718750720611 545.4726563839358 L 537.6015626240405 541.8867189759621 L 534.7343749120482 537.9960934399278 L 532.281249792024 534.6171873279382 L 529.8203125760192 531.4453125119326 L 526.8515624960419 527.3476567039615 L 524.1874995200196 523.9687495679245 L 522.1406248960411 521.1015628799214 L 520.6015621120459 518.7460935679264 L 518.9687500800355 516.1874995199614 L 517.3281249280553 513.1132815359742 L 514.8671877120505 508.097655807971 L 513.6406251520384 504.5117183999391 L 512.5156249600113 501.44140595191857 L 512.0000000000582 499.28906239994103 L 510.87499980803113 497.1406254079193 L 509.74999961606227 495.19531212793663 L 508.62500044802437 492.94140620797407 L 507.0859376640292 490.9960939519224 L 505.4531246080296 488.74218700797064 L 503.9140628480236 486.38671871996485 L 501.3515622400446 483.7265623039566 L 498.69531238405034 480.449218559952 L 495.7187502080342 476.35156275192276 L 494.4921876480221 473.79296870395774 L 493.57031219202327 469.39062476792606 L 492.34374963201117 463.6562503679306 L 490.70312550402014 458.1249996799743 L 489.7812500480213 453.3124997119303 L 489.57812531205127 448.3984373759595 L 488.9609379840549 444.1992191999452 L 489.7812500480213 441.7421875199652 L 490.3984373760177 438.15625011193333 L 490.0937502720626 435.39062476792606 L 490.19531264004763 432.0117186559364 L 491.2187504640315 428.12109414394945 L 494.79687475203536 425.5625000959262 L 498.79687475203536 425.25390643195715 L 503.2968744960381 426.07421849592356 L 506.3750000640284 427.0976563199656 L 510.3671879680478 428.01953075197525 L 515.0781245440594 429.24999987194315 L 518.4531251200242 429.8632816639729 L 522.4453120000544 429.7617182719405 L 525.4218752000597 429.35156223992817 L 528.8984371200204 428.2226565119345 L 531.3593753600144 426.9960939519224 L 534.2265620480175 424.74218700797064 L 536.3750000640284 420.6484377599554 L 536.3750000640284 415.4257817599573 L 534.1249996800325 410.71484415995656 L 531.6640624640277 407.746094079921 L 528.7968747520354 404.7734374399297 L 526.5468753920286 402.3164057599497 L 524.4999997440609 400.16796876792796 L 521.7343754240428 398.0156252159504 L 519.2734371840488 396.07031295995694 L 515.898437632015 393.816406015947 L 513.5390627840534 391.3593753599562 L 511.4921871360275 389.10937497596024 L 509.2421877760207 387.16015615995275 L 504.6328125440632 382.65624985593604 L 501.8671872000559 377.9453122559353 L 495.92968704004306 372.31250022392487 L 493.8750003200257 367.39843788795406 L 495.10937497601844 363.816406015947 L 495.7187502080342 357.57031219196506 L 494.79687475203536 351.62890649592737 L 494.9062502400484 347.3281249279389 L 495.10937497601844 343.12890675192466 L 495.51562547206413 339.9570309119299 L 496.2343751680455 336.47265587194124 L 497.7656248320127 331.1484375039581 L 499.7187502080342 326.6445311999414 L 499.7187502080342 322.0351559679257 L 497.3593753600144 317.5312496639672 L 495.10937497601844 314.8671877119341 L 492.34374963201117 312.61328076792415 L 489.47656294406625 310.7734374399297 L 485.6874997760169 308.8242186239222 L 479.85156300803646 306.8789063679287 L 476.2656245760154 306.4687503359746 L 472.3750000640284 306.16406220797217 L 462.33593753603054 304.0117186559364 L 453.9453122560517 301.8632816639729 L 443.70312499202555 299.816406015947 L 436.74218700802885 297.8710937599535 L 432.5390622720588 296.1289062399301 L 429.3671874560532 294.8984371199622 L 426.29687500803266 293.2617185279378 L 423.32812492805533 290.0859371519182 L 421.78906214406015 287.4257817599573 L 418.921875456057 283.42968729592394 L 417.6953128960449 281.38281267194543 L 415.85156300803646 278.0039065599558 L 414.21093785605626 274.92968755192123 L 412.57031270401785 273.0898442239268 L 409.0937497600098 270.83593727997504 L 407.0468751360313 269.9140628479654 L 403.56250009604264 268.17187532794196 L 400.9999994880636 266.7382814719458 L 398.1328128000605 266.2265620479593 L 396.0859371520346 265.71484364796197 L 393.2187504640315 261.5156254719477 L 392.812499968044 257.21484390395926 L 390.3515627520392 256.29296844796045 L 385.74218752002344 256.8085934079718 L 381.74999961606227 257.4218751999433 L 378.5781248000567 258.9570314239245 L 375.39843788801227 260.1874995199614 L 372.3281254400499 259.98046924796654 L 368.1328128000605 259.98046924796654 L 365.46874982403824 260.08203161595156 L 361.1718748160638 260.1874995199614 L 355.6406251520384 260.08203161595156 L 352.6718750720611 259.2656250879518 L 348.6796871680417 258.0351559679257 L 343.55469721602276 254.8593776639318 L 341.60937472002115 250.45703167992178 L 340.07031296001514 246.3632814079756 L 340.89062502403976 243.69921843195334 L 341.9140628480236 240.7304683519178 L 343.24999987205956 238.57812479994027 L 344.2734376960434 236.22265651193447 L 345.70312499202555 232.74218700797064 L 347.2421877760207 228.75000012794044 L 347.74999961606227 225.88281241594814 L 347.9609374720603 223.42578175995732 L 347.75781273603207 219.01953126396984 L 345.19531212805305 215.12890675192466 L 342.1249996800325 211.03515647992026 L 339.66406246402767 206.62890598393278 L 336.5937500160653 203.66015590395546 L 333.52343756804476 201.71484364796197 L 330.1406248960411 199.56640665594023 L 327.37499955203384 198.2343751679291 L 324.71093760005897 196.80078131193295 L 321.33593702403596 195.46874982392183 L 318.0546877440647 193.83203123195563 L 314.78124953602673 192.0898437119322 L 311.5078123520361 190.453125119966 L 307.1015628800378 188.81249996792758 L 303.4140620800317 187.07421900791815 L 299.52343756804476 184.71874969592318 L 295.93750016001286 182.3632814079756 L 290.10156236804323 178.98437529592775 L 286.8281251840526 176.62890598393278 L 284.3671879680478 174.37500006397022 L 282.42187468806515 172.83984383993084 L 280.07031296001514 171.30078105593566 L 277.5078123520361 169.15234406397212 L 275.4609377280576 167.20703078393126 L 273.7187502080342 165.3632808959228 L 272.281249792024 163.62109337595757 L 270.33593753603054 160.75390668795444 L 266.7578122240375 157.68359423993388 L 263.57812531205127 156.8632811519201 L 261.02343782404205 157.37499955197563 L 258.66406297602225 156.8632811519201 L 256.3125002240413 156.66015641595004 L 251.80468736001058 157.37499955197563 L 247.81250048003858 155.6367185919662 L 244.74218700802885 153.48437503993046 L 239.41406208003173 151.640625151922 L 236.0390625280561 151.33593702391954 L 230.30468710401328 151.12890675192466 L 225.48437504004687 149.5937495039543 L 222.61718732805457 148.7734374399297 L 218.7265628160094 151.84765644796425 L 211.25781299202936 146.4179691519239 L 209.41406208003173 144.47265587194124 L 207.6718745600665 141.81250047992216 L 204.9062502400484 133.51562547194771 L 206.64843776001362 129.21484390395926 L 206.5468753920286 126.04296908795368 L 206.64843776001362 123.2773437439464 L 204.80468787206337 121.02343782392563 L 200.812499968044 119.79687526397174 L 197.7343754240428 118.36328140797559 L 193.74218752002344 116.4179691519239 L 190.7734374400461 114.98437529592775 L 187.80468736001058 113.14062540791929 L 183.9140628480236 110.78515609592432 L 179.60937472002115 107.91796838393202 L 174.18749952001963 104.74218700797064 L 167.2265625600121 100.2382817279431 L 163.53906278405339 98.18749951996142 L 159.9531253760215 96.8593745919643 L 156.06249984004535 97.57421875192085 L 152.57812480005668 98.49609420791967 L 146.94531276804628 102.28515635192161 L 143.15624960005516 104.12890623993007 L 140.9062502400484 105.15234406397212 L 136.0937502720626 109.14453094394412 L 133.6328120320104 111.70703155192314 L 130.56249958404806 114.98437529592775 L 127.18750003201421 118.66796851193067 L 124.00781209603883 121.53515622392297 L 121.35156224004459 123.2773437439464 L 118.58593792002648 124.81249996792758 L 115.4062499840511 126.45312511996599 L 112.33593753603054 127.98828134394716 L 105.17187481606379 131.46874982392183 L 99.43750041601015 133.41406207997352 L 88.78124953602673 133.51562547194771 L 83.86718720005592 133.21093734394526 L 78.64843776001362 132.39062527992064 L 70.96875008003553 130.24218726396793 L 63.289062400057446 128.39843737595947 L 61.648437248019036 127.06640588794835 L 54.070312960015144 123.17578137596138 L 50.07812505605398 120.92187545594061 L 48.03125043201726 118.66796851193067 L 42.0859371520346 108.3281254399335 L 39.015624704014044 103.71875020791776 L 35.43750041601015 100.03125043195905 L 34.92187545605702 97.16406271996675 L 32.874999808031134 93.37499955197563 L 31.648437248019036 91.01953126396984 L 28.984375296044163 86.8242186239222 L 26.625000448024366 83.44531251193257 L 26.218749952036887 78.93749964796007 L 25.804687360010576 75.14843750395812 L 27.039062016061507 73.61328127991874 L 31.95312537602149 70.54296883195639 L 35.64062515203841 68.5937500159489 L 38.30468710401328 66.75390668795444 L 39.73437542404281 64.39843737595947 L 42.19531264004763 61.42578175995732 L 46.49218764802208 61.22265599993989 L 53.45312460802961 61.22265599993989 L 57.554688000062015 59.074219007918146 L 64.51562496001134 54.773437439929694 L 68.30468710401328 54.05468774394831 L 70.55468748800922 52.72265625593718 L 74.34374963201117 49.03515647992026 L 76.60156211204594 45.96484403195791 L 76.70312550402014 41.05078169592889 L 69.53124966402538 41.66406246396946 L 66.3593748480198 41.4609377279412 L 64.61718732805457 39.30859417596366 L 64.00000000005821 36.54296883195639 L 61.851563008036464 33.675781119964086 L 59.39843788801227 30.605468671943527 L 46.28906291205203 34.18749951996142 L 21.60937472002115 38.082031615951564 L 15.05468723201193 38.5937500159489 L 7.992187904019374 38.285156351921614 L 2.9765621760161594 37.67187455995008 L 0.0 36.28558295980474" fill="none"/><path stroke="#000000" stroke-width="2" d="M 859.2726416533842 1024.0 L 858.0156252160668 1023.1679682559334 L 852.382812160009 1019.2773437439464 L 848.6953123840503 1015.4882815999445 L 847.4687498240382 1013.9531253759633 L 845.6249999360298 1011.085937663971 L 844.1874995200196 1008.7304683519178 L 843.164062720025 1006.9882808319526 L 841.6328120320104 1004.2226565119345 L 840.3984373760177 1001.5625000959262 L 838.9687500800355 997.3632808959228 L 838.4531251200242 993.1640627199668 L 837.7343754240428 988.453125119966 L 837.023437824042 985.1796879359754 L 837.3281249280553 982.5156249599531 L 838.0468746240367 979.0351564799203 L 838.7656253440655 974.7343749119318 L 840.0937502720626 970.3281254399335 L 841.4218752000597 966.9492183039547 L 842.8593745920225 963.0585937919677 L 844.4999997440609 959.7812500479631 L 845.9296870400431 956.9140623359708 L 846.7500001280569 953.535156223923 L 848.6953123840503 952.9218754559406 L 849.8203125760192 951.078124543943 L 852.4843745280523 947.289062399941 L 853.9140628480236 945.6523438079748 L 855.656250368047 944.1171875839354 L 858.5234370560502 940.9414062079741 L 860.9843752960442 938.277344255941 L 863.7499996160623 935.2070307839313 L 866.5156249600113 932.5429688319564 L 869.0703124480206 932.1328127999441 L 871.015624704014 931.7265623039566 L 872.9609379840549 931.0078126079752 L 874.9062502400484 930.4960942079197 L 876.6484377600136 929.0625003519235 L 878.5937500160653 927.8320312319556 L 880.3359375360305 927.1171870719409 L 882.4843745280523 924.7617187839351 L 884.0234373120475 921.6914063359727 L 885.3515622400446 918.8242186239222 L 887.0937497600098 917.5937495039543 L 889.554688000062 916.3632814079756 L 892.5234370560502 914.5234370559338 L 895.3906247680425 912.7812495359685 L 899.7890621440602 908.8906250239233 L 903.0703124480206 905.3046876159497 L 905.6249999360298 905.0000005119364 L 907.4687498240382 902.9492183039547 L 909.3124997120467 900.6992189439479 L 911.4687498240382 898.9570314239245 L 913.1015628800378 896.3984373759595 L 915.4609377280576 892.7109375999426 L 918.1249996800325 888.3085936639691 L 919.554688000062 884.6210938879522 L 921.0937497600098 882.0624998399289 L 922.7265628160094 879.6054691839381 L 924.7812495360267 874.6875002879533 L 925.8046873600106 870.4882810879499 L 929.1796879360336 863.3203128319583 L 932.562499584048 858.6132807679242 L 936.1406248960411 853.9023441919708 L 939.2187504640315 851.1367188479635 L 942.6953123840503 847.5507814399316 L 944.5390622720588 846.1171875839354 L 946.5859379200265 844.171875327942 L 949.0468751360313 842.6367191039608 L 950.8906250240398 841.0000005119364 L 958.7734374400461 834.9570314239245 L 965.6328120320104 830.0429690879537 L 970.0390625280561 826.1523435519193 L 973.9296870400431 822.7734374399297 L 978.2343751680455 819.187500031956 L 982.4296878080349 815.9101562879514 L 985.3984378880123 815.1953121279366 L 989.8046873600106 810.6875002879533 L 995.2265625600121 807.6171878399327 L 999.5312496640254 806.1835939839366 L 1005.164062720025 803.8281246719416 L 1008.6406246400438 803.0078126079752 L 1011.2031252480228 801.8828124159481 L 1015.3984378880123 798.5039063039585 L 1017.8593751040171 797.2734371839324 L 1023.4921871360275 794.20312473597 L 1024.0 794.0858607276605" fill="none"/><path stroke="#000000" stroke-width="2" d="M 0.0 36.28558295980474 L 2.9765621760161594 37.67187455995008 L 7.992187904019374 38.285156351921614 L 15.05468723201193 38.5937500159489 L 21.60937472002115 38.082031615951564 L 46.28906291205203 34.18749951996142 L 59.39843788801227 30.605468671943527 L 61.851563008036464 33.675781119964086 L 64.00000000005821 36.54296883195639 L 64.61718732805457 39.30859417596366 L 66.3593748480198 41.4609377279412 L 69.53124966402538 41.66406246396946 L 76.70312550402014 41.05078169592889 L 76.60156211204594 45.96484403195791 L 74.34374963201117 49.03515647992026 L 70.55468748800922 52.72265625593718 L 68.30468710401328 54.05468774394831 L 64.51562496001134 54.773437439929694 L 57.554688000062015 59.074219007918146 L 53.45312460802961 61.22265599993989 L 46.49218764802208 61.22265599993989 L 42.19531264004763 61.42578175995732 L 39.73437542404281 64.39843737595947 L 38.30468710401328 66.75390668795444 L 35.64062515203841 68.5937500159489 L 31.95312537602149 70.54296883195639 L 27.039062016061507 73.61328127991874 L 25.804687360010576 75.14843750395812 L 26.218749952036887 78.93749964796007 L 26.625000448024366 83.44531251193257 L 28.984375296044163 86.8242186239222 L 31.648437248019036 91.01953126396984 L 32.874999808031134 93.37499955197563 L 34.92187545605702 97.16406271996675 L 35.43750041601015 100.03125043195905 L 39.015624704014044 103.71875020791776 L 42.0859371520346 108.3281254399335 L 48.03125043201726 118.66796851193067 L 50.07812505605398 120.92187545594061 L 54.070312960015144 123.17578137596138 L 61.648437248019036 127.06640588794835 L 63.289062400057446 128.39843737595947 L 70.96875008003553 130.24218726396793 L 78.64843776001362 132.39062527992064 L 83.86718720005592 133.21093734394526 L 88.78124953602673 133.51562547194771 L 99.43750041601015 133.41406207997352 L 105.17187481606379 131.46874982392183 L 112.33593753603054 127.98828134394716 L 115.4062499840511 126.45312511996599 L 118.58593792002648 124.81249996792758 L 121.35156224004459 123.2773437439464 L 124.00781209603883 121.53515622392297 L 127.18750003201421 118.66796851193067 L 130.56249958404806 114.98437529592775 L 133.6328120320104 111.70703155192314 L 136.0937502720626 109.14453094394412 L 140.9062502400484 105.15234406397212 L 143.15624960005516 104.12890623993007 L 146.94531276804628 102.28515635192161 L 152.57812480005668 98.49609420791967 L 156.06249984004535 97.57421875192085 L 159.9531253760215 96.8593745919643 L 163.53906278405339 98.18749951996142 L 167.2265625600121 100.2382817279431 L 174.18749952001963 104.74218700797064 L 179.60937472002115 107.91796838393202 L 183.9140628480236 110.78515609592432 L 187.80468736001058 113.14062540791929 L 190.7734374400461 114.98437529592775 L 193.74218752002344 116.4179691519239 L 197.7343754240428 118.36328140797559 L 200.812499968044 119.79687526397174 L 204.80468787206337 121.02343782392563 L 206.64843776001362 123.2773437439464 L 206.5468753920286 126.04296908795368 L 206.64843776001362 129.21484390395926 L 204.9062502400484 133.51562547194771 L 207.6718745600665 141.81250047992216 L 209.41406208003173 144.47265587194124 L 211.25781299202936 146.4179691519239 L 218.7265628160094 151.84765644796425 L 222.61718732805457 148.7734374399297 L 225.48437504004687 149.5937495039543 L 230.30468710401328 151.12890675192466 L 236.0390625280561 151.33593702391954 L 239.41406208003173 151.640625151922 L 244.74218700802885 153.48437503993046 L 247.81250048003858 155.6367185919662 L 251.80468736001058 157.37499955197563 L 256.3125002240413 156.66015641595004 L 258.66406297602225 156.8632811519201 L 261.02343782404205 157.37499955197563 L 263.57812531205127 156.8632811519201 L 266.7578122240375 157.68359423993388 L 270.33593753603054 160.75390668795444 L 272.281249792024 163.62109337595757 L 273.7187502080342 165.3632808959228 L 275.4609377280576 167.20703078393126 L 277.5078123520361 169.15234406397212 L 280.07031296001514 171.30078105593566 L 282.42187468806515 172.83984383993084 L 284.3671879680478 174.37500006397022 L 286.8281251840526 176.62890598393278 L 290.10156236804323 178.98437529592775 L 295.93750016001286 182.3632814079756 L 299.52343756804476 184.71874969592318 L 303.4140620800317 187.07421900791815 L 307.1015628800378 188.81249996792758 L 311.5078123520361 190.453125119966 L 314.78124953602673 192.0898437119322 L 318.0546877440647 193.83203123195563 L 321.33593702403596 195.46874982392183 L 324.71093760005897 196.80078131193295 L 327.37499955203384 198.2343751679291 L 330.1406248960411 199.56640665594023 L 333.52343756804476 201.71484364796197 L 336.5937500160653 203.66015590395546 L 339.66406246402767 206.62890598393278 L 342.1249996800325 211.03515647992026 L 345.19531212805305 215.12890675192466 L 347.75781273603207 219.01953126396984 L 347.9609374720603 223.42578175995732 L 347.74999961606227 225.88281241594814 L 347.2421877760207 228.75000012794044 L 345.70312499202555 232.74218700797064 L 344.2734376960434 236.22265651193447 L 343.24999987205956 238.57812479994027 L 341.9140628480236 240.7304683519178 L 340.89062502403976 243.69921843195334 L 340.07031296001514 246.3632814079756 L 341.60937472002115 250.45703167992178 L 343.55469721602276 254.8593776639318 L 348.6796871680417 258.0351559679257 L 352.6718750720611 259.2656250879518 L 355.6406251520384 260.08203161595156 L 361.1718748160638 260.1874995199614 L 365.46874982403824 260.08203161595156 L 368.1328128000605 259.98046924796654 L 372.3281254400499 259.98046924796654 L 375.39843788801227 260.1874995199614 L 378.5781248000567 258.9570314239245 L 381.74999961606227 257.4218751999433 L 385.74218752002344 256.8085934079718 L 390.3515627520392 256.29296844796045 L 392.812499968044 257.21484390395926 L 393.2187504640315 261.5156254719477 L 396.0859371520346 265.71484364796197 L 398.1328128000605 266.2265620479593 L 400.9999994880636 266.7382814719458 L 403.56250009604264 268.17187532794196 L 407.0468751360313 269.9140628479654 L 409.0937497600098 270.83593727997504 L 412.57031270401785 273.0898442239268 L 414.21093785605626 274.92968755192123 L 415.85156300803646 278.0039065599558 L 417.6953128960449 281.38281267194543 L 418.921875456057 283.42968729592394 L 421.78906214406015 287.4257817599573 L 423.32812492805533 290.0859371519182 L 426.29687500803266 293.2617185279378 L 429.3671874560532 294.8984371199622 L 432.5390622720588 296.1289062399301 L 436.74218700802885 297.8710937599535 L 443.70312499202555 299.816406015947 L 453.9453122560517 301.8632816639729 L 462.33593753603054 304.0117186559364 L 472.3750000640284 306.16406220797217 L 476.2656245760154 306.4687503359746 L 479.85156300803646 306.8789063679287 L 485.6874997760169 308.8242186239222 L 489.47656294406625 310.7734374399297 L 492.34374963201117 312.61328076792415 L 495.10937497601844 314.8671877119341 L 497.3593753600144 317.5312496639672 L 499.7187502080342 322.0351559679257 L 499.7187502080342 326.6445311999414 L 497.7656248320127 331.1484375039581 L 496.2343751680455 336.47265587194124 L 495.51562547206413 339.9570309119299 L 495.10937497601844 343.12890675192466 L 494.9062502400484 347.3281249279389 L 494.79687475203536 351.62890649592737 L 495.7187502080342 357.57031219196506 L 495.10937497601844 363.816406015947 L 493.8750003200257 367.39843788795406 L 495.92968704004306 372.31250022392487 L 501.8671872000559 377.9453122559353 L 504.6328125440632 382.65624985593604 L 509.2421877760207 387.16015615995275 L 511.4921871360275 389.10937497596024 L 513.5390627840534 391.3593753599562 L 515.898437632015 393.816406015947 L 519.2734371840488 396.07031295995694 L 521.7343754240428 398.0156252159504 L 524.4999997440609 400.16796876792796 L 526.5468753920286 402.3164057599497 L 528.7968747520354 404.7734374399297 L 531.6640624640277 407.746094079921 L 534.1249996800325 410.71484415995656 L 536.3750000640284 415.4257817599573 L 536.3750000640284 420.6484377599554 L 534.2265620480175 424.74218700797064 L 531.3593753600144 426.9960939519224 L 528.8984371200204 428.2226565119345 L 525.4218752000597 429.35156223992817 L 522.4453120000544 429.7617182719405 L 518.4531251200242 429.8632816639729 L 515.0781245440594 429.24999987194315 L 510.3671879680478 428.01953075197525 L 506.3750000640284 427.0976563199656 L 503.2968744960381 426.07421849592356 L 498.79687475203536 425.25390643195715 L 494.79687475203536 425.5625000959262 L 491.2187504640315 428.12109414394945 L 490.19531264004763 432.0117186559364 L 490.0937502720626 435.39062476792606 L 490.3984373760177 438.15625011193333 L 489.7812500480213 441.7421875199652 L 488.9609379840549 444.1992191999452 L 489.57812531205127 448.3984373759595 L 489.7812500480213 453.3124997119303 L 490.70312550402014 458.1249996799743 L 492.34374963201117 463.6562503679306 L 493.57031219202327 469.39062476792606 L 494.4921876480221 473.79296870395774 L 495.7187502080342 476.35156275192276 L 498.69531238405034 480.449218559952 L 501.3515622400446 483.7265623039566 L 503.9140628480236 486.38671871996485 L 505.4531246080296 488.74218700797064 L 507.0859376640292 490.9960939519224 L 508.62500044802437 492.94140620797407 L 509.74999961606227 495.19531212793663 L 510.87499980803113 497.1406254079193 L 512.0000000000582 499.28906239994103 L 512.5156249600113 501.44140595191857 L 513.6406251520384 504.5117183999391 L 514.8671877120505 508.097655807971 L 517.3281249280553 513.1132815359742 L 518.9687500800355 516.1874995199614 L 520.6015621120459 518.7460935679264 L 522.1406248960411 521.1015628799214 L 524.1874995200196 523.9687495679245 L 526.8515624960419 527.3476567039615 L 529.8203125760192 531.4453125119326 L 532.281249792024 534.6171873279382 L 534.7343749120482 537.9960934399278 L 537.6015626240405 541.8867189759621 L 540.6718750720611 545.4726563839358 L 543.4375004160102 547.9296870399266 L 546.3046871040133 550.2851563519216 L 549.3828126720618 552.5390622719424 L 552.7578122240375 555.1992186879506 L 555.523478528019 557.4531512319227 L 558.6953123840503 560.0117186559364 L 561.3593753600144 562.2656245759572 L 564.3281254400499 565.3398435839335 L 567.6093747200212 568.7187496959232 L 569.8593751040171 571.2773437439464 L 573.0312499200227 575.3749995519756 L 574.8749998080311 578.2421872639679 L 576.7187496960396 581.4140620799735 L 578.1562501120497 584.2812497919658 L 579.4843750400469 586.9453127679299 L 580.5078128640307 589.5039057919639 L 581.6328120320104 591.6562503679306 L 582.7578122240375 594.6250004479662 L 584.3984373760177 598.4140625919681 L 586.1406248960411 602.6132807679242 L 587.5781253120513 605.8867189759621 L 589.1093749760184 610.0859371519182 L 590.5468753920286 613.9765626879525 L 591.6718745600665 618.5859379199683 L 592.5937500160653 622.4765624319552 L 592.7968747520354 625.8554685439449 L 592.5937500160653 630.1562501119333 L 591.4687498240382 635.6874997759587 L 590.3359375360305 639.9882813439472 L 589.4140620800317 643.0585937919677 L 587.3671874560532 651.1484375039581 L 585.5234375680448 659.3398435839335 L 584.1953126400476 663.1289067519247 L 583.0703124480206 665.1796879359754 L 581.3281249280553 667.9414067199687 L 578.460937216063 670.7070310399286 L 574.8749998080311 671.9375001599547 L 571.5000002560555 672.7539066879544 L 568.9374996480183 674.0859371519182 L 564.7421870080288 675.5195310079725 L 561.1562496000552 676.2382817279431 L 558.390625280037 676.5429688319564 L 555.4218752000597 676.6484377599554 L 551.3281249280553 676.8515624959255 L 548.1484369920217 677.1601561599527 L 542.9296875520376 677.3632808959228 L 538.0156252160668 677.6718745599501 L 534.8359372800332 678.3867187199648 L 531.4609377280576 679.2070307839313 L 528.9999994880636 680.7421870079706 L 526.1328128000605 681.1523440639721 L 523.164062720025 682.7890626559383 L 520.710937600059 685.2499998719431 L 519.0703124480206 688.0117186559364 L 516.812499968044 691.289062399941 L 513.4375004160102 694.3632814079756 L 503.60937472002115 700.8124999679276 L 501.3515622400446 703.1679682559334 L 499.4062499840511 706.7539066879544 L 497.56250009604264 713.4101565439487 L 497.05468723201193 717.5039057919639 L 496.1328128000605 720.7812495359685 L 493.46874982403824 726.3125002239249 L 493.16406272002496 730.3046871039551 L 494.1874995200196 734.3984373759595 L 497.05468723201193 739.2148439039593 L 500.1249996800325 743.1054684159462 L 502.47656243201345 746.0742184959236 L 504.7343749120482 748.6328125439468 L 506.88281292805914 750.8867184639676 L 509.64843724801904 753.9570309119299 L 511.898437632015 756.1093754879548 L 515.6874997760169 759.285155839927 L 520.2968750080327 764.4023439359735 L 523.164062720025 766.7578122239211 L 525.7265623040148 766.2460938239237 L 529.1015628800378 765.8359377919696 L 532.4843745280523 765.0195312639698 L 535.656250368047 764.7109375999426 L 539.2421877760207 764.5078128639725 L 543.0312499200227 764.7109375999426 L 545.898437632015 765.2226559999399 L 549.2734371840488 766.1445314559387 L 552.6562498560525 767.6796876799199 L 554.2968750080327 769.7265623039566 L 554.589241344016 771.2502384639229 L 554.9062502400484 772.902343679918 L 554.9062502400484 776.6914058239199 L 552.9609379840549 781.710937087948 L 551.1171870720573 785.0898442239268 L 549.3828126720618 788.1601566719473 L 546.4140625920263 794.097655807971 L 545.2812503040186 796.8632811519201 L 545.4843750400469 801.4726563839358 L 550.1953126400476 815.8085939199664 L 551.015624704014 819.4960936959251 L 555.5234375680448 828.6093752319575 L 557.3671874560532 831.9882813439472 L 558.6953123840503 834.1367183359689 L 560.6406246400438 837.0039060479612 L 565.5625000960426 844.6835937279393 L 568.4218746880651 848.8828129279427 L 575.1875000320142 858.7148441599566 L 578.3593748480198 868.2382817279431 L 588.1874995200196 882.4726558719412 L 599.554688000062 895.8867189759621 L 602.0156252160668 898.1367183359689 L 605.2890624000574 900.6992189439479 L 609.0781245440594 903.1562495999387 L 612.562499584048 905.4101565439487 L 617.9843747840496 908.378906623926 L 622.1874995200196 910.835937279975 L 624.3359375360305 912.2695311359712 L 626.6953123840503 914.0117186559364 L 629.6640624640277 917.183593471942 L 631.7109370880644 919.9492188159493 L 634.2656245760154 923.8398433279363 L 636.4218746880651 927.5273441279423 L 637.546874880034 930.2929684479604 L 639.0781245440594 934.5937500159489 L 639.4921871360275 939.5078123519197 L 638.5703127040179 944.5234370559338 L 637.648437248019 947.4960936959251 L 636.5234370560502 950.5664061439456 L 635.0859376640292 953.640625151922 L 633.8593802240212 956.7109396479209 L 632.8359424000373 958.7578142719576 L 631.3984378880123 961.5234375679283 L 629.7656248320127 964.4921876479639 L 629.3515622400446 966.9492183039547 L 629.554688000062 970.6367191039608 L 630.4843745280523 975.5507814399316 L 632.7343749120482 979.2382812159485 L 634.7812495360267 981.6953128959285 L 636.6250004480244 983.437500415952 L 639.1875000320142 984.9726566399331 L 643.0781245440594 987.4296872959239 L 647.1718748160638 989.9921879039612 L 652.9062502400484 993.1640627199668 L 662.53125017602 995.7265623039566 L 669.7031249920256 997.8750003199675 L 677.3828126720618 1000.7421870079706 L 684.8515624960419 1003.609374719963 L 693.2499998720596 1007.5000002559391 L 699.1875000320142 1010.8789063679287 L 703.79687526403 1014.7734374399297 L 714.9609379840549 1023.9882813439472 L 714.975504645161 1024.0" fill="none"/><path stroke="#000000" stroke-width="2" d="M 754.1711340113688 1024.0 L 754.179687424039 1023.9882813439472 L 760.2187499520369 1008.1171875839354 L 757.7656248320127 1000.1289062399301 L 751.3124997120467 994.5976565759629 L 742.1953126400476 988.453125119966 L 739.6406251520384 987.0195312639698 L 733.0859376640292 984.7695308799739 L 725.8125004800386 982.6171873279382 L 720.078125056054 980.0585932799731 L 715.3671874560532 977.9062497279374 L 711.8906245120452 975.2460933119291 L 709.2265625600121 972.378906623926 L 707.1796879360336 968.8945315839374 L 705.9453122560517 965.7226557439426 L 708.6093752320157 953.3320314879529 L 711.9921879040194 953.2304691199679 L 714.6562498560525 953.535156223923 L 717.3124997120467 953.8437498879503 L 722.9453127680463 955.0742190079181 L 734.9296875520376 956.5039063039585 L 753.1562496000552 957.6328120319522 L 756.0234373120475 958.347656191967 L 758.1718753280584 957.7343754239264 L 759.0937497600098 955.9921879039612 L 761.1406254080357 953.3320314879529 L 762.7812495360267 950.5664061439456 L 768.2109378560563 958.1445314559387 L 770.7656253440655 962.1367183359689 L 773.1250001920271 966.027343871945 L 775.2734371840488 970.7382814719458 L 777.2187504640315 974.3242188799195 L 778.8593745920225 978.1132810239214 L 780.6015621120459 981.082031103957 L 783.5703121920233 984.8710932479589 L 786.1249996800325 987.4296872959239 L 790.0234373120475 989.9921879039612 L 793.0937497600098 992.1406248959247 L 796.5703127040179 994.0859371519182 L 799.5390627840534 995.6210933759576 L 802.6171873280546 997.0546872319537 L 805.2734371840488 998.4882810879499 L 808.5546874880092 1000.3320309759583 L 813.4687498240382 1003.1992186879506 L 816.4374999040156 1005.3515622399282 L 818.8984371200204 1008.2187499519205 L 820.7421870080288 1012.0078120959224 L 821.8671872000559 1015.5898439679295 L 822.7890626560547 1018.8671877119341 L 824.2187499520369 1023.9882813439472 L 824.21839771542 1024.0" fill="none"/><path stroke="#408040" stroke-width="3" d="M 476.3970798179944 1024.0 L 476.04735999999684 999.8233600000021 L 474.1119999999937 867.8502399999998 L 473.4054400000023 824.3507200000022 L 472.8934399999998 816.762880000002 L 470.4256000000023 809.5948799999969 L 461.0355200000049 798.873599999999 L 449.7100800000044 789.4937599999976 L 445.7881599999964 785.9712 L 443.80160000000615 781.8752000000022 L 443.25887999999395 761.9174399999974 L 442.80831999999646 741.887999999999 L 437.2377600000036 728.4224000000031 L 431.0732799999969 715.4176000000007 L 417.2185599999939 686.1823999999979 L 388.6796800000011 626.0633600000001 L 358.11328000000503 561.7664000000004 L 347.48416000000725 539.4534399999975 L 342.4051199999958 528.7116800000003 L 335.7593599999964 521.0624000000025 L 311.30624000000535 497.8073599999989 L 284.48768000000564 472.28927999999723 L 237.24031999999715 423.1168000000034 L 222.98623999999836 409.59999999999854 L 201.58464000000095 393.48223999999755 L 168.84735999999975 370.5139199999976 L 162.30400000000373 365.8035200000013 L 158.31040000000212 360.5196799999976 L 148.43903999999748 346.767359999998 L 137.4617600000056 331.5097600000008 L 114.31935999999405 301.4041599999982 L 105.01119999999355 290.1503999999986 L 94.67904000000271 269.5987200000018 L 78.59200000000419 244.54144000000088 L 61.614079999999376 219.49440000000322 L 48.25088000000687 201.8918399999966 L 34.334719999998924 186.74687999999878 L 25.743359999993118 178.62655999999697 L 15.206399999995483 170.45504000000074 L 0.0 158.4298150472605" fill="none"/></svg>