<svg xmlns="http://www.w3.org/2000/svg" width="1024" height="1024"><rect stroke="none" x="0" y="0" width="1024" height="1024" fill="white"/><path stroke="#408040" stroke-width="3" d="M 0.0 946.5403300298494 L 9.18528000000515 946.7596800000028 L 26.849279999994906 947.1283200000034 L 30.06463999999687 947.1897600000011 L 33.290240000002086 947.2102400000003 L 43.74528000000282 947.3126399999965 L 57.70239999999467 947.4457600000023 L 74.58815999999933 947.5993600000002 L 111.72864000000118 948.2547199999972 L 112.60928000000422 948.224000000002 L 113.53088000000571 948.1318400000018 L 114.4832000000024 947.9577599999975 L 115.01567999999679 947.8348800000022 L 115.67104000000108 947.6300800000026 L 116.67455999999947 947.261440000002 L 119.47007999999914 946.1964799999987 L 122.7980799999932 944.9164799999999 L 131.5225599999976 941.5884799999985 L 136.7347199999931 939.5916799999977 L 143.66719999999623 936.9497600000032 L 144.42496000000392 936.6630399999995 L 145.44895999999426 936.3046400000021 L 146.380799999999 936.0793600000034 L 146.92351999999664 935.97696 L 147.60959999999614 935.8950400000031 L 148.16255999999703 935.8540799999973 L 148.82816000000457 935.8335999999981 L 151.17312000000675 935.8745599999966 L 157.65503999999783 935.9667199999967 L 167.26016000000527 936.0998400000026 L 181.16607999999542 936.3046400000021 L 182.83520000000135 936.3251200000013 L 183.5315200000041 936.3148799999981 L 183.9615999999951 936.2841600000029 L 184.90368000000308 936.1715200000035 L 185.58976000000257 936.0486400000009 L 186.37824000000546 935.8438400000014 L 187.0233600000065 935.6390400000018 L 187.5353599999944 935.4444799999983 L 188.01664000000164 935.2294400000028 L 188.84608000000298 934.8198399999965 L 190.7097599999979 933.8470400000006 L 196.2598399999988 930.9593600000007 L 207.75935999999638 924.9792000000016 L 215.0399999999936 921.1903999999995 L 230.86079999999492 912.9472000000023 L 234.24000000000524 911.1961599999995 L 236.10368000000017 910.2233600000036 L 238.1516799999954 909.0662400000001 L 242.4012800000055 906.5369599999976 L 246.2207999999955 904.2534400000004 L 253.92127999999502 899.635199999997 L 269.07648000000336 890.5728000000017 L 278.25152000000526 885.0841599999985 L 282.40896000000066 882.6060799999977 L 283.76063999999315 881.7868799999997 L 285.33759999999893 880.8447999999989 L 287.22176000000036 879.7388799999972 L 289.9046399999934 878.1414399999994 L 290.0582399999985 878.0697599999985 L 290.3756799999974 877.8752000000022 L 292.53631999999925 876.5747199999969 L 296.02816000000166 874.47552 L 304.1791999999987 869.6115199999986 L 306.0121599999984 868.5055999999968 L 307.4662399999943 867.635199999997 L 313.3542400000006 864.1126399999994 L 335.7286400000012 850.7494399999996 L 343.848960000003 845.8956800000014 L 358.6764799999946 837.0483200000017 L 364.28800000000047 833.6895999999979 L 365.4041600000055 833.0444799999968 L 365.9673599999951 832.7475199999972 L 366.6022399999929 832.48128 L 367.11423999999533 832.2867199999964 L 367.8617599999998 832.0716800000009 L 368.54783999999927 831.9078399999999 L 369.07008000000496 831.8156799999997 L 369.6947199999995 831.7235199999996 L 370.5446399999928 831.6723199999979 L 371.1692800000019 831.6620800000019 L 372.4083200000023 831.7030400000003 L 377.9481599999999 831.9283199999991 L 379.80160000000615 832.0102400000033 L 387.82975999999326 832.3379199999981 L 393.4105600000039 832.5631999999969 L 401.674239999993 832.9011200000023 L 411.24864000000525 833.2902400000021 L 416.665599999993 833.5052799999976 L 418.0582399999985 833.5462400000033 L 421.05856000000495 833.5769599999985 L 428.82047999999486 833.5974399999977 L 434.2476800000004 833.617919999997 L 440.8524800000014 833.6384000000035 L 447.05792000000656 833.6588800000027 L 456.2329599999939 833.6998400000011 L 466.2783999999956 833.9046400000007 L 490.1478400000051 834.3859200000006 L 510.66879999999946 834.7852799999964 L 512.3379200000054 834.7545600000012 L 513.0854399999953 834.7136000000028 L 514.314240000007 834.6111999999994 L 515.1334400000051 834.5190399999992 L 516.6284799999994 834.2937600000005 L 517.8060799999948 834.0684800000017 L 518.7584000000061 833.8636800000022 L 521.7280000000028 833.2390400000004 L 524.8307199999981 832.5836800000034 L 529.3977600000071 831.6211200000034 L 541.2454399999988 829.1225600000034 L 558.090240000005 825.5795199999993 L 604.9792000000016 815.7388799999972 L 612.3827199999942 814.1823999999979 L 616.0179199999984 813.4246399999975 L 617.6563199999946 813.0764800000034 L 619.540479999996 812.666879999997 L 620.5951999999961 812.3801600000006 L 621.1071999999986 812.2060800000036 L 621.9878400000016 811.8886399999974 L 622.6124799999961 811.6224000000002 L 623.4112000000023 811.2435200000036 L 624.2713599999988 810.7827200000029 L 624.7014400000044 810.5267200000017 L 625.4489599999943 810.0249600000025 L 625.8585599999933 809.7280000000028 L 626.2681600000069 809.4207999999999 L 626.9235199999966 808.857600000003 L 627.3638400000054 808.4582399999999 L 627.4560000000056 808.376320000003 L 627.517439999996 808.376320000003 L 627.5276799999992 808.376320000003 L 627.6300800000026 808.2943999999989 L 628.0806400000001 807.9974399999992 L 628.5107200000057 807.8028800000029 L 628.8998399999982 807.6492799999978 L 630.0364799999952 807.2191999999995 L 630.3129599999957 807.0963199999969 L 630.4563199999975 806.9939200000008 L 630.5996799999994 806.850559999999 L 630.7020800000028 806.7071999999971 L 630.7839999999997 806.53312 L 630.8556799999933 806.4716800000024 L 630.9888000000064 806.3795200000022 L 631.1526400000002 806.297599999998 L 631.4291200000007 806.297599999998 L 632.0332800000033 806.3180799999973 L 633.221120000002 806.3283200000005 L 635.1155200000067 806.3795200000022 L 635.3408000000054 806.4204800000007 L 637.1020799999969 806.4307199999967 L 638.1772800000035 806.4409599999999 L 638.7507199999964 806.4409599999999 L 638.8224000000046 806.3897599999982 L 640.0512000000017 806.4102399999974 L 642.1094400000002 806.4409599999999 L 645.7651199999964 806.4921600000016 L 650.4959999999992 806.5638400000025 L 655.3804800000071 806.5740799999985 L 663.1628800000035 806.6355200000035 L 665.7843200000061 806.6560000000027 L 667.3715200000006 806.6662399999987 L 668.6412799999962 806.6764800000019 L 670.2592000000004 806.6867199999979 L 670.9555200000032 806.6867199999979 L 671.4777599999943 806.6560000000027 L 672.7475200000044 806.6764800000019 L 673.9763200000016 806.6764800000019 L 675.1846400000068 806.7174400000004 L 675.5942400000058 806.7379199999996 L 675.7887999999948 806.7379199999996 L 679.9564799999935 806.7891200000013 L 682.4959999999992 806.840320000003 L 684.1241600000067 806.8608000000022 L 684.2265599999955 806.8608000000022 L 684.308480000007 806.9017600000006 L 684.4108799999958 806.9119999999966 L 684.9331200000015 806.9324800000031 L 685.4348800000007 807.1577600000019 L 685.619200000001 807.2191999999995 L 686.0390400000033 807.5878400000001 L 686.3462399999989 807.8438400000014 L 686.7660800000012 808.212480000002 L 686.9504000000015 808.376320000003 L 687.0528000000049 808.4172800000015 L 687.2166399999987 808.5299200000009 L 687.6671999999962 808.9497600000032 L 687.9129600000015 809.1238400000002 L 688.2713599999988 809.4207999999999 L 688.7116799999931 809.6972800000003 L 689.2134400000068 809.9020799999998 L 689.6128000000026 810.0147199999992 L 690.2271999999939 810.0864000000001 L 692.0499200000049 810.1376000000018 L 694.8454400000046 810.2195199999987 L 698.357759999999 810.2809599999964 L 703.5391999999993 810.4140800000023 L 703.6211199999962 810.4447999999975 L 704.2457600000052 810.4652799999967 L 704.901119999995 810.4550400000007 L 704.9728000000032 810.4345600000015 L 705.1571200000035 810.4345600000015 L 705.7203199999931 810.4345600000015 L 708.7820800000045 810.4652799999967 L 710.3999999999942 810.47552 L 711.5673600000009 810.4857600000032 L 712.796159999998 810.5164799999984 L 713.3696000000054 810.6291199999978 L 714.1273599999986 810.8236800000013 L 714.9363199999934 810.7929599999989 L 717.209600000002 810.5574399999969 L 719.4828799999959 810.3014400000029 L 722.6675200000027 809.9839999999967 L 723.3433599999989 810.0044800000032 L 723.7222400000028 809.99424 L 724.3059199999989 809.99424" fill="none"/><path stroke="#408040" stroke-width="3" d="M 0.0 946.362931939686 L 43.74528000000282 947.3126399999965 L 111.72864000000118 948.2547199999972 L 136.7347199999931 939.5916799999977 L 151.17312000000675 935.8745599999966 L 181.16607999999542 936.3046400000021 L 196.2598399999988 930.9593600000007 L 215.0399999999936 921.1903999999995 L 238.1516799999954 909.0662400000001 L 253.92127999999502 899.635199999997 L 304.1791999999987 869.6115199999986 L 369.07008000000496 831.8156799999997 L 447.05792000000656 833.6588800000027 L 518.7584000000061 833.8636800000022 L 604.9792000000016 815.7388799999972 L 619.540479999996 812.666879999997 L 629.1353600000002 806.850559999999 L 656.0051200000016 782.4998399999968 L 669.4400000000023 770.3039999999964 L 674.9081600000063 767.8873600000006 L 684.0012799999968 767.754240000002 L 712.560639999996 767.7849599999972 L 729.3849599999958 767.7849599999972 L 766.8019199999981 767.8156799999997 L 795.3817600000039 767.8361599999989 L 833.9865600000048 767.8156799999997 L 866.5702400000009 757.4937599999976 L 895.3651200000022 746.3321599999981 L 904.642559999993 744.6630399999995 L 918.476800000004 746.4959999999992 L 941.0559999999969 747.2128000000012 L 966.9836800000048 744.5299200000009 L 976.1689599999954 742.297599999998 L 978.6470399999962 738.8364799999981 L 980.5619199999928 734.2387200000012 L 984.6067199999961 731.719680000002 L 1011.2921599999972 717.1686400000035 L 1024.0 714.4443113978487" fill="none"/></svg>