<svg xmlns="http://www.w3.org/2000/svg" width="1024" height="1024"><rect stroke="none" x="0" y="0" width="1024" height="1024" fill="white"/><path stroke="#000000" stroke-width="2" d="M 0.0 245.55024912957742 L 4.203124736028258 245.85156300792005 L 8.91406233602902 245.85156300792005 L 25.914062848023605 245.95312537596328 L 51.10156288003782 246.15625011193333 L 60.00781209603883 246.15625011193333 L 75.6796876800363 246.0546877439483 L 85.20312524802284 246.0546877439483 L 104.65624985605245 246.25781247991836 L 113.35937536001438 246.36328140791738 L 125.34375014406396 246.46484377596062 L 128.0000000000582 246.46484377596062 L 131.0781245440594 246.36328140791738 L 135.07031244802056 246.46484377596062 L 142.03125043201726 246.46484377596062 L 155.64843724801904 246.66796851193067 L 189.03124992002267 246.66796851193067 L 193.33593702403596 246.7734374399297 L 208.59375001606531 246.7734374399297 L 214.83593728003325 245.85156300792005 L 219.546874880034 246.25781247991836 L 230.91406233602902 246.66796851193067 L 345.39843788801227 246.66796851193067 L 348.2656245760154 246.7734374399297 L 357.6874997760169 246.66796851193067 L 361.47656294406625 246.66796851193067 L 368.9531248640269 246.56640614394564 L 376.11718758405186 246.56640614394564 L 385.23437465605093 246.66796851193067 L 401.51562547206413 246.56640614394564 L 403.8671872000559 246.66796851193067 L 412.2656245760154 246.56640614394564 L 428.1406248960411 246.56640614394564 L 439.0937497600098 246.46484377596062 L 453.6328120320104 246.46484377596062 L 467.4609377280576 246.36328140791738 L 485.6874997760169 246.25781247991836 L 494.4921876480221 246.36328140791738 L 505.8593751040171 246.46484377596062 L 511.898437632015 246.36328140791738 L 525.7265623040148 246.25781247991836 L 536.6796871680417 246.15625011193333 L 581.1250001920271 246.0546877439483 L 594.4374999040156 246.0546877439483 L 605.4921871360275 245.95312537596328 L 625.6640624640277 245.95312537596328 L 635.8046873600106 245.85156300792005 L 677.8906245120452 245.85156300792005 L 685.4687498240382 245.74609407992102 L 698.2656245760154 245.74609407992102 L 708.5078128640307 245.644531711936 L 718.1328128000605 245.74609407992102 L 724.8906250240398 245.85156300792005 L 730.4218746880651 245.85156300792005 L 744.7578122240375 245.95312537596328 L 793.0937497600098 245.95312537596328 L 804.2500003840541 246.0546877439483 L 823.6093747200212 246.0546877439483 L 844.9062502400484 246.0546877439483 L 847.6718745600665 246.15625011193333 L 884.0234373120475 246.15625011193333 L 897.0312499200227 246.0546877439483 L 923.648437248019 246.0546877439483 L 928.8749998080311 245.95312537596328 L 931.5390627840534 245.95312537596328 L 933.9921879040194 246.05468262394425 L 960.2109378560563 246.0546877439483 L 965.023437824042 246.15625011193333 L 969.6249999360298 246.0546877439483 L 973.828124672058 246.0546877439483 L 984.2734376960434 245.85156300792005 L 1003.6249999360298 246.0546877439483 L 1006.7968747520354 246.0546877439483 L 1024.0 246.15625011193333" fill="none"/><path stroke="#000000" stroke-width="2" d="M 1024.0 246.15625011193333 L 1006.7968747520354 246.0546877439483 L 1003.6249999360298 246.0546877439483 L 984.2734376960434 245.85156300792005 L 973.828124672058 246.0546877439483 L 969.6249999360298 246.0546877439483 L 965.023437824042 246.15625011193333 L 960.2109378560563 246.0546877439483 L 933.9921879040194 246.05468262394425 L 931.5390627840534 245.95312537596328 L 928.8749998080311 245.95312537596328 L 923.648437248019 246.0546877439483 L 897.0312499200227 246.0546877439483 L 884.0234373120475 246.15625011193333 L 847.6718745600665 246.15625011193333 L 844.9062502400484 246.0546877439483 L 823.6093747200212 246.0546877439483 L 804.2500003840541 246.0546877439483 L 793.0937497600098 245.95312537596328 L 744.7578122240375 245.95312537596328 L 730.4218746880651 245.85156300792005 L 724.8906250240398 245.85156300792005 L 718.1328128000605 245.74609407992102 L 708.5078128640307 245.644531711936 L 698.2656245760154 245.74609407992102 L 685.4687498240382 245.74609407992102 L 677.8906245120452 245.85156300792005 L 635.8046873600106 245.85156300792005 L 625.6640624640277 245.95312537596328 L 605.4921871360275 245.95312537596328 L 594.4374999040156 246.0546877439483 L 581.1250001920271 246.0546877439483 L 536.6796871680417 246.15625011193333 L 525.7265623040148 246.25781247991836 L 511.898437632015 246.36328140791738 L 505.8593751040171 246.46484377596062 L 494.4921876480221 246.36328140791738 L 485.6874997760169 246.25781247991836 L 467.4609377280576 246.36328140791738 L 453.6328120320104 246.46484377596062 L 439.0937497600098 246.46484377596062 L 428.1406248960411 246.56640614394564 L 412.2656245760154 246.56640614394564 L 403.8671872000559 246.66796851193067 L 401.51562547206413 246.56640614394564 L 385.23437465605093 246.66796851193067 L 376.11718758405186 246.56640614394564 L 368.9531248640269 246.56640614394564 L 361.47656294406625 246.66796851193067 L 357.6874997760169 246.66796851193067 L 348.2656245760154 246.7734374399297 L 345.39843788801227 246.66796851193067 L 230.91406233602902 246.66796851193067 L 219.546874880034 246.25781247991836 L 214.83593728003325 245.85156300792005 L 208.59375001606531 246.7734374399297 L 193.33593702403596 246.7734374399297 L 189.03124992002267 246.66796851193067 L 155.64843724801904 246.66796851193067 L 142.03125043201726 246.46484377596062 L 135.07031244802056 246.46484377596062 L 131.0781245440594 246.36328140791738 L 128.0000000000582 246.46484377596062 L 125.34375014406396 246.46484377596062 L 113.35937536001438 246.36328140791738 L 104.65624985605245 246.25781247991836 L 85.20312524802284 246.0546877439483 L 75.6796876800363 246.0546877439483 L 60.00781209603883 246.15625011193333 L 51.10156288003782 246.15625011193333 L 25.914062848023605 245.95312537596328 L 8.91406233602902 245.85156300792005 L 4.203124736028258 245.85156300792005 L 0.0 245.55024912957742" fill="none"/><path stroke="#408040" stroke-width="3" d="M 1024.0 271.01624224299303 L 1017.2415999999939 269.9673600000024 L 999.505919999996 259.29727999999886 L 912.4966399999976 254.16704000000027 L 856.5555199999944 249.94815999999992 L 770.6214400000026 251.07456000000093 L 746.0966400000034 257.126400000001 L 738.3654399999941 265.3593600000022 L 711.4956800000073 264.9907200000016 L 649.4924800000008 257.56672000000253 L 595.7836799999932 251.70943999999872 L 536.2380799999955 252.4467199999999 L 482.6521599999978 260.66943999999785 L 438.8966400000063 252.60031999999774 L 356.19839999999385 253.02016000000003 L 276.3059199999989 264.8780800000022 L 236.5951999999961 277.5654399999985 L 216.42239999999583 271.00160000000324 L 163.48159999999916 273.3772800000006 L 89.19040000000678 277.14560000000347 L 0.0 274.4236981504291" fill="none"/></svg>