<svg xmlns="http://www.w3.org/2000/svg" width="1024" height="1024"><rect stroke="none" x="0" y="0" width="1024" height="1024" fill="white"/><path stroke="#000000" stroke-width="2" d="M 0.0 511.3749995519174 L 3.8984376320731826 511.3749995519174 L 9.835937792027835 511.4765629438334 L 71.07031244802056 511.4765629438334 L 78.5468753920286 511.3749995519174 L 157.28906240011565 511.3749995519174 L 173.57031219208147 511.26953164790757 L 184.01562521600863 511.26953164790757 L 193.5390627841116 511.3749995519174 L 198.35156275203917 511.3749995519174 L 205.92968704004306 511.26953164790757 L 222.7265628160094 511.26953164790757 L 226.82031206402462 511.1679682559916 L 229.83653785602655 511.2036351999268 L 244.32812544010812 511.3749995519174 L 255.79687526408816 511.3749995519174 L 260.0000000000582 511.3710940159508 L 268.39062528003706 511.4765629438334 L 273.1015628800378 511.3749995519174 L 275.96874956809916 511.26953164790757 L 295.32812492805533 511.26953164790757 L 302.1874995200196 511.3749995519174 L 306.38281216006726 511.3749995519174 L 311.19531212805305 511.4765629438334 L 318.97656217607437 511.3749995519174 L 326.96875008003553 511.4765629438334 L 363.2187504640315 511.4765629438334 L 368.43749990401557 511.3749995519174 L 373.96874956804095 511.4765629438334 L 377.0390620160615 511.4765629438334 L 380.3203123200801 511.3749995519174 L 383.59374950407073 511.26953164790757 L 391.9921879040194 511.26953164790757 L 393.93750016007107 511.4765629438334 L 398.4453120000544 511.8867189758457 L 418.4062504961039 511.4765629438334 L 459.7812500480213 511.4765629438334 L 465.41406208008993 511.3749995519174 L 469.20312524808105 511.3749995519174 L 477.39062476804247 511.4765629438334 L 482.20312473602826 511.3749995519174 L 511.8984376320732 511.3749995519174 L 519.7890621440602 511.26953164790757 L 526.9531248640269 511.3749995519174 L 530.0234373120475 511.3749995519174 L 532.5859379200847 511.3710940159508 L 540.7812495360267 511.3749995519174 L 551.5312496640254 511.3749995519174 L 568.1171875841101 511.4765629438334 L 571.7031249920256 511.4765629438334 L 577.0312499200227 511.26953164790757 L 581.8437498880667 511.26953164790757 L 597.9140628480236 511.1679682559916 L 609.6953128961031 511.1679682559916 L 616.5546874880674 511.06640588794835 L 622.6953123840503 511.1679682559916 L 628.8437504001195 511.3749995519174 L 638.9765621760744 511.3749995519174 L 643.2812503040768 511.1679682559916 L 655.8750003200839 511.1679682559916 L 662.9374996480765 511.26953164790757 L 692.7421870080288 511.26953164790757 L 722.640624640102 511.1679682559916 L 724.890625024098 511.1679682559916 L 733.7031249920256 511.06640588794835 L 738.7187496960978 511.1679682559916 L 745.9843747840496 511.06640588794835 L 749.6718745600665 511.06640588794835 L 756.2265620480757 510.9648435199051 L 760.3203123200801 510.9648435199051 L 765.2421877760207 511.1679682559916 L 768.4140625920845 511.26953164790757 L 771.3828126720618 511.4765629438334 L 788.179687424039 511.4765629438334 L 790.6328125441214 511.3749995519174 L 800.5703127040761 511.7812500479631 L 800.4609372161212 514.8554690559395 L 800.8749998080893 517.5156254718313 L 801.1796879360336 521.2031252479064 L 802.9218754561152 525.3007810558192 L 803.5390627840534 527.5507814398734 L 802.8203120640828 531.3398435838171 L 798.3125002240995 541.3749995518592 L 793.0937497600098 548.0312504319008 L 788.992187392083 550.2851563519216 L 786.8437504001195 552.3320309758419 L 785.1015628800378 556.5312501758453 L 786.1249996800325 562.2656245758408 L 789.7109370880644 567.7968752638553 L 798.3125002240995 576.1914060799172 L 800.5703127040761 578.8554690558813 L 805.2734371840488 582.5429688319564 L 810.9062502401066 587.8671871998813 L 814.1874995200778 590.9374996478437 L 816.0312504320173 594.1132810238632 L 817.8750003200839 597.7968752639717 L 818.7968747520354 601.3828126719454 L 818.6875002880697 605.6835942398175 L 820.0234373121057 611.9296870398684 L 821.1484375040745 615.2070307839313 L 821.5625000960426 619.1992186878342 L 820.2265620480757 624.8320317438338 L 818.4843745281105 628.824218623864 L 814.0859371520346 636.8124999679276 L 812.5468753920286 640.3984373759595 L 809.5781253120513 642.4453119998798 L 806.9140623360872 644.0820316158934 L 804.7656253440655 645.7226557439426 L 803.9453122561099 648.5898434558185 L 808.4531251200242 655.9609374719439 L 809.8828124160646 658.625000447908 L 811.9296870401013 662.2070312959258 L 815.6171878400492 665.6914063359145 L 832.8203120640828 668.2500003839377 L 837.8437498880667 669.5820308478433 L 840.2968750080909 670.6054686718271 L 844.7031255040201 672.8593745919061 L 848.5937500160653 674.7031255038455 L 851.6640624640859 675.8281246719416 L 856.7812495360267 677.5703121919651 L 865.4843750400469 681.1523440638557 L 876.8515624961001 684.4296878078603 L 883.4062499841093 686.3750000639702 L 888.0156252160086 688.1171875839354 L 891.8046873600106 689.8554685438867 L 894.9765621760162 691.6992184318951 L 900.1015623680432 694.976562175958 L 903.4765629440662 697.0234378238092 L 913.6171878401074 702.4531251198496 L 916.2812497920822 705.011719167931 L 918.8359372800915 707.6757811199641 L 921.6015626240987 710.1328127998277 L 924.5703127040761 713.6132812799187 L 932.7656253441237 721.3945313279401 L 936.9609379840549 726.3125002239249 L 939.9296870400431 731.636718591908 L 943.0078126080916 735.4257817598991 L 946.4843745280523 740.1328127999441 L 948.5312501760782 742.6953123839339 L 950.5859379200265 746.8945315839374 L 950.1718753281166 751.1953121279366 L 949.8671872001141 755.5976560640265 L 953.1406254080357 757.5429683199036 L 956.9296875520376 757.5429683199036 L 960.7187496960396 757.8515630079783 L 963.3828126720618 759.386719231843 L 964.7109376001172 763.1757813759032 L 963.1796879360918 768.7031255039037 L 960.5156249600695 773.9257815040182 L 956.0078120960388 778.9453127678717 L 950.3750000640284 783.1445309439441 L 942.6953123840503 790.4140625919099 L 934.4062504960457 796.7617187838769 L 924.3671879680478 804.2382817279431 L 912.7968747520936 812.9414062079741 L 907.4687498240382 816.2187499518623 L 901.4296872960404 819.3906247678096 L 898.8671877120505 822.0546877439483 L 897.1328122880659 825.843749887892 L 896.8203120640246 829.3242183678085 L 896.3125002240413 831.8867189759621 L 893.2421877760207 835.8789058559341 L 885.7656248320127 845.914062847849 L 881.9765626880107 849.9062497278792 L 880.640624640102 852.5703127040179 L 879.2109373441199 856.7695308799157 L 877.2656250880682 863.8320312319556 L 874.4999997440609 867.7265623039566 L 864.257812480093 877.4531246079714 L 859.6484372480772 880.0117186558782 L 855.0468751360313 881.7539061758434 L 849.9218749440624 883.1875000318978 L 844.4999997440609 886.0546877438901 L 842.7578122240375 889.0234378238092 L 841.835937792086 891.992187903903 L 841.6328120320104 897.2148439040175 L 842.1406248960993 902.9492183039547 L 842.5468753920286 905.6132812799187 L 843.0625003520399 909.4023434238625 L 843.8828124160646 913.8046873599524 L 844.6015621121041 918.4140625919681 L 844.1874995200196 923.0195312639698 L 843.7812500480795 926.8085934078554 L 843.4687498240382 929.3710940159508 L 843.4687498240382 931.7265623038984 L 843.0625003520399 935.4101565439487 L 842.5546874880674 942.375000063912 L 842.5546874880674 946.2656245758408 L 842.2421872640261 949.8515630078036 L 840.6015621121041 952.7187496959232 L 840.3984373760177 955.7890621438273 L 841.7343754240428 957.9414067199104 L 841.6328120320104 960.4999997438863 L 842.5468753920286 966.9492183038965 L 843.164062720025 970.7382814719458 L 843.3671874560532 972.9921873919666 L 844.289062912052 978.9296875519212 L 844.6015621121041 981.6953128959285 L 845.4140620800899 985.0742190078017 L 846.7500001281151 988.3515627518645 L 848.289062912052 993.6757811198477 L 848.9999994881218 997.3632808959228 L 850.0234373120475 1000.3320309759583 L 851.7656248320127 1004.1210941440077 L 853.5078123520361 1008.0117186559364 L 855.3515622400446 1012.824218623864 L 856.8828129280591 1017.3320314878365 L 859.3437501441222 1023.9882813440054 L 859.3487356513506 1024.0" fill="none"/><path stroke="#000000" stroke-width="2" d="M 575.9676757528359 0.0 L 577.2343746560509 0.7031255039619282 L 581.1250001920271 3.2656250879517756 L 583.7890621440602 6.234375167929102 L 587.0625003520399 11.761718271940481 L 589.3124997120467 16.269531135971192 L 599.0468751360313 24.97265663993312 L 601.6015626240405 27.22656255995389 L 603.546874880034 29.785156607918907 L 607.5390627840534 36.33984409592813 L 614.1953126400476 39.30859417596366 L 619.4218752000597 41.562500095926225 L 626.9999994880636 45.76171827194048 L 629.6640624640277 47.39843788795406 L 635.2968744960381 52.82421862392221 L 639.898437632015 57.02343782392563 L 649.6328120320104 65.11328153597424 L 651.0625003520399 68.69921894394793 L 651.3671874560532 72.38281215995084 L 652.0859371520346 75.14843750395812 L 653.828124672058 78.01562521595042 L 655.8750003200257 81.39453132794006 L 658.2343751680455 84.7734374399297 L 662.6328125440632 87.02734335995046 L 667.343750144064 89.69140633597272 L 669.8046873600106 92.76171878393507 L 670.9296875520376 95.32031283195829 L 672.6718750720611 98.18749951996142 L 675.3281249280553 102.28515635192161 L 677.1718748160638 104.23046860797331 L 679.3281249280553 105.66406246396946 L 684.0390625280561 107.40624998393469 L 689.2578129920294 109.86328166397288 L 694.7890626560547 113.44531251193257 L 697.343750144064 116.00781209592242 L 699.3984378880123 118.46484377596062 L 701.1328122880659 121.02343782392563 L 702.6718750720611 124.71093759994255 L 703.5937495040125 127.57812531193485 L 705.7421875200234 135.97656268795254 L 707.6874997760169 137.20312524796464 L 709.4296872960404 138.6367191039608 L 712.914062336029 141.0937497599516 L 716.0859371520346 144.57812479994027 L 718.4453120000544 147.1367188479635 L 720.6953123840503 148.46875033597462 L 724.5859379200265 150.10546892794082 L 727.4531246080296 151.74609407992102 L 729.3984378880123 153.48437503993046 L 731.9609374720603 156.453125119966 L 735.5390627840534 161.16406271996675 L 738.7187496960396 165.05468723195372 L 740.2500003840541 168.33203097595833 L 740.562499584048 170.78906265593832 L 740.6640629760223 174.47656243195524 L 741.5859374080319 178.7773439999437 L 743.015624704014 182.36328140791738 L 744.4531251200242 185.74218751996523 L 745.4765629440662 190.65624985593604 L 748.4453120000544 195.67578111996409 L 750.1874995200196 200.48828108794987 L 753.2578129920294 204.378906623926 L 755.3046876160661 212.67187507194467 L 758.0703129600151 215.53906278393697 L 764.6250004480244 222.0937502719462 L 774.1484369920217 231.51562547194771 L 773.6328120320104 234.58593791996827 L 770.9765621760162 238.98828083195258 L 768.6171873280546 245.44140595191857 L 765.8515630080365 252.5078128639725 L 764.4218746880651 256.7031255039619 L 762.7812495360267 260.39062527992064 L 762.3750000640284 264.4882810879499 L 762.5781248000567 267.96874956792453 L 762.7812495360267 273.29296895995503 L 761.554688000062 277.39062476792606 L 760.0156252160086 280.7695308799739 L 758.9921873920248 283.2265625599539 L 756.4296878080349 287.21875046397327 L 751.9296870400431 291.92968703992665 L 749.3671874560532 296.2304686079733 L 749.3671874560532 302.47656243195524 L 749.4687498240382 305.65234380797483 L 749.7734379520407 311.6914063359727 L 749.164062720025 314.558594047965 L 748.6484377600136 317.12109363195486 L 747.1171870720573 322.34374963195296 L 746.6015621120459 326.1328127999441 L 745.2734371840488 328.7929692159523 L 744.8593745920225 331.7617182719405 L 745.9843747840496 334.42578124796273 L 745.5781253120513 336.6796871679253 L 744.4531251200242 338.92968755192123 L 744.5546874880092 342.7187496959232 L 745.2734371840488 348.76171878393507 L 745.6796876800363 353.3710940159508 L 747.4218752000597 355.8281246719416 L 750.4921876480221 357.8750003199675 L 753.1562496000552 360.02734387194505 L 754.8984371200204 364.12109414394945 L 755.3046876160661 366.88671846396755 L 754.4843745280523 370.47265587194124 L 752.5390622720588 374.66796851193067 L 749.26562508801 383.3749995519174 L 748.9609379840549 389.7226557439426 L 748.6484377600136 393.20312524796464 L 752.5390622720588 399.34765670396155 L 756.1249996800325 403.2382812159485 L 759.5078123520361 406.0039065599558 L 765.0312499200227 409.1796879359172 L 769.023437824042 412.14843699196354 L 773.023437824042 415.4257817599573 L 775.2734371840488 417.0625003519235 L 779.164062720025 420.1367183359689 L 781.6249999360298 422.2851563519216 L 783.8750003200257 424.43749990395736 L 786.1249996800325 427.30468761594966 L 787.0468751360313 431.9101562879514 L 786.9453127680463 434.16406220797217 L 786.6406246400438 438.0546877439483 L 786.2343751680455 440.61328076792415 L 785.8203125760192 444.5078128639725 L 783.9765626880107 448.7031255039619 L 782.0312504320173 450.9570314239245 L 779.5781253120513 453.62109337595757 L 776.812499968044 456.7929692159523 L 774.6562498560525 460.89062502392335 L 774.0468746240367 464.3710935039562 L 774.6562498560525 468.4687503359746 L 775.6796876800363 471.640625151922 L 778.9609379840549 475.2265625599539 L 782.1328128000605 479.21875046397327 L 783.5703121920233 482.80468787194695 L 784.4921876480221 485.7734379519243 L 786.1249996800325 488.02734387194505 L 789.3046876160661 490.1757808639668 L 793.9140628480236 492.2226565119345 L 796.0624998400453 493.6562503679306 L 800.9765621760162 498.16406220797217 L 801.1796879360336 502.4648437759606 L 800.8749998080311 505.84374988795025 L 800.9765621760162 509.2226559999399 L 800.5703127040179 511.7812500479631 L 790.6328125440632 511.3749995519174 L 788.179687424039 511.47656294394983 L 771.3828126720618 511.47656294394983 L 768.4140625920263 511.2695316479658 L 765.2421877760207 511.1679682559334 L 760.3203123200219 510.9648435199633 L 756.2265620480175 510.9648435199633 L 749.6718745600665 511.06640588794835 L 745.9843747840496 511.06640588794835 L 738.7187496960396 511.1679682559334 L 733.7031249920256 511.06640588794835 L 724.8906250240398 511.1679682559334 L 722.6406246400438 511.1679682559334 L 692.7421870080288 511.2695316479658 L 662.9374996480183 511.2695316479658 L 655.8750003200257 511.1679682559334 L 643.2812503040186 511.1679682559334 L 638.9765621760162 511.3749995519174 L 628.8437504000613 511.3749995519174 L 622.6953123840503 511.1679682559334 L 616.5546874880092 511.06640588794835 L 609.6953128960449 511.1679682559334 L 597.9140628480236 511.1679682559334 L 581.8437498880667 511.2695316479658 L 577.0312499200227 511.2695316479658 L 571.7031249920256 511.47656294394983 L 568.1171875840519 511.47656294394983 L 551.5312496640254 511.3749995519174 L 540.7812495360267 511.3749995519174 L 532.5859379200265 511.3710940159508 L 530.0234373120475 511.3749995519174 L 526.9531248640269 511.3749995519174 L 519.7890621440602 511.2695316479658 L 511.898437632015 511.3749995519174 L 482.20312473602826 511.3749995519174 L 477.39062476804247 511.47656294394983 L 469.20312524802284 511.3749995519174 L 465.4140620800317 511.3749995519174 L 459.7812500480213 511.47656294394983 L 418.4062504960457 511.47656294394983 L 398.4453120000544 511.88671897596214 L 393.93750016001286 511.47656294394983 L 391.9921879040194 511.2695316479658 L 383.5937495040125 511.2695316479658 L 380.3203123200219 511.3749995519174 L 377.0390620160615 511.47656294394983 L 373.96874956804095 511.47656294394983 L 368.43749990401557 511.3749995519174 L 363.2187504640315 511.47656294394983 L 326.96875008003553 511.47656294394983 L 318.97656217601616 511.3749995519174 L 311.19531212805305 511.47656294394983 L 306.38281216000905 511.3749995519174 L 302.1874995200196 511.3749995519174 L 295.32812492805533 511.2695316479658 L 275.96874956804095 511.2695316479658 L 273.1015628800378 511.3749995519174 L 268.39062528003706 511.47656294394983 L 260.0000000000582 511.3710940159508 L 255.79687526402995 511.3749995519174 L 244.32812544004992 511.3749995519174 L 226.82031206402462 511.1679682559334 L 222.7265628160094 511.2695316479658 L 205.92968704004306 511.2695316479658 L 198.35156275203917 511.3749995519174 L 193.53906278405339 511.3749995519174 L 184.01562521600863 511.2695316479658 L 173.57031219202327 511.2695316479658 L 157.28906240005745 511.3749995519174 L 78.5468753920286 511.3749995519174 L 71.07031244802056 511.47656294394983 L 9.835937792027835 511.47656294394983 L 3.898437632014975 511.3749995519174 L 0.0 511.3749995519174" fill="none"/><path stroke="#000000" stroke-width="2" d="M 859.3487356513215 1024.0 L 859.343750144064 1023.9882813439472 L 856.8828129280591 1017.3320314879529 L 855.3515622400446 1012.8242186239222 L 853.5078123520361 1008.0117186559364 L 851.7656248320127 1004.1210941439494 L 850.0234373120475 1000.3320309759583 L 848.9999994880636 997.3632808959228 L 848.289062912052 993.6757811199641 L 846.7500001280569 988.3515627519228 L 845.4140620800317 985.0742190079181 L 844.6015621120459 981.6953128959285 L 844.289062912052 978.9296875519212 L 843.3671874560532 972.9921873919666 L 843.164062720025 970.7382814719458 L 842.5468753920286 966.9492183039547 L 841.6328120320104 960.4999997439445 L 841.7343754240428 957.9414067199687 L 840.3984373760177 955.7890621439437 L 840.6015621120459 952.7187496959232 L 842.2421872640261 949.85156300792 L 842.5546874880092 946.2656245759572 L 842.5546874880092 942.3750000639702 L 843.0625003520399 935.4101565439487 L 843.4687498240382 931.7265623039566 L 843.4687498240382 929.3710940159508 L 843.7812500480213 926.8085934079718 L 844.1874995200196 923.0195312639698 L 844.6015621120459 918.4140625919681 L 843.8828124160646 913.8046873599524 L 843.0625003520399 909.4023434239207 L 842.5468753920286 905.6132812799187 L 842.1406248960411 902.9492183039547 L 841.6328120320104 897.2148439039593 L 841.8359377920278 891.9921879039612 L 842.7578122240375 889.0234378239256 L 844.4999997440609 886.0546877439483 L 849.9218749440624 883.187500031956 L 855.0468751360313 881.7539061759599 L 859.648437248019 880.0117186559364 L 864.2578124800348 877.4531246079714 L 874.4999997440609 867.7265623039566 L 877.26562508801 863.8320312319556 L 879.2109373440617 856.7695308799739 L 880.6406246400438 852.5703127039596 L 881.9765626880107 849.9062497279374 L 885.7656248320127 845.9140628479654 L 893.2421877760207 835.8789058559341 L 896.3125002240413 831.8867189759621 L 896.8203120640246 829.3242183679249 L 897.1328122880659 825.8437498879503 L 898.8671877120505 822.0546877439483 L 901.4296872960404 819.390624767926 L 907.4687498240382 816.2187499519205 L 912.7968747520354 812.9414062079741 L 924.3671879680478 804.2382817279431 L 934.4062504960457 796.7617187839351 L 942.6953123840503 790.4140625919681 L 950.3750000640284 783.1445309439441 L 956.0078120960388 778.9453127679299 L 960.5156249600113 773.92578150396 L 963.1796879360336 768.7031255039619 L 964.710937600059 763.1757813759614 L 963.3828126720618 759.3867192319594 L 960.7187496960396 757.85156300792 L 956.9296875520376 757.5429683199618 L 953.1406254080357 757.5429683199618 L 949.8671872000559 755.5976560639683 L 950.1718753280584 751.1953121279366 L 950.5859379200265 746.8945315839374 L 948.53125017602 742.6953123839339 L 946.4843745280523 740.1328127999441 L 943.0078126080334 735.4257817599573 L 939.9296870400431 731.6367185919662 L 936.9609379840549 726.3125002239249 L 932.7656253440655 721.3945313279401 L 924.5703127040179 713.6132812799187 L 921.6015626240405 710.1328127999441 L 918.8359372800332 707.6757811199641 L 916.281249792024 705.011719167931 L 913.6171878400492 702.453125119966 L 903.4765629440662 697.0234378239256 L 900.1015623680432 694.976562175958 L 894.9765621760162 691.6992184319533 L 891.8046873600106 689.8554685439449 L 888.0156252160086 688.1171875839354 L 883.4062499840511 686.3750000639702 L 876.8515624960419 684.4296878079185 L 865.4843750400469 681.1523440639721 L 856.7812495360267 677.5703121919651 L 851.6640624640277 675.8281246719416 L 848.5937500160653 674.7031255039619 L 844.7031255040201 672.8593745919643 L 840.2968750080327 670.6054686719435 L 837.8437498880667 669.5820308479597 L 832.8203120640246 668.2500003839377 L 815.6171878400492 665.6914063359727 L 811.9296870400431 662.2070312959258 L 809.8828124160646 658.6250004479662 L 808.4531251200242 655.9609374719439 L 803.9453122560517 648.5898434559349 L 804.7656253440655 645.7226557439426 L 806.914062336029 644.0820316159516 L 809.5781253120513 642.445311999938 L 812.5468753920286 640.3984373759595 L 814.0859371520346 636.8124999679276 L 818.4843745280523 628.8242186239222 L 820.2265620480175 624.8320317439502 L 821.5625000960426 619.1992186879506 L 821.1484375040163 615.2070307839313 L 820.0234373120475 611.9296870399266 L 818.6875002880115 605.6835942399339 L 818.7968747520354 601.3828126719454 L 817.8750003200257 597.7968752639717 L 816.0312504320173 594.1132810239214 L 814.1874995200196 590.9374996479601 L 810.9062502400484 587.8671871999395 L 805.2734371840488 582.5429688319564 L 800.5703127040179 578.8554690559395 L 798.3125002240413 576.1914060799172 L 789.7109370880644 567.7968752639717 L 786.1249996800325 562.2656245759572 L 785.1015628800378 556.5312501759618 L 786.8437504000613 552.3320309759583 L 788.9921873920248 550.2851563519216 L 793.0937497600098 548.031250431959 L 798.3125002240413 541.3749995519174 L 802.8203120640246 531.3398435839335 L 803.5390627840534 527.5507814399316 L 802.921875456057 525.3007810559357 L 801.1796879360336 521.2031252479646 L 800.8749998080311 517.5156254719477 L 800.460937216063 514.8554690559395 L 800.5703127040179 511.7812500479631 L 800.9765621760162 509.2226559999399 L 800.8749998080311 505.84374988795025 L 801.1796879360336 502.4648437759606 L 800.9765621760162 498.16406220797217 L 796.0624998400453 493.6562503679306 L 793.9140628480236 492.2226565119345 L 789.3046876160661 490.1757808639668 L 786.1249996800325 488.02734387194505 L 784.4921876480221 485.7734379519243 L 783.5703121920233 482.80468787194695 L 782.1328128000605 479.21875046397327 L 778.9609379840549 475.2265625599539 L 775.6796876800363 471.640625151922 L 774.6562498560525 468.4687503359746 L 774.0468746240367 464.3710935039562 L 774.6562498560525 460.89062502392335 L 776.812499968044 456.7929692159523 L 779.5781253120513 453.62109337595757 L 782.0312504320173 450.9570314239245 L 783.9765626880107 448.7031255039619 L 785.8203125760192 444.5078128639725 L 786.2343751680455 440.61328076792415 L 786.6406246400438 438.0546877439483 L 786.9453127680463 434.16406220797217 L 787.0468751360313 431.9101562879514 L 786.1249996800325 427.30468761594966 L 783.8750003200257 424.43749990395736 L 781.6249999360298 422.2851563519216 L 779.164062720025 420.1367183359689 L 775.2734371840488 417.0625003519235 L 773.023437824042 415.4257817599573 L 769.023437824042 412.14843699196354 L 765.0312499200227 409.1796879359172 L 759.5078123520361 406.0039065599558 L 756.1249996800325 403.2382812159485 L 752.5390622720588 399.34765670396155 L 748.6484377600136 393.20312524796464 L 748.9609379840549 389.7226557439426 L 749.26562508801 383.3749995519174 L 752.5390622720588 374.66796851193067 L 754.4843745280523 370.47265587194124 L 755.3046876160661 366.88671846396755 L 754.8984371200204 364.12109414394945 L 753.1562496000552 360.02734387194505 L 750.4921876480221 357.8750003199675 L 747.4218752000597 355.8281246719416 L 745.6796876800363 353.3710940159508 L 745.2734371840488 348.76171878393507 L 744.5546874880092 342.7187496959232 L 744.4531251200242 338.92968755192123 L 745.5781253120513 336.6796871679253 L 745.9843747840496 334.42578124796273 L 744.8593745920225 331.7617182719405 L 745.2734371840488 328.7929692159523 L 746.6015621120459 326.1328127999441 L 747.1171870720573 322.34374963195296 L 748.6484377600136 317.12109363195486 L 749.164062720025 314.558594047965 L 749.7734379520407 311.6914063359727 L 749.4687498240382 305.65234380797483 L 749.3671874560532 302.47656243195524 L 749.3671874560532 296.2304686079733 L 751.9296870400431 291.92968703992665 L 756.4296878080349 287.21875046397327 L 758.9921873920248 283.2265625599539 L 760.0156252160086 280.7695308799739 L 761.554688000062 277.39062476792606 L 762.7812495360267 273.29296895995503 L 762.5781248000567 267.96874956792453 L 762.3750000640284 264.4882810879499 L 762.7812495360267 260.39062527992064 L 764.4218746880651 256.7031255039619 L 765.8515630080365 252.5078128639725 L 768.6171873280546 245.44140595191857 L 770.9765621760162 238.98828083195258 L 773.6328120320104 234.58593791996827 L 774.1484369920217 231.51562547194771 L 764.6250004480244 222.0937502719462 L 758.0703129600151 215.53906278393697 L 755.3046876160661 212.67187507194467 L 753.2578129920294 204.378906623926 L 750.1874995200196 200.48828108794987 L 748.4453120000544 195.67578111996409 L 745.4765629440662 190.65624985593604 L 744.4531251200242 185.74218751996523 L 743.015624704014 182.36328140791738 L 741.5859374080319 178.7773439999437 L 740.6640629760223 174.47656243195524 L 740.562499584048 170.78906265593832 L 740.2500003840541 168.33203097595833 L 738.7187496960396 165.05468723195372 L 735.5390627840534 161.16406271996675 L 731.9609374720603 156.453125119966 L 729.3984378880123 153.48437503993046 L 727.4531246080296 151.74609407992102 L 724.5859379200265 150.10546892794082 L 720.6953123840503 148.46875033597462 L 718.4453120000544 147.1367188479635 L 716.0859371520346 144.57812479994027 L 712.914062336029 141.0937497599516 L 709.4296872960404 138.6367191039608 L 707.6874997760169 137.20312524796464 L 705.7421875200234 135.97656268795254 L 703.5937495040125 127.57812531193485 L 702.6718750720611 124.71093759994255 L 701.1328122880659 121.02343782392563 L 699.3984378880123 118.46484377596062 L 697.343750144064 116.00781209592242 L 694.7890626560547 113.44531251193257 L 689.2578129920294 109.86328166397288 L 684.0390625280561 107.40624998393469 L 679.3281249280553 105.66406246396946 L 677.1718748160638 104.23046860797331 L 675.3281249280553 102.28515635192161 L 672.6718750720611 98.18749951996142 L 670.9296875520376 95.32031283195829 L 669.8046873600106 92.76171878393507 L 667.343750144064 89.69140633597272 L 662.6328125440632 87.02734335995046 L 658.2343751680455 84.7734374399297 L 655.8750003200257 81.39453132794006 L 653.828124672058 78.01562521595042 L 652.0859371520346 75.14843750395812 L 651.3671874560532 72.38281215995084 L 651.0625003520399 68.69921894394793 L 649.6328120320104 65.11328153597424 L 639.898437632015 57.02343782392563 L 635.2968744960381 52.82421862392221 L 629.6640624640277 47.39843788795406 L 626.9999994880636 45.76171827194048 L 619.4218752000597 41.562500095926225 L 614.1953126400476 39.30859417596366 L 607.5390627840534 36.33984409592813 L 603.546874880034 29.785156607918907 L 601.6015626240405 27.22656255995389 L 599.0468751360313 24.97265663993312 L 589.3124997120467 16.269531135971192 L 587.0625003520399 11.761718271940481 L 583.7890621440602 6.234375167929102 L 581.1250001920271 3.2656250879517756 L 577.2343746560509 0.7031255039619282 L 575.9676757528359 0.0" fill="none"/><path stroke="#408040" stroke-width="3" d="M 0.0 65.08824100457423 L 269.17888000000676 60.89727999999741 L 334.090240000005 44.50304000000324 L 388.42368000000715 70.65600000000268 L 422.2156799999939 87.44959999999992 L 472.65791999999783 90.62400000000343 L 577.116160000005 74.15808000000106 L 618.2912000000069 80.4351999999999 L 668.7027200000011 99.79903999999806 L 705.0854399999953 139.07968000000255 L 755.1078399999969 142.52032000000327 L 849.8483200000046 127.07839999999851 L 904.1817600000068 121.44640000000072 L 978.7289599999931 111.09376000000339 L 1021.9110400000063 116.68480000000272 L 1024.0 116.33764090226032" fill="none"/></svg>