<svg xmlns="http://www.w3.org/2000/svg" width="1024" height="1024"><rect stroke="none" x="0" y="0" width="1024" height="1024" fill="white"/><path stroke="#000000" stroke-width="2" d="M 676.3203123200219 281.24609331192914 L 676.0156252160668 282.6796871679253 L 674.8887040000409 283.70534399995813 L 672.7343749120482 284.42187468794873 L 670.8984371200204 284.62500044796616 L 668.7421870080288 284.62500044796616 L 667.515904000029 283.91014399996493 L 666.1874995200196 282.273437695927 L 665.3671874560532 281.4531246079714 L 665.5703040000517 280.73574399994686 L 666.0837867520167 280.53209702397 L 666.9057966080145 281.1714385919622 L 667.9218749440624 281.9648440319579 L 669.7687040000455 283.19334399997024 L 671.509504000016 283.50054399995133 L 673.352704000019 283.09094399993774 L 675.0935040000477 281.75974399992265 L 675.0923253760557 281.7589022719185 L 675.0937497600098 281.75781273597386 L 674.3750000640284 281.24609331192914 L 673.0455040000379 282.47654399991734 L 671.4071040000417 282.88614399993094 L 669.7687040000455 282.78374399995664 L 668.7632066560327 282.073980927933 L 668.0312504320173 281.5546879999456 L 668.7446251520305 281.14538905594964 L 670.4855040000402 281.75974399992265 L 672.2263040000107 281.75974399992265 L 671.9218749440624 280.7343749119318 L 670.2807040000334 280.53094399994006 L 668.3351040000562 280.42854399996577 L 666.697824256029 279.8134456319385 L 667.5156254720641 279.30468761594966 L 672.6359040000243 279.7127679999685 L 675.1963893760112 280.2236364799319 L 676.3203123200219 281.24609331192914" fill="none"/><path stroke="#000000" stroke-width="2" d="M 0.0 497.50331042177277 L 1.2656250880099833 497.644531711936 L 3.721216000034474 497.1876577279181 L 5.563357184058987 496.92632166395197 L 8.328125440049917 498.66796851193067 L 11.710937088064384 498.66796851193067 L 13.34888755204156 499.1788533759536 L 14.372864000033587 500.40762572793756 L 18.161664000013843 501.43162572797155 L 22.769664000021294 502.8642017279635 L 24.10132992005674 503.17182054393925 L 25.125000192027073 504.0937502719462 L 26.86566400004085 504.1954017279204 L 31.064064000034705 505.8338017279748 L 32.46610022406094 505.18888345593587 L 32.44594995205989 505.48409446392907 L 32.44677939201938 505.4851850239211 L 32.640624640043825 505.39843788795406 L 35.93011200003093 506.42329599993536 L 37.820312576019205 509.6015626239241 L 38.23206400003983 510.6268159999745 L 42.32812544004992 512.1640622079722 L 42.53125017601997 513.390624767926 L 46.97656217601616 514.9453127679299 L 63.62931200006278 520.7623679999379 L 67.79687526402995 521.285155839927 L 71.00053299206775 521.6837703679339 L 71.51928320003208 521.8563583999639 L 71.61718784004916 521.8906245119288 L 76.53171200002544 522.2983679999597 L 79.29548800003249 522.3055359999416 L 80.10156236804323 522.3632814079174 L 85.03124992002267 522.7070310399286 L 92.99218739202479 523.8945310719428 L 94.65624985605245 524.1406248959247 L 98.34374963201117 525.0625003519235 L 100.59375001606531 525.3710940159508 L 102.95193600002676 525.7789439999615 L 105.10156288003782 525.4726563839358 L 108.58393600001 526.3923199999263 L 109.3007360000629 526.3923199999263 L 110.63193600001978 526.8019199999399 L 115.34375014406396 527.4179686399293 L 115.98184243205469 527.46449612797 L 119.4393600000185 527.7235199999413 L 125.5859374080319 528.9531248639687 L 129.4745600000606 529.1571199999307 L 133.36718745605322 529.1562495999387 L 143.0937497600098 528.5468753919704 L 151.48437504004687 527.0273433599505 L 151.59398400003556 527.0056959999492 L 156.30468710401328 524.652343295922 L 165.3155840000254 522.2942719999701 L 166.24218726402614 522.3046871039551 L 166.5939752960112 522.6510632959544 L 166.7491840000148 522.806271999958 L 167.87558400002308 524.1374719999731 L 170.23240499204258 524.8548689919407 L 170.74218700802885 525.3671874559368 L 171.56250009604264 525.8789058559341 L 172.48431616002927 527.5161538559478 L 172.2265620480175 529.8554685439449 L 170.94246400002157 532.0171519999276 L 171.28857600002084 532.1727999999421 L 173.20312524802284 530.1796874239226 L 172.99999948806362 527.4140620799735 L 172.47904358402593 526.4826562559465 L 171.97260800004005 525.5710719999624 L 170.1328128000605 524.445311999938 L 168.9006080000545 523.4206719999202 L 168.87007436802378 523.1648378879181 L 168.83593728003325 522.8554690559395 L 168.82824601605535 522.8093163519516 L 169.7187604480423 522.7382896639174 L 170.53900800005067 523.2158719999716 L 170.33593753603054 522.4999997439445 L 169.31020800000988 522.4990719999187 L 168.38758400001097 522.7038719999255 L 167.87558400002308 522.9086719999323 L 167.87558400002308 522.3006279679248 L 170.23233638401143 521.6802242559497 L 170.53900800005067 521.8846719999565 L 184.15625011204975 518.097655807971 L 193.78125004802132 516.4570316799218 L 195.16406272002496 516.7343749119318 L 195.3198080000584 516.7636479999637 L 196.63974400004372 516.560383999953 L 198.18749952001963 516.4570316799218 L 203.51283200003672 516.1492479999433 L 204.33203200006392 515.7396479999297 L 205.24999987205956 515.9453122559353 L 205.2536320000654 515.9444479999365 L 207.09571276803035 514.5117183999391 L 210.6796871680417 514.5117183999391 L 210.78124953602673 515.4335938559379 L 212.92968755203765 516.558594047965 L 214.8792320000357 516.6612479999312 L 215.3439324160572 516.495161343948 L 215.71875020803418 516.3632814079174 L 216.31283200002508 516.1492479999433 L 218.87283200002275 516.1492479999433 L 222.9678080000449 516.0447999999742 L 223.77689292805735 516.8213749759598 L 224.7734374400461 517.7812500479631 L 225.53124966402538 518.5039063039585 L 226.96345600002678 517.7866239999421 L 228.80468787206337 518.8124999679276 L 229.7265623040148 518.4023439359735 L 231.16359987203032 518.8123678719276 L 231.6718745600665 519.3242183679249 L 234.43749990401557 519.9375001599547 L 236.69145600002958 520.5514239999466 L 239.76345600001514 520.141823999933 L 242.5282560000196 520.8586239999277 L 242.82356019201688 521.3503047679551 L 243.1406254080357 521.8828124159481 L 245.39843788801227 522.2929684479604 L 252.76928000006592 523.2127999999211 L 253.768598528055 523.4757785599213 L 254.71093760005897 523.7265623039566 L 261.3671874560532 525.1601561599527 L 264.5468753920286 524.4414064639714 L 267.51562547206413 523.7265623039566 L 267.3124997120467 521.6757811199641 L 266.6963456000667 521.2663121919613 L 267.00209459202597 520.8586475519696 L 272.02274201606633 519.1174184959382 L 272.6328125440632 519.4257817599573 L 272.86788300803164 519.6915128319524 L 273.96874956804095 520.9609379839385 L 276.11718758405186 520.449218559952 L 279.18950400006725 519.1167999999598 L 278.26801868801704 517.6833781759487 L 279.39062476804247 517.5820308479597 L 279.39430400001584 517.5807999999379 L 279.39430400001584 517.3759999999311 L 280.21093785605626 517.3759999999311 L 280.21093785605626 517.6835942399339 L 280.52343705605017 517.5820308479597 L 280.8279040000634 516.8639999999432 L 286.05030400003307 514.0991999999387 L 287.48437504004687 514.20312473597 L 288.4062504960457 514.8164065279416 L 289.5312496640254 514.20312473597 L 289.83593779202783 514.5078128639725 L 289.837390848028 514.507086847967 L 289.8391040000133 514.5087999999523 L 290.6583040000405 514.0991999999387 L 289.8391040000133 512.8703999999561 L 295.9841280000401 510.20799999992596 L 297.2109373440617 511.9492188159493 L 298.2343751680455 513.7890621439437 L 296.2578124800348 514.1757808639668 L 295.05228800006444 514.7299839999177 L 294.69184000004316 514.9603839999181 L 294.58020147203933 515.1810037759715 L 294.42968780803494 515.4687498239218 L 293.4568960000179 517.2602879999322 L 293.2825702400296 517.6847032319638 L 293.1875000320142 517.9101562879514 L 293.05644032004056 518.1531617279397 L 292.8087040000246 518.6047999999719 L 289.32812492805533 519.8320312319556 L 290.14843699202174 517.6835942399339 L 290.1441638400429 517.6888176639332 L 290.1463040000526 517.6831999999704 L 288.3036835840321 519.935291391972 L 287.2812503040186 517.6835942399339 L 287.2799866880523 517.6851425279747 L 287.27910400001565 517.6831999999704 L 286.741414912045 518.3449712639558 L 285.9453122560517 519.3203128319583 L 284.7187496960396 520.1406248959247 L 282.57031270401785 520.343749631953 L 282.5725214720587 520.345236479945 L 282.5687040000339 520.3455999999424 L 283.1796879360336 520.7539066879544 L 280.8281251840526 521.2656250879518 L 280.83132620801916 521.2664565759478 L 280.8279040000634 521.2671999999438 L 281.23437465605093 521.3710940159508 L 282.6718750720611 520.9609379839385 L 284.1036800000584 520.8565759999328 L 289.01990400004433 520.755199999956 L 290.96875008003553 520.550780927937 L 293.2187504640315 519.5273441279423 L 293.4241280000424 518.911999999953 L 293.95353600004455 517.9811839999747 L 294.4687503360328 516.8398438399308 L 294.62364467204316 516.4421416959376 L 294.761472000042 516.0980479999562 L 295.29292800003896 515.1539199999534 L 295.5233280000393 515.1191039999248 L 296.4295680000214 514.976767999935 L 298.61869568005204 515.0043873279355 L 299.7422080000397 515.3638399999472 L 299.9777280000271 515.0207999999402 L 299.97656268801074 515.0195312639698 L 298.33932800003095 514.5087999999523 L 298.8515624960419 513.7929687039577 L 299.6718745600665 513.3828126719454 L 301.61718784004916 513.7929687039577 L 302.39062528003706 514.1093754879548 L 302.80468787206337 514.2968750079744 L 302.96576000005007 514.4944639999303 L 303.3671874560532 514.8164065279416 L 303.898437632015 515.2617185279378 L 304.40550400002394 515.7181439999258 L 304.5855569920386 516.2235207679332 L 304.4833280000603 516.4543999999296 L 303.7656248320127 517.8867189759621 L 303.14843750401633 518.8085934079718 L 302.2265620480175 521.2656250879518 L 302.7425280000316 522.6997759999358 L 305.71212800004287 524.2357759999577 L 306.6328125440632 524.3398440959281 L 307.86252800002694 523.9285759999184 L 308.88652800006093 523.0069759999751 L 308.88652800006093 521.9829759999411 L 308.37541171204066 520.8329635839327 L 308.07031296001514 520.1406248959247 L 307.86252800002694 520.0373759999638 L 307.86252800002694 519.9349759999313 L 307.9711242240155 519.5548887039186 L 308.07031296001514 519.2187504639733 L 309.19531212805305 518.1953126399312 L 309.2956098560244 518.1432350719697 L 309.6033280000556 517.9893759999541 L 312.98329600004945 517.3751951359445 L 314.4140625920263 517.7851566079189 L 314.92812800005777 518.9099519999581 L 314.1376000000164 520.0179199999548 L 314.0362240000395 520.2012159999576 L 313.8750003200257 520.6015621119295 L 313.592832000053 521.6921599999187 L 313.56825600005686 521.9706879999721 L 313.51910400006454 522.3127039999235 L 313.59512371203164 522.94113689597 L 313.6249999360298 523.2031252479646 L 313.7013760000118 523.5415039999643 L 313.8027520000469 523.7698559999699 L 314.05158400005894 524.4026879999437 L 314.16320000000997 524.9914879999706 L 314.4601600000169 525.1297279999708 L 314.55468748806743 525.2382812159485 L 314.8011520000291 525.6611839999678 L 314.91097702406114 525.7317857279559 L 314.98437529604416 525.7812500479631 L 315.48437504004687 525.9882813439472 L 316.0000000000582 526.1406248959247 L 316.58188800001517 526.3022079999209 L 317.1250001920271 526.3710935039562 L 317.8593751040171 526.4257812479627 L 318.5078128640307 526.4609372159466 L 318.914062336029 526.4101560319541 L 319.16441600001417 526.3319039999624 L 319.4921871360275 526.1367183359689 L 320.0256000000518 525.7471999999252 L 320.574464000063 525.200383999967 L 320.8192000000272 525.0478079999448 L 321.60922828805633 524.7149055999471 L 321.8933760000509 524.6259199999622 L 322.04751462402055 524.5582387199393 L 322.2578124800348 524.4687503359746 L 322.4934400000493 524.3709439999657 L 322.72998400003416 524.1989119999344 L 322.9374996480183 524.1054689279408 L 324.33593753603054 523.5937495039543 L 324.97049600002356 523.3182719999459 L 325.2664320000331 523.1841279999353 L 325.4517760000308 523.1267839999637 L 325.6238909440581 523.0939514879719 L 325.85830400005216 523.0868479999481 L 326.3334400000167 523.2691199999535 L 326.53874688001815 523.3397340159281 L 326.78124953602673 523.4960936959251 L 326.9355520000099 523.6479999999283 L 327.0781245440594 523.92578150396 L 327.32774400006747 524.3944959999644 L 327.9062497280538 525.8632816639729 L 327.9921879040194 526.0468746239203 L 328.4213760000421 526.415871999925 L 329.88774400006514 527.3395199999213 L 330.2266880000243 527.5996159999631 L 330.3515627520392 527.8320312319556 L 330.4058880000375 528.0286719999276 L 330.5687040000339 528.4464639999205 L 331.20153600006597 530.1944319999311 L 331.3817600000184 530.5405439999304 L 331.5859374080319 531.4023434239207 L 331.67495680006687 531.7210920959478 L 331.8251520000631 532.2700799999293 L 331.8732144640526 532.3597086719237 L 331.898437632015 532.4101560319541 L 332.06886400002986 532.6161919999286 L 332.78668800002197 533.1988479999709 L 332.9372160000494 533.3135359999724 L 333.021184000012 533.4476799999247 L 333.19531212805305 533.6054691839381 L 333.31712000002153 533.653503999929 L 333.35504179203417 533.6821114879567 L 333.37499955203384 533.6992184319533 L 333.4140620800317 533.7734379519243 L 333.47686400002567 533.9351039999747 L 333.5690240000258 534.0119039999554 L 333.898437632015 534.3203123199637 L 336.2252800000133 536.3486719999346 L 336.91048345604213 537.4887495679432 L 338.4062504960457 539.9843747839332 L 338.71328563202405 541.381915647944 L 338.85798400006024 542.0482559999218 L 338.8743680000189 542.227455999935 L 338.83593728003325 542.6367191039608 L 338.83593728003325 542.7695308799739 L 338.8203120640246 542.8476559359697 L 338.7265628160676 542.976562175958 L 338.5825280000572 543.1859199999599 L 337.64914790401235 544.1568174079293 L 336.8984371200204 544.9335941119352 L 336.39116800006013 545.4325759999338 L 336.1699840000365 545.720319999964 L 334.24218726402614 547.4804684799747 L 332.8368640000117 547.7806079999427 L 330.4999997440609 548.0390625279397 L 328.14592000003904 548.6561279999441 L 326.8577280000318 549.2561919999425 L 325.6406251520384 549.5976560639683 L 325.63814400002593 549.5992319999496 L 324.97656217601616 551.1601561599527 L 323.4609377280576 558.1328127999441 L 323.647981568065 558.6480998399202 L 323.85638400004245 559.2309759999625 L 324.8515624960419 561.9570309119299 L 324.97656217601616 562.1289062399301 L 325.33196800004225 562.3715839999495 L 325.4589440000127 562.5190399999265 L 325.5000002560555 562.8593745919643 L 325.6249999360298 563.3007810559357 L 325.7734379520407 563.535156223923 L 325.9361280000303 563.7601279999362 L 326.0859371520346 563.8828124159481 L 326.4140625920263 564.0351559679257 L 326.4056371200131 564.0751769599738 L 326.365184000053 564.2147839999525 L 326.0600320000667 564.5148159999517 L 325.2265625600121 564.4374999039574 L 324.51993600005517 564.4298239999334 L 324.33593753603054 564.4843745279359 L 324.179687424039 564.5937500159489 L 323.9772160000284 564.7288319999352 L 323.8246400000644 564.933631999942 L 322.71093760005897 566.0664063999429 L 322.7955200000433 566.3580159999547 L 322.87499980803113 566.5703127039596 L 323.0859376640292 566.902343679918 L 323.1221760000335 566.952959999966 L 323.16086067201104 567.0407843839494 L 323.19531212805305 567.1250001919689 L 323.1641600000439 567.2529919999652 L 323.0525440000347 567.4516479999293 L 322.92657766403863 567.5564390399377 L 322.812499968044 567.6484372479608 L 322.8984371200204 567.8085939199664 L 322.9501440000604 567.885823999939 L 324.4257280000602 569.1217919999617 L 324.6530560000101 569.2620799999568 L 325.2858880000422 569.6788479999523 L 326.02343731204746 570.027343871945 L 326.55360000004293 569.9430399999255 L 326.88281292805914 569.816406015947 L 327.1731200000504 569.688063999929 L 327.3850880000391 569.547775999934 L 327.51206400006777 569.4771199999377 L 327.7998080000398 569.3562879999517 L 328.02343731204746 569.3007810559357 L 328.2656245760154 569.2617185279378 L 328.71424000005936 569.2549119999749 L 329.822208000056 569.4545919999364 L 330.1249996800325 569.539062783937 L 330.34547200001543 569.6532479999587 L 331.16569600004004 569.6542719999561 L 330.5078128640307 569.2382812159485 L 330.0468746240367 569.1171870719409 L 329.34375014406396 568.9296875519212 L 328.7656253440655 568.8828129279427 L 328.0390625280561 568.9843752959277 L 327.57812531205127 569.085937663971 L 327.1796879360336 569.2421877759625 L 326.84339200000977 569.4248959999532 L 326.44505600002594 569.6552959999535 L 326.2913904640591 569.6870338559384 L 326.09792000002926 569.6860159999342 L 325.9033600000548 569.6665599999251 L 325.6780994560104 569.6160532479407 L 324.8057958400459 568.9929789439193 L 324.6406246400438 568.8320317439502 L 324.5495439360384 568.711350271944 L 324.48614400002407 568.6231039999402 L 324.0232960000285 568.0343039999716 L 323.7734379520407 567.7539061759599 L 323.7850910720299 567.4645053439308 L 323.7990400000126 567.1710719999392 L 323.74999961606227 566.9726566399331 L 323.74218752002344 566.7812495359685 L 323.6485120000434 566.6908159999293 L 323.55532800004585 566.588415999955 L 323.345408000052 566.231039999926 L 323.4017280000262 566.0753919999697 L 323.42272512003547 565.9909468159312 L 323.4531246080296 565.8867189759621 L 323.74999961606227 565.5546879999456 L 324.1718753280584 565.2617185279378 L 324.24498380802106 565.1831275519216 L 324.3315200000652 565.0943999999436 L 324.52710400003707 564.921343999973 L 324.6878720000386 564.8322559999651 L 324.9453127680463 564.7695308799739 L 325.19531212805305 564.7187496959232 L 326.10156236804323 564.8476559359697 L 326.24218726402614 564.835937279975 L 326.56249958404806 564.6757816319587 L 326.9609379840549 564.3359375359723 L 327.02566400001524 564.2403839999461 L 327.03385600005277 564.1768959999317 L 327.0250833920436 564.1326131199603 L 327.01562470401404 564.0664063999429 L 326.9201111040311 563.9365079039708 L 326.8239360000589 563.7990399999544 L 326.7755939840572 563.7461247999454 L 326.75000012805685 563.714843647962 L 326.36928000004264 563.4222079999745 L 325.45382400002563 561.5411199999508 L 325.15624960005516 560.8906250239233 L 324.3125002240413 558.7851560959243 L 324.25000038405415 558.7460935679264 L 324.20556800003396 558.6565119999577 L 324.2216089600115 558.6137364479364 L 324.24218726402614 558.5664061439456 L 324.43749990401557 558.3125002239249 L 324.454400000046 557.8065919999499 L 324.45644800004084 557.333503999922 L 324.5086720000254 556.8348159999587 L 324.53125017601997 556.2968750079744 L 324.62500044802437 555.9726561279385 L 324.71093760005897 555.5898439679295 L 324.742144000018 555.5056639999384 L 324.8619520000648 555.4032639999641 L 324.9062502400484 555.2109373439453 L 324.85478400002467 554.9936639999505 L 325.1406254080357 553.3515622399282 L 325.220352000033 552.4695039999206 L 325.24901990406215 552.3011870719492 L 325.32812492805533 551.8632816639729 L 325.445312512049 551.3632808959228 L 325.65862400003243 550.762495999923 L 325.8125004800386 550.3750000639702 L 325.8906245120452 550.1367183359689 L 325.93203200004064 550.0282879999722 L 326.1194240000332 549.8818559999345 L 326.19531264004763 549.8125004799222 L 326.29687500803266 549.7617182719405 L 326.5597440000274 549.6770559999277 L 327.1328122880659 549.539062783937 L 327.6406251520384 549.4687498239218 L 328.1249996800325 549.3867192319594 L 328.1874995200196 549.3476567039615 L 328.28906291205203 549.2499998719431 L 328.3750000640284 549.1992186879506 L 328.51660800003447 549.0984959999332 L 329.00812800001586 548.9264639999601 L 329.5078123520361 548.800781311933 L 329.83593779202783 548.7304683519178 L 330.10937548801303 548.6289059839328 L 330.2676480000373 548.6448639999726 L 330.5410560000455 548.4810239999206 L 330.9374996480183 548.4374999039574 L 332.42968780803494 548.3750000639702 L 333.5859374080319 548.2500003839377 L 334.5078128640307 548.1484369919635 L 335.0390620160615 548.1171875839354 L 335.31392000004416 548.0908799999743 L 335.4609377280576 548.0468746239203 L 335.59449600003427 547.9444479999365 L 335.6328120320104 547.8281246719416 L 335.6328120320104 547.4726563839358 L 335.6641280000331 547.4263039999641 L 336.0194560000673 547.3628159999498 L 336.18022400001064 547.3249279999291 L 336.29081600002246 547.2614399999729 L 336.3515627520392 547.19140659197 L 336.70312550402014 546.3203123199637 L 337.21958400006406 545.5554559999728 L 337.46874982403824 545.2617185279378 L 338.9453127680463 543.7226557439426 L 339.156992000062 543.3907199999667 L 339.4140620800317 542.8593745919643 L 339.48437504004687 542.656249855936 L 339.50822400004836 542.5407999999588 L 339.53382400004193 542.248959999939 L 339.54866483202204 542.1193891839357 L 339.56250009604264 542.0156252159504 L 339.5318138880539 541.7820733439294 L 339.4621440000483 541.2177919999231 L 339.3046876160661 540.6093752319575 L 337.66406246402767 536.5234370559338 L 338.4843745280523 535.0898442239268 L 336.65624985605245 535.0625003519235 L 336.2578124800348 535.0234378239256 L 335.82812467205804 534.9101557759568 L 335.3046876160661 534.6406246399274 L 334.75276800006395 534.1603839999298 L 334.3994880000246 533.6545279999264 L 333.5475200000219 533.0145279999706 L 333.39062476804247 532.9257809919654 L 333.09286400006386 532.6428159999195 L 332.7805440000375 532.4124159999192 L 332.7129600000335 532.2905599999358 L 332.4453120000544 531.1601561599527 L 333.34375014406396 530.9609379839385 L 333.4537881600554 530.9059184639482 L 333.51680000004126 530.8764159999555 L 333.73593600001186 530.7238399999333 L 333.8547200000612 530.6224639999564 L 333.9140628480236 530.4999997439445 L 333.9140628480236 530.3984373759595 L 333.7343754240428 530.3984373759595 L 333.6015626240405 530.4374999039574 L 333.3124997120467 530.6679685119307 L 332.8645120000583 530.8282879999606 L 332.3310080000665 530.9050879999413 L 332.1875384320156 530.484487167967 L 332.0937502720626 530.20312473597 L 331.05715200002305 527.6456959999632 L 330.60937523201574 526.976562175958 L 330.46093721606303 526.835937279975 L 329.6808960000635 526.4650239999173 L 328.9006080000545 525.9735039999359 L 327.6288000000641 523.3797119999654 L 327.47656294406625 523.011719167931 L 327.12704000005033 522.5134079999407 L 326.9058560000267 522.342399999965 L 326.3984373760177 522.2656245759572 L 324.8568320000195 522.4181759999483 L 321.70312499202555 523.9609374719439 L 317.38281267206185 525.8046873599524 L 316.09548800002085 525.4799359999597 L 314.27686400001403 523.5148799999733 L 314.18843136006035 523.1283742719679 L 314.1328128000605 522.8749998079729 L 314.1732741120504 522.5325240319362 L 314.2461440000334 521.9502079999656 L 314.37926400004653 521.4484479999519 L 314.54166528006317 521.1106805759482 L 314.62500044802437 520.9414062079741 L 315.64843724801904 519.1132815359742 L 316.7734374400461 517.7851566079189 L 316.87475200003246 517.2725759999594 L 316.4687503360328 516.7617187839351 L 315.1328122880659 516.554687487951 L 314.00781209603883 516.554687487951 L 312.7777280000155 516.658175999939 L 309.0937497600098 517.6796876799199 L 308.88652800006093 517.682175999973 L 307.4531246080296 518.9101557759568 L 307.35052800003905 519.9349759999313 L 307.35052800003905 520.7541759999585 L 308.16972800006624 522.0853759999736 L 307.24917862401344 523.3127751679276 L 306.63372800004436 523.518975999963 L 305.71212800004287 523.518975999963 L 304.4843745280523 523.1093749759602 L 303.39062476804247 522.1132810239214 L 303.0781245440594 521.3320314879529 L 303.0610903040506 521.2958330879337 L 303.0497280000127 521.2671999999438 L 303.32431769603863 520.3061370879295 L 303.70312499202555 518.9960939519224 L 303.8136023040279 518.5936394239543 L 303.8689280000399 518.3999999999651 L 304.0202250240254 518.147837951954 L 304.179687424039 517.8867189759621 L 305.3046876160661 516.558594047965 L 305.71212800004287 515.9423999999417 L 305.71212800004287 515.6351999999606 L 305.20312524802284 514.8164065279416 L 304.6676480000606 514.5323519999511 L 302.1249996800325 513.1757813759614 L 301.61718784004916 513.0742190079181 L 298.85132800001884 512.2559999999357 L 298.13452800002415 511.64159999997355 L 295.7812500480213 508.4687503359746 L 296.80332800006727 508.2623999999487 L 297.11052800004836 508.2623999999487 L 298.95372800005134 507.3407999999472 L 298.95372800005134 506.9311999999336 L 299.3648261120543 506.72771788795944 L 300.8984371200204 508.05859327997314 L 300.8948961280403 508.05376102396986 L 300.8993280000286 508.0575999999419 L 299.77396633604076 506.5230161919608 L 300.28747366403695 506.11454566393513 L 302.2305280000437 508.0575999999419 L 302.2213959680521 508.0456140799215 L 302.2343751680455 508.05859327997314 L 300.5937766400166 505.90628454391845 L 301.5139860480558 505.39544166391715 L 303.1521280000452 506.9311999999336 L 303.13769369601505 506.91232460795436 L 303.15624960005516 506.92968755192123 L 301.8213150720112 505.1909058559686 L 302.84375040006125 504.6796871679253 L 303.3548349440098 505.15188531193417 L 304.2785280000535 506.0095999999321 L 304.6881280000671 505.9071999999578 L 303.4609377280576 504.3710935039562 L 308.16972800006624 501.70879999996396 L 309.6033280000556 503.14239999995334 L 310.11718758405186 502.83593727997504 L 308.89062502403976 501.4023434239207 L 309.3601054720348 501.070096383919 L 309.90862233605003 500.68613427196397 L 311.34375014406396 502.2226565119345 L 311.6513280000654 502.01599999994505 L 310.2187499520369 500.48046899196925 L 310.42187468806515 500.378906623926 L 310.7283865600475 500.1736939519178 L 312.1633280000533 501.60639999993145 L 313.2897280000616 501.09439999994356 L 312.57640038401587 500.0753602559562 L 313.8027520000469 501.09439999994356 L 312.9825280000223 501.50399999995716 L 313.4921871360275 502.0156252159504 L 313.4945280000102 502.01599999994505 L 314.3138713600347 501.6068403199315 L 314.92968755203765 502.2226565119345 L 315.9531253760215 501.0937497599516 L 314.109952000028 499.1487999999663 L 314.109952000028 497.4079999999376 L 315.9360348160262 496.4514805759536 L 318.4140625920263 495.15624959993875 L 330.80468787206337 489.21484390395926 L 330.2901760000386 488.1919999999227 L 333.0549760000431 486.7583999999333 L 332.2357760000159 485.73439999995753 L 343.19434956804616 479.7973964799312 L 345.34290227206657 482.45750783995027 L 343.70312499202555 483.3789061119314 L 339.403776000021 485.42719999991823 L 340.8373760000104 487.7823999999673 L 341.24999987205956 487.57812531193485 L 341.14843750401633 486.554687487951 L 344.0117760000285 485.2244439039496 L 344.0117760000285 485.57483110396424 L 344.00781209603883 485.93750015995465 L 344.0117760000285 485.9359385599382 L 344.0117760000285 485.93919999996433 L 344.52377600001637 485.73439999995753 L 344.42187468806515 484.60937523195753 L 345.95802828803426 483.8919833599357 L 346.46937600005185 484.50559999997495 L 347.49337600002764 484.91519999993034 L 349.85156300803646 483.2773437439464 L 348.6197760000359 483.27679999993416 L 347.9153612800292 483.6793231359334 L 348.37540864001494 483.26645964797353 L 348.8245760000427 482.86719999992056 L 352.6144000000204 482.15039999992587 L 352.614480896038 482.14894899196224 L 352.61718732805457 482.14843699196354 L 352.7187496960396 480.3085936639691 L 353.33008896006504 479.8983403519378 L 355.38281267206185 479.79687526397174 L 355.28291942406213 479.60263782396214 L 355.17440000001807 479.3855999999214 L 355.8906245120452 478.97656217595795 L 356.19840000005206 478.4639999999199 L 360.3984373760177 476.21093785593985 L 359.5776000000187 475.49439999996684 L 358.4531251200242 475.187500031956 L 359.57812531205127 474.67578163195867 L 361.52343756804476 476.4179691519239 L 366.64422400004696 473.85599999997066 L 368.1800089600147 471.80828569596633 L 368.4453120000544 471.5546879999456 L 368.5166807040223 471.4833192959195 L 368.65228800004115 471.3523199999472 L 371.57683200004976 470.47372799995355 L 371.85156300803646 470.8085934079718 L 371.8529628160177 470.80793804791756 L 371.8543360000476 470.80959999992047 L 372.08998195204185 470.6970746879233 L 372.43801600002917 471.01337599992985 L 375.68307200004347 469.3770239999285 L 375.64134912006557 469.2375336959376 L 375.61718784004916 469.1484375039581 L 375.30726400006097 468.6110719999415 L 375.07031244802056 468.5078128639725 L 374.65703424002277 468.535104511946 L 373.2968744960381 468.40625049592927 L 371.9609374720603 468.20312473597005 L 370.90508800005773 468.0499199999613 L 370.56409600004554 467.89734399993904 L 370.53125017601997 467.66796902392525 L 370.89280000003055 467.17235199996503 L 374.18700800003717 464.0634879999561 L 375.10937497601844 463.10546841594623 L 375.78906214406015 462.4179691519239 L 376.3671879680478 462.16796876792796 L 377.0398720000521 462.0943359999219 L 377.81299200002104 461.9857919999631 L 378.53696000005584 462.0943359999219 L 379.1155200000503 462.3831039999495 L 379.6953128960449 462.89062502392335 L 380.17740800004685 463.3937919999589 L 380.7578122240375 463.97265612793854 L 381.2392960000434 464.40550399996573 L 381.62587033602176 464.8679178239545 L 382.20312473602826 465.5625000959262 L 382.5162240000209 466.27839999995194 L 384.258048000047 465.25439999991795 L 389.4804480000166 462.0799999999581 L 393.88281241606455 459.21484390395926 L 401.7734379520407 454.8124999679276 L 404.02118246402824 453.34477414394496 L 406.1718753280584 451.9453122559353 L 409.8590720000211 449.89542399992933 L 420.10156236804323 442.0117186559364 L 420.293913600035 441.45685913594207 L 420.8168960000621 439.96262399991974 L 420.921875456057 439.9609374719439 L 419.2814213120146 438.62904422392603 L 420.1009295360418 437.91461375996005 L 421.2264960000175 438.52902399993036 L 422.0468746240367 438.7343749119318 L 423.0696960000205 438.01702399994247 L 423.5816960000666 437.1978239999735 L 422.4552960000583 436.0714239999652 L 423.07031244802056 435.7656248319545 L 424.60569600004237 436.8906239999342 L 424.60717158403713 436.88901427196106 L 424.60937523201574 436.89062502392335 L 425.7325946880155 435.662104575953 L 427.3694720000494 436.58239999995567 L 435.15624960005516 431.93359359994065 L 435.25781299202936 431.8710937599535 L 435.66489600006025 431.3599999999278 L 438.6344960000133 429.00479999993695 L 443.34489600005327 425.0111999999499 L 445.39241984003456 423.06605260795914 L 445.9062497280538 422.9648435199633 L 447.64843724801904 422.35156275192276 L 448.15872000006493 421.63199999992503 L 448.25000038405415 421.5820308479597 L 448.97894400003133 421.01862399996025 L 449.18374400003813 420.40422399993986 L 449.8486579200253 420.16243711992865 L 450.3125002240413 419.9960934399278 L 453.0781245440594 417.3320314879529 L 454.7873648640234 415.8009159679641 L 455.02343782404205 415.5937495039543 L 455.63494400004856 415.38764799997443 L 455.84486400004243 414.76761599996826 L 456.86272000003373 413.74822399992263 L 461.1645440000575 410.36902399995597 L 468.2301440000301 404.53222399996594 L 468.6517329920316 404.2272030719323 L 468.8984371200204 404.0507811839343 L 478.98437529604416 396.75000012794044 L 480.00781209603883 396.2382817279431 L 480.62500044802437 395.6249999359716 L 481.546874880034 394.7031255039619 L 487.6540395520278 392.95751987193944 L 491.7656248320127 391.7851566079189 L 493.01469900802476 391.4260479999357 L 493.6284160000505 391.4260479999357 L 495.16406272002496 391.2226559999399 L 495.88121600006707 391.1188479999546 L 497.3124997120467 390.8124999679276 L 498.75000012805685 389.99218790396117 L 502.84375040006125 388.14843699196354 L 507.4609377280576 386.30078156793024 L 508.05555200006347 386.1934079999337 L 511.5494400000316 385.58924799994566 L 512.5734400000656 385.07724799995776 L 513.0007408640231 384.53340979194036 L 513.7031249920256 383.644531711936 L 514.9296875520376 382.62109388795216 L 515.9526400000323 381.9028479999397 L 517.0790400000405 381.3908479999518 L 518.8046878720634 380.4882810879499 L 523.6640624640277 377.5000002559391 L 523.5781253120513 378.26171903993236 L 523.7031249920256 377.16406271996675 L 526.1953126400476 375.7695313919685 L 527.6249999360298 374.33593753597233 L 539.803750400024 364.4813230079599 L 540.0967731200508 364.2551900159451 L 543.195312128053 361.74999961594585 L 544.5232640000177 360.52103372797137 L 546.7770880000317 358.9850337279495 L 549.04751923203 356.74705100792926 L 550.3984373760177 355.4179686399293 L 551.908779008023 353.723098111921 L 554.2067200000165 351.1488737279433 L 556.5078128640307 349.25781299197115 L 557.4127226880519 348.4559626239352 L 558.7061760000652 347.31399372796295 L 559.4460160000599 346.5516257279669 L 560.4531251200242 345.5468748799176 L 561.0112000000663 345.0647777279373 L 561.6406251520384 344.5937500159489 L 562.9675520000164 343.005513727956 L 563.579904000042 342.51655372796813 L 564.0390625280561 342.06640639994293 L 564.5703127040179 341.3554687999422 L 565.1990036480129 340.62825164792594 L 565.6197120000143 340.1444577279617 L 566.2308229120099 339.44664063997334 L 567.1250001920271 338.4296878079185 L 568.1640622080304 337.19921868795063 L 569.828124672058 335.61718783993274 L 571.4921871360275 335.7304688639706 L 571.4916014080518 335.7291499519488 L 571.4964480000199 335.7294817279326 L 571.4813552640262 335.70609561592573 L 571.4765629440662 335.6953128959285 L 570.7120640000212 335.222783999925 L 570.7421870080288 335.11328153597424 L 570.7760025600437 334.97050726396265 L 570.8154880000511 334.81523199996445 L 570.7721482240595 334.69736755196936 L 570.7343749120482 334.5859379199683 L 570.7612200960284 334.4601006079465 L 570.8001280000317 334.2940159999416 L 571.023437824042 334.1015623679268 L 571.3116047360236 333.58753382397117 L 572.109375488013 333.79296870395774 L 573.1367270400515 332.96910233591916 L 573.7299630080233 332.49585971195484 L 574.5390622720588 332.20312473597005 L 575.6328120320104 331.6874997759587 L 576.2031247360283 330.8984371199622 L 577.0265600000275 330.926409727952 L 577.8456647680141 330.1742837759666 L 578.4765624320135 329.5976560639683 L 583.6211200000253 326.36090572795365 L 584.4664320000447 325.942601727962 L 585.8979840000393 325.2985057279584 L 590.4060979200294 322.6304378879722 L 590.4262553600129 322.9059225599631 L 590.4294983680593 322.90400358394254 L 590.4296878080349 322.906250239932 L 595.9331840000232 319.6467199999606 L 605.0468751360313 312.58203135995427 L 622.460937216063 302.0351559679257 L 624.2113392640604 300.9822402559221 L 626.0408320000279 299.88454399997136 L 649.7996800000547 286.2653439999558 L 654.3046871040133 283.80859391996637 L 656.5577820160543 282.2719477759674 L 659.3239040000481 280.94054399995366 L 662.2901565440116 278.79359078395646 L 663.7265623040148 279.60937471996294 L 661.9848335360293 280.9410549759632 L 659.6311040000292 281.75974399992265 L 659.003023360041 282.38782463996904 L 658.2968750080327 283.0898442239268 L 656.4556800000137 283.70534399995813 L 655.0220800000243 284.6269439999596 L 655.0286141440156 284.62556876795134 L 655.023437824042 284.6289059839328 L 656.9687500800355 284.2187499519205 L 657.5859374080319 284.0117186559364 L 660.2455040000496 282.06694399996195 L 663.7271040000487 280.32614399993327 L 664.6484377600136 281.9648440319579 L 666.1847040000139 283.29574399994453 L 667.3111040000222 284.3197439999203 L 668.6406246400438 284.8320317439502 L 670.8951040000538 285.0365439999732 L 672.8407040000311 284.6269439999596 L 675.0935040000477 284.0125439999392 L 676.53125017602 283.0898442239268 L 676.7343749120482 281.24609331192914 L 675.2993280000519 279.610367999936 L 672.4296878080349 279.19921868795063 L 667.515904000029 278.791167999967 L 666.9015040000668 277.8695679999655 L 666.9035356160603 277.8787082239287 L 666.8984371200204 277.8710937599535 L 667.0166743040318 278.38783180795144 L 667.1063040000154 278.791167999967 L 666.078125056054 279.30468761594966 L 664.5463040000177 279.91654399991967 L 663.6253992960555 278.89434009592514 L 665.9799040000653 277.767167999933 L 669.4615040000645 277.2551679999451 L 677.4531246080296 272.1367183359689 L 678.1665280000307 272.33996799995657 L 688.40624742402 266.09374515194213 L 693.0155520000262 264.35276799992425 L 695.2683520000428 263.43116799992276 L 696.906752000039 262.8167679999606 L 715.1328122880659 255.44531251193257 L 719.53817600006 251.9623679999495 L 726.1952000000165 248.58316799992463 L 730.1888000000617 245.51116799993906 L 733.0555740160635 242.64541798393475 L 733.1562496000552 242.74609356792644 L 735.1328122880659 244.1367183359689 L 736.1853440000559 244.25983999995515 L 736.8437760000234 244.79436799994437 L 736.9453127680463 245.40624998393469 L 737.35628800001 245.81734399992274 L 738.1406248960411 245.82812467194162 L 738.2175774720381 246.33072230394464 L 738.2630400000489 246.64268799993442 L 738.2653634560411 246.64282316796016 L 738.2656245760154 246.6445311999414 L 745.2426240000641 247.04716799996095 L 747.6015626240405 247.35546879994217 L 749.2362240000512 247.66156799992314 L 752.0000000000582 247.35546879994217 L 753.434624000045 247.66156799992314 L 754.9706240000669 247.04819199995836 L 757.7343754240428 246.33203097595833 L 758.452224000066 246.53619199997047 L 763.7734379520407 245.30859417596366 L 763.8750003200257 245.4101565439487 L 769.3598720000591 244.43801599997096 L 786.8164464640431 238.03515596792568 L 787.3281249280553 238.03515596792568 L 788.1485793280299 237.9336509439745 L 789.1718748160638 238.34374963195296 L 790.6068480000249 238.03596799995285 L 791.4278635520604 237.625912319927 L 792.2421872640261 237.42187519994332 L 793.1668480000226 237.11334399995394 L 795.1523840000154 236.36889599997085 L 795.9009280000464 236.34124799992424 L 796.3043840000173 236.22451199992793 L 797.0580480000353 235.88454399997136 L 797.1256320000393 235.7381119999336 L 797.2343746560509 235.6015626239241 L 797.3593753600144 235.43750041595194 L 797.6249999360298 235.2812503039604 L 798.9155840000603 234.64857599994866 L 799.1875000320142 234.28906291193562 L 799.4843750400469 234.12109414394945 L 801.9742720000213 233.42387199995574 L 803.0238720000489 232.8483839999535 L 803.4843750400469 232.62890598393278 L 804.3776000000653 232.00358399993274 L 805.343750144064 231.4531246079714 L 806.2228480000631 231.06867199996486 L 807.0021120000165 230.67238399991766 L 807.6441600000253 230.25049599993508 L 808.2370560000418 229.98118399997475 L 808.9660200960352 229.5835115519585 L 809.968749568041 229.187500031956 L 811.201536000066 228.63462399994023 L 812.3046871040133 228.16015667194733 L 813.2352000000537 227.7242879999685 L 813.8593751040171 227.40624998393469 L 814.7425280000316 227.0197759999428 L 815.3203128320165 226.75000012794044 L 815.6249927680474 226.51953766396036 L 816.7065600000205 225.93126399995526 L 816.9717760000494 225.8442239999422 L 817.6171878400492 225.6367185919662 L 819.0937497600098 225.24999987194315 L 820.3828121600673 224.66015641595004 L 822.4687503360328 223.35546879994217 L 823.343750144064 222.79296921595233 L 824.3763200000394 222.06259199994383 L 825.1729920000653 221.66527999995742 L 827.341824000061 220.85631999996258 L 827.79687526403 220.69140582391992 L 828.4088320000446 220.44569599995157 L 829.2055040000123 220.13747199997306 L 829.7109370880644 219.8710937599535 L 830.3046871040133 219.61328127991874 L 830.9667840000475 219.38073599996278 L 831.2578129920294 219.21484390395926 L 831.546874880034 219.15234406397212 L 831.9140628480236 219.08593766397098 L 832.6796871680417 218.76562534394907 L 833.3593753600144 218.5078128639725 L 834.0000000000582 218.3281254399335 L 834.5234370560502 218.31250022392487 L 834.867200000037 218.39974399993662 L 835.2109373440617 218.449218559952 L 835.648437248019 218.4101560319541 L 837.3749995520338 217.88281241594814 L 838.8046878720634 217.39453132794006 L 839.6015626240405 217.05859379196772 L 840.4787200000137 216.69887999992352 L 841.93587200006 216.08345599996392 L 842.4296878080349 215.74999961594585 L 842.764288000064 215.57145599991782 L 843.2896000000183 215.23967999994056 L 844.0340480000596 214.81676799996058 L 844.7648102400126 214.45743103994755 L 845.9151360000251 214.0600319999503 L 846.5418240000145 213.77740799996536 L 848.3205120000639 213.0083839999279 L 849.2339200000279 212.49638399994 L 849.9140628480236 212.12499967997428 L 850.5886720000417 211.8051839999389 L 851.6406251520384 211.33203148795292 L 852.0624998400453 210.97265663993312 L 852.5015040000435 210.6920959999552 L 853.1107840000186 210.3715839999495 L 853.6718745600665 209.9648440319579 L 854.2109378560563 209.644531711936 L 854.6718750720611 209.37499955191743 L 855.1406254080357 209.14453094394412 L 855.8906245120452 208.80859340797178 L 856.2907463680604 208.5305190399522 L 856.7661936640507 208.32414412795333 L 857.276416000037 208.25804799993057 L 858.276864000014 207.98771199997282 L 858.562499584048 207.89843763195677 L 859.2109373440617 207.7304688639706 L 859.8702080000658 207.51155199995264 L 860.4620800000266 207.1531519999262 L 861.023437824042 206.88281292794272 L 861.8515630080365 206.43749990395736 L 862.4296878080349 206.1796874239226 L 862.9843752960442 205.89843763195677 L 863.4765629440662 205.62890649592737 L 863.8146560000605 205.44921599992085 L 864.3437496320112 205.34765670396155 L 865.2265625600121 205.1015628799214 L 865.7991680000559 204.88294399995357 L 866.2421872640261 204.62500044796616 L 868.1349120000377 203.36025599995628 L 868.812499968044 202.92578099196544 L 870.1484369920217 202.08203161595156 L 870.6048000000301 201.86419199994998 L 871.0781245440594 201.66015590395546 L 871.7578127360321 201.28906239994103 L 873.7330155520467 200.58695679996163 L 873.828124672058 200.554687487951 L 874.6562498560525 200.3242188799195 L 877.8750003200257 199.38281267194543 L 878.8281251840526 199.11328153597424 L 879.656250368047 198.81640652794158 L 880.4999997440609 198.44531199993799 L 881.0625003520399 198.21484339196468 L 881.2633804800571 198.1413509119302 L 881.3844480000553 198.09791999997105 L 881.7734379520407 197.9960934399278 L 882.1640622080304 197.8671871999395 L 882.6050560000585 197.73747199994978 L 883.0105600000243 197.51935999991838 L 883.5870720000239 197.3012479999452 L 884.0785920000635 197.07084799994482 L 884.7031255040201 196.67578163195867 L 885.3309440000448 196.34175999992294 L 886.0078080000239 196.00793599995086 L 887.7031249920256 195.11328153597424 L 888.0937502720626 194.80468787194695 L 888.3593748480198 194.69140582391992 L 888.6814720000257 194.39615999994567 L 889.1562496000552 194.12890623993007 L 889.7499996160623 193.80859391996637 L 889.8476369920536 193.76435199996922 L 890.1874995200196 193.61718783993274 L 890.6640629760223 193.39843788795406 L 891.2220160000143 193.1284479999449 L 891.8312960000476 192.85913599992637 L 892.7500001280569 192.51171839993913 L 895.015624704014 191.5507814399316 L 895.627264000068 191.3180159999174 L 896.0163840000168 191.11321599996882 L 896.7812495360267 190.88281292794272 L 897.2734371840488 190.84375039994484 L 897.9531253760215 190.85156249592546 L 898.4062504960457 190.76171878393507 L 899.4296872960404 190.52734361594776 L 900.390625280037 190.34765619196696 L 900.7319040000439 190.19263999996474 L 900.985856000043 190.05132799997227 L 901.4140620800317 189.92187494394602 L 902.2578124800348 189.5507814399316 L 903.8133903360576 188.8591564799426 L 904.2421872640261 188.75390668795444 L 904.7500001280569 188.51171839993913 L 905.5426560000633 188.01356799993664 L 906.7448320000549 187.39814399991883 L 907.5937495040125 187.07812454394298 L 908.4062504960457 186.80859340797178 L 908.7426560000167 186.44991999992635 L 908.9999994880636 186.43749990395736 L 909.270016000024 186.48575999995228 L 909.4748160000308 186.67622399993706 L 909.8137600000482 186.64959999994608 L 910.6452480000444 186.59532799996668 L 911.0390620160615 186.67187507194467 L 911.5156254720641 186.60546867194353 L 912.1239040000364 186.70387199992547 L 912.5652480000281 186.63833599997452 L 913.6546826240374 186.36623359995428 L 913.7031249920256 186.3554682879476 L 914.4999997440609 186.00781209592242 L 915.2968744960381 185.74999961594585 L 915.9383040000102 185.44332799996482 L 917.6504320000531 184.85145599994576 L 918.9703680000384 184.0076799999224 L 919.8359377920278 183.60937471996294 L 921.2265625600121 183.10937497596024 L 922.6796871680417 182.57031270395964 L 924.53125017602 181.91796838393202 L 924.612608000054 181.88799999991897 L 925.2577280000551 181.77126399992267 L 925.8750003200257 181.6953128959285 L 926.8359372800332 181.57421875192085 L 927.5658240000485 181.50809599994682 L 928.1423360000481 181.40364799991949 L 929.0625003520399 181.26171852793777 L 930.3750000640284 180.67187507194467 L 931.9453122560517 180.10546892794082 L 933.2031252480228 179.7343754239264 L 935.1434240000672 178.92044799996074 L 935.546874880034 178.49609420791967 L 937.5477760000504 177.73158399993554 L 939.3326080000261 176.92057599994587 L 940.6562498560525 176.33203097595833 L 941.7564160000184 176.0010239999392 L 942.987264000054 175.44191999995383 L 943.7421875200234 175.17578137596138 L 945.695744000026 174.01753599994117 L 947.0310400000308 173.40313599992078 L 947.5911680000136 173.24339199997485 L 948.5703127040179 172.6835937279393 L 950.1484369920217 171.9648440319579 L 950.6171873280546 171.8710937599535 L 951.164062720025 171.9648440319579 L 951.5898880000459 172.1262079999433 L 951.8593751040171 172.10937548795482 L 957.4921871360275 171.08984422392678 L 960.9984000000404 170.13350399996853 L 962.8067840000149 168.79820799996378 L 964.3437496320112 167.88671897596214 L 965.206016000011 167.2151039999444 L 966.1327360000578 166.52799999993294 L 967.4531246080296 165.824219135975 L 968.4759930880391 165.1995658239466 L 969.4531246080296 164.8203120639664 L 970.0904960000189 164.72371199994814 L 970.8357877760427 164.2930544639239 L 972.3440578560112 163.82646988792112 L 972.5468753920286 163.76562483195448 L 975.2187504640315 163.71093708794797 L 975.9324160000542 163.54815999994753 L 977.1250001920271 163.00000051193638 L 978.0937502720626 162.65624985593604 L 978.6482821120298 162.3837235199171 L 980.232192000025 161.61075199994957 L 980.812499968044 161.4101565439487 L 982.2350663680118 160.91335679992335 L 983.4531246080296 160.49218764796387 L 984.9120286720572 160.46320230397396 L 987.5859374080319 160.4140625919681 L 988.5470720000449 160.24268799996935 L 990.0830720000667 159.8566399999545 L 990.9374996480183 159.62890649592737 L 991.4173440000159 159.49926399992546 L 993.0270720000262 158.94630399992457 L 997.1093749760184 157.40234342392068 L 997.6821760000312 157.212671999936 L 997.9296870400431 157.14453094394412 L 998.1640622080304 157.1406254079193 L 998.3856640000595 157.21164799993858 L 998.6171873280546 157.24609331192914 L 998.8864000000176 157.21574399992824 L 1000.9103964160313 156.3438397439313 L 1003.3203128320165 155.30859417596366 L 1003.8199562240625 155.07798937591724 L 1004.1354240000364 154.93427199992584 L 1004.3880427520489 154.72940953593934 L 1004.7187496960396 154.46484377596062 L 1004.9229199360125 154.31718399992678 L 1005.1594240000122 154.14988799992716 L 1005.4642616320634 154.01795993593987 L 1005.7187502080342 153.9101562879514 L 1006.914062336029 153.14453094394412 L 1008.6796871680417 152.15625011193333 L 1009.2984320000396 151.88787199993385 L 1009.7909760000184 151.64927999995416 L 1010.2968750080327 151.19140659197 L 1010.5569280000636 151.0092799999402 L 1010.828259328031 150.87107379193185 L 1011.3671874560532 150.79296921595233 L 1011.4867200000444 150.7225599999656 L 1011.814400000032 150.339583999943 L 1012.1874995200196 149.9960934399278 L 1012.6015621120459 149.74218751996523 L 1012.9520640000119 149.61868799995864 L 1013.258241024043 149.54291609593201 L 1020.9374996480183 148.6875002879533 L 1024.0 148.23237703008635" fill="none"/><path stroke="#408040" stroke-width="3" d="M 1024.0 240.392387241307 L 1003.5507199999993 242.82112000000052 L 967.5776000000042 249.640959999997 L 930.508799999996 264.3660799999998 L 892.1702400000067 284.98943999999756 L 862.2694400000037 289.7407999999996 L 836.1472000000067 302.95040000000154 L 758.2105600000068 342.9068800000023 L 718.7660800000012 359.23967999999877 L 676.7923199999932 361.79967999999644 L 641.9865600000048 367.4112000000023 L 619.304959999994 378.6342399999994 L 567.0195200000016 414.4537599999967 L 545.6998400000011 419.48159999999916 L 529.1110400000034 419.21536000000197 L 523.1206399999937 409.0880000000034 L 515.5123199999944 403.9270400000023 L 505.3849599999958 410.14272000000346 L 474.0812799999985 427.0694399999993 L 425.7792000000045 444.98943999999756 L 395.3868800000055 464.5580800000025 L 351.75423999999475 483.4406400000007 L 333.05599999999686 495.8208000000013 L 337.6435199999978 510.93503999999666 L 315.8732799999998 527.0220800000025 L 313.5283199999976 536.8217599999989 L 304.26111999999557 538.5216 L 280.41216000000713 538.6956799999971 L 251.3920000000071 543.5801599999977 L 211.95776000000478 543.1500799999994 L 159.88735999999335 540.6003199999977 L 119.93087999999989 536.6886400000003 L 74.78272000000288 545.1571200000035 L 28.866559999994934 543.8873600000006 L 0.0 548.1392480961949" fill="none"/></svg>