<svg xmlns="http://www.w3.org/2000/svg" width="1024" height="1024"><rect stroke="none" x="0" y="0" width="1024" height="1024" fill="white"/><path stroke="#000000" stroke-width="2" d="M 980.281249792024 0.0 L 980.281249792024 46.98828083195258 L 980.179687424039 64.80468787194695 L 980.179687424039 79.75781273597386 L 980.281249792024 88.15234355191933 L 980.4843745280523 102.89843711996218 L 980.281249792024 108.83984383993084 L 980.382812160009 117.85156300792005 L 980.382812160009 127.88671897596214 L 980.179687424039 147.5468748799758 L 980.179687424039 153.38281267194543 L 980.281249792024 168.53906227194238 L 980.281249792024 206.11718758393545 L 980.179687424039 212.7734374399297 L 980.281249792024 220.0468746239203 L 980.0703129600151 240.93359411193524 L 979.968749568041 248.51171839993913 L 980.0703129600151 255.88671897596214 L 980.179687424039 259.57031219196506 L 980.281249792024 265.71484364796197 L 980.179687424039 281.1796879359754 L 980.0703129600151 290.80468787194695 L 980.0703129600151 294.38671871996485 L 979.968749568041 301.1445309439441 L 979.968749568041 321.7265623039566 L 980.0703129600151 330.3281254399335 L 980.179687424039 336.6796871679253 L 979.8671872000559 346.40625049592927 L 979.6640624640277 356.5429688319564 L 979.6640624640277 383.88671897596214 L 979.8671872000559 389.3124997119303 L 979.8671872000559 415.3203128319583 L 979.7656248320127 430.16796876792796 L 979.6640624640277 441.53515622392297 L 979.6640624640277 445.94140671996865 L 979.5625000960426 453.5156254719477 L 979.5625000960426 471.33593702391954 L 979.4609377280576 475.6367185919662 L 979.4609377280576 486.1835939839366 L 979.3593753600144 490.5859379199683 L 979.3593753600144 505.3320314879529 L 979.5625000960426 513.1132815359742 L 979.4609377280576 521.921874943946 L 979.4609377280576 536.4609372159466 L 979.3593753600144 545.7812500479631 L 979.3593753600144 565.0312499199645 L 979.4609377280576 568.4101560319541 L 979.4609377280576 575.5781253119349 L 979.3593753600144 579.8789058559341 L 979.3593753600144 603.8398433279363 L 979.4609377280576 608.652343295922 L 979.3593753600144 613.6718745599501 L 979.3593753600144 627.9023441919708 L 979.2578129920294 630.6679685119307 L 979.0468751360313 635.6874997759587 L 979.0468751360313 638.656249855936 L 978.9453127680463 644.5937500159489 L 978.9453127680463 667.3281249279389 L 979.0468751360313 677.6718745599501 L 979.0468751360313 683.816406015947 L 978.9453127680463 698.664062975964 L 979.3593753600144 704.0898437119322 L 979.0468751360313 713.6132761599729 L 979.0468751360313 717.6054691839381 L 979.2578129920294 728.0507811839343 L 979.3593753600144 742.5937500159489 L 979.3593753600144 767.8867189759621 L 979.4609377280576 775.0546872319537 L 979.3593753600144 786.4179691519239 L 979.3593753600144 867.4179686399293 L 979.2578129920294 888.5117183999391 L 979.5625000960426 896.2968750079744 L 979.4609377280576 907.6601559039555 L 979.4609377280576 913.8046873599524 L 979.3593753600144 928.9609379839385 L 979.3593753600144 933.9765626879525 L 979.4609377280576 943.3984378879541 L 979.2578129920294 959.3710940159508 L 979.2578129920294 973.9140628479654 L 979.2578129920294 986.4062504959293 L 979.3593753600144 989.8867189759621 L 979.4609377280576 1002.9960939519224 L 979.4609377280576 1008.5273436159478 L 979.3593753600144 1012.9296875519212 L 979.3593753600144 1020.3007815679302 L 979.2578129920294 1023.8867189759621 L 979.25646781041 1024.0" fill="none"/><path stroke="#000000" stroke-width="2" d="M 979.2564678104682 1024.0 L 979.2578129920876 1023.8867189759039 L 979.3593753600144 1020.3007815679302 L 979.3593753600144 1012.9296875519212 L 979.4609377280576 1008.5273436158313 L 979.4609377280576 1002.9960939519224 L 979.3593753600144 989.8867189759039 L 979.2578129920876 986.4062504958129 L 979.2578129920876 973.9140628479072 L 979.2578129920876 959.3710940158926 L 979.4609377280576 943.3984378878959 L 979.3593753600144 933.9765626879525 L 979.3593753600144 928.9609379839385 L 979.4609377280576 913.8046873599524 L 979.4609377280576 907.660155903839 L 979.5625000961008 896.296875007858 L 979.2578129920876 888.5117183998227 L 979.3593753600144 867.4179686399293 L 979.3593753600144 786.4179691518657 L 979.4609377280576 775.0546872319537 L 979.3593753600144 767.8867189759621 L 979.3593753600144 742.5937500158907 L 979.2578129920876 728.0507811838761 L 979.0468751360895 717.6054691838217 L 979.0468751360895 713.6132761600311 L 979.3593753600144 704.0898437119322 L 978.9453127680463 698.6640629759058 L 979.0468751360895 683.8164060158888 L 979.0468751360895 677.6718745599501 L 978.9453127680463 667.3281249279389 L 978.9453127680463 644.5937500159489 L 979.0468751360895 638.6562498559942 L 979.0468751360895 635.6874997759005 L 979.2578129920876 630.6679685118725 L 979.3593753600144 627.9023441919708 L 979.3593753600144 613.6718745598337 L 979.4609377280576 608.6523432958056 L 979.3593753600144 603.839843327878 L 979.3593753600144 579.8789058559341 L 979.4609377280576 575.5781253118184 L 979.4609377280576 568.4101560318959 L 979.3593753600144 565.0312499200227 L 979.3593753600144 545.7812500479631 L 979.4609377280576 536.4609372158884 L 979.4609377280576 521.9218749438878 L 979.5625000961008 513.113281535916 L 979.3593753600144 505.3320314879529 L 979.3593753600144 490.58593791985186 L 979.4609377280576 486.1835939839366 L 979.4609377280576 475.636718591908 L 979.5625000961008 471.33593702386133 L 979.5625000961008 453.5156254718895 L 979.6640624640277 445.94140671985224 L 979.6640624640277 441.53515622386476 L 979.7656248320709 430.16796876786975 L 979.8671872001141 415.3203128319001 L 979.8671872001141 389.3124997119885 L 979.6640624640277 383.88671897596214 L 979.6640624640277 356.5429688318982 L 979.8671872001141 346.40625049581286 L 980.179687424039 336.6796871678671 L 980.0703129600151 330.3281254399335 L 979.968749568041 321.7265623038402 L 979.968749568041 301.1445309440023 L 980.0703129600151 294.38671871996485 L 980.0703129600151 290.80468787183054 L 980.179687424039 281.1796879359754 L 980.2812497920822 265.7148436480202 L 980.179687424039 259.57031219190685 L 980.0703129600151 255.88671897590393 L 979.968749568041 248.51171839988092 L 980.0703129600151 240.93359411187703 L 980.2812497920822 220.0468746238039 L 980.179687424039 212.7734374399297 L 980.2812497920822 206.11718758393545 L 980.2812497920822 168.53906227194238 L 980.179687424039 153.38281267182902 L 980.179687424039 147.5468748799176 L 980.382812160009 127.88671897584572 L 980.382812160009 117.85156300780363 L 980.2812497920822 108.83984383987263 L 980.4843745280523 102.89843711984577 L 980.2812497920822 88.15234355191933 L 980.179687424039 79.75781273585744 L 980.179687424039 64.80468787183054 L 980.2812497920822 46.98828083189437 L 980.2812497920822 0.0" fill="none"/></svg>