<svg xmlns="http://www.w3.org/2000/svg" width="1024" height="1024"><rect stroke="none" x="0" y="0" width="1024" height="1024" fill="white"/><path stroke="#000000" stroke-width="2" d="M 973.8125004800386 0.0 L 973.8125004800386 13.999999999883585 L 974.1249996800907 51.50000025582267 L 974.2500003840541 58.250000383821316 L 974.3125002240413 67.68749977595871 L 974.2500003840541 71.81250047992216 L 974.3125002240413 81.1875000318978 L 974.5624995841063 96.75000012788223 L 974.7500001280569 102.06249983981252 L 974.7500001280569 124.18749951990321 L 974.1249996800907 128.12499967997428 L 973.4375004160684 144.06249983981252 L 973.5000002560555 149.9999999999418 L 973.6249999360298 162.6875002878951 L 973.6249999360298 175.43750041583553 L 973.8125004800386 184.43749990395736 L 973.8125004800386 236.25000038387952 L 973.6249999360298 256.12499967985786 L 972.9999994880636 277.6249999360298 L 972.9999994880636 331.0625003519235 L 972.8749998080893 337.81250047992216 L 972.8749998080893 384.1249996799161 L 972.8124999681022 387.374999551801 L 972.8124999681022 400.4999997439445 L 972.6875002880115 417.24999987194315 L 972.6875002880115 436.933594111877 L 972.6875002880115 446.3750000638538 L 972.8278732800973 456.5403269119561 L 972.9062502401066 460.07031295989873 L 972.8749998080893 463.3749995518592 L 973.0078126080334 467.0625003518071 L 972.9999994880636 467.1367188478471 L 972.6875002880115 474.1874995199032 L 972.3750000640866 484.6445311998832 L 972.3984373760177 491.00000051181996 L 972.390625280037 494.31250022386666 L 972.390625280037 498.47265587188303 L 972.3125002240995 512.0898437118158 L 972.390625280037 520.4882810879499 L 972.390625280037 551.0039060479612 L 972.3750000640866 558.5624995839316 L 972.4999997440609 566.1874995199032 L 972.2968750080909 570.6875002878951 L 972.2968750080909 570.7656253440073 L 972.4999997440609 574.9648435199051 L 972.4999997440609 585.714843647962 L 972.6875002880115 588.4999997438863 L 972.5019043840584 598.8314951678622 L 972.4999997440609 599.0273433598923 L 972.7031255040201 609.5625000958098 L 972.7031255040201 629.7460940798628 L 972.9062502401066 635.1875000320142 L 972.8749998080893 640.1249996799161 L 972.9999994880636 649.7148436479038 L 972.9999994880636 660.8124999678112 L 973.0078126080334 666.8164065278252 L 973.1250001920271 679.0000005118782 L 973.1875000320142 697.0234378238674 L 973.1875000320142 711.9999999998254 L 973.3124997121049 726.9374996479601 L 973.3124997121049 741.2499998719431 L 973.3203128320165 741.3632808958646 L 973.4140620800317 745.9999999998836 L 973.4375004160684 752.9374996479601 L 973.1093749760184 758.8749998079729 L 972.9062502401066 762.3750000638538 L 972.9062502401066 762.4570316798054 L 972.6875002880115 768.0898437119322 L 972.6875002880115 781.437500415952 L 972.8046878720634 790.6250004479662 L 972.8124999681022 818.4999997439445 L 972.9062502401066 824.1874995199032 L 972.9062502401066 824.3085936639109 L 972.8749998080893 827.2773437440046 L 972.8046878720634 834.4453119999962 L 972.8124999681022 845.9375001598964 L 972.8124999681022 860.6875002878369 L 974.1249996800907 871.7499996158294 L 974.1168353280518 871.8211481600301 L 972.8124999681022 883.187500031956 L 972.7031255040201 895.6874997758423 L 972.7031255040201 917.4921871359111 L 972.6875002880115 931.9375001599547 L 972.6875002880115 946.6875002878951 L 972.4921876480803 962.4453119998798 L 972.4999997440609 972.0624998398707 L 972.4921876480803 979.9570309119881 L 972.6875002880115 1010.5624995839898 L 972.6875002880115 1019.9999999998254 L 972.4999997440609 1023.2695316479076 L 972.4999997440609 1023.3124997118721 L 972.4809025659924 1024.0" fill="none"/><path stroke="#000000" stroke-width="2" d="M 972.4809025659779 1024.0 L 972.4999997440609 1023.3124997119303 L 972.4999997440609 1023.2695316479658 L 972.6875002880115 1019.9999999999418 L 972.6875002880115 1010.5624995839316 L 972.4921876480221 979.9570309119299 L 972.4999997440609 972.0624998399289 L 972.4921876480221 962.445311999938 L 972.6875002880115 946.6875002879533 L 972.6875002880115 931.9375001599547 L 972.7031255040201 917.4921871359693 L 972.7031255040201 895.6874997759587 L 972.812499968044 883.187500031956 L 974.1168353280518 871.8211481599719 L 974.1249996800325 871.7499996159459 L 972.812499968044 860.6875002879533 L 972.812499968044 845.9375001599547 L 972.8046878720634 834.445311999938 L 972.8749998080311 827.2773437439464 L 972.9062502400484 824.3085936639691 L 972.9062502400484 824.1874995199614 L 972.812499968044 818.4999997439445 L 972.8046878720634 790.6250004479662 L 972.6875002880115 781.437500415952 L 972.6875002880115 768.0898437119322 L 972.9062502400484 762.4570316799218 L 972.9062502400484 762.3750000639702 L 973.1093749760184 758.8749998079729 L 973.4375004160102 752.9374996479601 L 973.4140620800317 745.9999999999418 L 973.3203128320165 741.3632808959228 L 973.3124997120467 741.2499998719431 L 973.3124997120467 726.9374996479601 L 973.1875000320142 711.9999999999418 L 973.1875000320142 697.0234378239256 L 973.1250001920271 679.0000005119364 L 973.0078126080334 666.8164065279416 L 972.9999994880636 660.8124999679276 L 972.9999994880636 649.714843647962 L 972.8749998080311 640.1249996799743 L 972.9062502400484 635.187500031956 L 972.7031255040201 629.746094079921 L 972.7031255040201 609.5625000959262 L 972.4999997440609 599.0273433599505 L 972.5019043840584 598.8314951679204 L 972.6875002880115 588.4999997439445 L 972.4999997440609 585.714843647962 L 972.4999997440609 574.9648435199633 L 972.2968750080327 570.7656253439491 L 972.2968750080327 570.6875002879533 L 972.4999997440609 566.1874995199614 L 972.3750000640284 558.5624995839316 L 972.390625280037 551.0039060479612 L 972.390625280037 520.4882810879499 L 972.3125002240413 512.0898437119322 L 972.390625280037 498.47265587194124 L 972.390625280037 494.31250022392487 L 972.3984373760177 491.0000005119364 L 972.3750000640284 484.6445311999414 L 972.6875002880115 474.1874995199614 L 972.9999994880636 467.1367188479635 L 973.0078126080334 467.0625003519235 L 972.8749998080311 463.3749995519174 L 972.9062502400484 460.07031295995694 L 972.8278732800391 456.5403269119561 L 972.6875002880115 446.3750000639702 L 972.6875002880115 436.93359411193524 L 972.6875002880115 417.24999987194315 L 972.812499968044 400.4999997439445 L 972.812499968044 387.3749995519174 L 972.8749998080311 384.1249996799743 L 972.8749998080311 337.81250047992216 L 972.9999994880636 331.0625003519235 L 972.9999994880636 277.6249999359716 L 973.6249999360298 256.1249996799743 L 973.8125004800386 236.25000038393773 L 973.8125004800386 184.43749990395736 L 973.6249999360298 175.43750041595194 L 973.6249999360298 162.6875002879533 L 973.5000002560555 149.9999999999418 L 973.4375004160102 144.06249983992893 L 974.1249996800325 128.12499967997428 L 974.7500001280569 124.18749951996142 L 974.7500001280569 102.06249983992893 L 974.562499584048 96.75000012794044 L 974.3125002240413 81.187500031956 L 974.2500003840541 71.81250047992216 L 974.3125002240413 67.68749977595871 L 974.2500003840541 58.25000038393773 L 974.1249996800325 51.500000255939085 L 973.8125004800386 13.999999999941792 L 973.8125004800386 0.0" fill="none"/></svg>