<svg xmlns="http://www.w3.org/2000/svg" width="1024" height="1024"><rect stroke="none" x="0" y="0" width="1024" height="1024" fill="white"/><path stroke="#000000" stroke-width="2" d="M 776.9976260930562 0.0 L 775.6874997760169 0.0898437118739821 L 772.8332303963543 0.0" fill="none"/><path stroke="#000000" stroke-width="2" d="M 768.7345542277035 0.0 L 766.9765621760162 0.39843737584305927 L 760.7343749120482 0.0898437118739821 L 757.427431166725 0.0" fill="none"/><path stroke="#000000" stroke-width="2" d="M 636.902059147309 0.0 L 618.6015621120459 0.0898437118739821 L 567.8125004800968 0.0898437118739821 L 549.273437184107 0.1914060799172148 L 544.5703127040179 0.1914060799172148 L 541.9062497280538 0.0898437118739821 L 531.5625000960426 0.1914060799172148 L 512.1093754880712 0.1914060799172148 L 509.2421877760207 0.2929684479604475 L 500.2265620480175 0.1914060799172148 L 490.4999997440609 0.0898437118739821 L 483.43750041606836 0.0898437118739821 L 481.44020301320415 0.0" fill="none"/><path stroke="#000000" stroke-width="2" d="M 166.8231710812106 0.0 L 162.20312473608647 0.0898437118739821 L 80.59375001606531 0.0898437118739821 L 74.24218726402614 0.2929684479604475 L 67.5859374080901 0.1914060799172148 L 52.22656204807572 0.1914060799172148 L 37.89062451204518 0.2929684479604475 L 16.28906291211024 0.2929684479604475 L 0.0 0.39402668030379573" fill="none"/><path stroke="#000000" stroke-width="2" d="M 0.0 0.3940266804129351 L 16.28906291205203 0.2929684479604475 L 37.89062451204518 0.2929684479604475 L 52.22656204801751 0.1914060799172148 L 67.5859374080319 0.1914060799172148 L 74.24218726402614 0.2929684479604475 L 80.5937500160071 0.08984371193218976 L 162.20312473602826 0.08984371193218976 L 166.82317108285497 0.0" fill="none"/><path stroke="#000000" stroke-width="2" d="M 481.44020301075943 0.0 L 483.43750041601015 0.08984371193218976 L 490.4999997440609 0.08984371193218976 L 500.2265620480175 0.1914060799172148 L 509.2421877760207 0.2929684479604475 L 512.109375488013 0.1914060799172148 L 531.5625000960426 0.1914060799172148 L 541.9062497280538 0.08984371193218976 L 544.5703127040179 0.1914060799172148 L 549.2734371840488 0.1914060799172148 L 567.8125004800386 0.08984371193218976 L 618.6015621120459 0.08984371193218976 L 636.9020591696462 0.0" fill="none"/><path stroke="#000000" stroke-width="2" d="M 757.4274311655026 0.0 L 760.7343749120482 0.08984371193218976 L 766.9765621760162 0.3984373759594746 L 768.7345542278199 0.0" fill="none"/><path stroke="#000000" stroke-width="2" d="M 772.8332303953212 0.0 L 775.6874997760169 0.08984371193218976 L 776.9976260938856 0.0" fill="none"/></svg>