<svg xmlns="http://www.w3.org/2000/svg" width="1024" height="1024"><rect stroke="none" x="0" y="0" width="1024" height="1024" fill="white"/><path stroke="#000000" stroke-width="2" d="M 234.24493087986775 0.0 L 234.19531264004763 0.49999974394449964 L 235.00781260803342 7.0546872319537215 L 236.24218726402614 11.457031167927198 L 235.21875046403147 17.089844223926775 L 235.21875046403147 20.87890636792872 L 236.14062489604112 27.42968729592394 L 237.7734379520407 31.937500159954652 L 242.28124979202403 34.49609420791967 L 245.0468751360313 35.82812467194162 L 246.58593792002648 38.79687475191895 L 248.3203123200219 41.4609377279412 L 251.1875000320142 45.14453094394412 L 252.3203123200219 48.62890598393278 L 253.1328122880659 51.90624972793739 L 254.05468774406472 55.58984396792948 L 255.0781245440594 59.2773437439464 L 255.39062476804247 64.19140607991721 L 253.546874880034 71.87109375995351 L 250.37500006402843 83.33984358393354 L 247.39843788801227 92.55859404796502 L 243.20312524802284 95.83203123195563 L 238.49218764802208 97.78125004796311 L 231.93750016001286 101.56640665594023 L 230.812499968044 104.33203097595833 L 230.5078128640307 108.53125017596176 L 231.53124966402538 112.62890598393278 L 234.39843737601768 117.13281228794949 L 235.92968704004306 119.79687526397174 L 239.8203125760192 125.12109363195486 L 241.87500032002572 127.98828134394716 L 242.179687424039 130.5468753919704 L 240.64062464004382 133.21093734394526 L 238.49218764802208 136.38281215995084 L 236.64843776001362 140.273437695927 L 236.5468753920286 143.5507814399316 L 236.75000012805685 146.11328102392145 L 237.16406272002496 149.90234419197077 L 237.6718745600665 152.7695308799739 L 238.39062528003706 155.12500019196887 L 239.10937497601844 157.68359423993388 L 240.03125043201726 161.3710940159508 L 240.33593753603054 164.75000012794044 L 239.71875020803418 168.2304686079733 L 236.64843776001362 171.71093708794797 L 233.06250035203993 177.24218777596252 L 233.47656294406625 181.03124991996447 L 232.75781222403748 182.87499980797293 L 230.71093760005897 185.2304691199679 L 227.12500019202707 189.01953126396984 L 225.2812503040186 191.26953164796578 L 223.9531253760215 194.34374963195296 L 223.43750041601015 197.62109337595757 L 223.1328122880659 200.79296921595233 L 222.82812518405262 203.8671871999395 L 221.9062497280538 207.75781273597386 L 220.3671879680478 211.85156300792005 L 218.52343705605017 214.8242186239222 L 215.55468800006201 217.89453107194277 L 212.07031296001514 220.66015641595004 L 208.8984371200204 223.21875046397327 L 206.5468753920286 225.57421875192085 L 204.0859371520346 228.6484377599554 L 202.0390625280561 232.12890623993007 L 200.49999974406091 234.78906265593832 L 199.1718748160638 238.273437695927 L 198.25000038405415 242.67578163195867 L 197.12500019202707 247.6953128959285 L 196.812499968044 250.66406297596404 L 196.60937523201574 253.12109363195486 L 197.2265625600121 255.26953164796578 L 200.29687500803266 257.21484390395926 L 202.14062489604112 260.2890629119356 L 206.33593753603054 262.74609356792644 L 208.99999948806362 264.6914058239199 L 211.96874956804095 266.3281254399335 L 216.2734376960434 268.378906623926 L 220.2656245760154 270.11718758393545 L 223.03124992002267 271.1445309439441 L 226.10156236804323 272.16796876792796 L 228.76562534406548 272.8828129279427 L 232.14062489604112 274.3164057599497 L 234.80468787206337 275.44531251193257 L 239.51562547206413 276.8789063679287 L 242.28124979202403 278.61718732793815 L 244.74218700802885 280.4609372159466 L 248.11718758405186 282.5078128639725 L 250.98437529604416 283.6367185919662 L 252.92968755203765 284.14843699196354 L 255.4921871360275 284.558594047965 L 263.78906214406015 287.7304688639706 L 269.0078126080334 289.6757811199641 L 273.8203125760192 293.16015615995275 L 280.07031296001514 297.0507816959289 L 286.61718732805457 301.5546879999456 L 293.6874997760169 306.06249983992893 L 300.5468753920286 310.3632814079174 L 307.1015628800378 314.4570316799218 L 311.7109370880644 318.65624985593604 L 316.42187468806515 322.34374963195296 L 321.0312499200227 325.5156254719477 L 323.898437632015 328.07812505593756 L 327.9921879040194 331.66015590395546 L 331.57812531205127 335.34765670396155 L 336.078125056054 338.62500044796616 L 340.179687424039 341.79687526397174 L 343.3515622400446 344.66796851193067 L 347.1406254080357 347.2265625599539 L 352.46093721606303 350.1953126399312 L 361.88281241606455 353.6757811199641 L 364.9609390080441 355.31640012795106 L 369.15624960005516 356.2382817279431 L 376.7343749120482 359.4101565439487 L 383.79687526402995 366.57812479994027 L 387.78906214406015 370.67578163195867 L 389.32812492805533 375.89843763195677 L 389.31194572802633 376.24099225597456 L 389.1250001920271 380.1992191999452 L 386.97656217601616 384.7031255039619 L 385.74218752002344 389.0039060479612 L 386.8671877120505 393.20312524796464 L 389.5312496640254 395.55859353597043 L 391.8906245120452 396.6835937279393 L 395.16406272002496 397.5039057919639 L 398.33593753603054 397.4023434239207 L 401.4140620800317 396.89062502392335 L 405.20312524802284 396.7890626559383 L 408.1718753280584 397.4023434239207 L 411.546874880034 399.24609331192914 L 414.92968755203765 401.70312499196734 L 418.8203120640246 403.5468748799176 L 420.25000038405415 405.4921871359693 L 421.07031244802056 407.640625151922 L 424.65624985605245 409.38281267194543 L 429.06250035203993 408.0507811839343 L 432.1328128000605 405.082031103957 L 436.84375040006125 404.7734374399297 L 440.01562521600863 405.5937495039543 L 442.6796871680417 407.2304691199679 L 444.8281251840526 409.6914063359727 L 446.87499980803113 412.0468746239203 L 449.1328122880659 414.0937502719462 L 451.5859374080319 417.3710940159508 L 454.25000038405415 421.6718745599501 L 456.60156211204594 424.02734387194505 L 459.06250035203993 426.277344255941 L 461.0078126080334 429.0429685759591 L 461.52343756804476 432.42187468794873 L 460.80468787206337 434.67578163195867 L 459.46874982403824 437.5429683199618 L 460.60156211204594 440.8203120639664 L 463.97656268801074 442.8671877119341 L 467.8671872000559 443.48046847997466 L 470.42968780803494 443.1757813759614 L 473.0937497600098 441.9453122559353 L 476.78124953602673 439.9999999999418 L 480.0546877440647 438.56640614394564 L 483.1250001920271 437.1328122879495 L 486.5078128640307 436.0078120959224 L 490.19531264004763 435.085937663971 L 493.16406272002496 435.187500031956 L 495.92968704004306 436.4179691519239 L 498.4843745280523 437.9531253759633 L 501.14843750401633 439.28515583992703 L 503.9140628480236 440.3085936639691 L 507.8046873600106 441.3320314879529 L 511.39062476804247 442.3554682879476 L 514.460937216063 443.2773437439464 L 517.9453122560517 444.1992191999452 L 520.3984373760177 444.30078156793024 L 523.8828124160646 443.6874997759587 L 526.6484377600136 442.66406297596404 L 530.8437504000613 442.0468746239203 L 534.9374996480183 442.9687500799191 L 538.5234370560502 444.097655807971 L 542.0078120960388 445.12109363195486 L 546.5156249600113 446.1445314559387 L 550.6093752320157 447.06640588794835 L 554.6015621120459 448.0898437119322 L 557.0625003520399 448.6015621119295 L 560.7421870080288 448.4999997439445 L 564.3281254400499 448.1914060799172 L 566.6875002880115 447.88671897596214 L 569.0390620160615 447.7812500479631 L 572.6250004480244 447.57812531193485 L 575.1875000320142 446.8632811519201 L 577.6406251520384 446.0429690879537 L 581.5312496640254 444.71093759994255 L 585.5234375680448 445.2226559999399 L 589.2109373440617 446.453125119966 L 592.6953123840503 448.1914060799172 L 596.0703129600151 449.4218751999433 L 600.0703129600151 450.24218726396793 L 603.343750144064 450.445311999938 L 607.335937024036 451.2656250879518 L 611.1250001920271 451.7773434879491 L 615.1171870720573 452.2890629119356 L 619.2187504640315 452.6992189439479 L 624.4374999040156 452.902343679918 L 628.7421870080288 452.80078131193295 L 633.343750144064 452.1874995199614 L 639.5937495040125 451.87890585593414 L 648.0937502720626 451.3671874559368 L 653.828124672058 451.6718745599501 L 658.1249996800325 452.08203161595156 L 661.4062499840511 452.5937500159489 L 664.9921873920248 453.10937497596024 L 668.0624998400453 453.5156254719477 L 671.5390627840534 454.33593753597233 L 675.7421875200234 455.3593753599562 L 680.0390625280561 456.7929692159523 L 683.3203128320165 458.1249996799743 L 687.1093780480442 459.86718207993545 L 690.5859379200265 462.11718758393545 L 693.968749568041 464.06640639994293 L 696.4296878080349 466.0117186559364 L 699.7031249920256 469.39062476792606 L 702.6718750720611 473.5859374079737 L 703.4921871360275 475.94140671996865 L 704.3125002240413 478.8085934079718 L 705.4375004160102 481.88281241594814 L 708.6093752320157 486.8984371199622 L 710.9687500800355 489.3554687999422 L 713.5234375680448 492.3281254399335 L 714.2421872640261 495.0898442239268 L 714.2421872640261 498.2656245759572 L 713.8359377920278 503.38671923195943 L 713.7343754240428 508.30078156793024 L 714.4453120000544 511.3749995519174 L 716.4999997440609 514.6484377599554 L 719.0546872320119 518.4374999039574 L 722.5390622720588 522.9453127679299 L 725.4062499840511 526.0156252159504 L 729.0937497600098 529.7031249919673 L 731.9609374720603 532.2617190399324 L 735.8515630080365 535.539062783937 L 740.562499584048 539.0195312639698 L 743.4296872960404 540.7617187839351 L 747.0078126080334 543.0156247039558 L 751.3124997120467 545.4726563839358 L 755.2031252480228 547.7265623039566 L 758.0703129600151 549.0546872319537 L 762.3750000640284 550.796874751919 L 765.8515630080365 552.3320309759583 L 768.0000000000582 553.1523440639721 L 770.7656253440655 554.4843745279359 L 773.2265625600121 556.2226565119345 L 775.5781253120513 558.5781247999403 L 778.7578122240375 561.5507814399316 L 781.0078126080334 563.8007807999384 L 785.2031252480228 567.3867192319594 L 787.5625000960426 568.8203120639664 L 797.5937495040125 573.0195312639698 L 802.7187496960396 574.656249855936 L 810.7031255040201 576.7031255039619 L 823.9140628480236 579.7773434879491 L 829.648437248019 580.902343679918 L 849.6171878400492 585.1015628799214 L 856.9921873920248 586.4335933439434 L 881.8750003200257 589.1953121279366 L 886.9921873920248 590.1171875839354 L 896.5156249600113 591.8593751039589 L 899.7890621440602 593.292968959955 L 902.5546874880092 595.3398435839335 L 904.4999997440609 596.980468735972 L 906.5468753920286 598.4140625919681 L 909.2109373440617 599.746094079921 L 913.3124997120467 600.6679685119307 L 916.9921873920248 601.3828126719454 L 919.968749568041 601.8945310719428 L 923.648437248019 602.5078128639725 L 926.7265628160094 603.2265625599539 L 930.921875456057 604.3515627519228 L 934.710937600059 605.3749995519174 L 938.0937502720626 606.2968750079744 L 940.8515624960419 608.1406248959247 L 943.0078126080334 609.1640627199668 L 946.382812160009 609.8828124159481 L 952.3203123200219 610.2929684479604 L 956.7265628160094 610.0859371519182 L 959.2890624000574 610.0859371519182 L 961.6406251520384 610.2929684479604 L 965.3281249280553 611.3164062719443 L 968.4999997440609 612.5429688319564 L 971.3671874560532 615.0000005119364 L 973.9296870400431 617.6640624639695 L 976.5937500160653 620.019530751917 L 981.5078123520361 623.3984378879541 L 985.5000002560555 626.1640622079722 L 988.4687503360328 627.390624767926 L 991.335937024036 628.4179691519239 L 994.921875456057 629.9531253759633 L 998.3046871040133 631.3867192319594 L 1001.2734371840488 632.6132807679242 L 1004.2421872640261 633.6367185919662 L 1008.0312504320173 634.4570316799218 L 1011.6093747200212 634.664062975964 L 1015.0937497600098 635.2773437439464 L 1018.4765624320135 636.4023439359735 L 1021.1328122880659 637.8359377919696 L 1023.2890624000574 639.3749995519174 L 1024.0 639.7782421425945" fill="none"/><path stroke="#000000" stroke-width="2" d="M 1024.0 639.7782421425945 L 1023.2890624000574 639.3749995519174 L 1021.1328122880659 637.8359377919696 L 1018.4765624320135 636.4023439359735 L 1015.0937497600098 635.2773437439464 L 1011.6093747200212 634.664062975964 L 1008.0312504320173 634.4570316799218 L 1004.2421872640261 633.6367185919662 L 1001.2734371840488 632.6132807679242 L 998.3046871040133 631.3867192319594 L 994.921875456057 629.9531253759633 L 991.335937024036 628.4179691519239 L 988.4687503360328 627.390624767926 L 985.5000002560555 626.1640622079722 L 981.5078123520361 623.3984378879541 L 976.5937500160653 620.019530751917 L 973.9296870400431 617.6640624639695 L 971.3671874560532 615.0000005119364 L 968.4999997440609 612.5429688319564 L 965.3281249280553 611.3164062719443 L 961.6406251520384 610.2929684479604 L 959.2890624000574 610.0859371519182 L 956.7265628160094 610.0859371519182 L 952.3203123200219 610.2929684479604 L 946.382812160009 609.8828124159481 L 943.0078126080334 609.1640627199668 L 940.8515624960419 608.1406248959247 L 938.0937502720626 606.2968750079744 L 934.710937600059 605.3749995519174 L 930.921875456057 604.3515627519228 L 926.7265628160094 603.2265625599539 L 923.648437248019 602.5078128639725 L 919.968749568041 601.8945310719428 L 916.9921873920248 601.3828126719454 L 913.3124997120467 600.6679685119307 L 909.2109373440617 599.746094079921 L 906.5468753920286 598.4140625919681 L 904.4999997440609 596.980468735972 L 902.5546874880092 595.3398435839335 L 899.7890621440602 593.292968959955 L 896.5156249600113 591.8593751039589 L 886.9921873920248 590.1171875839354 L 881.8750003200257 589.1953121279366 L 856.9921873920248 586.4335933439434 L 849.6171878400492 585.1015628799214 L 829.648437248019 580.902343679918 L 823.9140628480236 579.7773434879491 L 810.7031255040201 576.7031255039619 L 802.7187496960396 574.656249855936 L 797.5937495040125 573.0195312639698 L 787.5625000960426 568.8203120639664 L 785.2031252480228 567.3867192319594 L 781.0078126080334 563.8007807999384 L 778.7578122240375 561.5507814399316 L 775.5781253120513 558.5781247999403 L 773.2265625600121 556.2226565119345 L 770.7656253440655 554.4843745279359 L 768.0000000000582 553.1523440639721 L 765.8515630080365 552.3320309759583 L 762.3750000640284 550.796874751919 L 758.0703129600151 549.0546872319537 L 755.2031252480228 547.7265623039566 L 751.3124997120467 545.4726563839358 L 747.0078126080334 543.0156247039558 L 743.4296872960404 540.7617187839351 L 740.562499584048 539.0195312639698 L 735.8515630080365 535.539062783937 L 731.9609374720603 532.2617190399324 L 729.0937497600098 529.7031249919673 L 725.4062499840511 526.0156252159504 L 722.5390622720588 522.9453127679299 L 719.0546872320119 518.4374999039574 L 716.4999997440609 514.6484377599554 L 714.4453120000544 511.3749995519174 L 713.7343754240428 508.30078156793024 L 713.8359377920278 503.38671923195943 L 714.2421872640261 498.2656245759572 L 714.2421872640261 495.0898442239268 L 713.5234375680448 492.3281254399335 L 710.9687500800355 489.3554687999422 L 708.6093752320157 486.8984371199622 L 705.4375004160102 481.88281241594814 L 704.3125002240413 478.8085934079718 L 703.4921871360275 475.94140671996865 L 702.6718750720611 473.5859374079737 L 699.7031249920256 469.39062476792606 L 696.4296878080349 466.0117186559364 L 693.968749568041 464.06640639994293 L 690.5859379200265 462.11718758393545 L 687.1093780480442 459.86718207993545 L 683.3203128320165 458.1249996799743 L 680.0390625280561 456.7929692159523 L 675.7421875200234 455.3593753599562 L 671.5390627840534 454.33593753597233 L 668.0624998400453 453.5156254719477 L 664.9921873920248 453.10937497596024 L 661.4062499840511 452.5937500159489 L 658.1249996800325 452.08203161595156 L 653.828124672058 451.6718745599501 L 648.0937502720626 451.3671874559368 L 639.5937495040125 451.87890585593414 L 633.343750144064 452.1874995199614 L 628.7421870080288 452.80078131193295 L 624.4374999040156 452.902343679918 L 619.2187504640315 452.6992189439479 L 615.1171870720573 452.2890629119356 L 611.1250001920271 451.7773434879491 L 607.335937024036 451.2656250879518 L 603.343750144064 450.445311999938 L 600.0703129600151 450.24218726396793 L 596.0703129600151 449.4218751999433 L 592.6953123840503 448.1914060799172 L 589.2109373440617 446.453125119966 L 585.5234375680448 445.2226559999399 L 581.5312496640254 444.71093759994255 L 577.6406251520384 446.0429690879537 L 575.1875000320142 446.8632811519201 L 572.6250004480244 447.57812531193485 L 569.0390620160615 447.7812500479631 L 566.6875002880115 447.88671897596214 L 564.3281254400499 448.1914060799172 L 560.7421870080288 448.4999997439445 L 557.0625003520399 448.6015621119295 L 554.6015621120459 448.0898437119322 L 550.6093752320157 447.06640588794835 L 546.5156249600113 446.1445314559387 L 542.0078120960388 445.12109363195486 L 538.5234370560502 444.097655807971 L 534.9374996480183 442.9687500799191 L 530.8437504000613 442.0468746239203 L 526.6484377600136 442.66406297596404 L 523.8828124160646 443.6874997759587 L 520.3984373760177 444.30078156793024 L 517.9453122560517 444.1992191999452 L 514.460937216063 443.2773437439464 L 511.39062476804247 442.3554682879476 L 507.8046873600106 441.3320314879529 L 503.9140628480236 440.3085936639691 L 501.14843750401633 439.28515583992703 L 498.4843745280523 437.9531253759633 L 495.92968704004306 436.4179691519239 L 493.16406272002496 435.187500031956 L 490.19531264004763 435.085937663971 L 486.5078128640307 436.0078120959224 L 483.1250001920271 437.1328122879495 L 480.0546877440647 438.56640614394564 L 476.78124953602673 439.9999999999418 L 473.0937497600098 441.9453122559353 L 470.42968780803494 443.1757813759614 L 467.8671872000559 443.48046847997466 L 463.97656268801074 442.8671877119341 L 460.60156211204594 440.8203120639664 L 459.46874982403824 437.5429683199618 L 460.80468787206337 434.67578163195867 L 461.52343756804476 432.42187468794873 L 461.0078126080334 429.0429685759591 L 459.06250035203993 426.277344255941 L 456.60156211204594 424.02734387194505 L 454.25000038405415 421.6718745599501 L 451.5859374080319 417.3710940159508 L 449.1328122880659 414.0937502719462 L 446.87499980803113 412.0468746239203 L 444.8281251840526 409.6914063359727 L 442.6796871680417 407.2304691199679 L 440.01562521600863 405.5937495039543 L 436.84375040006125 404.7734374399297 L 432.1328128000605 405.082031103957 L 429.06250035203993 408.0507811839343 L 424.65624985605245 409.38281267194543 L 421.07031244802056 407.640625151922 L 420.25000038405415 405.4921871359693 L 418.8203120640246 403.5468748799176 L 414.92968755203765 401.70312499196734 L 411.546874880034 399.24609331192914 L 408.1718753280584 397.4023434239207 L 405.20312524802284 396.7890626559383 L 401.4140620800317 396.89062502392335 L 398.33593753603054 397.4023434239207 L 395.16406272002496 397.5039057919639 L 391.8906245120452 396.6835937279393 L 389.5312496640254 395.55859353597043 L 386.8671877120505 393.20312524796464 L 385.74218752002344 389.0039060479612 L 386.97656217601616 384.7031255039619 L 389.1250001920271 380.1992191999452 L 389.31194572802633 376.24099225597456 L 389.32812492805533 375.89843763195677 L 387.78906214406015 370.67578163195867 L 383.79687526402995 366.57812479994027 L 376.7343749120482 359.4101565439487 L 369.15624960005516 356.2382817279431 L 364.9609390080441 355.31640012795106 L 361.88281241606455 353.6757811199641 L 352.46093721606303 350.1953126399312 L 347.1406254080357 347.2265625599539 L 343.3515622400446 344.66796851193067 L 340.179687424039 341.79687526397174 L 336.078125056054 338.62500044796616 L 331.57812531205127 335.34765670396155 L 327.9921879040194 331.66015590395546 L 323.898437632015 328.07812505593756 L 321.0312499200227 325.5156254719477 L 316.42187468806515 322.34374963195296 L 311.7109370880644 318.65624985593604 L 307.1015628800378 314.4570316799218 L 300.5468753920286 310.3632814079174 L 293.6874997760169 306.06249983992893 L 286.61718732805457 301.5546879999456 L 280.07031296001514 297.0507816959289 L 273.8203125760192 293.16015615995275 L 269.0078126080334 289.6757811199641 L 263.78906214406015 287.7304688639706 L 255.4921871360275 284.558594047965 L 252.92968755203765 284.14843699196354 L 250.98437529604416 283.6367185919662 L 248.11718758405186 282.5078128639725 L 244.74218700802885 280.4609372159466 L 242.28124979202403 278.61718732793815 L 239.51562547206413 276.8789063679287 L 234.80468787206337 275.44531251193257 L 232.14062489604112 274.3164057599497 L 228.76562534406548 272.8828129279427 L 226.10156236804323 272.16796876792796 L 223.03124992002267 271.1445309439441 L 220.2656245760154 270.11718758393545 L 216.2734376960434 268.378906623926 L 211.96874956804095 266.3281254399335 L 208.99999948806362 264.6914058239199 L 206.33593753603054 262.74609356792644 L 202.14062489604112 260.2890629119356 L 200.29687500803266 257.21484390395926 L 197.2265625600121 255.26953164796578 L 196.60937523201574 253.12109363195486 L 196.812499968044 250.66406297596404 L 197.12500019202707 247.6953128959285 L 198.25000038405415 242.67578163195867 L 199.1718748160638 238.273437695927 L 200.49999974406091 234.78906265593832 L 202.0390625280561 232.12890623993007 L 204.0859371520346 228.6484377599554 L 206.5468753920286 225.57421875192085 L 208.8984371200204 223.21875046397327 L 212.07031296001514 220.66015641595004 L 215.55468800006201 217.89453107194277 L 218.52343705605017 214.8242186239222 L 220.3671879680478 211.85156300792005 L 221.9062497280538 207.75781273597386 L 222.82812518405262 203.8671871999395 L 223.1328122880659 200.79296921595233 L 223.43750041601015 197.62109337595757 L 223.9531253760215 194.34374963195296 L 225.2812503040186 191.26953164796578 L 227.12500019202707 189.01953126396984 L 230.71093760005897 185.2304691199679 L 232.75781222403748 182.87499980797293 L 233.47656294406625 181.03124991996447 L 233.06250035203993 177.24218777596252 L 236.64843776001362 171.71093708794797 L 239.71875020803418 168.2304686079733 L 240.33593753603054 164.75000012794044 L 240.03125043201726 161.3710940159508 L 239.10937497601844 157.68359423993388 L 238.39062528003706 155.12500019196887 L 237.6718745600665 152.7695308799739 L 237.16406272002496 149.90234419197077 L 236.75000012805685 146.11328102392145 L 236.5468753920286 143.5507814399316 L 236.64843776001362 140.273437695927 L 238.49218764802208 136.38281215995084 L 240.64062464004382 133.21093734394526 L 242.179687424039 130.5468753919704 L 241.87500032002572 127.98828134394716 L 239.8203125760192 125.12109363195486 L 235.92968704004306 119.79687526397174 L 234.39843737601768 117.13281228794949 L 231.53124966402538 112.62890598393278 L 230.5078128640307 108.53125017596176 L 230.812499968044 104.33203097595833 L 231.93750016001286 101.56640665594023 L 238.49218764802208 97.78125004796311 L 243.20312524802284 95.83203123195563 L 247.39843788801227 92.55859404796502 L 250.37500006402843 83.33984358393354 L 253.546874880034 71.87109375995351 L 255.39062476804247 64.19140607991721 L 255.0781245440594 59.2773437439464 L 254.05468774406472 55.58984396792948 L 253.1328122880659 51.90624972793739 L 252.3203123200219 48.62890598393278 L 251.1875000320142 45.14453094394412 L 248.3203123200219 41.4609377279412 L 246.58593792002648 38.79687475191895 L 245.0468751360313 35.82812467194162 L 242.28124979202403 34.49609420791967 L 237.7734379520407 31.937500159954652 L 236.14062489604112 27.42968729592394 L 235.21875046403147 20.87890636792872 L 235.21875046403147 17.089844223926775 L 236.24218726402614 11.457031167927198 L 235.00781260803342 7.0546872319537215 L 234.19531264004763 0.49999974394449964 L 234.24493087986775 0.0" fill="none"/></svg>