<svg xmlns="http://www.w3.org/2000/svg" width="1024" height="1024"><rect stroke="none" x="0" y="0" width="1024" height="1024" fill="white"/><path stroke="#000000" stroke-width="2" d="M 1024.0 177.3469316166811 L 1023.898437632015 185.53515622392297 L 1023.898437632015 189.2226559999399 L 1023.79687526403 197.21093734394526 L 1023.6953128960449 206.01562521595042 L 1023.5937495040125 209.29296895995503 L 1023.5937495040125 213.6953128959285 L 1023.3906247680425 224.9609379839385 L 1023.2890624000574 237.9648440319579 L 1023.0781245440594 254.65624985593604 L 1022.9765621760162 263.66796902392525 L 1022.8749998080311 271.5507814399316 L 1022.6718760960503 284.24995123193366 L 1022.6718750720611 324.5937500159489 L 1022.7734374400461 333.5039057919639 L 1022.7734374400461 364.83984383993084 L 1022.6718750720611 372.51953151996713 L 1022.6718750720611 384.1914060799754 L 1022.3671879680478 393.20312524796464 L 1022.2656245760154 398.2226565119345 L 1022.2656245760154 473.2812503039604 L 1021.9531253760215 482.906250239932 L 1021.9531253760215 487.4101565439487 L 1021.8515630080365 491.0976563199656 L 1021.8515630080365 496.6289059839328 L 1021.7499996160623 504.3085936639691 L 1021.7499996160623 506.4570316799218 L 1021.648437248019 511.1679682559334 L 1021.7499996160623 515.8789058559341 L 1021.546874880034 524.6835937279393 L 1021.546874880034 527.7578127359739 L 1021.2421877760207 539.0195312639698 L 1021.2421877760207 544.2421872639679 L 1021.1406254080357 546.804687871947 L 1021.1328122880077 549.3632808959228 L 1021.0312499200227 556.2226565119345 L 1020.7265628160094 568.2070312959258 L 1020.4218746880069 589.710937087948 L 1020.2109378560563 600.2578124799184 L 1020.0078120960388 614.0820316159516 L 1019.8046873600106 624.7304683519178 L 1019.6015626240405 632.9218754559406 L 1019.6015626240405 640.8085934079718 L 1019.3984378880123 666.4062504959293 L 1019.1875000320142 685.5546879999456 L 1018.9843752960442 688.8320317439502 L 1018.8002109440276 694.031113215955 L 1018.5781248000567 700.3007815679302 L 1018.4765624320135 702.8593745919643 L 1018.7812495360267 726.4140625919681 L 1018.5781248000567 737.5742187519209 L 1018.4765624320135 746.9960939519224 L 1018.3671879680478 769.011719167931 L 1018.4765624320135 773.7226557439426 L 1018.2656245760154 782.1171875839354 L 1018.1640622080304 791.2343746559345 L 1018.1640622080304 796.0468746239203 L 1018.3750000640284 801.5742187519209 L 1018.6796871680417 815.7070315519231 L 1019.2890624000574 842.8437503999448 L 1019.3984296960407 854.4131481599179 L 1019.8046873600106 871.7187502079178 L 1020.0078120960388 889.2304691199679 L 1020.109375488013 896.0898437119322 L 1020.523451392015 908.5827481599408 L 1021.2421877760207 943.3984378879541 L 1021.445312512049 954.8671877119341 L 1021.546874880034 958.453125119966 L 1021.664396288048 963.9427164159715 L 1022.1562501120497 986.9179688959266 L 1022.6718750720611 1009.8554685439449 L 1022.7734374400461 1016.6132807679242 L 1022.9714317106555 1024.0" fill="none"/><path stroke="#000000" stroke-width="2" d="M 1022.9714317107137 1024.0 L 1022.7734374401043 1016.613280767866 L 1022.6718750720611 1009.8554685438867 L 1022.1562501120497 986.9179688959266 L 1021.6643962881062 963.9427164159715 L 1021.5468748800922 958.4531251199078 L 1021.445312512049 954.8671877118759 L 1021.2421877760789 943.3984378878376 L 1020.523451392015 908.582748159999 L 1020.109375488013 896.089843711874 L 1020.007812096097 889.2304691198515 L 1019.8046873600106 871.7187502079178 L 1019.3984296960407 854.4131481599761 L 1019.2890624001157 842.8437503998284 L 1018.6796871680417 815.7070315519231 L 1018.3750000640284 801.5742187519209 L 1018.1640622080304 796.0468746239203 L 1018.1640622080304 791.2343746558181 L 1018.2656245760154 782.1171875839354 L 1018.4765624320717 773.7226557439426 L 1018.3671879680478 769.011719167931 L 1018.4765624320717 746.9960939519224 L 1018.5781248001149 737.5742187519791 L 1018.7812495360849 726.4140625918517 L 1018.4765624320717 702.8593745919061 L 1018.5781248001149 700.3007815679302 L 1018.8002109440276 694.0311132158968 L 1018.9843752961024 688.832031743892 L 1019.1875000320724 685.5546879998292 L 1019.3984378880705 666.4062504958129 L 1019.6015626240405 640.8085934079136 L 1019.6015626240405 632.9218754559406 L 1019.8046873600106 624.7304683518014 L 1020.007812096097 614.0820316158934 L 1020.2109378560563 600.2578124798601 L 1020.4218746880651 589.7109370878316 L 1020.7265628160676 568.2070312959258 L 1021.0312499200809 556.2226565119927 L 1021.1328122880077 549.3632808958646 L 1021.1406254080357 546.8046878718887 L 1021.2421877760789 544.2421872639679 L 1021.2421877760789 539.0195312638534 L 1021.5468748800922 527.7578127359156 L 1021.5468748800922 524.6835937279393 L 1021.7499996160623 515.8789058559341 L 1021.648437248019 511.16796825587517 L 1021.7499996160623 506.4570316799218 L 1021.7499996160623 504.30859366385266 L 1021.8515630080365 496.6289059838746 L 1021.8515630080365 491.0976563199656 L 1021.9531253760797 487.4101565439487 L 1021.9531253760797 482.90625023981556 L 1022.2656245760736 473.2812503039604 L 1022.2656245760736 398.22265651181806 L 1022.3671879680478 393.20312524796464 L 1022.6718750720611 384.1914060799754 L 1022.6718750720611 372.5195315198507 L 1022.7734374401043 364.83984383993084 L 1022.7734374401043 333.5039057919639 L 1022.6718750720611 324.5937500159489 L 1022.6718760960503 284.24995123181725 L 1022.8749998080311 271.5507814398734 L 1022.9765621760744 263.66796902380884 L 1023.0781245441176 254.65624985587783 L 1023.2890624001157 237.9648440318997 L 1023.3906247680425 224.9609379839967 L 1023.5937495040125 213.6953128958121 L 1023.5937495040125 209.29296895989683 L 1023.6953128960449 206.015625215834 L 1023.7968752640882 197.21093734382885 L 1023.898437632015 189.2226559999399 L 1023.898437632015 185.53515622386476 L 1024.0 177.34693161775795" fill="none"/><path stroke="#408040" stroke-width="3" d="M 1024.0 541.1930096124051 L 1018.8595199999982 547.7580799999996 L 1014.7635199999932 555.0694399999993 L 1014.5382399999944 563.8041599999997 L 1013.0636800000066 568.6476800000019 L 1009.3465600000054 571.5558400000009 L 1000.4684799999959 576.1331199999986 L 992.235520000002 581.3350399999981 L 989.747199999998 583.1884799999971 L 988.7436799999996 585.4617599999983 L 987.299840000007 590.4179199999999 L 993.9558399999951 598.1286400000026 L 996.2188800000004 605.5833599999969 L 997.4988799999992 610.0582399999985 L 1000.9600000000064 612.9868799999967 L 1000.7654400000029 616.9804799999984 L 997.9494399999967 620.1036800000002 L 998.3385600000038 627.5993600000002 L 999.8438400000014 631.2448000000004 L 1000.7859199999948 633.3132800000021 L 1000.2329599999939 635.2793600000005 L 995.0310400000017 637.6960000000036 L 991.4777599999943 639.9180800000031 L 989.8803199999966 641.8636800000022 L 986.7263999999996 643.153919999997 L 976.7424000000028 645.3759999999966 L 965.2531199999939 642.4576000000015 L 953.9174400000047 639.6518399999986 L 950.2719999999972 636.375039999999 L 946.3500800000038 633.3337600000013 L 941.6908799999946 631.132160000001 L 936.448000000004 630.6713600000003 L 928.4403199999942 631.5417600000001 L 917.9340800000064 637.8496000000014 L 908.2265599999955 643.0310400000017 L 904.4787199999992 650.1171200000026 L 890.5830399999977 653.4963199999984 L 879.2166399999987 656.7935999999972 L 866.7648000000045 666.112000000001 L 853.0124800000049 677.0278400000025 L 842.3014399999956 680.0383999999976 L 835.4099200000055 683.7555199999988 L 828.0268800000049 689.4796799999967 L 823.5110399999976 691.7734399999972 L 817.0905599999969 693.1353600000002 L 806.6867199999979 693.0636799999993 L 789.7804800000013 691.4867200000008 L 780.3187199999957 689.4694400000008 L 774.4716800000024 685.8956800000014 L 761.0265599999984 684.01152 L 746.2092799999955 687.9846400000024 L 740.587520000001 688.1382400000002 L 733.1020799999969 685.6601599999995 L 727.2960000000021 684.2675200000012 L 721.5923199999961 687.5238400000017 L 716.4416000000056 687.5238400000017 L 713.2262400000036 684.0729599999977 L 710.3180799999973 679.0963199999969 L 705.3926400000055 674.7136000000028 L 700.1292799999937 673.4643199999991 L 695.3369600000005 674.1503999999986 L 690.2681600000069 672.655359999997 L 679.6697600000043 672.5427199999976 L 670.0851200000034 675.2665599999964 L 665.0265599999984 676.8844800000006 L 660.0601599999936 680.4275199999975 L 650.9158400000015 685.0764800000034 L 638.9964800000016 689.4080000000031 L 630.7942400000029 688.5478399999993 L 625.4899200000073 688.7014399999971 L 620.1753599999938 691.4662400000016 L 611.9833599999984 693.0534400000033 L 605.7983999999997 693.2684799999988 L 598.476800000004 691.9372799999983 L 582.6867199999979 697.9891199999984 L 574.6073599999945 700.5593599999993 L 563.4355199999991 702.3513600000006 L 552.7039999999979 700.6719999999987 L 543.7337600000028 702.6175999999978 L 531.5788800000009 703.109120000001 L 521.3696000000054 704.5939199999993 L 505.8457599999965 704.174079999997 L 498.145279999997 702.7814399999988 L 493.69087999999465 704.6348799999978 L 491.1411200000002 709.1814400000003 L 487.39328000000387 710.7891200000013 L 482.5190399999992 710.1132799999978 L 477.15327999999863 711.2396799999988 L 472.9856 710.3897599999982 L 464.71167999999307 705.2390400000004 L 453.92896000000474 699.9449600000007 L 450.77503999999317 696.5452799999985 L 446.3616000000038 693.0841599999985 L 443.668479999993 690.4217599999974 L 438.49727999999595 688.3123199999973 L 433.0393599999952 685.4656000000032 L 427.5097600000008 684.8921600000031 L 422.8300799999997 684.9433599999975 L 418.87743999999657 686.5612800000017 L 415.35487999999896 689.3055999999997 L 409.7843200000061 690.0224000000017 L 406.36415999999736 692.0806400000001 L 403.0975999999937 695.1935999999987 L 392.86784000000625 700.3033599999981 L 387.71712000000116 700.6310400000002 L 383.7849600000045 701.1225600000034 L 378.94143999999505 703.7337600000028 L 374.476800000004 705.7407999999996 L 368.6912000000011 706.4883199999967 L 362.18880000000354 709.8060800000021 L 352.93184000000474 712.7859200000021 L 340.5619199999928 716.1958400000003 L 334.8889599999966 718.1619199999986 L 332.08319999999367 721.6537600000011 L 326.8300799999997 724.4390399999975 L 322.2425599999988 724.9100800000015 L 313.6819200000027 727.9923199999976 L 300.99456000000646 733.8598399999973 L 294.2668799999956 737.2390400000004 L 292.096000000005 739.4815999999992 L 289.66912000000593 743.1987200000003 L 287.69280000000435 746.7417599999972 L 283.88352000000305 748.8000000000029 L 280.514559999996 750.1619199999986 L 278.14912000000186 752.8652799999982 L 271.23712000000523 761.6716799999995 L 267.6326399999962 764.8870400000014 L 261.61152000000584 770.8979200000031 L 254.9759999999951 775.0144 L 253.37855999999738 778.6905600000027 L 252.610560000001 781.9263999999966 L 245.534719999996 787.4355199999991 L 241.5411199999944 791.6031999999977 L 234.71103999999468 797.5526400000017 L 228.5465600000025 804.0140800000008 L 208.78336000000127 815.3907200000031 L 205.39392000000225 816.2611200000028 L 200.42751999999746 815.7695999999996 L 194.82623999999487 816.5068800000008 L 191.1091199999937 818.4320000000007 L 186.24512000000686 826.9926399999968 L 180.64384000000427 830.6790400000027 L 171.78624000000127 831.1910399999979 L 163.36896000000706 830.9350399999967 L 157.90080000000307 833.2697600000029 L 154.9516799999983 836.0038399999976 L 149.24800000000687 841.3081600000005 L 141.2812799999956 846.9504000000015 L 129.26975999999559 850.3910400000022 L 127.17055999999866 853.7292799999996 L 127.59040000000095 857.8969599999982 L 126.30015999999887 860.5696000000025 L 120.27903999999398 863.0886400000018 L 110.31552000000374 867.5328000000009 L 101.232640000002 871.7926399999997 L 95.08864000000176 873.2262400000036 L 90.82880000000296 874.7417599999972 L 87.57248000000254 879.1859200000035 L 82.4832000000024 881.9404799999975 L 75.47904000000563 881.4591999999975 L 71.92575999999826 883.8553600000014 L 69.58079999999609 886.661119999997 L 67.56351999999606 887.3471999999965 L 64.81919999999809 890.5830399999977 L 63.28320000000531 894.2387200000012 L 59.31007999999565 902.8198399999965 L 52.82816000000457 917.8726400000014 L 51.35360000000219 927.4675199999983 L 49.633279999994556 930.8057600000029 L 47.083520000000135 933.2736000000004 L 42.598400000002584 940.5952000000034 L 37.980160000006435 949.125119999997 L 35.68640000000596 956.6412800000035 L 32.04095999999845 963.2870400000029 L 26.35775999999896 978.7801600000021 L 27.2691199999972 983.3369600000005 L 26.030079999996815 987.729919999998 L 24.248319999998785 991.6211200000034 L 22.661120000004303 998.2054399999979 L 20.08064000000013 1002.9670400000032 L 16.52735999999277 1005.5270400000009 L 12.400640000007115 1007.5340799999976 L 10.362880000000587 1010.6675200000027 L 10.352639999997336 1014.2822400000005 L 8.24319999999716 1017.8150400000013 L 4.687302331047249 1024.0" fill="none"/></svg>