<svg xmlns="http://www.w3.org/2000/svg" width="1024" height="1024"><rect stroke="none" x="0" y="0" width="1024" height="1024" fill="white"/><path stroke="#408040" stroke-width="3" d="M 242.70848000000115 171.47903999999835 L 242.0633600000001 171.73503999999957 L 241.5616000000009 172.14463999999862 L 240.46592000000237 173.17887999999948 L 239.76959999999963 173.89568000000145 L 238.5408000000025 174.755839999998 L 237.1174400000018 175.34975999999733 L 231.13727999999537 176.77311999999802 L 225.01376000000164 178.64704000000347 L 207.03231999999844 184.14592000000266 L 198.56384000000253 187.09504000000015 L 192.235520000002 190.33088000000134 L 183.6441599999962 195.1027200000026 L 181.9545599999983 195.79903999999806 L 179.65055999999458 195.46111999999994 L 178.84159999999974 195.5225599999976 L 178.50367999999435 195.860480000003 L 177.909759999995 196.4441599999991 L 176.26111999999557 198.06208000000333 L 173.2710400000069 200.37632000000303 L 163.9219199999934 205.53727999999683 L 160.17407999999705 207.6160000000018 L 153.21087999999872 211.4252800000031 L 141.148159999997 216.85248000000138 L 133.0790399999969 220.43647999999666 L 128.74752000000444 222.15679999999702 L 116.98175999999512 225.7612799999988 L 95.18080000000191 232.34560000000056 L 89.15967999999702 235.05920000000333 L 77.17888000000676 241.18271999999706 L 70.12351999999373 244.86912000000302 L 66.01728000000003 247.67487999999867 L 62.31040000000212 251.01312000000325 L 59.064320000004955 255.00671999999759 L 53.03295999999682 265.99424 L 51.27168000000529 269.2300800000012 L 50.07360000000335 270.78656000000046 L 46.68416000000434 274.4012799999982 L 43.99103999999352 277.2684799999988 L 41.584640000000945 279.25503999999637 L 33.24928000000364 283.19744000000355 L 30.689280000005965 284.38528000000224 L 26.204159999993863 287.51872000000003 L 21.07391999999527 291.389439999999 L 18.677760000005946 292.6796800000011 L 16.240640000003623 293.0995200000034 L 13.086720000006608 292.8435200000022 L 0.20480000000679865 291.29727999999886 L 0.0 291.240766792449" fill="none"/><path stroke="#408040" stroke-width="3" d="M 242.70848000000115 171.47903999999835 L 245.32992000000377 168.95999999999913 L 249.65119999999297 165.29407999999967 L 253.71648000000278 161.60768000000098 L 256.2048000000068 158.52543999999762 L 259.0207999999984 155.06431999999768 L 260.526079999996 153.20064000000275 L 260.87424000000465 152.7705599999972 L 259.58400000000256 151.73632000000362 L 259.5942400000058 151.1628800000035 L 260.01407999999356 150.76352000000043 L 261.0790399999969 149.6985599999971 L 262.8710399999982 147.8758400000006 L 264.7347199999931 145.99167999999918 L 268.2982400000037 142.66367999999784 L 276.8793600000063 134.6252800000002 L 283.81183999999485 128.15359999999782 L 289.843200000003 122.43968000000314 L 291.9423999999999 119.33696000000054 L 293.3145599999989 114.96448000000237 L 294.48192000000563 111.4828800000032 L 296.37631999999576 108.32895999999892 L 306.20672000000195 97.64863999999943 L 314.82880000000296 88.46336000000156 L 323.0924800000066 80.84479999999894 L 342.3948800000071 67.97312000000238 L 371.7017599999963 54.937599999997474 L 378.8697600000014 52.18304000000353 L 382.93503999999666 51.568639999997686 L 389.53983999999764 51.55840000000171 L 415.9795199999935 51.80415999999968 L 443.7401600000012 52.060160000000906 L 481.88416000000143 52.02943999999843 L 487.95647999999346 51.83488000000216 L 496.107520000005 50.667520000002696 L 511.7337600000028 48.15871999999945 L 542.2387199999939 43.28448000000208 L 552.448000000004 41.0726399999985 L 560.8140799999965 37.28383999999642 L 564.633600000001 34.631679999998596 L 569.4873599999992 29.8188799999989 L 577.0137600000016 18.903039999997418 L 589.9026459863962 0.0" fill="none"/></svg>