<svg xmlns="http://www.w3.org/2000/svg" width="1024" height="1024"><rect stroke="none" x="0" y="0" width="1024" height="1024" fill="white"/><path stroke="#000000" stroke-width="2" d="M 713.9375001600129 1024.0 L 713.9375001600129 1022.1450188799645 L 714.0234373120475 1022.1015623679268 L 713.9375001600129 1021.7929687039577 L 713.9375001600129 1021.3242183679249 L 713.7656248320127 1021.1640627199668 L 713.7109370880644 1020.9609379839385 L 713.544835072069 1020.9590364159667 L 712.4002816000138 1019.8915481599397 L 711.4786816000124 1018.1507481599692 L 711.6834816000191 1014.8739481599187 L 709.7378816000419 1012.4163481599535 L 706.5634816000238 1010.9827481599641 L 706.0390625280561 1008.7539066879544 L 706.0508467200561 1008.7167999999365 L 706.0110182400676 1008.6347775999457 L 705.7442816000548 1007.5011481599649 L 702.7746816000436 1006.3747481599567 L 700.8290816000663 1004.0195481599658 L 703.1875000320142 1001.1523440639721 L 703.2578129920294 1001.1210936319549 L 703.3998233600287 1001.0908467199188 L 703.8890700800112 1000.8376934399712 L 704.4295065600309 1000.6812467199634 L 704.8133109760238 1000.4154060799628 L 707.3749995520338 999.2578129919712 L 708.1015623680432 999.1171870719409 L 709.2343746560509 998.6796871679253 L 710.363023360027 998.4597299199668 L 711.0542233600281 998.0956467199721 L 711.3159229440498 997.8775623679394 L 714.1015623680432 996.2617190399324 L 714.339553280035 996.1642700799275 L 714.7656253440655 996.097655807971 L 715.3920000000508 995.7176934399176 L 715.2305643520667 995.3519431679742 L 715.7812500480213 994.906250239932 L 716.1326069760253 994.5236613119487 L 716.6875002880115 994.2890629119356 L 718.0546877440647 993.1289067519247 L 718.0390625280561 992.7578122239211 L 718.378670080041 992.3811532799737 L 718.15672627202 992.3314831359312 L 718.2370816000621 992.2435481599532 L 715.7812500480213 989.6835942399339 L 715.976562688069 989.2460933119291 L 716.0803532800637 989.1470233599539 L 716.0471388160367 989.0864732159534 L 716.7812495360267 987.4531246079714 L 716.9479065600317 987.4460467199679 L 717.1250001920271 987.2421877759625 L 717.1875000320142 986.5859379199683 L 718.0731586560141 985.0563491839566 L 718.8940482560429 983.6425943039358 L 719.1342786560417 983.4524149759673 L 721.829254144046 982.1482383359689 L 722.6965299200383 981.9960934399278 L 723.1943065600353 981.4783999999636 L 724.3377766400226 980.4458700799732 L 724.4218746880651 980.2460938239237 L 725.2031252480228 979.6484372479608 L 725.6329144320334 979.2157153279404 L 726.2421872640261 979.078124543943 L 726.909153280023 978.5116467199405 L 726.8203120640246 978.031250431959 L 727.5554816000513 977.2931481599226 L 729.4062499840511 975.9921879039612 L 729.472000000067 975.9772467199364 L 729.554688000062 975.8867189759621 L 730.3203123200219 975.3476567039615 L 730.4843745280523 975.2656250879518 L 730.6328125440632 975.2148439039593 L 730.7578122240375 975.1289067519247 L 731.5536742400145 974.7309752319707 L 732.4444467200665 974.5208934399416 L 732.5269299200154 974.42987007997 L 732.7687065600185 974.1255065599689 L 733.1875000320142 973.9140628479654 L 734.1545656320523 973.2706519039348 L 734.2343751680455 973.2578129919712 L 734.9609379840549 972.7695308799739 L 735.0625003520399 972.664062975964 L 735.643454464036 972.276635647926 L 736.204800000065 972.137246719969 L 736.2673766400549 971.7617766399635 L 737.0625003520399 970.902343679918 L 737.4478233600385 970.7548467199667 L 737.6753766400507 970.4191999999457 L 737.2670351360575 970.1129441279336 L 737.4921871360275 969.816406015947 L 738.4299397120485 966.8046448639361 L 738.6567065600539 966.7669299199479 L 738.9999994880636 966.3632814079174 L 738.7904000000563 965.549506559968 L 738.7297024000436 965.4540431359201 L 739.0242816000246 963.9811481599463 L 739.3314816000639 961.8307481599622 L 736.1570816000458 961.3187481599743 L 733.9062497280538 959.2695316479658 L 731.0390620160615 959.2695316479658 L 728.272281600046 959.8851481599268 L 725.3042923520552 961.1132815359742 L 722.7421870080288 961.1132815359742 L 718.1346816000296 961.011548159935 L 714.6562498560525 960.0898437119322 L 711.069081600057 960.4995481599472 L 708.5089669120498 959.6800573439687 L 707.4453401600476 956.9726433279575 L 707.7187502080342 956.8437503999448 L 707.8993827840313 956.5704253439326 L 708.3154124800349 955.9470407679328 L 709.0227947520325 955.2901857279358 L 709.7031249920256 954.9414062079741 L 709.8740715520689 954.6598461439717 L 710.1034321920597 954.2867374079651 L 710.2500003840541 954.1523435519193 L 712.6050816000206 952.8195481599541 L 712.6349496320472 952.7672791039222 L 713.2074700800586 952.5703065599664 L 714.2109378560563 951.9531253759633 L 714.2028175360174 951.7277808639337 L 714.1973299200181 951.5178700799588 L 714.2058700800408 951.3500467199483 L 713.976562688069 951.1054684159462 L 713.5320657920674 951.1977963519166 L 713.8359377920278 950.6679685119307 L 714.3532369920285 949.1110830079415 L 714.6718750720611 948.976562175958 L 714.5733908480615 948.4506214399589 L 714.6979584000655 948.0769187839469 L 714.7578122240375 947.9023441919708 L 715.1219722240348 946.8048762879334 L 715.9013621760532 944.4667054079473 L 716.2368000000133 944.3498700799537 L 716.8203120640246 943.7031249919673 L 716.9453127680463 943.0312499199645 L 716.3671879680478 942.6367191039608 L 715.9218749440624 942.3632814079174 L 715.6796876800363 940.1210941439494 L 718.3671879680478 937.7617182719405 L 720.6875002880115 937.0898442239268 L 723.343750144064 936.453125119966 L 723.9453122560517 936.1249996799743 L 724.4393308160361 935.4558873599744 L 724.969246720022 935.1253299199743 L 725.4158233600319 934.6218700799509 L 725.5663964160485 933.9015004159301 L 726.4296878080349 932.031250431959 L 727.5554816000513 927.7315481599653 L 728.921875456057 926.5039063039585 L 731.5078123520361 924.8124999679276 L 732.2197299200343 924.5781299199443 L 732.9962700800388 923.7617766399635 L 732.5819258880219 923.1884154879372 L 732.882582528051 922.9181726719253 L 737.3858816000284 921.7923481599428 L 737.5609845760628 921.7433180159424 L 737.9296870400431 921.746094079921 L 739.9395532800118 921.0993766399333 L 740.7265628160676 920.7695308799739 L 742.0531036160537 920.2477107199375 L 742.6133299200446 920.1265766399447 L 742.7015065600281 920.1180467199301 L 743.0060113920481 919.9540951039526 L 745.9843747840496 920.031250431959 L 746.0636467200238 920.0526233599521 L 747.1587532800622 920.5048934399383 L 748.0177766400157 920.3683532799478 L 748.5781248000567 920.3007815679302 L 750.102118400042 920.5129093119176 L 751.5875532800565 920.9031065599411 L 752.2730700800312 920.8092467199313 L 753.1520000000601 921.0680934399716 L 753.8972979200189 920.9259970559506 L 753.9265822720481 920.9283399679698 L 753.9843747840496 920.9335941119352 L 754.3751065600663 921.0680934399716 L 755.1015628800378 921.187500031956 L 755.5937495040125 920.902343679918 L 757.5006248960271 920.7786997759249 L 758.2378700800473 921.0481766399462 L 758.8922081280616 921.133279231959 L 760.3728076800471 921.5718225919409 L 760.6328934400226 921.989693439973 L 762.7343749120482 922.0507811839343 L 762.9858816000633 922.0995481599239 L 763.1815301120514 921.9772682239418 L 764.8142233600374 921.4577766399598 L 764.9044561920455 921.2108247039723 L 765.0546872320119 920.8085934079718 L 765.445312512049 920.5624995839316 L 765.343750144064 917.390624767926 L 765.3281249280553 916.9453127679299 L 765.7528934400179 916.1671065599658 L 765.5253299200558 915.2853299199487 L 765.6106700800592 914.9155532799195 L 765.3281249280553 914.6875002879533 L 765.2499998720596 914.6093752319575 L 765.2421877760207 914.3164057599497 L 765.1749795840587 914.1897441279725 L 765.1427020800184 914.1251891199499 L 765.2421877760207 913.9492188159493 L 765.1562496000552 913.8046873599524 L 764.9687500800355 913.7734379519243 L 763.3984378880123 910.6328125439468 L 763.5937495040125 910.3359375359723 L 763.7656248320127 910.2226565119345 L 763.7656248320127 910.1093754879548 L 763.6974581760587 910.0569927679608 L 763.7828587520635 909.8947317759739 L 763.9062497280538 909.9101562879514 L 763.9572090880247 909.8428180479677 L 764.0177766400157 909.7671065599425 L 763.9608934400603 909.7102233599289 L 763.8831851520226 909.7102233599289 L 764.1953126400476 909.1132815359742 L 764.2734376960434 909.1132815359742 L 764.4453120000544 909.0273433599505 L 764.390625280037 908.9140623359708 L 764.5013299200218 908.6293299199315 L 764.4765624320135 908.4570316799218 L 764.6614149120287 907.4931568639586 L 764.8069427200244 906.7478394879727 L 765.1875000320142 906.7539066879544 L 765.2320624640561 906.6558699519373 L 765.2693299200619 906.5813299199217 L 765.1271065600449 906.4106700799312 L 765.0082836480578 906.3314513919177 L 765.1726202880382 906.0511119359289 L 765.6640624640277 906.2695311359712 L 765.6659302400658 906.267725823971 L 765.6675532800145 906.2684467199724 L 765.7812500480213 906.1562501119333 L 765.5156254720641 905.4726563839358 L 765.9062497280538 904.800781311933 L 766.0703129600151 904.7304683519178 L 766.3828121600673 904.449218559952 L 766.378670080041 904.2980249599204 L 766.378670080041 904.163553279941 L 766.3288084480446 904.0787896319525 L 766.5703127040179 903.6679690239253 L 766.6969579520519 903.3671874559368 L 766.7768934400519 903.3671065599192 L 766.9475532800425 903.1964467199286 L 766.918897664058 903.1200296959723 L 766.8671877120505 902.9726566399331 L 766.8904785920167 902.9097697279649 L 766.909049856069 902.8658739199745 L 766.9460295680328 902.7815086079645 L 767.0078126080334 902.6484377599554 L 767.696281600045 901.0051481599221 L 767.947152384033 900.7303843839327 L 768.1171875840519 900.7226562559372 L 768.2844467200339 900.7217766399262 L 768.2662103040493 900.6123622399173 L 768.2578124800348 900.550780927937 L 768.6562498560525 900.1523435519193 L 768.9687500800355 899.6679690239253 L 769.3368934400496 899.2995532799396 L 769.4062499840511 899.1328122879495 L 769.6953128960449 898.8164065279416 L 769.9062497280538 898.8164065279416 L 769.9921879040194 898.6171873279382 L 770.2186700800667 898.3608934399672 L 770.1249996800325 898.1523435519193 L 770.9004472320667 896.7531694079516 L 771.015624704014 896.7109375999426 L 771.0720000000438 896.597329919925 L 771.023437824042 896.5390622719424 L 771.3828126720618 895.8867189759621 L 771.8828124160646 895.2773437439464 L 771.9218749440624 895.289062399941 L 771.9253299200209 895.2888934399234 L 771.9843747840496 895.2304691199679 L 772.0000000000582 895.1406254079193 L 772.2265620480175 894.8632811519201 L 772.5546874880674 894.8632811519201 L 772.6648934400291 894.6062233599368 L 772.9493299200549 894.3217766399612 L 772.9777766400366 894.2364467199659 L 772.8455700480263 894.1042401279556 L 772.9609379840549 893.9687495679245 L 773.176893440017 893.9235532799503 L 773.1796879360336 893.921874943946 L 773.1796879360336 893.8085939199664 L 773.1250001920271 893.7656248319545 L 773.2221399040427 893.6458065919578 L 773.4613299200428 893.6675532799563 L 773.546874880034 893.5234375679283 L 773.4140620800317 893.4140620799735 L 773.7378816000419 893.017948159948 L 774.0857896960224 892.1917532159714 L 774.2265620480175 892.273437695927 L 774.4853299200186 892.2737766399514 L 774.6015621120459 892.1328127999441 L 774.6015621120459 891.8476564479643 L 774.4296878080349 891.6757811199641 L 774.5422233600402 891.3919999999343 L 774.4531251200242 891.3203128319583 L 775.116687360045 889.7433763839654 L 775.338670080062 889.7137766399537 L 775.8222233600682 889.1164467199706 L 775.7109370880644 888.6914058239199 L 775.5937495040125 888.6171873279382 L 776.5781248000567 886.2656245759572 L 776.7343749120482 885.9882813439472 L 776.7069644800504 885.9535800319281 L 777.5703121920233 884.1406248959247 L 777.6953128960449 884.1406248959247 L 777.6947404800449 884.138670079934 L 777.6995532800211 884.138670079934 L 777.6600760320434 884.020234239928 L 777.648437248019 883.9804692479665 L 777.686414336029 883.9007170559489 L 777.9531253760215 883.9687495679245 L 777.955553280015 883.9679999999353 L 778.0408934400184 883.8542233599583 L 778.0408934400184 883.6551065599197 L 777.8125004800386 883.5156254719477 L 777.8810490880278 883.2612055039499 L 778.0190566400415 882.7622553599649 L 778.2664028160507 882.8014356479398 L 778.4374999040156 882.9453127679299 L 778.5813299200381 882.8302233599243 L 778.5014312960557 882.6704250879702 L 778.4687503360328 882.6015621119295 L 778.6666700800415 882.3751065599499 L 778.3828121600673 881.9765626879525 L 778.2679050240549 881.8625699839322 L 778.4792596480693 881.0984427519725 L 778.6640629760223 881.1523440639721 L 778.6666700800415 881.1519999999437 L 778.979553280049 880.6968934399192 L 778.9226700800355 880.4408934399253 L 778.7812495360267 880.2968750079744 L 778.7043020800338 880.284825599927 L 778.9008035840234 879.5743979519466 L 778.9083115520189 879.5544698879239 L 778.921875456057 879.5273441279423 L 779.062681600044 878.9891481599188 L 781.195312128053 875.6523438079166 L 782.0234373120475 875.464843263966 L 782.0546877440647 875.2656250879518 L 781.4848890880239 874.9523271679645 L 781.79687526403 874.4687503359746 L 781.7671065600589 874.0693299199338 L 781.3973299200297 873.9839999999385 L 781.1508449280518 873.9675658239285 L 780.9062502400484 872.7421870079706 L 778.9602816000115 871.0019481599447 L 777.968749568041 870.1835939839366 L 777.8986700800597 869.8595532799372 L 777.9843747840496 869.6601559039555 L 777.6426700800657 869.404446719971 L 777.0168934400426 869.404446719971 L 776.9286881280132 869.460575231933 L 774.9666816000245 868.7491481599282 L 772.4062504960457 868.5429688319564 L 770.4163184640347 867.2506122239283 L 770.4421304320567 867.2219320319709 L 770.4765624320135 867.187500031956 L 770.0390625280561 866.7539066879544 L 768.2109378560563 864.2421872639679 L 765.546874880034 861.5820308479597 L 762.2734376960434 860.1484369919635 L 760.016281600052 858.3043481599307 L 759.0946816000505 856.3587481599534 L 757.0466816000408 855.3347481599194 L 753.7698816000484 853.1843481599353 L 751.6194816000643 850.214748159924 L 747.9375001600129 848.3710935039562 L 745.6705024000257 847.1418859519181 L 743.2226816000184 845.8115481599234 L 740.1506816000328 844.4803481599665 L 738.0002816000488 842.9443481599446 L 736.7734374400461 841.2031252479646 L 734.9296875520376 839.6679690239253 L 732.8828129280591 837.4140620799735 L 732.0666460160282 835.9037112319493 L 731.446681600064 834.7523481599637 L 729.3986816000543 833.8307481599622 L 726.8386816000566 833.4211481599486 L 726.9146368000656 831.5982295039576 L 726.9843752960442 831.5742187519209 L 726.9246115840506 831.3588387839263 L 726.9410816000309 830.9635481599253 L 726.8593745920225 830.8281251839362 L 726.954670080042 830.5777766399551 L 726.6484377600136 830.4843745279359 L 725.3046876160661 828.3007815679302 L 727.1875000320142 826.66015641595 L 727.4687498240382 826.5390622719424 L 728.092446720053 826.5955532799708 L 728.1249996800325 826.3984373759595 L 727.7421875200234 826.1796874239226 L 728.3438499840559 825.6523878399166 L 728.5475532800192 825.7422233599355 L 729.1733299200423 825.4293299199198 L 728.9858406400308 825.1293409279315 L 730.1572904960485 824.2038425599458 L 730.5102233600337 824.1493299199501 L 730.7356221440132 823.9802859519259 L 731.1360000000568 823.9217766399379 L 731.1644467200385 823.779553279921 L 731.0313175040646 823.4923345919233 L 732.1639188480331 821.6447651839699 L 732.2039234560216 821.609761791944 L 732.5546874880674 821.5625000959262 L 732.5582233600435 821.5608934399206 L 732.7013181440416 821.3132277759723 L 732.8671877120505 821.0312499199645 L 733.8046873600688 820.2109378559398 L 734.0510330880643 820.0347310079378 L 734.6062233600533 819.9395532799535 L 735.3177098240121 819.6549570559291 L 735.6015626240405 819.5429683199618 L 736.2031247360283 819.085937663971 L 736.0859371520346 818.7460935679264 L 736.0085667840322 818.6455132159172 L 736.9762816000148 817.9587481599301 L 737.2187504640315 817.6953128959285 L 737.3671874560532 817.6640624639695 L 737.7066700800206 817.3795532799559 L 738.1659340800252 816.6501304319245 L 738.7018229760579 816.0606535679544 L 739.1718748160638 815.5468748799176 L 739.5271065600682 815.5306700799265 L 739.8125004800386 815.4179686399293 L 739.9843747840496 815.187500031956 L 739.7265623040148 814.9335941119352 L 740.0482816000585 814.5795481599635 L 741.6834887680598 811.2069335039705 L 742.0017766400124 811.0079999999725 L 743.8506700800499 810.0124467199203 L 743.9921879040194 809.7499996159459 L 744.4531251200242 809.4609377279412 L 744.8359372800332 809.1250001919689 L 745.0703124480206 809.0468751359731 L 745.6711065600393 809.0168934399262 L 745.8702233600197 808.8177766399458 L 745.835811840021 808.7489484799444 L 745.7890621440602 808.6484377599554 L 745.554688000062 808.4960942079197 L 746.0454594560433 808.0676413439214 L 746.0621916160453 808.0983152639237 L 746.0937502720626 808.1640622079722 L 746.4391065600212 808.1066700799274 L 746.4391065600212 807.8222233599517 L 746.6093752320157 807.3945313279401 L 746.2684467200306 807.0826700799516 L 745.8454497280181 806.8852674559457 L 745.6349808640662 805.903079423937 L 745.9296870400431 805.746094079921 L 745.8288220160175 805.6204543999629 L 745.480649728037 805.1765043199412 L 745.4765629440662 805.1601561599527 L 743.5314647040213 803.6212633599644 L 745.1718748160638 802.0859371519182 L 745.3589442560333 802.0210022399551 L 745.4435532800271 802.1902233599685 L 745.445312512049 802.1914060799172 L 745.984000000055 802.3324467199272 L 746.1831065600272 802.1048934399732 L 746.1389383680653 801.9282114559319 L 746.1015623680432 801.7656248319545 L 746.4561745920219 801.6426465279656 L 746.812499968044 801.8789058559341 L 747.4080256000161 801.6658728959737 L 747.7760000000126 801.5359999999637 L 747.7760000000126 801.1875348479371 L 748.1406248960411 801.0625003519235 L 748.1774510080577 801.0015948799555 L 748.2449766400387 800.8972380159539 L 748.373329920054 801.0239999999176 L 748.8593745920225 800.796874751919 L 749.0429214720498 800.4553922559717 L 749.1982233600575 800.1706700799405 L 748.9706700800452 799.9715532799601 L 748.8281251840526 799.9960934399278 L 749.2425144320587 799.3555865599192 L 749.8515630080365 799.5742187519209 L 750.109375488013 799.3164062719443 L 749.9375001600129 798.7187496959232 L 749.7372907520621 798.1732116479543 L 749.8560215040343 797.8848645119579 L 749.9843747840496 797.5820308479597 L 750.1185515520629 797.2533350399463 L 750.3359375360305 797.0703124479624 L 751.4168934400659 795.9039999999222 L 751.8750003200257 795.0234378239256 L 751.8404454400297 794.8960163839511 L 751.8151065600687 794.7946700799512 L 751.3139968000469 794.4028897279641 L 752.1328128000605 792.5624995839316 L 752.7066705920151 791.8086123519461 L 753.3511065600323 791.2391065599513 L 753.8359377920278 790.8984371199622 L 753.8359377920278 790.6992189439479 L 753.6804904960445 790.530473983963 L 753.7698816000484 790.4131481599179 L 755.5106816000189 789.3891481599421 L 755.5312496640254 789.3632808959228 L 756.7968747520354 788.7343749119318 L 757.3906247680425 788.2539059199626 L 757.7031249920256 787.5117189119337 L 757.3906247680425 787.3984378879541 L 757.063102464017 787.3663979519624 L 757.6021483520162 786.6611476479447 L 757.8453299200628 786.488893439935 L 758.0156252160668 786.0351559679257 L 758.017793024017 785.9943362559425 L 759.5042816000641 782.8355481599574 L 759.531330560043 782.5785784319742 L 759.554688000062 782.3867187199648 L 759.836446720059 780.3448934399639 L 759.7890621440602 780.3164057599497 L 760.0665149440174 778.2985594879719 L 760.5113620480406 778.0644280319684 L 760.7187496960396 777.9570309119299 L 760.9457766400301 777.5288934399723 L 760.9765621760162 777.0468751359731 L 760.7423385600559 776.5394001919194 L 761.195312128053 775.5429683199618 L 761.828124672058 774.8828129279427 L 761.8128424960305 774.3393075199565 L 762.6812958720257 772.9818623999599 L 762.8800000000629 772.8924467199249 L 763.6764467200264 772.6648934399709 L 763.847106560017 772.4088934399188 L 763.648437248019 772.1523435519193 L 763.2590704640606 772.1095137279481 L 764.8932986880536 770.2830233599525 L 765.2488591360161 770.0607979519409 L 765.5000002560555 769.9062497279374 L 766.6631065600668 769.3368934399332 L 767.0897766400594 768.9102233599406 L 767.0625003520399 768.4257812479627 L 766.8451747840154 768.1224499199307 L 766.3671879680478 765.5312496639672 L 764.5397360640345 763.1258869759622 L 764.6171873280546 763.1093749759602 L 764.8995532800327 762.7093299199478 L 764.8995532800327 762.2826700799633 L 764.6562498560525 761.9023441919708 L 765.343750144064 758.7734374399297 L 767.0070650880225 757.1062169599463 L 767.1751065600547 757.134223359928 L 767.4026700800168 756.9919999999693 L 767.3838663680363 756.7287633919623 L 767.4694799360586 756.5386373119545 L 767.9146700800629 756.2808934399509 L 767.886223360023 756.0248934399569 L 767.7427496960154 755.9101112319622 L 767.8906245120452 755.5742187519209 L 768.3984373760177 755.285155839927 L 768.2578124800348 755.1132815359742 L 768.0809850880178 755.1321692159399 L 768.4140625920263 754.3671879679314 L 768.7206942720222 753.7810882559279 L 768.76800000004 753.7777766399668 L 768.8226979840547 753.5863521279534 L 769.0767042560619 753.1014328319579 L 769.3515622400446 752.5820313599543 L 769.5644467200618 752.4408934399253 L 769.7033256960567 751.8159114239388 L 770.6658816000563 749.4531481599552 L 770.9687500800355 749.1523440639721 L 771.4702233600547 748.7999999999302 L 771.9086786560365 748.2103511039168 L 772.7138816000661 747.4051481599454 L 773.087036416051 747.1172003839165 L 775.1395532800234 745.6426700799493 L 775.1406254080357 745.640625151922 L 775.1406254080357 745.5195310079725 L 776.4002816000138 744.5379481599666 L 776.4224829440354 744.5046456319396 L 776.5859379200265 744.7031255039619 L 777.0703124480206 744.7617187839351 L 777.0737766400562 744.7608934399323 L 777.5573299200623 744.4764467199566 L 777.6195072000264 744.2650460159639 L 777.7031249920256 743.9921879039612 L 777.4521753600566 743.4981304319226 L 777.3297766400501 743.2533299199422 L 777.376285696053 743.0739415039425 L 777.8988677120651 742.2900684799533 L 778.5546874880674 741.9453122559353 L 778.8373299200321 741.631999999925 L 778.7812495360267 740.9218754559406 L 778.6815385600203 740.8457236479735 L 778.9609379840549 737.7812500479631 L 781.0781245440594 736.4687503359746 L 781.511106560065 736.4551065599662 L 782.8764467200381 735.7724467199296 L 783.1040000000503 735.1466700799647 L 783.6015626240405 734.5664061439456 L 784.8767416320625 733.237902335939 L 785.4062499840511 732.9296875519212 L 785.8915532800602 732.4444467199501 L 785.8915532800602 732.1808066559606 L 785.923481600068 732.1475481599336 L 786.8450816000113 729.4851481599617 L 787.4609377280576 726.4140625919681 L 789.1328122880659 725.5195310079725 L 789.5893299200688 725.4186700799619 L 789.7031065600459 725.2195532799233 L 790.3281254400499 724.8789063679287 L 790.5001236480311 724.8285849599633 L 790.812446720025 724.906670079974 L 791.1253299200325 724.8213299199706 L 791.5234375680448 724.5429688319564 L 792.2187499520369 724.347656191967 L 792.9197086720378 724.1957816319191 L 794.3984373760177 724.3398440959281 L 795.2812503040186 724.167968767928 L 795.546874880034 723.9882813439472 L 796.8281251840526 723.7695313919685 L 797.9843747840496 723.7695313919685 L 799.3203128320165 723.1992186879506 L 800.9374996480183 722.7460935679264 L 801.8488934400375 722.7164467199473 L 802.1902233600267 722.488893439935 L 802.048000000068 722.2328934399411 L 801.9141591040534 722.1054238719516 L 802.7737477120245 721.7081016319571 L 803.043553280062 722.0622233599424 L 803.5859374080319 722.1484369919635 L 803.7265623040148 721.8906245119288 L 803.6412651520222 721.5233873919351 L 804.0391065600561 721.4933299199329 L 804.4687503360328 721.5234375679283 L 804.3593748480198 720.976562175958 L 804.562499584048 720.8828129279427 L 804.6171873280546 720.8359372799168 L 805.3760000000475 720.4977766399388 L 805.2352471040213 720.2864639999461 L 807.2261478400324 718.5277091839234 L 807.4504734720686 718.4863866879605 L 807.7368934400147 718.6773299199413 L 808.6186700800317 718.6488934399677 L 809.8593751040171 718.0429690879537 L 810.6875002880115 717.8906245119288 L 812.2595532800187 717.6248934399337 L 813.1982233600575 717.084446719964 L 813.4843750400469 716.6015621119295 L 813.4656819200609 716.5244528639596 L 813.4257766400115 716.3448934399639 L 813.1982233600575 716.1457766399253 L 812.7924643840524 715.9870013439213 L 813.469081600022 715.2515481599257 L 813.4082867200486 714.4409466879442 L 813.4843750400469 714.3828121599508 L 813.7671065600589 713.8986700799433 L 813.7587773440173 713.782022143947 L 813.7421875200234 713.5000002559391 L 813.5694714880665 713.2708198399632 L 813.3404467200162 712.9599999999627 L 813.2747796480544 712.6608476159745 L 813.164062720025 711.1562495999387 L 813.469081600022 708.1859481599531 L 813.8767646720516 706.0456099839648 L 814.109375488013 705.8789058559341 L 814.3000330240466 705.5580170239555 L 815.4140620800317 704.2968750079744 L 815.4412113920553 703.9763875839417 L 815.7297766400152 703.4879999999539 L 816.1280000000261 702.6062233599368 L 816.156446720066 702.094223359949 L 815.9609374720603 701.609374719963 L 815.656250368047 701.4023434239207 L 815.7218816000386 700.6083481599344 L 812.649881600053 695.7955481599201 L 813.0402355200495 692.4385075199534 L 813.1171870720573 692.3359375359723 L 813.0859376640292 692.0507811839343 L 813.164062720025 691.390624767926 L 811.1171870720573 686.6835937279393 L 812.1171875840519 684.3750000639702 L 812.5724467200343 684.2311065599206 L 813.8240000000224 683.3777766399435 L 813.9232092160382 682.881733631948 L 814.289062912052 682.5859379199683 L 815.6874997760169 681.4335938559379 L 817.1804467200418 680.7039999999688 L 817.8396037120256 679.6561070079333 L 818.3842816000688 679.2067481599515 L 820.6890874880482 677.1249879039242 L 820.9635532800457 676.9493299199385 L 821.5709286400233 676.3278335999348 L 822.2592256000498 675.6694630399579 L 823.3528934400529 675.242670079926 L 823.6093747200212 674.9882808319526 L 823.6657766400604 674.5315532799577 L 823.8906245120452 674.1093754879548 L 823.9138816000195 674.0867481599562 L 823.9480135680642 674.0002805759432 L 824.1493299200665 673.621329919959 L 824.1201152000576 673.5642910719616 L 824.6911518720444 672.1176647679531 L 825.4140620800317 670.2929684479604 L 825.9453122560517 669.7539061759599 L 826.0468746240367 669.4335938559379 L 826.8999567360152 668.3394529279321 L 827.9324467200204 668.0746700799209 L 828.0214220800553 667.94120294397 L 828.1640622080304 667.7343754239264 L 828.1600000000326 667.6307834879262 L 828.1600000000326 667.5342233599513 L 827.9089909760514 667.0478888959624 L 828.0098816000391 666.9187481599511 L 830.6693120000418 665.5403888639412 L 830.8906700800289 665.6568934399402 L 831.5448934400338 665.5715532799368 L 833.9911065600463 664.4622233599657 L 834.0300779520185 664.4353771519382 L 835.976562688069 663.816406015947 L 836.2968750080327 663.921874943946 L 837.1484426240204 663.722662911925 L 837.976562688069 663.3515622399282 L 838.2031247360283 663.011719167931 L 838.3671879680478 662.2695311359712 L 838.4546816000366 662.2083481599693 L 841.9285852160538 660.0475586559623 L 842.4999997440609 659.8828124159481 L 843.6328120320686 658.8320317439502 L 843.7035745280446 658.7002552319318 L 845.6520632320317 656.7517665279447 L 845.6913602560526 656.7339038719656 L 845.9609374720603 656.6210938879522 L 848.546167808061 655.9734763519373 L 848.6250004480244 655.9726561279385 L 851.6640624640277 656.7812495359685 L 851.957860352064 656.9572956159245 L 853.445312512049 658.0624998399289 L 854.0160000000615 657.9768934399472 L 854.8984371200204 657.2382812159485 L 854.8749998080311 657.1406254079193 L 855.3515622400446 656.7812495359685 L 856.4980510720634 656.2393343999283 L 857.0312499200227 656.2148433919647 L 857.4609377280576 655.7851566079189 L 859.0370816000504 655.0403481599642 L 860.270003200043 655.007900671917 L 859.8186700800434 655.5022233599448 L 860.1031065600691 655.7866700799204 L 860.5866700800252 655.9857766399509 L 861.6093747200212 656.1289062399301 L 862.2968750080327 655.8710937599535 L 862.4374999040156 655.4726563839358 L 862.2202255360316 654.9569904639502 L 862.9282816000632 654.9379481599317 L 866.0000000000582 655.2460933119291 L 867.9196774400189 655.6813742079539 L 868.8355532800197 656.0711065599462 L 871.594670080056 656.4977766399388 L 872.3671879680478 656.3828121599508 L 873.1591065600514 655.9288934399374 L 873.4146754560643 655.3945292799617 L 874.0258191360626 654.8811694079195 L 874.5546874880674 654.5078128639725 L 874.7370690560201 654.2837186559336 L 875.4210816000123 653.7091481599491 L 876.6121113600675 653.0720849919599 L 877.1718748160638 653.1132815359742 L 878.7343749120482 653.1132815359742 L 879.5306700800429 652.7715532799484 L 880.0426700800308 652.2879999999423 L 880.2986700800247 651.5768934399239 L 879.8917068800656 651.2742635519244 L 881.3684172800276 649.5290613759425 L 882.0937502720626 648.902343679918 L 882.3132508160197 648.457946111972 L 882.5742233600467 647.9359999999288 L 882.6026700800285 647.5093299199361 L 882.5703127040179 647.3710940159508 L 882.8981166080339 646.4747540479293 L 883.0730557440547 646.0024186879746 L 883.1406254080357 645.921874943946 L 885.3797550080344 645.6419143679668 L 885.3965578240459 645.6990412799641 L 885.4140620800317 645.7734379519243 L 886.2734376960434 646.2304686079733 L 887.0703124480206 646.2578124799184 L 889.0859376640292 645.4062499839347 L 891.4218752000597 645.7187502079178 L 891.7617766400217 645.5466700799298 L 891.7617766400217 645.1425361919682 L 891.7656248320127 644.7500001279404 L 892.1031065600691 644.4373299199506 L 892.4999997440609 644.3242188799195 L 893.9843747840496 644.2968750079744 L 894.2656245760154 643.9531253759633 L 894.1249996800325 643.640625151922 L 893.6959016960463 643.0710937599652 L 893.4843750400469 641.1250001919689 L 893.7506816000678 639.3731481599389 L 893.9554816000164 635.174748159945 L 896.1956546560396 633.0319738879334 L 896.881776640017 632.8604467199184 L 898.5315532800159 632.2346700799535 L 903.9375001600129 629.5625000959262 L 904.4140625920263 629.2343746559345 L 906.4375275520142 628.2656655359315 L 906.6947399680503 628.6514851839165 L 906.4374999040156 629.2187504639733 L 906.6382233600598 629.390223359922 L 907.0625003520399 629.5625000959262 L 907.4375004160684 629.5039057919639 L 907.8044467200525 629.1057766399463 L 908.6008934400161 628.8497766399523 L 910.250670080015 628.7928934399388 L 910.5920000000624 628.6222233599401 L 910.5937500160653 628.6210938879522 L 910.5390622720588 628.3085936639691 L 910.3679580160533 628.1550387199386 L 910.2389114880352 628.0359178239596 L 910.8515624960419 628.0078120959224 L 912.7970816000598 626.3683481599437 L 913.0486497280654 625.903915007948 L 913.2656250880682 625.921874943946 L 913.2942080000648 626.1189980159397 L 912.6640629760223 626.5468753919704 L 912.7812495360267 626.7460935679264 L 913.2942233600188 627.0577766399365 L 913.2968744960381 627.0585937919677 L 913.6640624640277 626.9726566399331 L 913.9768934400636 626.6311065599439 L 913.7499996160623 626.20312473597 L 913.6640624640277 625.8632816639729 L 913.6640624640277 625.6640624639695 L 913.3555240960559 625.3373767679441 L 914.0861112320563 623.9886008319445 L 914.1484369920217 624.0429690879537 L 914.6026700800285 624.0995532799279 L 914.8302233600407 623.8151065599523 L 914.7448934400454 623.2462233599508 L 914.6355814400595 622.8454195199301 L 914.8607385600335 622.3725895679672 L 915.1562496000552 621.7617182719405 L 916.078125056054 621.0976563199656 L 916.4531251200242 621.085937663971 L 916.8782233600505 620.8284467199701 L 917.1057766400627 620.5439999999362 L 917.1755776000209 620.3035750399577 L 917.7122816000483 619.9171481599333 L 918.5781248000567 618.8710932479589 L 919.9218749440624 617.3867192319594 L 920.269621248066 616.821420031949 L 921.6034816000611 615.2067481599515 L 922.2377277440391 613.4308577279444 L 922.6524467200506 613.5751065599616 L 922.8515532800229 613.2906700799358 L 922.4610508800251 612.808276991942 L 923.1406254080357 610.906250239932 L 923.3298913280596 610.6943825919298 L 923.477329920046 610.6168934399611 L 923.7902233600616 610.3039999999455 L 923.8543298560544 610.1116733439267 L 925.001170944015 608.8374056959292 L 926.0937502720626 608.2578124799184 L 926.5493299200316 607.8293299199431 L 926.5738577920129 607.7067018239177 L 926.6093752320157 607.5468748799176 L 926.5234370560502 607.4023434239207 L 926.3548108800314 607.3333606399246 L 926.8281251840526 606.8085934079718 L 926.7037962240283 606.5115176959662 L 926.8622233600472 606.4639999999199 L 927.1751065600547 606.2364467199659 L 927.2035532800364 605.8951065599686 L 927.0328934400459 605.7244467199198 L 926.3593748480198 605.6679690239253 L 925.9062497280538 604.558594047965 L 927.5703121920233 604.5078128639725 L 928.3982233600691 604.6719999999623 L 928.8281251840526 604.7304683519178 L 929.7656248320127 604.7304683519178 L 930.1063444480533 604.4432332799188 L 930.4392611840158 604.1658030079561 L 932.9687500800355 603.535156223923 L 934.1484369920217 604.1484369919635 L 934.3984373760177 604.6718750719447 L 934.8828129280591 604.9296875519212 L 935.4808934400207 604.9848934399197 L 936.3046871040133 604.4765624319552 L 939.1328122880659 603.6484372479608 L 939.8671872000559 603.5742187519209 L 943.79687526403 604.019530751917 L 944.1015623680432 604.4179691519239 L 944.7822233600309 604.586670079967 L 945.7187502080342 604.6445311999414 L 948.2808934400673 603.8755532799405 L 949.546874880034 603.289062399941 L 952.6953123840503 602.6484377599554 L 954.1973299200181 602.4533299199538 L 955.477329920046 602.0551065599429 L 956.5297766400618 601.4862233599415 L 956.8270295040566 601.0682122239377 L 957.343750144064 600.7695308799739 L 960.0937502720626 600.2070312959258 L 960.6562498560525 600.2929684479604 L 963.0468751360313 599.5234375679283 L 965.4062499840511 599.183593471942 L 966.1484369920217 598.4414064639714 L 966.255813632044 598.0885975039564 L 966.314670080028 597.902223359968 L 966.281249792024 597.8320312319556 L 966.3515627520392 597.8007807999384 L 966.3522816000623 597.7987481599557 L 967.4786816000124 591.7571481599589 L 968.1954816000652 588.6851481599733 L 978.1282816000166 541.9907481599366 L 980.3828121600673 531.85156300792 L 997.1746816000668 452.9027481599478 L 1000.4531302400283 436.210938879929 L 1003.4218752000597 422.08203161595156 L 1004.2421872640261 418.0859371519182 L 1004.9609379840549 414.70703103992855 L 1005.3927823360427 412.61618483194616 L 1005.9025633280398 410.1692344319308 L 1006.3863214080338 407.8911764479708 L 1007.6718745600665 401.87890585593414 L 1009.0546872320119 395.4570311679272 L 1009.554688000062 393.11718707194086 L 1009.6671825920348 392.6036684799474 L 1010.9999994880636 386.75390668795444 L 1012.8437504000613 377.9453122559353 L 1015.8125004800386 364.01953075191705 L 1019.0882816000376 348.55714815994725 L 1020.3335106560262 342.7728578559472 L 1022.2656245760154 333.81250047992216 L 1023.2812503040186 328.9726566399331 L 1024.0 325.6246596809506" fill="none"/></svg>