<svg xmlns="http://www.w3.org/2000/svg" width="1024" height="1024"><rect stroke="none" x="0" y="0" width="1024" height="1024" fill="white"/><path stroke="#408040" stroke-width="3" d="M 1024.0 226.6606933333387 L 1013.9033599999966 221.75744000000122 L 1009.0598400000017 217.1084800000026 L 1007.4316799999942 213.45279999999912 L 1006.1516799999954 203.86815999999817 L 1004.8204799999949 197.3145599999989 L 1004.482560000004 190.51520000000164 L 1006.6227199999994 184.4531199999983 L 1010.5651199999993 178.25791999999637 L 1012.7155199999979 172.9331200000015 L 1012.6745599999995 169.758719999998 L 1011.6095999999961 166.4409599999999 L 1009.4591999999975 163.3177599999981 L 1005.3427200000006 159.8156799999997 L 995.2051199999987 152.07424000000174 L 989.8598400000046 146.84159999999974 L 984.4326399999991 140.5747199999969 L 979.5071999999927 135.69024000000354 L 977.0393599999952 133.48864000000322 L 973.0355200000049 131.22559999999794 L 966.4204800000007 128.88064000000304 L 962.6419199999946 127.37535999999818 L 955.1872000000003 122.83903999999893 L 942.7660800000012 115.06687999999849 L 937.1033599999937 111.58527999999933 L 930.8876799999998 108.75903999999719 L 914.7801599999948 103.18847999999707 L 898.4268799999991 100.3110400000005 L 890.296319999994 97.68959999999788 L 883.691519999993 94.07488000000012 L 879.5750399999961 92.34431999999651 L 867.8092800000013 89.16992000000027 L 847.9436799999967 84.21375999999873 L 830.4230399999942 80.4351999999999 L 797.6550399999978 73.40032000000065 L 779.2025600000052 69.44767999999749 L 770.3244799999957 68.38272000000143 L 762.0812799999985 68.55679999999847 L 738.5804800000042 69.96992000000319 L 713.1033599999937 71.51615999999922 L 708.761599999998 71.3113599999997 L 703.4060800000007 70.13375999999698 L 692.9510399999999 66.80576000000292 L 672.174079999997 60.17023999999947 L 659.5071999999927 57.180160000003525 L 649.4924800000008 55.285759999998845 L 639.8668800000014 53.17631999999867 L 630.7635199999932 53.38111999999819 L 621.9468800000031 56.42240000000311 L 613.7139199999947 60.09855999999854 L 593.9302400000015 72.39680000000226 L 558.6329600000026 92.79488000000129 L 555.6735999999946 95.8156799999997 L 553.738240000006 99.12320000000182 L 551.2396799999988 102.2054399999979 L 546.6009599999961 105.11359999999695 L 541.0508799999952 106.59840000000258 L 534.3334400000022 106.58815999999933 L 525.2608000000037 106.86463999999978 L 510.95552000000316 108.55423999999766 L 491.6940800000011 109.148159999997 L 484.05504000000656 108.82048000000214 L 480.2048000000068 108.08320000000094 L 471.36767999999574 104.76544000000285 L 462.8275200000062 99.81951999999728 L 454.17471999999543 96.4505599999975 L 443.4022399999958 94.15679999999702 L 438.3539199999941 93.82912000000215 L 433.8995200000063 94.55616000000009 L 429.69087999999465 95.6825600000011 L 424.68352000000596 95.60063999999693 L 414.37184000000707 91.91423999999824 L 407.5110399999976 89.15967999999702 L 401.7766399999964 85.83168000000296 L 398.0185599999968 81.67424000000028 L 395.130879999997 76.81023999999888 L 389.7139199999947 67.66591999999946 L 387.7887999999948 65.20831999999791 L 384.86015999999654 63.04768000000331 L 381.5526399999944 60.86656000000221 L 378.72639999999956 56.08447999999771 L 374.46656000000075 44.97407999999996 L 371.9679999999935 41.062400000002526 L 366.0185599999968 35.88096000000223 L 359.58783999999287 28.38528000000224 L 351.69280000000435 20.4288000000015 L 342.8761599999998 13.895680000001448 L 336.2201599999971 10.741759999997157 L 328.89856000000145 9.349119999998948 L 308.3571200000006 9.717759999999544 L 286.8121600000013 10.885119999999006 L 274.851840000003 8.765440000002855 L 261.53983999999764 3.1641600000002654 L 254.37184000000707 0.307200000002922 L 253.25097513513174 0.0" fill="none"/><path stroke="#408040" stroke-width="3" d="M 1024.0 1012.0140333130839 L 1023.6006400000042 1013.6575999999986 L 1020.224892510756 1024.0" fill="none"/></svg>