<svg xmlns="http://www.w3.org/2000/svg" width="1024" height="1024"><rect stroke="none" x="0" y="0" width="1024" height="1024" fill="white"/><path stroke="#000000" stroke-width="2" d="M 0.0 1022.4374999038992 L 8.99999948812183 1022.4374999038992 L 15.249999872117769 1022.2500003839377 L 26.499999744060915 1022.2500003839377 L 39.3124997120467 1022.4374999038992 L 84.06249984004535 1022.4374999038992 L 91.99218790401937 1022.294922239962 L 104.96093798405491 1022.0429690878373 L 109.87500032002572 1022.2460938239237 L 125.1328122880659 1022.2460938239237 L 125.2265625600121 1022.2441410558531 L 128.1249996800907 1022.0624998399289 L 130.56249958404806 1022.0624998399289 L 131.1796879360918 1022.0410152958357 L 133.171874816122 1022.0175779839046 L 139.37499955203384 1021.8750003199675 L 145.93750016007107 1021.8750003199675 L 149.34375014406396 1022.0214845438022 L 150.22656204807572 1022.0429690878373 L 160.15625011210795 1022.0410152958357 L 161.4921871360275 1022.0136714238906 L 165.06250035203993 1021.8750003199675 L 168.25000038411235 1021.8750003199675 L 187.25781299202936 1021.8750003199675 L 188.3203123200219 1021.837890559982 L 194.60156211204594 1021.8750003199675 L 205.3124997120467 1021.8750003199675 L 216.992187392083 1022.0175779839046 L 220.78124953602673 1022.0410152958357 L 248.11718758405186 1022.0410152958357 L 253.24218777602073 1022.656249855936 L 255.17855837546813 1024.0" fill="none"/><path stroke="#000000" stroke-width="2" d="M 257.2011421271018 1024.0 L 259.68749977607513 1023.0625003518071 L 259.7265623040148 1023.0410158079467 L 262.65624985605245 1021.0175784959574 L 263.8515630080947 1020.7421870079706 L 264.06249984004535 1020.625000447908 L 264.2656245761318 1020.648437759839 L 265.3203128320165 1020.4023439358571 L 268.4921876481385 1021.0175784959574 L 268.9921873920248 1021.19140659197 L 269.5000002560555 1021.2499998718849 L 272.28124979208224 1019.9199221758754 L 272.7968747521518 1019.3789061118732 L 273.5859374080319 1019.2968744959217 L 273.8125004800386 1019.1875000318396 L 273.9609374720603 1019.2578129919712 L 274.74218700802885 1019.1738286078908 L 276.890625024098 1019.9941406719154 L 277.4531246080878 1020.9199216638808 L 277.6249999360298 1021.0000005119364 L 277.56250009604264 1021.0898442239268 L 278.28106137609575 1022.2711736320052 L 275.7140154794615 1024.0" fill="none"/><path stroke="#000000" stroke-width="2" d="M 275.71401547957794 1024.0 L 278.28106137603754 1022.271173631947 L 277.56250009604264 1021.0898442239268 L 277.6249999360298 1021.0000005119364 L 277.4531246080296 1020.919921663939 L 276.89062502403976 1019.9941406719736 L 274.74218700802885 1019.173828607949 L 273.9609374720603 1019.2578129919712 L 273.8125004800386 1019.187500031956 L 273.5859374080319 1019.2968744959217 L 272.79687475203536 1019.3789061119314 L 272.281249792024 1019.9199221759336 L 269.5000002560555 1021.2499998719431 L 268.9921873920248 1021.19140659197 L 268.4921876480221 1021.0175784959574 L 265.3203128320165 1020.4023439359735 L 264.2656245760154 1020.6484377599554 L 264.06249984004535 1020.6250004479662 L 263.85156300803646 1020.7421870079706 L 262.65624985605245 1021.0175784959574 L 259.7265623040148 1023.0410158079467 L 259.6874997760169 1023.0625003519235 L 257.2011421270872 1024.0" fill="none"/><path stroke="#000000" stroke-width="2" d="M 255.17855837552634 1024.0 L 253.24218777602073 1022.656249855936 L 248.11718758405186 1022.0410152959521 L 220.78124953602673 1022.0410152959521 L 216.9921873920248 1022.0175779839628 L 205.3124997120467 1021.8750003199675 L 194.60156211204594 1021.8750003199675 L 188.3203123200219 1021.8378905599238 L 187.25781299202936 1021.8750003199675 L 168.25000038405415 1021.8750003199675 L 165.06250035203993 1021.8750003199675 L 161.4921871360275 1022.0136714239488 L 160.15625011204975 1022.0410152959521 L 150.2265620480175 1022.0429690879537 L 149.34375014406396 1022.0214845439186 L 145.93750016001286 1021.8750003199675 L 139.37499955203384 1021.8750003199675 L 133.1718748160638 1022.0175779839628 L 131.1796879360336 1022.0410152959521 L 130.56249958404806 1022.0624998399289 L 128.1249996800325 1022.0624998399289 L 125.2265625600121 1022.2441410559695 L 125.1328122880659 1022.2460938239237 L 109.87500032002572 1022.2460938239237 L 104.96093798405491 1022.0429690879537 L 91.99218790401937 1022.294922239962 L 84.06249984004535 1022.4374999039574 L 39.3124997120467 1022.4374999039574 L 26.499999744060915 1022.2500003839377 L 15.249999872059561 1022.2500003839377 L 8.999999488063622 1022.4374999039574 L 0.0 1022.4374999039574" fill="none"/></svg>