<svg xmlns="http://www.w3.org/2000/svg" width="1024" height="1024"><rect stroke="none" x="0" y="0" width="1024" height="1024" fill="white"/><path stroke="#000000" stroke-width="2" d="M 352.10983759629016 0.0 L 352.19531264004763 0.1718753279419616 L 352.2440867840196 0.3547791359596886 L 352.3010560000548 0.5826559999259189 L 352.7106560000102 0.9922559999395162 L 353.1171870720573 1.8125004799221642 L 353.5298560000374 3.3474559999303892 L 353.4274560000631 5.1906559999333695 L 353.7343754240428 7.5468748799175955 L 353.6796876800363 7.9218749439460225 L 353.5298560000374 8.979455999971833 L 353.7342105600401 9.796872191946022 L 353.1015628800378 9.785156607918907 L 353.15295539202634 10.385344511945732 L 353.2083200000343 11.063295999949332 L 353.5786352640134 11.636029439920094 L 353.92968704004306 12.18359398393659 L 356.78906265605474 14.609375231957529 L 357.88281241606455 15.019531263969839 L 357.7265623040148 16.148436991963536 L 357.52343756804476 19.425781759957317 L 358.03648000000976 20.448255999945104 L 357.7948241920094 21.112809471960645 L 357.6249999360298 21.574218751920853 L 358.54848000005586 22.70105599996168 L 358.7292928000097 22.52024319994962 L 358.9609379840549 22.292968447960448 L 360.39062528003706 22.394530815945473 L 361.51562547206413 22.5976565759629 L 361.9276800000225 23.826431999972556 L 362.43749990401557 28.023437311931048 L 363.9756800000323 30.380031999957282 L 364.692480000027 31.301631999958772 L 365.9212800000096 32.22323199996026 L 367.86688000004506 33.75923199992394 L 369.7109370880644 34.37500006397022 L 372.783104000031 35.09043199993903 L 376.4687503360328 35.29687449592166 L 376.98150400002487 37.8552319999435 L 375.445312512049 38.570312703959644 L 372.2711040000431 40.82483199995477 L 370.6328125440632 41.33593702391954 L 369.09670400002506 41.13203199993586 L 367.3593753600144 40.51885670394404 L 367.3593753600144 39.800780799938366 L 368.07031296001514 39.597656063968316 L 369.0937497600098 40.10937548795482 L 370.3281254400499 40.21093785593985 L 371.4531246080296 39.800780799938366 L 372.8855040000635 38.67443199997069 L 372.783104000031 37.957631999917794 L 371.8615040000295 37.8552319999435 L 367.86688000004506 38.264831999957096 L 366.2265620480175 38.777343999943696 L 366.2265620480175 39.800780799938366 L 366.74048000003677 40.21043199993437 L 366.5367040000274 42.360831999918446 L 367.5607040000614 46.35443199996371 L 367.8671872000559 47.2773437439464 L 368.48230400006287 48.91443199996138 L 369.0497720320127 50.049369087966625 L 369.9531253760215 51.863281663972884 L 370.53125017601997 53.011719167931005 L 375.64843724801904 58.64062463992741 L 374.5235988480272 58.94917427195469 L 373.9095040000393 58.02803199994378 L 373.9072706560255 58.02886963193305 L 373.9062497280538 58.02734387194505 L 373.0903040000121 58.33523199992487 L 372.37430988805136 58.232946687960066 L 370.93990400002804 55.26323199993931 L 370.9374996480183 55.261718527937774 L 368.58470400003716 54.85363199992571 L 367.56250009604264 53.93359359994065 L 367.3593753600144 53.7265623039566 L 366.3319040000206 53.21523199992953 L 366.3331747840275 53.21734963194467 L 366.3281254400499 53.21484390395926 L 366.5307586560375 53.54665574396495 L 366.6391040000599 53.72723199991742 L 367.0468751360313 54.035155967925675 L 368.48230400006287 55.16083199996501 L 368.36265267204726 55.63943935994757 L 368.1718753280584 56.39062527992064 L 368.6875002880115 57.312499711930286 L 369.8125004800386 58.2343751679291 L 370.11718758405186 59.66796902392525 L 370.73510400002124 60.485631999967154 L 371.34950400004163 61.202431999961846 L 371.8593751040171 61.61328127991874 L 373.2968744960381 61.1015628799214 L 373.7042647040216 59.66796902392525 L 374.52343705605017 59.66796902392525 L 374.7265628160094 61.1015628799214 L 376.4687503360328 64.6835937279393 L 377.28906240005745 66.52734361594776 L 378.3125002240413 67.96093747194391 L 377.9041280000238 68.47283199994126 L 377.39062476804247 68.78124953596853 L 377.8017280000495 69.29203199996846 L 377.69955328002106 70.67139686393784 L 377.5937495040125 72.05859327997314 L 377.7021798400092 72.53046681592241 L 377.8017280000495 72.97843199997442 L 379.23437465605093 75.23046911996789 L 380.66892800002825 83.3208319999394 L 388.65532825601986 87.82760447997134 L 384.3515627520392 90.5898434559349 L 383.92127385601634 91.52134758397005 L 383.6385280000395 92.1272319999407 L 383.6764989440562 92.29674700793112 L 383.74999961606227 92.64062463992741 L 384.0519137280644 93.97033164795721 L 384.58470400003716 96.3420159999514 L 384.96875008003553 98.06640639994293 L 386.1995520000346 100.31923199992161 L 389.37446092802566 100.83194470393937 L 390.3984373760177 102.26562457595719 L 390.80468787206337 102.36718796793139 L 391.03086694405647 102.69209702394437 L 393.06035200005863 105.64403199992375 L 395.11294566403376 108.72305971191963 L 395.51562547206413 109.33203148795292 L 396.9531248640269 109.12500019196887 L 398.9995540480595 106.25843302393332 L 401.3515622400446 106.15625011193333 L 402.38281216000905 106.15625011193333 L 402.68713062402094 106.05481062392937 L 402.8907520000357 106.25843199994415 L 403.4062499840511 106.15625011193333 L 403.5078123520361 106.0546877439483 L 404.11718758405186 106.15625011193333 L 406.98437529604416 106.15625011193333 L 407.03792537603294 107.65949132794049 L 407.0901647360297 109.22665983997285 L 399.51155200001085 109.43283199996222 L 399.51155200001085 109.96717670396902 L 399.5078123520361 110.45703167992178 L 410.87897600006545 110.3534079999663 L 410.981284864014 111.17187481594738 L 408.62500044802437 111.17187481594738 L 408.52377600001637 111.37740799994208 L 399.8203125760192 111.68359423993388 L 399.81977600004757 113.32300799991935 L 397.9765760000446 113.32300799991935 L 397.6718745600665 111.99218790396117 L 395.0078126080334 112.09375027194619 L 391.3203128320165 112.09375027194619 L 391.21715200005565 112.19763199996669 L 388.7595520000323 112.19763199996669 L 388.7578122240375 112.19921919994522 L 388.65624985605245 112.5039063039585 L 389.3046876160661 112.49609420791967 L 395.0059520000359 112.40243199997349 L 396.5390776320128 112.40243199997349 L 396.58296934404643 112.64853299193783 L 396.6443520000321 113.01683199993568 L 396.6443520000321 113.28322150395252 L 396.6406246400438 113.52734412794234 L 395.1083520000102 114.24563199991826 L 395.2187504640315 114.89062502392335 L 395.6122654720093 117.12180223996984 L 395.6874997760169 117.57031219196506 L 395.77853952004807 118.06850355194183 L 395.8261760000605 118.3406079999404 L 392.75417600001674 120.49100799992448 L 392.75417600001674 121.41260799992597 L 392.7578122240375 121.41206630395027 L 392.7578122240375 121.41406207997352 L 393.36732262402074 121.32131635193946 L 393.40463411202654 121.59775641595479 L 393.4627184640267 122.06255923194112 L 393.46874982403824 122.12890623993007 L 392.75417600001674 122.23180799995316 L 392.75417600001674 122.94860799994785 L 392.9548748800298 127.79307007993339 L 392.9609379840549 127.96484403195791 L 392.95897600002354 128.5806079999311 L 392.9999994880636 129.76171827194048 L 393.06137600005604 131.44780799996806 L 392.95897600002354 134.21260799997253 L 393.88057600002503 134.92940799996722 L 394.39062528003706 134.92968755192123 L 395.2421877760207 134.9492183039547 L 395.4155520000495 134.8321279999218 L 395.78726400004234 134.77375999995274 L 396.19531264004763 134.8320317439502 L 396.4140625920263 135.02343782392563 L 396.4733440000564 135.31340799992904 L 396.3166720000445 135.53151999996044 L 396.1249996800325 135.57421875192085 L 396.11483648006106 135.5843819519505 L 396.1097420800361 135.58571622392628 L 396.0227840000298 135.66361599991797 L 396.0000000000582 136.28906291193562 L 396.15625011204975 136.3203123199637 L 396.2343751680455 136.43749990395736 L 396.812499968044 136.42968780791853 L 401.7656248320127 136.378906623926 L 401.8995200000354 136.129535999964 L 402.31116800004384 135.89606399997137 L 402.86003200005507 135.86739199992735 L 403.28989491204266 135.95418111997424 L 403.50617600005353 136.2319359999383 L 403.52343756804476 136.53906227194238 L 403.48437504004687 136.72656281595118 L 403.43859200004954 136.8249968639575 L 403.403776000021 136.895487999951 L 403.403776000021 137.5918079999392 L 403.30170265602646 138.40839270391734 L 402.78937600005884 138.10380799992708 L 402.07031296001514 139.53906278393697 L 402.31219609605614 139.96872294397326 L 403.0937497600098 141.37890611193143 L 403.0953461760655 141.3783951359219 L 403.09657600003993 141.38060799991945 L 403.403776000021 141.27820799994515 L 403.50617600005353 143.01900799997384 L 402.58457600005204 143.42860799992923 L 402.8012113920413 146.32572415994946 L 403.0937497600098 150.28906291193562 L 401.026889728033 150.37576908792835 L 400.6406246400438 150.39062527992064 L 399.61718784004916 149.98046924796654 L 399.92217600002186 147.0126079999609 L 400.078125056054 146.9101557759568 L 399.7187502080342 146.19531263993122 L 399.3077760000597 145.67840153595898 L 399.3077760000597 144.81100799993146 L 399.1712440320407 144.48674201592803 L 398.8984371200204 144.1445314559387 L 398.8984371200204 143.53124966396717 L 398.95403008005815 142.9724620799534 L 399.0005760000204 142.2510079999338 L 399.0005760000204 141.99500799993984 L 399.51562547206413 140.97265663993312 L 399.19351398403523 139.54750054393662 L 398.84697600005893 138.0014079999528 L 398.8440688640112 138.0014079999528 L 398.84375040006125 137.9999999999418 L 398.69531238405034 137.9999999999418 L 398.79687475203536 137.48828159994446 L 396.75000012805685 137.48828159994446 L 396.7502233600244 137.4894079999649 L 396.747776000062 137.4894079999649 L 396.84989440004574 137.9999999999418 L 396.6484377600136 137.9999999999418 L 396.6484858880285 138.0014079999528 L 396.6453760000295 138.0014079999528 L 396.7381606400595 140.63030374393566 L 396.79687475203536 142.35156275192276 L 396.8501760000363 142.60940799996024 L 396.9525760000106 143.42860799992923 L 397.05468723201193 144.86282649595523 L 396.6363504640176 145.7592627199483 L 396.33593753603054 146.39843737595947 L 396.33593753603054 147.83203123195563 L 396.6272880640463 148.0528936959454 L 397.20857600006275 148.49740799993742 L 397.46161356801167 148.4468008959666 L 398.33593753603054 150.37109350395622 L 398.4271759360563 150.56269516795874 L 398.4896000000299 150.69900799996685 L 398.4896000000299 152.13260799995624 L 397.8750003200257 153.3632808959228 L 399.70312499202555 156.84375039994484 L 400.02343731204746 157.4570311679272 L 399.99703961604973 157.74301183992065 L 399.92187494406244 158.48046899196925 L 403.20000000001164 165.3422079999582 L 403.8434283520328 166.7426119679585 L 404.9374996480183 169.1328122879495 L 404.6328125440632 170.46093721594661 L 405.6796876800363 170.88281292794272 L 405.8447032320546 170.94646067195572 L 406.1697617920581 171.07725619192934 L 406.5781248000567 172.71484415995656 L 406.67033600003924 172.89625599991996 L 406.9888000000501 173.5342079999391 L 407.9104000000516 174.3534079999663 L 409.0378240000573 177.32300799991935 L 411.0858240000671 178.55180799996015 L 411.0859376640292 179.7812500479631 L 412.3125002240413 180.80468787194695 L 413.05872588802595 181.75317401596112 L 415.20806707203155 184.4929198079626 L 415.70312499202555 185.12890675192466 L 416.7212769280304 186.42118143994594 L 417.5370240000193 187.46060799993575 L 419.4826240000548 190.8398079999606 L 423.27142400003504 192.9902079999447 L 423.27244800003245 194.32140799995977 L 429.10937497601844 200.36328140791738 L 430.292558848043 200.7844863999635 L 430.5390622720588 200.87499980797293 L 430.3303383040475 201.33419315196807 L 429.9284480000497 202.20518399996217 L 429.9284480000497 205.17478399997344 L 430.6452480000444 206.40358399995603 L 432.0090552320471 207.25596364797093 L 433.1015628800378 207.94140671996865 L 434.9453127680463 207.94140671996865 L 435.3556480000261 209.1683839999605 L 435.01601177605335 209.3721661439631 L 434.3281254400499 209.7812500479631 L 433.92027545603923 209.82018150395015 L 433.20524800004205 209.8851839999552 L 431.56684800004587 210.80678399995668 L 434.2265620480175 216.43749990395736 L 433.61484800005564 216.745983999921 L 432.89804800006095 216.8483839999535 L 433.57815091201337 216.94554214394884 L 433.8203125760192 219.1015628799214 L 441.4993121280568 223.81207859196002 L 439.24999987205956 224.62890598393278 L 439.2526592000504 224.62904319993686 L 439.2478720000363 224.63078399992082 L 441.2968744960381 224.7343749119318 L 443.85587200004375 224.63078399992082 L 447.6328120320104 224.63281254394678 L 448.0710328320274 226.32026726397453 L 448.75366400001803 228.96639999991748 L 447.7470720000565 229.54598399996758 L 445.18707200005883 231.08198399993125 L 444.77747200004524 231.28678399993805 L 447.8494720000308 235.9971839999198 L 451.2263055360527 236.21147852792637 L 450.20312473602826 239.07031244796235 L 449.898437632015 239.5820308479597 L 451.3320960000274 240.60518399992725 L 452.3445145600126 241.73671116796322 L 453.07031244802056 242.550780927937 L 453.88198297604686 243.02295551996212 L 454.406144000066 243.46623999992153 L 454.8249600000563 243.7785599999479 L 455.1406254080357 243.98828134394716 L 455.83593779202783 243.75390617595986 L 456.63901286403416 244.61495807993924 L 457.3515622400446 245.38281267194543 L 459.0796800000244 246.39180799992755 L 460.1384960000287 246.85158399993088 L 463.2109373440617 247.26171852793777 L 464.2265620480175 247.05859379196772 L 467.8203125760192 245.7265623039566 L 468.5352960000164 246.2371839999687 L 470.6865756160114 248.2842757119215 L 469.14843750401633 249.5117189119337 L 468.10156236804323 250.10937548795482 L 466.9992960000527 250.74175999994623 L 468.1249996800325 253.81250047992216 L 469.52343756804476 254.13281279994408 L 473.9609374720603 255.14453094394412 L 480.5156556800357 257.80893286393257 L 481.1315118080238 264.6680637439713 L 474.1718753280584 265.1796879359172 L 471.50592000002507 265.18015999993077 L 471.60937472002115 265.5898439679295 L 474.2734376960434 265.48828159994446 L 481.43750041601015 265.5898439679295 L 481.84832000004826 268.55935999995563 L 482.1817999360501 270.51259801595006 L 482.56249958404806 272.75781222392106 L 482.1328128000605 273.48437503993046 L 482.1182330880547 273.5135334399529 L 481.99436390405754 273.739047935931 L 481.74218752002344 274.1914060799172 L 486.35801600001287 281.50783999991836 L 486.42187468806515 281.5898439679295 L 486.8824197120266 282.1487779839663 L 487.27961600001436 282.63423999992665 L 487.26562508801 283.5117189119337 L 487.26562508801 283.6914063359727 L 487.25781299202936 284.2226565119345 L 486.6928640000406 284.6924799999688 L 486.5468753920286 284.9687500799191 L 486.406144000066 285.2454399999697 L 486.35699200001545 286.2858239999623 L 486.40897126402706 286.6431825919426 L 486.4843745280523 287.187500031956 L 486.87499980803113 287.8750003199675 L 486.921875456057 287.9648440319579 L 487.0365265920409 288.1431910399697 L 487.2017920000362 288.40550399996573 L 487.18746521603316 289.5117373439716 L 483.09145600005286 291.662847999949 L 485.13945600006264 294.6324479999603 L 483.70312499202555 296.16796876792796 L 484.52505600004224 297.19244799995795 L 485.33593702403596 297.61328127991874 L 486.2735994880204 298.0946380799287 L 487.3789440000546 298.6649599999655 L 488.0937502720626 298.8710932479589 L 487.5312496640254 299.4062499839347 L 486.4062504960457 301.24999987194315 L 486.5078128640307 304.93359411193524 L 486.5078128640307 312.8203120639664 L 486.60937523201574 315.78906214394374 L 486.60937523201574 345.38281267194543 L 486.71093760005897 347.83984332793625 L 486.71093760005897 352.0390625279397 L 486.60937523201574 354.80468787194695 L 486.71093760005897 357.3632808959228 L 486.71093760005897 363.60937471996294 L 486.812499968044 369.65234380797483 L 486.812499968044 373.33984358393354 L 486.60937523201574 378.4570316799218 L 486.812499968044 383.47656294394983 L 486.812499968044 388.08203161595156 L 486.71093760005897 393.0000005119364 L 486.812499968044 397.0937497599516 L 486.71093760005897 401.19140659197 L 486.71093760005897 413.6835942399339 L 486.60937523201574 416.550780927937 L 486.60937523201574 423.4101565439487 L 486.71093760005897 428.01953075191705 L 486.812499968044 432.2187499519205 L 486.71093760005897 436.0078120959224 L 486.71093760005897 439.38671923195943 L 486.812499968044 443.99218790396117 L 486.71093760005897 448.3984373759595 L 486.4062504960457 452.5937500159489 L 486.5078128640307 456.5898434559349 L 486.5078128640307 474.9179688959266 L 486.4062504960457 482.5976565759629 L 486.5078128640307 488.1289062399301 L 486.5078128640307 498.2656245759572 L 486.4062504960457 501.2343746559345 L 486.3046871040133 504.4101560319541 L 486.19531264004763 509.01953126396984 L 486.3046871040133 512.3984373759595 L 486.3046871040133 518.3359375359723 L 486.0937502720626 523.4570311679272 L 486.0937502720626 526.835937279975 L 485.9921879040194 531.9570309119299 L 485.8906245120452 537.3828126719454 L 485.6874997760169 541.9921879039612 L 485.78906214406015 551.6171878399327 L 485.7890682880534 562.1640622079722 L 485.6874997760169 569.8437498879503 L 485.6874997760169 600.5624995839316 L 485.8906245120452 607.5273441279423 L 486.0937502720626 615.6171878399327 L 486.0937502720626 630.1562501119333 L 485.9921879040194 634.0468746239203 L 485.9921879040194 637.7343754239264 L 485.78906214406015 640.1914060799172 L 485.48437504004687 648.5898434559349 L 484.96875008003553 659.6484372479608 L 484.8671877120505 667.2265625599539 L 484.8671877120505 671.0156247039558 L 484.7656253440655 674.1874995199614 L 484.66406297602225 689.5507814399316 L 484.56249958404806 703.1679682559334 L 484.56249958404806 718.1171875839354 L 484.56249958404806 722.8281251839362 L 484.66406297602225 728.7695308799739 L 484.66406297602225 734.2968750079744 L 484.56249958404806 741.9765626879525 L 484.7656253440655 756.5195315199671 L 484.66406297602225 764.5078128639725 L 484.66406297602225 767.9882813439472 L 484.7656253440655 773.2109373439453 L 484.7656253440655 787.9570309119299 L 484.8671877120505 809.2539064319571 L 484.8671877120505 824.8203120639664 L 484.7656253440655 830.1445314559387 L 484.7656253440655 835.6757811199641 L 484.66406297602225 842.2265620479593 L 484.7656253440655 846.0156252159504 L 484.7656253440655 850.1132810239214 L 485.1718748160638 853.6953128959285 L 484.7656253440655 856.9726566399331 L 484.66406297602225 860.0468746239203 L 484.66406297602225 881.0351564799203 L 484.7656253440655 890.1523435519193 L 484.66406297602225 895.9882813439472 L 484.66406297602225 899.5703121919651 L 484.7656253440655 905.2031252479646 L 484.7656253440655 908.9921873919666 L 484.66406297602225 914.5234370559338 L 484.8671877120505 923.3281249279389 L 484.8671877120505 927.2187504639733 L 484.96875008003553 931.7265623039566 L 484.96875008003553 934.796874751919 L 484.8671877120505 938.277344255941 L 484.96875008003553 960.7031255039619 L 484.96875008003553 983.3359370239195 L 484.8671877120505 993.9843747839332 L 484.96875008003553 998.5937500159489 L 484.96875008003553 1005.8632816639729 L 485.07031244802056 1009.8554685439449 L 484.56249958404806 1013.4414059519186 L 485.07031244802056 1017.1250001919689 L 485.07031244802056 1023.9882813439472 L 485.07040542471805 1024.0" fill="none"/><path stroke="#000000" stroke-width="2" d="M 429.7236480000429 219.1011839999701 L 429.3124997120467 219.20312524796464 L 428.2900480000535 219.1011839999701 L 428.2408960000612 219.39507199992659 L 428.32691200001864 219.68588799994905 L 428.43545600003563 220.10470399993937 L 428.56249958404806 220.378906623926 L 428.6064312320668 220.52046438393882 L 428.71705600002315 220.9116159999394 L 428.93414400005713 221.04063999996288 L 428.9126400000532 221.34783999994397 L 428.89062502403976 221.5078123519197 L 429.02343782404205 221.55859353597043 L 429.14966016006656 221.509201919951 L 429.23437465605093 221.6054691839381 L 429.28100556804566 221.79004825593438 L 429.32428800006164 221.97657599992817 L 429.3898240000126 222.33190399996238 L 429.3671874560532 222.67187507194467 L 429.211648000055 223.09478399995714 L 429.47656294406625 223.02734335995046 L 429.7128202240565 222.92955340794288 L 429.92968704004306 222.9140623359708 L 430.2571520000347 222.86438399995677 L 430.58176000003004 222.7025919999578 L 430.62335385603365 222.64093593595317 L 430.6718750720611 222.57421823992627 L 430.9288960000267 222.4773119999445 L 431.1674880000646 222.4773119999445 L 431.2760320000234 222.36364799994044 L 431.42968729604036 222.21874995192047 L 431.5390627840534 222.12109414394945 L 431.6661760000279 221.8967039999552 L 431.60064000001876 221.57311999995727 L 431.42968729604036 221.52343756792834 L 431.31904000003124 221.6703999999445 L 431.0390620160615 221.6054691839381 L 430.9531248640269 221.28515583992703 L 430.71093760005897 220.9101557759568 L 430.4531251200242 220.52343705593375 L 430.1271040000138 220.2501119999215 L 430.10457600001246 219.94393599993782 L 429.97497036802815 219.769490431936 L 429.8906245120452 219.65234380797483 L 429.7584640000132 219.47596799995517 L 429.7265623040148 219.1015628799214 L 429.7237473280402 219.10225305595668 L 429.7236480000429 219.1011839999701" fill="none"/><path stroke="#000000" stroke-width="2" d="M 485.07040542471805 1024.0 L 485.07031244802056 1023.9882813439472 L 485.07031244802056 1017.1250001919689 L 484.56249958404806 1013.4414059519186 L 485.07031244802056 1009.8554685439449 L 484.96875008003553 1005.8632816639729 L 484.96875008003553 998.5937500159489 L 484.8671877120505 993.9843747839332 L 484.96875008003553 983.3359370239195 L 484.96875008003553 960.7031255039619 L 484.8671877120505 938.277344255941 L 484.96875008003553 934.796874751919 L 484.96875008003553 931.7265623039566 L 484.8671877120505 927.2187504639733 L 484.8671877120505 923.3281249279389 L 484.66406297602225 914.5234370559338 L 484.7656253440655 908.9921873919666 L 484.7656253440655 905.2031252479646 L 484.66406297602225 899.5703121919651 L 484.66406297602225 895.9882813439472 L 484.7656253440655 890.1523435519193 L 484.66406297602225 881.0351564799203 L 484.66406297602225 860.0468746239203 L 484.7656253440655 856.9726566399331 L 485.1718748160638 853.6953128959285 L 484.7656253440655 850.1132810239214 L 484.7656253440655 846.0156252159504 L 484.66406297602225 842.2265620479593 L 484.7656253440655 835.6757811199641 L 484.7656253440655 830.1445314559387 L 484.8671877120505 824.8203120639664 L 484.8671877120505 809.2539064319571 L 484.7656253440655 787.9570309119299 L 484.7656253440655 773.2109373439453 L 484.66406297602225 767.9882813439472 L 484.66406297602225 764.5078128639725 L 484.7656253440655 756.5195315199671 L 484.56249958404806 741.9765626879525 L 484.66406297602225 734.2968750079744 L 484.66406297602225 728.7695308799739 L 484.56249958404806 722.8281251839362 L 484.56249958404806 718.1171875839354 L 484.56249958404806 703.1679682559334 L 484.66406297602225 689.5507814399316 L 484.7656253440655 674.1874995199614 L 484.8671877120505 671.0156247039558 L 484.8671877120505 667.2265625599539 L 484.96875008003553 659.6484372479608 L 485.48437504004687 648.5898434559349 L 485.78906214406015 640.1914060799172 L 485.9921879040194 637.7343754239264 L 485.9921879040194 634.0468746239203 L 486.0937502720626 630.1562501119333 L 486.0937502720626 615.6171878399327 L 485.8906245120452 607.5273441279423 L 485.6874997760169 600.5624995839316 L 485.6874997760169 569.8437498879503 L 485.7890682880534 562.1640622079722 L 485.78906214406015 551.6171878399327 L 485.6874997760169 541.9921879039612 L 485.8906245120452 537.3828126719454 L 485.9921879040194 531.9570309119299 L 486.0937502720626 526.835937279975 L 486.0937502720626 523.4570311679272 L 486.3046871040133 518.3359375359723 L 486.3046871040133 512.3984373759595 L 486.19531264004763 509.01953126396984 L 486.3046871040133 504.4101560319541 L 486.4062504960457 501.2343746559345 L 486.5078128640307 498.2656245759572 L 486.5078128640307 488.1289062399301 L 486.4062504960457 482.5976565759629 L 486.5078128640307 474.9179688959266 L 486.5078128640307 456.5898434559349 L 486.4062504960457 452.5937500159489 L 486.71093760005897 448.3984373759595 L 486.812499968044 443.99218790396117 L 486.71093760005897 439.38671923195943 L 486.71093760005897 436.0078120959224 L 486.812499968044 432.2187499519205 L 486.71093760005897 428.01953075191705 L 486.60937523201574 423.4101565439487 L 486.60937523201574 416.550780927937 L 486.71093760005897 413.6835942399339 L 486.71093760005897 401.19140659197 L 486.812499968044 397.0937497599516 L 486.71093760005897 393.0000005119364 L 486.812499968044 388.08203161595156 L 486.812499968044 383.47656294394983 L 486.60937523201574 378.4570316799218 L 486.812499968044 373.33984358393354 L 486.812499968044 369.65234380797483 L 486.71093760005897 363.60937471996294 L 486.71093760005897 357.3632808959228 L 486.60937523201574 354.80468787194695 L 486.71093760005897 352.0390625279397 L 486.71093760005897 347.83984332793625 L 486.60937523201574 345.38281267194543 L 486.60937523201574 315.78906214394374 L 486.5078128640307 312.8203120639664 L 486.5078128640307 304.93359411193524 L 486.4062504960457 301.24999987194315 L 487.5312496640254 299.4062499839347 L 488.0937502720626 298.8710932479589 L 490.9612328960211 297.02766079996945 L 496.39062528003706 302.8632811519201 L 495.05894400004763 303.78495999996085 L 500.6919680000283 310.74815999995917 L 502.84375040006125 313.20703078393126 L 506.5287680000183 315.8681599999545 L 509.3959680000553 317.5065599999507 L 510.92968755203765 318.4296878079185 L 521.3749995520338 323.34375014394755 L 527.2109373440617 324.7773439999437 L 526.808827904053 325.8928127999534 L 526.3953920000349 327.0297599999467 L 531.3105920000235 329.07775999995647 L 536.0216043520486 332.2526699519367 L 536.6328125440632 332.76562534394907 L 540.9374996480183 334.71093759994255 L 541.2803440640564 334.81300582393305 L 541.9601920000277 335.0169599999208 L 549.7421875200234 332.25390591996256 L 550.0859371520346 331.01953126396984 L 550.445031424053 330.83998412796063 L 554.3505920000607 332.6617599999299 L 558.9565675520571 334.1977599999518 L 557.2188160000369 334.1977599999518 L 557.2256256000255 334.1992191999452 L 557.2187504640315 334.1992191999452 L 560.0859371520346 334.8124999679276 L 563.6700160000473 334.6073599999654 L 569.9140628480236 339.93359359994065 L 570.3125002240413 340.3242188799195 L 576.8828129280591 334.9140623359708 L 579.2348160000402 333.0713599999435 L 579.7499996160623 332.558594047965 L 585.9062497280538 327.61718783993274 L 585.9932160000317 327.5417599999346 L 584.6640629760223 326.7226562559372 L 578.8281251840526 325.4921871359693 L 572.1857689600438 328.5581199359731 L 578.0078120960388 325.085937663971 L 579.1324160000659 324.8793599999626 L 585.2734371840488 326.1093754879548 L 586.6093752320157 327.03124991996447 L 589.3724160000565 328.97535999992397 L 594.8984371200204 332.66015641595004 L 598.79321600002 335.4265599999344 L 596.8506152960472 336.96019148797495 L 596.336966656032 336.55404031992657 L 597.1562496000552 336.0390625279397 L 596.1308160000481 334.7097599999397 L 595.0044160000398 336.0409599999548 L 595.2092160000466 337.679359999951 L 593.0588160000625 340.03455999994185 L 589.7820160000119 342.2873599999584 L 585.8906245120452 344.5390622719424 L 584.4572160000098 344.3353599999682 L 582.6528972800588 345.9972321279347 L 580.562499584048 347.917968383932 L 579.6406251520384 348.7382814719458 L 579.6991631360142 349.2860344319488 L 579.7467146240524 349.7615472639445 L 577.8012160000508 349.66015999997035 L 579.2338688000455 351.91326515196124 L 576.0604160000221 352.9369599999627 L 575.9580160000478 353.5513599999249 L 574.5234370560502 353.9609374719439 L 575.3436160000274 354.9849599999725 L 576.774791168049 354.3715993599617 L 578.4140625920263 354.9843773439643 L 579.0300160000334 357.85215999995125 L 579.9517685760511 357.6487362559419 L 580.1562501120497 359.4921871359693 L 583.8437498880667 362.4609372159466 L 590.3984373760177 365.7382809599512 L 600.227840000065 365.53215999994427 L 609.7499996160623 368.0937502719462 L 614.8671877120505 370.0390625279397 L 619.9921879040194 371.4726563839358 L 629.9248640000587 374.2361599999713 L 640.1648640000494 377.10233599995263 L 649.7890621440602 379.3554687999422 L 659.9280640000361 381.3007359999465 L 688.6328125440632 384.05859327997314 L 688.7031255040201 384.06640639994293 L 690.6484377600136 384.47656243195524 L 690.5466880000313 393.69113599992124 L 690.444288000057 400.1423359999317 L 691.5706880000653 400.5519359999453 L 692.7994880000479 400.1423359999317 L 692.7994880000479 398.9135359999491 L 691.8778880000464 397.9919359999476 L 691.3671874560532 393.9999999999418 L 691.2187504640315 392.1953126399312 L 691.3671874560532 384.47656243195524 L 692.0824975360301 384.47656243195524 L 691.9698472960154 385.32144127995707 L 691.8750003200257 386.0117186559364 L 697.8046873600106 386.07031295995694 L 709.0821120000328 386.215935999935 L 718.400512000022 386.31833599996753 L 729.4598952960223 386.8319836159353 L 729.7656248320127 389.5937495039543 L 729.766912000021 389.5951359999599 L 738.8828129280591 389.39062476792606 L 742.1682810880593 389.30242559994804 L 746.562499584048 389.187500031956 L 749.1256320000393 389.0759679999319 L 756.1874995200196 388.7773439999437 L 762.6786723840632 388.1102233599522 L 774.5854638080345 386.8893624319462 L 774.6640629760223 386.8828129279427 L 776.1551360000158 386.7279359999229 L 786.0879360000254 385.80633599992143 L 796.020736000035 384.78233599994564 L 796.0624998400453 384.7812495359685 L 798.0468746240367 384.66015641595004 L 798.9374996480183 384.6445311999414 L 800.4531251200242 384.3984373759595 L 800.7760957440478 384.343740415934 L 803.023437824042 383.97265612793854 L 807.0891520000296 383.3651199999731 L 809.6328120320104 383.0546872319537 L 810.0703129600151 382.84765593596967 L 810.2512640000205 382.758911999932 L 813.5116800000542 382.26739199995063 L 814.0859371520346 382.1054689279408 L 816.0348160000285 381.8905599999707 L 816.5156249600113 381.7343754239264 L 816.9359360000235 381.5956479999586 L 817.9531253760215 381.62890649592737 L 818.6562498560525 381.43359385593794 L 820.6818426880636 381.1650375679601 L 821.8828124160646 381.007812607917 L 821.9218749440624 380.9921873919666 L 822.4062504960457 380.7773439999437 L 823.1328122880659 380.7929692159523 L 826.6328125440632 380.0898437119322 L 828.0000000000582 379.7421875199652 L 828.4374999040156 379.62890649592737 L 831.8453760000411 379.23532799992245 L 833.6328120320104 378.8203120639664 L 834.5156249600113 378.61328076792415 L 836.2854400000651 378.1867519999505 L 837.8419200000353 377.87545599992154 L 838.9560320000164 377.6133119999431 L 840.119296000048 377.3511679999647 L 840.8046878720634 377.07421900791815 L 840.8479518720414 377.0706135039218 L 841.1351040000445 377.05625599995255 L 841.4627840000321 376.89241599995876 L 841.5426560000633 376.89241599995876 L 844.0023040000233 376.10598399996525 L 844.562499584048 375.97656268795254 L 844.5259038720396 375.3645977599663 L 844.4514508800348 374.0064051199588 L 844.4297840640647 373.58390476793284 L 845.1327088640537 373.5992299519712 L 845.0781245440594 374.43359334394336 L 859.5234375680448 371.44140595191857 L 859.9131801600452 371.35956070397515 L 859.8261760000605 375.9718399999547 L 861.4124574720627 375.97441331192385 L 861.6874997760169 375.97656268795254 L 863.0468751360313 375.97656268795254 L 863.0651351040578 371.7183395839529 L 863.0703124480206 371.20312524796464 L 863.0703124480206 370.48046899196925 L 863.0781245440594 369.5507814399316 L 863.1200327680563 369.5112007679418 L 863.4062499840511 369.2617185279378 L 863.5636029440211 363.9108259839704 L 864.3771525120246 363.89628620794974 L 867.5937495040125 363.8632816639729 L 871.4751528960187 363.820312575961 L 871.23048243206 365.26990847993875 L 870.9921873920248 365.29296895995503 L 870.5156249600113 365.34375014394755 L 870.4837826560251 365.48021759995027 L 870.396928000031 365.81171199993696 L 871.0390620160615 365.8359377919696 L 871.7421875200234 365.8593751039589 L 871.7097553920466 366.84315647993935 L 871.5694080000394 370.720767999941 L 871.5703121920233 370.7226562559372 L 872.6763520000386 370.7791359999683 L 872.6171873280546 371.0390620159451 L 872.5859379200265 371.187500031956 L 872.6640629760223 371.30859417596366 L 872.9128960000235 371.2860159999691 L 873.5498240000452 371.2511999999406 L 873.9609374720603 371.16406271996675 L 874.1249996800325 371.03515647992026 L 874.1711994880461 370.94853119994514 L 874.2187499520369 370.8671877119341 L 874.2823383040377 370.7496151039377 L 874.4724480000441 370.68185599992285 L 874.344448000018 360.5411839999724 L 874.6871234560385 358.30322995194 L 879.8720000000321 359.2775679999613 L 881.9843747840496 359.4101565439487 L 882.3359375360305 359.33984358393354 L 882.476026880031 359.21532006392954 L 884.9152000000468 359.3871359999175 L 885.3749995520338 359.39843788795406 L 886.0937502720626 359.33593702391954 L 887.2970240000286 359.0082559999428 L 887.7885859840317 358.71512780792546 L 888.167424000043 358.6211839999305 L 888.870912000013 358.5914879999473 L 889.1791360000498 358.5914879999473 L 889.5000002560555 358.5039063039585 L 889.9409920000471 358.3590399999521 L 890.1471989760175 358.308891647961 L 890.6640629760223 358.3203123199637 L 891.5466240000096 358.3610879999469 L 892.228608000034 358.4378879999276 L 893.2997120000655 358.41945599997416 L 894.0544000000227 358.35699199995724 L 895.1449600000633 358.09075199993094 L 895.121449984028 358.5621360639343 L 895.1015628800378 358.9101557759568 L 895.1193251840305 358.9501204479602 L 895.1859200000181 359.11577599996235 L 895.6015626240405 359.48828159994446 L 895.834198016033 359.703328767966 L 895.968749568041 359.8320312319556 L 897.048169472022 361.05206886393717 L 898.9890560000204 363.2537599999341 L 899.0781245440594 363.3281249279389 L 899.0812160000205 363.32851199992 L 899.3648640000611 363.22815999994054 L 899.9874560000608 363.0479359999299 L 900.7902720000129 362.8021759999683 L 901.9699200000614 362.4744959999225 L 903.3281249280553 362.08203161595156 L 904.6896640000632 361.75359999993816 L 906.1015623680432 361.39453132794006 L 907.2619520000299 361.0327039999538 L 908.3924480000278 360.6558719999739 L 909.7499996160623 360.31250022392487 L 910.6875002880115 360.0351559679257 L 911.6692500480567 359.67283711995697 L 913.3749995520338 359.39453132794006 L 914.7500001280569 358.93749964796007 L 915.9618560000672 358.5914879999473 L 917.6015626240405 358.2148433919647 L 918.812499968044 357.8554685439449 L 920.109375488013 357.5117189119337 L 921.4013440000126 357.1169279999449 L 922.5468753920286 356.85546905593947 L 923.5937495040125 356.4687503359746 L 923.6347555840621 356.45166387193603 L 923.6953128960449 356.4296878079185 L 924.4664862720529 356.0518901759642 L 925.5802880000556 355.77343999996083 L 927.0078126080334 355.4140620799735 L 928.2508800000651 355.0197759999428 L 929.6953128960449 354.5117183999391 L 931.656250368047 353.97265612793854 L 934.6078720000223 353.10284799995134 L 936.3773440000368 352.5621759999194 L 937.8515630080365 352.1367183359689 L 938.8828129280591 351.8750003199675 L 939.4903040000354 351.67743999994127 L 940.1948160000611 351.33337599993683 L 941.0467840000638 351.05484799994156 L 942.2755840000464 350.72716799995396 L 943.6518400000641 350.3339519999572 L 944.2011279360158 350.1595750399283 L 944.6875002880115 350.0078120959224 L 945.2410880000098 349.64582399994833 L 946.1094400000293 349.5475199999637 L 947.1416320000426 349.2198399999179 L 948.4062504960457 348.7773439999437 L 949.2715520000202 348.54809599992586 L 949.9105280000367 348.38425599993207 L 950.6328125440632 348.17187532794196 L 951.2578129920294 347.9101562879514 L 951.9062497280538 347.6484372479608 L 952.892416000017 347.27014399995096 L 953.7607680000365 347.02438399993116 L 954.8912640000344 346.69670399994357 L 955.4155520000495 346.53286399994977 L 956.3822080000537 346.27071999997133 L 957.414400000067 345.9266559999669 L 958.6406246400438 345.4531246079714 L 959.8046873600106 345.0429685759591 L 961.1171870720573 344.4687503359746 L 962.2968750080327 344.0117186559364 L 963.0013440000475 343.7475839999388 L 963.787776000041 343.501823999919 L 964.460937216063 343.20703078393126 L 965.4261760000372 342.99391999992076 L 966.3125002240413 342.7812495359685 L 967.0318080000579 342.5515519999317 L 968.4899840000435 342.0600319999503 L 969.6718745600665 341.5859374079737 L 971.3749995520338 340.9140623359708 L 972.7031255040201 340.40625049592927 L 973.7984000000288 340.0120319999405 L 974.6015621120459 339.74999961594585 L 975.5859374080319 339.0468751359731 L 977.7656248320127 339.0468751359731 L 978.8446720000356 338.75046399992425 L 980.2578124800348 338.25781247991836 L 981.5644160000375 337.7346559999278 L 984.7101440000115 336.5550079999375 L 985.2999680000357 336.4730879999697 L 985.9375001600129 336.1796874239226 L 986.6412943360629 335.8515015679295 L 987.0202880000579 335.8177279999363 L 987.1562496000552 335.80078079993837 L 987.6640624640277 335.5546879999456 L 988.7421870080288 335.0976563199656 L 989.5625000960426 334.85156249592546 L 990.6094080000184 334.55615999992006 L 992.1484369920217 334.06640639994293 L 993.1816960000433 333.85164799995255 L 993.9025920000277 333.63865599996643 L 995.1969280000194 333.212671999936 L 995.445312512049 333.1484375039581 L 996.2968750080327 332.7695308799739 L 997.164062720025 332.4101560319541 L 998.080512000015 332.16409599996405 L 998.916096000059 331.83641599991824 L 999.8203125760192 331.5429683199618 L 1000.7656253440655 331.19921868795063 L 1002.2096711680642 330.5747660799534 L 1003.2265625600121 330.3632814079174 L 1003.6183040000615 330.14886399992974 L 1004.5358080000151 329.837567999959 L 1005.3906247680425 329.5117189119337 L 1005.9120640000328 329.24774399993476 L 1006.914062336029 328.7890626559383 L 1007.5859374080319 328.47656243195524 L 1008.1566720000119 328.21555199992144 L 1009.4531246080296 327.7734379519243 L 1010.33574400004 327.39635199995246 L 1011.023437824042 327.183593471942 L 1011.7447680000332 326.9539839999634 L 1011.9413760000607 326.8720639999374 L 1012.3509760000161 326.7082239999436 L 1013.8437498880667 326.25000038393773 L 1014.3828121600673 326.0546877439483 L 1014.8281251840526 325.9062497279374 L 1015.7424640000099 325.6760319999303 L 1016.266752000025 325.4302719999687 L 1017.1487938560313 325.0545879039564 L 1018.2656245760154 324.74218700797064 L 1018.9531248640269 324.3984373759595 L 1019.6582400000188 324.05401599995093 L 1020.2343751680455 323.7421875199652 L 1021.837312000047 323.23481599992374 L 1022.7056640000665 322.95628799992846 L 1023.7050880000461 322.49753599992255 L 1024.0 322.35991039995133" fill="none"/><path stroke="#408040" stroke-width="3" d="M 379.1052800000034 124.81536000000051 L 379.1667199999938 126.60736000000179 L 379.17695999999705 127.05791999999929 L 379.19744000000355 127.28319999999803 L 379.01312000000325 127.28319999999803 L 378.14272000000346 127.28319999999803 L 376.34047999999893 127.30367999999726 L 374.51776000000245 127.30367999999726 L 372.6233599999978 127.28319999999803 L 371.5686399999977 127.29344000000128 L 370.6675200000027 127.31392000000051 L 367.9744000000064 127.34464000000298 L 367.06303999999363 127.35487999999896 L 366.47935999999754 127.35487999999896 L 366.31552000000374 127.36512000000221 L 366.13120000000345 127.26271999999881 L 365.99808000000485 127.25248000000283 L 365.15840000000026 127.23200000000361 L 364.7488000000012 127.18080000000191 L 364.57472000000416 127.12960000000021 L 364.4108799999958 127.07839999999851 L 363.89887999999337 126.88384000000224 L 363.2435200000036 126.61759999999776 L 363.11040000000503 126.56640000000334 L 362.80319999999483 126.51520000000164 L 362.53695999999763 126.52543999999762 L 362.30143999999564 126.57663999999932 L 362.0454400000017 126.67904000000271 L 361.8304000000062 126.84287999999651 L 361.73824000000604 126.94527999999991 L 361.66655999999784 127.08864000000176 L 361.6460800000059 127.23200000000361 L 361.6563199999946 127.4470399999991 L 361.74847999999474 127.6825600000011 L 361.85087999999814 127.9180800000031 L 361.93279999999504 128.16384000000107 L 361.99424 128.39936000000307 L 362.05568000000494 128.56319999999687 L 362.18880000000354 128.90112000000227 L 362.5267199999944 129.75104000000283 L 362.72127999999793 130.25280000000203 L 362.80319999999483 130.61119999999937 L 362.8646399999998 130.9184000000023 L 362.8851200000063 131.07200000000012 L 362.95679999999993 131.1846399999995 L 363.00800000000163 131.3382399999973 L 363.08991999999853 131.54303999999684 L 363.1820799999987 131.64544000000024 L 363.4483199999959 133.27360000000044 L 363.601920000001 134.42048000000068 L 363.76575999999477 136.23296000000119 L 363.8476800000062 137.15456000000268 L 363.8579199999949 137.6255999999994 L 363.86815999999817 138.03519999999844 L 363.89887999999337 139.2537599999996 L 363.93984000000637 140.87167999999656 L 363.9808000000048 142.19264000000112 L 364.08319999999367 144.71168000000034 L 364.13439999999537 145.8278399999981 L 364.13439999999537 146.00192000000243 L 364.13439999999537 146.18624000000273 L 364.0320000000065 146.33984000000055 L 363.9910399999935 146.52416000000085 L 363.95007999999507 146.71871999999712 L 363.7964800000045 147.21024000000034 L 363.7247999999963 147.4252800000031 L 363.3971199999942 148.4595199999967 L 363.0284799999936 149.5654399999985 L 362.7622399999964 150.41535999999905 L 362.72127999999793 150.6406399999978 L 362.69056000000273 150.96831999999995 L 362.72127999999793 151.35743999999977 L 362.75199999999313 151.59296000000177 L 362.9158400000015 152.14592000000266 L 363.1001600000018 152.59648000000016 L 363.540479999996 153.40544000000227 L 363.7555200000061 153.75359999999637 L 364.07296000000497 154.27584000000206 L 364.2777599999972 154.60351999999693 L 364.26751999999397 154.6854400000011 L 364.26751999999397 154.69567999999708 L 364.3494400000054 154.83903999999893 L 364.482560000004 155.17695999999705 L 364.5644800000009 155.4534399999975 L 364.58495999999286 155.67872000000352 L 364.55423999999766 155.91423999999824 L 364.47232000000076 156.11903999999777 L 364.33920000000217 156.34431999999651 L 364.1139200000034 156.5798399999985 L 363.8579199999949 156.79488000000129 L 363.71455999999307 156.88704000000143 L 363.4585599999991 156.9996800000008 L 363.08991999999853 157.1327999999994 L 362.5779199999961 157.3171199999997 L 362.03519999999844 157.48096000000078 L 361.63584000000264 157.59360000000015 L 361.08288000000175 157.70623999999953 L 360.3558400000038 157.8188799999989 L 359.915519999995 157.8700800000006 L 358.7584000000061 157.96224000000075 L 358.7379199999996 157.97247999999672 L 358.5843199999945 158.06463999999687 L 358.3385600000038 158.09535999999935 L 357.9699200000032 158.15679999999702 L 357.0483200000017 158.33088000000134 L 356.70015999999305 158.4230400000015 L 356.00384000000486 158.638079999997 L 353.36191999999573 159.71328000000358 L 352.2048000000068 160.20479999999952 L 351.13984000000346 160.6860799999995 L 350.0236799999984 161.19808000000194 L 349.0099199999968 161.68959999999788 L 347.5251200000057 162.43712000000232 L 346.06080000000657 163.22559999999794 L 344.9651199999935 163.82976000000053 L 342.04671999999846 165.4988799999992 L 341.6678399999946 165.69344000000274 L 341.1558400000067 165.91872000000149 L 340.6131199999945 166.10304000000178 L 340.04992000000493 166.2566399999996 L 339.4662399999943 166.36927999999898 L 339.0361600000033 166.4409599999999 L 338.50367999999435 166.48191999999835 L 337.38752000000386 166.5228799999968 L 334.84799999999814 166.5740799999985 L 333.32223999999405 166.60480000000098 L 329.2262400000036 166.68671999999788 L 328.63232000000426 166.7276800000036 L 328.151039999997 166.77887999999803 L 327.60831999999937 166.87103999999817 L 327.1680000000051 166.96319999999832 L 326.604800000001 167.1270399999994 L 325.7651199999964 167.38304000000062 L 323.37919999999576 168.14080000000104 L 319.25247999999556 169.43104000000312 L 311.47007999999914 171.87840000000142 L 304.0358399999968 174.21312000000034 L 295.5161599999992 176.89600000000064 L 292.92544000000635 177.70496000000276 L 290.5804800000042 178.4320000000007 L 285.5014399999927 180.03968000000168 L 275.97823999999673 183.02975999999762 L 269.34272000000055 185.11871999999858 L 267.5302399999928 185.68192000000272 L 266.27072000000044 186.0607999999993 L 265.4105600000039 186.2963200000013 L 263.87455999999656 186.64448000000266 L 262.8300799999997 186.9209600000031 L 262.2156799999939 187.11551999999938 L 261.5500800000009 187.3715200000006 L 260.66943999999785 187.72991999999795 L 259.53280000000086 188.1907199999987 L 258.6726400000043 188.4979200000016 L 257.81247999999323 188.77440000000206 L 256.4505599999975 189.21472000000358 L 255.37536000000546 189.5526400000017 L 250.52159999999276 191.08864000000176 L 248.53504000000248 191.71328000000358 L 240.57855999999447 194.22207999999955 L 227.19487999999546 198.4409599999999 L 211.87583999999333 203.27423999999883 L 210.47295999999915 203.68383999999787 L 209.91999999999825 203.82719999999972 L 208.24064000000362 204.21631999999954 L 205.4655999999959 204.73855999999796 L 204.29824000000372 204.99455999999918 L 203.21279999999388 205.29151999999885 L 202.49599999999919 205.50656000000163 L 201.9123200000031 205.71136000000115 L 200.9600000000064 206.05952000000252 L 200.3558400000038 206.3052800000005 L 199.07584000000497 206.9094400000031 L 198.34880000000703 207.26784000000043 L 197.6012800000026 207.63648000000103 L 196.9664000000048 207.90271999999823 L 196.23936000000685 208.12799999999697 L 195.8911999999982 208.20992000000115 L 195.37919999999576 208.29183999999805 L 194.94912000000477 208.34303999999975 L 194.47808000000077 208.36351999999897 L 193.0035199999984 208.31231999999727 L 191.11935999999696 208.22015999999712 L 190.75071999999636 208.20992000000115 L 189.54240000000573 208.27135999999882 L 188.75392000000284 208.37376000000222 L 188.0063999999984 208.52736000000004 L 187.49439999999595 208.6707200000019 L 186.9209600000031 208.86527999999817 L 186.3475199999957 209.0905599999969 L 185.94815999999992 209.2748799999972 L 185.22112000000197 209.67424000000028 L 184.80127999999968 209.94047999999748 L 184.55551999999443 210.1145600000018 L 184.10495999999694 210.47295999999915 L 183.80800000000454 210.7494399999996 L 183.3472000000038 211.21024000000034 L 182.46656000000075 212.12159999999858 L 180.78720000000612 213.86239999999816 L 179.2716800000053 215.4291200000007 L 175.68768000000273 219.14624000000185 L 174.81728000000294 220.0063999999984 L 174.37695999999414 220.40576000000146 L 173.71136000000115 220.98943999999756 L 172.7795199999964 221.72671999999875 L 172.09343999999692 222.22847999999794 L 171.07967999999528 222.90432000000146 L 170.2604799999972 223.43680000000313 L 169.4719999999943 223.9487999999983 L 168.5913600000058 224.57344000000012 L 167.85408000000461 225.1571200000035 L 167.37279999999737 225.5769599999985 L 166.60480000000098 226.29376000000047 L 165.0278399999952 227.79903999999806 L 161.99679999999353 230.66623999999865 L 161.1571200000035 231.47520000000077 L 160.5222400000057 232.11007999999856 L 160.0 232.6732800000027 L 159.43679999999586 233.3593600000022 L 158.35136000000057 234.77247999999963 L 157.17376000000513 236.3084799999997 L 156.2931200000021 237.45535999999993 L 154.82880000000296 239.33952000000136 L 154.5011200000008 239.71839999999793 L 154.2348800000036 239.9846400000024 L 153.81504000000132 240.34303999999975 L 153.44640000000072 240.60927999999694 L 152.98559999999998 240.8857599999974 L 152.62720000000263 241.08032000000094 L 152.10495999999694 241.31584000000294 L 151.6953599999979 241.4591999999975 L 151.12192000000505 241.63328000000183 L 150.5587200000009 241.76640000000043 L 149.23776000000362 241.97119999999995 L 141.15840000000026 243.07712000000174 L 135.24992000000202 243.88607999999658 L 130.92863999999827 244.4800000000032 L 129.61792000000423 244.6131200000018 L 129.1571200000035 244.65408000000025 L 127.4982400000008 244.7462400000004 L 125.67552000000433 244.78719999999885 L 124.75392000000284 244.81792000000132 L 121.13920000000508 244.879359999999 L 118.44607999999425 244.9305600000007 L 116.43903999999748 244.879359999999 L 115.57888000000094 244.83840000000055 L 113.6435199999978 244.78719999999885 L 112.25088000000687 244.78719999999885 L 110.1004799999937 244.80767999999807 L 107.77599999999802 244.86912000000302 L 99.74783999999636 245.04320000000007 L 98.86719999999332 245.07392000000254 L 97.63839999999618 245.13536000000022 L 96.61440000000584 245.2479999999996 L 96.0 245.350400000003 L 95.18080000000191 245.50400000000081 L 94.27968000000692 245.72927999999956 L 93.33759999999893 246.01600000000326 L 92.81535999999323 246.21055999999953 L 91.69920000000275 246.67136000000028 L 90.13248000000021 247.3267199999973 L 86.8761599999998 248.70911999999953 L 82.0940799999953 250.7366400000028 L 79.08352000000014 252.01664000000164 L 76.35967999999411 253.17375999999786 L 74.14784000000509 254.11583999999857 L 72.9190399999934 254.66879999999946 L 72.04863999999361 255.08864000000176 L 71.12704000000667 255.55967999999848 L 69.88800000000629 256.245759999998 L 68.80255999999645 256.890879999999 L 67.83999999999651 257.5052799999976 L 66.70335999999952 258.2937600000005 L 65.53599999999278 259.1744000000035 L 63.477759999994305 260.8127999999997 L 62.586880000002566 261.4988799999992 L 61.88031999999657 262.0006399999984 L 60.91775999999663 262.604800000001 L 60.48768000000564 262.85055999999895 L 59.2691199999972 263.50592000000324 L 58.40896000000066 263.9155200000023 L 56.83199999999488 264.58112000000256 L 53.88288000000466 265.78944000000047 L 51.43551999999909 266.7622399999964 L 50.0940799999953 267.2332800000004 L 47.40095999999903 268.15488000000187 L 41.90207999999984 270.0390400000033 L 29.511679999995977 274.2988800000021 L 19.41504000000714 277.76000000000204 L 13.527040000000852 279.78751999999804 L 12.052479999998468 280.33024000000296 L 10.485759999995935 280.9753599999967 L 9.205759999997099 281.54879999999685 L 7.976959999999963 282.14272000000346 L 6.922239999999874 282.6854400000011 L 5.713919999994687 283.27936000000045 L 2.478080000000773 284.93824000000313 L 0.0 286.22738823529653" fill="none"/><path stroke="#408040" stroke-width="3" d="M 379.1052800000034 124.81536000000051 L 379.01312000000325 127.28319999999803 L 374.51776000000245 127.30367999999726 L 370.6675200000027 127.31392000000051 L 365.99808000000485 127.36512000000221 L 346.5011200000008 126.84287999999651 L 325.43743999999424 127.18080000000191 L 284.7436799999996 128.90112000000227 L 272.75264000000607 129.136639999997 L 263.47520000000077 131.25632000000041 L 243.98847999999998 131.5225599999976 L 216.38143999999738 130.7647999999972 L 198.91199999999662 129.136639999997 L 184.89343999999983 130.6828800000003 L 145.1929600000003 131.87071999999898 L 122.51136000000406 133.01759999999922 L 108.17535999999382 131.8911999999982 L 100.331520000007 129.2595199999996 L 94.92479999999341 129.46431999999913 L 83.66079999999783 134.2054399999979 L 68.6079999999929 150.17983999999706 L 58.859519999998156 156.33408000000054 L 52.09088000000338 158.863360000003 L 26.040320000000065 159.27296000000206 L 0.0 167.2019035897465" fill="none"/><path stroke="#408040" stroke-width="3" d="M 1024.0 438.6322499822636 L 1007.9129600000015 438.5894400000034 L 946.9132799999934 430.46912000000157 L 902.9427200000064 432.4351999999999 L 892.6822399999946 437.83168000000296 L 867.0207999999984 436.5619200000001 L 844.0627200000017 429.8240000000005 L 830.1158399999986 429.2607999999964 L 813.7625600000028 423.8131199999989 L 788.7769600000029 417.66911999999866 L 733.255680000002 421.887999999999 L 719.4931199999992 424.74496000000363 L 711.720960000006 416.4198400000023 L 706.0991999999969 407.80799999999726 L 687.6467200000043 406.02623999999923 L 635.7913600000029 399.5648000000001 L 599.2140800000052 400.31231999999727 L 534.1491200000019 397.60895999999775 L 505.77408000000287 371.9270400000023 L 495.3804800000071 350.35136000000057 L 489.758719999998 319.80543999999645 L 484.3110400000005 301.21983999999793 L 465.1622400000051 286.90432000000146 L 402.52416000000085 240.59904000000097 L 378.6547200000059 227.29727999999886 L 377.48735999999917 200.50944000000163 L 378.27584000000206 168.39680000000226 L 375.86943999999494 158.8223999999973 L 364.5132799999992 154.3270399999965 L 364.0627200000017 134.06208000000333 L 366.7865599999932 127.50847999999678 L 372.5209599999944 127.40608000000066 L 379.1052800000034 124.81536000000051" fill="none"/><path stroke="#408040" stroke-width="3" d="M 110.17462439833616 0.0 L 153.34399999999732 16.619520000000193 L 245.8521599999949 30.69952000000194 L 346.8697600000014 98.51903999999922 L 366.4896000000008 127.50847999999678 L 379.1052800000034 124.81536000000051" fill="none"/></svg>