<svg xmlns="http://www.w3.org/2000/svg" width="1024" height="1024"><rect stroke="none" x="0" y="0" width="1024" height="1024" fill="white"/><path stroke="#408040" stroke-width="3" d="M 0.0 242.951141052632 L 3.1948799999954645 242.07360000000335 L 10.659839999992982 239.73887999999715 L 16.179199999998673 237.1686400000035 L 22.7430400000012 232.72447999999713 L 28.968959999998333 227.82976000000053 L 41.533439999999246 217.95840000000317 L 59.4227200000023 203.91935999999987 L 68.66943999999785 196.70016000000032 L 78.42815999999584 191.38560000000143 L 95.10911999999371 184.22783999999956 L 99.89119999999821 182.35392000000138 L 104.40704000000551 181.57568000000174 L 110.87871999999334 182.09792000000016 L 117.87264000000141 185.09823999999935 L 147.37407999999414 201.2057599999971 L 200.3353599999973 230.18495999999868 L 218.40896000000066 240.08703999999852 L 229.0995200000034 245.8726400000014 L 237.7216000000044 248.5862399999969 L 272.75264000000607 252.18048000000272 L 311.4086399999942 256.0716800000009 L 373.6064000000042 262.2361600000004 L 403.6403200000059 271.5648000000001 L 443.0233600000065 283.0540800000017 L 459.9910399999935 288.53248000000167 L 472.42239999999583 293.84704000000056 L 484.00384000000486 298.77247999999963 L 493.81376000000455 301.4656000000032 L 508.2419200000004 303.9539199999999 L 522.6188799999945 306.57536000000255 L 528.9369600000064 308.6131200000018 L 539.8527999999933 312.83200000000215 L 552.6630399999995 317.7574400000012 L 563.927039999995 321.85343999999895 L 572.7027200000011 323.72735999999713 L 598.4563199999975 328.6528000000035 L 635.3305600000022 339.36383999999816 L 649.9020799999998 343.3267199999973 L 665.2006399999955 345.59999999999854 L 679.4752000000008 345.91743999999744 L 690.7391999999963 345.04703999999765 L 706.5497599999944 341.9852800000008 L 721.8175999999949 336.73215999999957 L 730.6444800000027 332.42111999999906 L 742.307839999994 324.8640000000014 L 750.2028799999971 318.0031999999992 L 754.4320000000007 313.4464000000007 L 758.6611200000043 307.98848 L 762.1529600000067 302.65344000000186 L 764.8153599999932 299.86815999999817 L 772.9459199999983 295.0656000000017 L 780.4928000000073 290.6316799999986 L 787.9679999999935 286.2694399999964 L 798.3718400000071 281.36447999999655 L 809.523199999996 276.8998399999982 L 825.7023999999947 268.73855999999796 L 833.310719999994 263.6492799999978 L 839.5571199999977 258.4780800000008 L 852.0191999999952 248.1152000000002 L 864.3071999999956 238.2540799999988 L 867.5942400000058 236.01152000000002 L 872.1817600000068 234.89536000000226 L 882.4934400000056 234.82368000000133 L 901.1609599999938 234.77247999999963 L 945.5206400000025 234.6700800000035 L 986.593280000001 234.57792000000336 L 1004.3904000000039 234.54720000000088 L 1016.2688000000053 235.44832000000315 L 1024.0 237.69351737188117" fill="none"/></svg>