<svg xmlns="http://www.w3.org/2000/svg" width="1024" height="1024"><rect stroke="none" x="0" y="0" width="1024" height="1024" fill="white"/><path stroke="#000000" stroke-width="2" d="M 0.0 511.7772225763765 L 0.7187496960978024 511.7812500479631 L 21.507812352036126 511.98828134388896 L 142.1328128000605 511.98828134388896 L 169.88281241612276 511.98828134388896 L 172.34374963201117 512.0898437119322 L 188.62500044808257 512.0898437119322 L 202.5468753920868 512.292968447844 L 207.7734379520989 511.98828134388896 L 211.56250009610085 512.0898437119322 L 217.09374976006802 512.1914060798008 L 224.57031270407606 512.0898437119322 L 284.2656245760736 512.0898437119322 L 291.5390627840534 512.1914060798008 L 344.78124953602673 512.1914060798008 L 359.42968729604036 512.292968447844 L 365.16406272002496 512.292968447844 L 368.1328128001187 512.1914060798008 L 380.21093785611447 512.1914060798008 L 382.87499980808934 512.0898437119322 L 386.8671877120505 512.1914060798008 L 487.6328120320104 512.1914060798008 L 495.82812467205804 512.0898437119322 L 506.98437529610237 511.98828134388896 L 512.4140625920263 511.98828134388896 L 519.4765629440662 511.7812500479631 L 525.624999936088 511.6796876799199 L 536.4765624320135 511.6796876799199 L 552.4531251200824 511.4765629438334 L 558.5937500161235 510.8593745919643 L 565.7656248320709 511.4765629438334 L 574.0707205120125 511.5950766078313 L 580.0000000001164 511.6796876799199 L 619.9296870401013 511.6796876799199 L 626.7968747520354 511.8867189758457 L 640.4140625920263 511.6796876799199 L 680.6562498561107 511.6796876799199 L 687.1093749760767 511.57812531187665 L 742.6093752320157 511.57812531187665 L 748.5468753920868 511.4765629438334 L 767.2890624000574 511.4765629438334 L 773.3281249280553 510.7578122239793 L 779.3671874560532 510.8593745919643 L 783.5703121920233 510.9648435199051 L 796.0624998401036 511.06640588794835 L 804.14843699208 511.06640588794835 L 807.6328120320686 511.26953164790757 L 824.53125017602 511.26953164790757 L 838.8671877121087 511.1679682559916 L 844.3906252800953 511.06640588794835 L 852.9921873920248 511.1679682559916 L 865.898437632015 511.57812531187665 L 869.0703124480206 511.4765629438334 L 873.9843747840496 511.4765629438334 L 879.3124997120467 511.3749995519174 L 887.6093747200794 511.3749995519174 L 896.2109378560563 511.1679682559916 L 899.4843750401051 511.1679682559916 L 905.6328120320104 511.26953164790757 L 907.7812500480795 511.3710940159508 L 915.7656248320709 511.3749995519174 L 918.6328125440632 511.1679682559916 L 1002.4999997441191 511.1679682559916 L 1009.4609377281158 511.06640588794835 L 1023.6953128960449 511.4765629438334 L 1024.0 511.4765629438334" fill="none"/><path stroke="#000000" stroke-width="2" d="M 1024.0 511.47656294394983 L 1023.6953128960449 511.47656294394983 L 1009.4609377280576 511.06640588794835 L 1002.4999997440609 511.1679682559334 L 918.6328125440632 511.1679682559334 L 915.7656248320127 511.3749995519174 L 907.7812500480213 511.3710940159508 L 905.6328120320104 511.2695316479658 L 899.4843750400469 511.1679682559334 L 896.2109378560563 511.1679682559334 L 887.6093747200212 511.3749995519174 L 879.3124997120467 511.3749995519174 L 873.9843747840496 511.47656294394983 L 869.0703124480206 511.47656294394983 L 865.898437632015 511.57812531193485 L 852.9921873920248 511.1679682559334 L 844.390625280037 511.06640588794835 L 838.8671877120505 511.1679682559334 L 824.53125017602 511.2695316479658 L 807.6328120320104 511.2695316479658 L 804.1484369920217 511.06640588794835 L 796.0624998400453 511.06640588794835 L 783.5703121920233 510.9648435199633 L 779.3671874560532 510.8593745919643 L 773.3281249280553 510.75781222392106 L 767.2890624000574 511.47656294394983 L 748.5468753920286 511.47656294394983 L 742.6093752320157 511.57812531193485 L 687.1093749760184 511.57812531193485 L 680.6562498560525 511.6796876799199 L 640.4140625920263 511.6796876799199 L 626.7968747520354 511.88671897596214 L 619.9296870400431 511.6796876799199 L 580.0000000000582 511.6796876799199 L 565.7656248320127 511.47656294394983 L 558.5937500160653 510.8593745919643 L 552.4531251200242 511.47656294394983 L 536.4765624320135 511.6796876799199 L 525.6249999360298 511.6796876799199 L 519.4765629440662 511.7812500479631 L 512.4140625920263 511.98828134394716 L 506.98437529604416 511.98828134394716 L 495.82812467205804 512.0898437119322 L 487.6328120320104 512.1914060799172 L 386.8671877120505 512.1914060799172 L 382.87499980803113 512.0898437119322 L 380.21093785605626 512.1914060799172 L 368.1328128000605 512.1914060799172 L 365.16406272002496 512.2929684479604 L 359.42968729604036 512.2929684479604 L 344.78124953602673 512.1914060799172 L 291.5390627840534 512.1914060799172 L 284.2656245760154 512.0898437119322 L 224.57031270401785 512.0898437119322 L 217.0937497600098 512.1914060799172 L 211.56250009604264 512.0898437119322 L 207.7734379520407 511.98828134394716 L 202.5468753920286 512.2929684479604 L 188.62500044802437 512.0898437119322 L 172.34374963201117 512.0898437119322 L 169.88281241606455 511.98828134394716 L 21.507812352036126 511.98828134394716 L 0.7187496960395947 511.7812500479631 L 0.0 511.7772225763765" fill="none"/><path stroke="#408040" stroke-width="3" d="M 0.0 371.19965391943697 L 374.56896000000415 370.97471999999834 L 853.0329599999968 370.00192000000243 L 1024.0 366.9812041763653" fill="none"/></svg>