<svg xmlns="http://www.w3.org/2000/svg" width="1024" height="1024"><rect stroke="none" x="0" y="0" width="1024" height="1024" fill="white"/><path stroke="#408040" stroke-width="3" d="M 0.0 714.4443113978487 L 2.5292800000024727 713.9020799999998 L 18.780159999994794 712.3660799999998 L 31.11935999999696 704.174079999997 L 46.28479999999399 689.3977599999998 L 68.51583999999275 675.4303999999975 L 80.34304000000702 665.5180800000016 L 91.31007999999565 656.52736 L 100.66943999999785 628.9407999999967 L 109.9571200000064 608.5120000000024 L 133.3452799999941 564.2444800000012 L 161.3414400000038 509.38880000000063 L 173.24031999999715 486.61503999999695 L 190.73024000000441 468.16255999999703 L 209.8790399999998 454.79935999999725 L 244.02943999999843 436.0703999999969 L 297.1443200000067 406.9375999999975 L 309.6883200000011 396.63616000000184 L 330.9977599999984 371.10783999999694 L 366.02880000000005 329.1852799999979 L 416.30719999999565 269.7830400000021 L 429.854720000003 257.2390400000004 L 473.1801600000035 247.31648000000132 L 483.93215999999666 245.20704000000114 L 494.61247999999614 245.70880000000034 L 513.9967999999935 252.5286399999968 L 525.8649600000062 251.6377599999978 L 538.296319999994 248.4019199999966 L 548.9561600000015 248.09472000000096 L 562.0736000000034 245.04320000000007 L 577.5564799999993 237.383679999999 L 591.9129600000015 238.2233600000036 L 634.593280000001 234.1990399999995 L 655.2883200000069 231.6800000000003 L 670.1158399999986 229.47839999999997 L 688.0051200000016 225.84320000000298 L 708.4134400000039 225.53600000000006 L 728.3609600000054 223.11935999999696 L 767.7132799999963 217.90720000000147 L 791.0809600000066 203.81695999999647 L 810.659839999993 191.19103999999788 L 817.2339199999988 187.36127999999735 L 825.4976000000024 186.9004799999966 L 834.6009599999961 186.4294399999999 L 841.0111999999936 182.44608000000153 L 847.400959999999 179.78368000000046 L 858.9209600000031 179.29215999999724 L 880.9779200000048 180.65408000000025 L 898.1503999999986 179.54815999999846 L 911.3190400000021 177.47967999999673 L 927.4572800000024 164.8947199999966 L 942.929919999995 153.15967999999702 L 950.5689600000042 145.0700799999977 L 958.8736000000063 141.57824000000255 L 977.8380800000014 140.58496000000014 L 991.9487999999983 139.82719999999972 L 1000.8064000000013 136.16128000000026 L 1006.264320000002 131.09247999999934 L 1009.7663999999932 117.15583999999944 L 1011.7836799999932 110.65344000000186 L 1015.2345599999971 106.15808000000106 L 1024.0 100.16577699114714" fill="none"/></svg>